<?xml version="1.0" encoding="UTF-8" standalone="no"?><svg xmlns="http://www.w3.org/2000/svg" xmlns:xlink="http://www.w3.org/1999/xlink" contentScriptType="application/ecmascript" contentStyleType="text/css" height="870px" preserveAspectRatio="none" style="width:2283px;height:870px;" version="1.1" viewBox="0 0 2283 870" width="2283px" zoomAndPan="magnify"><defs/><g><rect fill="#FEFECE" height="40.9766" rx="5" ry="5" style="stroke:#FEFECE;stroke-width:1.5;" width="97" x="10" y="506"/><text fill="#000000" font-family="sans-serif" font-size="14" lengthAdjust="spacing" textLength="27" x="15" y="521.5352">info</text><text fill="#000000" font-family="sans-serif" font-size="14" lengthAdjust="spacing" textLength="0" x="102" y="521.5352"/><line style="stroke:#A80036;stroke-width:1.0;" x1="85" x2="85" y1="506" y2="526.4883"/><line style="stroke:#A80036;stroke-width:1.0;" x1="10" x2="107" y1="526.4883" y2="526.4883"/><text fill="#000000" font-family="sans-serif" font-size="14" lengthAdjust="spacing" textLength="65" x="15" y="542.0234">sdfObject</text><text fill="#000000" font-family="sans-serif" font-size="14" lengthAdjust="spacing" textLength="0" x="102" y="542.0234"/><line style="stroke:#A80036;stroke-width:1.0;" x1="85" x2="85" y1="526.4883" y2="546.9766"/><rect fill="none" height="40.9766" rx="5" ry="5" style="stroke:#A80036;stroke-width:1.5;" width="97" x="10" y="506"/><rect fill="#FEFECE" height="81.9531" rx="5" ry="5" style="stroke:#FEFECE;stroke-width:1.5;" width="547" x="144" y="450.5"/><text fill="#000000" font-family="sans-serif" font-size="14" lengthAdjust="spacing" textLength="26" x="149" y="466.0352">title</text><text fill="#000000" font-family="sans-serif" font-size="14" lengthAdjust="spacing" textLength="298" x="224" y="466.0352">OMA LwM2M Light Control (Object ID 3311)</text><line style="stroke:#A80036;stroke-width:1.0;" x1="219" x2="219" y1="450.5" y2="470.9883"/><line style="stroke:#A80036;stroke-width:1.0;" x1="144" x2="691" y1="470.9883" y2="470.9883"/><text fill="#000000" font-family="sans-serif" font-size="14" lengthAdjust="spacing" textLength="50" x="149" y="486.5234">version</text><text fill="#000000" font-family="sans-serif" font-size="14" lengthAdjust="spacing" textLength="88" x="224" y="486.5234">2021-02-11</text><line style="stroke:#A80036;stroke-width:1.0;" x1="219" x2="219" y1="470.9883" y2="491.4766"/><line style="stroke:#A80036;stroke-width:1.0;" x1="144" x2="691" y1="491.4766" y2="491.4766"/><text fill="#000000" font-family="sans-serif" font-size="14" lengthAdjust="spacing" textLength="65" x="149" y="507.0117">copyright</text><text fill="#000000" font-family="sans-serif" font-size="14" lengthAdjust="spacing" textLength="208" x="224" y="507.0117">Copyright (c) 2018-2020 IPSO</text><line style="stroke:#A80036;stroke-width:1.0;" x1="219" x2="219" y1="491.4766" y2="511.9648"/><line style="stroke:#A80036;stroke-width:1.0;" x1="144" x2="691" y1="511.9648" y2="511.9648"/><text fill="#000000" font-family="sans-serif" font-size="14" lengthAdjust="spacing" textLength="47" x="149" y="527.5">license</text><text fill="#000000" font-family="sans-serif" font-size="14" lengthAdjust="spacing" textLength="462" x="224" y="527.5">https://github.com/one-data-model/oneDM/blob/master/LICENSE</text><line style="stroke:#A80036;stroke-width:1.0;" x1="219" x2="219" y1="511.9648" y2="532.4531"/><rect fill="none" height="81.9531" rx="5" ry="5" style="stroke:#A80036;stroke-width:1.5;" width="547" x="144" y="450.5"/><rect fill="#FEFECE" height="20.4883" rx="5" ry="5" style="stroke:#FEFECE;stroke-width:1.5;" width="125" x="355" y="550.5"/><text fill="#000000" font-family="sans-serif" font-size="14" lengthAdjust="spacing" textLength="93" x="360" y="566.0352">Light_Control</text><text fill="#000000" font-family="sans-serif" font-size="14" lengthAdjust="spacing" textLength="0" x="475" y="566.0352"/><line style="stroke:#A80036;stroke-width:1.0;" x1="458" x2="458" y1="550.5" y2="570.9883"/><rect fill="none" height="20.4883" rx="5" ry="5" style="stroke:#A80036;stroke-width:1.5;" width="125" x="355" y="550.5"/><rect fill="#FEFECE" height="151.9063" rx="5" ry="5" style="stroke:#FEFECE;stroke-width:1.5;" width="560" x="728" y="484.5"/><text fill="#000000" font-family="sans-serif" font-size="14" lengthAdjust="spacing" textLength="33" x="733" y="500.0352">label</text><text fill="#000000" font-family="sans-serif" font-size="14" lengthAdjust="spacing" textLength="90" x="826" y="500.0352">Light Control</text><line style="stroke:#A80036;stroke-width:1.0;" x1="821" x2="821" y1="484.5" y2="504.9883"/><line style="stroke:#A80036;stroke-width:1.0;" x1="728" x2="1288" y1="504.9883" y2="504.9883"/><text fill="#000000" font-family="sans-serif" font-size="14" lengthAdjust="spacing" textLength="77" x="733" y="520.5234">description</text><text fill="#000000" font-family="sans-serif" font-size="14" lengthAdjust="spacing" textLength="457" x="826" y="520.5234">This Object is used to control a light source, such as a LED or other</text><text fill="#000000" font-family="sans-serif" font-size="14" lengthAdjust="spacing" textLength="406" x="826" y="537.0117">light.  It allows a light to be turned on or off and its dimmer</text><text fill="#000000" font-family="sans-serif" font-size="14" lengthAdjust="spacing" textLength="455" x="826" y="553.5">setting to be control as a % between 0 and 100. An optional colour</text><text fill="#000000" font-family="sans-serif" font-size="14" lengthAdjust="spacing" textLength="445" x="826" y="569.9883">setting enables a string to be used to indicate the desired colour.</text><line style="stroke:#A80036;stroke-width:1.0;" x1="821" x2="821" y1="504.9883" y2="574.9414"/><line style="stroke:#A80036;stroke-width:1.0;" x1="728" x2="1288" y1="574.9414" y2="574.9414"/><text fill="#000000" font-family="sans-serif" font-size="14" lengthAdjust="spacing" textLength="79" x="733" y="590.4766">sdfProperty</text><text fill="#000000" font-family="sans-serif" font-size="14" lengthAdjust="spacing" textLength="0" x="838" y="590.4766"/><line style="stroke:#A80036;stroke-width:1.0;" x1="821" x2="821" y1="574.9414" y2="595.4297"/><line style="stroke:#A80036;stroke-width:1.0;" x1="728" x2="1288" y1="595.4297" y2="595.4297"/><text fill="#000000" font-family="sans-serif" font-size="14" lengthAdjust="spacing" textLength="65" x="733" y="610.9648">sdfAction</text><text fill="#000000" font-family="sans-serif" font-size="14" lengthAdjust="spacing" textLength="0" x="838" y="610.9648"/><line style="stroke:#A80036;stroke-width:1.0;" x1="821" x2="821" y1="595.4297" y2="615.918"/><line style="stroke:#A80036;stroke-width:1.0;" x1="728" x2="1288" y1="615.918" y2="615.918"/><text fill="#000000" font-family="sans-serif" font-size="14" lengthAdjust="spacing" textLength="83" x="733" y="631.4531">sdfRequired</text><text fill="#000000" font-family="sans-serif" font-size="14" lengthAdjust="spacing" textLength="0" x="838" y="631.4531"/><line style="stroke:#A80036;stroke-width:1.0;" x1="821" x2="821" y1="615.918" y2="636.4063"/><rect fill="none" height="151.9063" rx="5" ry="5" style="stroke:#A80036;stroke-width:1.5;" width="560" x="728" y="484.5"/><rect fill="#FEFECE" height="163.9063" rx="5" ry="5" style="stroke:#FEFECE;stroke-width:1.5;" width="205" x="1388.5" y="400.5"/><text fill="#000000" font-family="sans-serif" font-size="14" lengthAdjust="spacing" textLength="48" x="1393.5" y="416.0352">On_Off</text><text fill="#000000" font-family="sans-serif" font-size="14" lengthAdjust="spacing" textLength="0" x="1588.5" y="416.0352"/><line style="stroke:#A80036;stroke-width:1.0;" x1="1571.5" x2="1571.5" y1="400.5" y2="420.9883"/><line style="stroke:#A80036;stroke-width:1.0;" x1="1388.5" x2="1593.5" y1="420.9883" y2="420.9883"/><text fill="#000000" font-family="sans-serif" font-size="14" lengthAdjust="spacing" textLength="54" x="1393.5" y="436.5234">Dimmer</text><text fill="#000000" font-family="sans-serif" font-size="14" lengthAdjust="spacing" textLength="0" x="1588.5" y="436.5234"/><line style="stroke:#A80036;stroke-width:1.0;" x1="1571.5" x2="1571.5" y1="420.9883" y2="441.4766"/><line style="stroke:#A80036;stroke-width:1.0;" x1="1388.5" x2="1593.5" y1="441.4766" y2="441.4766"/><text fill="#000000" font-family="sans-serif" font-size="14" lengthAdjust="spacing" textLength="57" x="1393.5" y="457.0117">On_time</text><text fill="#000000" font-family="sans-serif" font-size="14" lengthAdjust="spacing" textLength="0" x="1588.5" y="457.0117"/><line style="stroke:#A80036;stroke-width:1.0;" x1="1571.5" x2="1571.5" y1="441.4766" y2="461.9648"/><line style="stroke:#A80036;stroke-width:1.0;" x1="1388.5" x2="1593.5" y1="461.9648" y2="461.9648"/><text fill="#000000" font-family="sans-serif" font-size="14" lengthAdjust="spacing" textLength="173" x="1393.5" y="477.5">Cumulative_active_power</text><text fill="#000000" font-family="sans-serif" font-size="14" lengthAdjust="spacing" textLength="0" x="1588.5" y="477.5"/><line style="stroke:#A80036;stroke-width:1.0;" x1="1571.5" x2="1571.5" y1="461.9648" y2="482.4531"/><line style="stroke:#A80036;stroke-width:1.0;" x1="1388.5" x2="1593.5" y1="482.4531" y2="482.4531"/><text fill="#000000" font-family="sans-serif" font-size="14" lengthAdjust="spacing" textLength="89" x="1393.5" y="497.9883">Power_factor</text><text fill="#000000" font-family="sans-serif" font-size="14" lengthAdjust="spacing" textLength="0" x="1588.5" y="497.9883"/><line style="stroke:#A80036;stroke-width:1.0;" x1="1571.5" x2="1571.5" y1="482.4531" y2="502.9414"/><line style="stroke:#A80036;stroke-width:1.0;" x1="1388.5" x2="1593.5" y1="502.9414" y2="502.9414"/><text fill="#000000" font-family="sans-serif" font-size="14" lengthAdjust="spacing" textLength="47" x="1393.5" y="518.4766">Colour</text><text fill="#000000" font-family="sans-serif" font-size="14" lengthAdjust="spacing" textLength="0" x="1588.5" y="518.4766"/><line style="stroke:#A80036;stroke-width:1.0;" x1="1571.5" x2="1571.5" y1="502.9414" y2="523.4297"/><line style="stroke:#A80036;stroke-width:1.0;" x1="1388.5" x2="1593.5" y1="523.4297" y2="523.4297"/><text fill="#000000" font-family="sans-serif" font-size="14" lengthAdjust="spacing" textLength="89" x="1393.5" y="538.9648">Sensor_Units</text><text fill="#000000" font-family="sans-serif" font-size="14" lengthAdjust="spacing" textLength="0" x="1588.5" y="538.9648"/><line style="stroke:#A80036;stroke-width:1.0;" x1="1571.5" x2="1571.5" y1="523.4297" y2="543.918"/><line style="stroke:#A80036;stroke-width:1.0;" x1="1388.5" x2="1593.5" y1="543.918" y2="543.918"/><text fill="#000000" font-family="sans-serif" font-size="14" lengthAdjust="spacing" textLength="118" x="1393.5" y="559.4531">Application_Type</text><text fill="#000000" font-family="sans-serif" font-size="14" lengthAdjust="spacing" textLength="0" x="1588.5" y="559.4531"/><line style="stroke:#A80036;stroke-width:1.0;" x1="1571.5" x2="1571.5" y1="543.918" y2="564.4063"/><rect fill="none" height="163.9063" rx="5" ry="5" style="stroke:#A80036;stroke-width:1.5;" width="205" x="1388.5" y="400.5"/><rect fill="#FEFECE" height="61.4648" rx="5" ry="5" style="stroke:#FEFECE;stroke-width:1.5;" width="533" x="1716" y="10"/><text fill="#000000" font-family="sans-serif" font-size="14" lengthAdjust="spacing" textLength="33" x="1721" y="25.5352">label</text><text fill="#000000" font-family="sans-serif" font-size="14" lengthAdjust="spacing" textLength="48" x="1808" y="25.5352">On/Off</text><line style="stroke:#A80036;stroke-width:1.0;" x1="1803" x2="1803" y1="10" y2="30.4883"/><line style="stroke:#A80036;stroke-width:1.0;" x1="1716" x2="2249" y1="30.4883" y2="30.4883"/><text fill="#000000" font-family="sans-serif" font-size="14" lengthAdjust="spacing" textLength="77" x="1721" y="46.0234">description</text><text fill="#000000" font-family="sans-serif" font-size="14" lengthAdjust="spacing" textLength="436" x="1808" y="46.0234">On/off control. Boolean value where True is On and False is Off.</text><line style="stroke:#A80036;stroke-width:1.0;" x1="1803" x2="1803" y1="30.4883" y2="50.9766"/><line style="stroke:#A80036;stroke-width:1.0;" x1="1716" x2="2249" y1="50.9766" y2="50.9766"/><text fill="#000000" font-family="sans-serif" font-size="14" lengthAdjust="spacing" textLength="29" x="1721" y="66.5117">type</text><text fill="#000000" font-family="sans-serif" font-size="14" lengthAdjust="spacing" textLength="56" x="1808" y="66.5117">boolean</text><line style="stroke:#A80036;stroke-width:1.0;" x1="1803" x2="1803" y1="50.9766" y2="71.4648"/><rect fill="none" height="61.4648" rx="5" ry="5" style="stroke:#A80036;stroke-width:1.5;" width="533" x="1716" y="10"/><rect fill="#FEFECE" height="139.418" rx="5" ry="5" style="stroke:#FEFECE;stroke-width:1.5;" width="577" x="1694" y="89"/><text fill="#000000" font-family="sans-serif" font-size="14" lengthAdjust="spacing" textLength="33" x="1699" y="104.5352">label</text><text fill="#000000" font-family="sans-serif" font-size="14" lengthAdjust="spacing" textLength="54" x="1786" y="104.5352">Dimmer</text><line style="stroke:#A80036;stroke-width:1.0;" x1="1781" x2="1781" y1="89" y2="109.4883"/><line style="stroke:#A80036;stroke-width:1.0;" x1="1694" x2="2271" y1="109.4883" y2="109.4883"/><text fill="#000000" font-family="sans-serif" font-size="14" lengthAdjust="spacing" textLength="77" x="1699" y="125.0234">description</text><text fill="#000000" font-family="sans-serif" font-size="14" lengthAdjust="spacing" textLength="480" x="1786" y="125.0234">This resource represents a dimmer setting, which has an Integer value</text><text fill="#000000" font-family="sans-serif" font-size="14" lengthAdjust="spacing" textLength="248" x="1786" y="141.5117">between 0 and 100 as a percentage.</text><line style="stroke:#A80036;stroke-width:1.0;" x1="1781" x2="1781" y1="109.4883" y2="146.4648"/><line style="stroke:#A80036;stroke-width:1.0;" x1="1694" x2="2271" y1="146.4648" y2="146.4648"/><text fill="#000000" font-family="sans-serif" font-size="14" lengthAdjust="spacing" textLength="29" x="1699" y="162">type</text><text fill="#000000" font-family="sans-serif" font-size="14" lengthAdjust="spacing" textLength="49" x="1786" y="162">integer</text><line style="stroke:#A80036;stroke-width:1.0;" x1="1781" x2="1781" y1="146.4648" y2="166.9531"/><line style="stroke:#A80036;stroke-width:1.0;" x1="1694" x2="2271" y1="166.9531" y2="166.9531"/><text fill="#000000" font-family="sans-serif" font-size="14" lengthAdjust="spacing" textLength="27" x="1699" y="182.4883">unit</text><text fill="#000000" font-family="sans-serif" font-size="14" lengthAdjust="spacing" textLength="34" x="1786" y="182.4883">/100</text><line style="stroke:#A80036;stroke-width:1.0;" x1="1781" x2="1781" y1="166.9531" y2="187.4414"/><line style="stroke:#A80036;stroke-width:1.0;" x1="1694" x2="2271" y1="187.4414" y2="187.4414"/><text fill="#000000" font-family="sans-serif" font-size="14" lengthAdjust="spacing" textLength="65" x="1699" y="202.9766">minimum</text><text fill="#000000" font-family="sans-serif" font-size="14" lengthAdjust="spacing" textLength="9" x="1786" y="202.9766">0</text><line style="stroke:#A80036;stroke-width:1.0;" x1="1781" x2="1781" y1="187.4414" y2="207.9297"/><line style="stroke:#A80036;stroke-width:1.0;" x1="1694" x2="2271" y1="207.9297" y2="207.9297"/><text fill="#000000" font-family="sans-serif" font-size="14" lengthAdjust="spacing" textLength="69" x="1699" y="223.4648">maximum</text><text fill="#000000" font-family="sans-serif" font-size="14" lengthAdjust="spacing" textLength="27" x="1786" y="223.4648">100</text><line style="stroke:#A80036;stroke-width:1.0;" x1="1781" x2="1781" y1="207.9297" y2="228.418"/><rect fill="none" height="139.418" rx="5" ry="5" style="stroke:#A80036;stroke-width:1.5;" width="577" x="1694" y="89"/><rect fill="#FEFECE" height="98.4414" rx="5" ry="5" style="stroke:#FEFECE;stroke-width:1.5;" width="566" x="1699.5" y="246.5"/><text fill="#000000" font-family="sans-serif" font-size="14" lengthAdjust="spacing" textLength="33" x="1704.5" y="262.0352">label</text><text fill="#000000" font-family="sans-serif" font-size="14" lengthAdjust="spacing" textLength="54" x="1791.5" y="262.0352">On time</text><line style="stroke:#A80036;stroke-width:1.0;" x1="1786.5" x2="1786.5" y1="246.5" y2="266.9883"/><line style="stroke:#A80036;stroke-width:1.0;" x1="1699.5" x2="2265.5" y1="266.9883" y2="266.9883"/><text fill="#000000" font-family="sans-serif" font-size="14" lengthAdjust="spacing" textLength="77" x="1704.5" y="282.5234">description</text><text fill="#000000" font-family="sans-serif" font-size="14" lengthAdjust="spacing" textLength="469" x="1791.5" y="282.5234">The time in seconds that the device has been on. Writing a value of 0</text><text fill="#000000" font-family="sans-serif" font-size="14" lengthAdjust="spacing" textLength="128" x="1791.5" y="299.0117">resets the counter.</text><line style="stroke:#A80036;stroke-width:1.0;" x1="1786.5" x2="1786.5" y1="266.9883" y2="303.9648"/><line style="stroke:#A80036;stroke-width:1.0;" x1="1699.5" x2="2265.5" y1="303.9648" y2="303.9648"/><text fill="#000000" font-family="sans-serif" font-size="14" lengthAdjust="spacing" textLength="29" x="1704.5" y="319.5">type</text><text fill="#000000" font-family="sans-serif" font-size="14" lengthAdjust="spacing" textLength="49" x="1791.5" y="319.5">integer</text><line style="stroke:#A80036;stroke-width:1.0;" x1="1786.5" x2="1786.5" y1="303.9648" y2="324.4531"/><line style="stroke:#A80036;stroke-width:1.0;" x1="1699.5" x2="2265.5" y1="324.4531" y2="324.4531"/><text fill="#000000" font-family="sans-serif" font-size="14" lengthAdjust="spacing" textLength="27" x="1704.5" y="339.9883">unit</text><text fill="#000000" font-family="sans-serif" font-size="14" lengthAdjust="spacing" textLength="7" x="1791.5" y="339.9883">s</text><line style="stroke:#A80036;stroke-width:1.0;" x1="1786.5" x2="1786.5" y1="324.4531" y2="344.9414"/><rect fill="none" height="98.4414" rx="5" ry="5" style="stroke:#A80036;stroke-width:1.5;" width="566" x="1699.5" y="246.5"/><rect fill="#FEFECE" height="118.9297" rx="5" ry="5" style="stroke:#FEFECE;stroke-width:1.5;" width="570" x="1697.5" y="363"/><text fill="#000000" font-family="sans-serif" font-size="14" lengthAdjust="spacing" textLength="33" x="1702.5" y="378.5352">label</text><text fill="#000000" font-family="sans-serif" font-size="14" lengthAdjust="spacing" textLength="167" x="1789.5" y="378.5352">Cumulative active power</text><line style="stroke:#A80036;stroke-width:1.0;" x1="1784.5" x2="1784.5" y1="363" y2="383.4883"/><line style="stroke:#A80036;stroke-width:1.0;" x1="1697.5" x2="2267.5" y1="383.4883" y2="383.4883"/><text fill="#000000" font-family="sans-serif" font-size="14" lengthAdjust="spacing" textLength="77" x="1702.5" y="399.0234">description</text><text fill="#000000" font-family="sans-serif" font-size="14" lengthAdjust="spacing" textLength="473" x="1789.5" y="399.0234">The cumulative active power since the last cumulative energy reset or</text><text fill="#000000" font-family="sans-serif" font-size="14" lengthAdjust="spacing" textLength="82" x="1789.5" y="415.5117">device start.</text><line style="stroke:#A80036;stroke-width:1.0;" x1="1784.5" x2="1784.5" y1="383.4883" y2="420.4648"/><line style="stroke:#A80036;stroke-width:1.0;" x1="1697.5" x2="2267.5" y1="420.4648" y2="420.4648"/><text fill="#000000" font-family="sans-serif" font-size="14" lengthAdjust="spacing" textLength="55" x="1702.5" y="436">writable</text><text fill="#000000" font-family="sans-serif" font-size="14" lengthAdjust="spacing" textLength="48" x="1789.5" y="436">☐ false</text><line style="stroke:#A80036;stroke-width:1.0;" x1="1784.5" x2="1784.5" y1="420.4648" y2="440.9531"/><line style="stroke:#A80036;stroke-width:1.0;" x1="1697.5" x2="2267.5" y1="440.9531" y2="440.9531"/><text fill="#000000" font-family="sans-serif" font-size="14" lengthAdjust="spacing" textLength="29" x="1702.5" y="456.4883">type</text><text fill="#000000" font-family="sans-serif" font-size="14" lengthAdjust="spacing" textLength="54" x="1789.5" y="456.4883">number</text><line style="stroke:#A80036;stroke-width:1.0;" x1="1784.5" x2="1784.5" y1="440.9531" y2="461.4414"/><line style="stroke:#A80036;stroke-width:1.0;" x1="1697.5" x2="2267.5" y1="461.4414" y2="461.4414"/><text fill="#000000" font-family="sans-serif" font-size="14" lengthAdjust="spacing" textLength="27" x="1702.5" y="476.9766">unit</text><text fill="#000000" font-family="sans-serif" font-size="14" lengthAdjust="spacing" textLength="21" x="1789.5" y="476.9766">Wh</text><line style="stroke:#A80036;stroke-width:1.0;" x1="1784.5" x2="1784.5" y1="461.4414" y2="481.9297"/><rect fill="none" height="118.9297" rx="5" ry="5" style="stroke:#A80036;stroke-width:1.5;" width="570" x="1697.5" y="363"/><rect fill="#FEFECE" height="81.9531" rx="5" ry="5" style="stroke:#FEFECE;stroke-width:1.5;" width="497" x="1734" y="500.5"/><text fill="#000000" font-family="sans-serif" font-size="14" lengthAdjust="spacing" textLength="33" x="1739" y="516.0352">label</text><text fill="#000000" font-family="sans-serif" font-size="14" lengthAdjust="spacing" textLength="86" x="1826" y="516.0352">Power factor</text><line style="stroke:#A80036;stroke-width:1.0;" x1="1821" x2="1821" y1="500.5" y2="520.9883"/><line style="stroke:#A80036;stroke-width:1.0;" x1="1734" x2="2231" y1="520.9883" y2="520.9883"/><text fill="#000000" font-family="sans-serif" font-size="14" lengthAdjust="spacing" textLength="77" x="1739" y="536.5234">description</text><text fill="#000000" font-family="sans-serif" font-size="14" lengthAdjust="spacing" textLength="400" x="1826" y="536.5234">If applicable, the power factor of the current consumption.</text><line style="stroke:#A80036;stroke-width:1.0;" x1="1821" x2="1821" y1="520.9883" y2="541.4766"/><line style="stroke:#A80036;stroke-width:1.0;" x1="1734" x2="2231" y1="541.4766" y2="541.4766"/><text fill="#000000" font-family="sans-serif" font-size="14" lengthAdjust="spacing" textLength="55" x="1739" y="557.0117">writable</text><text fill="#000000" font-family="sans-serif" font-size="14" lengthAdjust="spacing" textLength="48" x="1826" y="557.0117">☐ false</text><line style="stroke:#A80036;stroke-width:1.0;" x1="1821" x2="1821" y1="541.4766" y2="561.9648"/><line style="stroke:#A80036;stroke-width:1.0;" x1="1734" x2="2231" y1="561.9648" y2="561.9648"/><text fill="#000000" font-family="sans-serif" font-size="14" lengthAdjust="spacing" textLength="29" x="1739" y="577.5">type</text><text fill="#000000" font-family="sans-serif" font-size="14" lengthAdjust="spacing" textLength="54" x="1826" y="577.5">number</text><line style="stroke:#A80036;stroke-width:1.0;" x1="1821" x2="1821" y1="561.9648" y2="582.4531"/><rect fill="none" height="81.9531" rx="5" ry="5" style="stroke:#A80036;stroke-width:1.5;" width="497" x="1734" y="500.5"/><rect fill="#FEFECE" height="61.4648" rx="5" ry="5" style="stroke:#FEFECE;stroke-width:1.5;" width="439" x="1763" y="601"/><text fill="#000000" font-family="sans-serif" font-size="14" lengthAdjust="spacing" textLength="33" x="1768" y="616.5352">label</text><text fill="#000000" font-family="sans-serif" font-size="14" lengthAdjust="spacing" textLength="47" x="1855" y="616.5352">Colour</text><line style="stroke:#A80036;stroke-width:1.0;" x1="1850" x2="1850" y1="601" y2="621.4883"/><line style="stroke:#A80036;stroke-width:1.0;" x1="1763" x2="2202" y1="621.4883" y2="621.4883"/><text fill="#000000" font-family="sans-serif" font-size="14" lengthAdjust="spacing" textLength="77" x="1768" y="637.0234">description</text><text fill="#000000" font-family="sans-serif" font-size="14" lengthAdjust="spacing" textLength="342" x="1855" y="637.0234">A string representing a value in some color space.</text><line style="stroke:#A80036;stroke-width:1.0;" x1="1850" x2="1850" y1="621.4883" y2="641.9766"/><line style="stroke:#A80036;stroke-width:1.0;" x1="1763" x2="2202" y1="641.9766" y2="641.9766"/><text fill="#000000" font-family="sans-serif" font-size="14" lengthAdjust="spacing" textLength="29" x="1768" y="657.5117">type</text><text fill="#000000" font-family="sans-serif" font-size="14" lengthAdjust="spacing" textLength="40" x="1855" y="657.5117">string</text><line style="stroke:#A80036;stroke-width:1.0;" x1="1850" x2="1850" y1="641.9766" y2="662.4648"/><rect fill="none" height="61.4648" rx="5" ry="5" style="stroke:#A80036;stroke-width:1.5;" width="439" x="1763" y="601"/><rect fill="#FEFECE" height="81.9531" rx="5" ry="5" style="stroke:#FEFECE;stroke-width:1.5;" width="304" x="1830.5" y="680.5"/><text fill="#000000" font-family="sans-serif" font-size="14" lengthAdjust="spacing" textLength="33" x="1835.5" y="696.0352">label</text><text fill="#000000" font-family="sans-serif" font-size="14" lengthAdjust="spacing" textLength="86" x="1922.5" y="696.0352">Sensor Units</text><line style="stroke:#A80036;stroke-width:1.0;" x1="1917.5" x2="1917.5" y1="680.5" y2="700.9883"/><line style="stroke:#A80036;stroke-width:1.0;" x1="1830.5" x2="2134.5" y1="700.9883" y2="700.9883"/><text fill="#000000" font-family="sans-serif" font-size="14" lengthAdjust="spacing" textLength="77" x="1835.5" y="716.5234">description</text><text fill="#000000" font-family="sans-serif" font-size="14" lengthAdjust="spacing" textLength="207" x="1922.5" y="716.5234">Measurement Units Definition.</text><line style="stroke:#A80036;stroke-width:1.0;" x1="1917.5" x2="1917.5" y1="700.9883" y2="721.4766"/><line style="stroke:#A80036;stroke-width:1.0;" x1="1830.5" x2="2134.5" y1="721.4766" y2="721.4766"/><text fill="#000000" font-family="sans-serif" font-size="14" lengthAdjust="spacing" textLength="55" x="1835.5" y="737.0117">writable</text><text fill="#000000" font-family="sans-serif" font-size="14" lengthAdjust="spacing" textLength="48" x="1922.5" y="737.0117">☐ false</text><line style="stroke:#A80036;stroke-width:1.0;" x1="1917.5" x2="1917.5" y1="721.4766" y2="741.9648"/><line style="stroke:#A80036;stroke-width:1.0;" x1="1830.5" x2="2134.5" y1="741.9648" y2="741.9648"/><text fill="#000000" font-family="sans-serif" font-size="14" lengthAdjust="spacing" textLength="29" x="1835.5" y="757.5">type</text><text fill="#000000" font-family="sans-serif" font-size="14" lengthAdjust="spacing" textLength="40" x="1922.5" y="757.5">string</text><line style="stroke:#A80036;stroke-width:1.0;" x1="1917.5" x2="1917.5" y1="741.9648" y2="762.4531"/><rect fill="none" height="81.9531" rx="5" ry="5" style="stroke:#A80036;stroke-width:1.5;" width="304" x="1830.5" y="680.5"/><rect fill="#FEFECE" height="77.9531" rx="5" ry="5" style="stroke:#FEFECE;stroke-width:1.5;" width="563" x="1701" y="780.5"/><text fill="#000000" font-family="sans-serif" font-size="14" lengthAdjust="spacing" textLength="33" x="1706" y="796.0352">label</text><text fill="#000000" font-family="sans-serif" font-size="14" lengthAdjust="spacing" textLength="115" x="1793" y="796.0352">Application Type</text><line style="stroke:#A80036;stroke-width:1.0;" x1="1788" x2="1788" y1="780.5" y2="800.9883"/><line style="stroke:#A80036;stroke-width:1.0;" x1="1701" x2="2264" y1="800.9883" y2="800.9883"/><text fill="#000000" font-family="sans-serif" font-size="14" lengthAdjust="spacing" textLength="77" x="1706" y="816.5234">description</text><text fill="#000000" font-family="sans-serif" font-size="14" lengthAdjust="spacing" textLength="466" x="1793" y="816.5234">The application type of the sensor or actuator as a string depending</text><text fill="#000000" font-family="sans-serif" font-size="14" lengthAdjust="spacing" textLength="110" x="1793" y="833.0117">on the use case.</text><line style="stroke:#A80036;stroke-width:1.0;" x1="1788" x2="1788" y1="800.9883" y2="837.9648"/><line style="stroke:#A80036;stroke-width:1.0;" x1="1701" x2="2264" y1="837.9648" y2="837.9648"/><text fill="#000000" font-family="sans-serif" font-size="14" lengthAdjust="spacing" textLength="29" x="1706" y="853.5">type</text><text fill="#000000" font-family="sans-serif" font-size="14" lengthAdjust="spacing" textLength="40" x="1793" y="853.5">string</text><line style="stroke:#A80036;stroke-width:1.0;" x1="1788" x2="1788" y1="837.9648" y2="858.4531"/><rect fill="none" height="77.9531" rx="5" ry="5" style="stroke:#A80036;stroke-width:1.5;" width="563" x="1701" y="780.5"/><rect fill="#FEFECE" height="15" rx="5" ry="5" style="stroke:#FEFECE;stroke-width:1.5;" width="30" x="1479" y="582.5"/><rect fill="none" height="15" rx="5" ry="5" style="stroke:#A80036;stroke-width:1.5;" width="30" x="1479" y="582.5"/><rect fill="#FEFECE" height="20.4883" rx="5" ry="5" style="stroke:#FEFECE;stroke-width:1.5;" width="332" x="1325" y="616.5"/><text fill="#000000" font-family="sans-serif" font-size="14" lengthAdjust="spacing" textLength="322" x="1330" y="632.0352">#/sdfObject/Light_Control/sdfProperty/On_Off</text><rect fill="none" height="20.4883" rx="5" ry="5" style="stroke:#A80036;stroke-width:1.5;" width="332" x="1325" y="616.5"/><path d="M95,515.5 L108,515.5 C117.3406,515.5 126.8353,515.3896 136.4202,515.1839 " fill="none" style="stroke:#A80036;stroke-width:1.0;stroke-dasharray:3.0,3.0;"/><path d="M136.4943,518.2659 L138.7318,515.1283 L136.3462,512.1019 L144.1253,514.9987 L136.4943,518.2659 " fill="#A80036" style="stroke:#A80036;stroke-width:1.0;"/><ellipse cx="95" cy="515.5" fill="#A80036" rx="3" ry="3" style="stroke:#A80036;stroke-width:1.0;stroke-dasharray:3.0,3.0;"/><path d="M1582.5,410.5 L1595.5,410.5 C1748.9867,410.5 1577.4095,179.3239 1694,79.5 C1699.0275,75.1955 1704.2959,71.2298 1709.7673,67.5793 " fill="none" style="stroke:#A80036;stroke-width:1.0;stroke-dasharray:3.0,3.0;"/><path d="M1711.424,70.1849 L1711.7215,66.3368 L1708.1105,64.9737 L1716.2812,63.4375 L1711.424,70.1849 " fill="#A80036" style="stroke:#A80036;stroke-width:1.0;"/><ellipse cx="1582.5" cy="410.5" fill="#A80036" rx="3" ry="3" style="stroke:#A80036;stroke-width:1.0;stroke-dasharray:3.0,3.0;"/><path d="M1582.5,430.5 L1595.5,430.5 C1691.8033,430.5 1619.3178,298.3021 1694,237.5 C1696.0103,235.8633 1698.052,234.2604 1700.123,232.6906 " fill="none" style="stroke:#A80036;stroke-width:1.0;stroke-dasharray:3.0,3.0;"/><path d="M1701.9674,235.2102 L1702.0128,231.3073 L1698.2787,230.1709 L1706.4221,228.0798 L1701.9674,235.2102 " fill="#A80036" style="stroke:#A80036;stroke-width:1.0;"/><ellipse cx="1582.5" cy="430.5" fill="#A80036" rx="3" ry="3" style="stroke:#A80036;stroke-width:1.0;stroke-dasharray:3.0,3.0;"/><path d="M1582.5,451.5 L1595.5,451.5 C1657.2542,451.5 1639.5353,382.6063 1694,353.5 C1697.6549,351.5468 1701.3679,349.6592 1705.1316,347.8349 " fill="none" style="stroke:#A80036;stroke-width:1.0;stroke-dasharray:3.0,3.0;"/><path d="M1706.4179,350.5661 L1707.18,346.8702 L1703.8453,345.1037 L1711.9596,344.6191 L1706.4179,350.5661 " fill="#A80036" style="stroke:#A80036;stroke-width:1.0;"/><ellipse cx="1582.5" cy="451.5" fill="#A80036" rx="3" ry="3" style="stroke:#A80036;stroke-width:1.0;stroke-dasharray:3.0,3.0;"/><path d="M1582.5,471.5 L1595.5,471.5 C1626.261,471.5 1658.2905,469.9535 1690.1671,467.4101 " fill="none" style="stroke:#A80036;stroke-width:1.0;stroke-dasharray:3.0,3.0;"/><path d="M1690.4194,470.4752 L1692.4659,467.2209 L1689.9148,464.345 L1697.8299,466.7794 L1690.4194,470.4752 " fill="#A80036" style="stroke:#A80036;stroke-width:1.0;"/><ellipse cx="1582.5" cy="471.5" fill="#A80036" rx="3" ry="3" style="stroke:#A80036;stroke-width:1.0;stroke-dasharray:3.0,3.0;"/><path d="M1582.5,492.5 L1595.5,492.5 C1638.0993,492.5 1683.1314,495.4658 1726.8208,499.9381 " fill="none" style="stroke:#A80036;stroke-width:1.0;stroke-dasharray:3.0,3.0;"/><path d="M1726.5044,502.9654 L1729.0913,500.1754 L1727.1372,496.9108 L1734.3891,500.7291 L1726.5044,502.9654 " fill="#A80036" style="stroke:#A80036;stroke-width:1.0;"/><ellipse cx="1582.5" cy="492.5" fill="#A80036" rx="3" ry="3" style="stroke:#A80036;stroke-width:1.0;stroke-dasharray:3.0,3.0;"/><path d="M1582.5,513.5 L1595.5,513.5 C1651.3415,513.5 1642.6515,569.5545 1694,591.5 C1713.5156,599.8407 1734.389,606.5206 1755.6477,611.8604 " fill="none" style="stroke:#A80036;stroke-width:1.0;stroke-dasharray:3.0,3.0;"/><path d="M1754.9144,614.8739 L1757.9079,612.4104 L1756.3811,608.8468 L1763.1817,613.6937 L1754.9144,614.8739 " fill="#A80036" style="stroke:#A80036;stroke-width:1.0;"/><ellipse cx="1582.5" cy="513.5" fill="#A80036" rx="3" ry="3" style="stroke:#A80036;stroke-width:1.0;stroke-dasharray:3.0,3.0;"/><path d="M1582.5,533.5 L1595.5,533.5 C1628.4796,533.5 1637.3458,547.789 1658,573.5 C1687.0599,609.6747 1658.3709,641.7737 1694,671.5 C1729.8966,701.4495 1777.2521,716.319 1823.1713,723.0833 " fill="none" style="stroke:#A80036;stroke-width:1.0;stroke-dasharray:3.0,3.0;"/><path d="M1822.749,726.1447 L1825.4673,723.4 L1823.5935,720.0219 L1830.8246,724.1388 L1822.749,726.1447 " fill="#A80036" style="stroke:#A80036;stroke-width:1.0;"/><ellipse cx="1582.5" cy="533.5" fill="#A80036" rx="3" ry="3" style="stroke:#A80036;stroke-width:1.0;stroke-dasharray:3.0,3.0;"/><path d="M1582.5,554.5 L1595.5,554.5 C1624.533,554.5 1638.6872,551.8221 1658,573.5 C1717.4974,640.2836 1630.2912,708.7212 1694,771.5 C1695.2834,772.7647 1696.5868,774.0035 1697.9092,775.217 " fill="none" style="stroke:#A80036;stroke-width:1.0;stroke-dasharray:3.0,3.0;"/><path d="M1695.8455,777.5842 L1699.6846,776.7648 L1699.9729,772.8498 L1703.8273,780.3762 L1695.8455,777.5842 " fill="#A80036" style="stroke:#A80036;stroke-width:1.0;"/><ellipse cx="1582.5" cy="554.5" fill="#A80036" rx="3" ry="3" style="stroke:#A80036;stroke-width:1.0;stroke-dasharray:3.0,3.0;"/><path d="M1276,559.5 L1289,559.5 C1320.29,559.5 1352.6193,551.298 1381.9765,540.2477 " fill="none" style="stroke:#A80036;stroke-width:1.0;stroke-dasharray:3.0,3.0;"/><path d="M1383.0604,543.0482 L1384.0768,539.4348 L1380.8925,537.4473 L1388.9777,537.5379 L1383.0604,543.0482 " fill="#A80036" style="stroke:#A80036;stroke-width:1.0;"/><ellipse cx="1276" cy="559.5" fill="#A80036" rx="3" ry="3" style="stroke:#A80036;stroke-width:1.0;stroke-dasharray:3.0,3.0;"/><path d="M1276,590.5 L1289,590.5 C1356.0396,590.5 1435.6253,590.5 1471.4064,590.5 " fill="none" style="stroke:#A80036;stroke-width:1.0;stroke-dasharray:3.0,3.0;"/><path d="M1471.4064,593.5928 L1473.7259,590.5 L1471.4064,587.4072 L1479.1383,590.5 L1471.4064,593.5928 " fill="#A80036" style="stroke:#A80036;stroke-width:1.0;"/><ellipse cx="1276" cy="590.5" fill="#A80036" rx="3" ry="3" style="stroke:#A80036;stroke-width:1.0;stroke-dasharray:3.0,3.0;"/><path d="M1276,621.5 L1289,621.5 C1298.319,621.5 1307.8798,621.5541 1317.5311,621.6511 " fill="none" style="stroke:#A80036;stroke-width:1.0;stroke-dasharray:3.0,3.0;"/><path d="M1317.4964,624.7537 L1319.8581,621.6771 L1317.5658,618.5484 L1325.2877,621.7378 L1317.4964,624.7537 " fill="#A80036" style="stroke:#A80036;stroke-width:1.0;"/><ellipse cx="1276" cy="621.5" fill="#A80036" rx="3" ry="3" style="stroke:#A80036;stroke-width:1.0;stroke-dasharray:3.0,3.0;"/><path d="M469,560.5 L482,560.5 C559.2883,560.5 642.9706,560.5 720.3514,560.5 " fill="none" style="stroke:#A80036;stroke-width:1.0;stroke-dasharray:3.0,3.0;"/><path d="M720.3514,563.6799 L722.7363,560.5 L720.3514,557.3201 L728.3012,560.5 L720.3514,563.6799 " fill="#A80036" style="stroke:#A80036;stroke-width:1.0;"/><ellipse cx="469" cy="560.5" fill="#A80036" rx="3" ry="3" style="stroke:#A80036;stroke-width:1.0;stroke-dasharray:3.0,3.0;"/><path d="M95,536.5 L108,536.5 C124.1536,536.5 127.9333,539.8271 144,541.5 C213.1652,548.7014 292.4816,553.879 347.7322,556.9929 " fill="none" style="stroke:#A80036;stroke-width:1.0;stroke-dasharray:3.0,3.0;"/><path d="M347.562,560.0461 L350.0221,557.1206 L347.9025,553.9398 L355.3651,557.4186 L347.562,560.0461 " fill="#A80036" style="stroke:#A80036;stroke-width:1.0;"/><ellipse cx="95" cy="536.5" fill="#A80036" rx="3" ry="3" style="stroke:#A80036;stroke-width:1.0;stroke-dasharray:3.0,3.0;"/><!--MD5=[b3c54dc91da85f13b3422d19a1a57776]
@startjson
{
  "info": {
    "title": "OMA LwM2M Light Control (Object ID 3311)",
    "version": "2021-02-11",
    "copyright": "Copyright (c) 2018-2020 IPSO",
    "license": "https://github.com/one-data-model/oneDM/blob/master/LICENSE"
  },
  "sdfObject": {
    "Light_Control": {
      "label": "Light Control",
      "description": "This Object is used to control a light source, such as a LED or other\\nlight.  It allows a light to be turned on or off and its dimmer\\nsetting to be control as a % between 0 and 100. An optional colour\\nsetting enables a string to be used to indicate the desired colour.",
      "sdfProperty": {
        "On_Off": {
          "label": "On/Off",
          "description": "On/off control. Boolean value where True is On and False is Off.",
          "type": "boolean"
        },
        "Dimmer": {
          "label": "Dimmer",
          "description": "This resource represents a dimmer setting, which has an Integer value\\nbetween 0 and 100 as a percentage.",
          "type": "integer",
          "unit": "/100",
          "minimum": 0,
          "maximum": 100
        },
        "On_time": {
          "label": "On time",
          "description": "The time in seconds that the device has been on. Writing a value of 0\\nresets the counter.",
          "type": "integer",
          "unit": "s"
        },
        "Cumulative_active_power": {
          "label": "Cumulative active power",
          "description": "The cumulative active power since the last cumulative energy reset or\\ndevice start.",
          "writable": false,
          "type": "number",
          "unit": "Wh"
        },
        "Power_factor": {
          "label": "Power factor",
          "description": "If applicable, the power factor of the current consumption.",
          "writable": false,
          "type": "number"
        },
        "Colour": {
          "label": "Colour",
          "description": "A string representing a value in some color space.",
          "type": "string"
        },
        "Sensor_Units": {
          "label": "Sensor Units",
          "description": "Measurement Units Definition.",
          "writable": false,
          "type": "string"
        },
        "Application_Type": {
          "label": "Application Type",
          "description": "The application type of the sensor or actuator as a string depending\\non the use case.",
          "type": "string"
        }
      },
      "sdfAction": {},
      "sdfRequired": [
        "#/sdfObject/Light_Control/sdfProperty/On_Off"
      ]
    }
  }
}
@endjson

PlantUML version 1.2021.2(Sun Mar 07 13:10:27 EET 2021)
(GPL source distribution)
Java Runtime: OpenJDK Runtime Environment
JVM: OpenJDK 64-Bit Server VM
Default Encoding: UTF-8
Language: en
Country: FI
--></g></svg>