<?xml version="1.0" encoding="UTF-8" standalone="no"?><svg xmlns="http://www.w3.org/2000/svg" xmlns:xlink="http://www.w3.org/1999/xlink" contentScriptType="application/ecmascript" contentStyleType="text/css" height="612px" preserveAspectRatio="none" style="width:2485px;height:612px;" version="1.1" viewBox="0 0 2485 612" width="2485px" zoomAndPan="magnify"><defs/><g><rect fill="#FEFECE" height="40.9766" rx="5" ry="5" style="stroke:#FEFECE;stroke-width:1.5;" width="97" x="10" y="209"/><text fill="#000000" font-family="sans-serif" font-size="14" lengthAdjust="spacing" textLength="27" x="15" y="224.5352">info</text><text fill="#000000" font-family="sans-serif" font-size="14" lengthAdjust="spacing" textLength="0" x="102" y="224.5352"/><line style="stroke:#A80036;stroke-width:1.0;" x1="85" x2="85" y1="209" y2="229.4883"/><line style="stroke:#A80036;stroke-width:1.0;" x1="10" x2="107" y1="229.4883" y2="229.4883"/><text fill="#000000" font-family="sans-serif" font-size="14" lengthAdjust="spacing" textLength="65" x="15" y="245.0234">sdfObject</text><text fill="#000000" font-family="sans-serif" font-size="14" lengthAdjust="spacing" textLength="0" x="102" y="245.0234"/><line style="stroke:#A80036;stroke-width:1.0;" x1="85" x2="85" y1="229.4883" y2="249.9766"/><rect fill="none" height="40.9766" rx="5" ry="5" style="stroke:#A80036;stroke-width:1.5;" width="97" x="10" y="209"/><rect fill="#FEFECE" height="81.9531" rx="5" ry="5" style="stroke:#FEFECE;stroke-width:1.5;" width="655" x="144" y="153.5"/><text fill="#000000" font-family="sans-serif" font-size="14" lengthAdjust="spacing" textLength="65" x="149" y="169.0352">copyright</text><text fill="#000000" font-family="sans-serif" font-size="14" lengthAdjust="spacing" textLength="570" x="224" y="169.0352">copyright 2016-2017, 2019 Open Connectivity Foundation, Inc. All rights reserved.</text><line style="stroke:#A80036;stroke-width:1.0;" x1="219" x2="219" y1="153.5" y2="173.9883"/><line style="stroke:#A80036;stroke-width:1.0;" x1="144" x2="799" y1="173.9883" y2="173.9883"/><text fill="#000000" font-family="sans-serif" font-size="14" lengthAdjust="spacing" textLength="47" x="149" y="189.5234">license</text><text fill="#000000" font-family="sans-serif" font-size="14" lengthAdjust="spacing" textLength="462" x="224" y="189.5234">https://github.com/one-data-model/oneDM/blob/master/LICENSE</text><line style="stroke:#A80036;stroke-width:1.0;" x1="219" x2="219" y1="173.9883" y2="194.4766"/><line style="stroke:#A80036;stroke-width:1.0;" x1="144" x2="799" y1="194.4766" y2="194.4766"/><text fill="#000000" font-family="sans-serif" font-size="14" lengthAdjust="spacing" textLength="26" x="149" y="210.0117">title</text><text fill="#000000" font-family="sans-serif" font-size="14" lengthAdjust="spacing" textLength="103" x="224" y="210.0117">Generic Sensor</text><line style="stroke:#A80036;stroke-width:1.0;" x1="219" x2="219" y1="194.4766" y2="214.9648"/><line style="stroke:#A80036;stroke-width:1.0;" x1="144" x2="799" y1="214.9648" y2="214.9648"/><text fill="#000000" font-family="sans-serif" font-size="14" lengthAdjust="spacing" textLength="50" x="149" y="230.5">version</text><text fill="#000000" font-family="sans-serif" font-size="14" lengthAdjust="spacing" textLength="88" x="224" y="230.5">2019-11-18</text><line style="stroke:#A80036;stroke-width:1.0;" x1="219" x2="219" y1="214.9648" y2="235.4531"/><rect fill="none" height="81.9531" rx="5" ry="5" style="stroke:#A80036;stroke-width:1.5;" width="655" x="144" y="153.5"/><rect fill="#FEFECE" height="20.4883" rx="5" ry="5" style="stroke:#FEFECE;stroke-width:1.5;" width="78" x="432.5" y="253.5"/><text fill="#000000" font-family="sans-serif" font-size="14" lengthAdjust="spacing" textLength="46" x="437.5" y="269.0352">sensor</text><text fill="#000000" font-family="sans-serif" font-size="14" lengthAdjust="spacing" textLength="0" x="505.5" y="269.0352"/><line style="stroke:#A80036;stroke-width:1.0;" x1="488.5" x2="488.5" y1="253.5" y2="273.9883"/><rect fill="none" height="20.4883" rx="5" ry="5" style="stroke:#A80036;stroke-width:1.5;" width="78" x="432.5" y="253.5"/><rect fill="#FEFECE" height="110.9297" rx="5" ry="5" style="stroke:#FEFECE;stroke-width:1.5;" width="580" x="836" y="208"/><text fill="#000000" font-family="sans-serif" font-size="14" lengthAdjust="spacing" textLength="77" x="841" y="223.5352">description</text><text fill="#000000" font-family="sans-serif" font-size="14" lengthAdjust="spacing" textLength="477" x="934" y="223.5352">This Resource describes whether some value or property or entity has</text><text fill="#000000" font-family="sans-serif" font-size="14" lengthAdjust="spacing" textLength="441" x="934" y="240.0234">been sensed or not. The Property "value" is a boolean. A value of</text><text fill="#000000" font-family="sans-serif" font-size="14" lengthAdjust="spacing" textLength="421" x="934" y="256.5117">'true' means that the target has been sensed. A value of 'false'</text><text fill="#000000" font-family="sans-serif" font-size="14" lengthAdjust="spacing" textLength="296" x="934" y="273">means that the target has not been sensed.</text><line style="stroke:#A80036;stroke-width:1.0;" x1="929" x2="929" y1="208" y2="277.9531"/><line style="stroke:#A80036;stroke-width:1.0;" x1="836" x2="1416" y1="277.9531" y2="277.9531"/><text fill="#000000" font-family="sans-serif" font-size="14" lengthAdjust="spacing" textLength="79" x="841" y="293.4883">sdfProperty</text><text fill="#000000" font-family="sans-serif" font-size="14" lengthAdjust="spacing" textLength="0" x="946" y="293.4883"/><line style="stroke:#A80036;stroke-width:1.0;" x1="929" x2="929" y1="277.9531" y2="298.4414"/><line style="stroke:#A80036;stroke-width:1.0;" x1="836" x2="1416" y1="298.4414" y2="298.4414"/><text fill="#000000" font-family="sans-serif" font-size="14" lengthAdjust="spacing" textLength="83" x="841" y="313.9766">sdfRequired</text><text fill="#000000" font-family="sans-serif" font-size="14" lengthAdjust="spacing" textLength="0" x="946" y="313.9766"/><line style="stroke:#A80036;stroke-width:1.0;" x1="929" x2="929" y1="298.4414" y2="318.9297"/><rect fill="none" height="110.9297" rx="5" ry="5" style="stroke:#A80036;stroke-width:1.5;" width="580" x="836" y="208"/><rect fill="#FEFECE" height="102.4414" rx="5" ry="5" style="stroke:#FEFECE;stroke-width:1.5;" width="126" x="1526.5" y="191.5"/><text fill="#000000" font-family="sans-serif" font-size="14" lengthAdjust="spacing" textLength="36" x="1531.5" y="207.0352">value</text><text fill="#000000" font-family="sans-serif" font-size="14" lengthAdjust="spacing" textLength="0" x="1647.5" y="207.0352"/><line style="stroke:#A80036;stroke-width:1.0;" x1="1630.5" x2="1630.5" y1="191.5" y2="211.9883"/><line style="stroke:#A80036;stroke-width:1.0;" x1="1526.5" x2="1652.5" y1="211.9883" y2="211.9883"/><text fill="#000000" font-family="sans-serif" font-size="14" lengthAdjust="spacing" textLength="94" x="1531.5" y="227.5234">measurement</text><text fill="#000000" font-family="sans-serif" font-size="14" lengthAdjust="spacing" textLength="0" x="1647.5" y="227.5234"/><line style="stroke:#A80036;stroke-width:1.0;" x1="1630.5" x2="1630.5" y1="211.9883" y2="232.4766"/><line style="stroke:#A80036;stroke-width:1.0;" x1="1526.5" x2="1652.5" y1="232.4766" y2="232.4766"/><text fill="#000000" font-family="sans-serif" font-size="14" lengthAdjust="spacing" textLength="63" x="1531.5" y="248.0117">precision</text><text fill="#000000" font-family="sans-serif" font-size="14" lengthAdjust="spacing" textLength="0" x="1647.5" y="248.0117"/><line style="stroke:#A80036;stroke-width:1.0;" x1="1630.5" x2="1630.5" y1="232.4766" y2="252.9648"/><line style="stroke:#A80036;stroke-width:1.0;" x1="1526.5" x2="1652.5" y1="252.9648" y2="252.9648"/><text fill="#000000" font-family="sans-serif" font-size="14" lengthAdjust="spacing" textLength="40" x="1531.5" y="268.5">range</text><text fill="#000000" font-family="sans-serif" font-size="14" lengthAdjust="spacing" textLength="0" x="1647.5" y="268.5"/><line style="stroke:#A80036;stroke-width:1.0;" x1="1630.5" x2="1630.5" y1="252.9648" y2="273.4531"/><line style="stroke:#A80036;stroke-width:1.0;" x1="1526.5" x2="1652.5" y1="273.4531" y2="273.4531"/><text fill="#000000" font-family="sans-serif" font-size="14" lengthAdjust="spacing" textLength="29" x="1531.5" y="288.9883">step</text><text fill="#000000" font-family="sans-serif" font-size="14" lengthAdjust="spacing" textLength="0" x="1647.5" y="288.9883"/><line style="stroke:#A80036;stroke-width:1.0;" x1="1630.5" x2="1630.5" y1="273.4531" y2="293.9414"/><rect fill="none" height="102.4414" rx="5" ry="5" style="stroke:#A80036;stroke-width:1.5;" width="126" x="1526.5" y="191.5"/><rect fill="#FEFECE" height="61.4648" rx="5" ry="5" style="stroke:#FEFECE;stroke-width:1.5;" width="330" x="1883" y="10"/><text fill="#000000" font-family="sans-serif" font-size="14" lengthAdjust="spacing" textLength="77" x="1888" y="25.5352">description</text><text fill="#000000" font-family="sans-serif" font-size="14" lengthAdjust="spacing" textLength="233" x="1975" y="25.5352">true = sensed, false = not sensed.</text><line style="stroke:#A80036;stroke-width:1.0;" x1="1970" x2="1970" y1="10" y2="30.4883"/><line style="stroke:#A80036;stroke-width:1.0;" x1="1883" x2="2213" y1="30.4883" y2="30.4883"/><text fill="#000000" font-family="sans-serif" font-size="14" lengthAdjust="spacing" textLength="55" x="1888" y="46.0234">writable</text><text fill="#000000" font-family="sans-serif" font-size="14" lengthAdjust="spacing" textLength="48" x="1975" y="46.0234">☐ false</text><line style="stroke:#A80036;stroke-width:1.0;" x1="1970" x2="1970" y1="30.4883" y2="50.9766"/><line style="stroke:#A80036;stroke-width:1.0;" x1="1883" x2="2213" y1="50.9766" y2="50.9766"/><text fill="#000000" font-family="sans-serif" font-size="14" lengthAdjust="spacing" textLength="29" x="1888" y="66.5117">type</text><text fill="#000000" font-family="sans-serif" font-size="14" lengthAdjust="spacing" textLength="56" x="1975" y="66.5117">boolean</text><line style="stroke:#A80036;stroke-width:1.0;" x1="1970" x2="1970" y1="50.9766" y2="71.4648"/><rect fill="none" height="61.4648" rx="5" ry="5" style="stroke:#A80036;stroke-width:1.5;" width="330" x="1883" y="10"/><rect fill="#FEFECE" height="77.9531" rx="5" ry="5" style="stroke:#FEFECE;stroke-width:1.5;" width="559" x="1768.5" y="89.5"/><text fill="#000000" font-family="sans-serif" font-size="14" lengthAdjust="spacing" textLength="29" x="1773.5" y="105.0352">type</text><text fill="#000000" font-family="sans-serif" font-size="14" lengthAdjust="spacing" textLength="54" x="1860.5" y="105.0352">number</text><line style="stroke:#A80036;stroke-width:1.0;" x1="1855.5" x2="1855.5" y1="89.5" y2="109.9883"/><line style="stroke:#A80036;stroke-width:1.0;" x1="1768.5" x2="2327.5" y1="109.9883" y2="109.9883"/><text fill="#000000" font-family="sans-serif" font-size="14" lengthAdjust="spacing" textLength="77" x="1773.5" y="125.5234">description</text><text fill="#000000" font-family="sans-serif" font-size="14" lengthAdjust="spacing" textLength="462" x="1860.5" y="125.5234">Measured value for this sensor, units depend on the specific type of</text><text fill="#000000" font-family="sans-serif" font-size="14" lengthAdjust="spacing" textLength="46" x="1860.5" y="142.0117">sensor</text><line style="stroke:#A80036;stroke-width:1.0;" x1="1855.5" x2="1855.5" y1="109.9883" y2="146.9648"/><line style="stroke:#A80036;stroke-width:1.0;" x1="1768.5" x2="2327.5" y1="146.9648" y2="146.9648"/><text fill="#000000" font-family="sans-serif" font-size="14" lengthAdjust="spacing" textLength="55" x="1773.5" y="162.5">writable</text><text fill="#000000" font-family="sans-serif" font-size="14" lengthAdjust="spacing" textLength="48" x="1860.5" y="162.5">☐ false</text><line style="stroke:#A80036;stroke-width:1.0;" x1="1855.5" x2="1855.5" y1="146.9648" y2="167.4531"/><rect fill="none" height="77.9531" rx="5" ry="5" style="stroke:#A80036;stroke-width:1.5;" width="559" x="1768.5" y="89.5"/><rect fill="#FEFECE" height="110.9297" rx="5" ry="5" style="stroke:#FEFECE;stroke-width:1.5;" width="570" x="1763" y="186"/><text fill="#000000" font-family="sans-serif" font-size="14" lengthAdjust="spacing" textLength="29" x="1768" y="201.5352">type</text><text fill="#000000" font-family="sans-serif" font-size="14" lengthAdjust="spacing" textLength="54" x="1855" y="201.5352">number</text><line style="stroke:#A80036;stroke-width:1.0;" x1="1850" x2="1850" y1="186" y2="206.4883"/><line style="stroke:#A80036;stroke-width:1.0;" x1="1763" x2="2333" y1="206.4883" y2="206.4883"/><text fill="#000000" font-family="sans-serif" font-size="14" lengthAdjust="spacing" textLength="55" x="1768" y="222.0234">writable</text><text fill="#000000" font-family="sans-serif" font-size="14" lengthAdjust="spacing" textLength="48" x="1855" y="222.0234">☐ false</text><line style="stroke:#A80036;stroke-width:1.0;" x1="1850" x2="1850" y1="206.4883" y2="226.9766"/><line style="stroke:#A80036;stroke-width:1.0;" x1="1763" x2="2333" y1="226.9766" y2="226.9766"/><text fill="#000000" font-family="sans-serif" font-size="14" lengthAdjust="spacing" textLength="77" x="1768" y="242.5117">description</text><text fill="#000000" font-family="sans-serif" font-size="14" lengthAdjust="spacing" textLength="430" x="1855" y="242.5117">When exposed the value in 'precision' provides a +/- tolerance</text><text fill="#000000" font-family="sans-serif" font-size="14" lengthAdjust="spacing" textLength="473" x="1855" y="259">against the Properties in the Resource. Thus if a Property is UPDATED</text><text fill="#000000" font-family="sans-serif" font-size="14" lengthAdjust="spacing" textLength="465" x="1855" y="275.4883">to a value and that Property then RETRIEVED, the RETRIEVED value is</text><text fill="#000000" font-family="sans-serif" font-size="14" lengthAdjust="spacing" textLength="337" x="1855" y="291.9766">valid if in the range of the set value +/- precision</text><line style="stroke:#A80036;stroke-width:1.0;" x1="1850" x2="1850" y1="226.9766" y2="296.9297"/><rect fill="none" height="110.9297" rx="5" ry="5" style="stroke:#A80036;stroke-width:1.5;" width="570" x="1763" y="186"/><rect fill="#FEFECE" height="155.9063" rx="5" ry="5" style="stroke:#FEFECE;stroke-width:1.5;" width="548" x="1774" y="315.5"/><text fill="#000000" font-family="sans-serif" font-size="14" lengthAdjust="spacing" textLength="29" x="1779" y="331.0352">type</text><text fill="#000000" font-family="sans-serif" font-size="14" lengthAdjust="spacing" textLength="35" x="1866" y="331.0352">array</text><line style="stroke:#A80036;stroke-width:1.0;" x1="1861" x2="1861" y1="315.5" y2="335.9883"/><line style="stroke:#A80036;stroke-width:1.0;" x1="1774" x2="2322" y1="335.9883" y2="335.9883"/><text fill="#000000" font-family="sans-serif" font-size="14" lengthAdjust="spacing" textLength="77" x="1779" y="351.5234">description</text><text fill="#000000" font-family="sans-serif" font-size="14" lengthAdjust="spacing" textLength="451" x="1866" y="351.5234">The valid range for the Property in the Resource as a number. The</text><text fill="#000000" font-family="sans-serif" font-size="14" lengthAdjust="spacing" textLength="439" x="1866" y="368.0117">first value in the array is the minimum value, the second value in</text><text fill="#000000" font-family="sans-serif" font-size="14" lengthAdjust="spacing" textLength="219" x="1866" y="384.5">the array is the maximum value.</text><line style="stroke:#A80036;stroke-width:1.0;" x1="1861" x2="1861" y1="335.9883" y2="389.4531"/><line style="stroke:#A80036;stroke-width:1.0;" x1="1774" x2="2322" y1="389.4531" y2="389.4531"/><text fill="#000000" font-family="sans-serif" font-size="14" lengthAdjust="spacing" textLength="55" x="1779" y="404.9883">writable</text><text fill="#000000" font-family="sans-serif" font-size="14" lengthAdjust="spacing" textLength="48" x="1866" y="404.9883">☐ false</text><line style="stroke:#A80036;stroke-width:1.0;" x1="1861" x2="1861" y1="389.4531" y2="409.9414"/><line style="stroke:#A80036;stroke-width:1.0;" x1="1774" x2="2322" y1="409.9414" y2="409.9414"/><text fill="#000000" font-family="sans-serif" font-size="14" lengthAdjust="spacing" textLength="63" x="1779" y="425.4766">minItems</text><text fill="#000000" font-family="sans-serif" font-size="14" lengthAdjust="spacing" textLength="9" x="1866" y="425.4766">2</text><line style="stroke:#A80036;stroke-width:1.0;" x1="1861" x2="1861" y1="409.9414" y2="430.4297"/><line style="stroke:#A80036;stroke-width:1.0;" x1="1774" x2="2322" y1="430.4297" y2="430.4297"/><text fill="#000000" font-family="sans-serif" font-size="14" lengthAdjust="spacing" textLength="67" x="1779" y="445.9648">maxItems</text><text fill="#000000" font-family="sans-serif" font-size="14" lengthAdjust="spacing" textLength="9" x="1866" y="445.9648">2</text><line style="stroke:#A80036;stroke-width:1.0;" x1="1861" x2="1861" y1="430.4297" y2="450.918"/><line style="stroke:#A80036;stroke-width:1.0;" x1="1774" x2="2322" y1="450.918" y2="450.918"/><text fill="#000000" font-family="sans-serif" font-size="14" lengthAdjust="spacing" textLength="37" x="1779" y="466.4531">items</text><text fill="#000000" font-family="sans-serif" font-size="14" lengthAdjust="spacing" textLength="0" x="1878" y="466.4531"/><line style="stroke:#A80036;stroke-width:1.0;" x1="1861" x2="1861" y1="450.918" y2="471.4063"/><rect fill="none" height="155.9063" rx="5" ry="5" style="stroke:#A80036;stroke-width:1.5;" width="548" x="1774" y="315.5"/><rect fill="#FEFECE" height="20.4883" rx="5" ry="5" style="stroke:#FEFECE;stroke-width:1.5;" width="103" x="2370" y="448.5"/><text fill="#000000" font-family="sans-serif" font-size="14" lengthAdjust="spacing" textLength="29" x="2375" y="464.0352">type</text><text fill="#000000" font-family="sans-serif" font-size="14" lengthAdjust="spacing" textLength="54" x="2414" y="464.0352">number</text><line style="stroke:#A80036;stroke-width:1.0;" x1="2409" x2="2409" y1="448.5" y2="468.9883"/><rect fill="none" height="20.4883" rx="5" ry="5" style="stroke:#A80036;stroke-width:1.5;" width="103" x="2370" y="448.5"/><rect fill="#FEFECE" height="110.9297" rx="5" ry="5" style="stroke:#FEFECE;stroke-width:1.5;" width="555" x="1770.5" y="490"/><text fill="#000000" font-family="sans-serif" font-size="14" lengthAdjust="spacing" textLength="77" x="1775.5" y="505.5352">description</text><text fill="#000000" font-family="sans-serif" font-size="14" lengthAdjust="spacing" textLength="456" x="1862.5" y="505.5352">Step value across the defined range an integer when the range is a</text><text fill="#000000" font-family="sans-serif" font-size="14" lengthAdjust="spacing" textLength="458" x="1862.5" y="522.0234">number.  This is the increment for valid values across the range; so</text><text fill="#000000" font-family="sans-serif" font-size="14" lengthAdjust="spacing" textLength="381" x="1862.5" y="538.5117">if range is 0.0..10.0 and step is 2.5 then valid values are</text><text fill="#000000" font-family="sans-serif" font-size="14" lengthAdjust="spacing" textLength="139" x="1862.5" y="555">0.0,2.5,5.0,7.5,10.0.</text><line style="stroke:#A80036;stroke-width:1.0;" x1="1857.5" x2="1857.5" y1="490" y2="559.9531"/><line style="stroke:#A80036;stroke-width:1.0;" x1="1770.5" x2="2325.5" y1="559.9531" y2="559.9531"/><text fill="#000000" font-family="sans-serif" font-size="14" lengthAdjust="spacing" textLength="55" x="1775.5" y="575.4883">writable</text><text fill="#000000" font-family="sans-serif" font-size="14" lengthAdjust="spacing" textLength="48" x="1862.5" y="575.4883">☐ false</text><line style="stroke:#A80036;stroke-width:1.0;" x1="1857.5" x2="1857.5" y1="559.9531" y2="580.4414"/><line style="stroke:#A80036;stroke-width:1.0;" x1="1770.5" x2="2325.5" y1="580.4414" y2="580.4414"/><text fill="#000000" font-family="sans-serif" font-size="14" lengthAdjust="spacing" textLength="29" x="1775.5" y="595.9766">type</text><text fill="#000000" font-family="sans-serif" font-size="14" lengthAdjust="spacing" textLength="54" x="1862.5" y="595.9766">number</text><line style="stroke:#A80036;stroke-width:1.0;" x1="1857.5" x2="1857.5" y1="580.4414" y2="600.9297"/><rect fill="none" height="110.9297" rx="5" ry="5" style="stroke:#A80036;stroke-width:1.5;" width="555" x="1770.5" y="490"/><rect fill="#FEFECE" height="20.4883" rx="5" ry="5" style="stroke:#FEFECE;stroke-width:1.5;" width="273" x="1453" y="311.5"/><text fill="#000000" font-family="sans-serif" font-size="14" lengthAdjust="spacing" textLength="263" x="1458" y="327.0352">#/sdfObject/sensor/sdfProperty/value</text><rect fill="none" height="20.4883" rx="5" ry="5" style="stroke:#A80036;stroke-width:1.5;" width="273" x="1453" y="311.5"/><path d="M95,218.5 L108,218.5 C117.3442,218.5 126.8208,218.4198 136.3833,218.2688 " fill="none" style="stroke:#A80036;stroke-width:1.0;stroke-dasharray:3.0,3.0;"/><path d="M136.4378,221.3434 L138.6892,218.2279 L136.3288,215.1942 L144.0697,218.1326 L136.4378,221.3434 " fill="#A80036" style="stroke:#A80036;stroke-width:1.0;"/><ellipse cx="95" cy="218.5" fill="#A80036" rx="3" ry="3" style="stroke:#A80036;stroke-width:1.0;stroke-dasharray:3.0,3.0;"/><path d="M1641,201.5 L1654,201.5 C1726.3803,201.5 1699.0889,114.4748 1763,80.5 C1797.2701,62.2822 1836.9916,51.4436 1875.6844,45.1815 " fill="none" style="stroke:#A80036;stroke-width:1.0;stroke-dasharray:3.0,3.0;"/><path d="M1876.1613,48.2707 L1878.0013,44.8238 L1875.2076,42.0923 L1883.4074,43.9892 L1876.1613,48.2707 " fill="#A80036" style="stroke:#A80036;stroke-width:1.0;"/><ellipse cx="1641" cy="201.5" fill="#A80036" rx="3" ry="3" style="stroke:#A80036;stroke-width:1.0;stroke-dasharray:3.0,3.0;"/><path d="M1641,221.5 L1654,221.5 C1706.2425,221.5 1712.7505,191.7925 1763,177.5 C1772.9889,174.6588 1783.2247,171.9566 1793.6019,169.3894 " fill="none" style="stroke:#A80036;stroke-width:1.0;stroke-dasharray:3.0,3.0;"/><path d="M1794.3401,172.4213 L1795.8758,168.8357 L1792.8637,166.3575 L1801.1816,167.5439 L1794.3401,172.4213 " fill="#A80036" style="stroke:#A80036;stroke-width:1.0;"/><ellipse cx="1641" cy="221.5" fill="#A80036" rx="3" ry="3" style="stroke:#A80036;stroke-width:1.0;stroke-dasharray:3.0,3.0;"/><path d="M1641,241.5 L1654,241.5 C1686.8677,241.5 1721.2797,241.5 1755.4946,241.5 " fill="none" style="stroke:#A80036;stroke-width:1.0;stroke-dasharray:3.0,3.0;"/><path d="M1755.4946,244.6036 L1757.8223,241.5 L1755.4946,238.3964 L1763.2535,241.5 L1755.4946,244.6036 " fill="#A80036" style="stroke:#A80036;stroke-width:1.0;"/><ellipse cx="1641" cy="241.5" fill="#A80036" rx="3" ry="3" style="stroke:#A80036;stroke-width:1.0;stroke-dasharray:3.0,3.0;"/><path d="M2310.5,458.5 L2323.5,458.5 C2336.235,458.5 2349.9056,458.5 2362.8621,458.5 " fill="none" style="stroke:#A80036;stroke-width:1.0;stroke-dasharray:3.0,3.0;"/><path d="M2362.8621,461.5134 L2365.1221,458.5 L2362.8621,455.4866 L2370.3956,458.5 L2362.8621,461.5134 " fill="#A80036" style="stroke:#A80036;stroke-width:1.0;"/><ellipse cx="2310.5" cy="458.5" fill="#A80036" rx="3" ry="3" style="stroke:#A80036;stroke-width:1.0;stroke-dasharray:3.0,3.0;"/><path d="M1641,262.5 L1654,262.5 C1706.2425,262.5 1713.7519,289.0671 1763,306.5 C1769.0368,308.6369 1775.1561,310.7709 1781.3359,312.8972 " fill="none" style="stroke:#A80036;stroke-width:1.0;stroke-dasharray:3.0,3.0;"/><path d="M1780.339,315.8096 L1783.5202,313.6449 L1782.3328,309.9848 L1788.6168,315.3896 L1780.339,315.8096 " fill="#A80036" style="stroke:#A80036;stroke-width:1.0;"/><ellipse cx="1641" cy="262.5" fill="#A80036" rx="3" ry="3" style="stroke:#A80036;stroke-width:1.0;stroke-dasharray:3.0,3.0;"/><path d="M1641,283.5 L1654,283.5 C1687.5254,283.5 1703.9556,278.1503 1727,302.5 C1782.4797,361.1223 1706.647,422.7167 1763,480.5 C1764.3928,481.9282 1765.8102,483.3278 1767.2508,484.6995 " fill="none" style="stroke:#A80036;stroke-width:1.0;stroke-dasharray:3.0,3.0;"/><path d="M1765.1897,486.9677 L1768.952,486.2453 L1769.3119,482.4312 L1772.9214,489.8522 L1765.1897,486.9677 " fill="#A80036" style="stroke:#A80036;stroke-width:1.0;"/><ellipse cx="1641" cy="283.5" fill="#A80036" rx="3" ry="3" style="stroke:#A80036;stroke-width:1.0;stroke-dasharray:3.0,3.0;"/><path d="M1404,263.5 L1417,263.5 C1450.6951,263.5 1487.8315,259.4799 1518.9473,254.9575 " fill="none" style="stroke:#A80036;stroke-width:1.0;stroke-dasharray:3.0,3.0;"/><path d="M1519.4107,258.0677 L1521.2799,254.61 L1518.484,251.8474 L1526.7227,253.7991 L1519.4107,258.0677 " fill="#A80036" style="stroke:#A80036;stroke-width:1.0;"/><ellipse cx="1404" cy="263.5" fill="#A80036" rx="3" ry="3" style="stroke:#A80036;stroke-width:1.0;stroke-dasharray:3.0,3.0;"/><path d="M1404,300.5 L1417,300.5 C1435.5362,300.5 1476.084,305.3663 1513.156,310.4139 " fill="none" style="stroke:#A80036;stroke-width:1.0;stroke-dasharray:3.0,3.0;"/><path d="M1512.7247,313.5534 L1515.5106,310.7373 L1513.5872,307.2743 L1521.0048,311.492 L1512.7247,313.5534 " fill="#A80036" style="stroke:#A80036;stroke-width:1.0;"/><ellipse cx="1404" cy="300.5" fill="#A80036" rx="3" ry="3" style="stroke:#A80036;stroke-width:1.0;stroke-dasharray:3.0,3.0;"/><path d="M499,263.5 L512,263.5 C615.2606,263.5 728.2976,263.5 828.8967,263.5 " fill="none" style="stroke:#A80036;stroke-width:1.0;stroke-dasharray:3.0,3.0;"/><path d="M828.8967,266.5115 L831.1554,263.5 L828.8967,260.4885 L836.4255,263.5 L828.8967,266.5115 " fill="#A80036" style="stroke:#A80036;stroke-width:1.0;"/><ellipse cx="499" cy="263.5" fill="#A80036" rx="3" ry="3" style="stroke:#A80036;stroke-width:1.0;stroke-dasharray:3.0,3.0;"/><path d="M95,239.5 L108,239.5 C124.1536,239.5 127.924,242.9191 144,244.5 C243.8612,254.3201 361.4152,259.6296 424.8284,261.981 " fill="none" style="stroke:#A80036;stroke-width:1.0;stroke-dasharray:3.0,3.0;"/><path d="M424.7141,265.1145 L427.1785,262.0667 L424.9426,258.8475 L432.6622,262.2666 L424.7141,265.1145 " fill="#A80036" style="stroke:#A80036;stroke-width:1.0;"/><ellipse cx="95" cy="239.5" fill="#A80036" rx="3" ry="3" style="stroke:#A80036;stroke-width:1.0;stroke-dasharray:3.0,3.0;"/><!--MD5=[1b9f9631144f7e47ad4735ef94565c33]
@startjson
{
  "info": {
    "copyright": "copyright 2016-2017, 2019 Open Connectivity Foundation, Inc. All rights reserved.",
    "license": "https://github.com/one-data-model/oneDM/blob/master/LICENSE",
    "title": "Generic Sensor",
    "version": "2019-11-18"
  },
  "sdfObject": {
    "sensor": {
      "description": "This Resource describes whether some value or property or entity has\\nbeen sensed or not. The Property \"value\" is a boolean. A value of\\n'true' means that the target has been sensed. A value of 'false'\\nmeans that the target has not been sensed.",
      "sdfProperty": {
        "value": {
          "description": "true = sensed, false = not sensed.",
          "writable": false,
          "type": "boolean"
        },
        "measurement": {
          "type": "number",
          "description": "Measured value for this sensor, units depend on the specific type of\\nsensor",
          "writable": false
        },
        "precision": {
          "type": "number",
          "writable": false,
          "description": "When exposed the value in 'precision' provides a +/- tolerance\\nagainst the Properties in the Resource. Thus if a Property is UPDATED\\nto a value and that Property then RETRIEVED, the RETRIEVED value is\\nvalid if in the range of the set value +/- precision"
        },
        "range": {
          "type": "array",
          "description": "The valid range for the Property in the Resource as a number. The\\nfirst value in the array is the minimum value, the second value in\\nthe array is the maximum value.",
          "writable": false,
          "minItems": 2,
          "maxItems": 2,
          "items": {
            "type": "number"
          }
        },
        "step": {
          "description": "Step value across the defined range an integer when the range is a\\nnumber.  This is the increment for valid values across the range; so\\nif range is 0.0..10.0 and step is 2.5 then valid values are\\n0.0,2.5,5.0,7.5,10.0.",
          "writable": false,
          "type": "number"
        }
      },
      "sdfRequired": [
        "#/sdfObject/sensor/sdfProperty/value"
      ]
    }
  }
}
@endjson

PlantUML version 1.2021.2(Sun Mar 07 13:10:27 EET 2021)
(GPL source distribution)
Java Runtime: OpenJDK Runtime Environment
JVM: OpenJDK 64-Bit Server VM
Default Encoding: UTF-8
Language: en
Country: FI
--></g></svg>