<?xml version="1.0" encoding="UTF-8" standalone="no"?><svg xmlns="http://www.w3.org/2000/svg" xmlns:xlink="http://www.w3.org/1999/xlink" contentScriptType="application/ecmascript" contentStyleType="text/css" height="635px" preserveAspectRatio="none" style="width:2434px;height:635px;" version="1.1" viewBox="0 0 2434 635" width="2434px" zoomAndPan="magnify"><defs/><g><rect fill="#FEFECE" height="40.9766" rx="5" ry="5" style="stroke:#FEFECE;stroke-width:1.5;" width="97" x="10" y="253"/><text fill="#000000" font-family="sans-serif" font-size="14" lengthAdjust="spacing" textLength="27" x="15" y="268.5352">info</text><text fill="#000000" font-family="sans-serif" font-size="14" lengthAdjust="spacing" textLength="0" x="102" y="268.5352"/><line style="stroke:#A80036;stroke-width:1.0;" x1="85" x2="85" y1="253" y2="273.4883"/><line style="stroke:#A80036;stroke-width:1.0;" x1="10" x2="107" y1="273.4883" y2="273.4883"/><text fill="#000000" font-family="sans-serif" font-size="14" lengthAdjust="spacing" textLength="65" x="15" y="289.0234">sdfObject</text><text fill="#000000" font-family="sans-serif" font-size="14" lengthAdjust="spacing" textLength="0" x="102" y="289.0234"/><line style="stroke:#A80036;stroke-width:1.0;" x1="85" x2="85" y1="273.4883" y2="293.9766"/><rect fill="none" height="40.9766" rx="5" ry="5" style="stroke:#A80036;stroke-width:1.5;" width="97" x="10" y="253"/><rect fill="#FEFECE" height="81.9531" rx="5" ry="5" style="stroke:#FEFECE;stroke-width:1.5;" width="614" x="144" y="197.5"/><text fill="#000000" font-family="sans-serif" font-size="14" lengthAdjust="spacing" textLength="65" x="149" y="213.0352">copyright</text><text fill="#000000" font-family="sans-serif" font-size="14" lengthAdjust="spacing" textLength="529" x="224" y="213.0352">Copyright 2016-2019 Open Connectivity Foundation, Inc. All rights reserved.</text><line style="stroke:#A80036;stroke-width:1.0;" x1="219" x2="219" y1="197.5" y2="217.9883"/><line style="stroke:#A80036;stroke-width:1.0;" x1="144" x2="758" y1="217.9883" y2="217.9883"/><text fill="#000000" font-family="sans-serif" font-size="14" lengthAdjust="spacing" textLength="47" x="149" y="233.5234">license</text><text fill="#000000" font-family="sans-serif" font-size="14" lengthAdjust="spacing" textLength="462" x="224" y="233.5234">https://github.com/one-data-model/oneDM/blob/master/LICENSE</text><line style="stroke:#A80036;stroke-width:1.0;" x1="219" x2="219" y1="217.9883" y2="238.4766"/><line style="stroke:#A80036;stroke-width:1.0;" x1="144" x2="758" y1="238.4766" y2="238.4766"/><text fill="#000000" font-family="sans-serif" font-size="14" lengthAdjust="spacing" textLength="26" x="149" y="254.0117">title</text><text fill="#000000" font-family="sans-serif" font-size="14" lengthAdjust="spacing" textLength="45" x="224" y="254.0117">Height</text><line style="stroke:#A80036;stroke-width:1.0;" x1="219" x2="219" y1="238.4766" y2="258.9648"/><line style="stroke:#A80036;stroke-width:1.0;" x1="144" x2="758" y1="258.9648" y2="258.9648"/><text fill="#000000" font-family="sans-serif" font-size="14" lengthAdjust="spacing" textLength="50" x="149" y="274.5">version</text><text fill="#000000" font-family="sans-serif" font-size="14" lengthAdjust="spacing" textLength="88" x="224" y="274.5">2019-03-22</text><line style="stroke:#A80036;stroke-width:1.0;" x1="219" x2="219" y1="258.9648" y2="279.4531"/><rect fill="none" height="81.9531" rx="5" ry="5" style="stroke:#A80036;stroke-width:1.5;" width="614" x="144" y="197.5"/><rect fill="#FEFECE" height="20.4883" rx="5" ry="5" style="stroke:#FEFECE;stroke-width:1.5;" width="76" x="413" y="297.5"/><text fill="#000000" font-family="sans-serif" font-size="14" lengthAdjust="spacing" textLength="44" x="418" y="313.0352">height</text><text fill="#000000" font-family="sans-serif" font-size="14" lengthAdjust="spacing" textLength="0" x="484" y="313.0352"/><line style="stroke:#A80036;stroke-width:1.0;" x1="467" x2="467" y1="297.5" y2="317.9883"/><rect fill="none" height="20.4883" rx="5" ry="5" style="stroke:#A80036;stroke-width:1.5;" width="76" x="413" y="297.5"/><rect fill="#FEFECE" height="127.418" rx="5" ry="5" style="stroke:#FEFECE;stroke-width:1.5;" width="564" x="795" y="244"/><text fill="#000000" font-family="sans-serif" font-size="14" lengthAdjust="spacing" textLength="77" x="800" y="259.5352">description</text><text fill="#000000" font-family="sans-serif" font-size="14" lengthAdjust="spacing" textLength="461" x="893" y="259.5352">This Resource describes the Properties associated with height of an</text><text fill="#000000" font-family="sans-serif" font-size="14" lengthAdjust="spacing" textLength="434" x="893" y="276.0234">object's physical size. The unit is a single value that is one of m,</text><text fill="#000000" font-family="sans-serif" font-size="14" lengthAdjust="spacing" textLength="426" x="893" y="292.5117">cm, ft or in. If the unit Property is missing the default is meters</text><text fill="#000000" font-family="sans-serif" font-size="14" lengthAdjust="spacing" textLength="446" x="893" y="309">[m]. The unit Property is a read-only value that is provided by the</text><text fill="#000000" font-family="sans-serif" font-size="14" lengthAdjust="spacing" textLength="423" x="893" y="325.4883">server. When range is omitted the default is 0 to +MAXFLOAT.</text><line style="stroke:#A80036;stroke-width:1.0;" x1="888" x2="888" y1="244" y2="330.4414"/><line style="stroke:#A80036;stroke-width:1.0;" x1="795" x2="1359" y1="330.4414" y2="330.4414"/><text fill="#000000" font-family="sans-serif" font-size="14" lengthAdjust="spacing" textLength="79" x="800" y="345.9766">sdfProperty</text><text fill="#000000" font-family="sans-serif" font-size="14" lengthAdjust="spacing" textLength="0" x="905" y="345.9766"/><line style="stroke:#A80036;stroke-width:1.0;" x1="888" x2="888" y1="330.4414" y2="350.9297"/><line style="stroke:#A80036;stroke-width:1.0;" x1="795" x2="1359" y1="350.9297" y2="350.9297"/><text fill="#000000" font-family="sans-serif" font-size="14" lengthAdjust="spacing" textLength="83" x="800" y="366.4648">sdfRequired</text><text fill="#000000" font-family="sans-serif" font-size="14" lengthAdjust="spacing" textLength="0" x="905" y="366.4648"/><line style="stroke:#A80036;stroke-width:1.0;" x1="888" x2="888" y1="350.9297" y2="371.418"/><rect fill="none" height="127.418" rx="5" ry="5" style="stroke:#A80036;stroke-width:1.5;" width="564" x="795" y="244"/><rect fill="#FEFECE" height="102.4414" rx="5" ry="5" style="stroke:#FEFECE;stroke-width:1.5;" width="95" x="1488" y="237.5"/><text fill="#000000" font-family="sans-serif" font-size="14" lengthAdjust="spacing" textLength="44" x="1493" y="253.0352">height</text><text fill="#000000" font-family="sans-serif" font-size="14" lengthAdjust="spacing" textLength="0" x="1578" y="253.0352"/><line style="stroke:#A80036;stroke-width:1.0;" x1="1561" x2="1561" y1="237.5" y2="257.9883"/><line style="stroke:#A80036;stroke-width:1.0;" x1="1488" x2="1583" y1="257.9883" y2="257.9883"/><text fill="#000000" font-family="sans-serif" font-size="14" lengthAdjust="spacing" textLength="34" x="1493" y="273.5234">units</text><text fill="#000000" font-family="sans-serif" font-size="14" lengthAdjust="spacing" textLength="0" x="1578" y="273.5234"/><line style="stroke:#A80036;stroke-width:1.0;" x1="1561" x2="1561" y1="257.9883" y2="278.4766"/><line style="stroke:#A80036;stroke-width:1.0;" x1="1488" x2="1583" y1="278.4766" y2="278.4766"/><text fill="#000000" font-family="sans-serif" font-size="14" lengthAdjust="spacing" textLength="40" x="1493" y="294.0117">range</text><text fill="#000000" font-family="sans-serif" font-size="14" lengthAdjust="spacing" textLength="0" x="1578" y="294.0117"/><line style="stroke:#A80036;stroke-width:1.0;" x1="1561" x2="1561" y1="278.4766" y2="298.9648"/><line style="stroke:#A80036;stroke-width:1.0;" x1="1488" x2="1583" y1="298.9648" y2="298.9648"/><text fill="#000000" font-family="sans-serif" font-size="14" lengthAdjust="spacing" textLength="29" x="1493" y="314.5">step</text><text fill="#000000" font-family="sans-serif" font-size="14" lengthAdjust="spacing" textLength="0" x="1578" y="314.5"/><line style="stroke:#A80036;stroke-width:1.0;" x1="1561" x2="1561" y1="298.9648" y2="319.4531"/><line style="stroke:#A80036;stroke-width:1.0;" x1="1488" x2="1583" y1="319.4531" y2="319.4531"/><text fill="#000000" font-family="sans-serif" font-size="14" lengthAdjust="spacing" textLength="63" x="1493" y="334.9883">precision</text><text fill="#000000" font-family="sans-serif" font-size="14" lengthAdjust="spacing" textLength="0" x="1578" y="334.9883"/><line style="stroke:#A80036;stroke-width:1.0;" x1="1561" x2="1561" y1="319.4531" y2="339.9414"/><rect fill="none" height="102.4414" rx="5" ry="5" style="stroke:#A80036;stroke-width:1.5;" width="95" x="1488" y="237.5"/><rect fill="#FEFECE" height="61.4648" rx="5" ry="5" style="stroke:#FEFECE;stroke-width:1.5;" width="227" x="1883.5" y="10"/><text fill="#000000" font-family="sans-serif" font-size="14" lengthAdjust="spacing" textLength="77" x="1888.5" y="25.5352">description</text><text fill="#000000" font-family="sans-serif" font-size="14" lengthAdjust="spacing" textLength="130" x="1975.5" y="25.5352">Height of an object</text><line style="stroke:#A80036;stroke-width:1.0;" x1="1970.5" x2="1970.5" y1="10" y2="30.4883"/><line style="stroke:#A80036;stroke-width:1.0;" x1="1883.5" x2="2110.5" y1="30.4883" y2="30.4883"/><text fill="#000000" font-family="sans-serif" font-size="14" lengthAdjust="spacing" textLength="65" x="1888.5" y="46.0234">minimum</text><text fill="#000000" font-family="sans-serif" font-size="14" lengthAdjust="spacing" textLength="9" x="1975.5" y="46.0234">0</text><line style="stroke:#A80036;stroke-width:1.0;" x1="1970.5" x2="1970.5" y1="30.4883" y2="50.9766"/><line style="stroke:#A80036;stroke-width:1.0;" x1="1883.5" x2="2110.5" y1="50.9766" y2="50.9766"/><text fill="#000000" font-family="sans-serif" font-size="14" lengthAdjust="spacing" textLength="29" x="1888.5" y="66.5117">type</text><text fill="#000000" font-family="sans-serif" font-size="14" lengthAdjust="spacing" textLength="54" x="1975.5" y="66.5117">number</text><line style="stroke:#A80036;stroke-width:1.0;" x1="1970.5" x2="1970.5" y1="50.9766" y2="71.4648"/><rect fill="none" height="61.4648" rx="5" ry="5" style="stroke:#A80036;stroke-width:1.5;" width="227" x="1883.5" y="10"/><rect fill="#FEFECE" height="102.4414" rx="5" ry="5" style="stroke:#FEFECE;stroke-width:1.5;" width="173" x="1910.5" y="89.5"/><text fill="#000000" font-family="sans-serif" font-size="14" lengthAdjust="spacing" textLength="77" x="1915.5" y="105.0352">description</text><text fill="#000000" font-family="sans-serif" font-size="14" lengthAdjust="spacing" textLength="76" x="2002.5" y="105.0352">Height unit</text><line style="stroke:#A80036;stroke-width:1.0;" x1="1997.5" x2="1997.5" y1="89.5" y2="109.9883"/><line style="stroke:#A80036;stroke-width:1.0;" x1="1910.5" x2="2083.5" y1="109.9883" y2="109.9883"/><text fill="#000000" font-family="sans-serif" font-size="14" lengthAdjust="spacing" textLength="39" x="1915.5" y="125.5234">enum</text><text fill="#000000" font-family="sans-serif" font-size="14" lengthAdjust="spacing" textLength="0" x="2014.5" y="125.5234"/><line style="stroke:#A80036;stroke-width:1.0;" x1="1997.5" x2="1997.5" y1="109.9883" y2="130.4766"/><line style="stroke:#A80036;stroke-width:1.0;" x1="1910.5" x2="2083.5" y1="130.4766" y2="130.4766"/><text fill="#000000" font-family="sans-serif" font-size="14" lengthAdjust="spacing" textLength="55" x="1915.5" y="146.0117">writable</text><text fill="#000000" font-family="sans-serif" font-size="14" lengthAdjust="spacing" textLength="48" x="2002.5" y="146.0117">☐ false</text><line style="stroke:#A80036;stroke-width:1.0;" x1="1997.5" x2="1997.5" y1="130.4766" y2="150.9648"/><line style="stroke:#A80036;stroke-width:1.0;" x1="1910.5" x2="2083.5" y1="150.9648" y2="150.9648"/><text fill="#000000" font-family="sans-serif" font-size="14" lengthAdjust="spacing" textLength="29" x="1915.5" y="166.5">type</text><text fill="#000000" font-family="sans-serif" font-size="14" lengthAdjust="spacing" textLength="40" x="2002.5" y="166.5">string</text><line style="stroke:#A80036;stroke-width:1.0;" x1="1997.5" x2="1997.5" y1="150.9648" y2="171.4531"/><line style="stroke:#A80036;stroke-width:1.0;" x1="1910.5" x2="2083.5" y1="171.4531" y2="171.4531"/><text fill="#000000" font-family="sans-serif" font-size="14" lengthAdjust="spacing" textLength="48" x="1915.5" y="186.9883">default</text><text fill="#000000" font-family="sans-serif" font-size="14" lengthAdjust="spacing" textLength="13" x="2002.5" y="186.9883">m</text><line style="stroke:#A80036;stroke-width:1.0;" x1="1997.5" x2="1997.5" y1="171.4531" y2="191.9414"/><rect fill="none" height="102.4414" rx="5" ry="5" style="stroke:#A80036;stroke-width:1.5;" width="173" x="1910.5" y="89.5"/><rect fill="#FEFECE" height="81.9531" rx="5" ry="5" style="stroke:#FEFECE;stroke-width:1.5;" width="30" x="2355.5" y="78.5"/><text fill="#000000" font-family="sans-serif" font-size="14" lengthAdjust="spacing" textLength="13" x="2360.5" y="94.0352">m</text><line style="stroke:#A80036;stroke-width:1.0;" x1="2355.5" x2="2385.5" y1="98.9883" y2="98.9883"/><text fill="#000000" font-family="sans-serif" font-size="14" lengthAdjust="spacing" textLength="20" x="2360.5" y="114.5234">cm</text><line style="stroke:#A80036;stroke-width:1.0;" x1="2355.5" x2="2385.5" y1="119.4766" y2="119.4766"/><text fill="#000000" font-family="sans-serif" font-size="14" lengthAdjust="spacing" textLength="10" x="2360.5" y="135.0117">ft</text><line style="stroke:#A80036;stroke-width:1.0;" x1="2355.5" x2="2385.5" y1="139.9648" y2="139.9648"/><text fill="#000000" font-family="sans-serif" font-size="14" lengthAdjust="spacing" textLength="13" x="2360.5" y="155.5">in</text><rect fill="none" height="81.9531" rx="5" ry="5" style="stroke:#A80036;stroke-width:1.5;" width="30" x="2355.5" y="78.5"/><rect fill="#FEFECE" height="155.9063" rx="5" ry="5" style="stroke:#FEFECE;stroke-width:1.5;" width="548" x="1723" y="209.5"/><text fill="#000000" font-family="sans-serif" font-size="14" lengthAdjust="spacing" textLength="29" x="1728" y="225.0352">type</text><text fill="#000000" font-family="sans-serif" font-size="14" lengthAdjust="spacing" textLength="35" x="1815" y="225.0352">array</text><line style="stroke:#A80036;stroke-width:1.0;" x1="1810" x2="1810" y1="209.5" y2="229.9883"/><line style="stroke:#A80036;stroke-width:1.0;" x1="1723" x2="2271" y1="229.9883" y2="229.9883"/><text fill="#000000" font-family="sans-serif" font-size="14" lengthAdjust="spacing" textLength="77" x="1728" y="245.5234">description</text><text fill="#000000" font-family="sans-serif" font-size="14" lengthAdjust="spacing" textLength="451" x="1815" y="245.5234">The valid range for the Property in the Resource as a number. The</text><text fill="#000000" font-family="sans-serif" font-size="14" lengthAdjust="spacing" textLength="439" x="1815" y="262.0117">first value in the array is the minimum value, the second value in</text><text fill="#000000" font-family="sans-serif" font-size="14" lengthAdjust="spacing" textLength="219" x="1815" y="278.5">the array is the maximum value.</text><line style="stroke:#A80036;stroke-width:1.0;" x1="1810" x2="1810" y1="229.9883" y2="283.4531"/><line style="stroke:#A80036;stroke-width:1.0;" x1="1723" x2="2271" y1="283.4531" y2="283.4531"/><text fill="#000000" font-family="sans-serif" font-size="14" lengthAdjust="spacing" textLength="55" x="1728" y="298.9883">writable</text><text fill="#000000" font-family="sans-serif" font-size="14" lengthAdjust="spacing" textLength="48" x="1815" y="298.9883">☐ false</text><line style="stroke:#A80036;stroke-width:1.0;" x1="1810" x2="1810" y1="283.4531" y2="303.9414"/><line style="stroke:#A80036;stroke-width:1.0;" x1="1723" x2="2271" y1="303.9414" y2="303.9414"/><text fill="#000000" font-family="sans-serif" font-size="14" lengthAdjust="spacing" textLength="63" x="1728" y="319.4766">minItems</text><text fill="#000000" font-family="sans-serif" font-size="14" lengthAdjust="spacing" textLength="9" x="1815" y="319.4766">2</text><line style="stroke:#A80036;stroke-width:1.0;" x1="1810" x2="1810" y1="303.9414" y2="324.4297"/><line style="stroke:#A80036;stroke-width:1.0;" x1="1723" x2="2271" y1="324.4297" y2="324.4297"/><text fill="#000000" font-family="sans-serif" font-size="14" lengthAdjust="spacing" textLength="67" x="1728" y="339.9648">maxItems</text><text fill="#000000" font-family="sans-serif" font-size="14" lengthAdjust="spacing" textLength="9" x="1815" y="339.9648">2</text><line style="stroke:#A80036;stroke-width:1.0;" x1="1810" x2="1810" y1="324.4297" y2="344.918"/><line style="stroke:#A80036;stroke-width:1.0;" x1="1723" x2="2271" y1="344.918" y2="344.918"/><text fill="#000000" font-family="sans-serif" font-size="14" lengthAdjust="spacing" textLength="37" x="1728" y="360.4531">items</text><text fill="#000000" font-family="sans-serif" font-size="14" lengthAdjust="spacing" textLength="0" x="1827" y="360.4531"/><line style="stroke:#A80036;stroke-width:1.0;" x1="1810" x2="1810" y1="344.918" y2="365.4063"/><rect fill="none" height="155.9063" rx="5" ry="5" style="stroke:#A80036;stroke-width:1.5;" width="548" x="1723" y="209.5"/><rect fill="#FEFECE" height="20.4883" rx="5" ry="5" style="stroke:#FEFECE;stroke-width:1.5;" width="103" x="2319" y="342.5"/><text fill="#000000" font-family="sans-serif" font-size="14" lengthAdjust="spacing" textLength="29" x="2324" y="358.0352">type</text><text fill="#000000" font-family="sans-serif" font-size="14" lengthAdjust="spacing" textLength="54" x="2363" y="358.0352">number</text><line style="stroke:#A80036;stroke-width:1.0;" x1="2358" x2="2358" y1="342.5" y2="362.9883"/><rect fill="none" height="20.4883" rx="5" ry="5" style="stroke:#A80036;stroke-width:1.5;" width="103" x="2319" y="342.5"/><rect fill="#FEFECE" height="110.9297" rx="5" ry="5" style="stroke:#FEFECE;stroke-width:1.5;" width="555" x="1719.5" y="384"/><text fill="#000000" font-family="sans-serif" font-size="14" lengthAdjust="spacing" textLength="77" x="1724.5" y="399.5352">description</text><text fill="#000000" font-family="sans-serif" font-size="14" lengthAdjust="spacing" textLength="456" x="1811.5" y="399.5352">Step value across the defined range an integer when the range is a</text><text fill="#000000" font-family="sans-serif" font-size="14" lengthAdjust="spacing" textLength="458" x="1811.5" y="416.0234">number.  This is the increment for valid values across the range; so</text><text fill="#000000" font-family="sans-serif" font-size="14" lengthAdjust="spacing" textLength="381" x="1811.5" y="432.5117">if range is 0.0..10.0 and step is 2.5 then valid values are</text><text fill="#000000" font-family="sans-serif" font-size="14" lengthAdjust="spacing" textLength="139" x="1811.5" y="449">0.0,2.5,5.0,7.5,10.0.</text><line style="stroke:#A80036;stroke-width:1.0;" x1="1806.5" x2="1806.5" y1="384" y2="453.9531"/><line style="stroke:#A80036;stroke-width:1.0;" x1="1719.5" x2="2274.5" y1="453.9531" y2="453.9531"/><text fill="#000000" font-family="sans-serif" font-size="14" lengthAdjust="spacing" textLength="55" x="1724.5" y="469.4883">writable</text><text fill="#000000" font-family="sans-serif" font-size="14" lengthAdjust="spacing" textLength="48" x="1811.5" y="469.4883">☐ false</text><line style="stroke:#A80036;stroke-width:1.0;" x1="1806.5" x2="1806.5" y1="453.9531" y2="474.4414"/><line style="stroke:#A80036;stroke-width:1.0;" x1="1719.5" x2="2274.5" y1="474.4414" y2="474.4414"/><text fill="#000000" font-family="sans-serif" font-size="14" lengthAdjust="spacing" textLength="29" x="1724.5" y="489.9766">type</text><text fill="#000000" font-family="sans-serif" font-size="14" lengthAdjust="spacing" textLength="54" x="1811.5" y="489.9766">number</text><line style="stroke:#A80036;stroke-width:1.0;" x1="1806.5" x2="1806.5" y1="474.4414" y2="494.9297"/><rect fill="none" height="110.9297" rx="5" ry="5" style="stroke:#A80036;stroke-width:1.5;" width="555" x="1719.5" y="384"/><rect fill="#FEFECE" height="110.9297" rx="5" ry="5" style="stroke:#FEFECE;stroke-width:1.5;" width="570" x="1712" y="513"/><text fill="#000000" font-family="sans-serif" font-size="14" lengthAdjust="spacing" textLength="29" x="1717" y="528.5352">type</text><text fill="#000000" font-family="sans-serif" font-size="14" lengthAdjust="spacing" textLength="54" x="1804" y="528.5352">number</text><line style="stroke:#A80036;stroke-width:1.0;" x1="1799" x2="1799" y1="513" y2="533.4883"/><line style="stroke:#A80036;stroke-width:1.0;" x1="1712" x2="2282" y1="533.4883" y2="533.4883"/><text fill="#000000" font-family="sans-serif" font-size="14" lengthAdjust="spacing" textLength="55" x="1717" y="549.0234">writable</text><text fill="#000000" font-family="sans-serif" font-size="14" lengthAdjust="spacing" textLength="48" x="1804" y="549.0234">☐ false</text><line style="stroke:#A80036;stroke-width:1.0;" x1="1799" x2="1799" y1="533.4883" y2="553.9766"/><line style="stroke:#A80036;stroke-width:1.0;" x1="1712" x2="2282" y1="553.9766" y2="553.9766"/><text fill="#000000" font-family="sans-serif" font-size="14" lengthAdjust="spacing" textLength="77" x="1717" y="569.5117">description</text><text fill="#000000" font-family="sans-serif" font-size="14" lengthAdjust="spacing" textLength="430" x="1804" y="569.5117">When exposed the value in 'precision' provides a +/- tolerance</text><text fill="#000000" font-family="sans-serif" font-size="14" lengthAdjust="spacing" textLength="473" x="1804" y="586">against the Properties in the Resource. Thus if a Property is UPDATED</text><text fill="#000000" font-family="sans-serif" font-size="14" lengthAdjust="spacing" textLength="465" x="1804" y="602.4883">to a value and that Property then RETRIEVED, the RETRIEVED value is</text><text fill="#000000" font-family="sans-serif" font-size="14" lengthAdjust="spacing" textLength="337" x="1804" y="618.9766">valid if in the range of the set value +/- precision</text><line style="stroke:#A80036;stroke-width:1.0;" x1="1799" x2="1799" y1="553.9766" y2="623.9297"/><rect fill="none" height="110.9297" rx="5" ry="5" style="stroke:#A80036;stroke-width:1.5;" width="570" x="1712" y="513"/><rect fill="#FEFECE" height="20.4883" rx="5" ry="5" style="stroke:#FEFECE;stroke-width:1.5;" width="279" x="1396" y="357.5"/><text fill="#000000" font-family="sans-serif" font-size="14" lengthAdjust="spacing" textLength="269" x="1401" y="373.0352">#/sdfObject/height/sdfProperty/height</text><rect fill="none" height="20.4883" rx="5" ry="5" style="stroke:#A80036;stroke-width:1.5;" width="279" x="1396" y="357.5"/><path d="M95,262.5 L108,262.5 C117.4068,262.5 126.9554,262.4088 136.5926,262.2376 " fill="none" style="stroke:#A80036;stroke-width:1.0;stroke-dasharray:3.0,3.0;"/><path d="M136.6543,265.3363 L138.9166,262.1914 L136.5309,259.1389 L144.3394,262.0834 L136.6543,265.3363 " fill="#A80036" style="stroke:#A80036;stroke-width:1.0;"/><ellipse cx="95" cy="262.5" fill="#A80036" rx="3" ry="3" style="stroke:#A80036;stroke-width:1.0;stroke-dasharray:3.0,3.0;"/><path d="M1572,247.5 L1585,247.5 C1678.2465,247.5 1631.5534,127.6515 1712,80.5 C1761.1125,51.7141 1822.9814,40.6448 1876.4708,37.2166 " fill="none" style="stroke:#A80036;stroke-width:1.0;stroke-dasharray:3.0,3.0;"/><path d="M1876.6444,40.2125 L1878.7177,37.0863 L1876.2971,34.2207 L1883.9605,36.7825 L1876.6444,40.2125 " fill="#A80036" style="stroke:#A80036;stroke-width:1.0;"/><ellipse cx="1572" cy="247.5" fill="#A80036" rx="3" ry="3" style="stroke:#A80036;stroke-width:1.0;stroke-dasharray:3.0,3.0;"/><path d="M2072.5,119.5 L2085.5,119.5 C2183.5516,119.5 2300.6117,119.5 2348.239,119.5 " fill="none" style="stroke:#A80036;stroke-width:1.0;stroke-dasharray:3.0,3.0;"/><path d="M2348.239,122.5207 L2350.5045,119.5 L2348.239,116.4793 L2355.7907,119.5 L2348.239,122.5207 " fill="#A80036" style="stroke:#A80036;stroke-width:1.0;"/><ellipse cx="2072.5" cy="119.5" fill="#A80036" rx="3" ry="3" style="stroke:#A80036;stroke-width:1.0;stroke-dasharray:3.0,3.0;"/><path d="M1572,267.5 L1585,267.5 C1648.8176,267.5 1651.9785,222.182 1712,200.5 C1774.0203,178.0959 1846.8269,162.9332 1903.2615,153.4554 " fill="none" style="stroke:#A80036;stroke-width:1.0;stroke-dasharray:3.0,3.0;"/><path d="M1903.7585,156.4554 L1905.5115,153.0827 L1902.7646,150.4554 L1910.7615,152.2131 L1903.7585,156.4554 " fill="#A80036" style="stroke:#A80036;stroke-width:1.0;"/><ellipse cx="1572" cy="267.5" fill="#A80036" rx="3" ry="3" style="stroke:#A80036;stroke-width:1.0;stroke-dasharray:3.0,3.0;"/><path d="M2259.5,352.5 L2272.5,352.5 C2285.235,352.5 2298.9056,352.5 2311.8621,352.5 " fill="none" style="stroke:#A80036;stroke-width:1.0;stroke-dasharray:3.0,3.0;"/><path d="M2311.8621,355.5134 L2314.1221,352.5 L2311.8621,349.4866 L2319.3956,352.5 L2311.8621,355.5134 " fill="#A80036" style="stroke:#A80036;stroke-width:1.0;"/><ellipse cx="2259.5" cy="352.5" fill="#A80036" rx="3" ry="3" style="stroke:#A80036;stroke-width:1.0;stroke-dasharray:3.0,3.0;"/><path d="M1572,287.5 L1585,287.5 C1627.2932,287.5 1672.0315,287.5 1715.8223,287.5 " fill="none" style="stroke:#A80036;stroke-width:1.0;stroke-dasharray:3.0,3.0;"/><path d="M1715.8223,290.536 L1718.0992,287.5 L1715.8223,284.464 L1723.4122,287.5 L1715.8223,290.536 " fill="#A80036" style="stroke:#A80036;stroke-width:1.0;"/><ellipse cx="1572" cy="287.5" fill="#A80036" rx="3" ry="3" style="stroke:#A80036;stroke-width:1.0;stroke-dasharray:3.0,3.0;"/><path d="M1572,308.5 L1585,308.5 C1629.1792,308.5 1637.6563,326.5554 1676,348.5 C1693.1296,358.3035 1694.0197,366.3613 1712,374.5 C1716.9979,376.7623 1722.082,378.9495 1727.2361,381.0639 " fill="none" style="stroke:#A80036;stroke-width:1.0;stroke-dasharray:3.0,3.0;"/><path d="M1726.1007,383.8919 L1729.3571,381.9154 L1728.3714,378.2358 L1734.3062,383.9023 L1726.1007,383.8919 " fill="#A80036" style="stroke:#A80036;stroke-width:1.0;"/><ellipse cx="1572" cy="308.5" fill="#A80036" rx="3" ry="3" style="stroke:#A80036;stroke-width:1.0;stroke-dasharray:3.0,3.0;"/><path d="M1572,329.5 L1585,329.5 C1626.3166,329.5 1646.4801,319.5926 1676,348.5 C1726.8392,398.2844 1661.5466,454.3247 1712,504.5 C1713.1106,505.6045 1714.2359,506.6916 1715.3753,507.7616 " fill="none" style="stroke:#A80036;stroke-width:1.0;stroke-dasharray:3.0,3.0;"/><path d="M1713.2918,510.0868 L1717.1193,509.3242 L1717.4589,505.4363 L1721.1885,512.9704 L1713.2918,510.0868 " fill="#A80036" style="stroke:#A80036;stroke-width:1.0;"/><ellipse cx="1572" cy="329.5" fill="#A80036" rx="3" ry="3" style="stroke:#A80036;stroke-width:1.0;stroke-dasharray:3.0,3.0;"/><path d="M1347,306.5 L1360,306.5 C1400.6045,306.5 1446.2316,301.6456 1480.714,296.9787 " fill="none" style="stroke:#A80036;stroke-width:1.0;stroke-dasharray:3.0,3.0;"/><path d="M1481.1354,300.0289 L1483.0017,296.6626 L1480.2926,293.9285 L1488.3395,295.9252 L1481.1354,300.0289 " fill="#A80036" style="stroke:#A80036;stroke-width:1.0;"/><ellipse cx="1347" cy="306.5" fill="#A80036" rx="3" ry="3" style="stroke:#A80036;stroke-width:1.0;stroke-dasharray:3.0,3.0;"/><path d="M1347,349.5 L1360,349.5 C1393.365,349.5 1430.1213,352.7777 1461.299,356.5358 " fill="none" style="stroke:#A80036;stroke-width:1.0;stroke-dasharray:3.0,3.0;"/><path d="M1460.9134,359.6561 L1463.6393,356.825 L1461.6846,353.4155 L1469.0999,357.4999 L1460.9134,359.6561 " fill="#A80036" style="stroke:#A80036;stroke-width:1.0;"/><ellipse cx="1347" cy="349.5" fill="#A80036" rx="3" ry="3" style="stroke:#A80036;stroke-width:1.0;stroke-dasharray:3.0,3.0;"/><path d="M477.5,307.5 L490.5,307.5 C587.2011,307.5 692.8783,307.5 787.535,307.5 " fill="none" style="stroke:#A80036;stroke-width:1.0;stroke-dasharray:3.0,3.0;"/><path d="M787.535,310.5662 L789.8347,307.5 L787.535,304.4338 L795.2006,307.5 L787.535,310.5662 " fill="#A80036" style="stroke:#A80036;stroke-width:1.0;"/><ellipse cx="477.5" cy="307.5" fill="#A80036" rx="3" ry="3" style="stroke:#A80036;stroke-width:1.0;stroke-dasharray:3.0,3.0;"/><path d="M95,283.5 L108,283.5 C124.1536,283.5 127.927,286.888 144,288.5 C236.6524,297.7924 345.5476,303.2492 405.3945,305.7788 " fill="none" style="stroke:#A80036;stroke-width:1.0;stroke-dasharray:3.0,3.0;"/><path d="M405.2653,308.8822 L407.7221,305.8757 L405.5238,302.6754 L413.153,306.1019 L405.2653,308.8822 " fill="#A80036" style="stroke:#A80036;stroke-width:1.0;"/><ellipse cx="95" cy="283.5" fill="#A80036" rx="3" ry="3" style="stroke:#A80036;stroke-width:1.0;stroke-dasharray:3.0,3.0;"/><!--MD5=[db46abe20c06d986f14911b77674ea3c]
@startjson
{
  "info": {
    "copyright": "Copyright 2016-2019 Open Connectivity Foundation, Inc. All rights reserved.",
    "license": "https://github.com/one-data-model/oneDM/blob/master/LICENSE",
    "title": "Height",
    "version": "2019-03-22"
  },
  "sdfObject": {
    "height": {
      "description": "This Resource describes the Properties associated with height of an\\nobject's physical size. The unit is a single value that is one of m,\\ncm, ft or in. If the unit Property is missing the default is meters\\n[m]. The unit Property is a read-only value that is provided by the\\nserver. When range is omitted the default is 0 to +MAXFLOAT.",
      "sdfProperty": {
        "height": {
          "description": "Height of an object",
          "minimum": 0,
          "type": "number"
        },
        "units": {
          "description": "Height unit",
          "enum": [
            "m",
            "cm",
            "ft",
            "in"
          ],
          "writable": false,
          "type": "string",
          "default": "m"
        },
        "range": {
          "type": "array",
          "description": "The valid range for the Property in the Resource as a number. The\\nfirst value in the array is the minimum value, the second value in\\nthe array is the maximum value.",
          "writable": false,
          "minItems": 2,
          "maxItems": 2,
          "items": {
            "type": "number"
          }
        },
        "step": {
          "description": "Step value across the defined range an integer when the range is a\\nnumber.  This is the increment for valid values across the range; so\\nif range is 0.0..10.0 and step is 2.5 then valid values are\\n0.0,2.5,5.0,7.5,10.0.",
          "writable": false,
          "type": "number"
        },
        "precision": {
          "type": "number",
          "writable": false,
          "description": "When exposed the value in 'precision' provides a +/- tolerance\\nagainst the Properties in the Resource. Thus if a Property is UPDATED\\nto a value and that Property then RETRIEVED, the RETRIEVED value is\\nvalid if in the range of the set value +/- precision"
        }
      },
      "sdfRequired": [
        "#/sdfObject/height/sdfProperty/height"
      ]
    }
  }
}
@endjson

PlantUML version 1.2021.2(Sun Mar 07 13:10:27 EET 2021)
(GPL source distribution)
Java Runtime: OpenJDK Runtime Environment
JVM: OpenJDK 64-Bit Server VM
Default Encoding: UTF-8
Language: en
Country: FI
--></g></svg>