<?xml version="1.0" encoding="UTF-8" standalone="no"?><svg xmlns="http://www.w3.org/2000/svg" xmlns:xlink="http://www.w3.org/1999/xlink" contentScriptType="application/ecmascript" contentStyleType="text/css" height="648px" preserveAspectRatio="none" style="width:2524px;height:648px;" version="1.1" viewBox="0 0 2524 648" width="2524px" zoomAndPan="magnify"><defs/><g><rect fill="#FEFECE" height="40.9766" rx="5" ry="5" style="stroke:#FEFECE;stroke-width:1.5;" width="97" x="10" y="318.5"/><text fill="#000000" font-family="sans-serif" font-size="14" lengthAdjust="spacing" textLength="27" x="15" y="334.0352">info</text><text fill="#000000" font-family="sans-serif" font-size="14" lengthAdjust="spacing" textLength="0" x="102" y="334.0352"/><line style="stroke:#A80036;stroke-width:1.0;" x1="85" x2="85" y1="318.5" y2="338.9883"/><line style="stroke:#A80036;stroke-width:1.0;" x1="10" x2="107" y1="338.9883" y2="338.9883"/><text fill="#000000" font-family="sans-serif" font-size="14" lengthAdjust="spacing" textLength="65" x="15" y="354.5234">sdfObject</text><text fill="#000000" font-family="sans-serif" font-size="14" lengthAdjust="spacing" textLength="0" x="102" y="354.5234"/><line style="stroke:#A80036;stroke-width:1.0;" x1="85" x2="85" y1="338.9883" y2="359.4766"/><rect fill="none" height="40.9766" rx="5" ry="5" style="stroke:#A80036;stroke-width:1.5;" width="97" x="10" y="318.5"/><rect fill="#FEFECE" height="81.9531" rx="5" ry="5" style="stroke:#FEFECE;stroke-width:1.5;" width="567" x="144" y="263"/><text fill="#000000" font-family="sans-serif" font-size="14" lengthAdjust="spacing" textLength="65" x="149" y="278.5352">copyright</text><text fill="#000000" font-family="sans-serif" font-size="14" lengthAdjust="spacing" textLength="482" x="224" y="278.5352">copyright 2019 Open Connectivity Foundation, Inc. All rights reserved.</text><line style="stroke:#A80036;stroke-width:1.0;" x1="219" x2="219" y1="263" y2="283.4883"/><line style="stroke:#A80036;stroke-width:1.0;" x1="144" x2="711" y1="283.4883" y2="283.4883"/><text fill="#000000" font-family="sans-serif" font-size="14" lengthAdjust="spacing" textLength="47" x="149" y="299.0234">license</text><text fill="#000000" font-family="sans-serif" font-size="14" lengthAdjust="spacing" textLength="462" x="224" y="299.0234">https://github.com/one-data-model/oneDM/blob/master/LICENSE</text><line style="stroke:#A80036;stroke-width:1.0;" x1="219" x2="219" y1="283.4883" y2="303.9766"/><line style="stroke:#A80036;stroke-width:1.0;" x1="144" x2="711" y1="303.9766" y2="303.9766"/><text fill="#000000" font-family="sans-serif" font-size="14" lengthAdjust="spacing" textLength="26" x="149" y="319.5117">title</text><text fill="#000000" font-family="sans-serif" font-size="14" lengthAdjust="spacing" textLength="186" x="224" y="319.5117">Circuit Breaker (IEC 61850)</text><line style="stroke:#A80036;stroke-width:1.0;" x1="219" x2="219" y1="303.9766" y2="324.4648"/><line style="stroke:#A80036;stroke-width:1.0;" x1="144" x2="711" y1="324.4648" y2="324.4648"/><text fill="#000000" font-family="sans-serif" font-size="14" lengthAdjust="spacing" textLength="50" x="149" y="340">version</text><text fill="#000000" font-family="sans-serif" font-size="14" lengthAdjust="spacing" textLength="88" x="224" y="340">2019-06-13</text><line style="stroke:#A80036;stroke-width:1.0;" x1="219" x2="219" y1="324.4648" y2="344.9531"/><rect fill="none" height="81.9531" rx="5" ry="5" style="stroke:#A80036;stroke-width:1.5;" width="567" x="144" y="263"/><rect fill="#FEFECE" height="20.4883" rx="5" ry="5" style="stroke:#FEFECE;stroke-width:1.5;" width="127" x="364" y="363"/><text fill="#000000" font-family="sans-serif" font-size="14" lengthAdjust="spacing" textLength="95" x="369" y="378.5352">circuitbreaker</text><text fill="#000000" font-family="sans-serif" font-size="14" lengthAdjust="spacing" textLength="0" x="486" y="378.5352"/><line style="stroke:#A80036;stroke-width:1.0;" x1="469" x2="469" y1="363" y2="383.4883"/><rect fill="none" height="20.4883" rx="5" ry="5" style="stroke:#A80036;stroke-width:1.5;" width="127" x="364" y="363"/><rect fill="#FEFECE" height="77.9531" rx="5" ry="5" style="stroke:#FEFECE;stroke-width:1.5;" width="568" x="748" y="334"/><text fill="#000000" font-family="sans-serif" font-size="14" lengthAdjust="spacing" textLength="77" x="753" y="349.5352">description</text><text fill="#000000" font-family="sans-serif" font-size="14" lengthAdjust="spacing" textLength="465" x="846" y="349.5352">This Resource describes functions for the control and monitoring of</text><text fill="#000000" font-family="sans-serif" font-size="14" lengthAdjust="spacing" textLength="223" x="846" y="366.0234">IEC 61850 based circuit breaker.</text><line style="stroke:#A80036;stroke-width:1.0;" x1="841" x2="841" y1="334" y2="370.9766"/><line style="stroke:#A80036;stroke-width:1.0;" x1="748" x2="1316" y1="370.9766" y2="370.9766"/><text fill="#000000" font-family="sans-serif" font-size="14" lengthAdjust="spacing" textLength="79" x="753" y="386.5117">sdfProperty</text><text fill="#000000" font-family="sans-serif" font-size="14" lengthAdjust="spacing" textLength="0" x="858" y="386.5117"/><line style="stroke:#A80036;stroke-width:1.0;" x1="841" x2="841" y1="370.9766" y2="391.4648"/><line style="stroke:#A80036;stroke-width:1.0;" x1="748" x2="1316" y1="391.4648" y2="391.4648"/><text fill="#000000" font-family="sans-serif" font-size="14" lengthAdjust="spacing" textLength="83" x="753" y="407">sdfRequired</text><text fill="#000000" font-family="sans-serif" font-size="14" lengthAdjust="spacing" textLength="0" x="858" y="407"/><line style="stroke:#A80036;stroke-width:1.0;" x1="841" x2="841" y1="391.4648" y2="411.9531"/><rect fill="none" height="77.9531" rx="5" ry="5" style="stroke:#A80036;stroke-width:1.5;" width="568" x="748" y="334"/><rect fill="#FEFECE" height="143.418" rx="5" ry="5" style="stroke:#FEFECE;stroke-width:1.5;" width="179" x="1480" y="244.5"/><text fill="#000000" font-family="sans-serif" font-size="14" lengthAdjust="spacing" textLength="41" x="1485" y="260.0352">status</text><text fill="#000000" font-family="sans-serif" font-size="14" lengthAdjust="spacing" textLength="0" x="1654" y="260.0352"/><line style="stroke:#A80036;stroke-width:1.0;" x1="1637" x2="1637" y1="244.5" y2="264.9883"/><line style="stroke:#A80036;stroke-width:1.0;" x1="1480" x2="1659" y1="264.9883" y2="264.9883"/><text fill="#000000" font-family="sans-serif" font-size="14" lengthAdjust="spacing" textLength="86" x="1485" y="280.5234">ratedcurrent</text><text fill="#000000" font-family="sans-serif" font-size="14" lengthAdjust="spacing" textLength="0" x="1654" y="280.5234"/><line style="stroke:#A80036;stroke-width:1.0;" x1="1637" x2="1637" y1="264.9883" y2="285.4766"/><line style="stroke:#A80036;stroke-width:1.0;" x1="1480" x2="1659" y1="285.4766" y2="285.4766"/><text fill="#000000" font-family="sans-serif" font-size="14" lengthAdjust="spacing" textLength="147" x="1485" y="301.0117">ratedbreakingcurrent</text><text fill="#000000" font-family="sans-serif" font-size="14" lengthAdjust="spacing" textLength="0" x="1654" y="301.0117"/><line style="stroke:#A80036;stroke-width:1.0;" x1="1637" x2="1637" y1="285.4766" y2="305.9648"/><line style="stroke:#A80036;stroke-width:1.0;" x1="1480" x2="1659" y1="305.9648" y2="305.9648"/><text fill="#000000" font-family="sans-serif" font-size="14" lengthAdjust="spacing" textLength="86" x="1485" y="321.5">ratedvoltage</text><text fill="#000000" font-family="sans-serif" font-size="14" lengthAdjust="spacing" textLength="0" x="1654" y="321.5"/><line style="stroke:#A80036;stroke-width:1.0;" x1="1637" x2="1637" y1="305.9648" y2="326.4531"/><line style="stroke:#A80036;stroke-width:1.0;" x1="1480" x2="1659" y1="326.4531" y2="326.4531"/><text fill="#000000" font-family="sans-serif" font-size="14" lengthAdjust="spacing" textLength="103" x="1485" y="341.9883">leakagecurrent</text><text fill="#000000" font-family="sans-serif" font-size="14" lengthAdjust="spacing" textLength="0" x="1654" y="341.9883"/><line style="stroke:#A80036;stroke-width:1.0;" x1="1637" x2="1637" y1="326.4531" y2="346.9414"/><line style="stroke:#A80036;stroke-width:1.0;" x1="1480" x2="1659" y1="346.9414" y2="346.9414"/><text fill="#000000" font-family="sans-serif" font-size="14" lengthAdjust="spacing" textLength="137" x="1485" y="362.4766">insulationresistance</text><text fill="#000000" font-family="sans-serif" font-size="14" lengthAdjust="spacing" textLength="0" x="1654" y="362.4766"/><line style="stroke:#A80036;stroke-width:1.0;" x1="1637" x2="1637" y1="346.9414" y2="367.4297"/><line style="stroke:#A80036;stroke-width:1.0;" x1="1480" x2="1659" y1="367.4297" y2="367.4297"/><text fill="#000000" font-family="sans-serif" font-size="14" lengthAdjust="spacing" textLength="72" x="1485" y="382.9648">timestamp</text><text fill="#000000" font-family="sans-serif" font-size="14" lengthAdjust="spacing" textLength="0" x="1654" y="382.9648"/><line style="stroke:#A80036;stroke-width:1.0;" x1="1637" x2="1637" y1="367.4297" y2="387.918"/><rect fill="none" height="143.418" rx="5" ry="5" style="stroke:#A80036;stroke-width:1.5;" width="179" x="1480" y="244.5"/><rect fill="#FEFECE" height="98.4414" rx="5" ry="5" style="stroke:#FEFECE;stroke-width:1.5;" width="515" x="1874.5" y="10"/><text fill="#000000" font-family="sans-serif" font-size="14" lengthAdjust="spacing" textLength="77" x="1879.5" y="25.5352">description</text><text fill="#000000" font-family="sans-serif" font-size="14" lengthAdjust="spacing" textLength="418" x="1966.5" y="25.5352">The circuit breaker status. The status can only be reset out of</text><text fill="#000000" font-family="sans-serif" font-size="14" lengthAdjust="spacing" textLength="56" x="1966.5" y="42.0234">bounds.</text><line style="stroke:#A80036;stroke-width:1.0;" x1="1961.5" x2="1961.5" y1="10" y2="46.9766"/><line style="stroke:#A80036;stroke-width:1.0;" x1="1874.5" x2="2389.5" y1="46.9766" y2="46.9766"/><text fill="#000000" font-family="sans-serif" font-size="14" lengthAdjust="spacing" textLength="55" x="1879.5" y="62.5117">writable</text><text fill="#000000" font-family="sans-serif" font-size="14" lengthAdjust="spacing" textLength="48" x="1966.5" y="62.5117">☐ false</text><line style="stroke:#A80036;stroke-width:1.0;" x1="1961.5" x2="1961.5" y1="46.9766" y2="67.4648"/><line style="stroke:#A80036;stroke-width:1.0;" x1="1874.5" x2="2389.5" y1="67.4648" y2="67.4648"/><text fill="#000000" font-family="sans-serif" font-size="14" lengthAdjust="spacing" textLength="29" x="1879.5" y="83">type</text><text fill="#000000" font-family="sans-serif" font-size="14" lengthAdjust="spacing" textLength="40" x="1966.5" y="83">string</text><line style="stroke:#A80036;stroke-width:1.0;" x1="1961.5" x2="1961.5" y1="67.4648" y2="87.9531"/><line style="stroke:#A80036;stroke-width:1.0;" x1="1874.5" x2="2389.5" y1="87.9531" y2="87.9531"/><text fill="#000000" font-family="sans-serif" font-size="14" lengthAdjust="spacing" textLength="39" x="1879.5" y="103.4883">enum</text><text fill="#000000" font-family="sans-serif" font-size="14" lengthAdjust="spacing" textLength="0" x="1978.5" y="103.4883"/><line style="stroke:#A80036;stroke-width:1.0;" x1="1961.5" x2="1961.5" y1="87.9531" y2="108.4414"/><rect fill="none" height="98.4414" rx="5" ry="5" style="stroke:#A80036;stroke-width:1.5;" width="515" x="1874.5" y="10"/><rect fill="#FEFECE" height="61.4648" rx="5" ry="5" style="stroke:#FEFECE;stroke-width:1.5;" width="34" x="2478" y="65.5"/><text fill="#000000" font-family="sans-serif" font-size="14" lengthAdjust="spacing" textLength="18" x="2483" y="81.0352">on</text><line style="stroke:#A80036;stroke-width:1.0;" x1="2478" x2="2512" y1="85.9883" y2="85.9883"/><text fill="#000000" font-family="sans-serif" font-size="14" lengthAdjust="spacing" textLength="19" x="2483" y="101.5234">off</text><line style="stroke:#A80036;stroke-width:1.0;" x1="2478" x2="2512" y1="106.4766" y2="106.4766"/><text fill="#000000" font-family="sans-serif" font-size="14" lengthAdjust="spacing" textLength="24" x="2483" y="122.0117">trip</text><rect fill="none" height="61.4648" rx="5" ry="5" style="stroke:#A80036;stroke-width:1.5;" width="34" x="2478" y="65.5"/><rect fill="#FEFECE" height="61.4648" rx="5" ry="5" style="stroke:#FEFECE;stroke-width:1.5;" width="512" x="1876" y="126.5"/><text fill="#000000" font-family="sans-serif" font-size="14" lengthAdjust="spacing" textLength="77" x="1881" y="142.0352">description</text><text fill="#000000" font-family="sans-serif" font-size="14" lengthAdjust="spacing" textLength="415" x="1968" y="142.0352">The rated current in Ampere, defined at manufacturing time.</text><line style="stroke:#A80036;stroke-width:1.0;" x1="1963" x2="1963" y1="126.5" y2="146.9883"/><line style="stroke:#A80036;stroke-width:1.0;" x1="1876" x2="2388" y1="146.9883" y2="146.9883"/><text fill="#000000" font-family="sans-serif" font-size="14" lengthAdjust="spacing" textLength="55" x="1881" y="162.5234">writable</text><text fill="#000000" font-family="sans-serif" font-size="14" lengthAdjust="spacing" textLength="48" x="1968" y="162.5234">☐ false</text><line style="stroke:#A80036;stroke-width:1.0;" x1="1963" x2="1963" y1="146.9883" y2="167.4766"/><line style="stroke:#A80036;stroke-width:1.0;" x1="1876" x2="2388" y1="167.4766" y2="167.4766"/><text fill="#000000" font-family="sans-serif" font-size="14" lengthAdjust="spacing" textLength="29" x="1881" y="183.0117">type</text><text fill="#000000" font-family="sans-serif" font-size="14" lengthAdjust="spacing" textLength="54" x="1968" y="183.0117">number</text><line style="stroke:#A80036;stroke-width:1.0;" x1="1963" x2="1963" y1="167.4766" y2="187.9648"/><rect fill="none" height="61.4648" rx="5" ry="5" style="stroke:#A80036;stroke-width:1.5;" width="512" x="1876" y="126.5"/><rect fill="#FEFECE" height="61.4648" rx="5" ry="5" style="stroke:#FEFECE;stroke-width:1.5;" width="577" x="1843.5" y="205.5"/><text fill="#000000" font-family="sans-serif" font-size="14" lengthAdjust="spacing" textLength="77" x="1848.5" y="221.0352">description</text><text fill="#000000" font-family="sans-serif" font-size="14" lengthAdjust="spacing" textLength="480" x="1935.5" y="221.0352">The rated breaking current in Ampere, defined at manufacturing time.</text><line style="stroke:#A80036;stroke-width:1.0;" x1="1930.5" x2="1930.5" y1="205.5" y2="225.9883"/><line style="stroke:#A80036;stroke-width:1.0;" x1="1843.5" x2="2420.5" y1="225.9883" y2="225.9883"/><text fill="#000000" font-family="sans-serif" font-size="14" lengthAdjust="spacing" textLength="55" x="1848.5" y="241.5234">writable</text><text fill="#000000" font-family="sans-serif" font-size="14" lengthAdjust="spacing" textLength="48" x="1935.5" y="241.5234">☐ false</text><line style="stroke:#A80036;stroke-width:1.0;" x1="1930.5" x2="1930.5" y1="225.9883" y2="246.4766"/><line style="stroke:#A80036;stroke-width:1.0;" x1="1843.5" x2="2420.5" y1="246.4766" y2="246.4766"/><text fill="#000000" font-family="sans-serif" font-size="14" lengthAdjust="spacing" textLength="29" x="1848.5" y="262.0117">type</text><text fill="#000000" font-family="sans-serif" font-size="14" lengthAdjust="spacing" textLength="54" x="1935.5" y="262.0117">number</text><line style="stroke:#A80036;stroke-width:1.0;" x1="1930.5" x2="1930.5" y1="246.4766" y2="266.9648"/><rect fill="none" height="61.4648" rx="5" ry="5" style="stroke:#A80036;stroke-width:1.5;" width="577" x="1843.5" y="205.5"/><rect fill="#FEFECE" height="61.4648" rx="5" ry="5" style="stroke:#FEFECE;stroke-width:1.5;" width="492" x="1886" y="284.5"/><text fill="#000000" font-family="sans-serif" font-size="14" lengthAdjust="spacing" textLength="77" x="1891" y="300.0352">description</text><text fill="#000000" font-family="sans-serif" font-size="14" lengthAdjust="spacing" textLength="395" x="1978" y="300.0352">The rated voltage in Volts, defined at manufacturing time.</text><line style="stroke:#A80036;stroke-width:1.0;" x1="1973" x2="1973" y1="284.5" y2="304.9883"/><line style="stroke:#A80036;stroke-width:1.0;" x1="1886" x2="2378" y1="304.9883" y2="304.9883"/><text fill="#000000" font-family="sans-serif" font-size="14" lengthAdjust="spacing" textLength="55" x="1891" y="320.5234">writable</text><text fill="#000000" font-family="sans-serif" font-size="14" lengthAdjust="spacing" textLength="48" x="1978" y="320.5234">☐ false</text><line style="stroke:#A80036;stroke-width:1.0;" x1="1973" x2="1973" y1="304.9883" y2="325.4766"/><line style="stroke:#A80036;stroke-width:1.0;" x1="1886" x2="2378" y1="325.4766" y2="325.4766"/><text fill="#000000" font-family="sans-serif" font-size="14" lengthAdjust="spacing" textLength="29" x="1891" y="341.0117">type</text><text fill="#000000" font-family="sans-serif" font-size="14" lengthAdjust="spacing" textLength="54" x="1978" y="341.0117">number</text><line style="stroke:#A80036;stroke-width:1.0;" x1="1973" x2="1973" y1="325.4766" y2="345.9648"/><rect fill="none" height="61.4648" rx="5" ry="5" style="stroke:#A80036;stroke-width:1.5;" width="492" x="1886" y="284.5"/><rect fill="#FEFECE" height="61.4648" rx="5" ry="5" style="stroke:#FEFECE;stroke-width:1.5;" width="282" x="1991" y="363.5"/><text fill="#000000" font-family="sans-serif" font-size="14" lengthAdjust="spacing" textLength="77" x="1996" y="379.0352">description</text><text fill="#000000" font-family="sans-serif" font-size="14" lengthAdjust="spacing" textLength="185" x="2083" y="379.0352">The leakage current in mA.</text><line style="stroke:#A80036;stroke-width:1.0;" x1="2078" x2="2078" y1="363.5" y2="383.9883"/><line style="stroke:#A80036;stroke-width:1.0;" x1="1991" x2="2273" y1="383.9883" y2="383.9883"/><text fill="#000000" font-family="sans-serif" font-size="14" lengthAdjust="spacing" textLength="55" x="1996" y="399.5234">writable</text><text fill="#000000" font-family="sans-serif" font-size="14" lengthAdjust="spacing" textLength="48" x="2083" y="399.5234">☐ false</text><line style="stroke:#A80036;stroke-width:1.0;" x1="2078" x2="2078" y1="383.9883" y2="404.4766"/><line style="stroke:#A80036;stroke-width:1.0;" x1="1991" x2="2273" y1="404.4766" y2="404.4766"/><text fill="#000000" font-family="sans-serif" font-size="14" lengthAdjust="spacing" textLength="29" x="1996" y="420.0117">type</text><text fill="#000000" font-family="sans-serif" font-size="14" lengthAdjust="spacing" textLength="54" x="2083" y="420.0117">number</text><line style="stroke:#A80036;stroke-width:1.0;" x1="2078" x2="2078" y1="404.4766" y2="424.9648"/><rect fill="none" height="61.4648" rx="5" ry="5" style="stroke:#A80036;stroke-width:1.5;" width="282" x="1991" y="363.5"/><rect fill="#FEFECE" height="61.4648" rx="5" ry="5" style="stroke:#FEFECE;stroke-width:1.5;" width="426" x="1919" y="442.5"/><text fill="#000000" font-family="sans-serif" font-size="14" lengthAdjust="spacing" textLength="77" x="1924" y="458.0352">description</text><text fill="#000000" font-family="sans-serif" font-size="14" lengthAdjust="spacing" textLength="329" x="2011" y="458.0352">Insulation resistance of circuit breaker (M Ohm).</text><line style="stroke:#A80036;stroke-width:1.0;" x1="2006" x2="2006" y1="442.5" y2="462.9883"/><line style="stroke:#A80036;stroke-width:1.0;" x1="1919" x2="2345" y1="462.9883" y2="462.9883"/><text fill="#000000" font-family="sans-serif" font-size="14" lengthAdjust="spacing" textLength="55" x="1924" y="478.5234">writable</text><text fill="#000000" font-family="sans-serif" font-size="14" lengthAdjust="spacing" textLength="48" x="2011" y="478.5234">☐ false</text><line style="stroke:#A80036;stroke-width:1.0;" x1="2006" x2="2006" y1="462.9883" y2="483.4766"/><line style="stroke:#A80036;stroke-width:1.0;" x1="1919" x2="2345" y1="483.4766" y2="483.4766"/><text fill="#000000" font-family="sans-serif" font-size="14" lengthAdjust="spacing" textLength="29" x="1924" y="499.0117">type</text><text fill="#000000" font-family="sans-serif" font-size="14" lengthAdjust="spacing" textLength="54" x="2011" y="499.0117">number</text><line style="stroke:#A80036;stroke-width:1.0;" x1="2006" x2="2006" y1="483.4766" y2="503.9648"/><rect fill="none" height="61.4648" rx="5" ry="5" style="stroke:#A80036;stroke-width:1.5;" width="426" x="1919" y="442.5"/><rect fill="#FEFECE" height="114.9297" rx="5" ry="5" style="stroke:#FEFECE;stroke-width:1.5;" width="618" x="1823" y="521.5"/><text fill="#000000" font-family="sans-serif" font-size="14" lengthAdjust="spacing" textLength="77" x="1828" y="537.0352">description</text><text fill="#000000" font-family="sans-serif" font-size="14" lengthAdjust="spacing" textLength="462" x="1915" y="537.0352">An RFC3339 formatted time indicating when the data was observed</text><text fill="#000000" font-family="sans-serif" font-size="14" lengthAdjust="spacing" textLength="521" x="1915" y="553.5234">(e.g.: 2016-02-15T09:19Z, 1996-12-19T16:39:57-08:00). Note that 1/100</text><text fill="#000000" font-family="sans-serif" font-size="14" lengthAdjust="spacing" textLength="217" x="1915" y="570.0117">time resolution should be used.</text><line style="stroke:#A80036;stroke-width:1.0;" x1="1910" x2="1910" y1="521.5" y2="574.9648"/><line style="stroke:#A80036;stroke-width:1.0;" x1="1823" x2="2441" y1="574.9648" y2="574.9648"/><text fill="#000000" font-family="sans-serif" font-size="14" lengthAdjust="spacing" textLength="46" x="1828" y="590.5">format</text><text fill="#000000" font-family="sans-serif" font-size="14" lengthAdjust="spacing" textLength="68" x="1915" y="590.5">date-time</text><line style="stroke:#A80036;stroke-width:1.0;" x1="1910" x2="1910" y1="574.9648" y2="595.4531"/><line style="stroke:#A80036;stroke-width:1.0;" x1="1823" x2="2441" y1="595.4531" y2="595.4531"/><text fill="#000000" font-family="sans-serif" font-size="14" lengthAdjust="spacing" textLength="55" x="1828" y="610.9883">writable</text><text fill="#000000" font-family="sans-serif" font-size="14" lengthAdjust="spacing" textLength="48" x="1915" y="610.9883">☐ false</text><line style="stroke:#A80036;stroke-width:1.0;" x1="1910" x2="1910" y1="595.4531" y2="615.9414"/><line style="stroke:#A80036;stroke-width:1.0;" x1="1823" x2="2441" y1="615.9414" y2="615.9414"/><text fill="#000000" font-family="sans-serif" font-size="14" lengthAdjust="spacing" textLength="29" x="1828" y="631.4766">type</text><text fill="#000000" font-family="sans-serif" font-size="14" lengthAdjust="spacing" textLength="40" x="1915" y="631.4766">string</text><line style="stroke:#A80036;stroke-width:1.0;" x1="1910" x2="1910" y1="615.9414" y2="636.4297"/><rect fill="none" height="114.9297" rx="5" ry="5" style="stroke:#A80036;stroke-width:1.5;" width="618" x="1823" y="521.5"/><rect fill="#FEFECE" height="102.4414" rx="5" ry="5" style="stroke:#FEFECE;stroke-width:1.5;" width="433" x="1353" y="406"/><text fill="#000000" font-family="sans-serif" font-size="14" lengthAdjust="spacing" textLength="317" x="1358" y="421.5352">#/sdfObject/circuitbreaker/sdfProperty/status</text><line style="stroke:#A80036;stroke-width:1.0;" x1="1353" x2="1786" y1="426.4883" y2="426.4883"/><text fill="#000000" font-family="sans-serif" font-size="14" lengthAdjust="spacing" textLength="362" x="1358" y="442.0234">#/sdfObject/circuitbreaker/sdfProperty/ratedcurrent</text><line style="stroke:#A80036;stroke-width:1.0;" x1="1353" x2="1786" y1="446.9766" y2="446.9766"/><text fill="#000000" font-family="sans-serif" font-size="14" lengthAdjust="spacing" textLength="423" x="1358" y="462.5117">#/sdfObject/circuitbreaker/sdfProperty/ratedbreakingcurrent</text><line style="stroke:#A80036;stroke-width:1.0;" x1="1353" x2="1786" y1="467.4648" y2="467.4648"/><text fill="#000000" font-family="sans-serif" font-size="14" lengthAdjust="spacing" textLength="362" x="1358" y="483">#/sdfObject/circuitbreaker/sdfProperty/ratedvoltage</text><line style="stroke:#A80036;stroke-width:1.0;" x1="1353" x2="1786" y1="487.9531" y2="487.9531"/><text fill="#000000" font-family="sans-serif" font-size="14" lengthAdjust="spacing" textLength="348" x="1358" y="503.4883">#/sdfObject/circuitbreaker/sdfProperty/timestamp</text><rect fill="none" height="102.4414" rx="5" ry="5" style="stroke:#A80036;stroke-width:1.5;" width="433" x="1353" y="406"/><path d="M95,328 L108,328 C117.422,328 126.9962,327.8946 136.6609,327.6978 " fill="none" style="stroke:#A80036;stroke-width:1.0;stroke-dasharray:3.0,3.0;"/><path d="M136.7318,330.8054 L138.9917,327.6446 L136.59,324.5901 L144.4301,327.5206 L136.7318,330.8054 " fill="#A80036" style="stroke:#A80036;stroke-width:1.0;"/><ellipse cx="95" cy="328" fill="#A80036" rx="3" ry="3" style="stroke:#A80036;stroke-width:1.0;stroke-dasharray:3.0,3.0;"/><path d="M2378.5,96 L2391.5,96 C2418.6526,96 2449.8316,96 2470.7078,96 " fill="none" style="stroke:#A80036;stroke-width:1.0;stroke-dasharray:3.0,3.0;"/><path d="M2470.7078,99.0942 L2473.0284,96 L2470.7078,92.9058 L2478.4432,96 L2470.7078,99.0942 " fill="#A80036" style="stroke:#A80036;stroke-width:1.0;"/><ellipse cx="2378.5" cy="96" fill="#A80036" rx="3" ry="3" style="stroke:#A80036;stroke-width:1.0;stroke-dasharray:3.0,3.0;"/><path d="M1648,254 L1661,254 C1755.0081,254 1738.0934,158.3535 1823,118 C1837.1787,111.2613 1852.0699,105.2921 1867.334,100.0045 " fill="none" style="stroke:#A80036;stroke-width:1.0;stroke-dasharray:3.0,3.0;"/><path d="M1868.3506,103.0132 L1869.5906,99.2421 L1866.3175,96.9958 L1874.8558,97.4631 L1868.3506,103.0132 " fill="#A80036" style="stroke:#A80036;stroke-width:1.0;"/><ellipse cx="1648" cy="254" fill="#A80036" rx="3" ry="3" style="stroke:#A80036;stroke-width:1.0;stroke-dasharray:3.0,3.0;"/><path d="M1648,274 L1661,274 C1740.7193,274 1746.5261,219.5146 1823,197 C1837.8039,192.6416 1853.1466,188.7578 1868.7232,185.2969 " fill="none" style="stroke:#A80036;stroke-width:1.0;stroke-dasharray:3.0,3.0;"/><path d="M1869.3893,188.3626 L1871.0225,184.7974 L1868.0571,182.2313 L1876.3874,183.6317 L1869.3893,188.3626 " fill="#A80036" style="stroke:#A80036;stroke-width:1.0;"/><ellipse cx="1648" cy="274" fill="#A80036" rx="3" ry="3" style="stroke:#A80036;stroke-width:1.0;stroke-dasharray:3.0,3.0;"/><path d="M1648,295 L1661,295 C1667.2871,295 1774.7657,281.5581 1885.4032,267.5063 " fill="none" style="stroke:#A80036;stroke-width:1.0;stroke-dasharray:3.0,3.0;"/><path d="M1885.791,270.5584 L1887.6923,267.2155 L1885.0155,264.4543 L1893.0334,266.5369 L1885.791,270.5584 " fill="#A80036" style="stroke:#A80036;stroke-width:1.0;"/><ellipse cx="1648" cy="295" fill="#A80036" rx="3" ry="3" style="stroke:#A80036;stroke-width:1.0;stroke-dasharray:3.0,3.0;"/><path d="M1648,315 L1661,315 C1731.6355,315 1808.2361,315 1878.7121,315 " fill="none" style="stroke:#A80036;stroke-width:1.0;stroke-dasharray:3.0,3.0;"/><path d="M1878.7121,318.0716 L1881.0158,315 L1878.7121,311.9284 L1886.391,315 L1878.7121,318.0716 " fill="#A80036" style="stroke:#A80036;stroke-width:1.0;"/><ellipse cx="1648" cy="315" fill="#A80036" rx="3" ry="3" style="stroke:#A80036;stroke-width:1.0;stroke-dasharray:3.0,3.0;"/><path d="M1648,336 L1661,336 C1669.1848,336 1848.9608,358.4068 1983.8609,375.3665 " fill="none" style="stroke:#A80036;stroke-width:1.0;stroke-dasharray:3.0,3.0;"/><path d="M1983.4785,378.4071 L1986.1413,375.6533 L1984.2432,372.326 L1991.4624,376.3224 L1983.4785,378.4071 " fill="#A80036" style="stroke:#A80036;stroke-width:1.0;"/><ellipse cx="1648" cy="336" fill="#A80036" rx="3" ry="3" style="stroke:#A80036;stroke-width:1.0;stroke-dasharray:3.0,3.0;"/><path d="M1648,357 L1661,357 C1719.7541,357 1737.0106,366.1275 1787,397 C1806.5211,409.0559 1802.4659,423.7643 1823,434 C1850.5087,447.7123 1881.0408,457.2543 1911.8908,463.8027 " fill="none" style="stroke:#A80036;stroke-width:1.0;stroke-dasharray:3.0,3.0;"/><path d="M1911.2837,466.7725 L1914.1182,464.2581 L1912.498,460.833 L1919.3152,465.3206 L1911.2837,466.7725 " fill="#A80036" style="stroke:#A80036;stroke-width:1.0;"/><ellipse cx="1648" cy="357" fill="#A80036" rx="3" ry="3" style="stroke:#A80036;stroke-width:1.0;stroke-dasharray:3.0,3.0;"/><path d="M1648,377 L1661,377 C1717.7011,377 1744.1351,359.8838 1787,397 C1827.8087,432.3358 1783.1481,476.5884 1823,513 C1824.2731,514.1632 1825.5615,515.3077 1826.8647,516.4339 " fill="none" style="stroke:#A80036;stroke-width:1.0;stroke-dasharray:3.0,3.0;"/><path d="M1824.9362,518.7567 L1828.6068,517.8803 L1828.7932,514.1111 L1832.6716,521.2552 L1824.9362,518.7567 " fill="#A80036" style="stroke:#A80036;stroke-width:1.0;"/><ellipse cx="1648" cy="377" fill="#A80036" rx="3" ry="3" style="stroke:#A80036;stroke-width:1.0;stroke-dasharray:3.0,3.0;"/><path d="M1304,373 L1317,373 C1369.3702,373 1426.3874,361.144 1472.9199,348.2464 " fill="none" style="stroke:#A80036;stroke-width:1.0;stroke-dasharray:3.0,3.0;"/><path d="M1473.7508,351.1967 L1475.1327,347.6232 L1472.089,345.296 L1480.2957,346.1691 L1473.7508,351.1967 " fill="#A80036" style="stroke:#A80036;stroke-width:1.0;"/><ellipse cx="1304" cy="373" fill="#A80036" rx="3" ry="3" style="stroke:#A80036;stroke-width:1.0;stroke-dasharray:3.0,3.0;"/><path d="M1304,399 L1317,399 C1339.4829,399 1362.8132,401.2196 1385.7989,404.7904 " fill="none" style="stroke:#A80036;stroke-width:1.0;stroke-dasharray:3.0,3.0;"/><path d="M1385.3166,407.7701 L1388.0337,405.1521 L1386.2812,401.8107 L1393.2482,405.9962 L1385.3166,407.7701 " fill="#A80036" style="stroke:#A80036;stroke-width:1.0;"/><ellipse cx="1304" cy="399" fill="#A80036" rx="3" ry="3" style="stroke:#A80036;stroke-width:1.0;stroke-dasharray:3.0,3.0;"/><path d="M480,373 L493,373 C573.2659,373 660.2616,373 740.4452,373 " fill="none" style="stroke:#A80036;stroke-width:1.0;stroke-dasharray:3.0,3.0;"/><path d="M740.4452,376.0952 L742.7666,373 L740.4452,369.9048 L748.1831,373 L740.4452,376.0952 " fill="#A80036" style="stroke:#A80036;stroke-width:1.0;"/><ellipse cx="480" cy="373" fill="#A80036" rx="3" ry="3" style="stroke:#A80036;stroke-width:1.0;stroke-dasharray:3.0,3.0;"/><path d="M95,349 L108,349 C124.1536,349 127.9312,352.3468 144,354 C216.3112,361.4395 299.3303,366.617 356.6627,369.6675 " fill="none" style="stroke:#A80036;stroke-width:1.0;stroke-dasharray:3.0,3.0;"/><path d="M356.5035,372.6929 L358.9318,369.7869 L356.8219,366.642 L364.2264,370.0655 L356.5035,372.6929 " fill="#A80036" style="stroke:#A80036;stroke-width:1.0;"/><ellipse cx="95" cy="349" fill="#A80036" rx="3" ry="3" style="stroke:#A80036;stroke-width:1.0;stroke-dasharray:3.0,3.0;"/><!--MD5=[18a31070909291c11a25e37b9c36c2aa]
@startjson
{
  "info": {
    "copyright": "copyright 2019 Open Connectivity Foundation, Inc. All rights reserved.",
    "license": "https://github.com/one-data-model/oneDM/blob/master/LICENSE",
    "title": "Circuit Breaker (IEC 61850)",
    "version": "2019-06-13"
  },
  "sdfObject": {
    "circuitbreaker": {
      "description": "This Resource describes functions for the control and monitoring of\\nIEC 61850 based circuit breaker.",
      "sdfProperty": {
        "status": {
          "description": "The circuit breaker status. The status can only be reset out of\\nbounds.",
          "writable": false,
          "type": "string",
          "enum": [
            "on",
            "off",
            "trip"
          ]
        },
        "ratedcurrent": {
          "description": "The rated current in Ampere, defined at manufacturing time.",
          "writable": false,
          "type": "number"
        },
        "ratedbreakingcurrent": {
          "description": "The rated breaking current in Ampere, defined at manufacturing time.",
          "writable": false,
          "type": "number"
        },
        "ratedvoltage": {
          "description": "The rated voltage in Volts, defined at manufacturing time.",
          "writable": false,
          "type": "number"
        },
        "leakagecurrent": {
          "description": "The leakage current in mA.",
          "writable": false,
          "type": "number"
        },
        "insulationresistance": {
          "description": "Insulation resistance of circuit breaker (M Ohm).",
          "writable": false,
          "type": "number"
        },
        "timestamp": {
          "description": "An RFC3339 formatted time indicating when the data was observed\\n(e.g.: 2016-02-15T09:19Z, 1996-12-19T16:39:57-08:00). Note that 1/100\\ntime resolution should be used.",
          "format": "date-time",
          "writable": false,
          "type": "string"
        }
      },
      "sdfRequired": [
        "#/sdfObject/circuitbreaker/sdfProperty/status",
        "#/sdfObject/circuitbreaker/sdfProperty/ratedcurrent",
        "#/sdfObject/circuitbreaker/sdfProperty/ratedbreakingcurrent",
        "#/sdfObject/circuitbreaker/sdfProperty/ratedvoltage",
        "#/sdfObject/circuitbreaker/sdfProperty/timestamp"
      ]
    }
  }
}
@endjson

PlantUML version 1.2021.2(Sun Mar 07 13:10:27 EET 2021)
(GPL source distribution)
Java Runtime: OpenJDK Runtime Environment
JVM: OpenJDK 64-Bit Server VM
Default Encoding: UTF-8
Language: en
Country: FI
--></g></svg>