<?xml version="1.0" encoding="UTF-8" standalone="no"?><svg xmlns="http://www.w3.org/2000/svg" xmlns:xlink="http://www.w3.org/1999/xlink" contentScriptType="application/ecmascript" contentStyleType="text/css" height="1068px" preserveAspectRatio="none" style="width:2514px;height:1068px;" version="1.1" viewBox="0 0 2514 1068" width="2514px" zoomAndPan="magnify"><defs/><g><rect fill="#FEFECE" height="40.9766" rx="5" ry="5" style="stroke:#FEFECE;stroke-width:1.5;" width="97" x="10" y="478.5"/><text fill="#000000" font-family="sans-serif" font-size="14" lengthAdjust="spacing" textLength="27" x="15" y="494.0352">info</text><text fill="#000000" font-family="sans-serif" font-size="14" lengthAdjust="spacing" textLength="0" x="102" y="494.0352"/><line style="stroke:#A80036;stroke-width:1.0;" x1="85" x2="85" y1="478.5" y2="498.9883"/><line style="stroke:#A80036;stroke-width:1.0;" x1="10" x2="107" y1="498.9883" y2="498.9883"/><text fill="#000000" font-family="sans-serif" font-size="14" lengthAdjust="spacing" textLength="65" x="15" y="514.5234">sdfObject</text><text fill="#000000" font-family="sans-serif" font-size="14" lengthAdjust="spacing" textLength="0" x="102" y="514.5234"/><line style="stroke:#A80036;stroke-width:1.0;" x1="85" x2="85" y1="498.9883" y2="519.4766"/><rect fill="none" height="40.9766" rx="5" ry="5" style="stroke:#A80036;stroke-width:1.5;" width="97" x="10" y="478.5"/><rect fill="#FEFECE" height="81.9531" rx="5" ry="5" style="stroke:#FEFECE;stroke-width:1.5;" width="614" x="144" y="423"/><text fill="#000000" font-family="sans-serif" font-size="14" lengthAdjust="spacing" textLength="65" x="149" y="438.5352">copyright</text><text fill="#000000" font-family="sans-serif" font-size="14" lengthAdjust="spacing" textLength="529" x="224" y="438.5352">Copyright 2018-2019 Open Connectivity Foundation, Inc. All rights reserved.</text><line style="stroke:#A80036;stroke-width:1.0;" x1="219" x2="219" y1="423" y2="443.4883"/><line style="stroke:#A80036;stroke-width:1.0;" x1="144" x2="758" y1="443.4883" y2="443.4883"/><text fill="#000000" font-family="sans-serif" font-size="14" lengthAdjust="spacing" textLength="47" x="149" y="459.0234">license</text><text fill="#000000" font-family="sans-serif" font-size="14" lengthAdjust="spacing" textLength="462" x="224" y="459.0234">https://github.com/one-data-model/oneDM/blob/master/LICENSE</text><line style="stroke:#A80036;stroke-width:1.0;" x1="219" x2="219" y1="443.4883" y2="463.9766"/><line style="stroke:#A80036;stroke-width:1.0;" x1="144" x2="758" y1="463.9766" y2="463.9766"/><text fill="#000000" font-family="sans-serif" font-size="14" lengthAdjust="spacing" textLength="26" x="149" y="479.5117">title</text><text fill="#000000" font-family="sans-serif" font-size="14" lengthAdjust="spacing" textLength="325" x="224" y="479.5117">Threshold for Continuous Glucose Meter (CGM)</text><line style="stroke:#A80036;stroke-width:1.0;" x1="219" x2="219" y1="463.9766" y2="484.4648"/><line style="stroke:#A80036;stroke-width:1.0;" x1="144" x2="758" y1="484.4648" y2="484.4648"/><text fill="#000000" font-family="sans-serif" font-size="14" lengthAdjust="spacing" textLength="50" x="149" y="500">version</text><text fill="#000000" font-family="sans-serif" font-size="14" lengthAdjust="spacing" textLength="88" x="224" y="500">2019-03-04</text><line style="stroke:#A80036;stroke-width:1.0;" x1="219" x2="219" y1="484.4648" y2="504.9531"/><rect fill="none" height="81.9531" rx="5" ry="5" style="stroke:#A80036;stroke-width:1.5;" width="614" x="144" y="423"/><rect fill="#FEFECE" height="20.4883" rx="5" ry="5" style="stroke:#FEFECE;stroke-width:1.5;" width="131" x="385.5" y="523"/><text fill="#000000" font-family="sans-serif" font-size="14" lengthAdjust="spacing" textLength="99" x="390.5" y="538.5352">cgm.threshold</text><text fill="#000000" font-family="sans-serif" font-size="14" lengthAdjust="spacing" textLength="0" x="511.5" y="538.5352"/><line style="stroke:#A80036;stroke-width:1.0;" x1="494.5" x2="494.5" y1="523" y2="543.4883"/><rect fill="none" height="20.4883" rx="5" ry="5" style="stroke:#A80036;stroke-width:1.5;" width="131" x="385.5" y="523"/><rect fill="#FEFECE" height="77.9531" rx="5" ry="5" style="stroke:#FEFECE;stroke-width:1.5;" width="575" x="795" y="494"/><text fill="#000000" font-family="sans-serif" font-size="14" lengthAdjust="spacing" textLength="77" x="800" y="509.5352">description</text><text fill="#000000" font-family="sans-serif" font-size="14" lengthAdjust="spacing" textLength="472" x="893" y="509.5352">This Resource describes the Properties associated with Threshold for</text><text fill="#000000" font-family="sans-serif" font-size="14" lengthAdjust="spacing" textLength="231" x="893" y="526.0234">Continuous Glucose Meter (CGM).</text><line style="stroke:#A80036;stroke-width:1.0;" x1="888" x2="888" y1="494" y2="530.9766"/><line style="stroke:#A80036;stroke-width:1.0;" x1="795" x2="1370" y1="530.9766" y2="530.9766"/><text fill="#000000" font-family="sans-serif" font-size="14" lengthAdjust="spacing" textLength="79" x="800" y="546.5117">sdfProperty</text><text fill="#000000" font-family="sans-serif" font-size="14" lengthAdjust="spacing" textLength="0" x="905" y="546.5117"/><line style="stroke:#A80036;stroke-width:1.0;" x1="888" x2="888" y1="530.9766" y2="551.4648"/><line style="stroke:#A80036;stroke-width:1.0;" x1="795" x2="1370" y1="551.4648" y2="551.4648"/><text fill="#000000" font-family="sans-serif" font-size="14" lengthAdjust="spacing" textLength="83" x="800" y="567">sdfRequired</text><text fill="#000000" font-family="sans-serif" font-size="14" lengthAdjust="spacing" textLength="0" x="905" y="567"/><line style="stroke:#A80036;stroke-width:1.0;" x1="888" x2="888" y1="551.4648" y2="571.9531"/><rect fill="none" height="77.9531" rx="5" ry="5" style="stroke:#A80036;stroke-width:1.5;" width="575" x="795" y="494"/><rect fill="#FEFECE" height="184.3945" rx="5" ry="5" style="stroke:#FEFECE;stroke-width:1.5;" width="95" x="1528.5" y="368"/><text fill="#000000" font-family="sans-serif" font-size="14" lengthAdjust="spacing" textLength="33" x="1533.5" y="383.5352">plow</text><text fill="#000000" font-family="sans-serif" font-size="14" lengthAdjust="spacing" textLength="0" x="1618.5" y="383.5352"/><line style="stroke:#A80036;stroke-width:1.0;" x1="1601.5" x2="1601.5" y1="368" y2="388.4883"/><line style="stroke:#A80036;stroke-width:1.0;" x1="1528.5" x2="1623.5" y1="388.4883" y2="388.4883"/><text fill="#000000" font-family="sans-serif" font-size="14" lengthAdjust="spacing" textLength="40" x="1533.5" y="404.0234">phigh</text><text fill="#000000" font-family="sans-serif" font-size="14" lengthAdjust="spacing" textLength="0" x="1618.5" y="404.0234"/><line style="stroke:#A80036;stroke-width:1.0;" x1="1601.5" x2="1601.5" y1="388.4883" y2="408.9766"/><line style="stroke:#A80036;stroke-width:1.0;" x1="1528.5" x2="1623.5" y1="408.9766" y2="408.9766"/><text fill="#000000" font-family="sans-serif" font-size="14" lengthAdjust="spacing" textLength="43" x="1533.5" y="424.5117">dhypo</text><text fill="#000000" font-family="sans-serif" font-size="14" lengthAdjust="spacing" textLength="0" x="1618.5" y="424.5117"/><line style="stroke:#A80036;stroke-width:1.0;" x1="1601.5" x2="1601.5" y1="408.9766" y2="429.4648"/><line style="stroke:#A80036;stroke-width:1.0;" x1="1528.5" x2="1623.5" y1="429.4648" y2="429.4648"/><text fill="#000000" font-family="sans-serif" font-size="14" lengthAdjust="spacing" textLength="48" x="1533.5" y="445">dhyper</text><text fill="#000000" font-family="sans-serif" font-size="14" lengthAdjust="spacing" textLength="0" x="1618.5" y="445"/><line style="stroke:#A80036;stroke-width:1.0;" x1="1601.5" x2="1601.5" y1="429.4648" y2="449.9531"/><line style="stroke:#A80036;stroke-width:1.0;" x1="1528.5" x2="1623.5" y1="449.9531" y2="449.9531"/><text fill="#000000" font-family="sans-serif" font-size="14" lengthAdjust="spacing" textLength="19" x="1533.5" y="465.4883">gir</text><text fill="#000000" font-family="sans-serif" font-size="14" lengthAdjust="spacing" textLength="0" x="1618.5" y="465.4883"/><line style="stroke:#A80036;stroke-width:1.0;" x1="1601.5" x2="1601.5" y1="449.9531" y2="470.4414"/><line style="stroke:#A80036;stroke-width:1.0;" x1="1528.5" x2="1623.5" y1="470.4414" y2="470.4414"/><text fill="#000000" font-family="sans-serif" font-size="14" lengthAdjust="spacing" textLength="24" x="1533.5" y="485.9766">gdr</text><text fill="#000000" font-family="sans-serif" font-size="14" lengthAdjust="spacing" textLength="0" x="1618.5" y="485.9766"/><line style="stroke:#A80036;stroke-width:1.0;" x1="1601.5" x2="1601.5" y1="470.4414" y2="490.9297"/><line style="stroke:#A80036;stroke-width:1.0;" x1="1528.5" x2="1623.5" y1="490.9297" y2="490.9297"/><text fill="#000000" font-family="sans-serif" font-size="14" lengthAdjust="spacing" textLength="40" x="1533.5" y="506.4648">range</text><text fill="#000000" font-family="sans-serif" font-size="14" lengthAdjust="spacing" textLength="0" x="1618.5" y="506.4648"/><line style="stroke:#A80036;stroke-width:1.0;" x1="1601.5" x2="1601.5" y1="490.9297" y2="511.418"/><line style="stroke:#A80036;stroke-width:1.0;" x1="1528.5" x2="1623.5" y1="511.418" y2="511.418"/><text fill="#000000" font-family="sans-serif" font-size="14" lengthAdjust="spacing" textLength="29" x="1533.5" y="526.9531">step</text><text fill="#000000" font-family="sans-serif" font-size="14" lengthAdjust="spacing" textLength="0" x="1618.5" y="526.9531"/><line style="stroke:#A80036;stroke-width:1.0;" x1="1601.5" x2="1601.5" y1="511.418" y2="531.9063"/><line style="stroke:#A80036;stroke-width:1.0;" x1="1528.5" x2="1623.5" y1="531.9063" y2="531.9063"/><text fill="#000000" font-family="sans-serif" font-size="14" lengthAdjust="spacing" textLength="63" x="1533.5" y="547.4414">precision</text><text fill="#000000" font-family="sans-serif" font-size="14" lengthAdjust="spacing" textLength="0" x="1618.5" y="547.4414"/><line style="stroke:#A80036;stroke-width:1.0;" x1="1601.5" x2="1601.5" y1="531.9063" y2="552.3945"/><rect fill="none" height="184.3945" rx="5" ry="5" style="stroke:#A80036;stroke-width:1.5;" width="95" x="1528.5" y="368"/><rect fill="#FEFECE" height="81.9531" rx="5" ry="5" style="stroke:#FEFECE;stroke-width:1.5;" width="491" x="1826.5" y="10"/><text fill="#000000" font-family="sans-serif" font-size="14" lengthAdjust="spacing" textLength="77" x="1831.5" y="25.5352">description</text><text fill="#000000" font-family="sans-serif" font-size="14" lengthAdjust="spacing" textLength="394" x="1918.5" y="25.5352">This Property describes the Patient low threshold (mg/dL)</text><line style="stroke:#A80036;stroke-width:1.0;" x1="1913.5" x2="1913.5" y1="10" y2="30.4883"/><line style="stroke:#A80036;stroke-width:1.0;" x1="1826.5" x2="2317.5" y1="30.4883" y2="30.4883"/><text fill="#000000" font-family="sans-serif" font-size="14" lengthAdjust="spacing" textLength="29" x="1831.5" y="46.0234">type</text><text fill="#000000" font-family="sans-serif" font-size="14" lengthAdjust="spacing" textLength="54" x="1918.5" y="46.0234">number</text><line style="stroke:#A80036;stroke-width:1.0;" x1="1913.5" x2="1913.5" y1="30.4883" y2="50.9766"/><line style="stroke:#A80036;stroke-width:1.0;" x1="1826.5" x2="2317.5" y1="50.9766" y2="50.9766"/><text fill="#000000" font-family="sans-serif" font-size="14" lengthAdjust="spacing" textLength="65" x="1831.5" y="66.5117">minimum</text><text fill="#000000" font-family="sans-serif" font-size="14" lengthAdjust="spacing" textLength="9" x="1918.5" y="66.5117">0</text><line style="stroke:#A80036;stroke-width:1.0;" x1="1913.5" x2="1913.5" y1="50.9766" y2="71.4648"/><line style="stroke:#A80036;stroke-width:1.0;" x1="1826.5" x2="2317.5" y1="71.4648" y2="71.4648"/><text fill="#000000" font-family="sans-serif" font-size="14" lengthAdjust="spacing" textLength="55" x="1831.5" y="87">writable</text><text fill="#000000" font-family="sans-serif" font-size="14" lengthAdjust="spacing" textLength="44" x="1918.5" y="87">☑ true</text><line style="stroke:#A80036;stroke-width:1.0;" x1="1913.5" x2="1913.5" y1="71.4648" y2="91.9531"/><rect fill="none" height="81.9531" rx="5" ry="5" style="stroke:#A80036;stroke-width:1.5;" width="491" x="1826.5" y="10"/><rect fill="#FEFECE" height="81.9531" rx="5" ry="5" style="stroke:#FEFECE;stroke-width:1.5;" width="498" x="1823" y="110"/><text fill="#000000" font-family="sans-serif" font-size="14" lengthAdjust="spacing" textLength="77" x="1828" y="125.5352">description</text><text fill="#000000" font-family="sans-serif" font-size="14" lengthAdjust="spacing" textLength="401" x="1915" y="125.5352">This Property describes the Patient high threshold (mg/dL)</text><line style="stroke:#A80036;stroke-width:1.0;" x1="1910" x2="1910" y1="110" y2="130.4883"/><line style="stroke:#A80036;stroke-width:1.0;" x1="1823" x2="2321" y1="130.4883" y2="130.4883"/><text fill="#000000" font-family="sans-serif" font-size="14" lengthAdjust="spacing" textLength="29" x="1828" y="146.0234">type</text><text fill="#000000" font-family="sans-serif" font-size="14" lengthAdjust="spacing" textLength="54" x="1915" y="146.0234">number</text><line style="stroke:#A80036;stroke-width:1.0;" x1="1910" x2="1910" y1="130.4883" y2="150.9766"/><line style="stroke:#A80036;stroke-width:1.0;" x1="1823" x2="2321" y1="150.9766" y2="150.9766"/><text fill="#000000" font-family="sans-serif" font-size="14" lengthAdjust="spacing" textLength="65" x="1828" y="166.5117">minimum</text><text fill="#000000" font-family="sans-serif" font-size="14" lengthAdjust="spacing" textLength="9" x="1915" y="166.5117">0</text><line style="stroke:#A80036;stroke-width:1.0;" x1="1910" x2="1910" y1="150.9766" y2="171.4648"/><line style="stroke:#A80036;stroke-width:1.0;" x1="1823" x2="2321" y1="171.4648" y2="171.4648"/><text fill="#000000" font-family="sans-serif" font-size="14" lengthAdjust="spacing" textLength="55" x="1828" y="187">writable</text><text fill="#000000" font-family="sans-serif" font-size="14" lengthAdjust="spacing" textLength="44" x="1915" y="187">☑ true</text><line style="stroke:#A80036;stroke-width:1.0;" x1="1910" x2="1910" y1="171.4648" y2="191.9531"/><rect fill="none" height="81.9531" rx="5" ry="5" style="stroke:#A80036;stroke-width:1.5;" width="498" x="1823" y="110"/><rect fill="#FEFECE" height="81.9531" rx="5" ry="5" style="stroke:#FEFECE;stroke-width:1.5;" width="558" x="1793" y="210"/><text fill="#000000" font-family="sans-serif" font-size="14" lengthAdjust="spacing" textLength="77" x="1798" y="225.5352">description</text><text fill="#000000" font-family="sans-serif" font-size="14" lengthAdjust="spacing" textLength="461" x="1885" y="225.5352">This Property describes the Device hypoglycemia threshold (mg/dL)</text><line style="stroke:#A80036;stroke-width:1.0;" x1="1880" x2="1880" y1="210" y2="230.4883"/><line style="stroke:#A80036;stroke-width:1.0;" x1="1793" x2="2351" y1="230.4883" y2="230.4883"/><text fill="#000000" font-family="sans-serif" font-size="14" lengthAdjust="spacing" textLength="29" x="1798" y="246.0234">type</text><text fill="#000000" font-family="sans-serif" font-size="14" lengthAdjust="spacing" textLength="54" x="1885" y="246.0234">number</text><line style="stroke:#A80036;stroke-width:1.0;" x1="1880" x2="1880" y1="230.4883" y2="250.9766"/><line style="stroke:#A80036;stroke-width:1.0;" x1="1793" x2="2351" y1="250.9766" y2="250.9766"/><text fill="#000000" font-family="sans-serif" font-size="14" lengthAdjust="spacing" textLength="65" x="1798" y="266.5117">minimum</text><text fill="#000000" font-family="sans-serif" font-size="14" lengthAdjust="spacing" textLength="9" x="1885" y="266.5117">0</text><line style="stroke:#A80036;stroke-width:1.0;" x1="1880" x2="1880" y1="250.9766" y2="271.4648"/><line style="stroke:#A80036;stroke-width:1.0;" x1="1793" x2="2351" y1="271.4648" y2="271.4648"/><text fill="#000000" font-family="sans-serif" font-size="14" lengthAdjust="spacing" textLength="55" x="1798" y="287">writable</text><text fill="#000000" font-family="sans-serif" font-size="14" lengthAdjust="spacing" textLength="44" x="1885" y="287">☑ true</text><line style="stroke:#A80036;stroke-width:1.0;" x1="1880" x2="1880" y1="271.4648" y2="291.9531"/><rect fill="none" height="81.9531" rx="5" ry="5" style="stroke:#A80036;stroke-width:1.5;" width="558" x="1793" y="210"/><rect fill="#FEFECE" height="81.9531" rx="5" ry="5" style="stroke:#FEFECE;stroke-width:1.5;" width="563" x="1790.5" y="310"/><text fill="#000000" font-family="sans-serif" font-size="14" lengthAdjust="spacing" textLength="77" x="1795.5" y="325.5352">description</text><text fill="#000000" font-family="sans-serif" font-size="14" lengthAdjust="spacing" textLength="466" x="1882.5" y="325.5352">This Property describes the Device hyperglycemia threshold (mg/dL)</text><line style="stroke:#A80036;stroke-width:1.0;" x1="1877.5" x2="1877.5" y1="310" y2="330.4883"/><line style="stroke:#A80036;stroke-width:1.0;" x1="1790.5" x2="2353.5" y1="330.4883" y2="330.4883"/><text fill="#000000" font-family="sans-serif" font-size="14" lengthAdjust="spacing" textLength="29" x="1795.5" y="346.0234">type</text><text fill="#000000" font-family="sans-serif" font-size="14" lengthAdjust="spacing" textLength="54" x="1882.5" y="346.0234">number</text><line style="stroke:#A80036;stroke-width:1.0;" x1="1877.5" x2="1877.5" y1="330.4883" y2="350.9766"/><line style="stroke:#A80036;stroke-width:1.0;" x1="1790.5" x2="2353.5" y1="350.9766" y2="350.9766"/><text fill="#000000" font-family="sans-serif" font-size="14" lengthAdjust="spacing" textLength="65" x="1795.5" y="366.5117">minimum</text><text fill="#000000" font-family="sans-serif" font-size="14" lengthAdjust="spacing" textLength="9" x="1882.5" y="366.5117">0</text><line style="stroke:#A80036;stroke-width:1.0;" x1="1877.5" x2="1877.5" y1="350.9766" y2="371.4648"/><line style="stroke:#A80036;stroke-width:1.0;" x1="1790.5" x2="2353.5" y1="371.4648" y2="371.4648"/><text fill="#000000" font-family="sans-serif" font-size="14" lengthAdjust="spacing" textLength="55" x="1795.5" y="387">writable</text><text fill="#000000" font-family="sans-serif" font-size="14" lengthAdjust="spacing" textLength="44" x="1882.5" y="387">☑ true</text><line style="stroke:#A80036;stroke-width:1.0;" x1="1877.5" x2="1877.5" y1="371.4648" y2="391.9531"/><rect fill="none" height="81.9531" rx="5" ry="5" style="stroke:#A80036;stroke-width:1.5;" width="563" x="1790.5" y="310"/><rect fill="#FEFECE" height="98.4414" rx="5" ry="5" style="stroke:#FEFECE;stroke-width:1.5;" width="575" x="1784.5" y="410"/><text fill="#000000" font-family="sans-serif" font-size="14" lengthAdjust="spacing" textLength="77" x="1789.5" y="425.5352">description</text><text fill="#000000" font-family="sans-serif" font-size="14" lengthAdjust="spacing" textLength="478" x="1876.5" y="425.5352">This Property describes the Glucose Increase rate of change threshold</text><text fill="#000000" font-family="sans-serif" font-size="14" lengthAdjust="spacing" textLength="19" x="1876.5" y="442.0234">(%)</text><line style="stroke:#A80036;stroke-width:1.0;" x1="1871.5" x2="1871.5" y1="410" y2="446.9766"/><line style="stroke:#A80036;stroke-width:1.0;" x1="1784.5" x2="2359.5" y1="446.9766" y2="446.9766"/><text fill="#000000" font-family="sans-serif" font-size="14" lengthAdjust="spacing" textLength="29" x="1789.5" y="462.5117">type</text><text fill="#000000" font-family="sans-serif" font-size="14" lengthAdjust="spacing" textLength="54" x="1876.5" y="462.5117">number</text><line style="stroke:#A80036;stroke-width:1.0;" x1="1871.5" x2="1871.5" y1="446.9766" y2="467.4648"/><line style="stroke:#A80036;stroke-width:1.0;" x1="1784.5" x2="2359.5" y1="467.4648" y2="467.4648"/><text fill="#000000" font-family="sans-serif" font-size="14" lengthAdjust="spacing" textLength="65" x="1789.5" y="483">minimum</text><text fill="#000000" font-family="sans-serif" font-size="14" lengthAdjust="spacing" textLength="9" x="1876.5" y="483">0</text><line style="stroke:#A80036;stroke-width:1.0;" x1="1871.5" x2="1871.5" y1="467.4648" y2="487.9531"/><line style="stroke:#A80036;stroke-width:1.0;" x1="1784.5" x2="2359.5" y1="487.9531" y2="487.9531"/><text fill="#000000" font-family="sans-serif" font-size="14" lengthAdjust="spacing" textLength="55" x="1789.5" y="503.4883">writable</text><text fill="#000000" font-family="sans-serif" font-size="14" lengthAdjust="spacing" textLength="44" x="1876.5" y="503.4883">☑ true</text><line style="stroke:#A80036;stroke-width:1.0;" x1="1871.5" x2="1871.5" y1="487.9531" y2="508.4414"/><rect fill="none" height="98.4414" rx="5" ry="5" style="stroke:#A80036;stroke-width:1.5;" width="575" x="1784.5" y="410"/><rect fill="#FEFECE" height="98.4414" rx="5" ry="5" style="stroke:#FEFECE;stroke-width:1.5;" width="580" x="1782" y="526"/><text fill="#000000" font-family="sans-serif" font-size="14" lengthAdjust="spacing" textLength="77" x="1787" y="541.5352">description</text><text fill="#000000" font-family="sans-serif" font-size="14" lengthAdjust="spacing" textLength="483" x="1874" y="541.5352">This Property describes the Glucose Decrease rate of change threshold</text><text fill="#000000" font-family="sans-serif" font-size="14" lengthAdjust="spacing" textLength="19" x="1874" y="558.0234">(%)</text><line style="stroke:#A80036;stroke-width:1.0;" x1="1869" x2="1869" y1="526" y2="562.9766"/><line style="stroke:#A80036;stroke-width:1.0;" x1="1782" x2="2362" y1="562.9766" y2="562.9766"/><text fill="#000000" font-family="sans-serif" font-size="14" lengthAdjust="spacing" textLength="29" x="1787" y="578.5117">type</text><text fill="#000000" font-family="sans-serif" font-size="14" lengthAdjust="spacing" textLength="54" x="1874" y="578.5117">number</text><line style="stroke:#A80036;stroke-width:1.0;" x1="1869" x2="1869" y1="562.9766" y2="583.4648"/><line style="stroke:#A80036;stroke-width:1.0;" x1="1782" x2="2362" y1="583.4648" y2="583.4648"/><text fill="#000000" font-family="sans-serif" font-size="14" lengthAdjust="spacing" textLength="65" x="1787" y="599">minimum</text><text fill="#000000" font-family="sans-serif" font-size="14" lengthAdjust="spacing" textLength="9" x="1874" y="599">0</text><line style="stroke:#A80036;stroke-width:1.0;" x1="1869" x2="1869" y1="583.4648" y2="603.9531"/><line style="stroke:#A80036;stroke-width:1.0;" x1="1782" x2="2362" y1="603.9531" y2="603.9531"/><text fill="#000000" font-family="sans-serif" font-size="14" lengthAdjust="spacing" textLength="55" x="1787" y="619.4883">writable</text><text fill="#000000" font-family="sans-serif" font-size="14" lengthAdjust="spacing" textLength="44" x="1874" y="619.4883">☑ true</text><line style="stroke:#A80036;stroke-width:1.0;" x1="1869" x2="1869" y1="603.9531" y2="624.4414"/><rect fill="none" height="98.4414" rx="5" ry="5" style="stroke:#A80036;stroke-width:1.5;" width="580" x="1782" y="526"/><rect fill="#FEFECE" height="155.9063" rx="5" ry="5" style="stroke:#FEFECE;stroke-width:1.5;" width="548" x="1798" y="642"/><text fill="#000000" font-family="sans-serif" font-size="14" lengthAdjust="spacing" textLength="29" x="1803" y="657.5352">type</text><text fill="#000000" font-family="sans-serif" font-size="14" lengthAdjust="spacing" textLength="35" x="1890" y="657.5352">array</text><line style="stroke:#A80036;stroke-width:1.0;" x1="1885" x2="1885" y1="642" y2="662.4883"/><line style="stroke:#A80036;stroke-width:1.0;" x1="1798" x2="2346" y1="662.4883" y2="662.4883"/><text fill="#000000" font-family="sans-serif" font-size="14" lengthAdjust="spacing" textLength="77" x="1803" y="678.0234">description</text><text fill="#000000" font-family="sans-serif" font-size="14" lengthAdjust="spacing" textLength="451" x="1890" y="678.0234">The valid range for the Property in the Resource as a number. The</text><text fill="#000000" font-family="sans-serif" font-size="14" lengthAdjust="spacing" textLength="439" x="1890" y="694.5117">first value in the array is the minimum value, the second value in</text><text fill="#000000" font-family="sans-serif" font-size="14" lengthAdjust="spacing" textLength="219" x="1890" y="711">the array is the maximum value.</text><line style="stroke:#A80036;stroke-width:1.0;" x1="1885" x2="1885" y1="662.4883" y2="715.9531"/><line style="stroke:#A80036;stroke-width:1.0;" x1="1798" x2="2346" y1="715.9531" y2="715.9531"/><text fill="#000000" font-family="sans-serif" font-size="14" lengthAdjust="spacing" textLength="55" x="1803" y="731.4883">writable</text><text fill="#000000" font-family="sans-serif" font-size="14" lengthAdjust="spacing" textLength="48" x="1890" y="731.4883">☐ false</text><line style="stroke:#A80036;stroke-width:1.0;" x1="1885" x2="1885" y1="715.9531" y2="736.4414"/><line style="stroke:#A80036;stroke-width:1.0;" x1="1798" x2="2346" y1="736.4414" y2="736.4414"/><text fill="#000000" font-family="sans-serif" font-size="14" lengthAdjust="spacing" textLength="63" x="1803" y="751.9766">minItems</text><text fill="#000000" font-family="sans-serif" font-size="14" lengthAdjust="spacing" textLength="9" x="1890" y="751.9766">2</text><line style="stroke:#A80036;stroke-width:1.0;" x1="1885" x2="1885" y1="736.4414" y2="756.9297"/><line style="stroke:#A80036;stroke-width:1.0;" x1="1798" x2="2346" y1="756.9297" y2="756.9297"/><text fill="#000000" font-family="sans-serif" font-size="14" lengthAdjust="spacing" textLength="67" x="1803" y="772.4648">maxItems</text><text fill="#000000" font-family="sans-serif" font-size="14" lengthAdjust="spacing" textLength="9" x="1890" y="772.4648">2</text><line style="stroke:#A80036;stroke-width:1.0;" x1="1885" x2="1885" y1="756.9297" y2="777.418"/><line style="stroke:#A80036;stroke-width:1.0;" x1="1798" x2="2346" y1="777.418" y2="777.418"/><text fill="#000000" font-family="sans-serif" font-size="14" lengthAdjust="spacing" textLength="37" x="1803" y="792.9531">items</text><text fill="#000000" font-family="sans-serif" font-size="14" lengthAdjust="spacing" textLength="0" x="1902" y="792.9531"/><line style="stroke:#A80036;stroke-width:1.0;" x1="1885" x2="1885" y1="777.418" y2="797.9063"/><rect fill="none" height="155.9063" rx="5" ry="5" style="stroke:#A80036;stroke-width:1.5;" width="548" x="1798" y="642"/><rect fill="#FEFECE" height="20.4883" rx="5" ry="5" style="stroke:#FEFECE;stroke-width:1.5;" width="103" x="2399" y="775"/><text fill="#000000" font-family="sans-serif" font-size="14" lengthAdjust="spacing" textLength="29" x="2404" y="790.5352">type</text><text fill="#000000" font-family="sans-serif" font-size="14" lengthAdjust="spacing" textLength="54" x="2443" y="790.5352">number</text><line style="stroke:#A80036;stroke-width:1.0;" x1="2438" x2="2438" y1="775" y2="795.4883"/><rect fill="none" height="20.4883" rx="5" ry="5" style="stroke:#A80036;stroke-width:1.5;" width="103" x="2399" y="775"/><rect fill="#FEFECE" height="110.9297" rx="5" ry="5" style="stroke:#FEFECE;stroke-width:1.5;" width="555" x="1794.5" y="816.5"/><text fill="#000000" font-family="sans-serif" font-size="14" lengthAdjust="spacing" textLength="77" x="1799.5" y="832.0352">description</text><text fill="#000000" font-family="sans-serif" font-size="14" lengthAdjust="spacing" textLength="456" x="1886.5" y="832.0352">Step value across the defined range an integer when the range is a</text><text fill="#000000" font-family="sans-serif" font-size="14" lengthAdjust="spacing" textLength="458" x="1886.5" y="848.5234">number.  This is the increment for valid values across the range; so</text><text fill="#000000" font-family="sans-serif" font-size="14" lengthAdjust="spacing" textLength="381" x="1886.5" y="865.0117">if range is 0.0..10.0 and step is 2.5 then valid values are</text><text fill="#000000" font-family="sans-serif" font-size="14" lengthAdjust="spacing" textLength="139" x="1886.5" y="881.5">0.0,2.5,5.0,7.5,10.0.</text><line style="stroke:#A80036;stroke-width:1.0;" x1="1881.5" x2="1881.5" y1="816.5" y2="886.4531"/><line style="stroke:#A80036;stroke-width:1.0;" x1="1794.5" x2="2349.5" y1="886.4531" y2="886.4531"/><text fill="#000000" font-family="sans-serif" font-size="14" lengthAdjust="spacing" textLength="55" x="1799.5" y="901.9883">writable</text><text fill="#000000" font-family="sans-serif" font-size="14" lengthAdjust="spacing" textLength="48" x="1886.5" y="901.9883">☐ false</text><line style="stroke:#A80036;stroke-width:1.0;" x1="1881.5" x2="1881.5" y1="886.4531" y2="906.9414"/><line style="stroke:#A80036;stroke-width:1.0;" x1="1794.5" x2="2349.5" y1="906.9414" y2="906.9414"/><text fill="#000000" font-family="sans-serif" font-size="14" lengthAdjust="spacing" textLength="29" x="1799.5" y="922.4766">type</text><text fill="#000000" font-family="sans-serif" font-size="14" lengthAdjust="spacing" textLength="54" x="1886.5" y="922.4766">number</text><line style="stroke:#A80036;stroke-width:1.0;" x1="1881.5" x2="1881.5" y1="906.9414" y2="927.4297"/><rect fill="none" height="110.9297" rx="5" ry="5" style="stroke:#A80036;stroke-width:1.5;" width="555" x="1794.5" y="816.5"/><rect fill="#FEFECE" height="110.9297" rx="5" ry="5" style="stroke:#FEFECE;stroke-width:1.5;" width="570" x="1787" y="945.5"/><text fill="#000000" font-family="sans-serif" font-size="14" lengthAdjust="spacing" textLength="29" x="1792" y="961.0352">type</text><text fill="#000000" font-family="sans-serif" font-size="14" lengthAdjust="spacing" textLength="54" x="1879" y="961.0352">number</text><line style="stroke:#A80036;stroke-width:1.0;" x1="1874" x2="1874" y1="945.5" y2="965.9883"/><line style="stroke:#A80036;stroke-width:1.0;" x1="1787" x2="2357" y1="965.9883" y2="965.9883"/><text fill="#000000" font-family="sans-serif" font-size="14" lengthAdjust="spacing" textLength="55" x="1792" y="981.5234">writable</text><text fill="#000000" font-family="sans-serif" font-size="14" lengthAdjust="spacing" textLength="48" x="1879" y="981.5234">☐ false</text><line style="stroke:#A80036;stroke-width:1.0;" x1="1874" x2="1874" y1="965.9883" y2="986.4766"/><line style="stroke:#A80036;stroke-width:1.0;" x1="1787" x2="2357" y1="986.4766" y2="986.4766"/><text fill="#000000" font-family="sans-serif" font-size="14" lengthAdjust="spacing" textLength="77" x="1792" y="1002.0117">description</text><text fill="#000000" font-family="sans-serif" font-size="14" lengthAdjust="spacing" textLength="430" x="1879" y="1002.0117">When exposed the value in 'precision' provides a +/- tolerance</text><text fill="#000000" font-family="sans-serif" font-size="14" lengthAdjust="spacing" textLength="473" x="1879" y="1018.5">against the Properties in the Resource. Thus if a Property is UPDATED</text><text fill="#000000" font-family="sans-serif" font-size="14" lengthAdjust="spacing" textLength="465" x="1879" y="1034.9883">to a value and that Property then RETRIEVED, the RETRIEVED value is</text><text fill="#000000" font-family="sans-serif" font-size="14" lengthAdjust="spacing" textLength="337" x="1879" y="1051.4766">valid if in the range of the set value +/- precision</text><line style="stroke:#A80036;stroke-width:1.0;" x1="1874" x2="1874" y1="986.4766" y2="1056.4297"/><rect fill="none" height="110.9297" rx="5" ry="5" style="stroke:#A80036;stroke-width:1.5;" width="570" x="1787" y="945.5"/><rect fill="#FEFECE" height="122.9297" rx="5" ry="5" style="stroke:#FEFECE;stroke-width:1.5;" width="338" x="1407" y="570.5"/><text fill="#000000" font-family="sans-serif" font-size="14" lengthAdjust="spacing" textLength="313" x="1412" y="586.0352">#/sdfObject/cgm.threshold/sdfProperty/plow</text><line style="stroke:#A80036;stroke-width:1.0;" x1="1407" x2="1745" y1="590.9883" y2="590.9883"/><text fill="#000000" font-family="sans-serif" font-size="14" lengthAdjust="spacing" textLength="320" x="1412" y="606.5234">#/sdfObject/cgm.threshold/sdfProperty/phigh</text><line style="stroke:#A80036;stroke-width:1.0;" x1="1407" x2="1745" y1="611.4766" y2="611.4766"/><text fill="#000000" font-family="sans-serif" font-size="14" lengthAdjust="spacing" textLength="323" x="1412" y="627.0117">#/sdfObject/cgm.threshold/sdfProperty/dhypo</text><line style="stroke:#A80036;stroke-width:1.0;" x1="1407" x2="1745" y1="631.9648" y2="631.9648"/><text fill="#000000" font-family="sans-serif" font-size="14" lengthAdjust="spacing" textLength="328" x="1412" y="647.5">#/sdfObject/cgm.threshold/sdfProperty/dhyper</text><line style="stroke:#A80036;stroke-width:1.0;" x1="1407" x2="1745" y1="652.4531" y2="652.4531"/><text fill="#000000" font-family="sans-serif" font-size="14" lengthAdjust="spacing" textLength="299" x="1412" y="667.9883">#/sdfObject/cgm.threshold/sdfProperty/gir</text><line style="stroke:#A80036;stroke-width:1.0;" x1="1407" x2="1745" y1="672.9414" y2="672.9414"/><text fill="#000000" font-family="sans-serif" font-size="14" lengthAdjust="spacing" textLength="304" x="1412" y="688.4766">#/sdfObject/cgm.threshold/sdfProperty/gdr</text><rect fill="none" height="122.9297" rx="5" ry="5" style="stroke:#A80036;stroke-width:1.5;" width="338" x="1407" y="570.5"/><path d="M95,488 L108,488 C117.4068,488 126.9554,487.9088 136.5926,487.7376 " fill="none" style="stroke:#A80036;stroke-width:1.0;stroke-dasharray:3.0,3.0;"/><path d="M136.6543,490.8363 L138.9166,487.6914 L136.5309,484.6389 L144.3394,487.5834 L136.6543,490.8363 " fill="#A80036" style="stroke:#A80036;stroke-width:1.0;"/><ellipse cx="95" cy="488" fill="#A80036" rx="3" ry="3" style="stroke:#A80036;stroke-width:1.0;stroke-dasharray:3.0,3.0;"/><path d="M1612.5,378 L1625.5,378 C1766.9013,378 1666.4073,182.441 1782,101 C1793.8058,92.6822 1806.5415,85.5928 1819.8571,79.5616 " fill="none" style="stroke:#A80036;stroke-width:1.0;stroke-dasharray:3.0,3.0;"/><path d="M1821.0804,82.3673 L1821.9613,78.6441 L1818.6337,76.7559 L1826.8712,76.5033 L1821.0804,82.3673 " fill="#A80036" style="stroke:#A80036;stroke-width:1.0;"/><ellipse cx="1612.5" cy="378" fill="#A80036" rx="3" ry="3" style="stroke:#A80036;stroke-width:1.0;stroke-dasharray:3.0,3.0;"/><path d="M1612.5,398 L1625.5,398 C1737.3211,398 1685.8179,258.0347 1782,201 C1792.9104,194.5303 1804.433,188.8457 1816.3461,183.8548 " fill="none" style="stroke:#A80036;stroke-width:1.0;stroke-dasharray:3.0,3.0;"/><path d="M1817.4897,186.6779 L1818.4634,182.9971 L1815.2024,181.0317 L1823.4037,180.9957 L1817.4897,186.6779 " fill="#A80036" style="stroke:#A80036;stroke-width:1.0;"/><ellipse cx="1612.5" cy="398" fill="#A80036" rx="3" ry="3" style="stroke:#A80036;stroke-width:1.0;stroke-dasharray:3.0,3.0;"/><path d="M1612.5,418 L1625.5,418 C1712.3445,418 1702.2322,335.3377 1782,301 C1787.0728,298.8163 1792.2344,296.7279 1797.4682,294.7306 " fill="none" style="stroke:#A80036;stroke-width:1.0;stroke-dasharray:3.0,3.0;"/><path d="M1798.5352,297.6027 L1799.6223,293.9304 L1796.4012,291.8585 L1804.6484,292.0631 L1798.5352,297.6027 " fill="#A80036" style="stroke:#A80036;stroke-width:1.0;"/><ellipse cx="1612.5" cy="418" fill="#A80036" rx="3" ry="3" style="stroke:#A80036;stroke-width:1.0;stroke-dasharray:3.0,3.0;"/><path d="M1612.5,439 L1625.5,439 C1697.0766,439 1711.9165,415.5435 1782,401 C1794.2111,398.466 1806.7305,395.9599 1819.388,393.4996 " fill="none" style="stroke:#A80036;stroke-width:1.0;stroke-dasharray:3.0,3.0;"/><path d="M1819.9653,396.4864 L1821.6282,393.0666 L1818.8107,390.5127 L1826.8552,392.0563 L1819.9653,396.4864 " fill="#A80036" style="stroke:#A80036;stroke-width:1.0;"/><ellipse cx="1612.5" cy="439" fill="#A80036" rx="3" ry="3" style="stroke:#A80036;stroke-width:1.0;stroke-dasharray:3.0,3.0;"/><path d="M1612.5,459 L1625.5,459 C1674.4771,459 1726.4795,459 1777.0223,459 " fill="none" style="stroke:#A80036;stroke-width:1.0;stroke-dasharray:3.0,3.0;"/><path d="M1777.0223,462.1087 L1779.3538,459 L1777.0223,455.8913 L1784.7939,459 L1777.0223,462.1087 " fill="#A80036" style="stroke:#A80036;stroke-width:1.0;"/><ellipse cx="1612.5" cy="459" fill="#A80036" rx="3" ry="3" style="stroke:#A80036;stroke-width:1.0;stroke-dasharray:3.0,3.0;"/><path d="M1612.5,480 L1625.5,480 C1696.973,480 1712.1717,501.7554 1782,517 C1793.1946,519.4439 1804.6414,521.9033 1816.2112,524.3568 " fill="none" style="stroke:#A80036;stroke-width:1.0;stroke-dasharray:3.0,3.0;"/><path d="M1815.5667,527.4045 L1818.497,524.8401 L1816.8557,521.309 L1823.8305,525.968 L1815.5667,527.4045 " fill="#A80036" style="stroke:#A80036;stroke-width:1.0;"/><ellipse cx="1612.5" cy="480" fill="#A80036" rx="3" ry="3" style="stroke:#A80036;stroke-width:1.0;stroke-dasharray:3.0,3.0;"/><path d="M2334.5,785 L2347.5,785 C2361.7639,785 2377.1444,785 2391.5438,785 " fill="none" style="stroke:#A80036;stroke-width:1.0;stroke-dasharray:3.0,3.0;"/><path d="M2391.5438,788.1542 L2393.9094,785 L2391.5438,781.8458 L2399.4292,785 L2391.5438,788.1542 " fill="#A80036" style="stroke:#A80036;stroke-width:1.0;"/><ellipse cx="2334.5" cy="785" fill="#A80036" rx="3" ry="3" style="stroke:#A80036;stroke-width:1.0;stroke-dasharray:3.0,3.0;"/><path d="M1612.5,501 L1625.5,501 C1685.5267,501 1703.5409,519.5685 1746,562 C1771.0257,587.0094 1754.8654,610.2961 1782,633 C1785.2703,635.7363 1788.6246,638.3866 1792.0544,640.9535 " fill="none" style="stroke:#A80036;stroke-width:1.0;stroke-dasharray:3.0,3.0;"/><path d="M1790.242,643.4547 L1793.9303,642.3128 L1793.8668,638.4523 L1798.3075,645.4845 L1790.242,643.4547 " fill="#A80036" style="stroke:#A80036;stroke-width:1.0;"/><ellipse cx="1612.5" cy="501" fill="#A80036" rx="3" ry="3" style="stroke:#A80036;stroke-width:1.0;stroke-dasharray:3.0,3.0;"/><path d="M1612.5,521 L1625.5,521 C1682.0707,521 1709.8005,518.5276 1746,562 C1816.4259,646.5753 1707.1482,726.3154 1782,807 C1784.2662,809.4428 1786.6028,811.8037 1789.0047,814.0852 " fill="none" style="stroke:#A80036;stroke-width:1.0;stroke-dasharray:3.0,3.0;"/><path d="M1786.9324,816.3735 L1790.7208,815.6395 L1791.077,811.797 L1794.7252,819.266 L1786.9324,816.3735 " fill="#A80036" style="stroke:#A80036;stroke-width:1.0;"/><ellipse cx="1612.5" cy="521" fill="#A80036" rx="3" ry="3" style="stroke:#A80036;stroke-width:1.0;stroke-dasharray:3.0,3.0;"/><path d="M1612.5,542 L1625.5,542 C1679.7882,542 1708.9548,522.3155 1746,562 C1803.1264,623.1965 1726.5181,874.3086 1782,937 C1782.8795,937.9938 1783.7706,938.974 1784.6731,939.9409 " fill="none" style="stroke:#A80036;stroke-width:1.0;stroke-dasharray:3.0,3.0;"/><path d="M1782.5159,942.057 L1786.2602,941.5588 L1786.8302,937.8248 L1789.9633,945.3338 L1782.5159,942.057 " fill="#A80036" style="stroke:#A80036;stroke-width:1.0;"/><ellipse cx="1612.5" cy="542" fill="#A80036" rx="3" ry="3" style="stroke:#A80036;stroke-width:1.0;stroke-dasharray:3.0,3.0;"/><path d="M1358,533 L1371,533 C1424.6323,533 1481.8127,510.4541 1522.0332,490.4217 " fill="none" style="stroke:#A80036;stroke-width:1.0;stroke-dasharray:3.0,3.0;"/><path d="M1523.4119,493.1442 L1524.0751,489.3877 L1520.6546,487.6992 L1528.8394,486.9751 L1523.4119,493.1442 " fill="#A80036" style="stroke:#A80036;stroke-width:1.0;"/><ellipse cx="1358" cy="533" fill="#A80036" rx="3" ry="3" style="stroke:#A80036;stroke-width:1.0;stroke-dasharray:3.0,3.0;"/><path d="M1358,559 L1371,559 C1392.7609,559 1415.1058,562.7116 1436.665,568.461 " fill="none" style="stroke:#A80036;stroke-width:1.0;stroke-dasharray:3.0,3.0;"/><path d="M1435.8548,571.3728 L1438.8488,569.0687 L1437.4752,565.5493 L1443.9443,570.4866 L1435.8548,571.3728 " fill="#A80036" style="stroke:#A80036;stroke-width:1.0;"/><ellipse cx="1358" cy="559" fill="#A80036" rx="3" ry="3" style="stroke:#A80036;stroke-width:1.0;stroke-dasharray:3.0,3.0;"/><path d="M505.5,533 L518.5,533 C605.9545,533 701.0438,533 787.7717,533 " fill="none" style="stroke:#A80036;stroke-width:1.0;stroke-dasharray:3.0,3.0;"/><path d="M787.7717,536.0246 L790.0401,533 L787.7717,529.9754 L795.3332,533 L787.7717,536.0246 " fill="#A80036" style="stroke:#A80036;stroke-width:1.0;"/><ellipse cx="505.5" cy="533" fill="#A80036" rx="3" ry="3" style="stroke:#A80036;stroke-width:1.0;stroke-dasharray:3.0,3.0;"/><path d="M95,509 L108,509 C124.1536,509 127.927,512.388 144,514 C223.8691,522.0103 315.8082,527.1704 377.9937,530.0622 " fill="none" style="stroke:#A80036;stroke-width:1.0;stroke-dasharray:3.0,3.0;"/><path d="M377.8502,533.1872 L380.3374,530.1698 L378.1372,526.9372 L385.8061,530.4208 L377.8502,533.1872 " fill="#A80036" style="stroke:#A80036;stroke-width:1.0;"/><ellipse cx="95" cy="509" fill="#A80036" rx="3" ry="3" style="stroke:#A80036;stroke-width:1.0;stroke-dasharray:3.0,3.0;"/><!--MD5=[e15066f90df1a4804616d115fbce6aba]
@startjson
{
  "info": {
    "copyright": "Copyright 2018-2019 Open Connectivity Foundation, Inc. All rights reserved.",
    "license": "https://github.com/one-data-model/oneDM/blob/master/LICENSE",
    "title": "Threshold for Continuous Glucose Meter (CGM)",
    "version": "2019-03-04"
  },
  "sdfObject": {
    "cgm.threshold": {
      "description": "This Resource describes the Properties associated with Threshold for\\nContinuous Glucose Meter (CGM).",
      "sdfProperty": {
        "plow": {
          "description": "This Property describes the Patient low threshold (mg/dL)",
          "type": "number",
          "minimum": 0,
          "writable": true
        },
        "phigh": {
          "description": "This Property describes the Patient high threshold (mg/dL)",
          "type": "number",
          "minimum": 0,
          "writable": true
        },
        "dhypo": {
          "description": "This Property describes the Device hypoglycemia threshold (mg/dL)",
          "type": "number",
          "minimum": 0,
          "writable": true
        },
        "dhyper": {
          "description": "This Property describes the Device hyperglycemia threshold (mg/dL)",
          "type": "number",
          "minimum": 0,
          "writable": true
        },
        "gir": {
          "description": "This Property describes the Glucose Increase rate of change threshold\\n(%)",
          "type": "number",
          "minimum": 0,
          "writable": true
        },
        "gdr": {
          "description": "This Property describes the Glucose Decrease rate of change threshold\\n(%)",
          "type": "number",
          "minimum": 0,
          "writable": true
        },
        "range": {
          "type": "array",
          "description": "The valid range for the Property in the Resource as a number. The\\nfirst value in the array is the minimum value, the second value in\\nthe array is the maximum value.",
          "writable": false,
          "minItems": 2,
          "maxItems": 2,
          "items": {
            "type": "number"
          }
        },
        "step": {
          "description": "Step value across the defined range an integer when the range is a\\nnumber.  This is the increment for valid values across the range; so\\nif range is 0.0..10.0 and step is 2.5 then valid values are\\n0.0,2.5,5.0,7.5,10.0.",
          "writable": false,
          "type": "number"
        },
        "precision": {
          "type": "number",
          "writable": false,
          "description": "When exposed the value in 'precision' provides a +/- tolerance\\nagainst the Properties in the Resource. Thus if a Property is UPDATED\\nto a value and that Property then RETRIEVED, the RETRIEVED value is\\nvalid if in the range of the set value +/- precision"
        }
      },
      "sdfRequired": [
        "#/sdfObject/cgm.threshold/sdfProperty/plow",
        "#/sdfObject/cgm.threshold/sdfProperty/phigh",
        "#/sdfObject/cgm.threshold/sdfProperty/dhypo",
        "#/sdfObject/cgm.threshold/sdfProperty/dhyper",
        "#/sdfObject/cgm.threshold/sdfProperty/gir",
        "#/sdfObject/cgm.threshold/sdfProperty/gdr"
      ]
    }
  }
}
@endjson

PlantUML version 1.2021.2(Sun Mar 07 13:10:27 EET 2021)
(GPL source distribution)
Java Runtime: OpenJDK Runtime Environment
JVM: OpenJDK 64-Bit Server VM
Default Encoding: UTF-8
Language: en
Country: FI
--></g></svg>