<?xml version="1.0" encoding="UTF-8" standalone="no"?><svg xmlns="http://www.w3.org/2000/svg" xmlns:xlink="http://www.w3.org/1999/xlink" contentScriptType="application/ecmascript" contentStyleType="text/css" height="828px" preserveAspectRatio="none" style="width:2444px;height:828px;" version="1.1" viewBox="0 0 2444 828" width="2444px" zoomAndPan="magnify"><defs/><g><rect fill="#FEFECE" height="40.9766" rx="5" ry="5" style="stroke:#FEFECE;stroke-width:1.5;" width="97" x="10" y="329.5"/><text fill="#000000" font-family="sans-serif" font-size="14" lengthAdjust="spacing" textLength="27" x="15" y="345.0352">info</text><text fill="#000000" font-family="sans-serif" font-size="14" lengthAdjust="spacing" textLength="0" x="102" y="345.0352"/><line style="stroke:#A80036;stroke-width:1.0;" x1="85" x2="85" y1="329.5" y2="349.9883"/><line style="stroke:#A80036;stroke-width:1.0;" x1="10" x2="107" y1="349.9883" y2="349.9883"/><text fill="#000000" font-family="sans-serif" font-size="14" lengthAdjust="spacing" textLength="65" x="15" y="365.5234">sdfObject</text><text fill="#000000" font-family="sans-serif" font-size="14" lengthAdjust="spacing" textLength="0" x="102" y="365.5234"/><line style="stroke:#A80036;stroke-width:1.0;" x1="85" x2="85" y1="349.9883" y2="370.4766"/><rect fill="none" height="40.9766" rx="5" ry="5" style="stroke:#A80036;stroke-width:1.5;" width="97" x="10" y="329.5"/><rect fill="#FEFECE" height="81.9531" rx="5" ry="5" style="stroke:#FEFECE;stroke-width:1.5;" width="614" x="144" y="274"/><text fill="#000000" font-family="sans-serif" font-size="14" lengthAdjust="spacing" textLength="65" x="149" y="289.5352">copyright</text><text fill="#000000" font-family="sans-serif" font-size="14" lengthAdjust="spacing" textLength="529" x="224" y="289.5352">Copyright 2018-2019 Open Connectivity Foundation, Inc. All rights reserved.</text><line style="stroke:#A80036;stroke-width:1.0;" x1="219" x2="219" y1="274" y2="294.4883"/><line style="stroke:#A80036;stroke-width:1.0;" x1="144" x2="758" y1="294.4883" y2="294.4883"/><text fill="#000000" font-family="sans-serif" font-size="14" lengthAdjust="spacing" textLength="47" x="149" y="310.0234">license</text><text fill="#000000" font-family="sans-serif" font-size="14" lengthAdjust="spacing" textLength="462" x="224" y="310.0234">https://github.com/one-data-model/oneDM/blob/master/LICENSE</text><line style="stroke:#A80036;stroke-width:1.0;" x1="219" x2="219" y1="294.4883" y2="314.9766"/><line style="stroke:#A80036;stroke-width:1.0;" x1="144" x2="758" y1="314.9766" y2="314.9766"/><text fill="#000000" font-family="sans-serif" font-size="14" lengthAdjust="spacing" textLength="26" x="149" y="330.5117">title</text><text fill="#000000" font-family="sans-serif" font-size="14" lengthAdjust="spacing" textLength="41" x="224" y="330.5117">Alarm</text><line style="stroke:#A80036;stroke-width:1.0;" x1="219" x2="219" y1="314.9766" y2="335.4648"/><line style="stroke:#A80036;stroke-width:1.0;" x1="144" x2="758" y1="335.4648" y2="335.4648"/><text fill="#000000" font-family="sans-serif" font-size="14" lengthAdjust="spacing" textLength="50" x="149" y="351">version</text><text fill="#000000" font-family="sans-serif" font-size="14" lengthAdjust="spacing" textLength="88" x="224" y="351">2019-03-04</text><line style="stroke:#A80036;stroke-width:1.0;" x1="219" x2="219" y1="335.4648" y2="355.9531"/><rect fill="none" height="81.9531" rx="5" ry="5" style="stroke:#A80036;stroke-width:1.5;" width="614" x="144" y="274"/><rect fill="#FEFECE" height="20.4883" rx="5" ry="5" style="stroke:#FEFECE;stroke-width:1.5;" width="71" x="415.5" y="374"/><text fill="#000000" font-family="sans-serif" font-size="14" lengthAdjust="spacing" textLength="39" x="420.5" y="389.5352">alarm</text><text fill="#000000" font-family="sans-serif" font-size="14" lengthAdjust="spacing" textLength="0" x="481.5" y="389.5352"/><line style="stroke:#A80036;stroke-width:1.0;" x1="464.5" x2="464.5" y1="374" y2="394.4883"/><rect fill="none" height="20.4883" rx="5" ry="5" style="stroke:#A80036;stroke-width:1.5;" width="71" x="415.5" y="374"/><rect fill="#FEFECE" height="61.4648" rx="5" ry="5" style="stroke:#FEFECE;stroke-width:1.5;" width="569" x="795" y="353.5"/><text fill="#000000" font-family="sans-serif" font-size="14" lengthAdjust="spacing" textLength="77" x="800" y="369.0352">description</text><text fill="#000000" font-family="sans-serif" font-size="14" lengthAdjust="spacing" textLength="466" x="893" y="369.0352">This Resource describes the Properties associated with alarm status.</text><line style="stroke:#A80036;stroke-width:1.0;" x1="888" x2="888" y1="353.5" y2="373.9883"/><line style="stroke:#A80036;stroke-width:1.0;" x1="795" x2="1364" y1="373.9883" y2="373.9883"/><text fill="#000000" font-family="sans-serif" font-size="14" lengthAdjust="spacing" textLength="79" x="800" y="389.5234">sdfProperty</text><text fill="#000000" font-family="sans-serif" font-size="14" lengthAdjust="spacing" textLength="0" x="905" y="389.5234"/><line style="stroke:#A80036;stroke-width:1.0;" x1="888" x2="888" y1="373.9883" y2="394.4766"/><line style="stroke:#A80036;stroke-width:1.0;" x1="795" x2="1364" y1="394.4766" y2="394.4766"/><text fill="#000000" font-family="sans-serif" font-size="14" lengthAdjust="spacing" textLength="83" x="800" y="410.0117">sdfRequired</text><text fill="#000000" font-family="sans-serif" font-size="14" lengthAdjust="spacing" textLength="0" x="905" y="410.0117"/><line style="stroke:#A80036;stroke-width:1.0;" x1="888" x2="888" y1="394.4766" y2="414.9648"/><rect fill="none" height="61.4648" rx="5" ry="5" style="stroke:#A80036;stroke-width:1.5;" width="569" x="795" y="353.5"/><rect fill="#FEFECE" height="143.418" rx="5" ry="5" style="stroke:#FEFECE;stroke-width:1.5;" width="100" x="1486.5" y="272.5"/><text fill="#000000" font-family="sans-serif" font-size="14" lengthAdjust="spacing" textLength="41" x="1491.5" y="288.0352">status</text><text fill="#000000" font-family="sans-serif" font-size="14" lengthAdjust="spacing" textLength="0" x="1581.5" y="288.0352"/><line style="stroke:#A80036;stroke-width:1.0;" x1="1564.5" x2="1564.5" y1="272.5" y2="292.9883"/><line style="stroke:#A80036;stroke-width:1.0;" x1="1486.5" x2="1586.5" y1="292.9883" y2="292.9883"/><text fill="#000000" font-family="sans-serif" font-size="14" lengthAdjust="spacing" textLength="59" x="1491.5" y="308.5234">duration</text><text fill="#000000" font-family="sans-serif" font-size="14" lengthAdjust="spacing" textLength="0" x="1581.5" y="308.5234"/><line style="stroke:#A80036;stroke-width:1.0;" x1="1564.5" x2="1564.5" y1="292.9883" y2="313.4766"/><line style="stroke:#A80036;stroke-width:1.0;" x1="1486.5" x2="1586.5" y1="313.4766" y2="313.4766"/><text fill="#000000" font-family="sans-serif" font-size="14" lengthAdjust="spacing" textLength="30" x="1491.5" y="329.0117">time</text><text fill="#000000" font-family="sans-serif" font-size="14" lengthAdjust="spacing" textLength="0" x="1581.5" y="329.0117"/><line style="stroke:#A80036;stroke-width:1.0;" x1="1564.5" x2="1564.5" y1="313.4766" y2="333.9648"/><line style="stroke:#A80036;stroke-width:1.0;" x1="1486.5" x2="1586.5" y1="333.9648" y2="333.9648"/><text fill="#000000" font-family="sans-serif" font-size="14" lengthAdjust="spacing" textLength="68" x="1491.5" y="349.5">alarmtype</text><text fill="#000000" font-family="sans-serif" font-size="14" lengthAdjust="spacing" textLength="0" x="1581.5" y="349.5"/><line style="stroke:#A80036;stroke-width:1.0;" x1="1564.5" x2="1564.5" y1="333.9648" y2="354.4531"/><line style="stroke:#A80036;stroke-width:1.0;" x1="1486.5" x2="1586.5" y1="354.4531" y2="354.4531"/><text fill="#000000" font-family="sans-serif" font-size="14" lengthAdjust="spacing" textLength="40" x="1491.5" y="369.9883">range</text><text fill="#000000" font-family="sans-serif" font-size="14" lengthAdjust="spacing" textLength="0" x="1581.5" y="369.9883"/><line style="stroke:#A80036;stroke-width:1.0;" x1="1564.5" x2="1564.5" y1="354.4531" y2="374.9414"/><line style="stroke:#A80036;stroke-width:1.0;" x1="1486.5" x2="1586.5" y1="374.9414" y2="374.9414"/><text fill="#000000" font-family="sans-serif" font-size="14" lengthAdjust="spacing" textLength="29" x="1491.5" y="390.4766">step</text><text fill="#000000" font-family="sans-serif" font-size="14" lengthAdjust="spacing" textLength="0" x="1581.5" y="390.4766"/><line style="stroke:#A80036;stroke-width:1.0;" x1="1564.5" x2="1564.5" y1="374.9414" y2="395.4297"/><line style="stroke:#A80036;stroke-width:1.0;" x1="1486.5" x2="1586.5" y1="395.4297" y2="395.4297"/><text fill="#000000" font-family="sans-serif" font-size="14" lengthAdjust="spacing" textLength="63" x="1491.5" y="410.9648">precision</text><text fill="#000000" font-family="sans-serif" font-size="14" lengthAdjust="spacing" textLength="0" x="1581.5" y="410.9648"/><line style="stroke:#A80036;stroke-width:1.0;" x1="1564.5" x2="1564.5" y1="395.4297" y2="415.918"/><rect fill="none" height="143.418" rx="5" ry="5" style="stroke:#A80036;stroke-width:1.5;" width="100" x="1486.5" y="272.5"/><rect fill="#FEFECE" height="77.9531" rx="5" ry="5" style="stroke:#FEFECE;stroke-width:1.5;" width="537" x="1732" y="10"/><text fill="#000000" font-family="sans-serif" font-size="14" lengthAdjust="spacing" textLength="77" x="1737" y="25.5352">description</text><text fill="#000000" font-family="sans-serif" font-size="14" lengthAdjust="spacing" textLength="440" x="1824" y="25.5352">This Property describes the status of the alarm: true - on, false -</text><text fill="#000000" font-family="sans-serif" font-size="14" lengthAdjust="spacing" textLength="23" x="1824" y="42.0234">off.</text><line style="stroke:#A80036;stroke-width:1.0;" x1="1819" x2="1819" y1="10" y2="46.9766"/><line style="stroke:#A80036;stroke-width:1.0;" x1="1732" x2="2269" y1="46.9766" y2="46.9766"/><text fill="#000000" font-family="sans-serif" font-size="14" lengthAdjust="spacing" textLength="29" x="1737" y="62.5117">type</text><text fill="#000000" font-family="sans-serif" font-size="14" lengthAdjust="spacing" textLength="56" x="1824" y="62.5117">boolean</text><line style="stroke:#A80036;stroke-width:1.0;" x1="1819" x2="1819" y1="46.9766" y2="67.4648"/><line style="stroke:#A80036;stroke-width:1.0;" x1="1732" x2="2269" y1="67.4648" y2="67.4648"/><text fill="#000000" font-family="sans-serif" font-size="14" lengthAdjust="spacing" textLength="55" x="1737" y="83">writable</text><text fill="#000000" font-family="sans-serif" font-size="14" lengthAdjust="spacing" textLength="44" x="1824" y="83">☑ true</text><line style="stroke:#A80036;stroke-width:1.0;" x1="1819" x2="1819" y1="67.4648" y2="87.9531"/><rect fill="none" height="77.9531" rx="5" ry="5" style="stroke:#A80036;stroke-width:1.5;" width="537" x="1732" y="10"/><rect fill="#FEFECE" height="81.9531" rx="5" ry="5" style="stroke:#FEFECE;stroke-width:1.5;" width="463" x="1769" y="106"/><text fill="#000000" font-family="sans-serif" font-size="14" lengthAdjust="spacing" textLength="77" x="1774" y="121.5352">description</text><text fill="#000000" font-family="sans-serif" font-size="14" lengthAdjust="spacing" textLength="366" x="1861" y="121.5352">This Property describes the alarm duration (seconds).</text><line style="stroke:#A80036;stroke-width:1.0;" x1="1856" x2="1856" y1="106" y2="126.4883"/><line style="stroke:#A80036;stroke-width:1.0;" x1="1769" x2="2232" y1="126.4883" y2="126.4883"/><text fill="#000000" font-family="sans-serif" font-size="14" lengthAdjust="spacing" textLength="29" x="1774" y="142.0234">type</text><text fill="#000000" font-family="sans-serif" font-size="14" lengthAdjust="spacing" textLength="54" x="1861" y="142.0234">number</text><line style="stroke:#A80036;stroke-width:1.0;" x1="1856" x2="1856" y1="126.4883" y2="146.9766"/><line style="stroke:#A80036;stroke-width:1.0;" x1="1769" x2="2232" y1="146.9766" y2="146.9766"/><text fill="#000000" font-family="sans-serif" font-size="14" lengthAdjust="spacing" textLength="65" x="1774" y="162.5117">minimum</text><text fill="#000000" font-family="sans-serif" font-size="14" lengthAdjust="spacing" textLength="9" x="1861" y="162.5117">0</text><line style="stroke:#A80036;stroke-width:1.0;" x1="1856" x2="1856" y1="146.9766" y2="167.4648"/><line style="stroke:#A80036;stroke-width:1.0;" x1="1769" x2="2232" y1="167.4648" y2="167.4648"/><text fill="#000000" font-family="sans-serif" font-size="14" lengthAdjust="spacing" textLength="55" x="1774" y="183">writable</text><text fill="#000000" font-family="sans-serif" font-size="14" lengthAdjust="spacing" textLength="44" x="1861" y="183">☑ true</text><line style="stroke:#A80036;stroke-width:1.0;" x1="1856" x2="1856" y1="167.4648" y2="187.9531"/><rect fill="none" height="81.9531" rx="5" ry="5" style="stroke:#A80036;stroke-width:1.5;" width="463" x="1769" y="106"/><rect fill="#FEFECE" height="77.9531" rx="5" ry="5" style="stroke:#FEFECE;stroke-width:1.5;" width="583" x="1709" y="206"/><text fill="#000000" font-family="sans-serif" font-size="14" lengthAdjust="spacing" textLength="77" x="1714" y="221.5352">description</text><text fill="#000000" font-family="sans-serif" font-size="14" lengthAdjust="spacing" textLength="486" x="1801" y="221.5352">This Property describes the alarm time using ISO 8601 datetime format</text><text fill="#000000" font-family="sans-serif" font-size="14" lengthAdjust="spacing" textLength="384" x="1801" y="238.0234">(e.g: 2007-04-05T14:30Z, 2007-04-05T14:30+09:00).</text><line style="stroke:#A80036;stroke-width:1.0;" x1="1796" x2="1796" y1="206" y2="242.9766"/><line style="stroke:#A80036;stroke-width:1.0;" x1="1709" x2="2292" y1="242.9766" y2="242.9766"/><text fill="#000000" font-family="sans-serif" font-size="14" lengthAdjust="spacing" textLength="29" x="1714" y="258.5117">type</text><text fill="#000000" font-family="sans-serif" font-size="14" lengthAdjust="spacing" textLength="40" x="1801" y="258.5117">string</text><line style="stroke:#A80036;stroke-width:1.0;" x1="1796" x2="1796" y1="242.9766" y2="263.4648"/><line style="stroke:#A80036;stroke-width:1.0;" x1="1709" x2="2292" y1="263.4648" y2="263.4648"/><text fill="#000000" font-family="sans-serif" font-size="14" lengthAdjust="spacing" textLength="55" x="1714" y="279">writable</text><text fill="#000000" font-family="sans-serif" font-size="14" lengthAdjust="spacing" textLength="44" x="1801" y="279">☑ true</text><line style="stroke:#A80036;stroke-width:1.0;" x1="1796" x2="1796" y1="263.4648" y2="283.9531"/><rect fill="none" height="77.9531" rx="5" ry="5" style="stroke:#A80036;stroke-width:1.5;" width="583" x="1709" y="206"/><rect fill="#FEFECE" height="81.9531" rx="5" ry="5" style="stroke:#FEFECE;stroke-width:1.5;" width="209" x="1896" y="302"/><text fill="#000000" font-family="sans-serif" font-size="14" lengthAdjust="spacing" textLength="77" x="1901" y="317.5352">description</text><text fill="#000000" font-family="sans-serif" font-size="14" lengthAdjust="spacing" textLength="112" x="1988" y="317.5352">The Alarm Type.</text><line style="stroke:#A80036;stroke-width:1.0;" x1="1983" x2="1983" y1="302" y2="322.4883"/><line style="stroke:#A80036;stroke-width:1.0;" x1="1896" x2="2105" y1="322.4883" y2="322.4883"/><text fill="#000000" font-family="sans-serif" font-size="14" lengthAdjust="spacing" textLength="29" x="1901" y="338.0234">type</text><text fill="#000000" font-family="sans-serif" font-size="14" lengthAdjust="spacing" textLength="40" x="1988" y="338.0234">string</text><line style="stroke:#A80036;stroke-width:1.0;" x1="1983" x2="1983" y1="322.4883" y2="342.9766"/><line style="stroke:#A80036;stroke-width:1.0;" x1="1896" x2="2105" y1="342.9766" y2="342.9766"/><text fill="#000000" font-family="sans-serif" font-size="14" lengthAdjust="spacing" textLength="39" x="1901" y="358.5117">enum</text><text fill="#000000" font-family="sans-serif" font-size="14" lengthAdjust="spacing" textLength="0" x="2000" y="358.5117"/><line style="stroke:#A80036;stroke-width:1.0;" x1="1983" x2="1983" y1="342.9766" y2="363.4648"/><line style="stroke:#A80036;stroke-width:1.0;" x1="1896" x2="2105" y1="363.4648" y2="363.4648"/><text fill="#000000" font-family="sans-serif" font-size="14" lengthAdjust="spacing" textLength="55" x="1901" y="379">writable</text><text fill="#000000" font-family="sans-serif" font-size="14" lengthAdjust="spacing" textLength="48" x="1988" y="379">☐ false</text><line style="stroke:#A80036;stroke-width:1.0;" x1="1983" x2="1983" y1="363.4648" y2="383.9531"/><rect fill="none" height="81.9531" rx="5" ry="5" style="stroke:#A80036;stroke-width:1.5;" width="209" x="1896" y="302"/><rect fill="#FEFECE" height="102.4414" rx="5" ry="5" style="stroke:#FEFECE;stroke-width:1.5;" width="66" x="2347.5" y="302"/><text fill="#000000" font-family="sans-serif" font-size="14" lengthAdjust="spacing" textLength="53" x="2352.5" y="317.5352">General</text><line style="stroke:#A80036;stroke-width:1.0;" x1="2347.5" x2="2413.5" y1="322.4883" y2="322.4883"/><text fill="#000000" font-family="sans-serif" font-size="14" lengthAdjust="spacing" textLength="26" x="2352.5" y="338.0234">Fire</text><line style="stroke:#A80036;stroke-width:1.0;" x1="2347.5" x2="2413.5" y1="342.9766" y2="342.9766"/><text fill="#000000" font-family="sans-serif" font-size="14" lengthAdjust="spacing" textLength="39" x="2352.5" y="358.5117">Flood</text><line style="stroke:#A80036;stroke-width:1.0;" x1="2347.5" x2="2413.5" y1="363.4648" y2="363.4648"/><text fill="#000000" font-family="sans-serif" font-size="14" lengthAdjust="spacing" textLength="56" x="2352.5" y="379">Weather</text><line style="stroke:#A80036;stroke-width:1.0;" x1="2347.5" x2="2413.5" y1="383.9531" y2="383.9531"/><text fill="#000000" font-family="sans-serif" font-size="14" lengthAdjust="spacing" textLength="54" x="2352.5" y="399.4883">Security</text><rect fill="none" height="102.4414" rx="5" ry="5" style="stroke:#A80036;stroke-width:1.5;" width="66" x="2347.5" y="302"/><rect fill="#FEFECE" height="155.9063" rx="5" ry="5" style="stroke:#FEFECE;stroke-width:1.5;" width="548" x="1726.5" y="402"/><text fill="#000000" font-family="sans-serif" font-size="14" lengthAdjust="spacing" textLength="29" x="1731.5" y="417.5352">type</text><text fill="#000000" font-family="sans-serif" font-size="14" lengthAdjust="spacing" textLength="35" x="1818.5" y="417.5352">array</text><line style="stroke:#A80036;stroke-width:1.0;" x1="1813.5" x2="1813.5" y1="402" y2="422.4883"/><line style="stroke:#A80036;stroke-width:1.0;" x1="1726.5" x2="2274.5" y1="422.4883" y2="422.4883"/><text fill="#000000" font-family="sans-serif" font-size="14" lengthAdjust="spacing" textLength="77" x="1731.5" y="438.0234">description</text><text fill="#000000" font-family="sans-serif" font-size="14" lengthAdjust="spacing" textLength="451" x="1818.5" y="438.0234">The valid range for the Property in the Resource as a number. The</text><text fill="#000000" font-family="sans-serif" font-size="14" lengthAdjust="spacing" textLength="439" x="1818.5" y="454.5117">first value in the array is the minimum value, the second value in</text><text fill="#000000" font-family="sans-serif" font-size="14" lengthAdjust="spacing" textLength="219" x="1818.5" y="471">the array is the maximum value.</text><line style="stroke:#A80036;stroke-width:1.0;" x1="1813.5" x2="1813.5" y1="422.4883" y2="475.9531"/><line style="stroke:#A80036;stroke-width:1.0;" x1="1726.5" x2="2274.5" y1="475.9531" y2="475.9531"/><text fill="#000000" font-family="sans-serif" font-size="14" lengthAdjust="spacing" textLength="55" x="1731.5" y="491.4883">writable</text><text fill="#000000" font-family="sans-serif" font-size="14" lengthAdjust="spacing" textLength="48" x="1818.5" y="491.4883">☐ false</text><line style="stroke:#A80036;stroke-width:1.0;" x1="1813.5" x2="1813.5" y1="475.9531" y2="496.4414"/><line style="stroke:#A80036;stroke-width:1.0;" x1="1726.5" x2="2274.5" y1="496.4414" y2="496.4414"/><text fill="#000000" font-family="sans-serif" font-size="14" lengthAdjust="spacing" textLength="63" x="1731.5" y="511.9766">minItems</text><text fill="#000000" font-family="sans-serif" font-size="14" lengthAdjust="spacing" textLength="9" x="1818.5" y="511.9766">2</text><line style="stroke:#A80036;stroke-width:1.0;" x1="1813.5" x2="1813.5" y1="496.4414" y2="516.9297"/><line style="stroke:#A80036;stroke-width:1.0;" x1="1726.5" x2="2274.5" y1="516.9297" y2="516.9297"/><text fill="#000000" font-family="sans-serif" font-size="14" lengthAdjust="spacing" textLength="67" x="1731.5" y="532.4648">maxItems</text><text fill="#000000" font-family="sans-serif" font-size="14" lengthAdjust="spacing" textLength="9" x="1818.5" y="532.4648">2</text><line style="stroke:#A80036;stroke-width:1.0;" x1="1813.5" x2="1813.5" y1="516.9297" y2="537.418"/><line style="stroke:#A80036;stroke-width:1.0;" x1="1726.5" x2="2274.5" y1="537.418" y2="537.418"/><text fill="#000000" font-family="sans-serif" font-size="14" lengthAdjust="spacing" textLength="37" x="1731.5" y="552.9531">items</text><text fill="#000000" font-family="sans-serif" font-size="14" lengthAdjust="spacing" textLength="0" x="1830.5" y="552.9531"/><line style="stroke:#A80036;stroke-width:1.0;" x1="1813.5" x2="1813.5" y1="537.418" y2="557.9063"/><rect fill="none" height="155.9063" rx="5" ry="5" style="stroke:#A80036;stroke-width:1.5;" width="548" x="1726.5" y="402"/><rect fill="#FEFECE" height="20.4883" rx="5" ry="5" style="stroke:#FEFECE;stroke-width:1.5;" width="103" x="2329" y="535"/><text fill="#000000" font-family="sans-serif" font-size="14" lengthAdjust="spacing" textLength="29" x="2334" y="550.5352">type</text><text fill="#000000" font-family="sans-serif" font-size="14" lengthAdjust="spacing" textLength="54" x="2373" y="550.5352">number</text><line style="stroke:#A80036;stroke-width:1.0;" x1="2368" x2="2368" y1="535" y2="555.4883"/><rect fill="none" height="20.4883" rx="5" ry="5" style="stroke:#A80036;stroke-width:1.5;" width="103" x="2329" y="535"/><rect fill="#FEFECE" height="110.9297" rx="5" ry="5" style="stroke:#FEFECE;stroke-width:1.5;" width="555" x="1723" y="576.5"/><text fill="#000000" font-family="sans-serif" font-size="14" lengthAdjust="spacing" textLength="77" x="1728" y="592.0352">description</text><text fill="#000000" font-family="sans-serif" font-size="14" lengthAdjust="spacing" textLength="456" x="1815" y="592.0352">Step value across the defined range an integer when the range is a</text><text fill="#000000" font-family="sans-serif" font-size="14" lengthAdjust="spacing" textLength="458" x="1815" y="608.5234">number.  This is the increment for valid values across the range; so</text><text fill="#000000" font-family="sans-serif" font-size="14" lengthAdjust="spacing" textLength="381" x="1815" y="625.0117">if range is 0.0..10.0 and step is 2.5 then valid values are</text><text fill="#000000" font-family="sans-serif" font-size="14" lengthAdjust="spacing" textLength="139" x="1815" y="641.5">0.0,2.5,5.0,7.5,10.0.</text><line style="stroke:#A80036;stroke-width:1.0;" x1="1810" x2="1810" y1="576.5" y2="646.4531"/><line style="stroke:#A80036;stroke-width:1.0;" x1="1723" x2="2278" y1="646.4531" y2="646.4531"/><text fill="#000000" font-family="sans-serif" font-size="14" lengthAdjust="spacing" textLength="55" x="1728" y="661.9883">writable</text><text fill="#000000" font-family="sans-serif" font-size="14" lengthAdjust="spacing" textLength="48" x="1815" y="661.9883">☐ false</text><line style="stroke:#A80036;stroke-width:1.0;" x1="1810" x2="1810" y1="646.4531" y2="666.9414"/><line style="stroke:#A80036;stroke-width:1.0;" x1="1723" x2="2278" y1="666.9414" y2="666.9414"/><text fill="#000000" font-family="sans-serif" font-size="14" lengthAdjust="spacing" textLength="29" x="1728" y="682.4766">type</text><text fill="#000000" font-family="sans-serif" font-size="14" lengthAdjust="spacing" textLength="54" x="1815" y="682.4766">number</text><line style="stroke:#A80036;stroke-width:1.0;" x1="1810" x2="1810" y1="666.9414" y2="687.4297"/><rect fill="none" height="110.9297" rx="5" ry="5" style="stroke:#A80036;stroke-width:1.5;" width="555" x="1723" y="576.5"/><rect fill="#FEFECE" height="110.9297" rx="5" ry="5" style="stroke:#FEFECE;stroke-width:1.5;" width="570" x="1715.5" y="705.5"/><text fill="#000000" font-family="sans-serif" font-size="14" lengthAdjust="spacing" textLength="29" x="1720.5" y="721.0352">type</text><text fill="#000000" font-family="sans-serif" font-size="14" lengthAdjust="spacing" textLength="54" x="1807.5" y="721.0352">number</text><line style="stroke:#A80036;stroke-width:1.0;" x1="1802.5" x2="1802.5" y1="705.5" y2="725.9883"/><line style="stroke:#A80036;stroke-width:1.0;" x1="1715.5" x2="2285.5" y1="725.9883" y2="725.9883"/><text fill="#000000" font-family="sans-serif" font-size="14" lengthAdjust="spacing" textLength="55" x="1720.5" y="741.5234">writable</text><text fill="#000000" font-family="sans-serif" font-size="14" lengthAdjust="spacing" textLength="48" x="1807.5" y="741.5234">☐ false</text><line style="stroke:#A80036;stroke-width:1.0;" x1="1802.5" x2="1802.5" y1="725.9883" y2="746.4766"/><line style="stroke:#A80036;stroke-width:1.0;" x1="1715.5" x2="2285.5" y1="746.4766" y2="746.4766"/><text fill="#000000" font-family="sans-serif" font-size="14" lengthAdjust="spacing" textLength="77" x="1720.5" y="762.0117">description</text><text fill="#000000" font-family="sans-serif" font-size="14" lengthAdjust="spacing" textLength="430" x="1807.5" y="762.0117">When exposed the value in 'precision' provides a +/- tolerance</text><text fill="#000000" font-family="sans-serif" font-size="14" lengthAdjust="spacing" textLength="473" x="1807.5" y="778.5">against the Properties in the Resource. Thus if a Property is UPDATED</text><text fill="#000000" font-family="sans-serif" font-size="14" lengthAdjust="spacing" textLength="465" x="1807.5" y="794.9883">to a value and that Property then RETRIEVED, the RETRIEVED value is</text><text fill="#000000" font-family="sans-serif" font-size="14" lengthAdjust="spacing" textLength="337" x="1807.5" y="811.4766">valid if in the range of the set value +/- precision</text><line style="stroke:#A80036;stroke-width:1.0;" x1="1802.5" x2="1802.5" y1="746.4766" y2="816.4297"/><rect fill="none" height="110.9297" rx="5" ry="5" style="stroke:#A80036;stroke-width:1.5;" width="570" x="1715.5" y="705.5"/><rect fill="#FEFECE" height="20.4883" rx="5" ry="5" style="stroke:#FEFECE;stroke-width:1.5;" width="271" x="1401" y="434"/><text fill="#000000" font-family="sans-serif" font-size="14" lengthAdjust="spacing" textLength="261" x="1406" y="449.5352">#/sdfObject/alarm/sdfProperty/status</text><rect fill="none" height="20.4883" rx="5" ry="5" style="stroke:#A80036;stroke-width:1.5;" width="271" x="1401" y="434"/><path d="M95,339 L108,339 C117.4068,339 126.9554,338.9088 136.5926,338.7376 " fill="none" style="stroke:#A80036;stroke-width:1.0;stroke-dasharray:3.0,3.0;"/><path d="M136.6543,341.8363 L138.9166,338.6914 L136.5309,335.6389 L144.3394,338.5834 L136.6543,341.8363 " fill="#A80036" style="stroke:#A80036;stroke-width:1.0;"/><ellipse cx="95" cy="339" fill="#A80036" rx="3" ry="3" style="stroke:#A80036;stroke-width:1.0;stroke-dasharray:3.0,3.0;"/><path d="M1575,282 L1588,282 C1686.2474,282 1626.6868,150.6385 1709,97 C1714.3959,93.4838 1719.9641,90.1973 1725.6745,87.1263 " fill="none" style="stroke:#A80036;stroke-width:1.0;stroke-dasharray:3.0,3.0;"/><path d="M1727.0773,89.8332 L1727.7047,86.0743 L1724.2718,84.4195 L1732.4417,83.6195 L1727.0773,89.8332 " fill="#A80036" style="stroke:#A80036;stroke-width:1.0;"/><ellipse cx="1575" cy="282" fill="#A80036" rx="3" ry="3" style="stroke:#A80036;stroke-width:1.0;stroke-dasharray:3.0,3.0;"/><path d="M1575,302 L1588,302 C1659.2027,302 1644.6534,227.4851 1709,197 C1725.7676,189.0561 1743.6109,182.3591 1761.8906,176.715 " fill="none" style="stroke:#A80036;stroke-width:1.0;stroke-dasharray:3.0,3.0;"/><path d="M1762.7676,179.6355 L1764.081,176.0573 L1761.0137,173.7946 L1769.1918,174.5226 L1762.7676,179.6355 " fill="#A80036" style="stroke:#A80036;stroke-width:1.0;"/><ellipse cx="1575" cy="302" fill="#A80036" rx="3" ry="3" style="stroke:#A80036;stroke-width:1.0;stroke-dasharray:3.0,3.0;"/><path d="M1575,323 L1588,323 C1643.406,323 1654.7345,304.1842 1709,293 C1721.4717,290.4296 1734.2666,287.9056 1747.204,285.4432 " fill="none" style="stroke:#A80036;stroke-width:1.0;stroke-dasharray:3.0,3.0;"/><path d="M1747.781,288.4962 L1749.4937,285.0104 L1746.627,282.3902 L1754.8365,284.0007 L1747.781,288.4962 " fill="#A80036" style="stroke:#A80036;stroke-width:1.0;"/><ellipse cx="1575" cy="323" fill="#A80036" rx="3" ry="3" style="stroke:#A80036;stroke-width:1.0;stroke-dasharray:3.0,3.0;"/><path d="M2094,353 L2107,353 C2189.8946,353 2286.9475,353 2340.1211,353 " fill="none" style="stroke:#A80036;stroke-width:1.0;stroke-dasharray:3.0,3.0;"/><path d="M2340.1211,356.008 L2342.3771,353 L2340.1211,349.992 L2347.6411,353 L2340.1211,356.008 " fill="#A80036" style="stroke:#A80036;stroke-width:1.0;"/><ellipse cx="2094" cy="353" fill="#A80036" rx="3" ry="3" style="stroke:#A80036;stroke-width:1.0;stroke-dasharray:3.0,3.0;"/><path d="M1575,343 L1588,343 C1689.7893,343 1805.7245,343 1888.6244,343 " fill="none" style="stroke:#A80036;stroke-width:1.0;stroke-dasharray:3.0,3.0;"/><path d="M1888.6244,346.0664 L1890.9242,343 L1888.6244,339.9336 L1896.2904,343 L1888.6244,346.0664 " fill="#A80036" style="stroke:#A80036;stroke-width:1.0;"/><ellipse cx="1575" cy="343" fill="#A80036" rx="3" ry="3" style="stroke:#A80036;stroke-width:1.0;stroke-dasharray:3.0,3.0;"/><path d="M2263,545 L2276,545 C2290.8373,545 2306.8653,545 2321.7907,545 " fill="none" style="stroke:#A80036;stroke-width:1.0;stroke-dasharray:3.0,3.0;"/><path d="M2321.7907,548.077 L2324.0984,545 L2321.7907,541.923 L2329.4831,545 L2321.7907,548.077 " fill="#A80036" style="stroke:#A80036;stroke-width:1.0;"/><ellipse cx="2263" cy="545" fill="#A80036" rx="3" ry="3" style="stroke:#A80036;stroke-width:1.0;stroke-dasharray:3.0,3.0;"/><path d="M1575,364 L1588,364 C1596.8006,364 1655.5208,379.8892 1726.0045,399.9062 " fill="none" style="stroke:#A80036;stroke-width:1.0;stroke-dasharray:3.0,3.0;"/><path d="M1725.1739,402.8271 L1728.1951,400.5292 L1726.8351,396.9854 L1733.3066,401.9827 L1725.1739,402.8271 " fill="#A80036" style="stroke:#A80036;stroke-width:1.0;"/><ellipse cx="1575" cy="364" fill="#A80036" rx="3" ry="3" style="stroke:#A80036;stroke-width:1.0;stroke-dasharray:3.0,3.0;"/><path d="M1575,385 L1588,385 C1629.7518,385 1646.4356,392.7891 1673,425 C1714.4245,475.2297 1662.3099,521.6233 1709,567 C1711.7001,569.6241 1714.4816,572.1516 1717.3378,574.5858 " fill="none" style="stroke:#A80036;stroke-width:1.0;stroke-dasharray:3.0,3.0;"/><path d="M1715.3912,576.972 L1719.1275,576.0458 L1719.2845,572.1996 L1723.3033,579.4524 L1715.3912,576.972 " fill="#A80036" style="stroke:#A80036;stroke-width:1.0;"/><ellipse cx="1575" cy="385" fill="#A80036" rx="3" ry="3" style="stroke:#A80036;stroke-width:1.0;stroke-dasharray:3.0,3.0;"/><path d="M1575,405 L1588,405 C1626.8094,405 1646.9563,396.2268 1673,425 C1754.832,515.4082 1626.51,607.1918 1709,697 C1709.9021,697.9822 1710.8156,698.9511 1711.7401,699.9068 " fill="none" style="stroke:#A80036;stroke-width:1.0;stroke-dasharray:3.0,3.0;"/><path d="M1709.6075,702.0721 L1713.3641,701.5063 L1713.8728,697.7415 L1717.1534,705.2384 L1709.6075,702.0721 " fill="#A80036" style="stroke:#A80036;stroke-width:1.0;"/><ellipse cx="1575" cy="405" fill="#A80036" rx="3" ry="3" style="stroke:#A80036;stroke-width:1.0;stroke-dasharray:3.0,3.0;"/><path d="M1352,383 L1365,383 C1403.9246,383 1446.6136,373.2756 1479.6018,363.5384 " fill="none" style="stroke:#A80036;stroke-width:1.0;stroke-dasharray:3.0,3.0;"/><path d="M1480.484,366.4634 L1481.7956,362.8768 L1478.7197,360.6134 L1486.9143,361.3331 L1480.484,366.4634 " fill="#A80036" style="stroke:#A80036;stroke-width:1.0;"/><ellipse cx="1352" cy="383" fill="#A80036" rx="3" ry="3" style="stroke:#A80036;stroke-width:1.0;stroke-dasharray:3.0,3.0;"/><path d="M1352,404 L1365,404 C1383.5233,404 1383.5,418.9285 1401,425 C1409.2107,427.8486 1417.8433,430.271 1426.608,432.3307 " fill="none" style="stroke:#A80036;stroke-width:1.0;stroke-dasharray:3.0,3.0;"/><path d="M1425.9495,435.2855 L1428.8241,432.8246 L1427.2665,429.3759 L1433.995,433.977 L1425.9495,435.2855 " fill="#A80036" style="stroke:#A80036;stroke-width:1.0;"/><ellipse cx="1352" cy="404" fill="#A80036" rx="3" ry="3" style="stroke:#A80036;stroke-width:1.0;stroke-dasharray:3.0,3.0;"/><path d="M475.5,384 L488.5,384 C585.8189,384 692.1597,384 787.4496,384 " fill="none" style="stroke:#A80036;stroke-width:1.0;stroke-dasharray:3.0,3.0;"/><path d="M787.4496,387.0868 L789.7647,384 L787.4496,380.9132 L795.1666,384 L787.4496,387.0868 " fill="#A80036" style="stroke:#A80036;stroke-width:1.0;"/><ellipse cx="475.5" cy="384" fill="#A80036" rx="3" ry="3" style="stroke:#A80036;stroke-width:1.0;stroke-dasharray:3.0,3.0;"/><path d="M95,360 L108,360 C124.1536,360 127.927,363.388 144,365 C238.1754,374.4451 349.1321,379.9276 408.3058,382.4011 " fill="none" style="stroke:#A80036;stroke-width:1.0;stroke-dasharray:3.0,3.0;"/><path d="M408.1798,385.4615 L410.6011,382.4957 L408.4319,379.3408 L415.9568,382.7162 L408.1798,385.4615 " fill="#A80036" style="stroke:#A80036;stroke-width:1.0;"/><ellipse cx="95" cy="360" fill="#A80036" rx="3" ry="3" style="stroke:#A80036;stroke-width:1.0;stroke-dasharray:3.0,3.0;"/><!--MD5=[3c738182a2855980b818b2a9df4cbf47]
@startjson
{
  "info": {
    "copyright": "Copyright 2018-2019 Open Connectivity Foundation, Inc. All rights reserved.",
    "license": "https://github.com/one-data-model/oneDM/blob/master/LICENSE",
    "title": "Alarm",
    "version": "2019-03-04"
  },
  "sdfObject": {
    "alarm": {
      "description": "This Resource describes the Properties associated with alarm status.",
      "sdfProperty": {
        "status": {
          "description": "This Property describes the status of the alarm: true - on, false -\\noff.",
          "type": "boolean",
          "writable": true
        },
        "duration": {
          "description": "This Property describes the alarm duration (seconds).",
          "type": "number",
          "minimum": 0,
          "writable": true
        },
        "time": {
          "description": "This Property describes the alarm time using ISO 8601 datetime format\\n(e.g: 2007-04-05T14:30Z, 2007-04-05T14:30+09:00).",
          "type": "string",
          "writable": true
        },
        "alarmtype": {
          "description": "The Alarm Type.",
          "type": "string",
          "enum": [
            "General",
            "Fire",
            "Flood",
            "Weather",
            "Security"
          ],
          "writable": false
        },
        "range": {
          "type": "array",
          "description": "The valid range for the Property in the Resource as a number. The\\nfirst value in the array is the minimum value, the second value in\\nthe array is the maximum value.",
          "writable": false,
          "minItems": 2,
          "maxItems": 2,
          "items": {
            "type": "number"
          }
        },
        "step": {
          "description": "Step value across the defined range an integer when the range is a\\nnumber.  This is the increment for valid values across the range; so\\nif range is 0.0..10.0 and step is 2.5 then valid values are\\n0.0,2.5,5.0,7.5,10.0.",
          "writable": false,
          "type": "number"
        },
        "precision": {
          "type": "number",
          "writable": false,
          "description": "When exposed the value in 'precision' provides a +/- tolerance\\nagainst the Properties in the Resource. Thus if a Property is UPDATED\\nto a value and that Property then RETRIEVED, the RETRIEVED value is\\nvalid if in the range of the set value +/- precision"
        }
      },
      "sdfRequired": [
        "#/sdfObject/alarm/sdfProperty/status"
      ]
    }
  }
}
@endjson

PlantUML version 1.2021.2(Sun Mar 07 13:10:27 EET 2021)
(GPL source distribution)
Java Runtime: OpenJDK Runtime Environment
JVM: OpenJDK 64-Bit Server VM
Default Encoding: UTF-8
Language: en
Country: FI
--></g></svg>