<?xml version="1.0" encoding="UTF-8" standalone="no"?><svg xmlns="http://www.w3.org/2000/svg" xmlns:xlink="http://www.w3.org/1999/xlink" contentScriptType="application/ecmascript" contentStyleType="text/css" height="775px" preserveAspectRatio="none" style="width:4216px;height:775px;" version="1.1" viewBox="0 0 4216 775" width="4216px" zoomAndPan="magnify"><defs/><g><rect fill="#FEFECE" height="40.9766" rx="5" ry="5" style="stroke:#FEFECE;stroke-width:1.5;" width="97" x="10" y="179"/><text fill="#000000" font-family="sans-serif" font-size="14" lengthAdjust="spacing" textLength="27" x="15" y="194.5352">info</text><text fill="#000000" font-family="sans-serif" font-size="14" lengthAdjust="spacing" textLength="0" x="102" y="194.5352"/><line style="stroke:#A80036;stroke-width:1.0;" x1="85" x2="85" y1="179" y2="199.4883"/><line style="stroke:#A80036;stroke-width:1.0;" x1="10" x2="107" y1="199.4883" y2="199.4883"/><text fill="#000000" font-family="sans-serif" font-size="14" lengthAdjust="spacing" textLength="65" x="15" y="215.0234">sdfObject</text><text fill="#000000" font-family="sans-serif" font-size="14" lengthAdjust="spacing" textLength="0" x="102" y="215.0234"/><line style="stroke:#A80036;stroke-width:1.0;" x1="85" x2="85" y1="199.4883" y2="219.9766"/><rect fill="none" height="40.9766" rx="5" ry="5" style="stroke:#A80036;stroke-width:1.5;" width="97" x="10" y="179"/><rect fill="#FEFECE" height="81.9531" rx="5" ry="5" style="stroke:#FEFECE;stroke-width:1.5;" width="655" x="144" y="123.5"/><text fill="#000000" font-family="sans-serif" font-size="14" lengthAdjust="spacing" textLength="65" x="149" y="139.0352">copyright</text><text fill="#000000" font-family="sans-serif" font-size="14" lengthAdjust="spacing" textLength="570" x="224" y="139.0352">copyright 2016-2017, 2019 Open Connectivity Foundation, Inc. All rights reserved.</text><line style="stroke:#A80036;stroke-width:1.0;" x1="219" x2="219" y1="123.5" y2="143.9883"/><line style="stroke:#A80036;stroke-width:1.0;" x1="144" x2="799" y1="143.9883" y2="143.9883"/><text fill="#000000" font-family="sans-serif" font-size="14" lengthAdjust="spacing" textLength="47" x="149" y="159.5234">license</text><text fill="#000000" font-family="sans-serif" font-size="14" lengthAdjust="spacing" textLength="462" x="224" y="159.5234">https://github.com/one-data-model/oneDM/blob/master/LICENSE</text><line style="stroke:#A80036;stroke-width:1.0;" x1="219" x2="219" y1="143.9883" y2="164.4766"/><line style="stroke:#A80036;stroke-width:1.0;" x1="144" x2="799" y1="164.4766" y2="164.4766"/><text fill="#000000" font-family="sans-serif" font-size="14" lengthAdjust="spacing" textLength="26" x="149" y="180.0117">title</text><text fill="#000000" font-family="sans-serif" font-size="14" lengthAdjust="spacing" textLength="119" x="224" y="180.0117">Operational State</text><line style="stroke:#A80036;stroke-width:1.0;" x1="219" x2="219" y1="164.4766" y2="184.9648"/><line style="stroke:#A80036;stroke-width:1.0;" x1="144" x2="799" y1="184.9648" y2="184.9648"/><text fill="#000000" font-family="sans-serif" font-size="14" lengthAdjust="spacing" textLength="50" x="149" y="200.5">version</text><text fill="#000000" font-family="sans-serif" font-size="14" lengthAdjust="spacing" textLength="88" x="224" y="200.5">2019-02-15</text><line style="stroke:#A80036;stroke-width:1.0;" x1="219" x2="219" y1="184.9648" y2="205.4531"/><rect fill="none" height="81.9531" rx="5" ry="5" style="stroke:#A80036;stroke-width:1.5;" width="655" x="144" y="123.5"/><rect fill="#FEFECE" height="20.4883" rx="5" ry="5" style="stroke:#FEFECE;stroke-width:1.5;" width="148" x="397.5" y="223.5"/><text fill="#000000" font-family="sans-serif" font-size="14" lengthAdjust="spacing" textLength="116" x="402.5" y="239.0352">operational.state</text><text fill="#000000" font-family="sans-serif" font-size="14" lengthAdjust="spacing" textLength="0" x="540.5" y="239.0352"/><line style="stroke:#A80036;stroke-width:1.0;" x1="523.5" x2="523.5" y1="223.5" y2="243.9883"/><rect fill="none" height="20.4883" rx="5" ry="5" style="stroke:#A80036;stroke-width:1.5;" width="148" x="397.5" y="223.5"/><rect fill="#FEFECE" height="238.8359" rx="5" ry="5" style="stroke:#FEFECE;stroke-width:1.5;" width="578" x="836" y="114"/><text fill="#000000" font-family="sans-serif" font-size="14" lengthAdjust="spacing" textLength="77" x="841" y="129.5352">description</text><text fill="#000000" font-family="sans-serif" font-size="14" lengthAdjust="spacing" textLength="459" x="930" y="129.5352">This Resource describes the operational and job states on a device.</text><text fill="#000000" font-family="sans-serif" font-size="14" lengthAdjust="spacing" textLength="439" x="930" y="146.0234">The states can be read or set, setting indicates a desired state. A</text><text fill="#000000" font-family="sans-serif" font-size="14" lengthAdjust="spacing" textLength="423" x="930" y="162.5117">device may reject an attempt to set a state that would result in</text><text fill="#000000" font-family="sans-serif" font-size="14" lengthAdjust="spacing" textLength="462" x="930" y="179">adverse operational characteristics. The Property "machineStates" is</text><text fill="#000000" font-family="sans-serif" font-size="14" lengthAdjust="spacing" textLength="384" x="930" y="195.4883">an array of the possible operational states. The Property</text><text fill="#000000" font-family="sans-serif" font-size="14" lengthAdjust="spacing" textLength="416" x="930" y="211.9766">"currentMachineState" is the current state of operation of the</text><text fill="#000000" font-family="sans-serif" font-size="14" lengthAdjust="spacing" textLength="422" x="930" y="228.4648">device. The Property "jobStates" is an array of the possible job</text><text fill="#000000" font-family="sans-serif" font-size="14" lengthAdjust="spacing" textLength="405" x="930" y="244.9531">states. The Property "currentJobState" is the currently active</text><text fill="#000000" font-family="sans-serif" font-size="14" lengthAdjust="spacing" textLength="479" x="930" y="261.4414">jobState. The Property "runningTime" is the ISO8601 encoded elapsed</text><text fill="#000000" font-family="sans-serif" font-size="14" lengthAdjust="spacing" textLength="461" x="930" y="277.9297">time in the current operational state. The Property "remainingTime"</text><text fill="#000000" font-family="sans-serif" font-size="14" lengthAdjust="spacing" textLength="397" x="930" y="294.418">is the ISO8601 encoded time till completion of the current</text><text fill="#000000" font-family="sans-serif" font-size="14" lengthAdjust="spacing" textLength="404" x="930" y="310.9063">operational state. The Property "progressPercentage" is the</text><text fill="#000000" font-family="sans-serif" font-size="14" lengthAdjust="spacing" textLength="337" x="930" y="327.3945">percentage completeness of the current jobState.</text><line style="stroke:#A80036;stroke-width:1.0;" x1="925" x2="925" y1="114" y2="332.3477"/><line style="stroke:#A80036;stroke-width:1.0;" x1="836" x2="1414" y1="332.3477" y2="332.3477"/><text fill="#000000" font-family="sans-serif" font-size="14" lengthAdjust="spacing" textLength="79" x="841" y="347.8828">sdfProperty</text><text fill="#000000" font-family="sans-serif" font-size="14" lengthAdjust="spacing" textLength="0" x="942" y="347.8828"/><line style="stroke:#A80036;stroke-width:1.0;" x1="925" x2="925" y1="332.3477" y2="352.8359"/><rect fill="none" height="238.8359" rx="5" ry="5" style="stroke:#A80036;stroke-width:1.5;" width="578" x="836" y="114"/><rect fill="#FEFECE" height="143.418" rx="5" ry="5" style="stroke:#FEFECE;stroke-width:1.5;" width="173" x="1451" y="222"/><text fill="#000000" font-family="sans-serif" font-size="14" lengthAdjust="spacing" textLength="141" x="1456" y="237.5352">currentMachineState</text><text fill="#000000" font-family="sans-serif" font-size="14" lengthAdjust="spacing" textLength="0" x="1619" y="237.5352"/><line style="stroke:#A80036;stroke-width:1.0;" x1="1602" x2="1602" y1="222" y2="242.4883"/><line style="stroke:#A80036;stroke-width:1.0;" x1="1451" x2="1624" y1="242.4883" y2="242.4883"/><text fill="#000000" font-family="sans-serif" font-size="14" lengthAdjust="spacing" textLength="106" x="1456" y="258.0234">currentJobState</text><text fill="#000000" font-family="sans-serif" font-size="14" lengthAdjust="spacing" textLength="0" x="1619" y="258.0234"/><line style="stroke:#A80036;stroke-width:1.0;" x1="1602" x2="1602" y1="242.4883" y2="262.9766"/><line style="stroke:#A80036;stroke-width:1.0;" x1="1451" x2="1624" y1="262.9766" y2="262.9766"/><text fill="#000000" font-family="sans-serif" font-size="14" lengthAdjust="spacing" textLength="99" x="1456" y="278.5117">machineStates</text><text fill="#000000" font-family="sans-serif" font-size="14" lengthAdjust="spacing" textLength="0" x="1619" y="278.5117"/><line style="stroke:#A80036;stroke-width:1.0;" x1="1602" x2="1602" y1="262.9766" y2="283.4648"/><line style="stroke:#A80036;stroke-width:1.0;" x1="1451" x2="1624" y1="283.4648" y2="283.4648"/><text fill="#000000" font-family="sans-serif" font-size="14" lengthAdjust="spacing" textLength="89" x="1456" y="299">runningTime</text><text fill="#000000" font-family="sans-serif" font-size="14" lengthAdjust="spacing" textLength="0" x="1619" y="299"/><line style="stroke:#A80036;stroke-width:1.0;" x1="1602" x2="1602" y1="283.4648" y2="303.9531"/><line style="stroke:#A80036;stroke-width:1.0;" x1="1451" x2="1624" y1="303.9531" y2="303.9531"/><text fill="#000000" font-family="sans-serif" font-size="14" lengthAdjust="spacing" textLength="104" x="1456" y="319.4883">remainingTime</text><text fill="#000000" font-family="sans-serif" font-size="14" lengthAdjust="spacing" textLength="0" x="1619" y="319.4883"/><line style="stroke:#A80036;stroke-width:1.0;" x1="1602" x2="1602" y1="303.9531" y2="324.4414"/><line style="stroke:#A80036;stroke-width:1.0;" x1="1451" x2="1624" y1="324.4414" y2="324.4414"/><text fill="#000000" font-family="sans-serif" font-size="14" lengthAdjust="spacing" textLength="137" x="1456" y="339.9766">progressPercentage</text><text fill="#000000" font-family="sans-serif" font-size="14" lengthAdjust="spacing" textLength="0" x="1619" y="339.9766"/><line style="stroke:#A80036;stroke-width:1.0;" x1="1602" x2="1602" y1="324.4414" y2="344.9297"/><line style="stroke:#A80036;stroke-width:1.0;" x1="1451" x2="1624" y1="344.9297" y2="344.9297"/><text fill="#000000" font-family="sans-serif" font-size="14" lengthAdjust="spacing" textLength="63" x="1456" y="360.4648">jobStates</text><text fill="#000000" font-family="sans-serif" font-size="14" lengthAdjust="spacing" textLength="0" x="1619" y="360.4648"/><line style="stroke:#A80036;stroke-width:1.0;" x1="1602" x2="1602" y1="344.9297" y2="365.418"/><rect fill="none" height="143.418" rx="5" ry="5" style="stroke:#A80036;stroke-width:1.5;" width="173" x="1451" y="222"/><rect fill="#FEFECE" height="40.9766" rx="5" ry="5" style="stroke:#FEFECE;stroke-width:1.5;" width="398" x="2670.5" y="10"/><text fill="#000000" font-family="sans-serif" font-size="14" lengthAdjust="spacing" textLength="77" x="2675.5" y="25.5352">description</text><text fill="#000000" font-family="sans-serif" font-size="14" lengthAdjust="spacing" textLength="301" x="2762.5" y="25.5352">The current state of operation of the device.</text><line style="stroke:#A80036;stroke-width:1.0;" x1="2757.5" x2="2757.5" y1="10" y2="30.4883"/><line style="stroke:#A80036;stroke-width:1.0;" x1="2670.5" x2="3068.5" y1="30.4883" y2="30.4883"/><text fill="#000000" font-family="sans-serif" font-size="14" lengthAdjust="spacing" textLength="29" x="2675.5" y="46.0234">type</text><text fill="#000000" font-family="sans-serif" font-size="14" lengthAdjust="spacing" textLength="40" x="2762.5" y="46.0234">string</text><line style="stroke:#A80036;stroke-width:1.0;" x1="2757.5" x2="2757.5" y1="30.4883" y2="50.9766"/><rect fill="none" height="40.9766" rx="5" ry="5" style="stroke:#A80036;stroke-width:1.5;" width="398" x="2670.5" y="10"/><rect fill="#FEFECE" height="40.9766" rx="5" ry="5" style="stroke:#FEFECE;stroke-width:1.5;" width="295" x="2722" y="69"/><text fill="#000000" font-family="sans-serif" font-size="14" lengthAdjust="spacing" textLength="77" x="2727" y="84.5352">description</text><text fill="#000000" font-family="sans-serif" font-size="14" lengthAdjust="spacing" textLength="198" x="2814" y="84.5352">The currently active jobState.</text><line style="stroke:#A80036;stroke-width:1.0;" x1="2809" x2="2809" y1="69" y2="89.4883"/><line style="stroke:#A80036;stroke-width:1.0;" x1="2722" x2="3017" y1="89.4883" y2="89.4883"/><text fill="#000000" font-family="sans-serif" font-size="14" lengthAdjust="spacing" textLength="29" x="2727" y="105.0234">type</text><text fill="#000000" font-family="sans-serif" font-size="14" lengthAdjust="spacing" textLength="40" x="2814" y="105.0234">string</text><line style="stroke:#A80036;stroke-width:1.0;" x1="2809" x2="2809" y1="89.4883" y2="109.9766"/><rect fill="none" height="40.9766" rx="5" ry="5" style="stroke:#A80036;stroke-width:1.5;" width="295" x="2722" y="69"/><rect fill="#FEFECE" height="81.9531" rx="5" ry="5" style="stroke:#FEFECE;stroke-width:1.5;" width="398" x="2670.5" y="128.5"/><text fill="#000000" font-family="sans-serif" font-size="14" lengthAdjust="spacing" textLength="77" x="2675.5" y="144.0352">description</text><text fill="#000000" font-family="sans-serif" font-size="14" lengthAdjust="spacing" textLength="301" x="2762.5" y="144.0352">The array of the possible operational states.</text><line style="stroke:#A80036;stroke-width:1.0;" x1="2757.5" x2="2757.5" y1="128.5" y2="148.9883"/><line style="stroke:#A80036;stroke-width:1.0;" x1="2670.5" x2="3068.5" y1="148.9883" y2="148.9883"/><text fill="#000000" font-family="sans-serif" font-size="14" lengthAdjust="spacing" textLength="37" x="2675.5" y="164.5234">items</text><text fill="#000000" font-family="sans-serif" font-size="14" lengthAdjust="spacing" textLength="0" x="2774.5" y="164.5234"/><line style="stroke:#A80036;stroke-width:1.0;" x1="2757.5" x2="2757.5" y1="148.9883" y2="169.4766"/><line style="stroke:#A80036;stroke-width:1.0;" x1="2670.5" x2="3068.5" y1="169.4766" y2="169.4766"/><text fill="#000000" font-family="sans-serif" font-size="14" lengthAdjust="spacing" textLength="55" x="2675.5" y="185.0117">writable</text><text fill="#000000" font-family="sans-serif" font-size="14" lengthAdjust="spacing" textLength="48" x="2762.5" y="185.0117">☐ false</text><line style="stroke:#A80036;stroke-width:1.0;" x1="2757.5" x2="2757.5" y1="169.4766" y2="189.9648"/><line style="stroke:#A80036;stroke-width:1.0;" x1="2670.5" x2="3068.5" y1="189.9648" y2="189.9648"/><text fill="#000000" font-family="sans-serif" font-size="14" lengthAdjust="spacing" textLength="29" x="2675.5" y="205.5">type</text><text fill="#000000" font-family="sans-serif" font-size="14" lengthAdjust="spacing" textLength="35" x="2762.5" y="205.5">array</text><line style="stroke:#A80036;stroke-width:1.0;" x1="2757.5" x2="2757.5" y1="189.9648" y2="210.4531"/><rect fill="none" height="81.9531" rx="5" ry="5" style="stroke:#A80036;stroke-width:1.5;" width="398" x="2670.5" y="128.5"/><rect fill="#FEFECE" height="20.4883" rx="5" ry="5" style="stroke:#FEFECE;stroke-width:1.5;" width="89" x="4115" y="148.5"/><text fill="#000000" font-family="sans-serif" font-size="14" lengthAdjust="spacing" textLength="29" x="4120" y="164.0352">type</text><text fill="#000000" font-family="sans-serif" font-size="14" lengthAdjust="spacing" textLength="40" x="4159" y="164.0352">string</text><line style="stroke:#A80036;stroke-width:1.0;" x1="4154" x2="4154" y1="148.5" y2="168.9883"/><rect fill="none" height="20.4883" rx="5" ry="5" style="stroke:#A80036;stroke-width:1.5;" width="89" x="4115" y="148.5"/><rect fill="#FEFECE" height="127.418" rx="5" ry="5" style="stroke:#FEFECE;stroke-width:1.5;" width="2417" x="1661" y="229"/><text fill="#000000" font-family="sans-serif" font-size="14" lengthAdjust="spacing" textLength="77" x="1666" y="244.5352">description</text><text fill="#000000" font-family="sans-serif" font-size="14" lengthAdjust="spacing" textLength="444" x="1753" y="244.5352">A string representing duration formatted as defined in ISO 8601.</text><text fill="#000000" font-family="sans-serif" font-size="14" lengthAdjust="spacing" textLength="401" x="1753" y="261.0234">Allowable formats are: P[n]Y[n]M[n]DT[n]H[n]M[n]S, P[n]W,</text><text fill="#000000" font-family="sans-serif" font-size="14" lengthAdjust="spacing" textLength="375" x="1753" y="277.5117">P[n]Y[n]-M[n]-DT[0-23]H[0-59]:M[0-59]:S, and P[n]W,</text><text fill="#000000" font-family="sans-serif" font-size="14" lengthAdjust="spacing" textLength="444" x="1753" y="294">P[n]Y[n]M[n]DT[0-23]H[0-59]M[0-59]S. P is mandatory, all other</text><text fill="#000000" font-family="sans-serif" font-size="14" lengthAdjust="spacing" textLength="366" x="1753" y="310.4883">elements are optional, time elements must follow a T.</text><line style="stroke:#A80036;stroke-width:1.0;" x1="1748" x2="1748" y1="229" y2="315.4414"/><line style="stroke:#A80036;stroke-width:1.0;" x1="1661" x2="4078" y1="315.4414" y2="315.4414"/><text fill="#000000" font-family="sans-serif" font-size="14" lengthAdjust="spacing" textLength="29" x="1666" y="330.9766">type</text><text fill="#000000" font-family="sans-serif" font-size="14" lengthAdjust="spacing" textLength="40" x="1753" y="330.9766">string</text><line style="stroke:#A80036;stroke-width:1.0;" x1="1748" x2="1748" y1="315.4414" y2="335.9297"/><line style="stroke:#A80036;stroke-width:1.0;" x1="1661" x2="4078" y1="335.9297" y2="335.9297"/><text fill="#000000" font-family="sans-serif" font-size="14" lengthAdjust="spacing" textLength="50" x="1666" y="351.4648">pattern</text><text fill="#000000" font-family="sans-serif" font-size="14" lengthAdjust="spacing" textLength="2320" x="1753" y="351.4648">^(P(?!$)([0-9]+Y)?([0-9]+M)?([0-9]+W)?([0-9]+D)?((T(?=[0-9]+[HMS])([0-9]+H)?([0-9]+M)?([0-9]+S)?)?))$|^(P[0-9]+W)$|^(P[0-9]{4})-(1[0-2]|0[1-9])-(3[0-1]|2[0-9]|1[0-9]|0[1-9])T(2[0-3]|1[0-9]|0[1-9]):([0-5][0-9]):([0-5][0-9])$|^(P[0-9]{4})(1[0-2]|0[1-9])(3[0-1]|2[0-9]|1[0-9]|0[1-9])T(2[0-3]|1[0-9]|0[1-9])([0-5][0-9])([0-5][0-9])$</text><line style="stroke:#A80036;stroke-width:1.0;" x1="1748" x2="1748" y1="335.9297" y2="356.418"/><rect fill="none" height="127.418" rx="5" ry="5" style="stroke:#A80036;stroke-width:1.5;" width="2417" x="1661" y="229"/><rect fill="#FEFECE" height="127.418" rx="5" ry="5" style="stroke:#FEFECE;stroke-width:1.5;" width="2417" x="1661" y="374"/><text fill="#000000" font-family="sans-serif" font-size="14" lengthAdjust="spacing" textLength="77" x="1666" y="389.5352">description</text><text fill="#000000" font-family="sans-serif" font-size="14" lengthAdjust="spacing" textLength="444" x="1753" y="389.5352">A string representing duration formatted as defined in ISO 8601.</text><text fill="#000000" font-family="sans-serif" font-size="14" lengthAdjust="spacing" textLength="401" x="1753" y="406.0234">Allowable formats are: P[n]Y[n]M[n]DT[n]H[n]M[n]S, P[n]W,</text><text fill="#000000" font-family="sans-serif" font-size="14" lengthAdjust="spacing" textLength="375" x="1753" y="422.5117">P[n]Y[n]-M[n]-DT[0-23]H[0-59]:M[0-59]:S, and P[n]W,</text><text fill="#000000" font-family="sans-serif" font-size="14" lengthAdjust="spacing" textLength="444" x="1753" y="439">P[n]Y[n]M[n]DT[0-23]H[0-59]M[0-59]S. P is mandatory, all other</text><text fill="#000000" font-family="sans-serif" font-size="14" lengthAdjust="spacing" textLength="366" x="1753" y="455.4883">elements are optional, time elements must follow a T.</text><line style="stroke:#A80036;stroke-width:1.0;" x1="1748" x2="1748" y1="374" y2="460.4414"/><line style="stroke:#A80036;stroke-width:1.0;" x1="1661" x2="4078" y1="460.4414" y2="460.4414"/><text fill="#000000" font-family="sans-serif" font-size="14" lengthAdjust="spacing" textLength="29" x="1666" y="475.9766">type</text><text fill="#000000" font-family="sans-serif" font-size="14" lengthAdjust="spacing" textLength="40" x="1753" y="475.9766">string</text><line style="stroke:#A80036;stroke-width:1.0;" x1="1748" x2="1748" y1="460.4414" y2="480.9297"/><line style="stroke:#A80036;stroke-width:1.0;" x1="1661" x2="4078" y1="480.9297" y2="480.9297"/><text fill="#000000" font-family="sans-serif" font-size="14" lengthAdjust="spacing" textLength="50" x="1666" y="496.4648">pattern</text><text fill="#000000" font-family="sans-serif" font-size="14" lengthAdjust="spacing" textLength="2320" x="1753" y="496.4648">^(P(?!$)([0-9]+Y)?([0-9]+M)?([0-9]+W)?([0-9]+D)?((T(?=[0-9]+[HMS])([0-9]+H)?([0-9]+M)?([0-9]+S)?)?))$|^(P[0-9]+W)$|^(P[0-9]{4})-(1[0-2]|0[1-9])-(3[0-1]|2[0-9]|1[0-9]|0[1-9])T(2[0-3]|1[0-9]|0[1-9]):([0-5][0-9]):([0-5][0-9])$|^(P[0-9]{4})(1[0-2]|0[1-9])(3[0-1]|2[0-9]|1[0-9]|0[1-9])T(2[0-3]|1[0-9]|0[1-9])([0-5][0-9])([0-5][0-9])$</text><line style="stroke:#A80036;stroke-width:1.0;" x1="1748" x2="1748" y1="480.9297" y2="501.418"/><rect fill="none" height="127.418" rx="5" ry="5" style="stroke:#A80036;stroke-width:1.5;" width="2417" x="1661" y="374"/><rect fill="#FEFECE" height="102.4414" rx="5" ry="5" style="stroke:#FEFECE;stroke-width:1.5;" width="464" x="2637.5" y="519.5"/><text fill="#000000" font-family="sans-serif" font-size="14" lengthAdjust="spacing" textLength="77" x="2642.5" y="535.0352">description</text><text fill="#000000" font-family="sans-serif" font-size="14" lengthAdjust="spacing" textLength="367" x="2729.5" y="535.0352">The percentage completeness of the current jobState.</text><line style="stroke:#A80036;stroke-width:1.0;" x1="2724.5" x2="2724.5" y1="519.5" y2="539.9883"/><line style="stroke:#A80036;stroke-width:1.0;" x1="2637.5" x2="3101.5" y1="539.9883" y2="539.9883"/><text fill="#000000" font-family="sans-serif" font-size="14" lengthAdjust="spacing" textLength="69" x="2642.5" y="555.5234">maximum</text><text fill="#000000" font-family="sans-serif" font-size="14" lengthAdjust="spacing" textLength="27" x="2729.5" y="555.5234">100</text><line style="stroke:#A80036;stroke-width:1.0;" x1="2724.5" x2="2724.5" y1="539.9883" y2="560.4766"/><line style="stroke:#A80036;stroke-width:1.0;" x1="2637.5" x2="3101.5" y1="560.4766" y2="560.4766"/><text fill="#000000" font-family="sans-serif" font-size="14" lengthAdjust="spacing" textLength="65" x="2642.5" y="576.0117">minimum</text><text fill="#000000" font-family="sans-serif" font-size="14" lengthAdjust="spacing" textLength="9" x="2729.5" y="576.0117">0</text><line style="stroke:#A80036;stroke-width:1.0;" x1="2724.5" x2="2724.5" y1="560.4766" y2="580.9648"/><line style="stroke:#A80036;stroke-width:1.0;" x1="2637.5" x2="3101.5" y1="580.9648" y2="580.9648"/><text fill="#000000" font-family="sans-serif" font-size="14" lengthAdjust="spacing" textLength="55" x="2642.5" y="596.5">writable</text><text fill="#000000" font-family="sans-serif" font-size="14" lengthAdjust="spacing" textLength="48" x="2729.5" y="596.5">☐ false</text><line style="stroke:#A80036;stroke-width:1.0;" x1="2724.5" x2="2724.5" y1="580.9648" y2="601.4531"/><line style="stroke:#A80036;stroke-width:1.0;" x1="2637.5" x2="3101.5" y1="601.4531" y2="601.4531"/><text fill="#000000" font-family="sans-serif" font-size="14" lengthAdjust="spacing" textLength="29" x="2642.5" y="616.9883">type</text><text fill="#000000" font-family="sans-serif" font-size="14" lengthAdjust="spacing" textLength="49" x="2729.5" y="616.9883">integer</text><line style="stroke:#A80036;stroke-width:1.0;" x1="2724.5" x2="2724.5" y1="601.4531" y2="621.9414"/><rect fill="none" height="102.4414" rx="5" ry="5" style="stroke:#A80036;stroke-width:1.5;" width="464" x="2637.5" y="519.5"/><rect fill="#FEFECE" height="81.9531" rx="5" ry="5" style="stroke:#FEFECE;stroke-width:1.5;" width="343" x="2698" y="639.5"/><text fill="#000000" font-family="sans-serif" font-size="14" lengthAdjust="spacing" textLength="77" x="2703" y="655.0352">description</text><text fill="#000000" font-family="sans-serif" font-size="14" lengthAdjust="spacing" textLength="246" x="2790" y="655.0352">The Array of the possible job states.</text><line style="stroke:#A80036;stroke-width:1.0;" x1="2785" x2="2785" y1="639.5" y2="659.9883"/><line style="stroke:#A80036;stroke-width:1.0;" x1="2698" x2="3041" y1="659.9883" y2="659.9883"/><text fill="#000000" font-family="sans-serif" font-size="14" lengthAdjust="spacing" textLength="37" x="2703" y="675.5234">items</text><text fill="#000000" font-family="sans-serif" font-size="14" lengthAdjust="spacing" textLength="0" x="2802" y="675.5234"/><line style="stroke:#A80036;stroke-width:1.0;" x1="2785" x2="2785" y1="659.9883" y2="680.4766"/><line style="stroke:#A80036;stroke-width:1.0;" x1="2698" x2="3041" y1="680.4766" y2="680.4766"/><text fill="#000000" font-family="sans-serif" font-size="14" lengthAdjust="spacing" textLength="55" x="2703" y="696.0117">writable</text><text fill="#000000" font-family="sans-serif" font-size="14" lengthAdjust="spacing" textLength="48" x="2790" y="696.0117">☐ false</text><line style="stroke:#A80036;stroke-width:1.0;" x1="2785" x2="2785" y1="680.4766" y2="700.9648"/><line style="stroke:#A80036;stroke-width:1.0;" x1="2698" x2="3041" y1="700.9648" y2="700.9648"/><text fill="#000000" font-family="sans-serif" font-size="14" lengthAdjust="spacing" textLength="29" x="2703" y="716.5">type</text><text fill="#000000" font-family="sans-serif" font-size="14" lengthAdjust="spacing" textLength="35" x="2790" y="716.5">array</text><line style="stroke:#A80036;stroke-width:1.0;" x1="2785" x2="2785" y1="700.9648" y2="721.4531"/><rect fill="none" height="81.9531" rx="5" ry="5" style="stroke:#A80036;stroke-width:1.5;" width="343" x="2698" y="639.5"/><rect fill="#FEFECE" height="20.4883" rx="5" ry="5" style="stroke:#FEFECE;stroke-width:1.5;" width="89" x="4115" y="659.5"/><text fill="#000000" font-family="sans-serif" font-size="14" lengthAdjust="spacing" textLength="29" x="4120" y="675.0352">type</text><text fill="#000000" font-family="sans-serif" font-size="14" lengthAdjust="spacing" textLength="40" x="4159" y="675.0352">string</text><line style="stroke:#A80036;stroke-width:1.0;" x1="4154" x2="4154" y1="659.5" y2="679.9883"/><rect fill="none" height="20.4883" rx="5" ry="5" style="stroke:#A80036;stroke-width:1.5;" width="89" x="4115" y="659.5"/><path d="M95,188.5 L108,188.5 C117.3442,188.5 126.8208,188.4198 136.3833,188.2688 " fill="none" style="stroke:#A80036;stroke-width:1.0;stroke-dasharray:3.0,3.0;"/><path d="M136.4378,191.3434 L138.6892,188.2279 L136.3288,185.1942 L144.0697,188.1326 L136.4378,191.3434 " fill="#A80036" style="stroke:#A80036;stroke-width:1.0;"/><ellipse cx="95" cy="188.5" fill="#A80036" rx="3" ry="3" style="stroke:#A80036;stroke-width:1.0;stroke-dasharray:3.0,3.0;"/><path d="M1612,231.5 L1625,231.5 C1703.1009,231.5 1600.9762,109.4689 1661,59.5 C1735.8846,-2.8403 2338.313,10.0301 2663.1348,21.7794 " fill="none" style="stroke:#A80036;stroke-width:1.0;stroke-dasharray:3.0,3.0;"/><path d="M2663.0239,24.8278 L2665.4211,21.8626 L2663.2458,18.7311 L2670.7558,22.0567 L2663.0239,24.8278 " fill="#A80036" style="stroke:#A80036;stroke-width:1.0;"/><ellipse cx="1612" cy="231.5" fill="#A80036" rx="3" ry="3" style="stroke:#A80036;stroke-width:1.0;stroke-dasharray:3.0,3.0;"/><path d="M1612,251.5 L1625,251.5 C1685.8094,251.5 1613.1363,157.008 1661,119.5 C1741.9306,56.0793 2407.3505,72.2008 2714.5854,83.2303 " fill="none" style="stroke:#A80036;stroke-width:1.0;stroke-dasharray:3.0,3.0;"/><path d="M2714.4751,86.2859 L2716.8772,83.3131 L2714.6958,80.1747 L2722.2245,83.5061 L2714.4751,86.2859 " fill="#A80036" style="stroke:#A80036;stroke-width:1.0;"/><ellipse cx="1612" cy="251.5" fill="#A80036" rx="3" ry="3" style="stroke:#A80036;stroke-width:1.0;stroke-dasharray:3.0,3.0;"/><path d="M3057,158.5 L3070,158.5 C3469.7361,158.5 3952.0078,158.5 4107.8176,158.5 " fill="none" style="stroke:#A80036;stroke-width:1.0;stroke-dasharray:3.0,3.0;"/><path d="M4107.8176,161.544 L4110.1006,158.5 L4107.8176,155.456 L4115.4276,158.5 L4107.8176,161.544 " fill="#A80036" style="stroke:#A80036;stroke-width:1.0;"/><ellipse cx="3057" cy="158.5" fill="#A80036" rx="3" ry="3" style="stroke:#A80036;stroke-width:1.0;stroke-dasharray:3.0,3.0;"/><path d="M1612,272.5 L1625,272.5 C1653.4757,272.5 1636.1168,233.3453 1661,219.5 C1827.2979,126.9701 2364.0845,140.4358 2663.0772,156.1634 " fill="none" style="stroke:#A80036;stroke-width:1.0;stroke-dasharray:3.0,3.0;"/><path d="M2662.9097,159.3222 L2665.4463,156.289 L2663.2447,153.0046 L2670.9742,156.5822 L2662.9097,159.3222 " fill="#A80036" style="stroke:#A80036;stroke-width:1.0;"/><ellipse cx="1612" cy="272.5" fill="#A80036" rx="3" ry="3" style="stroke:#A80036;stroke-width:1.0;stroke-dasharray:3.0,3.0;"/><path d="M1612,292.5 L1625,292.5 C1634.4794,292.5 1643.9994,292.5 1653.5558,292.5 " fill="none" style="stroke:#A80036;stroke-width:1.0;stroke-dasharray:3.0,3.0;"/><path d="M1653.5558,295.5687 L1655.8574,292.5 L1653.5558,289.4313 L1661.2276,292.5 L1653.5558,295.5687 " fill="#A80036" style="stroke:#A80036;stroke-width:1.0;"/><ellipse cx="1612" cy="292.5" fill="#A80036" rx="3" ry="3" style="stroke:#A80036;stroke-width:1.0;stroke-dasharray:3.0,3.0;"/><path d="M1612,313.5 L1625,313.5 C1652.7449,313.5 1636.7621,350.9981 1661,364.5 C1664.4953,366.4471 1668.0054,368.3692 1671.53,370.2667 " fill="none" style="stroke:#A80036;stroke-width:1.0;stroke-dasharray:3.0,3.0;"/><path d="M1670.0825,372.985 L1673.5687,371.3523 L1672.9775,367.5484 L1678.3257,373.8854 L1670.0825,372.985 " fill="#A80036" style="stroke:#A80036;stroke-width:1.0;"/><ellipse cx="1612" cy="313.5" fill="#A80036" rx="3" ry="3" style="stroke:#A80036;stroke-width:1.0;stroke-dasharray:3.0,3.0;"/><path d="M1612,334.5 L1625,334.5 C1704.8418,334.5 1600.4162,458.4969 1661,510.5 C1801.2342,630.8723 2319.7586,614.0756 2630.043,591.8339 " fill="none" style="stroke:#A80036;stroke-width:1.0;stroke-dasharray:3.0,3.0;"/><path d="M2630.2668,594.9328 L2632.3672,591.666 L2629.8191,588.7349 L2637.7903,591.2743 L2630.2668,594.9328 " fill="#A80036" style="stroke:#A80036;stroke-width:1.0;"/><ellipse cx="1612" cy="334.5" fill="#A80036" rx="3" ry="3" style="stroke:#A80036;stroke-width:1.0;stroke-dasharray:3.0,3.0;"/><path d="M3030,669.5 L3043,669.5 C3453.5996,669.5 3949.175,669.5 4107.6572,669.5 " fill="none" style="stroke:#A80036;stroke-width:1.0;stroke-dasharray:3.0,3.0;"/><path d="M4107.6572,672.5945 L4109.9781,669.5 L4107.6572,666.4055 L4115.3934,669.5 L4107.6572,672.5945 " fill="#A80036" style="stroke:#A80036;stroke-width:1.0;"/><ellipse cx="3030" cy="669.5" fill="#A80036" rx="3" ry="3" style="stroke:#A80036;stroke-width:1.0;stroke-dasharray:3.0,3.0;"/><path d="M1612,354.5 L1625,354.5 C1686.8529,354.5 1615.375,588.7372 1661,630.5 C1806.7013,763.8675 2391.0813,728.1612 2690.3739,699.8967 " fill="none" style="stroke:#A80036;stroke-width:1.0;stroke-dasharray:3.0,3.0;"/><path d="M2690.6739,703.0542 L2692.742,699.6717 L2690.0739,696.7392 L2698.2676,699.1467 L2690.6739,703.0542 " fill="#A80036" style="stroke:#A80036;stroke-width:1.0;"/><ellipse cx="1612" cy="354.5" fill="#A80036" rx="3" ry="3" style="stroke:#A80036;stroke-width:1.0;stroke-dasharray:3.0,3.0;"/><path d="M1402,293.5 L1415,293.5 C1424.2756,293.5 1433.9479,293.5 1443.6097,293.5 " fill="none" style="stroke:#A80036;stroke-width:1.0;stroke-dasharray:3.0,3.0;"/><path d="M1443.6097,296.5954 L1445.9312,293.5 L1443.6097,290.4046 L1451.3482,293.5 L1443.6097,296.5954 " fill="#A80036" style="stroke:#A80036;stroke-width:1.0;"/><ellipse cx="1402" cy="293.5" fill="#A80036" rx="3" ry="3" style="stroke:#A80036;stroke-width:1.0;stroke-dasharray:3.0,3.0;"/><path d="M534,233.5 L547,233.5 C638.5459,233.5 738.2547,233.5 828.6575,233.5 " fill="none" style="stroke:#A80036;stroke-width:1.0;stroke-dasharray:3.0,3.0;"/><path d="M828.6575,236.5408 L830.9381,233.5 L828.6575,230.4592 L836.2594,233.5 L828.6575,236.5408 " fill="#A80036" style="stroke:#A80036;stroke-width:1.0;"/><ellipse cx="534" cy="233.5" fill="#A80036" rx="3" ry="3" style="stroke:#A80036;stroke-width:1.0;stroke-dasharray:3.0,3.0;"/><path d="M95,209.5 L108,209.5 C124.1536,209.5 127.924,212.9191 144,214.5 C227.7837,222.7391 324.0218,227.803 390.2898,230.6088 " fill="none" style="stroke:#A80036;stroke-width:1.0;stroke-dasharray:3.0,3.0;"/><path d="M390.164,233.6191 L392.5476,230.7031 L390.4156,227.5984 L397.8156,230.9232 L390.164,233.6191 " fill="#A80036" style="stroke:#A80036;stroke-width:1.0;"/><ellipse cx="95" cy="209.5" fill="#A80036" rx="3" ry="3" style="stroke:#A80036;stroke-width:1.0;stroke-dasharray:3.0,3.0;"/><!--MD5=[00728ea8e5d022e85e4b50977c0af4f5]
@startjson
{
  "info": {
    "copyright": "copyright 2016-2017, 2019 Open Connectivity Foundation, Inc. All rights reserved.",
    "license": "https://github.com/one-data-model/oneDM/blob/master/LICENSE",
    "title": "Operational State",
    "version": "2019-02-15"
  },
  "sdfObject": {
    "operational.state": {
      "description": "This Resource describes the operational and job states on a device.\\nThe states can be read or set, setting indicates a desired state. A\\ndevice may reject an attempt to set a state that would result in\\nadverse operational characteristics. The Property \"machineStates\" is\\nan array of the possible operational states. The Property\\n\"currentMachineState\" is the current state of operation of the\\ndevice. The Property \"jobStates\" is an array of the possible job\\nstates. The Property \"currentJobState\" is the currently active\\njobState. The Property \"runningTime\" is the ISO8601 encoded elapsed\\ntime in the current operational state. The Property \"remainingTime\"\\nis the ISO8601 encoded time till completion of the current\\noperational state. The Property \"progressPercentage\" is the\\npercentage completeness of the current jobState.",
      "sdfProperty": {
        "currentMachineState": {
          "description": "The current state of operation of the device.",
          "type": "string"
        },
        "currentJobState": {
          "description": "The currently active jobState.",
          "type": "string"
        },
        "machineStates": {
          "description": "The array of the possible operational states.",
          "items": {
            "type": "string"
          },
          "writable": false,
          "type": "array"
        },
        "runningTime": {
          "description": "A string representing duration formatted as defined in ISO 8601.\\nAllowable formats are: P[n]Y[n]M[n]DT[n]H[n]M[n]S, P[n]W,\\nP[n]Y[n]-M[n]-DT[0-23]H[0-59]:M[0-59]:S, and P[n]W,\\nP[n]Y[n]M[n]DT[0-23]H[0-59]M[0-59]S. P is mandatory, all other\\nelements are optional, time elements must follow a T.",
          "type": "string",
          "pattern": "^(P(?!$)([0-9]+Y)?([0-9]+M)?([0-9]+W)?([0-9]+D)?((T(?=[0-9]+[HMS])([0-9]+H)?([0-9]+M)?([0-9]+S)?)?))$|^(P[0-9]+W)$|^(P[0-9]{4})-(1[0-2]|0[1-9])-(3[0-1]|2[0-9]|1[0-9]|0[1-9])T(2[0-3]|1[0-9]|0[1-9]):([0-5][0-9]):([0-5][0-9])$|^(P[0-9]{4})(1[0-2]|0[1-9])(3[0-1]|2[0-9]|1[0-9]|0[1-9])T(2[0-3]|1[0-9]|0[1-9])([0-5][0-9])([0-5][0-9])$"
        },
        "remainingTime": {
          "description": "A string representing duration formatted as defined in ISO 8601.\\nAllowable formats are: P[n]Y[n]M[n]DT[n]H[n]M[n]S, P[n]W,\\nP[n]Y[n]-M[n]-DT[0-23]H[0-59]:M[0-59]:S, and P[n]W,\\nP[n]Y[n]M[n]DT[0-23]H[0-59]M[0-59]S. P is mandatory, all other\\nelements are optional, time elements must follow a T.",
          "type": "string",
          "pattern": "^(P(?!$)([0-9]+Y)?([0-9]+M)?([0-9]+W)?([0-9]+D)?((T(?=[0-9]+[HMS])([0-9]+H)?([0-9]+M)?([0-9]+S)?)?))$|^(P[0-9]+W)$|^(P[0-9]{4})-(1[0-2]|0[1-9])-(3[0-1]|2[0-9]|1[0-9]|0[1-9])T(2[0-3]|1[0-9]|0[1-9]):([0-5][0-9]):([0-5][0-9])$|^(P[0-9]{4})(1[0-2]|0[1-9])(3[0-1]|2[0-9]|1[0-9]|0[1-9])T(2[0-3]|1[0-9]|0[1-9])([0-5][0-9])([0-5][0-9])$"
        },
        "progressPercentage": {
          "description": "The percentage completeness of the current jobState.",
          "maximum": 100,
          "minimum": 0,
          "writable": false,
          "type": "integer"
        },
        "jobStates": {
          "description": "The Array of the possible job states.",
          "items": {
            "type": "string"
          },
          "writable": false,
          "type": "array"
        }
      }
    }
  }
}
@endjson

PlantUML version 1.2021.2(Sun Mar 07 13:10:27 EET 2021)
(GPL source distribution)
Java Runtime: OpenJDK Runtime Environment
JVM: OpenJDK 64-Bit Server VM
Default Encoding: UTF-8
Language: en
Country: FI
--></g></svg>