<?xml version="1.0" encoding="UTF-8" standalone="no"?><svg xmlns="http://www.w3.org/2000/svg" xmlns:xlink="http://www.w3.org/1999/xlink" contentScriptType="application/ecmascript" contentStyleType="text/css" height="556px" preserveAspectRatio="none" style="width:2526px;height:556px;" version="1.1" viewBox="0 0 2526 556" width="2526px" zoomAndPan="magnify"><defs/><g><rect fill="#FEFECE" height="40.9766" rx="5" ry="5" style="stroke:#FEFECE;stroke-width:1.5;" width="97" x="10" y="245.5"/><text fill="#000000" font-family="sans-serif" font-size="14" lengthAdjust="spacing" textLength="27" x="15" y="261.0352">info</text><text fill="#000000" font-family="sans-serif" font-size="14" lengthAdjust="spacing" textLength="0" x="102" y="261.0352"/><line style="stroke:#A80036;stroke-width:1.0;" x1="85" x2="85" y1="245.5" y2="265.9883"/><line style="stroke:#A80036;stroke-width:1.0;" x1="10" x2="107" y1="265.9883" y2="265.9883"/><text fill="#000000" font-family="sans-serif" font-size="14" lengthAdjust="spacing" textLength="65" x="15" y="281.5234">sdfObject</text><text fill="#000000" font-family="sans-serif" font-size="14" lengthAdjust="spacing" textLength="0" x="102" y="281.5234"/><line style="stroke:#A80036;stroke-width:1.0;" x1="85" x2="85" y1="265.9883" y2="286.4766"/><rect fill="none" height="40.9766" rx="5" ry="5" style="stroke:#A80036;stroke-width:1.5;" width="97" x="10" y="245.5"/><rect fill="#FEFECE" height="81.9531" rx="5" ry="5" style="stroke:#FEFECE;stroke-width:1.5;" width="614" x="144" y="190"/><text fill="#000000" font-family="sans-serif" font-size="14" lengthAdjust="spacing" textLength="65" x="149" y="205.5352">copyright</text><text fill="#000000" font-family="sans-serif" font-size="14" lengthAdjust="spacing" textLength="529" x="224" y="205.5352">Copyright 2016-2019 Open Connectivity Foundation, Inc. All rights reserved.</text><line style="stroke:#A80036;stroke-width:1.0;" x1="219" x2="219" y1="190" y2="210.4883"/><line style="stroke:#A80036;stroke-width:1.0;" x1="144" x2="758" y1="210.4883" y2="210.4883"/><text fill="#000000" font-family="sans-serif" font-size="14" lengthAdjust="spacing" textLength="47" x="149" y="226.0234">license</text><text fill="#000000" font-family="sans-serif" font-size="14" lengthAdjust="spacing" textLength="462" x="224" y="226.0234">https://github.com/one-data-model/oneDM/blob/master/LICENSE</text><line style="stroke:#A80036;stroke-width:1.0;" x1="219" x2="219" y1="210.4883" y2="230.9766"/><line style="stroke:#A80036;stroke-width:1.0;" x1="144" x2="758" y1="230.9766" y2="230.9766"/><text fill="#000000" font-family="sans-serif" font-size="14" lengthAdjust="spacing" textLength="26" x="149" y="246.5117">title</text><text fill="#000000" font-family="sans-serif" font-size="14" lengthAdjust="spacing" textLength="182" x="224" y="246.5117">Exercise for Glucose Meter</text><line style="stroke:#A80036;stroke-width:1.0;" x1="219" x2="219" y1="230.9766" y2="251.4648"/><line style="stroke:#A80036;stroke-width:1.0;" x1="144" x2="758" y1="251.4648" y2="251.4648"/><text fill="#000000" font-family="sans-serif" font-size="14" lengthAdjust="spacing" textLength="50" x="149" y="267">version</text><text fill="#000000" font-family="sans-serif" font-size="14" lengthAdjust="spacing" textLength="88" x="224" y="267">2019-03-22</text><line style="stroke:#A80036;stroke-width:1.0;" x1="219" x2="219" y1="251.4648" y2="271.9531"/><rect fill="none" height="81.9531" rx="5" ry="5" style="stroke:#A80036;stroke-width:1.5;" width="614" x="144" y="190"/><rect fill="#FEFECE" height="20.4883" rx="5" ry="5" style="stroke:#FEFECE;stroke-width:1.5;" width="146" x="378" y="290"/><text fill="#000000" font-family="sans-serif" font-size="14" lengthAdjust="spacing" textLength="114" x="383" y="305.5352">glucose.exercise</text><text fill="#000000" font-family="sans-serif" font-size="14" lengthAdjust="spacing" textLength="0" x="519" y="305.5352"/><line style="stroke:#A80036;stroke-width:1.0;" x1="502" x2="502" y1="290" y2="310.4883"/><rect fill="none" height="20.4883" rx="5" ry="5" style="stroke:#A80036;stroke-width:1.5;" width="146" x="378" y="290"/><rect fill="#FEFECE" height="110.9297" rx="5" ry="5" style="stroke:#FEFECE;stroke-width:1.5;" width="573" x="795" y="244.5"/><text fill="#000000" font-family="sans-serif" font-size="14" lengthAdjust="spacing" textLength="77" x="800" y="260.0352">description</text><text fill="#000000" font-family="sans-serif" font-size="14" lengthAdjust="spacing" textLength="431" x="893" y="260.0352">This Resource describes the Properties associated with glucose</text><text fill="#000000" font-family="sans-serif" font-size="14" lengthAdjust="spacing" textLength="470" x="893" y="276.5234">exercise. The exercise Property has a default unit of percentage. The</text><text fill="#000000" font-family="sans-serif" font-size="14" lengthAdjust="spacing" textLength="415" x="893" y="293.0117">exercise Property is a read-only value that is provided by the</text><text fill="#000000" font-family="sans-serif" font-size="14" lengthAdjust="spacing" textLength="47" x="893" y="309.5">Server.</text><line style="stroke:#A80036;stroke-width:1.0;" x1="888" x2="888" y1="244.5" y2="314.4531"/><line style="stroke:#A80036;stroke-width:1.0;" x1="795" x2="1368" y1="314.4531" y2="314.4531"/><text fill="#000000" font-family="sans-serif" font-size="14" lengthAdjust="spacing" textLength="79" x="800" y="329.9883">sdfProperty</text><text fill="#000000" font-family="sans-serif" font-size="14" lengthAdjust="spacing" textLength="0" x="905" y="329.9883"/><line style="stroke:#A80036;stroke-width:1.0;" x1="888" x2="888" y1="314.4531" y2="334.9414"/><line style="stroke:#A80036;stroke-width:1.0;" x1="795" x2="1368" y1="334.9414" y2="334.9414"/><text fill="#000000" font-family="sans-serif" font-size="14" lengthAdjust="spacing" textLength="83" x="800" y="350.4766">sdfRequired</text><text fill="#000000" font-family="sans-serif" font-size="14" lengthAdjust="spacing" textLength="0" x="905" y="350.4766"/><line style="stroke:#A80036;stroke-width:1.0;" x1="888" x2="888" y1="334.9414" y2="355.4297"/><rect fill="none" height="110.9297" rx="5" ry="5" style="stroke:#A80036;stroke-width:1.5;" width="573" x="795" y="244.5"/><rect fill="#FEFECE" height="81.9531" rx="5" ry="5" style="stroke:#FEFECE;stroke-width:1.5;" width="95" x="1538.5" y="243"/><text fill="#000000" font-family="sans-serif" font-size="14" lengthAdjust="spacing" textLength="57" x="1543.5" y="258.5352">exercise</text><text fill="#000000" font-family="sans-serif" font-size="14" lengthAdjust="spacing" textLength="0" x="1628.5" y="258.5352"/><line style="stroke:#A80036;stroke-width:1.0;" x1="1611.5" x2="1611.5" y1="243" y2="263.4883"/><line style="stroke:#A80036;stroke-width:1.0;" x1="1538.5" x2="1633.5" y1="263.4883" y2="263.4883"/><text fill="#000000" font-family="sans-serif" font-size="14" lengthAdjust="spacing" textLength="40" x="1543.5" y="279.0234">range</text><text fill="#000000" font-family="sans-serif" font-size="14" lengthAdjust="spacing" textLength="0" x="1628.5" y="279.0234"/><line style="stroke:#A80036;stroke-width:1.0;" x1="1611.5" x2="1611.5" y1="263.4883" y2="283.9766"/><line style="stroke:#A80036;stroke-width:1.0;" x1="1538.5" x2="1633.5" y1="283.9766" y2="283.9766"/><text fill="#000000" font-family="sans-serif" font-size="14" lengthAdjust="spacing" textLength="29" x="1543.5" y="299.5117">step</text><text fill="#000000" font-family="sans-serif" font-size="14" lengthAdjust="spacing" textLength="0" x="1628.5" y="299.5117"/><line style="stroke:#A80036;stroke-width:1.0;" x1="1611.5" x2="1611.5" y1="283.9766" y2="304.4648"/><line style="stroke:#A80036;stroke-width:1.0;" x1="1538.5" x2="1633.5" y1="304.4648" y2="304.4648"/><text fill="#000000" font-family="sans-serif" font-size="14" lengthAdjust="spacing" textLength="63" x="1543.5" y="320">precision</text><text fill="#000000" font-family="sans-serif" font-size="14" lengthAdjust="spacing" textLength="0" x="1628.5" y="320"/><line style="stroke:#A80036;stroke-width:1.0;" x1="1611.5" x2="1611.5" y1="304.4648" y2="324.9531"/><rect fill="none" height="81.9531" rx="5" ry="5" style="stroke:#A80036;stroke-width:1.5;" width="95" x="1538.5" y="243"/><rect fill="#FEFECE" height="102.4414" rx="5" ry="5" style="stroke:#FEFECE;stroke-width:1.5;" width="418" x="1880" y="10"/><text fill="#000000" font-family="sans-serif" font-size="14" lengthAdjust="spacing" textLength="77" x="1885" y="25.5352">description</text><text fill="#000000" font-family="sans-serif" font-size="14" lengthAdjust="spacing" textLength="321" x="1972" y="25.5352">The level of exercise undertaken in percentage</text><line style="stroke:#A80036;stroke-width:1.0;" x1="1967" x2="1967" y1="10" y2="30.4883"/><line style="stroke:#A80036;stroke-width:1.0;" x1="1880" x2="2298" y1="30.4883" y2="30.4883"/><text fill="#000000" font-family="sans-serif" font-size="14" lengthAdjust="spacing" textLength="69" x="1885" y="46.0234">maximum</text><text fill="#000000" font-family="sans-serif" font-size="14" lengthAdjust="spacing" textLength="27" x="1972" y="46.0234">100</text><line style="stroke:#A80036;stroke-width:1.0;" x1="1967" x2="1967" y1="30.4883" y2="50.9766"/><line style="stroke:#A80036;stroke-width:1.0;" x1="1880" x2="2298" y1="50.9766" y2="50.9766"/><text fill="#000000" font-family="sans-serif" font-size="14" lengthAdjust="spacing" textLength="65" x="1885" y="66.5117">minimum</text><text fill="#000000" font-family="sans-serif" font-size="14" lengthAdjust="spacing" textLength="9" x="1972" y="66.5117">0</text><line style="stroke:#A80036;stroke-width:1.0;" x1="1967" x2="1967" y1="50.9766" y2="71.4648"/><line style="stroke:#A80036;stroke-width:1.0;" x1="1880" x2="2298" y1="71.4648" y2="71.4648"/><text fill="#000000" font-family="sans-serif" font-size="14" lengthAdjust="spacing" textLength="55" x="1885" y="87">writable</text><text fill="#000000" font-family="sans-serif" font-size="14" lengthAdjust="spacing" textLength="48" x="1972" y="87">☐ false</text><line style="stroke:#A80036;stroke-width:1.0;" x1="1967" x2="1967" y1="71.4648" y2="91.9531"/><line style="stroke:#A80036;stroke-width:1.0;" x1="1880" x2="2298" y1="91.9531" y2="91.9531"/><text fill="#000000" font-family="sans-serif" font-size="14" lengthAdjust="spacing" textLength="29" x="1885" y="107.4883">type</text><text fill="#000000" font-family="sans-serif" font-size="14" lengthAdjust="spacing" textLength="54" x="1972" y="107.4883">number</text><line style="stroke:#A80036;stroke-width:1.0;" x1="1967" x2="1967" y1="91.9531" y2="112.4414"/><rect fill="none" height="102.4414" rx="5" ry="5" style="stroke:#A80036;stroke-width:1.5;" width="418" x="1880" y="10"/><rect fill="#FEFECE" height="155.9063" rx="5" ry="5" style="stroke:#FEFECE;stroke-width:1.5;" width="548" x="1815" y="130"/><text fill="#000000" font-family="sans-serif" font-size="14" lengthAdjust="spacing" textLength="29" x="1820" y="145.5352">type</text><text fill="#000000" font-family="sans-serif" font-size="14" lengthAdjust="spacing" textLength="35" x="1907" y="145.5352">array</text><line style="stroke:#A80036;stroke-width:1.0;" x1="1902" x2="1902" y1="130" y2="150.4883"/><line style="stroke:#A80036;stroke-width:1.0;" x1="1815" x2="2363" y1="150.4883" y2="150.4883"/><text fill="#000000" font-family="sans-serif" font-size="14" lengthAdjust="spacing" textLength="77" x="1820" y="166.0234">description</text><text fill="#000000" font-family="sans-serif" font-size="14" lengthAdjust="spacing" textLength="451" x="1907" y="166.0234">The valid range for the Property in the Resource as a number. The</text><text fill="#000000" font-family="sans-serif" font-size="14" lengthAdjust="spacing" textLength="439" x="1907" y="182.5117">first value in the array is the minimum value, the second value in</text><text fill="#000000" font-family="sans-serif" font-size="14" lengthAdjust="spacing" textLength="219" x="1907" y="199">the array is the maximum value.</text><line style="stroke:#A80036;stroke-width:1.0;" x1="1902" x2="1902" y1="150.4883" y2="203.9531"/><line style="stroke:#A80036;stroke-width:1.0;" x1="1815" x2="2363" y1="203.9531" y2="203.9531"/><text fill="#000000" font-family="sans-serif" font-size="14" lengthAdjust="spacing" textLength="55" x="1820" y="219.4883">writable</text><text fill="#000000" font-family="sans-serif" font-size="14" lengthAdjust="spacing" textLength="48" x="1907" y="219.4883">☐ false</text><line style="stroke:#A80036;stroke-width:1.0;" x1="1902" x2="1902" y1="203.9531" y2="224.4414"/><line style="stroke:#A80036;stroke-width:1.0;" x1="1815" x2="2363" y1="224.4414" y2="224.4414"/><text fill="#000000" font-family="sans-serif" font-size="14" lengthAdjust="spacing" textLength="63" x="1820" y="239.9766">minItems</text><text fill="#000000" font-family="sans-serif" font-size="14" lengthAdjust="spacing" textLength="9" x="1907" y="239.9766">2</text><line style="stroke:#A80036;stroke-width:1.0;" x1="1902" x2="1902" y1="224.4414" y2="244.9297"/><line style="stroke:#A80036;stroke-width:1.0;" x1="1815" x2="2363" y1="244.9297" y2="244.9297"/><text fill="#000000" font-family="sans-serif" font-size="14" lengthAdjust="spacing" textLength="67" x="1820" y="260.4648">maxItems</text><text fill="#000000" font-family="sans-serif" font-size="14" lengthAdjust="spacing" textLength="9" x="1907" y="260.4648">2</text><line style="stroke:#A80036;stroke-width:1.0;" x1="1902" x2="1902" y1="244.9297" y2="265.418"/><line style="stroke:#A80036;stroke-width:1.0;" x1="1815" x2="2363" y1="265.418" y2="265.418"/><text fill="#000000" font-family="sans-serif" font-size="14" lengthAdjust="spacing" textLength="37" x="1820" y="280.9531">items</text><text fill="#000000" font-family="sans-serif" font-size="14" lengthAdjust="spacing" textLength="0" x="1919" y="280.9531"/><line style="stroke:#A80036;stroke-width:1.0;" x1="1902" x2="1902" y1="265.418" y2="285.9063"/><rect fill="none" height="155.9063" rx="5" ry="5" style="stroke:#A80036;stroke-width:1.5;" width="548" x="1815" y="130"/><rect fill="#FEFECE" height="20.4883" rx="5" ry="5" style="stroke:#FEFECE;stroke-width:1.5;" width="103" x="2411" y="263"/><text fill="#000000" font-family="sans-serif" font-size="14" lengthAdjust="spacing" textLength="29" x="2416" y="278.5352">type</text><text fill="#000000" font-family="sans-serif" font-size="14" lengthAdjust="spacing" textLength="54" x="2455" y="278.5352">number</text><line style="stroke:#A80036;stroke-width:1.0;" x1="2450" x2="2450" y1="263" y2="283.4883"/><rect fill="none" height="20.4883" rx="5" ry="5" style="stroke:#A80036;stroke-width:1.5;" width="103" x="2411" y="263"/><rect fill="#FEFECE" height="110.9297" rx="5" ry="5" style="stroke:#FEFECE;stroke-width:1.5;" width="555" x="1811.5" y="304.5"/><text fill="#000000" font-family="sans-serif" font-size="14" lengthAdjust="spacing" textLength="77" x="1816.5" y="320.0352">description</text><text fill="#000000" font-family="sans-serif" font-size="14" lengthAdjust="spacing" textLength="456" x="1903.5" y="320.0352">Step value across the defined range an integer when the range is a</text><text fill="#000000" font-family="sans-serif" font-size="14" lengthAdjust="spacing" textLength="458" x="1903.5" y="336.5234">number.  This is the increment for valid values across the range; so</text><text fill="#000000" font-family="sans-serif" font-size="14" lengthAdjust="spacing" textLength="381" x="1903.5" y="353.0117">if range is 0.0..10.0 and step is 2.5 then valid values are</text><text fill="#000000" font-family="sans-serif" font-size="14" lengthAdjust="spacing" textLength="139" x="1903.5" y="369.5">0.0,2.5,5.0,7.5,10.0.</text><line style="stroke:#A80036;stroke-width:1.0;" x1="1898.5" x2="1898.5" y1="304.5" y2="374.4531"/><line style="stroke:#A80036;stroke-width:1.0;" x1="1811.5" x2="2366.5" y1="374.4531" y2="374.4531"/><text fill="#000000" font-family="sans-serif" font-size="14" lengthAdjust="spacing" textLength="55" x="1816.5" y="389.9883">writable</text><text fill="#000000" font-family="sans-serif" font-size="14" lengthAdjust="spacing" textLength="48" x="1903.5" y="389.9883">☐ false</text><line style="stroke:#A80036;stroke-width:1.0;" x1="1898.5" x2="1898.5" y1="374.4531" y2="394.9414"/><line style="stroke:#A80036;stroke-width:1.0;" x1="1811.5" x2="2366.5" y1="394.9414" y2="394.9414"/><text fill="#000000" font-family="sans-serif" font-size="14" lengthAdjust="spacing" textLength="29" x="1816.5" y="410.4766">type</text><text fill="#000000" font-family="sans-serif" font-size="14" lengthAdjust="spacing" textLength="54" x="1903.5" y="410.4766">number</text><line style="stroke:#A80036;stroke-width:1.0;" x1="1898.5" x2="1898.5" y1="394.9414" y2="415.4297"/><rect fill="none" height="110.9297" rx="5" ry="5" style="stroke:#A80036;stroke-width:1.5;" width="555" x="1811.5" y="304.5"/><rect fill="#FEFECE" height="110.9297" rx="5" ry="5" style="stroke:#FEFECE;stroke-width:1.5;" width="570" x="1804" y="433.5"/><text fill="#000000" font-family="sans-serif" font-size="14" lengthAdjust="spacing" textLength="29" x="1809" y="449.0352">type</text><text fill="#000000" font-family="sans-serif" font-size="14" lengthAdjust="spacing" textLength="54" x="1896" y="449.0352">number</text><line style="stroke:#A80036;stroke-width:1.0;" x1="1891" x2="1891" y1="433.5" y2="453.9883"/><line style="stroke:#A80036;stroke-width:1.0;" x1="1804" x2="2374" y1="453.9883" y2="453.9883"/><text fill="#000000" font-family="sans-serif" font-size="14" lengthAdjust="spacing" textLength="55" x="1809" y="469.5234">writable</text><text fill="#000000" font-family="sans-serif" font-size="14" lengthAdjust="spacing" textLength="48" x="1896" y="469.5234">☐ false</text><line style="stroke:#A80036;stroke-width:1.0;" x1="1891" x2="1891" y1="453.9883" y2="474.4766"/><line style="stroke:#A80036;stroke-width:1.0;" x1="1804" x2="2374" y1="474.4766" y2="474.4766"/><text fill="#000000" font-family="sans-serif" font-size="14" lengthAdjust="spacing" textLength="77" x="1809" y="490.0117">description</text><text fill="#000000" font-family="sans-serif" font-size="14" lengthAdjust="spacing" textLength="430" x="1896" y="490.0117">When exposed the value in 'precision' provides a +/- tolerance</text><text fill="#000000" font-family="sans-serif" font-size="14" lengthAdjust="spacing" textLength="473" x="1896" y="506.5">against the Properties in the Resource. Thus if a Property is UPDATED</text><text fill="#000000" font-family="sans-serif" font-size="14" lengthAdjust="spacing" textLength="465" x="1896" y="522.9883">to a value and that Property then RETRIEVED, the RETRIEVED value is</text><text fill="#000000" font-family="sans-serif" font-size="14" lengthAdjust="spacing" textLength="337" x="1896" y="539.4766">valid if in the range of the set value +/- precision</text><line style="stroke:#A80036;stroke-width:1.0;" x1="1891" x2="1891" y1="474.4766" y2="544.4297"/><rect fill="none" height="110.9297" rx="5" ry="5" style="stroke:#A80036;stroke-width:1.5;" width="570" x="1804" y="433.5"/><rect fill="#FEFECE" height="20.4883" rx="5" ry="5" style="stroke:#FEFECE;stroke-width:1.5;" width="362" x="1405" y="343"/><text fill="#000000" font-family="sans-serif" font-size="14" lengthAdjust="spacing" textLength="352" x="1410" y="358.5352">#/sdfObject/glucose.exercise/sdfProperty/exercise</text><rect fill="none" height="20.4883" rx="5" ry="5" style="stroke:#A80036;stroke-width:1.5;" width="362" x="1405" y="343"/><path d="M95,255 L108,255 C117.4068,255 126.9554,254.9088 136.5926,254.7376 " fill="none" style="stroke:#A80036;stroke-width:1.0;stroke-dasharray:3.0,3.0;"/><path d="M136.6543,257.8363 L138.9166,254.6914 L136.5309,251.6389 L144.3394,254.5834 L136.6543,257.8363 " fill="#A80036" style="stroke:#A80036;stroke-width:1.0;"/><ellipse cx="95" cy="255" fill="#A80036" rx="3" ry="3" style="stroke:#A80036;stroke-width:1.0;stroke-dasharray:3.0,3.0;"/><path d="M1622.5,253 L1635.5,253 C1730.6321,253 1717.7752,161.1922 1804,121 C1825.6645,110.9015 1849.0481,102.486 1872.7736,95.4764 " fill="none" style="stroke:#A80036;stroke-width:1.0;stroke-dasharray:3.0,3.0;"/><path d="M1873.6259,98.4254 L1874.9854,94.8372 L1871.9214,92.5274 L1880.1462,93.3458 L1873.6259,98.4254 " fill="#A80036" style="stroke:#A80036;stroke-width:1.0;"/><ellipse cx="1622.5" cy="253" fill="#A80036" rx="3" ry="3" style="stroke:#A80036;stroke-width:1.0;stroke-dasharray:3.0,3.0;"/><path d="M2351.5,273 L2364.5,273 C2377.235,273 2390.9056,273 2403.8621,273 " fill="none" style="stroke:#A80036;stroke-width:1.0;stroke-dasharray:3.0,3.0;"/><path d="M2403.8621,276.0134 L2406.1221,273 L2403.8621,269.9866 L2411.3956,273 L2403.8621,276.0134 " fill="#A80036" style="stroke:#A80036;stroke-width:1.0;"/><ellipse cx="2351.5" cy="273" fill="#A80036" rx="3" ry="3" style="stroke:#A80036;stroke-width:1.0;stroke-dasharray:3.0,3.0;"/><path d="M1622.5,273 L1635.5,273 C1691.4825,273 1750.9657,268.0758 1807.7815,260.9381 " fill="none" style="stroke:#A80036;stroke-width:1.0;stroke-dasharray:3.0,3.0;"/><path d="M1808.1713,263.9925 L1810.0723,260.6457 L1807.3917,257.8836 L1815.4175,259.9635 L1808.1713,263.9925 " fill="#A80036" style="stroke:#A80036;stroke-width:1.0;"/><ellipse cx="1622.5" cy="273" fill="#A80036" rx="3" ry="3" style="stroke:#A80036;stroke-width:1.0;stroke-dasharray:3.0,3.0;"/><path d="M1622.5,294 L1635.5,294 C1690.3591,294 1748.5685,298.7983 1804.3331,305.8074 " fill="none" style="stroke:#A80036;stroke-width:1.0;stroke-dasharray:3.0,3.0;"/><path d="M1803.9502,308.8057 L1806.5818,306.0945 L1804.7159,302.809 L1811.8289,306.7646 L1803.9502,308.8057 " fill="#A80036" style="stroke:#A80036;stroke-width:1.0;"/><ellipse cx="1622.5" cy="294" fill="#A80036" rx="3" ry="3" style="stroke:#A80036;stroke-width:1.0;stroke-dasharray:3.0,3.0;"/><path d="M1622.5,315 L1635.5,315 C1694.9913,315 1721.3051,297.1382 1768,334 C1802.1388,360.9498 1770.9499,396.7256 1804,425 C1805.3675,426.1699 1806.7518,427.3196 1808.1523,428.4495 " fill="none" style="stroke:#A80036;stroke-width:1.0;stroke-dasharray:3.0,3.0;"/><path d="M1806.221,430.9463 L1810.0249,429.898 L1810.0837,425.9528 L1814.3942,433.2779 L1806.221,430.9463 " fill="#A80036" style="stroke:#A80036;stroke-width:1.0;"/><ellipse cx="1622.5" cy="315" fill="#A80036" rx="3" ry="3" style="stroke:#A80036;stroke-width:1.0;stroke-dasharray:3.0,3.0;"/><path d="M1356,300 L1369,300 C1424.2873,300 1487.301,294.7464 1531.0328,290.26 " fill="none" style="stroke:#A80036;stroke-width:1.0;stroke-dasharray:3.0,3.0;"/><path d="M1531.3522,293.3252 L1533.3316,290.0205 L1530.7134,287.1949 L1538.6956,289.4615 L1531.3522,293.3252 " fill="#A80036" style="stroke:#A80036;stroke-width:1.0;"/><ellipse cx="1356" cy="300" fill="#A80036" rx="3" ry="3" style="stroke:#A80036;stroke-width:1.0;stroke-dasharray:3.0,3.0;"/><path d="M1356,337 L1369,337 C1406.3857,337 1447.3042,339.4022 1483.4048,342.3451 " fill="none" style="stroke:#A80036;stroke-width:1.0;stroke-dasharray:3.0,3.0;"/><path d="M1483.1506,345.396 L1485.693,342.5357 L1483.659,339.2941 L1491.0321,342.9806 L1483.1506,345.396 " fill="#A80036" style="stroke:#A80036;stroke-width:1.0;"/><ellipse cx="1356" cy="337" fill="#A80036" rx="3" ry="3" style="stroke:#A80036;stroke-width:1.0;stroke-dasharray:3.0,3.0;"/><path d="M512.5,300 L525.5,300 C610.5731,300 702.9749,300 787.5535,300 " fill="none" style="stroke:#A80036;stroke-width:1.0;stroke-dasharray:3.0,3.0;"/><path d="M787.5535,303.0545 L789.8443,300 L787.5535,296.9455 L795.1897,300 L787.5535,303.0545 " fill="#A80036" style="stroke:#A80036;stroke-width:1.0;"/><ellipse cx="512.5" cy="300" fill="#A80036" rx="3" ry="3" style="stroke:#A80036;stroke-width:1.0;stroke-dasharray:3.0,3.0;"/><path d="M95,276 L108,276 C124.1536,276 127.927,279.388 144,281 C220.6896,288.6914 308.5073,293.7551 370.4283,296.706 " fill="none" style="stroke:#A80036;stroke-width:1.0;stroke-dasharray:3.0,3.0;"/><path d="M370.2814,299.826 L372.7683,296.8161 L370.5751,293.586 L378.2283,297.0731 L370.2814,299.826 " fill="#A80036" style="stroke:#A80036;stroke-width:1.0;"/><ellipse cx="95" cy="276" fill="#A80036" rx="3" ry="3" style="stroke:#A80036;stroke-width:1.0;stroke-dasharray:3.0,3.0;"/><!--MD5=[b056841a4830ccf078353be4b2f54539]
@startjson
{
  "info": {
    "copyright": "Copyright 2016-2019 Open Connectivity Foundation, Inc. All rights reserved.",
    "license": "https://github.com/one-data-model/oneDM/blob/master/LICENSE",
    "title": "Exercise for Glucose Meter",
    "version": "2019-03-22"
  },
  "sdfObject": {
    "glucose.exercise": {
      "description": "This Resource describes the Properties associated with glucose\\nexercise. The exercise Property has a default unit of percentage. The\\nexercise Property is a read-only value that is provided by the\\nServer.",
      "sdfProperty": {
        "exercise": {
          "description": "The level of exercise undertaken in percentage",
          "maximum": 100,
          "minimum": 0,
          "writable": false,
          "type": "number"
        },
        "range": {
          "type": "array",
          "description": "The valid range for the Property in the Resource as a number. The\\nfirst value in the array is the minimum value, the second value in\\nthe array is the maximum value.",
          "writable": false,
          "minItems": 2,
          "maxItems": 2,
          "items": {
            "type": "number"
          }
        },
        "step": {
          "description": "Step value across the defined range an integer when the range is a\\nnumber.  This is the increment for valid values across the range; so\\nif range is 0.0..10.0 and step is 2.5 then valid values are\\n0.0,2.5,5.0,7.5,10.0.",
          "writable": false,
          "type": "number"
        },
        "precision": {
          "type": "number",
          "writable": false,
          "description": "When exposed the value in 'precision' provides a +/- tolerance\\nagainst the Properties in the Resource. Thus if a Property is UPDATED\\nto a value and that Property then RETRIEVED, the RETRIEVED value is\\nvalid if in the range of the set value +/- precision"
        }
      },
      "sdfRequired": [
        "#/sdfObject/glucose.exercise/sdfProperty/exercise"
      ]
    }
  }
}
@endjson

PlantUML version 1.2021.2(Sun Mar 07 13:10:27 EET 2021)
(GPL source distribution)
Java Runtime: OpenJDK Runtime Environment
JVM: OpenJDK 64-Bit Server VM
Default Encoding: UTF-8
Language: en
Country: FI
--></g></svg>