<?xml version="1.0" encoding="UTF-8" standalone="no"?><svg xmlns="http://www.w3.org/2000/svg" xmlns:xlink="http://www.w3.org/1999/xlink" contentScriptType="application/ecmascript" contentStyleType="text/css" height="594px" preserveAspectRatio="none" style="width:2515px;height:594px;" version="1.1" viewBox="0 0 2515 594" width="2515px" zoomAndPan="magnify"><defs/><g><rect fill="#FEFECE" height="40.9766" rx="5" ry="5" style="stroke:#FEFECE;stroke-width:1.5;" width="97" x="10" y="194"/><text fill="#000000" font-family="sans-serif" font-size="14" lengthAdjust="spacing" textLength="27" x="15" y="209.5352">info</text><text fill="#000000" font-family="sans-serif" font-size="14" lengthAdjust="spacing" textLength="0" x="102" y="209.5352"/><line style="stroke:#A80036;stroke-width:1.0;" x1="85" x2="85" y1="194" y2="214.4883"/><line style="stroke:#A80036;stroke-width:1.0;" x1="10" x2="107" y1="214.4883" y2="214.4883"/><text fill="#000000" font-family="sans-serif" font-size="14" lengthAdjust="spacing" textLength="65" x="15" y="230.0234">sdfObject</text><text fill="#000000" font-family="sans-serif" font-size="14" lengthAdjust="spacing" textLength="0" x="102" y="230.0234"/><line style="stroke:#A80036;stroke-width:1.0;" x1="85" x2="85" y1="214.4883" y2="234.9766"/><rect fill="none" height="40.9766" rx="5" ry="5" style="stroke:#A80036;stroke-width:1.5;" width="97" x="10" y="194"/><rect fill="#FEFECE" height="81.9531" rx="5" ry="5" style="stroke:#FEFECE;stroke-width:1.5;" width="655" x="144" y="138.5"/><text fill="#000000" font-family="sans-serif" font-size="14" lengthAdjust="spacing" textLength="65" x="149" y="154.0352">copyright</text><text fill="#000000" font-family="sans-serif" font-size="14" lengthAdjust="spacing" textLength="570" x="224" y="154.0352">copyright 2016-2017, 2019 Open Connectivity Foundation, Inc. All rights reserved.</text><line style="stroke:#A80036;stroke-width:1.0;" x1="219" x2="219" y1="138.5" y2="158.9883"/><line style="stroke:#A80036;stroke-width:1.0;" x1="144" x2="799" y1="158.9883" y2="158.9883"/><text fill="#000000" font-family="sans-serif" font-size="14" lengthAdjust="spacing" textLength="47" x="149" y="174.5234">license</text><text fill="#000000" font-family="sans-serif" font-size="14" lengthAdjust="spacing" textLength="462" x="224" y="174.5234">https://github.com/one-data-model/oneDM/blob/master/LICENSE</text><line style="stroke:#A80036;stroke-width:1.0;" x1="219" x2="219" y1="158.9883" y2="179.4766"/><line style="stroke:#A80036;stroke-width:1.0;" x1="144" x2="799" y1="179.4766" y2="179.4766"/><text fill="#000000" font-family="sans-serif" font-size="14" lengthAdjust="spacing" textLength="26" x="149" y="195.0117">title</text><text fill="#000000" font-family="sans-serif" font-size="14" lengthAdjust="spacing" textLength="90" x="224" y="195.0117">Water Sensor</text><line style="stroke:#A80036;stroke-width:1.0;" x1="219" x2="219" y1="179.4766" y2="199.9648"/><line style="stroke:#A80036;stroke-width:1.0;" x1="144" x2="799" y1="199.9648" y2="199.9648"/><text fill="#000000" font-family="sans-serif" font-size="14" lengthAdjust="spacing" textLength="50" x="149" y="215.5">version</text><text fill="#000000" font-family="sans-serif" font-size="14" lengthAdjust="spacing" textLength="88" x="224" y="215.5">2019-11-18</text><line style="stroke:#A80036;stroke-width:1.0;" x1="219" x2="219" y1="199.9648" y2="220.4531"/><rect fill="none" height="81.9531" rx="5" ry="5" style="stroke:#A80036;stroke-width:1.5;" width="655" x="144" y="138.5"/><rect fill="#FEFECE" height="20.4883" rx="5" ry="5" style="stroke:#FEFECE;stroke-width:1.5;" width="120" x="411.5" y="238.5"/><text fill="#000000" font-family="sans-serif" font-size="14" lengthAdjust="spacing" textLength="88" x="416.5" y="254.0352">sensor.water</text><text fill="#000000" font-family="sans-serif" font-size="14" lengthAdjust="spacing" textLength="0" x="526.5" y="254.0352"/><line style="stroke:#A80036;stroke-width:1.0;" x1="509.5" x2="509.5" y1="238.5" y2="258.9883"/><rect fill="none" height="20.4883" rx="5" ry="5" style="stroke:#A80036;stroke-width:1.5;" width="120" x="411.5" y="238.5"/><rect fill="#FEFECE" height="94.4414" rx="5" ry="5" style="stroke:#FEFECE;stroke-width:1.5;" width="568" x="836" y="201.5"/><text fill="#000000" font-family="sans-serif" font-size="14" lengthAdjust="spacing" textLength="77" x="841" y="217.0352">description</text><text fill="#000000" font-family="sans-serif" font-size="14" lengthAdjust="spacing" textLength="465" x="934" y="217.0352">This Resource describes whether water has been sensed or not. The</text><text fill="#000000" font-family="sans-serif" font-size="14" lengthAdjust="spacing" textLength="459" x="934" y="233.5234">Property "value" is a boolean. A value of 'true' means that water has</text><text fill="#000000" font-family="sans-serif" font-size="14" lengthAdjust="spacing" textLength="447" x="934" y="250.0117">been sensed. A value of 'false' means that water not been sensed.</text><line style="stroke:#A80036;stroke-width:1.0;" x1="929" x2="929" y1="201.5" y2="254.9648"/><line style="stroke:#A80036;stroke-width:1.0;" x1="836" x2="1404" y1="254.9648" y2="254.9648"/><text fill="#000000" font-family="sans-serif" font-size="14" lengthAdjust="spacing" textLength="79" x="841" y="270.5">sdfProperty</text><text fill="#000000" font-family="sans-serif" font-size="14" lengthAdjust="spacing" textLength="0" x="946" y="270.5"/><line style="stroke:#A80036;stroke-width:1.0;" x1="929" x2="929" y1="254.9648" y2="275.4531"/><line style="stroke:#A80036;stroke-width:1.0;" x1="836" x2="1404" y1="275.4531" y2="275.4531"/><text fill="#000000" font-family="sans-serif" font-size="14" lengthAdjust="spacing" textLength="83" x="841" y="290.9883">sdfRequired</text><text fill="#000000" font-family="sans-serif" font-size="14" lengthAdjust="spacing" textLength="0" x="946" y="290.9883"/><line style="stroke:#A80036;stroke-width:1.0;" x1="929" x2="929" y1="275.4531" y2="295.9414"/><rect fill="none" height="94.4414" rx="5" ry="5" style="stroke:#A80036;stroke-width:1.5;" width="568" x="836" y="201.5"/><rect fill="#FEFECE" height="102.4414" rx="5" ry="5" style="stroke:#FEFECE;stroke-width:1.5;" width="126" x="1535.5" y="173.5"/><text fill="#000000" font-family="sans-serif" font-size="14" lengthAdjust="spacing" textLength="36" x="1540.5" y="189.0352">value</text><text fill="#000000" font-family="sans-serif" font-size="14" lengthAdjust="spacing" textLength="0" x="1656.5" y="189.0352"/><line style="stroke:#A80036;stroke-width:1.0;" x1="1639.5" x2="1639.5" y1="173.5" y2="193.9883"/><line style="stroke:#A80036;stroke-width:1.0;" x1="1535.5" x2="1661.5" y1="193.9883" y2="193.9883"/><text fill="#000000" font-family="sans-serif" font-size="14" lengthAdjust="spacing" textLength="94" x="1540.5" y="209.5234">measurement</text><text fill="#000000" font-family="sans-serif" font-size="14" lengthAdjust="spacing" textLength="0" x="1656.5" y="209.5234"/><line style="stroke:#A80036;stroke-width:1.0;" x1="1639.5" x2="1639.5" y1="193.9883" y2="214.4766"/><line style="stroke:#A80036;stroke-width:1.0;" x1="1535.5" x2="1661.5" y1="214.4766" y2="214.4766"/><text fill="#000000" font-family="sans-serif" font-size="14" lengthAdjust="spacing" textLength="63" x="1540.5" y="230.0117">precision</text><text fill="#000000" font-family="sans-serif" font-size="14" lengthAdjust="spacing" textLength="0" x="1656.5" y="230.0117"/><line style="stroke:#A80036;stroke-width:1.0;" x1="1639.5" x2="1639.5" y1="214.4766" y2="234.9648"/><line style="stroke:#A80036;stroke-width:1.0;" x1="1535.5" x2="1661.5" y1="234.9648" y2="234.9648"/><text fill="#000000" font-family="sans-serif" font-size="14" lengthAdjust="spacing" textLength="40" x="1540.5" y="250.5">range</text><text fill="#000000" font-family="sans-serif" font-size="14" lengthAdjust="spacing" textLength="0" x="1656.5" y="250.5"/><line style="stroke:#A80036;stroke-width:1.0;" x1="1639.5" x2="1639.5" y1="234.9648" y2="255.4531"/><line style="stroke:#A80036;stroke-width:1.0;" x1="1535.5" x2="1661.5" y1="255.4531" y2="255.4531"/><text fill="#000000" font-family="sans-serif" font-size="14" lengthAdjust="spacing" textLength="29" x="1540.5" y="270.9883">step</text><text fill="#000000" font-family="sans-serif" font-size="14" lengthAdjust="spacing" textLength="0" x="1656.5" y="270.9883"/><line style="stroke:#A80036;stroke-width:1.0;" x1="1639.5" x2="1639.5" y1="255.4531" y2="275.9414"/><rect fill="none" height="102.4414" rx="5" ry="5" style="stroke:#A80036;stroke-width:1.5;" width="126" x="1535.5" y="173.5"/><rect fill="#FEFECE" height="61.4648" rx="5" ry="5" style="stroke:#FEFECE;stroke-width:1.5;" width="330" x="1913" y="10"/><text fill="#000000" font-family="sans-serif" font-size="14" lengthAdjust="spacing" textLength="77" x="1918" y="25.5352">description</text><text fill="#000000" font-family="sans-serif" font-size="14" lengthAdjust="spacing" textLength="233" x="2005" y="25.5352">true = sensed, false = not sensed.</text><line style="stroke:#A80036;stroke-width:1.0;" x1="2000" x2="2000" y1="10" y2="30.4883"/><line style="stroke:#A80036;stroke-width:1.0;" x1="1913" x2="2243" y1="30.4883" y2="30.4883"/><text fill="#000000" font-family="sans-serif" font-size="14" lengthAdjust="spacing" textLength="55" x="1918" y="46.0234">writable</text><text fill="#000000" font-family="sans-serif" font-size="14" lengthAdjust="spacing" textLength="48" x="2005" y="46.0234">☐ false</text><line style="stroke:#A80036;stroke-width:1.0;" x1="2000" x2="2000" y1="30.4883" y2="50.9766"/><line style="stroke:#A80036;stroke-width:1.0;" x1="1913" x2="2243" y1="50.9766" y2="50.9766"/><text fill="#000000" font-family="sans-serif" font-size="14" lengthAdjust="spacing" textLength="29" x="1918" y="66.5117">type</text><text fill="#000000" font-family="sans-serif" font-size="14" lengthAdjust="spacing" textLength="56" x="2005" y="66.5117">boolean</text><line style="stroke:#A80036;stroke-width:1.0;" x1="2000" x2="2000" y1="50.9766" y2="71.4648"/><rect fill="none" height="61.4648" rx="5" ry="5" style="stroke:#A80036;stroke-width:1.5;" width="330" x="1913" y="10"/><rect fill="#FEFECE" height="61.4648" rx="5" ry="5" style="stroke:#FEFECE;stroke-width:1.5;" width="440" x="1858" y="89"/><text fill="#000000" font-family="sans-serif" font-size="14" lengthAdjust="spacing" textLength="29" x="1863" y="104.5352">type</text><text fill="#000000" font-family="sans-serif" font-size="14" lengthAdjust="spacing" textLength="54" x="1950" y="104.5352">number</text><line style="stroke:#A80036;stroke-width:1.0;" x1="1945" x2="1945" y1="89" y2="109.4883"/><line style="stroke:#A80036;stroke-width:1.0;" x1="1858" x2="2298" y1="109.4883" y2="109.4883"/><text fill="#000000" font-family="sans-serif" font-size="14" lengthAdjust="spacing" textLength="77" x="1863" y="125.0234">description</text><text fill="#000000" font-family="sans-serif" font-size="14" lengthAdjust="spacing" textLength="343" x="1950" y="125.0234">Measured value for this sensor in units of litres/hr</text><line style="stroke:#A80036;stroke-width:1.0;" x1="1945" x2="1945" y1="109.4883" y2="129.9766"/><line style="stroke:#A80036;stroke-width:1.0;" x1="1858" x2="2298" y1="129.9766" y2="129.9766"/><text fill="#000000" font-family="sans-serif" font-size="14" lengthAdjust="spacing" textLength="55" x="1863" y="145.5117">writable</text><text fill="#000000" font-family="sans-serif" font-size="14" lengthAdjust="spacing" textLength="48" x="1950" y="145.5117">☐ false</text><line style="stroke:#A80036;stroke-width:1.0;" x1="1945" x2="1945" y1="129.9766" y2="150.4648"/><rect fill="none" height="61.4648" rx="5" ry="5" style="stroke:#A80036;stroke-width:1.5;" width="440" x="1858" y="89"/><rect fill="#FEFECE" height="110.9297" rx="5" ry="5" style="stroke:#FEFECE;stroke-width:1.5;" width="570" x="1793" y="168"/><text fill="#000000" font-family="sans-serif" font-size="14" lengthAdjust="spacing" textLength="29" x="1798" y="183.5352">type</text><text fill="#000000" font-family="sans-serif" font-size="14" lengthAdjust="spacing" textLength="54" x="1885" y="183.5352">number</text><line style="stroke:#A80036;stroke-width:1.0;" x1="1880" x2="1880" y1="168" y2="188.4883"/><line style="stroke:#A80036;stroke-width:1.0;" x1="1793" x2="2363" y1="188.4883" y2="188.4883"/><text fill="#000000" font-family="sans-serif" font-size="14" lengthAdjust="spacing" textLength="55" x="1798" y="204.0234">writable</text><text fill="#000000" font-family="sans-serif" font-size="14" lengthAdjust="spacing" textLength="48" x="1885" y="204.0234">☐ false</text><line style="stroke:#A80036;stroke-width:1.0;" x1="1880" x2="1880" y1="188.4883" y2="208.9766"/><line style="stroke:#A80036;stroke-width:1.0;" x1="1793" x2="2363" y1="208.9766" y2="208.9766"/><text fill="#000000" font-family="sans-serif" font-size="14" lengthAdjust="spacing" textLength="77" x="1798" y="224.5117">description</text><text fill="#000000" font-family="sans-serif" font-size="14" lengthAdjust="spacing" textLength="430" x="1885" y="224.5117">When exposed the value in 'precision' provides a +/- tolerance</text><text fill="#000000" font-family="sans-serif" font-size="14" lengthAdjust="spacing" textLength="473" x="1885" y="241">against the Properties in the Resource. Thus if a Property is UPDATED</text><text fill="#000000" font-family="sans-serif" font-size="14" lengthAdjust="spacing" textLength="465" x="1885" y="257.4883">to a value and that Property then RETRIEVED, the RETRIEVED value is</text><text fill="#000000" font-family="sans-serif" font-size="14" lengthAdjust="spacing" textLength="337" x="1885" y="273.9766">valid if in the range of the set value +/- precision</text><line style="stroke:#A80036;stroke-width:1.0;" x1="1880" x2="1880" y1="208.9766" y2="278.9297"/><rect fill="none" height="110.9297" rx="5" ry="5" style="stroke:#A80036;stroke-width:1.5;" width="570" x="1793" y="168"/><rect fill="#FEFECE" height="155.9063" rx="5" ry="5" style="stroke:#FEFECE;stroke-width:1.5;" width="548" x="1804" y="297.5"/><text fill="#000000" font-family="sans-serif" font-size="14" lengthAdjust="spacing" textLength="29" x="1809" y="313.0352">type</text><text fill="#000000" font-family="sans-serif" font-size="14" lengthAdjust="spacing" textLength="35" x="1896" y="313.0352">array</text><line style="stroke:#A80036;stroke-width:1.0;" x1="1891" x2="1891" y1="297.5" y2="317.9883"/><line style="stroke:#A80036;stroke-width:1.0;" x1="1804" x2="2352" y1="317.9883" y2="317.9883"/><text fill="#000000" font-family="sans-serif" font-size="14" lengthAdjust="spacing" textLength="77" x="1809" y="333.5234">description</text><text fill="#000000" font-family="sans-serif" font-size="14" lengthAdjust="spacing" textLength="451" x="1896" y="333.5234">The valid range for the Property in the Resource as a number. The</text><text fill="#000000" font-family="sans-serif" font-size="14" lengthAdjust="spacing" textLength="439" x="1896" y="350.0117">first value in the array is the minimum value, the second value in</text><text fill="#000000" font-family="sans-serif" font-size="14" lengthAdjust="spacing" textLength="219" x="1896" y="366.5">the array is the maximum value.</text><line style="stroke:#A80036;stroke-width:1.0;" x1="1891" x2="1891" y1="317.9883" y2="371.4531"/><line style="stroke:#A80036;stroke-width:1.0;" x1="1804" x2="2352" y1="371.4531" y2="371.4531"/><text fill="#000000" font-family="sans-serif" font-size="14" lengthAdjust="spacing" textLength="55" x="1809" y="386.9883">writable</text><text fill="#000000" font-family="sans-serif" font-size="14" lengthAdjust="spacing" textLength="48" x="1896" y="386.9883">☐ false</text><line style="stroke:#A80036;stroke-width:1.0;" x1="1891" x2="1891" y1="371.4531" y2="391.9414"/><line style="stroke:#A80036;stroke-width:1.0;" x1="1804" x2="2352" y1="391.9414" y2="391.9414"/><text fill="#000000" font-family="sans-serif" font-size="14" lengthAdjust="spacing" textLength="63" x="1809" y="407.4766">minItems</text><text fill="#000000" font-family="sans-serif" font-size="14" lengthAdjust="spacing" textLength="9" x="1896" y="407.4766">2</text><line style="stroke:#A80036;stroke-width:1.0;" x1="1891" x2="1891" y1="391.9414" y2="412.4297"/><line style="stroke:#A80036;stroke-width:1.0;" x1="1804" x2="2352" y1="412.4297" y2="412.4297"/><text fill="#000000" font-family="sans-serif" font-size="14" lengthAdjust="spacing" textLength="67" x="1809" y="427.9648">maxItems</text><text fill="#000000" font-family="sans-serif" font-size="14" lengthAdjust="spacing" textLength="9" x="1896" y="427.9648">2</text><line style="stroke:#A80036;stroke-width:1.0;" x1="1891" x2="1891" y1="412.4297" y2="432.918"/><line style="stroke:#A80036;stroke-width:1.0;" x1="1804" x2="2352" y1="432.918" y2="432.918"/><text fill="#000000" font-family="sans-serif" font-size="14" lengthAdjust="spacing" textLength="37" x="1809" y="448.4531">items</text><text fill="#000000" font-family="sans-serif" font-size="14" lengthAdjust="spacing" textLength="0" x="1908" y="448.4531"/><line style="stroke:#A80036;stroke-width:1.0;" x1="1891" x2="1891" y1="432.918" y2="453.4063"/><rect fill="none" height="155.9063" rx="5" ry="5" style="stroke:#A80036;stroke-width:1.5;" width="548" x="1804" y="297.5"/><rect fill="#FEFECE" height="20.4883" rx="5" ry="5" style="stroke:#FEFECE;stroke-width:1.5;" width="103" x="2400" y="430.5"/><text fill="#000000" font-family="sans-serif" font-size="14" lengthAdjust="spacing" textLength="29" x="2405" y="446.0352">type</text><text fill="#000000" font-family="sans-serif" font-size="14" lengthAdjust="spacing" textLength="54" x="2444" y="446.0352">number</text><line style="stroke:#A80036;stroke-width:1.0;" x1="2439" x2="2439" y1="430.5" y2="450.9883"/><rect fill="none" height="20.4883" rx="5" ry="5" style="stroke:#A80036;stroke-width:1.5;" width="103" x="2400" y="430.5"/><rect fill="#FEFECE" height="110.9297" rx="5" ry="5" style="stroke:#FEFECE;stroke-width:1.5;" width="555" x="1800.5" y="472"/><text fill="#000000" font-family="sans-serif" font-size="14" lengthAdjust="spacing" textLength="77" x="1805.5" y="487.5352">description</text><text fill="#000000" font-family="sans-serif" font-size="14" lengthAdjust="spacing" textLength="456" x="1892.5" y="487.5352">Step value across the defined range an integer when the range is a</text><text fill="#000000" font-family="sans-serif" font-size="14" lengthAdjust="spacing" textLength="458" x="1892.5" y="504.0234">number.  This is the increment for valid values across the range; so</text><text fill="#000000" font-family="sans-serif" font-size="14" lengthAdjust="spacing" textLength="381" x="1892.5" y="520.5117">if range is 0.0..10.0 and step is 2.5 then valid values are</text><text fill="#000000" font-family="sans-serif" font-size="14" lengthAdjust="spacing" textLength="139" x="1892.5" y="537">0.0,2.5,5.0,7.5,10.0.</text><line style="stroke:#A80036;stroke-width:1.0;" x1="1887.5" x2="1887.5" y1="472" y2="541.9531"/><line style="stroke:#A80036;stroke-width:1.0;" x1="1800.5" x2="2355.5" y1="541.9531" y2="541.9531"/><text fill="#000000" font-family="sans-serif" font-size="14" lengthAdjust="spacing" textLength="55" x="1805.5" y="557.4883">writable</text><text fill="#000000" font-family="sans-serif" font-size="14" lengthAdjust="spacing" textLength="48" x="1892.5" y="557.4883">☐ false</text><line style="stroke:#A80036;stroke-width:1.0;" x1="1887.5" x2="1887.5" y1="541.9531" y2="562.4414"/><line style="stroke:#A80036;stroke-width:1.0;" x1="1800.5" x2="2355.5" y1="562.4414" y2="562.4414"/><text fill="#000000" font-family="sans-serif" font-size="14" lengthAdjust="spacing" textLength="29" x="1805.5" y="577.9766">type</text><text fill="#000000" font-family="sans-serif" font-size="14" lengthAdjust="spacing" textLength="54" x="1892.5" y="577.9766">number</text><line style="stroke:#A80036;stroke-width:1.0;" x1="1887.5" x2="1887.5" y1="562.4414" y2="582.9297"/><rect fill="none" height="110.9297" rx="5" ry="5" style="stroke:#A80036;stroke-width:1.5;" width="555" x="1800.5" y="472"/><rect fill="#FEFECE" height="20.4883" rx="5" ry="5" style="stroke:#FEFECE;stroke-width:1.5;" width="315" x="1441" y="293.5"/><text fill="#000000" font-family="sans-serif" font-size="14" lengthAdjust="spacing" textLength="305" x="1446" y="309.0352">#/sdfObject/sensor.water/sdfProperty/value</text><rect fill="none" height="20.4883" rx="5" ry="5" style="stroke:#A80036;stroke-width:1.5;" width="315" x="1441" y="293.5"/><path d="M95,203.5 L108,203.5 C117.3442,203.5 126.8208,203.4198 136.3833,203.2688 " fill="none" style="stroke:#A80036;stroke-width:1.0;stroke-dasharray:3.0,3.0;"/><path d="M136.4378,206.3434 L138.6892,203.2279 L136.3288,200.1942 L144.0697,203.1326 L136.4378,206.3434 " fill="#A80036" style="stroke:#A80036;stroke-width:1.0;"/><ellipse cx="95" cy="203.5" fill="#A80036" rx="3" ry="3" style="stroke:#A80036;stroke-width:1.0;stroke-dasharray:3.0,3.0;"/><path d="M1650,183.5 L1663,183.5 C1736.7148,183.5 1725.2444,109.5354 1793,80.5 C1828.0292,65.4889 1867.4917,55.8751 1905.6209,49.7741 " fill="none" style="stroke:#A80036;stroke-width:1.0;stroke-dasharray:3.0,3.0;"/><path d="M1906.0904,52.8166 L1907.9028,49.4219 L1905.1513,46.7315 L1913.2272,48.6001 L1906.0904,52.8166 " fill="#A80036" style="stroke:#A80036;stroke-width:1.0;"/><ellipse cx="1650" cy="183.5" fill="#A80036" rx="3" ry="3" style="stroke:#A80036;stroke-width:1.0;stroke-dasharray:3.0,3.0;"/><path d="M1650,203.5 L1663,203.5 C1723.9975,203.5 1733.6511,173.5854 1793,159.5 C1811.7192,155.0574 1831.2562,151.0454 1850.9397,147.4352 " fill="none" style="stroke:#A80036;stroke-width:1.0;stroke-dasharray:3.0,3.0;"/><path d="M1851.4853,150.455 L1853.2046,147.026 L1850.3941,144.4153 L1858.4893,146.0711 L1851.4853,150.455 " fill="#A80036" style="stroke:#A80036;stroke-width:1.0;"/><ellipse cx="1650" cy="203.5" fill="#A80036" rx="3" ry="3" style="stroke:#A80036;stroke-width:1.0;stroke-dasharray:3.0,3.0;"/><path d="M1650,223.5 L1663,223.5 C1702.7157,223.5 1744.5719,223.5 1785.7998,223.5 " fill="none" style="stroke:#A80036;stroke-width:1.0;stroke-dasharray:3.0,3.0;"/><path d="M1785.7998,226.5761 L1788.1069,223.5 L1785.7998,220.4239 L1793.49,223.5 L1785.7998,226.5761 " fill="#A80036" style="stroke:#A80036;stroke-width:1.0;"/><ellipse cx="1650" cy="223.5" fill="#A80036" rx="3" ry="3" style="stroke:#A80036;stroke-width:1.0;stroke-dasharray:3.0,3.0;"/><path d="M2340.5,440.5 L2353.5,440.5 C2366.235,440.5 2379.9056,440.5 2392.8621,440.5 " fill="none" style="stroke:#A80036;stroke-width:1.0;stroke-dasharray:3.0,3.0;"/><path d="M2392.8621,443.5134 L2395.1221,440.5 L2392.8621,437.4866 L2400.3956,440.5 L2392.8621,443.5134 " fill="#A80036" style="stroke:#A80036;stroke-width:1.0;"/><ellipse cx="2340.5" cy="440.5" fill="#A80036" rx="3" ry="3" style="stroke:#A80036;stroke-width:1.0;stroke-dasharray:3.0,3.0;"/><path d="M1650,244.5 L1663,244.5 C1723.9975,244.5 1734.9392,269.8014 1793,288.5 C1799.7696,290.6802 1806.634,292.8775 1813.5635,295.0838 " fill="none" style="stroke:#A80036;stroke-width:1.0;stroke-dasharray:3.0,3.0;"/><path d="M1812.6046,298.1012 L1815.8265,295.803 L1814.5224,292.0665 L1821.1068,297.4811 L1812.6046,298.1012 " fill="#A80036" style="stroke:#A80036;stroke-width:1.0;"/><ellipse cx="1650" cy="244.5" fill="#A80036" rx="3" ry="3" style="stroke:#A80036;stroke-width:1.0;stroke-dasharray:3.0,3.0;"/><path d="M1650,265.5 L1663,265.5 C1705.6227,265.5 1726.8595,254.363 1757,284.5 C1814.0759,341.5693 1736.647,404.7167 1793,462.5 C1794.3928,463.9282 1795.8102,465.3278 1797.2508,466.6995 " fill="none" style="stroke:#A80036;stroke-width:1.0;stroke-dasharray:3.0,3.0;"/><path d="M1795.1897,468.9677 L1798.952,468.2453 L1799.3119,464.4312 L1802.9214,471.8522 L1795.1897,468.9677 " fill="#A80036" style="stroke:#A80036;stroke-width:1.0;"/><ellipse cx="1650" cy="265.5" fill="#A80036" rx="3" ry="3" style="stroke:#A80036;stroke-width:1.0;stroke-dasharray:3.0,3.0;"/><path d="M1392,247.5 L1405,247.5 C1445.9542,247.5 1491.4554,242.3305 1527.9873,236.8931 " fill="none" style="stroke:#A80036;stroke-width:1.0;stroke-dasharray:3.0,3.0;"/><path d="M1528.4524,239.9549 L1530.2837,236.5443 L1527.5223,233.8313 L1535.6419,235.7305 L1528.4524,239.9549 " fill="#A80036" style="stroke:#A80036;stroke-width:1.0;"/><ellipse cx="1392" cy="247.5" fill="#A80036" rx="3" ry="3" style="stroke:#A80036;stroke-width:1.0;stroke-dasharray:3.0,3.0;"/><path d="M1392,279.5 L1405,279.5 C1421.1536,279.5 1424.9811,282.4184 1441,284.5 C1461.7329,287.1941 1484.0228,289.9666 1505.1091,292.5324 " fill="none" style="stroke:#A80036;stroke-width:1.0;stroke-dasharray:3.0,3.0;"/><path d="M1504.7349,295.616 L1507.4218,292.813 L1505.4833,289.4488 L1512.8181,293.4678 L1504.7349,295.616 " fill="#A80036" style="stroke:#A80036;stroke-width:1.0;"/><ellipse cx="1392" cy="279.5" fill="#A80036" rx="3" ry="3" style="stroke:#A80036;stroke-width:1.0;stroke-dasharray:3.0,3.0;"/><path d="M520,248.5 L533,248.5 C629.2879,248.5 734.4678,248.5 828.832,248.5 " fill="none" style="stroke:#A80036;stroke-width:1.0;stroke-dasharray:3.0,3.0;"/><path d="M828.832,251.5569 L831.1247,248.5 L828.832,245.4431 L836.4743,248.5 L828.832,251.5569 " fill="#A80036" style="stroke:#A80036;stroke-width:1.0;"/><ellipse cx="520" cy="248.5" fill="#A80036" rx="3" ry="3" style="stroke:#A80036;stroke-width:1.0;stroke-dasharray:3.0,3.0;"/><path d="M95,224.5 L108,224.5 C124.1536,224.5 127.924,227.9191 144,229.5 C233.7318,238.324 337.7492,243.506 403.9353,246.1725 " fill="none" style="stroke:#A80036;stroke-width:1.0;stroke-dasharray:3.0,3.0;"/><path d="M403.8102,249.3247 L406.2995,246.2664 L404.0605,243.0204 L411.8158,246.4853 L403.8102,249.3247 " fill="#A80036" style="stroke:#A80036;stroke-width:1.0;"/><ellipse cx="95" cy="224.5" fill="#A80036" rx="3" ry="3" style="stroke:#A80036;stroke-width:1.0;stroke-dasharray:3.0,3.0;"/><!--MD5=[620319bd53e495b2ac897d01b2f24a73]
@startjson
{
  "info": {
    "copyright": "copyright 2016-2017, 2019 Open Connectivity Foundation, Inc. All rights reserved.",
    "license": "https://github.com/one-data-model/oneDM/blob/master/LICENSE",
    "title": "Water Sensor",
    "version": "2019-11-18"
  },
  "sdfObject": {
    "sensor.water": {
      "description": "This Resource describes whether water has been sensed or not. The\\nProperty \"value\" is a boolean. A value of 'true' means that water has\\nbeen sensed. A value of 'false' means that water not been sensed.",
      "sdfProperty": {
        "value": {
          "description": "true = sensed, false = not sensed.",
          "writable": false,
          "type": "boolean"
        },
        "measurement": {
          "type": "number",
          "description": "Measured value for this sensor in units of litres/hr",
          "writable": false
        },
        "precision": {
          "type": "number",
          "writable": false,
          "description": "When exposed the value in 'precision' provides a +/- tolerance\\nagainst the Properties in the Resource. Thus if a Property is UPDATED\\nto a value and that Property then RETRIEVED, the RETRIEVED value is\\nvalid if in the range of the set value +/- precision"
        },
        "range": {
          "type": "array",
          "description": "The valid range for the Property in the Resource as a number. The\\nfirst value in the array is the minimum value, the second value in\\nthe array is the maximum value.",
          "writable": false,
          "minItems": 2,
          "maxItems": 2,
          "items": {
            "type": "number"
          }
        },
        "step": {
          "description": "Step value across the defined range an integer when the range is a\\nnumber.  This is the increment for valid values across the range; so\\nif range is 0.0..10.0 and step is 2.5 then valid values are\\n0.0,2.5,5.0,7.5,10.0.",
          "writable": false,
          "type": "number"
        }
      },
      "sdfRequired": [
        "#/sdfObject/sensor.water/sdfProperty/value"
      ]
    }
  }
}
@endjson

PlantUML version 1.2021.2(Sun Mar 07 13:10:27 EET 2021)
(GPL source distribution)
Java Runtime: OpenJDK Runtime Environment
JVM: OpenJDK 64-Bit Server VM
Default Encoding: UTF-8
Language: en
Country: FI
--></g></svg>