<?xml version="1.0" encoding="UTF-8" standalone="no"?><svg xmlns="http://www.w3.org/2000/svg" xmlns:xlink="http://www.w3.org/1999/xlink" contentScriptType="application/ecmascript" contentStyleType="text/css" height="636px" preserveAspectRatio="none" style="width:2564px;height:636px;" version="1.1" viewBox="0 0 2564 636" width="2564px" zoomAndPan="magnify"><defs/><g><rect fill="#FEFECE" height="40.9766" rx="5" ry="5" style="stroke:#FEFECE;stroke-width:1.5;" width="97" x="10" y="247.5"/><text fill="#000000" font-family="sans-serif" font-size="14" lengthAdjust="spacing" textLength="27" x="15" y="263.0352">info</text><text fill="#000000" font-family="sans-serif" font-size="14" lengthAdjust="spacing" textLength="0" x="102" y="263.0352"/><line style="stroke:#A80036;stroke-width:1.0;" x1="85" x2="85" y1="247.5" y2="267.9883"/><line style="stroke:#A80036;stroke-width:1.0;" x1="10" x2="107" y1="267.9883" y2="267.9883"/><text fill="#000000" font-family="sans-serif" font-size="14" lengthAdjust="spacing" textLength="65" x="15" y="283.5234">sdfObject</text><text fill="#000000" font-family="sans-serif" font-size="14" lengthAdjust="spacing" textLength="0" x="102" y="283.5234"/><line style="stroke:#A80036;stroke-width:1.0;" x1="85" x2="85" y1="267.9883" y2="288.4766"/><rect fill="none" height="40.9766" rx="5" ry="5" style="stroke:#A80036;stroke-width:1.5;" width="97" x="10" y="247.5"/><rect fill="#FEFECE" height="81.9531" rx="5" ry="5" style="stroke:#FEFECE;stroke-width:1.5;" width="655" x="144" y="192"/><text fill="#000000" font-family="sans-serif" font-size="14" lengthAdjust="spacing" textLength="65" x="149" y="207.5352">copyright</text><text fill="#000000" font-family="sans-serif" font-size="14" lengthAdjust="spacing" textLength="570" x="224" y="207.5352">copyright 2016-2017, 2019 Open Connectivity Foundation, Inc. All rights reserved.</text><line style="stroke:#A80036;stroke-width:1.0;" x1="219" x2="219" y1="192" y2="212.4883"/><line style="stroke:#A80036;stroke-width:1.0;" x1="144" x2="799" y1="212.4883" y2="212.4883"/><text fill="#000000" font-family="sans-serif" font-size="14" lengthAdjust="spacing" textLength="47" x="149" y="228.0234">license</text><text fill="#000000" font-family="sans-serif" font-size="14" lengthAdjust="spacing" textLength="462" x="224" y="228.0234">https://github.com/one-data-model/oneDM/blob/master/LICENSE</text><line style="stroke:#A80036;stroke-width:1.0;" x1="219" x2="219" y1="212.4883" y2="232.9766"/><line style="stroke:#A80036;stroke-width:1.0;" x1="144" x2="799" y1="232.9766" y2="232.9766"/><text fill="#000000" font-family="sans-serif" font-size="14" lengthAdjust="spacing" textLength="26" x="149" y="248.5117">title</text><text fill="#000000" font-family="sans-serif" font-size="14" lengthAdjust="spacing" textLength="121" x="224" y="248.5117">Sensor Properties</text><line style="stroke:#A80036;stroke-width:1.0;" x1="219" x2="219" y1="232.9766" y2="253.4648"/><line style="stroke:#A80036;stroke-width:1.0;" x1="144" x2="799" y1="253.4648" y2="253.4648"/><text fill="#000000" font-family="sans-serif" font-size="14" lengthAdjust="spacing" textLength="50" x="149" y="269">version</text><text fill="#000000" font-family="sans-serif" font-size="14" lengthAdjust="spacing" textLength="88" x="224" y="269">2019-02-15</text><line style="stroke:#A80036;stroke-width:1.0;" x1="219" x2="219" y1="253.4648" y2="273.9531"/><rect fill="none" height="81.9531" rx="5" ry="5" style="stroke:#A80036;stroke-width:1.5;" width="655" x="144" y="192"/><rect fill="#FEFECE" height="20.4883" rx="5" ry="5" style="stroke:#FEFECE;stroke-width:1.5;" width="122" x="410.5" y="292"/><text fill="#000000" font-family="sans-serif" font-size="14" lengthAdjust="spacing" textLength="90" x="415.5" y="307.5352">sensor.props</text><text fill="#000000" font-family="sans-serif" font-size="14" lengthAdjust="spacing" textLength="0" x="527.5" y="307.5352"/><line style="stroke:#A80036;stroke-width:1.0;" x1="510.5" x2="510.5" y1="292" y2="312.4883"/><rect fill="none" height="20.4883" rx="5" ry="5" style="stroke:#A80036;stroke-width:1.5;" width="122" x="410.5" y="292"/><rect fill="#FEFECE" height="193.3711" rx="5" ry="5" style="stroke:#FEFECE;stroke-width:1.5;" width="584" x="836" y="205.5"/><text fill="#000000" font-family="sans-serif" font-size="14" lengthAdjust="spacing" textLength="77" x="841" y="221.0352">description</text><text fill="#000000" font-family="sans-serif" font-size="14" lengthAdjust="spacing" textLength="478" x="934" y="221.0352">This Resource describes the properties which guide the reporting of a</text><text fill="#000000" font-family="sans-serif" font-size="14" lengthAdjust="spacing" textLength="448" x="934" y="237.5234">state change of a Sensor. The Property "silenttime" represents the</text><text fill="#000000" font-family="sans-serif" font-size="14" lengthAdjust="spacing" textLength="461" x="934" y="254.0117">period after which a state change report was sent where the Sensor</text><text fill="#000000" font-family="sans-serif" font-size="14" lengthAdjust="spacing" textLength="447" x="934" y="270.5">state change is not reported. The Property "sensitivity" represents</text><text fill="#000000" font-family="sans-serif" font-size="14" lengthAdjust="spacing" textLength="446" x="934" y="286.9883">the level at which the sensor detects a state change. These values</text><text fill="#000000" font-family="sans-serif" font-size="14" lengthAdjust="spacing" textLength="481" x="934" y="303.4766">are completely dependent on the type of Sensor and the manufacturer</text><text fill="#000000" font-family="sans-serif" font-size="14" lengthAdjust="spacing" textLength="407" x="934" y="319.9648">capability, so no range restrictions are used. The Properties</text><text fill="#000000" font-family="sans-serif" font-size="14" lengthAdjust="spacing" textLength="443" x="934" y="336.4531">"range", "step" and "precision" are only applied to the "sensitivity"</text><text fill="#000000" font-family="sans-serif" font-size="14" lengthAdjust="spacing" textLength="62" x="934" y="352.9414">Property.</text><line style="stroke:#A80036;stroke-width:1.0;" x1="929" x2="929" y1="205.5" y2="357.8945"/><line style="stroke:#A80036;stroke-width:1.0;" x1="836" x2="1420" y1="357.8945" y2="357.8945"/><text fill="#000000" font-family="sans-serif" font-size="14" lengthAdjust="spacing" textLength="79" x="841" y="373.4297">sdfProperty</text><text fill="#000000" font-family="sans-serif" font-size="14" lengthAdjust="spacing" textLength="0" x="946" y="373.4297"/><line style="stroke:#A80036;stroke-width:1.0;" x1="929" x2="929" y1="357.8945" y2="378.3828"/><line style="stroke:#A80036;stroke-width:1.0;" x1="836" x2="1420" y1="378.3828" y2="378.3828"/><text fill="#000000" font-family="sans-serif" font-size="14" lengthAdjust="spacing" textLength="83" x="841" y="393.918">sdfRequired</text><text fill="#000000" font-family="sans-serif" font-size="14" lengthAdjust="spacing" textLength="0" x="946" y="393.918"/><line style="stroke:#A80036;stroke-width:1.0;" x1="929" x2="929" y1="378.3828" y2="398.8711"/><rect fill="none" height="193.3711" rx="5" ry="5" style="stroke:#A80036;stroke-width:1.5;" width="584" x="836" y="205.5"/><rect fill="#FEFECE" height="102.4414" rx="5" ry="5" style="stroke:#FEFECE;stroke-width:1.5;" width="99" x="1581.5" y="238"/><text fill="#000000" font-family="sans-serif" font-size="14" lengthAdjust="spacing" textLength="67" x="1586.5" y="253.5352">silenttime</text><text fill="#000000" font-family="sans-serif" font-size="14" lengthAdjust="spacing" textLength="0" x="1675.5" y="253.5352"/><line style="stroke:#A80036;stroke-width:1.0;" x1="1658.5" x2="1658.5" y1="238" y2="258.4883"/><line style="stroke:#A80036;stroke-width:1.0;" x1="1581.5" x2="1680.5" y1="258.4883" y2="258.4883"/><text fill="#000000" font-family="sans-serif" font-size="14" lengthAdjust="spacing" textLength="67" x="1586.5" y="274.0234">sensitivity</text><text fill="#000000" font-family="sans-serif" font-size="14" lengthAdjust="spacing" textLength="0" x="1675.5" y="274.0234"/><line style="stroke:#A80036;stroke-width:1.0;" x1="1658.5" x2="1658.5" y1="258.4883" y2="278.9766"/><line style="stroke:#A80036;stroke-width:1.0;" x1="1581.5" x2="1680.5" y1="278.9766" y2="278.9766"/><text fill="#000000" font-family="sans-serif" font-size="14" lengthAdjust="spacing" textLength="40" x="1586.5" y="294.5117">range</text><text fill="#000000" font-family="sans-serif" font-size="14" lengthAdjust="spacing" textLength="0" x="1675.5" y="294.5117"/><line style="stroke:#A80036;stroke-width:1.0;" x1="1658.5" x2="1658.5" y1="278.9766" y2="299.4648"/><line style="stroke:#A80036;stroke-width:1.0;" x1="1581.5" x2="1680.5" y1="299.4648" y2="299.4648"/><text fill="#000000" font-family="sans-serif" font-size="14" lengthAdjust="spacing" textLength="29" x="1586.5" y="315">step</text><text fill="#000000" font-family="sans-serif" font-size="14" lengthAdjust="spacing" textLength="0" x="1675.5" y="315"/><line style="stroke:#A80036;stroke-width:1.0;" x1="1658.5" x2="1658.5" y1="299.4648" y2="319.9531"/><line style="stroke:#A80036;stroke-width:1.0;" x1="1581.5" x2="1680.5" y1="319.9531" y2="319.9531"/><text fill="#000000" font-family="sans-serif" font-size="14" lengthAdjust="spacing" textLength="63" x="1586.5" y="335.4883">precision</text><text fill="#000000" font-family="sans-serif" font-size="14" lengthAdjust="spacing" textLength="0" x="1675.5" y="335.4883"/><line style="stroke:#A80036;stroke-width:1.0;" x1="1658.5" x2="1658.5" y1="319.9531" y2="340.4414"/><rect fill="none" height="102.4414" rx="5" ry="5" style="stroke:#A80036;stroke-width:1.5;" width="99" x="1581.5" y="238"/><rect fill="#FEFECE" height="73.9531" rx="5" ry="5" style="stroke:#FEFECE;stroke-width:1.5;" width="569" x="1842.5" y="10"/><text fill="#000000" font-family="sans-serif" font-size="14" lengthAdjust="spacing" textLength="77" x="1847.5" y="25.5352">description</text><text fill="#000000" font-family="sans-serif" font-size="14" lengthAdjust="spacing" textLength="418" x="1934.5" y="25.5352">The time in seconds from the previous report that the Sensor</text><text fill="#000000" font-family="sans-serif" font-size="14" lengthAdjust="spacing" textLength="472" x="1934.5" y="42.0234">restrains from sending a state change. This is used to avoid repeated</text><text fill="#000000" font-family="sans-serif" font-size="14" lengthAdjust="spacing" textLength="145" x="1934.5" y="58.5117">state change reports.</text><line style="stroke:#A80036;stroke-width:1.0;" x1="1929.5" x2="1929.5" y1="10" y2="63.4648"/><line style="stroke:#A80036;stroke-width:1.0;" x1="1842.5" x2="2411.5" y1="63.4648" y2="63.4648"/><text fill="#000000" font-family="sans-serif" font-size="14" lengthAdjust="spacing" textLength="29" x="1847.5" y="79">type</text><text fill="#000000" font-family="sans-serif" font-size="14" lengthAdjust="spacing" textLength="49" x="1934.5" y="79">integer</text><line style="stroke:#A80036;stroke-width:1.0;" x1="1929.5" x2="1929.5" y1="63.4648" y2="83.9531"/><rect fill="none" height="73.9531" rx="5" ry="5" style="stroke:#A80036;stroke-width:1.5;" width="569" x="1842.5" y="10"/><rect fill="#FEFECE" height="90.4414" rx="5" ry="5" style="stroke:#FEFECE;stroke-width:1.5;" width="535" x="1859.5" y="102"/><text fill="#000000" font-family="sans-serif" font-size="14" lengthAdjust="spacing" textLength="77" x="1864.5" y="117.5352">description</text><text fill="#000000" font-family="sans-serif" font-size="14" lengthAdjust="spacing" textLength="438" x="1951.5" y="117.5352">The level of the detection accuracy of the Sensor. This is used to</text><text fill="#000000" font-family="sans-serif" font-size="14" lengthAdjust="spacing" textLength="438" x="1951.5" y="134.0234">control the level at which the Sensor detects a state change. The</text><text fill="#000000" font-family="sans-serif" font-size="14" lengthAdjust="spacing" textLength="420" x="1951.5" y="150.5117">"range" Property should be specified per manufacturer device</text><text fill="#000000" font-family="sans-serif" font-size="14" lengthAdjust="spacing" textLength="81" x="1951.5" y="167">capabilities.</text><line style="stroke:#A80036;stroke-width:1.0;" x1="1946.5" x2="1946.5" y1="102" y2="171.9531"/><line style="stroke:#A80036;stroke-width:1.0;" x1="1859.5" x2="2394.5" y1="171.9531" y2="171.9531"/><text fill="#000000" font-family="sans-serif" font-size="14" lengthAdjust="spacing" textLength="29" x="1864.5" y="187.4883">type</text><text fill="#000000" font-family="sans-serif" font-size="14" lengthAdjust="spacing" textLength="54" x="1951.5" y="187.4883">number</text><line style="stroke:#A80036;stroke-width:1.0;" x1="1946.5" x2="1946.5" y1="171.9531" y2="192.4414"/><rect fill="none" height="90.4414" rx="5" ry="5" style="stroke:#A80036;stroke-width:1.5;" width="535" x="1859.5" y="102"/><rect fill="#FEFECE" height="155.9063" rx="5" ry="5" style="stroke:#FEFECE;stroke-width:1.5;" width="548" x="1853" y="210"/><text fill="#000000" font-family="sans-serif" font-size="14" lengthAdjust="spacing" textLength="29" x="1858" y="225.5352">type</text><text fill="#000000" font-family="sans-serif" font-size="14" lengthAdjust="spacing" textLength="35" x="1945" y="225.5352">array</text><line style="stroke:#A80036;stroke-width:1.0;" x1="1940" x2="1940" y1="210" y2="230.4883"/><line style="stroke:#A80036;stroke-width:1.0;" x1="1853" x2="2401" y1="230.4883" y2="230.4883"/><text fill="#000000" font-family="sans-serif" font-size="14" lengthAdjust="spacing" textLength="77" x="1858" y="246.0234">description</text><text fill="#000000" font-family="sans-serif" font-size="14" lengthAdjust="spacing" textLength="451" x="1945" y="246.0234">The valid range for the Property in the Resource as a number. The</text><text fill="#000000" font-family="sans-serif" font-size="14" lengthAdjust="spacing" textLength="439" x="1945" y="262.5117">first value in the array is the minimum value, the second value in</text><text fill="#000000" font-family="sans-serif" font-size="14" lengthAdjust="spacing" textLength="219" x="1945" y="279">the array is the maximum value.</text><line style="stroke:#A80036;stroke-width:1.0;" x1="1940" x2="1940" y1="230.4883" y2="283.9531"/><line style="stroke:#A80036;stroke-width:1.0;" x1="1853" x2="2401" y1="283.9531" y2="283.9531"/><text fill="#000000" font-family="sans-serif" font-size="14" lengthAdjust="spacing" textLength="55" x="1858" y="299.4883">writable</text><text fill="#000000" font-family="sans-serif" font-size="14" lengthAdjust="spacing" textLength="48" x="1945" y="299.4883">☐ false</text><line style="stroke:#A80036;stroke-width:1.0;" x1="1940" x2="1940" y1="283.9531" y2="304.4414"/><line style="stroke:#A80036;stroke-width:1.0;" x1="1853" x2="2401" y1="304.4414" y2="304.4414"/><text fill="#000000" font-family="sans-serif" font-size="14" lengthAdjust="spacing" textLength="63" x="1858" y="319.9766">minItems</text><text fill="#000000" font-family="sans-serif" font-size="14" lengthAdjust="spacing" textLength="9" x="1945" y="319.9766">2</text><line style="stroke:#A80036;stroke-width:1.0;" x1="1940" x2="1940" y1="304.4414" y2="324.9297"/><line style="stroke:#A80036;stroke-width:1.0;" x1="1853" x2="2401" y1="324.9297" y2="324.9297"/><text fill="#000000" font-family="sans-serif" font-size="14" lengthAdjust="spacing" textLength="67" x="1858" y="340.4648">maxItems</text><text fill="#000000" font-family="sans-serif" font-size="14" lengthAdjust="spacing" textLength="9" x="1945" y="340.4648">2</text><line style="stroke:#A80036;stroke-width:1.0;" x1="1940" x2="1940" y1="324.9297" y2="345.418"/><line style="stroke:#A80036;stroke-width:1.0;" x1="1853" x2="2401" y1="345.418" y2="345.418"/><text fill="#000000" font-family="sans-serif" font-size="14" lengthAdjust="spacing" textLength="37" x="1858" y="360.9531">items</text><text fill="#000000" font-family="sans-serif" font-size="14" lengthAdjust="spacing" textLength="0" x="1957" y="360.9531"/><line style="stroke:#A80036;stroke-width:1.0;" x1="1940" x2="1940" y1="345.418" y2="365.9063"/><rect fill="none" height="155.9063" rx="5" ry="5" style="stroke:#A80036;stroke-width:1.5;" width="548" x="1853" y="210"/><rect fill="#FEFECE" height="20.4883" rx="5" ry="5" style="stroke:#FEFECE;stroke-width:1.5;" width="103" x="2449" y="343"/><text fill="#000000" font-family="sans-serif" font-size="14" lengthAdjust="spacing" textLength="29" x="2454" y="358.5352">type</text><text fill="#000000" font-family="sans-serif" font-size="14" lengthAdjust="spacing" textLength="54" x="2493" y="358.5352">number</text><line style="stroke:#A80036;stroke-width:1.0;" x1="2488" x2="2488" y1="343" y2="363.4883"/><rect fill="none" height="20.4883" rx="5" ry="5" style="stroke:#A80036;stroke-width:1.5;" width="103" x="2449" y="343"/><rect fill="#FEFECE" height="110.9297" rx="5" ry="5" style="stroke:#FEFECE;stroke-width:1.5;" width="555" x="1849.5" y="384.5"/><text fill="#000000" font-family="sans-serif" font-size="14" lengthAdjust="spacing" textLength="77" x="1854.5" y="400.0352">description</text><text fill="#000000" font-family="sans-serif" font-size="14" lengthAdjust="spacing" textLength="456" x="1941.5" y="400.0352">Step value across the defined range an integer when the range is a</text><text fill="#000000" font-family="sans-serif" font-size="14" lengthAdjust="spacing" textLength="458" x="1941.5" y="416.5234">number.  This is the increment for valid values across the range; so</text><text fill="#000000" font-family="sans-serif" font-size="14" lengthAdjust="spacing" textLength="381" x="1941.5" y="433.0117">if range is 0.0..10.0 and step is 2.5 then valid values are</text><text fill="#000000" font-family="sans-serif" font-size="14" lengthAdjust="spacing" textLength="139" x="1941.5" y="449.5">0.0,2.5,5.0,7.5,10.0.</text><line style="stroke:#A80036;stroke-width:1.0;" x1="1936.5" x2="1936.5" y1="384.5" y2="454.4531"/><line style="stroke:#A80036;stroke-width:1.0;" x1="1849.5" x2="2404.5" y1="454.4531" y2="454.4531"/><text fill="#000000" font-family="sans-serif" font-size="14" lengthAdjust="spacing" textLength="55" x="1854.5" y="469.9883">writable</text><text fill="#000000" font-family="sans-serif" font-size="14" lengthAdjust="spacing" textLength="48" x="1941.5" y="469.9883">☐ false</text><line style="stroke:#A80036;stroke-width:1.0;" x1="1936.5" x2="1936.5" y1="454.4531" y2="474.9414"/><line style="stroke:#A80036;stroke-width:1.0;" x1="1849.5" x2="2404.5" y1="474.9414" y2="474.9414"/><text fill="#000000" font-family="sans-serif" font-size="14" lengthAdjust="spacing" textLength="29" x="1854.5" y="490.4766">type</text><text fill="#000000" font-family="sans-serif" font-size="14" lengthAdjust="spacing" textLength="54" x="1941.5" y="490.4766">number</text><line style="stroke:#A80036;stroke-width:1.0;" x1="1936.5" x2="1936.5" y1="474.9414" y2="495.4297"/><rect fill="none" height="110.9297" rx="5" ry="5" style="stroke:#A80036;stroke-width:1.5;" width="555" x="1849.5" y="384.5"/><rect fill="#FEFECE" height="110.9297" rx="5" ry="5" style="stroke:#FEFECE;stroke-width:1.5;" width="570" x="1842" y="513.5"/><text fill="#000000" font-family="sans-serif" font-size="14" lengthAdjust="spacing" textLength="29" x="1847" y="529.0352">type</text><text fill="#000000" font-family="sans-serif" font-size="14" lengthAdjust="spacing" textLength="54" x="1934" y="529.0352">number</text><line style="stroke:#A80036;stroke-width:1.0;" x1="1929" x2="1929" y1="513.5" y2="533.9883"/><line style="stroke:#A80036;stroke-width:1.0;" x1="1842" x2="2412" y1="533.9883" y2="533.9883"/><text fill="#000000" font-family="sans-serif" font-size="14" lengthAdjust="spacing" textLength="55" x="1847" y="549.5234">writable</text><text fill="#000000" font-family="sans-serif" font-size="14" lengthAdjust="spacing" textLength="48" x="1934" y="549.5234">☐ false</text><line style="stroke:#A80036;stroke-width:1.0;" x1="1929" x2="1929" y1="533.9883" y2="554.4766"/><line style="stroke:#A80036;stroke-width:1.0;" x1="1842" x2="2412" y1="554.4766" y2="554.4766"/><text fill="#000000" font-family="sans-serif" font-size="14" lengthAdjust="spacing" textLength="77" x="1847" y="570.0117">description</text><text fill="#000000" font-family="sans-serif" font-size="14" lengthAdjust="spacing" textLength="430" x="1934" y="570.0117">When exposed the value in 'precision' provides a +/- tolerance</text><text fill="#000000" font-family="sans-serif" font-size="14" lengthAdjust="spacing" textLength="473" x="1934" y="586.5">against the Properties in the Resource. Thus if a Property is UPDATED</text><text fill="#000000" font-family="sans-serif" font-size="14" lengthAdjust="spacing" textLength="465" x="1934" y="602.9883">to a value and that Property then RETRIEVED, the RETRIEVED value is</text><text fill="#000000" font-family="sans-serif" font-size="14" lengthAdjust="spacing" textLength="337" x="1934" y="619.4766">valid if in the range of the set value +/- precision</text><line style="stroke:#A80036;stroke-width:1.0;" x1="1929" x2="1929" y1="554.4766" y2="624.4297"/><rect fill="none" height="110.9297" rx="5" ry="5" style="stroke:#A80036;stroke-width:1.5;" width="570" x="1842" y="513.5"/><rect fill="#FEFECE" height="40.9766" rx="5" ry="5" style="stroke:#FEFECE;stroke-width:1.5;" width="348" x="1457" y="358.5"/><text fill="#000000" font-family="sans-serif" font-size="14" lengthAdjust="spacing" textLength="338" x="1462" y="374.0352">#/sdfObject/sensor.props/sdfProperty/silenttime</text><line style="stroke:#A80036;stroke-width:1.0;" x1="1457" x2="1805" y1="378.9883" y2="378.9883"/><text fill="#000000" font-family="sans-serif" font-size="14" lengthAdjust="spacing" textLength="338" x="1462" y="394.5234">#/sdfObject/sensor.props/sdfProperty/sensitivity</text><rect fill="none" height="40.9766" rx="5" ry="5" style="stroke:#A80036;stroke-width:1.5;" width="348" x="1457" y="358.5"/><path d="M95,257 L108,257 C117.3442,257 126.8208,256.9198 136.3833,256.7688 " fill="none" style="stroke:#A80036;stroke-width:1.0;stroke-dasharray:3.0,3.0;"/><path d="M136.4378,259.8434 L138.6892,256.7279 L136.3288,253.6942 L144.0697,256.6326 L136.4378,259.8434 " fill="#A80036" style="stroke:#A80036;stroke-width:1.0;"/><ellipse cx="95" cy="257" fill="#A80036" rx="3" ry="3" style="stroke:#A80036;stroke-width:1.0;stroke-dasharray:3.0,3.0;"/><path d="M1669.5,248 L1682.5,248 C1781.3479,248 1753.6784,137.3871 1842,93 C1846.0811,90.949 1850.233,88.9857 1854.4453,87.1066 " fill="none" style="stroke:#A80036;stroke-width:1.0;stroke-dasharray:3.0,3.0;"/><path d="M1855.6788,89.9643 L1856.5886,86.1815 L1853.2119,84.2489 L1861.5897,84.023 L1855.6788,89.9643 " fill="#A80036" style="stroke:#A80036;stroke-width:1.0;"/><ellipse cx="1669.5" cy="248" fill="#A80036" rx="3" ry="3" style="stroke:#A80036;stroke-width:1.0;stroke-dasharray:3.0,3.0;"/><path d="M1669.5,268 L1682.5,268 C1759.3892,268 1768.3794,223.1802 1842,201 C1850.0047,198.5884 1858.1698,196.2622 1866.4408,194.0206 " fill="none" style="stroke:#A80036;stroke-width:1.0;stroke-dasharray:3.0,3.0;"/><path d="M1867.2201,196.9383 L1868.6291,193.4361 L1865.6616,191.1028 L1873.7352,192.0724 L1867.2201,196.9383 " fill="#A80036" style="stroke:#A80036;stroke-width:1.0;"/><ellipse cx="1669.5" cy="268" fill="#A80036" rx="3" ry="3" style="stroke:#A80036;stroke-width:1.0;stroke-dasharray:3.0,3.0;"/><path d="M2389.5,353 L2402.5,353 C2415.235,353 2428.9056,353 2441.8621,353 " fill="none" style="stroke:#A80036;stroke-width:1.0;stroke-dasharray:3.0,3.0;"/><path d="M2441.8621,356.0134 L2444.1221,353 L2441.8621,349.9866 L2449.3956,353 L2441.8621,356.0134 " fill="#A80036" style="stroke:#A80036;stroke-width:1.0;"/><ellipse cx="2389.5" cy="353" fill="#A80036" rx="3" ry="3" style="stroke:#A80036;stroke-width:1.0;stroke-dasharray:3.0,3.0;"/><path d="M1669.5,288 L1682.5,288 C1735.2308,288 1791.4842,288 1845.6123,288 " fill="none" style="stroke:#A80036;stroke-width:1.0;stroke-dasharray:3.0,3.0;"/><path d="M1845.6123,291.0492 L1847.8992,288 L1845.6123,284.9508 L1853.2354,288 L1845.6123,291.0492 " fill="#A80036" style="stroke:#A80036;stroke-width:1.0;"/><ellipse cx="1669.5" cy="288" fill="#A80036" rx="3" ry="3" style="stroke:#A80036;stroke-width:1.0;stroke-dasharray:3.0,3.0;"/><path d="M1669.5,309 L1682.5,309 C1740.3346,309 1754.2741,324.1297 1806,350 C1823.4221,358.7136 1824.1802,367.1317 1842,375 C1847.0983,377.2511 1852.2837,379.4288 1857.5394,381.5352 " fill="none" style="stroke:#A80036;stroke-width:1.0;stroke-dasharray:3.0,3.0;"/><path d="M1856.408,384.4187 L1859.702,382.3837 L1858.6707,378.6517 L1864.7482,384.3636 L1856.408,384.4187 " fill="#A80036" style="stroke:#A80036;stroke-width:1.0;"/><ellipse cx="1669.5" cy="309" fill="#A80036" rx="3" ry="3" style="stroke:#A80036;stroke-width:1.0;stroke-dasharray:3.0,3.0;"/><path d="M1669.5,330 L1682.5,330 C1738.104,330 1765.3746,312.0345 1806,350 C1857.6713,398.2883 1791.8184,455.1654 1842,505 C1843.1114,506.1037 1844.2374,507.19 1845.3776,508.2593 " fill="none" style="stroke:#A80036;stroke-width:1.0;stroke-dasharray:3.0,3.0;"/><path d="M1843.2955,510.586 L1847.1226,509.8209 L1847.4597,505.9326 L1851.1944,513.4645 L1843.2955,510.586 " fill="#A80036" style="stroke:#A80036;stroke-width:1.0;"/><ellipse cx="1669.5" cy="330" fill="#A80036" rx="3" ry="3" style="stroke:#A80036;stroke-width:1.0;stroke-dasharray:3.0,3.0;"/><path d="M1408,301 L1421,301 C1472.9592,301 1532.0487,297.2754 1574.1964,293.9763 " fill="none" style="stroke:#A80036;stroke-width:1.0;stroke-dasharray:3.0,3.0;"/><path d="M1574.4404,297.0432 L1576.4965,293.7933 L1573.9523,290.9094 L1581.8635,293.3662 L1574.4404,297.0432 " fill="#A80036" style="stroke:#A80036;stroke-width:1.0;"/><ellipse cx="1408" cy="301" fill="#A80036" rx="3" ry="3" style="stroke:#A80036;stroke-width:1.0;stroke-dasharray:3.0,3.0;"/><path d="M1408,366 L1421,366 C1430.3452,366 1439.9205,366.1305 1449.5859,366.3652 " fill="none" style="stroke:#A80036;stroke-width:1.0;stroke-dasharray:3.0,3.0;"/><path d="M1449.5018,369.4725 L1451.9163,366.4283 L1449.6699,363.258 L1457.354,366.5754 L1449.5018,369.4725 " fill="#A80036" style="stroke:#A80036;stroke-width:1.0;"/><ellipse cx="1408" cy="366" fill="#A80036" rx="3" ry="3" style="stroke:#A80036;stroke-width:1.0;stroke-dasharray:3.0,3.0;"/><path d="M521,302 L534,302 C629.8069,302 734.3133,302 828.5607,302 " fill="none" style="stroke:#A80036;stroke-width:1.0;stroke-dasharray:3.0,3.0;"/><path d="M828.5607,305.0536 L830.8509,302 L828.5607,298.9464 L836.1948,302 L828.5607,305.0536 " fill="#A80036" style="stroke:#A80036;stroke-width:1.0;"/><ellipse cx="521" cy="302" fill="#A80036" rx="3" ry="3" style="stroke:#A80036;stroke-width:1.0;stroke-dasharray:3.0,3.0;"/><path d="M95,278 L108,278 C124.1536,278 127.924,281.4191 144,283 C233.3239,291.7839 336.8038,296.9588 403.0305,299.636 " fill="none" style="stroke:#A80036;stroke-width:1.0;stroke-dasharray:3.0,3.0;"/><path d="M402.9048,302.7913 L405.3969,299.7303 L403.1561,296.4807 L410.9187,299.9502 L402.9048,302.7913 " fill="#A80036" style="stroke:#A80036;stroke-width:1.0;"/><ellipse cx="95" cy="278" fill="#A80036" rx="3" ry="3" style="stroke:#A80036;stroke-width:1.0;stroke-dasharray:3.0,3.0;"/><!--MD5=[d64c4130df78b28f86629c558963ca4e]
@startjson
{
  "info": {
    "copyright": "copyright 2016-2017, 2019 Open Connectivity Foundation, Inc. All rights reserved.",
    "license": "https://github.com/one-data-model/oneDM/blob/master/LICENSE",
    "title": "Sensor Properties",
    "version": "2019-02-15"
  },
  "sdfObject": {
    "sensor.props": {
      "description": "This Resource describes the properties which guide the reporting of a\\nstate change of a Sensor. The Property \"silenttime\" represents the\\nperiod after which a state change report was sent where the Sensor\\nstate change is not reported. The Property \"sensitivity\" represents\\nthe level at which the sensor detects a state change. These values\\nare completely dependent on the type of Sensor and the manufacturer\\ncapability, so no range restrictions are used. The Properties\\n\"range\", \"step\" and \"precision\" are only applied to the \"sensitivity\"\\nProperty.",
      "sdfProperty": {
        "silenttime": {
          "description": "The time in seconds from the previous report that the Sensor\\nrestrains from sending a state change. This is used to avoid repeated\\nstate change reports.",
          "type": "integer"
        },
        "sensitivity": {
          "description": "The level of the detection accuracy of the Sensor. This is used to\\ncontrol the level at which the Sensor detects a state change. The\\n\"range\" Property should be specified per manufacturer device\\ncapabilities.",
          "type": "number"
        },
        "range": {
          "type": "array",
          "description": "The valid range for the Property in the Resource as a number. The\\nfirst value in the array is the minimum value, the second value in\\nthe array is the maximum value.",
          "writable": false,
          "minItems": 2,
          "maxItems": 2,
          "items": {
            "type": "number"
          }
        },
        "step": {
          "description": "Step value across the defined range an integer when the range is a\\nnumber.  This is the increment for valid values across the range; so\\nif range is 0.0..10.0 and step is 2.5 then valid values are\\n0.0,2.5,5.0,7.5,10.0.",
          "writable": false,
          "type": "number"
        },
        "precision": {
          "type": "number",
          "writable": false,
          "description": "When exposed the value in 'precision' provides a +/- tolerance\\nagainst the Properties in the Resource. Thus if a Property is UPDATED\\nto a value and that Property then RETRIEVED, the RETRIEVED value is\\nvalid if in the range of the set value +/- precision"
        }
      },
      "sdfRequired": [
        "#/sdfObject/sensor.props/sdfProperty/silenttime",
        "#/sdfObject/sensor.props/sdfProperty/sensitivity"
      ]
    }
  }
}
@endjson

PlantUML version 1.2021.2(Sun Mar 07 13:10:27 EET 2021)
(GPL source distribution)
Java Runtime: OpenJDK Runtime Environment
JVM: OpenJDK 64-Bit Server VM
Default Encoding: UTF-8
Language: en
Country: FI
--></g></svg>