<?xml version="1.0" encoding="UTF-8" standalone="no"?><svg xmlns="http://www.w3.org/2000/svg" xmlns:xlink="http://www.w3.org/1999/xlink" contentScriptType="application/ecmascript" contentStyleType="text/css" height="645px" preserveAspectRatio="none" style="width:2481px;height:645px;" version="1.1" viewBox="0 0 2481 645" width="2481px" zoomAndPan="magnify"><defs/><g><rect fill="#FEFECE" height="40.9766" rx="5" ry="5" style="stroke:#FEFECE;stroke-width:1.5;" width="97" x="10" y="315.5"/><text fill="#000000" font-family="sans-serif" font-size="14" lengthAdjust="spacing" textLength="27" x="15" y="331.0352">info</text><text fill="#000000" font-family="sans-serif" font-size="14" lengthAdjust="spacing" textLength="0" x="102" y="331.0352"/><line style="stroke:#A80036;stroke-width:1.0;" x1="85" x2="85" y1="315.5" y2="335.9883"/><line style="stroke:#A80036;stroke-width:1.0;" x1="10" x2="107" y1="335.9883" y2="335.9883"/><text fill="#000000" font-family="sans-serif" font-size="14" lengthAdjust="spacing" textLength="65" x="15" y="351.5234">sdfObject</text><text fill="#000000" font-family="sans-serif" font-size="14" lengthAdjust="spacing" textLength="0" x="102" y="351.5234"/><line style="stroke:#A80036;stroke-width:1.0;" x1="85" x2="85" y1="335.9883" y2="356.4766"/><rect fill="none" height="40.9766" rx="5" ry="5" style="stroke:#A80036;stroke-width:1.5;" width="97" x="10" y="315.5"/><rect fill="#FEFECE" height="81.9531" rx="5" ry="5" style="stroke:#FEFECE;stroke-width:1.5;" width="567" x="144" y="260"/><text fill="#000000" font-family="sans-serif" font-size="14" lengthAdjust="spacing" textLength="65" x="149" y="275.5352">copyright</text><text fill="#000000" font-family="sans-serif" font-size="14" lengthAdjust="spacing" textLength="482" x="224" y="275.5352">copyright 2019 Open Connectivity Foundation, Inc. All rights reserved.</text><line style="stroke:#A80036;stroke-width:1.0;" x1="219" x2="219" y1="260" y2="280.4883"/><line style="stroke:#A80036;stroke-width:1.0;" x1="144" x2="711" y1="280.4883" y2="280.4883"/><text fill="#000000" font-family="sans-serif" font-size="14" lengthAdjust="spacing" textLength="47" x="149" y="296.0234">license</text><text fill="#000000" font-family="sans-serif" font-size="14" lengthAdjust="spacing" textLength="462" x="224" y="296.0234">https://github.com/one-data-model/oneDM/blob/master/LICENSE</text><line style="stroke:#A80036;stroke-width:1.0;" x1="219" x2="219" y1="280.4883" y2="300.9766"/><line style="stroke:#A80036;stroke-width:1.0;" x1="144" x2="711" y1="300.9766" y2="300.9766"/><text fill="#000000" font-family="sans-serif" font-size="14" lengthAdjust="spacing" textLength="26" x="149" y="316.5117">title</text><text fill="#000000" font-family="sans-serif" font-size="14" lengthAdjust="spacing" textLength="333" x="224" y="316.5117">PV array system connection terminal (IEC 61850)</text><line style="stroke:#A80036;stroke-width:1.0;" x1="219" x2="219" y1="300.9766" y2="321.4648"/><line style="stroke:#A80036;stroke-width:1.0;" x1="144" x2="711" y1="321.4648" y2="321.4648"/><text fill="#000000" font-family="sans-serif" font-size="14" lengthAdjust="spacing" textLength="50" x="149" y="337">version</text><text fill="#000000" font-family="sans-serif" font-size="14" lengthAdjust="spacing" textLength="88" x="224" y="337">2019-06-13</text><line style="stroke:#A80036;stroke-width:1.0;" x1="219" x2="219" y1="321.4648" y2="341.9531"/><rect fill="none" height="81.9531" rx="5" ry="5" style="stroke:#A80036;stroke-width:1.5;" width="567" x="144" y="260"/><rect fill="#FEFECE" height="20.4883" rx="5" ry="5" style="stroke:#FEFECE;stroke-width:1.5;" width="181" x="337" y="360"/><text fill="#000000" font-family="sans-serif" font-size="14" lengthAdjust="spacing" textLength="149" x="342" y="375.5352">pvconnectionterminal</text><text fill="#000000" font-family="sans-serif" font-size="14" lengthAdjust="spacing" textLength="0" x="513" y="375.5352"/><line style="stroke:#A80036;stroke-width:1.0;" x1="496" x2="496" y1="360" y2="380.4883"/><rect fill="none" height="20.4883" rx="5" ry="5" style="stroke:#A80036;stroke-width:1.5;" width="181" x="337" y="360"/><rect fill="#FEFECE" height="77.9531" rx="5" ry="5" style="stroke:#FEFECE;stroke-width:1.5;" width="568" x="748" y="331"/><text fill="#000000" font-family="sans-serif" font-size="14" lengthAdjust="spacing" textLength="77" x="753" y="346.5352">description</text><text fill="#000000" font-family="sans-serif" font-size="14" lengthAdjust="spacing" textLength="465" x="846" y="346.5352">This Resource describes functions for the control and monitoring of</text><text fill="#000000" font-family="sans-serif" font-size="14" lengthAdjust="spacing" textLength="374" x="846" y="363.0234">IEC 61850 based PV Array system connection terminal.</text><line style="stroke:#A80036;stroke-width:1.0;" x1="841" x2="841" y1="331" y2="367.9766"/><line style="stroke:#A80036;stroke-width:1.0;" x1="748" x2="1316" y1="367.9766" y2="367.9766"/><text fill="#000000" font-family="sans-serif" font-size="14" lengthAdjust="spacing" textLength="79" x="753" y="383.5117">sdfProperty</text><text fill="#000000" font-family="sans-serif" font-size="14" lengthAdjust="spacing" textLength="0" x="858" y="383.5117"/><line style="stroke:#A80036;stroke-width:1.0;" x1="841" x2="841" y1="367.9766" y2="388.4648"/><line style="stroke:#A80036;stroke-width:1.0;" x1="748" x2="1316" y1="388.4648" y2="388.4648"/><text fill="#000000" font-family="sans-serif" font-size="14" lengthAdjust="spacing" textLength="83" x="753" y="404">sdfRequired</text><text fill="#000000" font-family="sans-serif" font-size="14" lengthAdjust="spacing" textLength="0" x="858" y="404"/><line style="stroke:#A80036;stroke-width:1.0;" x1="841" x2="841" y1="388.4648" y2="408.9531"/><rect fill="none" height="77.9531" rx="5" ry="5" style="stroke:#A80036;stroke-width:1.5;" width="568" x="748" y="331"/><rect fill="#FEFECE" height="143.418" rx="5" ry="5" style="stroke:#FEFECE;stroke-width:1.5;" width="169" x="1499" y="241.5"/><text fill="#000000" font-family="sans-serif" font-size="14" lengthAdjust="spacing" textLength="121" x="1504" y="257.0352">ratedarrayvoltage</text><text fill="#000000" font-family="sans-serif" font-size="14" lengthAdjust="spacing" textLength="0" x="1663" y="257.0352"/><line style="stroke:#A80036;stroke-width:1.0;" x1="1646" x2="1646" y1="241.5" y2="261.9883"/><line style="stroke:#A80036;stroke-width:1.0;" x1="1499" x2="1668" y1="261.9883" y2="261.9883"/><text fill="#000000" font-family="sans-serif" font-size="14" lengthAdjust="spacing" textLength="121" x="1504" y="277.5234">ratedarraycurrent</text><text fill="#000000" font-family="sans-serif" font-size="14" lengthAdjust="spacing" textLength="0" x="1663" y="277.5234"/><line style="stroke:#A80036;stroke-width:1.0;" x1="1646" x2="1646" y1="261.9883" y2="282.4766"/><line style="stroke:#A80036;stroke-width:1.0;" x1="1499" x2="1668" y1="282.4766" y2="282.4766"/><text fill="#000000" font-family="sans-serif" font-size="14" lengthAdjust="spacing" textLength="85" x="1504" y="298.0117">arrayvoltage</text><text fill="#000000" font-family="sans-serif" font-size="14" lengthAdjust="spacing" textLength="0" x="1663" y="298.0117"/><line style="stroke:#A80036;stroke-width:1.0;" x1="1646" x2="1646" y1="282.4766" y2="302.9648"/><line style="stroke:#A80036;stroke-width:1.0;" x1="1499" x2="1668" y1="302.9648" y2="302.9648"/><text fill="#000000" font-family="sans-serif" font-size="14" lengthAdjust="spacing" textLength="85" x="1504" y="318.5">arraycurrent</text><text fill="#000000" font-family="sans-serif" font-size="14" lengthAdjust="spacing" textLength="0" x="1663" y="318.5"/><line style="stroke:#A80036;stroke-width:1.0;" x1="1646" x2="1646" y1="302.9648" y2="323.4531"/><line style="stroke:#A80036;stroke-width:1.0;" x1="1499" x2="1668" y1="323.4531" y2="323.4531"/><text fill="#000000" font-family="sans-serif" font-size="14" lengthAdjust="spacing" textLength="103" x="1504" y="338.9883">leakagecurrent</text><text fill="#000000" font-family="sans-serif" font-size="14" lengthAdjust="spacing" textLength="0" x="1663" y="338.9883"/><line style="stroke:#A80036;stroke-width:1.0;" x1="1646" x2="1646" y1="323.4531" y2="343.9414"/><line style="stroke:#A80036;stroke-width:1.0;" x1="1499" x2="1668" y1="343.9414" y2="343.9414"/><text fill="#000000" font-family="sans-serif" font-size="14" lengthAdjust="spacing" textLength="137" x="1504" y="359.4766">insulationresistance</text><text fill="#000000" font-family="sans-serif" font-size="14" lengthAdjust="spacing" textLength="0" x="1663" y="359.4766"/><line style="stroke:#A80036;stroke-width:1.0;" x1="1646" x2="1646" y1="343.9414" y2="364.4297"/><line style="stroke:#A80036;stroke-width:1.0;" x1="1499" x2="1668" y1="364.4297" y2="364.4297"/><text fill="#000000" font-family="sans-serif" font-size="14" lengthAdjust="spacing" textLength="72" x="1504" y="379.9648">timestamp</text><text fill="#000000" font-family="sans-serif" font-size="14" lengthAdjust="spacing" textLength="0" x="1663" y="379.9648"/><line style="stroke:#A80036;stroke-width:1.0;" x1="1646" x2="1646" y1="364.4297" y2="384.918"/><rect fill="none" height="143.418" rx="5" ry="5" style="stroke:#A80036;stroke-width:1.5;" width="169" x="1499" y="241.5"/><rect fill="#FEFECE" height="77.9531" rx="5" ry="5" style="stroke:#FEFECE;stroke-width:1.5;" width="563" x="1878.5" y="10"/><text fill="#000000" font-family="sans-serif" font-size="14" lengthAdjust="spacing" textLength="77" x="1883.5" y="25.5352">description</text><text fill="#000000" font-family="sans-serif" font-size="14" lengthAdjust="spacing" textLength="466" x="1970.5" y="25.5352">Rated voltage of array (Nominal values of maximum power voltage *</text><text fill="#000000" font-family="sans-serif" font-size="14" lengthAdjust="spacing" textLength="163" x="1970.5" y="42.0234">number of modules) (V)</text><line style="stroke:#A80036;stroke-width:1.0;" x1="1965.5" x2="1965.5" y1="10" y2="46.9766"/><line style="stroke:#A80036;stroke-width:1.0;" x1="1878.5" x2="2441.5" y1="46.9766" y2="46.9766"/><text fill="#000000" font-family="sans-serif" font-size="14" lengthAdjust="spacing" textLength="55" x="1883.5" y="62.5117">writable</text><text fill="#000000" font-family="sans-serif" font-size="14" lengthAdjust="spacing" textLength="48" x="1970.5" y="62.5117">☐ false</text><line style="stroke:#A80036;stroke-width:1.0;" x1="1965.5" x2="1965.5" y1="46.9766" y2="67.4648"/><line style="stroke:#A80036;stroke-width:1.0;" x1="1878.5" x2="2441.5" y1="67.4648" y2="67.4648"/><text fill="#000000" font-family="sans-serif" font-size="14" lengthAdjust="spacing" textLength="29" x="1883.5" y="83">type</text><text fill="#000000" font-family="sans-serif" font-size="14" lengthAdjust="spacing" textLength="54" x="1970.5" y="83">number</text><line style="stroke:#A80036;stroke-width:1.0;" x1="1965.5" x2="1965.5" y1="67.4648" y2="87.9531"/><rect fill="none" height="77.9531" rx="5" ry="5" style="stroke:#A80036;stroke-width:1.5;" width="563" x="1878.5" y="10"/><rect fill="#FEFECE" height="77.9531" rx="5" ry="5" style="stroke:#FEFECE;stroke-width:1.5;" width="563" x="1878.5" y="106"/><text fill="#000000" font-family="sans-serif" font-size="14" lengthAdjust="spacing" textLength="77" x="1883.5" y="121.5352">description</text><text fill="#000000" font-family="sans-serif" font-size="14" lengthAdjust="spacing" textLength="466" x="1970.5" y="121.5352">Rated current of array (Nominal values of maximum power current *</text><text fill="#000000" font-family="sans-serif" font-size="14" lengthAdjust="spacing" textLength="384" x="1970.5" y="138.0234">number of modules) (A), defined at manufacturing time.</text><line style="stroke:#A80036;stroke-width:1.0;" x1="1965.5" x2="1965.5" y1="106" y2="142.9766"/><line style="stroke:#A80036;stroke-width:1.0;" x1="1878.5" x2="2441.5" y1="142.9766" y2="142.9766"/><text fill="#000000" font-family="sans-serif" font-size="14" lengthAdjust="spacing" textLength="55" x="1883.5" y="158.5117">writable</text><text fill="#000000" font-family="sans-serif" font-size="14" lengthAdjust="spacing" textLength="48" x="1970.5" y="158.5117">☐ false</text><line style="stroke:#A80036;stroke-width:1.0;" x1="1965.5" x2="1965.5" y1="142.9766" y2="163.4648"/><line style="stroke:#A80036;stroke-width:1.0;" x1="1878.5" x2="2441.5" y1="163.4648" y2="163.4648"/><text fill="#000000" font-family="sans-serif" font-size="14" lengthAdjust="spacing" textLength="29" x="1883.5" y="179">type</text><text fill="#000000" font-family="sans-serif" font-size="14" lengthAdjust="spacing" textLength="54" x="1970.5" y="179">number</text><line style="stroke:#A80036;stroke-width:1.0;" x1="1965.5" x2="1965.5" y1="163.4648" y2="183.9531"/><rect fill="none" height="77.9531" rx="5" ry="5" style="stroke:#A80036;stroke-width:1.5;" width="563" x="1878.5" y="106"/><rect fill="#FEFECE" height="61.4648" rx="5" ry="5" style="stroke:#FEFECE;stroke-width:1.5;" width="336" x="1992" y="202.5"/><text fill="#000000" font-family="sans-serif" font-size="14" lengthAdjust="spacing" textLength="77" x="1997" y="218.0352">description</text><text fill="#000000" font-family="sans-serif" font-size="14" lengthAdjust="spacing" textLength="239" x="2084" y="218.0352">Output voltage of array in volts (V).</text><line style="stroke:#A80036;stroke-width:1.0;" x1="2079" x2="2079" y1="202.5" y2="222.9883"/><line style="stroke:#A80036;stroke-width:1.0;" x1="1992" x2="2328" y1="222.9883" y2="222.9883"/><text fill="#000000" font-family="sans-serif" font-size="14" lengthAdjust="spacing" textLength="55" x="1997" y="238.5234">writable</text><text fill="#000000" font-family="sans-serif" font-size="14" lengthAdjust="spacing" textLength="48" x="2084" y="238.5234">☐ false</text><line style="stroke:#A80036;stroke-width:1.0;" x1="2079" x2="2079" y1="222.9883" y2="243.4766"/><line style="stroke:#A80036;stroke-width:1.0;" x1="1992" x2="2328" y1="243.4766" y2="243.4766"/><text fill="#000000" font-family="sans-serif" font-size="14" lengthAdjust="spacing" textLength="29" x="1997" y="259.0117">type</text><text fill="#000000" font-family="sans-serif" font-size="14" lengthAdjust="spacing" textLength="54" x="2084" y="259.0117">number</text><line style="stroke:#A80036;stroke-width:1.0;" x1="2079" x2="2079" y1="243.4766" y2="263.9648"/><rect fill="none" height="61.4648" rx="5" ry="5" style="stroke:#A80036;stroke-width:1.5;" width="336" x="1992" y="202.5"/><rect fill="#FEFECE" height="61.4648" rx="5" ry="5" style="stroke:#FEFECE;stroke-width:1.5;" width="359" x="1980.5" y="281.5"/><text fill="#000000" font-family="sans-serif" font-size="14" lengthAdjust="spacing" textLength="77" x="1985.5" y="297.0352">description</text><text fill="#000000" font-family="sans-serif" font-size="14" lengthAdjust="spacing" textLength="262" x="2072.5" y="297.0352">Output current of array in Ampere (A).</text><line style="stroke:#A80036;stroke-width:1.0;" x1="2067.5" x2="2067.5" y1="281.5" y2="301.9883"/><line style="stroke:#A80036;stroke-width:1.0;" x1="1980.5" x2="2339.5" y1="301.9883" y2="301.9883"/><text fill="#000000" font-family="sans-serif" font-size="14" lengthAdjust="spacing" textLength="55" x="1985.5" y="317.5234">writable</text><text fill="#000000" font-family="sans-serif" font-size="14" lengthAdjust="spacing" textLength="48" x="2072.5" y="317.5234">☐ false</text><line style="stroke:#A80036;stroke-width:1.0;" x1="2067.5" x2="2067.5" y1="301.9883" y2="322.4766"/><line style="stroke:#A80036;stroke-width:1.0;" x1="1980.5" x2="2339.5" y1="322.4766" y2="322.4766"/><text fill="#000000" font-family="sans-serif" font-size="14" lengthAdjust="spacing" textLength="29" x="1985.5" y="338.0117">type</text><text fill="#000000" font-family="sans-serif" font-size="14" lengthAdjust="spacing" textLength="54" x="2072.5" y="338.0117">number</text><line style="stroke:#A80036;stroke-width:1.0;" x1="2067.5" x2="2067.5" y1="322.4766" y2="342.9648"/><rect fill="none" height="61.4648" rx="5" ry="5" style="stroke:#A80036;stroke-width:1.5;" width="359" x="1980.5" y="281.5"/><rect fill="#FEFECE" height="61.4648" rx="5" ry="5" style="stroke:#FEFECE;stroke-width:1.5;" width="282" x="2019" y="360.5"/><text fill="#000000" font-family="sans-serif" font-size="14" lengthAdjust="spacing" textLength="77" x="2024" y="376.0352">description</text><text fill="#000000" font-family="sans-serif" font-size="14" lengthAdjust="spacing" textLength="185" x="2111" y="376.0352">The leakage current in mA.</text><line style="stroke:#A80036;stroke-width:1.0;" x1="2106" x2="2106" y1="360.5" y2="380.9883"/><line style="stroke:#A80036;stroke-width:1.0;" x1="2019" x2="2301" y1="380.9883" y2="380.9883"/><text fill="#000000" font-family="sans-serif" font-size="14" lengthAdjust="spacing" textLength="55" x="2024" y="396.5234">writable</text><text fill="#000000" font-family="sans-serif" font-size="14" lengthAdjust="spacing" textLength="48" x="2111" y="396.5234">☐ false</text><line style="stroke:#A80036;stroke-width:1.0;" x1="2106" x2="2106" y1="380.9883" y2="401.4766"/><line style="stroke:#A80036;stroke-width:1.0;" x1="2019" x2="2301" y1="401.4766" y2="401.4766"/><text fill="#000000" font-family="sans-serif" font-size="14" lengthAdjust="spacing" textLength="29" x="2024" y="417.0117">type</text><text fill="#000000" font-family="sans-serif" font-size="14" lengthAdjust="spacing" textLength="54" x="2111" y="417.0117">number</text><line style="stroke:#A80036;stroke-width:1.0;" x1="2106" x2="2106" y1="401.4766" y2="421.9648"/><rect fill="none" height="61.4648" rx="5" ry="5" style="stroke:#A80036;stroke-width:1.5;" width="282" x="2019" y="360.5"/><rect fill="#FEFECE" height="61.4648" rx="5" ry="5" style="stroke:#FEFECE;stroke-width:1.5;" width="426" x="1947" y="439.5"/><text fill="#000000" font-family="sans-serif" font-size="14" lengthAdjust="spacing" textLength="77" x="1952" y="455.0352">description</text><text fill="#000000" font-family="sans-serif" font-size="14" lengthAdjust="spacing" textLength="329" x="2039" y="455.0352">Insulation resistance of circuit breaker (M Ohm).</text><line style="stroke:#A80036;stroke-width:1.0;" x1="2034" x2="2034" y1="439.5" y2="459.9883"/><line style="stroke:#A80036;stroke-width:1.0;" x1="1947" x2="2373" y1="459.9883" y2="459.9883"/><text fill="#000000" font-family="sans-serif" font-size="14" lengthAdjust="spacing" textLength="55" x="1952" y="475.5234">writable</text><text fill="#000000" font-family="sans-serif" font-size="14" lengthAdjust="spacing" textLength="48" x="2039" y="475.5234">☐ false</text><line style="stroke:#A80036;stroke-width:1.0;" x1="2034" x2="2034" y1="459.9883" y2="480.4766"/><line style="stroke:#A80036;stroke-width:1.0;" x1="1947" x2="2373" y1="480.4766" y2="480.4766"/><text fill="#000000" font-family="sans-serif" font-size="14" lengthAdjust="spacing" textLength="29" x="1952" y="496.0117">type</text><text fill="#000000" font-family="sans-serif" font-size="14" lengthAdjust="spacing" textLength="54" x="2039" y="496.0117">number</text><line style="stroke:#A80036;stroke-width:1.0;" x1="2034" x2="2034" y1="480.4766" y2="500.9648"/><rect fill="none" height="61.4648" rx="5" ry="5" style="stroke:#A80036;stroke-width:1.5;" width="426" x="1947" y="439.5"/><rect fill="#FEFECE" height="114.9297" rx="5" ry="5" style="stroke:#FEFECE;stroke-width:1.5;" width="618" x="1851" y="518.5"/><text fill="#000000" font-family="sans-serif" font-size="14" lengthAdjust="spacing" textLength="77" x="1856" y="534.0352">description</text><text fill="#000000" font-family="sans-serif" font-size="14" lengthAdjust="spacing" textLength="462" x="1943" y="534.0352">An RFC3339 formatted time indicating when the data was observed</text><text fill="#000000" font-family="sans-serif" font-size="14" lengthAdjust="spacing" textLength="521" x="1943" y="550.5234">(e.g.: 2016-02-15T09:19Z, 1996-12-19T16:39:57-08:00). Note that 1/100</text><text fill="#000000" font-family="sans-serif" font-size="14" lengthAdjust="spacing" textLength="217" x="1943" y="567.0117">time resolution should be used.</text><line style="stroke:#A80036;stroke-width:1.0;" x1="1938" x2="1938" y1="518.5" y2="571.9648"/><line style="stroke:#A80036;stroke-width:1.0;" x1="1851" x2="2469" y1="571.9648" y2="571.9648"/><text fill="#000000" font-family="sans-serif" font-size="14" lengthAdjust="spacing" textLength="46" x="1856" y="587.5">format</text><text fill="#000000" font-family="sans-serif" font-size="14" lengthAdjust="spacing" textLength="68" x="1943" y="587.5">date-time</text><line style="stroke:#A80036;stroke-width:1.0;" x1="1938" x2="1938" y1="571.9648" y2="592.4531"/><line style="stroke:#A80036;stroke-width:1.0;" x1="1851" x2="2469" y1="592.4531" y2="592.4531"/><text fill="#000000" font-family="sans-serif" font-size="14" lengthAdjust="spacing" textLength="55" x="1856" y="607.9883">writable</text><text fill="#000000" font-family="sans-serif" font-size="14" lengthAdjust="spacing" textLength="48" x="1943" y="607.9883">☐ false</text><line style="stroke:#A80036;stroke-width:1.0;" x1="1938" x2="1938" y1="592.4531" y2="612.9414"/><line style="stroke:#A80036;stroke-width:1.0;" x1="1851" x2="2469" y1="612.9414" y2="612.9414"/><text fill="#000000" font-family="sans-serif" font-size="14" lengthAdjust="spacing" textLength="29" x="1856" y="628.4766">type</text><text fill="#000000" font-family="sans-serif" font-size="14" lengthAdjust="spacing" textLength="40" x="1943" y="628.4766">string</text><line style="stroke:#A80036;stroke-width:1.0;" x1="1938" x2="1938" y1="612.9414" y2="633.4297"/><rect fill="none" height="114.9297" rx="5" ry="5" style="stroke:#A80036;stroke-width:1.5;" width="618" x="1851" y="518.5"/><rect fill="#FEFECE" height="102.4414" rx="5" ry="5" style="stroke:#FEFECE;stroke-width:1.5;" width="461" x="1353" y="403"/><text fill="#000000" font-family="sans-serif" font-size="14" lengthAdjust="spacing" textLength="451" x="1358" y="418.5352">#/sdfObject/pvconnectionterminal/sdfProperty/ratedarrayvoltage</text><line style="stroke:#A80036;stroke-width:1.0;" x1="1353" x2="1814" y1="423.4883" y2="423.4883"/><text fill="#000000" font-family="sans-serif" font-size="14" lengthAdjust="spacing" textLength="451" x="1358" y="439.0234">#/sdfObject/pvconnectionterminal/sdfProperty/ratedarraycurrent</text><line style="stroke:#A80036;stroke-width:1.0;" x1="1353" x2="1814" y1="443.9766" y2="443.9766"/><text fill="#000000" font-family="sans-serif" font-size="14" lengthAdjust="spacing" textLength="415" x="1358" y="459.5117">#/sdfObject/pvconnectionterminal/sdfProperty/arrayvoltage</text><line style="stroke:#A80036;stroke-width:1.0;" x1="1353" x2="1814" y1="464.4648" y2="464.4648"/><text fill="#000000" font-family="sans-serif" font-size="14" lengthAdjust="spacing" textLength="415" x="1358" y="480">#/sdfObject/pvconnectionterminal/sdfProperty/arraycurrent</text><line style="stroke:#A80036;stroke-width:1.0;" x1="1353" x2="1814" y1="484.9531" y2="484.9531"/><text fill="#000000" font-family="sans-serif" font-size="14" lengthAdjust="spacing" textLength="402" x="1358" y="500.4883">#/sdfObject/pvconnectionterminal/sdfProperty/timestamp</text><rect fill="none" height="102.4414" rx="5" ry="5" style="stroke:#A80036;stroke-width:1.5;" width="461" x="1353" y="403"/><path d="M95,325 L108,325 C117.422,325 126.9962,324.8946 136.6609,324.6978 " fill="none" style="stroke:#A80036;stroke-width:1.0;stroke-dasharray:3.0,3.0;"/><path d="M136.7318,327.8054 L138.9917,324.6446 L136.59,321.5901 L144.4301,324.5206 L136.7318,327.8054 " fill="#A80036" style="stroke:#A80036;stroke-width:1.0;"/><ellipse cx="95" cy="325" fill="#A80036" rx="3" ry="3" style="stroke:#A80036;stroke-width:1.0;stroke-dasharray:3.0,3.0;"/><path d="M1657,251 L1670,251 C1775.6217,251 1754.9787,140.9984 1851,97 C1857.7447,93.9095 1864.6502,91.0122 1871.6798,88.2963 " fill="none" style="stroke:#A80036;stroke-width:1.0;stroke-dasharray:3.0,3.0;"/><path d="M1872.7421,91.1242 L1873.8007,87.4996 L1870.6175,85.4685 L1878.7494,85.6405 L1872.7421,91.1242 " fill="#A80036" style="stroke:#A80036;stroke-width:1.0;"/><ellipse cx="1657" cy="251" fill="#A80036" rx="3" ry="3" style="stroke:#A80036;stroke-width:1.0;stroke-dasharray:3.0,3.0;"/><path d="M1657,271 L1670,271 C1757.5962,271 1766.8303,217.2601 1851,193 C1859.6466,190.5078 1868.4692,188.137 1877.4085,185.8823 " fill="none" style="stroke:#A80036;stroke-width:1.0;stroke-dasharray:3.0,3.0;"/><path d="M1878.1552,188.8963 L1879.669,185.3222 L1876.6618,182.8682 L1884.9437,184.0155 L1878.1552,188.8963 " fill="#A80036" style="stroke:#A80036;stroke-width:1.0;"/><ellipse cx="1657" cy="271" fill="#A80036" rx="3" ry="3" style="stroke:#A80036;stroke-width:1.0;stroke-dasharray:3.0,3.0;"/><path d="M1657,292 L1670,292 C1686.0274,292 1850.8918,271.7998 1984.928,255.0389 " fill="none" style="stroke:#A80036;stroke-width:1.0;stroke-dasharray:3.0,3.0;"/><path d="M1985.3067,258.066 L1987.1983,254.7548 L1984.5493,252.0117 L1992.4958,254.0921 L1985.3067,258.066 " fill="#A80036" style="stroke:#A80036;stroke-width:1.0;"/><ellipse cx="1657" cy="292" fill="#A80036" rx="3" ry="3" style="stroke:#A80036;stroke-width:1.0;stroke-dasharray:3.0,3.0;"/><path d="M1657,312 L1670,312 C1770.1206,312 1881.7602,312 1973.112,312 " fill="none" style="stroke:#A80036;stroke-width:1.0;stroke-dasharray:3.0,3.0;"/><path d="M1973.112,315.0622 L1975.4087,312 L1973.112,308.9378 L1980.7676,312 L1973.112,315.0622 " fill="#A80036" style="stroke:#A80036;stroke-width:1.0;"/><ellipse cx="1657" cy="312" fill="#A80036" rx="3" ry="3" style="stroke:#A80036;stroke-width:1.0;stroke-dasharray:3.0,3.0;"/><path d="M1657,333 L1670,333 C1687.0997,333 1873.7039,355.6146 2011.4596,372.6016 " fill="none" style="stroke:#A80036;stroke-width:1.0;stroke-dasharray:3.0,3.0;"/><path d="M2011.0767,375.7052 L2013.7873,372.8887 L2011.8424,369.4979 L2019.2187,373.5588 L2011.0767,375.7052 " fill="#A80036" style="stroke:#A80036;stroke-width:1.0;"/><ellipse cx="1657" cy="333" fill="#A80036" rx="3" ry="3" style="stroke:#A80036;stroke-width:1.0;stroke-dasharray:3.0,3.0;"/><path d="M1657,354 L1670,354 C1736.8516,354 1757.4601,359.9663 1815,394 C1834.748,405.6806 1830.4659,420.7643 1851,431 C1878.5087,444.7123 1909.0408,454.2543 1939.8908,460.8027 " fill="none" style="stroke:#A80036;stroke-width:1.0;stroke-dasharray:3.0,3.0;"/><path d="M1939.2837,463.7725 L1942.1182,461.2581 L1940.498,457.833 L1947.3152,462.3206 L1939.2837,463.7725 " fill="#A80036" style="stroke:#A80036;stroke-width:1.0;"/><ellipse cx="1657" cy="354" fill="#A80036" rx="3" ry="3" style="stroke:#A80036;stroke-width:1.0;stroke-dasharray:3.0,3.0;"/><path d="M1657,374 L1670,374 C1735.0546,374 1765.3893,351.9182 1815,394 C1856.1662,428.9188 1811.1481,473.5884 1851,510 C1852.2731,511.1632 1853.5615,512.3077 1854.8647,513.4339 " fill="none" style="stroke:#A80036;stroke-width:1.0;stroke-dasharray:3.0,3.0;"/><path d="M1852.9362,515.7567 L1856.6068,514.8803 L1856.7932,511.1111 L1860.6716,518.2552 L1852.9362,515.7567 " fill="#A80036" style="stroke:#A80036;stroke-width:1.0;"/><ellipse cx="1657" cy="374" fill="#A80036" rx="3" ry="3" style="stroke:#A80036;stroke-width:1.0;stroke-dasharray:3.0,3.0;"/><path d="M1304,370 L1317,370 C1376.0823,370 1440.9404,356.3889 1491.8212,342.4692 " fill="none" style="stroke:#A80036;stroke-width:1.0;stroke-dasharray:3.0,3.0;"/><path d="M1492.6429,345.4305 L1494.0422,341.8529 L1490.9994,339.5079 L1499.2244,340.4148 L1492.6429,345.4305 " fill="#A80036" style="stroke:#A80036;stroke-width:1.0;"/><ellipse cx="1304" cy="370" fill="#A80036" rx="3" ry="3" style="stroke:#A80036;stroke-width:1.0;stroke-dasharray:3.0,3.0;"/><path d="M1304,396 L1317,396 C1340.7731,396 1365.4727,398.2389 1389.817,401.8369 " fill="none" style="stroke:#A80036;stroke-width:1.0;stroke-dasharray:3.0,3.0;"/><path d="M1389.3532,404.8538 L1392.0797,402.1847 L1390.2807,398.82 L1397.3593,402.9962 L1389.3532,404.8538 " fill="#A80036" style="stroke:#A80036;stroke-width:1.0;"/><ellipse cx="1304" cy="396" fill="#A80036" rx="3" ry="3" style="stroke:#A80036;stroke-width:1.0;stroke-dasharray:3.0,3.0;"/><path d="M507,370 L520,370 C591.4358,370 668.4835,370 740.5624,370 " fill="none" style="stroke:#A80036;stroke-width:1.0;stroke-dasharray:3.0,3.0;"/><path d="M740.5624,373.1435 L742.9201,370 L740.5624,366.8565 L748.4212,370 L740.5624,373.1435 " fill="#A80036" style="stroke:#A80036;stroke-width:1.0;"/><ellipse cx="507" cy="370" fill="#A80036" rx="3" ry="3" style="stroke:#A80036;stroke-width:1.0;stroke-dasharray:3.0,3.0;"/><path d="M95,346 L108,346 C124.1536,346 127.9312,349.3468 144,351 C205.6373,357.3414 275.0547,362.0392 329.7122,365.1772 " fill="none" style="stroke:#A80036;stroke-width:1.0;stroke-dasharray:3.0,3.0;"/><path d="M329.5392,368.222 L331.9958,365.3069 L329.8851,362.1323 L337.3243,365.6096 L329.5392,368.222 " fill="#A80036" style="stroke:#A80036;stroke-width:1.0;"/><ellipse cx="95" cy="346" fill="#A80036" rx="3" ry="3" style="stroke:#A80036;stroke-width:1.0;stroke-dasharray:3.0,3.0;"/><!--MD5=[935b248f50977c5afac2ec65adefe72d]
@startjson
{
  "info": {
    "copyright": "copyright 2019 Open Connectivity Foundation, Inc. All rights reserved.",
    "license": "https://github.com/one-data-model/oneDM/blob/master/LICENSE",
    "title": "PV array system connection terminal (IEC 61850)",
    "version": "2019-06-13"
  },
  "sdfObject": {
    "pvconnectionterminal": {
      "description": "This Resource describes functions for the control and monitoring of\\nIEC 61850 based PV Array system connection terminal.",
      "sdfProperty": {
        "ratedarrayvoltage": {
          "description": "Rated voltage of array (Nominal values of maximum power voltage *\\nnumber of modules) (V)",
          "writable": false,
          "type": "number"
        },
        "ratedarraycurrent": {
          "description": "Rated current of array (Nominal values of maximum power current *\\nnumber of modules) (A), defined at manufacturing time.",
          "writable": false,
          "type": "number"
        },
        "arrayvoltage": {
          "description": "Output voltage of array in volts (V).",
          "writable": false,
          "type": "number"
        },
        "arraycurrent": {
          "description": "Output current of array in Ampere (A).",
          "writable": false,
          "type": "number"
        },
        "leakagecurrent": {
          "description": "The leakage current in mA.",
          "writable": false,
          "type": "number"
        },
        "insulationresistance": {
          "description": "Insulation resistance of circuit breaker (M Ohm).",
          "writable": false,
          "type": "number"
        },
        "timestamp": {
          "description": "An RFC3339 formatted time indicating when the data was observed\\n(e.g.: 2016-02-15T09:19Z, 1996-12-19T16:39:57-08:00). Note that 1/100\\ntime resolution should be used.",
          "format": "date-time",
          "writable": false,
          "type": "string"
        }
      },
      "sdfRequired": [
        "#/sdfObject/pvconnectionterminal/sdfProperty/ratedarrayvoltage",
        "#/sdfObject/pvconnectionterminal/sdfProperty/ratedarraycurrent",
        "#/sdfObject/pvconnectionterminal/sdfProperty/arrayvoltage",
        "#/sdfObject/pvconnectionterminal/sdfProperty/arraycurrent",
        "#/sdfObject/pvconnectionterminal/sdfProperty/timestamp"
      ]
    }
  }
}
@endjson

PlantUML version 1.2021.2(Sun Mar 07 13:10:27 EET 2021)
(GPL source distribution)
Java Runtime: OpenJDK Runtime Environment
JVM: OpenJDK 64-Bit Server VM
Default Encoding: UTF-8
Language: en
Country: FI
--></g></svg>