<?xml version="1.0" encoding="UTF-8" standalone="no"?><svg xmlns="http://www.w3.org/2000/svg" xmlns:xlink="http://www.w3.org/1999/xlink" contentScriptType="application/ecmascript" contentStyleType="text/css" height="632px" preserveAspectRatio="none" style="width:2496px;height:632px;" version="1.1" viewBox="0 0 2496 632" width="2496px" zoomAndPan="magnify"><defs/><g><rect fill="#FEFECE" height="40.9766" rx="5" ry="5" style="stroke:#FEFECE;stroke-width:1.5;" width="97" x="10" y="262.5"/><text fill="#000000" font-family="sans-serif" font-size="14" lengthAdjust="spacing" textLength="27" x="15" y="278.0352">info</text><text fill="#000000" font-family="sans-serif" font-size="14" lengthAdjust="spacing" textLength="0" x="102" y="278.0352"/><line style="stroke:#A80036;stroke-width:1.0;" x1="85" x2="85" y1="262.5" y2="282.9883"/><line style="stroke:#A80036;stroke-width:1.0;" x1="10" x2="107" y1="282.9883" y2="282.9883"/><text fill="#000000" font-family="sans-serif" font-size="14" lengthAdjust="spacing" textLength="65" x="15" y="298.5234">sdfObject</text><text fill="#000000" font-family="sans-serif" font-size="14" lengthAdjust="spacing" textLength="0" x="102" y="298.5234"/><line style="stroke:#A80036;stroke-width:1.0;" x1="85" x2="85" y1="282.9883" y2="303.4766"/><rect fill="none" height="40.9766" rx="5" ry="5" style="stroke:#A80036;stroke-width:1.5;" width="97" x="10" y="262.5"/><rect fill="#FEFECE" height="81.9531" rx="5" ry="5" style="stroke:#FEFECE;stroke-width:1.5;" width="614" x="144" y="207"/><text fill="#000000" font-family="sans-serif" font-size="14" lengthAdjust="spacing" textLength="65" x="149" y="222.5352">copyright</text><text fill="#000000" font-family="sans-serif" font-size="14" lengthAdjust="spacing" textLength="529" x="224" y="222.5352">Copyright 2018-2019 Open Connectivity Foundation, Inc. All rights reserved.</text><line style="stroke:#A80036;stroke-width:1.0;" x1="219" x2="219" y1="207" y2="227.4883"/><line style="stroke:#A80036;stroke-width:1.0;" x1="144" x2="758" y1="227.4883" y2="227.4883"/><text fill="#000000" font-family="sans-serif" font-size="14" lengthAdjust="spacing" textLength="47" x="149" y="243.0234">license</text><text fill="#000000" font-family="sans-serif" font-size="14" lengthAdjust="spacing" textLength="462" x="224" y="243.0234">https://github.com/one-data-model/oneDM/blob/master/LICENSE</text><line style="stroke:#A80036;stroke-width:1.0;" x1="219" x2="219" y1="227.4883" y2="247.9766"/><line style="stroke:#A80036;stroke-width:1.0;" x1="144" x2="758" y1="247.9766" y2="247.9766"/><text fill="#000000" font-family="sans-serif" font-size="14" lengthAdjust="spacing" textLength="26" x="149" y="263.5117">title</text><text fill="#000000" font-family="sans-serif" font-size="14" lengthAdjust="spacing" textLength="317" x="224" y="263.5117">Calibrate for Continuous Glucose Meter (CGM)</text><line style="stroke:#A80036;stroke-width:1.0;" x1="219" x2="219" y1="247.9766" y2="268.4648"/><line style="stroke:#A80036;stroke-width:1.0;" x1="144" x2="758" y1="268.4648" y2="268.4648"/><text fill="#000000" font-family="sans-serif" font-size="14" lengthAdjust="spacing" textLength="50" x="149" y="284">version</text><text fill="#000000" font-family="sans-serif" font-size="14" lengthAdjust="spacing" textLength="88" x="224" y="284">2019-03-04</text><line style="stroke:#A80036;stroke-width:1.0;" x1="219" x2="219" y1="268.4648" y2="288.9531"/><rect fill="none" height="81.9531" rx="5" ry="5" style="stroke:#A80036;stroke-width:1.5;" width="614" x="144" y="207"/><rect fill="#FEFECE" height="20.4883" rx="5" ry="5" style="stroke:#FEFECE;stroke-width:1.5;" width="124" x="389" y="307"/><text fill="#000000" font-family="sans-serif" font-size="14" lengthAdjust="spacing" textLength="92" x="394" y="322.5352">cgm.calibrate</text><text fill="#000000" font-family="sans-serif" font-size="14" lengthAdjust="spacing" textLength="0" x="508" y="322.5352"/><line style="stroke:#A80036;stroke-width:1.0;" x1="491" x2="491" y1="307" y2="327.4883"/><rect fill="none" height="20.4883" rx="5" ry="5" style="stroke:#A80036;stroke-width:1.5;" width="124" x="389" y="307"/><rect fill="#FEFECE" height="77.9531" rx="5" ry="5" style="stroke:#FEFECE;stroke-width:1.5;" width="567" x="795" y="278"/><text fill="#000000" font-family="sans-serif" font-size="14" lengthAdjust="spacing" textLength="77" x="800" y="293.5352">description</text><text fill="#000000" font-family="sans-serif" font-size="14" lengthAdjust="spacing" textLength="464" x="893" y="293.5352">This Resource describes the Properties associated with Calibrate for</text><text fill="#000000" font-family="sans-serif" font-size="14" lengthAdjust="spacing" textLength="231" x="893" y="310.0234">Continuous Glucose Meter (CGM).</text><line style="stroke:#A80036;stroke-width:1.0;" x1="888" x2="888" y1="278" y2="314.9766"/><line style="stroke:#A80036;stroke-width:1.0;" x1="795" x2="1362" y1="314.9766" y2="314.9766"/><text fill="#000000" font-family="sans-serif" font-size="14" lengthAdjust="spacing" textLength="79" x="800" y="330.5117">sdfProperty</text><text fill="#000000" font-family="sans-serif" font-size="14" lengthAdjust="spacing" textLength="0" x="905" y="330.5117"/><line style="stroke:#A80036;stroke-width:1.0;" x1="888" x2="888" y1="314.9766" y2="335.4648"/><line style="stroke:#A80036;stroke-width:1.0;" x1="795" x2="1362" y1="335.4648" y2="335.4648"/><text fill="#000000" font-family="sans-serif" font-size="14" lengthAdjust="spacing" textLength="83" x="800" y="351">sdfRequired</text><text fill="#000000" font-family="sans-serif" font-size="14" lengthAdjust="spacing" textLength="0" x="905" y="351"/><line style="stroke:#A80036;stroke-width:1.0;" x1="888" x2="888" y1="335.4648" y2="355.9531"/><rect fill="none" height="77.9531" rx="5" ry="5" style="stroke:#A80036;stroke-width:1.5;" width="567" x="795" y="278"/><rect fill="#FEFECE" height="102.4414" rx="5" ry="5" style="stroke:#FEFECE;stroke-width:1.5;" width="95" x="1518.5" y="234"/><text fill="#000000" font-family="sans-serif" font-size="14" lengthAdjust="spacing" textLength="46" x="1523.5" y="249.5352">Cvalue</text><text fill="#000000" font-family="sans-serif" font-size="14" lengthAdjust="spacing" textLength="0" x="1608.5" y="249.5352"/><line style="stroke:#A80036;stroke-width:1.0;" x1="1591.5" x2="1591.5" y1="234" y2="254.4883"/><line style="stroke:#A80036;stroke-width:1.0;" x1="1518.5" x2="1613.5" y1="254.4883" y2="254.4883"/><text fill="#000000" font-family="sans-serif" font-size="14" lengthAdjust="spacing" textLength="51" x="1523.5" y="270.0234">Cstatus</text><text fill="#000000" font-family="sans-serif" font-size="14" lengthAdjust="spacing" textLength="0" x="1608.5" y="270.0234"/><line style="stroke:#A80036;stroke-width:1.0;" x1="1591.5" x2="1591.5" y1="254.4883" y2="274.9766"/><line style="stroke:#A80036;stroke-width:1.0;" x1="1518.5" x2="1613.5" y1="274.9766" y2="274.9766"/><text fill="#000000" font-family="sans-serif" font-size="14" lengthAdjust="spacing" textLength="40" x="1523.5" y="290.5117">range</text><text fill="#000000" font-family="sans-serif" font-size="14" lengthAdjust="spacing" textLength="0" x="1608.5" y="290.5117"/><line style="stroke:#A80036;stroke-width:1.0;" x1="1591.5" x2="1591.5" y1="274.9766" y2="295.4648"/><line style="stroke:#A80036;stroke-width:1.0;" x1="1518.5" x2="1613.5" y1="295.4648" y2="295.4648"/><text fill="#000000" font-family="sans-serif" font-size="14" lengthAdjust="spacing" textLength="29" x="1523.5" y="311">step</text><text fill="#000000" font-family="sans-serif" font-size="14" lengthAdjust="spacing" textLength="0" x="1608.5" y="311"/><line style="stroke:#A80036;stroke-width:1.0;" x1="1591.5" x2="1591.5" y1="295.4648" y2="315.9531"/><line style="stroke:#A80036;stroke-width:1.0;" x1="1518.5" x2="1613.5" y1="315.9531" y2="315.9531"/><text fill="#000000" font-family="sans-serif" font-size="14" lengthAdjust="spacing" textLength="63" x="1523.5" y="331.4883">precision</text><text fill="#000000" font-family="sans-serif" font-size="14" lengthAdjust="spacing" textLength="0" x="1608.5" y="331.4883"/><line style="stroke:#A80036;stroke-width:1.0;" x1="1591.5" x2="1591.5" y1="315.9531" y2="336.4414"/><rect fill="none" height="102.4414" rx="5" ry="5" style="stroke:#A80036;stroke-width:1.5;" width="95" x="1518.5" y="234"/><rect fill="#FEFECE" height="98.4414" rx="5" ry="5" style="stroke:#FEFECE;stroke-width:1.5;" width="574" x="1770" y="10"/><text fill="#000000" font-family="sans-serif" font-size="14" lengthAdjust="spacing" textLength="77" x="1775" y="25.5352">description</text><text fill="#000000" font-family="sans-serif" font-size="14" lengthAdjust="spacing" textLength="467" x="1862" y="25.5352">This Property describes the Sensor Calibration Value in mg/dL units.</text><text fill="#000000" font-family="sans-serif" font-size="14" lengthAdjust="spacing" textLength="477" x="1862" y="42.0234">This blood glucose measurement using other external glucose meter.</text><line style="stroke:#A80036;stroke-width:1.0;" x1="1857" x2="1857" y1="10" y2="46.9766"/><line style="stroke:#A80036;stroke-width:1.0;" x1="1770" x2="2344" y1="46.9766" y2="46.9766"/><text fill="#000000" font-family="sans-serif" font-size="14" lengthAdjust="spacing" textLength="29" x="1775" y="62.5117">type</text><text fill="#000000" font-family="sans-serif" font-size="14" lengthAdjust="spacing" textLength="54" x="1862" y="62.5117">number</text><line style="stroke:#A80036;stroke-width:1.0;" x1="1857" x2="1857" y1="46.9766" y2="67.4648"/><line style="stroke:#A80036;stroke-width:1.0;" x1="1770" x2="2344" y1="67.4648" y2="67.4648"/><text fill="#000000" font-family="sans-serif" font-size="14" lengthAdjust="spacing" textLength="65" x="1775" y="83">minimum</text><text fill="#000000" font-family="sans-serif" font-size="14" lengthAdjust="spacing" textLength="9" x="1862" y="83">0</text><line style="stroke:#A80036;stroke-width:1.0;" x1="1857" x2="1857" y1="67.4648" y2="87.9531"/><line style="stroke:#A80036;stroke-width:1.0;" x1="1770" x2="2344" y1="87.9531" y2="87.9531"/><text fill="#000000" font-family="sans-serif" font-size="14" lengthAdjust="spacing" textLength="55" x="1775" y="103.4883">writable</text><text fill="#000000" font-family="sans-serif" font-size="14" lengthAdjust="spacing" textLength="44" x="1862" y="103.4883">☑ true</text><line style="stroke:#A80036;stroke-width:1.0;" x1="1857" x2="1857" y1="87.9531" y2="108.4414"/><rect fill="none" height="98.4414" rx="5" ry="5" style="stroke:#A80036;stroke-width:1.5;" width="574" x="1770" y="10"/><rect fill="#FEFECE" height="61.4648" rx="5" ry="5" style="stroke:#FEFECE;stroke-width:1.5;" width="314" x="1900" y="126.5"/><text fill="#000000" font-family="sans-serif" font-size="14" lengthAdjust="spacing" textLength="77" x="1905" y="142.0352">description</text><text fill="#000000" font-family="sans-serif" font-size="14" lengthAdjust="spacing" textLength="217" x="1992" y="142.0352">Sensor calibration required flag</text><line style="stroke:#A80036;stroke-width:1.0;" x1="1987" x2="1987" y1="126.5" y2="146.9883"/><line style="stroke:#A80036;stroke-width:1.0;" x1="1900" x2="2214" y1="146.9883" y2="146.9883"/><text fill="#000000" font-family="sans-serif" font-size="14" lengthAdjust="spacing" textLength="29" x="1905" y="162.5234">type</text><text fill="#000000" font-family="sans-serif" font-size="14" lengthAdjust="spacing" textLength="56" x="1992" y="162.5234">boolean</text><line style="stroke:#A80036;stroke-width:1.0;" x1="1987" x2="1987" y1="146.9883" y2="167.4766"/><line style="stroke:#A80036;stroke-width:1.0;" x1="1900" x2="2214" y1="167.4766" y2="167.4766"/><text fill="#000000" font-family="sans-serif" font-size="14" lengthAdjust="spacing" textLength="55" x="1905" y="183.0117">writable</text><text fill="#000000" font-family="sans-serif" font-size="14" lengthAdjust="spacing" textLength="48" x="1992" y="183.0117">☐ false</text><line style="stroke:#A80036;stroke-width:1.0;" x1="1987" x2="1987" y1="167.4766" y2="187.9648"/><rect fill="none" height="61.4648" rx="5" ry="5" style="stroke:#A80036;stroke-width:1.5;" width="314" x="1900" y="126.5"/><rect fill="#FEFECE" height="155.9063" rx="5" ry="5" style="stroke:#FEFECE;stroke-width:1.5;" width="548" x="1783" y="206"/><text fill="#000000" font-family="sans-serif" font-size="14" lengthAdjust="spacing" textLength="29" x="1788" y="221.5352">type</text><text fill="#000000" font-family="sans-serif" font-size="14" lengthAdjust="spacing" textLength="35" x="1875" y="221.5352">array</text><line style="stroke:#A80036;stroke-width:1.0;" x1="1870" x2="1870" y1="206" y2="226.4883"/><line style="stroke:#A80036;stroke-width:1.0;" x1="1783" x2="2331" y1="226.4883" y2="226.4883"/><text fill="#000000" font-family="sans-serif" font-size="14" lengthAdjust="spacing" textLength="77" x="1788" y="242.0234">description</text><text fill="#000000" font-family="sans-serif" font-size="14" lengthAdjust="spacing" textLength="451" x="1875" y="242.0234">The valid range for the Property in the Resource as a number. The</text><text fill="#000000" font-family="sans-serif" font-size="14" lengthAdjust="spacing" textLength="439" x="1875" y="258.5117">first value in the array is the minimum value, the second value in</text><text fill="#000000" font-family="sans-serif" font-size="14" lengthAdjust="spacing" textLength="219" x="1875" y="275">the array is the maximum value.</text><line style="stroke:#A80036;stroke-width:1.0;" x1="1870" x2="1870" y1="226.4883" y2="279.9531"/><line style="stroke:#A80036;stroke-width:1.0;" x1="1783" x2="2331" y1="279.9531" y2="279.9531"/><text fill="#000000" font-family="sans-serif" font-size="14" lengthAdjust="spacing" textLength="55" x="1788" y="295.4883">writable</text><text fill="#000000" font-family="sans-serif" font-size="14" lengthAdjust="spacing" textLength="48" x="1875" y="295.4883">☐ false</text><line style="stroke:#A80036;stroke-width:1.0;" x1="1870" x2="1870" y1="279.9531" y2="300.4414"/><line style="stroke:#A80036;stroke-width:1.0;" x1="1783" x2="2331" y1="300.4414" y2="300.4414"/><text fill="#000000" font-family="sans-serif" font-size="14" lengthAdjust="spacing" textLength="63" x="1788" y="315.9766">minItems</text><text fill="#000000" font-family="sans-serif" font-size="14" lengthAdjust="spacing" textLength="9" x="1875" y="315.9766">2</text><line style="stroke:#A80036;stroke-width:1.0;" x1="1870" x2="1870" y1="300.4414" y2="320.9297"/><line style="stroke:#A80036;stroke-width:1.0;" x1="1783" x2="2331" y1="320.9297" y2="320.9297"/><text fill="#000000" font-family="sans-serif" font-size="14" lengthAdjust="spacing" textLength="67" x="1788" y="336.4648">maxItems</text><text fill="#000000" font-family="sans-serif" font-size="14" lengthAdjust="spacing" textLength="9" x="1875" y="336.4648">2</text><line style="stroke:#A80036;stroke-width:1.0;" x1="1870" x2="1870" y1="320.9297" y2="341.418"/><line style="stroke:#A80036;stroke-width:1.0;" x1="1783" x2="2331" y1="341.418" y2="341.418"/><text fill="#000000" font-family="sans-serif" font-size="14" lengthAdjust="spacing" textLength="37" x="1788" y="356.9531">items</text><text fill="#000000" font-family="sans-serif" font-size="14" lengthAdjust="spacing" textLength="0" x="1887" y="356.9531"/><line style="stroke:#A80036;stroke-width:1.0;" x1="1870" x2="1870" y1="341.418" y2="361.9063"/><rect fill="none" height="155.9063" rx="5" ry="5" style="stroke:#A80036;stroke-width:1.5;" width="548" x="1783" y="206"/><rect fill="#FEFECE" height="20.4883" rx="5" ry="5" style="stroke:#FEFECE;stroke-width:1.5;" width="103" x="2381" y="339"/><text fill="#000000" font-family="sans-serif" font-size="14" lengthAdjust="spacing" textLength="29" x="2386" y="354.5352">type</text><text fill="#000000" font-family="sans-serif" font-size="14" lengthAdjust="spacing" textLength="54" x="2425" y="354.5352">number</text><line style="stroke:#A80036;stroke-width:1.0;" x1="2420" x2="2420" y1="339" y2="359.4883"/><rect fill="none" height="20.4883" rx="5" ry="5" style="stroke:#A80036;stroke-width:1.5;" width="103" x="2381" y="339"/><rect fill="#FEFECE" height="110.9297" rx="5" ry="5" style="stroke:#FEFECE;stroke-width:1.5;" width="555" x="1779.5" y="380.5"/><text fill="#000000" font-family="sans-serif" font-size="14" lengthAdjust="spacing" textLength="77" x="1784.5" y="396.0352">description</text><text fill="#000000" font-family="sans-serif" font-size="14" lengthAdjust="spacing" textLength="456" x="1871.5" y="396.0352">Step value across the defined range an integer when the range is a</text><text fill="#000000" font-family="sans-serif" font-size="14" lengthAdjust="spacing" textLength="458" x="1871.5" y="412.5234">number.  This is the increment for valid values across the range; so</text><text fill="#000000" font-family="sans-serif" font-size="14" lengthAdjust="spacing" textLength="381" x="1871.5" y="429.0117">if range is 0.0..10.0 and step is 2.5 then valid values are</text><text fill="#000000" font-family="sans-serif" font-size="14" lengthAdjust="spacing" textLength="139" x="1871.5" y="445.5">0.0,2.5,5.0,7.5,10.0.</text><line style="stroke:#A80036;stroke-width:1.0;" x1="1866.5" x2="1866.5" y1="380.5" y2="450.4531"/><line style="stroke:#A80036;stroke-width:1.0;" x1="1779.5" x2="2334.5" y1="450.4531" y2="450.4531"/><text fill="#000000" font-family="sans-serif" font-size="14" lengthAdjust="spacing" textLength="55" x="1784.5" y="465.9883">writable</text><text fill="#000000" font-family="sans-serif" font-size="14" lengthAdjust="spacing" textLength="48" x="1871.5" y="465.9883">☐ false</text><line style="stroke:#A80036;stroke-width:1.0;" x1="1866.5" x2="1866.5" y1="450.4531" y2="470.9414"/><line style="stroke:#A80036;stroke-width:1.0;" x1="1779.5" x2="2334.5" y1="470.9414" y2="470.9414"/><text fill="#000000" font-family="sans-serif" font-size="14" lengthAdjust="spacing" textLength="29" x="1784.5" y="486.4766">type</text><text fill="#000000" font-family="sans-serif" font-size="14" lengthAdjust="spacing" textLength="54" x="1871.5" y="486.4766">number</text><line style="stroke:#A80036;stroke-width:1.0;" x1="1866.5" x2="1866.5" y1="470.9414" y2="491.4297"/><rect fill="none" height="110.9297" rx="5" ry="5" style="stroke:#A80036;stroke-width:1.5;" width="555" x="1779.5" y="380.5"/><rect fill="#FEFECE" height="110.9297" rx="5" ry="5" style="stroke:#FEFECE;stroke-width:1.5;" width="570" x="1772" y="509.5"/><text fill="#000000" font-family="sans-serif" font-size="14" lengthAdjust="spacing" textLength="29" x="1777" y="525.0352">type</text><text fill="#000000" font-family="sans-serif" font-size="14" lengthAdjust="spacing" textLength="54" x="1864" y="525.0352">number</text><line style="stroke:#A80036;stroke-width:1.0;" x1="1859" x2="1859" y1="509.5" y2="529.9883"/><line style="stroke:#A80036;stroke-width:1.0;" x1="1772" x2="2342" y1="529.9883" y2="529.9883"/><text fill="#000000" font-family="sans-serif" font-size="14" lengthAdjust="spacing" textLength="55" x="1777" y="545.5234">writable</text><text fill="#000000" font-family="sans-serif" font-size="14" lengthAdjust="spacing" textLength="48" x="1864" y="545.5234">☐ false</text><line style="stroke:#A80036;stroke-width:1.0;" x1="1859" x2="1859" y1="529.9883" y2="550.4766"/><line style="stroke:#A80036;stroke-width:1.0;" x1="1772" x2="2342" y1="550.4766" y2="550.4766"/><text fill="#000000" font-family="sans-serif" font-size="14" lengthAdjust="spacing" textLength="77" x="1777" y="566.0117">description</text><text fill="#000000" font-family="sans-serif" font-size="14" lengthAdjust="spacing" textLength="430" x="1864" y="566.0117">When exposed the value in 'precision' provides a +/- tolerance</text><text fill="#000000" font-family="sans-serif" font-size="14" lengthAdjust="spacing" textLength="473" x="1864" y="582.5">against the Properties in the Resource. Thus if a Property is UPDATED</text><text fill="#000000" font-family="sans-serif" font-size="14" lengthAdjust="spacing" textLength="465" x="1864" y="598.9883">to a value and that Property then RETRIEVED, the RETRIEVED value is</text><text fill="#000000" font-family="sans-serif" font-size="14" lengthAdjust="spacing" textLength="337" x="1864" y="615.4766">valid if in the range of the set value +/- precision</text><line style="stroke:#A80036;stroke-width:1.0;" x1="1859" x2="1859" y1="550.4766" y2="620.4297"/><rect fill="none" height="110.9297" rx="5" ry="5" style="stroke:#A80036;stroke-width:1.5;" width="570" x="1772" y="509.5"/><rect fill="#FEFECE" height="40.9766" rx="5" ry="5" style="stroke:#FEFECE;stroke-width:1.5;" width="334" x="1399" y="354.5"/><text fill="#000000" font-family="sans-serif" font-size="14" lengthAdjust="spacing" textLength="319" x="1404" y="370.0352">#/sdfObject/cgm.calibrate/sdfProperty/Cvalue</text><line style="stroke:#A80036;stroke-width:1.0;" x1="1399" x2="1733" y1="374.9883" y2="374.9883"/><text fill="#000000" font-family="sans-serif" font-size="14" lengthAdjust="spacing" textLength="324" x="1404" y="390.5234">#/sdfObject/cgm.calibrate/sdfProperty/Cstatus</text><rect fill="none" height="40.9766" rx="5" ry="5" style="stroke:#A80036;stroke-width:1.5;" width="334" x="1399" y="354.5"/><path d="M95,272 L108,272 C117.4068,272 126.9554,271.9088 136.5926,271.7376 " fill="none" style="stroke:#A80036;stroke-width:1.0;stroke-dasharray:3.0,3.0;"/><path d="M136.6543,274.8363 L138.9166,271.6914 L136.5309,268.6389 L144.3394,271.5834 L136.6543,274.8363 " fill="#A80036" style="stroke:#A80036;stroke-width:1.0;"/><ellipse cx="95" cy="272" fill="#A80036" rx="3" ry="3" style="stroke:#A80036;stroke-width:1.0;stroke-dasharray:3.0,3.0;"/><path d="M1602.5,244 L1615.5,244 C1704.1065,244 1689.9702,156.0308 1770,118 C1775.0455,115.6024 1780.1863,113.3018 1785.405,111.0945 " fill="none" style="stroke:#A80036;stroke-width:1.0;stroke-dasharray:3.0,3.0;"/><path d="M1786.586,113.9597 L1787.5539,110.2087 L1784.2239,108.2293 L1792.568,108.1419 L1786.586,113.9597 " fill="#A80036" style="stroke:#A80036;stroke-width:1.0;"/><ellipse cx="1602.5" cy="244" fill="#A80036" rx="3" ry="3" style="stroke:#A80036;stroke-width:1.0;stroke-dasharray:3.0,3.0;"/><path d="M1602.5,264 L1615.5,264 C1690.3454,264 1697.9456,217.2484 1770,197 C1809.144,185.9999 1852.1838,177.9568 1892.7403,172.1006 " fill="none" style="stroke:#A80036;stroke-width:1.0;stroke-dasharray:3.0,3.0;"/><path d="M1893.1676,175.1176 L1895.003,171.7801 L1892.313,169.0836 L1900.2827,171.0323 L1893.1676,175.1176 " fill="#A80036" style="stroke:#A80036;stroke-width:1.0;"/><ellipse cx="1602.5" cy="264" fill="#A80036" rx="3" ry="3" style="stroke:#A80036;stroke-width:1.0;stroke-dasharray:3.0,3.0;"/><path d="M2319.5,349 L2332.5,349 C2345.785,349 2360.0678,349 2373.5499,349 " fill="none" style="stroke:#A80036;stroke-width:1.0;stroke-dasharray:3.0,3.0;"/><path d="M2373.5499,352.1328 L2375.8995,349 L2373.5499,345.8672 L2381.3818,349 L2373.5499,352.1328 " fill="#A80036" style="stroke:#A80036;stroke-width:1.0;"/><ellipse cx="2319.5" cy="349" fill="#A80036" rx="3" ry="3" style="stroke:#A80036;stroke-width:1.0;stroke-dasharray:3.0,3.0;"/><path d="M1602.5,284 L1615.5,284 C1667.2201,284 1722.3521,284 1775.494,284 " fill="none" style="stroke:#A80036;stroke-width:1.0;stroke-dasharray:3.0,3.0;"/><path d="M1775.494,287.1302 L1777.8417,284 L1775.494,280.8698 L1783.3195,284 L1775.494,287.1302 " fill="#A80036" style="stroke:#A80036;stroke-width:1.0;"/><ellipse cx="1602.5" cy="284" fill="#A80036" rx="3" ry="3" style="stroke:#A80036;stroke-width:1.0;stroke-dasharray:3.0,3.0;"/><path d="M1602.5,305 L1615.5,305 C1671.2299,305 1684.314,320.7585 1734,346 C1751.3671,354.8228 1752.1742,363.1452 1770,371 C1775.1341,373.2623 1780.3559,375.4502 1785.6485,377.5658 " fill="none" style="stroke:#A80036;stroke-width:1.0;stroke-dasharray:3.0,3.0;"/><path d="M1784.5123,380.4696 L1787.8263,378.418 L1786.7847,374.6621 L1792.9079,380.4063 L1784.5123,380.4696 " fill="#A80036" style="stroke:#A80036;stroke-width:1.0;"/><ellipse cx="1602.5" cy="305" fill="#A80036" rx="3" ry="3" style="stroke:#A80036;stroke-width:1.0;stroke-dasharray:3.0,3.0;"/><path d="M1602.5,326 L1615.5,326 C1668.9115,326 1695.098,309.4019 1734,346 C1785.5104,394.4598 1719.7812,451.2029 1770,501 C1771.0857,502.0766 1772.1853,503.1367 1773.2983,504.1806 " fill="none" style="stroke:#A80036;stroke-width:1.0;stroke-dasharray:3.0,3.0;"/><path d="M1771.264,506.4505 L1775.0007,505.7063 L1775.3326,501.9107 L1778.973,509.2663 L1771.264,506.4505 " fill="#A80036" style="stroke:#A80036;stroke-width:1.0;"/><ellipse cx="1602.5" cy="326" fill="#A80036" rx="3" ry="3" style="stroke:#A80036;stroke-width:1.0;stroke-dasharray:3.0,3.0;"/><path d="M1350,317 L1363,317 C1413.7631,317 1470.8166,307.0677 1511.3954,298.2701 " fill="none" style="stroke:#A80036;stroke-width:1.0;stroke-dasharray:3.0,3.0;"/><path d="M1512.0461,301.2221 L1513.6094,297.7821 L1510.7446,295.3181 L1518.7754,296.6433 L1512.0461,301.2221 " fill="#A80036" style="stroke:#A80036;stroke-width:1.0;"/><ellipse cx="1350" cy="317" fill="#A80036" rx="3" ry="3" style="stroke:#A80036;stroke-width:1.0;stroke-dasharray:3.0,3.0;"/><path d="M1350,343 L1363,343 C1380.124,343 1412.9841,347.5209 1447.3315,353.1642 " fill="none" style="stroke:#A80036;stroke-width:1.0;stroke-dasharray:3.0,3.0;"/><path d="M1446.8122,356.2891 L1449.6752,353.5536 L1447.8507,350.0392 L1455.1439,354.4623 L1446.8122,356.2891 " fill="#A80036" style="stroke:#A80036;stroke-width:1.0;"/><ellipse cx="1350" cy="343" fill="#A80036" rx="3" ry="3" style="stroke:#A80036;stroke-width:1.0;stroke-dasharray:3.0,3.0;"/><path d="M501.5,317 L514.5,317 C603.2616,317 699.8879,317 787.6546,317 " fill="none" style="stroke:#A80036;stroke-width:1.0;stroke-dasharray:3.0,3.0;"/><path d="M787.6546,320.0604 L789.9499,317 L787.6546,313.9396 L795.3057,317 L787.6546,320.0604 " fill="#A80036" style="stroke:#A80036;stroke-width:1.0;"/><ellipse cx="501.5" cy="317" fill="#A80036" rx="3" ry="3" style="stroke:#A80036;stroke-width:1.0;stroke-dasharray:3.0,3.0;"/><path d="M95,293 L108,293 C124.1536,293 127.927,296.388 144,298 C225.3953,306.1634 319.3262,311.3666 381.5256,314.2255 " fill="none" style="stroke:#A80036;stroke-width:1.0;stroke-dasharray:3.0,3.0;"/><path d="M381.384,317.3468 L383.8665,314.3317 L381.6672,311.1042 L389.3288,314.5795 L381.384,317.3468 " fill="#A80036" style="stroke:#A80036;stroke-width:1.0;"/><ellipse cx="95" cy="293" fill="#A80036" rx="3" ry="3" style="stroke:#A80036;stroke-width:1.0;stroke-dasharray:3.0,3.0;"/><!--MD5=[f03305711f2d96a29d112dc5b6bb237c]
@startjson
{
  "info": {
    "copyright": "Copyright 2018-2019 Open Connectivity Foundation, Inc. All rights reserved.",
    "license": "https://github.com/one-data-model/oneDM/blob/master/LICENSE",
    "title": "Calibrate for Continuous Glucose Meter (CGM)",
    "version": "2019-03-04"
  },
  "sdfObject": {
    "cgm.calibrate": {
      "description": "This Resource describes the Properties associated with Calibrate for\\nContinuous Glucose Meter (CGM).",
      "sdfProperty": {
        "Cvalue": {
          "description": "This Property describes the Sensor Calibration Value in mg/dL units.\\nThis blood glucose measurement using other external glucose meter.",
          "type": "number",
          "minimum": 0,
          "writable": true
        },
        "Cstatus": {
          "description": "Sensor calibration required flag",
          "type": "boolean",
          "writable": false
        },
        "range": {
          "type": "array",
          "description": "The valid range for the Property in the Resource as a number. The\\nfirst value in the array is the minimum value, the second value in\\nthe array is the maximum value.",
          "writable": false,
          "minItems": 2,
          "maxItems": 2,
          "items": {
            "type": "number"
          }
        },
        "step": {
          "description": "Step value across the defined range an integer when the range is a\\nnumber.  This is the increment for valid values across the range; so\\nif range is 0.0..10.0 and step is 2.5 then valid values are\\n0.0,2.5,5.0,7.5,10.0.",
          "writable": false,
          "type": "number"
        },
        "precision": {
          "type": "number",
          "writable": false,
          "description": "When exposed the value in 'precision' provides a +/- tolerance\\nagainst the Properties in the Resource. Thus if a Property is UPDATED\\nto a value and that Property then RETRIEVED, the RETRIEVED value is\\nvalid if in the range of the set value +/- precision"
        }
      },
      "sdfRequired": [
        "#/sdfObject/cgm.calibrate/sdfProperty/Cvalue",
        "#/sdfObject/cgm.calibrate/sdfProperty/Cstatus"
      ]
    }
  }
}
@endjson

PlantUML version 1.2021.2(Sun Mar 07 13:10:27 EET 2021)
(GPL source distribution)
Java Runtime: OpenJDK Runtime Environment
JVM: OpenJDK 64-Bit Server VM
Default Encoding: UTF-8
Language: en
Country: FI
--></g></svg>