<?xml version="1.0" encoding="UTF-8" standalone="no"?><svg xmlns="http://www.w3.org/2000/svg" xmlns:xlink="http://www.w3.org/1999/xlink" contentScriptType="application/ecmascript" contentStyleType="text/css" height="515px" preserveAspectRatio="none" style="width:2478px;height:515px;" version="1.1" viewBox="0 0 2478 515" width="2478px" zoomAndPan="magnify"><defs/><g><rect fill="#FEFECE" height="40.9766" rx="5" ry="5" style="stroke:#FEFECE;stroke-width:1.5;" width="97" x="10" y="185"/><text fill="#000000" font-family="sans-serif" font-size="14" lengthAdjust="spacing" textLength="27" x="15" y="200.5352">info</text><text fill="#000000" font-family="sans-serif" font-size="14" lengthAdjust="spacing" textLength="0" x="102" y="200.5352"/><line style="stroke:#A80036;stroke-width:1.0;" x1="85" x2="85" y1="185" y2="205.4883"/><line style="stroke:#A80036;stroke-width:1.0;" x1="10" x2="107" y1="205.4883" y2="205.4883"/><text fill="#000000" font-family="sans-serif" font-size="14" lengthAdjust="spacing" textLength="65" x="15" y="221.0234">sdfObject</text><text fill="#000000" font-family="sans-serif" font-size="14" lengthAdjust="spacing" textLength="0" x="102" y="221.0234"/><line style="stroke:#A80036;stroke-width:1.0;" x1="85" x2="85" y1="205.4883" y2="225.9766"/><rect fill="none" height="40.9766" rx="5" ry="5" style="stroke:#A80036;stroke-width:1.5;" width="97" x="10" y="185"/><rect fill="#FEFECE" height="81.9531" rx="5" ry="5" style="stroke:#FEFECE;stroke-width:1.5;" width="655" x="144" y="129.5"/><text fill="#000000" font-family="sans-serif" font-size="14" lengthAdjust="spacing" textLength="65" x="149" y="145.0352">copyright</text><text fill="#000000" font-family="sans-serif" font-size="14" lengthAdjust="spacing" textLength="570" x="224" y="145.0352">copyright 2016-2017, 2019 Open Connectivity Foundation, Inc. All rights reserved.</text><line style="stroke:#A80036;stroke-width:1.0;" x1="219" x2="219" y1="129.5" y2="149.9883"/><line style="stroke:#A80036;stroke-width:1.0;" x1="144" x2="799" y1="149.9883" y2="149.9883"/><text fill="#000000" font-family="sans-serif" font-size="14" lengthAdjust="spacing" textLength="47" x="149" y="165.5234">license</text><text fill="#000000" font-family="sans-serif" font-size="14" lengthAdjust="spacing" textLength="462" x="224" y="165.5234">https://github.com/one-data-model/oneDM/blob/master/LICENSE</text><line style="stroke:#A80036;stroke-width:1.0;" x1="219" x2="219" y1="149.9883" y2="170.4766"/><line style="stroke:#A80036;stroke-width:1.0;" x1="144" x2="799" y1="170.4766" y2="170.4766"/><text fill="#000000" font-family="sans-serif" font-size="14" lengthAdjust="spacing" textLength="26" x="149" y="186.0117">title</text><text fill="#000000" font-family="sans-serif" font-size="14" lengthAdjust="spacing" textLength="63" x="224" y="186.0117">Altimeter</text><line style="stroke:#A80036;stroke-width:1.0;" x1="219" x2="219" y1="170.4766" y2="190.9648"/><line style="stroke:#A80036;stroke-width:1.0;" x1="144" x2="799" y1="190.9648" y2="190.9648"/><text fill="#000000" font-family="sans-serif" font-size="14" lengthAdjust="spacing" textLength="50" x="149" y="206.5">version</text><text fill="#000000" font-family="sans-serif" font-size="14" lengthAdjust="spacing" textLength="88" x="224" y="206.5">2019-02-25</text><line style="stroke:#A80036;stroke-width:1.0;" x1="219" x2="219" y1="190.9648" y2="211.4531"/><rect fill="none" height="81.9531" rx="5" ry="5" style="stroke:#A80036;stroke-width:1.5;" width="655" x="144" y="129.5"/><rect fill="#FEFECE" height="20.4883" rx="5" ry="5" style="stroke:#FEFECE;stroke-width:1.5;" width="93" x="425" y="229.5"/><text fill="#000000" font-family="sans-serif" font-size="14" lengthAdjust="spacing" textLength="61" x="430" y="245.0352">altimeter</text><text fill="#000000" font-family="sans-serif" font-size="14" lengthAdjust="spacing" textLength="0" x="513" y="245.0352"/><line style="stroke:#A80036;stroke-width:1.0;" x1="496" x2="496" y1="229.5" y2="249.9883"/><rect fill="none" height="20.4883" rx="5" ry="5" style="stroke:#A80036;stroke-width:1.5;" width="93" x="425" y="229.5"/><rect fill="#FEFECE" height="94.4414" rx="5" ry="5" style="stroke:#FEFECE;stroke-width:1.5;" width="577" x="836" y="192.5"/><text fill="#000000" font-family="sans-serif" font-size="14" lengthAdjust="spacing" textLength="77" x="841" y="208.0352">description</text><text fill="#000000" font-family="sans-serif" font-size="14" lengthAdjust="spacing" textLength="474" x="934" y="208.0352">This Resource describes the properties associated with altimeter. The</text><text fill="#000000" font-family="sans-serif" font-size="14" lengthAdjust="spacing" textLength="403" x="934" y="224.5234">Property "alt" is the distance (metres) above or below 'local'</text><text fill="#000000" font-family="sans-serif" font-size="14" lengthAdjust="spacing" textLength="66" x="934" y="241.0117">sea-level.</text><line style="stroke:#A80036;stroke-width:1.0;" x1="929" x2="929" y1="192.5" y2="245.9648"/><line style="stroke:#A80036;stroke-width:1.0;" x1="836" x2="1413" y1="245.9648" y2="245.9648"/><text fill="#000000" font-family="sans-serif" font-size="14" lengthAdjust="spacing" textLength="79" x="841" y="261.5">sdfProperty</text><text fill="#000000" font-family="sans-serif" font-size="14" lengthAdjust="spacing" textLength="0" x="946" y="261.5"/><line style="stroke:#A80036;stroke-width:1.0;" x1="929" x2="929" y1="245.9648" y2="266.4531"/><line style="stroke:#A80036;stroke-width:1.0;" x1="836" x2="1413" y1="266.4531" y2="266.4531"/><text fill="#000000" font-family="sans-serif" font-size="14" lengthAdjust="spacing" textLength="83" x="841" y="281.9883">sdfRequired</text><text fill="#000000" font-family="sans-serif" font-size="14" lengthAdjust="spacing" textLength="0" x="946" y="281.9883"/><line style="stroke:#A80036;stroke-width:1.0;" x1="929" x2="929" y1="266.4531" y2="286.9414"/><rect fill="none" height="94.4414" rx="5" ry="5" style="stroke:#A80036;stroke-width:1.5;" width="577" x="836" y="192.5"/><rect fill="#FEFECE" height="81.9531" rx="5" ry="5" style="stroke:#FEFECE;stroke-width:1.5;" width="95" x="1537" y="179.5"/><text fill="#000000" font-family="sans-serif" font-size="14" lengthAdjust="spacing" textLength="17" x="1542" y="195.0352">alt</text><text fill="#000000" font-family="sans-serif" font-size="14" lengthAdjust="spacing" textLength="0" x="1627" y="195.0352"/><line style="stroke:#A80036;stroke-width:1.0;" x1="1610" x2="1610" y1="179.5" y2="199.9883"/><line style="stroke:#A80036;stroke-width:1.0;" x1="1537" x2="1632" y1="199.9883" y2="199.9883"/><text fill="#000000" font-family="sans-serif" font-size="14" lengthAdjust="spacing" textLength="63" x="1542" y="215.5234">precision</text><text fill="#000000" font-family="sans-serif" font-size="14" lengthAdjust="spacing" textLength="0" x="1627" y="215.5234"/><line style="stroke:#A80036;stroke-width:1.0;" x1="1610" x2="1610" y1="199.9883" y2="220.4766"/><line style="stroke:#A80036;stroke-width:1.0;" x1="1537" x2="1632" y1="220.4766" y2="220.4766"/><text fill="#000000" font-family="sans-serif" font-size="14" lengthAdjust="spacing" textLength="40" x="1542" y="236.0117">range</text><text fill="#000000" font-family="sans-serif" font-size="14" lengthAdjust="spacing" textLength="0" x="1627" y="236.0117"/><line style="stroke:#A80036;stroke-width:1.0;" x1="1610" x2="1610" y1="220.4766" y2="240.9648"/><line style="stroke:#A80036;stroke-width:1.0;" x1="1537" x2="1632" y1="240.9648" y2="240.9648"/><text fill="#000000" font-family="sans-serif" font-size="14" lengthAdjust="spacing" textLength="29" x="1542" y="256.5">step</text><text fill="#000000" font-family="sans-serif" font-size="14" lengthAdjust="spacing" textLength="0" x="1627" y="256.5"/><line style="stroke:#A80036;stroke-width:1.0;" x1="1610" x2="1610" y1="240.9648" y2="261.4531"/><rect fill="none" height="81.9531" rx="5" ry="5" style="stroke:#A80036;stroke-width:1.5;" width="95" x="1537" y="179.5"/><rect fill="#FEFECE" height="61.4648" rx="5" ry="5" style="stroke:#FEFECE;stroke-width:1.5;" width="520" x="1781" y="10"/><text fill="#000000" font-family="sans-serif" font-size="14" lengthAdjust="spacing" textLength="77" x="1786" y="25.5352">description</text><text fill="#000000" font-family="sans-serif" font-size="14" lengthAdjust="spacing" textLength="423" x="1873" y="25.5352">The current distance (metres) above or below 'local' sea-level.</text><line style="stroke:#A80036;stroke-width:1.0;" x1="1868" x2="1868" y1="10" y2="30.4883"/><line style="stroke:#A80036;stroke-width:1.0;" x1="1781" x2="2301" y1="30.4883" y2="30.4883"/><text fill="#000000" font-family="sans-serif" font-size="14" lengthAdjust="spacing" textLength="55" x="1786" y="46.0234">writable</text><text fill="#000000" font-family="sans-serif" font-size="14" lengthAdjust="spacing" textLength="48" x="1873" y="46.0234">☐ false</text><line style="stroke:#A80036;stroke-width:1.0;" x1="1868" x2="1868" y1="30.4883" y2="50.9766"/><line style="stroke:#A80036;stroke-width:1.0;" x1="1781" x2="2301" y1="50.9766" y2="50.9766"/><text fill="#000000" font-family="sans-serif" font-size="14" lengthAdjust="spacing" textLength="29" x="1786" y="66.5117">type</text><text fill="#000000" font-family="sans-serif" font-size="14" lengthAdjust="spacing" textLength="54" x="1873" y="66.5117">number</text><line style="stroke:#A80036;stroke-width:1.0;" x1="1868" x2="1868" y1="50.9766" y2="71.4648"/><rect fill="none" height="61.4648" rx="5" ry="5" style="stroke:#A80036;stroke-width:1.5;" width="520" x="1781" y="10"/><rect fill="#FEFECE" height="110.9297" rx="5" ry="5" style="stroke:#FEFECE;stroke-width:1.5;" width="570" x="1756" y="89"/><text fill="#000000" font-family="sans-serif" font-size="14" lengthAdjust="spacing" textLength="29" x="1761" y="104.5352">type</text><text fill="#000000" font-family="sans-serif" font-size="14" lengthAdjust="spacing" textLength="54" x="1848" y="104.5352">number</text><line style="stroke:#A80036;stroke-width:1.0;" x1="1843" x2="1843" y1="89" y2="109.4883"/><line style="stroke:#A80036;stroke-width:1.0;" x1="1756" x2="2326" y1="109.4883" y2="109.4883"/><text fill="#000000" font-family="sans-serif" font-size="14" lengthAdjust="spacing" textLength="55" x="1761" y="125.0234">writable</text><text fill="#000000" font-family="sans-serif" font-size="14" lengthAdjust="spacing" textLength="48" x="1848" y="125.0234">☐ false</text><line style="stroke:#A80036;stroke-width:1.0;" x1="1843" x2="1843" y1="109.4883" y2="129.9766"/><line style="stroke:#A80036;stroke-width:1.0;" x1="1756" x2="2326" y1="129.9766" y2="129.9766"/><text fill="#000000" font-family="sans-serif" font-size="14" lengthAdjust="spacing" textLength="77" x="1761" y="145.5117">description</text><text fill="#000000" font-family="sans-serif" font-size="14" lengthAdjust="spacing" textLength="430" x="1848" y="145.5117">When exposed the value in 'precision' provides a +/- tolerance</text><text fill="#000000" font-family="sans-serif" font-size="14" lengthAdjust="spacing" textLength="473" x="1848" y="162">against the Properties in the Resource. Thus if a Property is UPDATED</text><text fill="#000000" font-family="sans-serif" font-size="14" lengthAdjust="spacing" textLength="465" x="1848" y="178.4883">to a value and that Property then RETRIEVED, the RETRIEVED value is</text><text fill="#000000" font-family="sans-serif" font-size="14" lengthAdjust="spacing" textLength="337" x="1848" y="194.9766">valid if in the range of the set value +/- precision</text><line style="stroke:#A80036;stroke-width:1.0;" x1="1843" x2="1843" y1="129.9766" y2="199.9297"/><rect fill="none" height="110.9297" rx="5" ry="5" style="stroke:#A80036;stroke-width:1.5;" width="570" x="1756" y="89"/><rect fill="#FEFECE" height="155.9063" rx="5" ry="5" style="stroke:#FEFECE;stroke-width:1.5;" width="548" x="1767" y="218.5"/><text fill="#000000" font-family="sans-serif" font-size="14" lengthAdjust="spacing" textLength="29" x="1772" y="234.0352">type</text><text fill="#000000" font-family="sans-serif" font-size="14" lengthAdjust="spacing" textLength="35" x="1859" y="234.0352">array</text><line style="stroke:#A80036;stroke-width:1.0;" x1="1854" x2="1854" y1="218.5" y2="238.9883"/><line style="stroke:#A80036;stroke-width:1.0;" x1="1767" x2="2315" y1="238.9883" y2="238.9883"/><text fill="#000000" font-family="sans-serif" font-size="14" lengthAdjust="spacing" textLength="77" x="1772" y="254.5234">description</text><text fill="#000000" font-family="sans-serif" font-size="14" lengthAdjust="spacing" textLength="451" x="1859" y="254.5234">The valid range for the Property in the Resource as a number. The</text><text fill="#000000" font-family="sans-serif" font-size="14" lengthAdjust="spacing" textLength="439" x="1859" y="271.0117">first value in the array is the minimum value, the second value in</text><text fill="#000000" font-family="sans-serif" font-size="14" lengthAdjust="spacing" textLength="219" x="1859" y="287.5">the array is the maximum value.</text><line style="stroke:#A80036;stroke-width:1.0;" x1="1854" x2="1854" y1="238.9883" y2="292.4531"/><line style="stroke:#A80036;stroke-width:1.0;" x1="1767" x2="2315" y1="292.4531" y2="292.4531"/><text fill="#000000" font-family="sans-serif" font-size="14" lengthAdjust="spacing" textLength="55" x="1772" y="307.9883">writable</text><text fill="#000000" font-family="sans-serif" font-size="14" lengthAdjust="spacing" textLength="48" x="1859" y="307.9883">☐ false</text><line style="stroke:#A80036;stroke-width:1.0;" x1="1854" x2="1854" y1="292.4531" y2="312.9414"/><line style="stroke:#A80036;stroke-width:1.0;" x1="1767" x2="2315" y1="312.9414" y2="312.9414"/><text fill="#000000" font-family="sans-serif" font-size="14" lengthAdjust="spacing" textLength="63" x="1772" y="328.4766">minItems</text><text fill="#000000" font-family="sans-serif" font-size="14" lengthAdjust="spacing" textLength="9" x="1859" y="328.4766">2</text><line style="stroke:#A80036;stroke-width:1.0;" x1="1854" x2="1854" y1="312.9414" y2="333.4297"/><line style="stroke:#A80036;stroke-width:1.0;" x1="1767" x2="2315" y1="333.4297" y2="333.4297"/><text fill="#000000" font-family="sans-serif" font-size="14" lengthAdjust="spacing" textLength="67" x="1772" y="348.9648">maxItems</text><text fill="#000000" font-family="sans-serif" font-size="14" lengthAdjust="spacing" textLength="9" x="1859" y="348.9648">2</text><line style="stroke:#A80036;stroke-width:1.0;" x1="1854" x2="1854" y1="333.4297" y2="353.918"/><line style="stroke:#A80036;stroke-width:1.0;" x1="1767" x2="2315" y1="353.918" y2="353.918"/><text fill="#000000" font-family="sans-serif" font-size="14" lengthAdjust="spacing" textLength="37" x="1772" y="369.4531">items</text><text fill="#000000" font-family="sans-serif" font-size="14" lengthAdjust="spacing" textLength="0" x="1871" y="369.4531"/><line style="stroke:#A80036;stroke-width:1.0;" x1="1854" x2="1854" y1="353.918" y2="374.4063"/><rect fill="none" height="155.9063" rx="5" ry="5" style="stroke:#A80036;stroke-width:1.5;" width="548" x="1767" y="218.5"/><rect fill="#FEFECE" height="20.4883" rx="5" ry="5" style="stroke:#FEFECE;stroke-width:1.5;" width="103" x="2363" y="351.5"/><text fill="#000000" font-family="sans-serif" font-size="14" lengthAdjust="spacing" textLength="29" x="2368" y="367.0352">type</text><text fill="#000000" font-family="sans-serif" font-size="14" lengthAdjust="spacing" textLength="54" x="2407" y="367.0352">number</text><line style="stroke:#A80036;stroke-width:1.0;" x1="2402" x2="2402" y1="351.5" y2="371.9883"/><rect fill="none" height="20.4883" rx="5" ry="5" style="stroke:#A80036;stroke-width:1.5;" width="103" x="2363" y="351.5"/><rect fill="#FEFECE" height="110.9297" rx="5" ry="5" style="stroke:#FEFECE;stroke-width:1.5;" width="555" x="1763.5" y="393"/><text fill="#000000" font-family="sans-serif" font-size="14" lengthAdjust="spacing" textLength="77" x="1768.5" y="408.5352">description</text><text fill="#000000" font-family="sans-serif" font-size="14" lengthAdjust="spacing" textLength="456" x="1855.5" y="408.5352">Step value across the defined range an integer when the range is a</text><text fill="#000000" font-family="sans-serif" font-size="14" lengthAdjust="spacing" textLength="458" x="1855.5" y="425.0234">number.  This is the increment for valid values across the range; so</text><text fill="#000000" font-family="sans-serif" font-size="14" lengthAdjust="spacing" textLength="381" x="1855.5" y="441.5117">if range is 0.0..10.0 and step is 2.5 then valid values are</text><text fill="#000000" font-family="sans-serif" font-size="14" lengthAdjust="spacing" textLength="139" x="1855.5" y="458">0.0,2.5,5.0,7.5,10.0.</text><line style="stroke:#A80036;stroke-width:1.0;" x1="1850.5" x2="1850.5" y1="393" y2="462.9531"/><line style="stroke:#A80036;stroke-width:1.0;" x1="1763.5" x2="2318.5" y1="462.9531" y2="462.9531"/><text fill="#000000" font-family="sans-serif" font-size="14" lengthAdjust="spacing" textLength="55" x="1768.5" y="478.4883">writable</text><text fill="#000000" font-family="sans-serif" font-size="14" lengthAdjust="spacing" textLength="48" x="1855.5" y="478.4883">☐ false</text><line style="stroke:#A80036;stroke-width:1.0;" x1="1850.5" x2="1850.5" y1="462.9531" y2="483.4414"/><line style="stroke:#A80036;stroke-width:1.0;" x1="1763.5" x2="2318.5" y1="483.4414" y2="483.4414"/><text fill="#000000" font-family="sans-serif" font-size="14" lengthAdjust="spacing" textLength="29" x="1768.5" y="498.9766">type</text><text fill="#000000" font-family="sans-serif" font-size="14" lengthAdjust="spacing" textLength="54" x="1855.5" y="498.9766">number</text><line style="stroke:#A80036;stroke-width:1.0;" x1="1850.5" x2="1850.5" y1="483.4414" y2="503.9297"/><rect fill="none" height="110.9297" rx="5" ry="5" style="stroke:#A80036;stroke-width:1.5;" width="555" x="1763.5" y="393"/><rect fill="#FEFECE" height="20.4883" rx="5" ry="5" style="stroke:#FEFECE;stroke-width:1.5;" width="269" x="1450" y="279.5"/><text fill="#000000" font-family="sans-serif" font-size="14" lengthAdjust="spacing" textLength="259" x="1455" y="295.0352">#/sdfObject/altimeter/sdfProperty/alt</text><rect fill="none" height="20.4883" rx="5" ry="5" style="stroke:#A80036;stroke-width:1.5;" width="269" x="1450" y="279.5"/><path d="M95,194.5 L108,194.5 C117.3442,194.5 126.8208,194.4198 136.3833,194.2688 " fill="none" style="stroke:#A80036;stroke-width:1.0;stroke-dasharray:3.0,3.0;"/><path d="M136.4378,197.3434 L138.6892,194.2279 L136.3288,191.1942 L144.0697,194.1326 L136.4378,197.3434 " fill="#A80036" style="stroke:#A80036;stroke-width:1.0;"/><ellipse cx="95" cy="194.5" fill="#A80036" rx="3" ry="3" style="stroke:#A80036;stroke-width:1.0;stroke-dasharray:3.0,3.0;"/><path d="M1621,189.5 L1634,189.5 C1706.7112,189.5 1690.043,111.1037 1756,80.5 C1761.9349,77.7463 1768.0085,75.1697 1774.191,72.7594 " fill="none" style="stroke:#A80036;stroke-width:1.0;stroke-dasharray:3.0,3.0;"/><path d="M1775.2925,75.6818 L1776.3828,71.9332 L1773.0895,69.837 L1781.4971,70.0056 L1775.2925,75.6818 " fill="#A80036" style="stroke:#A80036;stroke-width:1.0;"/><ellipse cx="1621" cy="189.5" fill="#A80036" rx="3" ry="3" style="stroke:#A80036;stroke-width:1.0;stroke-dasharray:3.0,3.0;"/><path d="M1621,209.5 L1634,209.5 C1675.5484,209.5 1719.1893,206.148 1761.8297,200.9664 " fill="none" style="stroke:#A80036;stroke-width:1.0;stroke-dasharray:3.0,3.0;"/><path d="M1762.2109,204.0341 L1764.1305,200.6806 L1761.4486,197.8988 L1769.4988,200.0137 L1762.2109,204.0341 " fill="#A80036" style="stroke:#A80036;stroke-width:1.0;"/><ellipse cx="1621" cy="209.5" fill="#A80036" rx="3" ry="3" style="stroke:#A80036;stroke-width:1.0;stroke-dasharray:3.0,3.0;"/><path d="M2303.5,361.5 L2316.5,361.5 C2329.235,361.5 2342.9056,361.5 2355.8621,361.5 " fill="none" style="stroke:#A80036;stroke-width:1.0;stroke-dasharray:3.0,3.0;"/><path d="M2355.8621,364.5134 L2358.1221,361.5 L2355.8621,358.4866 L2363.3956,361.5 L2355.8621,364.5134 " fill="#A80036" style="stroke:#A80036;stroke-width:1.0;"/><ellipse cx="2303.5" cy="361.5" fill="#A80036" rx="3" ry="3" style="stroke:#A80036;stroke-width:1.0;stroke-dasharray:3.0,3.0;"/><path d="M1621,230.5 L1634,230.5 C1674.89,230.5 1717.7981,233.794 1759.7817,238.9102 " fill="none" style="stroke:#A80036;stroke-width:1.0;stroke-dasharray:3.0,3.0;"/><path d="M1759.4054,241.9308 L1762.0472,239.1925 L1760.1581,235.8895 L1767.3334,239.8511 L1759.4054,241.9308 " fill="#A80036" style="stroke:#A80036;stroke-width:1.0;"/><ellipse cx="1621" cy="230.5" fill="#A80036" rx="3" ry="3" style="stroke:#A80036;stroke-width:1.0;stroke-dasharray:3.0,3.0;"/><path d="M1621,251.5 L1634,251.5 C1673.1439,251.5 1691.091,244.1084 1720,270.5 C1758.9274,306.0377 1717.2004,347.8228 1756,383.5 C1757.6608,385.0271 1759.3499,386.5208 1761.0658,387.9817 " fill="none" style="stroke:#A80036;stroke-width:1.0;stroke-dasharray:3.0,3.0;"/><path d="M1759.129,390.3558 L1762.8464,389.4343 L1763.0026,385.6076 L1767.0011,392.8236 L1759.129,390.3558 " fill="#A80036" style="stroke:#A80036;stroke-width:1.0;"/><ellipse cx="1621" cy="251.5" fill="#A80036" rx="3" ry="3" style="stroke:#A80036;stroke-width:1.0;stroke-dasharray:3.0,3.0;"/><path d="M1401,238.5 L1414,238.5 C1452.7414,238.5 1496.1742,233.82 1529.4414,229.2327 " fill="none" style="stroke:#A80036;stroke-width:1.0;stroke-dasharray:3.0,3.0;"/><path d="M1529.881,232.3516 L1531.7806,228.9029 L1529.0018,226.1137 L1537.2387,228.1336 L1529.881,232.3516 " fill="#A80036" style="stroke:#A80036;stroke-width:1.0;"/><ellipse cx="1401" cy="238.5" fill="#A80036" rx="3" ry="3" style="stroke:#A80036;stroke-width:1.0;stroke-dasharray:3.0,3.0;"/><path d="M1401,270.5 L1414,270.5 C1447.8112,270.5 1485.1724,274.258 1516.2385,278.4313 " fill="none" style="stroke:#A80036;stroke-width:1.0;stroke-dasharray:3.0,3.0;"/><path d="M1515.8113,281.5339 L1518.5654,278.7517 L1516.6656,275.3287 L1523.995,279.4992 L1515.8113,281.5339 " fill="#A80036" style="stroke:#A80036;stroke-width:1.0;"/><ellipse cx="1401" cy="270.5" fill="#A80036" rx="3" ry="3" style="stroke:#A80036;stroke-width:1.0;stroke-dasharray:3.0,3.0;"/><path d="M507,239.5 L520,239.5 C620.5379,239.5 730.4892,239.5 828.7008,239.5 " fill="none" style="stroke:#A80036;stroke-width:1.0;stroke-dasharray:3.0,3.0;"/><path d="M828.7008,242.5606 L830.9963,239.5 L828.7008,236.4394 L836.3524,239.5 L828.7008,242.5606 " fill="#A80036" style="stroke:#A80036;stroke-width:1.0;"/><ellipse cx="507" cy="239.5" fill="#A80036" rx="3" ry="3" style="stroke:#A80036;stroke-width:1.0;stroke-dasharray:3.0,3.0;"/><path d="M95,215.5 L108,215.5 C124.1536,215.5 127.924,218.9191 144,220.5 C240.2578,229.9658 352.9545,235.2405 417.7556,237.7149 " fill="none" style="stroke:#A80036;stroke-width:1.0;stroke-dasharray:3.0,3.0;"/><path d="M417.6404,240.7792 L420.0539,237.8012 L417.8708,234.6505 L425.4164,238.0028 L417.6404,240.7792 " fill="#A80036" style="stroke:#A80036;stroke-width:1.0;"/><ellipse cx="95" cy="215.5" fill="#A80036" rx="3" ry="3" style="stroke:#A80036;stroke-width:1.0;stroke-dasharray:3.0,3.0;"/><!--MD5=[77e5ba4eae192ef2217e5c3cbde16939]
@startjson
{
  "info": {
    "copyright": "copyright 2016-2017, 2019 Open Connectivity Foundation, Inc. All rights reserved.",
    "license": "https://github.com/one-data-model/oneDM/blob/master/LICENSE",
    "title": "Altimeter",
    "version": "2019-02-25"
  },
  "sdfObject": {
    "altimeter": {
      "description": "This Resource describes the properties associated with altimeter. The\\nProperty \"alt\" is the distance (metres) above or below 'local'\\nsea-level.",
      "sdfProperty": {
        "alt": {
          "description": "The current distance (metres) above or below 'local' sea-level.",
          "writable": false,
          "type": "number"
        },
        "precision": {
          "type": "number",
          "writable": false,
          "description": "When exposed the value in 'precision' provides a +/- tolerance\\nagainst the Properties in the Resource. Thus if a Property is UPDATED\\nto a value and that Property then RETRIEVED, the RETRIEVED value is\\nvalid if in the range of the set value +/- precision"
        },
        "range": {
          "type": "array",
          "description": "The valid range for the Property in the Resource as a number. The\\nfirst value in the array is the minimum value, the second value in\\nthe array is the maximum value.",
          "writable": false,
          "minItems": 2,
          "maxItems": 2,
          "items": {
            "type": "number"
          }
        },
        "step": {
          "description": "Step value across the defined range an integer when the range is a\\nnumber.  This is the increment for valid values across the range; so\\nif range is 0.0..10.0 and step is 2.5 then valid values are\\n0.0,2.5,5.0,7.5,10.0.",
          "writable": false,
          "type": "number"
        }
      },
      "sdfRequired": [
        "#/sdfObject/altimeter/sdfProperty/alt"
      ]
    }
  }
}
@endjson

PlantUML version 1.2021.2(Sun Mar 07 13:10:27 EET 2021)
(GPL source distribution)
Java Runtime: OpenJDK Runtime Environment
JVM: OpenJDK 64-Bit Server VM
Default Encoding: UTF-8
Language: en
Country: FI
--></g></svg>