<?xml version="1.0" encoding="UTF-8" standalone="no"?><svg xmlns="http://www.w3.org/2000/svg" xmlns:xlink="http://www.w3.org/1999/xlink" contentScriptType="application/ecmascript" contentStyleType="text/css" height="904px" preserveAspectRatio="none" style="width:2299px;height:904px;" version="1.1" viewBox="0 0 2299 904" width="2299px" zoomAndPan="magnify"><defs/><g><rect fill="#FEFECE" height="40.9766" rx="5" ry="5" style="stroke:#FEFECE;stroke-width:1.5;" width="97" x="10" y="319.5"/><text fill="#000000" font-family="sans-serif" font-size="14" lengthAdjust="spacing" textLength="27" x="15" y="335.0352">info</text><text fill="#000000" font-family="sans-serif" font-size="14" lengthAdjust="spacing" textLength="0" x="102" y="335.0352"/><line style="stroke:#A80036;stroke-width:1.0;" x1="85" x2="85" y1="319.5" y2="339.9883"/><line style="stroke:#A80036;stroke-width:1.0;" x1="10" x2="107" y1="339.9883" y2="339.9883"/><text fill="#000000" font-family="sans-serif" font-size="14" lengthAdjust="spacing" textLength="65" x="15" y="355.5234">sdfObject</text><text fill="#000000" font-family="sans-serif" font-size="14" lengthAdjust="spacing" textLength="0" x="102" y="355.5234"/><line style="stroke:#A80036;stroke-width:1.0;" x1="85" x2="85" y1="339.9883" y2="360.4766"/><rect fill="none" height="40.9766" rx="5" ry="5" style="stroke:#A80036;stroke-width:1.5;" width="97" x="10" y="319.5"/><rect fill="#FEFECE" height="81.9531" rx="5" ry="5" style="stroke:#FEFECE;stroke-width:1.5;" width="547" x="144" y="264"/><text fill="#000000" font-family="sans-serif" font-size="14" lengthAdjust="spacing" textLength="26" x="149" y="279.5352">title</text><text fill="#000000" font-family="sans-serif" font-size="14" lengthAdjust="spacing" textLength="242" x="224" y="279.5352">OMA LwM2M Time (Object ID 3333)</text><line style="stroke:#A80036;stroke-width:1.0;" x1="219" x2="219" y1="264" y2="284.4883"/><line style="stroke:#A80036;stroke-width:1.0;" x1="144" x2="691" y1="284.4883" y2="284.4883"/><text fill="#000000" font-family="sans-serif" font-size="14" lengthAdjust="spacing" textLength="50" x="149" y="300.0234">version</text><text fill="#000000" font-family="sans-serif" font-size="14" lengthAdjust="spacing" textLength="88" x="224" y="300.0234">2021-02-11</text><line style="stroke:#A80036;stroke-width:1.0;" x1="219" x2="219" y1="284.4883" y2="304.9766"/><line style="stroke:#A80036;stroke-width:1.0;" x1="144" x2="691" y1="304.9766" y2="304.9766"/><text fill="#000000" font-family="sans-serif" font-size="14" lengthAdjust="spacing" textLength="65" x="149" y="320.5117">copyright</text><text fill="#000000" font-family="sans-serif" font-size="14" lengthAdjust="spacing" textLength="208" x="224" y="320.5117">Copyright (c) 2018-2020 IPSO</text><line style="stroke:#A80036;stroke-width:1.0;" x1="219" x2="219" y1="304.9766" y2="325.4648"/><line style="stroke:#A80036;stroke-width:1.0;" x1="144" x2="691" y1="325.4648" y2="325.4648"/><text fill="#000000" font-family="sans-serif" font-size="14" lengthAdjust="spacing" textLength="47" x="149" y="341">license</text><text fill="#000000" font-family="sans-serif" font-size="14" lengthAdjust="spacing" textLength="462" x="224" y="341">https://github.com/one-data-model/oneDM/blob/master/LICENSE</text><line style="stroke:#A80036;stroke-width:1.0;" x1="219" x2="219" y1="325.4648" y2="345.9531"/><rect fill="none" height="81.9531" rx="5" ry="5" style="stroke:#A80036;stroke-width:1.5;" width="547" x="144" y="264"/><rect fill="#FEFECE" height="20.4883" rx="5" ry="5" style="stroke:#FEFECE;stroke-width:1.5;" width="66" x="384.5" y="364"/><text fill="#000000" font-family="sans-serif" font-size="14" lengthAdjust="spacing" textLength="34" x="389.5" y="379.5352">Time</text><text fill="#000000" font-family="sans-serif" font-size="14" lengthAdjust="spacing" textLength="0" x="445.5" y="379.5352"/><line style="stroke:#A80036;stroke-width:1.0;" x1="428.5" x2="428.5" y1="364" y2="384.4883"/><rect fill="none" height="20.4883" rx="5" ry="5" style="stroke:#A80036;stroke-width:1.5;" width="66" x="384.5" y="364"/><rect fill="#FEFECE" height="135.418" rx="5" ry="5" style="stroke:#FEFECE;stroke-width:1.5;" width="570" x="728" y="306.5"/><text fill="#000000" font-family="sans-serif" font-size="14" lengthAdjust="spacing" textLength="33" x="733" y="322.0352">label</text><text fill="#000000" font-family="sans-serif" font-size="14" lengthAdjust="spacing" textLength="34" x="826" y="322.0352">Time</text><line style="stroke:#A80036;stroke-width:1.0;" x1="821" x2="821" y1="306.5" y2="326.9883"/><line style="stroke:#A80036;stroke-width:1.0;" x1="728" x2="1298" y1="326.9883" y2="326.9883"/><text fill="#000000" font-family="sans-serif" font-size="14" lengthAdjust="spacing" textLength="77" x="733" y="342.5234">description</text><text fill="#000000" font-family="sans-serif" font-size="14" lengthAdjust="spacing" textLength="457" x="826" y="342.5234">This IPSO object is used to report the current time in seconds since</text><text fill="#000000" font-family="sans-serif" font-size="14" lengthAdjust="spacing" textLength="467" x="826" y="359.0117">January 1, 1970 UTC. There is also a fractional time counter that has</text><text fill="#000000" font-family="sans-serif" font-size="14" lengthAdjust="spacing" textLength="222" x="826" y="375.5">a range of less than one second.</text><line style="stroke:#A80036;stroke-width:1.0;" x1="821" x2="821" y1="326.9883" y2="380.4531"/><line style="stroke:#A80036;stroke-width:1.0;" x1="728" x2="1298" y1="380.4531" y2="380.4531"/><text fill="#000000" font-family="sans-serif" font-size="14" lengthAdjust="spacing" textLength="79" x="733" y="395.9883">sdfProperty</text><text fill="#000000" font-family="sans-serif" font-size="14" lengthAdjust="spacing" textLength="0" x="838" y="395.9883"/><line style="stroke:#A80036;stroke-width:1.0;" x1="821" x2="821" y1="380.4531" y2="400.9414"/><line style="stroke:#A80036;stroke-width:1.0;" x1="728" x2="1298" y1="400.9414" y2="400.9414"/><text fill="#000000" font-family="sans-serif" font-size="14" lengthAdjust="spacing" textLength="65" x="733" y="416.4766">sdfAction</text><text fill="#000000" font-family="sans-serif" font-size="14" lengthAdjust="spacing" textLength="0" x="838" y="416.4766"/><line style="stroke:#A80036;stroke-width:1.0;" x1="821" x2="821" y1="400.9414" y2="421.4297"/><line style="stroke:#A80036;stroke-width:1.0;" x1="728" x2="1298" y1="421.4297" y2="421.4297"/><text fill="#000000" font-family="sans-serif" font-size="14" lengthAdjust="spacing" textLength="83" x="733" y="436.9648">sdfRequired</text><text fill="#000000" font-family="sans-serif" font-size="14" lengthAdjust="spacing" textLength="0" x="838" y="436.9648"/><line style="stroke:#A80036;stroke-width:1.0;" x1="821" x2="821" y1="421.4297" y2="441.918"/><rect fill="none" height="135.418" rx="5" ry="5" style="stroke:#A80036;stroke-width:1.5;" width="570" x="728" y="306.5"/><rect fill="#FEFECE" height="102.4414" rx="5" ry="5" style="stroke:#FEFECE;stroke-width:1.5;" width="248" x="1370.5" y="273"/><text fill="#000000" font-family="sans-serif" font-size="14" lengthAdjust="spacing" textLength="94" x="1375.5" y="288.5352">Current_Time</text><text fill="#000000" font-family="sans-serif" font-size="14" lengthAdjust="spacing" textLength="0" x="1613.5" y="288.5352"/><line style="stroke:#A80036;stroke-width:1.0;" x1="1596.5" x2="1596.5" y1="273" y2="293.4883"/><line style="stroke:#A80036;stroke-width:1.0;" x1="1370.5" x2="1618.5" y1="293.4883" y2="293.4883"/><text fill="#000000" font-family="sans-serif" font-size="14" lengthAdjust="spacing" textLength="109" x="1375.5" y="309.0234">Fractional_Time</text><text fill="#000000" font-family="sans-serif" font-size="14" lengthAdjust="spacing" textLength="0" x="1613.5" y="309.0234"/><line style="stroke:#A80036;stroke-width:1.0;" x1="1596.5" x2="1596.5" y1="293.4883" y2="313.9766"/><line style="stroke:#A80036;stroke-width:1.0;" x1="1370.5" x2="1618.5" y1="313.9766" y2="313.9766"/><text fill="#000000" font-family="sans-serif" font-size="14" lengthAdjust="spacing" textLength="118" x="1375.5" y="329.5117">Application_Type</text><text fill="#000000" font-family="sans-serif" font-size="14" lengthAdjust="spacing" textLength="0" x="1613.5" y="329.5117"/><line style="stroke:#A80036;stroke-width:1.0;" x1="1596.5" x2="1596.5" y1="313.9766" y2="334.4648"/><line style="stroke:#A80036;stroke-width:1.0;" x1="1370.5" x2="1618.5" y1="334.4648" y2="334.4648"/><text fill="#000000" font-family="sans-serif" font-size="14" lengthAdjust="spacing" textLength="216" x="1375.5" y="350">Measurement_Quality_Indicator</text><text fill="#000000" font-family="sans-serif" font-size="14" lengthAdjust="spacing" textLength="0" x="1613.5" y="350"/><line style="stroke:#A80036;stroke-width:1.0;" x1="1596.5" x2="1596.5" y1="334.4648" y2="354.9531"/><line style="stroke:#A80036;stroke-width:1.0;" x1="1370.5" x2="1618.5" y1="354.9531" y2="354.9531"/><text fill="#000000" font-family="sans-serif" font-size="14" lengthAdjust="spacing" textLength="189" x="1375.5" y="370.4883">Measurement_Quality_Level</text><text fill="#000000" font-family="sans-serif" font-size="14" lengthAdjust="spacing" textLength="0" x="1613.5" y="370.4883"/><line style="stroke:#A80036;stroke-width:1.0;" x1="1596.5" x2="1596.5" y1="354.9531" y2="375.4414"/><rect fill="none" height="102.4414" rx="5" ry="5" style="stroke:#A80036;stroke-width:1.5;" width="248" x="1370.5" y="273"/><rect fill="#FEFECE" height="98.4414" rx="5" ry="5" style="stroke:#FEFECE;stroke-width:1.5;" width="581" x="1698.5" y="10"/><text fill="#000000" font-family="sans-serif" font-size="14" lengthAdjust="spacing" textLength="33" x="1703.5" y="25.5352">label</text><text fill="#000000" font-family="sans-serif" font-size="14" lengthAdjust="spacing" textLength="91" x="1790.5" y="25.5352">Current Time</text><line style="stroke:#A80036;stroke-width:1.0;" x1="1785.5" x2="1785.5" y1="10" y2="30.4883"/><line style="stroke:#A80036;stroke-width:1.0;" x1="1698.5" x2="2279.5" y1="30.4883" y2="30.4883"/><text fill="#000000" font-family="sans-serif" font-size="14" lengthAdjust="spacing" textLength="77" x="1703.5" y="46.0234">description</text><text fill="#000000" font-family="sans-serif" font-size="14" lengthAdjust="spacing" textLength="484" x="1790.5" y="46.0234">Unix Time. A signed integer representing the number of seconds since</text><text fill="#000000" font-family="sans-serif" font-size="14" lengthAdjust="spacing" textLength="242" x="1790.5" y="62.5117">Jan 1st, 1970 in the UTC time zone.</text><line style="stroke:#A80036;stroke-width:1.0;" x1="1785.5" x2="1785.5" y1="30.4883" y2="67.4648"/><line style="stroke:#A80036;stroke-width:1.0;" x1="1698.5" x2="2279.5" y1="67.4648" y2="67.4648"/><text fill="#000000" font-family="sans-serif" font-size="14" lengthAdjust="spacing" textLength="29" x="1703.5" y="83">type</text><text fill="#000000" font-family="sans-serif" font-size="14" lengthAdjust="spacing" textLength="54" x="1790.5" y="83">number</text><line style="stroke:#A80036;stroke-width:1.0;" x1="1785.5" x2="1785.5" y1="67.4648" y2="87.9531"/><line style="stroke:#A80036;stroke-width:1.0;" x1="1698.5" x2="2279.5" y1="87.9531" y2="87.9531"/><text fill="#000000" font-family="sans-serif" font-size="14" lengthAdjust="spacing" textLength="54" x="1703.5" y="103.4883">sdfType</text><text fill="#000000" font-family="sans-serif" font-size="14" lengthAdjust="spacing" textLength="69" x="1790.5" y="103.4883">unix-time</text><line style="stroke:#A80036;stroke-width:1.0;" x1="1785.5" x2="1785.5" y1="87.9531" y2="108.4414"/><rect fill="none" height="98.4414" rx="5" ry="5" style="stroke:#A80036;stroke-width:1.5;" width="581" x="1698.5" y="10"/><rect fill="#FEFECE" height="139.418" rx="5" ry="5" style="stroke:#FEFECE;stroke-width:1.5;" width="559" x="1709.5" y="126.5"/><text fill="#000000" font-family="sans-serif" font-size="14" lengthAdjust="spacing" textLength="33" x="1714.5" y="142.0352">label</text><text fill="#000000" font-family="sans-serif" font-size="14" lengthAdjust="spacing" textLength="106" x="1801.5" y="142.0352">Fractional Time</text><line style="stroke:#A80036;stroke-width:1.0;" x1="1796.5" x2="1796.5" y1="126.5" y2="146.9883"/><line style="stroke:#A80036;stroke-width:1.0;" x1="1709.5" x2="2268.5" y1="146.9883" y2="146.9883"/><text fill="#000000" font-family="sans-serif" font-size="14" lengthAdjust="spacing" textLength="77" x="1714.5" y="162.5234">description</text><text fill="#000000" font-family="sans-serif" font-size="14" lengthAdjust="spacing" textLength="462" x="1801.5" y="162.5234">Fractional part of the time when sub-second precision is used (e.g.,</text><text fill="#000000" font-family="sans-serif" font-size="14" lengthAdjust="spacing" textLength="119" x="1801.5" y="179.0117">0.23 for 230 ms).</text><line style="stroke:#A80036;stroke-width:1.0;" x1="1796.5" x2="1796.5" y1="146.9883" y2="183.9648"/><line style="stroke:#A80036;stroke-width:1.0;" x1="1709.5" x2="2268.5" y1="183.9648" y2="183.9648"/><text fill="#000000" font-family="sans-serif" font-size="14" lengthAdjust="spacing" textLength="29" x="1714.5" y="199.5">type</text><text fill="#000000" font-family="sans-serif" font-size="14" lengthAdjust="spacing" textLength="54" x="1801.5" y="199.5">number</text><line style="stroke:#A80036;stroke-width:1.0;" x1="1796.5" x2="1796.5" y1="183.9648" y2="204.4531"/><line style="stroke:#A80036;stroke-width:1.0;" x1="1709.5" x2="2268.5" y1="204.4531" y2="204.4531"/><text fill="#000000" font-family="sans-serif" font-size="14" lengthAdjust="spacing" textLength="27" x="1714.5" y="219.9883">unit</text><text fill="#000000" font-family="sans-serif" font-size="14" lengthAdjust="spacing" textLength="7" x="1801.5" y="219.9883">s</text><line style="stroke:#A80036;stroke-width:1.0;" x1="1796.5" x2="1796.5" y1="204.4531" y2="224.9414"/><line style="stroke:#A80036;stroke-width:1.0;" x1="1709.5" x2="2268.5" y1="224.9414" y2="224.9414"/><text fill="#000000" font-family="sans-serif" font-size="14" lengthAdjust="spacing" textLength="65" x="1714.5" y="240.4766">minimum</text><text fill="#000000" font-family="sans-serif" font-size="14" lengthAdjust="spacing" textLength="9" x="1801.5" y="240.4766">0</text><line style="stroke:#A80036;stroke-width:1.0;" x1="1796.5" x2="1796.5" y1="224.9414" y2="245.4297"/><line style="stroke:#A80036;stroke-width:1.0;" x1="1709.5" x2="2268.5" y1="245.4297" y2="245.4297"/><text fill="#000000" font-family="sans-serif" font-size="14" lengthAdjust="spacing" textLength="69" x="1714.5" y="260.9648">maximum</text><text fill="#000000" font-family="sans-serif" font-size="14" lengthAdjust="spacing" textLength="9" x="1801.5" y="260.9648">1</text><line style="stroke:#A80036;stroke-width:1.0;" x1="1796.5" x2="1796.5" y1="245.4297" y2="265.918"/><rect fill="none" height="139.418" rx="5" ry="5" style="stroke:#A80036;stroke-width:1.5;" width="559" x="1709.5" y="126.5"/><rect fill="#FEFECE" height="77.9531" rx="5" ry="5" style="stroke:#FEFECE;stroke-width:1.5;" width="563" x="1707.5" y="284"/><text fill="#000000" font-family="sans-serif" font-size="14" lengthAdjust="spacing" textLength="33" x="1712.5" y="299.5352">label</text><text fill="#000000" font-family="sans-serif" font-size="14" lengthAdjust="spacing" textLength="115" x="1799.5" y="299.5352">Application Type</text><line style="stroke:#A80036;stroke-width:1.0;" x1="1794.5" x2="1794.5" y1="284" y2="304.4883"/><line style="stroke:#A80036;stroke-width:1.0;" x1="1707.5" x2="2270.5" y1="304.4883" y2="304.4883"/><text fill="#000000" font-family="sans-serif" font-size="14" lengthAdjust="spacing" textLength="77" x="1712.5" y="320.0234">description</text><text fill="#000000" font-family="sans-serif" font-size="14" lengthAdjust="spacing" textLength="466" x="1799.5" y="320.0234">The application type of the sensor or actuator as a string depending</text><text fill="#000000" font-family="sans-serif" font-size="14" lengthAdjust="spacing" textLength="110" x="1799.5" y="336.5117">on the use case.</text><line style="stroke:#A80036;stroke-width:1.0;" x1="1794.5" x2="1794.5" y1="304.4883" y2="341.4648"/><line style="stroke:#A80036;stroke-width:1.0;" x1="1707.5" x2="2270.5" y1="341.4648" y2="341.4648"/><text fill="#000000" font-family="sans-serif" font-size="14" lengthAdjust="spacing" textLength="29" x="1712.5" y="357">type</text><text fill="#000000" font-family="sans-serif" font-size="14" lengthAdjust="spacing" textLength="40" x="1799.5" y="357">string</text><line style="stroke:#A80036;stroke-width:1.0;" x1="1794.5" x2="1794.5" y1="341.4648" y2="361.9531"/><rect fill="none" height="77.9531" rx="5" ry="5" style="stroke:#A80036;stroke-width:1.5;" width="563" x="1707.5" y="284"/><rect fill="#FEFECE" height="254.8359" rx="5" ry="5" style="stroke:#FEFECE;stroke-width:1.5;" width="596" x="1691" y="380.5"/><text fill="#000000" font-family="sans-serif" font-size="14" lengthAdjust="spacing" textLength="33" x="1696" y="396.0352">label</text><text fill="#000000" font-family="sans-serif" font-size="14" lengthAdjust="spacing" textLength="210" x="1783" y="396.0352">Measurement Quality Indicator</text><line style="stroke:#A80036;stroke-width:1.0;" x1="1778" x2="1778" y1="380.5" y2="400.9883"/><line style="stroke:#A80036;stroke-width:1.0;" x1="1691" x2="2287" y1="400.9883" y2="400.9883"/><text fill="#000000" font-family="sans-serif" font-size="14" lengthAdjust="spacing" textLength="77" x="1696" y="416.5234">description</text><text fill="#000000" font-family="sans-serif" font-size="14" lengthAdjust="spacing" textLength="401" x="1783" y="416.5234">Measurement quality indicator reported by a smart sensor.</text><text fill="#000000" font-family="sans-serif" font-size="14" lengthAdjust="spacing" textLength="499" x="1783" y="433.0117">0: UNCHECKED No quality checks were done because they do not exist or</text><text fill="#000000" font-family="sans-serif" font-size="14" lengthAdjust="spacing" textLength="131" x="1783" y="449.5">can not be applied.</text><text fill="#000000" font-family="sans-serif" font-size="14" lengthAdjust="spacing" textLength="414" x="1783" y="465.9883">1: REJECTED WITH CERTAINTY The measured value is invalid.</text><text fill="#000000" font-family="sans-serif" font-size="14" lengthAdjust="spacing" textLength="462" x="1783" y="482.4766">2: REJECTED WITH PROBABILITY The measured value is likely invalid.</text><text fill="#000000" font-family="sans-serif" font-size="14" lengthAdjust="spacing" textLength="430" x="1783" y="498.9648">3: ACCEPTED BUT SUSPICIOUS The measured value is likely OK.</text><text fill="#000000" font-family="sans-serif" font-size="14" lengthAdjust="spacing" textLength="275" x="1783" y="515.4531">4: ACCEPTED The measured value is OK.</text><text fill="#000000" font-family="sans-serif" font-size="14" lengthAdjust="spacing" textLength="258" x="1783" y="531.9414">5-15: Reserved for future extensions.</text><text fill="#000000" font-family="sans-serif" font-size="14" lengthAdjust="spacing" textLength="309" x="1783" y="548.4297">16-23: Vendor specific measurement quality.</text><line style="stroke:#A80036;stroke-width:1.0;" x1="1778" x2="1778" y1="400.9883" y2="553.3828"/><line style="stroke:#A80036;stroke-width:1.0;" x1="1691" x2="2287" y1="553.3828" y2="553.3828"/><text fill="#000000" font-family="sans-serif" font-size="14" lengthAdjust="spacing" textLength="55" x="1696" y="568.918">writable</text><text fill="#000000" font-family="sans-serif" font-size="14" lengthAdjust="spacing" textLength="48" x="1783" y="568.918">☐ false</text><line style="stroke:#A80036;stroke-width:1.0;" x1="1778" x2="1778" y1="553.3828" y2="573.8711"/><line style="stroke:#A80036;stroke-width:1.0;" x1="1691" x2="2287" y1="573.8711" y2="573.8711"/><text fill="#000000" font-family="sans-serif" font-size="14" lengthAdjust="spacing" textLength="29" x="1696" y="589.4063">type</text><text fill="#000000" font-family="sans-serif" font-size="14" lengthAdjust="spacing" textLength="49" x="1783" y="589.4063">integer</text><line style="stroke:#A80036;stroke-width:1.0;" x1="1778" x2="1778" y1="573.8711" y2="594.3594"/><line style="stroke:#A80036;stroke-width:1.0;" x1="1691" x2="2287" y1="594.3594" y2="594.3594"/><text fill="#000000" font-family="sans-serif" font-size="14" lengthAdjust="spacing" textLength="65" x="1696" y="609.8945">minimum</text><text fill="#000000" font-family="sans-serif" font-size="14" lengthAdjust="spacing" textLength="9" x="1783" y="609.8945">0</text><line style="stroke:#A80036;stroke-width:1.0;" x1="1778" x2="1778" y1="594.3594" y2="614.8477"/><line style="stroke:#A80036;stroke-width:1.0;" x1="1691" x2="2287" y1="614.8477" y2="614.8477"/><text fill="#000000" font-family="sans-serif" font-size="14" lengthAdjust="spacing" textLength="69" x="1696" y="630.3828">maximum</text><text fill="#000000" font-family="sans-serif" font-size="14" lengthAdjust="spacing" textLength="18" x="1783" y="630.3828">23</text><line style="stroke:#A80036;stroke-width:1.0;" x1="1778" x2="1778" y1="614.8477" y2="635.3359"/><rect fill="none" height="254.8359" rx="5" ry="5" style="stroke:#A80036;stroke-width:1.5;" width="596" x="1691" y="380.5"/><rect fill="#FEFECE" height="238.3477" rx="5" ry="5" style="stroke:#FEFECE;stroke-width:1.5;" width="585" x="1696.5" y="654"/><text fill="#000000" font-family="sans-serif" font-size="14" lengthAdjust="spacing" textLength="33" x="1701.5" y="669.5352">label</text><text fill="#000000" font-family="sans-serif" font-size="14" lengthAdjust="spacing" textLength="183" x="1788.5" y="669.5352">Measurement Quality Level</text><line style="stroke:#A80036;stroke-width:1.0;" x1="1783.5" x2="1783.5" y1="654" y2="674.4883"/><line style="stroke:#A80036;stroke-width:1.0;" x1="1696.5" x2="2281.5" y1="674.4883" y2="674.4883"/><text fill="#000000" font-family="sans-serif" font-size="14" lengthAdjust="spacing" textLength="77" x="1701.5" y="690.0234">description</text><text fill="#000000" font-family="sans-serif" font-size="14" lengthAdjust="spacing" textLength="458" x="1788.5" y="690.0234">Measurement quality level reported by a smart sensor. Quality level</text><text fill="#000000" font-family="sans-serif" font-size="14" lengthAdjust="spacing" textLength="437" x="1788.5" y="706.5117">100 means that the measurement has fully passed quality check</text><text fill="#000000" font-family="sans-serif" font-size="14" lengthAdjust="spacing" textLength="450" x="1788.5" y="723">algorithms. Smaller quality levels mean that quality has decreased</text><text fill="#000000" font-family="sans-serif" font-size="14" lengthAdjust="spacing" textLength="415" x="1788.5" y="739.4883">and the measurement has only partially passed quality check</text><text fill="#000000" font-family="sans-serif" font-size="14" lengthAdjust="spacing" textLength="470" x="1788.5" y="755.9766">algorithms. The smaller the quality level, the more caution should be</text><text fill="#000000" font-family="sans-serif" font-size="14" lengthAdjust="spacing" textLength="488" x="1788.5" y="772.4648">used by the application when using the measurement. When the quality</text><text fill="#000000" font-family="sans-serif" font-size="14" lengthAdjust="spacing" textLength="410" x="1788.5" y="788.9531">level is 0 it means that the measurement should certainly be</text><text fill="#000000" font-family="sans-serif" font-size="14" lengthAdjust="spacing" textLength="59" x="1788.5" y="805.4414">rejected.</text><line style="stroke:#A80036;stroke-width:1.0;" x1="1783.5" x2="1783.5" y1="674.4883" y2="810.3945"/><line style="stroke:#A80036;stroke-width:1.0;" x1="1696.5" x2="2281.5" y1="810.3945" y2="810.3945"/><text fill="#000000" font-family="sans-serif" font-size="14" lengthAdjust="spacing" textLength="55" x="1701.5" y="825.9297">writable</text><text fill="#000000" font-family="sans-serif" font-size="14" lengthAdjust="spacing" textLength="48" x="1788.5" y="825.9297">☐ false</text><line style="stroke:#A80036;stroke-width:1.0;" x1="1783.5" x2="1783.5" y1="810.3945" y2="830.8828"/><line style="stroke:#A80036;stroke-width:1.0;" x1="1696.5" x2="2281.5" y1="830.8828" y2="830.8828"/><text fill="#000000" font-family="sans-serif" font-size="14" lengthAdjust="spacing" textLength="29" x="1701.5" y="846.418">type</text><text fill="#000000" font-family="sans-serif" font-size="14" lengthAdjust="spacing" textLength="49" x="1788.5" y="846.418">integer</text><line style="stroke:#A80036;stroke-width:1.0;" x1="1783.5" x2="1783.5" y1="830.8828" y2="851.3711"/><line style="stroke:#A80036;stroke-width:1.0;" x1="1696.5" x2="2281.5" y1="851.3711" y2="851.3711"/><text fill="#000000" font-family="sans-serif" font-size="14" lengthAdjust="spacing" textLength="65" x="1701.5" y="866.9063">minimum</text><text fill="#000000" font-family="sans-serif" font-size="14" lengthAdjust="spacing" textLength="9" x="1788.5" y="866.9063">0</text><line style="stroke:#A80036;stroke-width:1.0;" x1="1783.5" x2="1783.5" y1="851.3711" y2="871.8594"/><line style="stroke:#A80036;stroke-width:1.0;" x1="1696.5" x2="2281.5" y1="871.8594" y2="871.8594"/><text fill="#000000" font-family="sans-serif" font-size="14" lengthAdjust="spacing" textLength="69" x="1701.5" y="887.3945">maximum</text><text fill="#000000" font-family="sans-serif" font-size="14" lengthAdjust="spacing" textLength="27" x="1788.5" y="887.3945">100</text><line style="stroke:#A80036;stroke-width:1.0;" x1="1783.5" x2="1783.5" y1="871.8594" y2="892.3477"/><rect fill="none" height="238.3477" rx="5" ry="5" style="stroke:#A80036;stroke-width:1.5;" width="585" x="1696.5" y="654"/><rect fill="#FEFECE" height="15" rx="5" ry="5" style="stroke:#FEFECE;stroke-width:1.5;" width="30" x="1482.5" y="393"/><rect fill="none" height="15" rx="5" ry="5" style="stroke:#A80036;stroke-width:1.5;" width="30" x="1482.5" y="393"/><rect fill="#FEFECE" height="20.4883" rx="5" ry="5" style="stroke:#FEFECE;stroke-width:1.5;" width="319" x="1335" y="427"/><text fill="#000000" font-family="sans-serif" font-size="14" lengthAdjust="spacing" textLength="309" x="1340" y="442.5352">#/sdfObject/Time/sdfProperty/Current_Time</text><rect fill="none" height="20.4883" rx="5" ry="5" style="stroke:#A80036;stroke-width:1.5;" width="319" x="1335" y="427"/><path d="M95,329 L108,329 C117.3406,329 126.8353,328.8896 136.4202,328.6839 " fill="none" style="stroke:#A80036;stroke-width:1.0;stroke-dasharray:3.0,3.0;"/><path d="M136.4943,331.7659 L138.7318,328.6283 L136.3462,325.6019 L144.1253,328.4987 L136.4943,331.7659 " fill="#A80036" style="stroke:#A80036;stroke-width:1.0;"/><ellipse cx="95" cy="329" fill="#A80036" rx="3" ry="3" style="stroke:#A80036;stroke-width:1.0;stroke-dasharray:3.0,3.0;"/><path d="M1607,283 L1620,283 C1700.2428,283 1628.5845,167.4304 1691,117 C1692.9442,115.4291 1694.9187,113.8966 1696.9217,112.4014 " fill="none" style="stroke:#A80036;stroke-width:1.0;stroke-dasharray:3.0,3.0;"/><path d="M1698.6712,114.8385 L1698.7494,111.0893 L1695.1721,109.9644 L1703.0142,108.0276 L1698.6712,114.8385 " fill="#A80036" style="stroke:#A80036;stroke-width:1.0;"/><ellipse cx="1607" cy="283" fill="#A80036" rx="3" ry="3" style="stroke:#A80036;stroke-width:1.0;stroke-dasharray:3.0,3.0;"/><path d="M1607,303 L1620,303 C1653.9208,303 1658.7757,285.593 1691,275 C1698.2343,272.6219 1705.5849,270.2638 1713.0167,267.9308 " fill="none" style="stroke:#A80036;stroke-width:1.0;stroke-dasharray:3.0,3.0;"/><path d="M1713.9464,270.9138 L1715.2539,267.2335 L1712.0869,264.9478 L1720.4741,265.6063 L1713.9464,270.9138 " fill="#A80036" style="stroke:#A80036;stroke-width:1.0;"/><ellipse cx="1607" cy="303" fill="#A80036" rx="3" ry="3" style="stroke:#A80036;stroke-width:1.0;stroke-dasharray:3.0,3.0;"/><path d="M1607,323 L1620,323 C1646.0226,323 1673.0789,323 1700.1834,323 " fill="none" style="stroke:#A80036;stroke-width:1.0;stroke-dasharray:3.0,3.0;"/><path d="M1700.1834,326.0581 L1702.477,323 L1700.1834,319.9419 L1707.8288,323 L1700.1834,326.0581 " fill="#A80036" style="stroke:#A80036;stroke-width:1.0;"/><ellipse cx="1607" cy="323" fill="#A80036" rx="3" ry="3" style="stroke:#A80036;stroke-width:1.0;stroke-dasharray:3.0,3.0;"/><path d="M1607,344 L1620,344 C1626.4941,344 1660.1744,357.7744 1704.7377,377.3392 " fill="none" style="stroke:#A80036;stroke-width:1.0;stroke-dasharray:3.0,3.0;"/><path d="M1703.5146,380.1179 L1706.8218,378.2565 L1705.9608,374.5604 L1711.6845,380.3969 L1703.5146,380.1179 " fill="#A80036" style="stroke:#A80036;stroke-width:1.0;"/><ellipse cx="1607" cy="344" fill="#A80036" rx="3" ry="3" style="stroke:#A80036;stroke-width:1.0;stroke-dasharray:3.0,3.0;"/><path d="M1608,363 L1608,376 C1608,386.5947 1647.6275,376.3913 1655,384 C1736.4853,468.096 1620.0614,551.835 1691,645 C1691.7185,645.9436 1692.4454,646.8804 1693.1804,647.8104 " fill="none" style="stroke:#A80036;stroke-width:1.0;stroke-dasharray:3.0,3.0;"/><path d="M1690.7647,649.7975 L1694.6708,649.6222 L1695.5961,645.8232 L1698.1483,653.8497 L1690.7647,649.7975 " fill="#A80036" style="stroke:#A80036;stroke-width:1.0;"/><ellipse cx="1608" cy="363" fill="#A80036" rx="3" ry="3" style="stroke:#A80036;stroke-width:1.0;stroke-dasharray:3.0,3.0;"/><path d="M1286,374 L1299,374 C1320.1027,374 1342.0988,371.2184 1363.3929,366.9674 " fill="none" style="stroke:#A80036;stroke-width:1.0;stroke-dasharray:3.0,3.0;"/><path d="M1364.018,369.9675 L1365.643,366.4986 L1362.7678,363.9674 L1370.893,365.4047 L1364.018,369.9675 " fill="#A80036" style="stroke:#A80036;stroke-width:1.0;"/><ellipse cx="1286" cy="374" fill="#A80036" rx="3" ry="3" style="stroke:#A80036;stroke-width:1.0;stroke-dasharray:3.0,3.0;"/><path d="M1286,401 L1299,401 C1363.5636,401 1440.1516,401 1475.0175,401 " fill="none" style="stroke:#A80036;stroke-width:1.0;stroke-dasharray:3.0,3.0;"/><path d="M1475.0175,404.0213 L1477.2835,401 L1475.0175,397.9787 L1482.5708,401 L1475.0175,404.0213 " fill="#A80036" style="stroke:#A80036;stroke-width:1.0;"/><ellipse cx="1286" cy="401" fill="#A80036" rx="3" ry="3" style="stroke:#A80036;stroke-width:1.0;stroke-dasharray:3.0,3.0;"/><path d="M1286,428 L1299,428 C1308.4522,428 1318.1594,428.1068 1327.9538,428.2972 " fill="none" style="stroke:#A80036;stroke-width:1.0;stroke-dasharray:3.0,3.0;"/><path d="M1327.8892,431.2988 L1330.205,428.3456 L1328.0184,425.2956 L1335.4578,428.4587 L1327.8892,431.2988 " fill="#A80036" style="stroke:#A80036;stroke-width:1.0;"/><ellipse cx="1286" cy="428" fill="#A80036" rx="3" ry="3" style="stroke:#A80036;stroke-width:1.0;stroke-dasharray:3.0,3.0;"/><path d="M439,374 L452,374 C539.3435,374 634.3432,374 720.8926,374 " fill="none" style="stroke:#A80036;stroke-width:1.0;stroke-dasharray:3.0,3.0;"/><path d="M720.8926,377.0183 L723.1563,374 L720.8926,370.9817 L728.4383,374 L720.8926,377.0183 " fill="#A80036" style="stroke:#A80036;stroke-width:1.0;"/><ellipse cx="439" cy="374" fill="#A80036" rx="3" ry="3" style="stroke:#A80036;stroke-width:1.0;stroke-dasharray:3.0,3.0;"/><path d="M95,350 L108,350 C124.1536,350 127.9333,353.3271 144,355 C226.8735,363.6287 324.3209,369.3519 377.4813,372.1009 " fill="none" style="stroke:#A80036;stroke-width:1.0;stroke-dasharray:3.0,3.0;"/><path d="M377.3277,375.1069 L379.7358,372.2161 L377.6349,369.0949 L384.9963,372.485 L377.3277,375.1069 " fill="#A80036" style="stroke:#A80036;stroke-width:1.0;"/><ellipse cx="95" cy="350" fill="#A80036" rx="3" ry="3" style="stroke:#A80036;stroke-width:1.0;stroke-dasharray:3.0,3.0;"/><!--MD5=[f352da1a63e1658d39044ffc4395110a]
@startjson
{
  "info": {
    "title": "OMA LwM2M Time (Object ID 3333)",
    "version": "2021-02-11",
    "copyright": "Copyright (c) 2018-2020 IPSO",
    "license": "https://github.com/one-data-model/oneDM/blob/master/LICENSE"
  },
  "sdfObject": {
    "Time": {
      "label": "Time",
      "description": "This IPSO object is used to report the current time in seconds since\\nJanuary 1, 1970 UTC. There is also a fractional time counter that has\\na range of less than one second.",
      "sdfProperty": {
        "Current_Time": {
          "label": "Current Time",
          "description": "Unix Time. A signed integer representing the number of seconds since\\nJan 1st, 1970 in the UTC time zone.",
          "type": "number",
          "sdfType": "unix-time"
        },
        "Fractional_Time": {
          "label": "Fractional Time",
          "description": "Fractional part of the time when sub-second precision is used (e.g.,\\n0.23 for 230 ms).",
          "type": "number",
          "unit": "s",
          "minimum": 0,
          "maximum": 1
        },
        "Application_Type": {
          "label": "Application Type",
          "description": "The application type of the sensor or actuator as a string depending\\non the use case.",
          "type": "string"
        },
        "Measurement_Quality_Indicator": {
          "label": "Measurement Quality Indicator",
          "description": "Measurement quality indicator reported by a smart sensor.\\n0: UNCHECKED No quality checks were done because they do not exist or\\ncan not be applied.\\n1: REJECTED WITH CERTAINTY The measured value is invalid.\\n2: REJECTED WITH PROBABILITY The measured value is likely invalid.\\n3: ACCEPTED BUT SUSPICIOUS The measured value is likely OK.\\n4: ACCEPTED The measured value is OK.\\n5-15: Reserved for future extensions.\\n16-23: Vendor specific measurement quality.",
          "writable": false,
          "type": "integer",
          "minimum": 0,
          "maximum": 23
        },
        "Measurement_Quality_Level": {
          "label": "Measurement Quality Level",
          "description": "Measurement quality level reported by a smart sensor. Quality level\\n100 means that the measurement has fully passed quality check\\nalgorithms. Smaller quality levels mean that quality has decreased\\nand the measurement has only partially passed quality check\\nalgorithms. The smaller the quality level, the more caution should be\\nused by the application when using the measurement. When the quality\\nlevel is 0 it means that the measurement should certainly be\\nrejected.",
          "writable": false,
          "type": "integer",
          "minimum": 0,
          "maximum": 100
        }
      },
      "sdfAction": {},
      "sdfRequired": [
        "#/sdfObject/Time/sdfProperty/Current_Time"
      ]
    }
  }
}
@endjson

PlantUML version 1.2021.2(Sun Mar 07 13:10:27 EET 2021)
(GPL source distribution)
Java Runtime: OpenJDK Runtime Environment
JVM: OpenJDK 64-Bit Server VM
Default Encoding: UTF-8
Language: en
Country: FI
--></g></svg>