<?xml version="1.0" encoding="UTF-8" standalone="no"?><svg xmlns="http://www.w3.org/2000/svg" xmlns:xlink="http://www.w3.org/1999/xlink" contentScriptType="application/ecmascript" contentStyleType="text/css" height="656px" preserveAspectRatio="none" style="width:2420px;height:656px;" version="1.1" viewBox="0 0 2420 656" width="2420px" zoomAndPan="magnify"><defs/><g><rect fill="#FEFECE" height="40.9766" rx="5" ry="5" style="stroke:#FEFECE;stroke-width:1.5;" width="97" x="10" y="269.5"/><text fill="#000000" font-family="sans-serif" font-size="14" lengthAdjust="spacing" textLength="27" x="15" y="285.0352">info</text><text fill="#000000" font-family="sans-serif" font-size="14" lengthAdjust="spacing" textLength="0" x="102" y="285.0352"/><line style="stroke:#A80036;stroke-width:1.0;" x1="85" x2="85" y1="269.5" y2="289.9883"/><line style="stroke:#A80036;stroke-width:1.0;" x1="10" x2="107" y1="289.9883" y2="289.9883"/><text fill="#000000" font-family="sans-serif" font-size="14" lengthAdjust="spacing" textLength="65" x="15" y="305.5234">sdfObject</text><text fill="#000000" font-family="sans-serif" font-size="14" lengthAdjust="spacing" textLength="0" x="102" y="305.5234"/><line style="stroke:#A80036;stroke-width:1.0;" x1="85" x2="85" y1="289.9883" y2="310.4766"/><rect fill="none" height="40.9766" rx="5" ry="5" style="stroke:#A80036;stroke-width:1.5;" width="97" x="10" y="269.5"/><rect fill="#FEFECE" height="81.9531" rx="5" ry="5" style="stroke:#FEFECE;stroke-width:1.5;" width="614" x="144" y="214"/><text fill="#000000" font-family="sans-serif" font-size="14" lengthAdjust="spacing" textLength="65" x="149" y="229.5352">copyright</text><text fill="#000000" font-family="sans-serif" font-size="14" lengthAdjust="spacing" textLength="529" x="224" y="229.5352">Copyright 2016-2019 Open Connectivity Foundation, Inc. All rights reserved.</text><line style="stroke:#A80036;stroke-width:1.0;" x1="219" x2="219" y1="214" y2="234.4883"/><line style="stroke:#A80036;stroke-width:1.0;" x1="144" x2="758" y1="234.4883" y2="234.4883"/><text fill="#000000" font-family="sans-serif" font-size="14" lengthAdjust="spacing" textLength="47" x="149" y="250.0234">license</text><text fill="#000000" font-family="sans-serif" font-size="14" lengthAdjust="spacing" textLength="462" x="224" y="250.0234">https://github.com/one-data-model/oneDM/blob/master/LICENSE</text><line style="stroke:#A80036;stroke-width:1.0;" x1="219" x2="219" y1="234.4883" y2="254.9766"/><line style="stroke:#A80036;stroke-width:1.0;" x1="144" x2="758" y1="254.9766" y2="254.9766"/><text fill="#000000" font-family="sans-serif" font-size="14" lengthAdjust="spacing" textLength="26" x="149" y="270.5117">title</text><text fill="#000000" font-family="sans-serif" font-size="14" lengthAdjust="spacing" textLength="138" x="224" y="270.5117">Body Soft Lean Mass</text><line style="stroke:#A80036;stroke-width:1.0;" x1="219" x2="219" y1="254.9766" y2="275.4648"/><line style="stroke:#A80036;stroke-width:1.0;" x1="144" x2="758" y1="275.4648" y2="275.4648"/><text fill="#000000" font-family="sans-serif" font-size="14" lengthAdjust="spacing" textLength="50" x="149" y="291">version</text><text fill="#000000" font-family="sans-serif" font-size="14" lengthAdjust="spacing" textLength="88" x="224" y="291">2019-03-22</text><line style="stroke:#A80036;stroke-width:1.0;" x1="219" x2="219" y1="275.4648" y2="295.9531"/><rect fill="none" height="81.9531" rx="5" ry="5" style="stroke:#A80036;stroke-width:1.5;" width="614" x="144" y="214"/><rect fill="#FEFECE" height="20.4883" rx="5" ry="5" style="stroke:#FEFECE;stroke-width:1.5;" width="94" x="404" y="314"/><text fill="#000000" font-family="sans-serif" font-size="14" lengthAdjust="spacing" textLength="62" x="409" y="329.5352">body.slm</text><text fill="#000000" font-family="sans-serif" font-size="14" lengthAdjust="spacing" textLength="0" x="493" y="329.5352"/><line style="stroke:#A80036;stroke-width:1.0;" x1="476" x2="476" y1="314" y2="334.4883"/><rect fill="none" height="20.4883" rx="5" ry="5" style="stroke:#A80036;stroke-width:1.5;" width="94" x="404" y="314"/><rect fill="#FEFECE" height="143.9063" rx="5" ry="5" style="stroke:#FEFECE;stroke-width:1.5;" width="552" x="795" y="252"/><text fill="#000000" font-family="sans-serif" font-size="14" lengthAdjust="spacing" textLength="77" x="800" y="267.5352">description</text><text fill="#000000" font-family="sans-serif" font-size="14" lengthAdjust="spacing" textLength="448" x="893" y="267.5352">This Resource describes the Properties associated with a person's</text><text fill="#000000" font-family="sans-serif" font-size="14" lengthAdjust="spacing" textLength="449" x="893" y="284.0234">body soft lean mass. The unit is a single value that is one of kg, lb</text><text fill="#000000" font-family="sans-serif" font-size="14" lengthAdjust="spacing" textLength="444" x="893" y="300.5117">or percent. If the unit Property is missing the default is kilograms</text><text fill="#000000" font-family="sans-serif" font-size="14" lengthAdjust="spacing" textLength="426" x="893" y="317">[kg]. The slm and unit Properties are read-only values that are</text><text fill="#000000" font-family="sans-serif" font-size="14" lengthAdjust="spacing" textLength="440" x="893" y="333.4883">provided by the Server. When range is omitted the default is 0 to</text><text fill="#000000" font-family="sans-serif" font-size="14" lengthAdjust="spacing" textLength="91" x="893" y="349.9766">+MAXFLOAT.</text><line style="stroke:#A80036;stroke-width:1.0;" x1="888" x2="888" y1="252" y2="354.9297"/><line style="stroke:#A80036;stroke-width:1.0;" x1="795" x2="1347" y1="354.9297" y2="354.9297"/><text fill="#000000" font-family="sans-serif" font-size="14" lengthAdjust="spacing" textLength="79" x="800" y="370.4648">sdfProperty</text><text fill="#000000" font-family="sans-serif" font-size="14" lengthAdjust="spacing" textLength="0" x="905" y="370.4648"/><line style="stroke:#A80036;stroke-width:1.0;" x1="888" x2="888" y1="354.9297" y2="375.418"/><line style="stroke:#A80036;stroke-width:1.0;" x1="795" x2="1347" y1="375.418" y2="375.418"/><text fill="#000000" font-family="sans-serif" font-size="14" lengthAdjust="spacing" textLength="83" x="800" y="390.9531">sdfRequired</text><text fill="#000000" font-family="sans-serif" font-size="14" lengthAdjust="spacing" textLength="0" x="905" y="390.9531"/><line style="stroke:#A80036;stroke-width:1.0;" x1="888" x2="888" y1="375.418" y2="395.9063"/><rect fill="none" height="143.9063" rx="5" ry="5" style="stroke:#A80036;stroke-width:1.5;" width="552" x="795" y="252"/><rect fill="#FEFECE" height="102.4414" rx="5" ry="5" style="stroke:#FEFECE;stroke-width:1.5;" width="95" x="1475" y="258"/><text fill="#000000" font-family="sans-serif" font-size="14" lengthAdjust="spacing" textLength="24" x="1480" y="273.5352">slm</text><text fill="#000000" font-family="sans-serif" font-size="14" lengthAdjust="spacing" textLength="0" x="1565" y="273.5352"/><line style="stroke:#A80036;stroke-width:1.0;" x1="1548" x2="1548" y1="258" y2="278.4883"/><line style="stroke:#A80036;stroke-width:1.0;" x1="1475" x2="1570" y1="278.4883" y2="278.4883"/><text fill="#000000" font-family="sans-serif" font-size="14" lengthAdjust="spacing" textLength="34" x="1480" y="294.0234">units</text><text fill="#000000" font-family="sans-serif" font-size="14" lengthAdjust="spacing" textLength="0" x="1565" y="294.0234"/><line style="stroke:#A80036;stroke-width:1.0;" x1="1548" x2="1548" y1="278.4883" y2="298.9766"/><line style="stroke:#A80036;stroke-width:1.0;" x1="1475" x2="1570" y1="298.9766" y2="298.9766"/><text fill="#000000" font-family="sans-serif" font-size="14" lengthAdjust="spacing" textLength="40" x="1480" y="314.5117">range</text><text fill="#000000" font-family="sans-serif" font-size="14" lengthAdjust="spacing" textLength="0" x="1565" y="314.5117"/><line style="stroke:#A80036;stroke-width:1.0;" x1="1548" x2="1548" y1="298.9766" y2="319.4648"/><line style="stroke:#A80036;stroke-width:1.0;" x1="1475" x2="1570" y1="319.4648" y2="319.4648"/><text fill="#000000" font-family="sans-serif" font-size="14" lengthAdjust="spacing" textLength="29" x="1480" y="335">step</text><text fill="#000000" font-family="sans-serif" font-size="14" lengthAdjust="spacing" textLength="0" x="1565" y="335"/><line style="stroke:#A80036;stroke-width:1.0;" x1="1548" x2="1548" y1="319.4648" y2="339.9531"/><line style="stroke:#A80036;stroke-width:1.0;" x1="1475" x2="1570" y1="339.9531" y2="339.9531"/><text fill="#000000" font-family="sans-serif" font-size="14" lengthAdjust="spacing" textLength="63" x="1480" y="355.4883">precision</text><text fill="#000000" font-family="sans-serif" font-size="14" lengthAdjust="spacing" textLength="0" x="1565" y="355.4883"/><line style="stroke:#A80036;stroke-width:1.0;" x1="1548" x2="1548" y1="339.9531" y2="360.4414"/><rect fill="none" height="102.4414" rx="5" ry="5" style="stroke:#A80036;stroke-width:1.5;" width="95" x="1475" y="258"/><rect fill="#FEFECE" height="81.9531" rx="5" ry="5" style="stroke:#FEFECE;stroke-width:1.5;" width="236" x="1865" y="10"/><text fill="#000000" font-family="sans-serif" font-size="14" lengthAdjust="spacing" textLength="77" x="1870" y="25.5352">description</text><text fill="#000000" font-family="sans-serif" font-size="14" lengthAdjust="spacing" textLength="139" x="1957" y="25.5352">Body soft lean mass.</text><line style="stroke:#A80036;stroke-width:1.0;" x1="1952" x2="1952" y1="10" y2="30.4883"/><line style="stroke:#A80036;stroke-width:1.0;" x1="1865" x2="2101" y1="30.4883" y2="30.4883"/><text fill="#000000" font-family="sans-serif" font-size="14" lengthAdjust="spacing" textLength="65" x="1870" y="46.0234">minimum</text><text fill="#000000" font-family="sans-serif" font-size="14" lengthAdjust="spacing" textLength="9" x="1957" y="46.0234">0</text><line style="stroke:#A80036;stroke-width:1.0;" x1="1952" x2="1952" y1="30.4883" y2="50.9766"/><line style="stroke:#A80036;stroke-width:1.0;" x1="1865" x2="2101" y1="50.9766" y2="50.9766"/><text fill="#000000" font-family="sans-serif" font-size="14" lengthAdjust="spacing" textLength="55" x="1870" y="66.5117">writable</text><text fill="#000000" font-family="sans-serif" font-size="14" lengthAdjust="spacing" textLength="48" x="1957" y="66.5117">☐ false</text><line style="stroke:#A80036;stroke-width:1.0;" x1="1952" x2="1952" y1="50.9766" y2="71.4648"/><line style="stroke:#A80036;stroke-width:1.0;" x1="1865" x2="2101" y1="71.4648" y2="71.4648"/><text fill="#000000" font-family="sans-serif" font-size="14" lengthAdjust="spacing" textLength="29" x="1870" y="87">type</text><text fill="#000000" font-family="sans-serif" font-size="14" lengthAdjust="spacing" textLength="54" x="1957" y="87">number</text><line style="stroke:#A80036;stroke-width:1.0;" x1="1952" x2="1952" y1="71.4648" y2="91.9531"/><rect fill="none" height="81.9531" rx="5" ry="5" style="stroke:#A80036;stroke-width:1.5;" width="236" x="1865" y="10"/><rect fill="#FEFECE" height="102.4414" rx="5" ry="5" style="stroke:#FEFECE;stroke-width:1.5;" width="270" x="1848" y="110"/><text fill="#000000" font-family="sans-serif" font-size="14" lengthAdjust="spacing" textLength="77" x="1853" y="125.5352">description</text><text fill="#000000" font-family="sans-serif" font-size="14" lengthAdjust="spacing" textLength="173" x="1940" y="125.5352">Body soft lean mass units</text><line style="stroke:#A80036;stroke-width:1.0;" x1="1935" x2="1935" y1="110" y2="130.4883"/><line style="stroke:#A80036;stroke-width:1.0;" x1="1848" x2="2118" y1="130.4883" y2="130.4883"/><text fill="#000000" font-family="sans-serif" font-size="14" lengthAdjust="spacing" textLength="39" x="1853" y="146.0234">enum</text><text fill="#000000" font-family="sans-serif" font-size="14" lengthAdjust="spacing" textLength="0" x="1952" y="146.0234"/><line style="stroke:#A80036;stroke-width:1.0;" x1="1935" x2="1935" y1="130.4883" y2="150.9766"/><line style="stroke:#A80036;stroke-width:1.0;" x1="1848" x2="2118" y1="150.9766" y2="150.9766"/><text fill="#000000" font-family="sans-serif" font-size="14" lengthAdjust="spacing" textLength="55" x="1853" y="166.5117">writable</text><text fill="#000000" font-family="sans-serif" font-size="14" lengthAdjust="spacing" textLength="48" x="1940" y="166.5117">☐ false</text><line style="stroke:#A80036;stroke-width:1.0;" x1="1935" x2="1935" y1="150.9766" y2="171.4648"/><line style="stroke:#A80036;stroke-width:1.0;" x1="1848" x2="2118" y1="171.4648" y2="171.4648"/><text fill="#000000" font-family="sans-serif" font-size="14" lengthAdjust="spacing" textLength="29" x="1853" y="187">type</text><text fill="#000000" font-family="sans-serif" font-size="14" lengthAdjust="spacing" textLength="40" x="1940" y="187">string</text><line style="stroke:#A80036;stroke-width:1.0;" x1="1935" x2="1935" y1="171.4648" y2="191.9531"/><line style="stroke:#A80036;stroke-width:1.0;" x1="1848" x2="2118" y1="191.9531" y2="191.9531"/><text fill="#000000" font-family="sans-serif" font-size="14" lengthAdjust="spacing" textLength="48" x="1853" y="207.4883">default</text><text fill="#000000" font-family="sans-serif" font-size="14" lengthAdjust="spacing" textLength="17" x="1940" y="207.4883">kg</text><line style="stroke:#A80036;stroke-width:1.0;" x1="1935" x2="1935" y1="191.9531" y2="212.4414"/><rect fill="none" height="102.4414" rx="5" ry="5" style="stroke:#A80036;stroke-width:1.5;" width="270" x="1848" y="110"/><rect fill="#FEFECE" height="61.4648" rx="5" ry="5" style="stroke:#FEFECE;stroke-width:1.5;" width="62" x="2325.5" y="109.5"/><text fill="#000000" font-family="sans-serif" font-size="14" lengthAdjust="spacing" textLength="17" x="2330.5" y="125.0352">kg</text><line style="stroke:#A80036;stroke-width:1.0;" x1="2325.5" x2="2387.5" y1="129.9883" y2="129.9883"/><text fill="#000000" font-family="sans-serif" font-size="14" lengthAdjust="spacing" textLength="13" x="2330.5" y="145.5234">lb</text><line style="stroke:#A80036;stroke-width:1.0;" x1="2325.5" x2="2387.5" y1="150.4766" y2="150.4766"/><text fill="#000000" font-family="sans-serif" font-size="14" lengthAdjust="spacing" textLength="52" x="2330.5" y="166.0117">percent</text><rect fill="none" height="61.4648" rx="5" ry="5" style="stroke:#A80036;stroke-width:1.5;" width="62" x="2325.5" y="109.5"/><rect fill="#FEFECE" height="155.9063" rx="5" ry="5" style="stroke:#FEFECE;stroke-width:1.5;" width="548" x="1709" y="230"/><text fill="#000000" font-family="sans-serif" font-size="14" lengthAdjust="spacing" textLength="29" x="1714" y="245.5352">type</text><text fill="#000000" font-family="sans-serif" font-size="14" lengthAdjust="spacing" textLength="35" x="1801" y="245.5352">array</text><line style="stroke:#A80036;stroke-width:1.0;" x1="1796" x2="1796" y1="230" y2="250.4883"/><line style="stroke:#A80036;stroke-width:1.0;" x1="1709" x2="2257" y1="250.4883" y2="250.4883"/><text fill="#000000" font-family="sans-serif" font-size="14" lengthAdjust="spacing" textLength="77" x="1714" y="266.0234">description</text><text fill="#000000" font-family="sans-serif" font-size="14" lengthAdjust="spacing" textLength="451" x="1801" y="266.0234">The valid range for the Property in the Resource as a number. The</text><text fill="#000000" font-family="sans-serif" font-size="14" lengthAdjust="spacing" textLength="439" x="1801" y="282.5117">first value in the array is the minimum value, the second value in</text><text fill="#000000" font-family="sans-serif" font-size="14" lengthAdjust="spacing" textLength="219" x="1801" y="299">the array is the maximum value.</text><line style="stroke:#A80036;stroke-width:1.0;" x1="1796" x2="1796" y1="250.4883" y2="303.9531"/><line style="stroke:#A80036;stroke-width:1.0;" x1="1709" x2="2257" y1="303.9531" y2="303.9531"/><text fill="#000000" font-family="sans-serif" font-size="14" lengthAdjust="spacing" textLength="55" x="1714" y="319.4883">writable</text><text fill="#000000" font-family="sans-serif" font-size="14" lengthAdjust="spacing" textLength="48" x="1801" y="319.4883">☐ false</text><line style="stroke:#A80036;stroke-width:1.0;" x1="1796" x2="1796" y1="303.9531" y2="324.4414"/><line style="stroke:#A80036;stroke-width:1.0;" x1="1709" x2="2257" y1="324.4414" y2="324.4414"/><text fill="#000000" font-family="sans-serif" font-size="14" lengthAdjust="spacing" textLength="63" x="1714" y="339.9766">minItems</text><text fill="#000000" font-family="sans-serif" font-size="14" lengthAdjust="spacing" textLength="9" x="1801" y="339.9766">2</text><line style="stroke:#A80036;stroke-width:1.0;" x1="1796" x2="1796" y1="324.4414" y2="344.9297"/><line style="stroke:#A80036;stroke-width:1.0;" x1="1709" x2="2257" y1="344.9297" y2="344.9297"/><text fill="#000000" font-family="sans-serif" font-size="14" lengthAdjust="spacing" textLength="67" x="1714" y="360.4648">maxItems</text><text fill="#000000" font-family="sans-serif" font-size="14" lengthAdjust="spacing" textLength="9" x="1801" y="360.4648">2</text><line style="stroke:#A80036;stroke-width:1.0;" x1="1796" x2="1796" y1="344.9297" y2="365.418"/><line style="stroke:#A80036;stroke-width:1.0;" x1="1709" x2="2257" y1="365.418" y2="365.418"/><text fill="#000000" font-family="sans-serif" font-size="14" lengthAdjust="spacing" textLength="37" x="1714" y="380.9531">items</text><text fill="#000000" font-family="sans-serif" font-size="14" lengthAdjust="spacing" textLength="0" x="1813" y="380.9531"/><line style="stroke:#A80036;stroke-width:1.0;" x1="1796" x2="1796" y1="365.418" y2="385.9063"/><rect fill="none" height="155.9063" rx="5" ry="5" style="stroke:#A80036;stroke-width:1.5;" width="548" x="1709" y="230"/><rect fill="#FEFECE" height="20.4883" rx="5" ry="5" style="stroke:#FEFECE;stroke-width:1.5;" width="103" x="2305" y="363"/><text fill="#000000" font-family="sans-serif" font-size="14" lengthAdjust="spacing" textLength="29" x="2310" y="378.5352">type</text><text fill="#000000" font-family="sans-serif" font-size="14" lengthAdjust="spacing" textLength="54" x="2349" y="378.5352">number</text><line style="stroke:#A80036;stroke-width:1.0;" x1="2344" x2="2344" y1="363" y2="383.4883"/><rect fill="none" height="20.4883" rx="5" ry="5" style="stroke:#A80036;stroke-width:1.5;" width="103" x="2305" y="363"/><rect fill="#FEFECE" height="110.9297" rx="5" ry="5" style="stroke:#FEFECE;stroke-width:1.5;" width="555" x="1705.5" y="404.5"/><text fill="#000000" font-family="sans-serif" font-size="14" lengthAdjust="spacing" textLength="77" x="1710.5" y="420.0352">description</text><text fill="#000000" font-family="sans-serif" font-size="14" lengthAdjust="spacing" textLength="456" x="1797.5" y="420.0352">Step value across the defined range an integer when the range is a</text><text fill="#000000" font-family="sans-serif" font-size="14" lengthAdjust="spacing" textLength="458" x="1797.5" y="436.5234">number.  This is the increment for valid values across the range; so</text><text fill="#000000" font-family="sans-serif" font-size="14" lengthAdjust="spacing" textLength="381" x="1797.5" y="453.0117">if range is 0.0..10.0 and step is 2.5 then valid values are</text><text fill="#000000" font-family="sans-serif" font-size="14" lengthAdjust="spacing" textLength="139" x="1797.5" y="469.5">0.0,2.5,5.0,7.5,10.0.</text><line style="stroke:#A80036;stroke-width:1.0;" x1="1792.5" x2="1792.5" y1="404.5" y2="474.4531"/><line style="stroke:#A80036;stroke-width:1.0;" x1="1705.5" x2="2260.5" y1="474.4531" y2="474.4531"/><text fill="#000000" font-family="sans-serif" font-size="14" lengthAdjust="spacing" textLength="55" x="1710.5" y="489.9883">writable</text><text fill="#000000" font-family="sans-serif" font-size="14" lengthAdjust="spacing" textLength="48" x="1797.5" y="489.9883">☐ false</text><line style="stroke:#A80036;stroke-width:1.0;" x1="1792.5" x2="1792.5" y1="474.4531" y2="494.9414"/><line style="stroke:#A80036;stroke-width:1.0;" x1="1705.5" x2="2260.5" y1="494.9414" y2="494.9414"/><text fill="#000000" font-family="sans-serif" font-size="14" lengthAdjust="spacing" textLength="29" x="1710.5" y="510.4766">type</text><text fill="#000000" font-family="sans-serif" font-size="14" lengthAdjust="spacing" textLength="54" x="1797.5" y="510.4766">number</text><line style="stroke:#A80036;stroke-width:1.0;" x1="1792.5" x2="1792.5" y1="494.9414" y2="515.4297"/><rect fill="none" height="110.9297" rx="5" ry="5" style="stroke:#A80036;stroke-width:1.5;" width="555" x="1705.5" y="404.5"/><rect fill="#FEFECE" height="110.9297" rx="5" ry="5" style="stroke:#FEFECE;stroke-width:1.5;" width="570" x="1698" y="533.5"/><text fill="#000000" font-family="sans-serif" font-size="14" lengthAdjust="spacing" textLength="29" x="1703" y="549.0352">type</text><text fill="#000000" font-family="sans-serif" font-size="14" lengthAdjust="spacing" textLength="54" x="1790" y="549.0352">number</text><line style="stroke:#A80036;stroke-width:1.0;" x1="1785" x2="1785" y1="533.5" y2="553.9883"/><line style="stroke:#A80036;stroke-width:1.0;" x1="1698" x2="2268" y1="553.9883" y2="553.9883"/><text fill="#000000" font-family="sans-serif" font-size="14" lengthAdjust="spacing" textLength="55" x="1703" y="569.5234">writable</text><text fill="#000000" font-family="sans-serif" font-size="14" lengthAdjust="spacing" textLength="48" x="1790" y="569.5234">☐ false</text><line style="stroke:#A80036;stroke-width:1.0;" x1="1785" x2="1785" y1="553.9883" y2="574.4766"/><line style="stroke:#A80036;stroke-width:1.0;" x1="1698" x2="2268" y1="574.4766" y2="574.4766"/><text fill="#000000" font-family="sans-serif" font-size="14" lengthAdjust="spacing" textLength="77" x="1703" y="590.0117">description</text><text fill="#000000" font-family="sans-serif" font-size="14" lengthAdjust="spacing" textLength="430" x="1790" y="590.0117">When exposed the value in 'precision' provides a +/- tolerance</text><text fill="#000000" font-family="sans-serif" font-size="14" lengthAdjust="spacing" textLength="473" x="1790" y="606.5">against the Properties in the Resource. Thus if a Property is UPDATED</text><text fill="#000000" font-family="sans-serif" font-size="14" lengthAdjust="spacing" textLength="465" x="1790" y="622.9883">to a value and that Property then RETRIEVED, the RETRIEVED value is</text><text fill="#000000" font-family="sans-serif" font-size="14" lengthAdjust="spacing" textLength="337" x="1790" y="639.4766">valid if in the range of the set value +/- precision</text><line style="stroke:#A80036;stroke-width:1.0;" x1="1785" x2="1785" y1="574.4766" y2="644.4297"/><rect fill="none" height="110.9297" rx="5" ry="5" style="stroke:#A80036;stroke-width:1.5;" width="570" x="1698" y="533.5"/><rect fill="#FEFECE" height="20.4883" rx="5" ry="5" style="stroke:#FEFECE;stroke-width:1.5;" width="277" x="1384" y="378"/><text fill="#000000" font-family="sans-serif" font-size="14" lengthAdjust="spacing" textLength="267" x="1389" y="393.5352">#/sdfObject/body.slm/sdfProperty/slm</text><rect fill="none" height="20.4883" rx="5" ry="5" style="stroke:#A80036;stroke-width:1.5;" width="277" x="1384" y="378"/><path d="M95,279 L108,279 C117.4068,279 126.9554,278.9088 136.5926,278.7376 " fill="none" style="stroke:#A80036;stroke-width:1.0;stroke-dasharray:3.0,3.0;"/><path d="M136.6543,281.8363 L138.9166,278.6914 L136.5309,275.6389 L144.3394,278.5834 L136.6543,281.8363 " fill="#A80036" style="stroke:#A80036;stroke-width:1.0;"/><ellipse cx="95" cy="279" fill="#A80036" rx="3" ry="3" style="stroke:#A80036;stroke-width:1.0;stroke-dasharray:3.0,3.0;"/><path d="M1559,268 L1572,268 C1664.9782,268 1618.6949,149.535 1698,101 C1745.3945,71.9944 1805.0581,58.7305 1857.4918,53.0154 " fill="none" style="stroke:#A80036;stroke-width:1.0;stroke-dasharray:3.0,3.0;"/><path d="M1857.8076,56.0879 L1859.7962,52.7785 L1857.176,49.9428 L1865.1731,52.2259 L1857.8076,56.0879 " fill="#A80036" style="stroke:#A80036;stroke-width:1.0;"/><ellipse cx="1559" cy="268" fill="#A80036" rx="3" ry="3" style="stroke:#A80036;stroke-width:1.0;stroke-dasharray:3.0,3.0;"/><path d="M2106.5,140 L2119.5,140 C2189.5586,140 2271.291,140 2318.0122,140 " fill="none" style="stroke:#A80036;stroke-width:1.0;stroke-dasharray:3.0,3.0;"/><path d="M2318.0122,143.0992 L2320.3366,140 L2318.0122,136.9008 L2325.7603,140 L2318.0122,143.0992 " fill="#A80036" style="stroke:#A80036;stroke-width:1.0;"/><ellipse cx="2106.5" cy="140" fill="#A80036" rx="3" ry="3" style="stroke:#A80036;stroke-width:1.0;stroke-dasharray:3.0,3.0;"/><path d="M1559,288 L1572,288 C1635.4249,288 1638.3832,242.6461 1698,221 C1743.3764,204.5244 1794.5534,191.9852 1840.8648,182.7405 " fill="none" style="stroke:#A80036;stroke-width:1.0;stroke-dasharray:3.0,3.0;"/><path d="M1841.447,185.6962 L1843.0816,182.3038 L1840.2826,179.7847 L1848.2541,181.2849 L1841.447,185.6962 " fill="#A80036" style="stroke:#A80036;stroke-width:1.0;"/><ellipse cx="1559" cy="288" fill="#A80036" rx="3" ry="3" style="stroke:#A80036;stroke-width:1.0;stroke-dasharray:3.0,3.0;"/><path d="M2245.5,373 L2258.5,373 C2271.235,373 2284.9056,373 2297.8621,373 " fill="none" style="stroke:#A80036;stroke-width:1.0;stroke-dasharray:3.0,3.0;"/><path d="M2297.8621,376.0134 L2300.1221,373 L2297.8621,369.9866 L2305.3956,373 L2297.8621,376.0134 " fill="#A80036" style="stroke:#A80036;stroke-width:1.0;"/><ellipse cx="2245.5" cy="373" fill="#A80036" rx="3" ry="3" style="stroke:#A80036;stroke-width:1.0;stroke-dasharray:3.0,3.0;"/><path d="M1559,308 L1572,308 C1613.9378,308 1658.2856,308 1701.7195,308 " fill="none" style="stroke:#A80036;stroke-width:1.0;stroke-dasharray:3.0,3.0;"/><path d="M1701.7195,311.0113 L1703.978,308 L1701.7195,304.9887 L1709.2478,308 L1701.7195,311.0113 " fill="#A80036" style="stroke:#A80036;stroke-width:1.0;"/><ellipse cx="1559" cy="308" fill="#A80036" rx="3" ry="3" style="stroke:#A80036;stroke-width:1.0;stroke-dasharray:3.0,3.0;"/><path d="M1559,329 L1572,329 C1615.7727,329 1624.0536,347.1798 1662,369 C1679.1095,378.8384 1680.0197,386.8613 1698,395 C1702.9979,397.2623 1708.082,399.4495 1713.2361,401.5639 " fill="none" style="stroke:#A80036;stroke-width:1.0;stroke-dasharray:3.0,3.0;"/><path d="M1712.1007,404.3919 L1715.3571,402.4154 L1714.3714,398.7358 L1720.3062,404.4023 L1712.1007,404.3919 " fill="#A80036" style="stroke:#A80036;stroke-width:1.0;"/><ellipse cx="1559" cy="329" fill="#A80036" rx="3" ry="3" style="stroke:#A80036;stroke-width:1.0;stroke-dasharray:3.0,3.0;"/><path d="M1559,350 L1572,350 C1612.8816,350 1632.8227,340.3645 1662,369 C1712.7839,418.8408 1647.5466,474.8247 1698,525 C1699.1106,526.1045 1700.2359,527.1916 1701.3753,528.2616 " fill="none" style="stroke:#A80036;stroke-width:1.0;stroke-dasharray:3.0,3.0;"/><path d="M1699.2918,530.5868 L1703.1193,529.8242 L1703.4589,525.9363 L1707.1885,533.4704 L1699.2918,530.5868 " fill="#A80036" style="stroke:#A80036;stroke-width:1.0;"/><ellipse cx="1559" cy="350" fill="#A80036" rx="3" ry="3" style="stroke:#A80036;stroke-width:1.0;stroke-dasharray:3.0,3.0;"/><path d="M1335,324 L1348,324 C1388.1686,324 1433.3611,319.9829 1467.6204,316.1064 " fill="none" style="stroke:#A80036;stroke-width:1.0;stroke-dasharray:3.0,3.0;"/><path d="M1467.9705,319.1378 L1469.894,315.8438 L1467.2703,313.0749 L1475.199,315.231 L1467.9705,319.1378 " fill="#A80036" style="stroke:#A80036;stroke-width:1.0;"/><ellipse cx="1335" cy="324" fill="#A80036" rx="3" ry="3" style="stroke:#A80036;stroke-width:1.0;stroke-dasharray:3.0,3.0;"/><path d="M1335,372 L1348,372 C1377.5181,372 1409.7351,374.3116 1438.3348,377.1775 " fill="none" style="stroke:#A80036;stroke-width:1.0;stroke-dasharray:3.0,3.0;"/><path d="M1438.0227,380.2079 L1440.6076,377.4116 L1438.6469,374.1471 L1445.9108,377.9578 L1438.0227,380.2079 " fill="#A80036" style="stroke:#A80036;stroke-width:1.0;"/><ellipse cx="1335" cy="372" fill="#A80036" rx="3" ry="3" style="stroke:#A80036;stroke-width:1.0;stroke-dasharray:3.0,3.0;"/><path d="M486.5,324 L499.5,324 C593.2697,324 695.7013,324 787.5916,324 " fill="none" style="stroke:#A80036;stroke-width:1.0;stroke-dasharray:3.0,3.0;"/><path d="M787.5916,327.0897 L789.909,324 L787.5916,320.9103 L795.316,324 L787.5916,327.0897 " fill="#A80036" style="stroke:#A80036;stroke-width:1.0;"/><ellipse cx="486.5" cy="324" fill="#A80036" rx="3" ry="3" style="stroke:#A80036;stroke-width:1.0;stroke-dasharray:3.0,3.0;"/><path d="M95,300 L108,300 C124.1536,300 127.927,303.388 144,305 C232.3902,313.8649 335.5632,319.239 396.8302,321.911 " fill="none" style="stroke:#A80036;stroke-width:1.0;stroke-dasharray:3.0,3.0;"/><path d="M396.699,324.9617 L399.1183,322.0094 L396.9615,318.8603 L404.457,322.2391 L396.699,324.9617 " fill="#A80036" style="stroke:#A80036;stroke-width:1.0;"/><ellipse cx="95" cy="300" fill="#A80036" rx="3" ry="3" style="stroke:#A80036;stroke-width:1.0;stroke-dasharray:3.0,3.0;"/><!--MD5=[308c258c4ca22eec0d4a6b2a94566478]
@startjson
{
  "info": {
    "copyright": "Copyright 2016-2019 Open Connectivity Foundation, Inc. All rights reserved.",
    "license": "https://github.com/one-data-model/oneDM/blob/master/LICENSE",
    "title": "Body Soft Lean Mass",
    "version": "2019-03-22"
  },
  "sdfObject": {
    "body.slm": {
      "description": "This Resource describes the Properties associated with a person's\\nbody soft lean mass. The unit is a single value that is one of kg, lb\\nor percent. If the unit Property is missing the default is kilograms\\n[kg]. The slm and unit Properties are read-only values that are\\nprovided by the Server. When range is omitted the default is 0 to\\n+MAXFLOAT.",
      "sdfProperty": {
        "slm": {
          "description": "Body soft lean mass.",
          "minimum": 0,
          "writable": false,
          "type": "number"
        },
        "units": {
          "description": "Body soft lean mass units",
          "enum": [
            "kg",
            "lb",
            "percent"
          ],
          "writable": false,
          "type": "string",
          "default": "kg"
        },
        "range": {
          "type": "array",
          "description": "The valid range for the Property in the Resource as a number. The\\nfirst value in the array is the minimum value, the second value in\\nthe array is the maximum value.",
          "writable": false,
          "minItems": 2,
          "maxItems": 2,
          "items": {
            "type": "number"
          }
        },
        "step": {
          "description": "Step value across the defined range an integer when the range is a\\nnumber.  This is the increment for valid values across the range; so\\nif range is 0.0..10.0 and step is 2.5 then valid values are\\n0.0,2.5,5.0,7.5,10.0.",
          "writable": false,
          "type": "number"
        },
        "precision": {
          "type": "number",
          "writable": false,
          "description": "When exposed the value in 'precision' provides a +/- tolerance\\nagainst the Properties in the Resource. Thus if a Property is UPDATED\\nto a value and that Property then RETRIEVED, the RETRIEVED value is\\nvalid if in the range of the set value +/- precision"
        }
      },
      "sdfRequired": [
        "#/sdfObject/body.slm/sdfProperty/slm"
      ]
    }
  }
}
@endjson

PlantUML version 1.2021.2(Sun Mar 07 13:10:27 EET 2021)
(GPL source distribution)
Java Runtime: OpenJDK Runtime Environment
JVM: OpenJDK 64-Bit Server VM
Default Encoding: UTF-8
Language: en
Country: FI
--></g></svg>