<?xml version="1.0" encoding="UTF-8" standalone="no"?><svg xmlns="http://www.w3.org/2000/svg" xmlns:xlink="http://www.w3.org/1999/xlink" contentScriptType="application/ecmascript" contentStyleType="text/css" height="650px" preserveAspectRatio="none" style="width:2574px;height:650px;" version="1.1" viewBox="0 0 2574 650" width="2574px" zoomAndPan="magnify"><defs/><g><rect fill="#FEFECE" height="40.9766" rx="5" ry="5" style="stroke:#FEFECE;stroke-width:1.5;" width="97" x="10" y="276.5"/><text fill="#000000" font-family="sans-serif" font-size="14" lengthAdjust="spacing" textLength="27" x="15" y="292.0352">info</text><text fill="#000000" font-family="sans-serif" font-size="14" lengthAdjust="spacing" textLength="0" x="102" y="292.0352"/><line style="stroke:#A80036;stroke-width:1.0;" x1="85" x2="85" y1="276.5" y2="296.9883"/><line style="stroke:#A80036;stroke-width:1.0;" x1="10" x2="107" y1="296.9883" y2="296.9883"/><text fill="#000000" font-family="sans-serif" font-size="14" lengthAdjust="spacing" textLength="65" x="15" y="312.5234">sdfObject</text><text fill="#000000" font-family="sans-serif" font-size="14" lengthAdjust="spacing" textLength="0" x="102" y="312.5234"/><line style="stroke:#A80036;stroke-width:1.0;" x1="85" x2="85" y1="296.9883" y2="317.4766"/><rect fill="none" height="40.9766" rx="5" ry="5" style="stroke:#A80036;stroke-width:1.5;" width="97" x="10" y="276.5"/><rect fill="#FEFECE" height="81.9531" rx="5" ry="5" style="stroke:#FEFECE;stroke-width:1.5;" width="699" x="144" y="221"/><text fill="#000000" font-family="sans-serif" font-size="14" lengthAdjust="spacing" textLength="65" x="149" y="236.5352">copyright</text><text fill="#000000" font-family="sans-serif" font-size="14" lengthAdjust="spacing" textLength="614" x="224" y="236.5352">copyright 2016-2017, 2019, 2020 Open Connectivity Foundation, Inc. All rights reserved.</text><line style="stroke:#A80036;stroke-width:1.0;" x1="219" x2="219" y1="221" y2="241.4883"/><line style="stroke:#A80036;stroke-width:1.0;" x1="144" x2="843" y1="241.4883" y2="241.4883"/><text fill="#000000" font-family="sans-serif" font-size="14" lengthAdjust="spacing" textLength="47" x="149" y="257.0234">license</text><text fill="#000000" font-family="sans-serif" font-size="14" lengthAdjust="spacing" textLength="462" x="224" y="257.0234">https://github.com/one-data-model/oneDM/blob/master/LICENSE</text><line style="stroke:#A80036;stroke-width:1.0;" x1="219" x2="219" y1="241.4883" y2="261.9766"/><line style="stroke:#A80036;stroke-width:1.0;" x1="144" x2="843" y1="261.9766" y2="261.9766"/><text fill="#000000" font-family="sans-serif" font-size="14" lengthAdjust="spacing" textLength="26" x="149" y="277.5117">title</text><text fill="#000000" font-family="sans-serif" font-size="14" lengthAdjust="spacing" textLength="82" x="224" y="277.5117">Time Period</text><line style="stroke:#A80036;stroke-width:1.0;" x1="219" x2="219" y1="261.9766" y2="282.4648"/><line style="stroke:#A80036;stroke-width:1.0;" x1="144" x2="843" y1="282.4648" y2="282.4648"/><text fill="#000000" font-family="sans-serif" font-size="14" lengthAdjust="spacing" textLength="50" x="149" y="298">version</text><text fill="#000000" font-family="sans-serif" font-size="14" lengthAdjust="spacing" textLength="88" x="224" y="298">2020-02-04</text><line style="stroke:#A80036;stroke-width:1.0;" x1="219" x2="219" y1="282.4648" y2="302.9531"/><rect fill="none" height="81.9531" rx="5" ry="5" style="stroke:#A80036;stroke-width:1.5;" width="699" x="144" y="221"/><rect fill="#FEFECE" height="20.4883" rx="5" ry="5" style="stroke:#FEFECE;stroke-width:1.5;" width="111" x="438" y="321"/><text fill="#000000" font-family="sans-serif" font-size="14" lengthAdjust="spacing" textLength="79" x="443" y="336.5352">time.period</text><text fill="#000000" font-family="sans-serif" font-size="14" lengthAdjust="spacing" textLength="0" x="544" y="336.5352"/><line style="stroke:#A80036;stroke-width:1.0;" x1="527" x2="527" y1="321" y2="341.4883"/><rect fill="none" height="20.4883" rx="5" ry="5" style="stroke:#A80036;stroke-width:1.5;" width="111" x="438" y="321"/><rect fill="#FEFECE" height="490.1602" rx="5" ry="5" style="stroke:#FEFECE;stroke-width:1.5;" width="594" x="880" y="86"/><text fill="#000000" font-family="sans-serif" font-size="14" lengthAdjust="spacing" textLength="77" x="885" y="101.5352">description</text><text fill="#000000" font-family="sans-serif" font-size="14" lengthAdjust="spacing" textLength="464" x="978" y="101.5352">This Resource describes the time period over which any additionally</text><text fill="#000000" font-family="sans-serif" font-size="14" lengthAdjust="spacing" textLength="476" x="978" y="118.0234">provided information is derived or bounded. The Property "startTime"</text><text fill="#000000" font-family="sans-serif" font-size="14" lengthAdjust="spacing" textLength="486" x="978" y="134.5117">and "stopTime" are RFC3339 encoded strings. The Property "startTime"</text><text fill="#000000" font-family="sans-serif" font-size="14" lengthAdjust="spacing" textLength="440" x="978" y="151">must be present. The interval is the interval of the time period in</text><text fill="#000000" font-family="sans-serif" font-size="14" lengthAdjust="spacing" textLength="442" x="978" y="167.4883">minutes, if present this value must be no less than 0 minute. The</text><text fill="#000000" font-family="sans-serif" font-size="14" lengthAdjust="spacing" textLength="417" x="978" y="183.9766">intervalsecond is the interval of the time period in seconds, if</text><text fill="#000000" font-family="sans-serif" font-size="14" lengthAdjust="spacing" textLength="457" x="978" y="200.4648">present this value must be numerical zero or greater. The repeat is</text><text fill="#000000" font-family="sans-serif" font-size="14" lengthAdjust="spacing" textLength="491" x="978" y="216.9531">the number of the time period's iteration, which means how many times</text><text fill="#000000" font-family="sans-serif" font-size="14" lengthAdjust="spacing" textLength="413" x="978" y="233.4414">to repeat the time period. The Property "repeat" accepts only</text><text fill="#000000" font-family="sans-serif" font-size="14" lengthAdjust="spacing" textLength="478" x="978" y="249.9297">negative one, numerical zero, and positive number. When this value is</text><text fill="#000000" font-family="sans-serif" font-size="14" lengthAdjust="spacing" textLength="439" x="978" y="266.418">numerical zero, the time period will be repeated infinitely until a</text><text fill="#000000" font-family="sans-serif" font-size="14" lengthAdjust="spacing" textLength="435" x="978" y="282.9063">client makes it stop by inputting negative one for the value. The</text><text fill="#000000" font-family="sans-serif" font-size="14" lengthAdjust="spacing" textLength="423" x="978" y="299.3945">Property "stoptime" and "interval" are mutually exclusive; both</text><text fill="#000000" font-family="sans-serif" font-size="14" lengthAdjust="spacing" textLength="451" x="978" y="315.8828">Properties cannot be present in a Resource instance. The Property</text><text fill="#000000" font-family="sans-serif" font-size="14" lengthAdjust="spacing" textLength="475" x="978" y="332.3711">"intervalsecond" cannot be presented with the Property "stopTime". In</text><text fill="#000000" font-family="sans-serif" font-size="14" lengthAdjust="spacing" textLength="407" x="978" y="348.8594">case of both the Property "interval" and "intervalsecond" are</text><text fill="#000000" font-family="sans-serif" font-size="14" lengthAdjust="spacing" textLength="443" x="978" y="365.3477">presented together, the total time interval is the sum of "interval"</text><text fill="#000000" font-family="sans-serif" font-size="14" lengthAdjust="spacing" textLength="422" x="978" y="381.8359">and "intervalsecond". The Property "triggertiming" describes a</text><text fill="#000000" font-family="sans-serif" font-size="14" lengthAdjust="spacing" textLength="450" x="978" y="398.3242">specific time to execute an action. This property must have one of</text><text fill="#000000" font-family="sans-serif" font-size="14" lengthAdjust="spacing" textLength="446" x="978" y="414.8125">the values among "startTime", "stopTime", and "totalInterval". The</text><text fill="#000000" font-family="sans-serif" font-size="14" lengthAdjust="spacing" textLength="391" x="978" y="431.3008">totalInterval means the sum of the Property "interval" and</text><text fill="#000000" font-family="sans-serif" font-size="14" lengthAdjust="spacing" textLength="447" x="978" y="447.7891">"intervalsecond". If one of the properties does not exist, the value</text><text fill="#000000" font-family="sans-serif" font-size="14" lengthAdjust="spacing" textLength="425" x="978" y="464.2773">of the unexpressed property is taken as a numerical zero. The</text><text fill="#000000" font-family="sans-serif" font-size="14" lengthAdjust="spacing" textLength="430" x="978" y="480.7656">Property "state" describes a state of time interval. This property</text><text fill="#000000" font-family="sans-serif" font-size="14" lengthAdjust="spacing" textLength="447" x="978" y="497.2539">must have one of the values among "preInterval", "inInterval", and</text><text fill="#000000" font-family="sans-serif" font-size="14" lengthAdjust="spacing" textLength="450" x="978" y="513.7422">"postInterval". The Resource defines a time period for information</text><text fill="#000000" font-family="sans-serif" font-size="14" lengthAdjust="spacing" textLength="243" x="978" y="530.2305">retrieval, action or other behaviour.</text><line style="stroke:#A80036;stroke-width:1.0;" x1="973" x2="973" y1="86" y2="535.1836"/><line style="stroke:#A80036;stroke-width:1.0;" x1="880" x2="1474" y1="535.1836" y2="535.1836"/><text fill="#000000" font-family="sans-serif" font-size="14" lengthAdjust="spacing" textLength="79" x="885" y="550.7188">sdfProperty</text><text fill="#000000" font-family="sans-serif" font-size="14" lengthAdjust="spacing" textLength="0" x="990" y="550.7188"/><line style="stroke:#A80036;stroke-width:1.0;" x1="973" x2="973" y1="535.1836" y2="555.6719"/><line style="stroke:#A80036;stroke-width:1.0;" x1="880" x2="1474" y1="555.6719" y2="555.6719"/><text fill="#000000" font-family="sans-serif" font-size="14" lengthAdjust="spacing" textLength="83" x="885" y="571.207">sdfRequired</text><text fill="#000000" font-family="sans-serif" font-size="14" lengthAdjust="spacing" textLength="0" x="990" y="571.207"/><line style="stroke:#A80036;stroke-width:1.0;" x1="973" x2="973" y1="555.6719" y2="576.1602"/><rect fill="none" height="490.1602" rx="5" ry="5" style="stroke:#A80036;stroke-width:1.5;" width="594" x="880" y="86"/><rect fill="#FEFECE" height="143.418" rx="5" ry="5" style="stroke:#FEFECE;stroke-width:1.5;" width="132" x="1612.5" y="258.5"/><text fill="#000000" font-family="sans-serif" font-size="14" lengthAdjust="spacing" textLength="51" x="1617.5" y="274.0352">interval</text><text fill="#000000" font-family="sans-serif" font-size="14" lengthAdjust="spacing" textLength="0" x="1739.5" y="274.0352"/><line style="stroke:#A80036;stroke-width:1.0;" x1="1722.5" x2="1722.5" y1="258.5" y2="278.9883"/><line style="stroke:#A80036;stroke-width:1.0;" x1="1612.5" x2="1744.5" y1="278.9883" y2="278.9883"/><text fill="#000000" font-family="sans-serif" font-size="14" lengthAdjust="spacing" textLength="100" x="1617.5" y="294.5234">intervalsecond</text><text fill="#000000" font-family="sans-serif" font-size="14" lengthAdjust="spacing" textLength="0" x="1739.5" y="294.5234"/><line style="stroke:#A80036;stroke-width:1.0;" x1="1722.5" x2="1722.5" y1="278.9883" y2="299.4766"/><line style="stroke:#A80036;stroke-width:1.0;" x1="1612.5" x2="1744.5" y1="299.4766" y2="299.4766"/><text fill="#000000" font-family="sans-serif" font-size="14" lengthAdjust="spacing" textLength="64" x="1617.5" y="315.0117">stopTime</text><text fill="#000000" font-family="sans-serif" font-size="14" lengthAdjust="spacing" textLength="0" x="1739.5" y="315.0117"/><line style="stroke:#A80036;stroke-width:1.0;" x1="1722.5" x2="1722.5" y1="299.4766" y2="319.9648"/><line style="stroke:#A80036;stroke-width:1.0;" x1="1612.5" x2="1744.5" y1="319.9648" y2="319.9648"/><text fill="#000000" font-family="sans-serif" font-size="14" lengthAdjust="spacing" textLength="65" x="1617.5" y="335.5">startTime</text><text fill="#000000" font-family="sans-serif" font-size="14" lengthAdjust="spacing" textLength="0" x="1739.5" y="335.5"/><line style="stroke:#A80036;stroke-width:1.0;" x1="1722.5" x2="1722.5" y1="319.9648" y2="340.4531"/><line style="stroke:#A80036;stroke-width:1.0;" x1="1612.5" x2="1744.5" y1="340.4531" y2="340.4531"/><text fill="#000000" font-family="sans-serif" font-size="14" lengthAdjust="spacing" textLength="44" x="1617.5" y="355.9883">repeat</text><text fill="#000000" font-family="sans-serif" font-size="14" lengthAdjust="spacing" textLength="0" x="1739.5" y="355.9883"/><line style="stroke:#A80036;stroke-width:1.0;" x1="1722.5" x2="1722.5" y1="340.4531" y2="360.9414"/><line style="stroke:#A80036;stroke-width:1.0;" x1="1612.5" x2="1744.5" y1="360.9414" y2="360.9414"/><text fill="#000000" font-family="sans-serif" font-size="14" lengthAdjust="spacing" textLength="91" x="1617.5" y="376.4766">triggertiming</text><text fill="#000000" font-family="sans-serif" font-size="14" lengthAdjust="spacing" textLength="0" x="1739.5" y="376.4766"/><line style="stroke:#A80036;stroke-width:1.0;" x1="1722.5" x2="1722.5" y1="360.9414" y2="381.4297"/><line style="stroke:#A80036;stroke-width:1.0;" x1="1612.5" x2="1744.5" y1="381.4297" y2="381.4297"/><text fill="#000000" font-family="sans-serif" font-size="14" lengthAdjust="spacing" textLength="33" x="1617.5" y="396.9648">state</text><text fill="#000000" font-family="sans-serif" font-size="14" lengthAdjust="spacing" textLength="0" x="1739.5" y="396.9648"/><line style="stroke:#A80036;stroke-width:1.0;" x1="1722.5" x2="1722.5" y1="381.4297" y2="401.918"/><rect fill="none" height="143.418" rx="5" ry="5" style="stroke:#A80036;stroke-width:1.5;" width="132" x="1612.5" y="258.5"/><rect fill="#FEFECE" height="77.9531" rx="5" ry="5" style="stroke:#FEFECE;stroke-width:1.5;" width="528" x="1894" y="10"/><text fill="#000000" font-family="sans-serif" font-size="14" lengthAdjust="spacing" textLength="77" x="1899" y="25.5352">description</text><text fill="#000000" font-family="sans-serif" font-size="14" lengthAdjust="spacing" textLength="431" x="1986" y="25.5352">The time interval in minutes after the "startTime", if present the</text><text fill="#000000" font-family="sans-serif" font-size="14" lengthAdjust="spacing" textLength="268" x="1986" y="42.0234">Property "stopTime" cannot be present.</text><line style="stroke:#A80036;stroke-width:1.0;" x1="1981" x2="1981" y1="10" y2="46.9766"/><line style="stroke:#A80036;stroke-width:1.0;" x1="1894" x2="2422" y1="46.9766" y2="46.9766"/><text fill="#000000" font-family="sans-serif" font-size="14" lengthAdjust="spacing" textLength="29" x="1899" y="62.5117">type</text><text fill="#000000" font-family="sans-serif" font-size="14" lengthAdjust="spacing" textLength="49" x="1986" y="62.5117">integer</text><line style="stroke:#A80036;stroke-width:1.0;" x1="1981" x2="1981" y1="46.9766" y2="67.4648"/><line style="stroke:#A80036;stroke-width:1.0;" x1="1894" x2="2422" y1="67.4648" y2="67.4648"/><text fill="#000000" font-family="sans-serif" font-size="14" lengthAdjust="spacing" textLength="65" x="1899" y="83">minimum</text><text fill="#000000" font-family="sans-serif" font-size="14" lengthAdjust="spacing" textLength="9" x="1986" y="83">0</text><line style="stroke:#A80036;stroke-width:1.0;" x1="1981" x2="1981" y1="67.4648" y2="87.9531"/><rect fill="none" height="77.9531" rx="5" ry="5" style="stroke:#A80036;stroke-width:1.5;" width="528" x="1894" y="10"/><rect fill="#FEFECE" height="77.9531" rx="5" ry="5" style="stroke:#FEFECE;stroke-width:1.5;" width="529" x="1893.5" y="106"/><text fill="#000000" font-family="sans-serif" font-size="14" lengthAdjust="spacing" textLength="77" x="1898.5" y="121.5352">description</text><text fill="#000000" font-family="sans-serif" font-size="14" lengthAdjust="spacing" textLength="432" x="1985.5" y="121.5352">The time interval in seconds after the "startTime", if present the</text><text fill="#000000" font-family="sans-serif" font-size="14" lengthAdjust="spacing" textLength="268" x="1985.5" y="138.0234">Property "stopTime" cannot be present.</text><line style="stroke:#A80036;stroke-width:1.0;" x1="1980.5" x2="1980.5" y1="106" y2="142.9766"/><line style="stroke:#A80036;stroke-width:1.0;" x1="1893.5" x2="2422.5" y1="142.9766" y2="142.9766"/><text fill="#000000" font-family="sans-serif" font-size="14" lengthAdjust="spacing" textLength="29" x="1898.5" y="158.5117">type</text><text fill="#000000" font-family="sans-serif" font-size="14" lengthAdjust="spacing" textLength="49" x="1985.5" y="158.5117">integer</text><line style="stroke:#A80036;stroke-width:1.0;" x1="1980.5" x2="1980.5" y1="142.9766" y2="163.4648"/><line style="stroke:#A80036;stroke-width:1.0;" x1="1893.5" x2="2422.5" y1="163.4648" y2="163.4648"/><text fill="#000000" font-family="sans-serif" font-size="14" lengthAdjust="spacing" textLength="65" x="1898.5" y="179">minimum</text><text fill="#000000" font-family="sans-serif" font-size="14" lengthAdjust="spacing" textLength="9" x="1985.5" y="179">0</text><line style="stroke:#A80036;stroke-width:1.0;" x1="1980.5" x2="1980.5" y1="163.4648" y2="183.9531"/><rect fill="none" height="77.9531" rx="5" ry="5" style="stroke:#A80036;stroke-width:1.5;" width="529" x="1893.5" y="106"/><rect fill="#FEFECE" height="77.9531" rx="5" ry="5" style="stroke:#FEFECE;stroke-width:1.5;" width="550" x="1883" y="202"/><text fill="#000000" font-family="sans-serif" font-size="14" lengthAdjust="spacing" textLength="77" x="1888" y="217.5352">description</text><text fill="#000000" font-family="sans-serif" font-size="14" lengthAdjust="spacing" textLength="453" x="1975" y="217.5352">The stop time for the time period, if present the Property "interval"</text><text fill="#000000" font-family="sans-serif" font-size="14" lengthAdjust="spacing" textLength="261" x="1975" y="234.0234">or "intervalsecond" cannot be present.</text><line style="stroke:#A80036;stroke-width:1.0;" x1="1970" x2="1970" y1="202" y2="238.9766"/><line style="stroke:#A80036;stroke-width:1.0;" x1="1883" x2="2433" y1="238.9766" y2="238.9766"/><text fill="#000000" font-family="sans-serif" font-size="14" lengthAdjust="spacing" textLength="29" x="1888" y="254.5117">type</text><text fill="#000000" font-family="sans-serif" font-size="14" lengthAdjust="spacing" textLength="40" x="1975" y="254.5117">string</text><line style="stroke:#A80036;stroke-width:1.0;" x1="1970" x2="1970" y1="238.9766" y2="259.4648"/><line style="stroke:#A80036;stroke-width:1.0;" x1="1883" x2="2433" y1="259.4648" y2="259.4648"/><text fill="#000000" font-family="sans-serif" font-size="14" lengthAdjust="spacing" textLength="46" x="1888" y="275">format</text><text fill="#000000" font-family="sans-serif" font-size="14" lengthAdjust="spacing" textLength="68" x="1975" y="275">date-time</text><line style="stroke:#A80036;stroke-width:1.0;" x1="1970" x2="1970" y1="259.4648" y2="279.9531"/><rect fill="none" height="77.9531" rx="5" ry="5" style="stroke:#A80036;stroke-width:1.5;" width="550" x="1883" y="202"/><rect fill="#FEFECE" height="61.4648" rx="5" ry="5" style="stroke:#FEFECE;stroke-width:1.5;" width="329" x="1993.5" y="298.5"/><text fill="#000000" font-family="sans-serif" font-size="14" lengthAdjust="spacing" textLength="77" x="1998.5" y="314.0352">description</text><text fill="#000000" font-family="sans-serif" font-size="14" lengthAdjust="spacing" textLength="232" x="2085.5" y="314.0352">The start time for the time period.</text><line style="stroke:#A80036;stroke-width:1.0;" x1="2080.5" x2="2080.5" y1="298.5" y2="318.9883"/><line style="stroke:#A80036;stroke-width:1.0;" x1="1993.5" x2="2322.5" y1="318.9883" y2="318.9883"/><text fill="#000000" font-family="sans-serif" font-size="14" lengthAdjust="spacing" textLength="29" x="1998.5" y="334.5234">type</text><text fill="#000000" font-family="sans-serif" font-size="14" lengthAdjust="spacing" textLength="40" x="2085.5" y="334.5234">string</text><line style="stroke:#A80036;stroke-width:1.0;" x1="2080.5" x2="2080.5" y1="318.9883" y2="339.4766"/><line style="stroke:#A80036;stroke-width:1.0;" x1="1993.5" x2="2322.5" y1="339.4766" y2="339.4766"/><text fill="#000000" font-family="sans-serif" font-size="14" lengthAdjust="spacing" textLength="46" x="1998.5" y="355.0117">format</text><text fill="#000000" font-family="sans-serif" font-size="14" lengthAdjust="spacing" textLength="68" x="2085.5" y="355.0117">date-time</text><line style="stroke:#A80036;stroke-width:1.0;" x1="2080.5" x2="2080.5" y1="339.4766" y2="359.9648"/><rect fill="none" height="61.4648" rx="5" ry="5" style="stroke:#A80036;stroke-width:1.5;" width="329" x="1993.5" y="298.5"/><rect fill="#FEFECE" height="61.4648" rx="5" ry="5" style="stroke:#FEFECE;stroke-width:1.5;" width="415" x="1950.5" y="377.5"/><text fill="#000000" font-family="sans-serif" font-size="14" lengthAdjust="spacing" textLength="77" x="1955.5" y="393.0352">description</text><text fill="#000000" font-family="sans-serif" font-size="14" lengthAdjust="spacing" textLength="318" x="2042.5" y="393.0352">The number of times to repeat the time period</text><line style="stroke:#A80036;stroke-width:1.0;" x1="2037.5" x2="2037.5" y1="377.5" y2="397.9883"/><line style="stroke:#A80036;stroke-width:1.0;" x1="1950.5" x2="2365.5" y1="397.9883" y2="397.9883"/><text fill="#000000" font-family="sans-serif" font-size="14" lengthAdjust="spacing" textLength="29" x="1955.5" y="413.5234">type</text><text fill="#000000" font-family="sans-serif" font-size="14" lengthAdjust="spacing" textLength="49" x="2042.5" y="413.5234">integer</text><line style="stroke:#A80036;stroke-width:1.0;" x1="2037.5" x2="2037.5" y1="397.9883" y2="418.4766"/><line style="stroke:#A80036;stroke-width:1.0;" x1="1950.5" x2="2365.5" y1="418.4766" y2="418.4766"/><text fill="#000000" font-family="sans-serif" font-size="14" lengthAdjust="spacing" textLength="65" x="1955.5" y="434.0117">minimum</text><text fill="#000000" font-family="sans-serif" font-size="14" lengthAdjust="spacing" textLength="17" x="2042.5" y="434.0117">-1</text><line style="stroke:#A80036;stroke-width:1.0;" x1="2037.5" x2="2037.5" y1="418.4766" y2="438.9648"/><rect fill="none" height="61.4648" rx="5" ry="5" style="stroke:#A80036;stroke-width:1.5;" width="415" x="1950.5" y="377.5"/><rect fill="#FEFECE" height="61.4648" rx="5" ry="5" style="stroke:#FEFECE;stroke-width:1.5;" width="434" x="1941" y="456.5"/><text fill="#000000" font-family="sans-serif" font-size="14" lengthAdjust="spacing" textLength="77" x="1946" y="472.0352">description</text><text fill="#000000" font-family="sans-serif" font-size="14" lengthAdjust="spacing" textLength="337" x="2033" y="472.0352">The desired timing to trigger an action execution</text><line style="stroke:#A80036;stroke-width:1.0;" x1="2028" x2="2028" y1="456.5" y2="476.9883"/><line style="stroke:#A80036;stroke-width:1.0;" x1="1941" x2="2375" y1="476.9883" y2="476.9883"/><text fill="#000000" font-family="sans-serif" font-size="14" lengthAdjust="spacing" textLength="29" x="1946" y="492.5234">type</text><text fill="#000000" font-family="sans-serif" font-size="14" lengthAdjust="spacing" textLength="40" x="2033" y="492.5234">string</text><line style="stroke:#A80036;stroke-width:1.0;" x1="2028" x2="2028" y1="476.9883" y2="497.4766"/><line style="stroke:#A80036;stroke-width:1.0;" x1="1941" x2="2375" y1="497.4766" y2="497.4766"/><text fill="#000000" font-family="sans-serif" font-size="14" lengthAdjust="spacing" textLength="39" x="1946" y="513.0117">enum</text><text fill="#000000" font-family="sans-serif" font-size="14" lengthAdjust="spacing" textLength="0" x="2045" y="513.0117"/><line style="stroke:#A80036;stroke-width:1.0;" x1="2028" x2="2028" y1="497.4766" y2="517.9648"/><rect fill="none" height="61.4648" rx="5" ry="5" style="stroke:#A80036;stroke-width:1.5;" width="434" x="1941" y="456.5"/><rect fill="#FEFECE" height="61.4648" rx="5" ry="5" style="stroke:#FEFECE;stroke-width:1.5;" width="92" x="2470" y="476.5"/><text fill="#000000" font-family="sans-serif" font-size="14" lengthAdjust="spacing" textLength="65" x="2475" y="492.0352">startTime</text><line style="stroke:#A80036;stroke-width:1.0;" x1="2470" x2="2562" y1="496.9883" y2="496.9883"/><text fill="#000000" font-family="sans-serif" font-size="14" lengthAdjust="spacing" textLength="64" x="2475" y="512.5234">stopTime</text><line style="stroke:#A80036;stroke-width:1.0;" x1="2470" x2="2562" y1="517.4766" y2="517.4766"/><text fill="#000000" font-family="sans-serif" font-size="14" lengthAdjust="spacing" textLength="82" x="2475" y="533.0117">totalInterval</text><rect fill="none" height="61.4648" rx="5" ry="5" style="stroke:#A80036;stroke-width:1.5;" width="92" x="2470" y="476.5"/><rect fill="#FEFECE" height="81.9531" rx="5" ry="5" style="stroke:#FEFECE;stroke-width:1.5;" width="347" x="1984.5" y="536"/><text fill="#000000" font-family="sans-serif" font-size="14" lengthAdjust="spacing" textLength="77" x="1989.5" y="551.5352">description</text><text fill="#000000" font-family="sans-serif" font-size="14" lengthAdjust="spacing" textLength="250" x="2076.5" y="551.5352">The current state of the time interval</text><line style="stroke:#A80036;stroke-width:1.0;" x1="2071.5" x2="2071.5" y1="536" y2="556.4883"/><line style="stroke:#A80036;stroke-width:1.0;" x1="1984.5" x2="2331.5" y1="556.4883" y2="556.4883"/><text fill="#000000" font-family="sans-serif" font-size="14" lengthAdjust="spacing" textLength="29" x="1989.5" y="572.0234">type</text><text fill="#000000" font-family="sans-serif" font-size="14" lengthAdjust="spacing" textLength="40" x="2076.5" y="572.0234">string</text><line style="stroke:#A80036;stroke-width:1.0;" x1="2071.5" x2="2071.5" y1="556.4883" y2="576.9766"/><line style="stroke:#A80036;stroke-width:1.0;" x1="1984.5" x2="2331.5" y1="576.9766" y2="576.9766"/><text fill="#000000" font-family="sans-serif" font-size="14" lengthAdjust="spacing" textLength="55" x="1989.5" y="592.5117">writable</text><text fill="#000000" font-family="sans-serif" font-size="14" lengthAdjust="spacing" textLength="48" x="2076.5" y="592.5117">☐ false</text><line style="stroke:#A80036;stroke-width:1.0;" x1="2071.5" x2="2071.5" y1="576.9766" y2="597.4648"/><line style="stroke:#A80036;stroke-width:1.0;" x1="1984.5" x2="2331.5" y1="597.4648" y2="597.4648"/><text fill="#000000" font-family="sans-serif" font-size="14" lengthAdjust="spacing" textLength="39" x="1989.5" y="613">enum</text><text fill="#000000" font-family="sans-serif" font-size="14" lengthAdjust="spacing" textLength="0" x="2088.5" y="613"/><line style="stroke:#A80036;stroke-width:1.0;" x1="2071.5" x2="2071.5" y1="597.4648" y2="617.9531"/><rect fill="none" height="81.9531" rx="5" ry="5" style="stroke:#A80036;stroke-width:1.5;" width="347" x="1984.5" y="536"/><rect fill="#FEFECE" height="61.4648" rx="5" ry="5" style="stroke:#FEFECE;stroke-width:1.5;" width="91" x="2470.5" y="577.5"/><text fill="#000000" font-family="sans-serif" font-size="14" lengthAdjust="spacing" textLength="74" x="2475.5" y="593.0352">preInterval</text><line style="stroke:#A80036;stroke-width:1.0;" x1="2470.5" x2="2561.5" y1="597.9883" y2="597.9883"/><text fill="#000000" font-family="sans-serif" font-size="14" lengthAdjust="spacing" textLength="64" x="2475.5" y="613.5234">inInterval</text><line style="stroke:#A80036;stroke-width:1.0;" x1="2470.5" x2="2561.5" y1="618.4766" y2="618.4766"/><text fill="#000000" font-family="sans-serif" font-size="14" lengthAdjust="spacing" textLength="81" x="2475.5" y="634.0117">postInterval</text><rect fill="none" height="61.4648" rx="5" ry="5" style="stroke:#A80036;stroke-width:1.5;" width="91" x="2470.5" y="577.5"/><rect fill="#FEFECE" height="20.4883" rx="5" ry="5" style="stroke:#FEFECE;stroke-width:1.5;" width="335" x="1511" y="484"/><text fill="#000000" font-family="sans-serif" font-size="14" lengthAdjust="spacing" textLength="325" x="1516" y="499.5352">#/sdfObject/time.period/sdfProperty/startTime</text><rect fill="none" height="20.4883" rx="5" ry="5" style="stroke:#A80036;stroke-width:1.5;" width="335" x="1511" y="484"/><path d="M95,286 L108,286 C117.4458,286 127.0194,285.9271 136.6781,285.7895 " fill="none" style="stroke:#A80036;stroke-width:1.0;stroke-dasharray:3.0,3.0;"/><path d="M136.7278,288.8949 L139.0071,285.7522 L136.6284,282.6841 L144.4416,285.6653 L136.7278,288.8949 " fill="#A80036" style="stroke:#A80036;stroke-width:1.0;"/><ellipse cx="95" cy="286" fill="#A80036" rx="3" ry="3" style="stroke:#A80036;stroke-width:1.0;stroke-dasharray:3.0,3.0;"/><path d="M1733,268 L1746,268 C1843.383,268 1799.1861,146.5852 1883,97 C1886.1521,95.1352 1889.3579,93.3386 1892.6114,91.608 " fill="none" style="stroke:#A80036;stroke-width:1.0;stroke-dasharray:3.0,3.0;"/><path d="M1893.9956,94.3053 L1894.6343,90.5699 L1891.2272,88.9107 L1899.3546,88.1475 L1893.9956,94.3053 " fill="#A80036" style="stroke:#A80036;stroke-width:1.0;"/><ellipse cx="1733" cy="268" fill="#A80036" rx="3" ry="3" style="stroke:#A80036;stroke-width:1.0;stroke-dasharray:3.0,3.0;"/><path d="M1733,288 L1746,288 C1820.0957,288 1814.46,221.1503 1883,193 C1888.4279,190.7707 1893.9577,188.6449 1899.5674,186.6177 " fill="none" style="stroke:#A80036;stroke-width:1.0;stroke-dasharray:3.0,3.0;"/><path d="M1900.5735,189.4765 L1901.7115,185.8631 L1898.5613,183.759 L1906.7143,184.1025 L1900.5735,189.4765 " fill="#A80036" style="stroke:#A80036;stroke-width:1.0;"/><ellipse cx="1733" cy="288" fill="#A80036" rx="3" ry="3" style="stroke:#A80036;stroke-width:1.0;stroke-dasharray:3.0,3.0;"/><path d="M1733,309 L1746,309 C1766.2942,309 1847.729,295.9594 1932.863,281.2996 " fill="none" style="stroke:#A80036;stroke-width:1.0;stroke-dasharray:3.0,3.0;"/><path d="M1933.3772,284.2804 L1935.0985,280.9139 L1932.3487,278.3189 L1940.3149,280.014 L1933.3772,284.2804 " fill="#A80036" style="stroke:#A80036;stroke-width:1.0;"/><ellipse cx="1733" cy="309" fill="#A80036" rx="3" ry="3" style="stroke:#A80036;stroke-width:1.0;stroke-dasharray:3.0,3.0;"/><path d="M1733,329 L1746,329 C1824.9112,329 1912.3344,329 1986.2336,329 " fill="none" style="stroke:#A80036;stroke-width:1.0;stroke-dasharray:3.0,3.0;"/><path d="M1986.2336,332.026 L1988.5031,329 L1986.2336,325.974 L1993.7987,329 L1986.2336,332.026 " fill="#A80036" style="stroke:#A80036;stroke-width:1.0;"/><ellipse cx="1733" cy="329" fill="#A80036" rx="3" ry="3" style="stroke:#A80036;stroke-width:1.0;stroke-dasharray:3.0,3.0;"/><path d="M1733,350 L1746,350 C1747.3981,350 1844.0206,363.6126 1943.2748,377.6483 " fill="none" style="stroke:#A80036;stroke-width:1.0;stroke-dasharray:3.0,3.0;"/><path d="M1942.8531,380.6303 L1945.5113,377.9646 L1943.6966,374.6663 L1950.7298,378.7026 L1942.8531,380.6303 " fill="#A80036" style="stroke:#A80036;stroke-width:1.0;"/><ellipse cx="1733" cy="350" fill="#A80036" rx="3" ry="3" style="stroke:#A80036;stroke-width:1.0;stroke-dasharray:3.0,3.0;"/><path d="M2363.5,507 L2376.5,507 C2405.053,507 2436.9052,507 2462.9075,507 " fill="none" style="stroke:#A80036;stroke-width:1.0;stroke-dasharray:3.0,3.0;"/><path d="M2462.9075,510.0082 L2465.1636,507 L2462.9075,503.9918 L2470.4279,507 L2462.9075,510.0082 " fill="#A80036" style="stroke:#A80036;stroke-width:1.0;"/><ellipse cx="2363.5" cy="507" fill="#A80036" rx="3" ry="3" style="stroke:#A80036;stroke-width:1.0;stroke-dasharray:3.0,3.0;"/><path d="M1733,371 L1746,371 C1815.8471,371 1816.8448,425.5922 1883,448 C1899.3556,453.5399 1916.5179,458.293 1933.9396,462.3711 " fill="none" style="stroke:#A80036;stroke-width:1.0;stroke-dasharray:3.0,3.0;"/><path d="M1933.2569,465.3634 L1936.1838,462.8831 L1934.6223,459.3788 L1941.4203,464.0778 L1933.2569,465.3634 " fill="#A80036" style="stroke:#A80036;stroke-width:1.0;"/><ellipse cx="1733" cy="371" fill="#A80036" rx="3" ry="3" style="stroke:#A80036;stroke-width:1.0;stroke-dasharray:3.0,3.0;"/><path d="M2320.5,608 L2333.5,608 C2377.306,608 2427.0428,608 2463.4391,608 " fill="none" style="stroke:#A80036;stroke-width:1.0;stroke-dasharray:3.0,3.0;"/><path d="M2463.4391,611.0229 L2465.7062,608 L2463.4391,604.9771 L2470.9962,608 L2463.4391,611.0229 " fill="#A80036" style="stroke:#A80036;stroke-width:1.0;"/><ellipse cx="2320.5" cy="608" fill="#A80036" rx="3" ry="3" style="stroke:#A80036;stroke-width:1.0;stroke-dasharray:3.0,3.0;"/><path d="M1733,391 L1746,391 C1804.3848,391 1807.5763,431.9354 1847,475 C1865.9804,495.7333 1859.3761,511.7673 1883,527 C1911.1971,545.1816 1944.2297,557.1849 1977.4174,565.0222 " fill="none" style="stroke:#A80036;stroke-width:1.0;stroke-dasharray:3.0,3.0;"/><path d="M1976.7343,568.0345 L1979.6765,565.5345 L1978.1004,562.01 L1984.948,566.7299 L1976.7343,568.0345 " fill="#A80036" style="stroke:#A80036;stroke-width:1.0;"/><ellipse cx="1733" cy="391" fill="#A80036" rx="3" ry="3" style="stroke:#A80036;stroke-width:1.0;stroke-dasharray:3.0,3.0;"/><path d="M1462,330 L1475,330 C1518.1177,330 1566.3869,330 1605.036,330 " fill="none" style="stroke:#A80036;stroke-width:1.0;stroke-dasharray:3.0,3.0;"/><path d="M1605.036,333.0389 L1607.3151,330 L1605.036,326.9611 L1612.6331,330 L1605.036,333.0389 " fill="#A80036" style="stroke:#A80036;stroke-width:1.0;"/><ellipse cx="1462" cy="330" fill="#A80036" rx="3" ry="3" style="stroke:#A80036;stroke-width:1.0;stroke-dasharray:3.0,3.0;"/><path d="M1462,494 L1475,494 C1484.316,494 1493.8725,494 1503.5205,494 " fill="none" style="stroke:#A80036;stroke-width:1.0;stroke-dasharray:3.0,3.0;"/><path d="M1503.5205,497.1017 L1505.8468,494 L1503.5205,490.8983 L1511.2747,494 L1503.5205,497.1017 " fill="#A80036" style="stroke:#A80036;stroke-width:1.0;"/><ellipse cx="1462" cy="494" fill="#A80036" rx="3" ry="3" style="stroke:#A80036;stroke-width:1.0;stroke-dasharray:3.0,3.0;"/><path d="M538,331 L551,331 C655.7507,331 770.3689,331 872.5461,331 " fill="none" style="stroke:#A80036;stroke-width:1.0;stroke-dasharray:3.0,3.0;"/><path d="M872.5461,334.0589 L874.8402,331 L872.5461,327.9411 L880.1933,331 L872.5461,334.0589 " fill="#A80036" style="stroke:#A80036;stroke-width:1.0;"/><ellipse cx="538" cy="331" fill="#A80036" rx="3" ry="3" style="stroke:#A80036;stroke-width:1.0;stroke-dasharray:3.0,3.0;"/><path d="M95,307 L108,307 C124.1536,307 127.9211,310.4485 144,312 C244.0319,321.6525 360.7025,326.768 430.6165,329.1768 " fill="none" style="stroke:#A80036;stroke-width:1.0;stroke-dasharray:3.0,3.0;"/><path d="M430.5099,332.3254 L432.9779,329.2568 L430.7231,326.0283 L438.4879,329.4434 L430.5099,332.3254 " fill="#A80036" style="stroke:#A80036;stroke-width:1.0;"/><ellipse cx="95" cy="307" fill="#A80036" rx="3" ry="3" style="stroke:#A80036;stroke-width:1.0;stroke-dasharray:3.0,3.0;"/><!--MD5=[0fe8cd89f610643a0770c9b2049ddbea]
@startjson
{
  "info": {
    "copyright": "copyright 2016-2017, 2019, 2020 Open Connectivity Foundation, Inc. All rights reserved.",
    "license": "https://github.com/one-data-model/oneDM/blob/master/LICENSE",
    "title": "Time Period",
    "version": "2020-02-04"
  },
  "sdfObject": {
    "time.period": {
      "description": "This Resource describes the time period over which any additionally\\nprovided information is derived or bounded. The Property \"startTime\"\\nand \"stopTime\" are RFC3339 encoded strings. The Property \"startTime\"\\nmust be present. The interval is the interval of the time period in\\nminutes, if present this value must be no less than 0 minute. The\\nintervalsecond is the interval of the time period in seconds, if\\npresent this value must be numerical zero or greater. The repeat is\\nthe number of the time period's iteration, which means how many times\\nto repeat the time period. The Property \"repeat\" accepts only\\nnegative one, numerical zero, and positive number. When this value is\\nnumerical zero, the time period will be repeated infinitely until a\\nclient makes it stop by inputting negative one for the value. The\\nProperty \"stoptime\" and \"interval\" are mutually exclusive; both\\nProperties cannot be present in a Resource instance. The Property\\n\"intervalsecond\" cannot be presented with the Property \"stopTime\". In\\ncase of both the Property \"interval\" and \"intervalsecond\" are\\npresented together, the total time interval is the sum of \"interval\"\\nand \"intervalsecond\". The Property \"triggertiming\" describes a\\nspecific time to execute an action. This property must have one of\\nthe values among \"startTime\", \"stopTime\", and \"totalInterval\". The\\ntotalInterval means the sum of the Property \"interval\" and\\n\"intervalsecond\". If one of the properties does not exist, the value\\nof the unexpressed property is taken as a numerical zero. The\\nProperty \"state\" describes a state of time interval. This property\\nmust have one of the values among \"preInterval\", \"inInterval\", and\\n\"postInterval\". The Resource defines a time period for information\\nretrieval, action or other behaviour.",
      "sdfProperty": {
        "interval": {
          "description": "The time interval in minutes after the \"startTime\", if present the\\nProperty \"stopTime\" cannot be present.",
          "type": "integer",
          "minimum": 0
        },
        "intervalsecond": {
          "description": "The time interval in seconds after the \"startTime\", if present the\\nProperty \"stopTime\" cannot be present.",
          "type": "integer",
          "minimum": 0
        },
        "stopTime": {
          "description": "The stop time for the time period, if present the Property \"interval\"\\nor \"intervalsecond\" cannot be present.",
          "type": "string",
          "format": "date-time"
        },
        "startTime": {
          "description": "The start time for the time period.",
          "type": "string",
          "format": "date-time"
        },
        "repeat": {
          "description": "The number of times to repeat the time period",
          "type": "integer",
          "minimum": -1
        },
        "triggertiming": {
          "description": "The desired timing to trigger an action execution",
          "type": "string",
          "enum": [
            "startTime",
            "stopTime",
            "totalInterval"
          ]
        },
        "state": {
          "description": "The current state of the time interval",
          "type": "string",
          "writable": false,
          "enum": [
            "preInterval",
            "inInterval",
            "postInterval"
          ]
        }
      },
      "sdfRequired": [
        "#/sdfObject/time.period/sdfProperty/startTime"
      ]
    }
  }
}
@endjson

PlantUML version 1.2021.2(Sun Mar 07 13:10:27 EET 2021)
(GPL source distribution)
Java Runtime: OpenJDK Runtime Environment
JVM: OpenJDK 64-Bit Server VM
Default Encoding: UTF-8
Language: en
Country: FI
--></g></svg>