<?xml version="1.0" encoding="UTF-8" standalone="no"?><svg xmlns="http://www.w3.org/2000/svg" xmlns:xlink="http://www.w3.org/1999/xlink" contentScriptType="application/ecmascript" contentStyleType="text/css" height="193px" preserveAspectRatio="none" style="width:2580px;height:193px;" version="1.1" viewBox="0 0 2580 193" width="2580px" zoomAndPan="magnify"><defs/><g><rect fill="#FEFECE" height="40.9766" rx="5" ry="5" style="stroke:#FEFECE;stroke-width:1.5;" width="97" x="10" y="65.5"/><text fill="#000000" font-family="sans-serif" font-size="14" lengthAdjust="spacing" textLength="27" x="15" y="81.0352">info</text><text fill="#000000" font-family="sans-serif" font-size="14" lengthAdjust="spacing" textLength="0" x="102" y="81.0352"/><line style="stroke:#A80036;stroke-width:1.0;" x1="85" x2="85" y1="65.5" y2="85.9883"/><line style="stroke:#A80036;stroke-width:1.0;" x1="10" x2="107" y1="85.9883" y2="85.9883"/><text fill="#000000" font-family="sans-serif" font-size="14" lengthAdjust="spacing" textLength="65" x="15" y="101.5234">sdfObject</text><text fill="#000000" font-family="sans-serif" font-size="14" lengthAdjust="spacing" textLength="0" x="102" y="101.5234"/><line style="stroke:#A80036;stroke-width:1.0;" x1="85" x2="85" y1="85.9883" y2="106.4766"/><rect fill="none" height="40.9766" rx="5" ry="5" style="stroke:#A80036;stroke-width:1.5;" width="97" x="10" y="65.5"/><rect fill="#FEFECE" height="81.9531" rx="5" ry="5" style="stroke:#FEFECE;stroke-width:1.5;" width="655" x="144" y="10"/><text fill="#000000" font-family="sans-serif" font-size="14" lengthAdjust="spacing" textLength="65" x="149" y="25.5352">copyright</text><text fill="#000000" font-family="sans-serif" font-size="14" lengthAdjust="spacing" textLength="570" x="224" y="25.5352">copyright 2016-2017, 2019 Open Connectivity Foundation, Inc. All rights reserved.</text><line style="stroke:#A80036;stroke-width:1.0;" x1="219" x2="219" y1="10" y2="30.4883"/><line style="stroke:#A80036;stroke-width:1.0;" x1="144" x2="799" y1="30.4883" y2="30.4883"/><text fill="#000000" font-family="sans-serif" font-size="14" lengthAdjust="spacing" textLength="47" x="149" y="46.0234">license</text><text fill="#000000" font-family="sans-serif" font-size="14" lengthAdjust="spacing" textLength="462" x="224" y="46.0234">https://github.com/one-data-model/oneDM/blob/master/LICENSE</text><line style="stroke:#A80036;stroke-width:1.0;" x1="219" x2="219" y1="30.4883" y2="50.9766"/><line style="stroke:#A80036;stroke-width:1.0;" x1="144" x2="799" y1="50.9766" y2="50.9766"/><text fill="#000000" font-family="sans-serif" font-size="14" lengthAdjust="spacing" textLength="26" x="149" y="66.5117">title</text><text fill="#000000" font-family="sans-serif" font-size="14" lengthAdjust="spacing" textLength="125" x="224" y="66.5117">Three Axis Sensor</text><line style="stroke:#A80036;stroke-width:1.0;" x1="219" x2="219" y1="50.9766" y2="71.4648"/><line style="stroke:#A80036;stroke-width:1.0;" x1="144" x2="799" y1="71.4648" y2="71.4648"/><text fill="#000000" font-family="sans-serif" font-size="14" lengthAdjust="spacing" textLength="50" x="149" y="87">version</text><text fill="#000000" font-family="sans-serif" font-size="14" lengthAdjust="spacing" textLength="88" x="224" y="87">2019-02-15</text><line style="stroke:#A80036;stroke-width:1.0;" x1="219" x2="219" y1="71.4648" y2="91.9531"/><rect fill="none" height="81.9531" rx="5" ry="5" style="stroke:#A80036;stroke-width:1.5;" width="655" x="144" y="10"/><rect fill="#FEFECE" height="20.4883" rx="5" ry="5" style="stroke:#FEFECE;stroke-width:1.5;" width="146" x="398.5" y="110"/><text fill="#000000" font-family="sans-serif" font-size="14" lengthAdjust="spacing" textLength="114" x="403.5" y="125.5352">sensor.threeaxis</text><text fill="#000000" font-family="sans-serif" font-size="14" lengthAdjust="spacing" textLength="0" x="539.5" y="125.5352"/><line style="stroke:#A80036;stroke-width:1.0;" x1="522.5" x2="522.5" y1="110" y2="130.4883"/><rect fill="none" height="20.4883" rx="5" ry="5" style="stroke:#A80036;stroke-width:1.5;" width="146" x="398.5" y="110"/><rect fill="#FEFECE" height="110.9297" rx="5" ry="5" style="stroke:#FEFECE;stroke-width:1.5;" width="570" x="836" y="64.5"/><text fill="#000000" font-family="sans-serif" font-size="14" lengthAdjust="spacing" textLength="77" x="841" y="80.0352">description</text><text fill="#000000" font-family="sans-serif" font-size="14" lengthAdjust="spacing" textLength="467" x="934" y="80.0352">This Resource provides a representation of the measurement from a</text><text fill="#000000" font-family="sans-serif" font-size="14" lengthAdjust="spacing" textLength="466" x="934" y="96.5234">three-axis sensor. The Property "orientation" is an array of numbers</text><text fill="#000000" font-family="sans-serif" font-size="14" lengthAdjust="spacing" textLength="426" x="934" y="113.0117">representing x-plane, y-plane and z-plane values. The unit of</text><text fill="#000000" font-family="sans-serif" font-size="14" lengthAdjust="spacing" textLength="230" x="934" y="129.5">measurement for each pane is 'g'.</text><line style="stroke:#A80036;stroke-width:1.0;" x1="929" x2="929" y1="64.5" y2="134.4531"/><line style="stroke:#A80036;stroke-width:1.0;" x1="836" x2="1406" y1="134.4531" y2="134.4531"/><text fill="#000000" font-family="sans-serif" font-size="14" lengthAdjust="spacing" textLength="79" x="841" y="149.9883">sdfProperty</text><text fill="#000000" font-family="sans-serif" font-size="14" lengthAdjust="spacing" textLength="0" x="946" y="149.9883"/><line style="stroke:#A80036;stroke-width:1.0;" x1="929" x2="929" y1="134.4531" y2="154.9414"/><line style="stroke:#A80036;stroke-width:1.0;" x1="836" x2="1406" y1="154.9414" y2="154.9414"/><text fill="#000000" font-family="sans-serif" font-size="14" lengthAdjust="spacing" textLength="83" x="841" y="170.4766">sdfRequired</text><text fill="#000000" font-family="sans-serif" font-size="14" lengthAdjust="spacing" textLength="0" x="946" y="170.4766"/><line style="stroke:#A80036;stroke-width:1.0;" x1="929" x2="929" y1="154.9414" y2="175.4297"/><rect fill="none" height="110.9297" rx="5" ry="5" style="stroke:#A80036;stroke-width:1.5;" width="570" x="836" y="64.5"/><rect fill="#FEFECE" height="20.4883" rx="5" ry="5" style="stroke:#FEFECE;stroke-width:1.5;" width="108" x="1579.5" y="110"/><text fill="#000000" font-family="sans-serif" font-size="14" lengthAdjust="spacing" textLength="76" x="1584.5" y="125.5352">orientation</text><text fill="#000000" font-family="sans-serif" font-size="14" lengthAdjust="spacing" textLength="0" x="1682.5" y="125.5352"/><line style="stroke:#A80036;stroke-width:1.0;" x1="1665.5" x2="1665.5" y1="110" y2="130.4883"/><rect fill="none" height="20.4883" rx="5" ry="5" style="stroke:#A80036;stroke-width:1.5;" width="108" x="1579.5" y="110"/><rect fill="#FEFECE" height="122.9297" rx="5" ry="5" style="stroke:#FEFECE;stroke-width:1.5;" width="567" x="1861" y="58.5"/><text fill="#000000" font-family="sans-serif" font-size="14" lengthAdjust="spacing" textLength="77" x="1866" y="74.0352">description</text><text fill="#000000" font-family="sans-serif" font-size="14" lengthAdjust="spacing" textLength="470" x="1953" y="74.0352">The array containing x-plane, y-plane and z-plane orientation in 'g'.</text><line style="stroke:#A80036;stroke-width:1.0;" x1="1948" x2="1948" y1="58.5" y2="78.9883"/><line style="stroke:#A80036;stroke-width:1.0;" x1="1861" x2="2428" y1="78.9883" y2="78.9883"/><text fill="#000000" font-family="sans-serif" font-size="14" lengthAdjust="spacing" textLength="37" x="1866" y="94.5234">items</text><text fill="#000000" font-family="sans-serif" font-size="14" lengthAdjust="spacing" textLength="0" x="1965" y="94.5234"/><line style="stroke:#A80036;stroke-width:1.0;" x1="1948" x2="1948" y1="78.9883" y2="99.4766"/><line style="stroke:#A80036;stroke-width:1.0;" x1="1861" x2="2428" y1="99.4766" y2="99.4766"/><text fill="#000000" font-family="sans-serif" font-size="14" lengthAdjust="spacing" textLength="67" x="1866" y="115.0117">maxItems</text><text fill="#000000" font-family="sans-serif" font-size="14" lengthAdjust="spacing" textLength="9" x="1953" y="115.0117">3</text><line style="stroke:#A80036;stroke-width:1.0;" x1="1948" x2="1948" y1="99.4766" y2="119.9648"/><line style="stroke:#A80036;stroke-width:1.0;" x1="1861" x2="2428" y1="119.9648" y2="119.9648"/><text fill="#000000" font-family="sans-serif" font-size="14" lengthAdjust="spacing" textLength="63" x="1866" y="135.5">minItems</text><text fill="#000000" font-family="sans-serif" font-size="14" lengthAdjust="spacing" textLength="9" x="1953" y="135.5">3</text><line style="stroke:#A80036;stroke-width:1.0;" x1="1948" x2="1948" y1="119.9648" y2="140.4531"/><line style="stroke:#A80036;stroke-width:1.0;" x1="1861" x2="2428" y1="140.4531" y2="140.4531"/><text fill="#000000" font-family="sans-serif" font-size="14" lengthAdjust="spacing" textLength="55" x="1866" y="155.9883">writable</text><text fill="#000000" font-family="sans-serif" font-size="14" lengthAdjust="spacing" textLength="48" x="1953" y="155.9883">☐ false</text><line style="stroke:#A80036;stroke-width:1.0;" x1="1948" x2="1948" y1="140.4531" y2="160.9414"/><line style="stroke:#A80036;stroke-width:1.0;" x1="1861" x2="2428" y1="160.9414" y2="160.9414"/><text fill="#000000" font-family="sans-serif" font-size="14" lengthAdjust="spacing" textLength="29" x="1866" y="176.4766">type</text><text fill="#000000" font-family="sans-serif" font-size="14" lengthAdjust="spacing" textLength="35" x="1953" y="176.4766">array</text><line style="stroke:#A80036;stroke-width:1.0;" x1="1948" x2="1948" y1="160.9414" y2="181.4297"/><rect fill="none" height="122.9297" rx="5" ry="5" style="stroke:#A80036;stroke-width:1.5;" width="567" x="1861" y="58.5"/><rect fill="#FEFECE" height="20.4883" rx="5" ry="5" style="stroke:#FEFECE;stroke-width:1.5;" width="103" x="2465" y="79"/><text fill="#000000" font-family="sans-serif" font-size="14" lengthAdjust="spacing" textLength="29" x="2470" y="94.5352">type</text><text fill="#000000" font-family="sans-serif" font-size="14" lengthAdjust="spacing" textLength="54" x="2509" y="94.5352">number</text><line style="stroke:#A80036;stroke-width:1.0;" x1="2504" x2="2504" y1="79" y2="99.4883"/><rect fill="none" height="20.4883" rx="5" ry="5" style="stroke:#A80036;stroke-width:1.5;" width="103" x="2465" y="79"/><rect fill="#FEFECE" height="20.4883" rx="5" ry="5" style="stroke:#FEFECE;stroke-width:1.5;" width="381" x="1443" y="148"/><text fill="#000000" font-family="sans-serif" font-size="14" lengthAdjust="spacing" textLength="371" x="1448" y="163.5352">#/sdfObject/sensor.threeaxis/sdfProperty/orientation</text><rect fill="none" height="20.4883" rx="5" ry="5" style="stroke:#A80036;stroke-width:1.5;" width="381" x="1443" y="148"/><path d="M95,75 L108,75 C117.3442,75 126.8208,74.9198 136.3833,74.7688 " fill="none" style="stroke:#A80036;stroke-width:1.0;stroke-dasharray:3.0,3.0;"/><path d="M136.4378,77.8434 L138.6892,74.7279 L136.3288,71.6942 L144.0697,74.6326 L136.4378,77.8434 " fill="#A80036" style="stroke:#A80036;stroke-width:1.0;"/><ellipse cx="95" cy="75" fill="#A80036" rx="3" ry="3" style="stroke:#A80036;stroke-width:1.0;stroke-dasharray:3.0,3.0;"/><path d="M2416,89 L2429,89 C2438.2961,89 2448.151,89 2457.7587,89 " fill="none" style="stroke:#A80036;stroke-width:1.0;stroke-dasharray:3.0,3.0;"/><path d="M2457.7587,92.0547 L2460.0497,89 L2457.7587,85.9453 L2465.3954,89 L2457.7587,92.0547 " fill="#A80036" style="stroke:#A80036;stroke-width:1.0;"/><ellipse cx="2416" cy="89" fill="#A80036" rx="3" ry="3" style="stroke:#A80036;stroke-width:1.0;stroke-dasharray:3.0,3.0;"/><path d="M1676,120 L1689,120 C1742.1884,120 1798.8742,120 1853.5381,120 " fill="none" style="stroke:#A80036;stroke-width:1.0;stroke-dasharray:3.0,3.0;"/><path d="M1853.5381,123.0797 L1855.8479,120 L1853.5381,116.9203 L1861.2374,120 L1853.5381,123.0797 " fill="#A80036" style="stroke:#A80036;stroke-width:1.0;"/><ellipse cx="1676" cy="120" fill="#A80036" rx="3" ry="3" style="stroke:#A80036;stroke-width:1.0;stroke-dasharray:3.0,3.0;"/><path d="M1394,120 L1407,120 C1462.821,120 1526.3976,120 1571.8693,120 " fill="none" style="stroke:#A80036;stroke-width:1.0;stroke-dasharray:3.0,3.0;"/><path d="M1571.8693,123.082 L1574.1808,120 L1571.8693,116.918 L1579.5743,120 L1571.8693,123.082 " fill="#A80036" style="stroke:#A80036;stroke-width:1.0;"/><ellipse cx="1394" cy="120" fill="#A80036" rx="3" ry="3" style="stroke:#A80036;stroke-width:1.0;stroke-dasharray:3.0,3.0;"/><path d="M1394,157 L1407,157 C1416.3654,157 1425.9491,157.0087 1435.629,157.0245 " fill="none" style="stroke:#A80036;stroke-width:1.0;stroke-dasharray:3.0,3.0;"/><path d="M1435.6233,160.137 L1437.9634,157.0287 L1435.6346,153.9119 L1443.4103,157.0386 L1435.6233,160.137 " fill="#A80036" style="stroke:#A80036;stroke-width:1.0;"/><ellipse cx="1394" cy="157" fill="#A80036" rx="3" ry="3" style="stroke:#A80036;stroke-width:1.0;stroke-dasharray:3.0,3.0;"/><path d="M533,120 L546,120 C637.9192,120 738.111,120 828.7067,120 " fill="none" style="stroke:#A80036;stroke-width:1.0;stroke-dasharray:3.0,3.0;"/><path d="M828.7067,123.047 L830.992,120 L828.7067,116.953 L836.3242,120 L828.7067,123.047 " fill="#A80036" style="stroke:#A80036;stroke-width:1.0;"/><ellipse cx="533" cy="120" fill="#A80036" rx="3" ry="3" style="stroke:#A80036;stroke-width:1.0;stroke-dasharray:3.0,3.0;"/><path d="M95,96 L108,96 C124.1536,96 127.924,99.4191 144,101 C228.1924,109.2793 324.961,114.3523 391.2574,117.1497 " fill="none" style="stroke:#A80036;stroke-width:1.0;stroke-dasharray:3.0,3.0;"/><path d="M391.1321,120.1604 L393.5155,117.2437 L391.3828,114.1389 L398.7843,117.463 L391.1321,120.1604 " fill="#A80036" style="stroke:#A80036;stroke-width:1.0;"/><ellipse cx="95" cy="96" fill="#A80036" rx="3" ry="3" style="stroke:#A80036;stroke-width:1.0;stroke-dasharray:3.0,3.0;"/><!--MD5=[121847b9ef869f8457868ac981cd764d]
@startjson
{
  "info": {
    "copyright": "copyright 2016-2017, 2019 Open Connectivity Foundation, Inc. All rights reserved.",
    "license": "https://github.com/one-data-model/oneDM/blob/master/LICENSE",
    "title": "Three Axis Sensor",
    "version": "2019-02-15"
  },
  "sdfObject": {
    "sensor.threeaxis": {
      "description": "This Resource provides a representation of the measurement from a\\nthree-axis sensor. The Property \"orientation\" is an array of numbers\\nrepresenting x-plane, y-plane and z-plane values. The unit of\\nmeasurement for each pane is 'g'.",
      "sdfProperty": {
        "orientation": {
          "description": "The array containing x-plane, y-plane and z-plane orientation in 'g'.",
          "items": {
            "type": "number"
          },
          "maxItems": 3,
          "minItems": 3,
          "writable": false,
          "type": "array"
        }
      },
      "sdfRequired": [
        "#/sdfObject/sensor.threeaxis/sdfProperty/orientation"
      ]
    }
  }
}
@endjson

PlantUML version 1.2021.2(Sun Mar 07 13:10:27 EET 2021)
(GPL source distribution)
Java Runtime: OpenJDK Runtime Environment
JVM: OpenJDK 64-Bit Server VM
Default Encoding: UTF-8
Language: en
Country: FI
--></g></svg>