<?xml version="1.0" encoding="UTF-8" standalone="no"?><svg xmlns="http://www.w3.org/2000/svg" xmlns:xlink="http://www.w3.org/1999/xlink" contentScriptType="application/ecmascript" contentStyleType="text/css" height="263px" preserveAspectRatio="none" style="width:2574px;height:263px;" version="1.1" viewBox="0 0 2574 263" width="2574px" zoomAndPan="magnify"><defs/><g><rect fill="#FEFECE" height="40.9766" rx="5" ry="5" style="stroke:#FEFECE;stroke-width:1.5;" width="97" x="10" y="65.5"/><text fill="#000000" font-family="sans-serif" font-size="14" lengthAdjust="spacing" textLength="27" x="15" y="81.0352">info</text><text fill="#000000" font-family="sans-serif" font-size="14" lengthAdjust="spacing" textLength="0" x="102" y="81.0352"/><line style="stroke:#A80036;stroke-width:1.0;" x1="85" x2="85" y1="65.5" y2="85.9883"/><line style="stroke:#A80036;stroke-width:1.0;" x1="10" x2="107" y1="85.9883" y2="85.9883"/><text fill="#000000" font-family="sans-serif" font-size="14" lengthAdjust="spacing" textLength="65" x="15" y="101.5234">sdfObject</text><text fill="#000000" font-family="sans-serif" font-size="14" lengthAdjust="spacing" textLength="0" x="102" y="101.5234"/><line style="stroke:#A80036;stroke-width:1.0;" x1="85" x2="85" y1="85.9883" y2="106.4766"/><rect fill="none" height="40.9766" rx="5" ry="5" style="stroke:#A80036;stroke-width:1.5;" width="97" x="10" y="65.5"/><rect fill="#FEFECE" height="81.9531" rx="5" ry="5" style="stroke:#FEFECE;stroke-width:1.5;" width="655" x="144" y="10"/><text fill="#000000" font-family="sans-serif" font-size="14" lengthAdjust="spacing" textLength="65" x="149" y="25.5352">copyright</text><text fill="#000000" font-family="sans-serif" font-size="14" lengthAdjust="spacing" textLength="570" x="224" y="25.5352">copyright 2016-2017, 2019 Open Connectivity Foundation, Inc. All rights reserved.</text><line style="stroke:#A80036;stroke-width:1.0;" x1="219" x2="219" y1="10" y2="30.4883"/><line style="stroke:#A80036;stroke-width:1.0;" x1="144" x2="799" y1="30.4883" y2="30.4883"/><text fill="#000000" font-family="sans-serif" font-size="14" lengthAdjust="spacing" textLength="47" x="149" y="46.0234">license</text><text fill="#000000" font-family="sans-serif" font-size="14" lengthAdjust="spacing" textLength="462" x="224" y="46.0234">https://github.com/one-data-model/oneDM/blob/master/LICENSE</text><line style="stroke:#A80036;stroke-width:1.0;" x1="219" x2="219" y1="30.4883" y2="50.9766"/><line style="stroke:#A80036;stroke-width:1.0;" x1="144" x2="799" y1="50.9766" y2="50.9766"/><text fill="#000000" font-family="sans-serif" font-size="14" lengthAdjust="spacing" textLength="26" x="149" y="66.5117">title</text><text fill="#000000" font-family="sans-serif" font-size="14" lengthAdjust="spacing" textLength="130" x="224" y="66.5117">Illuminance Sensor</text><line style="stroke:#A80036;stroke-width:1.0;" x1="219" x2="219" y1="50.9766" y2="71.4648"/><line style="stroke:#A80036;stroke-width:1.0;" x1="144" x2="799" y1="71.4648" y2="71.4648"/><text fill="#000000" font-family="sans-serif" font-size="14" lengthAdjust="spacing" textLength="50" x="149" y="87">version</text><text fill="#000000" font-family="sans-serif" font-size="14" lengthAdjust="spacing" textLength="88" x="224" y="87">2019-08-08</text><line style="stroke:#A80036;stroke-width:1.0;" x1="219" x2="219" y1="71.4648" y2="91.9531"/><rect fill="none" height="81.9531" rx="5" ry="5" style="stroke:#A80036;stroke-width:1.5;" width="655" x="144" y="10"/><rect fill="#FEFECE" height="20.4883" rx="5" ry="5" style="stroke:#FEFECE;stroke-width:1.5;" width="161" x="391" y="110"/><text fill="#000000" font-family="sans-serif" font-size="14" lengthAdjust="spacing" textLength="129" x="396" y="125.5352">sensor.illuminance</text><text fill="#000000" font-family="sans-serif" font-size="14" lengthAdjust="spacing" textLength="0" x="547" y="125.5352"/><line style="stroke:#A80036;stroke-width:1.0;" x1="530" x2="530" y1="110" y2="130.4883"/><rect fill="none" height="20.4883" rx="5" ry="5" style="stroke:#A80036;stroke-width:1.5;" width="161" x="391" y="110"/><rect fill="#FEFECE" height="94.4414" rx="5" ry="5" style="stroke:#FEFECE;stroke-width:1.5;" width="565" x="836" y="73"/><text fill="#000000" font-family="sans-serif" font-size="14" lengthAdjust="spacing" textLength="77" x="841" y="88.5352">description</text><text fill="#000000" font-family="sans-serif" font-size="14" lengthAdjust="spacing" textLength="415" x="934" y="88.5352">This Resource describes an illuminance sensor. The Property</text><text fill="#000000" font-family="sans-serif" font-size="14" lengthAdjust="spacing" textLength="462" x="934" y="105.0234">"illuminance" is a float and represents the sensed luminous flux per</text><text fill="#000000" font-family="sans-serif" font-size="14" lengthAdjust="spacing" textLength="108" x="934" y="121.5117">unit area in lux.</text><line style="stroke:#A80036;stroke-width:1.0;" x1="929" x2="929" y1="73" y2="126.4648"/><line style="stroke:#A80036;stroke-width:1.0;" x1="836" x2="1401" y1="126.4648" y2="126.4648"/><text fill="#000000" font-family="sans-serif" font-size="14" lengthAdjust="spacing" textLength="79" x="841" y="142">sdfProperty</text><text fill="#000000" font-family="sans-serif" font-size="14" lengthAdjust="spacing" textLength="0" x="946" y="142"/><line style="stroke:#A80036;stroke-width:1.0;" x1="929" x2="929" y1="126.4648" y2="146.9531"/><line style="stroke:#A80036;stroke-width:1.0;" x1="836" x2="1401" y1="146.9531" y2="146.9531"/><text fill="#000000" font-family="sans-serif" font-size="14" lengthAdjust="spacing" textLength="83" x="841" y="162.4883">sdfRequired</text><text fill="#000000" font-family="sans-serif" font-size="14" lengthAdjust="spacing" textLength="0" x="946" y="162.4883"/><line style="stroke:#A80036;stroke-width:1.0;" x1="929" x2="929" y1="146.9531" y2="167.4414"/><rect fill="none" height="94.4414" rx="5" ry="5" style="stroke:#A80036;stroke-width:1.5;" width="565" x="836" y="73"/><rect fill="#FEFECE" height="40.9766" rx="5" ry="5" style="stroke:#FEFECE;stroke-width:1.5;" width="111" x="1582" y="90.5"/><text fill="#000000" font-family="sans-serif" font-size="14" lengthAdjust="spacing" textLength="79" x="1587" y="106.0352">illuminance</text><text fill="#000000" font-family="sans-serif" font-size="14" lengthAdjust="spacing" textLength="0" x="1688" y="106.0352"/><line style="stroke:#A80036;stroke-width:1.0;" x1="1671" x2="1671" y1="90.5" y2="110.9883"/><line style="stroke:#A80036;stroke-width:1.0;" x1="1582" x2="1693" y1="110.9883" y2="110.9883"/><text fill="#000000" font-family="sans-serif" font-size="14" lengthAdjust="spacing" textLength="40" x="1587" y="126.5234">range</text><text fill="#000000" font-family="sans-serif" font-size="14" lengthAdjust="spacing" textLength="0" x="1688" y="126.5234"/><line style="stroke:#A80036;stroke-width:1.0;" x1="1671" x2="1671" y1="110.9883" y2="131.4766"/><rect fill="none" height="40.9766" rx="5" ry="5" style="stroke:#A80036;stroke-width:1.5;" width="111" x="1582" y="90.5"/><rect fill="#FEFECE" height="61.4648" rx="5" ry="5" style="stroke:#FEFECE;stroke-width:1.5;" width="413" x="1941.5" y="16.5"/><text fill="#000000" font-family="sans-serif" font-size="14" lengthAdjust="spacing" textLength="77" x="1946.5" y="32.0352">description</text><text fill="#000000" font-family="sans-serif" font-size="14" lengthAdjust="spacing" textLength="316" x="2033.5" y="32.0352">The sensed luminous flux per unit area in lux.</text><line style="stroke:#A80036;stroke-width:1.0;" x1="2028.5" x2="2028.5" y1="16.5" y2="36.9883"/><line style="stroke:#A80036;stroke-width:1.0;" x1="1941.5" x2="2354.5" y1="36.9883" y2="36.9883"/><text fill="#000000" font-family="sans-serif" font-size="14" lengthAdjust="spacing" textLength="55" x="1946.5" y="52.5234">writable</text><text fill="#000000" font-family="sans-serif" font-size="14" lengthAdjust="spacing" textLength="48" x="2033.5" y="52.5234">☐ false</text><line style="stroke:#A80036;stroke-width:1.0;" x1="2028.5" x2="2028.5" y1="36.9883" y2="57.4766"/><line style="stroke:#A80036;stroke-width:1.0;" x1="1941.5" x2="2354.5" y1="57.4766" y2="57.4766"/><text fill="#000000" font-family="sans-serif" font-size="14" lengthAdjust="spacing" textLength="29" x="1946.5" y="73.0117">type</text><text fill="#000000" font-family="sans-serif" font-size="14" lengthAdjust="spacing" textLength="54" x="2033.5" y="73.0117">number</text><line style="stroke:#A80036;stroke-width:1.0;" x1="2028.5" x2="2028.5" y1="57.4766" y2="77.9648"/><rect fill="none" height="61.4648" rx="5" ry="5" style="stroke:#A80036;stroke-width:1.5;" width="413" x="1941.5" y="16.5"/><rect fill="#FEFECE" height="155.9063" rx="5" ry="5" style="stroke:#FEFECE;stroke-width:1.5;" width="548" x="1874" y="96"/><text fill="#000000" font-family="sans-serif" font-size="14" lengthAdjust="spacing" textLength="29" x="1879" y="111.5352">type</text><text fill="#000000" font-family="sans-serif" font-size="14" lengthAdjust="spacing" textLength="35" x="1966" y="111.5352">array</text><line style="stroke:#A80036;stroke-width:1.0;" x1="1961" x2="1961" y1="96" y2="116.4883"/><line style="stroke:#A80036;stroke-width:1.0;" x1="1874" x2="2422" y1="116.4883" y2="116.4883"/><text fill="#000000" font-family="sans-serif" font-size="14" lengthAdjust="spacing" textLength="77" x="1879" y="132.0234">description</text><text fill="#000000" font-family="sans-serif" font-size="14" lengthAdjust="spacing" textLength="451" x="1966" y="132.0234">The valid range for the Property in the Resource as a number. The</text><text fill="#000000" font-family="sans-serif" font-size="14" lengthAdjust="spacing" textLength="439" x="1966" y="148.5117">first value in the array is the minimum value, the second value in</text><text fill="#000000" font-family="sans-serif" font-size="14" lengthAdjust="spacing" textLength="219" x="1966" y="165">the array is the maximum value.</text><line style="stroke:#A80036;stroke-width:1.0;" x1="1961" x2="1961" y1="116.4883" y2="169.9531"/><line style="stroke:#A80036;stroke-width:1.0;" x1="1874" x2="2422" y1="169.9531" y2="169.9531"/><text fill="#000000" font-family="sans-serif" font-size="14" lengthAdjust="spacing" textLength="55" x="1879" y="185.4883">writable</text><text fill="#000000" font-family="sans-serif" font-size="14" lengthAdjust="spacing" textLength="48" x="1966" y="185.4883">☐ false</text><line style="stroke:#A80036;stroke-width:1.0;" x1="1961" x2="1961" y1="169.9531" y2="190.4414"/><line style="stroke:#A80036;stroke-width:1.0;" x1="1874" x2="2422" y1="190.4414" y2="190.4414"/><text fill="#000000" font-family="sans-serif" font-size="14" lengthAdjust="spacing" textLength="63" x="1879" y="205.9766">minItems</text><text fill="#000000" font-family="sans-serif" font-size="14" lengthAdjust="spacing" textLength="9" x="1966" y="205.9766">2</text><line style="stroke:#A80036;stroke-width:1.0;" x1="1961" x2="1961" y1="190.4414" y2="210.9297"/><line style="stroke:#A80036;stroke-width:1.0;" x1="1874" x2="2422" y1="210.9297" y2="210.9297"/><text fill="#000000" font-family="sans-serif" font-size="14" lengthAdjust="spacing" textLength="67" x="1879" y="226.4648">maxItems</text><text fill="#000000" font-family="sans-serif" font-size="14" lengthAdjust="spacing" textLength="9" x="1966" y="226.4648">2</text><line style="stroke:#A80036;stroke-width:1.0;" x1="1961" x2="1961" y1="210.9297" y2="231.418"/><line style="stroke:#A80036;stroke-width:1.0;" x1="1874" x2="2422" y1="231.418" y2="231.418"/><text fill="#000000" font-family="sans-serif" font-size="14" lengthAdjust="spacing" textLength="37" x="1879" y="246.9531">items</text><text fill="#000000" font-family="sans-serif" font-size="14" lengthAdjust="spacing" textLength="0" x="1978" y="246.9531"/><line style="stroke:#A80036;stroke-width:1.0;" x1="1961" x2="1961" y1="231.418" y2="251.9063"/><rect fill="none" height="155.9063" rx="5" ry="5" style="stroke:#A80036;stroke-width:1.5;" width="548" x="1874" y="96"/><rect fill="#FEFECE" height="20.4883" rx="5" ry="5" style="stroke:#FEFECE;stroke-width:1.5;" width="103" x="2459" y="229"/><text fill="#000000" font-family="sans-serif" font-size="14" lengthAdjust="spacing" textLength="29" x="2464" y="244.5352">type</text><text fill="#000000" font-family="sans-serif" font-size="14" lengthAdjust="spacing" textLength="54" x="2503" y="244.5352">number</text><line style="stroke:#A80036;stroke-width:1.0;" x1="2498" x2="2498" y1="229" y2="249.4883"/><rect fill="none" height="20.4883" rx="5" ry="5" style="stroke:#A80036;stroke-width:1.5;" width="103" x="2459" y="229"/><rect fill="#FEFECE" height="20.4883" rx="5" ry="5" style="stroke:#FEFECE;stroke-width:1.5;" width="399" x="1438" y="150"/><text fill="#000000" font-family="sans-serif" font-size="14" lengthAdjust="spacing" textLength="389" x="1443" y="165.5352">#/sdfObject/sensor.illuminance/sdfProperty/illuminance</text><rect fill="none" height="20.4883" rx="5" ry="5" style="stroke:#A80036;stroke-width:1.5;" width="399" x="1438" y="150"/><path d="M95,75 L108,75 C117.3442,75 126.8208,74.9198 136.3833,74.7688 " fill="none" style="stroke:#A80036;stroke-width:1.0;stroke-dasharray:3.0,3.0;"/><path d="M136.4378,77.8434 L138.6892,74.7279 L136.3288,71.6942 L144.0697,74.6326 L136.4378,77.8434 " fill="#A80036" style="stroke:#A80036;stroke-width:1.0;"/><ellipse cx="95" cy="75" fill="#A80036" rx="3" ry="3" style="stroke:#A80036;stroke-width:1.0;stroke-dasharray:3.0,3.0;"/><path d="M1682,100 L1695,100 C1741.447,100 1840.5138,88.8452 1934.1443,76.7706 " fill="none" style="stroke:#A80036;stroke-width:1.0;stroke-dasharray:3.0,3.0;"/><path d="M1934.5375,79.8081 L1936.4225,76.4757 L1933.7512,73.733 L1941.7381,75.7877 L1934.5375,79.8081 " fill="#A80036" style="stroke:#A80036;stroke-width:1.0;"/><ellipse cx="1682" cy="100" fill="#A80036" rx="3" ry="3" style="stroke:#A80036;stroke-width:1.0;stroke-dasharray:3.0,3.0;"/><path d="M2410,239 L2423,239 C2432.2961,239 2442.151,239 2451.7587,239 " fill="none" style="stroke:#A80036;stroke-width:1.0;stroke-dasharray:3.0,3.0;"/><path d="M2451.7587,242.0547 L2454.0497,239 L2451.7587,235.9453 L2459.3954,239 L2451.7587,242.0547 " fill="#A80036" style="stroke:#A80036;stroke-width:1.0;"/><ellipse cx="2410" cy="239" fill="#A80036" rx="3" ry="3" style="stroke:#A80036;stroke-width:1.0;stroke-dasharray:3.0,3.0;"/><path d="M1682,121 L1695,121 C1750.7322,121 1810.065,125.0151 1866.7943,130.8351 " fill="none" style="stroke:#A80036;stroke-width:1.0;stroke-dasharray:3.0,3.0;"/><path d="M1866.4764,133.885 L1869.0817,131.0735 L1867.1121,127.7852 L1874.419,131.6298 L1866.4764,133.885 " fill="#A80036" style="stroke:#A80036;stroke-width:1.0;"/><ellipse cx="1682" cy="121" fill="#A80036" rx="3" ry="3" style="stroke:#A80036;stroke-width:1.0;stroke-dasharray:3.0,3.0;"/><path d="M1389,119 L1402,119 C1460.5843,119 1527.3363,116.4859 1574.6878,114.2765 " fill="none" style="stroke:#A80036;stroke-width:1.0;stroke-dasharray:3.0,3.0;"/><path d="M1574.8341,117.3657 L1577.0047,114.1668 L1574.5415,111.1873 L1582.4108,113.9108 L1574.8341,117.3657 " fill="#A80036" style="stroke:#A80036;stroke-width:1.0;"/><ellipse cx="1389" cy="119" fill="#A80036" rx="3" ry="3" style="stroke:#A80036;stroke-width:1.0;stroke-dasharray:3.0,3.0;"/><path d="M1389,151 L1402,151 C1411.3427,151 1420.8928,151.0719 1430.5386,151.2029 " fill="none" style="stroke:#A80036;stroke-width:1.0;stroke-dasharray:3.0,3.0;"/><path d="M1430.4916,154.3045 L1432.8649,151.2381 L1430.5856,148.1012 L1438.2927,151.3203 L1430.4916,154.3045 " fill="#A80036" style="stroke:#A80036;stroke-width:1.0;"/><ellipse cx="1389" cy="151" fill="#A80036" rx="3" ry="3" style="stroke:#A80036;stroke-width:1.0;stroke-dasharray:3.0,3.0;"/><path d="M541,120 L554,120 C643.3161,120 740.5883,120 828.8074,120 " fill="none" style="stroke:#A80036;stroke-width:1.0;stroke-dasharray:3.0,3.0;"/><path d="M828.8074,123.0761 L831.1144,120 L828.8074,116.9239 L836.4975,120 L828.8074,123.0761 " fill="#A80036" style="stroke:#A80036;stroke-width:1.0;"/><ellipse cx="541" cy="120" fill="#A80036" rx="3" ry="3" style="stroke:#A80036;stroke-width:1.0;stroke-dasharray:3.0,3.0;"/><path d="M95,96 L108,96 C124.1536,96 127.924,99.4191 144,101 C225.059,108.9711 317.7755,113.9703 383.731,116.8279 " fill="none" style="stroke:#A80036;stroke-width:1.0;stroke-dasharray:3.0,3.0;"/><path d="M383.6026,119.8296 L385.9823,116.9241 L383.8594,113.8262 L391.2352,117.1487 L383.6026,119.8296 " fill="#A80036" style="stroke:#A80036;stroke-width:1.0;"/><ellipse cx="95" cy="96" fill="#A80036" rx="3" ry="3" style="stroke:#A80036;stroke-width:1.0;stroke-dasharray:3.0,3.0;"/><!--MD5=[166d6cef24252b5c6047bc22bf258191]
@startjson
{
  "info": {
    "copyright": "copyright 2016-2017, 2019 Open Connectivity Foundation, Inc. All rights reserved.",
    "license": "https://github.com/one-data-model/oneDM/blob/master/LICENSE",
    "title": "Illuminance Sensor",
    "version": "2019-08-08"
  },
  "sdfObject": {
    "sensor.illuminance": {
      "description": "This Resource describes an illuminance sensor. The Property\\n\"illuminance\" is a float and represents the sensed luminous flux per\\nunit area in lux.",
      "sdfProperty": {
        "illuminance": {
          "description": "The sensed luminous flux per unit area in lux.",
          "writable": false,
          "type": "number"
        },
        "range": {
          "type": "array",
          "description": "The valid range for the Property in the Resource as a number. The\\nfirst value in the array is the minimum value, the second value in\\nthe array is the maximum value.",
          "writable": false,
          "minItems": 2,
          "maxItems": 2,
          "items": {
            "type": "number"
          }
        }
      },
      "sdfRequired": [
        "#/sdfObject/sensor.illuminance/sdfProperty/illuminance"
      ]
    }
  }
}
@endjson

PlantUML version 1.2021.2(Sun Mar 07 13:10:27 EET 2021)
(GPL source distribution)
Java Runtime: OpenJDK Runtime Environment
JVM: OpenJDK 64-Bit Server VM
Default Encoding: UTF-8
Language: en
Country: FI
--></g></svg>