<?xml version="1.0" encoding="UTF-8" standalone="no"?><svg xmlns="http://www.w3.org/2000/svg" xmlns:xlink="http://www.w3.org/1999/xlink" contentScriptType="application/ecmascript" contentStyleType="text/css" height="927px" preserveAspectRatio="none" style="width:2365px;height:927px;" version="1.1" viewBox="0 0 2365 927" width="2365px" zoomAndPan="magnify"><defs/><g><rect fill="#FEFECE" height="40.9766" rx="5" ry="5" style="stroke:#FEFECE;stroke-width:1.5;" width="97" x="10" y="582"/><text fill="#000000" font-family="sans-serif" font-size="14" lengthAdjust="spacing" textLength="27" x="15" y="597.5352">info</text><text fill="#000000" font-family="sans-serif" font-size="14" lengthAdjust="spacing" textLength="0" x="102" y="597.5352"/><line style="stroke:#A80036;stroke-width:1.0;" x1="85" x2="85" y1="582" y2="602.4883"/><line style="stroke:#A80036;stroke-width:1.0;" x1="10" x2="107" y1="602.4883" y2="602.4883"/><text fill="#000000" font-family="sans-serif" font-size="14" lengthAdjust="spacing" textLength="65" x="15" y="618.0234">sdfObject</text><text fill="#000000" font-family="sans-serif" font-size="14" lengthAdjust="spacing" textLength="0" x="102" y="618.0234"/><line style="stroke:#A80036;stroke-width:1.0;" x1="85" x2="85" y1="602.4883" y2="622.9766"/><rect fill="none" height="40.9766" rx="5" ry="5" style="stroke:#A80036;stroke-width:1.5;" width="97" x="10" y="582"/><rect fill="#FEFECE" height="81.9531" rx="5" ry="5" style="stroke:#FEFECE;stroke-width:1.5;" width="547" x="144" y="526.5"/><text fill="#000000" font-family="sans-serif" font-size="14" lengthAdjust="spacing" textLength="26" x="149" y="542.0352">title</text><text fill="#000000" font-family="sans-serif" font-size="14" lengthAdjust="spacing" textLength="381" x="224" y="542.0352">OMA LwM2M Addressable Text Display (Object ID 3341)</text><line style="stroke:#A80036;stroke-width:1.0;" x1="219" x2="219" y1="526.5" y2="546.9883"/><line style="stroke:#A80036;stroke-width:1.0;" x1="144" x2="691" y1="546.9883" y2="546.9883"/><text fill="#000000" font-family="sans-serif" font-size="14" lengthAdjust="spacing" textLength="50" x="149" y="562.5234">version</text><text fill="#000000" font-family="sans-serif" font-size="14" lengthAdjust="spacing" textLength="88" x="224" y="562.5234">2021-02-11</text><line style="stroke:#A80036;stroke-width:1.0;" x1="219" x2="219" y1="546.9883" y2="567.4766"/><line style="stroke:#A80036;stroke-width:1.0;" x1="144" x2="691" y1="567.4766" y2="567.4766"/><text fill="#000000" font-family="sans-serif" font-size="14" lengthAdjust="spacing" textLength="65" x="149" y="583.0117">copyright</text><text fill="#000000" font-family="sans-serif" font-size="14" lengthAdjust="spacing" textLength="208" x="224" y="583.0117">Copyright (c) 2018-2020 IPSO</text><line style="stroke:#A80036;stroke-width:1.0;" x1="219" x2="219" y1="567.4766" y2="587.9648"/><line style="stroke:#A80036;stroke-width:1.0;" x1="144" x2="691" y1="587.9648" y2="587.9648"/><text fill="#000000" font-family="sans-serif" font-size="14" lengthAdjust="spacing" textLength="47" x="149" y="603.5">license</text><text fill="#000000" font-family="sans-serif" font-size="14" lengthAdjust="spacing" textLength="462" x="224" y="603.5">https://github.com/one-data-model/oneDM/blob/master/LICENSE</text><line style="stroke:#A80036;stroke-width:1.0;" x1="219" x2="219" y1="587.9648" y2="608.4531"/><rect fill="none" height="81.9531" rx="5" ry="5" style="stroke:#A80036;stroke-width:1.5;" width="547" x="144" y="526.5"/><rect fill="#FEFECE" height="20.4883" rx="5" ry="5" style="stroke:#FEFECE;stroke-width:1.5;" width="211" x="312" y="626.5"/><text fill="#000000" font-family="sans-serif" font-size="14" lengthAdjust="spacing" textLength="179" x="317" y="642.0352">Addressable_Text_Display</text><text fill="#000000" font-family="sans-serif" font-size="14" lengthAdjust="spacing" textLength="0" x="518" y="642.0352"/><line style="stroke:#A80036;stroke-width:1.0;" x1="501" x2="501" y1="626.5" y2="646.9883"/><rect fill="none" height="20.4883" rx="5" ry="5" style="stroke:#A80036;stroke-width:1.5;" width="211" x="312" y="626.5"/><rect fill="#FEFECE" height="283.8125" rx="5" ry="5" style="stroke:#FEFECE;stroke-width:1.5;" width="576" x="728" y="494.5"/><text fill="#000000" font-family="sans-serif" font-size="14" lengthAdjust="spacing" textLength="33" x="733" y="510.0352">label</text><text fill="#000000" font-family="sans-serif" font-size="14" lengthAdjust="spacing" textLength="173" x="826" y="510.0352">Addressable Text Display</text><line style="stroke:#A80036;stroke-width:1.0;" x1="821" x2="821" y1="494.5" y2="514.9883"/><line style="stroke:#A80036;stroke-width:1.0;" x1="728" x2="1304" y1="514.9883" y2="514.9883"/><text fill="#000000" font-family="sans-serif" font-size="14" lengthAdjust="spacing" textLength="77" x="733" y="530.5234">description</text><text fill="#000000" font-family="sans-serif" font-size="14" lengthAdjust="spacing" textLength="439" x="826" y="530.5234">This IPSO object is used to send text to a text-only or text mode</text><text fill="#000000" font-family="sans-serif" font-size="14" lengthAdjust="spacing" textLength="412" x="826" y="547.0117">graphics display. Writing a string of text to the text resource</text><text fill="#000000" font-family="sans-serif" font-size="14" lengthAdjust="spacing" textLength="440" x="826" y="563.5">causes it to be displayed at the selected X and Y locations on the</text><text fill="#000000" font-family="sans-serif" font-size="14" lengthAdjust="spacing" textLength="420" x="826" y="579.9883">display. If X or Y are set to a value greater than the size of the</text><text fill="#000000" font-family="sans-serif" font-size="14" lengthAdjust="spacing" textLength="450" x="826" y="596.4766">display, the position "wraps around" to the modulus of the setting</text><text fill="#000000" font-family="sans-serif" font-size="14" lengthAdjust="spacing" textLength="414" x="826" y="612.9648">and the display size. Likewise, if the text string overflows the</text><text fill="#000000" font-family="sans-serif" font-size="14" lengthAdjust="spacing" textLength="450" x="826" y="629.4531">display size, the text "wraps around" and displays on the next line</text><text fill="#000000" font-family="sans-serif" font-size="14" lengthAdjust="spacing" textLength="449" x="826" y="645.9414">down or, if the last line has been written, wraps around to the top</text><text fill="#000000" font-family="sans-serif" font-size="14" lengthAdjust="spacing" textLength="434" x="826" y="662.4297">of the display. Brightness and Contrast controls are provided to</text><text fill="#000000" font-family="sans-serif" font-size="14" lengthAdjust="spacing" textLength="456" x="826" y="678.918">allow control of various display types including STN and DSTN type</text><text fill="#000000" font-family="sans-serif" font-size="14" lengthAdjust="spacing" textLength="473" x="826" y="695.4063">LCD character displays. Writing an empty payload to the Clear Display</text><text fill="#000000" font-family="sans-serif" font-size="14" lengthAdjust="spacing" textLength="281" x="826" y="711.8945">resource causes the display to be erased.</text><line style="stroke:#A80036;stroke-width:1.0;" x1="821" x2="821" y1="514.9883" y2="716.8477"/><line style="stroke:#A80036;stroke-width:1.0;" x1="728" x2="1304" y1="716.8477" y2="716.8477"/><text fill="#000000" font-family="sans-serif" font-size="14" lengthAdjust="spacing" textLength="79" x="733" y="732.3828">sdfProperty</text><text fill="#000000" font-family="sans-serif" font-size="14" lengthAdjust="spacing" textLength="0" x="838" y="732.3828"/><line style="stroke:#A80036;stroke-width:1.0;" x1="821" x2="821" y1="716.8477" y2="737.3359"/><line style="stroke:#A80036;stroke-width:1.0;" x1="728" x2="1304" y1="737.3359" y2="737.3359"/><text fill="#000000" font-family="sans-serif" font-size="14" lengthAdjust="spacing" textLength="65" x="733" y="752.8711">sdfAction</text><text fill="#000000" font-family="sans-serif" font-size="14" lengthAdjust="spacing" textLength="0" x="838" y="752.8711"/><line style="stroke:#A80036;stroke-width:1.0;" x1="821" x2="821" y1="737.3359" y2="757.8242"/><line style="stroke:#A80036;stroke-width:1.0;" x1="728" x2="1304" y1="757.8242" y2="757.8242"/><text fill="#000000" font-family="sans-serif" font-size="14" lengthAdjust="spacing" textLength="83" x="733" y="773.3594">sdfRequired</text><text fill="#000000" font-family="sans-serif" font-size="14" lengthAdjust="spacing" textLength="0" x="838" y="773.3594"/><line style="stroke:#A80036;stroke-width:1.0;" x1="821" x2="821" y1="757.8242" y2="778.3125"/><rect fill="none" height="283.8125" rx="5" ry="5" style="stroke:#A80036;stroke-width:1.5;" width="576" x="728" y="494.5"/><rect fill="#FEFECE" height="163.9063" rx="5" ry="5" style="stroke:#FEFECE;stroke-width:1.5;" width="161" x="1461" y="320.5"/><text fill="#000000" font-family="sans-serif" font-size="14" lengthAdjust="spacing" textLength="31" x="1466" y="336.0352">Text</text><text fill="#000000" font-family="sans-serif" font-size="14" lengthAdjust="spacing" textLength="0" x="1617" y="336.0352"/><line style="stroke:#A80036;stroke-width:1.0;" x1="1600" x2="1600" y1="320.5" y2="340.9883"/><line style="stroke:#A80036;stroke-width:1.0;" x1="1461" x2="1622" y1="340.9883" y2="340.9883"/><text fill="#000000" font-family="sans-serif" font-size="14" lengthAdjust="spacing" textLength="93" x="1466" y="356.5234">X_Coordinate</text><text fill="#000000" font-family="sans-serif" font-size="14" lengthAdjust="spacing" textLength="0" x="1617" y="356.5234"/><line style="stroke:#A80036;stroke-width:1.0;" x1="1600" x2="1600" y1="340.9883" y2="361.4766"/><line style="stroke:#A80036;stroke-width:1.0;" x1="1461" x2="1622" y1="361.4766" y2="361.4766"/><text fill="#000000" font-family="sans-serif" font-size="14" lengthAdjust="spacing" textLength="93" x="1466" y="377.0117">Y_Coordinate</text><text fill="#000000" font-family="sans-serif" font-size="14" lengthAdjust="spacing" textLength="0" x="1617" y="377.0117"/><line style="stroke:#A80036;stroke-width:1.0;" x1="1600" x2="1600" y1="361.4766" y2="381.9648"/><line style="stroke:#A80036;stroke-width:1.0;" x1="1461" x2="1622" y1="381.9648" y2="381.9648"/><text fill="#000000" font-family="sans-serif" font-size="14" lengthAdjust="spacing" textLength="129" x="1466" y="397.5">Max_X_Coordinate</text><text fill="#000000" font-family="sans-serif" font-size="14" lengthAdjust="spacing" textLength="0" x="1617" y="397.5"/><line style="stroke:#A80036;stroke-width:1.0;" x1="1600" x2="1600" y1="381.9648" y2="402.4531"/><line style="stroke:#A80036;stroke-width:1.0;" x1="1461" x2="1622" y1="402.4531" y2="402.4531"/><text fill="#000000" font-family="sans-serif" font-size="14" lengthAdjust="spacing" textLength="129" x="1466" y="417.9883">Max_Y_Coordinate</text><text fill="#000000" font-family="sans-serif" font-size="14" lengthAdjust="spacing" textLength="0" x="1617" y="417.9883"/><line style="stroke:#A80036;stroke-width:1.0;" x1="1600" x2="1600" y1="402.4531" y2="422.9414"/><line style="stroke:#A80036;stroke-width:1.0;" x1="1461" x2="1622" y1="422.9414" y2="422.9414"/><text fill="#000000" font-family="sans-serif" font-size="14" lengthAdjust="spacing" textLength="34" x="1466" y="438.4766">Level</text><text fill="#000000" font-family="sans-serif" font-size="14" lengthAdjust="spacing" textLength="0" x="1617" y="438.4766"/><line style="stroke:#A80036;stroke-width:1.0;" x1="1600" x2="1600" y1="422.9414" y2="443.4297"/><line style="stroke:#A80036;stroke-width:1.0;" x1="1461" x2="1622" y1="443.4297" y2="443.4297"/><text fill="#000000" font-family="sans-serif" font-size="14" lengthAdjust="spacing" textLength="59" x="1466" y="458.9648">Contrast</text><text fill="#000000" font-family="sans-serif" font-size="14" lengthAdjust="spacing" textLength="0" x="1617" y="458.9648"/><line style="stroke:#A80036;stroke-width:1.0;" x1="1600" x2="1600" y1="443.4297" y2="463.918"/><line style="stroke:#A80036;stroke-width:1.0;" x1="1461" x2="1622" y1="463.918" y2="463.918"/><text fill="#000000" font-family="sans-serif" font-size="14" lengthAdjust="spacing" textLength="118" x="1466" y="479.4531">Application_Type</text><text fill="#000000" font-family="sans-serif" font-size="14" lengthAdjust="spacing" textLength="0" x="1617" y="479.4531"/><line style="stroke:#A80036;stroke-width:1.0;" x1="1600" x2="1600" y1="463.918" y2="484.4063"/><rect fill="none" height="163.9063" rx="5" ry="5" style="stroke:#A80036;stroke-width:1.5;" width="161" x="1461" y="320.5"/><rect fill="#FEFECE" height="61.4648" rx="5" ry="5" style="stroke:#FEFECE;stroke-width:1.5;" width="204" x="1964" y="10"/><text fill="#000000" font-family="sans-serif" font-size="14" lengthAdjust="spacing" textLength="33" x="1969" y="25.5352">label</text><text fill="#000000" font-family="sans-serif" font-size="14" lengthAdjust="spacing" textLength="31" x="2056" y="25.5352">Text</text><line style="stroke:#A80036;stroke-width:1.0;" x1="2051" x2="2051" y1="10" y2="30.4883"/><line style="stroke:#A80036;stroke-width:1.0;" x1="1964" x2="2168" y1="30.4883" y2="30.4883"/><text fill="#000000" font-family="sans-serif" font-size="14" lengthAdjust="spacing" textLength="77" x="1969" y="46.0234">description</text><text fill="#000000" font-family="sans-serif" font-size="14" lengthAdjust="spacing" textLength="107" x="2056" y="46.0234">A string of text.</text><line style="stroke:#A80036;stroke-width:1.0;" x1="2051" x2="2051" y1="30.4883" y2="50.9766"/><line style="stroke:#A80036;stroke-width:1.0;" x1="1964" x2="2168" y1="50.9766" y2="50.9766"/><text fill="#000000" font-family="sans-serif" font-size="14" lengthAdjust="spacing" textLength="29" x="1969" y="66.5117">type</text><text fill="#000000" font-family="sans-serif" font-size="14" lengthAdjust="spacing" textLength="40" x="2056" y="66.5117">string</text><line style="stroke:#A80036;stroke-width:1.0;" x1="2051" x2="2051" y1="50.9766" y2="71.4648"/><rect fill="none" height="61.4648" rx="5" ry="5" style="stroke:#A80036;stroke-width:1.5;" width="204" x="1964" y="10"/><rect fill="#FEFECE" height="61.4648" rx="5" ry="5" style="stroke:#FEFECE;stroke-width:1.5;" width="191" x="1970.5" y="89"/><text fill="#000000" font-family="sans-serif" font-size="14" lengthAdjust="spacing" textLength="33" x="1975.5" y="104.5352">label</text><text fill="#000000" font-family="sans-serif" font-size="14" lengthAdjust="spacing" textLength="90" x="2062.5" y="104.5352">X Coordinate</text><line style="stroke:#A80036;stroke-width:1.0;" x1="2057.5" x2="2057.5" y1="89" y2="109.4883"/><line style="stroke:#A80036;stroke-width:1.0;" x1="1970.5" x2="2161.5" y1="109.4883" y2="109.4883"/><text fill="#000000" font-family="sans-serif" font-size="14" lengthAdjust="spacing" textLength="77" x="1975.5" y="125.0234">description</text><text fill="#000000" font-family="sans-serif" font-size="14" lengthAdjust="spacing" textLength="94" x="2062.5" y="125.0234">X Coordinate.</text><line style="stroke:#A80036;stroke-width:1.0;" x1="2057.5" x2="2057.5" y1="109.4883" y2="129.9766"/><line style="stroke:#A80036;stroke-width:1.0;" x1="1970.5" x2="2161.5" y1="129.9766" y2="129.9766"/><text fill="#000000" font-family="sans-serif" font-size="14" lengthAdjust="spacing" textLength="29" x="1975.5" y="145.5117">type</text><text fill="#000000" font-family="sans-serif" font-size="14" lengthAdjust="spacing" textLength="49" x="2062.5" y="145.5117">integer</text><line style="stroke:#A80036;stroke-width:1.0;" x1="2057.5" x2="2057.5" y1="129.9766" y2="150.4648"/><rect fill="none" height="61.4648" rx="5" ry="5" style="stroke:#A80036;stroke-width:1.5;" width="191" x="1970.5" y="89"/><rect fill="#FEFECE" height="61.4648" rx="5" ry="5" style="stroke:#FEFECE;stroke-width:1.5;" width="191" x="1970.5" y="168"/><text fill="#000000" font-family="sans-serif" font-size="14" lengthAdjust="spacing" textLength="33" x="1975.5" y="183.5352">label</text><text fill="#000000" font-family="sans-serif" font-size="14" lengthAdjust="spacing" textLength="90" x="2062.5" y="183.5352">Y Coordinate</text><line style="stroke:#A80036;stroke-width:1.0;" x1="2057.5" x2="2057.5" y1="168" y2="188.4883"/><line style="stroke:#A80036;stroke-width:1.0;" x1="1970.5" x2="2161.5" y1="188.4883" y2="188.4883"/><text fill="#000000" font-family="sans-serif" font-size="14" lengthAdjust="spacing" textLength="77" x="1975.5" y="204.0234">description</text><text fill="#000000" font-family="sans-serif" font-size="14" lengthAdjust="spacing" textLength="94" x="2062.5" y="204.0234">Y Coordinate.</text><line style="stroke:#A80036;stroke-width:1.0;" x1="2057.5" x2="2057.5" y1="188.4883" y2="208.9766"/><line style="stroke:#A80036;stroke-width:1.0;" x1="1970.5" x2="2161.5" y1="208.9766" y2="208.9766"/><text fill="#000000" font-family="sans-serif" font-size="14" lengthAdjust="spacing" textLength="29" x="1975.5" y="224.5117">type</text><text fill="#000000" font-family="sans-serif" font-size="14" lengthAdjust="spacing" textLength="49" x="2062.5" y="224.5117">integer</text><line style="stroke:#A80036;stroke-width:1.0;" x1="2057.5" x2="2057.5" y1="208.9766" y2="229.4648"/><rect fill="none" height="61.4648" rx="5" ry="5" style="stroke:#A80036;stroke-width:1.5;" width="191" x="1970.5" y="168"/><rect fill="#FEFECE" height="98.4414" rx="5" ry="5" style="stroke:#FEFECE;stroke-width:1.5;" width="574" x="1779" y="247.5"/><text fill="#000000" font-family="sans-serif" font-size="14" lengthAdjust="spacing" textLength="33" x="1784" y="263.0352">label</text><text fill="#000000" font-family="sans-serif" font-size="14" lengthAdjust="spacing" textLength="123" x="1871" y="263.0352">Max X Coordinate</text><line style="stroke:#A80036;stroke-width:1.0;" x1="1866" x2="1866" y1="247.5" y2="267.9883"/><line style="stroke:#A80036;stroke-width:1.0;" x1="1779" x2="2353" y1="267.9883" y2="267.9883"/><text fill="#000000" font-family="sans-serif" font-size="14" lengthAdjust="spacing" textLength="77" x="1784" y="283.5234">description</text><text fill="#000000" font-family="sans-serif" font-size="14" lengthAdjust="spacing" textLength="477" x="1871" y="283.5234">The highest X coordinate the display supports before wrapping to the</text><text fill="#000000" font-family="sans-serif" font-size="14" lengthAdjust="spacing" textLength="64" x="1871" y="300.0117">next line.</text><line style="stroke:#A80036;stroke-width:1.0;" x1="1866" x2="1866" y1="267.9883" y2="304.9648"/><line style="stroke:#A80036;stroke-width:1.0;" x1="1779" x2="2353" y1="304.9648" y2="304.9648"/><text fill="#000000" font-family="sans-serif" font-size="14" lengthAdjust="spacing" textLength="55" x="1784" y="320.5">writable</text><text fill="#000000" font-family="sans-serif" font-size="14" lengthAdjust="spacing" textLength="48" x="1871" y="320.5">☐ false</text><line style="stroke:#A80036;stroke-width:1.0;" x1="1866" x2="1866" y1="304.9648" y2="325.4531"/><line style="stroke:#A80036;stroke-width:1.0;" x1="1779" x2="2353" y1="325.4531" y2="325.4531"/><text fill="#000000" font-family="sans-serif" font-size="14" lengthAdjust="spacing" textLength="29" x="1784" y="340.9883">type</text><text fill="#000000" font-family="sans-serif" font-size="14" lengthAdjust="spacing" textLength="49" x="1871" y="340.9883">integer</text><line style="stroke:#A80036;stroke-width:1.0;" x1="1866" x2="1866" y1="325.4531" y2="345.9414"/><rect fill="none" height="98.4414" rx="5" ry="5" style="stroke:#A80036;stroke-width:1.5;" width="574" x="1779" y="247.5"/><rect fill="#FEFECE" height="98.4414" rx="5" ry="5" style="stroke:#FEFECE;stroke-width:1.5;" width="574" x="1779" y="363.5"/><text fill="#000000" font-family="sans-serif" font-size="14" lengthAdjust="spacing" textLength="33" x="1784" y="379.0352">label</text><text fill="#000000" font-family="sans-serif" font-size="14" lengthAdjust="spacing" textLength="123" x="1871" y="379.0352">Max Y Coordinate</text><line style="stroke:#A80036;stroke-width:1.0;" x1="1866" x2="1866" y1="363.5" y2="383.9883"/><line style="stroke:#A80036;stroke-width:1.0;" x1="1779" x2="2353" y1="383.9883" y2="383.9883"/><text fill="#000000" font-family="sans-serif" font-size="14" lengthAdjust="spacing" textLength="77" x="1784" y="399.5234">description</text><text fill="#000000" font-family="sans-serif" font-size="14" lengthAdjust="spacing" textLength="477" x="1871" y="399.5234">The highest Y coordinate the display supports before wrapping to the</text><text fill="#000000" font-family="sans-serif" font-size="14" lengthAdjust="spacing" textLength="64" x="1871" y="416.0117">next line.</text><line style="stroke:#A80036;stroke-width:1.0;" x1="1866" x2="1866" y1="383.9883" y2="420.9648"/><line style="stroke:#A80036;stroke-width:1.0;" x1="1779" x2="2353" y1="420.9648" y2="420.9648"/><text fill="#000000" font-family="sans-serif" font-size="14" lengthAdjust="spacing" textLength="55" x="1784" y="436.5">writable</text><text fill="#000000" font-family="sans-serif" font-size="14" lengthAdjust="spacing" textLength="48" x="1871" y="436.5">☐ false</text><line style="stroke:#A80036;stroke-width:1.0;" x1="1866" x2="1866" y1="420.9648" y2="441.4531"/><line style="stroke:#A80036;stroke-width:1.0;" x1="1779" x2="2353" y1="441.4531" y2="441.4531"/><text fill="#000000" font-family="sans-serif" font-size="14" lengthAdjust="spacing" textLength="29" x="1784" y="456.9883">type</text><text fill="#000000" font-family="sans-serif" font-size="14" lengthAdjust="spacing" textLength="49" x="1871" y="456.9883">integer</text><line style="stroke:#A80036;stroke-width:1.0;" x1="1866" x2="1866" y1="441.4531" y2="461.9414"/><rect fill="none" height="98.4414" rx="5" ry="5" style="stroke:#A80036;stroke-width:1.5;" width="574" x="1779" y="363.5"/><rect fill="#FEFECE" height="122.9297" rx="5" ry="5" style="stroke:#FEFECE;stroke-width:1.5;" width="475" x="1828.5" y="480"/><text fill="#000000" font-family="sans-serif" font-size="14" lengthAdjust="spacing" textLength="33" x="1833.5" y="495.5352">label</text><text fill="#000000" font-family="sans-serif" font-size="14" lengthAdjust="spacing" textLength="34" x="1920.5" y="495.5352">Level</text><line style="stroke:#A80036;stroke-width:1.0;" x1="1915.5" x2="1915.5" y1="480" y2="500.4883"/><line style="stroke:#A80036;stroke-width:1.0;" x1="1828.5" x2="2303.5" y1="500.4883" y2="500.4883"/><text fill="#000000" font-family="sans-serif" font-size="14" lengthAdjust="spacing" textLength="77" x="1833.5" y="516.0234">description</text><text fill="#000000" font-family="sans-serif" font-size="14" lengthAdjust="spacing" textLength="378" x="1920.5" y="516.0234">Used to represent a level control such as audio volume.</text><line style="stroke:#A80036;stroke-width:1.0;" x1="1915.5" x2="1915.5" y1="500.4883" y2="520.9766"/><line style="stroke:#A80036;stroke-width:1.0;" x1="1828.5" x2="2303.5" y1="520.9766" y2="520.9766"/><text fill="#000000" font-family="sans-serif" font-size="14" lengthAdjust="spacing" textLength="29" x="1833.5" y="536.5117">type</text><text fill="#000000" font-family="sans-serif" font-size="14" lengthAdjust="spacing" textLength="54" x="1920.5" y="536.5117">number</text><line style="stroke:#A80036;stroke-width:1.0;" x1="1915.5" x2="1915.5" y1="520.9766" y2="541.4648"/><line style="stroke:#A80036;stroke-width:1.0;" x1="1828.5" x2="2303.5" y1="541.4648" y2="541.4648"/><text fill="#000000" font-family="sans-serif" font-size="14" lengthAdjust="spacing" textLength="27" x="1833.5" y="557">unit</text><text fill="#000000" font-family="sans-serif" font-size="14" lengthAdjust="spacing" textLength="34" x="1920.5" y="557">/100</text><line style="stroke:#A80036;stroke-width:1.0;" x1="1915.5" x2="1915.5" y1="541.4648" y2="561.9531"/><line style="stroke:#A80036;stroke-width:1.0;" x1="1828.5" x2="2303.5" y1="561.9531" y2="561.9531"/><text fill="#000000" font-family="sans-serif" font-size="14" lengthAdjust="spacing" textLength="65" x="1833.5" y="577.4883">minimum</text><text fill="#000000" font-family="sans-serif" font-size="14" lengthAdjust="spacing" textLength="9" x="1920.5" y="577.4883">0</text><line style="stroke:#A80036;stroke-width:1.0;" x1="1915.5" x2="1915.5" y1="561.9531" y2="582.4414"/><line style="stroke:#A80036;stroke-width:1.0;" x1="1828.5" x2="2303.5" y1="582.4414" y2="582.4414"/><text fill="#000000" font-family="sans-serif" font-size="14" lengthAdjust="spacing" textLength="69" x="1833.5" y="597.9766">maximum</text><text fill="#000000" font-family="sans-serif" font-size="14" lengthAdjust="spacing" textLength="27" x="1920.5" y="597.9766">100</text><line style="stroke:#A80036;stroke-width:1.0;" x1="1915.5" x2="1915.5" y1="582.4414" y2="602.9297"/><rect fill="none" height="122.9297" rx="5" ry="5" style="stroke:#A80036;stroke-width:1.5;" width="475" x="1828.5" y="480"/><rect fill="#FEFECE" height="139.418" rx="5" ry="5" style="stroke:#FEFECE;stroke-width:1.5;" width="500" x="1816" y="621"/><text fill="#000000" font-family="sans-serif" font-size="14" lengthAdjust="spacing" textLength="33" x="1821" y="636.5352">label</text><text fill="#000000" font-family="sans-serif" font-size="14" lengthAdjust="spacing" textLength="59" x="1908" y="636.5352">Contrast</text><line style="stroke:#A80036;stroke-width:1.0;" x1="1903" x2="1903" y1="621" y2="641.4883"/><line style="stroke:#A80036;stroke-width:1.0;" x1="1816" x2="2316" y1="641.4883" y2="641.4883"/><text fill="#000000" font-family="sans-serif" font-size="14" lengthAdjust="spacing" textLength="77" x="1821" y="657.0234">description</text><text fill="#000000" font-family="sans-serif" font-size="14" lengthAdjust="spacing" textLength="403" x="1908" y="657.0234">Proportional control, integer value between 0 and 100 as a</text><text fill="#000000" font-family="sans-serif" font-size="14" lengthAdjust="spacing" textLength="81" x="1908" y="673.5117">percentage.</text><line style="stroke:#A80036;stroke-width:1.0;" x1="1903" x2="1903" y1="641.4883" y2="678.4648"/><line style="stroke:#A80036;stroke-width:1.0;" x1="1816" x2="2316" y1="678.4648" y2="678.4648"/><text fill="#000000" font-family="sans-serif" font-size="14" lengthAdjust="spacing" textLength="29" x="1821" y="694">type</text><text fill="#000000" font-family="sans-serif" font-size="14" lengthAdjust="spacing" textLength="54" x="1908" y="694">number</text><line style="stroke:#A80036;stroke-width:1.0;" x1="1903" x2="1903" y1="678.4648" y2="698.9531"/><line style="stroke:#A80036;stroke-width:1.0;" x1="1816" x2="2316" y1="698.9531" y2="698.9531"/><text fill="#000000" font-family="sans-serif" font-size="14" lengthAdjust="spacing" textLength="27" x="1821" y="714.4883">unit</text><text fill="#000000" font-family="sans-serif" font-size="14" lengthAdjust="spacing" textLength="34" x="1908" y="714.4883">/100</text><line style="stroke:#A80036;stroke-width:1.0;" x1="1903" x2="1903" y1="698.9531" y2="719.4414"/><line style="stroke:#A80036;stroke-width:1.0;" x1="1816" x2="2316" y1="719.4414" y2="719.4414"/><text fill="#000000" font-family="sans-serif" font-size="14" lengthAdjust="spacing" textLength="65" x="1821" y="734.9766">minimum</text><text fill="#000000" font-family="sans-serif" font-size="14" lengthAdjust="spacing" textLength="9" x="1908" y="734.9766">0</text><line style="stroke:#A80036;stroke-width:1.0;" x1="1903" x2="1903" y1="719.4414" y2="739.9297"/><line style="stroke:#A80036;stroke-width:1.0;" x1="1816" x2="2316" y1="739.9297" y2="739.9297"/><text fill="#000000" font-family="sans-serif" font-size="14" lengthAdjust="spacing" textLength="69" x="1821" y="755.4648">maximum</text><text fill="#000000" font-family="sans-serif" font-size="14" lengthAdjust="spacing" textLength="27" x="1908" y="755.4648">100</text><line style="stroke:#A80036;stroke-width:1.0;" x1="1903" x2="1903" y1="739.9297" y2="760.418"/><rect fill="none" height="139.418" rx="5" ry="5" style="stroke:#A80036;stroke-width:1.5;" width="500" x="1816" y="621"/><rect fill="#FEFECE" height="77.9531" rx="5" ry="5" style="stroke:#FEFECE;stroke-width:1.5;" width="563" x="1784.5" y="778.5"/><text fill="#000000" font-family="sans-serif" font-size="14" lengthAdjust="spacing" textLength="33" x="1789.5" y="794.0352">label</text><text fill="#000000" font-family="sans-serif" font-size="14" lengthAdjust="spacing" textLength="115" x="1876.5" y="794.0352">Application Type</text><line style="stroke:#A80036;stroke-width:1.0;" x1="1871.5" x2="1871.5" y1="778.5" y2="798.9883"/><line style="stroke:#A80036;stroke-width:1.0;" x1="1784.5" x2="2347.5" y1="798.9883" y2="798.9883"/><text fill="#000000" font-family="sans-serif" font-size="14" lengthAdjust="spacing" textLength="77" x="1789.5" y="814.5234">description</text><text fill="#000000" font-family="sans-serif" font-size="14" lengthAdjust="spacing" textLength="466" x="1876.5" y="814.5234">The application type of the sensor or actuator as a string depending</text><text fill="#000000" font-family="sans-serif" font-size="14" lengthAdjust="spacing" textLength="110" x="1876.5" y="831.0117">on the use case.</text><line style="stroke:#A80036;stroke-width:1.0;" x1="1871.5" x2="1871.5" y1="798.9883" y2="835.9648"/><line style="stroke:#A80036;stroke-width:1.0;" x1="1784.5" x2="2347.5" y1="835.9648" y2="835.9648"/><text fill="#000000" font-family="sans-serif" font-size="14" lengthAdjust="spacing" textLength="29" x="1789.5" y="851.5">type</text><text fill="#000000" font-family="sans-serif" font-size="14" lengthAdjust="spacing" textLength="40" x="1876.5" y="851.5">string</text><line style="stroke:#A80036;stroke-width:1.0;" x1="1871.5" x2="1871.5" y1="835.9648" y2="856.4531"/><rect fill="none" height="77.9531" rx="5" ry="5" style="stroke:#A80036;stroke-width:1.5;" width="563" x="1784.5" y="778.5"/><rect fill="#FEFECE" height="20.4883" rx="5" ry="5" style="stroke:#FEFECE;stroke-width:1.5;" width="124" x="1479.5" y="693.5"/><text fill="#000000" font-family="sans-serif" font-size="14" lengthAdjust="spacing" textLength="92" x="1484.5" y="709.0352">Clear_Display</text><text fill="#000000" font-family="sans-serif" font-size="14" lengthAdjust="spacing" textLength="0" x="1598.5" y="709.0352"/><line style="stroke:#A80036;stroke-width:1.0;" x1="1581.5" x2="1581.5" y1="693.5" y2="713.9883"/><rect fill="none" height="20.4883" rx="5" ry="5" style="stroke:#A80036;stroke-width:1.5;" width="124" x="1479.5" y="693.5"/><rect fill="#FEFECE" height="40.9766" rx="5" ry="5" style="stroke:#FEFECE;stroke-width:1.5;" width="305" x="1913.5" y="875"/><text fill="#000000" font-family="sans-serif" font-size="14" lengthAdjust="spacing" textLength="33" x="1918.5" y="890.5352">label</text><text fill="#000000" font-family="sans-serif" font-size="14" lengthAdjust="spacing" textLength="89" x="2005.5" y="890.5352">Clear Display</text><line style="stroke:#A80036;stroke-width:1.0;" x1="2000.5" x2="2000.5" y1="875" y2="895.4883"/><line style="stroke:#A80036;stroke-width:1.0;" x1="1913.5" x2="2218.5" y1="895.4883" y2="895.4883"/><text fill="#000000" font-family="sans-serif" font-size="14" lengthAdjust="spacing" textLength="77" x="1918.5" y="911.0234">description</text><text fill="#000000" font-family="sans-serif" font-size="14" lengthAdjust="spacing" textLength="208" x="2005.5" y="911.0234">Command to clear the display.</text><line style="stroke:#A80036;stroke-width:1.0;" x1="2000.5" x2="2000.5" y1="895.4883" y2="915.9766"/><rect fill="none" height="40.9766" rx="5" ry="5" style="stroke:#A80036;stroke-width:1.5;" width="305" x="1913.5" y="875"/><rect fill="#FEFECE" height="20.4883" rx="5" ry="5" style="stroke:#FEFECE;stroke-width:1.5;" width="401" x="1341" y="740.5"/><text fill="#000000" font-family="sans-serif" font-size="14" lengthAdjust="spacing" textLength="391" x="1346" y="756.0352">#/sdfObject/Addressable_Text_Display/sdfProperty/Text</text><rect fill="none" height="20.4883" rx="5" ry="5" style="stroke:#A80036;stroke-width:1.5;" width="401" x="1341" y="740.5"/><path d="M95,591.5 L108,591.5 C117.3406,591.5 126.8353,591.3896 136.4202,591.1839 " fill="none" style="stroke:#A80036;stroke-width:1.0;stroke-dasharray:3.0,3.0;"/><path d="M136.4943,594.2659 L138.7318,591.1283 L136.3462,588.1019 L144.1253,590.9987 L136.4943,594.2659 " fill="#A80036" style="stroke:#A80036;stroke-width:1.0;"/><ellipse cx="95" cy="591.5" fill="#A80036" rx="3" ry="3" style="stroke:#A80036;stroke-width:1.0;stroke-dasharray:3.0,3.0;"/><path d="M1611,330.5 L1624,330.5 C1755.1119,330.5 1669.0748,150.9616 1779,79.5 C1831.0596,45.6564 1899.6995,35.4131 1956.7425,33.8648 " fill="none" style="stroke:#A80036;stroke-width:1.0;stroke-dasharray:3.0,3.0;"/><path d="M1956.8054,36.9091 L1959.0257,33.8176 L1956.6796,30.8206 L1964.3531,33.7075 L1956.8054,36.9091 " fill="#A80036" style="stroke:#A80036;stroke-width:1.0;"/><ellipse cx="1611" cy="330.5" fill="#A80036" rx="3" ry="3" style="stroke:#A80036;stroke-width:1.0;stroke-dasharray:3.0,3.0;"/><path d="M1611,350.5 L1624,350.5 C1733.6698,350.5 1683.4721,212.3691 1779,158.5 C1834.6558,127.1152 1905.7938,117.2985 1963.2594,115.3611 " fill="none" style="stroke:#A80036;stroke-width:1.0;stroke-dasharray:3.0,3.0;"/><path d="M1963.3452,118.4231 L1965.5558,115.2967 L1963.1735,112.2991 L1970.9143,115.1465 L1963.3452,118.4231 " fill="#A80036" style="stroke:#A80036;stroke-width:1.0;"/><ellipse cx="1611" cy="350.5" fill="#A80036" rx="3" ry="3" style="stroke:#A80036;stroke-width:1.0;stroke-dasharray:3.0,3.0;"/><path d="M1611,371.5 L1624,371.5 C1714.7734,371.5 1696.2623,275.8399 1779,238.5 C1836.6091,212.5007 1906.8156,202.3971 1963.3112,198.8438 " fill="none" style="stroke:#A80036;stroke-width:1.0;stroke-dasharray:3.0,3.0;"/><path d="M1963.4872,201.8535 L1965.5685,198.7119 L1963.1353,195.8341 L1970.8356,198.404 L1963.4872,201.8535 " fill="#A80036" style="stroke:#A80036;stroke-width:1.0;"/><ellipse cx="1611" cy="371.5" fill="#A80036" rx="3" ry="3" style="stroke:#A80036;stroke-width:1.0;stroke-dasharray:3.0,3.0;"/><path d="M1611,391.5 L1624,391.5 C1694.8244,391.5 1709.8371,369.7509 1779,354.5 C1790.078,352.0572 1801.4057,349.5988 1812.8552,347.1462 " fill="none" style="stroke:#A80036;stroke-width:1.0;stroke-dasharray:3.0,3.0;"/><path d="M1813.4995,350.1622 L1815.1172,346.663 L1812.2109,344.1301 L1820.3953,345.5355 L1813.4995,350.1622 " fill="#A80036" style="stroke:#A80036;stroke-width:1.0;"/><ellipse cx="1611" cy="391.5" fill="#A80036" rx="3" ry="3" style="stroke:#A80036;stroke-width:1.0;stroke-dasharray:3.0,3.0;"/><path d="M1611,412.5 L1624,412.5 C1671.7539,412.5 1722.4131,412.5 1771.7354,412.5 " fill="none" style="stroke:#A80036;stroke-width:1.0;stroke-dasharray:3.0,3.0;"/><path d="M1771.7354,415.5339 L1774.0108,412.5 L1771.7354,409.4661 L1779.32,412.5 L1771.7354,415.5339 " fill="#A80036" style="stroke:#A80036;stroke-width:1.0;"/><ellipse cx="1611" cy="412.5" fill="#A80036" rx="3" ry="3" style="stroke:#A80036;stroke-width:1.0;stroke-dasharray:3.0,3.0;"/><path d="M1611,433.5 L1624,433.5 C1626.9079,433.5 1720.8185,456.4165 1821.2758,481.1369 " fill="none" style="stroke:#A80036;stroke-width:1.0;stroke-dasharray:3.0,3.0;"/><path d="M1820.5322,484.158 L1823.5416,481.6946 L1822.0194,478.1158 L1828.8286,482.9959 L1820.5322,484.158 " fill="#A80036" style="stroke:#A80036;stroke-width:1.0;"/><ellipse cx="1611" cy="433.5" fill="#A80036" rx="3" ry="3" style="stroke:#A80036;stroke-width:1.0;stroke-dasharray:3.0,3.0;"/><path d="M1611,453.5 L1624,453.5 C1722.3709,453.5 1694.2254,561.5989 1779,611.5 C1788.757,617.2433 1798.9464,622.5824 1809.4222,627.5445 " fill="none" style="stroke:#A80036;stroke-width:1.0;stroke-dasharray:3.0,3.0;"/><path d="M1808.1395,630.3141 L1811.4994,628.5066 L1810.7049,624.775 L1816.3461,630.7513 L1808.1395,630.3141 " fill="#A80036" style="stroke:#A80036;stroke-width:1.0;"/><ellipse cx="1611" cy="453.5" fill="#A80036" rx="3" ry="3" style="stroke:#A80036;stroke-width:1.0;stroke-dasharray:3.0,3.0;"/><path d="M1611,474.5 L1624,474.5 C1731.277,474.5 1695.5586,588.2833 1743,684.5 C1761.1432,721.2965 1746.7939,744.0849 1779,769.5 C1780.9795,771.0621 1782.991,772.5815 1785.0324,774.0593 " fill="none" style="stroke:#A80036;stroke-width:1.0;stroke-dasharray:3.0,3.0;"/><path d="M1783.3086,776.5442 L1786.8961,775.3521 L1786.7562,771.5744 L1791.2446,778.3688 L1783.3086,776.5442 " fill="#A80036" style="stroke:#A80036;stroke-width:1.0;"/><ellipse cx="1611" cy="474.5" fill="#A80036" rx="3" ry="3" style="stroke:#A80036;stroke-width:1.0;stroke-dasharray:3.0,3.0;"/><path d="M1292,635.5 L1305,635.5 C1390.4452,635.5 1456.1336,557.1997 1496.2571,491.3806 " fill="none" style="stroke:#A80036;stroke-width:1.0;stroke-dasharray:3.0,3.0;"/><path d="M1498.9506,492.9979 L1497.4701,489.3606 L1493.5637,489.7633 L1500.3004,484.6471 L1498.9506,492.9979 " fill="#A80036" style="stroke:#A80036;stroke-width:1.0;"/><ellipse cx="1292" cy="635.5" fill="#A80036" rx="3" ry="3" style="stroke:#A80036;stroke-width:1.0;stroke-dasharray:3.0,3.0;"/><path d="M1592,703.5 L1605,703.5 C1667.5831,703.5 1697.3908,688.6463 1743,731.5 C1787.9419,773.7267 1732.0868,825.4748 1779,865.5 C1813.9585,895.3258 1860.7311,907.6059 1906.3333,911.0932 " fill="none" style="stroke:#A80036;stroke-width:1.0;stroke-dasharray:3.0,3.0;"/><path d="M1906.1324,914.1344 L1908.6142,911.2439 L1906.5342,908.052 L1913.9362,911.5954 L1906.1324,914.1344 " fill="#A80036" style="stroke:#A80036;stroke-width:1.0;"/><ellipse cx="1592" cy="703.5" fill="#A80036" rx="3" ry="3" style="stroke:#A80036;stroke-width:1.0;stroke-dasharray:3.0,3.0;"/><path d="M1292,693.5 L1305,693.5 C1361.3273,693.5 1425.149,696.3787 1472.2081,699.0471 " fill="none" style="stroke:#A80036;stroke-width:1.0;stroke-dasharray:3.0,3.0;"/><path d="M1472.0308,702.1268 L1474.5179,699.18 L1472.3853,695.9674 L1479.9074,699.4902 L1472.0308,702.1268 " fill="#A80036" style="stroke:#A80036;stroke-width:1.0;"/><ellipse cx="1292" cy="693.5" fill="#A80036" rx="3" ry="3" style="stroke:#A80036;stroke-width:1.0;stroke-dasharray:3.0,3.0;"/><path d="M1292,750.5 L1305,750.5 C1314.3756,750.5 1323.9607,750.5 1333.643,750.5 " fill="none" style="stroke:#A80036;stroke-width:1.0;stroke-dasharray:3.0,3.0;"/><path d="M1333.643,753.6135 L1335.9781,750.5 L1333.643,747.3865 L1341.4266,750.5 L1333.643,753.6135 " fill="#A80036" style="stroke:#A80036;stroke-width:1.0;"/><ellipse cx="1292" cy="750.5" fill="#A80036" rx="3" ry="3" style="stroke:#A80036;stroke-width:1.0;stroke-dasharray:3.0,3.0;"/><path d="M512,636.5 L525,636.5 C588.2135,636.5 656.0096,636.5 720.4154,636.5 " fill="none" style="stroke:#A80036;stroke-width:1.0;stroke-dasharray:3.0,3.0;"/><path d="M720.4154,639.6348 L722.7665,636.5 L720.4154,633.3652 L728.2524,636.5 L720.4154,639.6348 " fill="#A80036" style="stroke:#A80036;stroke-width:1.0;"/><ellipse cx="512" cy="636.5" fill="#A80036" rx="3" ry="3" style="stroke:#A80036;stroke-width:1.0;stroke-dasharray:3.0,3.0;"/><path d="M95,612.5 L108,612.5 C124.1536,612.5 127.9333,615.8271 144,617.5 C196.8135,622.9989 255.5458,627.3178 304.9629,630.4389 " fill="none" style="stroke:#A80036;stroke-width:1.0;stroke-dasharray:3.0,3.0;"/><path d="M304.7744,633.4528 L307.2233,630.5803 L305.1514,627.425 L312.4976,630.9101 L304.7744,633.4528 " fill="#A80036" style="stroke:#A80036;stroke-width:1.0;"/><ellipse cx="95" cy="612.5" fill="#A80036" rx="3" ry="3" style="stroke:#A80036;stroke-width:1.0;stroke-dasharray:3.0,3.0;"/><!--MD5=[9eb6f9f009e844b4d0e22c3dac011bcf]
@startjson
{
  "info": {
    "title": "OMA LwM2M Addressable Text Display (Object ID 3341)",
    "version": "2021-02-11",
    "copyright": "Copyright (c) 2018-2020 IPSO",
    "license": "https://github.com/one-data-model/oneDM/blob/master/LICENSE"
  },
  "sdfObject": {
    "Addressable_Text_Display": {
      "label": "Addressable Text Display",
      "description": "This IPSO object is used to send text to a text-only or text mode\\ngraphics display. Writing a string of text to the text resource\\ncauses it to be displayed at the selected X and Y locations on the\\ndisplay. If X or Y are set to a value greater than the size of the\\ndisplay, the position \"wraps around\" to the modulus of the setting\\nand the display size. Likewise, if the text string overflows the\\ndisplay size, the text \"wraps around\" and displays on the next line\\ndown or, if the last line has been written, wraps around to the top\\nof the display. Brightness and Contrast controls are provided to\\nallow control of various display types including STN and DSTN type\\nLCD character displays. Writing an empty payload to the Clear Display\\nresource causes the display to be erased.",
      "sdfProperty": {
        "Text": {
          "label": "Text",
          "description": "A string of text.",
          "type": "string"
        },
        "X_Coordinate": {
          "label": "X Coordinate",
          "description": "X Coordinate.",
          "type": "integer"
        },
        "Y_Coordinate": {
          "label": "Y Coordinate",
          "description": "Y Coordinate.",
          "type": "integer"
        },
        "Max_X_Coordinate": {
          "label": "Max X Coordinate",
          "description": "The highest X coordinate the display supports before wrapping to the\\nnext line.",
          "writable": false,
          "type": "integer"
        },
        "Max_Y_Coordinate": {
          "label": "Max Y Coordinate",
          "description": "The highest Y coordinate the display supports before wrapping to the\\nnext line.",
          "writable": false,
          "type": "integer"
        },
        "Level": {
          "label": "Level",
          "description": "Used to represent a level control such as audio volume.",
          "type": "number",
          "unit": "/100",
          "minimum": 0,
          "maximum": 100
        },
        "Contrast": {
          "label": "Contrast",
          "description": "Proportional control, integer value between 0 and 100 as a\\npercentage.",
          "type": "number",
          "unit": "/100",
          "minimum": 0,
          "maximum": 100
        },
        "Application_Type": {
          "label": "Application Type",
          "description": "The application type of the sensor or actuator as a string depending\\non the use case.",
          "type": "string"
        }
      },
      "sdfAction": {
        "Clear_Display": {
          "label": "Clear Display",
          "description": "Command to clear the display."
        }
      },
      "sdfRequired": [
        "#/sdfObject/Addressable_Text_Display/sdfProperty/Text"
      ]
    }
  }
}
@endjson

PlantUML version 1.2021.2(Sun Mar 07 13:10:27 EET 2021)
(GPL source distribution)
Java Runtime: OpenJDK Runtime Environment
JVM: OpenJDK 64-Bit Server VM
Default Encoding: UTF-8
Language: en
Country: FI
--></g></svg>