<?xml version="1.0" encoding="UTF-8" standalone="no"?><svg xmlns="http://www.w3.org/2000/svg" xmlns:xlink="http://www.w3.org/1999/xlink" contentScriptType="application/ecmascript" contentStyleType="text/css" height="369px" preserveAspectRatio="none" style="width:2586px;height:369px;" version="1.1" viewBox="0 0 2586 369" width="2586px" zoomAndPan="magnify"><defs/><g><rect fill="#FEFECE" height="40.9766" rx="5" ry="5" style="stroke:#FEFECE;stroke-width:1.5;" width="97" x="10" y="123"/><text fill="#000000" font-family="sans-serif" font-size="14" lengthAdjust="spacing" textLength="27" x="15" y="138.5352">info</text><text fill="#000000" font-family="sans-serif" font-size="14" lengthAdjust="spacing" textLength="0" x="102" y="138.5352"/><line style="stroke:#A80036;stroke-width:1.0;" x1="85" x2="85" y1="123" y2="143.4883"/><line style="stroke:#A80036;stroke-width:1.0;" x1="10" x2="107" y1="143.4883" y2="143.4883"/><text fill="#000000" font-family="sans-serif" font-size="14" lengthAdjust="spacing" textLength="65" x="15" y="159.0234">sdfObject</text><text fill="#000000" font-family="sans-serif" font-size="14" lengthAdjust="spacing" textLength="0" x="102" y="159.0234"/><line style="stroke:#A80036;stroke-width:1.0;" x1="85" x2="85" y1="143.4883" y2="163.9766"/><rect fill="none" height="40.9766" rx="5" ry="5" style="stroke:#A80036;stroke-width:1.5;" width="97" x="10" y="123"/><rect fill="#FEFECE" height="81.9531" rx="5" ry="5" style="stroke:#FEFECE;stroke-width:1.5;" width="655" x="144" y="67.5"/><text fill="#000000" font-family="sans-serif" font-size="14" lengthAdjust="spacing" textLength="65" x="149" y="83.0352">copyright</text><text fill="#000000" font-family="sans-serif" font-size="14" lengthAdjust="spacing" textLength="570" x="224" y="83.0352">copyright 2016-2017, 2019 Open Connectivity Foundation, Inc. All rights reserved.</text><line style="stroke:#A80036;stroke-width:1.0;" x1="219" x2="219" y1="67.5" y2="87.9883"/><line style="stroke:#A80036;stroke-width:1.0;" x1="144" x2="799" y1="87.9883" y2="87.9883"/><text fill="#000000" font-family="sans-serif" font-size="14" lengthAdjust="spacing" textLength="47" x="149" y="103.5234">license</text><text fill="#000000" font-family="sans-serif" font-size="14" lengthAdjust="spacing" textLength="462" x="224" y="103.5234">https://github.com/one-data-model/oneDM/blob/master/LICENSE</text><line style="stroke:#A80036;stroke-width:1.0;" x1="219" x2="219" y1="87.9883" y2="108.4766"/><line style="stroke:#A80036;stroke-width:1.0;" x1="144" x2="799" y1="108.4766" y2="108.4766"/><text fill="#000000" font-family="sans-serif" font-size="14" lengthAdjust="spacing" textLength="26" x="149" y="124.0117">title</text><text fill="#000000" font-family="sans-serif" font-size="14" lengthAdjust="spacing" textLength="140" x="224" y="124.0117">Colour Temperature</text><line style="stroke:#A80036;stroke-width:1.0;" x1="219" x2="219" y1="108.4766" y2="128.9648"/><line style="stroke:#A80036;stroke-width:1.0;" x1="144" x2="799" y1="128.9648" y2="128.9648"/><text fill="#000000" font-family="sans-serif" font-size="14" lengthAdjust="spacing" textLength="50" x="149" y="144.5">version</text><text fill="#000000" font-family="sans-serif" font-size="14" lengthAdjust="spacing" textLength="88" x="224" y="144.5">2019-02-15</text><line style="stroke:#A80036;stroke-width:1.0;" x1="219" x2="219" y1="128.9648" y2="149.4531"/><rect fill="none" height="81.9531" rx="5" ry="5" style="stroke:#A80036;stroke-width:1.5;" width="655" x="144" y="67.5"/><rect fill="#FEFECE" height="20.4883" rx="5" ry="5" style="stroke:#FEFECE;stroke-width:1.5;" width="209" x="367" y="167.5"/><text fill="#000000" font-family="sans-serif" font-size="14" lengthAdjust="spacing" textLength="177" x="372" y="183.0352">colour.colourtemperature</text><text fill="#000000" font-family="sans-serif" font-size="14" lengthAdjust="spacing" textLength="0" x="571" y="183.0352"/><line style="stroke:#A80036;stroke-width:1.0;" x1="554" x2="554" y1="167.5" y2="187.9883"/><rect fill="none" height="20.4883" rx="5" ry="5" style="stroke:#A80036;stroke-width:1.5;" width="209" x="367" y="167.5"/><rect fill="#FEFECE" height="127.418" rx="5" ry="5" style="stroke:#FEFECE;stroke-width:1.5;" width="597" x="836" y="114"/><text fill="#000000" font-family="sans-serif" font-size="14" lengthAdjust="spacing" textLength="77" x="841" y="129.5352">description</text><text fill="#000000" font-family="sans-serif" font-size="14" lengthAdjust="spacing" textLength="418" x="934" y="129.5352">This Resource describes the colour using colour temperature</text><text fill="#000000" font-family="sans-serif" font-size="14" lengthAdjust="spacing" textLength="460" x="934" y="146.0234">conventions. The Property "ct" is the Mired colour temperature. The</text><text fill="#000000" font-family="sans-serif" font-size="14" lengthAdjust="spacing" textLength="401" x="934" y="162.5117">equivalent value in Kelvin is obtained by Colour Temp(K) =</text><text fill="#000000" font-family="sans-serif" font-size="14" lengthAdjust="spacing" textLength="494" x="934" y="179">1,000,000/Colour Temp(Mired) THe Resource provides the colour using</text><text fill="#000000" font-family="sans-serif" font-size="14" lengthAdjust="spacing" textLength="224" x="934" y="195.4883">colour temperature conventions.</text><line style="stroke:#A80036;stroke-width:1.0;" x1="929" x2="929" y1="114" y2="200.4414"/><line style="stroke:#A80036;stroke-width:1.0;" x1="836" x2="1433" y1="200.4414" y2="200.4414"/><text fill="#000000" font-family="sans-serif" font-size="14" lengthAdjust="spacing" textLength="79" x="841" y="215.9766">sdfProperty</text><text fill="#000000" font-family="sans-serif" font-size="14" lengthAdjust="spacing" textLength="0" x="946" y="215.9766"/><line style="stroke:#A80036;stroke-width:1.0;" x1="929" x2="929" y1="200.4414" y2="220.9297"/><line style="stroke:#A80036;stroke-width:1.0;" x1="836" x2="1433" y1="220.9297" y2="220.9297"/><text fill="#000000" font-family="sans-serif" font-size="14" lengthAdjust="spacing" textLength="83" x="841" y="236.4648">sdfRequired</text><text fill="#000000" font-family="sans-serif" font-size="14" lengthAdjust="spacing" textLength="0" x="946" y="236.4648"/><line style="stroke:#A80036;stroke-width:1.0;" x1="929" x2="929" y1="220.9297" y2="241.418"/><rect fill="none" height="127.418" rx="5" ry="5" style="stroke:#A80036;stroke-width:1.5;" width="597" x="836" y="114"/><rect fill="#FEFECE" height="61.4648" rx="5" ry="5" style="stroke:#FEFECE;stroke-width:1.5;" width="72" x="1624" y="138"/><text fill="#000000" font-family="sans-serif" font-size="14" lengthAdjust="spacing" textLength="12" x="1629" y="153.5352">ct</text><text fill="#000000" font-family="sans-serif" font-size="14" lengthAdjust="spacing" textLength="0" x="1691" y="153.5352"/><line style="stroke:#A80036;stroke-width:1.0;" x1="1674" x2="1674" y1="138" y2="158.4883"/><line style="stroke:#A80036;stroke-width:1.0;" x1="1624" x2="1696" y1="158.4883" y2="158.4883"/><text fill="#000000" font-family="sans-serif" font-size="14" lengthAdjust="spacing" textLength="40" x="1629" y="174.0234">range</text><text fill="#000000" font-family="sans-serif" font-size="14" lengthAdjust="spacing" textLength="0" x="1691" y="174.0234"/><line style="stroke:#A80036;stroke-width:1.0;" x1="1674" x2="1674" y1="158.4883" y2="178.9766"/><line style="stroke:#A80036;stroke-width:1.0;" x1="1624" x2="1696" y1="178.9766" y2="178.9766"/><text fill="#000000" font-family="sans-serif" font-size="14" lengthAdjust="spacing" textLength="29" x="1629" y="194.5117">step</text><text fill="#000000" font-family="sans-serif" font-size="14" lengthAdjust="spacing" textLength="0" x="1691" y="194.5117"/><line style="stroke:#A80036;stroke-width:1.0;" x1="1674" x2="1674" y1="178.9766" y2="199.4648"/><rect fill="none" height="61.4648" rx="5" ry="5" style="stroke:#A80036;stroke-width:1.5;" width="72" x="1624" y="138"/><rect fill="#FEFECE" height="61.4648" rx="5" ry="5" style="stroke:#FEFECE;stroke-width:1.5;" width="307" x="2009.5" y="10"/><text fill="#000000" font-family="sans-serif" font-size="14" lengthAdjust="spacing" textLength="77" x="2014.5" y="25.5352">description</text><text fill="#000000" font-family="sans-serif" font-size="14" lengthAdjust="spacing" textLength="210" x="2101.5" y="25.5352">The Mired colour temperature.</text><line style="stroke:#A80036;stroke-width:1.0;" x1="2096.5" x2="2096.5" y1="10" y2="30.4883"/><line style="stroke:#A80036;stroke-width:1.0;" x1="2009.5" x2="2316.5" y1="30.4883" y2="30.4883"/><text fill="#000000" font-family="sans-serif" font-size="14" lengthAdjust="spacing" textLength="65" x="2014.5" y="46.0234">minimum</text><text fill="#000000" font-family="sans-serif" font-size="14" lengthAdjust="spacing" textLength="9" x="2101.5" y="46.0234">0</text><line style="stroke:#A80036;stroke-width:1.0;" x1="2096.5" x2="2096.5" y1="30.4883" y2="50.9766"/><line style="stroke:#A80036;stroke-width:1.0;" x1="2009.5" x2="2316.5" y1="50.9766" y2="50.9766"/><text fill="#000000" font-family="sans-serif" font-size="14" lengthAdjust="spacing" textLength="29" x="2014.5" y="66.5117">type</text><text fill="#000000" font-family="sans-serif" font-size="14" lengthAdjust="spacing" textLength="49" x="2101.5" y="66.5117">integer</text><line style="stroke:#A80036;stroke-width:1.0;" x1="2096.5" x2="2096.5" y1="50.9766" y2="71.4648"/><rect fill="none" height="61.4648" rx="5" ry="5" style="stroke:#A80036;stroke-width:1.5;" width="307" x="2009.5" y="10"/><rect fill="#FEFECE" height="155.9063" rx="5" ry="5" style="stroke:#FEFECE;stroke-width:1.5;" width="552" x="1887" y="89.5"/><text fill="#000000" font-family="sans-serif" font-size="14" lengthAdjust="spacing" textLength="29" x="1892" y="105.0352">type</text><text fill="#000000" font-family="sans-serif" font-size="14" lengthAdjust="spacing" textLength="35" x="1979" y="105.0352">array</text><line style="stroke:#A80036;stroke-width:1.0;" x1="1974" x2="1974" y1="89.5" y2="109.9883"/><line style="stroke:#A80036;stroke-width:1.0;" x1="1887" x2="2439" y1="109.9883" y2="109.9883"/><text fill="#000000" font-family="sans-serif" font-size="14" lengthAdjust="spacing" textLength="77" x="1892" y="125.5234">description</text><text fill="#000000" font-family="sans-serif" font-size="14" lengthAdjust="spacing" textLength="455" x="1979" y="125.5234">The valid range for the Property in the Resource as an integer. The</text><text fill="#000000" font-family="sans-serif" font-size="14" lengthAdjust="spacing" textLength="439" x="1979" y="142.0117">first value in the array is the minimum value, the second value in</text><text fill="#000000" font-family="sans-serif" font-size="14" lengthAdjust="spacing" textLength="219" x="1979" y="158.5">the array is the maximum value.</text><line style="stroke:#A80036;stroke-width:1.0;" x1="1974" x2="1974" y1="109.9883" y2="163.4531"/><line style="stroke:#A80036;stroke-width:1.0;" x1="1887" x2="2439" y1="163.4531" y2="163.4531"/><text fill="#000000" font-family="sans-serif" font-size="14" lengthAdjust="spacing" textLength="55" x="1892" y="178.9883">writable</text><text fill="#000000" font-family="sans-serif" font-size="14" lengthAdjust="spacing" textLength="48" x="1979" y="178.9883">☐ false</text><line style="stroke:#A80036;stroke-width:1.0;" x1="1974" x2="1974" y1="163.4531" y2="183.9414"/><line style="stroke:#A80036;stroke-width:1.0;" x1="1887" x2="2439" y1="183.9414" y2="183.9414"/><text fill="#000000" font-family="sans-serif" font-size="14" lengthAdjust="spacing" textLength="63" x="1892" y="199.4766">minItems</text><text fill="#000000" font-family="sans-serif" font-size="14" lengthAdjust="spacing" textLength="9" x="1979" y="199.4766">2</text><line style="stroke:#A80036;stroke-width:1.0;" x1="1974" x2="1974" y1="183.9414" y2="204.4297"/><line style="stroke:#A80036;stroke-width:1.0;" x1="1887" x2="2439" y1="204.4297" y2="204.4297"/><text fill="#000000" font-family="sans-serif" font-size="14" lengthAdjust="spacing" textLength="67" x="1892" y="219.9648">maxItems</text><text fill="#000000" font-family="sans-serif" font-size="14" lengthAdjust="spacing" textLength="9" x="1979" y="219.9648">2</text><line style="stroke:#A80036;stroke-width:1.0;" x1="1974" x2="1974" y1="204.4297" y2="224.918"/><line style="stroke:#A80036;stroke-width:1.0;" x1="1887" x2="2439" y1="224.918" y2="224.918"/><text fill="#000000" font-family="sans-serif" font-size="14" lengthAdjust="spacing" textLength="37" x="1892" y="240.4531">items</text><text fill="#000000" font-family="sans-serif" font-size="14" lengthAdjust="spacing" textLength="0" x="1991" y="240.4531"/><line style="stroke:#A80036;stroke-width:1.0;" x1="1974" x2="1974" y1="224.918" y2="245.4063"/><rect fill="none" height="155.9063" rx="5" ry="5" style="stroke:#A80036;stroke-width:1.5;" width="552" x="1887" y="89.5"/><rect fill="#FEFECE" height="20.4883" rx="5" ry="5" style="stroke:#FEFECE;stroke-width:1.5;" width="98" x="2476" y="222.5"/><text fill="#000000" font-family="sans-serif" font-size="14" lengthAdjust="spacing" textLength="29" x="2481" y="238.0352">type</text><text fill="#000000" font-family="sans-serif" font-size="14" lengthAdjust="spacing" textLength="49" x="2520" y="238.0352">integer</text><line style="stroke:#A80036;stroke-width:1.0;" x1="2515" x2="2515" y1="222.5" y2="242.9883"/><rect fill="none" height="20.4883" rx="5" ry="5" style="stroke:#A80036;stroke-width:1.5;" width="98" x="2476" y="222.5"/><rect fill="#FEFECE" height="94.4414" rx="5" ry="5" style="stroke:#FEFECE;stroke-width:1.5;" width="549" x="1888.5" y="263.5"/><text fill="#000000" font-family="sans-serif" font-size="14" lengthAdjust="spacing" textLength="77" x="1893.5" y="279.0352">description</text><text fill="#000000" font-family="sans-serif" font-size="14" lengthAdjust="spacing" textLength="448" x="1980.5" y="279.0352">Step value across the defined range when the range is an integer.</text><text fill="#000000" font-family="sans-serif" font-size="14" lengthAdjust="spacing" textLength="449" x="1980.5" y="295.5234">This is the increment for valid values across the range; so if range</text><text fill="#000000" font-family="sans-serif" font-size="14" lengthAdjust="spacing" textLength="376" x="1980.5" y="312.0117">is 0..10 and step is 2 then valid values are 0,2,4,6,8,10.</text><line style="stroke:#A80036;stroke-width:1.0;" x1="1975.5" x2="1975.5" y1="263.5" y2="316.9648"/><line style="stroke:#A80036;stroke-width:1.0;" x1="1888.5" x2="2437.5" y1="316.9648" y2="316.9648"/><text fill="#000000" font-family="sans-serif" font-size="14" lengthAdjust="spacing" textLength="55" x="1893.5" y="332.5">writable</text><text fill="#000000" font-family="sans-serif" font-size="14" lengthAdjust="spacing" textLength="48" x="1980.5" y="332.5">☐ false</text><line style="stroke:#A80036;stroke-width:1.0;" x1="1975.5" x2="1975.5" y1="316.9648" y2="337.4531"/><line style="stroke:#A80036;stroke-width:1.0;" x1="1888.5" x2="2437.5" y1="337.4531" y2="337.4531"/><text fill="#000000" font-family="sans-serif" font-size="14" lengthAdjust="spacing" textLength="29" x="1893.5" y="352.9883">type</text><text fill="#000000" font-family="sans-serif" font-size="14" lengthAdjust="spacing" textLength="49" x="1980.5" y="352.9883">integer</text><line style="stroke:#A80036;stroke-width:1.0;" x1="1975.5" x2="1975.5" y1="337.4531" y2="357.9414"/><rect fill="none" height="94.4414" rx="5" ry="5" style="stroke:#A80036;stroke-width:1.5;" width="549" x="1888.5" y="263.5"/><rect fill="#FEFECE" height="20.4883" rx="5" ry="5" style="stroke:#FEFECE;stroke-width:1.5;" width="380" x="1470" y="217.5"/><text fill="#000000" font-family="sans-serif" font-size="14" lengthAdjust="spacing" textLength="370" x="1475" y="233.0352">#/sdfObject/colour.colourtemperature/sdfProperty/ct</text><rect fill="none" height="20.4883" rx="5" ry="5" style="stroke:#A80036;stroke-width:1.5;" width="380" x="1470" y="217.5"/><path d="M95,132.5 L108,132.5 C117.3442,132.5 126.8208,132.4198 136.3833,132.2688 " fill="none" style="stroke:#A80036;stroke-width:1.0;stroke-dasharray:3.0,3.0;"/><path d="M136.4378,135.3434 L138.6892,132.2279 L136.3288,129.1942 L144.0697,132.1326 L136.4378,135.3434 " fill="#A80036" style="stroke:#A80036;stroke-width:1.0;"/><ellipse cx="95" cy="132.5" fill="#A80036" rx="3" ry="3" style="stroke:#A80036;stroke-width:1.0;stroke-dasharray:3.0,3.0;"/><path d="M1684.5,147.5 L1697.5,147.5 C1786.8314,147.5 1800.272,101.909 1887,80.5 C1923.9518,71.3784 1964.2396,64.0836 2002.3144,58.3548 " fill="none" style="stroke:#A80036;stroke-width:1.0;stroke-dasharray:3.0,3.0;"/><path d="M2002.7644,61.3883 L2004.5896,58.0173 L2001.8645,55.3213 L2009.8982,57.2298 L2002.7644,61.3883 " fill="#A80036" style="stroke:#A80036;stroke-width:1.0;"/><ellipse cx="1684.5" cy="147.5" fill="#A80036" rx="3" ry="3" style="stroke:#A80036;stroke-width:1.0;stroke-dasharray:3.0,3.0;"/><path d="M2427,232.5 L2440,232.5 C2449.2605,232.5 2459.0919,232.5 2468.6496,232.5 " fill="none" style="stroke:#A80036;stroke-width:1.0;stroke-dasharray:3.0,3.0;"/><path d="M2468.6496,235.5361 L2470.9267,232.5 L2468.6496,229.4639 L2476.2398,232.5 L2468.6496,235.5361 " fill="#A80036" style="stroke:#A80036;stroke-width:1.0;"/><ellipse cx="2427" cy="232.5" fill="#A80036" rx="3" ry="3" style="stroke:#A80036;stroke-width:1.0;stroke-dasharray:3.0,3.0;"/><path d="M1684.5,167.5 L1697.5,167.5 C1756.4345,167.5 1819.5705,167.5 1879.7192,167.5 " fill="none" style="stroke:#A80036;stroke-width:1.0;stroke-dasharray:3.0,3.0;"/><path d="M1879.7192,170.5803 L1882.0294,167.5 L1879.7192,164.4197 L1887.4199,167.5 L1879.7192,170.5803 " fill="#A80036" style="stroke:#A80036;stroke-width:1.0;"/><ellipse cx="1684.5" cy="167.5" fill="#A80036" rx="3" ry="3" style="stroke:#A80036;stroke-width:1.0;stroke-dasharray:3.0,3.0;"/><path d="M1684.5,188.5 L1697.5,188.5 C1766.2989,188.5 1791.2321,174.4253 1851,208.5 C1873.5532,221.358 1864.9172,240.85 1887,254.5 C1889.8608,256.2683 1892.7671,257.982 1895.7146,259.6428 " fill="none" style="stroke:#A80036;stroke-width:1.0;stroke-dasharray:3.0,3.0;"/><path d="M1894.2027,262.4226 L1897.7995,260.7767 L1897.2264,256.8629 L1902.6643,263.4225 L1894.2027,262.4226 " fill="#A80036" style="stroke:#A80036;stroke-width:1.0;"/><ellipse cx="1684.5" cy="188.5" fill="#A80036" rx="3" ry="3" style="stroke:#A80036;stroke-width:1.0;stroke-dasharray:3.0,3.0;"/><path d="M1421,176.5 L1434,176.5 C1497.6944,176.5 1571.4451,173.2729 1616.7841,170.9179 " fill="none" style="stroke:#A80036;stroke-width:1.0;stroke-dasharray:3.0,3.0;"/><path d="M1616.9438,173.9483 L1619.0569,170.7982 L1616.6245,167.8875 L1624.3602,170.5187 L1616.9438,173.9483 " fill="#A80036" style="stroke:#A80036;stroke-width:1.0;"/><ellipse cx="1421" cy="176.5" fill="#A80036" rx="3" ry="3" style="stroke:#A80036;stroke-width:1.0;stroke-dasharray:3.0,3.0;"/><path d="M1421,219.5 L1434,219.5 C1443.3505,219.5 1452.9177,219.5695 1462.5799,219.6957 " fill="none" style="stroke:#A80036;stroke-width:1.0;stroke-dasharray:3.0,3.0;"/><path d="M1462.5347,222.8025 L1464.91,219.7296 L1462.6251,216.5889 L1470.3469,219.8087 L1462.5347,222.8025 " fill="#A80036" style="stroke:#A80036;stroke-width:1.0;"/><ellipse cx="1421" cy="219.5" fill="#A80036" rx="3" ry="3" style="stroke:#A80036;stroke-width:1.0;stroke-dasharray:3.0,3.0;"/><path d="M565,177.5 L578,177.5 C659.2379,177.5 747.1526,177.5 828.5741,177.5 " fill="none" style="stroke:#A80036;stroke-width:1.0;stroke-dasharray:3.0,3.0;"/><path d="M828.5741,180.6435 L830.9318,177.5 L828.5741,174.3565 L836.4329,177.5 L828.5741,180.6435 " fill="#A80036" style="stroke:#A80036;stroke-width:1.0;"/><ellipse cx="565" cy="177.5" fill="#A80036" rx="3" ry="3" style="stroke:#A80036;stroke-width:1.0;stroke-dasharray:3.0,3.0;"/><path d="M95,153.5 L108,153.5 C124.1536,153.5 127.924,156.9191 144,158.5 C215.6495,165.5458 296.4071,170.2696 359.7405,173.2448 " fill="none" style="stroke:#A80036;stroke-width:1.0;stroke-dasharray:3.0,3.0;"/><path d="M359.5988,176.299 L362.0311,173.3511 L359.8822,170.1907 L367.3759,173.5991 L359.5988,176.299 " fill="#A80036" style="stroke:#A80036;stroke-width:1.0;"/><ellipse cx="95" cy="153.5" fill="#A80036" rx="3" ry="3" style="stroke:#A80036;stroke-width:1.0;stroke-dasharray:3.0,3.0;"/><!--MD5=[79f93ad5b0805593ecbe314de2c68127]
@startjson
{
  "info": {
    "copyright": "copyright 2016-2017, 2019 Open Connectivity Foundation, Inc. All rights reserved.",
    "license": "https://github.com/one-data-model/oneDM/blob/master/LICENSE",
    "title": "Colour Temperature",
    "version": "2019-02-15"
  },
  "sdfObject": {
    "colour.colourtemperature": {
      "description": "This Resource describes the colour using colour temperature\\nconventions. The Property \"ct\" is the Mired colour temperature. The\\nequivalent value in Kelvin is obtained by Colour Temp(K) =\\n1,000,000/Colour Temp(Mired) THe Resource provides the colour using\\ncolour temperature conventions.",
      "sdfProperty": {
        "ct": {
          "description": "The Mired colour temperature.",
          "minimum": 0,
          "type": "integer"
        },
        "range": {
          "type": "array",
          "description": "The valid range for the Property in the Resource as an integer. The\\nfirst value in the array is the minimum value, the second value in\\nthe array is the maximum value.",
          "writable": false,
          "minItems": 2,
          "maxItems": 2,
          "items": {
            "type": "integer"
          }
        },
        "step": {
          "description": "Step value across the defined range when the range is an integer. \\nThis is the increment for valid values across the range; so if range\\nis 0..10 and step is 2 then valid values are 0,2,4,6,8,10.",
          "writable": false,
          "type": "integer"
        }
      },
      "sdfRequired": [
        "#/sdfObject/colour.colourtemperature/sdfProperty/ct"
      ]
    }
  }
}
@endjson

PlantUML version 1.2021.2(Sun Mar 07 13:10:27 EET 2021)
(GPL source distribution)
Java Runtime: OpenJDK Runtime Environment
JVM: OpenJDK 64-Bit Server VM
Default Encoding: UTF-8
Language: en
Country: FI
--></g></svg>