<?xml version="1.0" encoding="UTF-8" standalone="no"?><svg xmlns="http://www.w3.org/2000/svg" xmlns:xlink="http://www.w3.org/1999/xlink" contentScriptType="application/ecmascript" contentStyleType="text/css" height="478px" preserveAspectRatio="none" style="width:2578px;height:478px;" version="1.1" viewBox="0 0 2578 478" width="2578px" zoomAndPan="magnify"><defs/><g><rect fill="#FEFECE" height="40.9766" rx="5" ry="5" style="stroke:#FEFECE;stroke-width:1.5;" width="97" x="10" y="179"/><text fill="#000000" font-family="sans-serif" font-size="14" lengthAdjust="spacing" textLength="27" x="15" y="194.5352">info</text><text fill="#000000" font-family="sans-serif" font-size="14" lengthAdjust="spacing" textLength="0" x="102" y="194.5352"/><line style="stroke:#A80036;stroke-width:1.0;" x1="85" x2="85" y1="179" y2="199.4883"/><line style="stroke:#A80036;stroke-width:1.0;" x1="10" x2="107" y1="199.4883" y2="199.4883"/><text fill="#000000" font-family="sans-serif" font-size="14" lengthAdjust="spacing" textLength="65" x="15" y="215.0234">sdfObject</text><text fill="#000000" font-family="sans-serif" font-size="14" lengthAdjust="spacing" textLength="0" x="102" y="215.0234"/><line style="stroke:#A80036;stroke-width:1.0;" x1="85" x2="85" y1="199.4883" y2="219.9766"/><rect fill="none" height="40.9766" rx="5" ry="5" style="stroke:#A80036;stroke-width:1.5;" width="97" x="10" y="179"/><rect fill="#FEFECE" height="81.9531" rx="5" ry="5" style="stroke:#FEFECE;stroke-width:1.5;" width="655" x="144" y="123.5"/><text fill="#000000" font-family="sans-serif" font-size="14" lengthAdjust="spacing" textLength="65" x="149" y="139.0352">copyright</text><text fill="#000000" font-family="sans-serif" font-size="14" lengthAdjust="spacing" textLength="570" x="224" y="139.0352">copyright 2016-2017, 2019 Open Connectivity Foundation, Inc. All rights reserved.</text><line style="stroke:#A80036;stroke-width:1.0;" x1="219" x2="219" y1="123.5" y2="143.9883"/><line style="stroke:#A80036;stroke-width:1.0;" x1="144" x2="799" y1="143.9883" y2="143.9883"/><text fill="#000000" font-family="sans-serif" font-size="14" lengthAdjust="spacing" textLength="47" x="149" y="159.5234">license</text><text fill="#000000" font-family="sans-serif" font-size="14" lengthAdjust="spacing" textLength="462" x="224" y="159.5234">https://github.com/one-data-model/oneDM/blob/master/LICENSE</text><line style="stroke:#A80036;stroke-width:1.0;" x1="219" x2="219" y1="143.9883" y2="164.4766"/><line style="stroke:#A80036;stroke-width:1.0;" x1="144" x2="799" y1="164.4766" y2="164.4766"/><text fill="#000000" font-family="sans-serif" font-size="14" lengthAdjust="spacing" textLength="26" x="149" y="180.0117">title</text><text fill="#000000" font-family="sans-serif" font-size="14" lengthAdjust="spacing" textLength="77" x="224" y="180.0117">Ramp Time</text><line style="stroke:#A80036;stroke-width:1.0;" x1="219" x2="219" y1="164.4766" y2="184.9648"/><line style="stroke:#A80036;stroke-width:1.0;" x1="144" x2="799" y1="184.9648" y2="184.9648"/><text fill="#000000" font-family="sans-serif" font-size="14" lengthAdjust="spacing" textLength="50" x="149" y="200.5">version</text><text fill="#000000" font-family="sans-serif" font-size="14" lengthAdjust="spacing" textLength="88" x="224" y="200.5">2019-02-15</text><line style="stroke:#A80036;stroke-width:1.0;" x1="219" x2="219" y1="184.9648" y2="205.4531"/><rect fill="none" height="81.9531" rx="5" ry="5" style="stroke:#A80036;stroke-width:1.5;" width="655" x="144" y="123.5"/><rect fill="#FEFECE" height="20.4883" rx="5" ry="5" style="stroke:#FEFECE;stroke-width:1.5;" width="133" x="405" y="223.5"/><text fill="#000000" font-family="sans-serif" font-size="14" lengthAdjust="spacing" textLength="101" x="410" y="239.0352">light.ramptime</text><text fill="#000000" font-family="sans-serif" font-size="14" lengthAdjust="spacing" textLength="0" x="533" y="239.0352"/><line style="stroke:#A80036;stroke-width:1.0;" x1="516" x2="516" y1="223.5" y2="243.9883"/><rect fill="none" height="20.4883" rx="5" ry="5" style="stroke:#A80036;stroke-width:1.5;" width="133" x="405" y="223.5"/><rect fill="#FEFECE" height="127.418" rx="5" ry="5" style="stroke:#FEFECE;stroke-width:1.5;" width="589" x="836" y="170"/><text fill="#000000" font-family="sans-serif" font-size="14" lengthAdjust="spacing" textLength="77" x="841" y="185.5352">description</text><text fill="#000000" font-family="sans-serif" font-size="14" lengthAdjust="spacing" textLength="469" x="934" y="185.5352">This Resource that describes the ramp time of a dimming function. It</text><text fill="#000000" font-family="sans-serif" font-size="14" lengthAdjust="spacing" textLength="482" x="934" y="202.0234">specifies the actual speed of changing between 2 dimming values. The</text><text fill="#000000" font-family="sans-serif" font-size="14" lengthAdjust="spacing" textLength="463" x="934" y="218.5117">Property "ramptime" is specified in milliseconds [ms]. When range is</text><text fill="#000000" font-family="sans-serif" font-size="14" lengthAdjust="spacing" textLength="486" x="934" y="235">omitted the maximum value is 100 ms. The ramp time of 0ms indicates</text><text fill="#000000" font-family="sans-serif" font-size="14" lengthAdjust="spacing" textLength="344" x="934" y="251.4883">the minimal delay possible by the implementation.</text><line style="stroke:#A80036;stroke-width:1.0;" x1="929" x2="929" y1="170" y2="256.4414"/><line style="stroke:#A80036;stroke-width:1.0;" x1="836" x2="1425" y1="256.4414" y2="256.4414"/><text fill="#000000" font-family="sans-serif" font-size="14" lengthAdjust="spacing" textLength="79" x="841" y="271.9766">sdfProperty</text><text fill="#000000" font-family="sans-serif" font-size="14" lengthAdjust="spacing" textLength="0" x="946" y="271.9766"/><line style="stroke:#A80036;stroke-width:1.0;" x1="929" x2="929" y1="256.4414" y2="276.9297"/><line style="stroke:#A80036;stroke-width:1.0;" x1="836" x2="1425" y1="276.9297" y2="276.9297"/><text fill="#000000" font-family="sans-serif" font-size="14" lengthAdjust="spacing" textLength="83" x="841" y="292.4648">sdfRequired</text><text fill="#000000" font-family="sans-serif" font-size="14" lengthAdjust="spacing" textLength="0" x="946" y="292.4648"/><line style="stroke:#A80036;stroke-width:1.0;" x1="929" x2="929" y1="276.9297" y2="297.418"/><rect fill="none" height="127.418" rx="5" ry="5" style="stroke:#A80036;stroke-width:1.5;" width="589" x="836" y="170"/><rect fill="#FEFECE" height="81.9531" rx="5" ry="5" style="stroke:#FEFECE;stroke-width:1.5;" width="102" x="1592" y="178.5"/><text fill="#000000" font-family="sans-serif" font-size="14" lengthAdjust="spacing" textLength="70" x="1597" y="194.0352">rampTime</text><text fill="#000000" font-family="sans-serif" font-size="14" lengthAdjust="spacing" textLength="0" x="1689" y="194.0352"/><line style="stroke:#A80036;stroke-width:1.0;" x1="1672" x2="1672" y1="178.5" y2="198.9883"/><line style="stroke:#A80036;stroke-width:1.0;" x1="1592" x2="1694" y1="198.9883" y2="198.9883"/><text fill="#000000" font-family="sans-serif" font-size="14" lengthAdjust="spacing" textLength="40" x="1597" y="214.5234">range</text><text fill="#000000" font-family="sans-serif" font-size="14" lengthAdjust="spacing" textLength="0" x="1689" y="214.5234"/><line style="stroke:#A80036;stroke-width:1.0;" x1="1672" x2="1672" y1="198.9883" y2="219.4766"/><line style="stroke:#A80036;stroke-width:1.0;" x1="1592" x2="1694" y1="219.4766" y2="219.4766"/><text fill="#000000" font-family="sans-serif" font-size="14" lengthAdjust="spacing" textLength="29" x="1597" y="235.0117">step</text><text fill="#000000" font-family="sans-serif" font-size="14" lengthAdjust="spacing" textLength="0" x="1689" y="235.0117"/><line style="stroke:#A80036;stroke-width:1.0;" x1="1672" x2="1672" y1="219.4766" y2="239.9648"/><line style="stroke:#A80036;stroke-width:1.0;" x1="1592" x2="1694" y1="239.9648" y2="239.9648"/><text fill="#000000" font-family="sans-serif" font-size="14" lengthAdjust="spacing" textLength="63" x="1597" y="255.5">precision</text><text fill="#000000" font-family="sans-serif" font-size="14" lengthAdjust="spacing" textLength="0" x="1689" y="255.5"/><line style="stroke:#A80036;stroke-width:1.0;" x1="1672" x2="1672" y1="239.9648" y2="260.4531"/><rect fill="none" height="81.9531" rx="5" ry="5" style="stroke:#A80036;stroke-width:1.5;" width="102" x="1592" y="178.5"/><rect fill="#FEFECE" height="40.9766" rx="5" ry="5" style="stroke:#FEFECE;stroke-width:1.5;" width="490" x="1901" y="10"/><text fill="#000000" font-family="sans-serif" font-size="14" lengthAdjust="spacing" textLength="77" x="1906" y="25.5352">description</text><text fill="#000000" font-family="sans-serif" font-size="14" lengthAdjust="spacing" textLength="393" x="1993" y="25.5352">The actual speed of changing between 2 dimming values.</text><line style="stroke:#A80036;stroke-width:1.0;" x1="1988" x2="1988" y1="10" y2="30.4883"/><line style="stroke:#A80036;stroke-width:1.0;" x1="1901" x2="2391" y1="30.4883" y2="30.4883"/><text fill="#000000" font-family="sans-serif" font-size="14" lengthAdjust="spacing" textLength="29" x="1906" y="46.0234">type</text><text fill="#000000" font-family="sans-serif" font-size="14" lengthAdjust="spacing" textLength="49" x="1993" y="46.0234">integer</text><line style="stroke:#A80036;stroke-width:1.0;" x1="1988" x2="1988" y1="30.4883" y2="50.9766"/><rect fill="none" height="40.9766" rx="5" ry="5" style="stroke:#A80036;stroke-width:1.5;" width="490" x="1901" y="10"/><rect fill="#FEFECE" height="155.9063" rx="5" ry="5" style="stroke:#FEFECE;stroke-width:1.5;" width="552" x="1870" y="69.5"/><text fill="#000000" font-family="sans-serif" font-size="14" lengthAdjust="spacing" textLength="29" x="1875" y="85.0352">type</text><text fill="#000000" font-family="sans-serif" font-size="14" lengthAdjust="spacing" textLength="35" x="1962" y="85.0352">array</text><line style="stroke:#A80036;stroke-width:1.0;" x1="1957" x2="1957" y1="69.5" y2="89.9883"/><line style="stroke:#A80036;stroke-width:1.0;" x1="1870" x2="2422" y1="89.9883" y2="89.9883"/><text fill="#000000" font-family="sans-serif" font-size="14" lengthAdjust="spacing" textLength="77" x="1875" y="105.5234">description</text><text fill="#000000" font-family="sans-serif" font-size="14" lengthAdjust="spacing" textLength="455" x="1962" y="105.5234">The valid range for the Property in the Resource as an integer. The</text><text fill="#000000" font-family="sans-serif" font-size="14" lengthAdjust="spacing" textLength="439" x="1962" y="122.0117">first value in the array is the minimum value, the second value in</text><text fill="#000000" font-family="sans-serif" font-size="14" lengthAdjust="spacing" textLength="219" x="1962" y="138.5">the array is the maximum value.</text><line style="stroke:#A80036;stroke-width:1.0;" x1="1957" x2="1957" y1="89.9883" y2="143.4531"/><line style="stroke:#A80036;stroke-width:1.0;" x1="1870" x2="2422" y1="143.4531" y2="143.4531"/><text fill="#000000" font-family="sans-serif" font-size="14" lengthAdjust="spacing" textLength="55" x="1875" y="158.9883">writable</text><text fill="#000000" font-family="sans-serif" font-size="14" lengthAdjust="spacing" textLength="48" x="1962" y="158.9883">☐ false</text><line style="stroke:#A80036;stroke-width:1.0;" x1="1957" x2="1957" y1="143.4531" y2="163.9414"/><line style="stroke:#A80036;stroke-width:1.0;" x1="1870" x2="2422" y1="163.9414" y2="163.9414"/><text fill="#000000" font-family="sans-serif" font-size="14" lengthAdjust="spacing" textLength="63" x="1875" y="179.4766">minItems</text><text fill="#000000" font-family="sans-serif" font-size="14" lengthAdjust="spacing" textLength="9" x="1962" y="179.4766">2</text><line style="stroke:#A80036;stroke-width:1.0;" x1="1957" x2="1957" y1="163.9414" y2="184.4297"/><line style="stroke:#A80036;stroke-width:1.0;" x1="1870" x2="2422" y1="184.4297" y2="184.4297"/><text fill="#000000" font-family="sans-serif" font-size="14" lengthAdjust="spacing" textLength="67" x="1875" y="199.9648">maxItems</text><text fill="#000000" font-family="sans-serif" font-size="14" lengthAdjust="spacing" textLength="9" x="1962" y="199.9648">2</text><line style="stroke:#A80036;stroke-width:1.0;" x1="1957" x2="1957" y1="184.4297" y2="204.918"/><line style="stroke:#A80036;stroke-width:1.0;" x1="1870" x2="2422" y1="204.918" y2="204.918"/><text fill="#000000" font-family="sans-serif" font-size="14" lengthAdjust="spacing" textLength="37" x="1875" y="220.4531">items</text><text fill="#000000" font-family="sans-serif" font-size="14" lengthAdjust="spacing" textLength="0" x="1974" y="220.4531"/><line style="stroke:#A80036;stroke-width:1.0;" x1="1957" x2="1957" y1="204.918" y2="225.4063"/><rect fill="none" height="155.9063" rx="5" ry="5" style="stroke:#A80036;stroke-width:1.5;" width="552" x="1870" y="69.5"/><rect fill="#FEFECE" height="20.4883" rx="5" ry="5" style="stroke:#FEFECE;stroke-width:1.5;" width="98" x="2468" y="202.5"/><text fill="#000000" font-family="sans-serif" font-size="14" lengthAdjust="spacing" textLength="29" x="2473" y="218.0352">type</text><text fill="#000000" font-family="sans-serif" font-size="14" lengthAdjust="spacing" textLength="49" x="2512" y="218.0352">integer</text><line style="stroke:#A80036;stroke-width:1.0;" x1="2507" x2="2507" y1="202.5" y2="222.9883"/><rect fill="none" height="20.4883" rx="5" ry="5" style="stroke:#A80036;stroke-width:1.5;" width="98" x="2468" y="202.5"/><rect fill="#FEFECE" height="94.4414" rx="5" ry="5" style="stroke:#FEFECE;stroke-width:1.5;" width="549" x="1871.5" y="243.5"/><text fill="#000000" font-family="sans-serif" font-size="14" lengthAdjust="spacing" textLength="77" x="1876.5" y="259.0352">description</text><text fill="#000000" font-family="sans-serif" font-size="14" lengthAdjust="spacing" textLength="448" x="1963.5" y="259.0352">Step value across the defined range when the range is an integer.</text><text fill="#000000" font-family="sans-serif" font-size="14" lengthAdjust="spacing" textLength="449" x="1963.5" y="275.5234">This is the increment for valid values across the range; so if range</text><text fill="#000000" font-family="sans-serif" font-size="14" lengthAdjust="spacing" textLength="376" x="1963.5" y="292.0117">is 0..10 and step is 2 then valid values are 0,2,4,6,8,10.</text><line style="stroke:#A80036;stroke-width:1.0;" x1="1958.5" x2="1958.5" y1="243.5" y2="296.9648"/><line style="stroke:#A80036;stroke-width:1.0;" x1="1871.5" x2="2420.5" y1="296.9648" y2="296.9648"/><text fill="#000000" font-family="sans-serif" font-size="14" lengthAdjust="spacing" textLength="55" x="1876.5" y="312.5">writable</text><text fill="#000000" font-family="sans-serif" font-size="14" lengthAdjust="spacing" textLength="48" x="1963.5" y="312.5">☐ false</text><line style="stroke:#A80036;stroke-width:1.0;" x1="1958.5" x2="1958.5" y1="296.9648" y2="317.4531"/><line style="stroke:#A80036;stroke-width:1.0;" x1="1871.5" x2="2420.5" y1="317.4531" y2="317.4531"/><text fill="#000000" font-family="sans-serif" font-size="14" lengthAdjust="spacing" textLength="29" x="1876.5" y="332.9883">type</text><text fill="#000000" font-family="sans-serif" font-size="14" lengthAdjust="spacing" textLength="49" x="1963.5" y="332.9883">integer</text><line style="stroke:#A80036;stroke-width:1.0;" x1="1958.5" x2="1958.5" y1="317.4531" y2="337.9414"/><rect fill="none" height="94.4414" rx="5" ry="5" style="stroke:#A80036;stroke-width:1.5;" width="549" x="1871.5" y="243.5"/><rect fill="#FEFECE" height="110.9297" rx="5" ry="5" style="stroke:#FEFECE;stroke-width:1.5;" width="570" x="1861" y="356"/><text fill="#000000" font-family="sans-serif" font-size="14" lengthAdjust="spacing" textLength="29" x="1866" y="371.5352">type</text><text fill="#000000" font-family="sans-serif" font-size="14" lengthAdjust="spacing" textLength="54" x="1953" y="371.5352">number</text><line style="stroke:#A80036;stroke-width:1.0;" x1="1948" x2="1948" y1="356" y2="376.4883"/><line style="stroke:#A80036;stroke-width:1.0;" x1="1861" x2="2431" y1="376.4883" y2="376.4883"/><text fill="#000000" font-family="sans-serif" font-size="14" lengthAdjust="spacing" textLength="55" x="1866" y="392.0234">writable</text><text fill="#000000" font-family="sans-serif" font-size="14" lengthAdjust="spacing" textLength="48" x="1953" y="392.0234">☐ false</text><line style="stroke:#A80036;stroke-width:1.0;" x1="1948" x2="1948" y1="376.4883" y2="396.9766"/><line style="stroke:#A80036;stroke-width:1.0;" x1="1861" x2="2431" y1="396.9766" y2="396.9766"/><text fill="#000000" font-family="sans-serif" font-size="14" lengthAdjust="spacing" textLength="77" x="1866" y="412.5117">description</text><text fill="#000000" font-family="sans-serif" font-size="14" lengthAdjust="spacing" textLength="430" x="1953" y="412.5117">When exposed the value in 'precision' provides a +/- tolerance</text><text fill="#000000" font-family="sans-serif" font-size="14" lengthAdjust="spacing" textLength="473" x="1953" y="429">against the Properties in the Resource. Thus if a Property is UPDATED</text><text fill="#000000" font-family="sans-serif" font-size="14" lengthAdjust="spacing" textLength="465" x="1953" y="445.4883">to a value and that Property then RETRIEVED, the RETRIEVED value is</text><text fill="#000000" font-family="sans-serif" font-size="14" lengthAdjust="spacing" textLength="337" x="1953" y="461.9766">valid if in the range of the set value +/- precision</text><line style="stroke:#A80036;stroke-width:1.0;" x1="1948" x2="1948" y1="396.9766" y2="466.9297"/><rect fill="none" height="110.9297" rx="5" ry="5" style="stroke:#A80036;stroke-width:1.5;" width="570" x="1861" y="356"/><rect fill="#FEFECE" height="20.4883" rx="5" ry="5" style="stroke:#FEFECE;stroke-width:1.5;" width="362" x="1462" y="278.5"/><text fill="#000000" font-family="sans-serif" font-size="14" lengthAdjust="spacing" textLength="352" x="1467" y="294.0352">#/sdfObject/light.ramptime/sdfProperty/rampTime</text><rect fill="none" height="20.4883" rx="5" ry="5" style="stroke:#A80036;stroke-width:1.5;" width="362" x="1462" y="278.5"/><path d="M95,188.5 L108,188.5 C117.3442,188.5 126.8208,188.4198 136.3833,188.2688 " fill="none" style="stroke:#A80036;stroke-width:1.0;stroke-dasharray:3.0,3.0;"/><path d="M136.4378,191.3434 L138.6892,188.2279 L136.3288,185.1942 L144.0697,188.1326 L136.4378,191.3434 " fill="#A80036" style="stroke:#A80036;stroke-width:1.0;"/><ellipse cx="95" cy="188.5" fill="#A80036" rx="3" ry="3" style="stroke:#A80036;stroke-width:1.0;stroke-dasharray:3.0,3.0;"/><path d="M1682.5,188.5 L1695.5,188.5 C1788.488,188.5 1774.7037,95.137 1861,60.5 C1871.5868,56.2508 1882.564,52.5225 1893.7765,49.256 " fill="none" style="stroke:#A80036;stroke-width:1.0;stroke-dasharray:3.0,3.0;"/><path d="M1894.6088,52.2162 L1895.9966,48.6318 L1892.9442,46.2958 L1901.1769,47.1753 L1894.6088,52.2162 " fill="#A80036" style="stroke:#A80036;stroke-width:1.0;"/><ellipse cx="1682.5" cy="188.5" fill="#A80036" rx="3" ry="3" style="stroke:#A80036;stroke-width:1.0;stroke-dasharray:3.0,3.0;"/><path d="M2410.5,212.5 L2423.5,212.5 C2435.5337,212.5 2448.4432,212.5 2460.6987,212.5 " fill="none" style="stroke:#A80036;stroke-width:1.0;stroke-dasharray:3.0,3.0;"/><path d="M2460.6987,215.513 L2462.9584,212.5 L2460.6987,209.487 L2468.2312,212.5 L2460.6987,215.513 " fill="#A80036" style="stroke:#A80036;stroke-width:1.0;"/><ellipse cx="2410.5" cy="212.5" fill="#A80036" rx="3" ry="3" style="stroke:#A80036;stroke-width:1.0;stroke-dasharray:3.0,3.0;"/><path d="M1682.5,208.5 L1695.5,208.5 C1749.7145,208.5 1807.2727,204.0986 1862.4665,197.6603 " fill="none" style="stroke:#A80036;stroke-width:1.0;stroke-dasharray:3.0,3.0;"/><path d="M1862.8352,200.769 L1864.7981,197.3838 L1862.0978,194.5516 L1870.2383,196.7386 L1862.8352,200.769 " fill="#A80036" style="stroke:#A80036;stroke-width:1.0;"/><ellipse cx="1682.5" cy="208.5" fill="#A80036" rx="3" ry="3" style="stroke:#A80036;stroke-width:1.0;stroke-dasharray:3.0,3.0;"/><path d="M1682.5,229.5 L1695.5,229.5 C1755.6067,229.5 1819.8234,234.9101 1880.3713,242.508 " fill="none" style="stroke:#A80036;stroke-width:1.0;stroke-dasharray:3.0,3.0;"/><path d="M1879.9766,245.6072 L1882.6957,242.804 L1880.7659,239.4087 L1888.1194,243.4946 L1879.9766,245.6072 " fill="#A80036" style="stroke:#A80036;stroke-width:1.0;"/><ellipse cx="1682.5" cy="229.5" fill="#A80036" rx="3" ry="3" style="stroke:#A80036;stroke-width:1.0;stroke-dasharray:3.0,3.0;"/><path d="M1682.5,250.5 L1695.5,250.5 C1753.6717,250.5 1778.3257,234.7802 1825,269.5 C1855.3111,292.0476 1831.6022,322.7739 1861,346.5 C1863.0206,348.1308 1865.0743,349.7223 1867.159,351.2755 " fill="none" style="stroke:#A80036;stroke-width:1.0;stroke-dasharray:3.0,3.0;"/><path d="M1865.3408,353.8135 L1869.0625,352.6392 L1868.9773,348.7375 L1873.504,355.821 L1865.3408,353.8135 " fill="#A80036" style="stroke:#A80036;stroke-width:1.0;"/><ellipse cx="1682.5" cy="250.5" fill="#A80036" rx="3" ry="3" style="stroke:#A80036;stroke-width:1.0;stroke-dasharray:3.0,3.0;"/><path d="M1413,232.5 L1426,232.5 C1479.8154,232.5 1541.0203,228.4482 1584.591,224.8687 " fill="none" style="stroke:#A80036;stroke-width:1.0;stroke-dasharray:3.0,3.0;"/><path d="M1584.8465,227.9296 L1586.8867,224.6771 L1584.3356,221.8079 L1592.2431,224.2301 L1584.8465,227.9296 " fill="#A80036" style="stroke:#A80036;stroke-width:1.0;"/><ellipse cx="1413" cy="232.5" fill="#A80036" rx="3" ry="3" style="stroke:#A80036;stroke-width:1.0;stroke-dasharray:3.0,3.0;"/><path d="M1413,275.5 L1426,275.5 C1453.5661,275.5 1483.0711,276.5631 1511.1517,278.0813 " fill="none" style="stroke:#A80036;stroke-width:1.0;stroke-dasharray:3.0,3.0;"/><path d="M1510.9847,281.0779 L1513.3992,278.2066 L1511.3187,275.0847 L1518.6432,278.4988 L1510.9847,281.0779 " fill="#A80036" style="stroke:#A80036;stroke-width:1.0;"/><ellipse cx="1413" cy="275.5" fill="#A80036" rx="3" ry="3" style="stroke:#A80036;stroke-width:1.0;stroke-dasharray:3.0,3.0;"/><path d="M527,233.5 L540,233.5 C633.8706,233.5 736.1422,233.5 828.7705,233.5 " fill="none" style="stroke:#A80036;stroke-width:1.0;stroke-dasharray:3.0,3.0;"/><path d="M828.7705,236.5016 L831.0216,233.5 L828.7705,230.4984 L836.2744,233.5 L828.7705,236.5016 " fill="#A80036" style="stroke:#A80036;stroke-width:1.0;"/><ellipse cx="527" cy="233.5" fill="#A80036" rx="3" ry="3" style="stroke:#A80036;stroke-width:1.0;stroke-dasharray:3.0,3.0;"/><path d="M95,209.5 L108,209.5 C124.1536,209.5 127.924,212.9191 144,214.5 C231.0533,223.0606 331.552,228.1934 397.9086,230.927 " fill="none" style="stroke:#A80036;stroke-width:1.0;stroke-dasharray:3.0,3.0;"/><path d="M397.7864,233.9339 L400.1637,231.0186 L398.0307,227.9201 L405.4258,231.2324 L397.7864,233.9339 " fill="#A80036" style="stroke:#A80036;stroke-width:1.0;"/><ellipse cx="95" cy="209.5" fill="#A80036" rx="3" ry="3" style="stroke:#A80036;stroke-width:1.0;stroke-dasharray:3.0,3.0;"/><!--MD5=[5cf793bbda46d94111da48efe7fe45a8]
@startjson
{
  "info": {
    "copyright": "copyright 2016-2017, 2019 Open Connectivity Foundation, Inc. All rights reserved.",
    "license": "https://github.com/one-data-model/oneDM/blob/master/LICENSE",
    "title": "Ramp Time",
    "version": "2019-02-15"
  },
  "sdfObject": {
    "light.ramptime": {
      "description": "This Resource that describes the ramp time of a dimming function. It\\nspecifies the actual speed of changing between 2 dimming values. The\\nProperty \"ramptime\" is specified in milliseconds [ms]. When range is\\nomitted the maximum value is 100 ms. The ramp time of 0ms indicates\\nthe minimal delay possible by the implementation.",
      "sdfProperty": {
        "rampTime": {
          "description": "The actual speed of changing between 2 dimming values.",
          "type": "integer"
        },
        "range": {
          "type": "array",
          "description": "The valid range for the Property in the Resource as an integer. The\\nfirst value in the array is the minimum value, the second value in\\nthe array is the maximum value.",
          "writable": false,
          "minItems": 2,
          "maxItems": 2,
          "items": {
            "type": "integer"
          }
        },
        "step": {
          "description": "Step value across the defined range when the range is an integer. \\nThis is the increment for valid values across the range; so if range\\nis 0..10 and step is 2 then valid values are 0,2,4,6,8,10.",
          "writable": false,
          "type": "integer"
        },
        "precision": {
          "type": "number",
          "writable": false,
          "description": "When exposed the value in 'precision' provides a +/- tolerance\\nagainst the Properties in the Resource. Thus if a Property is UPDATED\\nto a value and that Property then RETRIEVED, the RETRIEVED value is\\nvalid if in the range of the set value +/- precision"
        }
      },
      "sdfRequired": [
        "#/sdfObject/light.ramptime/sdfProperty/rampTime"
      ]
    }
  }
}
@endjson

PlantUML version 1.2021.2(Sun Mar 07 13:10:27 EET 2021)
(GPL source distribution)
Java Runtime: OpenJDK Runtime Environment
JVM: OpenJDK 64-Bit Server VM
Default Encoding: UTF-8
Language: en
Country: FI
--></g></svg>