<?xml version="1.0" encoding="UTF-8" standalone="no"?><svg xmlns="http://www.w3.org/2000/svg" xmlns:xlink="http://www.w3.org/1999/xlink" contentScriptType="application/ecmascript" contentStyleType="text/css" height="572px" preserveAspectRatio="none" style="width:2601px;height:572px;" version="1.1" viewBox="0 0 2601 572" width="2601px" zoomAndPan="magnify"><defs/><g><rect fill="#FEFECE" height="40.9766" rx="5" ry="5" style="stroke:#FEFECE;stroke-width:1.5;" width="97" x="10" y="252"/><text fill="#000000" font-family="sans-serif" font-size="14" lengthAdjust="spacing" textLength="27" x="15" y="267.5352">info</text><text fill="#000000" font-family="sans-serif" font-size="14" lengthAdjust="spacing" textLength="0" x="102" y="267.5352"/><line style="stroke:#A80036;stroke-width:1.0;" x1="85" x2="85" y1="252" y2="272.4883"/><line style="stroke:#A80036;stroke-width:1.0;" x1="10" x2="107" y1="272.4883" y2="272.4883"/><text fill="#000000" font-family="sans-serif" font-size="14" lengthAdjust="spacing" textLength="65" x="15" y="288.0234">sdfObject</text><text fill="#000000" font-family="sans-serif" font-size="14" lengthAdjust="spacing" textLength="0" x="102" y="288.0234"/><line style="stroke:#A80036;stroke-width:1.0;" x1="85" x2="85" y1="272.4883" y2="292.9766"/><rect fill="none" height="40.9766" rx="5" ry="5" style="stroke:#A80036;stroke-width:1.5;" width="97" x="10" y="252"/><rect fill="#FEFECE" height="81.9531" rx="5" ry="5" style="stroke:#FEFECE;stroke-width:1.5;" width="655" x="144" y="196.5"/><text fill="#000000" font-family="sans-serif" font-size="14" lengthAdjust="spacing" textLength="65" x="149" y="212.0352">copyright</text><text fill="#000000" font-family="sans-serif" font-size="14" lengthAdjust="spacing" textLength="570" x="224" y="212.0352">copyright 2016-2017, 2019 Open Connectivity Foundation, Inc. All rights reserved.</text><line style="stroke:#A80036;stroke-width:1.0;" x1="219" x2="219" y1="196.5" y2="216.9883"/><line style="stroke:#A80036;stroke-width:1.0;" x1="144" x2="799" y1="216.9883" y2="216.9883"/><text fill="#000000" font-family="sans-serif" font-size="14" lengthAdjust="spacing" textLength="47" x="149" y="232.5234">license</text><text fill="#000000" font-family="sans-serif" font-size="14" lengthAdjust="spacing" textLength="462" x="224" y="232.5234">https://github.com/one-data-model/oneDM/blob/master/LICENSE</text><line style="stroke:#A80036;stroke-width:1.0;" x1="219" x2="219" y1="216.9883" y2="237.4766"/><line style="stroke:#A80036;stroke-width:1.0;" x1="144" x2="799" y1="237.4766" y2="237.4766"/><text fill="#000000" font-family="sans-serif" font-size="14" lengthAdjust="spacing" textLength="26" x="149" y="253.0117">title</text><text fill="#000000" font-family="sans-serif" font-size="14" lengthAdjust="spacing" textLength="72" x="224" y="253.0117">Air Quality</text><line style="stroke:#A80036;stroke-width:1.0;" x1="219" x2="219" y1="237.4766" y2="257.9648"/><line style="stroke:#A80036;stroke-width:1.0;" x1="144" x2="799" y1="257.9648" y2="257.9648"/><text fill="#000000" font-family="sans-serif" font-size="14" lengthAdjust="spacing" textLength="50" x="149" y="273.5">version</text><text fill="#000000" font-family="sans-serif" font-size="14" lengthAdjust="spacing" textLength="88" x="224" y="273.5">2019-06-13</text><line style="stroke:#A80036;stroke-width:1.0;" x1="219" x2="219" y1="257.9648" y2="278.4531"/><rect fill="none" height="81.9531" rx="5" ry="5" style="stroke:#A80036;stroke-width:1.5;" width="655" x="144" y="196.5"/><rect fill="#FEFECE" height="20.4883" rx="5" ry="5" style="stroke:#FEFECE;stroke-width:1.5;" width="96" x="423.5" y="296.5"/><text fill="#000000" font-family="sans-serif" font-size="14" lengthAdjust="spacing" textLength="64" x="428.5" y="312.0352">airquality</text><text fill="#000000" font-family="sans-serif" font-size="14" lengthAdjust="spacing" textLength="0" x="514.5" y="312.0352"/><line style="stroke:#A80036;stroke-width:1.0;" x1="497.5" x2="497.5" y1="296.5" y2="316.9883"/><rect fill="none" height="20.4883" rx="5" ry="5" style="stroke:#A80036;stroke-width:1.5;" width="96" x="423.5" y="296.5"/><rect fill="#FEFECE" height="341.7656" rx="5" ry="5" style="stroke:#FEFECE;stroke-width:1.5;" width="604" x="836" y="135.5"/><text fill="#000000" font-family="sans-serif" font-size="14" lengthAdjust="spacing" textLength="77" x="841" y="151.0352">description</text><text fill="#000000" font-family="sans-serif" font-size="14" lengthAdjust="spacing" textLength="464" x="934" y="151.0352">This Resource describes a qualitative or measured contaminant that</text><text fill="#000000" font-family="sans-serif" font-size="14" lengthAdjust="spacing" textLength="456" x="934" y="167.5234">can be used to infer Air Quality. The Property "valueType" indicates</text><text fill="#000000" font-family="sans-serif" font-size="14" lengthAdjust="spacing" textLength="429" x="934" y="184.0117">a qualitative or measured reading within the contaminantvalue</text><text fill="#000000" font-family="sans-serif" font-size="14" lengthAdjust="spacing" textLength="444" x="934" y="200.5">Property. The Property "contaminantvalue" can contain the actual</text><text fill="#000000" font-family="sans-serif" font-size="14" lengthAdjust="spacing" textLength="417" x="934" y="216.9883">sensed value with units per contaminant type. Qualitative is a</text><text fill="#000000" font-family="sans-serif" font-size="14" lengthAdjust="spacing" textLength="460" x="934" y="233.4766">representative value within the range provided where the minimum</text><text fill="#000000" font-family="sans-serif" font-size="14" lengthAdjust="spacing" textLength="454" x="934" y="249.9648">value is minimum contamination and maximum value is maximum</text><text fill="#000000" font-family="sans-serif" font-size="14" lengthAdjust="spacing" textLength="390" x="934" y="266.4531">contamination for the specific contaminant. The Property</text><text fill="#000000" font-family="sans-serif" font-size="14" lengthAdjust="spacing" textLength="470" x="934" y="282.9414">"contaminantvalue" contains the actual measured or qualitative level.</text><text fill="#000000" font-family="sans-serif" font-size="14" lengthAdjust="spacing" textLength="467" x="934" y="299.4297">The Property "range" contains the allowed range for the value that is</text><text fill="#000000" font-family="sans-serif" font-size="14" lengthAdjust="spacing" textLength="434" x="934" y="315.918">being reported. If valueType is 'Measured' then the units for the</text><text fill="#000000" font-family="sans-serif" font-size="14" lengthAdjust="spacing" textLength="402" x="934" y="332.4063">contaminant types are as follows: Methanol (also known as</text><text fill="#000000" font-family="sans-serif" font-size="14" lengthAdjust="spacing" textLength="479" x="934" y="348.8945">Formaldehyde): CH2O (ug/m^3), Carbon Dioxide: CO2 (ppm), Carbon</text><text fill="#000000" font-family="sans-serif" font-size="14" lengthAdjust="spacing" textLength="423" x="934" y="365.3828">Monoxide: CO (ppm), Particulate Matter (less than 1 micron in</text><text fill="#000000" font-family="sans-serif" font-size="14" lengthAdjust="spacing" textLength="460" x="934" y="381.8711">diameter): PM1 (ug/m^3), Particulate Matter (less than 2. 5 microns</text><text fill="#000000" font-family="sans-serif" font-size="14" lengthAdjust="spacing" textLength="427" x="934" y="398.3594">in diameter): PM2. 5 (ug/m^3), Particulate Matter (less than 10</text><text fill="#000000" font-family="sans-serif" font-size="14" lengthAdjust="spacing" textLength="501" x="934" y="414.8477">microns in diameter): PM10 (ug/m^3), Volatile Organic Compounds: VOC</text><text fill="#000000" font-family="sans-serif" font-size="14" lengthAdjust="spacing" textLength="70" x="934" y="431.3359">(ug/m^3).</text><line style="stroke:#A80036;stroke-width:1.0;" x1="929" x2="929" y1="135.5" y2="436.2891"/><line style="stroke:#A80036;stroke-width:1.0;" x1="836" x2="1440" y1="436.2891" y2="436.2891"/><text fill="#000000" font-family="sans-serif" font-size="14" lengthAdjust="spacing" textLength="79" x="841" y="451.8242">sdfProperty</text><text fill="#000000" font-family="sans-serif" font-size="14" lengthAdjust="spacing" textLength="0" x="946" y="451.8242"/><line style="stroke:#A80036;stroke-width:1.0;" x1="929" x2="929" y1="436.2891" y2="456.7773"/><line style="stroke:#A80036;stroke-width:1.0;" x1="836" x2="1440" y1="456.7773" y2="456.7773"/><text fill="#000000" font-family="sans-serif" font-size="14" lengthAdjust="spacing" textLength="83" x="841" y="472.3125">sdfRequired</text><text fill="#000000" font-family="sans-serif" font-size="14" lengthAdjust="spacing" textLength="0" x="946" y="472.3125"/><line style="stroke:#A80036;stroke-width:1.0;" x1="929" x2="929" y1="456.7773" y2="477.2656"/><rect fill="none" height="341.7656" rx="5" ry="5" style="stroke:#A80036;stroke-width:1.5;" width="604" x="836" y="135.5"/><rect fill="#FEFECE" height="81.9531" rx="5" ry="5" style="stroke:#FEFECE;stroke-width:1.5;" width="154" x="1588.5" y="265.5"/><text fill="#000000" font-family="sans-serif" font-size="14" lengthAdjust="spacing" textLength="115" x="1593.5" y="281.0352">contaminanttype</text><text fill="#000000" font-family="sans-serif" font-size="14" lengthAdjust="spacing" textLength="0" x="1737.5" y="281.0352"/><line style="stroke:#A80036;stroke-width:1.0;" x1="1720.5" x2="1720.5" y1="265.5" y2="285.9883"/><line style="stroke:#A80036;stroke-width:1.0;" x1="1588.5" x2="1742.5" y1="285.9883" y2="285.9883"/><text fill="#000000" font-family="sans-serif" font-size="14" lengthAdjust="spacing" textLength="65" x="1593.5" y="301.5234">valuetype</text><text fill="#000000" font-family="sans-serif" font-size="14" lengthAdjust="spacing" textLength="0" x="1737.5" y="301.5234"/><line style="stroke:#A80036;stroke-width:1.0;" x1="1720.5" x2="1720.5" y1="285.9883" y2="306.4766"/><line style="stroke:#A80036;stroke-width:1.0;" x1="1588.5" x2="1742.5" y1="306.4766" y2="306.4766"/><text fill="#000000" font-family="sans-serif" font-size="14" lengthAdjust="spacing" textLength="122" x="1593.5" y="322.0117">contaminantvalue</text><text fill="#000000" font-family="sans-serif" font-size="14" lengthAdjust="spacing" textLength="0" x="1737.5" y="322.0117"/><line style="stroke:#A80036;stroke-width:1.0;" x1="1720.5" x2="1720.5" y1="306.4766" y2="326.9648"/><line style="stroke:#A80036;stroke-width:1.0;" x1="1588.5" x2="1742.5" y1="326.9648" y2="326.9648"/><text fill="#000000" font-family="sans-serif" font-size="14" lengthAdjust="spacing" textLength="40" x="1593.5" y="342.5">range</text><text fill="#000000" font-family="sans-serif" font-size="14" lengthAdjust="spacing" textLength="0" x="1737.5" y="342.5"/><line style="stroke:#A80036;stroke-width:1.0;" x1="1720.5" x2="1720.5" y1="326.9648" y2="347.4531"/><rect fill="none" height="81.9531" rx="5" ry="5" style="stroke:#A80036;stroke-width:1.5;" width="154" x="1588.5" y="265.5"/><rect fill="#FEFECE" height="81.9531" rx="5" ry="5" style="stroke:#FEFECE;stroke-width:1.5;" width="332" x="2006.5" y="99.5"/><text fill="#000000" font-family="sans-serif" font-size="14" lengthAdjust="spacing" textLength="77" x="2011.5" y="115.0352">description</text><text fill="#000000" font-family="sans-serif" font-size="14" lengthAdjust="spacing" textLength="235" x="2098.5" y="115.0352">The contaminant being measured.</text><line style="stroke:#A80036;stroke-width:1.0;" x1="2093.5" x2="2093.5" y1="99.5" y2="119.9883"/><line style="stroke:#A80036;stroke-width:1.0;" x1="2006.5" x2="2338.5" y1="119.9883" y2="119.9883"/><text fill="#000000" font-family="sans-serif" font-size="14" lengthAdjust="spacing" textLength="39" x="2011.5" y="135.5234">enum</text><text fill="#000000" font-family="sans-serif" font-size="14" lengthAdjust="spacing" textLength="0" x="2110.5" y="135.5234"/><line style="stroke:#A80036;stroke-width:1.0;" x1="2093.5" x2="2093.5" y1="119.9883" y2="140.4766"/><line style="stroke:#A80036;stroke-width:1.0;" x1="2006.5" x2="2338.5" y1="140.4766" y2="140.4766"/><text fill="#000000" font-family="sans-serif" font-size="14" lengthAdjust="spacing" textLength="55" x="2011.5" y="156.0117">writable</text><text fill="#000000" font-family="sans-serif" font-size="14" lengthAdjust="spacing" textLength="48" x="2098.5" y="156.0117">☐ false</text><line style="stroke:#A80036;stroke-width:1.0;" x1="2093.5" x2="2093.5" y1="140.4766" y2="160.9648"/><line style="stroke:#A80036;stroke-width:1.0;" x1="2006.5" x2="2338.5" y1="160.9648" y2="160.9648"/><text fill="#000000" font-family="sans-serif" font-size="14" lengthAdjust="spacing" textLength="29" x="2011.5" y="176.5">type</text><text fill="#000000" font-family="sans-serif" font-size="14" lengthAdjust="spacing" textLength="40" x="2098.5" y="176.5">string</text><line style="stroke:#A80036;stroke-width:1.0;" x1="2093.5" x2="2093.5" y1="160.9648" y2="181.4531"/><rect fill="none" height="81.9531" rx="5" ry="5" style="stroke:#A80036;stroke-width:1.5;" width="332" x="2006.5" y="99.5"/><rect fill="#FEFECE" height="204.8828" rx="5" ry="5" style="stroke:#FEFECE;stroke-width:1.5;" width="91" x="2494.5" y="10"/><text fill="#000000" font-family="sans-serif" font-size="14" lengthAdjust="spacing" textLength="40" x="2499.5" y="25.5352">CH2O</text><line style="stroke:#A80036;stroke-width:1.0;" x1="2494.5" x2="2585.5" y1="30.4883" y2="30.4883"/><text fill="#000000" font-family="sans-serif" font-size="14" lengthAdjust="spacing" textLength="30" x="2499.5" y="46.0234">CO2</text><line style="stroke:#A80036;stroke-width:1.0;" x1="2494.5" x2="2585.5" y1="50.9766" y2="50.9766"/><text fill="#000000" font-family="sans-serif" font-size="14" lengthAdjust="spacing" textLength="21" x="2499.5" y="66.5117">CO</text><line style="stroke:#A80036;stroke-width:1.0;" x1="2494.5" x2="2585.5" y1="71.4648" y2="71.4648"/><text fill="#000000" font-family="sans-serif" font-size="14" lengthAdjust="spacing" textLength="29" x="2499.5" y="87">PM1</text><line style="stroke:#A80036;stroke-width:1.0;" x1="2494.5" x2="2585.5" y1="91.9531" y2="91.9531"/><text fill="#000000" font-family="sans-serif" font-size="14" lengthAdjust="spacing" textLength="42" x="2499.5" y="107.4883">PM2.5</text><line style="stroke:#A80036;stroke-width:1.0;" x1="2494.5" x2="2585.5" y1="112.4414" y2="112.4414"/><text fill="#000000" font-family="sans-serif" font-size="14" lengthAdjust="spacing" textLength="38" x="2499.5" y="127.9766">PM10</text><line style="stroke:#A80036;stroke-width:1.0;" x1="2494.5" x2="2585.5" y1="132.9297" y2="132.9297"/><text fill="#000000" font-family="sans-serif" font-size="14" lengthAdjust="spacing" textLength="30" x="2499.5" y="148.4648">VOC</text><line style="stroke:#A80036;stroke-width:1.0;" x1="2494.5" x2="2585.5" y1="153.418" y2="153.418"/><text fill="#000000" font-family="sans-serif" font-size="14" lengthAdjust="spacing" textLength="46" x="2499.5" y="168.9531">Smoke</text><line style="stroke:#A80036;stroke-width:1.0;" x1="2494.5" x2="2585.5" y1="173.9063" y2="173.9063"/><text fill="#000000" font-family="sans-serif" font-size="14" lengthAdjust="spacing" textLength="35" x="2499.5" y="189.4414">Odor</text><line style="stroke:#A80036;stroke-width:1.0;" x1="2494.5" x2="2585.5" y1="194.3945" y2="194.3945"/><text fill="#000000" font-family="sans-serif" font-size="14" lengthAdjust="spacing" textLength="81" x="2499.5" y="209.9297">AirPollution</text><rect fill="none" height="204.8828" rx="5" ry="5" style="stroke:#A80036;stroke-width:1.5;" width="91" x="2494.5" y="10"/><rect fill="#FEFECE" height="98.4414" rx="5" ry="5" style="stroke:#FEFECE;stroke-width:1.5;" width="563" x="1891" y="208.5"/><text fill="#000000" font-family="sans-serif" font-size="14" lengthAdjust="spacing" textLength="77" x="1896" y="224.0352">description</text><text fill="#000000" font-family="sans-serif" font-size="14" lengthAdjust="spacing" textLength="466" x="1983" y="224.0352">The property that indicates whether the provided value is qualitative</text><text fill="#000000" font-family="sans-serif" font-size="14" lengthAdjust="spacing" textLength="91" x="1983" y="240.5234">or measured.</text><line style="stroke:#A80036;stroke-width:1.0;" x1="1978" x2="1978" y1="208.5" y2="245.4766"/><line style="stroke:#A80036;stroke-width:1.0;" x1="1891" x2="2454" y1="245.4766" y2="245.4766"/><text fill="#000000" font-family="sans-serif" font-size="14" lengthAdjust="spacing" textLength="39" x="1896" y="261.0117">enum</text><text fill="#000000" font-family="sans-serif" font-size="14" lengthAdjust="spacing" textLength="0" x="1995" y="261.0117"/><line style="stroke:#A80036;stroke-width:1.0;" x1="1978" x2="1978" y1="245.4766" y2="265.9648"/><line style="stroke:#A80036;stroke-width:1.0;" x1="1891" x2="2454" y1="265.9648" y2="265.9648"/><text fill="#000000" font-family="sans-serif" font-size="14" lengthAdjust="spacing" textLength="55" x="1896" y="281.5">writable</text><text fill="#000000" font-family="sans-serif" font-size="14" lengthAdjust="spacing" textLength="48" x="1983" y="281.5">☐ false</text><line style="stroke:#A80036;stroke-width:1.0;" x1="1978" x2="1978" y1="265.9648" y2="286.4531"/><line style="stroke:#A80036;stroke-width:1.0;" x1="1891" x2="2454" y1="286.4531" y2="286.4531"/><text fill="#000000" font-family="sans-serif" font-size="14" lengthAdjust="spacing" textLength="29" x="1896" y="301.9883">type</text><text fill="#000000" font-family="sans-serif" font-size="14" lengthAdjust="spacing" textLength="40" x="1983" y="301.9883">string</text><line style="stroke:#A80036;stroke-width:1.0;" x1="1978" x2="1978" y1="286.4531" y2="306.9414"/><rect fill="none" height="98.4414" rx="5" ry="5" style="stroke:#A80036;stroke-width:1.5;" width="563" x="1891" y="208.5"/><rect fill="#FEFECE" height="40.9766" rx="5" ry="5" style="stroke:#FEFECE;stroke-width:1.5;" width="83" x="2498.5" y="233"/><text fill="#000000" font-family="sans-serif" font-size="14" lengthAdjust="spacing" textLength="73" x="2503.5" y="248.5352">Qualitative</text><line style="stroke:#A80036;stroke-width:1.0;" x1="2498.5" x2="2581.5" y1="253.4883" y2="253.4883"/><text fill="#000000" font-family="sans-serif" font-size="14" lengthAdjust="spacing" textLength="67" x="2503.5" y="269.0234">Measured</text><rect fill="none" height="40.9766" rx="5" ry="5" style="stroke:#A80036;stroke-width:1.5;" width="83" x="2498.5" y="233"/><rect fill="#FEFECE" height="61.4648" rx="5" ry="5" style="stroke:#FEFECE;stroke-width:1.5;" width="473" x="1936" y="325"/><text fill="#000000" font-family="sans-serif" font-size="14" lengthAdjust="spacing" textLength="77" x="1941" y="340.5352">description</text><text fill="#000000" font-family="sans-serif" font-size="14" lengthAdjust="spacing" textLength="376" x="2028" y="340.5352">The measured or qualitative value for the contaminant.</text><line style="stroke:#A80036;stroke-width:1.0;" x1="2023" x2="2023" y1="325" y2="345.4883"/><line style="stroke:#A80036;stroke-width:1.0;" x1="1936" x2="2409" y1="345.4883" y2="345.4883"/><text fill="#000000" font-family="sans-serif" font-size="14" lengthAdjust="spacing" textLength="55" x="1941" y="361.0234">writable</text><text fill="#000000" font-family="sans-serif" font-size="14" lengthAdjust="spacing" textLength="48" x="2028" y="361.0234">☐ false</text><line style="stroke:#A80036;stroke-width:1.0;" x1="2023" x2="2023" y1="345.4883" y2="365.9766"/><line style="stroke:#A80036;stroke-width:1.0;" x1="1936" x2="2409" y1="365.9766" y2="365.9766"/><text fill="#000000" font-family="sans-serif" font-size="14" lengthAdjust="spacing" textLength="29" x="1941" y="381.5117">type</text><text fill="#000000" font-family="sans-serif" font-size="14" lengthAdjust="spacing" textLength="49" x="2028" y="381.5117">integer</text><line style="stroke:#A80036;stroke-width:1.0;" x1="2023" x2="2023" y1="365.9766" y2="386.4648"/><rect fill="none" height="61.4648" rx="5" ry="5" style="stroke:#A80036;stroke-width:1.5;" width="473" x="1936" y="325"/><rect fill="#FEFECE" height="155.9063" rx="5" ry="5" style="stroke:#FEFECE;stroke-width:1.5;" width="552" x="1896.5" y="404.5"/><text fill="#000000" font-family="sans-serif" font-size="14" lengthAdjust="spacing" textLength="29" x="1901.5" y="420.0352">type</text><text fill="#000000" font-family="sans-serif" font-size="14" lengthAdjust="spacing" textLength="35" x="1988.5" y="420.0352">array</text><line style="stroke:#A80036;stroke-width:1.0;" x1="1983.5" x2="1983.5" y1="404.5" y2="424.9883"/><line style="stroke:#A80036;stroke-width:1.0;" x1="1896.5" x2="2448.5" y1="424.9883" y2="424.9883"/><text fill="#000000" font-family="sans-serif" font-size="14" lengthAdjust="spacing" textLength="77" x="1901.5" y="440.5234">description</text><text fill="#000000" font-family="sans-serif" font-size="14" lengthAdjust="spacing" textLength="455" x="1988.5" y="440.5234">The valid range for the Property in the Resource as an integer. The</text><text fill="#000000" font-family="sans-serif" font-size="14" lengthAdjust="spacing" textLength="439" x="1988.5" y="457.0117">first value in the array is the minimum value, the second value in</text><text fill="#000000" font-family="sans-serif" font-size="14" lengthAdjust="spacing" textLength="219" x="1988.5" y="473.5">the array is the maximum value.</text><line style="stroke:#A80036;stroke-width:1.0;" x1="1983.5" x2="1983.5" y1="424.9883" y2="478.4531"/><line style="stroke:#A80036;stroke-width:1.0;" x1="1896.5" x2="2448.5" y1="478.4531" y2="478.4531"/><text fill="#000000" font-family="sans-serif" font-size="14" lengthAdjust="spacing" textLength="55" x="1901.5" y="493.9883">writable</text><text fill="#000000" font-family="sans-serif" font-size="14" lengthAdjust="spacing" textLength="48" x="1988.5" y="493.9883">☐ false</text><line style="stroke:#A80036;stroke-width:1.0;" x1="1983.5" x2="1983.5" y1="478.4531" y2="498.9414"/><line style="stroke:#A80036;stroke-width:1.0;" x1="1896.5" x2="2448.5" y1="498.9414" y2="498.9414"/><text fill="#000000" font-family="sans-serif" font-size="14" lengthAdjust="spacing" textLength="63" x="1901.5" y="514.4766">minItems</text><text fill="#000000" font-family="sans-serif" font-size="14" lengthAdjust="spacing" textLength="9" x="1988.5" y="514.4766">2</text><line style="stroke:#A80036;stroke-width:1.0;" x1="1983.5" x2="1983.5" y1="498.9414" y2="519.4297"/><line style="stroke:#A80036;stroke-width:1.0;" x1="1896.5" x2="2448.5" y1="519.4297" y2="519.4297"/><text fill="#000000" font-family="sans-serif" font-size="14" lengthAdjust="spacing" textLength="67" x="1901.5" y="534.9648">maxItems</text><text fill="#000000" font-family="sans-serif" font-size="14" lengthAdjust="spacing" textLength="9" x="1988.5" y="534.9648">2</text><line style="stroke:#A80036;stroke-width:1.0;" x1="1983.5" x2="1983.5" y1="519.4297" y2="539.918"/><line style="stroke:#A80036;stroke-width:1.0;" x1="1896.5" x2="2448.5" y1="539.918" y2="539.918"/><text fill="#000000" font-family="sans-serif" font-size="14" lengthAdjust="spacing" textLength="37" x="1901.5" y="555.4531">items</text><text fill="#000000" font-family="sans-serif" font-size="14" lengthAdjust="spacing" textLength="0" x="2000.5" y="555.4531"/><line style="stroke:#A80036;stroke-width:1.0;" x1="1983.5" x2="1983.5" y1="539.918" y2="560.4063"/><rect fill="none" height="155.9063" rx="5" ry="5" style="stroke:#A80036;stroke-width:1.5;" width="552" x="1896.5" y="404.5"/><rect fill="#FEFECE" height="20.4883" rx="5" ry="5" style="stroke:#FEFECE;stroke-width:1.5;" width="98" x="2491" y="537.5"/><text fill="#000000" font-family="sans-serif" font-size="14" lengthAdjust="spacing" textLength="29" x="2496" y="553.0352">type</text><text fill="#000000" font-family="sans-serif" font-size="14" lengthAdjust="spacing" textLength="49" x="2535" y="553.0352">integer</text><line style="stroke:#A80036;stroke-width:1.0;" x1="2530" x2="2530" y1="537.5" y2="557.9883"/><rect fill="none" height="20.4883" rx="5" ry="5" style="stroke:#A80036;stroke-width:1.5;" width="98" x="2491" y="537.5"/><rect fill="#FEFECE" height="61.4648" rx="5" ry="5" style="stroke:#FEFECE;stroke-width:1.5;" width="377" x="1477" y="390"/><text fill="#000000" font-family="sans-serif" font-size="14" lengthAdjust="spacing" textLength="367" x="1482" y="405.5352">#/sdfObject/airquality/sdfProperty/contaminantvalue</text><line style="stroke:#A80036;stroke-width:1.0;" x1="1477" x2="1854" y1="410.4883" y2="410.4883"/><text fill="#000000" font-family="sans-serif" font-size="14" lengthAdjust="spacing" textLength="360" x="1482" y="426.0234">#/sdfObject/airquality/sdfProperty/contaminanttype</text><line style="stroke:#A80036;stroke-width:1.0;" x1="1477" x2="1854" y1="430.9766" y2="430.9766"/><text fill="#000000" font-family="sans-serif" font-size="14" lengthAdjust="spacing" textLength="310" x="1482" y="446.5117">#/sdfObject/airquality/sdfProperty/valuetype</text><rect fill="none" height="61.4648" rx="5" ry="5" style="stroke:#A80036;stroke-width:1.5;" width="377" x="1477" y="390"/><path d="M95,261.5 L108,261.5 C117.3442,261.5 126.8208,261.4198 136.3833,261.2688 " fill="none" style="stroke:#A80036;stroke-width:1.0;stroke-dasharray:3.0,3.0;"/><path d="M136.4378,264.3434 L138.6892,261.2279 L136.3288,258.1942 L144.0697,261.1326 L136.4378,264.3434 " fill="#A80036" style="stroke:#A80036;stroke-width:1.0;"/><ellipse cx="95" cy="261.5" fill="#A80036" rx="3" ry="3" style="stroke:#A80036;stroke-width:1.0;stroke-dasharray:3.0,3.0;"/><path d="M2327,129.5 L2340,129.5 C2390.0232,129.5 2446.8478,124.1281 2487.0202,119.4237 " fill="none" style="stroke:#A80036;stroke-width:1.0;stroke-dasharray:3.0,3.0;"/><path d="M2487.3922,122.5459 L2489.3618,119.1447 L2486.6481,116.3015 L2494.8257,118.4936 L2487.3922,122.5459 " fill="#A80036" style="stroke:#A80036;stroke-width:1.0;"/><ellipse cx="2327" cy="129.5" fill="#A80036" rx="3" ry="3" style="stroke:#A80036;stroke-width:1.0;stroke-dasharray:3.0,3.0;"/><path d="M1731,275.5 L1744,275.5 C1817.5485,275.5 1821.7125,224.1702 1891,199.5 C1925.3064,187.285 1962.916,177.2369 1999.1497,169.1137 " fill="none" style="stroke:#A80036;stroke-width:1.0;stroke-dasharray:3.0,3.0;"/><path d="M1999.8314,172.1974 L2001.4625,168.6024 L1998.468,166.03 L2006.859,167.4094 L1999.8314,172.1974 " fill="#A80036" style="stroke:#A80036;stroke-width:1.0;"/><ellipse cx="1731" cy="275.5" fill="#A80036" rx="3" ry="3" style="stroke:#A80036;stroke-width:1.0;stroke-dasharray:3.0,3.0;"/><path d="M2442,244.5 L2455,244.5 C2466.7391,244.5 2479.3442,245.3695 2491.1429,246.568 " fill="none" style="stroke:#A80036;stroke-width:1.0;stroke-dasharray:3.0,3.0;"/><path d="M2490.8112,249.6159 L2493.4288,246.8167 L2491.4746,243.5201 L2498.7626,247.3972 L2490.8112,249.6159 " fill="#A80036" style="stroke:#A80036;stroke-width:1.0;"/><ellipse cx="2442" cy="244.5" fill="#A80036" rx="3" ry="3" style="stroke:#A80036;stroke-width:1.0;stroke-dasharray:3.0,3.0;"/><path d="M1731,295.5 L1744,295.5 C1789.3182,295.5 1837.2301,293.3601 1883.9528,290.0959 " fill="none" style="stroke:#A80036;stroke-width:1.0;stroke-dasharray:3.0,3.0;"/><path d="M1884.1661,293.091 L1886.1991,289.9359 L1883.7394,287.1007 L1891.4407,289.5625 L1884.1661,293.091 " fill="#A80036" style="stroke:#A80036;stroke-width:1.0;"/><ellipse cx="1731" cy="295.5" fill="#A80036" rx="3" ry="3" style="stroke:#A80036;stroke-width:1.0;stroke-dasharray:3.0,3.0;"/><path d="M1731,316.5 L1744,316.5 C1803.9257,316.5 1868.377,320.3386 1928.616,325.6073 " fill="none" style="stroke:#A80036;stroke-width:1.0;stroke-dasharray:3.0,3.0;"/><path d="M1928.3425,328.6895 L1930.9276,325.8124 L1928.8895,322.5251 L1936.3214,326.291 L1928.3425,328.6895 " fill="#A80036" style="stroke:#A80036;stroke-width:1.0;"/><ellipse cx="1731" cy="316.5" fill="#A80036" rx="3" ry="3" style="stroke:#A80036;stroke-width:1.0;stroke-dasharray:3.0,3.0;"/><path d="M2437,547.5 L2450,547.5 C2460.8573,547.5 2472.4555,547.5 2483.5812,547.5 " fill="none" style="stroke:#A80036;stroke-width:1.0;stroke-dasharray:3.0,3.0;"/><path d="M2483.5812,550.5448 L2485.8648,547.5 L2483.5812,544.4552 L2491.1933,547.5 L2483.5812,550.5448 " fill="#A80036" style="stroke:#A80036;stroke-width:1.0;"/><ellipse cx="2437" cy="547.5" fill="#A80036" rx="3" ry="3" style="stroke:#A80036;stroke-width:1.0;stroke-dasharray:3.0,3.0;"/><path d="M1731,337.5 L1744,337.5 C1814.2349,337.5 1824.7397,372.2082 1891,395.5 C1897.0601,397.6302 1903.203,399.7612 1909.406,401.8876 " fill="none" style="stroke:#A80036;stroke-width:1.0;stroke-dasharray:3.0,3.0;"/><path d="M1908.4085,404.8108 L1911.5984,402.6357 L1910.4035,398.9643 L1916.714,404.3814 L1908.4085,404.8108 " fill="#A80036" style="stroke:#A80036;stroke-width:1.0;"/><ellipse cx="1731" cy="337.5" fill="#A80036" rx="3" ry="3" style="stroke:#A80036;stroke-width:1.0;stroke-dasharray:3.0,3.0;"/><path d="M1428,306.5 L1441,306.5 C1487.312,306.5 1539.0098,306.5 1581.0609,306.5 " fill="none" style="stroke:#A80036;stroke-width:1.0;stroke-dasharray:3.0,3.0;"/><path d="M1581.0609,309.5944 L1583.3817,306.5 L1581.0609,303.4056 L1588.797,306.5 L1581.0609,309.5944 " fill="#A80036" style="stroke:#A80036;stroke-width:1.0;"/><ellipse cx="1428" cy="306.5" fill="#A80036" rx="3" ry="3" style="stroke:#A80036;stroke-width:1.0;stroke-dasharray:3.0,3.0;"/><path d="M1428,420.5 L1441,420.5 C1450.3592,420.5 1459.9383,420.5 1469.6133,420.5 " fill="none" style="stroke:#A80036;stroke-width:1.0;stroke-dasharray:3.0,3.0;"/><path d="M1469.6133,423.6109 L1471.9465,420.5 L1469.6133,417.3891 L1477.3906,420.5 L1469.6133,423.6109 " fill="#A80036" style="stroke:#A80036;stroke-width:1.0;"/><ellipse cx="1428" cy="420.5" fill="#A80036" rx="3" ry="3" style="stroke:#A80036;stroke-width:1.0;stroke-dasharray:3.0,3.0;"/><path d="M508,306.5 L521,306.5 C621.1411,306.5 730.4321,306.5 828.8085,306.5 " fill="none" style="stroke:#A80036;stroke-width:1.0;stroke-dasharray:3.0,3.0;"/><path d="M828.8085,309.5665 L831.1083,306.5 L828.8085,303.4335 L836.4746,306.5 L828.8085,309.5665 " fill="#A80036" style="stroke:#A80036;stroke-width:1.0;"/><ellipse cx="508" cy="306.5" fill="#A80036" rx="3" ry="3" style="stroke:#A80036;stroke-width:1.0;stroke-dasharray:3.0,3.0;"/><path d="M95,282.5 L108,282.5 C124.1536,282.5 127.924,285.9191 144,287.5 C239.442,296.8855 351.0456,302.1508 416.0979,304.6513 " fill="none" style="stroke:#A80036;stroke-width:1.0;stroke-dasharray:3.0,3.0;"/><path d="M415.9813,307.7306 L418.4073,304.7387 L416.2144,301.5721 L423.7961,304.9427 L415.9813,307.7306 " fill="#A80036" style="stroke:#A80036;stroke-width:1.0;"/><ellipse cx="95" cy="282.5" fill="#A80036" rx="3" ry="3" style="stroke:#A80036;stroke-width:1.0;stroke-dasharray:3.0,3.0;"/><!--MD5=[8cdf929e7bee2c1ec0f383893928883a]
@startjson
{
  "info": {
    "copyright": "copyright 2016-2017, 2019 Open Connectivity Foundation, Inc. All rights reserved.",
    "license": "https://github.com/one-data-model/oneDM/blob/master/LICENSE",
    "title": "Air Quality",
    "version": "2019-06-13"
  },
  "sdfObject": {
    "airquality": {
      "description": "This Resource describes a qualitative or measured contaminant that\\ncan be used to infer Air Quality. The Property \"valueType\" indicates\\na qualitative or measured reading within the contaminantvalue\\nProperty. The Property \"contaminantvalue\" can contain the actual\\nsensed value with units per contaminant type. Qualitative is a\\nrepresentative value within the range provided where the minimum\\nvalue is minimum contamination and maximum value is maximum\\ncontamination for the specific contaminant. The Property\\n\"contaminantvalue\" contains the actual measured or qualitative level.\\nThe Property \"range\" contains the allowed range for the value that is\\nbeing reported. If valueType is 'Measured' then the units for the\\ncontaminant types are as follows: Methanol (also known as\\nFormaldehyde): CH2O (ug/m^3), Carbon Dioxide: CO2 (ppm), Carbon\\nMonoxide: CO (ppm), Particulate Matter (less than 1 micron in\\ndiameter): PM1 (ug/m^3), Particulate Matter (less than 2. 5 microns\\nin diameter): PM2. 5 (ug/m^3), Particulate Matter (less than 10\\nmicrons in diameter): PM10 (ug/m^3), Volatile Organic Compounds: VOC\\n(ug/m^3).",
      "sdfProperty": {
        "contaminanttype": {
          "description": "The contaminant being measured.",
          "enum": [
            "CH2O",
            "CO2",
            "CO",
            "PM1",
            "PM2.5",
            "PM10",
            "VOC",
            "Smoke",
            "Odor",
            "AirPollution"
          ],
          "writable": false,
          "type": "string"
        },
        "valuetype": {
          "description": "The property that indicates whether the provided value is qualitative\\nor measured.",
          "enum": [
            "Qualitative",
            "Measured"
          ],
          "writable": false,
          "type": "string"
        },
        "contaminantvalue": {
          "description": "The measured or qualitative value for the contaminant.",
          "writable": false,
          "type": "integer"
        },
        "range": {
          "type": "array",
          "description": "The valid range for the Property in the Resource as an integer. The\\nfirst value in the array is the minimum value, the second value in\\nthe array is the maximum value.",
          "writable": false,
          "minItems": 2,
          "maxItems": 2,
          "items": {
            "type": "integer"
          }
        }
      },
      "sdfRequired": [
        "#/sdfObject/airquality/sdfProperty/contaminantvalue",
        "#/sdfObject/airquality/sdfProperty/contaminanttype",
        "#/sdfObject/airquality/sdfProperty/valuetype"
      ]
    }
  }
}
@endjson

PlantUML version 1.2021.2(Sun Mar 07 13:10:27 EET 2021)
(GPL source distribution)
Java Runtime: OpenJDK Runtime Environment
JVM: OpenJDK 64-Bit Server VM
Default Encoding: UTF-8
Language: en
Country: FI
--></g></svg>