<?xml version="1.0" encoding="UTF-8" standalone="no"?><svg xmlns="http://www.w3.org/2000/svg" xmlns:xlink="http://www.w3.org/1999/xlink" contentScriptType="application/ecmascript" contentStyleType="text/css" height="198px" preserveAspectRatio="none" style="width:2311px;height:198px;" version="1.1" viewBox="0 0 2311 198" width="2311px" zoomAndPan="magnify"><defs/><g><rect fill="#FEFECE" height="40.9766" rx="5" ry="5" style="stroke:#FEFECE;stroke-width:1.5;" width="97" x="10" y="65.5"/><text fill="#000000" font-family="sans-serif" font-size="14" lengthAdjust="spacing" textLength="27" x="15" y="81.0352">info</text><text fill="#000000" font-family="sans-serif" font-size="14" lengthAdjust="spacing" textLength="0" x="102" y="81.0352"/><line style="stroke:#A80036;stroke-width:1.0;" x1="85" x2="85" y1="65.5" y2="85.9883"/><line style="stroke:#A80036;stroke-width:1.0;" x1="10" x2="107" y1="85.9883" y2="85.9883"/><text fill="#000000" font-family="sans-serif" font-size="14" lengthAdjust="spacing" textLength="65" x="15" y="101.5234">sdfObject</text><text fill="#000000" font-family="sans-serif" font-size="14" lengthAdjust="spacing" textLength="0" x="102" y="101.5234"/><line style="stroke:#A80036;stroke-width:1.0;" x1="85" x2="85" y1="85.9883" y2="106.4766"/><rect fill="none" height="40.9766" rx="5" ry="5" style="stroke:#A80036;stroke-width:1.5;" width="97" x="10" y="65.5"/><rect fill="#FEFECE" height="81.9531" rx="5" ry="5" style="stroke:#FEFECE;stroke-width:1.5;" width="655" x="144" y="10"/><text fill="#000000" font-family="sans-serif" font-size="14" lengthAdjust="spacing" textLength="65" x="149" y="25.5352">copyright</text><text fill="#000000" font-family="sans-serif" font-size="14" lengthAdjust="spacing" textLength="570" x="224" y="25.5352">copyright 2016-2017, 2019 Open Connectivity Foundation, Inc. All rights reserved.</text><line style="stroke:#A80036;stroke-width:1.0;" x1="219" x2="219" y1="10" y2="30.4883"/><line style="stroke:#A80036;stroke-width:1.0;" x1="144" x2="799" y1="30.4883" y2="30.4883"/><text fill="#000000" font-family="sans-serif" font-size="14" lengthAdjust="spacing" textLength="47" x="149" y="46.0234">license</text><text fill="#000000" font-family="sans-serif" font-size="14" lengthAdjust="spacing" textLength="462" x="224" y="46.0234">https://github.com/one-data-model/oneDM/blob/master/LICENSE</text><line style="stroke:#A80036;stroke-width:1.0;" x1="219" x2="219" y1="30.4883" y2="50.9766"/><line style="stroke:#A80036;stroke-width:1.0;" x1="144" x2="799" y1="50.9766" y2="50.9766"/><text fill="#000000" font-family="sans-serif" font-size="14" lengthAdjust="spacing" textLength="26" x="149" y="66.5117">title</text><text fill="#000000" font-family="sans-serif" font-size="14" lengthAdjust="spacing" textLength="113" x="224" y="66.5117">Optical RFID Tag</text><line style="stroke:#A80036;stroke-width:1.0;" x1="219" x2="219" y1="50.9766" y2="71.4648"/><line style="stroke:#A80036;stroke-width:1.0;" x1="144" x2="799" y1="71.4648" y2="71.4648"/><text fill="#000000" font-family="sans-serif" font-size="14" lengthAdjust="spacing" textLength="50" x="149" y="87">version</text><text fill="#000000" font-family="sans-serif" font-size="14" lengthAdjust="spacing" textLength="88" x="224" y="87">2019-02-15</text><line style="stroke:#A80036;stroke-width:1.0;" x1="219" x2="219" y1="71.4648" y2="91.9531"/><rect fill="none" height="81.9531" rx="5" ry="5" style="stroke:#A80036;stroke-width:1.5;" width="655" x="144" y="10"/><rect fill="#FEFECE" height="20.4883" rx="5" ry="5" style="stroke:#FEFECE;stroke-width:1.5;" width="91" x="426" y="110"/><text fill="#000000" font-family="sans-serif" font-size="14" lengthAdjust="spacing" textLength="59" x="431" y="125.5352">orfid.tag</text><text fill="#000000" font-family="sans-serif" font-size="14" lengthAdjust="spacing" textLength="0" x="512" y="125.5352"/><line style="stroke:#A80036;stroke-width:1.0;" x1="495" x2="495" y1="110" y2="130.4883"/><rect fill="none" height="20.4883" rx="5" ry="5" style="stroke:#A80036;stroke-width:1.5;" width="91" x="426" y="110"/><rect fill="#FEFECE" height="77.9531" rx="5" ry="5" style="stroke:#FEFECE;stroke-width:1.5;" width="567" x="836" y="81"/><text fill="#000000" font-family="sans-serif" font-size="14" lengthAdjust="spacing" textLength="77" x="841" y="96.5352">description</text><text fill="#000000" font-family="sans-serif" font-size="14" lengthAdjust="spacing" textLength="464" x="934" y="96.5352">The Property "tagid" is an integer showing the currently read optical</text><text fill="#000000" font-family="sans-serif" font-size="14" lengthAdjust="spacing" textLength="293" x="934" y="113.0234">augmented RFID tag's identity information.</text><line style="stroke:#A80036;stroke-width:1.0;" x1="929" x2="929" y1="81" y2="117.9766"/><line style="stroke:#A80036;stroke-width:1.0;" x1="836" x2="1403" y1="117.9766" y2="117.9766"/><text fill="#000000" font-family="sans-serif" font-size="14" lengthAdjust="spacing" textLength="79" x="841" y="133.5117">sdfProperty</text><text fill="#000000" font-family="sans-serif" font-size="14" lengthAdjust="spacing" textLength="0" x="946" y="133.5117"/><line style="stroke:#A80036;stroke-width:1.0;" x1="929" x2="929" y1="117.9766" y2="138.4648"/><line style="stroke:#A80036;stroke-width:1.0;" x1="836" x2="1403" y1="138.4648" y2="138.4648"/><text fill="#000000" font-family="sans-serif" font-size="14" lengthAdjust="spacing" textLength="83" x="841" y="154">sdfRequired</text><text fill="#000000" font-family="sans-serif" font-size="14" lengthAdjust="spacing" textLength="0" x="946" y="154"/><line style="stroke:#A80036;stroke-width:1.0;" x1="929" x2="929" y1="138.4648" y2="158.9531"/><rect fill="none" height="77.9531" rx="5" ry="5" style="stroke:#A80036;stroke-width:1.5;" width="567" x="836" y="81"/><rect fill="#FEFECE" height="40.9766" rx="5" ry="5" style="stroke:#FEFECE;stroke-width:1.5;" width="85" x="1549" y="83.5"/><text fill="#000000" font-family="sans-serif" font-size="14" lengthAdjust="spacing" textLength="35" x="1554" y="99.0352">tagid</text><text fill="#000000" font-family="sans-serif" font-size="14" lengthAdjust="spacing" textLength="0" x="1629" y="99.0352"/><line style="stroke:#A80036;stroke-width:1.0;" x1="1612" x2="1612" y1="83.5" y2="103.9883"/><line style="stroke:#A80036;stroke-width:1.0;" x1="1549" x2="1634" y1="103.9883" y2="103.9883"/><text fill="#000000" font-family="sans-serif" font-size="14" lengthAdjust="spacing" textLength="53" x="1554" y="119.5234">reading</text><text fill="#000000" font-family="sans-serif" font-size="14" lengthAdjust="spacing" textLength="0" x="1629" y="119.5234"/><line style="stroke:#A80036;stroke-width:1.0;" x1="1612" x2="1612" y1="103.9883" y2="124.4766"/><rect fill="none" height="40.9766" rx="5" ry="5" style="stroke:#A80036;stroke-width:1.5;" width="85" x="1549" y="83.5"/><rect fill="#FEFECE" height="61.4648" rx="5" ry="5" style="stroke:#FEFECE;stroke-width:1.5;" width="318" x="1880.5" y="29.5"/><text fill="#000000" font-family="sans-serif" font-size="14" lengthAdjust="spacing" textLength="77" x="1885.5" y="45.0352">description</text><text fill="#000000" font-family="sans-serif" font-size="14" lengthAdjust="spacing" textLength="221" x="1972.5" y="45.0352">The tag read by the RFID reader.</text><line style="stroke:#A80036;stroke-width:1.0;" x1="1967.5" x2="1967.5" y1="29.5" y2="49.9883"/><line style="stroke:#A80036;stroke-width:1.0;" x1="1880.5" x2="2198.5" y1="49.9883" y2="49.9883"/><text fill="#000000" font-family="sans-serif" font-size="14" lengthAdjust="spacing" textLength="55" x="1885.5" y="65.5234">writable</text><text fill="#000000" font-family="sans-serif" font-size="14" lengthAdjust="spacing" textLength="48" x="1972.5" y="65.5234">☐ false</text><line style="stroke:#A80036;stroke-width:1.0;" x1="1967.5" x2="1967.5" y1="49.9883" y2="70.4766"/><line style="stroke:#A80036;stroke-width:1.0;" x1="1880.5" x2="2198.5" y1="70.4766" y2="70.4766"/><text fill="#000000" font-family="sans-serif" font-size="14" lengthAdjust="spacing" textLength="29" x="1885.5" y="86.0117">type</text><text fill="#000000" font-family="sans-serif" font-size="14" lengthAdjust="spacing" textLength="49" x="1972.5" y="86.0117">integer</text><line style="stroke:#A80036;stroke-width:1.0;" x1="1967.5" x2="1967.5" y1="70.4766" y2="90.9648"/><rect fill="none" height="61.4648" rx="5" ry="5" style="stroke:#A80036;stroke-width:1.5;" width="318" x="1880.5" y="29.5"/><rect fill="#FEFECE" height="77.9531" rx="5" ry="5" style="stroke:#FEFECE;stroke-width:1.5;" width="519" x="1780" y="109"/><text fill="#000000" font-family="sans-serif" font-size="14" lengthAdjust="spacing" textLength="77" x="1785" y="124.5352">description</text><text fill="#000000" font-family="sans-serif" font-size="14" lengthAdjust="spacing" textLength="422" x="1872" y="124.5352">The reading indication. true: the tagid is read e.g. being valid.</text><text fill="#000000" font-family="sans-serif" font-size="14" lengthAdjust="spacing" textLength="169" x="1872" y="141.0234">false: the tagid is invalid.</text><line style="stroke:#A80036;stroke-width:1.0;" x1="1867" x2="1867" y1="109" y2="145.9766"/><line style="stroke:#A80036;stroke-width:1.0;" x1="1780" x2="2299" y1="145.9766" y2="145.9766"/><text fill="#000000" font-family="sans-serif" font-size="14" lengthAdjust="spacing" textLength="55" x="1785" y="161.5117">writable</text><text fill="#000000" font-family="sans-serif" font-size="14" lengthAdjust="spacing" textLength="48" x="1872" y="161.5117">☐ false</text><line style="stroke:#A80036;stroke-width:1.0;" x1="1867" x2="1867" y1="145.9766" y2="166.4648"/><line style="stroke:#A80036;stroke-width:1.0;" x1="1780" x2="2299" y1="166.4648" y2="166.4648"/><text fill="#000000" font-family="sans-serif" font-size="14" lengthAdjust="spacing" textLength="29" x="1785" y="182">type</text><text fill="#000000" font-family="sans-serif" font-size="14" lengthAdjust="spacing" textLength="56" x="1872" y="182">boolean</text><line style="stroke:#A80036;stroke-width:1.0;" x1="1867" x2="1867" y1="166.4648" y2="186.9531"/><rect fill="none" height="77.9531" rx="5" ry="5" style="stroke:#A80036;stroke-width:1.5;" width="519" x="1780" y="109"/><rect fill="#FEFECE" height="40.9766" rx="5" ry="5" style="stroke:#FEFECE;stroke-width:1.5;" width="303" x="1440" y="142.5"/><text fill="#000000" font-family="sans-serif" font-size="14" lengthAdjust="spacing" textLength="275" x="1445" y="158.0352">#/sdfObject/orfid.tag/sdfProperty/tagid</text><line style="stroke:#A80036;stroke-width:1.0;" x1="1440" x2="1743" y1="162.9883" y2="162.9883"/><text fill="#000000" font-family="sans-serif" font-size="14" lengthAdjust="spacing" textLength="293" x="1445" y="178.5234">#/sdfObject/orfid.tag/sdfProperty/reading</text><rect fill="none" height="40.9766" rx="5" ry="5" style="stroke:#A80036;stroke-width:1.5;" width="303" x="1440" y="142.5"/><path d="M95,75 L108,75 C117.3442,75 126.8208,74.9198 136.3833,74.7688 " fill="none" style="stroke:#A80036;stroke-width:1.0;stroke-dasharray:3.0,3.0;"/><path d="M136.4378,77.8434 L138.6892,74.7279 L136.3288,71.6942 L144.0697,74.6326 L136.4378,77.8434 " fill="#A80036" style="stroke:#A80036;stroke-width:1.0;"/><ellipse cx="95" cy="75" fill="#A80036" rx="3" ry="3" style="stroke:#A80036;stroke-width:1.0;stroke-dasharray:3.0,3.0;"/><path d="M1623,93 L1636,93 C1714.0606,93 1800.3434,86.7737 1872.9774,79.7301 " fill="none" style="stroke:#A80036;stroke-width:1.0;stroke-dasharray:3.0,3.0;"/><path d="M1873.2865,82.8838 L1875.3426,79.4982 L1872.6682,76.5764 L1880.8617,78.9572 L1873.2865,82.8838 " fill="#A80036" style="stroke:#A80036;stroke-width:1.0;"/><ellipse cx="1623" cy="93" fill="#A80036" rx="3" ry="3" style="stroke:#A80036;stroke-width:1.0;stroke-dasharray:3.0,3.0;"/><path d="M1623,114 L1636,114 C1680.3131,114 1727.2702,116.0664 1772.8746,119.1804 " fill="none" style="stroke:#A80036;stroke-width:1.0;stroke-dasharray:3.0,3.0;"/><path d="M1772.6627,122.2216 L1775.1555,119.3393 L1773.0864,116.1391 L1780.4777,119.71 L1772.6627,122.2216 " fill="#A80036" style="stroke:#A80036;stroke-width:1.0;"/><ellipse cx="1623" cy="114" fill="#A80036" rx="3" ry="3" style="stroke:#A80036;stroke-width:1.0;stroke-dasharray:3.0,3.0;"/><path d="M1391,120 L1404,120 C1450.847,120 1504.056,114.9534 1541.7049,110.5287 " fill="none" style="stroke:#A80036;stroke-width:1.0;stroke-dasharray:3.0,3.0;"/><path d="M1542.078,113.6446 L1544.0418,110.2489 L1541.3318,107.4128 L1549.4947,109.596 L1542.078,113.6446 " fill="#A80036" style="stroke:#A80036;stroke-width:1.0;"/><ellipse cx="1391" cy="120" fill="#A80036" rx="3" ry="3" style="stroke:#A80036;stroke-width:1.0;stroke-dasharray:3.0,3.0;"/><path d="M1391,146 L1404,146 C1413.3245,146 1422.8998,146.2122 1432.5536,146.5893 " fill="none" style="stroke:#A80036;stroke-width:1.0;stroke-dasharray:3.0,3.0;"/><path d="M1432.4188,149.6915 L1434.8802,146.6903 L1432.6883,143.487 L1440.3092,146.9261 L1432.4188,149.6915 " fill="#A80036" style="stroke:#A80036;stroke-width:1.0;"/><ellipse cx="1391" cy="146" fill="#A80036" rx="3" ry="3" style="stroke:#A80036;stroke-width:1.0;stroke-dasharray:3.0,3.0;"/><path d="M506,120 L519,120 C619.8873,120 730.3167,120 828.628,120 " fill="none" style="stroke:#A80036;stroke-width:1.0;stroke-dasharray:3.0,3.0;"/><path d="M828.628,123.0634 L830.9256,120 L828.628,116.9366 L836.2866,120 L828.628,123.0634 " fill="#A80036" style="stroke:#A80036;stroke-width:1.0;"/><ellipse cx="506" cy="120" fill="#A80036" rx="3" ry="3" style="stroke:#A80036;stroke-width:1.0;stroke-dasharray:3.0,3.0;"/><path d="M95,96 L108,96 C124.1536,96 127.924,99.4191 144,101 C240.8016,110.5192 354.2285,115.8 418.8493,118.2565 " fill="none" style="stroke:#A80036;stroke-width:1.0;stroke-dasharray:3.0,3.0;"/><path d="M418.7351,121.3102 L421.1396,118.3422 L418.9636,115.2028 L426.4836,118.5422 L418.7351,121.3102 " fill="#A80036" style="stroke:#A80036;stroke-width:1.0;"/><ellipse cx="95" cy="96" fill="#A80036" rx="3" ry="3" style="stroke:#A80036;stroke-width:1.0;stroke-dasharray:3.0,3.0;"/><!--MD5=[fe188552a2a8588b8a4a2f25899a0030]
@startjson
{
  "info": {
    "copyright": "copyright 2016-2017, 2019 Open Connectivity Foundation, Inc. All rights reserved.",
    "license": "https://github.com/one-data-model/oneDM/blob/master/LICENSE",
    "title": "Optical RFID Tag",
    "version": "2019-02-15"
  },
  "sdfObject": {
    "orfid.tag": {
      "description": "The Property \"tagid\" is an integer showing the currently read optical\\naugmented RFID tag's identity information.",
      "sdfProperty": {
        "tagid": {
          "description": "The tag read by the RFID reader.",
          "writable": false,
          "type": "integer"
        },
        "reading": {
          "description": "The reading indication. true: the tagid is read e.g. being valid.\\nfalse: the tagid is invalid.",
          "writable": false,
          "type": "boolean"
        }
      },
      "sdfRequired": [
        "#/sdfObject/orfid.tag/sdfProperty/tagid",
        "#/sdfObject/orfid.tag/sdfProperty/reading"
      ]
    }
  }
}
@endjson

PlantUML version 1.2021.2(Sun Mar 07 13:10:27 EET 2021)
(GPL source distribution)
Java Runtime: OpenJDK Runtime Environment
JVM: OpenJDK 64-Bit Server VM
Default Encoding: UTF-8
Language: en
Country: FI
--></g></svg>