<?xml version="1.0" encoding="UTF-8" standalone="no"?><svg xmlns="http://www.w3.org/2000/svg" xmlns:xlink="http://www.w3.org/1999/xlink" contentScriptType="application/ecmascript" contentStyleType="text/css" height="195px" preserveAspectRatio="none" style="width:2055px;height:195px;" version="1.1" viewBox="0 0 2055 195" width="2055px" zoomAndPan="magnify"><defs/><g><rect fill="#FEFECE" height="40.9766" rx="5" ry="5" style="stroke:#FEFECE;stroke-width:1.5;" width="97" x="10" y="65.5"/><text fill="#000000" font-family="sans-serif" font-size="14" lengthAdjust="spacing" textLength="27" x="15" y="81.0352">info</text><text fill="#000000" font-family="sans-serif" font-size="14" lengthAdjust="spacing" textLength="0" x="102" y="81.0352"/><line style="stroke:#A80036;stroke-width:1.0;" x1="85" x2="85" y1="65.5" y2="85.9883"/><line style="stroke:#A80036;stroke-width:1.0;" x1="10" x2="107" y1="85.9883" y2="85.9883"/><text fill="#000000" font-family="sans-serif" font-size="14" lengthAdjust="spacing" textLength="65" x="15" y="101.5234">sdfObject</text><text fill="#000000" font-family="sans-serif" font-size="14" lengthAdjust="spacing" textLength="0" x="102" y="101.5234"/><line style="stroke:#A80036;stroke-width:1.0;" x1="85" x2="85" y1="85.9883" y2="106.4766"/><rect fill="none" height="40.9766" rx="5" ry="5" style="stroke:#A80036;stroke-width:1.5;" width="97" x="10" y="65.5"/><rect fill="#FEFECE" height="81.9531" rx="5" ry="5" style="stroke:#FEFECE;stroke-width:1.5;" width="570" x="144" y="10"/><text fill="#000000" font-family="sans-serif" font-size="14" lengthAdjust="spacing" textLength="65" x="149" y="25.5352">copyright</text><text fill="#000000" font-family="sans-serif" font-size="14" lengthAdjust="spacing" textLength="485" x="224" y="25.5352">Copyright 2019 Open Connectivity Foundation, Inc. All rights reserved.</text><line style="stroke:#A80036;stroke-width:1.0;" x1="219" x2="219" y1="10" y2="30.4883"/><line style="stroke:#A80036;stroke-width:1.0;" x1="144" x2="714" y1="30.4883" y2="30.4883"/><text fill="#000000" font-family="sans-serif" font-size="14" lengthAdjust="spacing" textLength="47" x="149" y="46.0234">license</text><text fill="#000000" font-family="sans-serif" font-size="14" lengthAdjust="spacing" textLength="462" x="224" y="46.0234">https://github.com/one-data-model/oneDM/blob/master/LICENSE</text><line style="stroke:#A80036;stroke-width:1.0;" x1="219" x2="219" y1="30.4883" y2="50.9766"/><line style="stroke:#A80036;stroke-width:1.0;" x1="144" x2="714" y1="50.9766" y2="50.9766"/><text fill="#000000" font-family="sans-serif" font-size="14" lengthAdjust="spacing" textLength="26" x="149" y="66.5117">title</text><text fill="#000000" font-family="sans-serif" font-size="14" lengthAdjust="spacing" textLength="161" x="224" y="66.5117">Fault Interrupter Switch</text><line style="stroke:#A80036;stroke-width:1.0;" x1="219" x2="219" y1="50.9766" y2="71.4648"/><line style="stroke:#A80036;stroke-width:1.0;" x1="144" x2="714" y1="71.4648" y2="71.4648"/><text fill="#000000" font-family="sans-serif" font-size="14" lengthAdjust="spacing" textLength="50" x="149" y="87">version</text><text fill="#000000" font-family="sans-serif" font-size="14" lengthAdjust="spacing" textLength="88" x="224" y="87">2019-11-14</text><line style="stroke:#A80036;stroke-width:1.0;" x1="219" x2="219" y1="71.4648" y2="91.9531"/><rect fill="none" height="81.9531" rx="5" ry="5" style="stroke:#A80036;stroke-width:1.5;" width="570" x="144" y="10"/><rect fill="#FEFECE" height="20.4883" rx="5" ry="5" style="stroke:#FEFECE;stroke-width:1.5;" width="110" x="374" y="110"/><text fill="#000000" font-family="sans-serif" font-size="14" lengthAdjust="spacing" textLength="78" x="379" y="125.5352">switch.fault</text><text fill="#000000" font-family="sans-serif" font-size="14" lengthAdjust="spacing" textLength="0" x="479" y="125.5352"/><line style="stroke:#A80036;stroke-width:1.0;" x1="462" x2="462" y1="110" y2="130.4883"/><rect fill="none" height="20.4883" rx="5" ry="5" style="stroke:#A80036;stroke-width:1.5;" width="110" x="374" y="110"/><rect fill="#FEFECE" height="127.418" rx="5" ry="5" style="stroke:#FEFECE;stroke-width:1.5;" width="558" x="751" y="56.5"/><text fill="#000000" font-family="sans-serif" font-size="14" lengthAdjust="spacing" textLength="77" x="756" y="72.0352">description</text><text fill="#000000" font-family="sans-serif" font-size="14" lengthAdjust="spacing" textLength="455" x="849" y="72.0352">This Resource describes a fault interrupter switch (on/off/faulted).</text><text fill="#000000" font-family="sans-serif" font-size="14" lengthAdjust="spacing" textLength="425" x="849" y="88.5234">The Property "state" is an enum. A state of "on" means that the</text><text fill="#000000" font-family="sans-serif" font-size="14" lengthAdjust="spacing" textLength="432" x="849" y="105.0117">switch is on. A state of "off" means that the switch is off. A state</text><text fill="#000000" font-family="sans-serif" font-size="14" lengthAdjust="spacing" textLength="451" x="849" y="121.5">of "faulted" means the switch is faulted, in such a state an UPDATE</text><text fill="#000000" font-family="sans-serif" font-size="14" lengthAdjust="spacing" textLength="103" x="849" y="137.9883">is not possible.</text><line style="stroke:#A80036;stroke-width:1.0;" x1="844" x2="844" y1="56.5" y2="142.9414"/><line style="stroke:#A80036;stroke-width:1.0;" x1="751" x2="1309" y1="142.9414" y2="142.9414"/><text fill="#000000" font-family="sans-serif" font-size="14" lengthAdjust="spacing" textLength="79" x="756" y="158.4766">sdfProperty</text><text fill="#000000" font-family="sans-serif" font-size="14" lengthAdjust="spacing" textLength="0" x="861" y="158.4766"/><line style="stroke:#A80036;stroke-width:1.0;" x1="844" x2="844" y1="142.9414" y2="163.4297"/><line style="stroke:#A80036;stroke-width:1.0;" x1="751" x2="1309" y1="163.4297" y2="163.4297"/><text fill="#000000" font-family="sans-serif" font-size="14" lengthAdjust="spacing" textLength="83" x="756" y="178.9648">sdfRequired</text><text fill="#000000" font-family="sans-serif" font-size="14" lengthAdjust="spacing" textLength="0" x="861" y="178.9648"/><line style="stroke:#A80036;stroke-width:1.0;" x1="844" x2="844" y1="163.4297" y2="183.918"/><rect fill="none" height="127.418" rx="5" ry="5" style="stroke:#A80036;stroke-width:1.5;" width="558" x="751" y="56.5"/><rect fill="#FEFECE" height="20.4883" rx="5" ry="5" style="stroke:#FEFECE;stroke-width:1.5;" width="65" x="1464.5" y="109"/><text fill="#000000" font-family="sans-serif" font-size="14" lengthAdjust="spacing" textLength="33" x="1469.5" y="124.5352">state</text><text fill="#000000" font-family="sans-serif" font-size="14" lengthAdjust="spacing" textLength="0" x="1524.5" y="124.5352"/><line style="stroke:#A80036;stroke-width:1.0;" x1="1507.5" x2="1507.5" y1="109" y2="129.4883"/><rect fill="none" height="20.4883" rx="5" ry="5" style="stroke:#A80036;stroke-width:1.5;" width="65" x="1464.5" y="109"/><rect fill="#FEFECE" height="61.4648" rx="5" ry="5" style="stroke:#FEFECE;stroke-width:1.5;" width="263" x="1685" y="88.5"/><text fill="#000000" font-family="sans-serif" font-size="14" lengthAdjust="spacing" textLength="77" x="1690" y="104.0352">description</text><text fill="#000000" font-family="sans-serif" font-size="14" lengthAdjust="spacing" textLength="166" x="1777" y="104.0352">The status of the switch.</text><line style="stroke:#A80036;stroke-width:1.0;" x1="1772" x2="1772" y1="88.5" y2="108.9883"/><line style="stroke:#A80036;stroke-width:1.0;" x1="1685" x2="1948" y1="108.9883" y2="108.9883"/><text fill="#000000" font-family="sans-serif" font-size="14" lengthAdjust="spacing" textLength="39" x="1690" y="124.5234">enum</text><text fill="#000000" font-family="sans-serif" font-size="14" lengthAdjust="spacing" textLength="0" x="1789" y="124.5234"/><line style="stroke:#A80036;stroke-width:1.0;" x1="1772" x2="1772" y1="108.9883" y2="129.4766"/><line style="stroke:#A80036;stroke-width:1.0;" x1="1685" x2="1948" y1="129.4766" y2="129.4766"/><text fill="#000000" font-family="sans-serif" font-size="14" lengthAdjust="spacing" textLength="29" x="1690" y="145.0117">type</text><text fill="#000000" font-family="sans-serif" font-size="14" lengthAdjust="spacing" textLength="40" x="1777" y="145.0117">string</text><line style="stroke:#A80036;stroke-width:1.0;" x1="1772" x2="1772" y1="129.4766" y2="149.9648"/><rect fill="none" height="61.4648" rx="5" ry="5" style="stroke:#A80036;stroke-width:1.5;" width="263" x="1685" y="88.5"/><rect fill="#FEFECE" height="61.4648" rx="5" ry="5" style="stroke:#FEFECE;stroke-width:1.5;" width="58" x="1985" y="87.5"/><text fill="#000000" font-family="sans-serif" font-size="14" lengthAdjust="spacing" textLength="18" x="1990" y="103.0352">on</text><line style="stroke:#A80036;stroke-width:1.0;" x1="1985" x2="2043" y1="107.9883" y2="107.9883"/><text fill="#000000" font-family="sans-serif" font-size="14" lengthAdjust="spacing" textLength="19" x="1990" y="123.5234">off</text><line style="stroke:#A80036;stroke-width:1.0;" x1="1985" x2="2043" y1="128.4766" y2="128.4766"/><text fill="#000000" font-family="sans-serif" font-size="14" lengthAdjust="spacing" textLength="48" x="1990" y="144.0117">faulted</text><rect fill="none" height="61.4648" rx="5" ry="5" style="stroke:#A80036;stroke-width:1.5;" width="58" x="1985" y="87.5"/><rect fill="#FEFECE" height="20.4883" rx="5" ry="5" style="stroke:#FEFECE;stroke-width:1.5;" width="302" x="1346" y="152"/><text fill="#000000" font-family="sans-serif" font-size="14" lengthAdjust="spacing" textLength="292" x="1351" y="167.5352">#/sdfObject/switch.fault/sdfProperty/state</text><rect fill="none" height="20.4883" rx="5" ry="5" style="stroke:#A80036;stroke-width:1.5;" width="302" x="1346" y="152"/><path d="M95,75 L108,75 C117.356,75 126.8613,74.897 136.4563,74.7046 " fill="none" style="stroke:#A80036;stroke-width:1.0;stroke-dasharray:3.0,3.0;"/><path d="M136.5256,77.7898 L138.7703,74.6526 L136.387,71.6194 L144.1694,74.5314 L136.5256,77.7898 " fill="#A80036" style="stroke:#A80036;stroke-width:1.0;"/><ellipse cx="95" cy="75" fill="#A80036" rx="3" ry="3" style="stroke:#A80036;stroke-width:1.0;stroke-dasharray:3.0,3.0;"/><path d="M1936,118 L1949,118 C1958.2733,118 1968.2965,118 1977.6141,118 " fill="none" style="stroke:#A80036;stroke-width:1.0;stroke-dasharray:3.0,3.0;"/><path d="M1977.6141,121.0515 L1979.9027,118 L1977.6141,114.9485 L1985.2429,118 L1977.6141,121.0515 " fill="#A80036" style="stroke:#A80036;stroke-width:1.0;"/><ellipse cx="1936" cy="118" fill="#A80036" rx="3" ry="3" style="stroke:#A80036;stroke-width:1.0;stroke-dasharray:3.0,3.0;"/><path d="M1518.5,119 L1531.5,119 C1579.1065,119 1631.1939,119 1677.6398,119 " fill="none" style="stroke:#A80036;stroke-width:1.0;stroke-dasharray:3.0,3.0;"/><path d="M1677.6398,122.0811 L1679.9506,119 L1677.6398,115.9189 L1685.3425,119 L1677.6398,122.0811 " fill="#A80036" style="stroke:#A80036;stroke-width:1.0;"/><ellipse cx="1518.5" cy="119" fill="#A80036" rx="3" ry="3" style="stroke:#A80036;stroke-width:1.0;stroke-dasharray:3.0,3.0;"/><path d="M1297,119 L1310,119 C1360.7836,119 1419.3456,119 1457.0924,119 " fill="none" style="stroke:#A80036;stroke-width:1.0;stroke-dasharray:3.0,3.0;"/><path d="M1457.0924,122.0914 L1459.411,119 L1457.0924,115.9086 L1464.821,119 L1457.0924,122.0914 " fill="#A80036" style="stroke:#A80036;stroke-width:1.0;"/><ellipse cx="1297" cy="119" fill="#A80036" rx="3" ry="3" style="stroke:#A80036;stroke-width:1.0;stroke-dasharray:3.0,3.0;"/><path d="M1297,162 L1310,162 C1319.3253,162 1328.9128,162 1338.5856,162 " fill="none" style="stroke:#A80036;stroke-width:1.0;stroke-dasharray:3.0,3.0;"/><path d="M1338.5856,165.1089 L1340.9172,162 L1338.5856,158.8911 L1346.3578,162 L1338.5856,165.1089 " fill="#A80036" style="stroke:#A80036;stroke-width:1.0;"/><ellipse cx="1297" cy="162" fill="#A80036" rx="3" ry="3" style="stroke:#A80036;stroke-width:1.0;stroke-dasharray:3.0,3.0;"/><path d="M472.5,120 L485.5,120 C569.3849,120 660.5458,120 743.8363,120 " fill="none" style="stroke:#A80036;stroke-width:1.0;stroke-dasharray:3.0,3.0;"/><path d="M743.8363,123.0078 L746.0921,120 L743.8363,116.9922 L751.3558,120 L743.8363,123.0078 " fill="#A80036" style="stroke:#A80036;stroke-width:1.0;"/><ellipse cx="472.5" cy="120" fill="#A80036" rx="3" ry="3" style="stroke:#A80036;stroke-width:1.0;stroke-dasharray:3.0,3.0;"/><path d="M95,96 L108,96 C124.1536,96 127.9309,99.3496 144,101 C220.5821,108.8653 309.1116,114.1863 366.8105,117.1516 " fill="none" style="stroke:#A80036;stroke-width:1.0;stroke-dasharray:3.0,3.0;"/><path d="M366.6564,120.1841 L369.0849,117.2671 L366.9645,114.119 L374.3918,117.5367 L366.6564,120.1841 " fill="#A80036" style="stroke:#A80036;stroke-width:1.0;"/><ellipse cx="95" cy="96" fill="#A80036" rx="3" ry="3" style="stroke:#A80036;stroke-width:1.0;stroke-dasharray:3.0,3.0;"/><!--MD5=[f05257dad5c7d1142b4f7b62f92d97bc]
@startjson
{
  "info": {
    "copyright": "Copyright 2019 Open Connectivity Foundation, Inc. All rights reserved.",
    "license": "https://github.com/one-data-model/oneDM/blob/master/LICENSE",
    "title": "Fault Interrupter Switch",
    "version": "2019-11-14"
  },
  "sdfObject": {
    "switch.fault": {
      "description": "This Resource describes a fault interrupter switch (on/off/faulted).\\nThe Property \"state\" is an enum. A state of \"on\" means that the\\nswitch is on. A state of \"off\" means that the switch is off. A state\\nof \"faulted\" means the switch is faulted, in such a state an UPDATE\\nis not possible.",
      "sdfProperty": {
        "state": {
          "description": "The status of the switch.",
          "enum": [
            "on",
            "off",
            "faulted"
          ],
          "type": "string"
        }
      },
      "sdfRequired": [
        "#/sdfObject/switch.fault/sdfProperty/state"
      ]
    }
  }
}
@endjson

PlantUML version 1.2021.2(Sun Mar 07 13:10:27 EET 2021)
(GPL source distribution)
Java Runtime: OpenJDK Runtime Environment
JVM: OpenJDK 64-Bit Server VM
Default Encoding: UTF-8
Language: en
Country: FI
--></g></svg>