<?xml version="1.0" encoding="UTF-8" standalone="no"?><svg xmlns="http://www.w3.org/2000/svg" xmlns:xlink="http://www.w3.org/1999/xlink" contentScriptType="application/ecmascript" contentStyleType="text/css" height="349px" preserveAspectRatio="none" style="width:2587px;height:349px;" version="1.1" viewBox="0 0 2587 349" width="2587px" zoomAndPan="magnify"><defs/><g><rect fill="#FEFECE" height="40.9766" rx="5" ry="5" style="stroke:#FEFECE;stroke-width:1.5;" width="97" x="10" y="99"/><text fill="#000000" font-family="sans-serif" font-size="14" lengthAdjust="spacing" textLength="27" x="15" y="114.5352">info</text><text fill="#000000" font-family="sans-serif" font-size="14" lengthAdjust="spacing" textLength="0" x="102" y="114.5352"/><line style="stroke:#A80036;stroke-width:1.0;" x1="85" x2="85" y1="99" y2="119.4883"/><line style="stroke:#A80036;stroke-width:1.0;" x1="10" x2="107" y1="119.4883" y2="119.4883"/><text fill="#000000" font-family="sans-serif" font-size="14" lengthAdjust="spacing" textLength="65" x="15" y="135.0234">sdfObject</text><text fill="#000000" font-family="sans-serif" font-size="14" lengthAdjust="spacing" textLength="0" x="102" y="135.0234"/><line style="stroke:#A80036;stroke-width:1.0;" x1="85" x2="85" y1="119.4883" y2="139.9766"/><rect fill="none" height="40.9766" rx="5" ry="5" style="stroke:#A80036;stroke-width:1.5;" width="97" x="10" y="99"/><rect fill="#FEFECE" height="81.9531" rx="5" ry="5" style="stroke:#FEFECE;stroke-width:1.5;" width="655" x="144" y="43.5"/><text fill="#000000" font-family="sans-serif" font-size="14" lengthAdjust="spacing" textLength="65" x="149" y="59.0352">copyright</text><text fill="#000000" font-family="sans-serif" font-size="14" lengthAdjust="spacing" textLength="570" x="224" y="59.0352">copyright 2016-2017, 2019 Open Connectivity Foundation, Inc. All rights reserved.</text><line style="stroke:#A80036;stroke-width:1.0;" x1="219" x2="219" y1="43.5" y2="63.9883"/><line style="stroke:#A80036;stroke-width:1.0;" x1="144" x2="799" y1="63.9883" y2="63.9883"/><text fill="#000000" font-family="sans-serif" font-size="14" lengthAdjust="spacing" textLength="47" x="149" y="79.5234">license</text><text fill="#000000" font-family="sans-serif" font-size="14" lengthAdjust="spacing" textLength="462" x="224" y="79.5234">https://github.com/one-data-model/oneDM/blob/master/LICENSE</text><line style="stroke:#A80036;stroke-width:1.0;" x1="219" x2="219" y1="63.9883" y2="84.4766"/><line style="stroke:#A80036;stroke-width:1.0;" x1="144" x2="799" y1="84.4766" y2="84.4766"/><text fill="#000000" font-family="sans-serif" font-size="14" lengthAdjust="spacing" textLength="26" x="149" y="100.0117">title</text><text fill="#000000" font-family="sans-serif" font-size="14" lengthAdjust="spacing" textLength="62" x="224" y="100.0117">Dimming</text><line style="stroke:#A80036;stroke-width:1.0;" x1="219" x2="219" y1="84.4766" y2="104.9648"/><line style="stroke:#A80036;stroke-width:1.0;" x1="144" x2="799" y1="104.9648" y2="104.9648"/><text fill="#000000" font-family="sans-serif" font-size="14" lengthAdjust="spacing" textLength="50" x="149" y="120.5">version</text><text fill="#000000" font-family="sans-serif" font-size="14" lengthAdjust="spacing" textLength="88" x="224" y="120.5">2019-02-15</text><line style="stroke:#A80036;stroke-width:1.0;" x1="219" x2="219" y1="104.9648" y2="125.4531"/><rect fill="none" height="81.9531" rx="5" ry="5" style="stroke:#A80036;stroke-width:1.5;" width="655" x="144" y="43.5"/><rect fill="#FEFECE" height="20.4883" rx="5" ry="5" style="stroke:#FEFECE;stroke-width:1.5;" width="128" x="407.5" y="143.5"/><text fill="#000000" font-family="sans-serif" font-size="14" lengthAdjust="spacing" textLength="96" x="412.5" y="159.0352">light.dimming</text><text fill="#000000" font-family="sans-serif" font-size="14" lengthAdjust="spacing" textLength="0" x="530.5" y="159.0352"/><line style="stroke:#A80036;stroke-width:1.0;" x1="513.5" x2="513.5" y1="143.5" y2="163.9883"/><rect fill="none" height="20.4883" rx="5" ry="5" style="stroke:#A80036;stroke-width:1.5;" width="128" x="407.5" y="143.5"/><rect fill="#FEFECE" height="143.9063" rx="5" ry="5" style="stroke:#FEFECE;stroke-width:1.5;" width="582" x="836" y="81.5"/><text fill="#000000" font-family="sans-serif" font-size="14" lengthAdjust="spacing" textLength="77" x="841" y="97.0352">description</text><text fill="#000000" font-family="sans-serif" font-size="14" lengthAdjust="spacing" textLength="399" x="934" y="97.0352">This Resource describes a dimming function. The Property</text><text fill="#000000" font-family="sans-serif" font-size="14" lengthAdjust="spacing" textLength="467" x="934" y="113.5234">"dimmingSetting" is an integer showing the current dimming level. If</text><text fill="#000000" font-family="sans-serif" font-size="14" lengthAdjust="spacing" textLength="458" x="934" y="130.0117">Property "step" is present then it represents the increment between</text><text fill="#000000" font-family="sans-serif" font-size="14" lengthAdjust="spacing" textLength="469" x="934" y="146.5">dimmer values. When the Property "range" is omitted, then the range</text><text fill="#000000" font-family="sans-serif" font-size="14" lengthAdjust="spacing" textLength="479" x="934" y="162.9883">is [0,100]. A value of 0 means total dimming; a value of 100 means no</text><text fill="#000000" font-family="sans-serif" font-size="14" lengthAdjust="spacing" textLength="65" x="934" y="179.4766">dimming.</text><line style="stroke:#A80036;stroke-width:1.0;" x1="929" x2="929" y1="81.5" y2="184.4297"/><line style="stroke:#A80036;stroke-width:1.0;" x1="836" x2="1418" y1="184.4297" y2="184.4297"/><text fill="#000000" font-family="sans-serif" font-size="14" lengthAdjust="spacing" textLength="79" x="841" y="199.9648">sdfProperty</text><text fill="#000000" font-family="sans-serif" font-size="14" lengthAdjust="spacing" textLength="0" x="946" y="199.9648"/><line style="stroke:#A80036;stroke-width:1.0;" x1="929" x2="929" y1="184.4297" y2="204.918"/><line style="stroke:#A80036;stroke-width:1.0;" x1="836" x2="1418" y1="204.918" y2="204.918"/><text fill="#000000" font-family="sans-serif" font-size="14" lengthAdjust="spacing" textLength="83" x="841" y="220.4531">sdfRequired</text><text fill="#000000" font-family="sans-serif" font-size="14" lengthAdjust="spacing" textLength="0" x="946" y="220.4531"/><line style="stroke:#A80036;stroke-width:1.0;" x1="929" x2="929" y1="204.918" y2="225.4063"/><rect fill="none" height="143.9063" rx="5" ry="5" style="stroke:#A80036;stroke-width:1.5;" width="582" x="836" y="81.5"/><rect fill="#FEFECE" height="61.4648" rx="5" ry="5" style="stroke:#FEFECE;stroke-width:1.5;" width="141" x="1582.5" y="118"/><text fill="#000000" font-family="sans-serif" font-size="14" lengthAdjust="spacing" textLength="109" x="1587.5" y="133.5352">dimmingSetting</text><text fill="#000000" font-family="sans-serif" font-size="14" lengthAdjust="spacing" textLength="0" x="1718.5" y="133.5352"/><line style="stroke:#A80036;stroke-width:1.0;" x1="1701.5" x2="1701.5" y1="118" y2="138.4883"/><line style="stroke:#A80036;stroke-width:1.0;" x1="1582.5" x2="1723.5" y1="138.4883" y2="138.4883"/><text fill="#000000" font-family="sans-serif" font-size="14" lengthAdjust="spacing" textLength="40" x="1587.5" y="154.0234">range</text><text fill="#000000" font-family="sans-serif" font-size="14" lengthAdjust="spacing" textLength="0" x="1718.5" y="154.0234"/><line style="stroke:#A80036;stroke-width:1.0;" x1="1701.5" x2="1701.5" y1="138.4883" y2="158.9766"/><line style="stroke:#A80036;stroke-width:1.0;" x1="1582.5" x2="1723.5" y1="158.9766" y2="158.9766"/><text fill="#000000" font-family="sans-serif" font-size="14" lengthAdjust="spacing" textLength="29" x="1587.5" y="174.5117">step</text><text fill="#000000" font-family="sans-serif" font-size="14" lengthAdjust="spacing" textLength="0" x="1718.5" y="174.5117"/><line style="stroke:#A80036;stroke-width:1.0;" x1="1701.5" x2="1701.5" y1="158.9766" y2="179.4648"/><rect fill="none" height="61.4648" rx="5" ry="5" style="stroke:#A80036;stroke-width:1.5;" width="141" x="1582.5" y="118"/><rect fill="#FEFECE" height="40.9766" rx="5" ry="5" style="stroke:#FEFECE;stroke-width:1.5;" width="286" x="2021" y="10"/><text fill="#000000" font-family="sans-serif" font-size="14" lengthAdjust="spacing" textLength="77" x="2026" y="25.5352">description</text><text fill="#000000" font-family="sans-serif" font-size="14" lengthAdjust="spacing" textLength="189" x="2113" y="25.5352">The current dimming value.</text><line style="stroke:#A80036;stroke-width:1.0;" x1="2108" x2="2108" y1="10" y2="30.4883"/><line style="stroke:#A80036;stroke-width:1.0;" x1="2021" x2="2307" y1="30.4883" y2="30.4883"/><text fill="#000000" font-family="sans-serif" font-size="14" lengthAdjust="spacing" textLength="29" x="2026" y="46.0234">type</text><text fill="#000000" font-family="sans-serif" font-size="14" lengthAdjust="spacing" textLength="49" x="2113" y="46.0234">integer</text><line style="stroke:#A80036;stroke-width:1.0;" x1="2108" x2="2108" y1="30.4883" y2="50.9766"/><rect fill="none" height="40.9766" rx="5" ry="5" style="stroke:#A80036;stroke-width:1.5;" width="286" x="2021" y="10"/><rect fill="#FEFECE" height="155.9063" rx="5" ry="5" style="stroke:#FEFECE;stroke-width:1.5;" width="552" x="1888" y="69.5"/><text fill="#000000" font-family="sans-serif" font-size="14" lengthAdjust="spacing" textLength="29" x="1893" y="85.0352">type</text><text fill="#000000" font-family="sans-serif" font-size="14" lengthAdjust="spacing" textLength="35" x="1980" y="85.0352">array</text><line style="stroke:#A80036;stroke-width:1.0;" x1="1975" x2="1975" y1="69.5" y2="89.9883"/><line style="stroke:#A80036;stroke-width:1.0;" x1="1888" x2="2440" y1="89.9883" y2="89.9883"/><text fill="#000000" font-family="sans-serif" font-size="14" lengthAdjust="spacing" textLength="77" x="1893" y="105.5234">description</text><text fill="#000000" font-family="sans-serif" font-size="14" lengthAdjust="spacing" textLength="455" x="1980" y="105.5234">The valid range for the Property in the Resource as an integer. The</text><text fill="#000000" font-family="sans-serif" font-size="14" lengthAdjust="spacing" textLength="439" x="1980" y="122.0117">first value in the array is the minimum value, the second value in</text><text fill="#000000" font-family="sans-serif" font-size="14" lengthAdjust="spacing" textLength="219" x="1980" y="138.5">the array is the maximum value.</text><line style="stroke:#A80036;stroke-width:1.0;" x1="1975" x2="1975" y1="89.9883" y2="143.4531"/><line style="stroke:#A80036;stroke-width:1.0;" x1="1888" x2="2440" y1="143.4531" y2="143.4531"/><text fill="#000000" font-family="sans-serif" font-size="14" lengthAdjust="spacing" textLength="55" x="1893" y="158.9883">writable</text><text fill="#000000" font-family="sans-serif" font-size="14" lengthAdjust="spacing" textLength="48" x="1980" y="158.9883">☐ false</text><line style="stroke:#A80036;stroke-width:1.0;" x1="1975" x2="1975" y1="143.4531" y2="163.9414"/><line style="stroke:#A80036;stroke-width:1.0;" x1="1888" x2="2440" y1="163.9414" y2="163.9414"/><text fill="#000000" font-family="sans-serif" font-size="14" lengthAdjust="spacing" textLength="63" x="1893" y="179.4766">minItems</text><text fill="#000000" font-family="sans-serif" font-size="14" lengthAdjust="spacing" textLength="9" x="1980" y="179.4766">2</text><line style="stroke:#A80036;stroke-width:1.0;" x1="1975" x2="1975" y1="163.9414" y2="184.4297"/><line style="stroke:#A80036;stroke-width:1.0;" x1="1888" x2="2440" y1="184.4297" y2="184.4297"/><text fill="#000000" font-family="sans-serif" font-size="14" lengthAdjust="spacing" textLength="67" x="1893" y="199.9648">maxItems</text><text fill="#000000" font-family="sans-serif" font-size="14" lengthAdjust="spacing" textLength="9" x="1980" y="199.9648">2</text><line style="stroke:#A80036;stroke-width:1.0;" x1="1975" x2="1975" y1="184.4297" y2="204.918"/><line style="stroke:#A80036;stroke-width:1.0;" x1="1888" x2="2440" y1="204.918" y2="204.918"/><text fill="#000000" font-family="sans-serif" font-size="14" lengthAdjust="spacing" textLength="37" x="1893" y="220.4531">items</text><text fill="#000000" font-family="sans-serif" font-size="14" lengthAdjust="spacing" textLength="0" x="1992" y="220.4531"/><line style="stroke:#A80036;stroke-width:1.0;" x1="1975" x2="1975" y1="204.918" y2="225.4063"/><rect fill="none" height="155.9063" rx="5" ry="5" style="stroke:#A80036;stroke-width:1.5;" width="552" x="1888" y="69.5"/><rect fill="#FEFECE" height="20.4883" rx="5" ry="5" style="stroke:#FEFECE;stroke-width:1.5;" width="98" x="2477" y="202.5"/><text fill="#000000" font-family="sans-serif" font-size="14" lengthAdjust="spacing" textLength="29" x="2482" y="218.0352">type</text><text fill="#000000" font-family="sans-serif" font-size="14" lengthAdjust="spacing" textLength="49" x="2521" y="218.0352">integer</text><line style="stroke:#A80036;stroke-width:1.0;" x1="2516" x2="2516" y1="202.5" y2="222.9883"/><rect fill="none" height="20.4883" rx="5" ry="5" style="stroke:#A80036;stroke-width:1.5;" width="98" x="2477" y="202.5"/><rect fill="#FEFECE" height="94.4414" rx="5" ry="5" style="stroke:#FEFECE;stroke-width:1.5;" width="549" x="1889.5" y="243.5"/><text fill="#000000" font-family="sans-serif" font-size="14" lengthAdjust="spacing" textLength="77" x="1894.5" y="259.0352">description</text><text fill="#000000" font-family="sans-serif" font-size="14" lengthAdjust="spacing" textLength="448" x="1981.5" y="259.0352">Step value across the defined range when the range is an integer.</text><text fill="#000000" font-family="sans-serif" font-size="14" lengthAdjust="spacing" textLength="449" x="1981.5" y="275.5234">This is the increment for valid values across the range; so if range</text><text fill="#000000" font-family="sans-serif" font-size="14" lengthAdjust="spacing" textLength="376" x="1981.5" y="292.0117">is 0..10 and step is 2 then valid values are 0,2,4,6,8,10.</text><line style="stroke:#A80036;stroke-width:1.0;" x1="1976.5" x2="1976.5" y1="243.5" y2="296.9648"/><line style="stroke:#A80036;stroke-width:1.0;" x1="1889.5" x2="2438.5" y1="296.9648" y2="296.9648"/><text fill="#000000" font-family="sans-serif" font-size="14" lengthAdjust="spacing" textLength="55" x="1894.5" y="312.5">writable</text><text fill="#000000" font-family="sans-serif" font-size="14" lengthAdjust="spacing" textLength="48" x="1981.5" y="312.5">☐ false</text><line style="stroke:#A80036;stroke-width:1.0;" x1="1976.5" x2="1976.5" y1="296.9648" y2="317.4531"/><line style="stroke:#A80036;stroke-width:1.0;" x1="1889.5" x2="2438.5" y1="317.4531" y2="317.4531"/><text fill="#000000" font-family="sans-serif" font-size="14" lengthAdjust="spacing" textLength="29" x="1894.5" y="332.9883">type</text><text fill="#000000" font-family="sans-serif" font-size="14" lengthAdjust="spacing" textLength="49" x="1981.5" y="332.9883">integer</text><line style="stroke:#A80036;stroke-width:1.0;" x1="1976.5" x2="1976.5" y1="317.4531" y2="337.9414"/><rect fill="none" height="94.4414" rx="5" ry="5" style="stroke:#A80036;stroke-width:1.5;" width="549" x="1889.5" y="243.5"/><rect fill="#FEFECE" height="20.4883" rx="5" ry="5" style="stroke:#FEFECE;stroke-width:1.5;" width="396" x="1455" y="197.5"/><text fill="#000000" font-family="sans-serif" font-size="14" lengthAdjust="spacing" textLength="386" x="1460" y="213.0352">#/sdfObject/light.dimming/sdfProperty/dimmingSetting</text><rect fill="none" height="20.4883" rx="5" ry="5" style="stroke:#A80036;stroke-width:1.5;" width="396" x="1455" y="197.5"/><path d="M95,108.5 L108,108.5 C117.3442,108.5 126.8208,108.4198 136.3833,108.2688 " fill="none" style="stroke:#A80036;stroke-width:1.0;stroke-dasharray:3.0,3.0;"/><path d="M136.4378,111.3434 L138.6892,108.2279 L136.3288,105.1942 L144.0697,108.1326 L136.4378,111.3434 " fill="#A80036" style="stroke:#A80036;stroke-width:1.0;"/><ellipse cx="95" cy="108.5" fill="#A80036" rx="3" ry="3" style="stroke:#A80036;stroke-width:1.0;stroke-dasharray:3.0,3.0;"/><path d="M1712.5,127.5 L1725.5,127.5 C1803.6202,127.5 1812.3039,79.8097 1888,60.5 C1928.1575,50.256 1972.4824,43.5092 2013.6235,39.066 " fill="none" style="stroke:#A80036;stroke-width:1.0;stroke-dasharray:3.0,3.0;"/><path d="M2013.9447,42.1233 L2015.9164,38.8251 L2013.3022,36.0088 L2021.2667,38.2629 L2013.9447,42.1233 " fill="#A80036" style="stroke:#A80036;stroke-width:1.0;"/><ellipse cx="1712.5" cy="127.5" fill="#A80036" rx="3" ry="3" style="stroke:#A80036;stroke-width:1.0;stroke-dasharray:3.0,3.0;"/><path d="M2428,212.5 L2441,212.5 C2450.2605,212.5 2460.0919,212.5 2469.6496,212.5 " fill="none" style="stroke:#A80036;stroke-width:1.0;stroke-dasharray:3.0,3.0;"/><path d="M2469.6496,215.5361 L2471.9267,212.5 L2469.6496,209.4639 L2477.2398,212.5 L2469.6496,215.5361 " fill="#A80036" style="stroke:#A80036;stroke-width:1.0;"/><ellipse cx="2428" cy="212.5" fill="#A80036" rx="3" ry="3" style="stroke:#A80036;stroke-width:1.0;stroke-dasharray:3.0,3.0;"/><path d="M1712.5,147.5 L1725.5,147.5 C1775.6905,147.5 1829.1161,147.5 1880.7722,147.5 " fill="none" style="stroke:#A80036;stroke-width:1.0;stroke-dasharray:3.0,3.0;"/><path d="M1880.7722,150.5432 L1883.0545,147.5 L1880.7722,144.4568 L1888.3801,147.5 L1880.7722,150.5432 " fill="#A80036" style="stroke:#A80036;stroke-width:1.0;"/><ellipse cx="1712.5" cy="147.5" fill="#A80036" rx="3" ry="3" style="stroke:#A80036;stroke-width:1.0;stroke-dasharray:3.0,3.0;"/><path d="M1712.5,168.5 L1725.5,168.5 C1782.4206,168.5 1802.9398,159.6375 1852,188.5 C1874.376,201.664 1865.9172,220.85 1888,234.5 C1890.8608,236.2683 1893.7671,237.982 1896.7146,239.6428 " fill="none" style="stroke:#A80036;stroke-width:1.0;stroke-dasharray:3.0,3.0;"/><path d="M1895.2027,242.4226 L1898.7995,240.7767 L1898.2264,236.8629 L1903.6643,243.4225 L1895.2027,242.4226 " fill="#A80036" style="stroke:#A80036;stroke-width:1.0;"/><ellipse cx="1712.5" cy="168.5" fill="#A80036" rx="3" ry="3" style="stroke:#A80036;stroke-width:1.0;stroke-dasharray:3.0,3.0;"/><path d="M1406,153.5 L1419,153.5 C1471.033,153.5 1529.5733,152.2436 1575.0224,150.9904 " fill="none" style="stroke:#A80036;stroke-width:1.0;stroke-dasharray:3.0,3.0;"/><path d="M1575.1093,154.0915 L1577.3482,150.9253 L1574.9355,147.8894 L1582.775,150.7732 L1575.1093,154.0915 " fill="#A80036" style="stroke:#A80036;stroke-width:1.0;"/><ellipse cx="1406" cy="153.5" fill="#A80036" rx="3" ry="3" style="stroke:#A80036;stroke-width:1.0;stroke-dasharray:3.0,3.0;"/><path d="M1406,201.5 L1419,201.5 C1428.3593,201.5 1437.929,201.5488 1447.595,201.6375 " fill="none" style="stroke:#A80036;stroke-width:1.0;stroke-dasharray:3.0,3.0;"/><path d="M1447.5632,204.7457 L1449.9261,201.6614 L1447.6268,198.5294 L1455.3654,201.7171 L1447.5632,204.7457 " fill="#A80036" style="stroke:#A80036;stroke-width:1.0;"/><ellipse cx="1406" cy="201.5" fill="#A80036" rx="3" ry="3" style="stroke:#A80036;stroke-width:1.0;stroke-dasharray:3.0,3.0;"/><path d="M524,153.5 L537,153.5 C631.9121,153.5 735.4199,153.5 828.8401,153.5 " fill="none" style="stroke:#A80036;stroke-width:1.0;stroke-dasharray:3.0,3.0;"/><path d="M828.8401,156.5269 L831.1103,153.5 L828.8401,150.4731 L836.4073,153.5 L828.8401,156.5269 " fill="#A80036" style="stroke:#A80036;stroke-width:1.0;"/><ellipse cx="524" cy="153.5" fill="#A80036" rx="3" ry="3" style="stroke:#A80036;stroke-width:1.0;stroke-dasharray:3.0,3.0;"/><path d="M95,129.5 L108,129.5 C124.1536,129.5 127.924,132.9191 144,134.5 C232.1432,143.1678 334.0705,148.3214 400.3847,151.0285 " fill="none" style="stroke:#A80036;stroke-width:1.0;stroke-dasharray:3.0,3.0;"/><path d="M400.2638,154.0308 L402.6364,151.1192 L400.5055,148.0263 L407.8903,151.3307 L400.2638,154.0308 " fill="#A80036" style="stroke:#A80036;stroke-width:1.0;"/><ellipse cx="95" cy="129.5" fill="#A80036" rx="3" ry="3" style="stroke:#A80036;stroke-width:1.0;stroke-dasharray:3.0,3.0;"/><!--MD5=[6d0e19af5dc21ce26fc0e49278de6be6]
@startjson
{
  "info": {
    "copyright": "copyright 2016-2017, 2019 Open Connectivity Foundation, Inc. All rights reserved.",
    "license": "https://github.com/one-data-model/oneDM/blob/master/LICENSE",
    "title": "Dimming",
    "version": "2019-02-15"
  },
  "sdfObject": {
    "light.dimming": {
      "description": "This Resource describes a dimming function. The Property\\n\"dimmingSetting\" is an integer showing the current dimming level. If\\nProperty \"step\" is present then it represents the increment between\\ndimmer values. When the Property \"range\" is omitted, then the range\\nis [0,100]. A value of 0 means total dimming; a value of 100 means no\\ndimming.",
      "sdfProperty": {
        "dimmingSetting": {
          "description": "The current dimming value.",
          "type": "integer"
        },
        "range": {
          "type": "array",
          "description": "The valid range for the Property in the Resource as an integer. The\\nfirst value in the array is the minimum value, the second value in\\nthe array is the maximum value.",
          "writable": false,
          "minItems": 2,
          "maxItems": 2,
          "items": {
            "type": "integer"
          }
        },
        "step": {
          "description": "Step value across the defined range when the range is an integer. \\nThis is the increment for valid values across the range; so if range\\nis 0..10 and step is 2 then valid values are 0,2,4,6,8,10.",
          "writable": false,
          "type": "integer"
        }
      },
      "sdfRequired": [
        "#/sdfObject/light.dimming/sdfProperty/dimmingSetting"
      ]
    }
  }
}
@endjson

PlantUML version 1.2021.2(Sun Mar 07 13:10:27 EET 2021)
(GPL source distribution)
Java Runtime: OpenJDK Runtime Environment
JVM: OpenJDK 64-Bit Server VM
Default Encoding: UTF-8
Language: en
Country: FI
--></g></svg>