<?xml version="1.0" encoding="UTF-8" standalone="no"?><svg xmlns="http://www.w3.org/2000/svg" xmlns:xlink="http://www.w3.org/1999/xlink" contentScriptType="application/ecmascript" contentStyleType="text/css" height="263px" preserveAspectRatio="none" style="width:2285px;height:263px;" version="1.1" viewBox="0 0 2285 263" width="2285px" zoomAndPan="magnify"><defs/><g><rect fill="#FEFECE" height="40.9766" rx="5" ry="5" style="stroke:#FEFECE;stroke-width:1.5;" width="97" x="10" y="65.5"/><text fill="#000000" font-family="sans-serif" font-size="14" lengthAdjust="spacing" textLength="27" x="15" y="81.0352">info</text><text fill="#000000" font-family="sans-serif" font-size="14" lengthAdjust="spacing" textLength="0" x="102" y="81.0352"/><line style="stroke:#A80036;stroke-width:1.0;" x1="85" x2="85" y1="65.5" y2="85.9883"/><line style="stroke:#A80036;stroke-width:1.0;" x1="10" x2="107" y1="85.9883" y2="85.9883"/><text fill="#000000" font-family="sans-serif" font-size="14" lengthAdjust="spacing" textLength="65" x="15" y="101.5234">sdfObject</text><text fill="#000000" font-family="sans-serif" font-size="14" lengthAdjust="spacing" textLength="0" x="102" y="101.5234"/><line style="stroke:#A80036;stroke-width:1.0;" x1="85" x2="85" y1="85.9883" y2="106.4766"/><rect fill="none" height="40.9766" rx="5" ry="5" style="stroke:#A80036;stroke-width:1.5;" width="97" x="10" y="65.5"/><rect fill="#FEFECE" height="81.9531" rx="5" ry="5" style="stroke:#FEFECE;stroke-width:1.5;" width="614" x="144" y="10"/><text fill="#000000" font-family="sans-serif" font-size="14" lengthAdjust="spacing" textLength="65" x="149" y="25.5352">copyright</text><text fill="#000000" font-family="sans-serif" font-size="14" lengthAdjust="spacing" textLength="529" x="224" y="25.5352">Copyright 2018-2019 Open Connectivity Foundation, Inc. All rights reserved.</text><line style="stroke:#A80036;stroke-width:1.0;" x1="219" x2="219" y1="10" y2="30.4883"/><line style="stroke:#A80036;stroke-width:1.0;" x1="144" x2="758" y1="30.4883" y2="30.4883"/><text fill="#000000" font-family="sans-serif" font-size="14" lengthAdjust="spacing" textLength="47" x="149" y="46.0234">license</text><text fill="#000000" font-family="sans-serif" font-size="14" lengthAdjust="spacing" textLength="462" x="224" y="46.0234">https://github.com/one-data-model/oneDM/blob/master/LICENSE</text><line style="stroke:#A80036;stroke-width:1.0;" x1="219" x2="219" y1="30.4883" y2="50.9766"/><line style="stroke:#A80036;stroke-width:1.0;" x1="144" x2="758" y1="50.9766" y2="50.9766"/><text fill="#000000" font-family="sans-serif" font-size="14" lengthAdjust="spacing" textLength="26" x="149" y="66.5117">title</text><text fill="#000000" font-family="sans-serif" font-size="14" lengthAdjust="spacing" textLength="55" x="224" y="66.5117">Brewing</text><line style="stroke:#A80036;stroke-width:1.0;" x1="219" x2="219" y1="50.9766" y2="71.4648"/><line style="stroke:#A80036;stroke-width:1.0;" x1="144" x2="758" y1="71.4648" y2="71.4648"/><text fill="#000000" font-family="sans-serif" font-size="14" lengthAdjust="spacing" textLength="50" x="149" y="87">version</text><text fill="#000000" font-family="sans-serif" font-size="14" lengthAdjust="spacing" textLength="88" x="224" y="87">2019-02-22</text><line style="stroke:#A80036;stroke-width:1.0;" x1="219" x2="219" y1="71.4648" y2="91.9531"/><rect fill="none" height="81.9531" rx="5" ry="5" style="stroke:#A80036;stroke-width:1.5;" width="614" x="144" y="10"/><rect fill="#FEFECE" height="20.4883" rx="5" ry="5" style="stroke:#FEFECE;stroke-width:1.5;" width="88" x="407" y="110"/><text fill="#000000" font-family="sans-serif" font-size="14" lengthAdjust="spacing" textLength="56" x="412" y="125.5352">brewing</text><text fill="#000000" font-family="sans-serif" font-size="14" lengthAdjust="spacing" textLength="0" x="490" y="125.5352"/><line style="stroke:#A80036;stroke-width:1.0;" x1="473" x2="473" y1="110" y2="130.4883"/><rect fill="none" height="20.4883" rx="5" ry="5" style="stroke:#A80036;stroke-width:1.5;" width="88" x="407" y="110"/><rect fill="#FEFECE" height="127.418" rx="5" ry="5" style="stroke:#FEFECE;stroke-width:1.5;" width="586" x="795" y="56.5"/><text fill="#000000" font-family="sans-serif" font-size="14" lengthAdjust="spacing" textLength="77" x="800" y="72.0352">description</text><text fill="#000000" font-family="sans-serif" font-size="14" lengthAdjust="spacing" textLength="467" x="893" y="72.0352">This Resource describes the attributes associated with brewing. This</text><text fill="#000000" font-family="sans-serif" font-size="14" lengthAdjust="spacing" textLength="465" x="893" y="88.5234">resource is used for configuration only. The Operation of the Device</text><text fill="#000000" font-family="sans-serif" font-size="14" lengthAdjust="spacing" textLength="483" x="893" y="105.0117">is handled independently of this Resource. The amount requested is in</text><text fill="#000000" font-family="sans-serif" font-size="14" lengthAdjust="spacing" textLength="463" x="893" y="121.5">ml. The strength of a brewed drink is an integer, the range of which</text><text fill="#000000" font-family="sans-serif" font-size="14" lengthAdjust="spacing" textLength="424" x="893" y="137.9883">may be enforced by the presence of a strengthrange Property.</text><line style="stroke:#A80036;stroke-width:1.0;" x1="888" x2="888" y1="56.5" y2="142.9414"/><line style="stroke:#A80036;stroke-width:1.0;" x1="795" x2="1381" y1="142.9414" y2="142.9414"/><text fill="#000000" font-family="sans-serif" font-size="14" lengthAdjust="spacing" textLength="79" x="800" y="158.4766">sdfProperty</text><text fill="#000000" font-family="sans-serif" font-size="14" lengthAdjust="spacing" textLength="0" x="905" y="158.4766"/><line style="stroke:#A80036;stroke-width:1.0;" x1="888" x2="888" y1="142.9414" y2="163.4297"/><line style="stroke:#A80036;stroke-width:1.0;" x1="795" x2="1381" y1="163.4297" y2="163.4297"/><text fill="#000000" font-family="sans-serif" font-size="14" lengthAdjust="spacing" textLength="83" x="800" y="178.9648">sdfRequired</text><text fill="#000000" font-family="sans-serif" font-size="14" lengthAdjust="spacing" textLength="0" x="905" y="178.9648"/><line style="stroke:#A80036;stroke-width:1.0;" x1="888" x2="888" y1="163.4297" y2="183.918"/><rect fill="none" height="127.418" rx="5" ry="5" style="stroke:#A80036;stroke-width:1.5;" width="586" x="795" y="56.5"/><rect fill="#FEFECE" height="61.4648" rx="5" ry="5" style="stroke:#FEFECE;stroke-width:1.5;" width="154" x="1525.5" y="80.5"/><text fill="#000000" font-family="sans-serif" font-size="14" lengthAdjust="spacing" textLength="58" x="1530.5" y="96.0352">strength</text><text fill="#000000" font-family="sans-serif" font-size="14" lengthAdjust="spacing" textLength="0" x="1674.5" y="96.0352"/><line style="stroke:#A80036;stroke-width:1.0;" x1="1657.5" x2="1657.5" y1="80.5" y2="100.9883"/><line style="stroke:#A80036;stroke-width:1.0;" x1="1525.5" x2="1679.5" y1="100.9883" y2="100.9883"/><text fill="#000000" font-family="sans-serif" font-size="14" lengthAdjust="spacing" textLength="122" x="1530.5" y="116.5234">amountrequested</text><text fill="#000000" font-family="sans-serif" font-size="14" lengthAdjust="spacing" textLength="0" x="1674.5" y="116.5234"/><line style="stroke:#A80036;stroke-width:1.0;" x1="1657.5" x2="1657.5" y1="100.9883" y2="121.4766"/><line style="stroke:#A80036;stroke-width:1.0;" x1="1525.5" x2="1679.5" y1="121.4766" y2="121.4766"/><text fill="#000000" font-family="sans-serif" font-size="14" lengthAdjust="spacing" textLength="98" x="1530.5" y="137.0117">strengthrange</text><text fill="#000000" font-family="sans-serif" font-size="14" lengthAdjust="spacing" textLength="0" x="1674.5" y="137.0117"/><line style="stroke:#A80036;stroke-width:1.0;" x1="1657.5" x2="1657.5" y1="121.4766" y2="141.9648"/><rect fill="none" height="61.4648" rx="5" ry="5" style="stroke:#A80036;stroke-width:1.5;" width="154" x="1525.5" y="80.5"/><rect fill="#FEFECE" height="40.9766" rx="5" ry="5" style="stroke:#FEFECE;stroke-width:1.5;" width="314" x="1824" y="30.5"/><text fill="#000000" font-family="sans-serif" font-size="14" lengthAdjust="spacing" textLength="77" x="1829" y="46.0352">description</text><text fill="#000000" font-family="sans-serif" font-size="14" lengthAdjust="spacing" textLength="217" x="1916" y="46.0352">The strength of a brewed drink.</text><line style="stroke:#A80036;stroke-width:1.0;" x1="1911" x2="1911" y1="30.5" y2="50.9883"/><line style="stroke:#A80036;stroke-width:1.0;" x1="1824" x2="2138" y1="50.9883" y2="50.9883"/><text fill="#000000" font-family="sans-serif" font-size="14" lengthAdjust="spacing" textLength="29" x="1829" y="66.5234">type</text><text fill="#000000" font-family="sans-serif" font-size="14" lengthAdjust="spacing" textLength="49" x="1916" y="66.5234">integer</text><line style="stroke:#A80036;stroke-width:1.0;" x1="1911" x2="1911" y1="50.9883" y2="71.4766"/><rect fill="none" height="40.9766" rx="5" ry="5" style="stroke:#A80036;stroke-width:1.5;" width="314" x="1824" y="30.5"/><rect fill="#FEFECE" height="40.9766" rx="5" ry="5" style="stroke:#FEFECE;stroke-width:1.5;" width="295" x="1833.5" y="89.5"/><text fill="#000000" font-family="sans-serif" font-size="14" lengthAdjust="spacing" textLength="77" x="1838.5" y="105.0352">description</text><text fill="#000000" font-family="sans-serif" font-size="14" lengthAdjust="spacing" textLength="198" x="1925.5" y="105.0352">The amount requested in ml.</text><line style="stroke:#A80036;stroke-width:1.0;" x1="1920.5" x2="1920.5" y1="89.5" y2="109.9883"/><line style="stroke:#A80036;stroke-width:1.0;" x1="1833.5" x2="2128.5" y1="109.9883" y2="109.9883"/><text fill="#000000" font-family="sans-serif" font-size="14" lengthAdjust="spacing" textLength="29" x="1838.5" y="125.5234">type</text><text fill="#000000" font-family="sans-serif" font-size="14" lengthAdjust="spacing" textLength="49" x="1925.5" y="125.5234">integer</text><line style="stroke:#A80036;stroke-width:1.0;" x1="1920.5" x2="1920.5" y1="109.9883" y2="130.4766"/><rect fill="none" height="40.9766" rx="5" ry="5" style="stroke:#A80036;stroke-width:1.5;" width="295" x="1833.5" y="89.5"/><rect fill="#FEFECE" height="102.4414" rx="5" ry="5" style="stroke:#FEFECE;stroke-width:1.5;" width="135" x="1913.5" y="149"/><text fill="#000000" font-family="sans-serif" font-size="14" lengthAdjust="spacing" textLength="37" x="1918.5" y="164.5352">items</text><text fill="#000000" font-family="sans-serif" font-size="14" lengthAdjust="spacing" textLength="0" x="2007.5" y="164.5352"/><line style="stroke:#A80036;stroke-width:1.0;" x1="1990.5" x2="1990.5" y1="149" y2="169.4883"/><line style="stroke:#A80036;stroke-width:1.0;" x1="1913.5" x2="2048.5" y1="169.4883" y2="169.4883"/><text fill="#000000" font-family="sans-serif" font-size="14" lengthAdjust="spacing" textLength="67" x="1918.5" y="185.0234">maxItems</text><text fill="#000000" font-family="sans-serif" font-size="14" lengthAdjust="spacing" textLength="9" x="1995.5" y="185.0234">2</text><line style="stroke:#A80036;stroke-width:1.0;" x1="1990.5" x2="1990.5" y1="169.4883" y2="189.9766"/><line style="stroke:#A80036;stroke-width:1.0;" x1="1913.5" x2="2048.5" y1="189.9766" y2="189.9766"/><text fill="#000000" font-family="sans-serif" font-size="14" lengthAdjust="spacing" textLength="63" x="1918.5" y="205.5117">minItems</text><text fill="#000000" font-family="sans-serif" font-size="14" lengthAdjust="spacing" textLength="9" x="1995.5" y="205.5117">2</text><line style="stroke:#A80036;stroke-width:1.0;" x1="1990.5" x2="1990.5" y1="189.9766" y2="210.4648"/><line style="stroke:#A80036;stroke-width:1.0;" x1="1913.5" x2="2048.5" y1="210.4648" y2="210.4648"/><text fill="#000000" font-family="sans-serif" font-size="14" lengthAdjust="spacing" textLength="55" x="1918.5" y="226">writable</text><text fill="#000000" font-family="sans-serif" font-size="14" lengthAdjust="spacing" textLength="48" x="1995.5" y="226">☐ false</text><line style="stroke:#A80036;stroke-width:1.0;" x1="1990.5" x2="1990.5" y1="210.4648" y2="230.9531"/><line style="stroke:#A80036;stroke-width:1.0;" x1="1913.5" x2="2048.5" y1="230.9531" y2="230.9531"/><text fill="#000000" font-family="sans-serif" font-size="14" lengthAdjust="spacing" textLength="29" x="1918.5" y="246.4883">type</text><text fill="#000000" font-family="sans-serif" font-size="14" lengthAdjust="spacing" textLength="35" x="1995.5" y="246.4883">array</text><line style="stroke:#A80036;stroke-width:1.0;" x1="1990.5" x2="1990.5" y1="230.9531" y2="251.4414"/><rect fill="none" height="102.4414" rx="5" ry="5" style="stroke:#A80036;stroke-width:1.5;" width="135" x="1913.5" y="149"/><rect fill="#FEFECE" height="20.4883" rx="5" ry="5" style="stroke:#FEFECE;stroke-width:1.5;" width="98" x="2175" y="149"/><text fill="#000000" font-family="sans-serif" font-size="14" lengthAdjust="spacing" textLength="29" x="2180" y="164.5352">type</text><text fill="#000000" font-family="sans-serif" font-size="14" lengthAdjust="spacing" textLength="49" x="2219" y="164.5352">integer</text><line style="stroke:#A80036;stroke-width:1.0;" x1="2214" x2="2214" y1="149" y2="169.4883"/><rect fill="none" height="20.4883" rx="5" ry="5" style="stroke:#A80036;stroke-width:1.5;" width="98" x="2175" y="149"/><rect fill="#FEFECE" height="20.4883" rx="5" ry="5" style="stroke:#FEFECE;stroke-width:1.5;" width="369" x="1418" y="160"/><text fill="#000000" font-family="sans-serif" font-size="14" lengthAdjust="spacing" textLength="359" x="1423" y="175.5352">#/sdfObject/brewing/sdfProperty/amountrequested</text><rect fill="none" height="20.4883" rx="5" ry="5" style="stroke:#A80036;stroke-width:1.5;" width="369" x="1418" y="160"/><path d="M95,75 L108,75 C117.4068,75 126.9554,74.9088 136.5926,74.7376 " fill="none" style="stroke:#A80036;stroke-width:1.0;stroke-dasharray:3.0,3.0;"/><path d="M136.6543,77.8363 L138.9166,74.6914 L136.5309,71.6389 L144.3394,74.5834 L136.6543,77.8363 " fill="#A80036" style="stroke:#A80036;stroke-width:1.0;"/><ellipse cx="95" cy="75" fill="#A80036" rx="3" ry="3" style="stroke:#A80036;stroke-width:1.0;stroke-dasharray:3.0,3.0;"/><path d="M1668,90 L1681,90 C1742.9753,90 1811.565,81.6868 1867.4508,72.7366 " fill="none" style="stroke:#A80036;stroke-width:1.0;stroke-dasharray:3.0,3.0;"/><path d="M1867.9342,75.7161 L1869.6854,72.374 L1866.9673,69.757 L1874.8997,71.5279 L1867.9342,75.7161 " fill="#A80036" style="stroke:#A80036;stroke-width:1.0;"/><ellipse cx="1668" cy="90" fill="#A80036" rx="3" ry="3" style="stroke:#A80036;stroke-width:1.0;stroke-dasharray:3.0,3.0;"/><path d="M1668,110 L1681,110 C1728.1612,110 1779.4997,110 1826.1354,110 " fill="none" style="stroke:#A80036;stroke-width:1.0;stroke-dasharray:3.0,3.0;"/><path d="M1826.1354,113.0974 L1828.4584,110 L1826.1354,106.9026 L1833.8788,110 L1826.1354,113.0974 " fill="#A80036" style="stroke:#A80036;stroke-width:1.0;"/><ellipse cx="1668" cy="110" fill="#A80036" rx="3" ry="3" style="stroke:#A80036;stroke-width:1.0;stroke-dasharray:3.0,3.0;"/><path d="M2037.5,159 L2050.5,159 C2089.7317,159 2133.9677,159 2167.8876,159 " fill="none" style="stroke:#A80036;stroke-width:1.0;stroke-dasharray:3.0,3.0;"/><path d="M2167.8876,162.005 L2170.1414,159 L2167.8876,155.995 L2175.4001,159 L2167.8876,162.005 " fill="#A80036" style="stroke:#A80036;stroke-width:1.0;"/><ellipse cx="2037.5" cy="159" fill="#A80036" rx="3" ry="3" style="stroke:#A80036;stroke-width:1.0;stroke-dasharray:3.0,3.0;"/><path d="M1668,131 L1681,131 C1759.4496,131 1846.5752,153.7584 1906.5361,173.1345 " fill="none" style="stroke:#A80036;stroke-width:1.0;stroke-dasharray:3.0,3.0;"/><path d="M1905.5983,176.0046 L1908.6887,173.8378 L1907.4739,170.2644 L1913.7113,175.4789 L1905.5983,176.0046 " fill="#A80036" style="stroke:#A80036;stroke-width:1.0;"/><ellipse cx="1668" cy="131" fill="#A80036" rx="3" ry="3" style="stroke:#A80036;stroke-width:1.0;stroke-dasharray:3.0,3.0;"/><path d="M1369,119 L1382,119 C1427.0653,119 1477.2888,117.3029 1518.3587,115.4719 " fill="none" style="stroke:#A80036;stroke-width:1.0;stroke-dasharray:3.0,3.0;"/><path d="M1518.4959,118.4955 L1520.6263,115.369 L1518.2215,112.4484 L1525.9175,115.1289 L1518.4959,118.4955 " fill="#A80036" style="stroke:#A80036;stroke-width:1.0;"/><ellipse cx="1369" cy="119" fill="#A80036" rx="3" ry="3" style="stroke:#A80036;stroke-width:1.0;stroke-dasharray:3.0,3.0;"/><path d="M1369,162 L1382,162 C1391.3489,162 1400.9198,162.073 1410.5849,162.2052 " fill="none" style="stroke:#A80036;stroke-width:1.0;stroke-dasharray:3.0,3.0;"/><path d="M1410.5375,165.3128 L1412.9156,162.2407 L1410.6322,159.0976 L1418.3539,162.3235 L1410.5375,165.3128 " fill="#A80036" style="stroke:#A80036;stroke-width:1.0;"/><ellipse cx="1369" cy="162" fill="#A80036" rx="3" ry="3" style="stroke:#A80036;stroke-width:1.0;stroke-dasharray:3.0,3.0;"/><path d="M483.5,120 L496.5,120 C591.1541,120 694.3355,120 787.6069,120 " fill="none" style="stroke:#A80036;stroke-width:1.0;stroke-dasharray:3.0,3.0;"/><path d="M787.6069,123.0222 L789.8736,120 L787.6069,116.9778 L795.1625,120 L787.6069,123.0222 " fill="#A80036" style="stroke:#A80036;stroke-width:1.0;"/><ellipse cx="483.5" cy="120" fill="#A80036" rx="3" ry="3" style="stroke:#A80036;stroke-width:1.0;stroke-dasharray:3.0,3.0;"/><path d="M95,96 L108,96 C124.1536,96 127.927,99.388 144,101 C233.7891,110.0052 338.8328,115.4083 399.7076,118.0358 " fill="none" style="stroke:#A80036;stroke-width:1.0;stroke-dasharray:3.0,3.0;"/><path d="M399.5788,121.0614 L401.9767,118.1324 L399.8364,115.0103 L407.2714,118.3578 L399.5788,121.0614 " fill="#A80036" style="stroke:#A80036;stroke-width:1.0;"/><ellipse cx="95" cy="96" fill="#A80036" rx="3" ry="3" style="stroke:#A80036;stroke-width:1.0;stroke-dasharray:3.0,3.0;"/><!--MD5=[22daf6269765c5896c5fa015bed00ab4]
@startjson
{
  "info": {
    "copyright": "Copyright 2018-2019 Open Connectivity Foundation, Inc. All rights reserved.",
    "license": "https://github.com/one-data-model/oneDM/blob/master/LICENSE",
    "title": "Brewing",
    "version": "2019-02-22"
  },
  "sdfObject": {
    "brewing": {
      "description": "This Resource describes the attributes associated with brewing. This\\nresource is used for configuration only. The Operation of the Device\\nis handled independently of this Resource. The amount requested is in\\nml. The strength of a brewed drink is an integer, the range of which\\nmay be enforced by the presence of a strengthrange Property.",
      "sdfProperty": {
        "strength": {
          "description": "The strength of a brewed drink.",
          "type": "integer"
        },
        "amountrequested": {
          "description": "The amount requested in ml.",
          "type": "integer"
        },
        "strengthrange": {
          "items": {
            "type": "integer"
          },
          "maxItems": 2,
          "minItems": 2,
          "writable": false,
          "type": "array"
        }
      },
      "sdfRequired": [
        "#/sdfObject/brewing/sdfProperty/amountrequested"
      ]
    }
  }
}
@endjson

PlantUML version 1.2021.2(Sun Mar 07 13:10:27 EET 2021)
(GPL source distribution)
Java Runtime: OpenJDK Runtime Environment
JVM: OpenJDK 64-Bit Server VM
Default Encoding: UTF-8
Language: en
Country: FI
--></g></svg>