<?xml version="1.0" encoding="UTF-8" standalone="no"?><svg xmlns="http://www.w3.org/2000/svg" xmlns:xlink="http://www.w3.org/1999/xlink" contentScriptType="application/ecmascript" contentStyleType="text/css" height="228px" preserveAspectRatio="none" style="width:2430px;height:228px;" version="1.1" viewBox="0 0 2430 228" width="2430px" zoomAndPan="magnify"><defs/><g><rect fill="#FEFECE" height="40.9766" rx="5" ry="5" style="stroke:#FEFECE;stroke-width:1.5;" width="97" x="10" y="65.5"/><text fill="#000000" font-family="sans-serif" font-size="14" lengthAdjust="spacing" textLength="27" x="15" y="81.0352">info</text><text fill="#000000" font-family="sans-serif" font-size="14" lengthAdjust="spacing" textLength="0" x="102" y="81.0352"/><line style="stroke:#A80036;stroke-width:1.0;" x1="85" x2="85" y1="65.5" y2="85.9883"/><line style="stroke:#A80036;stroke-width:1.0;" x1="10" x2="107" y1="85.9883" y2="85.9883"/><text fill="#000000" font-family="sans-serif" font-size="14" lengthAdjust="spacing" textLength="65" x="15" y="101.5234">sdfObject</text><text fill="#000000" font-family="sans-serif" font-size="14" lengthAdjust="spacing" textLength="0" x="102" y="101.5234"/><line style="stroke:#A80036;stroke-width:1.0;" x1="85" x2="85" y1="85.9883" y2="106.4766"/><rect fill="none" height="40.9766" rx="5" ry="5" style="stroke:#A80036;stroke-width:1.5;" width="97" x="10" y="65.5"/><rect fill="#FEFECE" height="81.9531" rx="5" ry="5" style="stroke:#FEFECE;stroke-width:1.5;" width="655" x="144" y="10"/><text fill="#000000" font-family="sans-serif" font-size="14" lengthAdjust="spacing" textLength="65" x="149" y="25.5352">copyright</text><text fill="#000000" font-family="sans-serif" font-size="14" lengthAdjust="spacing" textLength="570" x="224" y="25.5352">copyright 2016-2017, 2019 Open Connectivity Foundation, Inc. All rights reserved.</text><line style="stroke:#A80036;stroke-width:1.0;" x1="219" x2="219" y1="10" y2="30.4883"/><line style="stroke:#A80036;stroke-width:1.0;" x1="144" x2="799" y1="30.4883" y2="30.4883"/><text fill="#000000" font-family="sans-serif" font-size="14" lengthAdjust="spacing" textLength="47" x="149" y="46.0234">license</text><text fill="#000000" font-family="sans-serif" font-size="14" lengthAdjust="spacing" textLength="462" x="224" y="46.0234">https://github.com/one-data-model/oneDM/blob/master/LICENSE</text><line style="stroke:#A80036;stroke-width:1.0;" x1="219" x2="219" y1="30.4883" y2="50.9766"/><line style="stroke:#A80036;stroke-width:1.0;" x1="144" x2="799" y1="50.9766" y2="50.9766"/><text fill="#000000" font-family="sans-serif" font-size="14" lengthAdjust="spacing" textLength="26" x="149" y="66.5117">title</text><text fill="#000000" font-family="sans-serif" font-size="14" lengthAdjust="spacing" textLength="114" x="224" y="66.5117">Selectable Levels</text><line style="stroke:#A80036;stroke-width:1.0;" x1="219" x2="219" y1="50.9766" y2="71.4648"/><line style="stroke:#A80036;stroke-width:1.0;" x1="144" x2="799" y1="71.4648" y2="71.4648"/><text fill="#000000" font-family="sans-serif" font-size="14" lengthAdjust="spacing" textLength="50" x="149" y="87">version</text><text fill="#000000" font-family="sans-serif" font-size="14" lengthAdjust="spacing" textLength="88" x="224" y="87">2019-02-15</text><line style="stroke:#A80036;stroke-width:1.0;" x1="219" x2="219" y1="71.4648" y2="91.9531"/><rect fill="none" height="81.9531" rx="5" ry="5" style="stroke:#A80036;stroke-width:1.5;" width="655" x="144" y="10"/><rect fill="#FEFECE" height="20.4883" rx="5" ry="5" style="stroke:#FEFECE;stroke-width:1.5;" width="138" x="402.5" y="110"/><text fill="#000000" font-family="sans-serif" font-size="14" lengthAdjust="spacing" textLength="106" x="407.5" y="125.5352">selectablelevels</text><text fill="#000000" font-family="sans-serif" font-size="14" lengthAdjust="spacing" textLength="0" x="535.5" y="125.5352"/><line style="stroke:#A80036;stroke-width:1.0;" x1="518.5" x2="518.5" y1="110" y2="130.4883"/><rect fill="none" height="20.4883" rx="5" ry="5" style="stroke:#A80036;stroke-width:1.5;" width="138" x="402.5" y="110"/><rect fill="#FEFECE" height="193.3711" rx="5" ry="5" style="stroke:#FEFECE;stroke-width:1.5;" width="569" x="836" y="23.5"/><text fill="#000000" font-family="sans-serif" font-size="14" lengthAdjust="spacing" textLength="77" x="841" y="39.0352">description</text><text fill="#000000" font-family="sans-serif" font-size="14" lengthAdjust="spacing" textLength="438" x="934" y="39.0352">This Resource provides a set of device defined levels that can be</text><text fill="#000000" font-family="sans-serif" font-size="14" lengthAdjust="spacing" textLength="439" x="934" y="55.5234">selected for an operation. For example where a humidifier has a</text><text fill="#000000" font-family="sans-serif" font-size="14" lengthAdjust="spacing" textLength="433" x="934" y="72.0117">discrete set that model different humidity levels that can be set.</text><text fill="#000000" font-family="sans-serif" font-size="14" lengthAdjust="spacing" textLength="441" x="934" y="88.5">The Property "availablelevels" is an array of the levels that can be</text><text fill="#000000" font-family="sans-serif" font-size="14" lengthAdjust="spacing" textLength="466" x="934" y="104.9883">selected, these can be a number or an integer (as subset of integer).</text><text fill="#000000" font-family="sans-serif" font-size="14" lengthAdjust="spacing" textLength="412" x="934" y="121.4766">The Property "targetlevel" is the level that has currently been</text><text fill="#000000" font-family="sans-serif" font-size="14" lengthAdjust="spacing" textLength="416" x="934" y="137.9648">selected and is written to in order to select a new level. When</text><text fill="#000000" font-family="sans-serif" font-size="14" lengthAdjust="spacing" textLength="434" x="934" y="154.4531">retrieved the targetlevel provides the actual value that has been</text><text fill="#000000" font-family="sans-serif" font-size="14" lengthAdjust="spacing" textLength="60" x="934" y="170.9414">selected.</text><line style="stroke:#A80036;stroke-width:1.0;" x1="929" x2="929" y1="23.5" y2="175.8945"/><line style="stroke:#A80036;stroke-width:1.0;" x1="836" x2="1405" y1="175.8945" y2="175.8945"/><text fill="#000000" font-family="sans-serif" font-size="14" lengthAdjust="spacing" textLength="79" x="841" y="191.4297">sdfProperty</text><text fill="#000000" font-family="sans-serif" font-size="14" lengthAdjust="spacing" textLength="0" x="946" y="191.4297"/><line style="stroke:#A80036;stroke-width:1.0;" x1="929" x2="929" y1="175.8945" y2="196.3828"/><line style="stroke:#A80036;stroke-width:1.0;" x1="836" x2="1405" y1="196.3828" y2="196.3828"/><text fill="#000000" font-family="sans-serif" font-size="14" lengthAdjust="spacing" textLength="83" x="841" y="211.918">sdfRequired</text><text fill="#000000" font-family="sans-serif" font-size="14" lengthAdjust="spacing" textLength="0" x="946" y="211.918"/><line style="stroke:#A80036;stroke-width:1.0;" x1="929" x2="929" y1="196.3828" y2="216.8711"/><rect fill="none" height="193.3711" rx="5" ry="5" style="stroke:#A80036;stroke-width:1.5;" width="569" x="836" y="23.5"/><rect fill="#FEFECE" height="40.9766" rx="5" ry="5" style="stroke:#FEFECE;stroke-width:1.5;" width="130" x="1561.5" y="98.5"/><text fill="#000000" font-family="sans-serif" font-size="14" lengthAdjust="spacing" textLength="72" x="1566.5" y="114.0352">targetlevel</text><text fill="#000000" font-family="sans-serif" font-size="14" lengthAdjust="spacing" textLength="0" x="1686.5" y="114.0352"/><line style="stroke:#A80036;stroke-width:1.0;" x1="1669.5" x2="1669.5" y1="98.5" y2="118.9883"/><line style="stroke:#A80036;stroke-width:1.0;" x1="1561.5" x2="1691.5" y1="118.9883" y2="118.9883"/><text fill="#000000" font-family="sans-serif" font-size="14" lengthAdjust="spacing" textLength="98" x="1566.5" y="134.5234">availablelevels</text><text fill="#000000" font-family="sans-serif" font-size="14" lengthAdjust="spacing" textLength="0" x="1686.5" y="134.5234"/><line style="stroke:#A80036;stroke-width:1.0;" x1="1669.5" x2="1669.5" y1="118.9883" y2="139.4766"/><rect fill="none" height="40.9766" rx="5" ry="5" style="stroke:#A80036;stroke-width:1.5;" width="130" x="1561.5" y="98.5"/><rect fill="#FEFECE" height="40.9766" rx="5" ry="5" style="stroke:#FEFECE;stroke-width:1.5;" width="430" x="1848" y="58.5"/><text fill="#000000" font-family="sans-serif" font-size="14" lengthAdjust="spacing" textLength="77" x="1853" y="74.0352">description</text><text fill="#000000" font-family="sans-serif" font-size="14" lengthAdjust="spacing" textLength="333" x="1940" y="74.0352">The target level from the available selectable set.</text><line style="stroke:#A80036;stroke-width:1.0;" x1="1935" x2="1935" y1="58.5" y2="78.9883"/><line style="stroke:#A80036;stroke-width:1.0;" x1="1848" x2="2278" y1="78.9883" y2="78.9883"/><text fill="#000000" font-family="sans-serif" font-size="14" lengthAdjust="spacing" textLength="29" x="1853" y="94.5234">type</text><text fill="#000000" font-family="sans-serif" font-size="14" lengthAdjust="spacing" textLength="54" x="1940" y="94.5234">number</text><line style="stroke:#A80036;stroke-width:1.0;" x1="1935" x2="1935" y1="78.9883" y2="99.4766"/><rect fill="none" height="40.9766" rx="5" ry="5" style="stroke:#A80036;stroke-width:1.5;" width="430" x="1848" y="58.5"/><rect fill="#FEFECE" height="81.9531" rx="5" ry="5" style="stroke:#FEFECE;stroke-width:1.5;" width="309" x="1908.5" y="118"/><text fill="#000000" font-family="sans-serif" font-size="14" lengthAdjust="spacing" textLength="77" x="1913.5" y="133.5352">description</text><text fill="#000000" font-family="sans-serif" font-size="14" lengthAdjust="spacing" textLength="212" x="2000.5" y="133.5352">The set of levels to select from.</text><line style="stroke:#A80036;stroke-width:1.0;" x1="1995.5" x2="1995.5" y1="118" y2="138.4883"/><line style="stroke:#A80036;stroke-width:1.0;" x1="1908.5" x2="2217.5" y1="138.4883" y2="138.4883"/><text fill="#000000" font-family="sans-serif" font-size="14" lengthAdjust="spacing" textLength="37" x="1913.5" y="154.0234">items</text><text fill="#000000" font-family="sans-serif" font-size="14" lengthAdjust="spacing" textLength="0" x="2012.5" y="154.0234"/><line style="stroke:#A80036;stroke-width:1.0;" x1="1995.5" x2="1995.5" y1="138.4883" y2="158.9766"/><line style="stroke:#A80036;stroke-width:1.0;" x1="1908.5" x2="2217.5" y1="158.9766" y2="158.9766"/><text fill="#000000" font-family="sans-serif" font-size="14" lengthAdjust="spacing" textLength="55" x="1913.5" y="174.5117">writable</text><text fill="#000000" font-family="sans-serif" font-size="14" lengthAdjust="spacing" textLength="48" x="2000.5" y="174.5117">☐ false</text><line style="stroke:#A80036;stroke-width:1.0;" x1="1995.5" x2="1995.5" y1="158.9766" y2="179.4648"/><line style="stroke:#A80036;stroke-width:1.0;" x1="1908.5" x2="2217.5" y1="179.4648" y2="179.4648"/><text fill="#000000" font-family="sans-serif" font-size="14" lengthAdjust="spacing" textLength="29" x="1913.5" y="195">type</text><text fill="#000000" font-family="sans-serif" font-size="14" lengthAdjust="spacing" textLength="35" x="2000.5" y="195">array</text><line style="stroke:#A80036;stroke-width:1.0;" x1="1995.5" x2="1995.5" y1="179.4648" y2="199.9531"/><rect fill="none" height="81.9531" rx="5" ry="5" style="stroke:#A80036;stroke-width:1.5;" width="309" x="1908.5" y="118"/><rect fill="#FEFECE" height="20.4883" rx="5" ry="5" style="stroke:#FEFECE;stroke-width:1.5;" width="103" x="2315" y="138"/><text fill="#000000" font-family="sans-serif" font-size="14" lengthAdjust="spacing" textLength="29" x="2320" y="153.5352">type</text><text fill="#000000" font-family="sans-serif" font-size="14" lengthAdjust="spacing" textLength="54" x="2359" y="153.5352">number</text><line style="stroke:#A80036;stroke-width:1.0;" x1="2354" x2="2354" y1="138" y2="158.4883"/><rect fill="none" height="20.4883" rx="5" ry="5" style="stroke:#A80036;stroke-width:1.5;" width="103" x="2315" y="138"/><rect fill="#FEFECE" height="20.4883" rx="5" ry="5" style="stroke:#FEFECE;stroke-width:1.5;" width="369" x="1442" y="174"/><text fill="#000000" font-family="sans-serif" font-size="14" lengthAdjust="spacing" textLength="359" x="1447" y="189.5352">#/sdfObject/selectablelevels/sdfProperty/targetlevel</text><rect fill="none" height="20.4883" rx="5" ry="5" style="stroke:#A80036;stroke-width:1.5;" width="369" x="1442" y="174"/><path d="M95,75 L108,75 C117.3442,75 126.8208,74.9198 136.3833,74.7688 " fill="none" style="stroke:#A80036;stroke-width:1.0;stroke-dasharray:3.0,3.0;"/><path d="M136.4378,77.8434 L138.6892,74.7279 L136.3288,71.6942 L144.0697,74.6326 L136.4378,77.8434 " fill="#A80036" style="stroke:#A80036;stroke-width:1.0;"/><ellipse cx="95" cy="75" fill="#A80036" rx="3" ry="3" style="stroke:#A80036;stroke-width:1.0;stroke-dasharray:3.0,3.0;"/><path d="M1680,108 L1693,108 C1749.3472,108 1810.3801,104.6068 1866.3,100.1417 " fill="none" style="stroke:#A80036;stroke-width:1.0;stroke-dasharray:3.0,3.0;"/><path d="M1866.5431,103.1418 L1868.5501,99.9594 L1866.0569,97.1416 L1873.8003,99.534 L1866.5431,103.1418 " fill="#A80036" style="stroke:#A80036;stroke-width:1.0;"/><ellipse cx="1680" cy="108" fill="#A80036" rx="3" ry="3" style="stroke:#A80036;stroke-width:1.0;stroke-dasharray:3.0,3.0;"/><path d="M2206.5,148 L2219.5,148 C2248.5519,148 2280.8445,148 2307.702,148 " fill="none" style="stroke:#A80036;stroke-width:1.0;stroke-dasharray:3.0,3.0;"/><path d="M2307.702,151.1145 L2310.0379,148 L2307.702,144.8855 L2315.4883,148 L2307.702,151.1145 " fill="#A80036" style="stroke:#A80036;stroke-width:1.0;"/><ellipse cx="2206.5" cy="148" fill="#A80036" rx="3" ry="3" style="stroke:#A80036;stroke-width:1.0;stroke-dasharray:3.0,3.0;"/><path d="M1680,129 L1693,129 C1761.1856,129 1836.2174,134.1379 1900.7512,140.1612 " fill="none" style="stroke:#A80036;stroke-width:1.0;stroke-dasharray:3.0,3.0;"/><path d="M1900.4557,143.2879 L1903.0962,140.3828 L1901.0466,137.0345 L1908.5679,140.8999 L1900.4557,143.2879 " fill="#A80036" style="stroke:#A80036;stroke-width:1.0;"/><ellipse cx="1680" cy="129" fill="#A80036" rx="3" ry="3" style="stroke:#A80036;stroke-width:1.0;stroke-dasharray:3.0,3.0;"/><path d="M1393,119 L1406,119 C1455.5427,119 1511.3612,119 1554.3764,119 " fill="none" style="stroke:#A80036;stroke-width:1.0;stroke-dasharray:3.0,3.0;"/><path d="M1554.3764,122.0422 L1556.6581,119 L1554.3764,115.9578 L1561.9819,119 L1554.3764,122.0422 " fill="#A80036" style="stroke:#A80036;stroke-width:1.0;"/><ellipse cx="1393" cy="119" fill="#A80036" rx="3" ry="3" style="stroke:#A80036;stroke-width:1.0;stroke-dasharray:3.0,3.0;"/><path d="M1393,184 L1406,184 C1415.3427,184 1424.9086,184 1434.5697,184 " fill="none" style="stroke:#A80036;stroke-width:1.0;stroke-dasharray:3.0,3.0;"/><path d="M1434.5697,187.1064 L1436.8995,184 L1434.5697,180.8936 L1442.3357,184 L1434.5697,187.1064 " fill="#A80036" style="stroke:#A80036;stroke-width:1.0;"/><ellipse cx="1393" cy="184" fill="#A80036" rx="3" ry="3" style="stroke:#A80036;stroke-width:1.0;stroke-dasharray:3.0,3.0;"/><path d="M529,120 L542,120 C635.2112,120 736.8777,120 828.5917,120 " fill="none" style="stroke:#A80036;stroke-width:1.0;stroke-dasharray:3.0,3.0;"/><path d="M828.5917,123.0844 L830.905,120 L828.5917,116.9156 L836.3026,120 L828.5917,123.0844 " fill="#A80036" style="stroke:#A80036;stroke-width:1.0;"/><ellipse cx="529" cy="120" fill="#A80036" rx="3" ry="3" style="stroke:#A80036;stroke-width:1.0;stroke-dasharray:3.0,3.0;"/><path d="M95,96 L108,96 C124.1536,96 127.924,99.4191 144,101 C229.9634,109.4534 329.0377,114.5644 395.4003,117.3232 " fill="none" style="stroke:#A80036;stroke-width:1.0;stroke-dasharray:3.0,3.0;"/><path d="M395.2769,120.333 L397.6576,117.4158 L395.5238,114.3135 L402.9247,117.6318 L395.2769,120.333 " fill="#A80036" style="stroke:#A80036;stroke-width:1.0;"/><ellipse cx="95" cy="96" fill="#A80036" rx="3" ry="3" style="stroke:#A80036;stroke-width:1.0;stroke-dasharray:3.0,3.0;"/><!--MD5=[beb5e8686d360976b0938a1ac7fc0c5e]
@startjson
{
  "info": {
    "copyright": "copyright 2016-2017, 2019 Open Connectivity Foundation, Inc. All rights reserved.",
    "license": "https://github.com/one-data-model/oneDM/blob/master/LICENSE",
    "title": "Selectable Levels",
    "version": "2019-02-15"
  },
  "sdfObject": {
    "selectablelevels": {
      "description": "This Resource provides a set of device defined levels that can be\\nselected for an operation. For example where a humidifier has a\\ndiscrete set that model different humidity levels that can be set.\\nThe Property \"availablelevels\" is an array of the levels that can be\\nselected, these can be a number or an integer (as subset of integer).\\nThe Property \"targetlevel\" is the level that has currently been\\nselected and is written to in order to select a new level. When\\nretrieved the targetlevel provides the actual value that has been\\nselected.",
      "sdfProperty": {
        "targetlevel": {
          "description": "The target level from the available selectable set.",
          "type": "number"
        },
        "availablelevels": {
          "description": "The set of levels to select from.",
          "items": {
            "type": "number"
          },
          "writable": false,
          "type": "array"
        }
      },
      "sdfRequired": [
        "#/sdfObject/selectablelevels/sdfProperty/targetlevel"
      ]
    }
  }
}
@endjson

PlantUML version 1.2021.2(Sun Mar 07 13:10:27 EET 2021)
(GPL source distribution)
Java Runtime: OpenJDK Runtime Environment
JVM: OpenJDK 64-Bit Server VM
Default Encoding: UTF-8
Language: en
Country: FI
--></g></svg>