<?xml version="1.0" encoding="UTF-8" standalone="no"?><svg xmlns="http://www.w3.org/2000/svg" xmlns:xlink="http://www.w3.org/1999/xlink" contentScriptType="application/ecmascript" contentStyleType="text/css" height="515px" preserveAspectRatio="none" style="width:2722px;height:515px;" version="1.1" viewBox="0 0 2722 515" width="2722px" zoomAndPan="magnify"><defs/><g><rect fill="#FEFECE" height="40.9766" rx="5" ry="5" style="stroke:#FEFECE;stroke-width:1.5;" width="97" x="10" y="176"/><text fill="#000000" font-family="sans-serif" font-size="14" lengthAdjust="spacing" textLength="27" x="15" y="191.5352">info</text><text fill="#000000" font-family="sans-serif" font-size="14" lengthAdjust="spacing" textLength="0" x="102" y="191.5352"/><line style="stroke:#A80036;stroke-width:1.0;" x1="85" x2="85" y1="176" y2="196.4883"/><line style="stroke:#A80036;stroke-width:1.0;" x1="10" x2="107" y1="196.4883" y2="196.4883"/><text fill="#000000" font-family="sans-serif" font-size="14" lengthAdjust="spacing" textLength="65" x="15" y="212.0234">sdfObject</text><text fill="#000000" font-family="sans-serif" font-size="14" lengthAdjust="spacing" textLength="0" x="102" y="212.0234"/><line style="stroke:#A80036;stroke-width:1.0;" x1="85" x2="85" y1="196.4883" y2="216.9766"/><rect fill="none" height="40.9766" rx="5" ry="5" style="stroke:#A80036;stroke-width:1.5;" width="97" x="10" y="176"/><rect fill="#FEFECE" height="81.9531" rx="5" ry="5" style="stroke:#FEFECE;stroke-width:1.5;" width="655" x="144" y="120.5"/><text fill="#000000" font-family="sans-serif" font-size="14" lengthAdjust="spacing" textLength="65" x="149" y="136.0352">copyright</text><text fill="#000000" font-family="sans-serif" font-size="14" lengthAdjust="spacing" textLength="570" x="224" y="136.0352">copyright 2016-2017, 2019 Open Connectivity Foundation, Inc. All rights reserved.</text><line style="stroke:#A80036;stroke-width:1.0;" x1="219" x2="219" y1="120.5" y2="140.9883"/><line style="stroke:#A80036;stroke-width:1.0;" x1="144" x2="799" y1="140.9883" y2="140.9883"/><text fill="#000000" font-family="sans-serif" font-size="14" lengthAdjust="spacing" textLength="47" x="149" y="156.5234">license</text><text fill="#000000" font-family="sans-serif" font-size="14" lengthAdjust="spacing" textLength="462" x="224" y="156.5234">https://github.com/one-data-model/oneDM/blob/master/LICENSE</text><line style="stroke:#A80036;stroke-width:1.0;" x1="219" x2="219" y1="140.9883" y2="161.4766"/><line style="stroke:#A80036;stroke-width:1.0;" x1="144" x2="799" y1="161.4766" y2="161.4766"/><text fill="#000000" font-family="sans-serif" font-size="14" lengthAdjust="spacing" textLength="26" x="149" y="177.0117">title</text><text fill="#000000" font-family="sans-serif" font-size="14" lengthAdjust="spacing" textLength="201" x="224" y="177.0117">Atmospheric Pressure Sensor</text><line style="stroke:#A80036;stroke-width:1.0;" x1="219" x2="219" y1="161.4766" y2="181.9648"/><line style="stroke:#A80036;stroke-width:1.0;" x1="144" x2="799" y1="181.9648" y2="181.9648"/><text fill="#000000" font-family="sans-serif" font-size="14" lengthAdjust="spacing" textLength="50" x="149" y="197.5">version</text><text fill="#000000" font-family="sans-serif" font-size="14" lengthAdjust="spacing" textLength="88" x="224" y="197.5">2019-02-25</text><line style="stroke:#A80036;stroke-width:1.0;" x1="219" x2="219" y1="181.9648" y2="202.4531"/><rect fill="none" height="81.9531" rx="5" ry="5" style="stroke:#A80036;stroke-width:1.5;" width="655" x="144" y="120.5"/><rect fill="#FEFECE" height="20.4883" rx="5" ry="5" style="stroke:#FEFECE;stroke-width:1.5;" width="227" x="358" y="220.5"/><text fill="#000000" font-family="sans-serif" font-size="14" lengthAdjust="spacing" textLength="195" x="363" y="236.0352">sensor.atmosphericpressure</text><text fill="#000000" font-family="sans-serif" font-size="14" lengthAdjust="spacing" textLength="0" x="580" y="236.0352"/><line style="stroke:#A80036;stroke-width:1.0;" x1="563" x2="563" y1="220.5" y2="240.9883"/><rect fill="none" height="20.4883" rx="5" ry="5" style="stroke:#A80036;stroke-width:1.5;" width="227" x="358" y="220.5"/><rect fill="#FEFECE" height="143.9063" rx="5" ry="5" style="stroke:#FEFECE;stroke-width:1.5;" width="560" x="836" y="158.5"/><text fill="#000000" font-family="sans-serif" font-size="14" lengthAdjust="spacing" textLength="77" x="841" y="174.0352">description</text><text fill="#000000" font-family="sans-serif" font-size="14" lengthAdjust="spacing" textLength="457" x="934" y="174.0352">This Resource provides a measurement of Mean Sea Level Pressure</text><text fill="#000000" font-family="sans-serif" font-size="14" lengthAdjust="spacing" textLength="434" x="934" y="190.5234">experienced at the measuring point expressed in millibars. The</text><text fill="#000000" font-family="sans-serif" font-size="14" lengthAdjust="spacing" textLength="417" x="934" y="207.0117">Property "atmosphericPressure" is a float which describes the</text><text fill="#000000" font-family="sans-serif" font-size="14" lengthAdjust="spacing" textLength="452" x="934" y="223.5">atmospheric pressure in hPa (hectoPascals). Note that hPa and the</text><text fill="#000000" font-family="sans-serif" font-size="14" lengthAdjust="spacing" textLength="411" x="934" y="239.9883">also commonly used unit of millibars (mbar) are numerically</text><text fill="#000000" font-family="sans-serif" font-size="14" lengthAdjust="spacing" textLength="75" x="934" y="256.4766">equivalent.</text><line style="stroke:#A80036;stroke-width:1.0;" x1="929" x2="929" y1="158.5" y2="261.4297"/><line style="stroke:#A80036;stroke-width:1.0;" x1="836" x2="1396" y1="261.4297" y2="261.4297"/><text fill="#000000" font-family="sans-serif" font-size="14" lengthAdjust="spacing" textLength="79" x="841" y="276.9648">sdfProperty</text><text fill="#000000" font-family="sans-serif" font-size="14" lengthAdjust="spacing" textLength="0" x="946" y="276.9648"/><line style="stroke:#A80036;stroke-width:1.0;" x1="929" x2="929" y1="261.4297" y2="281.918"/><line style="stroke:#A80036;stroke-width:1.0;" x1="836" x2="1396" y1="281.918" y2="281.918"/><text fill="#000000" font-family="sans-serif" font-size="14" lengthAdjust="spacing" textLength="83" x="841" y="297.4531">sdfRequired</text><text fill="#000000" font-family="sans-serif" font-size="14" lengthAdjust="spacing" textLength="0" x="946" y="297.4531"/><line style="stroke:#A80036;stroke-width:1.0;" x1="929" x2="929" y1="281.918" y2="302.4063"/><rect fill="none" height="143.9063" rx="5" ry="5" style="stroke:#A80036;stroke-width:1.5;" width="560" x="836" y="158.5"/><rect fill="#FEFECE" height="81.9531" rx="5" ry="5" style="stroke:#FEFECE;stroke-width:1.5;" width="176" x="1610" y="179.5"/><text fill="#000000" font-family="sans-serif" font-size="14" lengthAdjust="spacing" textLength="144" x="1615" y="195.0352">atmosphericPressure</text><text fill="#000000" font-family="sans-serif" font-size="14" lengthAdjust="spacing" textLength="0" x="1781" y="195.0352"/><line style="stroke:#A80036;stroke-width:1.0;" x1="1764" x2="1764" y1="179.5" y2="199.9883"/><line style="stroke:#A80036;stroke-width:1.0;" x1="1610" x2="1786" y1="199.9883" y2="199.9883"/><text fill="#000000" font-family="sans-serif" font-size="14" lengthAdjust="spacing" textLength="63" x="1615" y="215.5234">precision</text><text fill="#000000" font-family="sans-serif" font-size="14" lengthAdjust="spacing" textLength="0" x="1781" y="215.5234"/><line style="stroke:#A80036;stroke-width:1.0;" x1="1764" x2="1764" y1="199.9883" y2="220.4766"/><line style="stroke:#A80036;stroke-width:1.0;" x1="1610" x2="1786" y1="220.4766" y2="220.4766"/><text fill="#000000" font-family="sans-serif" font-size="14" lengthAdjust="spacing" textLength="40" x="1615" y="236.0117">range</text><text fill="#000000" font-family="sans-serif" font-size="14" lengthAdjust="spacing" textLength="0" x="1781" y="236.0117"/><line style="stroke:#A80036;stroke-width:1.0;" x1="1764" x2="1764" y1="220.4766" y2="240.9648"/><line style="stroke:#A80036;stroke-width:1.0;" x1="1610" x2="1786" y1="240.9648" y2="240.9648"/><text fill="#000000" font-family="sans-serif" font-size="14" lengthAdjust="spacing" textLength="29" x="1615" y="256.5">step</text><text fill="#000000" font-family="sans-serif" font-size="14" lengthAdjust="spacing" textLength="0" x="1781" y="256.5"/><line style="stroke:#A80036;stroke-width:1.0;" x1="1764" x2="1764" y1="240.9648" y2="261.4531"/><rect fill="none" height="81.9531" rx="5" ry="5" style="stroke:#A80036;stroke-width:1.5;" width="176" x="1610" y="179.5"/><rect fill="#FEFECE" height="61.4648" rx="5" ry="5" style="stroke:#FEFECE;stroke-width:1.5;" width="380" x="2095" y="10"/><text fill="#000000" font-family="sans-serif" font-size="14" lengthAdjust="spacing" textLength="77" x="2100" y="25.5352">description</text><text fill="#000000" font-family="sans-serif" font-size="14" lengthAdjust="spacing" textLength="283" x="2187" y="25.5352">The current atmospheric pressure in hPa.</text><line style="stroke:#A80036;stroke-width:1.0;" x1="2182" x2="2182" y1="10" y2="30.4883"/><line style="stroke:#A80036;stroke-width:1.0;" x1="2095" x2="2475" y1="30.4883" y2="30.4883"/><text fill="#000000" font-family="sans-serif" font-size="14" lengthAdjust="spacing" textLength="55" x="2100" y="46.0234">writable</text><text fill="#000000" font-family="sans-serif" font-size="14" lengthAdjust="spacing" textLength="48" x="2187" y="46.0234">☐ false</text><line style="stroke:#A80036;stroke-width:1.0;" x1="2182" x2="2182" y1="30.4883" y2="50.9766"/><line style="stroke:#A80036;stroke-width:1.0;" x1="2095" x2="2475" y1="50.9766" y2="50.9766"/><text fill="#000000" font-family="sans-serif" font-size="14" lengthAdjust="spacing" textLength="29" x="2100" y="66.5117">type</text><text fill="#000000" font-family="sans-serif" font-size="14" lengthAdjust="spacing" textLength="54" x="2187" y="66.5117">number</text><line style="stroke:#A80036;stroke-width:1.0;" x1="2182" x2="2182" y1="50.9766" y2="71.4648"/><rect fill="none" height="61.4648" rx="5" ry="5" style="stroke:#A80036;stroke-width:1.5;" width="380" x="2095" y="10"/><rect fill="#FEFECE" height="110.9297" rx="5" ry="5" style="stroke:#FEFECE;stroke-width:1.5;" width="570" x="2000" y="89"/><text fill="#000000" font-family="sans-serif" font-size="14" lengthAdjust="spacing" textLength="29" x="2005" y="104.5352">type</text><text fill="#000000" font-family="sans-serif" font-size="14" lengthAdjust="spacing" textLength="54" x="2092" y="104.5352">number</text><line style="stroke:#A80036;stroke-width:1.0;" x1="2087" x2="2087" y1="89" y2="109.4883"/><line style="stroke:#A80036;stroke-width:1.0;" x1="2000" x2="2570" y1="109.4883" y2="109.4883"/><text fill="#000000" font-family="sans-serif" font-size="14" lengthAdjust="spacing" textLength="55" x="2005" y="125.0234">writable</text><text fill="#000000" font-family="sans-serif" font-size="14" lengthAdjust="spacing" textLength="48" x="2092" y="125.0234">☐ false</text><line style="stroke:#A80036;stroke-width:1.0;" x1="2087" x2="2087" y1="109.4883" y2="129.9766"/><line style="stroke:#A80036;stroke-width:1.0;" x1="2000" x2="2570" y1="129.9766" y2="129.9766"/><text fill="#000000" font-family="sans-serif" font-size="14" lengthAdjust="spacing" textLength="77" x="2005" y="145.5117">description</text><text fill="#000000" font-family="sans-serif" font-size="14" lengthAdjust="spacing" textLength="430" x="2092" y="145.5117">When exposed the value in 'precision' provides a +/- tolerance</text><text fill="#000000" font-family="sans-serif" font-size="14" lengthAdjust="spacing" textLength="473" x="2092" y="162">against the Properties in the Resource. Thus if a Property is UPDATED</text><text fill="#000000" font-family="sans-serif" font-size="14" lengthAdjust="spacing" textLength="465" x="2092" y="178.4883">to a value and that Property then RETRIEVED, the RETRIEVED value is</text><text fill="#000000" font-family="sans-serif" font-size="14" lengthAdjust="spacing" textLength="337" x="2092" y="194.9766">valid if in the range of the set value +/- precision</text><line style="stroke:#A80036;stroke-width:1.0;" x1="2087" x2="2087" y1="129.9766" y2="199.9297"/><rect fill="none" height="110.9297" rx="5" ry="5" style="stroke:#A80036;stroke-width:1.5;" width="570" x="2000" y="89"/><rect fill="#FEFECE" height="155.9063" rx="5" ry="5" style="stroke:#FEFECE;stroke-width:1.5;" width="548" x="2011" y="218.5"/><text fill="#000000" font-family="sans-serif" font-size="14" lengthAdjust="spacing" textLength="29" x="2016" y="234.0352">type</text><text fill="#000000" font-family="sans-serif" font-size="14" lengthAdjust="spacing" textLength="35" x="2103" y="234.0352">array</text><line style="stroke:#A80036;stroke-width:1.0;" x1="2098" x2="2098" y1="218.5" y2="238.9883"/><line style="stroke:#A80036;stroke-width:1.0;" x1="2011" x2="2559" y1="238.9883" y2="238.9883"/><text fill="#000000" font-family="sans-serif" font-size="14" lengthAdjust="spacing" textLength="77" x="2016" y="254.5234">description</text><text fill="#000000" font-family="sans-serif" font-size="14" lengthAdjust="spacing" textLength="451" x="2103" y="254.5234">The valid range for the Property in the Resource as a number. The</text><text fill="#000000" font-family="sans-serif" font-size="14" lengthAdjust="spacing" textLength="439" x="2103" y="271.0117">first value in the array is the minimum value, the second value in</text><text fill="#000000" font-family="sans-serif" font-size="14" lengthAdjust="spacing" textLength="219" x="2103" y="287.5">the array is the maximum value.</text><line style="stroke:#A80036;stroke-width:1.0;" x1="2098" x2="2098" y1="238.9883" y2="292.4531"/><line style="stroke:#A80036;stroke-width:1.0;" x1="2011" x2="2559" y1="292.4531" y2="292.4531"/><text fill="#000000" font-family="sans-serif" font-size="14" lengthAdjust="spacing" textLength="55" x="2016" y="307.9883">writable</text><text fill="#000000" font-family="sans-serif" font-size="14" lengthAdjust="spacing" textLength="48" x="2103" y="307.9883">☐ false</text><line style="stroke:#A80036;stroke-width:1.0;" x1="2098" x2="2098" y1="292.4531" y2="312.9414"/><line style="stroke:#A80036;stroke-width:1.0;" x1="2011" x2="2559" y1="312.9414" y2="312.9414"/><text fill="#000000" font-family="sans-serif" font-size="14" lengthAdjust="spacing" textLength="63" x="2016" y="328.4766">minItems</text><text fill="#000000" font-family="sans-serif" font-size="14" lengthAdjust="spacing" textLength="9" x="2103" y="328.4766">2</text><line style="stroke:#A80036;stroke-width:1.0;" x1="2098" x2="2098" y1="312.9414" y2="333.4297"/><line style="stroke:#A80036;stroke-width:1.0;" x1="2011" x2="2559" y1="333.4297" y2="333.4297"/><text fill="#000000" font-family="sans-serif" font-size="14" lengthAdjust="spacing" textLength="67" x="2016" y="348.9648">maxItems</text><text fill="#000000" font-family="sans-serif" font-size="14" lengthAdjust="spacing" textLength="9" x="2103" y="348.9648">2</text><line style="stroke:#A80036;stroke-width:1.0;" x1="2098" x2="2098" y1="333.4297" y2="353.918"/><line style="stroke:#A80036;stroke-width:1.0;" x1="2011" x2="2559" y1="353.918" y2="353.918"/><text fill="#000000" font-family="sans-serif" font-size="14" lengthAdjust="spacing" textLength="37" x="2016" y="369.4531">items</text><text fill="#000000" font-family="sans-serif" font-size="14" lengthAdjust="spacing" textLength="0" x="2115" y="369.4531"/><line style="stroke:#A80036;stroke-width:1.0;" x1="2098" x2="2098" y1="353.918" y2="374.4063"/><rect fill="none" height="155.9063" rx="5" ry="5" style="stroke:#A80036;stroke-width:1.5;" width="548" x="2011" y="218.5"/><rect fill="#FEFECE" height="20.4883" rx="5" ry="5" style="stroke:#FEFECE;stroke-width:1.5;" width="103" x="2607" y="351.5"/><text fill="#000000" font-family="sans-serif" font-size="14" lengthAdjust="spacing" textLength="29" x="2612" y="367.0352">type</text><text fill="#000000" font-family="sans-serif" font-size="14" lengthAdjust="spacing" textLength="54" x="2651" y="367.0352">number</text><line style="stroke:#A80036;stroke-width:1.0;" x1="2646" x2="2646" y1="351.5" y2="371.9883"/><rect fill="none" height="20.4883" rx="5" ry="5" style="stroke:#A80036;stroke-width:1.5;" width="103" x="2607" y="351.5"/><rect fill="#FEFECE" height="110.9297" rx="5" ry="5" style="stroke:#FEFECE;stroke-width:1.5;" width="555" x="2007.5" y="393"/><text fill="#000000" font-family="sans-serif" font-size="14" lengthAdjust="spacing" textLength="77" x="2012.5" y="408.5352">description</text><text fill="#000000" font-family="sans-serif" font-size="14" lengthAdjust="spacing" textLength="456" x="2099.5" y="408.5352">Step value across the defined range an integer when the range is a</text><text fill="#000000" font-family="sans-serif" font-size="14" lengthAdjust="spacing" textLength="458" x="2099.5" y="425.0234">number.  This is the increment for valid values across the range; so</text><text fill="#000000" font-family="sans-serif" font-size="14" lengthAdjust="spacing" textLength="381" x="2099.5" y="441.5117">if range is 0.0..10.0 and step is 2.5 then valid values are</text><text fill="#000000" font-family="sans-serif" font-size="14" lengthAdjust="spacing" textLength="139" x="2099.5" y="458">0.0,2.5,5.0,7.5,10.0.</text><line style="stroke:#A80036;stroke-width:1.0;" x1="2094.5" x2="2094.5" y1="393" y2="462.9531"/><line style="stroke:#A80036;stroke-width:1.0;" x1="2007.5" x2="2562.5" y1="462.9531" y2="462.9531"/><text fill="#000000" font-family="sans-serif" font-size="14" lengthAdjust="spacing" textLength="55" x="2012.5" y="478.4883">writable</text><text fill="#000000" font-family="sans-serif" font-size="14" lengthAdjust="spacing" textLength="48" x="2099.5" y="478.4883">☐ false</text><line style="stroke:#A80036;stroke-width:1.0;" x1="2094.5" x2="2094.5" y1="462.9531" y2="483.4414"/><line style="stroke:#A80036;stroke-width:1.0;" x1="2007.5" x2="2562.5" y1="483.4414" y2="483.4414"/><text fill="#000000" font-family="sans-serif" font-size="14" lengthAdjust="spacing" textLength="29" x="2012.5" y="498.9766">type</text><text fill="#000000" font-family="sans-serif" font-size="14" lengthAdjust="spacing" textLength="54" x="2099.5" y="498.9766">number</text><line style="stroke:#A80036;stroke-width:1.0;" x1="2094.5" x2="2094.5" y1="483.4414" y2="503.9297"/><rect fill="none" height="110.9297" rx="5" ry="5" style="stroke:#A80036;stroke-width:1.5;" width="555" x="2007.5" y="393"/><rect fill="#FEFECE" height="20.4883" rx="5" ry="5" style="stroke:#FEFECE;stroke-width:1.5;" width="530" x="1433" y="279.5"/><text fill="#000000" font-family="sans-serif" font-size="14" lengthAdjust="spacing" textLength="520" x="1438" y="295.0352">#/sdfObject/sensor.atmosphericpressure/sdfProperty/atmosphericPressure</text><rect fill="none" height="20.4883" rx="5" ry="5" style="stroke:#A80036;stroke-width:1.5;" width="530" x="1433" y="279.5"/><path d="M95,185.5 L108,185.5 C117.3442,185.5 126.8208,185.4198 136.3833,185.2688 " fill="none" style="stroke:#A80036;stroke-width:1.0;stroke-dasharray:3.0,3.0;"/><path d="M136.4378,188.3434 L138.6892,185.2279 L136.3288,182.1942 L144.0697,185.1326 L136.4378,188.3434 " fill="#A80036" style="stroke:#A80036;stroke-width:1.0;"/><ellipse cx="95" cy="185.5" fill="#A80036" rx="3" ry="3" style="stroke:#A80036;stroke-width:1.0;stroke-dasharray:3.0,3.0;"/><path d="M1774.5,189.5 L1787.5,189.5 C1893.6443,189.5 1898.8126,112.5581 2000,80.5 C2027.9443,71.6467 2058.0519,64.7503 2087.8569,59.3787 " fill="none" style="stroke:#A80036;stroke-width:1.0;stroke-dasharray:3.0,3.0;"/><path d="M2088.3901,62.4066 L2090.1278,58.9788 L2087.3237,56.3509 L2095.4265,58.0457 L2088.3901,62.4066 " fill="#A80036" style="stroke:#A80036;stroke-width:1.0;"/><ellipse cx="1774.5" cy="189.5" fill="#A80036" rx="3" ry="3" style="stroke:#A80036;stroke-width:1.0;stroke-dasharray:3.0,3.0;"/><path d="M1774.5,209.5 L1787.5,209.5 C1854.1133,209.5 1925.3278,203.6881 1992.4357,195.54 " fill="none" style="stroke:#A80036;stroke-width:1.0;stroke-dasharray:3.0,3.0;"/><path d="M1992.8166,198.636 L1994.7577,195.2543 L1992.0548,192.4439 L2000.1758,194.5877 L1992.8166,198.636 " fill="#A80036" style="stroke:#A80036;stroke-width:1.0;"/><ellipse cx="1774.5" cy="209.5" fill="#A80036" rx="3" ry="3" style="stroke:#A80036;stroke-width:1.0;stroke-dasharray:3.0,3.0;"/><path d="M2547.5,361.5 L2560.5,361.5 C2573.235,361.5 2586.9056,361.5 2599.8621,361.5 " fill="none" style="stroke:#A80036;stroke-width:1.0;stroke-dasharray:3.0,3.0;"/><path d="M2599.8621,364.5134 L2602.1221,361.5 L2599.8621,358.4866 L2607.3956,361.5 L2599.8621,364.5134 " fill="#A80036" style="stroke:#A80036;stroke-width:1.0;"/><ellipse cx="2547.5" cy="361.5" fill="#A80036" rx="3" ry="3" style="stroke:#A80036;stroke-width:1.0;stroke-dasharray:3.0,3.0;"/><path d="M1774.5,230.5 L1787.5,230.5 C1857.835,230.5 1933.2856,237.0758 2003.6146,246.0761 " fill="none" style="stroke:#A80036;stroke-width:1.0;stroke-dasharray:3.0,3.0;"/><path d="M2003.2173,249.1429 L2005.9147,246.3741 L2004.012,243.0093 L2011.2815,247.0694 L2003.2173,249.1429 " fill="#A80036" style="stroke:#A80036;stroke-width:1.0;"/><ellipse cx="1774.5" cy="230.5" fill="#A80036" rx="3" ry="3" style="stroke:#A80036;stroke-width:1.0;stroke-dasharray:3.0,3.0;"/><path d="M1774.5,251.5 L1787.5,251.5 C1866.3977,251.5 1902.8905,220.5954 1964,270.5 C2004.8255,303.8399 1961.2004,347.8228 2000,383.5 C2001.6608,385.0271 2003.3499,386.5208 2005.0658,387.9817 " fill="none" style="stroke:#A80036;stroke-width:1.0;stroke-dasharray:3.0,3.0;"/><path d="M2003.129,390.3558 L2006.8464,389.4343 L2007.0026,385.6076 L2011.0011,392.8236 L2003.129,390.3558 " fill="#A80036" style="stroke:#A80036;stroke-width:1.0;"/><ellipse cx="1774.5" cy="251.5" fill="#A80036" rx="3" ry="3" style="stroke:#A80036;stroke-width:1.0;stroke-dasharray:3.0,3.0;"/><path d="M1384,230.5 L1397,230.5 C1465.8145,230.5 1543.4442,227.8481 1602.5612,225.2756 " fill="none" style="stroke:#A80036;stroke-width:1.0;stroke-dasharray:3.0,3.0;"/><path d="M1602.6995,228.4149 L1604.9156,225.1719 L1602.4229,222.1363 L1610.4094,224.9298 L1602.6995,228.4149 " fill="#A80036" style="stroke:#A80036;stroke-width:1.0;"/><ellipse cx="1384" cy="230.5" fill="#A80036" rx="3" ry="3" style="stroke:#A80036;stroke-width:1.0;stroke-dasharray:3.0,3.0;"/><path d="M1384,278.5 L1397,278.5 C1419.3758,278.5 1442.6825,278.8084 1465.9812,279.3218 " fill="none" style="stroke:#A80036;stroke-width:1.0;stroke-dasharray:3.0,3.0;"/><path d="M1465.9117,282.347 L1468.2501,279.3739 L1466.0507,276.2966 L1473.5443,279.4956 L1465.9117,282.347 " fill="#A80036" style="stroke:#A80036;stroke-width:1.0;"/><ellipse cx="1384" cy="278.5" fill="#A80036" rx="3" ry="3" style="stroke:#A80036;stroke-width:1.0;stroke-dasharray:3.0,3.0;"/><path d="M574,230.5 L587,230.5 C665.4421,230.5 750.4331,230.5 828.8508,230.5 " fill="none" style="stroke:#A80036;stroke-width:1.0;stroke-dasharray:3.0,3.0;"/><path d="M828.8508,233.5271 L831.1211,230.5 L828.8508,227.4729 L836.4186,230.5 L828.8508,233.5271 " fill="#A80036" style="stroke:#A80036;stroke-width:1.0;"/><ellipse cx="574" cy="230.5" fill="#A80036" rx="3" ry="3" style="stroke:#A80036;stroke-width:1.0;stroke-dasharray:3.0,3.0;"/><path d="M95,206.5 L108,206.5 C124.1536,206.5 127.924,209.9191 144,211.5 C212.2475,218.2113 288.7588,222.8158 350.6041,225.8092 " fill="none" style="stroke:#A80036;stroke-width:1.0;stroke-dasharray:3.0,3.0;"/><path d="M350.454,228.9504 L352.9601,225.9217 L350.7542,222.6679 L358.4572,226.1844 L350.454,228.9504 " fill="#A80036" style="stroke:#A80036;stroke-width:1.0;"/><ellipse cx="95" cy="206.5" fill="#A80036" rx="3" ry="3" style="stroke:#A80036;stroke-width:1.0;stroke-dasharray:3.0,3.0;"/><!--MD5=[878f618dc83c9ffa850eb728c6449870]
@startjson
{
  "info": {
    "copyright": "copyright 2016-2017, 2019 Open Connectivity Foundation, Inc. All rights reserved.",
    "license": "https://github.com/one-data-model/oneDM/blob/master/LICENSE",
    "title": "Atmospheric Pressure Sensor",
    "version": "2019-02-25"
  },
  "sdfObject": {
    "sensor.atmosphericpressure": {
      "description": "This Resource provides a measurement of Mean Sea Level Pressure\\nexperienced at the measuring point expressed in millibars. The\\nProperty \"atmosphericPressure\" is a float which describes the\\natmospheric pressure in hPa (hectoPascals). Note that hPa and the\\nalso commonly used unit of millibars (mbar) are numerically\\nequivalent.",
      "sdfProperty": {
        "atmosphericPressure": {
          "description": "The current atmospheric pressure in hPa.",
          "writable": false,
          "type": "number"
        },
        "precision": {
          "type": "number",
          "writable": false,
          "description": "When exposed the value in 'precision' provides a +/- tolerance\\nagainst the Properties in the Resource. Thus if a Property is UPDATED\\nto a value and that Property then RETRIEVED, the RETRIEVED value is\\nvalid if in the range of the set value +/- precision"
        },
        "range": {
          "type": "array",
          "description": "The valid range for the Property in the Resource as a number. The\\nfirst value in the array is the minimum value, the second value in\\nthe array is the maximum value.",
          "writable": false,
          "minItems": 2,
          "maxItems": 2,
          "items": {
            "type": "number"
          }
        },
        "step": {
          "description": "Step value across the defined range an integer when the range is a\\nnumber.  This is the increment for valid values across the range; so\\nif range is 0.0..10.0 and step is 2.5 then valid values are\\n0.0,2.5,5.0,7.5,10.0.",
          "writable": false,
          "type": "number"
        }
      },
      "sdfRequired": [
        "#/sdfObject/sensor.atmosphericpressure/sdfProperty/atmosphericPressure"
      ]
    }
  }
}
@endjson

PlantUML version 1.2021.2(Sun Mar 07 13:10:27 EET 2021)
(GPL source distribution)
Java Runtime: OpenJDK Runtime Environment
JVM: OpenJDK 64-Bit Server VM
Default Encoding: UTF-8
Language: en
Country: FI
--></g></svg>