<?xml version="1.0" encoding="UTF-8" standalone="no"?><svg xmlns="http://www.w3.org/2000/svg" xmlns:xlink="http://www.w3.org/1999/xlink" contentScriptType="application/ecmascript" contentStyleType="text/css" height="746px" preserveAspectRatio="none" style="width:2406px;height:746px;" version="1.1" viewBox="0 0 2406 746" width="2406px" zoomAndPan="magnify"><defs/><g><rect fill="#FEFECE" height="40.9766" rx="5" ry="5" style="stroke:#FEFECE;stroke-width:1.5;" width="97" x="10" y="392.5"/><text fill="#000000" font-family="sans-serif" font-size="14" lengthAdjust="spacing" textLength="27" x="15" y="408.0352">info</text><text fill="#000000" font-family="sans-serif" font-size="14" lengthAdjust="spacing" textLength="0" x="102" y="408.0352"/><line style="stroke:#A80036;stroke-width:1.0;" x1="85" x2="85" y1="392.5" y2="412.9883"/><line style="stroke:#A80036;stroke-width:1.0;" x1="10" x2="107" y1="412.9883" y2="412.9883"/><text fill="#000000" font-family="sans-serif" font-size="14" lengthAdjust="spacing" textLength="65" x="15" y="428.5234">sdfObject</text><text fill="#000000" font-family="sans-serif" font-size="14" lengthAdjust="spacing" textLength="0" x="102" y="428.5234"/><line style="stroke:#A80036;stroke-width:1.0;" x1="85" x2="85" y1="412.9883" y2="433.4766"/><rect fill="none" height="40.9766" rx="5" ry="5" style="stroke:#A80036;stroke-width:1.5;" width="97" x="10" y="392.5"/><rect fill="#FEFECE" height="81.9531" rx="5" ry="5" style="stroke:#FEFECE;stroke-width:1.5;" width="567" x="144" y="337"/><text fill="#000000" font-family="sans-serif" font-size="14" lengthAdjust="spacing" textLength="65" x="149" y="352.5352">copyright</text><text fill="#000000" font-family="sans-serif" font-size="14" lengthAdjust="spacing" textLength="482" x="224" y="352.5352">copyright 2019 Open Connectivity Foundation, Inc. All rights reserved.</text><line style="stroke:#A80036;stroke-width:1.0;" x1="219" x2="219" y1="337" y2="357.4883"/><line style="stroke:#A80036;stroke-width:1.0;" x1="144" x2="711" y1="357.4883" y2="357.4883"/><text fill="#000000" font-family="sans-serif" font-size="14" lengthAdjust="spacing" textLength="47" x="149" y="373.0234">license</text><text fill="#000000" font-family="sans-serif" font-size="14" lengthAdjust="spacing" textLength="462" x="224" y="373.0234">https://github.com/one-data-model/oneDM/blob/master/LICENSE</text><line style="stroke:#A80036;stroke-width:1.0;" x1="219" x2="219" y1="357.4883" y2="377.9766"/><line style="stroke:#A80036;stroke-width:1.0;" x1="144" x2="711" y1="377.9766" y2="377.9766"/><text fill="#000000" font-family="sans-serif" font-size="14" lengthAdjust="spacing" textLength="26" x="149" y="393.5117">title</text><text fill="#000000" font-family="sans-serif" font-size="14" lengthAdjust="spacing" textLength="138" x="224" y="393.5117">Inverter (IEC 61850)</text><line style="stroke:#A80036;stroke-width:1.0;" x1="219" x2="219" y1="377.9766" y2="398.4648"/><line style="stroke:#A80036;stroke-width:1.0;" x1="144" x2="711" y1="398.4648" y2="398.4648"/><text fill="#000000" font-family="sans-serif" font-size="14" lengthAdjust="spacing" textLength="50" x="149" y="414">version</text><text fill="#000000" font-family="sans-serif" font-size="14" lengthAdjust="spacing" textLength="88" x="224" y="414">2019-06-13</text><line style="stroke:#A80036;stroke-width:1.0;" x1="219" x2="219" y1="398.4648" y2="418.9531"/><rect fill="none" height="81.9531" rx="5" ry="5" style="stroke:#A80036;stroke-width:1.5;" width="567" x="144" y="337"/><rect fill="#FEFECE" height="20.4883" rx="5" ry="5" style="stroke:#FEFECE;stroke-width:1.5;" width="85" x="385" y="437"/><text fill="#000000" font-family="sans-serif" font-size="14" lengthAdjust="spacing" textLength="53" x="390" y="452.5352">inverter</text><text fill="#000000" font-family="sans-serif" font-size="14" lengthAdjust="spacing" textLength="0" x="465" y="452.5352"/><line style="stroke:#A80036;stroke-width:1.0;" x1="448" x2="448" y1="437" y2="457.4883"/><rect fill="none" height="20.4883" rx="5" ry="5" style="stroke:#A80036;stroke-width:1.5;" width="85" x="385" y="437"/><rect fill="#FEFECE" height="77.9531" rx="5" ry="5" style="stroke:#FEFECE;stroke-width:1.5;" width="568" x="748" y="408"/><text fill="#000000" font-family="sans-serif" font-size="14" lengthAdjust="spacing" textLength="77" x="753" y="423.5352">description</text><text fill="#000000" font-family="sans-serif" font-size="14" lengthAdjust="spacing" textLength="465" x="846" y="423.5352">This Resource describes functions for the control and monitoring of</text><text fill="#000000" font-family="sans-serif" font-size="14" lengthAdjust="spacing" textLength="223" x="846" y="440.0234">IEC 61850 based circuit breaker.</text><line style="stroke:#A80036;stroke-width:1.0;" x1="841" x2="841" y1="408" y2="444.9766"/><line style="stroke:#A80036;stroke-width:1.0;" x1="748" x2="1316" y1="444.9766" y2="444.9766"/><text fill="#000000" font-family="sans-serif" font-size="14" lengthAdjust="spacing" textLength="79" x="753" y="460.5117">sdfProperty</text><text fill="#000000" font-family="sans-serif" font-size="14" lengthAdjust="spacing" textLength="0" x="858" y="460.5117"/><line style="stroke:#A80036;stroke-width:1.0;" x1="841" x2="841" y1="444.9766" y2="465.4648"/><line style="stroke:#A80036;stroke-width:1.0;" x1="748" x2="1316" y1="465.4648" y2="465.4648"/><text fill="#000000" font-family="sans-serif" font-size="14" lengthAdjust="spacing" textLength="83" x="753" y="481">sdfRequired</text><text fill="#000000" font-family="sans-serif" font-size="14" lengthAdjust="spacing" textLength="0" x="858" y="481"/><line style="stroke:#A80036;stroke-width:1.0;" x1="841" x2="841" y1="465.4648" y2="485.9531"/><rect fill="none" height="77.9531" rx="5" ry="5" style="stroke:#A80036;stroke-width:1.5;" width="568" x="748" y="408"/><rect fill="#FEFECE" height="163.9063" rx="5" ry="5" style="stroke:#FEFECE;stroke-width:1.5;" width="123" x="1459" y="287"/><text fill="#000000" font-family="sans-serif" font-size="14" lengthAdjust="spacing" textLength="41" x="1464" y="302.5352">status</text><text fill="#000000" font-family="sans-serif" font-size="14" lengthAdjust="spacing" textLength="0" x="1577" y="302.5352"/><line style="stroke:#A80036;stroke-width:1.0;" x1="1560" x2="1560" y1="287" y2="307.4883"/><line style="stroke:#A80036;stroke-width:1.0;" x1="1459" x2="1582" y1="307.4883" y2="307.4883"/><text fill="#000000" font-family="sans-serif" font-size="14" lengthAdjust="spacing" textLength="79" x="1464" y="323.0234">ratedpower</text><text fill="#000000" font-family="sans-serif" font-size="14" lengthAdjust="spacing" textLength="0" x="1577" y="323.0234"/><line style="stroke:#A80036;stroke-width:1.0;" x1="1560" x2="1560" y1="307.4883" y2="327.9766"/><line style="stroke:#A80036;stroke-width:1.0;" x1="1459" x2="1582" y1="327.9766" y2="327.9766"/><text fill="#000000" font-family="sans-serif" font-size="14" lengthAdjust="spacing" textLength="87" x="1464" y="343.5117">minvoltmppt</text><text fill="#000000" font-family="sans-serif" font-size="14" lengthAdjust="spacing" textLength="0" x="1577" y="343.5117"/><line style="stroke:#A80036;stroke-width:1.0;" x1="1560" x2="1560" y1="327.9766" y2="348.4648"/><line style="stroke:#A80036;stroke-width:1.0;" x1="1459" x2="1582" y1="348.4648" y2="348.4648"/><text fill="#000000" font-family="sans-serif" font-size="14" lengthAdjust="spacing" textLength="91" x="1464" y="364">maxvoltmppt</text><text fill="#000000" font-family="sans-serif" font-size="14" lengthAdjust="spacing" textLength="0" x="1577" y="364"/><line style="stroke:#A80036;stroke-width:1.0;" x1="1560" x2="1560" y1="348.4648" y2="368.9531"/><line style="stroke:#A80036;stroke-width:1.0;" x1="1459" x2="1582" y1="368.9531" y2="368.9531"/><text fill="#000000" font-family="sans-serif" font-size="14" lengthAdjust="spacing" textLength="86" x="1464" y="384.4883">inputvoltage</text><text fill="#000000" font-family="sans-serif" font-size="14" lengthAdjust="spacing" textLength="0" x="1577" y="384.4883"/><line style="stroke:#A80036;stroke-width:1.0;" x1="1560" x2="1560" y1="368.9531" y2="389.4414"/><line style="stroke:#A80036;stroke-width:1.0;" x1="1459" x2="1582" y1="389.4414" y2="389.4414"/><text fill="#000000" font-family="sans-serif" font-size="14" lengthAdjust="spacing" textLength="86" x="1464" y="404.9766">inputcurrent</text><text fill="#000000" font-family="sans-serif" font-size="14" lengthAdjust="spacing" textLength="0" x="1577" y="404.9766"/><line style="stroke:#A80036;stroke-width:1.0;" x1="1560" x2="1560" y1="389.4414" y2="409.9297"/><line style="stroke:#A80036;stroke-width:1.0;" x1="1459" x2="1582" y1="409.9297" y2="409.9297"/><text fill="#000000" font-family="sans-serif" font-size="14" lengthAdjust="spacing" textLength="89" x="1464" y="425.4648">outputpower</text><text fill="#000000" font-family="sans-serif" font-size="14" lengthAdjust="spacing" textLength="0" x="1577" y="425.4648"/><line style="stroke:#A80036;stroke-width:1.0;" x1="1560" x2="1560" y1="409.9297" y2="430.418"/><line style="stroke:#A80036;stroke-width:1.0;" x1="1459" x2="1582" y1="430.418" y2="430.418"/><text fill="#000000" font-family="sans-serif" font-size="14" lengthAdjust="spacing" textLength="72" x="1464" y="445.9531">timestamp</text><text fill="#000000" font-family="sans-serif" font-size="14" lengthAdjust="spacing" textLength="0" x="1577" y="445.9531"/><line style="stroke:#A80036;stroke-width:1.0;" x1="1560" x2="1560" y1="430.418" y2="450.9063"/><rect fill="none" height="163.9063" rx="5" ry="5" style="stroke:#A80036;stroke-width:1.5;" width="123" x="1459" y="287"/><rect fill="#FEFECE" height="81.9531" rx="5" ry="5" style="stroke:#FEFECE;stroke-width:1.5;" width="529" x="1759.5" y="10"/><text fill="#000000" font-family="sans-serif" font-size="14" lengthAdjust="spacing" textLength="77" x="1764.5" y="25.5352">description</text><text fill="#000000" font-family="sans-serif" font-size="14" lengthAdjust="spacing" textLength="432" x="1851.5" y="25.5352">The inverter status. The status can only be reset out of bounds.</text><line style="stroke:#A80036;stroke-width:1.0;" x1="1846.5" x2="1846.5" y1="10" y2="30.4883"/><line style="stroke:#A80036;stroke-width:1.0;" x1="1759.5" x2="2288.5" y1="30.4883" y2="30.4883"/><text fill="#000000" font-family="sans-serif" font-size="14" lengthAdjust="spacing" textLength="55" x="1764.5" y="46.0234">writable</text><text fill="#000000" font-family="sans-serif" font-size="14" lengthAdjust="spacing" textLength="48" x="1851.5" y="46.0234">☐ false</text><line style="stroke:#A80036;stroke-width:1.0;" x1="1846.5" x2="1846.5" y1="30.4883" y2="50.9766"/><line style="stroke:#A80036;stroke-width:1.0;" x1="1759.5" x2="2288.5" y1="50.9766" y2="50.9766"/><text fill="#000000" font-family="sans-serif" font-size="14" lengthAdjust="spacing" textLength="29" x="1764.5" y="66.5117">type</text><text fill="#000000" font-family="sans-serif" font-size="14" lengthAdjust="spacing" textLength="40" x="1851.5" y="66.5117">string</text><line style="stroke:#A80036;stroke-width:1.0;" x1="1846.5" x2="1846.5" y1="50.9766" y2="71.4648"/><line style="stroke:#A80036;stroke-width:1.0;" x1="1759.5" x2="2288.5" y1="71.4648" y2="71.4648"/><text fill="#000000" font-family="sans-serif" font-size="14" lengthAdjust="spacing" textLength="39" x="1764.5" y="87">enum</text><text fill="#000000" font-family="sans-serif" font-size="14" lengthAdjust="spacing" textLength="0" x="1863.5" y="87"/><line style="stroke:#A80036;stroke-width:1.0;" x1="1846.5" x2="1846.5" y1="71.4648" y2="91.9531"/><rect fill="none" height="81.9531" rx="5" ry="5" style="stroke:#A80036;stroke-width:1.5;" width="529" x="1759.5" y="10"/><rect fill="#FEFECE" height="61.4648" rx="5" ry="5" style="stroke:#FEFECE;stroke-width:1.5;" width="34" x="2360" y="51.5"/><text fill="#000000" font-family="sans-serif" font-size="14" lengthAdjust="spacing" textLength="18" x="2365" y="67.0352">on</text><line style="stroke:#A80036;stroke-width:1.0;" x1="2360" x2="2394" y1="71.9883" y2="71.9883"/><text fill="#000000" font-family="sans-serif" font-size="14" lengthAdjust="spacing" textLength="19" x="2365" y="87.5234">off</text><line style="stroke:#A80036;stroke-width:1.0;" x1="2360" x2="2394" y1="92.4766" y2="92.4766"/><text fill="#000000" font-family="sans-serif" font-size="14" lengthAdjust="spacing" textLength="24" x="2365" y="108.0117">trip</text><rect fill="none" height="61.4648" rx="5" ry="5" style="stroke:#A80036;stroke-width:1.5;" width="34" x="2360" y="51.5"/><rect fill="#FEFECE" height="61.4648" rx="5" ry="5" style="stroke:#FEFECE;stroke-width:1.5;" width="471" x="1788.5" y="110.5"/><text fill="#000000" font-family="sans-serif" font-size="14" lengthAdjust="spacing" textLength="77" x="1793.5" y="126.0352">description</text><text fill="#000000" font-family="sans-serif" font-size="14" lengthAdjust="spacing" textLength="374" x="1880.5" y="126.0352">The rated power in kW, defined at manufacturing time.</text><line style="stroke:#A80036;stroke-width:1.0;" x1="1875.5" x2="1875.5" y1="110.5" y2="130.9883"/><line style="stroke:#A80036;stroke-width:1.0;" x1="1788.5" x2="2259.5" y1="130.9883" y2="130.9883"/><text fill="#000000" font-family="sans-serif" font-size="14" lengthAdjust="spacing" textLength="55" x="1793.5" y="146.5234">writable</text><text fill="#000000" font-family="sans-serif" font-size="14" lengthAdjust="spacing" textLength="48" x="1880.5" y="146.5234">☐ false</text><line style="stroke:#A80036;stroke-width:1.0;" x1="1875.5" x2="1875.5" y1="130.9883" y2="151.4766"/><line style="stroke:#A80036;stroke-width:1.0;" x1="1788.5" x2="2259.5" y1="151.4766" y2="151.4766"/><text fill="#000000" font-family="sans-serif" font-size="14" lengthAdjust="spacing" textLength="29" x="1793.5" y="167.0117">type</text><text fill="#000000" font-family="sans-serif" font-size="14" lengthAdjust="spacing" textLength="54" x="1880.5" y="167.0117">number</text><line style="stroke:#A80036;stroke-width:1.0;" x1="1875.5" x2="1875.5" y1="151.4766" y2="171.9648"/><rect fill="none" height="61.4648" rx="5" ry="5" style="stroke:#A80036;stroke-width:1.5;" width="471" x="1788.5" y="110.5"/><rect fill="#FEFECE" height="77.9531" rx="5" ry="5" style="stroke:#FEFECE;stroke-width:1.5;" width="562" x="1743" y="190"/><text fill="#000000" font-family="sans-serif" font-size="14" lengthAdjust="spacing" textLength="77" x="1748" y="205.5352">description</text><text fill="#000000" font-family="sans-serif" font-size="14" lengthAdjust="spacing" textLength="465" x="1835" y="205.5352">Minimum voltage for MPPT (Maximum power point tracking) control</text><text fill="#000000" font-family="sans-serif" font-size="14" lengthAdjust="spacing" textLength="296" x="1835" y="222.0234">method (V), defined at manufacturing time.</text><line style="stroke:#A80036;stroke-width:1.0;" x1="1830" x2="1830" y1="190" y2="226.9766"/><line style="stroke:#A80036;stroke-width:1.0;" x1="1743" x2="2305" y1="226.9766" y2="226.9766"/><text fill="#000000" font-family="sans-serif" font-size="14" lengthAdjust="spacing" textLength="55" x="1748" y="242.5117">writable</text><text fill="#000000" font-family="sans-serif" font-size="14" lengthAdjust="spacing" textLength="48" x="1835" y="242.5117">☐ false</text><line style="stroke:#A80036;stroke-width:1.0;" x1="1830" x2="1830" y1="226.9766" y2="247.4648"/><line style="stroke:#A80036;stroke-width:1.0;" x1="1743" x2="2305" y1="247.4648" y2="247.4648"/><text fill="#000000" font-family="sans-serif" font-size="14" lengthAdjust="spacing" textLength="29" x="1748" y="263">type</text><text fill="#000000" font-family="sans-serif" font-size="14" lengthAdjust="spacing" textLength="54" x="1835" y="263">number</text><line style="stroke:#A80036;stroke-width:1.0;" x1="1830" x2="1830" y1="247.4648" y2="267.9531"/><rect fill="none" height="77.9531" rx="5" ry="5" style="stroke:#A80036;stroke-width:1.5;" width="562" x="1743" y="190"/><rect fill="#FEFECE" height="77.9531" rx="5" ry="5" style="stroke:#FEFECE;stroke-width:1.5;" width="566" x="1741" y="286"/><text fill="#000000" font-family="sans-serif" font-size="14" lengthAdjust="spacing" textLength="77" x="1746" y="301.5352">description</text><text fill="#000000" font-family="sans-serif" font-size="14" lengthAdjust="spacing" textLength="469" x="1833" y="301.5352">Maximum voltage for MPPT (Maximum power point tracking) control</text><text fill="#000000" font-family="sans-serif" font-size="14" lengthAdjust="spacing" textLength="296" x="1833" y="318.0234">method (V), defined at manufacturing time.</text><line style="stroke:#A80036;stroke-width:1.0;" x1="1828" x2="1828" y1="286" y2="322.9766"/><line style="stroke:#A80036;stroke-width:1.0;" x1="1741" x2="2307" y1="322.9766" y2="322.9766"/><text fill="#000000" font-family="sans-serif" font-size="14" lengthAdjust="spacing" textLength="55" x="1746" y="338.5117">writable</text><text fill="#000000" font-family="sans-serif" font-size="14" lengthAdjust="spacing" textLength="48" x="1833" y="338.5117">☐ false</text><line style="stroke:#A80036;stroke-width:1.0;" x1="1828" x2="1828" y1="322.9766" y2="343.4648"/><line style="stroke:#A80036;stroke-width:1.0;" x1="1741" x2="2307" y1="343.4648" y2="343.4648"/><text fill="#000000" font-family="sans-serif" font-size="14" lengthAdjust="spacing" textLength="29" x="1746" y="359">type</text><text fill="#000000" font-family="sans-serif" font-size="14" lengthAdjust="spacing" textLength="54" x="1833" y="359">number</text><line style="stroke:#A80036;stroke-width:1.0;" x1="1828" x2="1828" y1="343.4648" y2="363.9531"/><rect fill="none" height="77.9531" rx="5" ry="5" style="stroke:#A80036;stroke-width:1.5;" width="566" x="1741" y="286"/><rect fill="#FEFECE" height="61.4648" rx="5" ry="5" style="stroke:#FEFECE;stroke-width:1.5;" width="246" x="1901" y="382.5"/><text fill="#000000" font-family="sans-serif" font-size="14" lengthAdjust="spacing" textLength="77" x="1906" y="398.0352">description</text><text fill="#000000" font-family="sans-serif" font-size="14" lengthAdjust="spacing" textLength="149" x="1993" y="398.0352">input voltage in Volts.</text><line style="stroke:#A80036;stroke-width:1.0;" x1="1988" x2="1988" y1="382.5" y2="402.9883"/><line style="stroke:#A80036;stroke-width:1.0;" x1="1901" x2="2147" y1="402.9883" y2="402.9883"/><text fill="#000000" font-family="sans-serif" font-size="14" lengthAdjust="spacing" textLength="55" x="1906" y="418.5234">writable</text><text fill="#000000" font-family="sans-serif" font-size="14" lengthAdjust="spacing" textLength="48" x="1993" y="418.5234">☐ false</text><line style="stroke:#A80036;stroke-width:1.0;" x1="1988" x2="1988" y1="402.9883" y2="423.4766"/><line style="stroke:#A80036;stroke-width:1.0;" x1="1901" x2="2147" y1="423.4766" y2="423.4766"/><text fill="#000000" font-family="sans-serif" font-size="14" lengthAdjust="spacing" textLength="29" x="1906" y="439.0117">type</text><text fill="#000000" font-family="sans-serif" font-size="14" lengthAdjust="spacing" textLength="54" x="1993" y="439.0117">number</text><line style="stroke:#A80036;stroke-width:1.0;" x1="1988" x2="1988" y1="423.4766" y2="443.9648"/><rect fill="none" height="61.4648" rx="5" ry="5" style="stroke:#A80036;stroke-width:1.5;" width="246" x="1901" y="382.5"/><rect fill="#FEFECE" height="61.4648" rx="5" ry="5" style="stroke:#FEFECE;stroke-width:1.5;" width="273" x="1887.5" y="461.5"/><text fill="#000000" font-family="sans-serif" font-size="14" lengthAdjust="spacing" textLength="77" x="1892.5" y="477.0352">description</text><text fill="#000000" font-family="sans-serif" font-size="14" lengthAdjust="spacing" textLength="176" x="1979.5" y="477.0352">input current in Amperes.</text><line style="stroke:#A80036;stroke-width:1.0;" x1="1974.5" x2="1974.5" y1="461.5" y2="481.9883"/><line style="stroke:#A80036;stroke-width:1.0;" x1="1887.5" x2="2160.5" y1="481.9883" y2="481.9883"/><text fill="#000000" font-family="sans-serif" font-size="14" lengthAdjust="spacing" textLength="55" x="1892.5" y="497.5234">writable</text><text fill="#000000" font-family="sans-serif" font-size="14" lengthAdjust="spacing" textLength="48" x="1979.5" y="497.5234">☐ false</text><line style="stroke:#A80036;stroke-width:1.0;" x1="1974.5" x2="1974.5" y1="481.9883" y2="502.4766"/><line style="stroke:#A80036;stroke-width:1.0;" x1="1887.5" x2="2160.5" y1="502.4766" y2="502.4766"/><text fill="#000000" font-family="sans-serif" font-size="14" lengthAdjust="spacing" textLength="29" x="1892.5" y="518.0117">type</text><text fill="#000000" font-family="sans-serif" font-size="14" lengthAdjust="spacing" textLength="54" x="1979.5" y="518.0117">number</text><line style="stroke:#A80036;stroke-width:1.0;" x1="1974.5" x2="1974.5" y1="502.4766" y2="522.9648"/><rect fill="none" height="61.4648" rx="5" ry="5" style="stroke:#A80036;stroke-width:1.5;" width="273" x="1887.5" y="461.5"/><rect fill="#FEFECE" height="61.4648" rx="5" ry="5" style="stroke:#FEFECE;stroke-width:1.5;" width="235" x="1906.5" y="540.5"/><text fill="#000000" font-family="sans-serif" font-size="14" lengthAdjust="spacing" textLength="77" x="1911.5" y="556.0352">description</text><text fill="#000000" font-family="sans-serif" font-size="14" lengthAdjust="spacing" textLength="138" x="1998.5" y="556.0352">output power in kW.</text><line style="stroke:#A80036;stroke-width:1.0;" x1="1993.5" x2="1993.5" y1="540.5" y2="560.9883"/><line style="stroke:#A80036;stroke-width:1.0;" x1="1906.5" x2="2141.5" y1="560.9883" y2="560.9883"/><text fill="#000000" font-family="sans-serif" font-size="14" lengthAdjust="spacing" textLength="55" x="1911.5" y="576.5234">writable</text><text fill="#000000" font-family="sans-serif" font-size="14" lengthAdjust="spacing" textLength="48" x="1998.5" y="576.5234">☐ false</text><line style="stroke:#A80036;stroke-width:1.0;" x1="1993.5" x2="1993.5" y1="560.9883" y2="581.4766"/><line style="stroke:#A80036;stroke-width:1.0;" x1="1906.5" x2="2141.5" y1="581.4766" y2="581.4766"/><text fill="#000000" font-family="sans-serif" font-size="14" lengthAdjust="spacing" textLength="29" x="1911.5" y="597.0117">type</text><text fill="#000000" font-family="sans-serif" font-size="14" lengthAdjust="spacing" textLength="54" x="1998.5" y="597.0117">number</text><line style="stroke:#A80036;stroke-width:1.0;" x1="1993.5" x2="1993.5" y1="581.4766" y2="601.9648"/><rect fill="none" height="61.4648" rx="5" ry="5" style="stroke:#A80036;stroke-width:1.5;" width="235" x="1906.5" y="540.5"/><rect fill="#FEFECE" height="114.9297" rx="5" ry="5" style="stroke:#FEFECE;stroke-width:1.5;" width="598" x="1725" y="619.5"/><text fill="#000000" font-family="sans-serif" font-size="14" lengthAdjust="spacing" textLength="77" x="1730" y="635.0352">description</text><text fill="#000000" font-family="sans-serif" font-size="14" lengthAdjust="spacing" textLength="462" x="1817" y="635.0352">An RFC3339 formatted time indicating when the data was observed</text><text fill="#000000" font-family="sans-serif" font-size="14" lengthAdjust="spacing" textLength="501" x="1817" y="651.5234">(e.g.: 2016-02-15T09:19Z, 1996-12-19T16:39:57-08:00). Resolution in</text><text fill="#000000" font-family="sans-serif" font-size="14" lengthAdjust="spacing" textLength="100" x="1817" y="668.0117">1/100 second.</text><line style="stroke:#A80036;stroke-width:1.0;" x1="1812" x2="1812" y1="619.5" y2="672.9648"/><line style="stroke:#A80036;stroke-width:1.0;" x1="1725" x2="2323" y1="672.9648" y2="672.9648"/><text fill="#000000" font-family="sans-serif" font-size="14" lengthAdjust="spacing" textLength="46" x="1730" y="688.5">format</text><text fill="#000000" font-family="sans-serif" font-size="14" lengthAdjust="spacing" textLength="68" x="1817" y="688.5">date-time</text><line style="stroke:#A80036;stroke-width:1.0;" x1="1812" x2="1812" y1="672.9648" y2="693.4531"/><line style="stroke:#A80036;stroke-width:1.0;" x1="1725" x2="2323" y1="693.4531" y2="693.4531"/><text fill="#000000" font-family="sans-serif" font-size="14" lengthAdjust="spacing" textLength="55" x="1730" y="708.9883">writable</text><text fill="#000000" font-family="sans-serif" font-size="14" lengthAdjust="spacing" textLength="48" x="1817" y="708.9883">☐ false</text><line style="stroke:#A80036;stroke-width:1.0;" x1="1812" x2="1812" y1="693.4531" y2="713.9414"/><line style="stroke:#A80036;stroke-width:1.0;" x1="1725" x2="2323" y1="713.9414" y2="713.9414"/><text fill="#000000" font-family="sans-serif" font-size="14" lengthAdjust="spacing" textLength="29" x="1730" y="729.4766">type</text><text fill="#000000" font-family="sans-serif" font-size="14" lengthAdjust="spacing" textLength="40" x="1817" y="729.4766">string</text><line style="stroke:#A80036;stroke-width:1.0;" x1="1812" x2="1812" y1="713.9414" y2="734.4297"/><rect fill="none" height="114.9297" rx="5" ry="5" style="stroke:#A80036;stroke-width:1.5;" width="598" x="1725" y="619.5"/><rect fill="#FEFECE" height="163.9063" rx="5" ry="5" style="stroke:#FEFECE;stroke-width:1.5;" width="335" x="1353" y="469"/><text fill="#000000" font-family="sans-serif" font-size="14" lengthAdjust="spacing" textLength="275" x="1358" y="484.5352">#/sdfObject/inverter/sdfProperty/status</text><line style="stroke:#A80036;stroke-width:1.0;" x1="1353" x2="1688" y1="489.4883" y2="489.4883"/><text fill="#000000" font-family="sans-serif" font-size="14" lengthAdjust="spacing" textLength="313" x="1358" y="505.0234">#/sdfObject/inverter/sdfProperty/ratedpower</text><line style="stroke:#A80036;stroke-width:1.0;" x1="1353" x2="1688" y1="509.9766" y2="509.9766"/><text fill="#000000" font-family="sans-serif" font-size="14" lengthAdjust="spacing" textLength="321" x="1358" y="525.5117">#/sdfObject/inverter/sdfProperty/minvoltmppt</text><line style="stroke:#A80036;stroke-width:1.0;" x1="1353" x2="1688" y1="530.4648" y2="530.4648"/><text fill="#000000" font-family="sans-serif" font-size="14" lengthAdjust="spacing" textLength="325" x="1358" y="546">#/sdfObject/inverter/sdfProperty/maxvoltmppt</text><line style="stroke:#A80036;stroke-width:1.0;" x1="1353" x2="1688" y1="550.9531" y2="550.9531"/><text fill="#000000" font-family="sans-serif" font-size="14" lengthAdjust="spacing" textLength="320" x="1358" y="566.4883">#/sdfObject/inverter/sdfProperty/inputvoltage</text><line style="stroke:#A80036;stroke-width:1.0;" x1="1353" x2="1688" y1="571.4414" y2="571.4414"/><text fill="#000000" font-family="sans-serif" font-size="14" lengthAdjust="spacing" textLength="320" x="1358" y="586.9766">#/sdfObject/inverter/sdfProperty/inputcurrent</text><line style="stroke:#A80036;stroke-width:1.0;" x1="1353" x2="1688" y1="591.9297" y2="591.9297"/><text fill="#000000" font-family="sans-serif" font-size="14" lengthAdjust="spacing" textLength="323" x="1358" y="607.4648">#/sdfObject/inverter/sdfProperty/outputpower</text><line style="stroke:#A80036;stroke-width:1.0;" x1="1353" x2="1688" y1="612.418" y2="612.418"/><text fill="#000000" font-family="sans-serif" font-size="14" lengthAdjust="spacing" textLength="306" x="1358" y="627.9531">#/sdfObject/inverter/sdfProperty/timestamp</text><rect fill="none" height="163.9063" rx="5" ry="5" style="stroke:#A80036;stroke-width:1.5;" width="335" x="1353" y="469"/><path d="M95,402 L108,402 C117.422,402 126.9962,401.8946 136.6609,401.6978 " fill="none" style="stroke:#A80036;stroke-width:1.0;stroke-dasharray:3.0,3.0;"/><path d="M136.7318,404.8054 L138.9917,401.6446 L136.59,398.5901 L144.4301,401.5206 L136.7318,404.8054 " fill="#A80036" style="stroke:#A80036;stroke-width:1.0;"/><ellipse cx="95" cy="402" fill="#A80036" rx="3" ry="3" style="stroke:#A80036;stroke-width:1.0;stroke-dasharray:3.0,3.0;"/><path d="M2277.5,82 L2290.5,82 C2311.4144,82 2335.1899,82 2352.4334,82 " fill="none" style="stroke:#A80036;stroke-width:1.0;stroke-dasharray:3.0,3.0;"/><path d="M2352.4334,85.1597 L2354.8032,82 L2352.4334,78.8403 L2360.3326,82 L2352.4334,85.1597 " fill="#A80036" style="stroke:#A80036;stroke-width:1.0;"/><ellipse cx="2277.5" cy="82" fill="#A80036" rx="3" ry="3" style="stroke:#A80036;stroke-width:1.0;stroke-dasharray:3.0,3.0;"/><path d="M1571,297 L1584,297 C1690.9496,297 1634.2155,158.5367 1725,102 C1733.888,96.4649 1743.1997,91.4824 1752.8155,87 " fill="none" style="stroke:#A80036;stroke-width:1.0;stroke-dasharray:3.0,3.0;"/><path d="M1754.086,89.8215 L1754.9316,86.0471 L1751.5449,84.1785 L1759.8692,83.8237 L1754.086,89.8215 " fill="#A80036" style="stroke:#A80036;stroke-width:1.0;"/><ellipse cx="1571" cy="297" fill="#A80036" rx="3" ry="3" style="stroke:#A80036;stroke-width:1.0;stroke-dasharray:3.0,3.0;"/><path d="M1571,317 L1584,317 C1671.0669,317 1646.6115,218.893 1725,181 C1742.8184,172.3866 1761.8935,165.4458 1781.464,159.8713 " fill="none" style="stroke:#A80036;stroke-width:1.0;stroke-dasharray:3.0,3.0;"/><path d="M1782.261,162.7638 L1783.6333,159.2736 L1780.667,156.9788 L1788.6951,157.8788 L1782.261,162.7638 " fill="#A80036" style="stroke:#A80036;stroke-width:1.0;"/><ellipse cx="1571" cy="317" fill="#A80036" rx="3" ry="3" style="stroke:#A80036;stroke-width:1.0;stroke-dasharray:3.0,3.0;"/><path d="M1571,338 L1584,338 C1652.2797,338 1659.453,296.1236 1725,277 C1733.4636,274.5307 1742.1016,272.1788 1750.8547,269.9395 " fill="none" style="stroke:#A80036;stroke-width:1.0;stroke-dasharray:3.0,3.0;"/><path d="M1751.5966,272.8909 L1753.0682,269.3831 L1750.1129,266.9882 L1758.2331,268.0849 L1751.5966,272.8909 " fill="#A80036" style="stroke:#A80036;stroke-width:1.0;"/><ellipse cx="1571" cy="338" fill="#A80036" rx="3" ry="3" style="stroke:#A80036;stroke-width:1.0;stroke-dasharray:3.0,3.0;"/><path d="M1571,358 L1584,358 C1632.3992,358 1683.7124,355.9854 1733.545,352.9517 " fill="none" style="stroke:#A80036;stroke-width:1.0;stroke-dasharray:3.0,3.0;"/><path d="M1733.7351,356.0165 L1735.8437,352.8091 L1733.355,349.8868 L1741.2071,352.4765 L1733.7351,356.0165 " fill="#A80036" style="stroke:#A80036;stroke-width:1.0;"/><ellipse cx="1571" cy="358" fill="#A80036" rx="3" ry="3" style="stroke:#A80036;stroke-width:1.0;stroke-dasharray:3.0,3.0;"/><path d="M1571,379 L1584,379 C1688.4796,379 1806.5151,388.6694 1893.9349,397.695 " fill="none" style="stroke:#A80036;stroke-width:1.0;stroke-dasharray:3.0,3.0;"/><path d="M1893.62,400.7209 L1896.2043,397.9312 L1894.2498,394.6692 L1901.4995,398.4823 L1893.62,400.7209 " fill="#A80036" style="stroke:#A80036;stroke-width:1.0;"/><ellipse cx="1571" cy="379" fill="#A80036" rx="3" ry="3" style="stroke:#A80036;stroke-width:1.0;stroke-dasharray:3.0,3.0;"/><path d="M1571,400 L1584,400 C1650.9476,400 1660.0473,436.7788 1725,453 C1774.9182,465.4665 1830.5869,474.1123 1880.2012,480.0324 " fill="none" style="stroke:#A80036;stroke-width:1.0;stroke-dasharray:3.0,3.0;"/><path d="M1879.845,483.0689 L1882.4786,480.2995 L1880.5573,476.9958 L1887.7925,480.9227 L1879.845,483.0689 " fill="#A80036" style="stroke:#A80036;stroke-width:1.0;"/><ellipse cx="1571" cy="400" fill="#A80036" rx="3" ry="3" style="stroke:#A80036;stroke-width:1.0;stroke-dasharray:3.0,3.0;"/><path d="M1571,420 L1584,420 C1633.9382,420 1651.9732,426.4912 1689,460 C1715.527,484.0066 1695.8513,511.255 1725,532 C1774.818,567.4553 1841.4472,578.6488 1899.1161,580.3514 " fill="none" style="stroke:#A80036;stroke-width:1.0;stroke-dasharray:3.0,3.0;"/><path d="M1899.0468,583.4359 L1901.4295,580.4034 L1899.1854,577.267 L1906.8273,580.5247 L1899.0468,583.4359 " fill="#A80036" style="stroke:#A80036;stroke-width:1.0;"/><ellipse cx="1571" cy="420" fill="#A80036" rx="3" ry="3" style="stroke:#A80036;stroke-width:1.0;stroke-dasharray:3.0,3.0;"/><path d="M1571,441 L1584,441 C1631.4245,441 1654.556,427.401 1689,460 C1739.1083,507.4242 1675.816,562.6178 1725,611 C1726.0996,612.0817 1727.2128,613.1473 1728.3389,614.1972 " fill="none" style="stroke:#A80036;stroke-width:1.0;stroke-dasharray:3.0,3.0;"/><path d="M1726.2917,616.4922 L1730.0602,615.7326 L1730.3862,611.9021 L1734.0766,619.3154 L1726.2917,616.4922 " fill="#A80036" style="stroke:#A80036;stroke-width:1.0;"/><ellipse cx="1571" cy="441" fill="#A80036" rx="3" ry="3" style="stroke:#A80036;stroke-width:1.0;stroke-dasharray:3.0,3.0;"/><path d="M1304,447 L1317,447 C1364.2721,447 1413.863,428.3417 1452.1966,409.2763 " fill="none" style="stroke:#A80036;stroke-width:1.0;stroke-dasharray:3.0,3.0;"/><path d="M1453.6207,412.0857 L1454.3037,408.2082 L1450.7725,406.4668 L1459.2202,405.716 L1453.6207,412.0857 " fill="#A80036" style="stroke:#A80036;stroke-width:1.0;"/><ellipse cx="1304" cy="447" fill="#A80036" rx="3" ry="3" style="stroke:#A80036;stroke-width:1.0;stroke-dasharray:3.0,3.0;"/><path d="M1304,473 L1317,473 C1326.6276,473 1336.3513,473.7739 1346.0565,475.1676 " fill="none" style="stroke:#A80036;stroke-width:1.0;stroke-dasharray:3.0,3.0;"/><path d="M1345.5829,478.134 L1348.2814,475.5228 L1346.5301,472.2011 L1353.4727,476.3516 L1345.5829,478.134 " fill="#A80036" style="stroke:#A80036;stroke-width:1.0;"/><ellipse cx="1304" cy="473" fill="#A80036" rx="3" ry="3" style="stroke:#A80036;stroke-width:1.0;stroke-dasharray:3.0,3.0;"/><path d="M459,447 L472,447 C559.3057,447 654.2745,447 740.7635,447 " fill="none" style="stroke:#A80036;stroke-width:1.0;stroke-dasharray:3.0,3.0;"/><path d="M740.7635,450.0161 L743.0256,447 L740.7635,443.9839 L748.3038,447 L740.7635,450.0161 " fill="#A80036" style="stroke:#A80036;stroke-width:1.0;"/><ellipse cx="459" cy="447" fill="#A80036" rx="3" ry="3" style="stroke:#A80036;stroke-width:1.0;stroke-dasharray:3.0,3.0;"/><path d="M95,423 L108,423 C124.1536,423 127.9312,426.3468 144,428 C225.6373,436.399 320.9226,441.9149 377.4856,444.7419 " fill="none" style="stroke:#A80036;stroke-width:1.0;stroke-dasharray:3.0,3.0;"/><path d="M377.3332,447.8294 L379.8013,444.8562 L377.638,441.6543 L385.2044,445.1229 L377.3332,447.8294 " fill="#A80036" style="stroke:#A80036;stroke-width:1.0;"/><ellipse cx="95" cy="423" fill="#A80036" rx="3" ry="3" style="stroke:#A80036;stroke-width:1.0;stroke-dasharray:3.0,3.0;"/><!--MD5=[1286e86873044d2da8ab52e616d51ae7]
@startjson
{
  "info": {
    "copyright": "copyright 2019 Open Connectivity Foundation, Inc. All rights reserved.",
    "license": "https://github.com/one-data-model/oneDM/blob/master/LICENSE",
    "title": "Inverter (IEC 61850)",
    "version": "2019-06-13"
  },
  "sdfObject": {
    "inverter": {
      "description": "This Resource describes functions for the control and monitoring of\\nIEC 61850 based circuit breaker.",
      "sdfProperty": {
        "status": {
          "description": "The inverter status. The status can only be reset out of bounds.",
          "writable": false,
          "type": "string",
          "enum": [
            "on",
            "off",
            "trip"
          ]
        },
        "ratedpower": {
          "description": "The rated power in kW, defined at manufacturing time.",
          "writable": false,
          "type": "number"
        },
        "minvoltmppt": {
          "description": "Minimum voltage for MPPT (Maximum power point tracking) control\\nmethod (V), defined at manufacturing time.",
          "writable": false,
          "type": "number"
        },
        "maxvoltmppt": {
          "description": "Maximum voltage for MPPT (Maximum power point tracking) control\\nmethod (V), defined at manufacturing time.",
          "writable": false,
          "type": "number"
        },
        "inputvoltage": {
          "description": "input voltage in Volts.",
          "writable": false,
          "type": "number"
        },
        "inputcurrent": {
          "description": "input current in Amperes.",
          "writable": false,
          "type": "number"
        },
        "outputpower": {
          "description": "output power in kW.",
          "writable": false,
          "type": "number"
        },
        "timestamp": {
          "description": "An RFC3339 formatted time indicating when the data was observed\\n(e.g.: 2016-02-15T09:19Z, 1996-12-19T16:39:57-08:00). Resolution in\\n1/100 second.",
          "format": "date-time",
          "writable": false,
          "type": "string"
        }
      },
      "sdfRequired": [
        "#/sdfObject/inverter/sdfProperty/status",
        "#/sdfObject/inverter/sdfProperty/ratedpower",
        "#/sdfObject/inverter/sdfProperty/minvoltmppt",
        "#/sdfObject/inverter/sdfProperty/maxvoltmppt",
        "#/sdfObject/inverter/sdfProperty/inputvoltage",
        "#/sdfObject/inverter/sdfProperty/inputcurrent",
        "#/sdfObject/inverter/sdfProperty/outputpower",
        "#/sdfObject/inverter/sdfProperty/timestamp"
      ]
    }
  }
}
@endjson

PlantUML version 1.2021.2(Sun Mar 07 13:10:27 EET 2021)
(GPL source distribution)
Java Runtime: OpenJDK Runtime Environment
JVM: OpenJDK 64-Bit Server VM
Default Encoding: UTF-8
Language: en
Country: FI
--></g></svg>