<?xml version="1.0" encoding="UTF-8" standalone="no"?><svg xmlns="http://www.w3.org/2000/svg" xmlns:xlink="http://www.w3.org/1999/xlink" contentScriptType="application/ecmascript" contentStyleType="text/css" height="679px" preserveAspectRatio="none" style="width:2410px;height:679px;" version="1.1" viewBox="0 0 2410 679" width="2410px" zoomAndPan="magnify"><defs/><g><rect fill="#FEFECE" height="40.9766" rx="5" ry="5" style="stroke:#FEFECE;stroke-width:1.5;" width="97" x="10" y="300"/><text fill="#000000" font-family="sans-serif" font-size="14" lengthAdjust="spacing" textLength="27" x="15" y="315.5352">info</text><text fill="#000000" font-family="sans-serif" font-size="14" lengthAdjust="spacing" textLength="0" x="102" y="315.5352"/><line style="stroke:#A80036;stroke-width:1.0;" x1="85" x2="85" y1="300" y2="320.4883"/><line style="stroke:#A80036;stroke-width:1.0;" x1="10" x2="107" y1="320.4883" y2="320.4883"/><text fill="#000000" font-family="sans-serif" font-size="14" lengthAdjust="spacing" textLength="65" x="15" y="336.0234">sdfObject</text><text fill="#000000" font-family="sans-serif" font-size="14" lengthAdjust="spacing" textLength="0" x="102" y="336.0234"/><line style="stroke:#A80036;stroke-width:1.0;" x1="85" x2="85" y1="320.4883" y2="340.9766"/><rect fill="none" height="40.9766" rx="5" ry="5" style="stroke:#A80036;stroke-width:1.5;" width="97" x="10" y="300"/><rect fill="#FEFECE" height="81.9531" rx="5" ry="5" style="stroke:#FEFECE;stroke-width:1.5;" width="655" x="144" y="244.5"/><text fill="#000000" font-family="sans-serif" font-size="14" lengthAdjust="spacing" textLength="65" x="149" y="260.0352">copyright</text><text fill="#000000" font-family="sans-serif" font-size="14" lengthAdjust="spacing" textLength="570" x="224" y="260.0352">copyright 2016-2017, 2019 Open Connectivity Foundation, Inc. All rights reserved.</text><line style="stroke:#A80036;stroke-width:1.0;" x1="219" x2="219" y1="244.5" y2="264.9883"/><line style="stroke:#A80036;stroke-width:1.0;" x1="144" x2="799" y1="264.9883" y2="264.9883"/><text fill="#000000" font-family="sans-serif" font-size="14" lengthAdjust="spacing" textLength="47" x="149" y="280.5234">license</text><text fill="#000000" font-family="sans-serif" font-size="14" lengthAdjust="spacing" textLength="462" x="224" y="280.5234">https://github.com/one-data-model/oneDM/blob/master/LICENSE</text><line style="stroke:#A80036;stroke-width:1.0;" x1="219" x2="219" y1="264.9883" y2="285.4766"/><line style="stroke:#A80036;stroke-width:1.0;" x1="144" x2="799" y1="285.4766" y2="285.4766"/><text fill="#000000" font-family="sans-serif" font-size="14" lengthAdjust="spacing" textLength="26" x="149" y="301.0117">title</text><text fill="#000000" font-family="sans-serif" font-size="14" lengthAdjust="spacing" textLength="82" x="224" y="301.0117">Geolocation</text><line style="stroke:#A80036;stroke-width:1.0;" x1="219" x2="219" y1="285.4766" y2="305.9648"/><line style="stroke:#A80036;stroke-width:1.0;" x1="144" x2="799" y1="305.9648" y2="305.9648"/><text fill="#000000" font-family="sans-serif" font-size="14" lengthAdjust="spacing" textLength="50" x="149" y="321.5">version</text><text fill="#000000" font-family="sans-serif" font-size="14" lengthAdjust="spacing" textLength="88" x="224" y="321.5">2019-02-15</text><line style="stroke:#A80036;stroke-width:1.0;" x1="219" x2="219" y1="305.9648" y2="326.4531"/><rect fill="none" height="81.9531" rx="5" ry="5" style="stroke:#A80036;stroke-width:1.5;" width="655" x="144" y="244.5"/><rect fill="#FEFECE" height="20.4883" rx="5" ry="5" style="stroke:#FEFECE;stroke-width:1.5;" width="163" x="390" y="344.5"/><text fill="#000000" font-family="sans-serif" font-size="14" lengthAdjust="spacing" textLength="131" x="395" y="360.0352">sensor.geolocation</text><text fill="#000000" font-family="sans-serif" font-size="14" lengthAdjust="spacing" textLength="0" x="548" y="360.0352"/><line style="stroke:#A80036;stroke-width:1.0;" x1="531" x2="531" y1="344.5" y2="364.9883"/><rect fill="none" height="20.4883" rx="5" ry="5" style="stroke:#A80036;stroke-width:1.5;" width="163" x="390" y="344.5"/><rect fill="#FEFECE" height="226.3477" rx="5" ry="5" style="stroke:#FEFECE;stroke-width:1.5;" width="580" x="836" y="241.5"/><text fill="#000000" font-family="sans-serif" font-size="14" lengthAdjust="spacing" textLength="77" x="841" y="257.0352">description</text><text fill="#000000" font-family="sans-serif" font-size="14" lengthAdjust="spacing" textLength="455" x="934" y="257.0352">This Resource describes the properties associated with the current</text><text fill="#000000" font-family="sans-serif" font-size="14" lengthAdjust="spacing" textLength="477" x="934" y="273.5234">geolocation coordinate. Geolocation is a geolocation coordinate data.</text><text fill="#000000" font-family="sans-serif" font-size="14" lengthAdjust="spacing" textLength="429" x="934" y="290.0117">The Property "latitude" is a device's current Latitude coordinate</text><text fill="#000000" font-family="sans-serif" font-size="14" lengthAdjust="spacing" textLength="452" x="934" y="306.5">(degrees). The Property "longitude" is a device's current Longitude</text><text fill="#000000" font-family="sans-serif" font-size="14" lengthAdjust="spacing" textLength="408" x="934" y="322.9883">coordinate (degrees). The Property "alt" is a device's current</text><text fill="#000000" font-family="sans-serif" font-size="14" lengthAdjust="spacing" textLength="431" x="934" y="339.4766">distance (metres) above or below 'local' sea-level. The Property</text><text fill="#000000" font-family="sans-serif" font-size="14" lengthAdjust="spacing" textLength="408" x="934" y="355.9648">"accuracy" is the accuracy level of the latitude and longitude</text><text fill="#000000" font-family="sans-serif" font-size="14" lengthAdjust="spacing" textLength="469" x="934" y="372.4531">coordinates (metres). The Property "altitudeAccuracy" is the accuracy</text><text fill="#000000" font-family="sans-serif" font-size="14" lengthAdjust="spacing" textLength="458" x="934" y="388.9414">level of the altitude coordinates (metres). The Property "heading" is</text><text fill="#000000" font-family="sans-serif" font-size="14" lengthAdjust="spacing" textLength="438" x="934" y="405.4297">a direction of travel of device (degree). The Property "speed" is a</text><text fill="#000000" font-family="sans-serif" font-size="14" lengthAdjust="spacing" textLength="307" x="934" y="421.918">device's current velocity (metres per second).</text><line style="stroke:#A80036;stroke-width:1.0;" x1="929" x2="929" y1="241.5" y2="426.8711"/><line style="stroke:#A80036;stroke-width:1.0;" x1="836" x2="1416" y1="426.8711" y2="426.8711"/><text fill="#000000" font-family="sans-serif" font-size="14" lengthAdjust="spacing" textLength="79" x="841" y="442.4063">sdfProperty</text><text fill="#000000" font-family="sans-serif" font-size="14" lengthAdjust="spacing" textLength="0" x="946" y="442.4063"/><line style="stroke:#A80036;stroke-width:1.0;" x1="929" x2="929" y1="426.8711" y2="447.3594"/><line style="stroke:#A80036;stroke-width:1.0;" x1="836" x2="1416" y1="447.3594" y2="447.3594"/><text fill="#000000" font-family="sans-serif" font-size="14" lengthAdjust="spacing" textLength="83" x="841" y="462.8945">sdfRequired</text><text fill="#000000" font-family="sans-serif" font-size="14" lengthAdjust="spacing" textLength="0" x="946" y="462.8945"/><line style="stroke:#A80036;stroke-width:1.0;" x1="929" x2="929" y1="447.3594" y2="467.8477"/><rect fill="none" height="226.3477" rx="5" ry="5" style="stroke:#A80036;stroke-width:1.5;" width="580" x="836" y="241.5"/><rect fill="#FEFECE" height="143.418" rx="5" ry="5" style="stroke:#FEFECE;stroke-width:1.5;" width="145" x="1574.5" y="260"/><text fill="#000000" font-family="sans-serif" font-size="14" lengthAdjust="spacing" textLength="66" x="1579.5" y="275.5352">longitude</text><text fill="#000000" font-family="sans-serif" font-size="14" lengthAdjust="spacing" textLength="0" x="1714.5" y="275.5352"/><line style="stroke:#A80036;stroke-width:1.0;" x1="1697.5" x2="1697.5" y1="260" y2="280.4883"/><line style="stroke:#A80036;stroke-width:1.0;" x1="1574.5" x2="1719.5" y1="280.4883" y2="280.4883"/><text fill="#000000" font-family="sans-serif" font-size="14" lengthAdjust="spacing" textLength="56" x="1579.5" y="296.0234">heading</text><text fill="#000000" font-family="sans-serif" font-size="14" lengthAdjust="spacing" textLength="0" x="1714.5" y="296.0234"/><line style="stroke:#A80036;stroke-width:1.0;" x1="1697.5" x2="1697.5" y1="280.4883" y2="300.9766"/><line style="stroke:#A80036;stroke-width:1.0;" x1="1574.5" x2="1719.5" y1="300.9766" y2="300.9766"/><text fill="#000000" font-family="sans-serif" font-size="14" lengthAdjust="spacing" textLength="52" x="1579.5" y="316.5117">latitude</text><text fill="#000000" font-family="sans-serif" font-size="14" lengthAdjust="spacing" textLength="0" x="1714.5" y="316.5117"/><line style="stroke:#A80036;stroke-width:1.0;" x1="1697.5" x2="1697.5" y1="300.9766" y2="321.4648"/><line style="stroke:#A80036;stroke-width:1.0;" x1="1574.5" x2="1719.5" y1="321.4648" y2="321.4648"/><text fill="#000000" font-family="sans-serif" font-size="14" lengthAdjust="spacing" textLength="113" x="1579.5" y="337">altitudeAccuracy</text><text fill="#000000" font-family="sans-serif" font-size="14" lengthAdjust="spacing" textLength="0" x="1714.5" y="337"/><line style="stroke:#A80036;stroke-width:1.0;" x1="1697.5" x2="1697.5" y1="321.4648" y2="341.9531"/><line style="stroke:#A80036;stroke-width:1.0;" x1="1574.5" x2="1719.5" y1="341.9531" y2="341.9531"/><text fill="#000000" font-family="sans-serif" font-size="14" lengthAdjust="spacing" textLength="17" x="1579.5" y="357.4883">alt</text><text fill="#000000" font-family="sans-serif" font-size="14" lengthAdjust="spacing" textLength="0" x="1714.5" y="357.4883"/><line style="stroke:#A80036;stroke-width:1.0;" x1="1697.5" x2="1697.5" y1="341.9531" y2="362.4414"/><line style="stroke:#A80036;stroke-width:1.0;" x1="1574.5" x2="1719.5" y1="362.4414" y2="362.4414"/><text fill="#000000" font-family="sans-serif" font-size="14" lengthAdjust="spacing" textLength="59" x="1579.5" y="377.9766">accuracy</text><text fill="#000000" font-family="sans-serif" font-size="14" lengthAdjust="spacing" textLength="0" x="1714.5" y="377.9766"/><line style="stroke:#A80036;stroke-width:1.0;" x1="1697.5" x2="1697.5" y1="362.4414" y2="382.9297"/><line style="stroke:#A80036;stroke-width:1.0;" x1="1574.5" x2="1719.5" y1="382.9297" y2="382.9297"/><text fill="#000000" font-family="sans-serif" font-size="14" lengthAdjust="spacing" textLength="41" x="1579.5" y="398.4648">speed</text><text fill="#000000" font-family="sans-serif" font-size="14" lengthAdjust="spacing" textLength="0" x="1714.5" y="398.4648"/><line style="stroke:#A80036;stroke-width:1.0;" x1="1697.5" x2="1697.5" y1="382.9297" y2="403.418"/><rect fill="none" height="143.418" rx="5" ry="5" style="stroke:#A80036;stroke-width:1.5;" width="145" x="1574.5" y="260"/><rect fill="#FEFECE" height="61.4648" rx="5" ry="5" style="stroke:#FEFECE;stroke-width:1.5;" width="462" x="1907" y="10"/><text fill="#000000" font-family="sans-serif" font-size="14" lengthAdjust="spacing" textLength="77" x="1912" y="25.5352">description</text><text fill="#000000" font-family="sans-serif" font-size="14" lengthAdjust="spacing" textLength="365" x="1999" y="25.5352">The Device's Current Longitude coordinate (degrees).</text><line style="stroke:#A80036;stroke-width:1.0;" x1="1994" x2="1994" y1="10" y2="30.4883"/><line style="stroke:#A80036;stroke-width:1.0;" x1="1907" x2="2369" y1="30.4883" y2="30.4883"/><text fill="#000000" font-family="sans-serif" font-size="14" lengthAdjust="spacing" textLength="55" x="1912" y="46.0234">writable</text><text fill="#000000" font-family="sans-serif" font-size="14" lengthAdjust="spacing" textLength="48" x="1999" y="46.0234">☐ false</text><line style="stroke:#A80036;stroke-width:1.0;" x1="1994" x2="1994" y1="30.4883" y2="50.9766"/><line style="stroke:#A80036;stroke-width:1.0;" x1="1907" x2="2369" y1="50.9766" y2="50.9766"/><text fill="#000000" font-family="sans-serif" font-size="14" lengthAdjust="spacing" textLength="29" x="1912" y="66.5117">type</text><text fill="#000000" font-family="sans-serif" font-size="14" lengthAdjust="spacing" textLength="54" x="1999" y="66.5117">number</text><line style="stroke:#A80036;stroke-width:1.0;" x1="1994" x2="1994" y1="50.9766" y2="71.4648"/><rect fill="none" height="61.4648" rx="5" ry="5" style="stroke:#A80036;stroke-width:1.5;" width="462" x="1907" y="10"/><rect fill="#FEFECE" height="102.4414" rx="5" ry="5" style="stroke:#FEFECE;stroke-width:1.5;" width="406" x="1935" y="89.5"/><text fill="#000000" font-family="sans-serif" font-size="14" lengthAdjust="spacing" textLength="77" x="1940" y="105.0352">description</text><text fill="#000000" font-family="sans-serif" font-size="14" lengthAdjust="spacing" textLength="309" x="2027" y="105.0352">The direction of travel of the Device (degree).</text><line style="stroke:#A80036;stroke-width:1.0;" x1="2022" x2="2022" y1="89.5" y2="109.9883"/><line style="stroke:#A80036;stroke-width:1.0;" x1="1935" x2="2341" y1="109.9883" y2="109.9883"/><text fill="#000000" font-family="sans-serif" font-size="14" lengthAdjust="spacing" textLength="69" x="1940" y="125.5234">maximum</text><text fill="#000000" font-family="sans-serif" font-size="14" lengthAdjust="spacing" textLength="27" x="2027" y="125.5234">360</text><line style="stroke:#A80036;stroke-width:1.0;" x1="2022" x2="2022" y1="109.9883" y2="130.4766"/><line style="stroke:#A80036;stroke-width:1.0;" x1="1935" x2="2341" y1="130.4766" y2="130.4766"/><text fill="#000000" font-family="sans-serif" font-size="14" lengthAdjust="spacing" textLength="65" x="1940" y="146.0117">minimum</text><text fill="#000000" font-family="sans-serif" font-size="14" lengthAdjust="spacing" textLength="9" x="2027" y="146.0117">0</text><line style="stroke:#A80036;stroke-width:1.0;" x1="2022" x2="2022" y1="130.4766" y2="150.9648"/><line style="stroke:#A80036;stroke-width:1.0;" x1="1935" x2="2341" y1="150.9648" y2="150.9648"/><text fill="#000000" font-family="sans-serif" font-size="14" lengthAdjust="spacing" textLength="55" x="1940" y="166.5">writable</text><text fill="#000000" font-family="sans-serif" font-size="14" lengthAdjust="spacing" textLength="48" x="2027" y="166.5">☐ false</text><line style="stroke:#A80036;stroke-width:1.0;" x1="2022" x2="2022" y1="150.9648" y2="171.4531"/><line style="stroke:#A80036;stroke-width:1.0;" x1="1935" x2="2341" y1="171.4531" y2="171.4531"/><text fill="#000000" font-family="sans-serif" font-size="14" lengthAdjust="spacing" textLength="29" x="1940" y="186.9883">type</text><text fill="#000000" font-family="sans-serif" font-size="14" lengthAdjust="spacing" textLength="54" x="2027" y="186.9883">number</text><line style="stroke:#A80036;stroke-width:1.0;" x1="2022" x2="2022" y1="171.4531" y2="191.9414"/><rect fill="none" height="102.4414" rx="5" ry="5" style="stroke:#A80036;stroke-width:1.5;" width="406" x="1935" y="89.5"/><rect fill="#FEFECE" height="61.4648" rx="5" ry="5" style="stroke:#FEFECE;stroke-width:1.5;" width="448" x="1914" y="210"/><text fill="#000000" font-family="sans-serif" font-size="14" lengthAdjust="spacing" textLength="77" x="1919" y="225.5352">description</text><text fill="#000000" font-family="sans-serif" font-size="14" lengthAdjust="spacing" textLength="351" x="2006" y="225.5352">The Device's Current Latitude coordinate (degrees).</text><line style="stroke:#A80036;stroke-width:1.0;" x1="2001" x2="2001" y1="210" y2="230.4883"/><line style="stroke:#A80036;stroke-width:1.0;" x1="1914" x2="2362" y1="230.4883" y2="230.4883"/><text fill="#000000" font-family="sans-serif" font-size="14" lengthAdjust="spacing" textLength="55" x="1919" y="246.0234">writable</text><text fill="#000000" font-family="sans-serif" font-size="14" lengthAdjust="spacing" textLength="48" x="2006" y="246.0234">☐ false</text><line style="stroke:#A80036;stroke-width:1.0;" x1="2001" x2="2001" y1="230.4883" y2="250.9766"/><line style="stroke:#A80036;stroke-width:1.0;" x1="1914" x2="2362" y1="250.9766" y2="250.9766"/><text fill="#000000" font-family="sans-serif" font-size="14" lengthAdjust="spacing" textLength="29" x="1919" y="266.5117">type</text><text fill="#000000" font-family="sans-serif" font-size="14" lengthAdjust="spacing" textLength="54" x="2006" y="266.5117">number</text><line style="stroke:#A80036;stroke-width:1.0;" x1="2001" x2="2001" y1="250.9766" y2="271.4648"/><rect fill="none" height="61.4648" rx="5" ry="5" style="stroke:#A80036;stroke-width:1.5;" width="448" x="1914" y="210"/><rect fill="#FEFECE" height="81.9531" rx="5" ry="5" style="stroke:#FEFECE;stroke-width:1.5;" width="471" x="1902.5" y="289.5"/><text fill="#000000" font-family="sans-serif" font-size="14" lengthAdjust="spacing" textLength="77" x="1907.5" y="305.0352">description</text><text fill="#000000" font-family="sans-serif" font-size="14" lengthAdjust="spacing" textLength="374" x="1994.5" y="305.0352">The accuracy level of the altitude coordinates (metres).</text><line style="stroke:#A80036;stroke-width:1.0;" x1="1989.5" x2="1989.5" y1="289.5" y2="309.9883"/><line style="stroke:#A80036;stroke-width:1.0;" x1="1902.5" x2="2373.5" y1="309.9883" y2="309.9883"/><text fill="#000000" font-family="sans-serif" font-size="14" lengthAdjust="spacing" textLength="65" x="1907.5" y="325.5234">minimum</text><text fill="#000000" font-family="sans-serif" font-size="14" lengthAdjust="spacing" textLength="9" x="1994.5" y="325.5234">0</text><line style="stroke:#A80036;stroke-width:1.0;" x1="1989.5" x2="1989.5" y1="309.9883" y2="330.4766"/><line style="stroke:#A80036;stroke-width:1.0;" x1="1902.5" x2="2373.5" y1="330.4766" y2="330.4766"/><text fill="#000000" font-family="sans-serif" font-size="14" lengthAdjust="spacing" textLength="55" x="1907.5" y="346.0117">writable</text><text fill="#000000" font-family="sans-serif" font-size="14" lengthAdjust="spacing" textLength="48" x="1994.5" y="346.0117">☐ false</text><line style="stroke:#A80036;stroke-width:1.0;" x1="1989.5" x2="1989.5" y1="330.4766" y2="350.9648"/><line style="stroke:#A80036;stroke-width:1.0;" x1="1902.5" x2="2373.5" y1="350.9648" y2="350.9648"/><text fill="#000000" font-family="sans-serif" font-size="14" lengthAdjust="spacing" textLength="29" x="1907.5" y="366.5">type</text><text fill="#000000" font-family="sans-serif" font-size="14" lengthAdjust="spacing" textLength="54" x="1994.5" y="366.5">number</text><line style="stroke:#A80036;stroke-width:1.0;" x1="1989.5" x2="1989.5" y1="350.9648" y2="371.4531"/><rect fill="none" height="81.9531" rx="5" ry="5" style="stroke:#A80036;stroke-width:1.5;" width="471" x="1902.5" y="289.5"/><rect fill="#FEFECE" height="61.4648" rx="5" ry="5" style="stroke:#FEFECE;stroke-width:1.5;" width="520" x="1878" y="390"/><text fill="#000000" font-family="sans-serif" font-size="14" lengthAdjust="spacing" textLength="77" x="1883" y="405.5352">description</text><text fill="#000000" font-family="sans-serif" font-size="14" lengthAdjust="spacing" textLength="423" x="1970" y="405.5352">The current distance (metres) above or below 'local' sea-level.</text><line style="stroke:#A80036;stroke-width:1.0;" x1="1965" x2="1965" y1="390" y2="410.4883"/><line style="stroke:#A80036;stroke-width:1.0;" x1="1878" x2="2398" y1="410.4883" y2="410.4883"/><text fill="#000000" font-family="sans-serif" font-size="14" lengthAdjust="spacing" textLength="55" x="1883" y="426.0234">writable</text><text fill="#000000" font-family="sans-serif" font-size="14" lengthAdjust="spacing" textLength="48" x="1970" y="426.0234">☐ false</text><line style="stroke:#A80036;stroke-width:1.0;" x1="1965" x2="1965" y1="410.4883" y2="430.9766"/><line style="stroke:#A80036;stroke-width:1.0;" x1="1878" x2="2398" y1="430.9766" y2="430.9766"/><text fill="#000000" font-family="sans-serif" font-size="14" lengthAdjust="spacing" textLength="29" x="1883" y="446.5117">type</text><text fill="#000000" font-family="sans-serif" font-size="14" lengthAdjust="spacing" textLength="54" x="1970" y="446.5117">number</text><line style="stroke:#A80036;stroke-width:1.0;" x1="1965" x2="1965" y1="430.9766" y2="451.4648"/><rect fill="none" height="61.4648" rx="5" ry="5" style="stroke:#A80036;stroke-width:1.5;" width="520" x="1878" y="390"/><rect fill="#FEFECE" height="98.4414" rx="5" ry="5" style="stroke:#FEFECE;stroke-width:1.5;" width="506" x="1885" y="469.5"/><text fill="#000000" font-family="sans-serif" font-size="14" lengthAdjust="spacing" textLength="77" x="1890" y="485.0352">description</text><text fill="#000000" font-family="sans-serif" font-size="14" lengthAdjust="spacing" textLength="409" x="1977" y="485.0352">The accuracy level of the latitude and longitude coordinates</text><text fill="#000000" font-family="sans-serif" font-size="14" lengthAdjust="spacing" textLength="61" x="1977" y="501.5234">(metres).</text><line style="stroke:#A80036;stroke-width:1.0;" x1="1972" x2="1972" y1="469.5" y2="506.4766"/><line style="stroke:#A80036;stroke-width:1.0;" x1="1885" x2="2391" y1="506.4766" y2="506.4766"/><text fill="#000000" font-family="sans-serif" font-size="14" lengthAdjust="spacing" textLength="65" x="1890" y="522.0117">minimum</text><text fill="#000000" font-family="sans-serif" font-size="14" lengthAdjust="spacing" textLength="9" x="1977" y="522.0117">0</text><line style="stroke:#A80036;stroke-width:1.0;" x1="1972" x2="1972" y1="506.4766" y2="526.9648"/><line style="stroke:#A80036;stroke-width:1.0;" x1="1885" x2="2391" y1="526.9648" y2="526.9648"/><text fill="#000000" font-family="sans-serif" font-size="14" lengthAdjust="spacing" textLength="55" x="1890" y="542.5">writable</text><text fill="#000000" font-family="sans-serif" font-size="14" lengthAdjust="spacing" textLength="48" x="1977" y="542.5">☐ false</text><line style="stroke:#A80036;stroke-width:1.0;" x1="1972" x2="1972" y1="526.9648" y2="547.4531"/><line style="stroke:#A80036;stroke-width:1.0;" x1="1885" x2="2391" y1="547.4531" y2="547.4531"/><text fill="#000000" font-family="sans-serif" font-size="14" lengthAdjust="spacing" textLength="29" x="1890" y="562.9883">type</text><text fill="#000000" font-family="sans-serif" font-size="14" lengthAdjust="spacing" textLength="54" x="1977" y="562.9883">number</text><line style="stroke:#A80036;stroke-width:1.0;" x1="1972" x2="1972" y1="547.4531" y2="567.9414"/><rect fill="none" height="98.4414" rx="5" ry="5" style="stroke:#A80036;stroke-width:1.5;" width="506" x="1885" y="469.5"/><rect fill="#FEFECE" height="81.9531" rx="5" ry="5" style="stroke:#FEFECE;stroke-width:1.5;" width="435" x="1920.5" y="585.5"/><text fill="#000000" font-family="sans-serif" font-size="14" lengthAdjust="spacing" textLength="77" x="1925.5" y="601.0352">description</text><text fill="#000000" font-family="sans-serif" font-size="14" lengthAdjust="spacing" textLength="338" x="2012.5" y="601.0352">The Device's current velocity (metres per second).</text><line style="stroke:#A80036;stroke-width:1.0;" x1="2007.5" x2="2007.5" y1="585.5" y2="605.9883"/><line style="stroke:#A80036;stroke-width:1.0;" x1="1920.5" x2="2355.5" y1="605.9883" y2="605.9883"/><text fill="#000000" font-family="sans-serif" font-size="14" lengthAdjust="spacing" textLength="65" x="1925.5" y="621.5234">minimum</text><text fill="#000000" font-family="sans-serif" font-size="14" lengthAdjust="spacing" textLength="9" x="2012.5" y="621.5234">0</text><line style="stroke:#A80036;stroke-width:1.0;" x1="2007.5" x2="2007.5" y1="605.9883" y2="626.4766"/><line style="stroke:#A80036;stroke-width:1.0;" x1="1920.5" x2="2355.5" y1="626.4766" y2="626.4766"/><text fill="#000000" font-family="sans-serif" font-size="14" lengthAdjust="spacing" textLength="55" x="1925.5" y="642.0117">writable</text><text fill="#000000" font-family="sans-serif" font-size="14" lengthAdjust="spacing" textLength="48" x="2012.5" y="642.0117">☐ false</text><line style="stroke:#A80036;stroke-width:1.0;" x1="2007.5" x2="2007.5" y1="626.4766" y2="646.9648"/><line style="stroke:#A80036;stroke-width:1.0;" x1="1920.5" x2="2355.5" y1="646.9648" y2="646.9648"/><text fill="#000000" font-family="sans-serif" font-size="14" lengthAdjust="spacing" textLength="29" x="1925.5" y="662.5">type</text><text fill="#000000" font-family="sans-serif" font-size="14" lengthAdjust="spacing" textLength="54" x="2012.5" y="662.5">number</text><line style="stroke:#A80036;stroke-width:1.0;" x1="2007.5" x2="2007.5" y1="646.9648" y2="667.4531"/><rect fill="none" height="81.9531" rx="5" ry="5" style="stroke:#A80036;stroke-width:1.5;" width="435" x="1920.5" y="585.5"/><rect fill="#FEFECE" height="61.4648" rx="5" ry="5" style="stroke:#FEFECE;stroke-width:1.5;" width="388" x="1453" y="421"/><text fill="#000000" font-family="sans-serif" font-size="14" lengthAdjust="spacing" textLength="364" x="1458" y="436.5352">#/sdfObject/sensor.geolocation/sdfProperty/latitude</text><line style="stroke:#A80036;stroke-width:1.0;" x1="1453" x2="1841" y1="441.4883" y2="441.4883"/><text fill="#000000" font-family="sans-serif" font-size="14" lengthAdjust="spacing" textLength="378" x="1458" y="457.0234">#/sdfObject/sensor.geolocation/sdfProperty/longitude</text><line style="stroke:#A80036;stroke-width:1.0;" x1="1453" x2="1841" y1="461.9766" y2="461.9766"/><text fill="#000000" font-family="sans-serif" font-size="14" lengthAdjust="spacing" textLength="329" x="1458" y="477.5117">#/sdfObject/sensor.geolocation/sdfProperty/alt</text><rect fill="none" height="61.4648" rx="5" ry="5" style="stroke:#A80036;stroke-width:1.5;" width="388" x="1453" y="421"/><path d="M95,309.5 L108,309.5 C117.3442,309.5 126.8208,309.4198 136.3833,309.2688 " fill="none" style="stroke:#A80036;stroke-width:1.0;stroke-dasharray:3.0,3.0;"/><path d="M136.4378,312.3434 L138.6892,309.2279 L136.3288,306.1942 L144.0697,309.1326 L136.4378,312.3434 " fill="#A80036" style="stroke:#A80036;stroke-width:1.0;"/><ellipse cx="95" cy="309.5" fill="#A80036" rx="3" ry="3" style="stroke:#A80036;stroke-width:1.0;stroke-dasharray:3.0,3.0;"/><path d="M1708.5,269.5 L1721.5,269.5 C1830.5595,269.5 1783.1435,134.3165 1878,80.5 C1885.1335,76.4528 1892.5461,72.777 1900.1633,69.4402 " fill="none" style="stroke:#A80036;stroke-width:1.0;stroke-dasharray:3.0,3.0;"/><path d="M1901.3513,72.2606 L1902.2785,68.5492 L1898.9753,66.6199 L1907.2141,66.4703 L1901.3513,72.2606 " fill="#A80036" style="stroke:#A80036;stroke-width:1.0;"/><ellipse cx="1708.5" cy="269.5" fill="#A80036" rx="3" ry="3" style="stroke:#A80036;stroke-width:1.0;stroke-dasharray:3.0,3.0;"/><path d="M1708.5,289.5 L1721.5,289.5 C1801.5164,289.5 1803.4609,229.5955 1878,200.5 C1894.0187,194.2473 1910.8593,188.5451 1927.9451,183.3654 " fill="none" style="stroke:#A80036;stroke-width:1.0;stroke-dasharray:3.0,3.0;"/><path d="M1928.8203,186.2997 L1930.1458,182.709 L1927.0699,180.431 L1935.2809,181.1774 L1928.8203,186.2997 " fill="#A80036" style="stroke:#A80036;stroke-width:1.0;"/><ellipse cx="1708.5" cy="289.5" fill="#A80036" rx="3" ry="3" style="stroke:#A80036;stroke-width:1.0;stroke-dasharray:3.0,3.0;"/><path d="M1708.5,310.5 L1721.5,310.5 C1792.322,310.5 1808.213,292.5633 1878,280.5 C1893.9705,277.7394 1910.5103,274.974 1927.1534,272.2584 " fill="none" style="stroke:#A80036;stroke-width:1.0;stroke-dasharray:3.0,3.0;"/><path d="M1927.651,275.3194 L1929.4491,271.8852 L1926.6558,269.1975 L1934.8058,271.0145 L1927.651,275.3194 " fill="#A80036" style="stroke:#A80036;stroke-width:1.0;"/><ellipse cx="1708.5" cy="310.5" fill="#A80036" rx="3" ry="3" style="stroke:#A80036;stroke-width:1.0;stroke-dasharray:3.0,3.0;"/><path d="M1708.5,330.5 L1721.5,330.5 C1777.7455,330.5 1838.2687,330.5 1895.2616,330.5 " fill="none" style="stroke:#A80036;stroke-width:1.0;stroke-dasharray:3.0,3.0;"/><path d="M1895.2616,333.5618 L1897.558,330.5 L1895.2616,327.4382 L1902.9162,330.5 L1895.2616,333.5618 " fill="#A80036" style="stroke:#A80036;stroke-width:1.0;"/><ellipse cx="1708.5" cy="330.5" fill="#A80036" rx="3" ry="3" style="stroke:#A80036;stroke-width:1.0;stroke-dasharray:3.0,3.0;"/><path d="M1708.5,351.5 L1721.5,351.5 C1792.2397,351.5 1808.2572,368.6658 1878,380.5 C1894.1738,383.2444 1910.9285,386.0077 1927.7813,388.7304 " fill="none" style="stroke:#A80036;stroke-width:1.0;stroke-dasharray:3.0,3.0;"/><path d="M1927.2821,391.8297 L1930.1058,389.1047 L1928.2804,385.631 L1935.5296,389.9782 L1927.2821,391.8297 " fill="#A80036" style="stroke:#A80036;stroke-width:1.0;"/><ellipse cx="1708.5" cy="351.5" fill="#A80036" rx="3" ry="3" style="stroke:#A80036;stroke-width:1.0;stroke-dasharray:3.0,3.0;"/><path d="M1708.5,372.5 L1721.5,372.5 C1777.9291,372.5 1796.2018,379.5338 1842,412.5 C1863.6428,428.0788 1855.6012,446.0292 1878,460.5 C1880.7264,462.2614 1883.4988,463.9698 1886.3126,465.6268 " fill="none" style="stroke:#A80036;stroke-width:1.0;stroke-dasharray:3.0,3.0;"/><path d="M1884.8031,468.2822 L1888.3042,466.7589 L1887.8221,462.9713 L1892.9511,469.4004 L1884.8031,468.2822 " fill="#A80036" style="stroke:#A80036;stroke-width:1.0;"/><ellipse cx="1708.5" cy="372.5" fill="#A80036" rx="3" ry="3" style="stroke:#A80036;stroke-width:1.0;stroke-dasharray:3.0,3.0;"/><path d="M1708.5,392.5 L1721.5,392.5 C1775.7882,392.5 1802.6348,375.1157 1842,412.5 C1896.1113,463.8883 1824.5579,524.4161 1878,576.5 C1888.7024,586.9304 1900.8824,595.516 1913.9906,602.5575 " fill="none" style="stroke:#A80036;stroke-width:1.0;stroke-dasharray:3.0,3.0;"/><path d="M1912.5734,605.332 L1916.0716,603.6204 L1915.4078,599.7829 L1920.9271,606.1005 L1912.5734,605.332 " fill="#A80036" style="stroke:#A80036;stroke-width:1.0;"/><ellipse cx="1708.5" cy="392.5" fill="#A80036" rx="3" ry="3" style="stroke:#A80036;stroke-width:1.0;stroke-dasharray:3.0,3.0;"/><path d="M1404,353.5 L1417,353.5 C1467.1346,353.5 1523.1498,348.2335 1567.2895,342.8539 " fill="none" style="stroke:#A80036;stroke-width:1.0;stroke-dasharray:3.0,3.0;"/><path d="M1567.663,345.8691 L1569.5509,342.5738 L1566.916,339.8388 L1574.8274,341.9202 L1567.663,345.8691 " fill="#A80036" style="stroke:#A80036;stroke-width:1.0;"/><ellipse cx="1404" cy="353.5" fill="#A80036" rx="3" ry="3" style="stroke:#A80036;stroke-width:1.0;stroke-dasharray:3.0,3.0;"/><path d="M1404,429.5 L1417,429.5 C1426.4891,429.5 1436.1888,429.6887 1445.9788,430.0311 " fill="none" style="stroke:#A80036;stroke-width:1.0;stroke-dasharray:3.0,3.0;"/><path d="M1445.8623,433.0319 L1448.2294,430.1184 L1446.0953,427.0302 L1453.4809,430.3223 L1445.8623,433.0319 " fill="#A80036" style="stroke:#A80036;stroke-width:1.0;"/><ellipse cx="1404" cy="429.5" fill="#A80036" rx="3" ry="3" style="stroke:#A80036;stroke-width:1.0;stroke-dasharray:3.0,3.0;"/><path d="M542,354.5 L555,354.5 C643.9018,354.5 740.5964,354.5 828.6899,354.5 " fill="none" style="stroke:#A80036;stroke-width:1.0;stroke-dasharray:3.0,3.0;"/><path d="M828.6899,357.5721 L830.994,354.5 L828.6899,351.4279 L836.3703,354.5 L828.6899,357.5721 " fill="#A80036" style="stroke:#A80036;stroke-width:1.0;"/><ellipse cx="542" cy="354.5" fill="#A80036" rx="3" ry="3" style="stroke:#A80036;stroke-width:1.0;stroke-dasharray:3.0,3.0;"/><path d="M95,330.5 L108,330.5 C124.1536,330.5 127.924,333.9191 144,335.5 C224.6503,343.431 316.8409,348.4198 382.7313,351.2845 " fill="none" style="stroke:#A80036;stroke-width:1.0;stroke-dasharray:3.0,3.0;"/><path d="M382.6026,354.284 L384.981,351.381 L382.86,348.2849 L390.2301,351.6063 L382.6026,354.284 " fill="#A80036" style="stroke:#A80036;stroke-width:1.0;"/><ellipse cx="95" cy="330.5" fill="#A80036" rx="3" ry="3" style="stroke:#A80036;stroke-width:1.0;stroke-dasharray:3.0,3.0;"/><!--MD5=[b5d82d0462a555603fd9a601f671341a]
@startjson
{
  "info": {
    "copyright": "copyright 2016-2017, 2019 Open Connectivity Foundation, Inc. All rights reserved.",
    "license": "https://github.com/one-data-model/oneDM/blob/master/LICENSE",
    "title": "Geolocation",
    "version": "2019-02-15"
  },
  "sdfObject": {
    "sensor.geolocation": {
      "description": "This Resource describes the properties associated with the current\\ngeolocation coordinate. Geolocation is a geolocation coordinate data.\\nThe Property \"latitude\" is a device's current Latitude coordinate\\n(degrees). The Property \"longitude\" is a device's current Longitude\\ncoordinate (degrees). The Property \"alt\" is a device's current\\ndistance (metres) above or below 'local' sea-level. The Property\\n\"accuracy\" is the accuracy level of the latitude and longitude\\ncoordinates (metres). The Property \"altitudeAccuracy\" is the accuracy\\nlevel of the altitude coordinates (metres). The Property \"heading\" is\\na direction of travel of device (degree). The Property \"speed\" is a\\ndevice's current velocity (metres per second).",
      "sdfProperty": {
        "longitude": {
          "description": "The Device's Current Longitude coordinate (degrees).",
          "writable": false,
          "type": "number"
        },
        "heading": {
          "description": "The direction of travel of the Device (degree).",
          "maximum": 360,
          "minimum": 0,
          "writable": false,
          "type": "number"
        },
        "latitude": {
          "description": "The Device's Current Latitude coordinate (degrees).",
          "writable": false,
          "type": "number"
        },
        "altitudeAccuracy": {
          "description": "The accuracy level of the altitude coordinates (metres).",
          "minimum": 0,
          "writable": false,
          "type": "number"
        },
        "alt": {
          "description": "The current distance (metres) above or below 'local' sea-level.",
          "writable": false,
          "type": "number"
        },
        "accuracy": {
          "description": "The accuracy level of the latitude and longitude coordinates\\n(metres).",
          "minimum": 0,
          "writable": false,
          "type": "number"
        },
        "speed": {
          "description": "The Device's current velocity (metres per second).",
          "minimum": 0,
          "writable": false,
          "type": "number"
        }
      },
      "sdfRequired": [
        "#/sdfObject/sensor.geolocation/sdfProperty/latitude",
        "#/sdfObject/sensor.geolocation/sdfProperty/longitude",
        "#/sdfObject/sensor.geolocation/sdfProperty/alt"
      ]
    }
  }
}
@endjson

PlantUML version 1.2021.2(Sun Mar 07 13:10:27 EET 2021)
(GPL source distribution)
Java Runtime: OpenJDK Runtime Environment
JVM: OpenJDK 64-Bit Server VM
Default Encoding: UTF-8
Language: en
Country: FI
--></g></svg>