<?xml version="1.0" encoding="UTF-8" standalone="no"?><svg xmlns="http://www.w3.org/2000/svg" xmlns:xlink="http://www.w3.org/1999/xlink" contentScriptType="application/ecmascript" contentStyleType="text/css" height="594px" preserveAspectRatio="none" style="width:2618px;height:594px;" version="1.1" viewBox="0 0 2618 594" width="2618px" zoomAndPan="magnify"><defs/><g><rect fill="#FEFECE" height="40.9766" rx="5" ry="5" style="stroke:#FEFECE;stroke-width:1.5;" width="97" x="10" y="191"/><text fill="#000000" font-family="sans-serif" font-size="14" lengthAdjust="spacing" textLength="27" x="15" y="206.5352">info</text><text fill="#000000" font-family="sans-serif" font-size="14" lengthAdjust="spacing" textLength="0" x="102" y="206.5352"/><line style="stroke:#A80036;stroke-width:1.0;" x1="85" x2="85" y1="191" y2="211.4883"/><line style="stroke:#A80036;stroke-width:1.0;" x1="10" x2="107" y1="211.4883" y2="211.4883"/><text fill="#000000" font-family="sans-serif" font-size="14" lengthAdjust="spacing" textLength="65" x="15" y="227.0234">sdfObject</text><text fill="#000000" font-family="sans-serif" font-size="14" lengthAdjust="spacing" textLength="0" x="102" y="227.0234"/><line style="stroke:#A80036;stroke-width:1.0;" x1="85" x2="85" y1="211.4883" y2="231.9766"/><rect fill="none" height="40.9766" rx="5" ry="5" style="stroke:#A80036;stroke-width:1.5;" width="97" x="10" y="191"/><rect fill="#FEFECE" height="81.9531" rx="5" ry="5" style="stroke:#FEFECE;stroke-width:1.5;" width="655" x="144" y="135.5"/><text fill="#000000" font-family="sans-serif" font-size="14" lengthAdjust="spacing" textLength="65" x="149" y="151.0352">copyright</text><text fill="#000000" font-family="sans-serif" font-size="14" lengthAdjust="spacing" textLength="570" x="224" y="151.0352">copyright 2016-2017, 2019 Open Connectivity Foundation, Inc. All rights reserved.</text><line style="stroke:#A80036;stroke-width:1.0;" x1="219" x2="219" y1="135.5" y2="155.9883"/><line style="stroke:#A80036;stroke-width:1.0;" x1="144" x2="799" y1="155.9883" y2="155.9883"/><text fill="#000000" font-family="sans-serif" font-size="14" lengthAdjust="spacing" textLength="47" x="149" y="171.5234">license</text><text fill="#000000" font-family="sans-serif" font-size="14" lengthAdjust="spacing" textLength="462" x="224" y="171.5234">https://github.com/one-data-model/oneDM/blob/master/LICENSE</text><line style="stroke:#A80036;stroke-width:1.0;" x1="219" x2="219" y1="155.9883" y2="176.4766"/><line style="stroke:#A80036;stroke-width:1.0;" x1="144" x2="799" y1="176.4766" y2="176.4766"/><text fill="#000000" font-family="sans-serif" font-size="14" lengthAdjust="spacing" textLength="26" x="149" y="192.0117">title</text><text fill="#000000" font-family="sans-serif" font-size="14" lengthAdjust="spacing" textLength="175" x="224" y="192.0117">Carbon Monoxide Sensor</text><line style="stroke:#A80036;stroke-width:1.0;" x1="219" x2="219" y1="176.4766" y2="196.9648"/><line style="stroke:#A80036;stroke-width:1.0;" x1="144" x2="799" y1="196.9648" y2="196.9648"/><text fill="#000000" font-family="sans-serif" font-size="14" lengthAdjust="spacing" textLength="50" x="149" y="212.5">version</text><text fill="#000000" font-family="sans-serif" font-size="14" lengthAdjust="spacing" textLength="88" x="224" y="212.5">2019-11-18</text><line style="stroke:#A80036;stroke-width:1.0;" x1="219" x2="219" y1="196.9648" y2="217.4531"/><rect fill="none" height="81.9531" rx="5" ry="5" style="stroke:#A80036;stroke-width:1.5;" width="655" x="144" y="135.5"/><rect fill="#FEFECE" height="20.4883" rx="5" ry="5" style="stroke:#FEFECE;stroke-width:1.5;" width="200" x="371.5" y="235.5"/><text fill="#000000" font-family="sans-serif" font-size="14" lengthAdjust="spacing" textLength="168" x="376.5" y="251.0352">sensor.carbonmonoxide</text><text fill="#000000" font-family="sans-serif" font-size="14" lengthAdjust="spacing" textLength="0" x="566.5" y="251.0352"/><line style="stroke:#A80036;stroke-width:1.0;" x1="549.5" x2="549.5" y1="235.5" y2="255.9883"/><rect fill="none" height="20.4883" rx="5" ry="5" style="stroke:#A80036;stroke-width:1.5;" width="200" x="371.5" y="235.5"/><rect fill="#FEFECE" height="110.9297" rx="5" ry="5" style="stroke:#FEFECE;stroke-width:1.5;" width="591" x="836" y="190"/><text fill="#000000" font-family="sans-serif" font-size="14" lengthAdjust="spacing" textLength="77" x="841" y="205.5352">description</text><text fill="#000000" font-family="sans-serif" font-size="14" lengthAdjust="spacing" textLength="488" x="934" y="205.5352">This Resource describes whether carbon monoxide has been sensed or</text><text fill="#000000" font-family="sans-serif" font-size="14" lengthAdjust="spacing" textLength="450" x="934" y="222.0234">not. The Property "value" is a boolean. A value of 'true' means that</text><text fill="#000000" font-family="sans-serif" font-size="14" lengthAdjust="spacing" textLength="449" x="934" y="238.5117">carbon monoxide has been detected. A value of 'false' means that</text><text fill="#000000" font-family="sans-serif" font-size="14" lengthAdjust="spacing" textLength="282" x="934" y="255">carbon monoxide has not been detected.</text><line style="stroke:#A80036;stroke-width:1.0;" x1="929" x2="929" y1="190" y2="259.9531"/><line style="stroke:#A80036;stroke-width:1.0;" x1="836" x2="1427" y1="259.9531" y2="259.9531"/><text fill="#000000" font-family="sans-serif" font-size="14" lengthAdjust="spacing" textLength="79" x="841" y="275.4883">sdfProperty</text><text fill="#000000" font-family="sans-serif" font-size="14" lengthAdjust="spacing" textLength="0" x="946" y="275.4883"/><line style="stroke:#A80036;stroke-width:1.0;" x1="929" x2="929" y1="259.9531" y2="280.4414"/><line style="stroke:#A80036;stroke-width:1.0;" x1="836" x2="1427" y1="280.4414" y2="280.4414"/><text fill="#000000" font-family="sans-serif" font-size="14" lengthAdjust="spacing" textLength="83" x="841" y="295.9766">sdfRequired</text><text fill="#000000" font-family="sans-serif" font-size="14" lengthAdjust="spacing" textLength="0" x="946" y="295.9766"/><line style="stroke:#A80036;stroke-width:1.0;" x1="929" x2="929" y1="280.4414" y2="300.9297"/><rect fill="none" height="110.9297" rx="5" ry="5" style="stroke:#A80036;stroke-width:1.5;" width="591" x="836" y="190"/><rect fill="#FEFECE" height="102.4414" rx="5" ry="5" style="stroke:#FEFECE;stroke-width:1.5;" width="126" x="1598.5" y="173.5"/><text fill="#000000" font-family="sans-serif" font-size="14" lengthAdjust="spacing" textLength="36" x="1603.5" y="189.0352">value</text><text fill="#000000" font-family="sans-serif" font-size="14" lengthAdjust="spacing" textLength="0" x="1719.5" y="189.0352"/><line style="stroke:#A80036;stroke-width:1.0;" x1="1702.5" x2="1702.5" y1="173.5" y2="193.9883"/><line style="stroke:#A80036;stroke-width:1.0;" x1="1598.5" x2="1724.5" y1="193.9883" y2="193.9883"/><text fill="#000000" font-family="sans-serif" font-size="14" lengthAdjust="spacing" textLength="94" x="1603.5" y="209.5234">measurement</text><text fill="#000000" font-family="sans-serif" font-size="14" lengthAdjust="spacing" textLength="0" x="1719.5" y="209.5234"/><line style="stroke:#A80036;stroke-width:1.0;" x1="1702.5" x2="1702.5" y1="193.9883" y2="214.4766"/><line style="stroke:#A80036;stroke-width:1.0;" x1="1598.5" x2="1724.5" y1="214.4766" y2="214.4766"/><text fill="#000000" font-family="sans-serif" font-size="14" lengthAdjust="spacing" textLength="63" x="1603.5" y="230.0117">precision</text><text fill="#000000" font-family="sans-serif" font-size="14" lengthAdjust="spacing" textLength="0" x="1719.5" y="230.0117"/><line style="stroke:#A80036;stroke-width:1.0;" x1="1702.5" x2="1702.5" y1="214.4766" y2="234.9648"/><line style="stroke:#A80036;stroke-width:1.0;" x1="1598.5" x2="1724.5" y1="234.9648" y2="234.9648"/><text fill="#000000" font-family="sans-serif" font-size="14" lengthAdjust="spacing" textLength="40" x="1603.5" y="250.5">range</text><text fill="#000000" font-family="sans-serif" font-size="14" lengthAdjust="spacing" textLength="0" x="1719.5" y="250.5"/><line style="stroke:#A80036;stroke-width:1.0;" x1="1702.5" x2="1702.5" y1="234.9648" y2="255.4531"/><line style="stroke:#A80036;stroke-width:1.0;" x1="1598.5" x2="1724.5" y1="255.4531" y2="255.4531"/><text fill="#000000" font-family="sans-serif" font-size="14" lengthAdjust="spacing" textLength="29" x="1603.5" y="270.9883">step</text><text fill="#000000" font-family="sans-serif" font-size="14" lengthAdjust="spacing" textLength="0" x="1719.5" y="270.9883"/><line style="stroke:#A80036;stroke-width:1.0;" x1="1702.5" x2="1702.5" y1="255.4531" y2="275.9414"/><rect fill="none" height="102.4414" rx="5" ry="5" style="stroke:#A80036;stroke-width:1.5;" width="126" x="1598.5" y="173.5"/><rect fill="#FEFECE" height="61.4648" rx="5" ry="5" style="stroke:#FEFECE;stroke-width:1.5;" width="555" x="1903.5" y="10"/><text fill="#000000" font-family="sans-serif" font-size="14" lengthAdjust="spacing" textLength="77" x="1908.5" y="25.5352">description</text><text fill="#000000" font-family="sans-serif" font-size="14" lengthAdjust="spacing" textLength="458" x="1995.5" y="25.5352">The carbon monoxide indicator, true = sensed, false = not sensed.</text><line style="stroke:#A80036;stroke-width:1.0;" x1="1990.5" x2="1990.5" y1="10" y2="30.4883"/><line style="stroke:#A80036;stroke-width:1.0;" x1="1903.5" x2="2458.5" y1="30.4883" y2="30.4883"/><text fill="#000000" font-family="sans-serif" font-size="14" lengthAdjust="spacing" textLength="55" x="1908.5" y="46.0234">writable</text><text fill="#000000" font-family="sans-serif" font-size="14" lengthAdjust="spacing" textLength="48" x="1995.5" y="46.0234">☐ false</text><line style="stroke:#A80036;stroke-width:1.0;" x1="1990.5" x2="1990.5" y1="30.4883" y2="50.9766"/><line style="stroke:#A80036;stroke-width:1.0;" x1="1903.5" x2="2458.5" y1="50.9766" y2="50.9766"/><text fill="#000000" font-family="sans-serif" font-size="14" lengthAdjust="spacing" textLength="29" x="1908.5" y="66.5117">type</text><text fill="#000000" font-family="sans-serif" font-size="14" lengthAdjust="spacing" textLength="56" x="1995.5" y="66.5117">boolean</text><line style="stroke:#A80036;stroke-width:1.0;" x1="1990.5" x2="1990.5" y1="50.9766" y2="71.4648"/><rect fill="none" height="61.4648" rx="5" ry="5" style="stroke:#A80036;stroke-width:1.5;" width="555" x="1903.5" y="10"/><rect fill="#FEFECE" height="61.4648" rx="5" ry="5" style="stroke:#FEFECE;stroke-width:1.5;" width="427" x="1967.5" y="89"/><text fill="#000000" font-family="sans-serif" font-size="14" lengthAdjust="spacing" textLength="29" x="1972.5" y="104.5352">type</text><text fill="#000000" font-family="sans-serif" font-size="14" lengthAdjust="spacing" textLength="54" x="2059.5" y="104.5352">number</text><line style="stroke:#A80036;stroke-width:1.0;" x1="2054.5" x2="2054.5" y1="89" y2="109.4883"/><line style="stroke:#A80036;stroke-width:1.0;" x1="1967.5" x2="2394.5" y1="109.4883" y2="109.4883"/><text fill="#000000" font-family="sans-serif" font-size="14" lengthAdjust="spacing" textLength="77" x="1972.5" y="125.0234">description</text><text fill="#000000" font-family="sans-serif" font-size="14" lengthAdjust="spacing" textLength="330" x="2059.5" y="125.0234">Measured value for this sensor, units are in ppm</text><line style="stroke:#A80036;stroke-width:1.0;" x1="2054.5" x2="2054.5" y1="109.4883" y2="129.9766"/><line style="stroke:#A80036;stroke-width:1.0;" x1="1967.5" x2="2394.5" y1="129.9766" y2="129.9766"/><text fill="#000000" font-family="sans-serif" font-size="14" lengthAdjust="spacing" textLength="55" x="1972.5" y="145.5117">writable</text><text fill="#000000" font-family="sans-serif" font-size="14" lengthAdjust="spacing" textLength="48" x="2059.5" y="145.5117">☐ false</text><line style="stroke:#A80036;stroke-width:1.0;" x1="2054.5" x2="2054.5" y1="129.9766" y2="150.4648"/><rect fill="none" height="61.4648" rx="5" ry="5" style="stroke:#A80036;stroke-width:1.5;" width="427" x="1967.5" y="89"/><rect fill="#FEFECE" height="110.9297" rx="5" ry="5" style="stroke:#FEFECE;stroke-width:1.5;" width="570" x="1896" y="168"/><text fill="#000000" font-family="sans-serif" font-size="14" lengthAdjust="spacing" textLength="29" x="1901" y="183.5352">type</text><text fill="#000000" font-family="sans-serif" font-size="14" lengthAdjust="spacing" textLength="54" x="1988" y="183.5352">number</text><line style="stroke:#A80036;stroke-width:1.0;" x1="1983" x2="1983" y1="168" y2="188.4883"/><line style="stroke:#A80036;stroke-width:1.0;" x1="1896" x2="2466" y1="188.4883" y2="188.4883"/><text fill="#000000" font-family="sans-serif" font-size="14" lengthAdjust="spacing" textLength="55" x="1901" y="204.0234">writable</text><text fill="#000000" font-family="sans-serif" font-size="14" lengthAdjust="spacing" textLength="48" x="1988" y="204.0234">☐ false</text><line style="stroke:#A80036;stroke-width:1.0;" x1="1983" x2="1983" y1="188.4883" y2="208.9766"/><line style="stroke:#A80036;stroke-width:1.0;" x1="1896" x2="2466" y1="208.9766" y2="208.9766"/><text fill="#000000" font-family="sans-serif" font-size="14" lengthAdjust="spacing" textLength="77" x="1901" y="224.5117">description</text><text fill="#000000" font-family="sans-serif" font-size="14" lengthAdjust="spacing" textLength="430" x="1988" y="224.5117">When exposed the value in 'precision' provides a +/- tolerance</text><text fill="#000000" font-family="sans-serif" font-size="14" lengthAdjust="spacing" textLength="473" x="1988" y="241">against the Properties in the Resource. Thus if a Property is UPDATED</text><text fill="#000000" font-family="sans-serif" font-size="14" lengthAdjust="spacing" textLength="465" x="1988" y="257.4883">to a value and that Property then RETRIEVED, the RETRIEVED value is</text><text fill="#000000" font-family="sans-serif" font-size="14" lengthAdjust="spacing" textLength="337" x="1988" y="273.9766">valid if in the range of the set value +/- precision</text><line style="stroke:#A80036;stroke-width:1.0;" x1="1983" x2="1983" y1="208.9766" y2="278.9297"/><rect fill="none" height="110.9297" rx="5" ry="5" style="stroke:#A80036;stroke-width:1.5;" width="570" x="1896" y="168"/><rect fill="#FEFECE" height="155.9063" rx="5" ry="5" style="stroke:#FEFECE;stroke-width:1.5;" width="548" x="1907" y="297.5"/><text fill="#000000" font-family="sans-serif" font-size="14" lengthAdjust="spacing" textLength="29" x="1912" y="313.0352">type</text><text fill="#000000" font-family="sans-serif" font-size="14" lengthAdjust="spacing" textLength="35" x="1999" y="313.0352">array</text><line style="stroke:#A80036;stroke-width:1.0;" x1="1994" x2="1994" y1="297.5" y2="317.9883"/><line style="stroke:#A80036;stroke-width:1.0;" x1="1907" x2="2455" y1="317.9883" y2="317.9883"/><text fill="#000000" font-family="sans-serif" font-size="14" lengthAdjust="spacing" textLength="77" x="1912" y="333.5234">description</text><text fill="#000000" font-family="sans-serif" font-size="14" lengthAdjust="spacing" textLength="451" x="1999" y="333.5234">The valid range for the Property in the Resource as a number. The</text><text fill="#000000" font-family="sans-serif" font-size="14" lengthAdjust="spacing" textLength="439" x="1999" y="350.0117">first value in the array is the minimum value, the second value in</text><text fill="#000000" font-family="sans-serif" font-size="14" lengthAdjust="spacing" textLength="219" x="1999" y="366.5">the array is the maximum value.</text><line style="stroke:#A80036;stroke-width:1.0;" x1="1994" x2="1994" y1="317.9883" y2="371.4531"/><line style="stroke:#A80036;stroke-width:1.0;" x1="1907" x2="2455" y1="371.4531" y2="371.4531"/><text fill="#000000" font-family="sans-serif" font-size="14" lengthAdjust="spacing" textLength="55" x="1912" y="386.9883">writable</text><text fill="#000000" font-family="sans-serif" font-size="14" lengthAdjust="spacing" textLength="48" x="1999" y="386.9883">☐ false</text><line style="stroke:#A80036;stroke-width:1.0;" x1="1994" x2="1994" y1="371.4531" y2="391.9414"/><line style="stroke:#A80036;stroke-width:1.0;" x1="1907" x2="2455" y1="391.9414" y2="391.9414"/><text fill="#000000" font-family="sans-serif" font-size="14" lengthAdjust="spacing" textLength="63" x="1912" y="407.4766">minItems</text><text fill="#000000" font-family="sans-serif" font-size="14" lengthAdjust="spacing" textLength="9" x="1999" y="407.4766">2</text><line style="stroke:#A80036;stroke-width:1.0;" x1="1994" x2="1994" y1="391.9414" y2="412.4297"/><line style="stroke:#A80036;stroke-width:1.0;" x1="1907" x2="2455" y1="412.4297" y2="412.4297"/><text fill="#000000" font-family="sans-serif" font-size="14" lengthAdjust="spacing" textLength="67" x="1912" y="427.9648">maxItems</text><text fill="#000000" font-family="sans-serif" font-size="14" lengthAdjust="spacing" textLength="9" x="1999" y="427.9648">2</text><line style="stroke:#A80036;stroke-width:1.0;" x1="1994" x2="1994" y1="412.4297" y2="432.918"/><line style="stroke:#A80036;stroke-width:1.0;" x1="1907" x2="2455" y1="432.918" y2="432.918"/><text fill="#000000" font-family="sans-serif" font-size="14" lengthAdjust="spacing" textLength="37" x="1912" y="448.4531">items</text><text fill="#000000" font-family="sans-serif" font-size="14" lengthAdjust="spacing" textLength="0" x="2011" y="448.4531"/><line style="stroke:#A80036;stroke-width:1.0;" x1="1994" x2="1994" y1="432.918" y2="453.4063"/><rect fill="none" height="155.9063" rx="5" ry="5" style="stroke:#A80036;stroke-width:1.5;" width="548" x="1907" y="297.5"/><rect fill="#FEFECE" height="20.4883" rx="5" ry="5" style="stroke:#FEFECE;stroke-width:1.5;" width="103" x="2503" y="430.5"/><text fill="#000000" font-family="sans-serif" font-size="14" lengthAdjust="spacing" textLength="29" x="2508" y="446.0352">type</text><text fill="#000000" font-family="sans-serif" font-size="14" lengthAdjust="spacing" textLength="54" x="2547" y="446.0352">number</text><line style="stroke:#A80036;stroke-width:1.0;" x1="2542" x2="2542" y1="430.5" y2="450.9883"/><rect fill="none" height="20.4883" rx="5" ry="5" style="stroke:#A80036;stroke-width:1.5;" width="103" x="2503" y="430.5"/><rect fill="#FEFECE" height="110.9297" rx="5" ry="5" style="stroke:#FEFECE;stroke-width:1.5;" width="555" x="1903.5" y="472"/><text fill="#000000" font-family="sans-serif" font-size="14" lengthAdjust="spacing" textLength="77" x="1908.5" y="487.5352">description</text><text fill="#000000" font-family="sans-serif" font-size="14" lengthAdjust="spacing" textLength="456" x="1995.5" y="487.5352">Step value across the defined range an integer when the range is a</text><text fill="#000000" font-family="sans-serif" font-size="14" lengthAdjust="spacing" textLength="458" x="1995.5" y="504.0234">number.  This is the increment for valid values across the range; so</text><text fill="#000000" font-family="sans-serif" font-size="14" lengthAdjust="spacing" textLength="381" x="1995.5" y="520.5117">if range is 0.0..10.0 and step is 2.5 then valid values are</text><text fill="#000000" font-family="sans-serif" font-size="14" lengthAdjust="spacing" textLength="139" x="1995.5" y="537">0.0,2.5,5.0,7.5,10.0.</text><line style="stroke:#A80036;stroke-width:1.0;" x1="1990.5" x2="1990.5" y1="472" y2="541.9531"/><line style="stroke:#A80036;stroke-width:1.0;" x1="1903.5" x2="2458.5" y1="541.9531" y2="541.9531"/><text fill="#000000" font-family="sans-serif" font-size="14" lengthAdjust="spacing" textLength="55" x="1908.5" y="557.4883">writable</text><text fill="#000000" font-family="sans-serif" font-size="14" lengthAdjust="spacing" textLength="48" x="1995.5" y="557.4883">☐ false</text><line style="stroke:#A80036;stroke-width:1.0;" x1="1990.5" x2="1990.5" y1="541.9531" y2="562.4414"/><line style="stroke:#A80036;stroke-width:1.0;" x1="1903.5" x2="2458.5" y1="562.4414" y2="562.4414"/><text fill="#000000" font-family="sans-serif" font-size="14" lengthAdjust="spacing" textLength="29" x="1908.5" y="577.9766">type</text><text fill="#000000" font-family="sans-serif" font-size="14" lengthAdjust="spacing" textLength="54" x="1995.5" y="577.9766">number</text><line style="stroke:#A80036;stroke-width:1.0;" x1="1990.5" x2="1990.5" y1="562.4414" y2="582.9297"/><rect fill="none" height="110.9297" rx="5" ry="5" style="stroke:#A80036;stroke-width:1.5;" width="555" x="1903.5" y="472"/><rect fill="#FEFECE" height="20.4883" rx="5" ry="5" style="stroke:#FEFECE;stroke-width:1.5;" width="395" x="1464" y="293.5"/><text fill="#000000" font-family="sans-serif" font-size="14" lengthAdjust="spacing" textLength="385" x="1469" y="309.0352">#/sdfObject/sensor.carbonmonoxide/sdfProperty/value</text><rect fill="none" height="20.4883" rx="5" ry="5" style="stroke:#A80036;stroke-width:1.5;" width="395" x="1464" y="293.5"/><path d="M95,200.5 L108,200.5 C117.3442,200.5 126.8208,200.4198 136.3833,200.2688 " fill="none" style="stroke:#A80036;stroke-width:1.0;stroke-dasharray:3.0,3.0;"/><path d="M136.4378,203.3434 L138.6892,200.2279 L136.3288,197.1942 L144.0697,200.1326 L136.4378,203.3434 " fill="#A80036" style="stroke:#A80036;stroke-width:1.0;"/><ellipse cx="95" cy="200.5" fill="#A80036" rx="3" ry="3" style="stroke:#A80036;stroke-width:1.0;stroke-dasharray:3.0,3.0;"/><path d="M1713,183.5 L1726,183.5 C1814.3416,183.5 1812.7807,110.1446 1896,80.5 C1903.2241,77.9266 1910.6067,75.518 1918.1026,73.2638 " fill="none" style="stroke:#A80036;stroke-width:1.0;stroke-dasharray:3.0,3.0;"/><path d="M1918.9839,76.2766 L1920.3622,72.6028 L1917.2213,70.251 L1925.6347,71.0606 L1918.9839,76.2766 " fill="#A80036" style="stroke:#A80036;stroke-width:1.0;"/><ellipse cx="1713" cy="183.5" fill="#A80036" rx="3" ry="3" style="stroke:#A80036;stroke-width:1.0;stroke-dasharray:3.0,3.0;"/><path d="M1713,203.5 L1726,203.5 C1804.0453,203.5 1819.4563,174.7354 1896,159.5 C1916.8764,155.3447 1938.6986,151.4633 1960.5712,147.8798 " fill="none" style="stroke:#A80036;stroke-width:1.0;stroke-dasharray:3.0,3.0;"/><path d="M1961.0528,150.8471 L1962.7967,147.5186 L1960.0897,144.9125 L1967.9896,146.676 L1961.0528,150.8471 " fill="#A80036" style="stroke:#A80036;stroke-width:1.0;"/><ellipse cx="1713" cy="203.5" fill="#A80036" rx="3" ry="3" style="stroke:#A80036;stroke-width:1.0;stroke-dasharray:3.0,3.0;"/><path d="M1713,223.5 L1726,223.5 C1778.5647,223.5 1834.5491,223.5 1888.6139,223.5 " fill="none" style="stroke:#A80036;stroke-width:1.0;stroke-dasharray:3.0,3.0;"/><path d="M1888.6139,226.5462 L1890.8986,223.5 L1888.6139,220.4538 L1896.2294,223.5 L1888.6139,226.5462 " fill="#A80036" style="stroke:#A80036;stroke-width:1.0;"/><ellipse cx="1713" cy="223.5" fill="#A80036" rx="3" ry="3" style="stroke:#A80036;stroke-width:1.0;stroke-dasharray:3.0,3.0;"/><path d="M2443.5,440.5 L2456.5,440.5 C2469.235,440.5 2482.9056,440.5 2495.8621,440.5 " fill="none" style="stroke:#A80036;stroke-width:1.0;stroke-dasharray:3.0,3.0;"/><path d="M2495.8621,443.5134 L2498.1221,440.5 L2495.8621,437.4866 L2503.3956,440.5 L2495.8621,443.5134 " fill="#A80036" style="stroke:#A80036;stroke-width:1.0;"/><ellipse cx="2443.5" cy="440.5" fill="#A80036" rx="3" ry="3" style="stroke:#A80036;stroke-width:1.0;stroke-dasharray:3.0,3.0;"/><path d="M1713,244.5 L1726,244.5 C1737.1672,244.5 1820.9232,268.1579 1913.556,295.3661 " fill="none" style="stroke:#A80036;stroke-width:1.0;stroke-dasharray:3.0,3.0;"/><path d="M1912.7027,298.2688 L1915.7331,296.0061 L1914.4094,292.4634 L1920.8128,297.4995 L1912.7027,298.2688 " fill="#A80036" style="stroke:#A80036;stroke-width:1.0;"/><ellipse cx="1713" cy="244.5" fill="#A80036" rx="3" ry="3" style="stroke:#A80036;stroke-width:1.0;stroke-dasharray:3.0,3.0;"/><path d="M1713,265.5 L1726,265.5 C1786.1512,265.5 1816.2367,243.2332 1860,284.5 C1918.723,339.8731 1839.647,404.7167 1896,462.5 C1897.3928,463.9282 1898.8102,465.3278 1900.2508,466.6995 " fill="none" style="stroke:#A80036;stroke-width:1.0;stroke-dasharray:3.0,3.0;"/><path d="M1898.1897,468.9677 L1901.952,468.2453 L1902.3119,464.4312 L1905.9214,471.8522 L1898.1897,468.9677 " fill="#A80036" style="stroke:#A80036;stroke-width:1.0;"/><ellipse cx="1713" cy="265.5" fill="#A80036" rx="3" ry="3" style="stroke:#A80036;stroke-width:1.0;stroke-dasharray:3.0,3.0;"/><path d="M1415,245.5 L1428,245.5 C1483.0171,245.5 1545.0478,239.6203 1591.2657,234.0832 " fill="none" style="stroke:#A80036;stroke-width:1.0;stroke-dasharray:3.0,3.0;"/><path d="M1591.6339,237.1104 L1593.536,233.8071 L1590.8975,231.0561 L1598.8336,233.1627 L1591.6339,237.1104 " fill="#A80036" style="stroke:#A80036;stroke-width:1.0;"/><ellipse cx="1415" cy="245.5" fill="#A80036" rx="3" ry="3" style="stroke:#A80036;stroke-width:1.0;stroke-dasharray:3.0,3.0;"/><path d="M1415,282.5 L1428,282.5 C1440.801,282.5 1497.5009,287.5929 1551.7581,292.7626 " fill="none" style="stroke:#A80036;stroke-width:1.0;stroke-dasharray:3.0,3.0;"/><path d="M1551.4663,295.8165 L1554.0486,292.9814 L1552.0499,289.7086 L1559.393,293.492 L1551.4663,295.8165 " fill="#A80036" style="stroke:#A80036;stroke-width:1.0;"/><ellipse cx="1415" cy="282.5" fill="#A80036" rx="3" ry="3" style="stroke:#A80036;stroke-width:1.0;stroke-dasharray:3.0,3.0;"/><path d="M560,245.5 L573,245.5 C655.904,245.5 745.7366,245.5 828.6009,245.5 " fill="none" style="stroke:#A80036;stroke-width:1.0;stroke-dasharray:3.0,3.0;"/><path d="M828.6009,248.596 L830.9228,245.5 L828.6009,242.404 L836.3408,245.5 L828.6009,248.596 " fill="#A80036" style="stroke:#A80036;stroke-width:1.0;"/><ellipse cx="560" cy="245.5" fill="#A80036" rx="3" ry="3" style="stroke:#A80036;stroke-width:1.0;stroke-dasharray:3.0,3.0;"/><path d="M95,221.5 L108,221.5 C124.1536,221.5 127.924,224.9191 144,226.5 C217.281,233.7063 300.0896,238.4835 364.0394,241.4454 " fill="none" style="stroke:#A80036;stroke-width:1.0;stroke-dasharray:3.0,3.0;"/><path d="M363.8985,244.5267 L366.3505,241.551 L364.1803,238.364 L371.7428,241.7976 L363.8985,244.5267 " fill="#A80036" style="stroke:#A80036;stroke-width:1.0;"/><ellipse cx="95" cy="221.5" fill="#A80036" rx="3" ry="3" style="stroke:#A80036;stroke-width:1.0;stroke-dasharray:3.0,3.0;"/><!--MD5=[7914e195c544161464ad3143f8a365a2]
@startjson
{
  "info": {
    "copyright": "copyright 2016-2017, 2019 Open Connectivity Foundation, Inc. All rights reserved.",
    "license": "https://github.com/one-data-model/oneDM/blob/master/LICENSE",
    "title": "Carbon Monoxide Sensor",
    "version": "2019-11-18"
  },
  "sdfObject": {
    "sensor.carbonmonoxide": {
      "description": "This Resource describes whether carbon monoxide has been sensed or\\nnot. The Property \"value\" is a boolean. A value of 'true' means that\\ncarbon monoxide has been detected. A value of 'false' means that\\ncarbon monoxide has not been detected.",
      "sdfProperty": {
        "value": {
          "description": "The carbon monoxide indicator, true = sensed, false = not sensed.",
          "writable": false,
          "type": "boolean"
        },
        "measurement": {
          "type": "number",
          "description": "Measured value for this sensor, units are in ppm",
          "writable": false
        },
        "precision": {
          "type": "number",
          "writable": false,
          "description": "When exposed the value in 'precision' provides a +/- tolerance\\nagainst the Properties in the Resource. Thus if a Property is UPDATED\\nto a value and that Property then RETRIEVED, the RETRIEVED value is\\nvalid if in the range of the set value +/- precision"
        },
        "range": {
          "type": "array",
          "description": "The valid range for the Property in the Resource as a number. The\\nfirst value in the array is the minimum value, the second value in\\nthe array is the maximum value.",
          "writable": false,
          "minItems": 2,
          "maxItems": 2,
          "items": {
            "type": "number"
          }
        },
        "step": {
          "description": "Step value across the defined range an integer when the range is a\\nnumber.  This is the increment for valid values across the range; so\\nif range is 0.0..10.0 and step is 2.5 then valid values are\\n0.0,2.5,5.0,7.5,10.0.",
          "writable": false,
          "type": "number"
        }
      },
      "sdfRequired": [
        "#/sdfObject/sensor.carbonmonoxide/sdfProperty/value"
      ]
    }
  }
}
@endjson

PlantUML version 1.2021.2(Sun Mar 07 13:10:27 EET 2021)
(GPL source distribution)
Java Runtime: OpenJDK Runtime Environment
JVM: OpenJDK 64-Bit Server VM
Default Encoding: UTF-8
Language: en
Country: FI
--></g></svg>