<?xml version="1.0" encoding="UTF-8" standalone="no"?><svg xmlns="http://www.w3.org/2000/svg" xmlns:xlink="http://www.w3.org/1999/xlink" contentScriptType="application/ecmascript" contentStyleType="text/css" height="311px" preserveAspectRatio="none" style="width:2649px;height:311px;" version="1.1" viewBox="0 0 2649 311" width="2649px" zoomAndPan="magnify"><defs/><g><rect fill="#FEFECE" height="40.9766" rx="5" ry="5" style="stroke:#FEFECE;stroke-width:1.5;" width="97" x="10" y="112"/><text fill="#000000" font-family="sans-serif" font-size="14" lengthAdjust="spacing" textLength="27" x="15" y="127.5352">info</text><text fill="#000000" font-family="sans-serif" font-size="14" lengthAdjust="spacing" textLength="0" x="102" y="127.5352"/><line style="stroke:#A80036;stroke-width:1.0;" x1="85" x2="85" y1="112" y2="132.4883"/><line style="stroke:#A80036;stroke-width:1.0;" x1="10" x2="107" y1="132.4883" y2="132.4883"/><text fill="#000000" font-family="sans-serif" font-size="14" lengthAdjust="spacing" textLength="65" x="15" y="148.0234">sdfObject</text><text fill="#000000" font-family="sans-serif" font-size="14" lengthAdjust="spacing" textLength="0" x="102" y="148.0234"/><line style="stroke:#A80036;stroke-width:1.0;" x1="85" x2="85" y1="132.4883" y2="152.9766"/><rect fill="none" height="40.9766" rx="5" ry="5" style="stroke:#A80036;stroke-width:1.5;" width="97" x="10" y="112"/><rect fill="#FEFECE" height="81.9531" rx="5" ry="5" style="stroke:#FEFECE;stroke-width:1.5;" width="655" x="144" y="56.5"/><text fill="#000000" font-family="sans-serif" font-size="14" lengthAdjust="spacing" textLength="65" x="149" y="72.0352">copyright</text><text fill="#000000" font-family="sans-serif" font-size="14" lengthAdjust="spacing" textLength="570" x="224" y="72.0352">copyright 2016-2017, 2019 Open Connectivity Foundation, Inc. All rights reserved.</text><line style="stroke:#A80036;stroke-width:1.0;" x1="219" x2="219" y1="56.5" y2="76.9883"/><line style="stroke:#A80036;stroke-width:1.0;" x1="144" x2="799" y1="76.9883" y2="76.9883"/><text fill="#000000" font-family="sans-serif" font-size="14" lengthAdjust="spacing" textLength="47" x="149" y="92.5234">license</text><text fill="#000000" font-family="sans-serif" font-size="14" lengthAdjust="spacing" textLength="462" x="224" y="92.5234">https://github.com/one-data-model/oneDM/blob/master/LICENSE</text><line style="stroke:#A80036;stroke-width:1.0;" x1="219" x2="219" y1="76.9883" y2="97.4766"/><line style="stroke:#A80036;stroke-width:1.0;" x1="144" x2="799" y1="97.4766" y2="97.4766"/><text fill="#000000" font-family="sans-serif" font-size="14" lengthAdjust="spacing" textLength="26" x="149" y="113.0117">title</text><text fill="#000000" font-family="sans-serif" font-size="14" lengthAdjust="spacing" textLength="66" x="224" y="113.0117">Eco Mode</text><line style="stroke:#A80036;stroke-width:1.0;" x1="219" x2="219" y1="97.4766" y2="117.9648"/><line style="stroke:#A80036;stroke-width:1.0;" x1="144" x2="799" y1="117.9648" y2="117.9648"/><text fill="#000000" font-family="sans-serif" font-size="14" lengthAdjust="spacing" textLength="50" x="149" y="133.5">version</text><text fill="#000000" font-family="sans-serif" font-size="14" lengthAdjust="spacing" textLength="88" x="224" y="133.5">2019-02-15</text><line style="stroke:#A80036;stroke-width:1.0;" x1="219" x2="219" y1="117.9648" y2="138.4531"/><rect fill="none" height="81.9531" rx="5" ry="5" style="stroke:#A80036;stroke-width:1.5;" width="655" x="144" y="56.5"/><rect fill="#FEFECE" height="20.4883" rx="5" ry="5" style="stroke:#FEFECE;stroke-width:1.5;" width="95" x="424" y="156.5"/><text fill="#000000" font-family="sans-serif" font-size="14" lengthAdjust="spacing" textLength="63" x="429" y="172.0352">ecomode</text><text fill="#000000" font-family="sans-serif" font-size="14" lengthAdjust="spacing" textLength="0" x="514" y="172.0352"/><line style="stroke:#A80036;stroke-width:1.0;" x1="497" x2="497" y1="156.5" y2="176.9883"/><rect fill="none" height="20.4883" rx="5" ry="5" style="stroke:#A80036;stroke-width:1.5;" width="95" x="424" y="156.5"/><rect fill="#FEFECE" height="160.3945" rx="5" ry="5" style="stroke:#FEFECE;stroke-width:1.5;" width="585" x="836" y="86.5"/><text fill="#000000" font-family="sans-serif" font-size="14" lengthAdjust="spacing" textLength="77" x="841" y="102.0352">description</text><text fill="#000000" font-family="sans-serif" font-size="14" lengthAdjust="spacing" textLength="468" x="934" y="102.0352">This Resource specifies the supported and currently active Eco Mode</text><text fill="#000000" font-family="sans-serif" font-size="14" lengthAdjust="spacing" textLength="458" x="934" y="118.5234">of a Device The Resource is a deriviative of the Mode Resource (oic.</text><text fill="#000000" font-family="sans-serif" font-size="14" lengthAdjust="spacing" textLength="482" x="934" y="135.0117">r. mode) with a restriction that the population of supportedmodes and</text><text fill="#000000" font-family="sans-serif" font-size="14" lengthAdjust="spacing" textLength="341" x="934" y="151.5">modes Properties is restricted to the set of values:</text><text fill="#000000" font-family="sans-serif" font-size="14" lengthAdjust="spacing" textLength="432" x="934" y="167.9883">"disabled","enabled","notsupported". The adminforced Property</text><text fill="#000000" font-family="sans-serif" font-size="14" lengthAdjust="spacing" textLength="426" x="934" y="184.4766">indicates that the value has been set by another party (e. g. via</text><text fill="#000000" font-family="sans-serif" font-size="14" lengthAdjust="spacing" textLength="279" x="934" y="200.9648">some offboard Smart Energy interaction)</text><line style="stroke:#A80036;stroke-width:1.0;" x1="929" x2="929" y1="86.5" y2="205.918"/><line style="stroke:#A80036;stroke-width:1.0;" x1="836" x2="1421" y1="205.918" y2="205.918"/><text fill="#000000" font-family="sans-serif" font-size="14" lengthAdjust="spacing" textLength="79" x="841" y="221.4531">sdfProperty</text><text fill="#000000" font-family="sans-serif" font-size="14" lengthAdjust="spacing" textLength="0" x="946" y="221.4531"/><line style="stroke:#A80036;stroke-width:1.0;" x1="929" x2="929" y1="205.918" y2="226.4063"/><line style="stroke:#A80036;stroke-width:1.0;" x1="836" x2="1421" y1="226.4063" y2="226.4063"/><text fill="#000000" font-family="sans-serif" font-size="14" lengthAdjust="spacing" textLength="83" x="841" y="241.9414">sdfRequired</text><text fill="#000000" font-family="sans-serif" font-size="14" lengthAdjust="spacing" textLength="0" x="946" y="241.9414"/><line style="stroke:#A80036;stroke-width:1.0;" x1="929" x2="929" y1="226.4063" y2="246.8945"/><rect fill="none" height="160.3945" rx="5" ry="5" style="stroke:#A80036;stroke-width:1.5;" width="585" x="836" y="86.5"/><rect fill="#FEFECE" height="61.4648" rx="5" ry="5" style="stroke:#FEFECE;stroke-width:1.5;" width="148" x="1534" y="133"/><text fill="#000000" font-family="sans-serif" font-size="14" lengthAdjust="spacing" textLength="46" x="1539" y="148.5352">modes</text><text fill="#000000" font-family="sans-serif" font-size="14" lengthAdjust="spacing" textLength="0" x="1677" y="148.5352"/><line style="stroke:#A80036;stroke-width:1.0;" x1="1660" x2="1660" y1="133" y2="153.4883"/><line style="stroke:#A80036;stroke-width:1.0;" x1="1534" x2="1682" y1="153.4883" y2="153.4883"/><text fill="#000000" font-family="sans-serif" font-size="14" lengthAdjust="spacing" textLength="116" x="1539" y="169.0234">supportedModes</text><text fill="#000000" font-family="sans-serif" font-size="14" lengthAdjust="spacing" textLength="0" x="1677" y="169.0234"/><line style="stroke:#A80036;stroke-width:1.0;" x1="1660" x2="1660" y1="153.4883" y2="173.9766"/><line style="stroke:#A80036;stroke-width:1.0;" x1="1534" x2="1682" y1="173.9766" y2="173.9766"/><text fill="#000000" font-family="sans-serif" font-size="14" lengthAdjust="spacing" textLength="87" x="1539" y="189.5117">adminforced</text><text fill="#000000" font-family="sans-serif" font-size="14" lengthAdjust="spacing" textLength="0" x="1677" y="189.5117"/><line style="stroke:#A80036;stroke-width:1.0;" x1="1660" x2="1660" y1="173.9766" y2="194.4648"/><rect fill="none" height="61.4648" rx="5" ry="5" style="stroke:#A80036;stroke-width:1.5;" width="148" x="1534" y="133"/><rect fill="#FEFECE" height="81.9531" rx="5" ry="5" style="stroke:#FEFECE;stroke-width:1.5;" width="386" x="1884.5" y="21.5"/><text fill="#000000" font-family="sans-serif" font-size="14" lengthAdjust="spacing" textLength="77" x="1889.5" y="37.0352">description</text><text fill="#000000" font-family="sans-serif" font-size="14" lengthAdjust="spacing" textLength="281" x="1984.5" y="37.0352">The array of the currently active mode(s).</text><line style="stroke:#A80036;stroke-width:1.0;" x1="1979.5" x2="1979.5" y1="21.5" y2="41.9883"/><line style="stroke:#A80036;stroke-width:1.0;" x1="1884.5" x2="2270.5" y1="41.9883" y2="41.9883"/><text fill="#000000" font-family="sans-serif" font-size="14" lengthAdjust="spacing" textLength="37" x="1889.5" y="57.5234">items</text><text fill="#000000" font-family="sans-serif" font-size="14" lengthAdjust="spacing" textLength="0" x="1996.5" y="57.5234"/><line style="stroke:#A80036;stroke-width:1.0;" x1="1979.5" x2="1979.5" y1="41.9883" y2="62.4766"/><line style="stroke:#A80036;stroke-width:1.0;" x1="1884.5" x2="2270.5" y1="62.4766" y2="62.4766"/><text fill="#000000" font-family="sans-serif" font-size="14" lengthAdjust="spacing" textLength="85" x="1889.5" y="78.0117">uniqueItems</text><text fill="#000000" font-family="sans-serif" font-size="14" lengthAdjust="spacing" textLength="44" x="1984.5" y="78.0117">☑ true</text><line style="stroke:#A80036;stroke-width:1.0;" x1="1979.5" x2="1979.5" y1="62.4766" y2="82.9648"/><line style="stroke:#A80036;stroke-width:1.0;" x1="1884.5" x2="2270.5" y1="82.9648" y2="82.9648"/><text fill="#000000" font-family="sans-serif" font-size="14" lengthAdjust="spacing" textLength="29" x="1889.5" y="98.5">type</text><text fill="#000000" font-family="sans-serif" font-size="14" lengthAdjust="spacing" textLength="35" x="1984.5" y="98.5">array</text><line style="stroke:#A80036;stroke-width:1.0;" x1="1979.5" x2="1979.5" y1="82.9648" y2="103.4531"/><rect fill="none" height="81.9531" rx="5" ry="5" style="stroke:#A80036;stroke-width:1.5;" width="386" x="1884.5" y="21.5"/><rect fill="#FEFECE" height="40.9766" rx="5" ry="5" style="stroke:#FEFECE;stroke-width:1.5;" width="99" x="2397" y="31"/><text fill="#000000" font-family="sans-serif" font-size="14" lengthAdjust="spacing" textLength="39" x="2402" y="46.5352">enum</text><text fill="#000000" font-family="sans-serif" font-size="14" lengthAdjust="spacing" textLength="0" x="2463" y="46.5352"/><line style="stroke:#A80036;stroke-width:1.0;" x1="2446" x2="2446" y1="31" y2="51.4883"/><line style="stroke:#A80036;stroke-width:1.0;" x1="2397" x2="2496" y1="51.4883" y2="51.4883"/><text fill="#000000" font-family="sans-serif" font-size="14" lengthAdjust="spacing" textLength="29" x="2402" y="67.0234">type</text><text fill="#000000" font-family="sans-serif" font-size="14" lengthAdjust="spacing" textLength="40" x="2451" y="67.0234">string</text><line style="stroke:#A80036;stroke-width:1.0;" x1="2446" x2="2446" y1="51.4883" y2="71.9766"/><rect fill="none" height="40.9766" rx="5" ry="5" style="stroke:#A80036;stroke-width:1.5;" width="99" x="2397" y="31"/><rect fill="#FEFECE" height="61.4648" rx="5" ry="5" style="stroke:#FEFECE;stroke-width:1.5;" width="104" x="2533" y="10"/><text fill="#000000" font-family="sans-serif" font-size="14" lengthAdjust="spacing" textLength="58" x="2538" y="25.5352">disabled</text><line style="stroke:#A80036;stroke-width:1.0;" x1="2533" x2="2637" y1="30.4883" y2="30.4883"/><text fill="#000000" font-family="sans-serif" font-size="14" lengthAdjust="spacing" textLength="55" x="2538" y="46.0234">enabled</text><line style="stroke:#A80036;stroke-width:1.0;" x1="2533" x2="2637" y1="50.9766" y2="50.9766"/><text fill="#000000" font-family="sans-serif" font-size="14" lengthAdjust="spacing" textLength="94" x="2538" y="66.5117">notsupported</text><rect fill="none" height="61.4648" rx="5" ry="5" style="stroke:#A80036;stroke-width:1.5;" width="104" x="2533" y="10"/><rect fill="#FEFECE" height="81.9531" rx="5" ry="5" style="stroke:#FEFECE;stroke-width:1.5;" width="433" x="1861" y="121.5"/><text fill="#000000" font-family="sans-serif" font-size="14" lengthAdjust="spacing" textLength="77" x="1866" y="137.0352">description</text><text fill="#000000" font-family="sans-serif" font-size="14" lengthAdjust="spacing" textLength="336" x="1953" y="137.0352">The array of possible modes the device supports.</text><line style="stroke:#A80036;stroke-width:1.0;" x1="1948" x2="1948" y1="121.5" y2="141.9883"/><line style="stroke:#A80036;stroke-width:1.0;" x1="1861" x2="2294" y1="141.9883" y2="141.9883"/><text fill="#000000" font-family="sans-serif" font-size="14" lengthAdjust="spacing" textLength="37" x="1866" y="157.5234">items</text><text fill="#000000" font-family="sans-serif" font-size="14" lengthAdjust="spacing" textLength="0" x="1965" y="157.5234"/><line style="stroke:#A80036;stroke-width:1.0;" x1="1948" x2="1948" y1="141.9883" y2="162.4766"/><line style="stroke:#A80036;stroke-width:1.0;" x1="1861" x2="2294" y1="162.4766" y2="162.4766"/><text fill="#000000" font-family="sans-serif" font-size="14" lengthAdjust="spacing" textLength="55" x="1866" y="178.0117">writable</text><text fill="#000000" font-family="sans-serif" font-size="14" lengthAdjust="spacing" textLength="48" x="1953" y="178.0117">☐ false</text><line style="stroke:#A80036;stroke-width:1.0;" x1="1948" x2="1948" y1="162.4766" y2="182.9648"/><line style="stroke:#A80036;stroke-width:1.0;" x1="1861" x2="2294" y1="182.9648" y2="182.9648"/><text fill="#000000" font-family="sans-serif" font-size="14" lengthAdjust="spacing" textLength="29" x="1866" y="198.5">type</text><text fill="#000000" font-family="sans-serif" font-size="14" lengthAdjust="spacing" textLength="35" x="1953" y="198.5">array</text><line style="stroke:#A80036;stroke-width:1.0;" x1="1948" x2="1948" y1="182.9648" y2="203.4531"/><rect fill="none" height="81.9531" rx="5" ry="5" style="stroke:#A80036;stroke-width:1.5;" width="433" x="1861" y="121.5"/><rect fill="#FEFECE" height="40.9766" rx="5" ry="5" style="stroke:#FEFECE;stroke-width:1.5;" width="99" x="2397" y="131"/><text fill="#000000" font-family="sans-serif" font-size="14" lengthAdjust="spacing" textLength="39" x="2402" y="146.5352">enum</text><text fill="#000000" font-family="sans-serif" font-size="14" lengthAdjust="spacing" textLength="0" x="2463" y="146.5352"/><line style="stroke:#A80036;stroke-width:1.0;" x1="2446" x2="2446" y1="131" y2="151.4883"/><line style="stroke:#A80036;stroke-width:1.0;" x1="2397" x2="2496" y1="151.4883" y2="151.4883"/><text fill="#000000" font-family="sans-serif" font-size="14" lengthAdjust="spacing" textLength="29" x="2402" y="167.0234">type</text><text fill="#000000" font-family="sans-serif" font-size="14" lengthAdjust="spacing" textLength="40" x="2451" y="167.0234">string</text><line style="stroke:#A80036;stroke-width:1.0;" x1="2446" x2="2446" y1="151.4883" y2="171.9766"/><rect fill="none" height="40.9766" rx="5" ry="5" style="stroke:#A80036;stroke-width:1.5;" width="99" x="2397" y="131"/><rect fill="#FEFECE" height="61.4648" rx="5" ry="5" style="stroke:#FEFECE;stroke-width:1.5;" width="104" x="2533" y="110"/><text fill="#000000" font-family="sans-serif" font-size="14" lengthAdjust="spacing" textLength="58" x="2538" y="125.5352">disabled</text><line style="stroke:#A80036;stroke-width:1.0;" x1="2533" x2="2637" y1="130.4883" y2="130.4883"/><text fill="#000000" font-family="sans-serif" font-size="14" lengthAdjust="spacing" textLength="55" x="2538" y="146.0234">enabled</text><line style="stroke:#A80036;stroke-width:1.0;" x1="2533" x2="2637" y1="150.9766" y2="150.9766"/><text fill="#000000" font-family="sans-serif" font-size="14" lengthAdjust="spacing" textLength="94" x="2538" y="166.5117">notsupported</text><rect fill="none" height="61.4648" rx="5" ry="5" style="stroke:#A80036;stroke-width:1.5;" width="104" x="2533" y="110"/><rect fill="#FEFECE" height="77.9531" rx="5" ry="5" style="stroke:#FEFECE;stroke-width:1.5;" width="565" x="1795" y="221.5"/><text fill="#000000" font-family="sans-serif" font-size="14" lengthAdjust="spacing" textLength="77" x="1800" y="237.0352">description</text><text fill="#000000" font-family="sans-serif" font-size="14" lengthAdjust="spacing" textLength="468" x="1887" y="237.0352">The indicator that the current mode of operation has been forced by</text><text fill="#000000" font-family="sans-serif" font-size="14" lengthAdjust="spacing" textLength="93" x="1887" y="253.5234">admin action.</text><line style="stroke:#A80036;stroke-width:1.0;" x1="1882" x2="1882" y1="221.5" y2="258.4766"/><line style="stroke:#A80036;stroke-width:1.0;" x1="1795" x2="2360" y1="258.4766" y2="258.4766"/><text fill="#000000" font-family="sans-serif" font-size="14" lengthAdjust="spacing" textLength="55" x="1800" y="274.0117">writable</text><text fill="#000000" font-family="sans-serif" font-size="14" lengthAdjust="spacing" textLength="48" x="1887" y="274.0117">☐ false</text><line style="stroke:#A80036;stroke-width:1.0;" x1="1882" x2="1882" y1="258.4766" y2="278.9648"/><line style="stroke:#A80036;stroke-width:1.0;" x1="1795" x2="2360" y1="278.9648" y2="278.9648"/><text fill="#000000" font-family="sans-serif" font-size="14" lengthAdjust="spacing" textLength="29" x="1800" y="294.5">type</text><text fill="#000000" font-family="sans-serif" font-size="14" lengthAdjust="spacing" textLength="56" x="1887" y="294.5">boolean</text><line style="stroke:#A80036;stroke-width:1.0;" x1="1882" x2="1882" y1="278.9648" y2="299.4531"/><rect fill="none" height="77.9531" rx="5" ry="5" style="stroke:#A80036;stroke-width:1.5;" width="565" x="1795" y="221.5"/><rect fill="#FEFECE" height="20.4883" rx="5" ry="5" style="stroke:#FEFECE;stroke-width:1.5;" width="300" x="1458" y="212.5"/><text fill="#000000" font-family="sans-serif" font-size="14" lengthAdjust="spacing" textLength="290" x="1463" y="228.0352">#/sdfObject/ecomode/sdfProperty/modes</text><rect fill="none" height="20.4883" rx="5" ry="5" style="stroke:#A80036;stroke-width:1.5;" width="300" x="1458" y="212.5"/><path d="M95,121.5 L108,121.5 C117.3442,121.5 126.8208,121.4198 136.3833,121.2688 " fill="none" style="stroke:#A80036;stroke-width:1.0;stroke-dasharray:3.0,3.0;"/><path d="M136.4378,124.3434 L138.6892,121.2279 L136.3288,118.1942 L144.0697,121.1326 L136.4378,124.3434 " fill="#A80036" style="stroke:#A80036;stroke-width:1.0;"/><ellipse cx="95" cy="121.5" fill="#A80036" rx="3" ry="3" style="stroke:#A80036;stroke-width:1.0;stroke-dasharray:3.0,3.0;"/><path d="M2484,40.5 L2497,40.5 C2506.2297,40.5 2516.007,40.5 2525.5522,40.5 " fill="none" style="stroke:#A80036;stroke-width:1.0;stroke-dasharray:3.0,3.0;"/><path d="M2525.5522,43.5361 L2527.8293,40.5 L2525.5522,37.4639 L2533.1425,40.5 L2525.5522,43.5361 " fill="#A80036" style="stroke:#A80036;stroke-width:1.0;"/><ellipse cx="2484" cy="40.5" fill="#A80036" rx="3" ry="3" style="stroke:#A80036;stroke-width:1.0;stroke-dasharray:3.0,3.0;"/><path d="M2259,51.5 L2272,51.5 C2311.318,51.5 2355.6336,51.5 2389.7015,51.5 " fill="none" style="stroke:#A80036;stroke-width:1.0;stroke-dasharray:3.0,3.0;"/><path d="M2389.7015,54.5189 L2391.9657,51.5 L2389.7015,48.4811 L2397.2488,51.5 L2389.7015,54.5189 " fill="#A80036" style="stroke:#A80036;stroke-width:1.0;"/><ellipse cx="2259" cy="51.5" fill="#A80036" rx="3" ry="3" style="stroke:#A80036;stroke-width:1.0;stroke-dasharray:3.0,3.0;"/><path d="M1670.5,142.5 L1683.5,142.5 C1734.8179,142.5 1744.9095,123.6569 1795,112.5 C1821.5081,106.5957 1849.5417,100.9348 1877.2433,95.6822 " fill="none" style="stroke:#A80036;stroke-width:1.0;stroke-dasharray:3.0,3.0;"/><path d="M1877.8026,98.6491 L1879.4684,95.2628 L1876.684,92.7154 L1884.6604,94.284 L1877.8026,98.6491 " fill="#A80036" style="stroke:#A80036;stroke-width:1.0;"/><ellipse cx="1670.5" cy="142.5" fill="#A80036" rx="3" ry="3" style="stroke:#A80036;stroke-width:1.0;stroke-dasharray:3.0,3.0;"/><path d="M2484,140.5 L2497,140.5 C2506.2297,140.5 2516.007,140.5 2525.5522,140.5 " fill="none" style="stroke:#A80036;stroke-width:1.0;stroke-dasharray:3.0,3.0;"/><path d="M2525.5522,143.5361 L2527.8293,140.5 L2525.5522,137.4639 L2533.1425,140.5 L2525.5522,143.5361 " fill="#A80036" style="stroke:#A80036;stroke-width:1.0;"/><ellipse cx="2484" cy="140.5" fill="#A80036" rx="3" ry="3" style="stroke:#A80036;stroke-width:1.0;stroke-dasharray:3.0,3.0;"/><path d="M2283,151.5 L2296,151.5 C2326.9448,151.5 2361.4806,151.5 2389.6064,151.5 " fill="none" style="stroke:#A80036;stroke-width:1.0;stroke-dasharray:3.0,3.0;"/><path d="M2389.6064,154.6019 L2391.9328,151.5 L2389.6064,148.3981 L2397.361,151.5 L2389.6064,154.6019 " fill="#A80036" style="stroke:#A80036;stroke-width:1.0;"/><ellipse cx="2283" cy="151.5" fill="#A80036" rx="3" ry="3" style="stroke:#A80036;stroke-width:1.0;stroke-dasharray:3.0,3.0;"/><path d="M1670.5,162.5 L1683.5,162.5 C1738.5522,162.5 1797.9369,162.5 1853.4713,162.5 " fill="none" style="stroke:#A80036;stroke-width:1.0;stroke-dasharray:3.0,3.0;"/><path d="M1853.4713,165.6239 L1855.8142,162.5 L1853.4713,159.3761 L1861.281,162.5 L1853.4713,165.6239 " fill="#A80036" style="stroke:#A80036;stroke-width:1.0;"/><ellipse cx="1670.5" cy="162.5" fill="#A80036" rx="3" ry="3" style="stroke:#A80036;stroke-width:1.0;stroke-dasharray:3.0,3.0;"/><path d="M1670.5,183.5 L1683.5,183.5 C1734.7043,183.5 1744.937,201.7496 1795,212.5 C1806.862,215.0472 1819.0281,217.5454 1831.3322,219.9807 " fill="none" style="stroke:#A80036;stroke-width:1.0;stroke-dasharray:3.0,3.0;"/><path d="M1830.729,223.0516 L1833.6355,220.4331 L1831.9355,216.9097 L1839.0097,221.4887 L1830.729,223.0516 " fill="#A80036" style="stroke:#A80036;stroke-width:1.0;"/><ellipse cx="1670.5" cy="183.5" fill="#A80036" rx="3" ry="3" style="stroke:#A80036;stroke-width:1.0;stroke-dasharray:3.0,3.0;"/><path d="M1409,165.5 L1422,165.5 C1456.2888,165.5 1494.1408,165.1541 1526.6619,164.75 " fill="none" style="stroke:#A80036;stroke-width:1.0;stroke-dasharray:3.0,3.0;"/><path d="M1526.7011,167.8356 L1528.9761,164.7205 L1526.6226,161.6643 L1534.376,164.6518 L1526.7011,167.8356 " fill="#A80036" style="stroke:#A80036;stroke-width:1.0;"/><ellipse cx="1409" cy="165.5" fill="#A80036" rx="3" ry="3" style="stroke:#A80036;stroke-width:1.0;stroke-dasharray:3.0,3.0;"/><path d="M1409,219.5 L1422,219.5 C1431.34,219.5 1440.9442,219.5385 1450.6329,219.6068 " fill="none" style="stroke:#A80036;stroke-width:1.0;stroke-dasharray:3.0,3.0;"/><path d="M1450.6085,222.7207 L1452.9683,219.625 L1450.6572,216.4928 L1458.4177,219.6677 L1450.6085,222.7207 " fill="#A80036" style="stroke:#A80036;stroke-width:1.0;"/><ellipse cx="1409" cy="219.5" fill="#A80036" rx="3" ry="3" style="stroke:#A80036;stroke-width:1.0;stroke-dasharray:3.0,3.0;"/><path d="M508,166.5 L521,166.5 C621.1386,166.5 730.5697,166.5 828.5976,166.5 " fill="none" style="stroke:#A80036;stroke-width:1.0;stroke-dasharray:3.0,3.0;"/><path d="M828.5976,169.5552 L830.889,166.5 L828.5976,163.4448 L836.2356,166.5 L828.5976,169.5552 " fill="#A80036" style="stroke:#A80036;stroke-width:1.0;"/><ellipse cx="508" cy="166.5" fill="#A80036" rx="3" ry="3" style="stroke:#A80036;stroke-width:1.0;stroke-dasharray:3.0,3.0;"/><path d="M95,142.5 L108,142.5 C124.1536,142.5 127.924,145.9191 144,147.5 C239.7139,156.9123 351.6816,162.1808 416.6527,164.6726 " fill="none" style="stroke:#A80036;stroke-width:1.0;stroke-dasharray:3.0,3.0;"/><path d="M416.5366,167.7471 L418.9585,164.7597 L416.7688,161.5982 L424.3388,164.9629 L416.5366,167.7471 " fill="#A80036" style="stroke:#A80036;stroke-width:1.0;"/><ellipse cx="95" cy="142.5" fill="#A80036" rx="3" ry="3" style="stroke:#A80036;stroke-width:1.0;stroke-dasharray:3.0,3.0;"/><!--MD5=[8ee1568987955a56a229b39354c04ab3]
@startjson
{
  "info": {
    "copyright": "copyright 2016-2017, 2019 Open Connectivity Foundation, Inc. All rights reserved.",
    "license": "https://github.com/one-data-model/oneDM/blob/master/LICENSE",
    "title": "Eco Mode",
    "version": "2019-02-15"
  },
  "sdfObject": {
    "ecomode": {
      "description": "This Resource specifies the supported and currently active Eco Mode\\nof a Device The Resource is a deriviative of the Mode Resource (oic.\\nr. mode) with a restriction that the population of supportedmodes and\\nmodes Properties is restricted to the set of values:\\n\"disabled\",\"enabled\",\"notsupported\". The adminforced Property\\nindicates that the value has been set by another party (e. g. via\\nsome offboard Smart Energy interaction)",
      "sdfProperty": {
        "modes": {
          "description": "The array of the currently active mode(s).",
          "items": {
            "enum": [
              "disabled",
              "enabled",
              "notsupported"
            ],
            "type": "string"
          },
          "uniqueItems": true,
          "type": "array"
        },
        "supportedModes": {
          "description": "The array of possible modes the device supports.",
          "items": {
            "enum": [
              "disabled",
              "enabled",
              "notsupported"
            ],
            "type": "string"
          },
          "writable": false,
          "type": "array"
        },
        "adminforced": {
          "description": "The indicator that the current mode of operation has been forced by\\nadmin action.",
          "writable": false,
          "type": "boolean"
        }
      },
      "sdfRequired": [
        "#/sdfObject/ecomode/sdfProperty/modes"
      ]
    }
  }
}
@endjson

PlantUML version 1.2021.2(Sun Mar 07 13:10:27 EET 2021)
(GPL source distribution)
Java Runtime: OpenJDK Runtime Environment
JVM: OpenJDK 64-Bit Server VM
Default Encoding: UTF-8
Language: en
Country: FI
--></g></svg>