<?xml version="1.0" encoding="UTF-8" standalone="no"?><svg xmlns="http://www.w3.org/2000/svg" xmlns:xlink="http://www.w3.org/1999/xlink" contentScriptType="application/ecmascript" contentStyleType="text/css" height="211px" preserveAspectRatio="none" style="width:2342px;height:211px;" version="1.1" viewBox="0 0 2342 211" width="2342px" zoomAndPan="magnify"><defs/><g><rect fill="#FEFECE" height="40.9766" rx="5" ry="5" style="stroke:#FEFECE;stroke-width:1.5;" width="97" x="10" y="65.5"/><text fill="#000000" font-family="sans-serif" font-size="14" lengthAdjust="spacing" textLength="27" x="15" y="81.0352">info</text><text fill="#000000" font-family="sans-serif" font-size="14" lengthAdjust="spacing" textLength="0" x="102" y="81.0352"/><line style="stroke:#A80036;stroke-width:1.0;" x1="85" x2="85" y1="65.5" y2="85.9883"/><line style="stroke:#A80036;stroke-width:1.0;" x1="10" x2="107" y1="85.9883" y2="85.9883"/><text fill="#000000" font-family="sans-serif" font-size="14" lengthAdjust="spacing" textLength="65" x="15" y="101.5234">sdfObject</text><text fill="#000000" font-family="sans-serif" font-size="14" lengthAdjust="spacing" textLength="0" x="102" y="101.5234"/><line style="stroke:#A80036;stroke-width:1.0;" x1="85" x2="85" y1="85.9883" y2="106.4766"/><rect fill="none" height="40.9766" rx="5" ry="5" style="stroke:#A80036;stroke-width:1.5;" width="97" x="10" y="65.5"/><rect fill="#FEFECE" height="81.9531" rx="5" ry="5" style="stroke:#FEFECE;stroke-width:1.5;" width="655" x="144" y="10"/><text fill="#000000" font-family="sans-serif" font-size="14" lengthAdjust="spacing" textLength="65" x="149" y="25.5352">copyright</text><text fill="#000000" font-family="sans-serif" font-size="14" lengthAdjust="spacing" textLength="570" x="224" y="25.5352">copyright 2016-2017, 2019 Open Connectivity Foundation, Inc. All rights reserved.</text><line style="stroke:#A80036;stroke-width:1.0;" x1="219" x2="219" y1="10" y2="30.4883"/><line style="stroke:#A80036;stroke-width:1.0;" x1="144" x2="799" y1="30.4883" y2="30.4883"/><text fill="#000000" font-family="sans-serif" font-size="14" lengthAdjust="spacing" textLength="47" x="149" y="46.0234">license</text><text fill="#000000" font-family="sans-serif" font-size="14" lengthAdjust="spacing" textLength="462" x="224" y="46.0234">https://github.com/one-data-model/oneDM/blob/master/LICENSE</text><line style="stroke:#A80036;stroke-width:1.0;" x1="219" x2="219" y1="30.4883" y2="50.9766"/><line style="stroke:#A80036;stroke-width:1.0;" x1="144" x2="799" y1="50.9766" y2="50.9766"/><text fill="#000000" font-family="sans-serif" font-size="14" lengthAdjust="spacing" textLength="26" x="149" y="66.5117">title</text><text fill="#000000" font-family="sans-serif" font-size="14" lengthAdjust="spacing" textLength="38" x="224" y="66.5117">Mode</text><line style="stroke:#A80036;stroke-width:1.0;" x1="219" x2="219" y1="50.9766" y2="71.4648"/><line style="stroke:#A80036;stroke-width:1.0;" x1="144" x2="799" y1="71.4648" y2="71.4648"/><text fill="#000000" font-family="sans-serif" font-size="14" lengthAdjust="spacing" textLength="50" x="149" y="87">version</text><text fill="#000000" font-family="sans-serif" font-size="14" lengthAdjust="spacing" textLength="88" x="224" y="87">2019-02-15</text><line style="stroke:#A80036;stroke-width:1.0;" x1="219" x2="219" y1="71.4648" y2="91.9531"/><rect fill="none" height="81.9531" rx="5" ry="5" style="stroke:#A80036;stroke-width:1.5;" width="655" x="144" y="10"/><rect fill="#FEFECE" height="20.4883" rx="5" ry="5" style="stroke:#FEFECE;stroke-width:1.5;" width="71" x="436" y="110"/><text fill="#000000" font-family="sans-serif" font-size="14" lengthAdjust="spacing" textLength="39" x="441" y="125.5352">mode</text><text fill="#000000" font-family="sans-serif" font-size="14" lengthAdjust="spacing" textLength="0" x="502" y="125.5352"/><line style="stroke:#A80036;stroke-width:1.0;" x1="485" x2="485" y1="110" y2="130.4883"/><rect fill="none" height="20.4883" rx="5" ry="5" style="stroke:#A80036;stroke-width:1.5;" width="71" x="436" y="110"/><rect fill="#FEFECE" height="110.9297" rx="5" ry="5" style="stroke:#FEFECE;stroke-width:1.5;" width="585" x="836" y="64.5"/><text fill="#000000" font-family="sans-serif" font-size="14" lengthAdjust="spacing" textLength="77" x="841" y="80.0352">description</text><text fill="#000000" font-family="sans-serif" font-size="14" lengthAdjust="spacing" textLength="449" x="934" y="80.0352">This Resource describes the modes of operation that a Device can</text><text fill="#000000" font-family="sans-serif" font-size="14" lengthAdjust="spacing" textLength="482" x="934" y="96.5234">provide. The mode can be read or set. The Property "supportedModes"</text><text fill="#000000" font-family="sans-serif" font-size="14" lengthAdjust="spacing" textLength="434" x="934" y="113.0117">is an array of possible modes the device supports. The Property</text><text fill="#000000" font-family="sans-serif" font-size="14" lengthAdjust="spacing" textLength="347" x="934" y="129.5">"modes" is an array of the currently active mode(s).</text><line style="stroke:#A80036;stroke-width:1.0;" x1="929" x2="929" y1="64.5" y2="134.4531"/><line style="stroke:#A80036;stroke-width:1.0;" x1="836" x2="1421" y1="134.4531" y2="134.4531"/><text fill="#000000" font-family="sans-serif" font-size="14" lengthAdjust="spacing" textLength="79" x="841" y="149.9883">sdfProperty</text><text fill="#000000" font-family="sans-serif" font-size="14" lengthAdjust="spacing" textLength="0" x="946" y="149.9883"/><line style="stroke:#A80036;stroke-width:1.0;" x1="929" x2="929" y1="134.4531" y2="154.9414"/><line style="stroke:#A80036;stroke-width:1.0;" x1="836" x2="1421" y1="154.9414" y2="154.9414"/><text fill="#000000" font-family="sans-serif" font-size="14" lengthAdjust="spacing" textLength="83" x="841" y="170.4766">sdfRequired</text><text fill="#000000" font-family="sans-serif" font-size="14" lengthAdjust="spacing" textLength="0" x="946" y="170.4766"/><line style="stroke:#A80036;stroke-width:1.0;" x1="929" x2="929" y1="154.9414" y2="175.4297"/><rect fill="none" height="110.9297" rx="5" ry="5" style="stroke:#A80036;stroke-width:1.5;" width="585" x="836" y="64.5"/><rect fill="#FEFECE" height="40.9766" rx="5" ry="5" style="stroke:#FEFECE;stroke-width:1.5;" width="148" x="1522" y="93.5"/><text fill="#000000" font-family="sans-serif" font-size="14" lengthAdjust="spacing" textLength="46" x="1527" y="109.0352">modes</text><text fill="#000000" font-family="sans-serif" font-size="14" lengthAdjust="spacing" textLength="0" x="1665" y="109.0352"/><line style="stroke:#A80036;stroke-width:1.0;" x1="1648" x2="1648" y1="93.5" y2="113.9883"/><line style="stroke:#A80036;stroke-width:1.0;" x1="1522" x2="1670" y1="113.9883" y2="113.9883"/><text fill="#000000" font-family="sans-serif" font-size="14" lengthAdjust="spacing" textLength="116" x="1527" y="129.5234">supportedModes</text><text fill="#000000" font-family="sans-serif" font-size="14" lengthAdjust="spacing" textLength="0" x="1665" y="129.5234"/><line style="stroke:#A80036;stroke-width:1.0;" x1="1648" x2="1648" y1="113.9883" y2="134.4766"/><rect fill="none" height="40.9766" rx="5" ry="5" style="stroke:#A80036;stroke-width:1.5;" width="148" x="1522" y="93.5"/><rect fill="#FEFECE" height="61.4648" rx="5" ry="5" style="stroke:#FEFECE;stroke-width:1.5;" width="378" x="1798.5" y="38.5"/><text fill="#000000" font-family="sans-serif" font-size="14" lengthAdjust="spacing" textLength="77" x="1803.5" y="54.0352">description</text><text fill="#000000" font-family="sans-serif" font-size="14" lengthAdjust="spacing" textLength="281" x="1890.5" y="54.0352">The array of the currently active mode(s).</text><line style="stroke:#A80036;stroke-width:1.0;" x1="1885.5" x2="1885.5" y1="38.5" y2="58.9883"/><line style="stroke:#A80036;stroke-width:1.0;" x1="1798.5" x2="2176.5" y1="58.9883" y2="58.9883"/><text fill="#000000" font-family="sans-serif" font-size="14" lengthAdjust="spacing" textLength="37" x="1803.5" y="74.5234">items</text><text fill="#000000" font-family="sans-serif" font-size="14" lengthAdjust="spacing" textLength="0" x="1902.5" y="74.5234"/><line style="stroke:#A80036;stroke-width:1.0;" x1="1885.5" x2="1885.5" y1="58.9883" y2="79.4766"/><line style="stroke:#A80036;stroke-width:1.0;" x1="1798.5" x2="2176.5" y1="79.4766" y2="79.4766"/><text fill="#000000" font-family="sans-serif" font-size="14" lengthAdjust="spacing" textLength="29" x="1803.5" y="95.0117">type</text><text fill="#000000" font-family="sans-serif" font-size="14" lengthAdjust="spacing" textLength="35" x="1890.5" y="95.0117">array</text><line style="stroke:#A80036;stroke-width:1.0;" x1="1885.5" x2="1885.5" y1="79.4766" y2="99.9648"/><rect fill="none" height="61.4648" rx="5" ry="5" style="stroke:#A80036;stroke-width:1.5;" width="378" x="1798.5" y="38.5"/><rect fill="#FEFECE" height="20.4883" rx="5" ry="5" style="stroke:#FEFECE;stroke-width:1.5;" width="89" x="2241" y="58"/><text fill="#000000" font-family="sans-serif" font-size="14" lengthAdjust="spacing" textLength="29" x="2246" y="73.5352">type</text><text fill="#000000" font-family="sans-serif" font-size="14" lengthAdjust="spacing" textLength="40" x="2285" y="73.5352">string</text><line style="stroke:#A80036;stroke-width:1.0;" x1="2280" x2="2280" y1="58" y2="78.4883"/><rect fill="none" height="20.4883" rx="5" ry="5" style="stroke:#A80036;stroke-width:1.5;" width="89" x="2241" y="58"/><rect fill="#FEFECE" height="81.9531" rx="5" ry="5" style="stroke:#FEFECE;stroke-width:1.5;" width="433" x="1771" y="118"/><text fill="#000000" font-family="sans-serif" font-size="14" lengthAdjust="spacing" textLength="77" x="1776" y="133.5352">description</text><text fill="#000000" font-family="sans-serif" font-size="14" lengthAdjust="spacing" textLength="336" x="1863" y="133.5352">The array of possible modes the device supports.</text><line style="stroke:#A80036;stroke-width:1.0;" x1="1858" x2="1858" y1="118" y2="138.4883"/><line style="stroke:#A80036;stroke-width:1.0;" x1="1771" x2="2204" y1="138.4883" y2="138.4883"/><text fill="#000000" font-family="sans-serif" font-size="14" lengthAdjust="spacing" textLength="37" x="1776" y="154.0234">items</text><text fill="#000000" font-family="sans-serif" font-size="14" lengthAdjust="spacing" textLength="0" x="1875" y="154.0234"/><line style="stroke:#A80036;stroke-width:1.0;" x1="1858" x2="1858" y1="138.4883" y2="158.9766"/><line style="stroke:#A80036;stroke-width:1.0;" x1="1771" x2="2204" y1="158.9766" y2="158.9766"/><text fill="#000000" font-family="sans-serif" font-size="14" lengthAdjust="spacing" textLength="55" x="1776" y="174.5117">writable</text><text fill="#000000" font-family="sans-serif" font-size="14" lengthAdjust="spacing" textLength="48" x="1863" y="174.5117">☐ false</text><line style="stroke:#A80036;stroke-width:1.0;" x1="1858" x2="1858" y1="158.9766" y2="179.4648"/><line style="stroke:#A80036;stroke-width:1.0;" x1="1771" x2="2204" y1="179.4648" y2="179.4648"/><text fill="#000000" font-family="sans-serif" font-size="14" lengthAdjust="spacing" textLength="29" x="1776" y="195">type</text><text fill="#000000" font-family="sans-serif" font-size="14" lengthAdjust="spacing" textLength="35" x="1863" y="195">array</text><line style="stroke:#A80036;stroke-width:1.0;" x1="1858" x2="1858" y1="179.4648" y2="199.9531"/><rect fill="none" height="81.9531" rx="5" ry="5" style="stroke:#A80036;stroke-width:1.5;" width="433" x="1771" y="118"/><rect fill="#FEFECE" height="20.4883" rx="5" ry="5" style="stroke:#FEFECE;stroke-width:1.5;" width="89" x="2241" y="138"/><text fill="#000000" font-family="sans-serif" font-size="14" lengthAdjust="spacing" textLength="29" x="2246" y="153.5352">type</text><text fill="#000000" font-family="sans-serif" font-size="14" lengthAdjust="spacing" textLength="40" x="2285" y="153.5352">string</text><line style="stroke:#A80036;stroke-width:1.0;" x1="2280" x2="2280" y1="138" y2="158.4883"/><rect fill="none" height="20.4883" rx="5" ry="5" style="stroke:#A80036;stroke-width:1.5;" width="89" x="2241" y="138"/><rect fill="#FEFECE" height="20.4883" rx="5" ry="5" style="stroke:#FEFECE;stroke-width:1.5;" width="276" x="1458" y="153"/><text fill="#000000" font-family="sans-serif" font-size="14" lengthAdjust="spacing" textLength="266" x="1463" y="168.5352">#/sdfObject/mode/sdfProperty/modes</text><rect fill="none" height="20.4883" rx="5" ry="5" style="stroke:#A80036;stroke-width:1.5;" width="276" x="1458" y="153"/><path d="M95,75 L108,75 C117.3442,75 126.8208,74.9198 136.3833,74.7688 " fill="none" style="stroke:#A80036;stroke-width:1.0;stroke-dasharray:3.0,3.0;"/><path d="M136.4378,77.8434 L138.6892,74.7279 L136.3288,71.6942 L144.0697,74.6326 L136.4378,77.8434 " fill="#A80036" style="stroke:#A80036;stroke-width:1.0;"/><ellipse cx="95" cy="75" fill="#A80036" rx="3" ry="3" style="stroke:#A80036;stroke-width:1.0;stroke-dasharray:3.0,3.0;"/><path d="M2165,68 L2178,68 C2196.0423,68 2215.7959,68 2233.3653,68 " fill="none" style="stroke:#A80036;stroke-width:1.0;stroke-dasharray:3.0,3.0;"/><path d="M2233.3653,71.1619 L2235.7367,68 L2233.3653,64.8381 L2241.27,68 L2233.3653,71.1619 " fill="#A80036" style="stroke:#A80036;stroke-width:1.0;"/><ellipse cx="2165" cy="68" fill="#A80036" rx="3" ry="3" style="stroke:#A80036;stroke-width:1.0;stroke-dasharray:3.0,3.0;"/><path d="M1658.5,103 L1671.5,103 C1710.2362,103 1751.4943,100.4351 1790.967,96.7143 " fill="none" style="stroke:#A80036;stroke-width:1.0;stroke-dasharray:3.0,3.0;"/><path d="M1791.2707,99.8621 L1793.3278,96.4866 L1790.6633,93.5666 L1798.8364,95.9552 L1791.2707,99.8621 " fill="#A80036" style="stroke:#A80036;stroke-width:1.0;"/><ellipse cx="1658.5" cy="103" fill="#A80036" rx="3" ry="3" style="stroke:#A80036;stroke-width:1.0;stroke-dasharray:3.0,3.0;"/><path d="M2192,148 L2205,148 C2214.3153,148 2224.2408,148 2233.8173,148 " fill="none" style="stroke:#A80036;stroke-width:1.0;stroke-dasharray:3.0,3.0;"/><path d="M2233.8173,151.0348 L2236.0934,148 L2233.8173,144.9652 L2241.4043,148 L2233.8173,151.0348 " fill="#A80036" style="stroke:#A80036;stroke-width:1.0;"/><ellipse cx="2192" cy="148" fill="#A80036" rx="3" ry="3" style="stroke:#A80036;stroke-width:1.0;stroke-dasharray:3.0,3.0;"/><path d="M1658.5,124 L1671.5,124 C1701.3478,124 1732.6877,125.5666 1763.5524,128.0368 " fill="none" style="stroke:#A80036;stroke-width:1.0;stroke-dasharray:3.0,3.0;"/><path d="M1763.2935,131.171 L1765.903,128.231 L1763.8112,124.9026 L1771.3879,128.6839 L1763.2935,131.171 " fill="#A80036" style="stroke:#A80036;stroke-width:1.0;"/><ellipse cx="1658.5" cy="124" fill="#A80036" rx="3" ry="3" style="stroke:#A80036;stroke-width:1.0;stroke-dasharray:3.0,3.0;"/><path d="M1409,120 L1422,120 C1452.2955,120 1485.5489,119.075 1514.7667,117.9513 " fill="none" style="stroke:#A80036;stroke-width:1.0;stroke-dasharray:3.0,3.0;"/><path d="M1514.8889,121.0438 L1517.086,117.8597 L1514.6445,114.8589 L1522.4979,117.6459 L1514.8889,121.0438 " fill="#A80036" style="stroke:#A80036;stroke-width:1.0;"/><ellipse cx="1409" cy="120" fill="#A80036" rx="3" ry="3" style="stroke:#A80036;stroke-width:1.0;stroke-dasharray:3.0,3.0;"/><path d="M1409,157 L1422,157 C1431.275,157 1440.8272,157.0867 1450.4559,157.2393 " fill="none" style="stroke:#A80036;stroke-width:1.0;stroke-dasharray:3.0,3.0;"/><path d="M1450.4015,160.3331 L1452.7763,157.2801 L1450.5104,154.1454 L1458.1906,157.3753 L1450.4015,160.3331 " fill="#A80036" style="stroke:#A80036;stroke-width:1.0;"/><ellipse cx="1409" cy="157" fill="#A80036" rx="3" ry="3" style="stroke:#A80036;stroke-width:1.0;stroke-dasharray:3.0,3.0;"/><path d="M496,120 L509,120 C613.1864,120 727.2367,120 828.7377,120 " fill="none" style="stroke:#A80036;stroke-width:1.0;stroke-dasharray:3.0,3.0;"/><path d="M828.7377,123.0385 L831.0166,120 L828.7377,116.9615 L836.334,120 L828.7377,123.0385 " fill="#A80036" style="stroke:#A80036;stroke-width:1.0;"/><ellipse cx="496" cy="120" fill="#A80036" rx="3" ry="3" style="stroke:#A80036;stroke-width:1.0;stroke-dasharray:3.0,3.0;"/><path d="M95,96 L108,96 C124.1536,96 127.924,99.4191 144,101 C245.7607,111.0069 365.8938,116.3299 428.3878,118.612 " fill="none" style="stroke:#A80036;stroke-width:1.0;stroke-dasharray:3.0,3.0;"/><path d="M428.2773,121.6905 L430.6967,118.6949 L428.4983,115.5335 L436.0841,118.8883 L428.2773,121.6905 " fill="#A80036" style="stroke:#A80036;stroke-width:1.0;"/><ellipse cx="95" cy="96" fill="#A80036" rx="3" ry="3" style="stroke:#A80036;stroke-width:1.0;stroke-dasharray:3.0,3.0;"/><!--MD5=[2d26e62736767b03c5adb4bedf96f8fd]
@startjson
{
  "info": {
    "copyright": "copyright 2016-2017, 2019 Open Connectivity Foundation, Inc. All rights reserved.",
    "license": "https://github.com/one-data-model/oneDM/blob/master/LICENSE",
    "title": "Mode",
    "version": "2019-02-15"
  },
  "sdfObject": {
    "mode": {
      "description": "This Resource describes the modes of operation that a Device can\\nprovide. The mode can be read or set. The Property \"supportedModes\"\\nis an array of possible modes the device supports. The Property\\n\"modes\" is an array of the currently active mode(s).",
      "sdfProperty": {
        "modes": {
          "description": "The array of the currently active mode(s).",
          "items": {
            "type": "string"
          },
          "type": "array"
        },
        "supportedModes": {
          "description": "The array of possible modes the device supports.",
          "items": {
            "type": "string"
          },
          "writable": false,
          "type": "array"
        }
      },
      "sdfRequired": [
        "#/sdfObject/mode/sdfProperty/modes"
      ]
    }
  }
}
@endjson

PlantUML version 1.2021.2(Sun Mar 07 13:10:27 EET 2021)
(GPL source distribution)
Java Runtime: OpenJDK Runtime Environment
JVM: OpenJDK 64-Bit Server VM
Default Encoding: UTF-8
Language: en
Country: FI
--></g></svg>