<?xml version="1.0" encoding="UTF-8" standalone="no"?><svg xmlns="http://www.w3.org/2000/svg" xmlns:xlink="http://www.w3.org/1999/xlink" contentScriptType="application/ecmascript" contentStyleType="text/css" height="656px" preserveAspectRatio="none" style="width:2447px;height:656px;" version="1.1" viewBox="0 0 2447 656" width="2447px" zoomAndPan="magnify"><defs/><g><rect fill="#FEFECE" height="40.9766" rx="5" ry="5" style="stroke:#FEFECE;stroke-width:1.5;" width="97" x="10" y="269.5"/><text fill="#000000" font-family="sans-serif" font-size="14" lengthAdjust="spacing" textLength="27" x="15" y="285.0352">info</text><text fill="#000000" font-family="sans-serif" font-size="14" lengthAdjust="spacing" textLength="0" x="102" y="285.0352"/><line style="stroke:#A80036;stroke-width:1.0;" x1="85" x2="85" y1="269.5" y2="289.9883"/><line style="stroke:#A80036;stroke-width:1.0;" x1="10" x2="107" y1="289.9883" y2="289.9883"/><text fill="#000000" font-family="sans-serif" font-size="14" lengthAdjust="spacing" textLength="65" x="15" y="305.5234">sdfObject</text><text fill="#000000" font-family="sans-serif" font-size="14" lengthAdjust="spacing" textLength="0" x="102" y="305.5234"/><line style="stroke:#A80036;stroke-width:1.0;" x1="85" x2="85" y1="289.9883" y2="310.4766"/><rect fill="none" height="40.9766" rx="5" ry="5" style="stroke:#A80036;stroke-width:1.5;" width="97" x="10" y="269.5"/><rect fill="#FEFECE" height="81.9531" rx="5" ry="5" style="stroke:#FEFECE;stroke-width:1.5;" width="614" x="144" y="214"/><text fill="#000000" font-family="sans-serif" font-size="14" lengthAdjust="spacing" textLength="65" x="149" y="229.5352">copyright</text><text fill="#000000" font-family="sans-serif" font-size="14" lengthAdjust="spacing" textLength="529" x="224" y="229.5352">Copyright 2016-2019 Open Connectivity Foundation, Inc. All rights reserved.</text><line style="stroke:#A80036;stroke-width:1.0;" x1="219" x2="219" y1="214" y2="234.4883"/><line style="stroke:#A80036;stroke-width:1.0;" x1="144" x2="758" y1="234.4883" y2="234.4883"/><text fill="#000000" font-family="sans-serif" font-size="14" lengthAdjust="spacing" textLength="47" x="149" y="250.0234">license</text><text fill="#000000" font-family="sans-serif" font-size="14" lengthAdjust="spacing" textLength="462" x="224" y="250.0234">https://github.com/one-data-model/oneDM/blob/master/LICENSE</text><line style="stroke:#A80036;stroke-width:1.0;" x1="219" x2="219" y1="234.4883" y2="254.9766"/><line style="stroke:#A80036;stroke-width:1.0;" x1="144" x2="758" y1="254.9766" y2="254.9766"/><text fill="#000000" font-family="sans-serif" font-size="14" lengthAdjust="spacing" textLength="26" x="149" y="270.5117">title</text><text fill="#000000" font-family="sans-serif" font-size="14" lengthAdjust="spacing" textLength="58" x="224" y="270.5117">Body Fat</text><line style="stroke:#A80036;stroke-width:1.0;" x1="219" x2="219" y1="254.9766" y2="275.4648"/><line style="stroke:#A80036;stroke-width:1.0;" x1="144" x2="758" y1="275.4648" y2="275.4648"/><text fill="#000000" font-family="sans-serif" font-size="14" lengthAdjust="spacing" textLength="50" x="149" y="291">version</text><text fill="#000000" font-family="sans-serif" font-size="14" lengthAdjust="spacing" textLength="88" x="224" y="291">2019-03-22</text><line style="stroke:#A80036;stroke-width:1.0;" x1="219" x2="219" y1="275.4648" y2="295.9531"/><rect fill="none" height="81.9531" rx="5" ry="5" style="stroke:#A80036;stroke-width:1.5;" width="614" x="144" y="214"/><rect fill="#FEFECE" height="20.4883" rx="5" ry="5" style="stroke:#FEFECE;stroke-width:1.5;" width="88" x="407" y="314"/><text fill="#000000" font-family="sans-serif" font-size="14" lengthAdjust="spacing" textLength="56" x="412" y="329.5352">body.fat</text><text fill="#000000" font-family="sans-serif" font-size="14" lengthAdjust="spacing" textLength="0" x="490" y="329.5352"/><line style="stroke:#A80036;stroke-width:1.0;" x1="473" x2="473" y1="314" y2="334.4883"/><rect fill="none" height="20.4883" rx="5" ry="5" style="stroke:#A80036;stroke-width:1.5;" width="88" x="407" y="314"/><rect fill="#FEFECE" height="143.9063" rx="5" ry="5" style="stroke:#FEFECE;stroke-width:1.5;" width="557" x="795" y="252"/><text fill="#000000" font-family="sans-serif" font-size="14" lengthAdjust="spacing" textLength="77" x="800" y="267.5352">description</text><text fill="#000000" font-family="sans-serif" font-size="14" lengthAdjust="spacing" textLength="448" x="893" y="267.5352">This Resource describes the Properties associated with a person's</text><text fill="#000000" font-family="sans-serif" font-size="14" lengthAdjust="spacing" textLength="388" x="893" y="284.0234">body fat. The unit is a single value that is one of kg, lb or</text><text fill="#000000" font-family="sans-serif" font-size="14" lengthAdjust="spacing" textLength="425" x="893" y="300.5117">percent. If the unit Property is missing the default is kilograms</text><text fill="#000000" font-family="sans-serif" font-size="14" lengthAdjust="spacing" textLength="454" x="893" y="317">[kg]. The bodyfat and unit Properties are read-only values that are</text><text fill="#000000" font-family="sans-serif" font-size="14" lengthAdjust="spacing" textLength="440" x="893" y="333.4883">provided by the Server. When range is omitted the default is 0 to</text><text fill="#000000" font-family="sans-serif" font-size="14" lengthAdjust="spacing" textLength="91" x="893" y="349.9766">+MAXFLOAT.</text><line style="stroke:#A80036;stroke-width:1.0;" x1="888" x2="888" y1="252" y2="354.9297"/><line style="stroke:#A80036;stroke-width:1.0;" x1="795" x2="1352" y1="354.9297" y2="354.9297"/><text fill="#000000" font-family="sans-serif" font-size="14" lengthAdjust="spacing" textLength="79" x="800" y="370.4648">sdfProperty</text><text fill="#000000" font-family="sans-serif" font-size="14" lengthAdjust="spacing" textLength="0" x="905" y="370.4648"/><line style="stroke:#A80036;stroke-width:1.0;" x1="888" x2="888" y1="354.9297" y2="375.418"/><line style="stroke:#A80036;stroke-width:1.0;" x1="795" x2="1352" y1="375.418" y2="375.418"/><text fill="#000000" font-family="sans-serif" font-size="14" lengthAdjust="spacing" textLength="83" x="800" y="390.9531">sdfRequired</text><text fill="#000000" font-family="sans-serif" font-size="14" lengthAdjust="spacing" textLength="0" x="905" y="390.9531"/><line style="stroke:#A80036;stroke-width:1.0;" x1="888" x2="888" y1="375.418" y2="395.9063"/><rect fill="none" height="143.9063" rx="5" ry="5" style="stroke:#A80036;stroke-width:1.5;" width="557" x="795" y="252"/><rect fill="#FEFECE" height="102.4414" rx="5" ry="5" style="stroke:#FEFECE;stroke-width:1.5;" width="95" x="1491" y="258"/><text fill="#000000" font-family="sans-serif" font-size="14" lengthAdjust="spacing" textLength="52" x="1496" y="273.5352">bodyfat</text><text fill="#000000" font-family="sans-serif" font-size="14" lengthAdjust="spacing" textLength="0" x="1581" y="273.5352"/><line style="stroke:#A80036;stroke-width:1.0;" x1="1564" x2="1564" y1="258" y2="278.4883"/><line style="stroke:#A80036;stroke-width:1.0;" x1="1491" x2="1586" y1="278.4883" y2="278.4883"/><text fill="#000000" font-family="sans-serif" font-size="14" lengthAdjust="spacing" textLength="34" x="1496" y="294.0234">units</text><text fill="#000000" font-family="sans-serif" font-size="14" lengthAdjust="spacing" textLength="0" x="1581" y="294.0234"/><line style="stroke:#A80036;stroke-width:1.0;" x1="1564" x2="1564" y1="278.4883" y2="298.9766"/><line style="stroke:#A80036;stroke-width:1.0;" x1="1491" x2="1586" y1="298.9766" y2="298.9766"/><text fill="#000000" font-family="sans-serif" font-size="14" lengthAdjust="spacing" textLength="40" x="1496" y="314.5117">range</text><text fill="#000000" font-family="sans-serif" font-size="14" lengthAdjust="spacing" textLength="0" x="1581" y="314.5117"/><line style="stroke:#A80036;stroke-width:1.0;" x1="1564" x2="1564" y1="298.9766" y2="319.4648"/><line style="stroke:#A80036;stroke-width:1.0;" x1="1491" x2="1586" y1="319.4648" y2="319.4648"/><text fill="#000000" font-family="sans-serif" font-size="14" lengthAdjust="spacing" textLength="29" x="1496" y="335">step</text><text fill="#000000" font-family="sans-serif" font-size="14" lengthAdjust="spacing" textLength="0" x="1581" y="335"/><line style="stroke:#A80036;stroke-width:1.0;" x1="1564" x2="1564" y1="319.4648" y2="339.9531"/><line style="stroke:#A80036;stroke-width:1.0;" x1="1491" x2="1586" y1="339.9531" y2="339.9531"/><text fill="#000000" font-family="sans-serif" font-size="14" lengthAdjust="spacing" textLength="63" x="1496" y="355.4883">precision</text><text fill="#000000" font-family="sans-serif" font-size="14" lengthAdjust="spacing" textLength="0" x="1581" y="355.4883"/><line style="stroke:#A80036;stroke-width:1.0;" x1="1564" x2="1564" y1="339.9531" y2="360.4414"/><rect fill="none" height="102.4414" rx="5" ry="5" style="stroke:#A80036;stroke-width:1.5;" width="95" x="1491" y="258"/><rect fill="#FEFECE" height="81.9531" rx="5" ry="5" style="stroke:#FEFECE;stroke-width:1.5;" width="156" x="1932" y="10"/><text fill="#000000" font-family="sans-serif" font-size="14" lengthAdjust="spacing" textLength="77" x="1937" y="25.5352">description</text><text fill="#000000" font-family="sans-serif" font-size="14" lengthAdjust="spacing" textLength="59" x="2024" y="25.5352">Body fat.</text><line style="stroke:#A80036;stroke-width:1.0;" x1="2019" x2="2019" y1="10" y2="30.4883"/><line style="stroke:#A80036;stroke-width:1.0;" x1="1932" x2="2088" y1="30.4883" y2="30.4883"/><text fill="#000000" font-family="sans-serif" font-size="14" lengthAdjust="spacing" textLength="65" x="1937" y="46.0234">minimum</text><text fill="#000000" font-family="sans-serif" font-size="14" lengthAdjust="spacing" textLength="9" x="2024" y="46.0234">0</text><line style="stroke:#A80036;stroke-width:1.0;" x1="2019" x2="2019" y1="30.4883" y2="50.9766"/><line style="stroke:#A80036;stroke-width:1.0;" x1="1932" x2="2088" y1="50.9766" y2="50.9766"/><text fill="#000000" font-family="sans-serif" font-size="14" lengthAdjust="spacing" textLength="55" x="1937" y="66.5117">writable</text><text fill="#000000" font-family="sans-serif" font-size="14" lengthAdjust="spacing" textLength="48" x="2024" y="66.5117">☐ false</text><line style="stroke:#A80036;stroke-width:1.0;" x1="2019" x2="2019" y1="50.9766" y2="71.4648"/><line style="stroke:#A80036;stroke-width:1.0;" x1="1932" x2="2088" y1="71.4648" y2="71.4648"/><text fill="#000000" font-family="sans-serif" font-size="14" lengthAdjust="spacing" textLength="29" x="1937" y="87">type</text><text fill="#000000" font-family="sans-serif" font-size="14" lengthAdjust="spacing" textLength="54" x="2024" y="87">number</text><line style="stroke:#A80036;stroke-width:1.0;" x1="2019" x2="2019" y1="71.4648" y2="91.9531"/><rect fill="none" height="81.9531" rx="5" ry="5" style="stroke:#A80036;stroke-width:1.5;" width="156" x="1932" y="10"/><rect fill="#FEFECE" height="102.4414" rx="5" ry="5" style="stroke:#FEFECE;stroke-width:1.5;" width="190" x="1915" y="110"/><text fill="#000000" font-family="sans-serif" font-size="14" lengthAdjust="spacing" textLength="77" x="1920" y="125.5352">description</text><text fill="#000000" font-family="sans-serif" font-size="14" lengthAdjust="spacing" textLength="93" x="2007" y="125.5352">Body fat units</text><line style="stroke:#A80036;stroke-width:1.0;" x1="2002" x2="2002" y1="110" y2="130.4883"/><line style="stroke:#A80036;stroke-width:1.0;" x1="1915" x2="2105" y1="130.4883" y2="130.4883"/><text fill="#000000" font-family="sans-serif" font-size="14" lengthAdjust="spacing" textLength="39" x="1920" y="146.0234">enum</text><text fill="#000000" font-family="sans-serif" font-size="14" lengthAdjust="spacing" textLength="0" x="2019" y="146.0234"/><line style="stroke:#A80036;stroke-width:1.0;" x1="2002" x2="2002" y1="130.4883" y2="150.9766"/><line style="stroke:#A80036;stroke-width:1.0;" x1="1915" x2="2105" y1="150.9766" y2="150.9766"/><text fill="#000000" font-family="sans-serif" font-size="14" lengthAdjust="spacing" textLength="55" x="1920" y="166.5117">writable</text><text fill="#000000" font-family="sans-serif" font-size="14" lengthAdjust="spacing" textLength="48" x="2007" y="166.5117">☐ false</text><line style="stroke:#A80036;stroke-width:1.0;" x1="2002" x2="2002" y1="150.9766" y2="171.4648"/><line style="stroke:#A80036;stroke-width:1.0;" x1="1915" x2="2105" y1="171.4648" y2="171.4648"/><text fill="#000000" font-family="sans-serif" font-size="14" lengthAdjust="spacing" textLength="29" x="1920" y="187">type</text><text fill="#000000" font-family="sans-serif" font-size="14" lengthAdjust="spacing" textLength="40" x="2007" y="187">string</text><line style="stroke:#A80036;stroke-width:1.0;" x1="2002" x2="2002" y1="171.4648" y2="191.9531"/><line style="stroke:#A80036;stroke-width:1.0;" x1="1915" x2="2105" y1="191.9531" y2="191.9531"/><text fill="#000000" font-family="sans-serif" font-size="14" lengthAdjust="spacing" textLength="48" x="1920" y="207.4883">default</text><text fill="#000000" font-family="sans-serif" font-size="14" lengthAdjust="spacing" textLength="17" x="2007" y="207.4883">kg</text><line style="stroke:#A80036;stroke-width:1.0;" x1="2002" x2="2002" y1="191.9531" y2="212.4414"/><rect fill="none" height="102.4414" rx="5" ry="5" style="stroke:#A80036;stroke-width:1.5;" width="190" x="1915" y="110"/><rect fill="#FEFECE" height="61.4648" rx="5" ry="5" style="stroke:#FEFECE;stroke-width:1.5;" width="62" x="2352.5" y="109.5"/><text fill="#000000" font-family="sans-serif" font-size="14" lengthAdjust="spacing" textLength="17" x="2357.5" y="125.0352">kg</text><line style="stroke:#A80036;stroke-width:1.0;" x1="2352.5" x2="2414.5" y1="129.9883" y2="129.9883"/><text fill="#000000" font-family="sans-serif" font-size="14" lengthAdjust="spacing" textLength="13" x="2357.5" y="145.5234">lb</text><line style="stroke:#A80036;stroke-width:1.0;" x1="2352.5" x2="2414.5" y1="150.4766" y2="150.4766"/><text fill="#000000" font-family="sans-serif" font-size="14" lengthAdjust="spacing" textLength="52" x="2357.5" y="166.0117">percent</text><rect fill="none" height="61.4648" rx="5" ry="5" style="stroke:#A80036;stroke-width:1.5;" width="62" x="2352.5" y="109.5"/><rect fill="#FEFECE" height="155.9063" rx="5" ry="5" style="stroke:#FEFECE;stroke-width:1.5;" width="548" x="1736" y="230"/><text fill="#000000" font-family="sans-serif" font-size="14" lengthAdjust="spacing" textLength="29" x="1741" y="245.5352">type</text><text fill="#000000" font-family="sans-serif" font-size="14" lengthAdjust="spacing" textLength="35" x="1828" y="245.5352">array</text><line style="stroke:#A80036;stroke-width:1.0;" x1="1823" x2="1823" y1="230" y2="250.4883"/><line style="stroke:#A80036;stroke-width:1.0;" x1="1736" x2="2284" y1="250.4883" y2="250.4883"/><text fill="#000000" font-family="sans-serif" font-size="14" lengthAdjust="spacing" textLength="77" x="1741" y="266.0234">description</text><text fill="#000000" font-family="sans-serif" font-size="14" lengthAdjust="spacing" textLength="451" x="1828" y="266.0234">The valid range for the Property in the Resource as a number. The</text><text fill="#000000" font-family="sans-serif" font-size="14" lengthAdjust="spacing" textLength="439" x="1828" y="282.5117">first value in the array is the minimum value, the second value in</text><text fill="#000000" font-family="sans-serif" font-size="14" lengthAdjust="spacing" textLength="219" x="1828" y="299">the array is the maximum value.</text><line style="stroke:#A80036;stroke-width:1.0;" x1="1823" x2="1823" y1="250.4883" y2="303.9531"/><line style="stroke:#A80036;stroke-width:1.0;" x1="1736" x2="2284" y1="303.9531" y2="303.9531"/><text fill="#000000" font-family="sans-serif" font-size="14" lengthAdjust="spacing" textLength="55" x="1741" y="319.4883">writable</text><text fill="#000000" font-family="sans-serif" font-size="14" lengthAdjust="spacing" textLength="48" x="1828" y="319.4883">☐ false</text><line style="stroke:#A80036;stroke-width:1.0;" x1="1823" x2="1823" y1="303.9531" y2="324.4414"/><line style="stroke:#A80036;stroke-width:1.0;" x1="1736" x2="2284" y1="324.4414" y2="324.4414"/><text fill="#000000" font-family="sans-serif" font-size="14" lengthAdjust="spacing" textLength="63" x="1741" y="339.9766">minItems</text><text fill="#000000" font-family="sans-serif" font-size="14" lengthAdjust="spacing" textLength="9" x="1828" y="339.9766">2</text><line style="stroke:#A80036;stroke-width:1.0;" x1="1823" x2="1823" y1="324.4414" y2="344.9297"/><line style="stroke:#A80036;stroke-width:1.0;" x1="1736" x2="2284" y1="344.9297" y2="344.9297"/><text fill="#000000" font-family="sans-serif" font-size="14" lengthAdjust="spacing" textLength="67" x="1741" y="360.4648">maxItems</text><text fill="#000000" font-family="sans-serif" font-size="14" lengthAdjust="spacing" textLength="9" x="1828" y="360.4648">2</text><line style="stroke:#A80036;stroke-width:1.0;" x1="1823" x2="1823" y1="344.9297" y2="365.418"/><line style="stroke:#A80036;stroke-width:1.0;" x1="1736" x2="2284" y1="365.418" y2="365.418"/><text fill="#000000" font-family="sans-serif" font-size="14" lengthAdjust="spacing" textLength="37" x="1741" y="380.9531">items</text><text fill="#000000" font-family="sans-serif" font-size="14" lengthAdjust="spacing" textLength="0" x="1840" y="380.9531"/><line style="stroke:#A80036;stroke-width:1.0;" x1="1823" x2="1823" y1="365.418" y2="385.9063"/><rect fill="none" height="155.9063" rx="5" ry="5" style="stroke:#A80036;stroke-width:1.5;" width="548" x="1736" y="230"/><rect fill="#FEFECE" height="20.4883" rx="5" ry="5" style="stroke:#FEFECE;stroke-width:1.5;" width="103" x="2332" y="363"/><text fill="#000000" font-family="sans-serif" font-size="14" lengthAdjust="spacing" textLength="29" x="2337" y="378.5352">type</text><text fill="#000000" font-family="sans-serif" font-size="14" lengthAdjust="spacing" textLength="54" x="2376" y="378.5352">number</text><line style="stroke:#A80036;stroke-width:1.0;" x1="2371" x2="2371" y1="363" y2="383.4883"/><rect fill="none" height="20.4883" rx="5" ry="5" style="stroke:#A80036;stroke-width:1.5;" width="103" x="2332" y="363"/><rect fill="#FEFECE" height="110.9297" rx="5" ry="5" style="stroke:#FEFECE;stroke-width:1.5;" width="555" x="1732.5" y="404.5"/><text fill="#000000" font-family="sans-serif" font-size="14" lengthAdjust="spacing" textLength="77" x="1737.5" y="420.0352">description</text><text fill="#000000" font-family="sans-serif" font-size="14" lengthAdjust="spacing" textLength="456" x="1824.5" y="420.0352">Step value across the defined range an integer when the range is a</text><text fill="#000000" font-family="sans-serif" font-size="14" lengthAdjust="spacing" textLength="458" x="1824.5" y="436.5234">number.  This is the increment for valid values across the range; so</text><text fill="#000000" font-family="sans-serif" font-size="14" lengthAdjust="spacing" textLength="381" x="1824.5" y="453.0117">if range is 0.0..10.0 and step is 2.5 then valid values are</text><text fill="#000000" font-family="sans-serif" font-size="14" lengthAdjust="spacing" textLength="139" x="1824.5" y="469.5">0.0,2.5,5.0,7.5,10.0.</text><line style="stroke:#A80036;stroke-width:1.0;" x1="1819.5" x2="1819.5" y1="404.5" y2="474.4531"/><line style="stroke:#A80036;stroke-width:1.0;" x1="1732.5" x2="2287.5" y1="474.4531" y2="474.4531"/><text fill="#000000" font-family="sans-serif" font-size="14" lengthAdjust="spacing" textLength="55" x="1737.5" y="489.9883">writable</text><text fill="#000000" font-family="sans-serif" font-size="14" lengthAdjust="spacing" textLength="48" x="1824.5" y="489.9883">☐ false</text><line style="stroke:#A80036;stroke-width:1.0;" x1="1819.5" x2="1819.5" y1="474.4531" y2="494.9414"/><line style="stroke:#A80036;stroke-width:1.0;" x1="1732.5" x2="2287.5" y1="494.9414" y2="494.9414"/><text fill="#000000" font-family="sans-serif" font-size="14" lengthAdjust="spacing" textLength="29" x="1737.5" y="510.4766">type</text><text fill="#000000" font-family="sans-serif" font-size="14" lengthAdjust="spacing" textLength="54" x="1824.5" y="510.4766">number</text><line style="stroke:#A80036;stroke-width:1.0;" x1="1819.5" x2="1819.5" y1="494.9414" y2="515.4297"/><rect fill="none" height="110.9297" rx="5" ry="5" style="stroke:#A80036;stroke-width:1.5;" width="555" x="1732.5" y="404.5"/><rect fill="#FEFECE" height="110.9297" rx="5" ry="5" style="stroke:#FEFECE;stroke-width:1.5;" width="570" x="1725" y="533.5"/><text fill="#000000" font-family="sans-serif" font-size="14" lengthAdjust="spacing" textLength="29" x="1730" y="549.0352">type</text><text fill="#000000" font-family="sans-serif" font-size="14" lengthAdjust="spacing" textLength="54" x="1817" y="549.0352">number</text><line style="stroke:#A80036;stroke-width:1.0;" x1="1812" x2="1812" y1="533.5" y2="553.9883"/><line style="stroke:#A80036;stroke-width:1.0;" x1="1725" x2="2295" y1="553.9883" y2="553.9883"/><text fill="#000000" font-family="sans-serif" font-size="14" lengthAdjust="spacing" textLength="55" x="1730" y="569.5234">writable</text><text fill="#000000" font-family="sans-serif" font-size="14" lengthAdjust="spacing" textLength="48" x="1817" y="569.5234">☐ false</text><line style="stroke:#A80036;stroke-width:1.0;" x1="1812" x2="1812" y1="553.9883" y2="574.4766"/><line style="stroke:#A80036;stroke-width:1.0;" x1="1725" x2="2295" y1="574.4766" y2="574.4766"/><text fill="#000000" font-family="sans-serif" font-size="14" lengthAdjust="spacing" textLength="77" x="1730" y="590.0117">description</text><text fill="#000000" font-family="sans-serif" font-size="14" lengthAdjust="spacing" textLength="430" x="1817" y="590.0117">When exposed the value in 'precision' provides a +/- tolerance</text><text fill="#000000" font-family="sans-serif" font-size="14" lengthAdjust="spacing" textLength="473" x="1817" y="606.5">against the Properties in the Resource. Thus if a Property is UPDATED</text><text fill="#000000" font-family="sans-serif" font-size="14" lengthAdjust="spacing" textLength="465" x="1817" y="622.9883">to a value and that Property then RETRIEVED, the RETRIEVED value is</text><text fill="#000000" font-family="sans-serif" font-size="14" lengthAdjust="spacing" textLength="337" x="1817" y="639.4766">valid if in the range of the set value +/- precision</text><line style="stroke:#A80036;stroke-width:1.0;" x1="1812" x2="1812" y1="574.4766" y2="644.4297"/><rect fill="none" height="110.9297" rx="5" ry="5" style="stroke:#A80036;stroke-width:1.5;" width="570" x="1725" y="533.5"/><rect fill="#FEFECE" height="20.4883" rx="5" ry="5" style="stroke:#FEFECE;stroke-width:1.5;" width="299" x="1389" y="378"/><text fill="#000000" font-family="sans-serif" font-size="14" lengthAdjust="spacing" textLength="289" x="1394" y="393.5352">#/sdfObject/body.fat/sdfProperty/bodyfat</text><rect fill="none" height="20.4883" rx="5" ry="5" style="stroke:#A80036;stroke-width:1.5;" width="299" x="1389" y="378"/><path d="M95,279 L108,279 C117.4068,279 126.9554,278.9088 136.5926,278.7376 " fill="none" style="stroke:#A80036;stroke-width:1.0;stroke-dasharray:3.0,3.0;"/><path d="M136.6543,281.8363 L138.9166,278.6914 L136.5309,275.6389 L144.3394,278.5834 L136.6543,281.8363 " fill="#A80036" style="stroke:#A80036;stroke-width:1.0;"/><ellipse cx="95" cy="279" fill="#A80036" rx="3" ry="3" style="stroke:#A80036;stroke-width:1.0;stroke-dasharray:3.0,3.0;"/><path d="M1575,268 L1588,268 C1684.0021,268 1642.1138,149.4384 1725,101 C1785.726,65.512 1865.3056,53.9013 1924.8539,50.6569 " fill="none" style="stroke:#A80036;stroke-width:1.0;stroke-dasharray:3.0,3.0;"/><path d="M1925.0025,53.668 L1927.1122,50.5454 L1924.7053,47.6458 L1932.3815,50.2853 L1925.0025,53.668 " fill="#A80036" style="stroke:#A80036;stroke-width:1.0;"/><ellipse cx="1575" cy="268" fill="#A80036" rx="3" ry="3" style="stroke:#A80036;stroke-width:1.0;stroke-dasharray:3.0,3.0;"/><path d="M2093.5,140 L2106.5,140 C2191.8299,140 2291.9724,140 2345.2154,140 " fill="none" style="stroke:#A80036;stroke-width:1.0;stroke-dasharray:3.0,3.0;"/><path d="M2345.2154,143.0031 L2347.4677,140 L2345.2154,136.9969 L2352.7233,140 L2345.2154,143.0031 " fill="#A80036" style="stroke:#A80036;stroke-width:1.0;"/><ellipse cx="2093.5" cy="140" fill="#A80036" rx="3" ry="3" style="stroke:#A80036;stroke-width:1.0;stroke-dasharray:3.0,3.0;"/><path d="M1575,288 L1588,288 C1655.7803,288 1660.9067,243.0503 1725,221 C1784.1514,200.6499 1852.7007,185.9422 1907.6891,176.1827 " fill="none" style="stroke:#A80036;stroke-width:1.0;stroke-dasharray:3.0,3.0;"/><path d="M1908.2268,179.2494 L1909.9891,175.7794 L1907.1513,173.116 L1915.3558,174.8383 L1908.2268,179.2494 " fill="#A80036" style="stroke:#A80036;stroke-width:1.0;"/><ellipse cx="1575" cy="288" fill="#A80036" rx="3" ry="3" style="stroke:#A80036;stroke-width:1.0;stroke-dasharray:3.0,3.0;"/><path d="M2272.5,373 L2285.5,373 C2298.235,373 2311.9056,373 2324.8621,373 " fill="none" style="stroke:#A80036;stroke-width:1.0;stroke-dasharray:3.0,3.0;"/><path d="M2324.8621,376.0134 L2327.1221,373 L2324.8621,369.9866 L2332.3956,373 L2324.8621,376.0134 " fill="#A80036" style="stroke:#A80036;stroke-width:1.0;"/><ellipse cx="2272.5" cy="373" fill="#A80036" rx="3" ry="3" style="stroke:#A80036;stroke-width:1.0;stroke-dasharray:3.0,3.0;"/><path d="M1575,308 L1588,308 C1633.497,308 1681.7564,308 1728.7529,308 " fill="none" style="stroke:#A80036;stroke-width:1.0;stroke-dasharray:3.0,3.0;"/><path d="M1728.7529,311.0125 L1731.0122,308 L1728.7529,304.9875 L1736.284,308 L1728.7529,311.0125 " fill="#A80036" style="stroke:#A80036;stroke-width:1.0;"/><ellipse cx="1575" cy="308" fill="#A80036" rx="3" ry="3" style="stroke:#A80036;stroke-width:1.0;stroke-dasharray:3.0,3.0;"/><path d="M1575,329 L1588,329 C1636.2811,329 1646.6592,345.7983 1689,369 C1706.3083,378.4845 1707.0197,386.8613 1725,395 C1729.9979,397.2623 1735.082,399.4495 1740.2361,401.5639 " fill="none" style="stroke:#A80036;stroke-width:1.0;stroke-dasharray:3.0,3.0;"/><path d="M1739.1007,404.3919 L1742.3571,402.4154 L1741.3714,398.7358 L1747.3062,404.4023 L1739.1007,404.3919 " fill="#A80036" style="stroke:#A80036;stroke-width:1.0;"/><ellipse cx="1575" cy="329" fill="#A80036" rx="3" ry="3" style="stroke:#A80036;stroke-width:1.0;stroke-dasharray:3.0,3.0;"/><path d="M1575,350 L1588,350 C1633.6763,350 1656.0491,337.3684 1689,369 C1740.3318,418.2764 1674.5466,474.8247 1725,525 C1726.1106,526.1045 1727.2359,527.1916 1728.3753,528.2616 " fill="none" style="stroke:#A80036;stroke-width:1.0;stroke-dasharray:3.0,3.0;"/><path d="M1726.2918,530.5868 L1730.1193,529.8242 L1730.4589,525.9363 L1734.1885,533.4704 L1726.2918,530.5868 " fill="#A80036" style="stroke:#A80036;stroke-width:1.0;"/><ellipse cx="1575" cy="350" fill="#A80036" rx="3" ry="3" style="stroke:#A80036;stroke-width:1.0;stroke-dasharray:3.0,3.0;"/><path d="M1340,324 L1353,324 C1397.0725,324 1446.8583,319.7184 1483.6726,315.7303 " fill="none" style="stroke:#A80036;stroke-width:1.0;stroke-dasharray:3.0,3.0;"/><path d="M1484.0106,318.7911 L1485.9683,315.4768 L1483.3346,312.6694 L1491.3248,314.8853 L1484.0106,318.7911 " fill="#A80036" style="stroke:#A80036;stroke-width:1.0;"/><ellipse cx="1340" cy="324" fill="#A80036" rx="3" ry="3" style="stroke:#A80036;stroke-width:1.0;stroke-dasharray:3.0,3.0;"/><path d="M1340,372 L1353,372 C1384.5025,372 1418.9107,374.3313 1449.4161,377.2141 " fill="none" style="stroke:#A80036;stroke-width:1.0;stroke-dasharray:3.0,3.0;"/><path d="M1449.1186,380.281 L1451.7163,377.4372 L1449.7136,374.1471 L1457.0835,377.9578 L1449.1186,380.281 " fill="#A80036" style="stroke:#A80036;stroke-width:1.0;"/><ellipse cx="1340" cy="372" fill="#A80036" rx="3" ry="3" style="stroke:#A80036;stroke-width:1.0;stroke-dasharray:3.0,3.0;"/><path d="M483.5,324 L496.5,324 C591.268,324 694.7988,324 787.646,324 " fill="none" style="stroke:#A80036;stroke-width:1.0;stroke-dasharray:3.0,3.0;"/><path d="M787.646,327.0077 L789.9018,324 L787.646,320.9923 L795.1654,324 L787.646,327.0077 " fill="#A80036" style="stroke:#A80036;stroke-width:1.0;"/><ellipse cx="483.5" cy="324" fill="#A80036" rx="3" ry="3" style="stroke:#A80036;stroke-width:1.0;stroke-dasharray:3.0,3.0;"/><path d="M95,300 L108,300 C124.1536,300 127.927,303.388 144,305 C233.7891,314.0052 338.8328,319.4083 399.7076,322.0358 " fill="none" style="stroke:#A80036;stroke-width:1.0;stroke-dasharray:3.0,3.0;"/><path d="M399.5788,325.0614 L401.9767,322.1324 L399.8364,319.0103 L407.2714,322.3578 L399.5788,325.0614 " fill="#A80036" style="stroke:#A80036;stroke-width:1.0;"/><ellipse cx="95" cy="300" fill="#A80036" rx="3" ry="3" style="stroke:#A80036;stroke-width:1.0;stroke-dasharray:3.0,3.0;"/><!--MD5=[082e28b53613efd8f5abc01db8fcc3f0]
@startjson
{
  "info": {
    "copyright": "Copyright 2016-2019 Open Connectivity Foundation, Inc. All rights reserved.",
    "license": "https://github.com/one-data-model/oneDM/blob/master/LICENSE",
    "title": "Body Fat",
    "version": "2019-03-22"
  },
  "sdfObject": {
    "body.fat": {
      "description": "This Resource describes the Properties associated with a person's\\nbody fat. The unit is a single value that is one of kg, lb or\\npercent. If the unit Property is missing the default is kilograms\\n[kg]. The bodyfat and unit Properties are read-only values that are\\nprovided by the Server. When range is omitted the default is 0 to\\n+MAXFLOAT.",
      "sdfProperty": {
        "bodyfat": {
          "description": "Body fat.",
          "minimum": 0,
          "writable": false,
          "type": "number"
        },
        "units": {
          "description": "Body fat units",
          "enum": [
            "kg",
            "lb",
            "percent"
          ],
          "writable": false,
          "type": "string",
          "default": "kg"
        },
        "range": {
          "type": "array",
          "description": "The valid range for the Property in the Resource as a number. The\\nfirst value in the array is the minimum value, the second value in\\nthe array is the maximum value.",
          "writable": false,
          "minItems": 2,
          "maxItems": 2,
          "items": {
            "type": "number"
          }
        },
        "step": {
          "description": "Step value across the defined range an integer when the range is a\\nnumber.  This is the increment for valid values across the range; so\\nif range is 0.0..10.0 and step is 2.5 then valid values are\\n0.0,2.5,5.0,7.5,10.0.",
          "writable": false,
          "type": "number"
        },
        "precision": {
          "type": "number",
          "writable": false,
          "description": "When exposed the value in 'precision' provides a +/- tolerance\\nagainst the Properties in the Resource. Thus if a Property is UPDATED\\nto a value and that Property then RETRIEVED, the RETRIEVED value is\\nvalid if in the range of the set value +/- precision"
        }
      },
      "sdfRequired": [
        "#/sdfObject/body.fat/sdfProperty/bodyfat"
      ]
    }
  }
}
@endjson

PlantUML version 1.2021.2(Sun Mar 07 13:10:27 EET 2021)
(GPL source distribution)
Java Runtime: OpenJDK Runtime Environment
JVM: OpenJDK 64-Bit Server VM
Default Encoding: UTF-8
Language: en
Country: FI
--></g></svg>