<?xml version="1.0" encoding="UTF-8" standalone="no"?><svg xmlns="http://www.w3.org/2000/svg" xmlns:xlink="http://www.w3.org/1999/xlink" contentScriptType="application/ecmascript" contentStyleType="text/css" height="232px" preserveAspectRatio="none" style="width:2217px;height:232px;" version="1.1" viewBox="0 0 2217 232" width="2217px" zoomAndPan="magnify"><defs/><g><rect fill="#FEFECE" height="40.9766" rx="5" ry="5" style="stroke:#FEFECE;stroke-width:1.5;" width="97" x="10" y="65.5"/><text fill="#000000" font-family="sans-serif" font-size="14" lengthAdjust="spacing" textLength="27" x="15" y="81.0352">info</text><text fill="#000000" font-family="sans-serif" font-size="14" lengthAdjust="spacing" textLength="0" x="102" y="81.0352"/><line style="stroke:#A80036;stroke-width:1.0;" x1="85" x2="85" y1="65.5" y2="85.9883"/><line style="stroke:#A80036;stroke-width:1.0;" x1="10" x2="107" y1="85.9883" y2="85.9883"/><text fill="#000000" font-family="sans-serif" font-size="14" lengthAdjust="spacing" textLength="65" x="15" y="101.5234">sdfObject</text><text fill="#000000" font-family="sans-serif" font-size="14" lengthAdjust="spacing" textLength="0" x="102" y="101.5234"/><line style="stroke:#A80036;stroke-width:1.0;" x1="85" x2="85" y1="85.9883" y2="106.4766"/><rect fill="none" height="40.9766" rx="5" ry="5" style="stroke:#A80036;stroke-width:1.5;" width="97" x="10" y="65.5"/><rect fill="#FEFECE" height="81.9531" rx="5" ry="5" style="stroke:#FEFECE;stroke-width:1.5;" width="655" x="144" y="10"/><text fill="#000000" font-family="sans-serif" font-size="14" lengthAdjust="spacing" textLength="65" x="149" y="25.5352">copyright</text><text fill="#000000" font-family="sans-serif" font-size="14" lengthAdjust="spacing" textLength="570" x="224" y="25.5352">copyright 2016-2017, 2019 Open Connectivity Foundation, Inc. All rights reserved.</text><line style="stroke:#A80036;stroke-width:1.0;" x1="219" x2="219" y1="10" y2="30.4883"/><line style="stroke:#A80036;stroke-width:1.0;" x1="144" x2="799" y1="30.4883" y2="30.4883"/><text fill="#000000" font-family="sans-serif" font-size="14" lengthAdjust="spacing" textLength="47" x="149" y="46.0234">license</text><text fill="#000000" font-family="sans-serif" font-size="14" lengthAdjust="spacing" textLength="462" x="224" y="46.0234">https://github.com/one-data-model/oneDM/blob/master/LICENSE</text><line style="stroke:#A80036;stroke-width:1.0;" x1="219" x2="219" y1="30.4883" y2="50.9766"/><line style="stroke:#A80036;stroke-width:1.0;" x1="144" x2="799" y1="50.9766" y2="50.9766"/><text fill="#000000" font-family="sans-serif" font-size="14" lengthAdjust="spacing" textLength="26" x="149" y="66.5117">title</text><text fill="#000000" font-family="sans-serif" font-size="14" lengthAdjust="spacing" textLength="61" x="224" y="66.5117">Humidity</text><line style="stroke:#A80036;stroke-width:1.0;" x1="219" x2="219" y1="50.9766" y2="71.4648"/><line style="stroke:#A80036;stroke-width:1.0;" x1="144" x2="799" y1="71.4648" y2="71.4648"/><text fill="#000000" font-family="sans-serif" font-size="14" lengthAdjust="spacing" textLength="50" x="149" y="87">version</text><text fill="#000000" font-family="sans-serif" font-size="14" lengthAdjust="spacing" textLength="88" x="224" y="87">2019-02-15</text><line style="stroke:#A80036;stroke-width:1.0;" x1="219" x2="219" y1="71.4648" y2="91.9531"/><rect fill="none" height="81.9531" rx="5" ry="5" style="stroke:#A80036;stroke-width:1.5;" width="655" x="144" y="10"/><rect fill="#FEFECE" height="20.4883" rx="5" ry="5" style="stroke:#FEFECE;stroke-width:1.5;" width="92" x="425.5" y="110"/><text fill="#000000" font-family="sans-serif" font-size="14" lengthAdjust="spacing" textLength="60" x="430.5" y="125.5352">humidity</text><text fill="#000000" font-family="sans-serif" font-size="14" lengthAdjust="spacing" textLength="0" x="512.5" y="125.5352"/><line style="stroke:#A80036;stroke-width:1.0;" x1="495.5" x2="495.5" y1="110" y2="130.4883"/><rect fill="none" height="20.4883" rx="5" ry="5" style="stroke:#A80036;stroke-width:1.5;" width="92" x="425.5" y="110"/><rect fill="#FEFECE" height="110.9297" rx="5" ry="5" style="stroke:#FEFECE;stroke-width:1.5;" width="571" x="836" y="64.5"/><text fill="#000000" font-family="sans-serif" font-size="14" lengthAdjust="spacing" textLength="77" x="841" y="80.0352">description</text><text fill="#000000" font-family="sans-serif" font-size="14" lengthAdjust="spacing" textLength="463" x="934" y="80.0352">This Resource describes a sensed or desired humidity. The Property</text><text fill="#000000" font-family="sans-serif" font-size="14" lengthAdjust="spacing" textLength="468" x="934" y="96.5234">"humidity" is an integer describing the percentage measured relative</text><text fill="#000000" font-family="sans-serif" font-size="14" lengthAdjust="spacing" textLength="459" x="934" y="113.0117">humidity. The Property "desiredHumidity" is an integer showing the</text><text fill="#000000" font-family="sans-serif" font-size="14" lengthAdjust="spacing" textLength="218" x="934" y="129.5">desired target relative humidity.</text><line style="stroke:#A80036;stroke-width:1.0;" x1="929" x2="929" y1="64.5" y2="134.4531"/><line style="stroke:#A80036;stroke-width:1.0;" x1="836" x2="1407" y1="134.4531" y2="134.4531"/><text fill="#000000" font-family="sans-serif" font-size="14" lengthAdjust="spacing" textLength="79" x="841" y="149.9883">sdfProperty</text><text fill="#000000" font-family="sans-serif" font-size="14" lengthAdjust="spacing" textLength="0" x="946" y="149.9883"/><line style="stroke:#A80036;stroke-width:1.0;" x1="929" x2="929" y1="134.4531" y2="154.9414"/><line style="stroke:#A80036;stroke-width:1.0;" x1="836" x2="1407" y1="154.9414" y2="154.9414"/><text fill="#000000" font-family="sans-serif" font-size="14" lengthAdjust="spacing" textLength="83" x="841" y="170.4766">sdfRequired</text><text fill="#000000" font-family="sans-serif" font-size="14" lengthAdjust="spacing" textLength="0" x="946" y="170.4766"/><line style="stroke:#A80036;stroke-width:1.0;" x1="929" x2="929" y1="154.9414" y2="175.4297"/><rect fill="none" height="110.9297" rx="5" ry="5" style="stroke:#A80036;stroke-width:1.5;" width="571" x="836" y="64.5"/><rect fill="#FEFECE" height="40.9766" rx="5" ry="5" style="stroke:#FEFECE;stroke-width:1.5;" width="144" x="1553.5" y="93.5"/><text fill="#000000" font-family="sans-serif" font-size="14" lengthAdjust="spacing" textLength="112" x="1558.5" y="109.0352">desiredHumidity</text><text fill="#000000" font-family="sans-serif" font-size="14" lengthAdjust="spacing" textLength="0" x="1692.5" y="109.0352"/><line style="stroke:#A80036;stroke-width:1.0;" x1="1675.5" x2="1675.5" y1="93.5" y2="113.9883"/><line style="stroke:#A80036;stroke-width:1.0;" x1="1553.5" x2="1697.5" y1="113.9883" y2="113.9883"/><text fill="#000000" font-family="sans-serif" font-size="14" lengthAdjust="spacing" textLength="60" x="1558.5" y="129.5234">humidity</text><text fill="#000000" font-family="sans-serif" font-size="14" lengthAdjust="spacing" textLength="0" x="1692.5" y="129.5234"/><line style="stroke:#A80036;stroke-width:1.0;" x1="1675.5" x2="1675.5" y1="113.9883" y2="134.4766"/><rect fill="none" height="40.9766" rx="5" ry="5" style="stroke:#A80036;stroke-width:1.5;" width="144" x="1553.5" y="93.5"/><rect fill="#FEFECE" height="81.9531" rx="5" ry="5" style="stroke:#FEFECE;stroke-width:1.5;" width="310" x="1869.5" y="18"/><text fill="#000000" font-family="sans-serif" font-size="14" lengthAdjust="spacing" textLength="77" x="1874.5" y="33.5352">description</text><text fill="#000000" font-family="sans-serif" font-size="14" lengthAdjust="spacing" textLength="213" x="1961.5" y="33.5352">The desired value for humidity.</text><line style="stroke:#A80036;stroke-width:1.0;" x1="1956.5" x2="1956.5" y1="18" y2="38.4883"/><line style="stroke:#A80036;stroke-width:1.0;" x1="1869.5" x2="2179.5" y1="38.4883" y2="38.4883"/><text fill="#000000" font-family="sans-serif" font-size="14" lengthAdjust="spacing" textLength="69" x="1874.5" y="54.0234">maximum</text><text fill="#000000" font-family="sans-serif" font-size="14" lengthAdjust="spacing" textLength="27" x="1961.5" y="54.0234">100</text><line style="stroke:#A80036;stroke-width:1.0;" x1="1956.5" x2="1956.5" y1="38.4883" y2="58.9766"/><line style="stroke:#A80036;stroke-width:1.0;" x1="1869.5" x2="2179.5" y1="58.9766" y2="58.9766"/><text fill="#000000" font-family="sans-serif" font-size="14" lengthAdjust="spacing" textLength="65" x="1874.5" y="74.5117">minimum</text><text fill="#000000" font-family="sans-serif" font-size="14" lengthAdjust="spacing" textLength="9" x="1961.5" y="74.5117">0</text><line style="stroke:#A80036;stroke-width:1.0;" x1="1956.5" x2="1956.5" y1="58.9766" y2="79.4648"/><line style="stroke:#A80036;stroke-width:1.0;" x1="1869.5" x2="2179.5" y1="79.4648" y2="79.4648"/><text fill="#000000" font-family="sans-serif" font-size="14" lengthAdjust="spacing" textLength="29" x="1874.5" y="95">type</text><text fill="#000000" font-family="sans-serif" font-size="14" lengthAdjust="spacing" textLength="49" x="1961.5" y="95">integer</text><line style="stroke:#A80036;stroke-width:1.0;" x1="1956.5" x2="1956.5" y1="79.4648" y2="99.9531"/><rect fill="none" height="81.9531" rx="5" ry="5" style="stroke:#A80036;stroke-width:1.5;" width="310" x="1869.5" y="18"/><rect fill="#FEFECE" height="102.4414" rx="5" ry="5" style="stroke:#FEFECE;stroke-width:1.5;" width="361" x="1844" y="118"/><text fill="#000000" font-family="sans-serif" font-size="14" lengthAdjust="spacing" textLength="77" x="1849" y="133.5352">description</text><text fill="#000000" font-family="sans-serif" font-size="14" lengthAdjust="spacing" textLength="264" x="1936" y="133.5352">The current sensed value for humidity.</text><line style="stroke:#A80036;stroke-width:1.0;" x1="1931" x2="1931" y1="118" y2="138.4883"/><line style="stroke:#A80036;stroke-width:1.0;" x1="1844" x2="2205" y1="138.4883" y2="138.4883"/><text fill="#000000" font-family="sans-serif" font-size="14" lengthAdjust="spacing" textLength="69" x="1849" y="154.0234">maximum</text><text fill="#000000" font-family="sans-serif" font-size="14" lengthAdjust="spacing" textLength="27" x="1936" y="154.0234">100</text><line style="stroke:#A80036;stroke-width:1.0;" x1="1931" x2="1931" y1="138.4883" y2="158.9766"/><line style="stroke:#A80036;stroke-width:1.0;" x1="1844" x2="2205" y1="158.9766" y2="158.9766"/><text fill="#000000" font-family="sans-serif" font-size="14" lengthAdjust="spacing" textLength="65" x="1849" y="174.5117">minimum</text><text fill="#000000" font-family="sans-serif" font-size="14" lengthAdjust="spacing" textLength="9" x="1936" y="174.5117">0</text><line style="stroke:#A80036;stroke-width:1.0;" x1="1931" x2="1931" y1="158.9766" y2="179.4648"/><line style="stroke:#A80036;stroke-width:1.0;" x1="1844" x2="2205" y1="179.4648" y2="179.4648"/><text fill="#000000" font-family="sans-serif" font-size="14" lengthAdjust="spacing" textLength="55" x="1849" y="195">writable</text><text fill="#000000" font-family="sans-serif" font-size="14" lengthAdjust="spacing" textLength="48" x="1936" y="195">☐ false</text><line style="stroke:#A80036;stroke-width:1.0;" x1="1931" x2="1931" y1="179.4648" y2="199.9531"/><line style="stroke:#A80036;stroke-width:1.0;" x1="1844" x2="2205" y1="199.9531" y2="199.9531"/><text fill="#000000" font-family="sans-serif" font-size="14" lengthAdjust="spacing" textLength="29" x="1849" y="215.4883">type</text><text fill="#000000" font-family="sans-serif" font-size="14" lengthAdjust="spacing" textLength="49" x="1936" y="215.4883">integer</text><line style="stroke:#A80036;stroke-width:1.0;" x1="1931" x2="1931" y1="199.9531" y2="220.4414"/><rect fill="none" height="102.4414" rx="5" ry="5" style="stroke:#A80036;stroke-width:1.5;" width="361" x="1844" y="118"/><rect fill="#FEFECE" height="20.4883" rx="5" ry="5" style="stroke:#FEFECE;stroke-width:1.5;" width="363" x="1444" y="153"/><text fill="#000000" font-family="sans-serif" font-size="14" lengthAdjust="spacing" textLength="353" x="1449" y="168.5352">#/sdfObject/humidity/sdfProperty/desiredHumidity</text><rect fill="none" height="20.4883" rx="5" ry="5" style="stroke:#A80036;stroke-width:1.5;" width="363" x="1444" y="153"/><path d="M95,75 L108,75 C117.3442,75 126.8208,74.9198 136.3833,74.7688 " fill="none" style="stroke:#A80036;stroke-width:1.0;stroke-dasharray:3.0,3.0;"/><path d="M136.4378,77.8434 L138.6892,74.7279 L136.3288,71.6942 L144.0697,74.6326 L136.4378,77.8434 " fill="#A80036" style="stroke:#A80036;stroke-width:1.0;"/><ellipse cx="95" cy="75" fill="#A80036" rx="3" ry="3" style="stroke:#A80036;stroke-width:1.0;stroke-dasharray:3.0,3.0;"/><path d="M1686,103 L1699,103 C1752.3197,103 1810.1186,97.1124 1861.9853,89.6446 " fill="none" style="stroke:#A80036;stroke-width:1.0;stroke-dasharray:3.0,3.0;"/><path d="M1862.4304,92.6878 L1864.2677,89.3107 L1861.5402,86.6013 L1869.5934,88.5318 L1862.4304,92.6878 " fill="#A80036" style="stroke:#A80036;stroke-width:1.0;"/><ellipse cx="1686" cy="103" fill="#A80036" rx="3" ry="3" style="stroke:#A80036;stroke-width:1.0;stroke-dasharray:3.0,3.0;"/><path d="M1686,124 L1699,124 C1743.7852,124 1791.7165,128.2446 1836.6372,134.1265 " fill="none" style="stroke:#A80036;stroke-width:1.0;stroke-dasharray:3.0,3.0;"/><path d="M1836.2384,137.1157 L1838.8792,134.4256 L1837.0361,131.1372 L1844.1104,135.1236 L1836.2384,137.1157 " fill="#A80036" style="stroke:#A80036;stroke-width:1.0;"/><ellipse cx="1686" cy="124" fill="#A80036" rx="3" ry="3" style="stroke:#A80036;stroke-width:1.0;stroke-dasharray:3.0,3.0;"/><path d="M1395,120 L1408,120 C1453.7688,120 1504.947,118.6498 1546.1026,117.2304 " fill="none" style="stroke:#A80036;stroke-width:1.0;stroke-dasharray:3.0,3.0;"/><path d="M1546.2088,120.2562 L1548.372,117.1507 L1545.9964,114.2046 L1553.6671,116.9648 L1546.2088,120.2562 " fill="#A80036" style="stroke:#A80036;stroke-width:1.0;"/><ellipse cx="1395" cy="120" fill="#A80036" rx="3" ry="3" style="stroke:#A80036;stroke-width:1.0;stroke-dasharray:3.0,3.0;"/><path d="M1395,157 L1408,157 C1417.4603,157 1427.1517,157.0577 1436.9379,157.1617 " fill="none" style="stroke:#A80036;stroke-width:1.0;stroke-dasharray:3.0,3.0;"/><path d="M1436.9025,160.1617 L1439.1878,157.1883 L1436.9732,154.1618 L1444.4377,157.2502 L1436.9025,160.1617 " fill="#A80036" style="stroke:#A80036;stroke-width:1.0;"/><ellipse cx="1395" cy="157" fill="#A80036" rx="3" ry="3" style="stroke:#A80036;stroke-width:1.0;stroke-dasharray:3.0,3.0;"/><path d="M506,120 L519,120 C619.8416,120 730.185,120 828.5429,120 " fill="none" style="stroke:#A80036;stroke-width:1.0;stroke-dasharray:3.0,3.0;"/><path d="M828.5429,123.065 L830.8416,120 L828.5429,116.935 L836.2054,120 L828.5429,123.065 " fill="#A80036" style="stroke:#A80036;stroke-width:1.0;"/><ellipse cx="506" cy="120" fill="#A80036" rx="3" ry="3" style="stroke:#A80036;stroke-width:1.0;stroke-dasharray:3.0,3.0;"/><path d="M95,96 L108,96 C124.1536,96 127.924,99.4191 144,101 C240.5297,110.4925 353.5914,115.7703 418.3036,118.2358 " fill="none" style="stroke:#A80036;stroke-width:1.0;stroke-dasharray:3.0,3.0;"/><path d="M418.1889,121.2948 L420.5979,118.3218 L418.4184,115.1767 L425.9513,118.5226 L418.1889,121.2948 " fill="#A80036" style="stroke:#A80036;stroke-width:1.0;"/><ellipse cx="95" cy="96" fill="#A80036" rx="3" ry="3" style="stroke:#A80036;stroke-width:1.0;stroke-dasharray:3.0,3.0;"/><!--MD5=[db42038664f7001f9f18491fd7ab30d3]
@startjson
{
  "info": {
    "copyright": "copyright 2016-2017, 2019 Open Connectivity Foundation, Inc. All rights reserved.",
    "license": "https://github.com/one-data-model/oneDM/blob/master/LICENSE",
    "title": "Humidity",
    "version": "2019-02-15"
  },
  "sdfObject": {
    "humidity": {
      "description": "This Resource describes a sensed or desired humidity. The Property\\n\"humidity\" is an integer describing the percentage measured relative\\nhumidity. The Property \"desiredHumidity\" is an integer showing the\\ndesired target relative humidity.",
      "sdfProperty": {
        "desiredHumidity": {
          "description": "The desired value for humidity.",
          "maximum": 100,
          "minimum": 0,
          "type": "integer"
        },
        "humidity": {
          "description": "The current sensed value for humidity.",
          "maximum": 100,
          "minimum": 0,
          "writable": false,
          "type": "integer"
        }
      },
      "sdfRequired": [
        "#/sdfObject/humidity/sdfProperty/desiredHumidity"
      ]
    }
  }
}
@endjson

PlantUML version 1.2021.2(Sun Mar 07 13:10:27 EET 2021)
(GPL source distribution)
Java Runtime: OpenJDK Runtime Environment
JVM: OpenJDK 64-Bit Server VM
Default Encoding: UTF-8
Language: en
Country: FI
--></g></svg>