<?xml version="1.0" encoding="UTF-8" standalone="no"?><svg xmlns="http://www.w3.org/2000/svg" xmlns:xlink="http://www.w3.org/1999/xlink" contentScriptType="application/ecmascript" contentStyleType="text/css" height="523px" preserveAspectRatio="none" style="width:2585px;height:523px;" version="1.1" viewBox="0 0 2585 523" width="2585px" zoomAndPan="magnify"><defs/><g><rect fill="#FEFECE" height="40.9766" rx="5" ry="5" style="stroke:#FEFECE;stroke-width:1.5;" width="97" x="10" y="184"/><text fill="#000000" font-family="sans-serif" font-size="14" lengthAdjust="spacing" textLength="27" x="15" y="199.5352">info</text><text fill="#000000" font-family="sans-serif" font-size="14" lengthAdjust="spacing" textLength="0" x="102" y="199.5352"/><line style="stroke:#A80036;stroke-width:1.0;" x1="85" x2="85" y1="184" y2="204.4883"/><line style="stroke:#A80036;stroke-width:1.0;" x1="10" x2="107" y1="204.4883" y2="204.4883"/><text fill="#000000" font-family="sans-serif" font-size="14" lengthAdjust="spacing" textLength="65" x="15" y="220.0234">sdfObject</text><text fill="#000000" font-family="sans-serif" font-size="14" lengthAdjust="spacing" textLength="0" x="102" y="220.0234"/><line style="stroke:#A80036;stroke-width:1.0;" x1="85" x2="85" y1="204.4883" y2="224.9766"/><rect fill="none" height="40.9766" rx="5" ry="5" style="stroke:#A80036;stroke-width:1.5;" width="97" x="10" y="184"/><rect fill="#FEFECE" height="81.9531" rx="5" ry="5" style="stroke:#FEFECE;stroke-width:1.5;" width="655" x="144" y="128.5"/><text fill="#000000" font-family="sans-serif" font-size="14" lengthAdjust="spacing" textLength="65" x="149" y="144.0352">copyright</text><text fill="#000000" font-family="sans-serif" font-size="14" lengthAdjust="spacing" textLength="570" x="224" y="144.0352">copyright 2016-2017, 2019 Open Connectivity Foundation, Inc. All rights reserved.</text><line style="stroke:#A80036;stroke-width:1.0;" x1="219" x2="219" y1="128.5" y2="148.9883"/><line style="stroke:#A80036;stroke-width:1.0;" x1="144" x2="799" y1="148.9883" y2="148.9883"/><text fill="#000000" font-family="sans-serif" font-size="14" lengthAdjust="spacing" textLength="47" x="149" y="164.5234">license</text><text fill="#000000" font-family="sans-serif" font-size="14" lengthAdjust="spacing" textLength="462" x="224" y="164.5234">https://github.com/one-data-model/oneDM/blob/master/LICENSE</text><line style="stroke:#A80036;stroke-width:1.0;" x1="219" x2="219" y1="148.9883" y2="169.4766"/><line style="stroke:#A80036;stroke-width:1.0;" x1="144" x2="799" y1="169.4766" y2="169.4766"/><text fill="#000000" font-family="sans-serif" font-size="14" lengthAdjust="spacing" textLength="26" x="149" y="185.0117">title</text><text fill="#000000" font-family="sans-serif" font-size="14" lengthAdjust="spacing" textLength="106" x="224" y="185.0117">Colour Chroma</text><line style="stroke:#A80036;stroke-width:1.0;" x1="219" x2="219" y1="169.4766" y2="189.9648"/><line style="stroke:#A80036;stroke-width:1.0;" x1="144" x2="799" y1="189.9648" y2="189.9648"/><text fill="#000000" font-family="sans-serif" font-size="14" lengthAdjust="spacing" textLength="50" x="149" y="205.5">version</text><text fill="#000000" font-family="sans-serif" font-size="14" lengthAdjust="spacing" textLength="88" x="224" y="205.5">2019-02-15</text><line style="stroke:#A80036;stroke-width:1.0;" x1="219" x2="219" y1="189.9648" y2="210.4531"/><rect fill="none" height="81.9531" rx="5" ry="5" style="stroke:#A80036;stroke-width:1.5;" width="655" x="144" y="128.5"/><rect fill="#FEFECE" height="20.4883" rx="5" ry="5" style="stroke:#FEFECE;stroke-width:1.5;" width="132" x="405.5" y="228.5"/><text fill="#000000" font-family="sans-serif" font-size="14" lengthAdjust="spacing" textLength="100" x="410.5" y="244.0352">colour.chroma</text><text fill="#000000" font-family="sans-serif" font-size="14" lengthAdjust="spacing" textLength="0" x="532.5" y="244.0352"/><line style="stroke:#A80036;stroke-width:1.0;" x1="515.5" x2="515.5" y1="228.5" y2="248.9883"/><rect fill="none" height="20.4883" rx="5" ry="5" style="stroke:#A80036;stroke-width:1.5;" width="132" x="405.5" y="228.5"/><rect fill="#FEFECE" height="259.3242" rx="5" ry="5" style="stroke:#FEFECE;stroke-width:1.5;" width="604" x="836" y="109"/><text fill="#000000" font-family="sans-serif" font-size="14" lengthAdjust="spacing" textLength="77" x="841" y="124.5352">description</text><text fill="#000000" font-family="sans-serif" font-size="14" lengthAdjust="spacing" textLength="428" x="934" y="124.5352">This Resource describes the colour using chroma conventions.</text><text fill="#000000" font-family="sans-serif" font-size="14" lengthAdjust="spacing" textLength="419" x="934" y="141.0234">Properties are "hue", "saturation", "csc", and "ct". The Property</text><text fill="#000000" font-family="sans-serif" font-size="14" lengthAdjust="spacing" textLength="416" x="934" y="157.5117">"hue" is the hue angle, it is an integer value as defined by the</text><text fill="#000000" font-family="sans-serif" font-size="14" lengthAdjust="spacing" textLength="458" x="934" y="174">CIECAM02 model definition (see reference [CIE CIE159:2004]). The</text><text fill="#000000" font-family="sans-serif" font-size="14" lengthAdjust="spacing" textLength="468" x="934" y="190.4883">Property "saturation" is an integer value as defined by the CIECAM02</text><text fill="#000000" font-family="sans-serif" font-size="14" lengthAdjust="spacing" textLength="444" x="934" y="206.9766">model definition (see reference [CIE CIE159:2004]). The Property</text><text fill="#000000" font-family="sans-serif" font-size="14" lengthAdjust="spacing" textLength="501" x="934" y="223.4648">"maximumsaturation" is the upper bound on the saturation supported by</text><text fill="#000000" font-family="sans-serif" font-size="14" lengthAdjust="spacing" textLength="432" x="934" y="239.9531">the Device. If not present the maximum value for "saturation" is</text><text fill="#000000" font-family="sans-serif" font-size="14" lengthAdjust="spacing" textLength="436" x="934" y="256.4414">32767. The Property "csc" is the colour space coordinates in CIE</text><text fill="#000000" font-family="sans-serif" font-size="14" lengthAdjust="spacing" textLength="434" x="934" y="272.9297">colour space. The first item in the array is the X coordinate. The</text><text fill="#000000" font-family="sans-serif" font-size="14" lengthAdjust="spacing" textLength="443" x="934" y="289.418">second item in the array is the Y coordinate. The Property "nct" is</text><text fill="#000000" font-family="sans-serif" font-size="14" lengthAdjust="spacing" textLength="482" x="934" y="305.9063">the Mired colour temperature. The Resource provides the colour using</text><text fill="#000000" font-family="sans-serif" font-size="14" lengthAdjust="spacing" textLength="143" x="934" y="322.3945">chroma conventions.</text><line style="stroke:#A80036;stroke-width:1.0;" x1="929" x2="929" y1="109" y2="327.3477"/><line style="stroke:#A80036;stroke-width:1.0;" x1="836" x2="1440" y1="327.3477" y2="327.3477"/><text fill="#000000" font-family="sans-serif" font-size="14" lengthAdjust="spacing" textLength="79" x="841" y="342.8828">sdfProperty</text><text fill="#000000" font-family="sans-serif" font-size="14" lengthAdjust="spacing" textLength="0" x="946" y="342.8828"/><line style="stroke:#A80036;stroke-width:1.0;" x1="929" x2="929" y1="327.3477" y2="347.8359"/><line style="stroke:#A80036;stroke-width:1.0;" x1="836" x2="1440" y1="347.8359" y2="347.8359"/><text fill="#000000" font-family="sans-serif" font-size="14" lengthAdjust="spacing" textLength="83" x="841" y="363.3711">sdfRequired</text><text fill="#000000" font-family="sans-serif" font-size="14" lengthAdjust="spacing" textLength="0" x="946" y="363.3711"/><line style="stroke:#A80036;stroke-width:1.0;" x1="929" x2="929" y1="347.8359" y2="368.3242"/><rect fill="none" height="259.3242" rx="5" ry="5" style="stroke:#A80036;stroke-width:1.5;" width="604" x="836" y="109"/><rect fill="#FEFECE" height="102.4414" rx="5" ry="5" style="stroke:#FEFECE;stroke-width:1.5;" width="171" x="1572" y="180.5"/><text fill="#000000" font-family="sans-serif" font-size="14" lengthAdjust="spacing" textLength="12" x="1577" y="196.0352">ct</text><text fill="#000000" font-family="sans-serif" font-size="14" lengthAdjust="spacing" textLength="0" x="1738" y="196.0352"/><line style="stroke:#A80036;stroke-width:1.0;" x1="1721" x2="1721" y1="180.5" y2="200.9883"/><line style="stroke:#A80036;stroke-width:1.0;" x1="1572" x2="1743" y1="200.9883" y2="200.9883"/><text fill="#000000" font-family="sans-serif" font-size="14" lengthAdjust="spacing" textLength="26" x="1577" y="216.5234">hue</text><text fill="#000000" font-family="sans-serif" font-size="14" lengthAdjust="spacing" textLength="0" x="1738" y="216.5234"/><line style="stroke:#A80036;stroke-width:1.0;" x1="1721" x2="1721" y1="200.9883" y2="221.4766"/><line style="stroke:#A80036;stroke-width:1.0;" x1="1572" x2="1743" y1="221.4766" y2="221.4766"/><text fill="#000000" font-family="sans-serif" font-size="14" lengthAdjust="spacing" textLength="70" x="1577" y="237.0117">saturation</text><text fill="#000000" font-family="sans-serif" font-size="14" lengthAdjust="spacing" textLength="0" x="1738" y="237.0117"/><line style="stroke:#A80036;stroke-width:1.0;" x1="1721" x2="1721" y1="221.4766" y2="241.9648"/><line style="stroke:#A80036;stroke-width:1.0;" x1="1572" x2="1743" y1="241.9648" y2="241.9648"/><text fill="#000000" font-family="sans-serif" font-size="14" lengthAdjust="spacing" textLength="139" x="1577" y="257.5">maximumsaturation</text><text fill="#000000" font-family="sans-serif" font-size="14" lengthAdjust="spacing" textLength="0" x="1738" y="257.5"/><line style="stroke:#A80036;stroke-width:1.0;" x1="1721" x2="1721" y1="241.9648" y2="262.4531"/><line style="stroke:#A80036;stroke-width:1.0;" x1="1572" x2="1743" y1="262.4531" y2="262.4531"/><text fill="#000000" font-family="sans-serif" font-size="14" lengthAdjust="spacing" textLength="21" x="1577" y="277.9883">csc</text><text fill="#000000" font-family="sans-serif" font-size="14" lengthAdjust="spacing" textLength="0" x="1738" y="277.9883"/><line style="stroke:#A80036;stroke-width:1.0;" x1="1721" x2="1721" y1="262.4531" y2="282.9414"/><rect fill="none" height="102.4414" rx="5" ry="5" style="stroke:#A80036;stroke-width:1.5;" width="171" x="1572" y="180.5"/><rect fill="#FEFECE" height="61.4648" rx="5" ry="5" style="stroke:#FEFECE;stroke-width:1.5;" width="307" x="1980.5" y="10"/><text fill="#000000" font-family="sans-serif" font-size="14" lengthAdjust="spacing" textLength="77" x="1985.5" y="25.5352">description</text><text fill="#000000" font-family="sans-serif" font-size="14" lengthAdjust="spacing" textLength="210" x="2072.5" y="25.5352">The Mired colour temperature.</text><line style="stroke:#A80036;stroke-width:1.0;" x1="2067.5" x2="2067.5" y1="10" y2="30.4883"/><line style="stroke:#A80036;stroke-width:1.0;" x1="1980.5" x2="2287.5" y1="30.4883" y2="30.4883"/><text fill="#000000" font-family="sans-serif" font-size="14" lengthAdjust="spacing" textLength="65" x="1985.5" y="46.0234">minimum</text><text fill="#000000" font-family="sans-serif" font-size="14" lengthAdjust="spacing" textLength="9" x="2072.5" y="46.0234">0</text><line style="stroke:#A80036;stroke-width:1.0;" x1="2067.5" x2="2067.5" y1="30.4883" y2="50.9766"/><line style="stroke:#A80036;stroke-width:1.0;" x1="1980.5" x2="2287.5" y1="50.9766" y2="50.9766"/><text fill="#000000" font-family="sans-serif" font-size="14" lengthAdjust="spacing" textLength="29" x="1985.5" y="66.5117">type</text><text fill="#000000" font-family="sans-serif" font-size="14" lengthAdjust="spacing" textLength="49" x="2072.5" y="66.5117">integer</text><line style="stroke:#A80036;stroke-width:1.0;" x1="2067.5" x2="2067.5" y1="50.9766" y2="71.4648"/><rect fill="none" height="61.4648" rx="5" ry="5" style="stroke:#A80036;stroke-width:1.5;" width="307" x="1980.5" y="10"/><rect fill="#FEFECE" height="81.9531" rx="5" ry="5" style="stroke:#FEFECE;stroke-width:1.5;" width="513" x="1877.5" y="89.5"/><text fill="#000000" font-family="sans-serif" font-size="14" lengthAdjust="spacing" textLength="77" x="1882.5" y="105.0352">description</text><text fill="#000000" font-family="sans-serif" font-size="14" lengthAdjust="spacing" textLength="416" x="1969.5" y="105.0352">The hue angle as defined by the CIECAM02 model definition.</text><line style="stroke:#A80036;stroke-width:1.0;" x1="1964.5" x2="1964.5" y1="89.5" y2="109.9883"/><line style="stroke:#A80036;stroke-width:1.0;" x1="1877.5" x2="2390.5" y1="109.9883" y2="109.9883"/><text fill="#000000" font-family="sans-serif" font-size="14" lengthAdjust="spacing" textLength="69" x="1882.5" y="125.5234">maximum</text><text fill="#000000" font-family="sans-serif" font-size="14" lengthAdjust="spacing" textLength="27" x="1969.5" y="125.5234">360</text><line style="stroke:#A80036;stroke-width:1.0;" x1="1964.5" x2="1964.5" y1="109.9883" y2="130.4766"/><line style="stroke:#A80036;stroke-width:1.0;" x1="1877.5" x2="2390.5" y1="130.4766" y2="130.4766"/><text fill="#000000" font-family="sans-serif" font-size="14" lengthAdjust="spacing" textLength="65" x="1882.5" y="146.0117">minimum</text><text fill="#000000" font-family="sans-serif" font-size="14" lengthAdjust="spacing" textLength="9" x="1969.5" y="146.0117">0</text><line style="stroke:#A80036;stroke-width:1.0;" x1="1964.5" x2="1964.5" y1="130.4766" y2="150.9648"/><line style="stroke:#A80036;stroke-width:1.0;" x1="1877.5" x2="2390.5" y1="150.9648" y2="150.9648"/><text fill="#000000" font-family="sans-serif" font-size="14" lengthAdjust="spacing" textLength="29" x="1882.5" y="166.5">type</text><text fill="#000000" font-family="sans-serif" font-size="14" lengthAdjust="spacing" textLength="54" x="1969.5" y="166.5">number</text><line style="stroke:#A80036;stroke-width:1.0;" x1="1964.5" x2="1964.5" y1="150.9648" y2="171.4531"/><rect fill="none" height="81.9531" rx="5" ry="5" style="stroke:#A80036;stroke-width:1.5;" width="513" x="1877.5" y="89.5"/><rect fill="#FEFECE" height="81.9531" rx="5" ry="5" style="stroke:#FEFECE;stroke-width:1.5;" width="515" x="1876.5" y="189.5"/><text fill="#000000" font-family="sans-serif" font-size="14" lengthAdjust="spacing" textLength="77" x="1881.5" y="205.0352">description</text><text fill="#000000" font-family="sans-serif" font-size="14" lengthAdjust="spacing" textLength="418" x="1968.5" y="205.0352">The saturation as defined by the CIECAM02 model definition.</text><line style="stroke:#A80036;stroke-width:1.0;" x1="1963.5" x2="1963.5" y1="189.5" y2="209.9883"/><line style="stroke:#A80036;stroke-width:1.0;" x1="1876.5" x2="2391.5" y1="209.9883" y2="209.9883"/><text fill="#000000" font-family="sans-serif" font-size="14" lengthAdjust="spacing" textLength="69" x="1881.5" y="225.5234">maximum</text><text fill="#000000" font-family="sans-serif" font-size="14" lengthAdjust="spacing" textLength="45" x="1968.5" y="225.5234">32767</text><line style="stroke:#A80036;stroke-width:1.0;" x1="1963.5" x2="1963.5" y1="209.9883" y2="230.4766"/><line style="stroke:#A80036;stroke-width:1.0;" x1="1876.5" x2="2391.5" y1="230.4766" y2="230.4766"/><text fill="#000000" font-family="sans-serif" font-size="14" lengthAdjust="spacing" textLength="65" x="1881.5" y="246.0117">minimum</text><text fill="#000000" font-family="sans-serif" font-size="14" lengthAdjust="spacing" textLength="9" x="1968.5" y="246.0117">0</text><line style="stroke:#A80036;stroke-width:1.0;" x1="1963.5" x2="1963.5" y1="230.4766" y2="250.9648"/><line style="stroke:#A80036;stroke-width:1.0;" x1="1876.5" x2="2391.5" y1="250.9648" y2="250.9648"/><text fill="#000000" font-family="sans-serif" font-size="14" lengthAdjust="spacing" textLength="29" x="1881.5" y="266.5">type</text><text fill="#000000" font-family="sans-serif" font-size="14" lengthAdjust="spacing" textLength="49" x="1968.5" y="266.5">integer</text><line style="stroke:#A80036;stroke-width:1.0;" x1="1963.5" x2="1963.5" y1="250.9648" y2="271.4531"/><rect fill="none" height="81.9531" rx="5" ry="5" style="stroke:#A80036;stroke-width:1.5;" width="515" x="1876.5" y="189.5"/><rect fill="#FEFECE" height="102.4414" rx="5" ry="5" style="stroke:#FEFECE;stroke-width:1.5;" width="518" x="1875" y="289.5"/><text fill="#000000" font-family="sans-serif" font-size="14" lengthAdjust="spacing" textLength="77" x="1880" y="305.0352">description</text><text fill="#000000" font-family="sans-serif" font-size="14" lengthAdjust="spacing" textLength="421" x="1967" y="305.0352">The maximum supported value of "saturation" for this Device.</text><line style="stroke:#A80036;stroke-width:1.0;" x1="1962" x2="1962" y1="289.5" y2="309.9883"/><line style="stroke:#A80036;stroke-width:1.0;" x1="1875" x2="2393" y1="309.9883" y2="309.9883"/><text fill="#000000" font-family="sans-serif" font-size="14" lengthAdjust="spacing" textLength="69" x="1880" y="325.5234">maximum</text><text fill="#000000" font-family="sans-serif" font-size="14" lengthAdjust="spacing" textLength="45" x="1967" y="325.5234">32767</text><line style="stroke:#A80036;stroke-width:1.0;" x1="1962" x2="1962" y1="309.9883" y2="330.4766"/><line style="stroke:#A80036;stroke-width:1.0;" x1="1875" x2="2393" y1="330.4766" y2="330.4766"/><text fill="#000000" font-family="sans-serif" font-size="14" lengthAdjust="spacing" textLength="65" x="1880" y="346.0117">minimum</text><text fill="#000000" font-family="sans-serif" font-size="14" lengthAdjust="spacing" textLength="9" x="1967" y="346.0117">0</text><line style="stroke:#A80036;stroke-width:1.0;" x1="1962" x2="1962" y1="330.4766" y2="350.9648"/><line style="stroke:#A80036;stroke-width:1.0;" x1="1875" x2="2393" y1="350.9648" y2="350.9648"/><text fill="#000000" font-family="sans-serif" font-size="14" lengthAdjust="spacing" textLength="55" x="1880" y="366.5">writable</text><text fill="#000000" font-family="sans-serif" font-size="14" lengthAdjust="spacing" textLength="48" x="1967" y="366.5">☐ false</text><line style="stroke:#A80036;stroke-width:1.0;" x1="1962" x2="1962" y1="350.9648" y2="371.4531"/><line style="stroke:#A80036;stroke-width:1.0;" x1="1875" x2="2393" y1="371.4531" y2="371.4531"/><text fill="#000000" font-family="sans-serif" font-size="14" lengthAdjust="spacing" textLength="29" x="1880" y="386.9883">type</text><text fill="#000000" font-family="sans-serif" font-size="14" lengthAdjust="spacing" textLength="49" x="1967" y="386.9883">integer</text><line style="stroke:#A80036;stroke-width:1.0;" x1="1962" x2="1962" y1="371.4531" y2="391.9414"/><rect fill="none" height="102.4414" rx="5" ry="5" style="stroke:#A80036;stroke-width:1.5;" width="518" x="1875" y="289.5"/><rect fill="#FEFECE" height="102.4414" rx="5" ry="5" style="stroke:#FEFECE;stroke-width:1.5;" width="490" x="1889" y="409.5"/><text fill="#000000" font-family="sans-serif" font-size="14" lengthAdjust="spacing" textLength="77" x="1894" y="425.0352">description</text><text fill="#000000" font-family="sans-serif" font-size="14" lengthAdjust="spacing" textLength="393" x="1981" y="425.0352">The X and Y coordinates of the colour in CIE colour space</text><line style="stroke:#A80036;stroke-width:1.0;" x1="1976" x2="1976" y1="409.5" y2="429.9883"/><line style="stroke:#A80036;stroke-width:1.0;" x1="1889" x2="2379" y1="429.9883" y2="429.9883"/><text fill="#000000" font-family="sans-serif" font-size="14" lengthAdjust="spacing" textLength="37" x="1894" y="445.5234">items</text><text fill="#000000" font-family="sans-serif" font-size="14" lengthAdjust="spacing" textLength="0" x="1993" y="445.5234"/><line style="stroke:#A80036;stroke-width:1.0;" x1="1976" x2="1976" y1="429.9883" y2="450.4766"/><line style="stroke:#A80036;stroke-width:1.0;" x1="1889" x2="2379" y1="450.4766" y2="450.4766"/><text fill="#000000" font-family="sans-serif" font-size="14" lengthAdjust="spacing" textLength="67" x="1894" y="466.0117">maxItems</text><text fill="#000000" font-family="sans-serif" font-size="14" lengthAdjust="spacing" textLength="9" x="1981" y="466.0117">2</text><line style="stroke:#A80036;stroke-width:1.0;" x1="1976" x2="1976" y1="450.4766" y2="470.9648"/><line style="stroke:#A80036;stroke-width:1.0;" x1="1889" x2="2379" y1="470.9648" y2="470.9648"/><text fill="#000000" font-family="sans-serif" font-size="14" lengthAdjust="spacing" textLength="63" x="1894" y="486.5">minItems</text><text fill="#000000" font-family="sans-serif" font-size="14" lengthAdjust="spacing" textLength="9" x="1981" y="486.5">2</text><line style="stroke:#A80036;stroke-width:1.0;" x1="1976" x2="1976" y1="470.9648" y2="491.4531"/><line style="stroke:#A80036;stroke-width:1.0;" x1="1889" x2="2379" y1="491.4531" y2="491.4531"/><text fill="#000000" font-family="sans-serif" font-size="14" lengthAdjust="spacing" textLength="29" x="1894" y="506.9883">type</text><text fill="#000000" font-family="sans-serif" font-size="14" lengthAdjust="spacing" textLength="35" x="1981" y="506.9883">array</text><line style="stroke:#A80036;stroke-width:1.0;" x1="1976" x2="1976" y1="491.4531" y2="511.9414"/><rect fill="none" height="102.4414" rx="5" ry="5" style="stroke:#A80036;stroke-width:1.5;" width="490" x="1889" y="409.5"/><rect fill="#FEFECE" height="61.4648" rx="5" ry="5" style="stroke:#FEFECE;stroke-width:1.5;" width="143" x="2430" y="409"/><text fill="#000000" font-family="sans-serif" font-size="14" lengthAdjust="spacing" textLength="69" x="2435" y="424.5352">maximum</text><text fill="#000000" font-family="sans-serif" font-size="14" lengthAdjust="spacing" textLength="9" x="2514" y="424.5352">1</text><line style="stroke:#A80036;stroke-width:1.0;" x1="2509" x2="2509" y1="409" y2="429.4883"/><line style="stroke:#A80036;stroke-width:1.0;" x1="2430" x2="2573" y1="429.4883" y2="429.4883"/><text fill="#000000" font-family="sans-serif" font-size="14" lengthAdjust="spacing" textLength="65" x="2435" y="445.0234">minimum</text><text fill="#000000" font-family="sans-serif" font-size="14" lengthAdjust="spacing" textLength="9" x="2514" y="445.0234">0</text><line style="stroke:#A80036;stroke-width:1.0;" x1="2509" x2="2509" y1="429.4883" y2="449.9766"/><line style="stroke:#A80036;stroke-width:1.0;" x1="2430" x2="2573" y1="449.9766" y2="449.9766"/><text fill="#000000" font-family="sans-serif" font-size="14" lengthAdjust="spacing" textLength="29" x="2435" y="465.5117">type</text><text fill="#000000" font-family="sans-serif" font-size="14" lengthAdjust="spacing" textLength="54" x="2514" y="465.5117">number</text><line style="stroke:#A80036;stroke-width:1.0;" x1="2509" x2="2509" y1="449.9766" y2="470.4648"/><rect fill="none" height="61.4648" rx="5" ry="5" style="stroke:#A80036;stroke-width:1.5;" width="143" x="2430" y="409"/><rect fill="#FEFECE" height="61.4648" rx="5" ry="5" style="stroke:#FEFECE;stroke-width:1.5;" width="361" x="1477" y="301"/><text fill="#000000" font-family="sans-serif" font-size="14" lengthAdjust="spacing" textLength="307" x="1482" y="316.5352">#/sdfObject/colour.chroma/sdfProperty/hue</text><line style="stroke:#A80036;stroke-width:1.0;" x1="1477" x2="1838" y1="321.4883" y2="321.4883"/><text fill="#000000" font-family="sans-serif" font-size="14" lengthAdjust="spacing" textLength="351" x="1482" y="337.0234">#/sdfObject/colour.chroma/sdfProperty/saturation</text><line style="stroke:#A80036;stroke-width:1.0;" x1="1477" x2="1838" y1="341.9766" y2="341.9766"/><text fill="#000000" font-family="sans-serif" font-size="14" lengthAdjust="spacing" textLength="302" x="1482" y="357.5117">#/sdfObject/colour.chroma/sdfProperty/csc</text><rect fill="none" height="61.4648" rx="5" ry="5" style="stroke:#A80036;stroke-width:1.5;" width="361" x="1477" y="301"/><path d="M95,193.5 L108,193.5 C117.3442,193.5 126.8208,193.4198 136.3833,193.2688 " fill="none" style="stroke:#A80036;stroke-width:1.0;stroke-dasharray:3.0,3.0;"/><path d="M136.4378,196.3434 L138.6892,193.2279 L136.3288,190.1942 L144.0697,193.1326 L136.4378,196.3434 " fill="#A80036" style="stroke:#A80036;stroke-width:1.0;"/><ellipse cx="95" cy="193.5" fill="#A80036" rx="3" ry="3" style="stroke:#A80036;stroke-width:1.0;stroke-dasharray:3.0,3.0;"/><path d="M1732,190.5 L1745,190.5 C1820.6862,190.5 1806.1374,111.9061 1875,80.5 C1905.4424,66.6162 1939.7738,57.4107 1973.234,51.3408 " fill="none" style="stroke:#A80036;stroke-width:1.0;stroke-dasharray:3.0,3.0;"/><path d="M1973.7636,54.3707 L1975.5064,50.9436 L1972.7043,48.3109 L1980.8088,50.0167 L1973.7636,54.3707 " fill="#A80036" style="stroke:#A80036;stroke-width:1.0;"/><ellipse cx="1732" cy="190.5" fill="#A80036" rx="3" ry="3" style="stroke:#A80036;stroke-width:1.0;stroke-dasharray:3.0,3.0;"/><path d="M1732,210.5 L1745,210.5 C1804.2963,210.5 1816.9932,192.7989 1875,180.5 C1886.6646,178.0268 1898.6361,175.5385 1910.7308,173.0638 " fill="none" style="stroke:#A80036;stroke-width:1.0;stroke-dasharray:3.0,3.0;"/><path d="M1911.3464,176.0817 L1912.9943,172.6021 L1910.1153,170.0458 L1918.2758,171.5249 L1911.3464,176.0817 " fill="#A80036" style="stroke:#A80036;stroke-width:1.0;"/><ellipse cx="1732" cy="210.5" fill="#A80036" rx="3" ry="3" style="stroke:#A80036;stroke-width:1.0;stroke-dasharray:3.0,3.0;"/><path d="M1732,230.5 L1745,230.5 C1785.1612,230.5 1827.6576,230.5 1869.2303,230.5 " fill="none" style="stroke:#A80036;stroke-width:1.0;stroke-dasharray:3.0,3.0;"/><path d="M1869.2303,233.6004 L1871.5556,230.5 L1869.2303,227.3996 L1876.9813,230.5 L1869.2303,233.6004 " fill="#A80036" style="stroke:#A80036;stroke-width:1.0;"/><ellipse cx="1732" cy="230.5" fill="#A80036" rx="3" ry="3" style="stroke:#A80036;stroke-width:1.0;stroke-dasharray:3.0,3.0;"/><path d="M1732,251.5 L1745,251.5 C1747.4217,251.5 1822.0791,268.5336 1905.3052,287.6971 " fill="none" style="stroke:#A80036;stroke-width:1.0;stroke-dasharray:3.0,3.0;"/><path d="M1904.609,290.72 L1907.5724,288.2192 L1906.0015,284.6742 L1912.8625,289.4376 L1904.609,290.72 " fill="#A80036" style="stroke:#A80036;stroke-width:1.0;"/><ellipse cx="1732" cy="251.5" fill="#A80036" rx="3" ry="3" style="stroke:#A80036;stroke-width:1.0;stroke-dasharray:3.0,3.0;"/><path d="M2367.5,439.5 L2380.5,439.5 C2394.0916,439.5 2408.5454,439.5 2422.5486,439.5 " fill="none" style="stroke:#A80036;stroke-width:1.0;stroke-dasharray:3.0,3.0;"/><path d="M2422.5486,442.5899 L2424.866,439.5 L2422.5486,436.4101 L2430.2734,439.5 L2422.5486,442.5899 " fill="#A80036" style="stroke:#A80036;stroke-width:1.0;"/><ellipse cx="2367.5" cy="439.5" fill="#A80036" rx="3" ry="3" style="stroke:#A80036;stroke-width:1.0;stroke-dasharray:3.0,3.0;"/><path d="M1732,272.5 L1745,272.5 C1787.7129,272.5 1807.1527,264.037 1839,292.5 C1876.7253,326.2164 1837.587,366.4374 1875,400.5 C1877.7307,402.9862 1880.5438,405.3754 1883.4315,407.6715 " fill="none" style="stroke:#A80036;stroke-width:1.0;stroke-dasharray:3.0,3.0;"/><path d="M1881.5983,410.0834 L1885.2404,409.0464 L1885.2648,405.2596 L1889.4612,412.2547 L1881.5983,410.0834 " fill="#A80036" style="stroke:#A80036;stroke-width:1.0;"/><ellipse cx="1732" cy="272.5" fill="#A80036" rx="3" ry="3" style="stroke:#A80036;stroke-width:1.0;stroke-dasharray:3.0,3.0;"/><path d="M1428,237.5 L1441,237.5 C1481.6211,237.5 1526.5228,236.4266 1564.8164,235.1878 " fill="none" style="stroke:#A80036;stroke-width:1.0;stroke-dasharray:3.0,3.0;"/><path d="M1564.9163,238.2147 L1567.0867,235.1128 L1564.7166,232.1608 L1572.3839,234.9381 L1564.9163,238.2147 " fill="#A80036" style="stroke:#A80036;stroke-width:1.0;"/><ellipse cx="1428" cy="237.5" fill="#A80036" rx="3" ry="3" style="stroke:#A80036;stroke-width:1.0;stroke-dasharray:3.0,3.0;"/><path d="M1428,324.5 L1441,324.5 C1450.3257,324.5 1459.8767,324.566 1469.5213,324.6851 " fill="none" style="stroke:#A80036;stroke-width:1.0;stroke-dasharray:3.0,3.0;"/><path d="M1469.4786,327.7861 L1471.847,324.7172 L1469.564,321.5842 L1477.2737,324.7919 L1469.4786,327.7861 " fill="#A80036" style="stroke:#A80036;stroke-width:1.0;"/><ellipse cx="1428" cy="324.5" fill="#A80036" rx="3" ry="3" style="stroke:#A80036;stroke-width:1.0;stroke-dasharray:3.0,3.0;"/><path d="M526,238.5 L539,238.5 C633.2113,238.5 735.7646,238.5 828.9326,238.5 " fill="none" style="stroke:#A80036;stroke-width:1.0;stroke-dasharray:3.0,3.0;"/><path d="M828.9326,241.5193 L831.1971,238.5 L828.9326,235.4807 L836.4809,238.5 L828.9326,241.5193 " fill="#A80036" style="stroke:#A80036;stroke-width:1.0;"/><ellipse cx="526" cy="238.5" fill="#A80036" rx="3" ry="3" style="stroke:#A80036;stroke-width:1.0;stroke-dasharray:3.0,3.0;"/><path d="M95,214.5 L108,214.5 C124.1536,214.5 127.924,217.9191 144,219.5 C231.1895,228.074 331.8666,233.2095 398.2198,235.9398 " fill="none" style="stroke:#A80036;stroke-width:1.0;stroke-dasharray:3.0,3.0;"/><path d="M398.0978,238.9462 L400.4746,236.0313 L398.3419,232.9334 L405.7358,236.2448 L398.0978,238.9462 " fill="#A80036" style="stroke:#A80036;stroke-width:1.0;"/><ellipse cx="95" cy="214.5" fill="#A80036" rx="3" ry="3" style="stroke:#A80036;stroke-width:1.0;stroke-dasharray:3.0,3.0;"/><!--MD5=[a27626fad43e4c3b990475705f1afc69]
@startjson
{
  "info": {
    "copyright": "copyright 2016-2017, 2019 Open Connectivity Foundation, Inc. All rights reserved.",
    "license": "https://github.com/one-data-model/oneDM/blob/master/LICENSE",
    "title": "Colour Chroma",
    "version": "2019-02-15"
  },
  "sdfObject": {
    "colour.chroma": {
      "description": "This Resource describes the colour using chroma conventions.\\nProperties are \"hue\", \"saturation\", \"csc\", and \"ct\". The Property\\n\"hue\" is the hue angle, it is an integer value as defined by the\\nCIECAM02 model definition (see reference [CIE CIE159:2004]). The\\nProperty \"saturation\" is an integer value as defined by the CIECAM02\\nmodel definition (see reference [CIE CIE159:2004]). The Property\\n\"maximumsaturation\" is the upper bound on the saturation supported by\\nthe Device. If not present the maximum value for \"saturation\" is\\n32767. The Property \"csc\" is the colour space coordinates in CIE\\ncolour space. The first item in the array is the X coordinate. The\\nsecond item in the array is the Y coordinate. The Property \"nct\" is\\nthe Mired colour temperature. The Resource provides the colour using\\nchroma conventions.",
      "sdfProperty": {
        "ct": {
          "description": "The Mired colour temperature.",
          "minimum": 0,
          "type": "integer"
        },
        "hue": {
          "description": "The hue angle as defined by the CIECAM02 model definition.",
          "maximum": 360,
          "minimum": 0,
          "type": "number"
        },
        "saturation": {
          "description": "The saturation as defined by the CIECAM02 model definition.",
          "maximum": 32767,
          "minimum": 0,
          "type": "integer"
        },
        "maximumsaturation": {
          "description": "The maximum supported value of \"saturation\" for this Device.",
          "maximum": 32767,
          "minimum": 0,
          "writable": false,
          "type": "integer"
        },
        "csc": {
          "description": "The X and Y coordinates of the colour in CIE colour space",
          "items": {
            "maximum": 1,
            "minimum": 0,
            "type": "number"
          },
          "maxItems": 2,
          "minItems": 2,
          "type": "array"
        }
      },
      "sdfRequired": [
        "#/sdfObject/colour.chroma/sdfProperty/hue",
        "#/sdfObject/colour.chroma/sdfProperty/saturation",
        "#/sdfObject/colour.chroma/sdfProperty/csc"
      ]
    }
  }
}
@endjson

PlantUML version 1.2021.2(Sun Mar 07 13:10:27 EET 2021)
(GPL source distribution)
Java Runtime: OpenJDK Runtime Environment
JVM: OpenJDK 64-Bit Server VM
Default Encoding: UTF-8
Language: en
Country: FI
--></g></svg>