<?xml version="1.0" encoding="UTF-8" standalone="no"?><svg xmlns="http://www.w3.org/2000/svg" xmlns:xlink="http://www.w3.org/1999/xlink" contentScriptType="application/ecmascript" contentStyleType="text/css" height="414px" preserveAspectRatio="none" style="width:2328px;height:414px;" version="1.1" viewBox="0 0 2328 414" width="2328px" zoomAndPan="magnify"><defs/><g><rect fill="#FEFECE" height="40.9766" rx="5" ry="5" style="stroke:#FEFECE;stroke-width:1.5;" width="97" x="10" y="91.5"/><text fill="#000000" font-family="sans-serif" font-size="14" lengthAdjust="spacing" textLength="27" x="15" y="107.0352">info</text><text fill="#000000" font-family="sans-serif" font-size="14" lengthAdjust="spacing" textLength="0" x="102" y="107.0352"/><line style="stroke:#A80036;stroke-width:1.0;" x1="85" x2="85" y1="91.5" y2="111.9883"/><line style="stroke:#A80036;stroke-width:1.0;" x1="10" x2="107" y1="111.9883" y2="111.9883"/><text fill="#000000" font-family="sans-serif" font-size="14" lengthAdjust="spacing" textLength="65" x="15" y="127.5234">sdfObject</text><text fill="#000000" font-family="sans-serif" font-size="14" lengthAdjust="spacing" textLength="0" x="102" y="127.5234"/><line style="stroke:#A80036;stroke-width:1.0;" x1="85" x2="85" y1="111.9883" y2="132.4766"/><rect fill="none" height="40.9766" rx="5" ry="5" style="stroke:#A80036;stroke-width:1.5;" width="97" x="10" y="91.5"/><rect fill="#FEFECE" height="81.9531" rx="5" ry="5" style="stroke:#FEFECE;stroke-width:1.5;" width="655" x="144" y="36"/><text fill="#000000" font-family="sans-serif" font-size="14" lengthAdjust="spacing" textLength="65" x="149" y="51.5352">copyright</text><text fill="#000000" font-family="sans-serif" font-size="14" lengthAdjust="spacing" textLength="570" x="224" y="51.5352">copyright 2016-2017, 2019 Open Connectivity Foundation, Inc. All rights reserved.</text><line style="stroke:#A80036;stroke-width:1.0;" x1="219" x2="219" y1="36" y2="56.4883"/><line style="stroke:#A80036;stroke-width:1.0;" x1="144" x2="799" y1="56.4883" y2="56.4883"/><text fill="#000000" font-family="sans-serif" font-size="14" lengthAdjust="spacing" textLength="47" x="149" y="72.0234">license</text><text fill="#000000" font-family="sans-serif" font-size="14" lengthAdjust="spacing" textLength="462" x="224" y="72.0234">https://github.com/one-data-model/oneDM/blob/master/LICENSE</text><line style="stroke:#A80036;stroke-width:1.0;" x1="219" x2="219" y1="56.4883" y2="76.9766"/><line style="stroke:#A80036;stroke-width:1.0;" x1="144" x2="799" y1="76.9766" y2="76.9766"/><text fill="#000000" font-family="sans-serif" font-size="14" lengthAdjust="spacing" textLength="26" x="149" y="92.5117">title</text><text fill="#000000" font-family="sans-serif" font-size="14" lengthAdjust="spacing" textLength="91" x="224" y="92.5117">Delay Defrost</text><line style="stroke:#A80036;stroke-width:1.0;" x1="219" x2="219" y1="76.9766" y2="97.4648"/><line style="stroke:#A80036;stroke-width:1.0;" x1="144" x2="799" y1="97.4648" y2="97.4648"/><text fill="#000000" font-family="sans-serif" font-size="14" lengthAdjust="spacing" textLength="50" x="149" y="113">version</text><text fill="#000000" font-family="sans-serif" font-size="14" lengthAdjust="spacing" textLength="88" x="224" y="113">2019-02-15</text><line style="stroke:#A80036;stroke-width:1.0;" x1="219" x2="219" y1="97.4648" y2="117.9531"/><rect fill="none" height="81.9531" rx="5" ry="5" style="stroke:#A80036;stroke-width:1.5;" width="655" x="144" y="36"/><rect fill="#FEFECE" height="20.4883" rx="5" ry="5" style="stroke:#FEFECE;stroke-width:1.5;" width="117" x="413" y="136"/><text fill="#000000" font-family="sans-serif" font-size="14" lengthAdjust="spacing" textLength="85" x="418" y="151.5352">delaydefrost</text><text fill="#000000" font-family="sans-serif" font-size="14" lengthAdjust="spacing" textLength="0" x="525" y="151.5352"/><line style="stroke:#A80036;stroke-width:1.0;" x1="508" x2="508" y1="136" y2="156.4883"/><rect fill="none" height="20.4883" rx="5" ry="5" style="stroke:#A80036;stroke-width:1.5;" width="117" x="413" y="136"/><rect fill="#FEFECE" height="271.8125" rx="5" ry="5" style="stroke:#FEFECE;stroke-width:1.5;" width="678" x="836" y="10"/><text fill="#000000" font-family="sans-serif" font-size="14" lengthAdjust="spacing" textLength="77" x="841" y="25.5352">description</text><text fill="#000000" font-family="sans-serif" font-size="14" lengthAdjust="spacing" textLength="466" x="930" y="25.5352">This Resource describes the delay defrost function as defined by the</text><text fill="#000000" font-family="sans-serif" font-size="14" lengthAdjust="spacing" textLength="399" x="930" y="42.0234">US Energy Star Specifications. See Energy Star Refrigerator</text><text fill="#000000" font-family="sans-serif" font-size="14" lengthAdjust="spacing" textLength="420" x="930" y="58.5117">Requirements Version 5 Section 4). (https://www. energystar.</text><text fill="#000000" font-family="sans-serif" font-size="14" lengthAdjust="spacing" textLength="562" x="930" y="75">gov/sites/default/files/specs//private/ENERGY%20STAR%20Final%20Version%205.</text><text fill="#000000" font-family="sans-serif" font-size="14" lengthAdjust="spacing" textLength="579" x="930" y="91.4883">0%20Residential%20Refrigerators%20and%20Freezers%20Program%20Requirements.</text><text fill="#000000" font-family="sans-serif" font-size="14" lengthAdjust="spacing" textLength="420" x="930" y="107.9766">pdf) The Property "status" is a boolean indicating whether the</text><text fill="#000000" font-family="sans-serif" font-size="14" lengthAdjust="spacing" textLength="433" x="930" y="124.4648">function is on, if off then defrost is scheduled as part of normal</text><text fill="#000000" font-family="sans-serif" font-size="14" lengthAdjust="spacing" textLength="451" x="930" y="140.9531">device operation. The Property "startTime" is an ISO8601 encoded</text><text fill="#000000" font-family="sans-serif" font-size="14" lengthAdjust="spacing" textLength="423" x="930" y="157.4414">start time for the interval in which defrost shall not occur. The</text><text fill="#000000" font-family="sans-serif" font-size="14" lengthAdjust="spacing" textLength="471" x="930" y="173.9297">Property "stopTime" is an ISO8601 encoded stop time for the interval</text><text fill="#000000" font-family="sans-serif" font-size="14" lengthAdjust="spacing" textLength="409" x="930" y="190.418">in which defrost shall not occur. The Property "interval" with</text><text fill="#000000" font-family="sans-serif" font-size="14" lengthAdjust="spacing" textLength="438" x="930" y="206.9063">additional range restrictions is the time in minutes of the period</text><text fill="#000000" font-family="sans-serif" font-size="14" lengthAdjust="spacing" textLength="415" x="930" y="223.3945">that starts at starttime (if not present the default is 240). The</text><text fill="#000000" font-family="sans-serif" font-size="14" lengthAdjust="spacing" textLength="436" x="930" y="239.8828">Properties "stopTime" and "interval" are mutually exclusive; they</text><text fill="#000000" font-family="sans-serif" font-size="14" lengthAdjust="spacing" textLength="321" x="930" y="256.3711">cannot both be present in a Resource instance.</text><line style="stroke:#A80036;stroke-width:1.0;" x1="925" x2="925" y1="10" y2="261.3242"/><line style="stroke:#A80036;stroke-width:1.0;" x1="836" x2="1514" y1="261.3242" y2="261.3242"/><text fill="#000000" font-family="sans-serif" font-size="14" lengthAdjust="spacing" textLength="79" x="841" y="276.8594">sdfProperty</text><text fill="#000000" font-family="sans-serif" font-size="14" lengthAdjust="spacing" textLength="0" x="942" y="276.8594"/><line style="stroke:#A80036;stroke-width:1.0;" x1="925" x2="925" y1="261.3242" y2="281.8125"/><rect fill="none" height="271.8125" rx="5" ry="5" style="stroke:#A80036;stroke-width:1.5;" width="678" x="836" y="10"/><rect fill="#FEFECE" height="81.9531" rx="5" ry="5" style="stroke:#FEFECE;stroke-width:1.5;" width="97" x="1551" y="173"/><text fill="#000000" font-family="sans-serif" font-size="14" lengthAdjust="spacing" textLength="41" x="1556" y="188.5352">status</text><text fill="#000000" font-family="sans-serif" font-size="14" lengthAdjust="spacing" textLength="0" x="1643" y="188.5352"/><line style="stroke:#A80036;stroke-width:1.0;" x1="1626" x2="1626" y1="173" y2="193.4883"/><line style="stroke:#A80036;stroke-width:1.0;" x1="1551" x2="1648" y1="193.4883" y2="193.4883"/><text fill="#000000" font-family="sans-serif" font-size="14" lengthAdjust="spacing" textLength="51" x="1556" y="209.0234">interval</text><text fill="#000000" font-family="sans-serif" font-size="14" lengthAdjust="spacing" textLength="0" x="1643" y="209.0234"/><line style="stroke:#A80036;stroke-width:1.0;" x1="1626" x2="1626" y1="193.4883" y2="213.9766"/><line style="stroke:#A80036;stroke-width:1.0;" x1="1551" x2="1648" y1="213.9766" y2="213.9766"/><text fill="#000000" font-family="sans-serif" font-size="14" lengthAdjust="spacing" textLength="64" x="1556" y="229.5117">stopTime</text><text fill="#000000" font-family="sans-serif" font-size="14" lengthAdjust="spacing" textLength="0" x="1643" y="229.5117"/><line style="stroke:#A80036;stroke-width:1.0;" x1="1626" x2="1626" y1="213.9766" y2="234.4648"/><line style="stroke:#A80036;stroke-width:1.0;" x1="1551" x2="1648" y1="234.4648" y2="234.4648"/><text fill="#000000" font-family="sans-serif" font-size="14" lengthAdjust="spacing" textLength="65" x="1556" y="250">startTime</text><text fill="#000000" font-family="sans-serif" font-size="14" lengthAdjust="spacing" textLength="0" x="1643" y="250"/><line style="stroke:#A80036;stroke-width:1.0;" x1="1626" x2="1626" y1="234.4648" y2="254.9531"/><rect fill="none" height="81.9531" rx="5" ry="5" style="stroke:#A80036;stroke-width:1.5;" width="97" x="1551" y="173"/><rect fill="#FEFECE" height="40.9766" rx="5" ry="5" style="stroke:#FEFECE;stroke-width:1.5;" width="537" x="1732" y="49.5"/><text fill="#000000" font-family="sans-serif" font-size="14" lengthAdjust="spacing" textLength="77" x="1737" y="65.0352">description</text><text fill="#000000" font-family="sans-serif" font-size="14" lengthAdjust="spacing" textLength="440" x="1824" y="65.0352">Indicates whether any supported delay defrost function is active.</text><line style="stroke:#A80036;stroke-width:1.0;" x1="1819" x2="1819" y1="49.5" y2="69.9883"/><line style="stroke:#A80036;stroke-width:1.0;" x1="1732" x2="2269" y1="69.9883" y2="69.9883"/><text fill="#000000" font-family="sans-serif" font-size="14" lengthAdjust="spacing" textLength="29" x="1737" y="85.5234">type</text><text fill="#000000" font-family="sans-serif" font-size="14" lengthAdjust="spacing" textLength="56" x="1824" y="85.5234">boolean</text><line style="stroke:#A80036;stroke-width:1.0;" x1="1819" x2="1819" y1="69.9883" y2="90.4766"/><rect fill="none" height="40.9766" rx="5" ry="5" style="stroke:#A80036;stroke-width:1.5;" width="537" x="1732" y="49.5"/><rect fill="#FEFECE" height="102.4414" rx="5" ry="5" style="stroke:#FEFECE;stroke-width:1.5;" width="383" x="1809" y="109"/><text fill="#000000" font-family="sans-serif" font-size="14" lengthAdjust="spacing" textLength="77" x="1814" y="124.5352">description</text><text fill="#000000" font-family="sans-serif" font-size="14" lengthAdjust="spacing" textLength="286" x="1901" y="124.5352">Defrost interval as defined by Energy Star.</text><line style="stroke:#A80036;stroke-width:1.0;" x1="1896" x2="1896" y1="109" y2="129.4883"/><line style="stroke:#A80036;stroke-width:1.0;" x1="1809" x2="2192" y1="129.4883" y2="129.4883"/><text fill="#000000" font-family="sans-serif" font-size="14" lengthAdjust="spacing" textLength="65" x="1814" y="145.0234">minimum</text><text fill="#000000" font-family="sans-serif" font-size="14" lengthAdjust="spacing" textLength="9" x="1901" y="145.0234">1</text><line style="stroke:#A80036;stroke-width:1.0;" x1="1896" x2="1896" y1="129.4883" y2="149.9766"/><line style="stroke:#A80036;stroke-width:1.0;" x1="1809" x2="2192" y1="149.9766" y2="149.9766"/><text fill="#000000" font-family="sans-serif" font-size="14" lengthAdjust="spacing" textLength="69" x="1814" y="165.5117">maximum</text><text fill="#000000" font-family="sans-serif" font-size="14" lengthAdjust="spacing" textLength="36" x="1901" y="165.5117">1440</text><line style="stroke:#A80036;stroke-width:1.0;" x1="1896" x2="1896" y1="149.9766" y2="170.4648"/><line style="stroke:#A80036;stroke-width:1.0;" x1="1809" x2="2192" y1="170.4648" y2="170.4648"/><text fill="#000000" font-family="sans-serif" font-size="14" lengthAdjust="spacing" textLength="48" x="1814" y="186">default</text><text fill="#000000" font-family="sans-serif" font-size="14" lengthAdjust="spacing" textLength="27" x="1901" y="186">240</text><line style="stroke:#A80036;stroke-width:1.0;" x1="1896" x2="1896" y1="170.4648" y2="190.9531"/><line style="stroke:#A80036;stroke-width:1.0;" x1="1809" x2="2192" y1="190.9531" y2="190.9531"/><text fill="#000000" font-family="sans-serif" font-size="14" lengthAdjust="spacing" textLength="29" x="1814" y="206.4883">type</text><text fill="#000000" font-family="sans-serif" font-size="14" lengthAdjust="spacing" textLength="49" x="1901" y="206.4883">integer</text><line style="stroke:#A80036;stroke-width:1.0;" x1="1896" x2="1896" y1="190.9531" y2="211.4414"/><rect fill="none" height="102.4414" rx="5" ry="5" style="stroke:#A80036;stroke-width:1.5;" width="383" x="1809" y="109"/><rect fill="#FEFECE" height="77.9531" rx="5" ry="5" style="stroke:#FEFECE;stroke-width:1.5;" width="631" x="1685" y="229"/><text fill="#000000" font-family="sans-serif" font-size="14" lengthAdjust="spacing" textLength="77" x="1690" y="244.5352">description</text><text fill="#000000" font-family="sans-serif" font-size="14" lengthAdjust="spacing" textLength="458" x="1777" y="244.5352">Stop time for the time period, if present interval cannot be present.</text><text fill="#000000" font-family="sans-serif" font-size="14" lengthAdjust="spacing" textLength="377" x="1781" y="261.0234">This is the time of day at which the delay interval stops.</text><line style="stroke:#A80036;stroke-width:1.0;" x1="1772" x2="1772" y1="229" y2="265.9766"/><line style="stroke:#A80036;stroke-width:1.0;" x1="1685" x2="2316" y1="265.9766" y2="265.9766"/><text fill="#000000" font-family="sans-serif" font-size="14" lengthAdjust="spacing" textLength="29" x="1690" y="281.5117">type</text><text fill="#000000" font-family="sans-serif" font-size="14" lengthAdjust="spacing" textLength="40" x="1777" y="281.5117">string</text><line style="stroke:#A80036;stroke-width:1.0;" x1="1772" x2="1772" y1="265.9766" y2="286.4648"/><line style="stroke:#A80036;stroke-width:1.0;" x1="1685" x2="2316" y1="286.4648" y2="286.4648"/><text fill="#000000" font-family="sans-serif" font-size="14" lengthAdjust="spacing" textLength="50" x="1690" y="302">pattern</text><text fill="#000000" font-family="sans-serif" font-size="14" lengthAdjust="spacing" textLength="534" x="1777" y="302">^[T]([0-2][0-9]:[0-5][0-9]:[0-5][0-9])([zZ]|([\+-])([01]\d|2[0-3]):?([0-5]\d))$</text><line style="stroke:#A80036;stroke-width:1.0;" x1="1772" x2="1772" y1="286.4648" y2="306.9531"/><rect fill="none" height="77.9531" rx="5" ry="5" style="stroke:#A80036;stroke-width:1.5;" width="631" x="1685" y="229"/><rect fill="#FEFECE" height="77.9531" rx="5" ry="5" style="stroke:#FEFECE;stroke-width:1.5;" width="631" x="1685" y="325"/><text fill="#000000" font-family="sans-serif" font-size="14" lengthAdjust="spacing" textLength="77" x="1690" y="340.5352">description</text><text fill="#000000" font-family="sans-serif" font-size="14" lengthAdjust="spacing" textLength="444" x="1777" y="340.5352">Start time for the time period. This is the time of day at which the</text><text fill="#000000" font-family="sans-serif" font-size="14" lengthAdjust="spacing" textLength="137" x="1777" y="357.0234">delay interval starts.</text><line style="stroke:#A80036;stroke-width:1.0;" x1="1772" x2="1772" y1="325" y2="361.9766"/><line style="stroke:#A80036;stroke-width:1.0;" x1="1685" x2="2316" y1="361.9766" y2="361.9766"/><text fill="#000000" font-family="sans-serif" font-size="14" lengthAdjust="spacing" textLength="29" x="1690" y="377.5117">type</text><text fill="#000000" font-family="sans-serif" font-size="14" lengthAdjust="spacing" textLength="40" x="1777" y="377.5117">string</text><line style="stroke:#A80036;stroke-width:1.0;" x1="1772" x2="1772" y1="361.9766" y2="382.4648"/><line style="stroke:#A80036;stroke-width:1.0;" x1="1685" x2="2316" y1="382.4648" y2="382.4648"/><text fill="#000000" font-family="sans-serif" font-size="14" lengthAdjust="spacing" textLength="50" x="1690" y="398">pattern</text><text fill="#000000" font-family="sans-serif" font-size="14" lengthAdjust="spacing" textLength="534" x="1777" y="398">^[T]([0-2][0-9]:[0-5][0-9]:[0-5][0-9])([zZ]|([\+-])([01]\d|2[0-3]):?([0-5]\d))$</text><line style="stroke:#A80036;stroke-width:1.0;" x1="1772" x2="1772" y1="382.4648" y2="402.9531"/><rect fill="none" height="77.9531" rx="5" ry="5" style="stroke:#A80036;stroke-width:1.5;" width="631" x="1685" y="325"/><path d="M95,101 L108,101 C117.3442,101 126.8208,100.9198 136.3833,100.7688 " fill="none" style="stroke:#A80036;stroke-width:1.0;stroke-dasharray:3.0,3.0;"/><path d="M136.4378,103.8434 L138.6892,100.7279 L136.3288,97.6942 L144.0697,100.6326 L136.4378,103.8434 " fill="#A80036" style="stroke:#A80036;stroke-width:1.0;"/><ellipse cx="95" cy="101" fill="#A80036" rx="3" ry="3" style="stroke:#A80036;stroke-width:1.0;stroke-dasharray:3.0,3.0;"/><path d="M1636,183 L1649,183 C1689.2093,183 1652.4684,123.6323 1685,100 C1697.509,90.913 1711.0748,83.4614 1725.3139,77.3955 " fill="none" style="stroke:#A80036;stroke-width:1.0;stroke-dasharray:3.0,3.0;"/><path d="M1726.4609,80.2125 L1727.4267,76.5352 L1724.1669,74.5785 L1732.3564,74.5279 L1726.4609,80.2125 " fill="#A80036" style="stroke:#A80036;stroke-width:1.0;"/><ellipse cx="1636" cy="183" fill="#A80036" rx="3" ry="3" style="stroke:#A80036;stroke-width:1.0;stroke-dasharray:3.0,3.0;"/><path d="M1636,203 L1649,203 C1698.6361,203 1751.9294,198.7111 1801.6191,192.8424 " fill="none" style="stroke:#A80036;stroke-width:1.0;stroke-dasharray:3.0,3.0;"/><path d="M1801.9855,195.8915 L1803.906,192.5676 L1801.2528,189.7932 L1809.2421,191.9264 L1801.9855,195.8915 " fill="#A80036" style="stroke:#A80036;stroke-width:1.0;"/><ellipse cx="1636" cy="203" fill="#A80036" rx="3" ry="3" style="stroke:#A80036;stroke-width:1.0;stroke-dasharray:3.0,3.0;"/><path d="M1636,224 L1649,224 C1679.4181,224 1711.2047,225.647 1742.6916,228.3037 " fill="none" style="stroke:#A80036;stroke-width:1.0;stroke-dasharray:3.0,3.0;"/><path d="M1742.4284,231.3302 L1744.9615,228.5012 L1742.9549,225.2773 L1750.2578,228.9618 L1742.4284,231.3302 " fill="#A80036" style="stroke:#A80036;stroke-width:1.0;"/><ellipse cx="1636" cy="224" fill="#A80036" rx="3" ry="3" style="stroke:#A80036;stroke-width:1.0;stroke-dasharray:3.0,3.0;"/><path d="M1636,245 L1649,245 C1684.3801,245 1656.3365,295.2598 1685,316 C1687.3214,317.6797 1689.6778,319.3111 1692.0668,320.8954 " fill="none" style="stroke:#A80036;stroke-width:1.0;stroke-dasharray:3.0,3.0;"/><path d="M1690.4329,323.4548 L1693.9864,322.1208 L1693.7007,318.336 L1698.4654,324.9801 L1690.4329,323.4548 " fill="#A80036" style="stroke:#A80036;stroke-width:1.0;"/><ellipse cx="1636" cy="245" fill="#A80036" rx="3" ry="3" style="stroke:#A80036;stroke-width:1.0;stroke-dasharray:3.0,3.0;"/><path d="M1502,214 L1515,214 C1524.3208,214 1534.2234,214 1543.8362,214 " fill="none" style="stroke:#A80036;stroke-width:1.0;stroke-dasharray:3.0,3.0;"/><path d="M1543.8362,217.0522 L1546.1254,214 L1543.8362,210.9478 L1551.4668,214 L1543.8362,217.0522 " fill="#A80036" style="stroke:#A80036;stroke-width:1.0;"/><ellipse cx="1502" cy="214" fill="#A80036" rx="3" ry="3" style="stroke:#A80036;stroke-width:1.0;stroke-dasharray:3.0,3.0;"/><path d="M519,146 L532,146 C628.2503,146 732.6112,146 828.68,146 " fill="none" style="stroke:#A80036;stroke-width:1.0;stroke-dasharray:3.0,3.0;"/><path d="M828.68,149.1146 L831.0159,146 L828.68,142.8854 L836.4664,146 L828.68,149.1146 " fill="#A80036" style="stroke:#A80036;stroke-width:1.0;"/><ellipse cx="519" cy="146" fill="#A80036" rx="3" ry="3" style="stroke:#A80036;stroke-width:1.0;stroke-dasharray:3.0,3.0;"/><path d="M95,122 L108,122 C124.1536,122 127.924,125.4191 144,127 C234.4116,135.8909 339.326,141.0843 405.433,143.7327 " fill="none" style="stroke:#A80036;stroke-width:1.0;stroke-dasharray:3.0,3.0;"/><path d="M405.3089,146.8791 L407.7928,143.8258 L405.5572,140.5864 L413.2989,144.0432 L405.3089,146.8791 " fill="#A80036" style="stroke:#A80036;stroke-width:1.0;"/><ellipse cx="95" cy="122" fill="#A80036" rx="3" ry="3" style="stroke:#A80036;stroke-width:1.0;stroke-dasharray:3.0,3.0;"/><!--MD5=[f1169a9f6421d4f50c3d48260406c586]
@startjson
{
  "info": {
    "copyright": "copyright 2016-2017, 2019 Open Connectivity Foundation, Inc. All rights reserved.",
    "license": "https://github.com/one-data-model/oneDM/blob/master/LICENSE",
    "title": "Delay Defrost",
    "version": "2019-02-15"
  },
  "sdfObject": {
    "delaydefrost": {
      "description": "This Resource describes the delay defrost function as defined by the\\nUS Energy Star Specifications. See Energy Star Refrigerator\\nRequirements Version 5 Section 4). (https://www. energystar.\\ngov/sites/default/files/specs//private/ENERGY%20STAR%20Final%20Version%205.\\n0%20Residential%20Refrigerators%20and%20Freezers%20Program%20Requirements.\\npdf) The Property \"status\" is a boolean indicating whether the\\nfunction is on, if off then defrost is scheduled as part of normal\\ndevice operation. The Property \"startTime\" is an ISO8601 encoded\\nstart time for the interval in which defrost shall not occur. The\\nProperty \"stopTime\" is an ISO8601 encoded stop time for the interval\\nin which defrost shall not occur. The Property \"interval\" with\\nadditional range restrictions is the time in minutes of the period\\nthat starts at starttime (if not present the default is 240). The\\nProperties \"stopTime\" and \"interval\" are mutually exclusive; they\\ncannot both be present in a Resource instance.",
      "sdfProperty": {
        "status": {
          "description": "Indicates whether any supported delay defrost function is active.",
          "type": "boolean"
        },
        "interval": {
          "description": "Defrost interval as defined by Energy Star.",
          "minimum": 1,
          "maximum": 1440,
          "default": 240,
          "type": "integer"
        },
        "stopTime": {
          "description": "Stop time for the time period, if present interval cannot be present.\\n This is the time of day at which the delay interval stops.",
          "type": "string",
          "pattern": "^[T]([0-2][0-9]:[0-5][0-9]:[0-5][0-9])([zZ]|([\\+-])([01]\\d|2[0-3]):?([0-5]\\d))$"
        },
        "startTime": {
          "description": "Start time for the time period. This is the time of day at which the\\ndelay interval starts.",
          "type": "string",
          "pattern": "^[T]([0-2][0-9]:[0-5][0-9]:[0-5][0-9])([zZ]|([\\+-])([01]\\d|2[0-3]):?([0-5]\\d))$"
        }
      }
    }
  }
}
@endjson

PlantUML version 1.2021.2(Sun Mar 07 13:10:27 EET 2021)
(GPL source distribution)
Java Runtime: OpenJDK Runtime Environment
JVM: OpenJDK 64-Bit Server VM
Default Encoding: UTF-8
Language: en
Country: FI
--></g></svg>