<?xml version="1.0" encoding="UTF-8" standalone="no"?><svg xmlns="http://www.w3.org/2000/svg" xmlns:xlink="http://www.w3.org/1999/xlink" contentScriptType="application/ecmascript" contentStyleType="text/css" height="717px" preserveAspectRatio="none" style="width:2434px;height:717px;" version="1.1" viewBox="0 0 2434 717" width="2434px" zoomAndPan="magnify"><defs/><g><rect fill="#FEFECE" height="40.9766" rx="5" ry="5" style="stroke:#FEFECE;stroke-width:1.5;" width="97" x="10" y="326.5"/><text fill="#000000" font-family="sans-serif" font-size="14" lengthAdjust="spacing" textLength="27" x="15" y="342.0352">info</text><text fill="#000000" font-family="sans-serif" font-size="14" lengthAdjust="spacing" textLength="0" x="102" y="342.0352"/><line style="stroke:#A80036;stroke-width:1.0;" x1="85" x2="85" y1="326.5" y2="346.9883"/><line style="stroke:#A80036;stroke-width:1.0;" x1="10" x2="107" y1="346.9883" y2="346.9883"/><text fill="#000000" font-family="sans-serif" font-size="14" lengthAdjust="spacing" textLength="65" x="15" y="362.5234">sdfObject</text><text fill="#000000" font-family="sans-serif" font-size="14" lengthAdjust="spacing" textLength="0" x="102" y="362.5234"/><line style="stroke:#A80036;stroke-width:1.0;" x1="85" x2="85" y1="346.9883" y2="367.4766"/><rect fill="none" height="40.9766" rx="5" ry="5" style="stroke:#A80036;stroke-width:1.5;" width="97" x="10" y="326.5"/><rect fill="#FEFECE" height="81.9531" rx="5" ry="5" style="stroke:#FEFECE;stroke-width:1.5;" width="547" x="144" y="271"/><text fill="#000000" font-family="sans-serif" font-size="14" lengthAdjust="spacing" textLength="26" x="149" y="286.5352">title</text><text fill="#000000" font-family="sans-serif" font-size="14" lengthAdjust="spacing" textLength="309" x="224" y="286.5352">OMA LwM2M Analog Output (Object ID 3203)</text><line style="stroke:#A80036;stroke-width:1.0;" x1="219" x2="219" y1="271" y2="291.4883"/><line style="stroke:#A80036;stroke-width:1.0;" x1="144" x2="691" y1="291.4883" y2="291.4883"/><text fill="#000000" font-family="sans-serif" font-size="14" lengthAdjust="spacing" textLength="50" x="149" y="307.0234">version</text><text fill="#000000" font-family="sans-serif" font-size="14" lengthAdjust="spacing" textLength="88" x="224" y="307.0234">2021-02-11</text><line style="stroke:#A80036;stroke-width:1.0;" x1="219" x2="219" y1="291.4883" y2="311.9766"/><line style="stroke:#A80036;stroke-width:1.0;" x1="144" x2="691" y1="311.9766" y2="311.9766"/><text fill="#000000" font-family="sans-serif" font-size="14" lengthAdjust="spacing" textLength="65" x="149" y="327.5117">copyright</text><text fill="#000000" font-family="sans-serif" font-size="14" lengthAdjust="spacing" textLength="208" x="224" y="327.5117">Copyright (c) 2018-2020 IPSO</text><line style="stroke:#A80036;stroke-width:1.0;" x1="219" x2="219" y1="311.9766" y2="332.4648"/><line style="stroke:#A80036;stroke-width:1.0;" x1="144" x2="691" y1="332.4648" y2="332.4648"/><text fill="#000000" font-family="sans-serif" font-size="14" lengthAdjust="spacing" textLength="47" x="149" y="348">license</text><text fill="#000000" font-family="sans-serif" font-size="14" lengthAdjust="spacing" textLength="462" x="224" y="348">https://github.com/one-data-model/oneDM/blob/master/LICENSE</text><line style="stroke:#A80036;stroke-width:1.0;" x1="219" x2="219" y1="332.4648" y2="352.9531"/><rect fill="none" height="81.9531" rx="5" ry="5" style="stroke:#A80036;stroke-width:1.5;" width="547" x="144" y="271"/><rect fill="#FEFECE" height="20.4883" rx="5" ry="5" style="stroke:#FEFECE;stroke-width:1.5;" width="136" x="349.5" y="371"/><text fill="#000000" font-family="sans-serif" font-size="14" lengthAdjust="spacing" textLength="104" x="354.5" y="386.5352">Analog_Output</text><text fill="#000000" font-family="sans-serif" font-size="14" lengthAdjust="spacing" textLength="0" x="480.5" y="386.5352"/><line style="stroke:#A80036;stroke-width:1.0;" x1="463.5" x2="463.5" y1="371" y2="391.4883"/><rect fill="none" height="20.4883" rx="5" ry="5" style="stroke:#A80036;stroke-width:1.5;" width="136" x="349.5" y="371"/><rect fill="#FEFECE" height="118.9297" rx="5" ry="5" style="stroke:#FEFECE;stroke-width:1.5;" width="553" x="728" y="321.5"/><text fill="#000000" font-family="sans-serif" font-size="14" lengthAdjust="spacing" textLength="33" x="733" y="337.0352">label</text><text fill="#000000" font-family="sans-serif" font-size="14" lengthAdjust="spacing" textLength="101" x="826" y="337.0352">Analog Output</text><line style="stroke:#A80036;stroke-width:1.0;" x1="821" x2="821" y1="321.5" y2="341.9883"/><line style="stroke:#A80036;stroke-width:1.0;" x1="728" x2="1281" y1="341.9883" y2="341.9883"/><text fill="#000000" font-family="sans-serif" font-size="14" lengthAdjust="spacing" textLength="77" x="733" y="357.5234">description</text><text fill="#000000" font-family="sans-serif" font-size="14" lengthAdjust="spacing" textLength="450" x="826" y="357.5234">This IPSO object is a generic object that can be used with any kind</text><text fill="#000000" font-family="sans-serif" font-size="14" lengthAdjust="spacing" textLength="183" x="826" y="374.0117">of analog output interface.</text><line style="stroke:#A80036;stroke-width:1.0;" x1="821" x2="821" y1="341.9883" y2="378.9648"/><line style="stroke:#A80036;stroke-width:1.0;" x1="728" x2="1281" y1="378.9648" y2="378.9648"/><text fill="#000000" font-family="sans-serif" font-size="14" lengthAdjust="spacing" textLength="79" x="733" y="394.5">sdfProperty</text><text fill="#000000" font-family="sans-serif" font-size="14" lengthAdjust="spacing" textLength="0" x="838" y="394.5"/><line style="stroke:#A80036;stroke-width:1.0;" x1="821" x2="821" y1="378.9648" y2="399.4531"/><line style="stroke:#A80036;stroke-width:1.0;" x1="728" x2="1281" y1="399.4531" y2="399.4531"/><text fill="#000000" font-family="sans-serif" font-size="14" lengthAdjust="spacing" textLength="65" x="733" y="414.9883">sdfAction</text><text fill="#000000" font-family="sans-serif" font-size="14" lengthAdjust="spacing" textLength="0" x="838" y="414.9883"/><line style="stroke:#A80036;stroke-width:1.0;" x1="821" x2="821" y1="399.4531" y2="419.9414"/><line style="stroke:#A80036;stroke-width:1.0;" x1="728" x2="1281" y1="419.9414" y2="419.9414"/><text fill="#000000" font-family="sans-serif" font-size="14" lengthAdjust="spacing" textLength="83" x="733" y="435.4766">sdfRequired</text><text fill="#000000" font-family="sans-serif" font-size="14" lengthAdjust="spacing" textLength="0" x="838" y="435.4766"/><line style="stroke:#A80036;stroke-width:1.0;" x1="821" x2="821" y1="419.9414" y2="440.4297"/><rect fill="none" height="118.9297" rx="5" ry="5" style="stroke:#A80036;stroke-width:1.5;" width="553" x="728" y="321.5"/><rect fill="#FEFECE" height="122.9297" rx="5" ry="5" style="stroke:#FEFECE;stroke-width:1.5;" width="241" x="1449.5" y="255.5"/><text fill="#000000" font-family="sans-serif" font-size="14" lengthAdjust="spacing" textLength="209" x="1454.5" y="271.0352">Analog_Output_Current_Value</text><text fill="#000000" font-family="sans-serif" font-size="14" lengthAdjust="spacing" textLength="0" x="1685.5" y="271.0352"/><line style="stroke:#A80036;stroke-width:1.0;" x1="1668.5" x2="1668.5" y1="255.5" y2="275.9883"/><line style="stroke:#A80036;stroke-width:1.0;" x1="1449.5" x2="1690.5" y1="275.9883" y2="275.9883"/><text fill="#000000" font-family="sans-serif" font-size="14" lengthAdjust="spacing" textLength="118" x="1454.5" y="291.5234">Application_Type</text><text fill="#000000" font-family="sans-serif" font-size="14" lengthAdjust="spacing" textLength="0" x="1685.5" y="291.5234"/><line style="stroke:#A80036;stroke-width:1.0;" x1="1668.5" x2="1668.5" y1="275.9883" y2="296.4766"/><line style="stroke:#A80036;stroke-width:1.0;" x1="1449.5" x2="1690.5" y1="296.4766" y2="296.4766"/><text fill="#000000" font-family="sans-serif" font-size="14" lengthAdjust="spacing" textLength="120" x="1454.5" y="312.0117">Min_Range_Value</text><text fill="#000000" font-family="sans-serif" font-size="14" lengthAdjust="spacing" textLength="0" x="1685.5" y="312.0117"/><line style="stroke:#A80036;stroke-width:1.0;" x1="1668.5" x2="1668.5" y1="296.4766" y2="316.9648"/><line style="stroke:#A80036;stroke-width:1.0;" x1="1449.5" x2="1690.5" y1="316.9648" y2="316.9648"/><text fill="#000000" font-family="sans-serif" font-size="14" lengthAdjust="spacing" textLength="124" x="1454.5" y="332.5">Max_Range_Value</text><text fill="#000000" font-family="sans-serif" font-size="14" lengthAdjust="spacing" textLength="0" x="1685.5" y="332.5"/><line style="stroke:#A80036;stroke-width:1.0;" x1="1668.5" x2="1668.5" y1="316.9648" y2="337.4531"/><line style="stroke:#A80036;stroke-width:1.0;" x1="1449.5" x2="1690.5" y1="337.4531" y2="337.4531"/><text fill="#000000" font-family="sans-serif" font-size="14" lengthAdjust="spacing" textLength="76" x="1454.5" y="352.9883">Timestamp</text><text fill="#000000" font-family="sans-serif" font-size="14" lengthAdjust="spacing" textLength="0" x="1685.5" y="352.9883"/><line style="stroke:#A80036;stroke-width:1.0;" x1="1668.5" x2="1668.5" y1="337.4531" y2="357.9414"/><line style="stroke:#A80036;stroke-width:1.0;" x1="1449.5" x2="1690.5" y1="357.9414" y2="357.9414"/><text fill="#000000" font-family="sans-serif" font-size="14" lengthAdjust="spacing" textLength="151" x="1454.5" y="373.4766">Fractional_Timestamp</text><text fill="#000000" font-family="sans-serif" font-size="14" lengthAdjust="spacing" textLength="0" x="1685.5" y="373.4766"/><line style="stroke:#A80036;stroke-width:1.0;" x1="1668.5" x2="1668.5" y1="357.9414" y2="378.4297"/><rect fill="none" height="122.9297" rx="5" ry="5" style="stroke:#A80036;stroke-width:1.5;" width="241" x="1449.5" y="255.5"/><rect fill="#FEFECE" height="102.4414" rx="5" ry="5" style="stroke:#FEFECE;stroke-width:1.5;" width="366" x="1957.5" y="10"/><text fill="#000000" font-family="sans-serif" font-size="14" lengthAdjust="spacing" textLength="33" x="1962.5" y="25.5352">label</text><text fill="#000000" font-family="sans-serif" font-size="14" lengthAdjust="spacing" textLength="200" x="2049.5" y="25.5352">Analog Output Current Value</text><line style="stroke:#A80036;stroke-width:1.0;" x1="2044.5" x2="2044.5" y1="10" y2="30.4883"/><line style="stroke:#A80036;stroke-width:1.0;" x1="1957.5" x2="2323.5" y1="30.4883" y2="30.4883"/><text fill="#000000" font-family="sans-serif" font-size="14" lengthAdjust="spacing" textLength="77" x="1962.5" y="46.0234">description</text><text fill="#000000" font-family="sans-serif" font-size="14" lengthAdjust="spacing" textLength="269" x="2049.5" y="46.0234">The current value of the analog output.</text><line style="stroke:#A80036;stroke-width:1.0;" x1="2044.5" x2="2044.5" y1="30.4883" y2="50.9766"/><line style="stroke:#A80036;stroke-width:1.0;" x1="1957.5" x2="2323.5" y1="50.9766" y2="50.9766"/><text fill="#000000" font-family="sans-serif" font-size="14" lengthAdjust="spacing" textLength="29" x="1962.5" y="66.5117">type</text><text fill="#000000" font-family="sans-serif" font-size="14" lengthAdjust="spacing" textLength="54" x="2049.5" y="66.5117">number</text><line style="stroke:#A80036;stroke-width:1.0;" x1="2044.5" x2="2044.5" y1="50.9766" y2="71.4648"/><line style="stroke:#A80036;stroke-width:1.0;" x1="1957.5" x2="2323.5" y1="71.4648" y2="71.4648"/><text fill="#000000" font-family="sans-serif" font-size="14" lengthAdjust="spacing" textLength="65" x="1962.5" y="87">minimum</text><text fill="#000000" font-family="sans-serif" font-size="14" lengthAdjust="spacing" textLength="9" x="2049.5" y="87">0</text><line style="stroke:#A80036;stroke-width:1.0;" x1="2044.5" x2="2044.5" y1="71.4648" y2="91.9531"/><line style="stroke:#A80036;stroke-width:1.0;" x1="1957.5" x2="2323.5" y1="91.9531" y2="91.9531"/><text fill="#000000" font-family="sans-serif" font-size="14" lengthAdjust="spacing" textLength="69" x="1962.5" y="107.4883">maximum</text><text fill="#000000" font-family="sans-serif" font-size="14" lengthAdjust="spacing" textLength="9" x="2049.5" y="107.4883">1</text><line style="stroke:#A80036;stroke-width:1.0;" x1="2044.5" x2="2044.5" y1="91.9531" y2="112.4414"/><rect fill="none" height="102.4414" rx="5" ry="5" style="stroke:#A80036;stroke-width:1.5;" width="366" x="1957.5" y="10"/><rect fill="#FEFECE" height="77.9531" rx="5" ry="5" style="stroke:#FEFECE;stroke-width:1.5;" width="563" x="1859" y="130"/><text fill="#000000" font-family="sans-serif" font-size="14" lengthAdjust="spacing" textLength="33" x="1864" y="145.5352">label</text><text fill="#000000" font-family="sans-serif" font-size="14" lengthAdjust="spacing" textLength="115" x="1951" y="145.5352">Application Type</text><line style="stroke:#A80036;stroke-width:1.0;" x1="1946" x2="1946" y1="130" y2="150.4883"/><line style="stroke:#A80036;stroke-width:1.0;" x1="1859" x2="2422" y1="150.4883" y2="150.4883"/><text fill="#000000" font-family="sans-serif" font-size="14" lengthAdjust="spacing" textLength="77" x="1864" y="166.0234">description</text><text fill="#000000" font-family="sans-serif" font-size="14" lengthAdjust="spacing" textLength="466" x="1951" y="166.0234">The application type of the sensor or actuator as a string depending</text><text fill="#000000" font-family="sans-serif" font-size="14" lengthAdjust="spacing" textLength="110" x="1951" y="182.5117">on the use case.</text><line style="stroke:#A80036;stroke-width:1.0;" x1="1946" x2="1946" y1="150.4883" y2="187.4648"/><line style="stroke:#A80036;stroke-width:1.0;" x1="1859" x2="2422" y1="187.4648" y2="187.4648"/><text fill="#000000" font-family="sans-serif" font-size="14" lengthAdjust="spacing" textLength="29" x="1864" y="203">type</text><text fill="#000000" font-family="sans-serif" font-size="14" lengthAdjust="spacing" textLength="40" x="1951" y="203">string</text><line style="stroke:#A80036;stroke-width:1.0;" x1="1946" x2="1946" y1="187.4648" y2="207.9531"/><rect fill="none" height="77.9531" rx="5" ry="5" style="stroke:#A80036;stroke-width:1.5;" width="563" x="1859" y="130"/><rect fill="#FEFECE" height="81.9531" rx="5" ry="5" style="stroke:#FEFECE;stroke-width:1.5;" width="484" x="1898.5" y="226"/><text fill="#000000" font-family="sans-serif" font-size="14" lengthAdjust="spacing" textLength="33" x="1903.5" y="241.5352">label</text><text fill="#000000" font-family="sans-serif" font-size="14" lengthAdjust="spacing" textLength="114" x="1990.5" y="241.5352">Min Range Value</text><line style="stroke:#A80036;stroke-width:1.0;" x1="1985.5" x2="1985.5" y1="226" y2="246.4883"/><line style="stroke:#A80036;stroke-width:1.0;" x1="1898.5" x2="2382.5" y1="246.4883" y2="246.4883"/><text fill="#000000" font-family="sans-serif" font-size="14" lengthAdjust="spacing" textLength="77" x="1903.5" y="262.0234">description</text><text fill="#000000" font-family="sans-serif" font-size="14" lengthAdjust="spacing" textLength="387" x="1990.5" y="262.0234">The minimum value that can be measured by the sensor.</text><line style="stroke:#A80036;stroke-width:1.0;" x1="1985.5" x2="1985.5" y1="246.4883" y2="266.9766"/><line style="stroke:#A80036;stroke-width:1.0;" x1="1898.5" x2="2382.5" y1="266.9766" y2="266.9766"/><text fill="#000000" font-family="sans-serif" font-size="14" lengthAdjust="spacing" textLength="55" x="1903.5" y="282.5117">writable</text><text fill="#000000" font-family="sans-serif" font-size="14" lengthAdjust="spacing" textLength="48" x="1990.5" y="282.5117">☐ false</text><line style="stroke:#A80036;stroke-width:1.0;" x1="1985.5" x2="1985.5" y1="266.9766" y2="287.4648"/><line style="stroke:#A80036;stroke-width:1.0;" x1="1898.5" x2="2382.5" y1="287.4648" y2="287.4648"/><text fill="#000000" font-family="sans-serif" font-size="14" lengthAdjust="spacing" textLength="29" x="1903.5" y="303">type</text><text fill="#000000" font-family="sans-serif" font-size="14" lengthAdjust="spacing" textLength="54" x="1990.5" y="303">number</text><line style="stroke:#A80036;stroke-width:1.0;" x1="1985.5" x2="1985.5" y1="287.4648" y2="307.9531"/><rect fill="none" height="81.9531" rx="5" ry="5" style="stroke:#A80036;stroke-width:1.5;" width="484" x="1898.5" y="226"/><rect fill="#FEFECE" height="81.9531" rx="5" ry="5" style="stroke:#FEFECE;stroke-width:1.5;" width="488" x="1896.5" y="326"/><text fill="#000000" font-family="sans-serif" font-size="14" lengthAdjust="spacing" textLength="33" x="1901.5" y="341.5352">label</text><text fill="#000000" font-family="sans-serif" font-size="14" lengthAdjust="spacing" textLength="118" x="1988.5" y="341.5352">Max Range Value</text><line style="stroke:#A80036;stroke-width:1.0;" x1="1983.5" x2="1983.5" y1="326" y2="346.4883"/><line style="stroke:#A80036;stroke-width:1.0;" x1="1896.5" x2="2384.5" y1="346.4883" y2="346.4883"/><text fill="#000000" font-family="sans-serif" font-size="14" lengthAdjust="spacing" textLength="77" x="1901.5" y="362.0234">description</text><text fill="#000000" font-family="sans-serif" font-size="14" lengthAdjust="spacing" textLength="391" x="1988.5" y="362.0234">The maximum value that can be measured by the sensor.</text><line style="stroke:#A80036;stroke-width:1.0;" x1="1983.5" x2="1983.5" y1="346.4883" y2="366.9766"/><line style="stroke:#A80036;stroke-width:1.0;" x1="1896.5" x2="2384.5" y1="366.9766" y2="366.9766"/><text fill="#000000" font-family="sans-serif" font-size="14" lengthAdjust="spacing" textLength="55" x="1901.5" y="382.5117">writable</text><text fill="#000000" font-family="sans-serif" font-size="14" lengthAdjust="spacing" textLength="48" x="1988.5" y="382.5117">☐ false</text><line style="stroke:#A80036;stroke-width:1.0;" x1="1983.5" x2="1983.5" y1="366.9766" y2="387.4648"/><line style="stroke:#A80036;stroke-width:1.0;" x1="1896.5" x2="2384.5" y1="387.4648" y2="387.4648"/><text fill="#000000" font-family="sans-serif" font-size="14" lengthAdjust="spacing" textLength="29" x="1901.5" y="403">type</text><text fill="#000000" font-family="sans-serif" font-size="14" lengthAdjust="spacing" textLength="54" x="1988.5" y="403">number</text><line style="stroke:#A80036;stroke-width:1.0;" x1="1983.5" x2="1983.5" y1="387.4648" y2="407.9531"/><rect fill="none" height="81.9531" rx="5" ry="5" style="stroke:#A80036;stroke-width:1.5;" width="488" x="1896.5" y="326"/><rect fill="#FEFECE" height="102.4414" rx="5" ry="5" style="stroke:#FEFECE;stroke-width:1.5;" width="493" x="1894" y="426"/><text fill="#000000" font-family="sans-serif" font-size="14" lengthAdjust="spacing" textLength="33" x="1899" y="441.5352">label</text><text fill="#000000" font-family="sans-serif" font-size="14" lengthAdjust="spacing" textLength="76" x="1986" y="441.5352">Timestamp</text><line style="stroke:#A80036;stroke-width:1.0;" x1="1981" x2="1981" y1="426" y2="446.4883"/><line style="stroke:#A80036;stroke-width:1.0;" x1="1894" x2="2387" y1="446.4883" y2="446.4883"/><text fill="#000000" font-family="sans-serif" font-size="14" lengthAdjust="spacing" textLength="77" x="1899" y="462.0234">description</text><text fill="#000000" font-family="sans-serif" font-size="14" lengthAdjust="spacing" textLength="396" x="1986" y="462.0234">The timestamp of when the measurement was performed.</text><line style="stroke:#A80036;stroke-width:1.0;" x1="1981" x2="1981" y1="446.4883" y2="466.9766"/><line style="stroke:#A80036;stroke-width:1.0;" x1="1894" x2="2387" y1="466.9766" y2="466.9766"/><text fill="#000000" font-family="sans-serif" font-size="14" lengthAdjust="spacing" textLength="55" x="1899" y="482.5117">writable</text><text fill="#000000" font-family="sans-serif" font-size="14" lengthAdjust="spacing" textLength="48" x="1986" y="482.5117">☐ false</text><line style="stroke:#A80036;stroke-width:1.0;" x1="1981" x2="1981" y1="466.9766" y2="487.4648"/><line style="stroke:#A80036;stroke-width:1.0;" x1="1894" x2="2387" y1="487.4648" y2="487.4648"/><text fill="#000000" font-family="sans-serif" font-size="14" lengthAdjust="spacing" textLength="29" x="1899" y="503">type</text><text fill="#000000" font-family="sans-serif" font-size="14" lengthAdjust="spacing" textLength="54" x="1986" y="503">number</text><line style="stroke:#A80036;stroke-width:1.0;" x1="1981" x2="1981" y1="487.4648" y2="507.9531"/><line style="stroke:#A80036;stroke-width:1.0;" x1="1894" x2="2387" y1="507.9531" y2="507.9531"/><text fill="#000000" font-family="sans-serif" font-size="14" lengthAdjust="spacing" textLength="54" x="1899" y="523.4883">sdfType</text><text fill="#000000" font-family="sans-serif" font-size="14" lengthAdjust="spacing" textLength="69" x="1986" y="523.4883">unix-time</text><line style="stroke:#A80036;stroke-width:1.0;" x1="1981" x2="1981" y1="507.9531" y2="528.4414"/><rect fill="none" height="102.4414" rx="5" ry="5" style="stroke:#A80036;stroke-width:1.5;" width="493" x="1894" y="426"/><rect fill="#FEFECE" height="159.9063" rx="5" ry="5" style="stroke:#FEFECE;stroke-width:1.5;" width="563" x="1859" y="546"/><text fill="#000000" font-family="sans-serif" font-size="14" lengthAdjust="spacing" textLength="33" x="1864" y="561.5352">label</text><text fill="#000000" font-family="sans-serif" font-size="14" lengthAdjust="spacing" textLength="148" x="1951" y="561.5352">Fractional Timestamp</text><line style="stroke:#A80036;stroke-width:1.0;" x1="1946" x2="1946" y1="546" y2="566.4883"/><line style="stroke:#A80036;stroke-width:1.0;" x1="1859" x2="2422" y1="566.4883" y2="566.4883"/><text fill="#000000" font-family="sans-serif" font-size="14" lengthAdjust="spacing" textLength="77" x="1864" y="582.0234">description</text><text fill="#000000" font-family="sans-serif" font-size="14" lengthAdjust="spacing" textLength="466" x="1951" y="582.0234">Fractional part of the timestamp when sub-second precision is used</text><text fill="#000000" font-family="sans-serif" font-size="14" lengthAdjust="spacing" textLength="157" x="1951" y="598.5117">(e.g., 0.23 for 230 ms).</text><line style="stroke:#A80036;stroke-width:1.0;" x1="1946" x2="1946" y1="566.4883" y2="603.4648"/><line style="stroke:#A80036;stroke-width:1.0;" x1="1859" x2="2422" y1="603.4648" y2="603.4648"/><text fill="#000000" font-family="sans-serif" font-size="14" lengthAdjust="spacing" textLength="55" x="1864" y="619">writable</text><text fill="#000000" font-family="sans-serif" font-size="14" lengthAdjust="spacing" textLength="48" x="1951" y="619">☐ false</text><line style="stroke:#A80036;stroke-width:1.0;" x1="1946" x2="1946" y1="603.4648" y2="623.9531"/><line style="stroke:#A80036;stroke-width:1.0;" x1="1859" x2="2422" y1="623.9531" y2="623.9531"/><text fill="#000000" font-family="sans-serif" font-size="14" lengthAdjust="spacing" textLength="29" x="1864" y="639.4883">type</text><text fill="#000000" font-family="sans-serif" font-size="14" lengthAdjust="spacing" textLength="54" x="1951" y="639.4883">number</text><line style="stroke:#A80036;stroke-width:1.0;" x1="1946" x2="1946" y1="623.9531" y2="644.4414"/><line style="stroke:#A80036;stroke-width:1.0;" x1="1859" x2="2422" y1="644.4414" y2="644.4414"/><text fill="#000000" font-family="sans-serif" font-size="14" lengthAdjust="spacing" textLength="27" x="1864" y="659.9766">unit</text><text fill="#000000" font-family="sans-serif" font-size="14" lengthAdjust="spacing" textLength="7" x="1951" y="659.9766">s</text><line style="stroke:#A80036;stroke-width:1.0;" x1="1946" x2="1946" y1="644.4414" y2="664.9297"/><line style="stroke:#A80036;stroke-width:1.0;" x1="1859" x2="2422" y1="664.9297" y2="664.9297"/><text fill="#000000" font-family="sans-serif" font-size="14" lengthAdjust="spacing" textLength="65" x="1864" y="680.4648">minimum</text><text fill="#000000" font-family="sans-serif" font-size="14" lengthAdjust="spacing" textLength="9" x="1951" y="680.4648">0</text><line style="stroke:#A80036;stroke-width:1.0;" x1="1946" x2="1946" y1="664.9297" y2="685.418"/><line style="stroke:#A80036;stroke-width:1.0;" x1="1859" x2="2422" y1="685.418" y2="685.418"/><text fill="#000000" font-family="sans-serif" font-size="14" lengthAdjust="spacing" textLength="69" x="1864" y="700.9531">maximum</text><text fill="#000000" font-family="sans-serif" font-size="14" lengthAdjust="spacing" textLength="9" x="1951" y="700.9531">1</text><line style="stroke:#A80036;stroke-width:1.0;" x1="1946" x2="1946" y1="685.418" y2="705.9063"/><rect fill="none" height="159.9063" rx="5" ry="5" style="stroke:#A80036;stroke-width:1.5;" width="563" x="1859" y="546"/><rect fill="#FEFECE" height="15" rx="5" ry="5" style="stroke:#FEFECE;stroke-width:1.5;" width="30" x="1558" y="397"/><rect fill="none" height="15" rx="5" ry="5" style="stroke:#A80036;stroke-width:1.5;" width="30" x="1558" y="397"/><rect fill="#FEFECE" height="20.4883" rx="5" ry="5" style="stroke:#FEFECE;stroke-width:1.5;" width="504" x="1318" y="431"/><text fill="#000000" font-family="sans-serif" font-size="14" lengthAdjust="spacing" textLength="494" x="1323" y="446.5352">#/sdfObject/Analog_Output/sdfProperty/Analog_Output_Current_Value</text><rect fill="none" height="20.4883" rx="5" ry="5" style="stroke:#A80036;stroke-width:1.5;" width="504" x="1318" y="431"/><path d="M95,336 L108,336 C117.3406,336 126.8353,335.8896 136.4202,335.6839 " fill="none" style="stroke:#A80036;stroke-width:1.0;stroke-dasharray:3.0,3.0;"/><path d="M136.4943,338.7659 L138.7318,335.6283 L136.3462,332.6019 L144.1253,335.4987 L136.4943,338.7659 " fill="#A80036" style="stroke:#A80036;stroke-width:1.0;"/><ellipse cx="95" cy="336" fill="#A80036" rx="3" ry="3" style="stroke:#A80036;stroke-width:1.0;stroke-dasharray:3.0,3.0;"/><path d="M1679.5,265 L1692.5,265 C1790.3366,265 1771.4078,164.5844 1859,121 C1887.3223,106.9073 1918.8561,96.1148 1950.2723,87.8522 " fill="none" style="stroke:#A80036;stroke-width:1.0;stroke-dasharray:3.0,3.0;"/><path d="M1951.0479,90.8729 L1952.5379,87.2706 L1949.4968,84.8315 L1957.8242,85.9134 L1951.0479,90.8729 " fill="#A80036" style="stroke:#A80036;stroke-width:1.0;"/><ellipse cx="1679.5" cy="265" fill="#A80036" rx="3" ry="3" style="stroke:#A80036;stroke-width:1.0;stroke-dasharray:3.0,3.0;"/><path d="M1679.5,286 L1692.5,286 C1772.6027,286 1782.0397,239.216 1859,217 C1867.5441,214.5336 1876.2732,212.1769 1885.1192,209.9268 " fill="none" style="stroke:#A80036;stroke-width:1.0;stroke-dasharray:3.0,3.0;"/><path d="M1885.8653,212.9094 L1887.3562,209.3672 L1884.3731,206.9441 L1892.5758,208.0616 L1885.8653,212.9094 " fill="#A80036" style="stroke:#A80036;stroke-width:1.0;"/><ellipse cx="1679.5" cy="286" fill="#A80036" rx="3" ry="3" style="stroke:#A80036;stroke-width:1.0;stroke-dasharray:3.0,3.0;"/><path d="M1679.5,306 L1692.5,306 C1756.9477,306 1826.4197,301.9358 1890.9563,296.4314 " fill="none" style="stroke:#A80036;stroke-width:1.0;stroke-dasharray:3.0,3.0;"/><path d="M1891.2275,299.5695 L1893.3098,296.228 L1890.685,293.2934 L1898.8014,295.7532 L1891.2275,299.5695 " fill="#A80036" style="stroke:#A80036;stroke-width:1.0;"/><ellipse cx="1679.5" cy="306" fill="#A80036" rx="3" ry="3" style="stroke:#A80036;stroke-width:1.0;stroke-dasharray:3.0,3.0;"/><path d="M1679.5,327 L1692.5,327 C1756.3044,327 1825.0236,331.084 1889.0022,336.642 " fill="none" style="stroke:#A80036;stroke-width:1.0;stroke-dasharray:3.0,3.0;"/><path d="M1888.7282,339.7533 L1891.3357,336.8475 L1889.2762,333.5308 L1896.7803,337.327 L1888.7282,339.7533 " fill="#A80036" style="stroke:#A80036;stroke-width:1.0;"/><ellipse cx="1679.5" cy="327" fill="#A80036" rx="3" ry="3" style="stroke:#A80036;stroke-width:1.0;stroke-dasharray:3.0,3.0;"/><path d="M1679.5,348 L1692.5,348 C1753.1634,348 1769.4112,359.5696 1823,388 C1841.1496,397.6289 1840.4486,408.17 1859,417 C1868.1519,421.3561 1877.6212,425.3986 1887.2998,429.15 " fill="none" style="stroke:#A80036;stroke-width:1.0;stroke-dasharray:3.0,3.0;"/><path d="M1886.2276,431.9832 L1889.4247,429.9541 L1888.372,426.3168 L1894.3828,431.8304 L1886.2276,431.9832 " fill="#A80036" style="stroke:#A80036;stroke-width:1.0;"/><ellipse cx="1679.5" cy="348" fill="#A80036" rx="3" ry="3" style="stroke:#A80036;stroke-width:1.0;stroke-dasharray:3.0,3.0;"/><path d="M1679.5,368 L1692.5,368 C1751.1772,368 1779.7837,348.3091 1823,388 C1873.1767,434.0834 1812.5333,487.1781 1859,537 C1860.1698,538.2543 1861.3571,539.4909 1862.5613,540.7103 " fill="none" style="stroke:#A80036;stroke-width:1.0;stroke-dasharray:3.0,3.0;"/><path d="M1860.4669,542.8647 L1864.1771,542.281 L1864.6557,538.5558 L1867.9473,545.9462 L1860.4669,542.8647 " fill="#A80036" style="stroke:#A80036;stroke-width:1.0;"/><ellipse cx="1679.5" cy="368" fill="#A80036" rx="3" ry="3" style="stroke:#A80036;stroke-width:1.0;stroke-dasharray:3.0,3.0;"/><path d="M1269,380 L1282,380 C1335.2198,380 1392.7234,369.5719 1442.216,357.2009 " fill="none" style="stroke:#A80036;stroke-width:1.0;stroke-dasharray:3.0,3.0;"/><path d="M1442.9837,360.2238 L1444.4831,356.6251 L1441.4482,354.1781 L1449.773,355.2815 L1442.9837,360.2238 " fill="#A80036" style="stroke:#A80036;stroke-width:1.0;"/><ellipse cx="1269" cy="380" fill="#A80036" rx="3" ry="3" style="stroke:#A80036;stroke-width:1.0;stroke-dasharray:3.0,3.0;"/><path d="M1269,405 L1282,405 C1383.2604,405 1504.5824,405 1550.5765,405 " fill="none" style="stroke:#A80036;stroke-width:1.0;stroke-dasharray:3.0,3.0;"/><path d="M1550.5765,408.0759 L1552.8834,405 L1550.5765,401.9241 L1558.2662,405 L1550.5765,408.0759 " fill="#A80036" style="stroke:#A80036;stroke-width:1.0;"/><ellipse cx="1269" cy="405" fill="#A80036" rx="3" ry="3" style="stroke:#A80036;stroke-width:1.0;stroke-dasharray:3.0,3.0;"/><path d="M1269,429 L1282,429 C1312.6399,429 1345.1007,429.6888 1376.751,430.7363 " fill="none" style="stroke:#A80036;stroke-width:1.0;stroke-dasharray:3.0,3.0;"/><path d="M1376.6476,433.7744 L1379.0296,430.8139 L1376.8545,427.6983 L1384.3462,430.995 L1376.6476,433.7744 " fill="#A80036" style="stroke:#A80036;stroke-width:1.0;"/><ellipse cx="1269" cy="429" fill="#A80036" rx="3" ry="3" style="stroke:#A80036;stroke-width:1.0;stroke-dasharray:3.0,3.0;"/><path d="M474,381 L487,381 C562.7127,381 644.6623,381 720.5183,381 " fill="none" style="stroke:#A80036;stroke-width:1.0;stroke-dasharray:3.0,3.0;"/><path d="M720.5183,384.1174 L722.8563,381 L720.5183,377.8826 L728.3117,381 L720.5183,384.1174 " fill="#A80036" style="stroke:#A80036;stroke-width:1.0;"/><ellipse cx="474" cy="381" fill="#A80036" rx="3" ry="3" style="stroke:#A80036;stroke-width:1.0;stroke-dasharray:3.0,3.0;"/><path d="M95,357 L108,357 C124.1536,357 127.9333,360.3271 144,362 C210.9086,368.9665 287.3168,374.039 342.2487,377.1816 " fill="none" style="stroke:#A80036;stroke-width:1.0;stroke-dasharray:3.0,3.0;"/><path d="M342.0764,380.2237 L344.5303,377.3107 L342.4209,374.1394 L349.854,377.6122 L342.0764,380.2237 " fill="#A80036" style="stroke:#A80036;stroke-width:1.0;"/><ellipse cx="95" cy="357" fill="#A80036" rx="3" ry="3" style="stroke:#A80036;stroke-width:1.0;stroke-dasharray:3.0,3.0;"/><!--MD5=[4df9946adf117aced7c5e3a6341a41d3]
@startjson
{
  "info": {
    "title": "OMA LwM2M Analog Output (Object ID 3203)",
    "version": "2021-02-11",
    "copyright": "Copyright (c) 2018-2020 IPSO",
    "license": "https://github.com/one-data-model/oneDM/blob/master/LICENSE"
  },
  "sdfObject": {
    "Analog_Output": {
      "label": "Analog Output",
      "description": "This IPSO object is a generic object that can be used with any kind\\nof analog output interface.",
      "sdfProperty": {
        "Analog_Output_Current_Value": {
          "label": "Analog Output Current Value",
          "description": "The current value of the analog output.",
          "type": "number",
          "minimum": 0,
          "maximum": 1
        },
        "Application_Type": {
          "label": "Application Type",
          "description": "The application type of the sensor or actuator as a string depending\\non the use case.",
          "type": "string"
        },
        "Min_Range_Value": {
          "label": "Min Range Value",
          "description": "The minimum value that can be measured by the sensor.",
          "writable": false,
          "type": "number"
        },
        "Max_Range_Value": {
          "label": "Max Range Value",
          "description": "The maximum value that can be measured by the sensor.",
          "writable": false,
          "type": "number"
        },
        "Timestamp": {
          "label": "Timestamp",
          "description": "The timestamp of when the measurement was performed.",
          "writable": false,
          "type": "number",
          "sdfType": "unix-time"
        },
        "Fractional_Timestamp": {
          "label": "Fractional Timestamp",
          "description": "Fractional part of the timestamp when sub-second precision is used\\n(e.g., 0.23 for 230 ms).",
          "writable": false,
          "type": "number",
          "unit": "s",
          "minimum": 0,
          "maximum": 1
        }
      },
      "sdfAction": {},
      "sdfRequired": [
        "#/sdfObject/Analog_Output/sdfProperty/Analog_Output_Current_Value"
      ]
    }
  }
}
@endjson

PlantUML version 1.2021.2(Sun Mar 07 13:10:27 EET 2021)
(GPL source distribution)
Java Runtime: OpenJDK Runtime Environment
JVM: OpenJDK 64-Bit Server VM
Default Encoding: UTF-8
Language: en
Country: FI
--></g></svg>