<?xml version="1.0" encoding="UTF-8" standalone="no"?><svg xmlns="http://www.w3.org/2000/svg" xmlns:xlink="http://www.w3.org/1999/xlink" contentScriptType="application/ecmascript" contentStyleType="text/css" height="636px" preserveAspectRatio="none" style="width:2478px;height:636px;" version="1.1" viewBox="0 0 2478 636" width="2478px" zoomAndPan="magnify"><defs/><g><rect fill="#FEFECE" height="40.9766" rx="5" ry="5" style="stroke:#FEFECE;stroke-width:1.5;" width="97" x="10" y="260.5"/><text fill="#000000" font-family="sans-serif" font-size="14" lengthAdjust="spacing" textLength="27" x="15" y="276.0352">info</text><text fill="#000000" font-family="sans-serif" font-size="14" lengthAdjust="spacing" textLength="0" x="102" y="276.0352"/><line style="stroke:#A80036;stroke-width:1.0;" x1="85" x2="85" y1="260.5" y2="280.9883"/><line style="stroke:#A80036;stroke-width:1.0;" x1="10" x2="107" y1="280.9883" y2="280.9883"/><text fill="#000000" font-family="sans-serif" font-size="14" lengthAdjust="spacing" textLength="65" x="15" y="296.5234">sdfObject</text><text fill="#000000" font-family="sans-serif" font-size="14" lengthAdjust="spacing" textLength="0" x="102" y="296.5234"/><line style="stroke:#A80036;stroke-width:1.0;" x1="85" x2="85" y1="280.9883" y2="301.4766"/><rect fill="none" height="40.9766" rx="5" ry="5" style="stroke:#A80036;stroke-width:1.5;" width="97" x="10" y="260.5"/><rect fill="#FEFECE" height="81.9531" rx="5" ry="5" style="stroke:#FEFECE;stroke-width:1.5;" width="614" x="144" y="205"/><text fill="#000000" font-family="sans-serif" font-size="14" lengthAdjust="spacing" textLength="65" x="149" y="220.5352">copyright</text><text fill="#000000" font-family="sans-serif" font-size="14" lengthAdjust="spacing" textLength="529" x="224" y="220.5352">Copyright 2016-2019 Open Connectivity Foundation, Inc. All rights reserved.</text><line style="stroke:#A80036;stroke-width:1.0;" x1="219" x2="219" y1="205" y2="225.4883"/><line style="stroke:#A80036;stroke-width:1.0;" x1="144" x2="758" y1="225.4883" y2="225.4883"/><text fill="#000000" font-family="sans-serif" font-size="14" lengthAdjust="spacing" textLength="47" x="149" y="241.0234">license</text><text fill="#000000" font-family="sans-serif" font-size="14" lengthAdjust="spacing" textLength="462" x="224" y="241.0234">https://github.com/one-data-model/oneDM/blob/master/LICENSE</text><line style="stroke:#A80036;stroke-width:1.0;" x1="219" x2="219" y1="225.4883" y2="245.9766"/><line style="stroke:#A80036;stroke-width:1.0;" x1="144" x2="758" y1="245.9766" y2="245.9766"/><text fill="#000000" font-family="sans-serif" font-size="14" lengthAdjust="spacing" textLength="26" x="149" y="261.5117">title</text><text fill="#000000" font-family="sans-serif" font-size="14" lengthAdjust="spacing" textLength="285" x="224" y="261.5117">Context Carbohydrates for Glucose Meter</text><line style="stroke:#A80036;stroke-width:1.0;" x1="219" x2="219" y1="245.9766" y2="266.4648"/><line style="stroke:#A80036;stroke-width:1.0;" x1="144" x2="758" y1="266.4648" y2="266.4648"/><text fill="#000000" font-family="sans-serif" font-size="14" lengthAdjust="spacing" textLength="50" x="149" y="282">version</text><text fill="#000000" font-family="sans-serif" font-size="14" lengthAdjust="spacing" textLength="88" x="224" y="282">2019-03-22</text><line style="stroke:#A80036;stroke-width:1.0;" x1="219" x2="219" y1="266.4648" y2="286.9531"/><rect fill="none" height="81.9531" rx="5" ry="5" style="stroke:#A80036;stroke-width:1.5;" width="614" x="144" y="205"/><rect fill="#FEFECE" height="20.4883" rx="5" ry="5" style="stroke:#FEFECE;stroke-width:1.5;" width="119" x="391.5" y="305"/><text fill="#000000" font-family="sans-serif" font-size="14" lengthAdjust="spacing" textLength="87" x="396.5" y="320.5352">glucose.carb</text><text fill="#000000" font-family="sans-serif" font-size="14" lengthAdjust="spacing" textLength="0" x="505.5" y="320.5352"/><line style="stroke:#A80036;stroke-width:1.0;" x1="488.5" x2="488.5" y1="305" y2="325.4883"/><rect fill="none" height="20.4883" rx="5" ry="5" style="stroke:#A80036;stroke-width:1.5;" width="119" x="391.5" y="305"/><rect fill="#FEFECE" height="110.9297" rx="5" ry="5" style="stroke:#FEFECE;stroke-width:1.5;" width="572" x="795" y="259.5"/><text fill="#000000" font-family="sans-serif" font-size="14" lengthAdjust="spacing" textLength="77" x="800" y="275.0352">description</text><text fill="#000000" font-family="sans-serif" font-size="14" lengthAdjust="spacing" textLength="442" x="893" y="275.0352">This Resource describes the Properties associated with a context</text><text fill="#000000" font-family="sans-serif" font-size="14" lengthAdjust="spacing" textLength="469" x="893" y="291.5234">carbohydrates. The carb Property has a default unit of grams[g]. The</text><text fill="#000000" font-family="sans-serif" font-size="14" lengthAdjust="spacing" textLength="458" x="893" y="308.0117">carb and meal Properties are read-only values that are provided by</text><text fill="#000000" font-family="sans-serif" font-size="14" lengthAdjust="spacing" textLength="450" x="893" y="324.5">the Server. When range is omitted the default is 0 to +MAXFLOAT.</text><line style="stroke:#A80036;stroke-width:1.0;" x1="888" x2="888" y1="259.5" y2="329.4531"/><line style="stroke:#A80036;stroke-width:1.0;" x1="795" x2="1367" y1="329.4531" y2="329.4531"/><text fill="#000000" font-family="sans-serif" font-size="14" lengthAdjust="spacing" textLength="79" x="800" y="344.9883">sdfProperty</text><text fill="#000000" font-family="sans-serif" font-size="14" lengthAdjust="spacing" textLength="0" x="905" y="344.9883"/><line style="stroke:#A80036;stroke-width:1.0;" x1="888" x2="888" y1="329.4531" y2="349.9414"/><line style="stroke:#A80036;stroke-width:1.0;" x1="795" x2="1367" y1="349.9414" y2="349.9414"/><text fill="#000000" font-family="sans-serif" font-size="14" lengthAdjust="spacing" textLength="83" x="800" y="365.4766">sdfRequired</text><text fill="#000000" font-family="sans-serif" font-size="14" lengthAdjust="spacing" textLength="0" x="905" y="365.4766"/><line style="stroke:#A80036;stroke-width:1.0;" x1="888" x2="888" y1="349.9414" y2="370.4297"/><rect fill="none" height="110.9297" rx="5" ry="5" style="stroke:#A80036;stroke-width:1.5;" width="572" x="795" y="259.5"/><rect fill="#FEFECE" height="102.4414" rx="5" ry="5" style="stroke:#FEFECE;stroke-width:1.5;" width="95" x="1512" y="238"/><text fill="#000000" font-family="sans-serif" font-size="14" lengthAdjust="spacing" textLength="30" x="1517" y="253.5352">carb</text><text fill="#000000" font-family="sans-serif" font-size="14" lengthAdjust="spacing" textLength="0" x="1602" y="253.5352"/><line style="stroke:#A80036;stroke-width:1.0;" x1="1585" x2="1585" y1="238" y2="258.4883"/><line style="stroke:#A80036;stroke-width:1.0;" x1="1512" x2="1607" y1="258.4883" y2="258.4883"/><text fill="#000000" font-family="sans-serif" font-size="14" lengthAdjust="spacing" textLength="33" x="1517" y="274.0234">meal</text><text fill="#000000" font-family="sans-serif" font-size="14" lengthAdjust="spacing" textLength="0" x="1602" y="274.0234"/><line style="stroke:#A80036;stroke-width:1.0;" x1="1585" x2="1585" y1="258.4883" y2="278.9766"/><line style="stroke:#A80036;stroke-width:1.0;" x1="1512" x2="1607" y1="278.9766" y2="278.9766"/><text fill="#000000" font-family="sans-serif" font-size="14" lengthAdjust="spacing" textLength="40" x="1517" y="294.5117">range</text><text fill="#000000" font-family="sans-serif" font-size="14" lengthAdjust="spacing" textLength="0" x="1602" y="294.5117"/><line style="stroke:#A80036;stroke-width:1.0;" x1="1585" x2="1585" y1="278.9766" y2="299.4648"/><line style="stroke:#A80036;stroke-width:1.0;" x1="1512" x2="1607" y1="299.4648" y2="299.4648"/><text fill="#000000" font-family="sans-serif" font-size="14" lengthAdjust="spacing" textLength="29" x="1517" y="315">step</text><text fill="#000000" font-family="sans-serif" font-size="14" lengthAdjust="spacing" textLength="0" x="1602" y="315"/><line style="stroke:#A80036;stroke-width:1.0;" x1="1585" x2="1585" y1="299.4648" y2="319.9531"/><line style="stroke:#A80036;stroke-width:1.0;" x1="1512" x2="1607" y1="319.9531" y2="319.9531"/><text fill="#000000" font-family="sans-serif" font-size="14" lengthAdjust="spacing" textLength="63" x="1517" y="335.4883">precision</text><text fill="#000000" font-family="sans-serif" font-size="14" lengthAdjust="spacing" textLength="0" x="1602" y="335.4883"/><line style="stroke:#A80036;stroke-width:1.0;" x1="1585" x2="1585" y1="319.9531" y2="340.4414"/><rect fill="none" height="102.4414" rx="5" ry="5" style="stroke:#A80036;stroke-width:1.5;" width="95" x="1512" y="238"/><rect fill="#FEFECE" height="81.9531" rx="5" ry="5" style="stroke:#FEFECE;stroke-width:1.5;" width="447" x="1813.5" y="10"/><text fill="#000000" font-family="sans-serif" font-size="14" lengthAdjust="spacing" textLength="77" x="1818.5" y="25.5352">description</text><text fill="#000000" font-family="sans-serif" font-size="14" lengthAdjust="spacing" textLength="350" x="1905.5" y="25.5352">The amount of carbohydrates undertaken in grams</text><line style="stroke:#A80036;stroke-width:1.0;" x1="1900.5" x2="1900.5" y1="10" y2="30.4883"/><line style="stroke:#A80036;stroke-width:1.0;" x1="1813.5" x2="2260.5" y1="30.4883" y2="30.4883"/><text fill="#000000" font-family="sans-serif" font-size="14" lengthAdjust="spacing" textLength="55" x="1818.5" y="46.0234">writable</text><text fill="#000000" font-family="sans-serif" font-size="14" lengthAdjust="spacing" textLength="48" x="1905.5" y="46.0234">☐ false</text><line style="stroke:#A80036;stroke-width:1.0;" x1="1900.5" x2="1900.5" y1="30.4883" y2="50.9766"/><line style="stroke:#A80036;stroke-width:1.0;" x1="1813.5" x2="2260.5" y1="50.9766" y2="50.9766"/><text fill="#000000" font-family="sans-serif" font-size="14" lengthAdjust="spacing" textLength="29" x="1818.5" y="66.5117">type</text><text fill="#000000" font-family="sans-serif" font-size="14" lengthAdjust="spacing" textLength="54" x="1905.5" y="66.5117">number</text><line style="stroke:#A80036;stroke-width:1.0;" x1="1900.5" x2="1900.5" y1="50.9766" y2="71.4648"/><line style="stroke:#A80036;stroke-width:1.0;" x1="1813.5" x2="2260.5" y1="71.4648" y2="71.4648"/><text fill="#000000" font-family="sans-serif" font-size="14" lengthAdjust="spacing" textLength="65" x="1818.5" y="87">minimum</text><text fill="#000000" font-family="sans-serif" font-size="14" lengthAdjust="spacing" textLength="9" x="1905.5" y="87">0</text><line style="stroke:#A80036;stroke-width:1.0;" x1="1900.5" x2="1900.5" y1="71.4648" y2="91.9531"/><rect fill="none" height="81.9531" rx="5" ry="5" style="stroke:#A80036;stroke-width:1.5;" width="447" x="1813.5" y="10"/><rect fill="#FEFECE" height="81.9531" rx="5" ry="5" style="stroke:#FEFECE;stroke-width:1.5;" width="362" x="1856" y="110"/><text fill="#000000" font-family="sans-serif" font-size="14" lengthAdjust="spacing" textLength="77" x="1861" y="125.5352">description</text><text fill="#000000" font-family="sans-serif" font-size="14" lengthAdjust="spacing" textLength="265" x="1948" y="125.5352">Recorded time of carbohydrates intake</text><line style="stroke:#A80036;stroke-width:1.0;" x1="1943" x2="1943" y1="110" y2="130.4883"/><line style="stroke:#A80036;stroke-width:1.0;" x1="1856" x2="2218" y1="130.4883" y2="130.4883"/><text fill="#000000" font-family="sans-serif" font-size="14" lengthAdjust="spacing" textLength="39" x="1861" y="146.0234">enum</text><text fill="#000000" font-family="sans-serif" font-size="14" lengthAdjust="spacing" textLength="0" x="1960" y="146.0234"/><line style="stroke:#A80036;stroke-width:1.0;" x1="1943" x2="1943" y1="130.4883" y2="150.9766"/><line style="stroke:#A80036;stroke-width:1.0;" x1="1856" x2="2218" y1="150.9766" y2="150.9766"/><text fill="#000000" font-family="sans-serif" font-size="14" lengthAdjust="spacing" textLength="55" x="1861" y="166.5117">writable</text><text fill="#000000" font-family="sans-serif" font-size="14" lengthAdjust="spacing" textLength="48" x="1948" y="166.5117">☐ false</text><line style="stroke:#A80036;stroke-width:1.0;" x1="1943" x2="1943" y1="150.9766" y2="171.4648"/><line style="stroke:#A80036;stroke-width:1.0;" x1="1856" x2="2218" y1="171.4648" y2="171.4648"/><text fill="#000000" font-family="sans-serif" font-size="14" lengthAdjust="spacing" textLength="29" x="1861" y="187">type</text><text fill="#000000" font-family="sans-serif" font-size="14" lengthAdjust="spacing" textLength="40" x="1948" y="187">string</text><line style="stroke:#A80036;stroke-width:1.0;" x1="1943" x2="1943" y1="171.4648" y2="191.9531"/><rect fill="none" height="81.9531" rx="5" ry="5" style="stroke:#A80036;stroke-width:1.5;" width="362" x="1856" y="110"/><rect fill="#FEFECE" height="225.3711" rx="5" ry="5" style="stroke:#FEFECE;stroke-width:1.5;" width="107" x="2359" y="27.5"/><text fill="#000000" font-family="sans-serif" font-size="14" lengthAdjust="spacing" textLength="64" x="2364" y="43.0352">breakfast</text><line style="stroke:#A80036;stroke-width:1.0;" x1="2359" x2="2466" y1="47.9883" y2="47.9883"/><text fill="#000000" font-family="sans-serif" font-size="14" lengthAdjust="spacing" textLength="38" x="2364" y="63.5234">lunch</text><line style="stroke:#A80036;stroke-width:1.0;" x1="2359" x2="2466" y1="68.4766" y2="68.4766"/><text fill="#000000" font-family="sans-serif" font-size="14" lengthAdjust="spacing" textLength="45" x="2364" y="84.0117">dinner</text><line style="stroke:#A80036;stroke-width:1.0;" x1="2359" x2="2466" y1="88.9648" y2="88.9648"/><text fill="#000000" font-family="sans-serif" font-size="14" lengthAdjust="spacing" textLength="39" x="2364" y="104.5">snack</text><line style="stroke:#A80036;stroke-width:1.0;" x1="2359" x2="2466" y1="109.4531" y2="109.4531"/><text fill="#000000" font-family="sans-serif" font-size="14" lengthAdjust="spacing" textLength="36" x="2364" y="124.9883">drink</text><line style="stroke:#A80036;stroke-width:1.0;" x1="2359" x2="2466" y1="129.9414" y2="129.9414"/><text fill="#000000" font-family="sans-serif" font-size="14" lengthAdjust="spacing" textLength="48" x="2364" y="145.4766">supper</text><line style="stroke:#A80036;stroke-width:1.0;" x1="2359" x2="2466" y1="150.4297" y2="150.4297"/><text fill="#000000" font-family="sans-serif" font-size="14" lengthAdjust="spacing" textLength="49" x="2364" y="165.9648">brunch</text><line style="stroke:#A80036;stroke-width:1.0;" x1="2359" x2="2466" y1="170.918" y2="170.918"/><text fill="#000000" font-family="sans-serif" font-size="14" lengthAdjust="spacing" textLength="97" x="2364" y="186.4531">undetermined</text><line style="stroke:#A80036;stroke-width:1.0;" x1="2359" x2="2466" y1="191.4063" y2="191.4063"/><text fill="#000000" font-family="sans-serif" font-size="14" lengthAdjust="spacing" textLength="37" x="2364" y="206.9414">other</text><line style="stroke:#A80036;stroke-width:1.0;" x1="2359" x2="2466" y1="211.8945" y2="211.8945"/><text fill="#000000" font-family="sans-serif" font-size="14" lengthAdjust="spacing" textLength="60" x="2364" y="227.4297">no_entry</text><line style="stroke:#A80036;stroke-width:1.0;" x1="2359" x2="2466" y1="232.3828" y2="232.3828"/><text fill="#000000" font-family="sans-serif" font-size="14" lengthAdjust="spacing" textLength="89" x="2364" y="247.918">no_ingestion</text><rect fill="none" height="225.3711" rx="5" ry="5" style="stroke:#A80036;stroke-width:1.5;" width="107" x="2359" y="27.5"/><rect fill="#FEFECE" height="155.9063" rx="5" ry="5" style="stroke:#FEFECE;stroke-width:1.5;" width="548" x="1763" y="210"/><text fill="#000000" font-family="sans-serif" font-size="14" lengthAdjust="spacing" textLength="77" x="1768" y="225.5352">description</text><text fill="#000000" font-family="sans-serif" font-size="14" lengthAdjust="spacing" textLength="451" x="1855" y="225.5352">The valid range for the Property in the Resource as a number. The</text><text fill="#000000" font-family="sans-serif" font-size="14" lengthAdjust="spacing" textLength="439" x="1855" y="242.0234">first value in the array is the minimum value, the second value in</text><text fill="#000000" font-family="sans-serif" font-size="14" lengthAdjust="spacing" textLength="219" x="1855" y="258.5117">the array is the maximum value.</text><line style="stroke:#A80036;stroke-width:1.0;" x1="1850" x2="1850" y1="210" y2="263.4648"/><line style="stroke:#A80036;stroke-width:1.0;" x1="1763" x2="2311" y1="263.4648" y2="263.4648"/><text fill="#000000" font-family="sans-serif" font-size="14" lengthAdjust="spacing" textLength="29" x="1768" y="279">type</text><text fill="#000000" font-family="sans-serif" font-size="14" lengthAdjust="spacing" textLength="35" x="1855" y="279">array</text><line style="stroke:#A80036;stroke-width:1.0;" x1="1850" x2="1850" y1="263.4648" y2="283.9531"/><line style="stroke:#A80036;stroke-width:1.0;" x1="1763" x2="2311" y1="283.9531" y2="283.9531"/><text fill="#000000" font-family="sans-serif" font-size="14" lengthAdjust="spacing" textLength="55" x="1768" y="299.4883">writable</text><text fill="#000000" font-family="sans-serif" font-size="14" lengthAdjust="spacing" textLength="48" x="1855" y="299.4883">☐ false</text><line style="stroke:#A80036;stroke-width:1.0;" x1="1850" x2="1850" y1="283.9531" y2="304.4414"/><line style="stroke:#A80036;stroke-width:1.0;" x1="1763" x2="2311" y1="304.4414" y2="304.4414"/><text fill="#000000" font-family="sans-serif" font-size="14" lengthAdjust="spacing" textLength="63" x="1768" y="319.9766">minItems</text><text fill="#000000" font-family="sans-serif" font-size="14" lengthAdjust="spacing" textLength="9" x="1855" y="319.9766">2</text><line style="stroke:#A80036;stroke-width:1.0;" x1="1850" x2="1850" y1="304.4414" y2="324.9297"/><line style="stroke:#A80036;stroke-width:1.0;" x1="1763" x2="2311" y1="324.9297" y2="324.9297"/><text fill="#000000" font-family="sans-serif" font-size="14" lengthAdjust="spacing" textLength="67" x="1768" y="340.4648">maxItems</text><text fill="#000000" font-family="sans-serif" font-size="14" lengthAdjust="spacing" textLength="9" x="1855" y="340.4648">2</text><line style="stroke:#A80036;stroke-width:1.0;" x1="1850" x2="1850" y1="324.9297" y2="345.418"/><line style="stroke:#A80036;stroke-width:1.0;" x1="1763" x2="2311" y1="345.418" y2="345.418"/><text fill="#000000" font-family="sans-serif" font-size="14" lengthAdjust="spacing" textLength="37" x="1768" y="360.9531">items</text><text fill="#000000" font-family="sans-serif" font-size="14" lengthAdjust="spacing" textLength="0" x="1867" y="360.9531"/><line style="stroke:#A80036;stroke-width:1.0;" x1="1850" x2="1850" y1="345.418" y2="365.9063"/><rect fill="none" height="155.9063" rx="5" ry="5" style="stroke:#A80036;stroke-width:1.5;" width="548" x="1763" y="210"/><rect fill="#FEFECE" height="20.4883" rx="5" ry="5" style="stroke:#FEFECE;stroke-width:1.5;" width="103" x="2361" y="343"/><text fill="#000000" font-family="sans-serif" font-size="14" lengthAdjust="spacing" textLength="29" x="2366" y="358.5352">type</text><text fill="#000000" font-family="sans-serif" font-size="14" lengthAdjust="spacing" textLength="54" x="2405" y="358.5352">number</text><line style="stroke:#A80036;stroke-width:1.0;" x1="2400" x2="2400" y1="343" y2="363.4883"/><rect fill="none" height="20.4883" rx="5" ry="5" style="stroke:#A80036;stroke-width:1.5;" width="103" x="2361" y="343"/><rect fill="#FEFECE" height="110.9297" rx="5" ry="5" style="stroke:#FEFECE;stroke-width:1.5;" width="555" x="1759.5" y="384.5"/><text fill="#000000" font-family="sans-serif" font-size="14" lengthAdjust="spacing" textLength="77" x="1764.5" y="400.0352">description</text><text fill="#000000" font-family="sans-serif" font-size="14" lengthAdjust="spacing" textLength="456" x="1851.5" y="400.0352">Step value across the defined range an integer when the range is a</text><text fill="#000000" font-family="sans-serif" font-size="14" lengthAdjust="spacing" textLength="458" x="1851.5" y="416.5234">number.  This is the increment for valid values across the range; so</text><text fill="#000000" font-family="sans-serif" font-size="14" lengthAdjust="spacing" textLength="381" x="1851.5" y="433.0117">if range is 0.0..10.0 and step is 2.5 then valid values are</text><text fill="#000000" font-family="sans-serif" font-size="14" lengthAdjust="spacing" textLength="139" x="1851.5" y="449.5">0.0,2.5,5.0,7.5,10.0.</text><line style="stroke:#A80036;stroke-width:1.0;" x1="1846.5" x2="1846.5" y1="384.5" y2="454.4531"/><line style="stroke:#A80036;stroke-width:1.0;" x1="1759.5" x2="2314.5" y1="454.4531" y2="454.4531"/><text fill="#000000" font-family="sans-serif" font-size="14" lengthAdjust="spacing" textLength="55" x="1764.5" y="469.9883">writable</text><text fill="#000000" font-family="sans-serif" font-size="14" lengthAdjust="spacing" textLength="48" x="1851.5" y="469.9883">☐ false</text><line style="stroke:#A80036;stroke-width:1.0;" x1="1846.5" x2="1846.5" y1="454.4531" y2="474.9414"/><line style="stroke:#A80036;stroke-width:1.0;" x1="1759.5" x2="2314.5" y1="474.9414" y2="474.9414"/><text fill="#000000" font-family="sans-serif" font-size="14" lengthAdjust="spacing" textLength="29" x="1764.5" y="490.4766">type</text><text fill="#000000" font-family="sans-serif" font-size="14" lengthAdjust="spacing" textLength="54" x="1851.5" y="490.4766">number</text><line style="stroke:#A80036;stroke-width:1.0;" x1="1846.5" x2="1846.5" y1="474.9414" y2="495.4297"/><rect fill="none" height="110.9297" rx="5" ry="5" style="stroke:#A80036;stroke-width:1.5;" width="555" x="1759.5" y="384.5"/><rect fill="#FEFECE" height="110.9297" rx="5" ry="5" style="stroke:#FEFECE;stroke-width:1.5;" width="570" x="1752" y="513.5"/><text fill="#000000" font-family="sans-serif" font-size="14" lengthAdjust="spacing" textLength="77" x="1757" y="529.0352">description</text><text fill="#000000" font-family="sans-serif" font-size="14" lengthAdjust="spacing" textLength="430" x="1844" y="529.0352">When exposed the value in 'precision' provides a +/- tolerance</text><text fill="#000000" font-family="sans-serif" font-size="14" lengthAdjust="spacing" textLength="473" x="1844" y="545.5234">against the Properties in the Resource. Thus if a Property is UPDATED</text><text fill="#000000" font-family="sans-serif" font-size="14" lengthAdjust="spacing" textLength="465" x="1844" y="562.0117">to a value and that Property then RETRIEVED, the RETRIEVED value is</text><text fill="#000000" font-family="sans-serif" font-size="14" lengthAdjust="spacing" textLength="337" x="1844" y="578.5">valid if in the range of the set value +/- precision</text><line style="stroke:#A80036;stroke-width:1.0;" x1="1839" x2="1839" y1="513.5" y2="583.4531"/><line style="stroke:#A80036;stroke-width:1.0;" x1="1752" x2="2322" y1="583.4531" y2="583.4531"/><text fill="#000000" font-family="sans-serif" font-size="14" lengthAdjust="spacing" textLength="29" x="1757" y="598.9883">type</text><text fill="#000000" font-family="sans-serif" font-size="14" lengthAdjust="spacing" textLength="54" x="1844" y="598.9883">number</text><line style="stroke:#A80036;stroke-width:1.0;" x1="1839" x2="1839" y1="583.4531" y2="603.9414"/><line style="stroke:#A80036;stroke-width:1.0;" x1="1752" x2="2322" y1="603.9414" y2="603.9414"/><text fill="#000000" font-family="sans-serif" font-size="14" lengthAdjust="spacing" textLength="55" x="1757" y="619.4766">writable</text><text fill="#000000" font-family="sans-serif" font-size="14" lengthAdjust="spacing" textLength="48" x="1844" y="619.4766">☐ false</text><line style="stroke:#A80036;stroke-width:1.0;" x1="1839" x2="1839" y1="603.9414" y2="624.4297"/><rect fill="none" height="110.9297" rx="5" ry="5" style="stroke:#A80036;stroke-width:1.5;" width="570" x="1752" y="513.5"/><rect fill="#FEFECE" height="40.9766" rx="5" ry="5" style="stroke:#FEFECE;stroke-width:1.5;" width="311" x="1404" y="358.5"/><text fill="#000000" font-family="sans-serif" font-size="14" lengthAdjust="spacing" textLength="298" x="1409" y="374.0352">#/sdfObject/glucose.carb/sdfProperty/carb</text><line style="stroke:#A80036;stroke-width:1.0;" x1="1404" x2="1715" y1="378.9883" y2="378.9883"/><text fill="#000000" font-family="sans-serif" font-size="14" lengthAdjust="spacing" textLength="301" x="1409" y="394.5234">#/sdfObject/glucose.carb/sdfProperty/meal</text><rect fill="none" height="40.9766" rx="5" ry="5" style="stroke:#A80036;stroke-width:1.5;" width="311" x="1404" y="358.5"/><path d="M95,270 L108,270 C117.4068,270 126.9554,269.9088 136.5926,269.7376 " fill="none" style="stroke:#A80036;stroke-width:1.0;stroke-dasharray:3.0,3.0;"/><path d="M136.6543,272.8363 L138.9166,269.6914 L136.5309,266.6389 L144.3394,269.5834 L136.6543,272.8363 " fill="#A80036" style="stroke:#A80036;stroke-width:1.0;"/><ellipse cx="95" cy="270" fill="#A80036" rx="3" ry="3" style="stroke:#A80036;stroke-width:1.0;stroke-dasharray:3.0,3.0;"/><path d="M1596,248 L1609,248 C1700.1469,248 1671.4319,143.6208 1752,101 C1769.0986,91.9548 1787.5035,84.5001 1806.4328,78.3622 " fill="none" style="stroke:#A80036;stroke-width:1.0;stroke-dasharray:3.0,3.0;"/><path d="M1807.3482,81.2737 L1808.6164,77.6756 L1805.5173,75.4506 L1813.7116,76.0736 L1807.3482,81.2737 " fill="#A80036" style="stroke:#A80036;stroke-width:1.0;"/><ellipse cx="1596" cy="248" fill="#A80036" rx="3" ry="3" style="stroke:#A80036;stroke-width:1.0;stroke-dasharray:3.0,3.0;"/><path d="M2206.5,140 L2219.5,140 C2263.6492,140 2313.4939,140 2351.3998,140 " fill="none" style="stroke:#A80036;stroke-width:1.0;stroke-dasharray:3.0,3.0;"/><path d="M2351.3998,143.1605 L2353.7701,140 L2351.3998,136.8395 L2359.3009,140 L2351.3998,143.1605 " fill="#A80036" style="stroke:#A80036;stroke-width:1.0;"/><ellipse cx="2206.5" cy="140" fill="#A80036" rx="3" ry="3" style="stroke:#A80036;stroke-width:1.0;stroke-dasharray:3.0,3.0;"/><path d="M1596,268 L1609,268 C1679.1856,268 1685.0761,222.1475 1752,201 C1782.8973,191.2367 1816.3215,183.2166 1849.0289,176.6818 " fill="none" style="stroke:#A80036;stroke-width:1.0;stroke-dasharray:3.0,3.0;"/><path d="M1849.6118,179.6447 L1851.2511,176.2446 L1848.446,173.7189 L1856.4362,175.2245 L1849.6118,179.6447 " fill="#A80036" style="stroke:#A80036;stroke-width:1.0;"/><ellipse cx="1596" cy="268" fill="#A80036" rx="3" ry="3" style="stroke:#A80036;stroke-width:1.0;stroke-dasharray:3.0,3.0;"/><path d="M2299.5,353 L2312.5,353 C2325.785,353 2340.0678,353 2353.5499,353 " fill="none" style="stroke:#A80036;stroke-width:1.0;stroke-dasharray:3.0,3.0;"/><path d="M2353.5499,356.1328 L2355.8995,353 L2353.5499,349.8672 L2361.3818,353 L2353.5499,356.1328 " fill="#A80036" style="stroke:#A80036;stroke-width:1.0;"/><ellipse cx="2299.5" cy="353" fill="#A80036" rx="3" ry="3" style="stroke:#A80036;stroke-width:1.0;stroke-dasharray:3.0,3.0;"/><path d="M1596,288 L1609,288 C1656.475,288 1706.9156,288 1755.8758,288 " fill="none" style="stroke:#A80036;stroke-width:1.0;stroke-dasharray:3.0,3.0;"/><path d="M1755.8758,291.0111 L1758.1341,288 L1755.8758,284.9889 L1763.4035,288 L1755.8758,291.0111 " fill="#A80036" style="stroke:#A80036;stroke-width:1.0;"/><ellipse cx="1596" cy="288" fill="#A80036" rx="3" ry="3" style="stroke:#A80036;stroke-width:1.0;stroke-dasharray:3.0,3.0;"/><path d="M1596,309 L1609,309 C1659.9272,309 1670.9806,326.1918 1716,350 C1733.2199,359.1066 1734.1802,367.1317 1752,375 C1757.0983,377.2511 1762.2837,379.4288 1767.5394,381.5352 " fill="none" style="stroke:#A80036;stroke-width:1.0;stroke-dasharray:3.0,3.0;"/><path d="M1766.408,384.4187 L1769.702,382.3837 L1768.6707,378.6517 L1774.7482,384.3636 L1766.408,384.4187 " fill="#A80036" style="stroke:#A80036;stroke-width:1.0;"/><ellipse cx="1596" cy="309" fill="#A80036" rx="3" ry="3" style="stroke:#A80036;stroke-width:1.0;stroke-dasharray:3.0,3.0;"/><path d="M1596,330 L1609,330 C1657.3792,330 1681.0561,316.5416 1716,350 C1767.0824,398.9108 1701.8184,455.1654 1752,505 C1753.1114,506.1037 1754.2374,507.19 1755.3776,508.2593 " fill="none" style="stroke:#A80036;stroke-width:1.0;stroke-dasharray:3.0,3.0;"/><path d="M1753.2955,510.586 L1757.1226,509.8209 L1757.4597,505.9326 L1761.1944,513.4645 L1753.2955,510.586 " fill="#A80036" style="stroke:#A80036;stroke-width:1.0;"/><ellipse cx="1596" cy="330" fill="#A80036" rx="3" ry="3" style="stroke:#A80036;stroke-width:1.0;stroke-dasharray:3.0,3.0;"/><path d="M1355,315 L1368,315 C1414.4334,315 1466.6411,307.3624 1504.7237,300.3662 " fill="none" style="stroke:#A80036;stroke-width:1.0;stroke-dasharray:3.0,3.0;"/><path d="M1505.279,303.3351 L1506.9504,299.9497 L1504.1684,297.3972 L1512.146,298.9779 L1505.279,303.3351 " fill="#A80036" style="stroke:#A80036;stroke-width:1.0;"/><ellipse cx="1355" cy="315" fill="#A80036" rx="3" ry="3" style="stroke:#A80036;stroke-width:1.0;stroke-dasharray:3.0,3.0;"/><path d="M1355,352 L1368,352 C1392.7351,352 1419.0962,354.2475 1444.0861,357.4456 " fill="none" style="stroke:#A80036;stroke-width:1.0;stroke-dasharray:3.0,3.0;"/><path d="M1443.6774,360.5288 L1446.3985,357.7521 L1444.4947,354.3623 L1451.7942,358.4672 L1443.6774,360.5288 " fill="#A80036" style="stroke:#A80036;stroke-width:1.0;"/><ellipse cx="1355" cy="352" fill="#A80036" rx="3" ry="3" style="stroke:#A80036;stroke-width:1.0;stroke-dasharray:3.0,3.0;"/><path d="M499.5,315 L512.5,315 C601.8507,315 699.1076,315 787.4806,315 " fill="none" style="stroke:#A80036;stroke-width:1.0;stroke-dasharray:3.0,3.0;"/><path d="M787.4806,318.0816 L789.7918,315 L787.4806,311.9184 L795.1847,315 L787.4806,318.0816 " fill="#A80036" style="stroke:#A80036;stroke-width:1.0;"/><ellipse cx="499.5" cy="315" fill="#A80036" rx="3" ry="3" style="stroke:#A80036;stroke-width:1.0;stroke-dasharray:3.0,3.0;"/><path d="M95,291 L108,291 C124.1536,291 127.927,294.388 144,296 C226.5399,304.2782 321.9705,309.5123 384.1307,312.3447 " fill="none" style="stroke:#A80036;stroke-width:1.0;stroke-dasharray:3.0,3.0;"/><path d="M383.9906,315.4605 L386.4675,312.4498 L384.2708,309.2289 L391.9202,312.695 L383.9906,315.4605 " fill="#A80036" style="stroke:#A80036;stroke-width:1.0;"/><ellipse cx="95" cy="291" fill="#A80036" rx="3" ry="3" style="stroke:#A80036;stroke-width:1.0;stroke-dasharray:3.0,3.0;"/><!--MD5=[bf291b378239efa0c809b85e49538fe2]
@startjson
{
  "info": {
    "copyright": "Copyright 2016-2019 Open Connectivity Foundation, Inc. All rights reserved.",
    "license": "https://github.com/one-data-model/oneDM/blob/master/LICENSE",
    "title": "Context Carbohydrates for Glucose Meter",
    "version": "2019-03-22"
  },
  "sdfObject": {
    "glucose.carb": {
      "description": "This Resource describes the Properties associated with a context\\ncarbohydrates. The carb Property has a default unit of grams[g]. The\\ncarb and meal Properties are read-only values that are provided by\\nthe Server. When range is omitted the default is 0 to +MAXFLOAT.",
      "sdfProperty": {
        "carb": {
          "description": "The amount of carbohydrates undertaken in grams",
          "writable": false,
          "type": "number",
          "minimum": 0
        },
        "meal": {
          "description": "Recorded time of carbohydrates intake",
          "enum": [
            "breakfast",
            "lunch",
            "dinner",
            "snack",
            "drink",
            "supper",
            "brunch",
            "undetermined",
            "other",
            "no_entry",
            "no_ingestion"
          ],
          "writable": false,
          "type": "string"
        },
        "range": {
          "description": "The valid range for the Property in the Resource as a number. The\\nfirst value in the array is the minimum value, the second value in\\nthe array is the maximum value.",
          "type": "array",
          "writable": false,
          "minItems": 2,
          "maxItems": 2,
          "items": {
            "type": "number"
          }
        },
        "step": {
          "description": "Step value across the defined range an integer when the range is a\\nnumber.  This is the increment for valid values across the range; so\\nif range is 0.0..10.0 and step is 2.5 then valid values are\\n0.0,2.5,5.0,7.5,10.0.",
          "writable": false,
          "type": "number"
        },
        "precision": {
          "description": "When exposed the value in 'precision' provides a +/- tolerance\\nagainst the Properties in the Resource. Thus if a Property is UPDATED\\nto a value and that Property then RETRIEVED, the RETRIEVED value is\\nvalid if in the range of the set value +/- precision",
          "type": "number",
          "writable": false
        }
      },
      "sdfRequired": [
        "#/sdfObject/glucose.carb/sdfProperty/carb",
        "#/sdfObject/glucose.carb/sdfProperty/meal"
      ]
    }
  }
}
@endjson

PlantUML version 1.2021.2(Sun Mar 07 13:10:27 EET 2021)
(GPL source distribution)
Java Runtime: OpenJDK Runtime Environment
JVM: OpenJDK 64-Bit Server VM
Default Encoding: UTF-8
Language: en
Country: FI
--></g></svg>