<?xml version="1.0" encoding="UTF-8" standalone="no"?><svg xmlns="http://www.w3.org/2000/svg" xmlns:xlink="http://www.w3.org/1999/xlink" contentScriptType="application/ecmascript" contentStyleType="text/css" height="497px" preserveAspectRatio="none" style="width:2348px;height:497px;" version="1.1" viewBox="0 0 2348 497" width="2348px" zoomAndPan="magnify"><defs/><g><rect fill="#FEFECE" height="40.9766" rx="5" ry="5" style="stroke:#FEFECE;stroke-width:1.5;" width="97" x="10" y="191.5"/><text fill="#000000" font-family="sans-serif" font-size="14" lengthAdjust="spacing" textLength="27" x="15" y="207.0352">info</text><text fill="#000000" font-family="sans-serif" font-size="14" lengthAdjust="spacing" textLength="0" x="102" y="207.0352"/><line style="stroke:#A80036;stroke-width:1.0;" x1="85" x2="85" y1="191.5" y2="211.9883"/><line style="stroke:#A80036;stroke-width:1.0;" x1="10" x2="107" y1="211.9883" y2="211.9883"/><text fill="#000000" font-family="sans-serif" font-size="14" lengthAdjust="spacing" textLength="65" x="15" y="227.5234">sdfObject</text><text fill="#000000" font-family="sans-serif" font-size="14" lengthAdjust="spacing" textLength="0" x="102" y="227.5234"/><line style="stroke:#A80036;stroke-width:1.0;" x1="85" x2="85" y1="211.9883" y2="232.4766"/><rect fill="none" height="40.9766" rx="5" ry="5" style="stroke:#A80036;stroke-width:1.5;" width="97" x="10" y="191.5"/><rect fill="#FEFECE" height="81.9531" rx="5" ry="5" style="stroke:#FEFECE;stroke-width:1.5;" width="547" x="144" y="136"/><text fill="#000000" font-family="sans-serif" font-size="14" lengthAdjust="spacing" textLength="26" x="149" y="151.5352">title</text><text fill="#000000" font-family="sans-serif" font-size="14" lengthAdjust="spacing" textLength="342" x="224" y="151.5352">OMA LwM2M Multi-state Selector (Object ID 3348)</text><line style="stroke:#A80036;stroke-width:1.0;" x1="219" x2="219" y1="136" y2="156.4883"/><line style="stroke:#A80036;stroke-width:1.0;" x1="144" x2="691" y1="156.4883" y2="156.4883"/><text fill="#000000" font-family="sans-serif" font-size="14" lengthAdjust="spacing" textLength="50" x="149" y="172.0234">version</text><text fill="#000000" font-family="sans-serif" font-size="14" lengthAdjust="spacing" textLength="88" x="224" y="172.0234">2021-02-11</text><line style="stroke:#A80036;stroke-width:1.0;" x1="219" x2="219" y1="156.4883" y2="176.9766"/><line style="stroke:#A80036;stroke-width:1.0;" x1="144" x2="691" y1="176.9766" y2="176.9766"/><text fill="#000000" font-family="sans-serif" font-size="14" lengthAdjust="spacing" textLength="65" x="149" y="192.5117">copyright</text><text fill="#000000" font-family="sans-serif" font-size="14" lengthAdjust="spacing" textLength="208" x="224" y="192.5117">Copyright (c) 2018-2020 IPSO</text><line style="stroke:#A80036;stroke-width:1.0;" x1="219" x2="219" y1="176.9766" y2="197.4648"/><line style="stroke:#A80036;stroke-width:1.0;" x1="144" x2="691" y1="197.4648" y2="197.4648"/><text fill="#000000" font-family="sans-serif" font-size="14" lengthAdjust="spacing" textLength="47" x="149" y="213">license</text><text fill="#000000" font-family="sans-serif" font-size="14" lengthAdjust="spacing" textLength="462" x="224" y="213">https://github.com/one-data-model/oneDM/blob/master/LICENSE</text><line style="stroke:#A80036;stroke-width:1.0;" x1="219" x2="219" y1="197.4648" y2="217.9531"/><rect fill="none" height="81.9531" rx="5" ry="5" style="stroke:#A80036;stroke-width:1.5;" width="547" x="144" y="136"/><rect fill="#FEFECE" height="20.4883" rx="5" ry="5" style="stroke:#FEFECE;stroke-width:1.5;" width="169" x="333" y="236"/><text fill="#000000" font-family="sans-serif" font-size="14" lengthAdjust="spacing" textLength="137" x="338" y="251.5352">Multi-state_Selector</text><text fill="#000000" font-family="sans-serif" font-size="14" lengthAdjust="spacing" textLength="0" x="497" y="251.5352"/><line style="stroke:#A80036;stroke-width:1.0;" x1="480" x2="480" y1="236" y2="256.4883"/><rect fill="none" height="20.4883" rx="5" ry="5" style="stroke:#A80036;stroke-width:1.5;" width="169" x="333" y="236"/><rect fill="#FEFECE" height="118.9297" rx="5" ry="5" style="stroke:#FEFECE;stroke-width:1.5;" width="525" x="728" y="186.5"/><text fill="#000000" font-family="sans-serif" font-size="14" lengthAdjust="spacing" textLength="33" x="733" y="202.0352">label</text><text fill="#000000" font-family="sans-serif" font-size="14" lengthAdjust="spacing" textLength="134" x="826" y="202.0352">Multi-state Selector</text><line style="stroke:#A80036;stroke-width:1.0;" x1="821" x2="821" y1="186.5" y2="206.9883"/><line style="stroke:#A80036;stroke-width:1.0;" x1="728" x2="1253" y1="206.9883" y2="206.9883"/><text fill="#000000" font-family="sans-serif" font-size="14" lengthAdjust="spacing" textLength="77" x="733" y="222.5234">description</text><text fill="#000000" font-family="sans-serif" font-size="14" lengthAdjust="spacing" textLength="422" x="826" y="222.5234">This IPSO object is used to represent the state of a Multi-state</text><text fill="#000000" font-family="sans-serif" font-size="14" lengthAdjust="spacing" textLength="332" x="826" y="239.0117">selector switch with a number of fixed positions.</text><line style="stroke:#A80036;stroke-width:1.0;" x1="821" x2="821" y1="206.9883" y2="243.9648"/><line style="stroke:#A80036;stroke-width:1.0;" x1="728" x2="1253" y1="243.9648" y2="243.9648"/><text fill="#000000" font-family="sans-serif" font-size="14" lengthAdjust="spacing" textLength="79" x="733" y="259.5">sdfProperty</text><text fill="#000000" font-family="sans-serif" font-size="14" lengthAdjust="spacing" textLength="0" x="838" y="259.5"/><line style="stroke:#A80036;stroke-width:1.0;" x1="821" x2="821" y1="243.9648" y2="264.4531"/><line style="stroke:#A80036;stroke-width:1.0;" x1="728" x2="1253" y1="264.4531" y2="264.4531"/><text fill="#000000" font-family="sans-serif" font-size="14" lengthAdjust="spacing" textLength="65" x="733" y="279.9883">sdfAction</text><text fill="#000000" font-family="sans-serif" font-size="14" lengthAdjust="spacing" textLength="0" x="838" y="279.9883"/><line style="stroke:#A80036;stroke-width:1.0;" x1="821" x2="821" y1="264.4531" y2="284.9414"/><line style="stroke:#A80036;stroke-width:1.0;" x1="728" x2="1253" y1="284.9414" y2="284.9414"/><text fill="#000000" font-family="sans-serif" font-size="14" lengthAdjust="spacing" textLength="83" x="733" y="300.4766">sdfRequired</text><text fill="#000000" font-family="sans-serif" font-size="14" lengthAdjust="spacing" textLength="0" x="838" y="300.4766"/><line style="stroke:#A80036;stroke-width:1.0;" x1="821" x2="821" y1="284.9414" y2="305.4297"/><rect fill="none" height="118.9297" rx="5" ry="5" style="stroke:#A80036;stroke-width:1.5;" width="525" x="728" y="186.5"/><rect fill="#FEFECE" height="81.9531" rx="5" ry="5" style="stroke:#FEFECE;stroke-width:1.5;" width="183" x="1421.5" y="162"/><text fill="#000000" font-family="sans-serif" font-size="14" lengthAdjust="spacing" textLength="118" x="1426.5" y="177.5352">Multi-state_Input</text><text fill="#000000" font-family="sans-serif" font-size="14" lengthAdjust="spacing" textLength="0" x="1599.5" y="177.5352"/><line style="stroke:#A80036;stroke-width:1.0;" x1="1582.5" x2="1582.5" y1="162" y2="182.4883"/><line style="stroke:#A80036;stroke-width:1.0;" x1="1421.5" x2="1604.5" y1="182.4883" y2="182.4883"/><text fill="#000000" font-family="sans-serif" font-size="14" lengthAdjust="spacing" textLength="118" x="1426.5" y="198.0234">Application_Type</text><text fill="#000000" font-family="sans-serif" font-size="14" lengthAdjust="spacing" textLength="0" x="1599.5" y="198.0234"/><line style="stroke:#A80036;stroke-width:1.0;" x1="1582.5" x2="1582.5" y1="182.4883" y2="202.9766"/><line style="stroke:#A80036;stroke-width:1.0;" x1="1421.5" x2="1604.5" y1="202.9766" y2="202.9766"/><text fill="#000000" font-family="sans-serif" font-size="14" lengthAdjust="spacing" textLength="76" x="1426.5" y="218.5117">Timestamp</text><text fill="#000000" font-family="sans-serif" font-size="14" lengthAdjust="spacing" textLength="0" x="1599.5" y="218.5117"/><line style="stroke:#A80036;stroke-width:1.0;" x1="1582.5" x2="1582.5" y1="202.9766" y2="223.4648"/><line style="stroke:#A80036;stroke-width:1.0;" x1="1421.5" x2="1604.5" y1="223.4648" y2="223.4648"/><text fill="#000000" font-family="sans-serif" font-size="14" lengthAdjust="spacing" textLength="151" x="1426.5" y="239">Fractional_Timestamp</text><text fill="#000000" font-family="sans-serif" font-size="14" lengthAdjust="spacing" textLength="0" x="1599.5" y="239"/><line style="stroke:#A80036;stroke-width:1.0;" x1="1582.5" x2="1582.5" y1="223.4648" y2="243.9531"/><rect fill="none" height="81.9531" rx="5" ry="5" style="stroke:#A80036;stroke-width:1.5;" width="183" x="1421.5" y="162"/><rect fill="#FEFECE" height="81.9531" rx="5" ry="5" style="stroke:#FEFECE;stroke-width:1.5;" width="444" x="1832.5" y="10"/><text fill="#000000" font-family="sans-serif" font-size="14" lengthAdjust="spacing" textLength="33" x="1837.5" y="25.5352">label</text><text fill="#000000" font-family="sans-serif" font-size="14" lengthAdjust="spacing" textLength="115" x="1924.5" y="25.5352">Multi-state Input</text><line style="stroke:#A80036;stroke-width:1.0;" x1="1919.5" x2="1919.5" y1="10" y2="30.4883"/><line style="stroke:#A80036;stroke-width:1.0;" x1="1832.5" x2="2276.5" y1="30.4883" y2="30.4883"/><text fill="#000000" font-family="sans-serif" font-size="14" lengthAdjust="spacing" textLength="77" x="1837.5" y="46.0234">description</text><text fill="#000000" font-family="sans-serif" font-size="14" lengthAdjust="spacing" textLength="347" x="1924.5" y="46.0234">The current state of a Multi-state input or selector.</text><line style="stroke:#A80036;stroke-width:1.0;" x1="1919.5" x2="1919.5" y1="30.4883" y2="50.9766"/><line style="stroke:#A80036;stroke-width:1.0;" x1="1832.5" x2="2276.5" y1="50.9766" y2="50.9766"/><text fill="#000000" font-family="sans-serif" font-size="14" lengthAdjust="spacing" textLength="55" x="1837.5" y="66.5117">writable</text><text fill="#000000" font-family="sans-serif" font-size="14" lengthAdjust="spacing" textLength="48" x="1924.5" y="66.5117">☐ false</text><line style="stroke:#A80036;stroke-width:1.0;" x1="1919.5" x2="1919.5" y1="50.9766" y2="71.4648"/><line style="stroke:#A80036;stroke-width:1.0;" x1="1832.5" x2="2276.5" y1="71.4648" y2="71.4648"/><text fill="#000000" font-family="sans-serif" font-size="14" lengthAdjust="spacing" textLength="29" x="1837.5" y="87">type</text><text fill="#000000" font-family="sans-serif" font-size="14" lengthAdjust="spacing" textLength="49" x="1924.5" y="87">integer</text><line style="stroke:#A80036;stroke-width:1.0;" x1="1919.5" x2="1919.5" y1="71.4648" y2="91.9531"/><rect fill="none" height="81.9531" rx="5" ry="5" style="stroke:#A80036;stroke-width:1.5;" width="444" x="1832.5" y="10"/><rect fill="#FEFECE" height="77.9531" rx="5" ry="5" style="stroke:#FEFECE;stroke-width:1.5;" width="563" x="1773" y="110"/><text fill="#000000" font-family="sans-serif" font-size="14" lengthAdjust="spacing" textLength="33" x="1778" y="125.5352">label</text><text fill="#000000" font-family="sans-serif" font-size="14" lengthAdjust="spacing" textLength="115" x="1865" y="125.5352">Application Type</text><line style="stroke:#A80036;stroke-width:1.0;" x1="1860" x2="1860" y1="110" y2="130.4883"/><line style="stroke:#A80036;stroke-width:1.0;" x1="1773" x2="2336" y1="130.4883" y2="130.4883"/><text fill="#000000" font-family="sans-serif" font-size="14" lengthAdjust="spacing" textLength="77" x="1778" y="146.0234">description</text><text fill="#000000" font-family="sans-serif" font-size="14" lengthAdjust="spacing" textLength="466" x="1865" y="146.0234">The application type of the sensor or actuator as a string depending</text><text fill="#000000" font-family="sans-serif" font-size="14" lengthAdjust="spacing" textLength="110" x="1865" y="162.5117">on the use case.</text><line style="stroke:#A80036;stroke-width:1.0;" x1="1860" x2="1860" y1="130.4883" y2="167.4648"/><line style="stroke:#A80036;stroke-width:1.0;" x1="1773" x2="2336" y1="167.4648" y2="167.4648"/><text fill="#000000" font-family="sans-serif" font-size="14" lengthAdjust="spacing" textLength="29" x="1778" y="183">type</text><text fill="#000000" font-family="sans-serif" font-size="14" lengthAdjust="spacing" textLength="40" x="1865" y="183">string</text><line style="stroke:#A80036;stroke-width:1.0;" x1="1860" x2="1860" y1="167.4648" y2="187.9531"/><rect fill="none" height="77.9531" rx="5" ry="5" style="stroke:#A80036;stroke-width:1.5;" width="563" x="1773" y="110"/><rect fill="#FEFECE" height="102.4414" rx="5" ry="5" style="stroke:#FEFECE;stroke-width:1.5;" width="493" x="1808" y="206"/><text fill="#000000" font-family="sans-serif" font-size="14" lengthAdjust="spacing" textLength="33" x="1813" y="221.5352">label</text><text fill="#000000" font-family="sans-serif" font-size="14" lengthAdjust="spacing" textLength="76" x="1900" y="221.5352">Timestamp</text><line style="stroke:#A80036;stroke-width:1.0;" x1="1895" x2="1895" y1="206" y2="226.4883"/><line style="stroke:#A80036;stroke-width:1.0;" x1="1808" x2="2301" y1="226.4883" y2="226.4883"/><text fill="#000000" font-family="sans-serif" font-size="14" lengthAdjust="spacing" textLength="77" x="1813" y="242.0234">description</text><text fill="#000000" font-family="sans-serif" font-size="14" lengthAdjust="spacing" textLength="396" x="1900" y="242.0234">The timestamp of when the measurement was performed.</text><line style="stroke:#A80036;stroke-width:1.0;" x1="1895" x2="1895" y1="226.4883" y2="246.9766"/><line style="stroke:#A80036;stroke-width:1.0;" x1="1808" x2="2301" y1="246.9766" y2="246.9766"/><text fill="#000000" font-family="sans-serif" font-size="14" lengthAdjust="spacing" textLength="55" x="1813" y="262.5117">writable</text><text fill="#000000" font-family="sans-serif" font-size="14" lengthAdjust="spacing" textLength="48" x="1900" y="262.5117">☐ false</text><line style="stroke:#A80036;stroke-width:1.0;" x1="1895" x2="1895" y1="246.9766" y2="267.4648"/><line style="stroke:#A80036;stroke-width:1.0;" x1="1808" x2="2301" y1="267.4648" y2="267.4648"/><text fill="#000000" font-family="sans-serif" font-size="14" lengthAdjust="spacing" textLength="29" x="1813" y="283">type</text><text fill="#000000" font-family="sans-serif" font-size="14" lengthAdjust="spacing" textLength="54" x="1900" y="283">number</text><line style="stroke:#A80036;stroke-width:1.0;" x1="1895" x2="1895" y1="267.4648" y2="287.9531"/><line style="stroke:#A80036;stroke-width:1.0;" x1="1808" x2="2301" y1="287.9531" y2="287.9531"/><text fill="#000000" font-family="sans-serif" font-size="14" lengthAdjust="spacing" textLength="54" x="1813" y="303.4883">sdfType</text><text fill="#000000" font-family="sans-serif" font-size="14" lengthAdjust="spacing" textLength="69" x="1900" y="303.4883">unix-time</text><line style="stroke:#A80036;stroke-width:1.0;" x1="1895" x2="1895" y1="287.9531" y2="308.4414"/><rect fill="none" height="102.4414" rx="5" ry="5" style="stroke:#A80036;stroke-width:1.5;" width="493" x="1808" y="206"/><rect fill="#FEFECE" height="159.9063" rx="5" ry="5" style="stroke:#FEFECE;stroke-width:1.5;" width="563" x="1773" y="326"/><text fill="#000000" font-family="sans-serif" font-size="14" lengthAdjust="spacing" textLength="33" x="1778" y="341.5352">label</text><text fill="#000000" font-family="sans-serif" font-size="14" lengthAdjust="spacing" textLength="148" x="1865" y="341.5352">Fractional Timestamp</text><line style="stroke:#A80036;stroke-width:1.0;" x1="1860" x2="1860" y1="326" y2="346.4883"/><line style="stroke:#A80036;stroke-width:1.0;" x1="1773" x2="2336" y1="346.4883" y2="346.4883"/><text fill="#000000" font-family="sans-serif" font-size="14" lengthAdjust="spacing" textLength="77" x="1778" y="362.0234">description</text><text fill="#000000" font-family="sans-serif" font-size="14" lengthAdjust="spacing" textLength="466" x="1865" y="362.0234">Fractional part of the timestamp when sub-second precision is used</text><text fill="#000000" font-family="sans-serif" font-size="14" lengthAdjust="spacing" textLength="157" x="1865" y="378.5117">(e.g., 0.23 for 230 ms).</text><line style="stroke:#A80036;stroke-width:1.0;" x1="1860" x2="1860" y1="346.4883" y2="383.4648"/><line style="stroke:#A80036;stroke-width:1.0;" x1="1773" x2="2336" y1="383.4648" y2="383.4648"/><text fill="#000000" font-family="sans-serif" font-size="14" lengthAdjust="spacing" textLength="55" x="1778" y="399">writable</text><text fill="#000000" font-family="sans-serif" font-size="14" lengthAdjust="spacing" textLength="48" x="1865" y="399">☐ false</text><line style="stroke:#A80036;stroke-width:1.0;" x1="1860" x2="1860" y1="383.4648" y2="403.9531"/><line style="stroke:#A80036;stroke-width:1.0;" x1="1773" x2="2336" y1="403.9531" y2="403.9531"/><text fill="#000000" font-family="sans-serif" font-size="14" lengthAdjust="spacing" textLength="29" x="1778" y="419.4883">type</text><text fill="#000000" font-family="sans-serif" font-size="14" lengthAdjust="spacing" textLength="54" x="1865" y="419.4883">number</text><line style="stroke:#A80036;stroke-width:1.0;" x1="1860" x2="1860" y1="403.9531" y2="424.4414"/><line style="stroke:#A80036;stroke-width:1.0;" x1="1773" x2="2336" y1="424.4414" y2="424.4414"/><text fill="#000000" font-family="sans-serif" font-size="14" lengthAdjust="spacing" textLength="27" x="1778" y="439.9766">unit</text><text fill="#000000" font-family="sans-serif" font-size="14" lengthAdjust="spacing" textLength="7" x="1865" y="439.9766">s</text><line style="stroke:#A80036;stroke-width:1.0;" x1="1860" x2="1860" y1="424.4414" y2="444.9297"/><line style="stroke:#A80036;stroke-width:1.0;" x1="1773" x2="2336" y1="444.9297" y2="444.9297"/><text fill="#000000" font-family="sans-serif" font-size="14" lengthAdjust="spacing" textLength="65" x="1778" y="460.4648">minimum</text><text fill="#000000" font-family="sans-serif" font-size="14" lengthAdjust="spacing" textLength="9" x="1865" y="460.4648">0</text><line style="stroke:#A80036;stroke-width:1.0;" x1="1860" x2="1860" y1="444.9297" y2="465.418"/><line style="stroke:#A80036;stroke-width:1.0;" x1="1773" x2="2336" y1="465.418" y2="465.418"/><text fill="#000000" font-family="sans-serif" font-size="14" lengthAdjust="spacing" textLength="69" x="1778" y="480.9531">maximum</text><text fill="#000000" font-family="sans-serif" font-size="14" lengthAdjust="spacing" textLength="9" x="1865" y="480.9531">1</text><line style="stroke:#A80036;stroke-width:1.0;" x1="1860" x2="1860" y1="465.418" y2="485.9063"/><rect fill="none" height="159.9063" rx="5" ry="5" style="stroke:#A80036;stroke-width:1.5;" width="563" x="1773" y="326"/><rect fill="#FEFECE" height="15" rx="5" ry="5" style="stroke:#FEFECE;stroke-width:1.5;" width="30" x="1501" y="262"/><rect fill="none" height="15" rx="5" ry="5" style="stroke:#A80036;stroke-width:1.5;" width="30" x="1501" y="262"/><rect fill="#FEFECE" height="20.4883" rx="5" ry="5" style="stroke:#FEFECE;stroke-width:1.5;" width="446" x="1290" y="296"/><text fill="#000000" font-family="sans-serif" font-size="14" lengthAdjust="spacing" textLength="436" x="1295" y="311.5352">#/sdfObject/Multi-state_Selector/sdfProperty/Multi-state_Input</text><rect fill="none" height="20.4883" rx="5" ry="5" style="stroke:#A80036;stroke-width:1.5;" width="446" x="1290" y="296"/><path d="M95,201 L108,201 C117.3406,201 126.8353,200.8896 136.4202,200.6839 " fill="none" style="stroke:#A80036;stroke-width:1.0;stroke-dasharray:3.0,3.0;"/><path d="M136.4943,203.7659 L138.7318,200.6283 L136.3462,197.6019 L144.1253,200.4987 L136.4943,203.7659 " fill="#A80036" style="stroke:#A80036;stroke-width:1.0;"/><ellipse cx="95" cy="201" fill="#A80036" rx="3" ry="3" style="stroke:#A80036;stroke-width:1.0;stroke-dasharray:3.0,3.0;"/><path d="M1593.5,172 L1606.5,172 C1686.9472,172 1695.9024,123.9721 1773,101 C1789.8285,95.9858 1807.3825,91.4016 1825.1387,87.2246 " fill="none" style="stroke:#A80036;stroke-width:1.0;stroke-dasharray:3.0,3.0;"/><path d="M1825.8448,90.2729 L1827.4249,86.695 L1824.4326,84.1763 L1832.7594,85.4593 L1825.8448,90.2729 " fill="#A80036" style="stroke:#A80036;stroke-width:1.0;"/><ellipse cx="1593.5" cy="172" fill="#A80036" rx="3" ry="3" style="stroke:#A80036;stroke-width:1.0;stroke-dasharray:3.0,3.0;"/><path d="M1593.5,192 L1606.5,192 C1658.0153,192 1712.714,189.1416 1765.5302,184.8987 " fill="none" style="stroke:#A80036;stroke-width:1.0;stroke-dasharray:3.0,3.0;"/><path d="M1765.7846,188.01 L1767.8637,184.7079 L1765.2759,181.7874 L1773.3085,184.2628 L1765.7846,188.01 " fill="#A80036" style="stroke:#A80036;stroke-width:1.0;"/><ellipse cx="1593.5" cy="192" fill="#A80036" rx="3" ry="3" style="stroke:#A80036;stroke-width:1.0;stroke-dasharray:3.0,3.0;"/><path d="M1593.5,213 L1606.5,213 C1669.5136,213 1737.2798,217.3744 1800.5368,223.3647 " fill="none" style="stroke:#A80036;stroke-width:1.0;stroke-dasharray:3.0,3.0;"/><path d="M1800.2415,226.4412 L1802.8442,223.5862 L1800.8322,220.2882 L1808.2281,224.1031 L1800.2415,226.4412 " fill="#A80036" style="stroke:#A80036;stroke-width:1.0;"/><ellipse cx="1593.5" cy="213" fill="#A80036" rx="3" ry="3" style="stroke:#A80036;stroke-width:1.0;stroke-dasharray:3.0,3.0;"/><path d="M1593.5,234 L1606.5,234 C1665.1115,234 1688.6753,219.8333 1737,253 C1763.9078,271.4677 1747.6762,296.4138 1773,317 C1774.7683,318.4374 1776.56,319.8518 1778.3739,321.2435 " fill="none" style="stroke:#A80036;stroke-width:1.0;stroke-dasharray:3.0,3.0;"/><path d="M1776.5161,323.7438 L1780.2491,322.6369 L1780.2318,318.7432 L1784.6247,325.8881 L1776.5161,323.7438 " fill="#A80036" style="stroke:#A80036;stroke-width:1.0;"/><ellipse cx="1593.5" cy="234" fill="#A80036" rx="3" ry="3" style="stroke:#A80036;stroke-width:1.0;stroke-dasharray:3.0,3.0;"/><path d="M1241,245 L1254,245 C1307.4082,245 1366.2292,236.1571 1414.251,226.5865 " fill="none" style="stroke:#A80036;stroke-width:1.0;stroke-dasharray:3.0,3.0;"/><path d="M1414.8674,229.6313 L1416.5346,226.1242 L1413.6345,223.5417 L1421.8629,225.0455 L1414.8674,229.6313 " fill="#A80036" style="stroke:#A80036;stroke-width:1.0;"/><ellipse cx="1241" cy="245" fill="#A80036" rx="3" ry="3" style="stroke:#A80036;stroke-width:1.0;stroke-dasharray:3.0,3.0;"/><path d="M1241,270 L1254,270 C1343.8271,270 1451.2122,270 1493.7877,270 " fill="none" style="stroke:#A80036;stroke-width:1.0;stroke-dasharray:3.0,3.0;"/><path d="M1493.7877,273.0506 L1496.0757,270 L1493.7877,266.9494 L1501.4142,270 L1493.7877,273.0506 " fill="#A80036" style="stroke:#A80036;stroke-width:1.0;"/><ellipse cx="1241" cy="270" fill="#A80036" rx="3" ry="3" style="stroke:#A80036;stroke-width:1.0;stroke-dasharray:3.0,3.0;"/><path d="M1241,294 L1254,294 C1281.3224,294 1310.2518,294.6772 1338.4828,295.7099 " fill="none" style="stroke:#A80036;stroke-width:1.0;stroke-dasharray:3.0,3.0;"/><path d="M1338.3687,298.7299 L1340.7477,295.7954 L1338.5968,292.6899 L1346.0327,295.995 L1338.3687,298.7299 " fill="#A80036" style="stroke:#A80036;stroke-width:1.0;"/><ellipse cx="1241" cy="294" fill="#A80036" rx="3" ry="3" style="stroke:#A80036;stroke-width:1.0;stroke-dasharray:3.0,3.0;"/><path d="M491,246 L504,246 C574.215,246 650.1362,246 720.6341,246 " fill="none" style="stroke:#A80036;stroke-width:1.0;stroke-dasharray:3.0,3.0;"/><path d="M720.6341,249.0736 L722.9393,246 L720.6341,242.9264 L728.3182,246 L720.6341,249.0736 " fill="#A80036" style="stroke:#A80036;stroke-width:1.0;"/><ellipse cx="491" cy="246" fill="#A80036" rx="3" ry="3" style="stroke:#A80036;stroke-width:1.0;stroke-dasharray:3.0,3.0;"/><path d="M95,222 L108,222 C124.1536,222 127.9333,225.3271 144,227 C204.3535,233.284 272.4365,238.0269 325.5144,241.2024 " fill="none" style="stroke:#A80036;stroke-width:1.0;stroke-dasharray:3.0,3.0;"/><path d="M325.3315,244.2902 L327.8303,241.3395 L325.6973,238.1146 L333.234,241.6595 L325.3315,244.2902 " fill="#A80036" style="stroke:#A80036;stroke-width:1.0;"/><ellipse cx="95" cy="222" fill="#A80036" rx="3" ry="3" style="stroke:#A80036;stroke-width:1.0;stroke-dasharray:3.0,3.0;"/><!--MD5=[dca6079a4ef9733b0a85e6eafe346bed]
@startjson
{
  "info": {
    "title": "OMA LwM2M Multi-state Selector (Object ID 3348)",
    "version": "2021-02-11",
    "copyright": "Copyright (c) 2018-2020 IPSO",
    "license": "https://github.com/one-data-model/oneDM/blob/master/LICENSE"
  },
  "sdfObject": {
    "Multi-state_Selector": {
      "label": "Multi-state Selector",
      "description": "This IPSO object is used to represent the state of a Multi-state\\nselector switch with a number of fixed positions.",
      "sdfProperty": {
        "Multi-state_Input": {
          "label": "Multi-state Input",
          "description": "The current state of a Multi-state input or selector.",
          "writable": false,
          "type": "integer"
        },
        "Application_Type": {
          "label": "Application Type",
          "description": "The application type of the sensor or actuator as a string depending\\non the use case.",
          "type": "string"
        },
        "Timestamp": {
          "label": "Timestamp",
          "description": "The timestamp of when the measurement was performed.",
          "writable": false,
          "type": "number",
          "sdfType": "unix-time"
        },
        "Fractional_Timestamp": {
          "label": "Fractional Timestamp",
          "description": "Fractional part of the timestamp when sub-second precision is used\\n(e.g., 0.23 for 230 ms).",
          "writable": false,
          "type": "number",
          "unit": "s",
          "minimum": 0,
          "maximum": 1
        }
      },
      "sdfAction": {},
      "sdfRequired": [
        "#/sdfObject/Multi-state_Selector/sdfProperty/Multi-state_Input"
      ]
    }
  }
}
@endjson

PlantUML version 1.2021.2(Sun Mar 07 13:10:27 EET 2021)
(GPL source distribution)
Java Runtime: OpenJDK Runtime Environment
JVM: OpenJDK 64-Bit Server VM
Default Encoding: UTF-8
Language: en
Country: FI
--></g></svg>