<?xml version="1.0" encoding="UTF-8" standalone="no"?><svg xmlns="http://www.w3.org/2000/svg" xmlns:xlink="http://www.w3.org/1999/xlink" contentScriptType="application/ecmascript" contentStyleType="text/css" height="834px" preserveAspectRatio="none" style="width:2336px;height:834px;" version="1.1" viewBox="0 0 2336 834" width="2336px" zoomAndPan="magnify"><defs/><g><rect fill="#FEFECE" height="40.9766" rx="5" ry="5" style="stroke:#FEFECE;stroke-width:1.5;" width="97" x="10" y="377"/><text fill="#000000" font-family="sans-serif" font-size="14" lengthAdjust="spacing" textLength="27" x="15" y="392.5352">info</text><text fill="#000000" font-family="sans-serif" font-size="14" lengthAdjust="spacing" textLength="0" x="102" y="392.5352"/><line style="stroke:#A80036;stroke-width:1.0;" x1="85" x2="85" y1="377" y2="397.4883"/><line style="stroke:#A80036;stroke-width:1.0;" x1="10" x2="107" y1="397.4883" y2="397.4883"/><text fill="#000000" font-family="sans-serif" font-size="14" lengthAdjust="spacing" textLength="65" x="15" y="413.0234">sdfObject</text><text fill="#000000" font-family="sans-serif" font-size="14" lengthAdjust="spacing" textLength="0" x="102" y="413.0234"/><line style="stroke:#A80036;stroke-width:1.0;" x1="85" x2="85" y1="397.4883" y2="417.9766"/><rect fill="none" height="40.9766" rx="5" ry="5" style="stroke:#A80036;stroke-width:1.5;" width="97" x="10" y="377"/><rect fill="#FEFECE" height="81.9531" rx="5" ry="5" style="stroke:#FEFECE;stroke-width:1.5;" width="547" x="144" y="321.5"/><text fill="#000000" font-family="sans-serif" font-size="14" lengthAdjust="spacing" textLength="26" x="149" y="337.0352">title</text><text fill="#000000" font-family="sans-serif" font-size="14" lengthAdjust="spacing" textLength="255" x="224" y="337.0352">OMA LwM2M Buzzer (Object ID 3338)</text><line style="stroke:#A80036;stroke-width:1.0;" x1="219" x2="219" y1="321.5" y2="341.9883"/><line style="stroke:#A80036;stroke-width:1.0;" x1="144" x2="691" y1="341.9883" y2="341.9883"/><text fill="#000000" font-family="sans-serif" font-size="14" lengthAdjust="spacing" textLength="50" x="149" y="357.5234">version</text><text fill="#000000" font-family="sans-serif" font-size="14" lengthAdjust="spacing" textLength="88" x="224" y="357.5234">2021-02-11</text><line style="stroke:#A80036;stroke-width:1.0;" x1="219" x2="219" y1="341.9883" y2="362.4766"/><line style="stroke:#A80036;stroke-width:1.0;" x1="144" x2="691" y1="362.4766" y2="362.4766"/><text fill="#000000" font-family="sans-serif" font-size="14" lengthAdjust="spacing" textLength="65" x="149" y="378.0117">copyright</text><text fill="#000000" font-family="sans-serif" font-size="14" lengthAdjust="spacing" textLength="208" x="224" y="378.0117">Copyright (c) 2018-2020 IPSO</text><line style="stroke:#A80036;stroke-width:1.0;" x1="219" x2="219" y1="362.4766" y2="382.9648"/><line style="stroke:#A80036;stroke-width:1.0;" x1="144" x2="691" y1="382.9648" y2="382.9648"/><text fill="#000000" font-family="sans-serif" font-size="14" lengthAdjust="spacing" textLength="47" x="149" y="398.5">license</text><text fill="#000000" font-family="sans-serif" font-size="14" lengthAdjust="spacing" textLength="462" x="224" y="398.5">https://github.com/one-data-model/oneDM/blob/master/LICENSE</text><line style="stroke:#A80036;stroke-width:1.0;" x1="219" x2="219" y1="382.9648" y2="403.4531"/><rect fill="none" height="81.9531" rx="5" ry="5" style="stroke:#A80036;stroke-width:1.5;" width="547" x="144" y="321.5"/><rect fill="#FEFECE" height="20.4883" rx="5" ry="5" style="stroke:#FEFECE;stroke-width:1.5;" width="79" x="378" y="421.5"/><text fill="#000000" font-family="sans-serif" font-size="14" lengthAdjust="spacing" textLength="47" x="383" y="437.0352">Buzzer</text><text fill="#000000" font-family="sans-serif" font-size="14" lengthAdjust="spacing" textLength="0" x="452" y="437.0352"/><line style="stroke:#A80036;stroke-width:1.0;" x1="435" x2="435" y1="421.5" y2="441.9883"/><rect fill="none" height="20.4883" rx="5" ry="5" style="stroke:#A80036;stroke-width:1.5;" width="79" x="378" y="421.5"/><rect fill="#FEFECE" height="234.3477" rx="5" ry="5" style="stroke:#FEFECE;stroke-width:1.5;" width="591" x="728" y="314.5"/><text fill="#000000" font-family="sans-serif" font-size="14" lengthAdjust="spacing" textLength="33" x="733" y="330.0352">label</text><text fill="#000000" font-family="sans-serif" font-size="14" lengthAdjust="spacing" textLength="47" x="826" y="330.0352">Buzzer</text><line style="stroke:#A80036;stroke-width:1.0;" x1="821" x2="821" y1="314.5" y2="334.9883"/><line style="stroke:#A80036;stroke-width:1.0;" x1="728" x2="1319" y1="334.9883" y2="334.9883"/><text fill="#000000" font-family="sans-serif" font-size="14" lengthAdjust="spacing" textLength="77" x="733" y="350.5234">description</text><text fill="#000000" font-family="sans-serif" font-size="14" lengthAdjust="spacing" textLength="477" x="826" y="350.5234">This IPSO object should be used to actuate an audible alarm such as a</text><text fill="#000000" font-family="sans-serif" font-size="14" lengthAdjust="spacing" textLength="444" x="826" y="367.0117">buzzer, beeper, or vibration alarm. There is a dimmer control for</text><text fill="#000000" font-family="sans-serif" font-size="14" lengthAdjust="spacing" textLength="428" x="826" y="383.5">setting the relative level of the alarm, and an optional duration</text><text fill="#000000" font-family="sans-serif" font-size="14" lengthAdjust="spacing" textLength="467" x="826" y="399.9883">control to limit the length of time the alarm sounds when turned on.</text><text fill="#000000" font-family="sans-serif" font-size="14" lengthAdjust="spacing" textLength="435" x="826" y="416.4766">Each time "true" is written to the On/Off resource, the alarm will</text><text fill="#000000" font-family="sans-serif" font-size="14" lengthAdjust="spacing" textLength="488" x="826" y="432.9648">sound again for the configured duration. If no duration is programmed</text><text fill="#000000" font-family="sans-serif" font-size="14" lengthAdjust="spacing" textLength="423" x="826" y="449.4531">or the setting is "false", writing a "true" to the On/Off resource</text><text fill="#000000" font-family="sans-serif" font-size="14" lengthAdjust="spacing" textLength="421" x="826" y="465.9414">will result in the alarm sounding continuously until a "false" is</text><text fill="#000000" font-family="sans-serif" font-size="14" lengthAdjust="spacing" textLength="212" x="826" y="482.4297">written to the On/Off resource.</text><line style="stroke:#A80036;stroke-width:1.0;" x1="821" x2="821" y1="334.9883" y2="487.3828"/><line style="stroke:#A80036;stroke-width:1.0;" x1="728" x2="1319" y1="487.3828" y2="487.3828"/><text fill="#000000" font-family="sans-serif" font-size="14" lengthAdjust="spacing" textLength="79" x="733" y="502.918">sdfProperty</text><text fill="#000000" font-family="sans-serif" font-size="14" lengthAdjust="spacing" textLength="0" x="838" y="502.918"/><line style="stroke:#A80036;stroke-width:1.0;" x1="821" x2="821" y1="487.3828" y2="507.8711"/><line style="stroke:#A80036;stroke-width:1.0;" x1="728" x2="1319" y1="507.8711" y2="507.8711"/><text fill="#000000" font-family="sans-serif" font-size="14" lengthAdjust="spacing" textLength="65" x="733" y="523.4063">sdfAction</text><text fill="#000000" font-family="sans-serif" font-size="14" lengthAdjust="spacing" textLength="0" x="838" y="523.4063"/><line style="stroke:#A80036;stroke-width:1.0;" x1="821" x2="821" y1="507.8711" y2="528.3594"/><line style="stroke:#A80036;stroke-width:1.0;" x1="728" x2="1319" y1="528.3594" y2="528.3594"/><text fill="#000000" font-family="sans-serif" font-size="14" lengthAdjust="spacing" textLength="83" x="733" y="543.8945">sdfRequired</text><text fill="#000000" font-family="sans-serif" font-size="14" lengthAdjust="spacing" textLength="0" x="838" y="543.8945"/><line style="stroke:#A80036;stroke-width:1.0;" x1="821" x2="821" y1="528.3594" y2="548.8477"/><rect fill="none" height="234.3477" rx="5" ry="5" style="stroke:#A80036;stroke-width:1.5;" width="591" x="728" y="314.5"/><rect fill="#FEFECE" height="143.418" rx="5" ry="5" style="stroke:#FEFECE;stroke-width:1.5;" width="183" x="1448.5" y="309"/><text fill="#000000" font-family="sans-serif" font-size="14" lengthAdjust="spacing" textLength="48" x="1453.5" y="324.5352">On_Off</text><text fill="#000000" font-family="sans-serif" font-size="14" lengthAdjust="spacing" textLength="0" x="1626.5" y="324.5352"/><line style="stroke:#A80036;stroke-width:1.0;" x1="1609.5" x2="1609.5" y1="309" y2="329.4883"/><line style="stroke:#A80036;stroke-width:1.0;" x1="1448.5" x2="1631.5" y1="329.4883" y2="329.4883"/><text fill="#000000" font-family="sans-serif" font-size="14" lengthAdjust="spacing" textLength="34" x="1453.5" y="345.0234">Level</text><text fill="#000000" font-family="sans-serif" font-size="14" lengthAdjust="spacing" textLength="0" x="1626.5" y="345.0234"/><line style="stroke:#A80036;stroke-width:1.0;" x1="1609.5" x2="1609.5" y1="329.4883" y2="349.9766"/><line style="stroke:#A80036;stroke-width:1.0;" x1="1448.5" x2="1631.5" y1="349.9766" y2="349.9766"/><text fill="#000000" font-family="sans-serif" font-size="14" lengthAdjust="spacing" textLength="104" x="1453.5" y="365.5117">Delay_Duration</text><text fill="#000000" font-family="sans-serif" font-size="14" lengthAdjust="spacing" textLength="0" x="1626.5" y="365.5117"/><line style="stroke:#A80036;stroke-width:1.0;" x1="1609.5" x2="1609.5" y1="349.9766" y2="370.4648"/><line style="stroke:#A80036;stroke-width:1.0;" x1="1448.5" x2="1631.5" y1="370.4648" y2="370.4648"/><text fill="#000000" font-family="sans-serif" font-size="14" lengthAdjust="spacing" textLength="130" x="1453.5" y="386">Minimum_Off-time</text><text fill="#000000" font-family="sans-serif" font-size="14" lengthAdjust="spacing" textLength="0" x="1626.5" y="386"/><line style="stroke:#A80036;stroke-width:1.0;" x1="1609.5" x2="1609.5" y1="370.4648" y2="390.9531"/><line style="stroke:#A80036;stroke-width:1.0;" x1="1448.5" x2="1631.5" y1="390.9531" y2="390.9531"/><text fill="#000000" font-family="sans-serif" font-size="14" lengthAdjust="spacing" textLength="118" x="1453.5" y="406.4883">Application_Type</text><text fill="#000000" font-family="sans-serif" font-size="14" lengthAdjust="spacing" textLength="0" x="1626.5" y="406.4883"/><line style="stroke:#A80036;stroke-width:1.0;" x1="1609.5" x2="1609.5" y1="390.9531" y2="411.4414"/><line style="stroke:#A80036;stroke-width:1.0;" x1="1448.5" x2="1631.5" y1="411.4414" y2="411.4414"/><text fill="#000000" font-family="sans-serif" font-size="14" lengthAdjust="spacing" textLength="76" x="1453.5" y="426.9766">Timestamp</text><text fill="#000000" font-family="sans-serif" font-size="14" lengthAdjust="spacing" textLength="0" x="1626.5" y="426.9766"/><line style="stroke:#A80036;stroke-width:1.0;" x1="1609.5" x2="1609.5" y1="411.4414" y2="431.9297"/><line style="stroke:#A80036;stroke-width:1.0;" x1="1448.5" x2="1631.5" y1="431.9297" y2="431.9297"/><text fill="#000000" font-family="sans-serif" font-size="14" lengthAdjust="spacing" textLength="151" x="1453.5" y="447.4648">Fractional_Timestamp</text><text fill="#000000" font-family="sans-serif" font-size="14" lengthAdjust="spacing" textLength="0" x="1626.5" y="447.4648"/><line style="stroke:#A80036;stroke-width:1.0;" x1="1609.5" x2="1609.5" y1="431.9297" y2="452.418"/><rect fill="none" height="143.418" rx="5" ry="5" style="stroke:#A80036;stroke-width:1.5;" width="183" x="1448.5" y="309"/><rect fill="#FEFECE" height="61.4648" rx="5" ry="5" style="stroke:#FEFECE;stroke-width:1.5;" width="533" x="1776" y="10"/><text fill="#000000" font-family="sans-serif" font-size="14" lengthAdjust="spacing" textLength="33" x="1781" y="25.5352">label</text><text fill="#000000" font-family="sans-serif" font-size="14" lengthAdjust="spacing" textLength="48" x="1868" y="25.5352">On/Off</text><line style="stroke:#A80036;stroke-width:1.0;" x1="1863" x2="1863" y1="10" y2="30.4883"/><line style="stroke:#A80036;stroke-width:1.0;" x1="1776" x2="2309" y1="30.4883" y2="30.4883"/><text fill="#000000" font-family="sans-serif" font-size="14" lengthAdjust="spacing" textLength="77" x="1781" y="46.0234">description</text><text fill="#000000" font-family="sans-serif" font-size="14" lengthAdjust="spacing" textLength="436" x="1868" y="46.0234">On/off control. Boolean value where True is On and False is Off.</text><line style="stroke:#A80036;stroke-width:1.0;" x1="1863" x2="1863" y1="30.4883" y2="50.9766"/><line style="stroke:#A80036;stroke-width:1.0;" x1="1776" x2="2309" y1="50.9766" y2="50.9766"/><text fill="#000000" font-family="sans-serif" font-size="14" lengthAdjust="spacing" textLength="29" x="1781" y="66.5117">type</text><text fill="#000000" font-family="sans-serif" font-size="14" lengthAdjust="spacing" textLength="56" x="1868" y="66.5117">boolean</text><line style="stroke:#A80036;stroke-width:1.0;" x1="1863" x2="1863" y1="50.9766" y2="71.4648"/><rect fill="none" height="61.4648" rx="5" ry="5" style="stroke:#A80036;stroke-width:1.5;" width="533" x="1776" y="10"/><rect fill="#FEFECE" height="122.9297" rx="5" ry="5" style="stroke:#FEFECE;stroke-width:1.5;" width="475" x="1805" y="89"/><text fill="#000000" font-family="sans-serif" font-size="14" lengthAdjust="spacing" textLength="33" x="1810" y="104.5352">label</text><text fill="#000000" font-family="sans-serif" font-size="14" lengthAdjust="spacing" textLength="34" x="1897" y="104.5352">Level</text><line style="stroke:#A80036;stroke-width:1.0;" x1="1892" x2="1892" y1="89" y2="109.4883"/><line style="stroke:#A80036;stroke-width:1.0;" x1="1805" x2="2280" y1="109.4883" y2="109.4883"/><text fill="#000000" font-family="sans-serif" font-size="14" lengthAdjust="spacing" textLength="77" x="1810" y="125.0234">description</text><text fill="#000000" font-family="sans-serif" font-size="14" lengthAdjust="spacing" textLength="378" x="1897" y="125.0234">Used to represent a level control such as audio volume.</text><line style="stroke:#A80036;stroke-width:1.0;" x1="1892" x2="1892" y1="109.4883" y2="129.9766"/><line style="stroke:#A80036;stroke-width:1.0;" x1="1805" x2="2280" y1="129.9766" y2="129.9766"/><text fill="#000000" font-family="sans-serif" font-size="14" lengthAdjust="spacing" textLength="29" x="1810" y="145.5117">type</text><text fill="#000000" font-family="sans-serif" font-size="14" lengthAdjust="spacing" textLength="54" x="1897" y="145.5117">number</text><line style="stroke:#A80036;stroke-width:1.0;" x1="1892" x2="1892" y1="129.9766" y2="150.4648"/><line style="stroke:#A80036;stroke-width:1.0;" x1="1805" x2="2280" y1="150.4648" y2="150.4648"/><text fill="#000000" font-family="sans-serif" font-size="14" lengthAdjust="spacing" textLength="27" x="1810" y="166">unit</text><text fill="#000000" font-family="sans-serif" font-size="14" lengthAdjust="spacing" textLength="34" x="1897" y="166">/100</text><line style="stroke:#A80036;stroke-width:1.0;" x1="1892" x2="1892" y1="150.4648" y2="170.9531"/><line style="stroke:#A80036;stroke-width:1.0;" x1="1805" x2="2280" y1="170.9531" y2="170.9531"/><text fill="#000000" font-family="sans-serif" font-size="14" lengthAdjust="spacing" textLength="65" x="1810" y="186.4883">minimum</text><text fill="#000000" font-family="sans-serif" font-size="14" lengthAdjust="spacing" textLength="9" x="1897" y="186.4883">0</text><line style="stroke:#A80036;stroke-width:1.0;" x1="1892" x2="1892" y1="170.9531" y2="191.4414"/><line style="stroke:#A80036;stroke-width:1.0;" x1="1805" x2="2280" y1="191.4414" y2="191.4414"/><text fill="#000000" font-family="sans-serif" font-size="14" lengthAdjust="spacing" textLength="69" x="1810" y="206.9766">maximum</text><text fill="#000000" font-family="sans-serif" font-size="14" lengthAdjust="spacing" textLength="27" x="1897" y="206.9766">100</text><line style="stroke:#A80036;stroke-width:1.0;" x1="1892" x2="1892" y1="191.4414" y2="211.9297"/><rect fill="none" height="122.9297" rx="5" ry="5" style="stroke:#A80036;stroke-width:1.5;" width="475" x="1805" y="89"/><rect fill="#FEFECE" height="81.9531" rx="5" ry="5" style="stroke:#FEFECE;stroke-width:1.5;" width="308" x="1888.5" y="230.5"/><text fill="#000000" font-family="sans-serif" font-size="14" lengthAdjust="spacing" textLength="33" x="1893.5" y="246.0352">label</text><text fill="#000000" font-family="sans-serif" font-size="14" lengthAdjust="spacing" textLength="101" x="1980.5" y="246.0352">Delay Duration</text><line style="stroke:#A80036;stroke-width:1.0;" x1="1975.5" x2="1975.5" y1="230.5" y2="250.9883"/><line style="stroke:#A80036;stroke-width:1.0;" x1="1888.5" x2="2196.5" y1="250.9883" y2="250.9883"/><text fill="#000000" font-family="sans-serif" font-size="14" lengthAdjust="spacing" textLength="77" x="1893.5" y="266.5234">description</text><text fill="#000000" font-family="sans-serif" font-size="14" lengthAdjust="spacing" textLength="211" x="1980.5" y="266.5234">The duration of the time delay.</text><line style="stroke:#A80036;stroke-width:1.0;" x1="1975.5" x2="1975.5" y1="250.9883" y2="271.4766"/><line style="stroke:#A80036;stroke-width:1.0;" x1="1888.5" x2="2196.5" y1="271.4766" y2="271.4766"/><text fill="#000000" font-family="sans-serif" font-size="14" lengthAdjust="spacing" textLength="29" x="1893.5" y="287.0117">type</text><text fill="#000000" font-family="sans-serif" font-size="14" lengthAdjust="spacing" textLength="54" x="1980.5" y="287.0117">number</text><line style="stroke:#A80036;stroke-width:1.0;" x1="1975.5" x2="1975.5" y1="271.4766" y2="291.9648"/><line style="stroke:#A80036;stroke-width:1.0;" x1="1888.5" x2="2196.5" y1="291.9648" y2="291.9648"/><text fill="#000000" font-family="sans-serif" font-size="14" lengthAdjust="spacing" textLength="27" x="1893.5" y="307.5">unit</text><text fill="#000000" font-family="sans-serif" font-size="14" lengthAdjust="spacing" textLength="7" x="1980.5" y="307.5">s</text><line style="stroke:#A80036;stroke-width:1.0;" x1="1975.5" x2="1975.5" y1="291.9648" y2="312.4531"/><rect fill="none" height="81.9531" rx="5" ry="5" style="stroke:#A80036;stroke-width:1.5;" width="308" x="1888.5" y="230.5"/><rect fill="#FEFECE" height="98.4414" rx="5" ry="5" style="stroke:#FEFECE;stroke-width:1.5;" width="551" x="1767" y="330.5"/><text fill="#000000" font-family="sans-serif" font-size="14" lengthAdjust="spacing" textLength="33" x="1772" y="346.0352">label</text><text fill="#000000" font-family="sans-serif" font-size="14" lengthAdjust="spacing" textLength="127" x="1859" y="346.0352">Minimum Off-time</text><line style="stroke:#A80036;stroke-width:1.0;" x1="1854" x2="1854" y1="330.5" y2="350.9883"/><line style="stroke:#A80036;stroke-width:1.0;" x1="1767" x2="2318" y1="350.9883" y2="350.9883"/><text fill="#000000" font-family="sans-serif" font-size="14" lengthAdjust="spacing" textLength="77" x="1772" y="366.5234">description</text><text fill="#000000" font-family="sans-serif" font-size="14" lengthAdjust="spacing" textLength="454" x="1859" y="366.5234">The duration of the rearm delay (i.e. the delay from the end of one</text><text fill="#000000" font-family="sans-serif" font-size="14" lengthAdjust="spacing" textLength="368" x="1859" y="383.0117">cycle until the beginning of the next, the inhibit time).</text><line style="stroke:#A80036;stroke-width:1.0;" x1="1854" x2="1854" y1="350.9883" y2="387.9648"/><line style="stroke:#A80036;stroke-width:1.0;" x1="1767" x2="2318" y1="387.9648" y2="387.9648"/><text fill="#000000" font-family="sans-serif" font-size="14" lengthAdjust="spacing" textLength="29" x="1772" y="403.5">type</text><text fill="#000000" font-family="sans-serif" font-size="14" lengthAdjust="spacing" textLength="54" x="1859" y="403.5">number</text><line style="stroke:#A80036;stroke-width:1.0;" x1="1854" x2="1854" y1="387.9648" y2="408.4531"/><line style="stroke:#A80036;stroke-width:1.0;" x1="1767" x2="2318" y1="408.4531" y2="408.4531"/><text fill="#000000" font-family="sans-serif" font-size="14" lengthAdjust="spacing" textLength="27" x="1772" y="423.9883">unit</text><text fill="#000000" font-family="sans-serif" font-size="14" lengthAdjust="spacing" textLength="7" x="1859" y="423.9883">s</text><line style="stroke:#A80036;stroke-width:1.0;" x1="1854" x2="1854" y1="408.4531" y2="428.9414"/><rect fill="none" height="98.4414" rx="5" ry="5" style="stroke:#A80036;stroke-width:1.5;" width="551" x="1767" y="330.5"/><rect fill="#FEFECE" height="77.9531" rx="5" ry="5" style="stroke:#FEFECE;stroke-width:1.5;" width="563" x="1761" y="446.5"/><text fill="#000000" font-family="sans-serif" font-size="14" lengthAdjust="spacing" textLength="33" x="1766" y="462.0352">label</text><text fill="#000000" font-family="sans-serif" font-size="14" lengthAdjust="spacing" textLength="115" x="1853" y="462.0352">Application Type</text><line style="stroke:#A80036;stroke-width:1.0;" x1="1848" x2="1848" y1="446.5" y2="466.9883"/><line style="stroke:#A80036;stroke-width:1.0;" x1="1761" x2="2324" y1="466.9883" y2="466.9883"/><text fill="#000000" font-family="sans-serif" font-size="14" lengthAdjust="spacing" textLength="77" x="1766" y="482.5234">description</text><text fill="#000000" font-family="sans-serif" font-size="14" lengthAdjust="spacing" textLength="466" x="1853" y="482.5234">The application type of the sensor or actuator as a string depending</text><text fill="#000000" font-family="sans-serif" font-size="14" lengthAdjust="spacing" textLength="110" x="1853" y="499.0117">on the use case.</text><line style="stroke:#A80036;stroke-width:1.0;" x1="1848" x2="1848" y1="466.9883" y2="503.9648"/><line style="stroke:#A80036;stroke-width:1.0;" x1="1761" x2="2324" y1="503.9648" y2="503.9648"/><text fill="#000000" font-family="sans-serif" font-size="14" lengthAdjust="spacing" textLength="29" x="1766" y="519.5">type</text><text fill="#000000" font-family="sans-serif" font-size="14" lengthAdjust="spacing" textLength="40" x="1853" y="519.5">string</text><line style="stroke:#A80036;stroke-width:1.0;" x1="1848" x2="1848" y1="503.9648" y2="524.4531"/><rect fill="none" height="77.9531" rx="5" ry="5" style="stroke:#A80036;stroke-width:1.5;" width="563" x="1761" y="446.5"/><rect fill="#FEFECE" height="102.4414" rx="5" ry="5" style="stroke:#FEFECE;stroke-width:1.5;" width="493" x="1796" y="542.5"/><text fill="#000000" font-family="sans-serif" font-size="14" lengthAdjust="spacing" textLength="33" x="1801" y="558.0352">label</text><text fill="#000000" font-family="sans-serif" font-size="14" lengthAdjust="spacing" textLength="76" x="1888" y="558.0352">Timestamp</text><line style="stroke:#A80036;stroke-width:1.0;" x1="1883" x2="1883" y1="542.5" y2="562.9883"/><line style="stroke:#A80036;stroke-width:1.0;" x1="1796" x2="2289" y1="562.9883" y2="562.9883"/><text fill="#000000" font-family="sans-serif" font-size="14" lengthAdjust="spacing" textLength="77" x="1801" y="578.5234">description</text><text fill="#000000" font-family="sans-serif" font-size="14" lengthAdjust="spacing" textLength="396" x="1888" y="578.5234">The timestamp of when the measurement was performed.</text><line style="stroke:#A80036;stroke-width:1.0;" x1="1883" x2="1883" y1="562.9883" y2="583.4766"/><line style="stroke:#A80036;stroke-width:1.0;" x1="1796" x2="2289" y1="583.4766" y2="583.4766"/><text fill="#000000" font-family="sans-serif" font-size="14" lengthAdjust="spacing" textLength="55" x="1801" y="599.0117">writable</text><text fill="#000000" font-family="sans-serif" font-size="14" lengthAdjust="spacing" textLength="48" x="1888" y="599.0117">☐ false</text><line style="stroke:#A80036;stroke-width:1.0;" x1="1883" x2="1883" y1="583.4766" y2="603.9648"/><line style="stroke:#A80036;stroke-width:1.0;" x1="1796" x2="2289" y1="603.9648" y2="603.9648"/><text fill="#000000" font-family="sans-serif" font-size="14" lengthAdjust="spacing" textLength="29" x="1801" y="619.5">type</text><text fill="#000000" font-family="sans-serif" font-size="14" lengthAdjust="spacing" textLength="54" x="1888" y="619.5">number</text><line style="stroke:#A80036;stroke-width:1.0;" x1="1883" x2="1883" y1="603.9648" y2="624.4531"/><line style="stroke:#A80036;stroke-width:1.0;" x1="1796" x2="2289" y1="624.4531" y2="624.4531"/><text fill="#000000" font-family="sans-serif" font-size="14" lengthAdjust="spacing" textLength="54" x="1801" y="639.9883">sdfType</text><text fill="#000000" font-family="sans-serif" font-size="14" lengthAdjust="spacing" textLength="69" x="1888" y="639.9883">unix-time</text><line style="stroke:#A80036;stroke-width:1.0;" x1="1883" x2="1883" y1="624.4531" y2="644.9414"/><rect fill="none" height="102.4414" rx="5" ry="5" style="stroke:#A80036;stroke-width:1.5;" width="493" x="1796" y="542.5"/><rect fill="#FEFECE" height="159.9063" rx="5" ry="5" style="stroke:#FEFECE;stroke-width:1.5;" width="563" x="1761" y="662.5"/><text fill="#000000" font-family="sans-serif" font-size="14" lengthAdjust="spacing" textLength="33" x="1766" y="678.0352">label</text><text fill="#000000" font-family="sans-serif" font-size="14" lengthAdjust="spacing" textLength="148" x="1853" y="678.0352">Fractional Timestamp</text><line style="stroke:#A80036;stroke-width:1.0;" x1="1848" x2="1848" y1="662.5" y2="682.9883"/><line style="stroke:#A80036;stroke-width:1.0;" x1="1761" x2="2324" y1="682.9883" y2="682.9883"/><text fill="#000000" font-family="sans-serif" font-size="14" lengthAdjust="spacing" textLength="77" x="1766" y="698.5234">description</text><text fill="#000000" font-family="sans-serif" font-size="14" lengthAdjust="spacing" textLength="466" x="1853" y="698.5234">Fractional part of the timestamp when sub-second precision is used</text><text fill="#000000" font-family="sans-serif" font-size="14" lengthAdjust="spacing" textLength="157" x="1853" y="715.0117">(e.g., 0.23 for 230 ms).</text><line style="stroke:#A80036;stroke-width:1.0;" x1="1848" x2="1848" y1="682.9883" y2="719.9648"/><line style="stroke:#A80036;stroke-width:1.0;" x1="1761" x2="2324" y1="719.9648" y2="719.9648"/><text fill="#000000" font-family="sans-serif" font-size="14" lengthAdjust="spacing" textLength="55" x="1766" y="735.5">writable</text><text fill="#000000" font-family="sans-serif" font-size="14" lengthAdjust="spacing" textLength="48" x="1853" y="735.5">☐ false</text><line style="stroke:#A80036;stroke-width:1.0;" x1="1848" x2="1848" y1="719.9648" y2="740.4531"/><line style="stroke:#A80036;stroke-width:1.0;" x1="1761" x2="2324" y1="740.4531" y2="740.4531"/><text fill="#000000" font-family="sans-serif" font-size="14" lengthAdjust="spacing" textLength="29" x="1766" y="755.9883">type</text><text fill="#000000" font-family="sans-serif" font-size="14" lengthAdjust="spacing" textLength="54" x="1853" y="755.9883">number</text><line style="stroke:#A80036;stroke-width:1.0;" x1="1848" x2="1848" y1="740.4531" y2="760.9414"/><line style="stroke:#A80036;stroke-width:1.0;" x1="1761" x2="2324" y1="760.9414" y2="760.9414"/><text fill="#000000" font-family="sans-serif" font-size="14" lengthAdjust="spacing" textLength="27" x="1766" y="776.4766">unit</text><text fill="#000000" font-family="sans-serif" font-size="14" lengthAdjust="spacing" textLength="7" x="1853" y="776.4766">s</text><line style="stroke:#A80036;stroke-width:1.0;" x1="1848" x2="1848" y1="760.9414" y2="781.4297"/><line style="stroke:#A80036;stroke-width:1.0;" x1="1761" x2="2324" y1="781.4297" y2="781.4297"/><text fill="#000000" font-family="sans-serif" font-size="14" lengthAdjust="spacing" textLength="65" x="1766" y="796.9648">minimum</text><text fill="#000000" font-family="sans-serif" font-size="14" lengthAdjust="spacing" textLength="9" x="1853" y="796.9648">0</text><line style="stroke:#A80036;stroke-width:1.0;" x1="1848" x2="1848" y1="781.4297" y2="801.918"/><line style="stroke:#A80036;stroke-width:1.0;" x1="1761" x2="2324" y1="801.918" y2="801.918"/><text fill="#000000" font-family="sans-serif" font-size="14" lengthAdjust="spacing" textLength="69" x="1766" y="817.4531">maximum</text><text fill="#000000" font-family="sans-serif" font-size="14" lengthAdjust="spacing" textLength="9" x="1853" y="817.4531">1</text><line style="stroke:#A80036;stroke-width:1.0;" x1="1848" x2="1848" y1="801.918" y2="822.4063"/><rect fill="none" height="159.9063" rx="5" ry="5" style="stroke:#A80036;stroke-width:1.5;" width="563" x="1761" y="662.5"/><rect fill="#FEFECE" height="15" rx="5" ry="5" style="stroke:#FEFECE;stroke-width:1.5;" width="30" x="1528" y="470.5"/><rect fill="none" height="15" rx="5" ry="5" style="stroke:#A80036;stroke-width:1.5;" width="30" x="1528" y="470.5"/><rect fill="#FEFECE" height="40.9766" rx="5" ry="5" style="stroke:#FEFECE;stroke-width:1.5;" width="368" x="1356" y="505"/><text fill="#000000" font-family="sans-serif" font-size="14" lengthAdjust="spacing" textLength="276" x="1361" y="520.5352">#/sdfObject/Buzzer/sdfProperty/On_Off</text><line style="stroke:#A80036;stroke-width:1.0;" x1="1356" x2="1724" y1="525.4883" y2="525.4883"/><text fill="#000000" font-family="sans-serif" font-size="14" lengthAdjust="spacing" textLength="358" x="1361" y="541.0234">#/sdfObject/Buzzer/sdfProperty/Minimum_Off-time</text><rect fill="none" height="40.9766" rx="5" ry="5" style="stroke:#A80036;stroke-width:1.5;" width="368" x="1356" y="505"/><path d="M95,386.5 L108,386.5 C117.3406,386.5 126.8353,386.3896 136.4202,386.1839 " fill="none" style="stroke:#A80036;stroke-width:1.0;stroke-dasharray:3.0,3.0;"/><path d="M136.4943,389.2659 L138.7318,386.1283 L136.3462,383.1019 L144.1253,385.9987 L136.4943,389.2659 " fill="#A80036" style="stroke:#A80036;stroke-width:1.0;"/><ellipse cx="95" cy="386.5" fill="#A80036" rx="3" ry="3" style="stroke:#A80036;stroke-width:1.0;stroke-dasharray:3.0,3.0;"/><path d="M1620.5,318.5 L1633.5,318.5 C1753.8922,318.5 1662.2739,148.4016 1761,79.5 C1763.783,77.5577 1766.6198,75.6917 1769.5055,73.8993 " fill="none" style="stroke:#A80036;stroke-width:1.0;stroke-dasharray:3.0,3.0;"/><path d="M1771.1255,76.6271 L1771.5514,72.6843 L1767.8855,71.1715 L1776.3251,69.8494 L1771.1255,76.6271 " fill="#A80036" style="stroke:#A80036;stroke-width:1.0;"/><ellipse cx="1620.5" cy="318.5" fill="#A80036" rx="3" ry="3" style="stroke:#A80036;stroke-width:1.0;stroke-dasharray:3.0,3.0;"/><path d="M1620.5,338.5 L1633.5,338.5 C1710.4098,338.5 1693.3212,258.0335 1761,221.5 C1772.8618,215.0969 1785.3182,209.2564 1798.1147,203.9309 " fill="none" style="stroke:#A80036;stroke-width:1.0;stroke-dasharray:3.0,3.0;"/><path d="M1799.2771,206.788 L1800.2575,203.0591 L1796.9524,201.0739 L1805.2573,201.025 L1799.2771,206.788 " fill="#A80036" style="stroke:#A80036;stroke-width:1.0;"/><ellipse cx="1620.5" cy="338.5" fill="#A80036" rx="3" ry="3" style="stroke:#A80036;stroke-width:1.0;stroke-dasharray:3.0,3.0;"/><path d="M1620.5,359.5 L1633.5,359.5 C1692.6299,359.5 1703.4662,335.1458 1761,321.5 C1799.6461,312.334 1841.6399,304.006 1881.0963,296.8899 " fill="none" style="stroke:#A80036;stroke-width:1.0;stroke-dasharray:3.0,3.0;"/><path d="M1881.659,300.0322 L1883.453,296.4678 L1880.5335,293.7476 L1888.9519,295.483 L1881.659,300.0322 " fill="#A80036" style="stroke:#A80036;stroke-width:1.0;"/><ellipse cx="1620.5" cy="359.5" fill="#A80036" rx="3" ry="3" style="stroke:#A80036;stroke-width:1.0;stroke-dasharray:3.0,3.0;"/><path d="M1620.5,379.5 L1633.5,379.5 C1674.3109,379.5 1717.4153,379.5 1759.7199,379.5 " fill="none" style="stroke:#A80036;stroke-width:1.0;stroke-dasharray:3.0,3.0;"/><path d="M1759.7199,382.5443 L1762.0032,379.5 L1759.7199,376.4557 L1767.3307,379.5 L1759.7199,382.5443 " fill="#A80036" style="stroke:#A80036;stroke-width:1.0;"/><ellipse cx="1620.5" cy="379.5" fill="#A80036" rx="3" ry="3" style="stroke:#A80036;stroke-width:1.0;stroke-dasharray:3.0,3.0;"/><path d="M1620.5,400.5 L1633.5,400.5 C1692.5045,400.5 1703.4935,424.289 1761,437.5 C1772.079,440.0452 1783.4319,442.52 1794.9205,444.9167 " fill="none" style="stroke:#A80036;stroke-width:1.0;stroke-dasharray:3.0,3.0;"/><path d="M1794.2951,447.9438 L1797.1908,445.3858 L1795.5459,441.8896 L1802.4882,446.4803 L1794.2951,447.9438 " fill="#A80036" style="stroke:#A80036;stroke-width:1.0;"/><ellipse cx="1620.5" cy="400.5" fill="#A80036" rx="3" ry="3" style="stroke:#A80036;stroke-width:1.0;stroke-dasharray:3.0,3.0;"/><path d="M1620.5,421.5 L1633.5,421.5 C1677.8827,421.5 1692.8187,430.9355 1725,461.5 C1750.9415,486.1382 1732.7091,511.5996 1761,533.5 C1769.9794,540.4511 1779.5838,546.6404 1789.6309,552.1485 " fill="none" style="stroke:#A80036;stroke-width:1.0;stroke-dasharray:3.0,3.0;"/><path d="M1788.222,554.8142 L1791.6302,553.2052 L1791.0399,549.4828 L1796.2951,555.6708 L1788.222,554.8142 " fill="#A80036" style="stroke:#A80036;stroke-width:1.0;"/><ellipse cx="1620.5" cy="421.5" fill="#A80036" rx="3" ry="3" style="stroke:#A80036;stroke-width:1.0;stroke-dasharray:3.0,3.0;"/><path d="M1620.5,441.5 L1633.5,441.5 C1675.1268,441.5 1696.0079,431.6294 1725,461.5 C1785.4683,523.8006 1703.4454,588.4981 1761,653.5 C1762.0177,654.6494 1763.0501,655.7841 1764.0968,656.9042 " fill="none" style="stroke:#A80036;stroke-width:1.0;stroke-dasharray:3.0,3.0;"/><path d="M1761.9046,659.0442 L1765.7018,658.5484 L1766.289,654.7642 L1769.4468,662.3847 L1761.9046,659.0442 " fill="#A80036" style="stroke:#A80036;stroke-width:1.0;"/><ellipse cx="1620.5" cy="441.5" fill="#A80036" rx="3" ry="3" style="stroke:#A80036;stroke-width:1.0;stroke-dasharray:3.0,3.0;"/><path d="M1307,430.5 L1320,430.5 C1360.3968,430.5 1403.9545,422.3494 1441.5356,412.6298 " fill="none" style="stroke:#A80036;stroke-width:1.0;stroke-dasharray:3.0,3.0;"/><path d="M1442.3207,415.6033 L1443.7657,412.0409 L1440.7504,409.6562 L1448.9694,410.6669 L1442.3207,415.6033 " fill="#A80036" style="stroke:#A80036;stroke-width:1.0;"/><ellipse cx="1307" cy="430.5" fill="#A80036" rx="3" ry="3" style="stroke:#A80036;stroke-width:1.0;stroke-dasharray:3.0,3.0;"/><path d="M1307,478.5 L1320,478.5 C1394.0449,478.5 1482.1399,478.5 1520.3007,478.5 " fill="none" style="stroke:#A80036;stroke-width:1.0;stroke-dasharray:3.0,3.0;"/><path d="M1520.3007,481.6095 L1522.6329,478.5 L1520.3007,475.3905 L1528.0745,478.5 L1520.3007,481.6095 " fill="#A80036" style="stroke:#A80036;stroke-width:1.0;"/><ellipse cx="1307" cy="478.5" fill="#A80036" rx="3" ry="3" style="stroke:#A80036;stroke-width:1.0;stroke-dasharray:3.0,3.0;"/><path d="M1307,525.5 L1320,525.5 C1329.3215,525.5 1338.8656,525.5 1348.5048,525.5 " fill="none" style="stroke:#A80036;stroke-width:1.0;stroke-dasharray:3.0,3.0;"/><path d="M1348.5048,528.5993 L1350.8293,525.5 L1348.5048,522.4007 L1356.2532,525.5 L1348.5048,528.5993 " fill="#A80036" style="stroke:#A80036;stroke-width:1.0;"/><ellipse cx="1307" cy="525.5" fill="#A80036" rx="3" ry="3" style="stroke:#A80036;stroke-width:1.0;stroke-dasharray:3.0,3.0;"/><path d="M446,431.5 L459,431.5 C543.9492,431.5 636.0955,431.5 720.8046,431.5 " fill="none" style="stroke:#A80036;stroke-width:1.0;stroke-dasharray:3.0,3.0;"/><path d="M720.8046,434.5596 L723.0993,431.5 L720.8046,428.4404 L728.4537,431.5 L720.8046,434.5596 " fill="#A80036" style="stroke:#A80036;stroke-width:1.0;"/><ellipse cx="446" cy="431.5" fill="#A80036" rx="3" ry="3" style="stroke:#A80036;stroke-width:1.0;stroke-dasharray:3.0,3.0;"/><path d="M95,407.5 L108,407.5 C124.1536,407.5 127.9333,410.8271 144,412.5 C223.4955,420.777 316.4011,426.3805 370.764,429.25 " fill="none" style="stroke:#A80036;stroke-width:1.0;stroke-dasharray:3.0,3.0;"/><path d="M370.6026,432.3439 L373.0845,429.371 L370.9254,426.156 L378.4989,429.6535 L370.6026,432.3439 " fill="#A80036" style="stroke:#A80036;stroke-width:1.0;"/><ellipse cx="95" cy="407.5" fill="#A80036" rx="3" ry="3" style="stroke:#A80036;stroke-width:1.0;stroke-dasharray:3.0,3.0;"/><!--MD5=[19627e1f0753146dacd43c98e8c5ed26]
@startjson
{
  "info": {
    "title": "OMA LwM2M Buzzer (Object ID 3338)",
    "version": "2021-02-11",
    "copyright": "Copyright (c) 2018-2020 IPSO",
    "license": "https://github.com/one-data-model/oneDM/blob/master/LICENSE"
  },
  "sdfObject": {
    "Buzzer": {
      "label": "Buzzer",
      "description": "This IPSO object should be used to actuate an audible alarm such as a\\nbuzzer, beeper, or vibration alarm. There is a dimmer control for\\nsetting the relative level of the alarm, and an optional duration\\ncontrol to limit the length of time the alarm sounds when turned on.\\nEach time \"true\" is written to the On/Off resource, the alarm will\\nsound again for the configured duration. If no duration is programmed\\nor the setting is \"false\", writing a \"true\" to the On/Off resource\\nwill result in the alarm sounding continuously until a \"false\" is\\nwritten to the On/Off resource.",
      "sdfProperty": {
        "On_Off": {
          "label": "On/Off",
          "description": "On/off control. Boolean value where True is On and False is Off.",
          "type": "boolean"
        },
        "Level": {
          "label": "Level",
          "description": "Used to represent a level control such as audio volume.",
          "type": "number",
          "unit": "/100",
          "minimum": 0,
          "maximum": 100
        },
        "Delay_Duration": {
          "label": "Delay Duration",
          "description": "The duration of the time delay.",
          "type": "number",
          "unit": "s"
        },
        "Minimum_Off-time": {
          "label": "Minimum Off-time",
          "description": "The duration of the rearm delay (i.e. the delay from the end of one\\ncycle until the beginning of the next, the inhibit time).",
          "type": "number",
          "unit": "s"
        },
        "Application_Type": {
          "label": "Application Type",
          "description": "The application type of the sensor or actuator as a string depending\\non the use case.",
          "type": "string"
        },
        "Timestamp": {
          "label": "Timestamp",
          "description": "The timestamp of when the measurement was performed.",
          "writable": false,
          "type": "number",
          "sdfType": "unix-time"
        },
        "Fractional_Timestamp": {
          "label": "Fractional Timestamp",
          "description": "Fractional part of the timestamp when sub-second precision is used\\n(e.g., 0.23 for 230 ms).",
          "writable": false,
          "type": "number",
          "unit": "s",
          "minimum": 0,
          "maximum": 1
        }
      },
      "sdfAction": {},
      "sdfRequired": [
        "#/sdfObject/Buzzer/sdfProperty/On_Off",
        "#/sdfObject/Buzzer/sdfProperty/Minimum_Off-time"
      ]
    }
  }
}
@endjson

PlantUML version 1.2021.2(Sun Mar 07 13:10:27 EET 2021)
(GPL source distribution)
Java Runtime: OpenJDK Runtime Environment
JVM: OpenJDK 64-Bit Server VM
Default Encoding: UTF-8
Language: en
Country: FI
--></g></svg>