<?xml version="1.0" encoding="UTF-8" standalone="no"?><svg xmlns="http://www.w3.org/2000/svg" xmlns:xlink="http://www.w3.org/1999/xlink" contentScriptType="application/ecmascript" contentStyleType="text/css" height="1105px" preserveAspectRatio="none" style="width:2429px;height:1105px;" version="1.1" viewBox="0 0 2429 1105" width="2429px" zoomAndPan="magnify"><defs/><g><rect fill="#FEFECE" height="40.9766" rx="5" ry="5" style="stroke:#FEFECE;stroke-width:1.5;" width="97" x="10" y="557"/><text fill="#000000" font-family="sans-serif" font-size="14" lengthAdjust="spacing" textLength="27" x="15" y="572.5352">info</text><text fill="#000000" font-family="sans-serif" font-size="14" lengthAdjust="spacing" textLength="0" x="102" y="572.5352"/><line style="stroke:#A80036;stroke-width:1.0;" x1="85" x2="85" y1="557" y2="577.4883"/><line style="stroke:#A80036;stroke-width:1.0;" x1="10" x2="107" y1="577.4883" y2="577.4883"/><text fill="#000000" font-family="sans-serif" font-size="14" lengthAdjust="spacing" textLength="65" x="15" y="593.0234">sdfObject</text><text fill="#000000" font-family="sans-serif" font-size="14" lengthAdjust="spacing" textLength="0" x="102" y="593.0234"/><line style="stroke:#A80036;stroke-width:1.0;" x1="85" x2="85" y1="577.4883" y2="597.9766"/><rect fill="none" height="40.9766" rx="5" ry="5" style="stroke:#A80036;stroke-width:1.5;" width="97" x="10" y="557"/><rect fill="#FEFECE" height="81.9531" rx="5" ry="5" style="stroke:#FEFECE;stroke-width:1.5;" width="614" x="144" y="501.5"/><text fill="#000000" font-family="sans-serif" font-size="14" lengthAdjust="spacing" textLength="65" x="149" y="517.0352">copyright</text><text fill="#000000" font-family="sans-serif" font-size="14" lengthAdjust="spacing" textLength="529" x="224" y="517.0352">Copyright 2018-2019 Open Connectivity Foundation, Inc. All rights reserved.</text><line style="stroke:#A80036;stroke-width:1.0;" x1="219" x2="219" y1="501.5" y2="521.9883"/><line style="stroke:#A80036;stroke-width:1.0;" x1="144" x2="758" y1="521.9883" y2="521.9883"/><text fill="#000000" font-family="sans-serif" font-size="14" lengthAdjust="spacing" textLength="47" x="149" y="537.5234">license</text><text fill="#000000" font-family="sans-serif" font-size="14" lengthAdjust="spacing" textLength="462" x="224" y="537.5234">https://github.com/one-data-model/oneDM/blob/master/LICENSE</text><line style="stroke:#A80036;stroke-width:1.0;" x1="219" x2="219" y1="521.9883" y2="542.4766"/><line style="stroke:#A80036;stroke-width:1.0;" x1="144" x2="758" y1="542.4766" y2="542.4766"/><text fill="#000000" font-family="sans-serif" font-size="14" lengthAdjust="spacing" textLength="26" x="149" y="558.0117">title</text><text fill="#000000" font-family="sans-serif" font-size="14" lengthAdjust="spacing" textLength="169" x="224" y="558.0117">SpO2 for Pulse Oximeter</text><line style="stroke:#A80036;stroke-width:1.0;" x1="219" x2="219" y1="542.4766" y2="562.9648"/><line style="stroke:#A80036;stroke-width:1.0;" x1="144" x2="758" y1="562.9648" y2="562.9648"/><text fill="#000000" font-family="sans-serif" font-size="14" lengthAdjust="spacing" textLength="50" x="149" y="578.5">version</text><text fill="#000000" font-family="sans-serif" font-size="14" lengthAdjust="spacing" textLength="88" x="224" y="578.5">2019-03-04</text><line style="stroke:#A80036;stroke-width:1.0;" x1="219" x2="219" y1="562.9648" y2="583.4531"/><rect fill="none" height="81.9531" rx="5" ry="5" style="stroke:#A80036;stroke-width:1.5;" width="614" x="144" y="501.5"/><rect fill="#FEFECE" height="20.4883" rx="5" ry="5" style="stroke:#FEFECE;stroke-width:1.5;" width="66" x="418" y="601.5"/><text fill="#000000" font-family="sans-serif" font-size="14" lengthAdjust="spacing" textLength="34" x="423" y="617.0352">spo2</text><text fill="#000000" font-family="sans-serif" font-size="14" lengthAdjust="spacing" textLength="0" x="479" y="617.0352"/><line style="stroke:#A80036;stroke-width:1.0;" x1="462" x2="462" y1="601.5" y2="621.9883"/><rect fill="none" height="20.4883" rx="5" ry="5" style="stroke:#A80036;stroke-width:1.5;" width="66" x="418" y="601.5"/><rect fill="#FEFECE" height="110.9297" rx="5" ry="5" style="stroke:#FEFECE;stroke-width:1.5;" width="579" x="795" y="556"/><text fill="#000000" font-family="sans-serif" font-size="14" lengthAdjust="spacing" textLength="77" x="800" y="571.5352">description</text><text fill="#000000" font-family="sans-serif" font-size="14" lengthAdjust="spacing" textLength="448" x="893" y="571.5352">This Resource describes the Properties associated with a person's</text><text fill="#000000" font-family="sans-serif" font-size="14" lengthAdjust="spacing" textLength="476" x="893" y="588.0234">blood oxygen saturation level. The spo2 and perfusion Properties are</text><text fill="#000000" font-family="sans-serif" font-size="14" lengthAdjust="spacing" textLength="443" x="893" y="604.5117">read-only value that is provided by the server. When range (from</text><text fill="#000000" font-family="sans-serif" font-size="14" lengthAdjust="spacing" textLength="440" x="893" y="621">"oic. r. baseresource") is omitted the default is 0 to +MAXFLOAT.</text><line style="stroke:#A80036;stroke-width:1.0;" x1="888" x2="888" y1="556" y2="625.9531"/><line style="stroke:#A80036;stroke-width:1.0;" x1="795" x2="1374" y1="625.9531" y2="625.9531"/><text fill="#000000" font-family="sans-serif" font-size="14" lengthAdjust="spacing" textLength="79" x="800" y="641.4883">sdfProperty</text><text fill="#000000" font-family="sans-serif" font-size="14" lengthAdjust="spacing" textLength="0" x="905" y="641.4883"/><line style="stroke:#A80036;stroke-width:1.0;" x1="888" x2="888" y1="625.9531" y2="646.4414"/><line style="stroke:#A80036;stroke-width:1.0;" x1="795" x2="1374" y1="646.4414" y2="646.4414"/><text fill="#000000" font-family="sans-serif" font-size="14" lengthAdjust="spacing" textLength="83" x="800" y="661.9766">sdfRequired</text><text fill="#000000" font-family="sans-serif" font-size="14" lengthAdjust="spacing" textLength="0" x="905" y="661.9766"/><line style="stroke:#A80036;stroke-width:1.0;" x1="888" x2="888" y1="646.4414" y2="666.9297"/><rect fill="none" height="110.9297" rx="5" ry="5" style="stroke:#A80036;stroke-width:1.5;" width="579" x="795" y="556"/><rect fill="#FEFECE" height="163.9063" rx="5" ry="5" style="stroke:#FEFECE;stroke-width:1.5;" width="168" x="1456.5" y="493.5"/><text fill="#000000" font-family="sans-serif" font-size="14" lengthAdjust="spacing" textLength="34" x="1461.5" y="509.0352">spo2</text><text fill="#000000" font-family="sans-serif" font-size="14" lengthAdjust="spacing" textLength="0" x="1619.5" y="509.0352"/><line style="stroke:#A80036;stroke-width:1.0;" x1="1602.5" x2="1602.5" y1="493.5" y2="513.9883"/><line style="stroke:#A80036;stroke-width:1.0;" x1="1456.5" x2="1624.5" y1="513.9883" y2="513.9883"/><text fill="#000000" font-family="sans-serif" font-size="14" lengthAdjust="spacing" textLength="66" x="1461.5" y="529.5234">perfusion</text><text fill="#000000" font-family="sans-serif" font-size="14" lengthAdjust="spacing" textLength="0" x="1619.5" y="529.5234"/><line style="stroke:#A80036;stroke-width:1.0;" x1="1602.5" x2="1602.5" y1="513.9883" y2="534.4766"/><line style="stroke:#A80036;stroke-width:1.0;" x1="1456.5" x2="1624.5" y1="534.4766" y2="534.4766"/><text fill="#000000" font-family="sans-serif" font-size="14" lengthAdjust="spacing" textLength="81" x="1461.5" y="550.0117">spo2_range</text><text fill="#000000" font-family="sans-serif" font-size="14" lengthAdjust="spacing" textLength="0" x="1619.5" y="550.0117"/><line style="stroke:#A80036;stroke-width:1.0;" x1="1602.5" x2="1602.5" y1="534.4766" y2="554.9648"/><line style="stroke:#A80036;stroke-width:1.0;" x1="1456.5" x2="1624.5" y1="554.9648" y2="554.9648"/><text fill="#000000" font-family="sans-serif" font-size="14" lengthAdjust="spacing" textLength="113" x="1461.5" y="570.5">perfusion_range</text><text fill="#000000" font-family="sans-serif" font-size="14" lengthAdjust="spacing" textLength="0" x="1619.5" y="570.5"/><line style="stroke:#A80036;stroke-width:1.0;" x1="1602.5" x2="1602.5" y1="554.9648" y2="575.4531"/><line style="stroke:#A80036;stroke-width:1.0;" x1="1456.5" x2="1624.5" y1="575.4531" y2="575.4531"/><text fill="#000000" font-family="sans-serif" font-size="14" lengthAdjust="spacing" textLength="70" x="1461.5" y="590.9883">spo2_step</text><text fill="#000000" font-family="sans-serif" font-size="14" lengthAdjust="spacing" textLength="0" x="1619.5" y="590.9883"/><line style="stroke:#A80036;stroke-width:1.0;" x1="1602.5" x2="1602.5" y1="575.4531" y2="595.9414"/><line style="stroke:#A80036;stroke-width:1.0;" x1="1456.5" x2="1624.5" y1="595.9414" y2="595.9414"/><text fill="#000000" font-family="sans-serif" font-size="14" lengthAdjust="spacing" textLength="102" x="1461.5" y="611.4766">perfusion_step</text><text fill="#000000" font-family="sans-serif" font-size="14" lengthAdjust="spacing" textLength="0" x="1619.5" y="611.4766"/><line style="stroke:#A80036;stroke-width:1.0;" x1="1602.5" x2="1602.5" y1="595.9414" y2="616.4297"/><line style="stroke:#A80036;stroke-width:1.0;" x1="1456.5" x2="1624.5" y1="616.4297" y2="616.4297"/><text fill="#000000" font-family="sans-serif" font-size="14" lengthAdjust="spacing" textLength="104" x="1461.5" y="631.9648">spo2_precision</text><text fill="#000000" font-family="sans-serif" font-size="14" lengthAdjust="spacing" textLength="0" x="1619.5" y="631.9648"/><line style="stroke:#A80036;stroke-width:1.0;" x1="1602.5" x2="1602.5" y1="616.4297" y2="636.918"/><line style="stroke:#A80036;stroke-width:1.0;" x1="1456.5" x2="1624.5" y1="636.918" y2="636.918"/><text fill="#000000" font-family="sans-serif" font-size="14" lengthAdjust="spacing" textLength="136" x="1461.5" y="652.4531">perfusion_precision</text><text fill="#000000" font-family="sans-serif" font-size="14" lengthAdjust="spacing" textLength="0" x="1619.5" y="652.4531"/><line style="stroke:#A80036;stroke-width:1.0;" x1="1602.5" x2="1602.5" y1="636.918" y2="657.4063"/><rect fill="none" height="163.9063" rx="5" ry="5" style="stroke:#A80036;stroke-width:1.5;" width="168" x="1456.5" y="493.5"/><rect fill="#FEFECE" height="118.9297" rx="5" ry="5" style="stroke:#FEFECE;stroke-width:1.5;" width="567" x="1708.5" y="10"/><text fill="#000000" font-family="sans-serif" font-size="14" lengthAdjust="spacing" textLength="77" x="1713.5" y="25.5352">description</text><text fill="#000000" font-family="sans-serif" font-size="14" lengthAdjust="spacing" textLength="470" x="1800.5" y="25.5352">This Property describes the estimation of the oxygen saturation level</text><text fill="#000000" font-family="sans-serif" font-size="14" lengthAdjust="spacing" textLength="98" x="1800.5" y="42.0234">in percentage.</text><line style="stroke:#A80036;stroke-width:1.0;" x1="1795.5" x2="1795.5" y1="10" y2="46.9766"/><line style="stroke:#A80036;stroke-width:1.0;" x1="1708.5" x2="2275.5" y1="46.9766" y2="46.9766"/><text fill="#000000" font-family="sans-serif" font-size="14" lengthAdjust="spacing" textLength="29" x="1713.5" y="62.5117">type</text><text fill="#000000" font-family="sans-serif" font-size="14" lengthAdjust="spacing" textLength="54" x="1800.5" y="62.5117">number</text><line style="stroke:#A80036;stroke-width:1.0;" x1="1795.5" x2="1795.5" y1="46.9766" y2="67.4648"/><line style="stroke:#A80036;stroke-width:1.0;" x1="1708.5" x2="2275.5" y1="67.4648" y2="67.4648"/><text fill="#000000" font-family="sans-serif" font-size="14" lengthAdjust="spacing" textLength="65" x="1713.5" y="83">minimum</text><text fill="#000000" font-family="sans-serif" font-size="14" lengthAdjust="spacing" textLength="9" x="1800.5" y="83">0</text><line style="stroke:#A80036;stroke-width:1.0;" x1="1795.5" x2="1795.5" y1="67.4648" y2="87.9531"/><line style="stroke:#A80036;stroke-width:1.0;" x1="1708.5" x2="2275.5" y1="87.9531" y2="87.9531"/><text fill="#000000" font-family="sans-serif" font-size="14" lengthAdjust="spacing" textLength="69" x="1713.5" y="103.4883">maximum</text><text fill="#000000" font-family="sans-serif" font-size="14" lengthAdjust="spacing" textLength="27" x="1800.5" y="103.4883">100</text><line style="stroke:#A80036;stroke-width:1.0;" x1="1795.5" x2="1795.5" y1="87.9531" y2="108.4414"/><line style="stroke:#A80036;stroke-width:1.0;" x1="1708.5" x2="2275.5" y1="108.4414" y2="108.4414"/><text fill="#000000" font-family="sans-serif" font-size="14" lengthAdjust="spacing" textLength="55" x="1713.5" y="123.9766">writable</text><text fill="#000000" font-family="sans-serif" font-size="14" lengthAdjust="spacing" textLength="48" x="1800.5" y="123.9766">☐ false</text><line style="stroke:#A80036;stroke-width:1.0;" x1="1795.5" x2="1795.5" y1="108.4414" y2="128.9297"/><rect fill="none" height="118.9297" rx="5" ry="5" style="stroke:#A80036;stroke-width:1.5;" width="567" x="1708.5" y="10"/><rect fill="#FEFECE" height="81.9531" rx="5" ry="5" style="stroke:#FEFECE;stroke-width:1.5;" width="471" x="1756.5" y="147.5"/><text fill="#000000" font-family="sans-serif" font-size="14" lengthAdjust="spacing" textLength="77" x="1761.5" y="163.0352">description</text><text fill="#000000" font-family="sans-serif" font-size="14" lengthAdjust="spacing" textLength="374" x="1848.5" y="163.0352">This Property describes the ratio of AC over DC of PPG.</text><line style="stroke:#A80036;stroke-width:1.0;" x1="1843.5" x2="1843.5" y1="147.5" y2="167.9883"/><line style="stroke:#A80036;stroke-width:1.0;" x1="1756.5" x2="2227.5" y1="167.9883" y2="167.9883"/><text fill="#000000" font-family="sans-serif" font-size="14" lengthAdjust="spacing" textLength="29" x="1761.5" y="183.5234">type</text><text fill="#000000" font-family="sans-serif" font-size="14" lengthAdjust="spacing" textLength="54" x="1848.5" y="183.5234">number</text><line style="stroke:#A80036;stroke-width:1.0;" x1="1843.5" x2="1843.5" y1="167.9883" y2="188.4766"/><line style="stroke:#A80036;stroke-width:1.0;" x1="1756.5" x2="2227.5" y1="188.4766" y2="188.4766"/><text fill="#000000" font-family="sans-serif" font-size="14" lengthAdjust="spacing" textLength="65" x="1761.5" y="204.0117">minimum</text><text fill="#000000" font-family="sans-serif" font-size="14" lengthAdjust="spacing" textLength="9" x="1848.5" y="204.0117">0</text><line style="stroke:#A80036;stroke-width:1.0;" x1="1843.5" x2="1843.5" y1="188.4766" y2="208.9648"/><line style="stroke:#A80036;stroke-width:1.0;" x1="1756.5" x2="2227.5" y1="208.9648" y2="208.9648"/><text fill="#000000" font-family="sans-serif" font-size="14" lengthAdjust="spacing" textLength="55" x="1761.5" y="224.5">writable</text><text fill="#000000" font-family="sans-serif" font-size="14" lengthAdjust="spacing" textLength="48" x="1848.5" y="224.5">☐ false</text><line style="stroke:#A80036;stroke-width:1.0;" x1="1843.5" x2="1843.5" y1="208.9648" y2="229.4531"/><rect fill="none" height="81.9531" rx="5" ry="5" style="stroke:#A80036;stroke-width:1.5;" width="471" x="1756.5" y="147.5"/><rect fill="#FEFECE" height="155.9063" rx="5" ry="5" style="stroke:#FEFECE;stroke-width:1.5;" width="548" x="1718" y="247.5"/><text fill="#000000" font-family="sans-serif" font-size="14" lengthAdjust="spacing" textLength="29" x="1723" y="263.0352">type</text><text fill="#000000" font-family="sans-serif" font-size="14" lengthAdjust="spacing" textLength="35" x="1810" y="263.0352">array</text><line style="stroke:#A80036;stroke-width:1.0;" x1="1805" x2="1805" y1="247.5" y2="267.9883"/><line style="stroke:#A80036;stroke-width:1.0;" x1="1718" x2="2266" y1="267.9883" y2="267.9883"/><text fill="#000000" font-family="sans-serif" font-size="14" lengthAdjust="spacing" textLength="77" x="1723" y="283.5234">description</text><text fill="#000000" font-family="sans-serif" font-size="14" lengthAdjust="spacing" textLength="451" x="1810" y="283.5234">The valid range for the Property in the Resource as a number. The</text><text fill="#000000" font-family="sans-serif" font-size="14" lengthAdjust="spacing" textLength="439" x="1810" y="300.0117">first value in the array is the minimum value, the second value in</text><text fill="#000000" font-family="sans-serif" font-size="14" lengthAdjust="spacing" textLength="219" x="1810" y="316.5">the array is the maximum value.</text><line style="stroke:#A80036;stroke-width:1.0;" x1="1805" x2="1805" y1="267.9883" y2="321.4531"/><line style="stroke:#A80036;stroke-width:1.0;" x1="1718" x2="2266" y1="321.4531" y2="321.4531"/><text fill="#000000" font-family="sans-serif" font-size="14" lengthAdjust="spacing" textLength="55" x="1723" y="336.9883">writable</text><text fill="#000000" font-family="sans-serif" font-size="14" lengthAdjust="spacing" textLength="48" x="1810" y="336.9883">☐ false</text><line style="stroke:#A80036;stroke-width:1.0;" x1="1805" x2="1805" y1="321.4531" y2="341.9414"/><line style="stroke:#A80036;stroke-width:1.0;" x1="1718" x2="2266" y1="341.9414" y2="341.9414"/><text fill="#000000" font-family="sans-serif" font-size="14" lengthAdjust="spacing" textLength="63" x="1723" y="357.4766">minItems</text><text fill="#000000" font-family="sans-serif" font-size="14" lengthAdjust="spacing" textLength="9" x="1810" y="357.4766">2</text><line style="stroke:#A80036;stroke-width:1.0;" x1="1805" x2="1805" y1="341.9414" y2="362.4297"/><line style="stroke:#A80036;stroke-width:1.0;" x1="1718" x2="2266" y1="362.4297" y2="362.4297"/><text fill="#000000" font-family="sans-serif" font-size="14" lengthAdjust="spacing" textLength="67" x="1723" y="377.9648">maxItems</text><text fill="#000000" font-family="sans-serif" font-size="14" lengthAdjust="spacing" textLength="9" x="1810" y="377.9648">2</text><line style="stroke:#A80036;stroke-width:1.0;" x1="1805" x2="1805" y1="362.4297" y2="382.918"/><line style="stroke:#A80036;stroke-width:1.0;" x1="1718" x2="2266" y1="382.918" y2="382.918"/><text fill="#000000" font-family="sans-serif" font-size="14" lengthAdjust="spacing" textLength="37" x="1723" y="398.4531">items</text><text fill="#000000" font-family="sans-serif" font-size="14" lengthAdjust="spacing" textLength="0" x="1822" y="398.4531"/><line style="stroke:#A80036;stroke-width:1.0;" x1="1805" x2="1805" y1="382.918" y2="403.4063"/><rect fill="none" height="155.9063" rx="5" ry="5" style="stroke:#A80036;stroke-width:1.5;" width="548" x="1718" y="247.5"/><rect fill="#FEFECE" height="20.4883" rx="5" ry="5" style="stroke:#FEFECE;stroke-width:1.5;" width="103" x="2314" y="380.5"/><text fill="#000000" font-family="sans-serif" font-size="14" lengthAdjust="spacing" textLength="29" x="2319" y="396.0352">type</text><text fill="#000000" font-family="sans-serif" font-size="14" lengthAdjust="spacing" textLength="54" x="2358" y="396.0352">number</text><line style="stroke:#A80036;stroke-width:1.0;" x1="2353" x2="2353" y1="380.5" y2="400.9883"/><rect fill="none" height="20.4883" rx="5" ry="5" style="stroke:#A80036;stroke-width:1.5;" width="103" x="2314" y="380.5"/><rect fill="#FEFECE" height="155.9063" rx="5" ry="5" style="stroke:#FEFECE;stroke-width:1.5;" width="548" x="1718" y="421.5"/><text fill="#000000" font-family="sans-serif" font-size="14" lengthAdjust="spacing" textLength="29" x="1723" y="437.0352">type</text><text fill="#000000" font-family="sans-serif" font-size="14" lengthAdjust="spacing" textLength="35" x="1810" y="437.0352">array</text><line style="stroke:#A80036;stroke-width:1.0;" x1="1805" x2="1805" y1="421.5" y2="441.9883"/><line style="stroke:#A80036;stroke-width:1.0;" x1="1718" x2="2266" y1="441.9883" y2="441.9883"/><text fill="#000000" font-family="sans-serif" font-size="14" lengthAdjust="spacing" textLength="77" x="1723" y="457.5234">description</text><text fill="#000000" font-family="sans-serif" font-size="14" lengthAdjust="spacing" textLength="451" x="1810" y="457.5234">The valid range for the Property in the Resource as a number. The</text><text fill="#000000" font-family="sans-serif" font-size="14" lengthAdjust="spacing" textLength="439" x="1810" y="474.0117">first value in the array is the minimum value, the second value in</text><text fill="#000000" font-family="sans-serif" font-size="14" lengthAdjust="spacing" textLength="219" x="1810" y="490.5">the array is the maximum value.</text><line style="stroke:#A80036;stroke-width:1.0;" x1="1805" x2="1805" y1="441.9883" y2="495.4531"/><line style="stroke:#A80036;stroke-width:1.0;" x1="1718" x2="2266" y1="495.4531" y2="495.4531"/><text fill="#000000" font-family="sans-serif" font-size="14" lengthAdjust="spacing" textLength="55" x="1723" y="510.9883">writable</text><text fill="#000000" font-family="sans-serif" font-size="14" lengthAdjust="spacing" textLength="48" x="1810" y="510.9883">☐ false</text><line style="stroke:#A80036;stroke-width:1.0;" x1="1805" x2="1805" y1="495.4531" y2="515.9414"/><line style="stroke:#A80036;stroke-width:1.0;" x1="1718" x2="2266" y1="515.9414" y2="515.9414"/><text fill="#000000" font-family="sans-serif" font-size="14" lengthAdjust="spacing" textLength="63" x="1723" y="531.4766">minItems</text><text fill="#000000" font-family="sans-serif" font-size="14" lengthAdjust="spacing" textLength="9" x="1810" y="531.4766">2</text><line style="stroke:#A80036;stroke-width:1.0;" x1="1805" x2="1805" y1="515.9414" y2="536.4297"/><line style="stroke:#A80036;stroke-width:1.0;" x1="1718" x2="2266" y1="536.4297" y2="536.4297"/><text fill="#000000" font-family="sans-serif" font-size="14" lengthAdjust="spacing" textLength="67" x="1723" y="551.9648">maxItems</text><text fill="#000000" font-family="sans-serif" font-size="14" lengthAdjust="spacing" textLength="9" x="1810" y="551.9648">2</text><line style="stroke:#A80036;stroke-width:1.0;" x1="1805" x2="1805" y1="536.4297" y2="556.918"/><line style="stroke:#A80036;stroke-width:1.0;" x1="1718" x2="2266" y1="556.918" y2="556.918"/><text fill="#000000" font-family="sans-serif" font-size="14" lengthAdjust="spacing" textLength="37" x="1723" y="572.4531">items</text><text fill="#000000" font-family="sans-serif" font-size="14" lengthAdjust="spacing" textLength="0" x="1822" y="572.4531"/><line style="stroke:#A80036;stroke-width:1.0;" x1="1805" x2="1805" y1="556.918" y2="577.4063"/><rect fill="none" height="155.9063" rx="5" ry="5" style="stroke:#A80036;stroke-width:1.5;" width="548" x="1718" y="421.5"/><rect fill="#FEFECE" height="20.4883" rx="5" ry="5" style="stroke:#FEFECE;stroke-width:1.5;" width="103" x="2314" y="554.5"/><text fill="#000000" font-family="sans-serif" font-size="14" lengthAdjust="spacing" textLength="29" x="2319" y="570.0352">type</text><text fill="#000000" font-family="sans-serif" font-size="14" lengthAdjust="spacing" textLength="54" x="2358" y="570.0352">number</text><line style="stroke:#A80036;stroke-width:1.0;" x1="2353" x2="2353" y1="554.5" y2="574.9883"/><rect fill="none" height="20.4883" rx="5" ry="5" style="stroke:#A80036;stroke-width:1.5;" width="103" x="2314" y="554.5"/><rect fill="#FEFECE" height="110.9297" rx="5" ry="5" style="stroke:#FEFECE;stroke-width:1.5;" width="555" x="1714.5" y="596"/><text fill="#000000" font-family="sans-serif" font-size="14" lengthAdjust="spacing" textLength="77" x="1719.5" y="611.5352">description</text><text fill="#000000" font-family="sans-serif" font-size="14" lengthAdjust="spacing" textLength="456" x="1806.5" y="611.5352">Step value across the defined range an integer when the range is a</text><text fill="#000000" font-family="sans-serif" font-size="14" lengthAdjust="spacing" textLength="458" x="1806.5" y="628.0234">number.  This is the increment for valid values across the range; so</text><text fill="#000000" font-family="sans-serif" font-size="14" lengthAdjust="spacing" textLength="381" x="1806.5" y="644.5117">if range is 0.0..10.0 and step is 2.5 then valid values are</text><text fill="#000000" font-family="sans-serif" font-size="14" lengthAdjust="spacing" textLength="139" x="1806.5" y="661">0.0,2.5,5.0,7.5,10.0.</text><line style="stroke:#A80036;stroke-width:1.0;" x1="1801.5" x2="1801.5" y1="596" y2="665.9531"/><line style="stroke:#A80036;stroke-width:1.0;" x1="1714.5" x2="2269.5" y1="665.9531" y2="665.9531"/><text fill="#000000" font-family="sans-serif" font-size="14" lengthAdjust="spacing" textLength="55" x="1719.5" y="681.4883">writable</text><text fill="#000000" font-family="sans-serif" font-size="14" lengthAdjust="spacing" textLength="48" x="1806.5" y="681.4883">☐ false</text><line style="stroke:#A80036;stroke-width:1.0;" x1="1801.5" x2="1801.5" y1="665.9531" y2="686.4414"/><line style="stroke:#A80036;stroke-width:1.0;" x1="1714.5" x2="2269.5" y1="686.4414" y2="686.4414"/><text fill="#000000" font-family="sans-serif" font-size="14" lengthAdjust="spacing" textLength="29" x="1719.5" y="701.9766">type</text><text fill="#000000" font-family="sans-serif" font-size="14" lengthAdjust="spacing" textLength="54" x="1806.5" y="701.9766">number</text><line style="stroke:#A80036;stroke-width:1.0;" x1="1801.5" x2="1801.5" y1="686.4414" y2="706.9297"/><rect fill="none" height="110.9297" rx="5" ry="5" style="stroke:#A80036;stroke-width:1.5;" width="555" x="1714.5" y="596"/><rect fill="#FEFECE" height="110.9297" rx="5" ry="5" style="stroke:#FEFECE;stroke-width:1.5;" width="555" x="1714.5" y="725"/><text fill="#000000" font-family="sans-serif" font-size="14" lengthAdjust="spacing" textLength="77" x="1719.5" y="740.5352">description</text><text fill="#000000" font-family="sans-serif" font-size="14" lengthAdjust="spacing" textLength="456" x="1806.5" y="740.5352">Step value across the defined range an integer when the range is a</text><text fill="#000000" font-family="sans-serif" font-size="14" lengthAdjust="spacing" textLength="458" x="1806.5" y="757.0234">number.  This is the increment for valid values across the range; so</text><text fill="#000000" font-family="sans-serif" font-size="14" lengthAdjust="spacing" textLength="381" x="1806.5" y="773.5117">if range is 0.0..10.0 and step is 2.5 then valid values are</text><text fill="#000000" font-family="sans-serif" font-size="14" lengthAdjust="spacing" textLength="139" x="1806.5" y="790">0.0,2.5,5.0,7.5,10.0.</text><line style="stroke:#A80036;stroke-width:1.0;" x1="1801.5" x2="1801.5" y1="725" y2="794.9531"/><line style="stroke:#A80036;stroke-width:1.0;" x1="1714.5" x2="2269.5" y1="794.9531" y2="794.9531"/><text fill="#000000" font-family="sans-serif" font-size="14" lengthAdjust="spacing" textLength="55" x="1719.5" y="810.4883">writable</text><text fill="#000000" font-family="sans-serif" font-size="14" lengthAdjust="spacing" textLength="48" x="1806.5" y="810.4883">☐ false</text><line style="stroke:#A80036;stroke-width:1.0;" x1="1801.5" x2="1801.5" y1="794.9531" y2="815.4414"/><line style="stroke:#A80036;stroke-width:1.0;" x1="1714.5" x2="2269.5" y1="815.4414" y2="815.4414"/><text fill="#000000" font-family="sans-serif" font-size="14" lengthAdjust="spacing" textLength="29" x="1719.5" y="830.9766">type</text><text fill="#000000" font-family="sans-serif" font-size="14" lengthAdjust="spacing" textLength="54" x="1806.5" y="830.9766">number</text><line style="stroke:#A80036;stroke-width:1.0;" x1="1801.5" x2="1801.5" y1="815.4414" y2="835.9297"/><rect fill="none" height="110.9297" rx="5" ry="5" style="stroke:#A80036;stroke-width:1.5;" width="555" x="1714.5" y="725"/><rect fill="#FEFECE" height="110.9297" rx="5" ry="5" style="stroke:#FEFECE;stroke-width:1.5;" width="570" x="1707" y="854"/><text fill="#000000" font-family="sans-serif" font-size="14" lengthAdjust="spacing" textLength="29" x="1712" y="869.5352">type</text><text fill="#000000" font-family="sans-serif" font-size="14" lengthAdjust="spacing" textLength="54" x="1799" y="869.5352">number</text><line style="stroke:#A80036;stroke-width:1.0;" x1="1794" x2="1794" y1="854" y2="874.4883"/><line style="stroke:#A80036;stroke-width:1.0;" x1="1707" x2="2277" y1="874.4883" y2="874.4883"/><text fill="#000000" font-family="sans-serif" font-size="14" lengthAdjust="spacing" textLength="55" x="1712" y="890.0234">writable</text><text fill="#000000" font-family="sans-serif" font-size="14" lengthAdjust="spacing" textLength="48" x="1799" y="890.0234">☐ false</text><line style="stroke:#A80036;stroke-width:1.0;" x1="1794" x2="1794" y1="874.4883" y2="894.9766"/><line style="stroke:#A80036;stroke-width:1.0;" x1="1707" x2="2277" y1="894.9766" y2="894.9766"/><text fill="#000000" font-family="sans-serif" font-size="14" lengthAdjust="spacing" textLength="77" x="1712" y="910.5117">description</text><text fill="#000000" font-family="sans-serif" font-size="14" lengthAdjust="spacing" textLength="430" x="1799" y="910.5117">When exposed the value in 'precision' provides a +/- tolerance</text><text fill="#000000" font-family="sans-serif" font-size="14" lengthAdjust="spacing" textLength="473" x="1799" y="927">against the Properties in the Resource. Thus if a Property is UPDATED</text><text fill="#000000" font-family="sans-serif" font-size="14" lengthAdjust="spacing" textLength="465" x="1799" y="943.4883">to a value and that Property then RETRIEVED, the RETRIEVED value is</text><text fill="#000000" font-family="sans-serif" font-size="14" lengthAdjust="spacing" textLength="337" x="1799" y="959.9766">valid if in the range of the set value +/- precision</text><line style="stroke:#A80036;stroke-width:1.0;" x1="1794" x2="1794" y1="894.9766" y2="964.9297"/><rect fill="none" height="110.9297" rx="5" ry="5" style="stroke:#A80036;stroke-width:1.5;" width="570" x="1707" y="854"/><rect fill="#FEFECE" height="110.9297" rx="5" ry="5" style="stroke:#FEFECE;stroke-width:1.5;" width="570" x="1707" y="983"/><text fill="#000000" font-family="sans-serif" font-size="14" lengthAdjust="spacing" textLength="29" x="1712" y="998.5352">type</text><text fill="#000000" font-family="sans-serif" font-size="14" lengthAdjust="spacing" textLength="54" x="1799" y="998.5352">number</text><line style="stroke:#A80036;stroke-width:1.0;" x1="1794" x2="1794" y1="983" y2="1003.4883"/><line style="stroke:#A80036;stroke-width:1.0;" x1="1707" x2="2277" y1="1003.4883" y2="1003.4883"/><text fill="#000000" font-family="sans-serif" font-size="14" lengthAdjust="spacing" textLength="55" x="1712" y="1019.0234">writable</text><text fill="#000000" font-family="sans-serif" font-size="14" lengthAdjust="spacing" textLength="48" x="1799" y="1019.0234">☐ false</text><line style="stroke:#A80036;stroke-width:1.0;" x1="1794" x2="1794" y1="1003.4883" y2="1023.9766"/><line style="stroke:#A80036;stroke-width:1.0;" x1="1707" x2="2277" y1="1023.9766" y2="1023.9766"/><text fill="#000000" font-family="sans-serif" font-size="14" lengthAdjust="spacing" textLength="77" x="1712" y="1039.5117">description</text><text fill="#000000" font-family="sans-serif" font-size="14" lengthAdjust="spacing" textLength="430" x="1799" y="1039.5117">When exposed the value in 'precision' provides a +/- tolerance</text><text fill="#000000" font-family="sans-serif" font-size="14" lengthAdjust="spacing" textLength="473" x="1799" y="1056">against the Properties in the Resource. Thus if a Property is UPDATED</text><text fill="#000000" font-family="sans-serif" font-size="14" lengthAdjust="spacing" textLength="465" x="1799" y="1072.4883">to a value and that Property then RETRIEVED, the RETRIEVED value is</text><text fill="#000000" font-family="sans-serif" font-size="14" lengthAdjust="spacing" textLength="337" x="1799" y="1088.9766">valid if in the range of the set value +/- precision</text><line style="stroke:#A80036;stroke-width:1.0;" x1="1794" x2="1794" y1="1023.9766" y2="1093.9297"/><rect fill="none" height="110.9297" rx="5" ry="5" style="stroke:#A80036;stroke-width:1.5;" width="570" x="1707" y="983"/><rect fill="#FEFECE" height="20.4883" rx="5" ry="5" style="stroke:#FEFECE;stroke-width:1.5;" width="259" x="1411" y="675.5"/><text fill="#000000" font-family="sans-serif" font-size="14" lengthAdjust="spacing" textLength="249" x="1416" y="691.0352">#/sdfObject/spo2/sdfProperty/spo2</text><rect fill="none" height="20.4883" rx="5" ry="5" style="stroke:#A80036;stroke-width:1.5;" width="259" x="1411" y="675.5"/><path d="M95,566.5 L108,566.5 C117.4068,566.5 126.9554,566.4088 136.5926,566.2376 " fill="none" style="stroke:#A80036;stroke-width:1.0;stroke-dasharray:3.0,3.0;"/><path d="M136.6543,569.3363 L138.9166,566.1914 L136.5309,563.1389 L144.3394,566.0834 L136.6543,569.3363 " fill="#A80036" style="stroke:#A80036;stroke-width:1.0;"/><ellipse cx="95" cy="566.5" fill="#A80036" rx="3" ry="3" style="stroke:#A80036;stroke-width:1.0;stroke-dasharray:3.0,3.0;"/><path d="M1614,505.5 L1614,492.5 C1614,411.1639 1648.9438,195.4652 1707,138.5 C1708.4681,137.0595 1709.9609,135.6473 1711.4772,134.2628 " fill="none" style="stroke:#A80036;stroke-width:1.0;stroke-dasharray:3.0,3.0;"/><path d="M1713.5586,136.648 L1713.2661,132.7018 L1709.3958,131.8777 L1717.4401,129.0594 L1713.5586,136.648 " fill="#A80036" style="stroke:#A80036;stroke-width:1.0;"/><ellipse cx="1614" cy="505.5" fill="#A80036" rx="3" ry="3" style="stroke:#A80036;stroke-width:1.0;stroke-dasharray:3.0,3.0;"/><path d="M1613,523.5 L1626,523.5 C1757.6831,523.5 1609.2189,326.7003 1707,238.5 C1719.7556,226.9942 1734.1912,217.6723 1749.629,210.1559 " fill="none" style="stroke:#A80036;stroke-width:1.0;stroke-dasharray:3.0,3.0;"/><path d="M1750.9601,213.0203 L1751.7773,209.1575 L1748.2979,207.2914 L1756.7901,206.828 L1750.9601,213.0203 " fill="#A80036" style="stroke:#A80036;stroke-width:1.0;"/><ellipse cx="1613" cy="523.5" fill="#A80036" rx="3" ry="3" style="stroke:#A80036;stroke-width:1.0;stroke-dasharray:3.0,3.0;"/><path d="M2254.5,390.5 L2267.5,390.5 C2280.235,390.5 2293.9056,390.5 2306.8621,390.5 " fill="none" style="stroke:#A80036;stroke-width:1.0;stroke-dasharray:3.0,3.0;"/><path d="M2306.8621,393.5134 L2309.1221,390.5 L2306.8621,387.4866 L2314.3956,390.5 L2306.8621,393.5134 " fill="#A80036" style="stroke:#A80036;stroke-width:1.0;"/><ellipse cx="2254.5" cy="390.5" fill="#A80036" rx="3" ry="3" style="stroke:#A80036;stroke-width:1.0;stroke-dasharray:3.0,3.0;"/><path d="M1613,544.5 L1626,544.5 C1694.8315,544.5 1652.5642,454.625 1707,412.5 C1708.9913,410.959 1711.01,409.4452 1713.0542,407.958 " fill="none" style="stroke:#A80036;stroke-width:1.0;stroke-dasharray:3.0,3.0;"/><path d="M1714.807,410.441 L1714.9165,406.6434 L1711.3014,405.4749 L1719.2618,403.576 L1714.807,410.441 " fill="#A80036" style="stroke:#A80036;stroke-width:1.0;"/><ellipse cx="1613" cy="544.5" fill="#A80036" rx="3" ry="3" style="stroke:#A80036;stroke-width:1.0;stroke-dasharray:3.0,3.0;"/><path d="M2254.5,564.5 L2267.5,564.5 C2280.235,564.5 2293.9056,564.5 2306.8621,564.5 " fill="none" style="stroke:#A80036;stroke-width:1.0;stroke-dasharray:3.0,3.0;"/><path d="M2306.8621,567.5134 L2309.1221,564.5 L2306.8621,561.4866 L2314.3956,564.5 L2306.8621,567.5134 " fill="#A80036" style="stroke:#A80036;stroke-width:1.0;"/><ellipse cx="2254.5" cy="564.5" fill="#A80036" rx="3" ry="3" style="stroke:#A80036;stroke-width:1.0;stroke-dasharray:3.0,3.0;"/><path d="M1613,564.5 L1626,564.5 C1653.511,564.5 1682.0094,562.6928 1710.4011,559.6812 " fill="none" style="stroke:#A80036;stroke-width:1.0;stroke-dasharray:3.0,3.0;"/><path d="M1710.7354,562.7244 L1712.6835,559.4304 L1710.0667,556.638 L1718.0091,558.8454 L1710.7354,562.7244 " fill="#A80036" style="stroke:#A80036;stroke-width:1.0;"/><ellipse cx="1613" cy="564.5" fill="#A80036" rx="3" ry="3" style="stroke:#A80036;stroke-width:1.0;stroke-dasharray:3.0,3.0;"/><path d="M1613,585.5 L1626,585.5 C1665.1534,585.5 1706.2959,589.2131 1746.2812,594.8779 " fill="none" style="stroke:#A80036;stroke-width:1.0;stroke-dasharray:3.0,3.0;"/><path d="M1745.8492,597.8587 L1748.5168,595.2019 L1746.7132,591.8971 L1753.7331,595.9579 L1745.8492,597.8587 " fill="#A80036" style="stroke:#A80036;stroke-width:1.0;"/><ellipse cx="1613" cy="585.5" fill="#A80036" rx="3" ry="3" style="stroke:#A80036;stroke-width:1.0;stroke-dasharray:3.0,3.0;"/><path d="M1613,606.5 L1626,606.5 C1686.7135,606.5 1656.3497,683.0235 1707,716.5 C1709.3559,718.0571 1711.7443,719.5768 1714.1625,721.0598 " fill="none" style="stroke:#A80036;stroke-width:1.0;stroke-dasharray:3.0,3.0;"/><path d="M1712.6261,723.6475 L1716.1033,722.2121 L1715.6989,718.4722 L1720.6317,724.9008 L1712.6261,723.6475 " fill="#A80036" style="stroke:#A80036;stroke-width:1.0;"/><ellipse cx="1613" cy="606.5" fill="#A80036" rx="3" ry="3" style="stroke:#A80036;stroke-width:1.0;stroke-dasharray:3.0,3.0;"/><path d="M1613,626.5 L1626,626.5 C1652.7591,626.5 1657.6735,643.2954 1671,666.5 C1711.4134,736.8693 1650.2773,787.4688 1707,845.5 C1708.0616,846.5861 1709.1375,847.6556 1710.227,848.7086 " fill="none" style="stroke:#A80036;stroke-width:1.0;stroke-dasharray:3.0,3.0;"/><path d="M1708.1752,850.9325 L1711.8949,850.2475 L1712.2788,846.4847 L1715.7867,853.838 L1708.1752,850.9325 " fill="#A80036" style="stroke:#A80036;stroke-width:1.0;"/><ellipse cx="1613" cy="626.5" fill="#A80036" rx="3" ry="3" style="stroke:#A80036;stroke-width:1.0;stroke-dasharray:3.0,3.0;"/><path d="M1614,645.5 L1614,658.5 C1614,671.2908 1662.0605,657.3517 1671,666.5 C1767.3227,765.0724 1614.79,872.0701 1707,974.5 C1707.9024,975.5024 1708.8168,976.4908 1709.7429,977.4656 " fill="none" style="stroke:#A80036;stroke-width:1.0;stroke-dasharray:3.0,3.0;"/><path d="M1707.5695,979.6372 L1711.3716,979.0955 L1711.9162,975.2939 L1715.1721,982.8989 L1707.5695,979.6372 " fill="#A80036" style="stroke:#A80036;stroke-width:1.0;"/><ellipse cx="1614" cy="645.5" fill="#A80036" rx="3" ry="3" style="stroke:#A80036;stroke-width:1.0;stroke-dasharray:3.0,3.0;"/><path d="M1362,611.5 L1375,611.5 C1399.4453,611.5 1425.4693,607.6815 1449.4507,602.5317 " fill="none" style="stroke:#A80036;stroke-width:1.0;stroke-dasharray:3.0,3.0;"/><path d="M1450.106,605.4809 L1451.6626,602.0403 L1448.7954,599.5825 L1456.8236,600.8935 L1450.106,605.4809 " fill="#A80036" style="stroke:#A80036;stroke-width:1.0;"/><ellipse cx="1362" cy="611.5" fill="#A80036" rx="3" ry="3" style="stroke:#A80036;stroke-width:1.0;stroke-dasharray:3.0,3.0;"/><path d="M1362,648.5 L1375,648.5 C1392.8885,648.5 1393.9368,661.1292 1411,666.5 C1420.2057,669.3976 1429.923,671.857 1439.726,673.9439 " fill="none" style="stroke:#A80036;stroke-width:1.0;stroke-dasharray:3.0,3.0;"/><path d="M1439.1163,676.9463 L1441.9779,674.4012 L1440.3357,670.9414 L1447.2322,675.4682 L1439.1163,676.9463 " fill="#A80036" style="stroke:#A80036;stroke-width:1.0;"/><ellipse cx="1362" cy="648.5" fill="#A80036" rx="3" ry="3" style="stroke:#A80036;stroke-width:1.0;stroke-dasharray:3.0,3.0;"/><path d="M472.5,611.5 L485.5,611.5 C583.8566,611.5 691.3052,611.5 787.6745,611.5 " fill="none" style="stroke:#A80036;stroke-width:1.0;stroke-dasharray:3.0,3.0;"/><path d="M787.6745,614.5036 L789.9272,611.5 L787.6745,608.4964 L795.1835,611.5 L787.6745,614.5036 " fill="#A80036" style="stroke:#A80036;stroke-width:1.0;"/><ellipse cx="472.5" cy="611.5" fill="#A80036" rx="3" ry="3" style="stroke:#A80036;stroke-width:1.0;stroke-dasharray:3.0,3.0;"/><path d="M95,587.5 L108,587.5 C124.1536,587.5 127.927,590.888 144,592.5 C239.4446,602.0724 352.1259,607.5746 410.6699,609.9995 " fill="none" style="stroke:#A80036;stroke-width:1.0;stroke-dasharray:3.0,3.0;"/><path d="M410.5467,613.0202 L412.9354,610.0919 L410.7932,606.9789 L418.2216,610.3076 L410.5467,613.0202 " fill="#A80036" style="stroke:#A80036;stroke-width:1.0;"/><ellipse cx="95" cy="587.5" fill="#A80036" rx="3" ry="3" style="stroke:#A80036;stroke-width:1.0;stroke-dasharray:3.0,3.0;"/><!--MD5=[3630a4ca6ea59afb9a09ba58493bffc3]
@startjson
{
  "info": {
    "copyright": "Copyright 2018-2019 Open Connectivity Foundation, Inc. All rights reserved.",
    "license": "https://github.com/one-data-model/oneDM/blob/master/LICENSE",
    "title": "SpO2 for Pulse Oximeter",
    "version": "2019-03-04"
  },
  "sdfObject": {
    "spo2": {
      "description": "This Resource describes the Properties associated with a person's\\nblood oxygen saturation level. The spo2 and perfusion Properties are\\nread-only value that is provided by the server. When range (from\\n\"oic. r. baseresource\") is omitted the default is 0 to +MAXFLOAT.",
      "sdfProperty": {
        "spo2": {
          "description": "This Property describes the estimation of the oxygen saturation level\\nin percentage.",
          "type": "number",
          "minimum": 0,
          "maximum": 100,
          "writable": false
        },
        "perfusion": {
          "description": "This Property describes the ratio of AC over DC of PPG.",
          "type": "number",
          "minimum": 0,
          "writable": false
        },
        "spo2_range": {
          "type": "array",
          "description": "The valid range for the Property in the Resource as a number. The\\nfirst value in the array is the minimum value, the second value in\\nthe array is the maximum value.",
          "writable": false,
          "minItems": 2,
          "maxItems": 2,
          "items": {
            "type": "number"
          }
        },
        "perfusion_range": {
          "type": "array",
          "description": "The valid range for the Property in the Resource as a number. The\\nfirst value in the array is the minimum value, the second value in\\nthe array is the maximum value.",
          "writable": false,
          "minItems": 2,
          "maxItems": 2,
          "items": {
            "type": "number"
          }
        },
        "spo2_step": {
          "description": "Step value across the defined range an integer when the range is a\\nnumber.  This is the increment for valid values across the range; so\\nif range is 0.0..10.0 and step is 2.5 then valid values are\\n0.0,2.5,5.0,7.5,10.0.",
          "writable": false,
          "type": "number"
        },
        "perfusion_step": {
          "description": "Step value across the defined range an integer when the range is a\\nnumber.  This is the increment for valid values across the range; so\\nif range is 0.0..10.0 and step is 2.5 then valid values are\\n0.0,2.5,5.0,7.5,10.0.",
          "writable": false,
          "type": "number"
        },
        "spo2_precision": {
          "type": "number",
          "writable": false,
          "description": "When exposed the value in 'precision' provides a +/- tolerance\\nagainst the Properties in the Resource. Thus if a Property is UPDATED\\nto a value and that Property then RETRIEVED, the RETRIEVED value is\\nvalid if in the range of the set value +/- precision"
        },
        "perfusion_precision": {
          "type": "number",
          "writable": false,
          "description": "When exposed the value in 'precision' provides a +/- tolerance\\nagainst the Properties in the Resource. Thus if a Property is UPDATED\\nto a value and that Property then RETRIEVED, the RETRIEVED value is\\nvalid if in the range of the set value +/- precision"
        }
      },
      "sdfRequired": [
        "#/sdfObject/spo2/sdfProperty/spo2"
      ]
    }
  }
}
@endjson

PlantUML version 1.2021.2(Sun Mar 07 13:10:27 EET 2021)
(GPL source distribution)
Java Runtime: OpenJDK Runtime Environment
JVM: OpenJDK 64-Bit Server VM
Default Encoding: UTF-8
Language: en
Country: FI
--></g></svg>