<?xml version="1.0" encoding="UTF-8" standalone="no"?><svg xmlns="http://www.w3.org/2000/svg" xmlns:xlink="http://www.w3.org/1999/xlink" contentScriptType="application/ecmascript" contentStyleType="text/css" height="1620px" preserveAspectRatio="none" style="width:2459px;height:1620px;" version="1.1" viewBox="0 0 2459 1620" width="2459px" zoomAndPan="magnify"><defs/><g><rect fill="#FEFECE" height="40.9766" rx="5" ry="5" style="stroke:#FEFECE;stroke-width:1.5;" width="97" x="10" y="771.5"/><text fill="#000000" font-family="sans-serif" font-size="14" lengthAdjust="spacing" textLength="27" x="15" y="787.0352">info</text><text fill="#000000" font-family="sans-serif" font-size="14" lengthAdjust="spacing" textLength="0" x="102" y="787.0352"/><line style="stroke:#A80036;stroke-width:1.0;" x1="85" x2="85" y1="771.5" y2="791.9883"/><line style="stroke:#A80036;stroke-width:1.0;" x1="10" x2="107" y1="791.9883" y2="791.9883"/><text fill="#000000" font-family="sans-serif" font-size="14" lengthAdjust="spacing" textLength="65" x="15" y="807.5234">sdfObject</text><text fill="#000000" font-family="sans-serif" font-size="14" lengthAdjust="spacing" textLength="0" x="102" y="807.5234"/><line style="stroke:#A80036;stroke-width:1.0;" x1="85" x2="85" y1="791.9883" y2="812.4766"/><rect fill="none" height="40.9766" rx="5" ry="5" style="stroke:#A80036;stroke-width:1.5;" width="97" x="10" y="771.5"/><rect fill="#FEFECE" height="81.9531" rx="5" ry="5" style="stroke:#FEFECE;stroke-width:1.5;" width="614" x="144" y="716"/><text fill="#000000" font-family="sans-serif" font-size="14" lengthAdjust="spacing" textLength="65" x="149" y="731.5352">copyright</text><text fill="#000000" font-family="sans-serif" font-size="14" lengthAdjust="spacing" textLength="529" x="224" y="731.5352">Copyright 2018-2019 Open Connectivity Foundation, Inc. All rights reserved.</text><line style="stroke:#A80036;stroke-width:1.0;" x1="219" x2="219" y1="716" y2="736.4883"/><line style="stroke:#A80036;stroke-width:1.0;" x1="144" x2="758" y1="736.4883" y2="736.4883"/><text fill="#000000" font-family="sans-serif" font-size="14" lengthAdjust="spacing" textLength="47" x="149" y="752.0234">license</text><text fill="#000000" font-family="sans-serif" font-size="14" lengthAdjust="spacing" textLength="462" x="224" y="752.0234">https://github.com/one-data-model/oneDM/blob/master/LICENSE</text><line style="stroke:#A80036;stroke-width:1.0;" x1="219" x2="219" y1="736.4883" y2="756.9766"/><line style="stroke:#A80036;stroke-width:1.0;" x1="144" x2="758" y1="756.9766" y2="756.9766"/><text fill="#000000" font-family="sans-serif" font-size="14" lengthAdjust="spacing" textLength="26" x="149" y="772.5117">title</text><text fill="#000000" font-family="sans-serif" font-size="14" lengthAdjust="spacing" textLength="106" x="224" y="772.5117">Battery Material</text><line style="stroke:#A80036;stroke-width:1.0;" x1="219" x2="219" y1="756.9766" y2="777.4648"/><line style="stroke:#A80036;stroke-width:1.0;" x1="144" x2="758" y1="777.4648" y2="777.4648"/><text fill="#000000" font-family="sans-serif" font-size="14" lengthAdjust="spacing" textLength="50" x="149" y="793">version</text><text fill="#000000" font-family="sans-serif" font-size="14" lengthAdjust="spacing" textLength="88" x="224" y="793">2019-02-22</text><line style="stroke:#A80036;stroke-width:1.0;" x1="219" x2="219" y1="777.4648" y2="797.9531"/><rect fill="none" height="81.9531" rx="5" ry="5" style="stroke:#A80036;stroke-width:1.5;" width="614" x="144" y="716"/><rect fill="#FEFECE" height="20.4883" rx="5" ry="5" style="stroke:#FEFECE;stroke-width:1.5;" width="136" x="383" y="816"/><text fill="#000000" font-family="sans-serif" font-size="14" lengthAdjust="spacing" textLength="104" x="388" y="831.5352">batterymaterial</text><text fill="#000000" font-family="sans-serif" font-size="14" lengthAdjust="spacing" textLength="0" x="514" y="831.5352"/><line style="stroke:#A80036;stroke-width:1.0;" x1="497" x2="497" y1="816" y2="836.4883"/><rect fill="none" height="20.4883" rx="5" ry="5" style="stroke:#A80036;stroke-width:1.5;" width="136" x="383" y="816"/><rect fill="#FEFECE" height="77.9531" rx="5" ry="5" style="stroke:#FEFECE;stroke-width:1.5;" width="533" x="795" y="787"/><text fill="#000000" font-family="sans-serif" font-size="14" lengthAdjust="spacing" textLength="77" x="800" y="802.5352">description</text><text fill="#000000" font-family="sans-serif" font-size="14" lengthAdjust="spacing" textLength="430" x="893" y="802.5352">This Resource describes the battery material represented as an</text><text fill="#000000" font-family="sans-serif" font-size="14" lengthAdjust="spacing" textLength="180" x="893" y="819.0234">enumerated set of strings.</text><line style="stroke:#A80036;stroke-width:1.0;" x1="888" x2="888" y1="787" y2="823.9766"/><line style="stroke:#A80036;stroke-width:1.0;" x1="795" x2="1328" y1="823.9766" y2="823.9766"/><text fill="#000000" font-family="sans-serif" font-size="14" lengthAdjust="spacing" textLength="79" x="800" y="839.5117">sdfProperty</text><text fill="#000000" font-family="sans-serif" font-size="14" lengthAdjust="spacing" textLength="0" x="905" y="839.5117"/><line style="stroke:#A80036;stroke-width:1.0;" x1="888" x2="888" y1="823.9766" y2="844.4648"/><line style="stroke:#A80036;stroke-width:1.0;" x1="795" x2="1328" y1="844.4648" y2="844.4648"/><text fill="#000000" font-family="sans-serif" font-size="14" lengthAdjust="spacing" textLength="83" x="800" y="860">sdfRequired</text><text fill="#000000" font-family="sans-serif" font-size="14" lengthAdjust="spacing" textLength="0" x="905" y="860"/><line style="stroke:#A80036;stroke-width:1.0;" x1="888" x2="888" y1="844.4648" y2="864.9531"/><rect fill="none" height="77.9531" rx="5" ry="5" style="stroke:#A80036;stroke-width:1.5;" width="533" x="795" y="787"/><rect fill="#FEFECE" height="20.4883" rx="5" ry="5" style="stroke:#FEFECE;stroke-width:1.5;" width="88" x="1496.5" y="810"/><text fill="#000000" font-family="sans-serif" font-size="14" lengthAdjust="spacing" textLength="56" x="1501.5" y="825.5352">material</text><text fill="#000000" font-family="sans-serif" font-size="14" lengthAdjust="spacing" textLength="0" x="1579.5" y="825.5352"/><line style="stroke:#A80036;stroke-width:1.0;" x1="1562.5" x2="1562.5" y1="810" y2="830.4883"/><rect fill="none" height="20.4883" rx="5" ry="5" style="stroke:#A80036;stroke-width:1.5;" width="88" x="1496.5" y="810"/><rect fill="#FEFECE" height="81.9531" rx="5" ry="5" style="stroke:#FEFECE;stroke-width:1.5;" width="372" x="1753" y="779"/><text fill="#000000" font-family="sans-serif" font-size="14" lengthAdjust="spacing" textLength="77" x="1758" y="794.5352">description</text><text fill="#000000" font-family="sans-serif" font-size="14" lengthAdjust="spacing" textLength="275" x="1845" y="794.5352">The battery construction material (type).</text><line style="stroke:#A80036;stroke-width:1.0;" x1="1840" x2="1840" y1="779" y2="799.4883"/><line style="stroke:#A80036;stroke-width:1.0;" x1="1753" x2="2125" y1="799.4883" y2="799.4883"/><text fill="#000000" font-family="sans-serif" font-size="14" lengthAdjust="spacing" textLength="39" x="1758" y="815.0234">enum</text><text fill="#000000" font-family="sans-serif" font-size="14" lengthAdjust="spacing" textLength="0" x="1857" y="815.0234"/><line style="stroke:#A80036;stroke-width:1.0;" x1="1840" x2="1840" y1="799.4883" y2="819.9766"/><line style="stroke:#A80036;stroke-width:1.0;" x1="1753" x2="2125" y1="819.9766" y2="819.9766"/><text fill="#000000" font-family="sans-serif" font-size="14" lengthAdjust="spacing" textLength="55" x="1758" y="835.5117">writable</text><text fill="#000000" font-family="sans-serif" font-size="14" lengthAdjust="spacing" textLength="48" x="1845" y="835.5117">☐ false</text><line style="stroke:#A80036;stroke-width:1.0;" x1="1840" x2="1840" y1="819.9766" y2="840.4648"/><line style="stroke:#A80036;stroke-width:1.0;" x1="1753" x2="2125" y1="840.4648" y2="840.4648"/><text fill="#000000" font-family="sans-serif" font-size="14" lengthAdjust="spacing" textLength="29" x="1758" y="856">type</text><text fill="#000000" font-family="sans-serif" font-size="14" lengthAdjust="spacing" textLength="40" x="1845" y="856">string</text><line style="stroke:#A80036;stroke-width:1.0;" x1="1840" x2="1840" y1="840.4648" y2="860.9531"/><rect fill="none" height="81.9531" rx="5" ry="5" style="stroke:#A80036;stroke-width:1.5;" width="372" x="1753" y="779"/><rect fill="#FEFECE" height="1598.0859" rx="5" ry="5" style="stroke:#FEFECE;stroke-width:1.5;" width="285" x="2162" y="10"/><text fill="#000000" font-family="sans-serif" font-size="14" lengthAdjust="spacing" textLength="55" x="2167" y="25.5352">Alkaline</text><line style="stroke:#A80036;stroke-width:1.0;" x1="2162" x2="2447" y1="30.4883" y2="30.4883"/><text fill="#000000" font-family="sans-serif" font-size="14" lengthAdjust="spacing" textLength="99" x="2167" y="46.0234">Aluminium Air</text><line style="stroke:#A80036;stroke-width:1.0;" x1="2162" x2="2447" y1="50.9766" y2="50.9766"/><text fill="#000000" font-family="sans-serif" font-size="14" lengthAdjust="spacing" textLength="101" x="2167" y="66.5117">Aluminium Ion</text><line style="stroke:#A80036;stroke-width:1.0;" x1="2162" x2="2447" y1="71.4648" y2="71.4648"/><text fill="#000000" font-family="sans-serif" font-size="14" lengthAdjust="spacing" textLength="132" x="2167" y="87">Atomic Betavoltaics</text><line style="stroke:#A80036;stroke-width:1.0;" x1="2162" x2="2447" y1="91.9531" y2="91.9531"/><text fill="#000000" font-family="sans-serif" font-size="14" lengthAdjust="spacing" textLength="191" x="2167" y="107.4883">Atomic Optoelectric Nuclear</text><line style="stroke:#A80036;stroke-width:1.0;" x1="2162" x2="2447" y1="112.4414" y2="112.4414"/><text fill="#000000" font-family="sans-serif" font-size="14" lengthAdjust="spacing" textLength="104" x="2167" y="127.9766">Atomic Nuclear</text><line style="stroke:#A80036;stroke-width:1.0;" x1="2162" x2="2447" y1="132.9297" y2="132.9297"/><text fill="#000000" font-family="sans-serif" font-size="14" lengthAdjust="spacing" textLength="80" x="2167" y="148.4648">Bunsen Cell</text><line style="stroke:#A80036;stroke-width:1.0;" x1="2162" x2="2447" y1="153.418" y2="153.418"/><text fill="#000000" font-family="sans-serif" font-size="14" lengthAdjust="spacing" textLength="122" x="2167" y="168.9531">Chromic Acid Cell</text><line style="stroke:#A80036;stroke-width:1.0;" x1="2162" x2="2447" y1="173.9063" y2="173.9063"/><text fill="#000000" font-family="sans-serif" font-size="14" lengthAdjust="spacing" textLength="116" x="2167" y="189.4414">Poggendorff Cell</text><line style="stroke:#A80036;stroke-width:1.0;" x1="2162" x2="2447" y1="194.3945" y2="194.3945"/><text fill="#000000" font-family="sans-serif" font-size="14" lengthAdjust="spacing" textLength="66" x="2167" y="209.9297">Clark Cell</text><line style="stroke:#A80036;stroke-width:1.0;" x1="2162" x2="2447" y1="214.8828" y2="214.8828"/><text fill="#000000" font-family="sans-serif" font-size="14" lengthAdjust="spacing" textLength="77" x="2167" y="230.418">Daniell Cell</text><line style="stroke:#A80036;stroke-width:1.0;" x1="2162" x2="2447" y1="235.3711" y2="235.3711"/><text fill="#000000" font-family="sans-serif" font-size="14" lengthAdjust="spacing" textLength="53" x="2167" y="250.9063">Dry Cell</text><line style="stroke:#A80036;stroke-width:1.0;" x1="2162" x2="2447" y1="255.8594" y2="255.8594"/><text fill="#000000" font-family="sans-serif" font-size="14" lengthAdjust="spacing" textLength="36" x="2167" y="271.3945">Earth</text><line style="stroke:#A80036;stroke-width:1.0;" x1="2162" x2="2447" y1="276.3477" y2="276.3477"/><text fill="#000000" font-family="sans-serif" font-size="14" lengthAdjust="spacing" textLength="32" x="2167" y="291.8828">Flow</text><line style="stroke:#A80036;stroke-width:1.0;" x1="2162" x2="2447" y1="296.8359" y2="296.8359"/><text fill="#000000" font-family="sans-serif" font-size="14" lengthAdjust="spacing" textLength="153" x="2167" y="312.3711">Flow Vanadium Redox</text><line style="stroke:#A80036;stroke-width:1.0;" x1="2162" x2="2447" y1="317.3242" y2="317.3242"/><text fill="#000000" font-family="sans-serif" font-size="14" lengthAdjust="spacing" textLength="125" x="2167" y="332.8594">Flow Zinc Bromine</text><line style="stroke:#A80036;stroke-width:1.0;" x1="2162" x2="2447" y1="337.8125" y2="337.8125"/><text fill="#000000" font-family="sans-serif" font-size="14" lengthAdjust="spacing" textLength="118" x="2167" y="353.3477">Flow Zinc Cerium</text><line style="stroke:#A80036;stroke-width:1.0;" x1="2162" x2="2447" y1="358.3008" y2="358.3008"/><text fill="#000000" font-family="sans-serif" font-size="14" lengthAdjust="spacing" textLength="32" x="2167" y="373.8359">Frog</text><line style="stroke:#A80036;stroke-width:1.0;" x1="2162" x2="2447" y1="378.7891" y2="378.7891"/><text fill="#000000" font-family="sans-serif" font-size="14" lengthAdjust="spacing" textLength="29" x="2167" y="394.3242">Fuel</text><line style="stroke:#A80036;stroke-width:1.0;" x1="2162" x2="2447" y1="399.2773" y2="399.2773"/><text fill="#000000" font-family="sans-serif" font-size="14" lengthAdjust="spacing" textLength="87" x="2167" y="414.8125">Galvanic Cell</text><line style="stroke:#A80036;stroke-width:1.0;" x1="2162" x2="2447" y1="419.7656" y2="419.7656"/><text fill="#000000" font-family="sans-serif" font-size="14" lengthAdjust="spacing" textLength="36" x="2167" y="435.3008">Glass</text><line style="stroke:#A80036;stroke-width:1.0;" x1="2162" x2="2447" y1="440.2539" y2="440.2539"/><text fill="#000000" font-family="sans-serif" font-size="14" lengthAdjust="spacing" textLength="70" x="2167" y="455.7891">Grove Cell</text><line style="stroke:#A80036;stroke-width:1.0;" x1="2162" x2="2447" y1="460.7422" y2="460.7422"/><text fill="#000000" font-family="sans-serif" font-size="14" lengthAdjust="spacing" textLength="66" x="2167" y="476.2773">Lead Acid</text><line style="stroke:#A80036;stroke-width:1.0;" x1="2162" x2="2447" y1="481.2305" y2="481.2305"/><text fill="#000000" font-family="sans-serif" font-size="14" lengthAdjust="spacing" textLength="145" x="2167" y="496.7656">Lead Acid Deep Cycle</text><line style="stroke:#A80036;stroke-width:1.0;" x1="2162" x2="2447" y1="501.7188" y2="501.7188"/><text fill="#000000" font-family="sans-serif" font-size="14" lengthAdjust="spacing" textLength="105" x="2167" y="517.2539">Lead Acid VRLA</text><line style="stroke:#A80036;stroke-width:1.0;" x1="2162" x2="2447" y1="522.207" y2="522.207"/><text fill="#000000" font-family="sans-serif" font-size="14" lengthAdjust="spacing" textLength="102" x="2167" y="537.7422">Lead Acid AGM</text><line style="stroke:#A80036;stroke-width:1.0;" x1="2162" x2="2447" y1="542.6953" y2="542.6953"/><text fill="#000000" font-family="sans-serif" font-size="14" lengthAdjust="spacing" textLength="92" x="2167" y="558.2305">Lead Acid Gel</text><line style="stroke:#A80036;stroke-width:1.0;" x1="2162" x2="2447" y1="563.1836" y2="563.1836"/><text fill="#000000" font-family="sans-serif" font-size="14" lengthAdjust="spacing" textLength="97" x="2167" y="578.7188">Leclanche Cell</text><line style="stroke:#A80036;stroke-width:1.0;" x1="2162" x2="2447" y1="583.6719" y2="583.6719"/><text fill="#000000" font-family="sans-serif" font-size="14" lengthAdjust="spacing" textLength="94" x="2167" y="599.207">Lemon Potato</text><line style="stroke:#A80036;stroke-width:1.0;" x1="2162" x2="2447" y1="604.1602" y2="604.1602"/><text fill="#000000" font-family="sans-serif" font-size="14" lengthAdjust="spacing" textLength="51" x="2167" y="619.6953">Lithium</text><line style="stroke:#A80036;stroke-width:1.0;" x1="2162" x2="2447" y1="624.6484" y2="624.6484"/><text fill="#000000" font-family="sans-serif" font-size="14" lengthAdjust="spacing" textLength="75" x="2167" y="640.1836">Lithium Air</text><line style="stroke:#A80036;stroke-width:1.0;" x1="2162" x2="2447" y1="645.1367" y2="645.1367"/><text fill="#000000" font-family="sans-serif" font-size="14" lengthAdjust="spacing" textLength="77" x="2167" y="660.6719">Lithium Ion</text><line style="stroke:#A80036;stroke-width:1.0;" x1="2162" x2="2447" y1="665.625" y2="665.625"/><text fill="#000000" font-family="sans-serif" font-size="14" lengthAdjust="spacing" textLength="208" x="2167" y="681.1602">Lithium Ion Cobalt Oxide (ICR)</text><line style="stroke:#A80036;stroke-width:1.0;" x1="2162" x2="2447" y1="686.1133" y2="686.1133"/><text fill="#000000" font-family="sans-serif" font-size="14" lengthAdjust="spacing" textLength="243" x="2167" y="701.6484">Lithium Ion Manganese Oxide (IMR)</text><line style="stroke:#A80036;stroke-width:1.0;" x1="2162" x2="2447" y1="706.6016" y2="706.6016"/><text fill="#000000" font-family="sans-serif" font-size="14" lengthAdjust="spacing" textLength="136" x="2167" y="722.1367">Lithium Ion Polymer</text><line style="stroke:#A80036;stroke-width:1.0;" x1="2162" x2="2447" y1="727.0898" y2="727.0898"/><text fill="#000000" font-family="sans-serif" font-size="14" lengthAdjust="spacing" textLength="159" x="2167" y="742.625">Lithium Iron Phosphate</text><line style="stroke:#A80036;stroke-width:1.0;" x1="2162" x2="2447" y1="747.5781" y2="747.5781"/><text fill="#000000" font-family="sans-serif" font-size="14" lengthAdjust="spacing" textLength="96" x="2167" y="763.1133">Lithium Sulfur</text><line style="stroke:#A80036;stroke-width:1.0;" x1="2162" x2="2447" y1="768.0664" y2="768.0664"/><text fill="#000000" font-family="sans-serif" font-size="14" lengthAdjust="spacing" textLength="111" x="2167" y="783.6016">Lithium Titanate</text><line style="stroke:#A80036;stroke-width:1.0;" x1="2162" x2="2447" y1="788.5547" y2="788.5547"/><text fill="#000000" font-family="sans-serif" font-size="14" lengthAdjust="spacing" textLength="145" x="2167" y="804.0898">Lithium Ion Thin Film</text><line style="stroke:#A80036;stroke-width:1.0;" x1="2162" x2="2447" y1="809.043" y2="809.043"/><text fill="#000000" font-family="sans-serif" font-size="14" lengthAdjust="spacing" textLength="79" x="2167" y="824.5781">Magnesium</text><line style="stroke:#A80036;stroke-width:1.0;" x1="2162" x2="2447" y1="829.5313" y2="829.5313"/><text fill="#000000" font-family="sans-serif" font-size="14" lengthAdjust="spacing" textLength="105" x="2167" y="845.0664">Magnesium Ion</text><line style="stroke:#A80036;stroke-width:1.0;" x1="2162" x2="2447" y1="850.0195" y2="850.0195"/><text fill="#000000" font-family="sans-serif" font-size="14" lengthAdjust="spacing" textLength="55" x="2167" y="865.5547">Mercury</text><line style="stroke:#A80036;stroke-width:1.0;" x1="2162" x2="2447" y1="870.5078" y2="870.5078"/><text fill="#000000" font-family="sans-serif" font-size="14" lengthAdjust="spacing" textLength="76" x="2167" y="886.043">Molten Salt</text><line style="stroke:#A80036;stroke-width:1.0;" x1="2162" x2="2447" y1="890.9961" y2="890.9961"/><text fill="#000000" font-family="sans-serif" font-size="14" lengthAdjust="spacing" textLength="111" x="2167" y="906.5313">Nickel Cadmium</text><line style="stroke:#A80036;stroke-width:1.0;" x1="2162" x2="2447" y1="911.4844" y2="911.4844"/><text fill="#000000" font-family="sans-serif" font-size="14" lengthAdjust="spacing" textLength="193" x="2167" y="927.0195">Nickel Cadmium Vented Cell</text><line style="stroke:#A80036;stroke-width:1.0;" x1="2162" x2="2447" y1="931.9727" y2="931.9727"/><text fill="#000000" font-family="sans-serif" font-size="14" lengthAdjust="spacing" textLength="112" x="2167" y="947.5078">Nickel Hydrogen</text><line style="stroke:#A80036;stroke-width:1.0;" x1="2162" x2="2447" y1="952.4609" y2="952.4609"/><text fill="#000000" font-family="sans-serif" font-size="14" lengthAdjust="spacing" textLength="73" x="2167" y="967.9961">Nickel Iron</text><line style="stroke:#A80036;stroke-width:1.0;" x1="2162" x2="2447" y1="972.9492" y2="972.9492"/><text fill="#000000" font-family="sans-serif" font-size="14" lengthAdjust="spacing" textLength="139" x="2167" y="988.4844">Nickel Metal Hydride</text><line style="stroke:#A80036;stroke-width:1.0;" x1="2162" x2="2447" y1="993.4375" y2="993.4375"/><text fill="#000000" font-family="sans-serif" font-size="14" lengthAdjust="spacing" textLength="275" x="2167" y="1008.9727">Nickel Metal Hydride Low Self-Discharge</text><line style="stroke:#A80036;stroke-width:1.0;" x1="2162" x2="2447" y1="1013.9258" y2="1013.9258"/><text fill="#000000" font-family="sans-serif" font-size="14" lengthAdjust="spacing" textLength="142" x="2167" y="1029.4609">Nickel Oxyhydroxide</text><line style="stroke:#A80036;stroke-width:1.0;" x1="2162" x2="2447" y1="1034.4141" y2="1034.4141"/><text fill="#000000" font-family="sans-serif" font-size="14" lengthAdjust="spacing" textLength="99" x="2167" y="1049.9492">Nickel Oxyride</text><line style="stroke:#A80036;stroke-width:1.0;" x1="2162" x2="2447" y1="1054.9023" y2="1054.9023"/><text fill="#000000" font-family="sans-serif" font-size="14" lengthAdjust="spacing" textLength="73" x="2167" y="1070.4375">Nickel Zinc</text><line style="stroke:#A80036;stroke-width:1.0;" x1="2162" x2="2447" y1="1075.3906" y2="1075.3906"/><text fill="#000000" font-family="sans-serif" font-size="14" lengthAdjust="spacing" textLength="107" x="2167" y="1090.9258">Organic Radical</text><line style="stroke:#A80036;stroke-width:1.0;" x1="2162" x2="2447" y1="1095.8789" y2="1095.8789"/><text fill="#000000" font-family="sans-serif" font-size="14" lengthAdjust="spacing" textLength="39" x="2167" y="1111.4141">Paper</text><line style="stroke:#A80036;stroke-width:1.0;" x1="2162" x2="2447" y1="1116.3672" y2="1116.3672"/><text fill="#000000" font-family="sans-serif" font-size="14" lengthAdjust="spacing" textLength="99" x="2167" y="1131.9023">Polymer Based</text><line style="stroke:#A80036;stroke-width:1.0;" x1="2162" x2="2447" y1="1136.8555" y2="1136.8555"/><text fill="#000000" font-family="sans-serif" font-size="14" lengthAdjust="spacing" textLength="135" x="2167" y="1152.3906">Polysulfide Bromide</text><line style="stroke:#A80036;stroke-width:1.0;" x1="2162" x2="2447" y1="1157.3438" y2="1157.3438"/><text fill="#000000" font-family="sans-serif" font-size="14" lengthAdjust="spacing" textLength="96" x="2167" y="1172.8789">Potassium Ion</text><line style="stroke:#A80036;stroke-width:1.0;" x1="2162" x2="2447" y1="1177.832" y2="1177.832"/><text fill="#000000" font-family="sans-serif" font-size="14" lengthAdjust="spacing" textLength="144" x="2167" y="1193.3672">Pulvermachers Chain</text><line style="stroke:#A80036;stroke-width:1.0;" x1="2162" x2="2447" y1="1198.3203" y2="1198.3203"/><text fill="#000000" font-family="sans-serif" font-size="14" lengthAdjust="spacing" textLength="69" x="2167" y="1213.8555">Silicon Air</text><line style="stroke:#A80036;stroke-width:1.0;" x1="2162" x2="2447" y1="1218.8086" y2="1218.8086"/><text fill="#000000" font-family="sans-serif" font-size="14" lengthAdjust="spacing" textLength="96" x="2167" y="1234.3438">Silver Calcium</text><line style="stroke:#A80036;stroke-width:1.0;" x1="2162" x2="2447" y1="1239.2969" y2="1239.2969"/><text fill="#000000" font-family="sans-serif" font-size="14" lengthAdjust="spacing" textLength="82" x="2167" y="1254.832">Silver Oxide</text><line style="stroke:#A80036;stroke-width:1.0;" x1="2162" x2="2447" y1="1259.7852" y2="1259.7852"/><text fill="#000000" font-family="sans-serif" font-size="14" lengthAdjust="spacing" textLength="69" x="2167" y="1275.3203">Silver Zinc</text><line style="stroke:#A80036;stroke-width:1.0;" x1="2162" x2="2447" y1="1280.2734" y2="1280.2734"/><text fill="#000000" font-family="sans-serif" font-size="14" lengthAdjust="spacing" textLength="78" x="2167" y="1295.8086">Sodium Ion</text><line style="stroke:#A80036;stroke-width:1.0;" x1="2162" x2="2447" y1="1300.7617" y2="1300.7617"/><text fill="#000000" font-family="sans-serif" font-size="14" lengthAdjust="spacing" textLength="97" x="2167" y="1316.2969">Sodium Sulfur</text><line style="stroke:#A80036;stroke-width:1.0;" x1="2162" x2="2447" y1="1321.25" y2="1321.25"/><text fill="#000000" font-family="sans-serif" font-size="14" lengthAdjust="spacing" textLength="72" x="2167" y="1336.7852">Solid State</text><line style="stroke:#A80036;stroke-width:1.0;" x1="2162" x2="2447" y1="1341.7383" y2="1341.7383"/><text fill="#000000" font-family="sans-serif" font-size="14" lengthAdjust="spacing" textLength="40" x="2167" y="1357.2734">Sugar</text><line style="stroke:#A80036;stroke-width:1.0;" x1="2162" x2="2447" y1="1362.2266" y2="1362.2266"/><text fill="#000000" font-family="sans-serif" font-size="14" lengthAdjust="spacing" textLength="72" x="2167" y="1377.7617">Super Iron</text><line style="stroke:#A80036;stroke-width:1.0;" x1="2162" x2="2447" y1="1382.7148" y2="1382.7148"/><text fill="#000000" font-family="sans-serif" font-size="14" lengthAdjust="spacing" textLength="80" x="2167" y="1398.25">UltraBattery</text><line style="stroke:#A80036;stroke-width:1.0;" x1="2162" x2="2447" y1="1403.2031" y2="1403.2031"/><text fill="#000000" font-family="sans-serif" font-size="14" lengthAdjust="spacing" textLength="74" x="2167" y="1418.7383">Voltaic Pile</text><line style="stroke:#A80036;stroke-width:1.0;" x1="2162" x2="2447" y1="1423.6914" y2="1423.6914"/><text fill="#000000" font-family="sans-serif" font-size="14" lengthAdjust="spacing" textLength="119" x="2167" y="1439.2266">Voltaic Pile Penny</text><line style="stroke:#A80036;stroke-width:1.0;" x1="2162" x2="2447" y1="1444.1797" y2="1444.1797"/><text fill="#000000" font-family="sans-serif" font-size="14" lengthAdjust="spacing" textLength="129" x="2167" y="1459.7148">Voltaic Pile Trough</text><line style="stroke:#A80036;stroke-width:1.0;" x1="2162" x2="2447" y1="1464.668" y2="1464.668"/><text fill="#000000" font-family="sans-serif" font-size="14" lengthAdjust="spacing" textLength="106" x="2167" y="1480.2031">Water Activated</text><line style="stroke:#A80036;stroke-width:1.0;" x1="2162" x2="2447" y1="1485.1563" y2="1485.1563"/><text fill="#000000" font-family="sans-serif" font-size="14" lengthAdjust="spacing" textLength="80" x="2167" y="1500.6914">Weston Cell</text><line style="stroke:#A80036;stroke-width:1.0;" x1="2162" x2="2447" y1="1505.6445" y2="1505.6445"/><text fill="#000000" font-family="sans-serif" font-size="14" lengthAdjust="spacing" textLength="52" x="2167" y="1521.1797">Zinc Air</text><line style="stroke:#A80036;stroke-width:1.0;" x1="2162" x2="2447" y1="1526.1328" y2="1526.1328"/><text fill="#000000" font-family="sans-serif" font-size="14" lengthAdjust="spacing" textLength="83" x="2167" y="1541.668">Zinc Carbon</text><line style="stroke:#A80036;stroke-width:1.0;" x1="2162" x2="2447" y1="1546.6211" y2="1546.6211"/><text fill="#000000" font-family="sans-serif" font-size="14" lengthAdjust="spacing" textLength="91" x="2167" y="1562.1563">Zinc Chloride</text><line style="stroke:#A80036;stroke-width:1.0;" x1="2162" x2="2447" y1="1567.1094" y2="1567.1094"/><text fill="#000000" font-family="sans-serif" font-size="14" lengthAdjust="spacing" textLength="54" x="2167" y="1582.6445">Zinc Ion</text><line style="stroke:#A80036;stroke-width:1.0;" x1="2162" x2="2447" y1="1587.5977" y2="1587.5977"/><text fill="#000000" font-family="sans-serif" font-size="14" lengthAdjust="spacing" textLength="65" x="2167" y="1603.1328">Unknown</text><rect fill="none" height="1598.0859" rx="5" ry="5" style="stroke:#A80036;stroke-width:1.5;" width="285" x="2162" y="10"/><rect fill="#FEFECE" height="20.4883" rx="5" ry="5" style="stroke:#FEFECE;stroke-width:1.5;" width="351" x="1365" y="848"/><text fill="#000000" font-family="sans-serif" font-size="14" lengthAdjust="spacing" textLength="341" x="1370" y="863.5352">#/sdfObject/batterymaterial/sdfProperty/material</text><rect fill="none" height="20.4883" rx="5" ry="5" style="stroke:#A80036;stroke-width:1.5;" width="351" x="1365" y="848"/><path d="M95,781 L108,781 C117.4068,781 126.9554,780.9088 136.5926,780.7376 " fill="none" style="stroke:#A80036;stroke-width:1.0;stroke-dasharray:3.0,3.0;"/><path d="M136.6543,783.8363 L138.9166,780.6914 L136.5309,777.6389 L144.3394,780.5834 L136.6543,783.8363 " fill="#A80036" style="stroke:#A80036;stroke-width:1.0;"/><ellipse cx="95" cy="781" fill="#A80036" rx="3" ry="3" style="stroke:#A80036;stroke-width:1.0;stroke-dasharray:3.0,3.0;"/><path d="M2113,809 L2126,809 C2135.266,809 2144.8033,809 2154.4213,809 " fill="none" style="stroke:#A80036;stroke-width:1.0;stroke-dasharray:3.0,3.0;"/><path d="M2154.4213,812.0908 L2156.7394,809 L2154.4213,805.9092 L2162.1484,809 L2154.4213,812.0908 " fill="#A80036" style="stroke:#A80036;stroke-width:1.0;"/><ellipse cx="2113" cy="809" fill="#A80036" rx="3" ry="3" style="stroke:#A80036;stroke-width:1.0;stroke-dasharray:3.0,3.0;"/><path d="M1573,820 L1586,820 C1637.7672,820 1693.8108,820 1745.6525,820 " fill="none" style="stroke:#A80036;stroke-width:1.0;stroke-dasharray:3.0,3.0;"/><path d="M1745.6525,823.0469 L1747.9377,820 L1745.6525,816.9531 L1753.2698,820 L1745.6525,823.0469 " fill="#A80036" style="stroke:#A80036;stroke-width:1.0;"/><ellipse cx="1573" cy="820" fill="#A80036" rx="3" ry="3" style="stroke:#A80036;stroke-width:1.0;stroke-dasharray:3.0,3.0;"/><path d="M1316,826 L1329,826 C1383.6817,826 1446.3024,823.9616 1489.0304,822.2611 " fill="none" style="stroke:#A80036;stroke-width:1.0;stroke-dasharray:3.0,3.0;"/><path d="M1489.1556,825.3572 L1491.3525,822.1672 L1488.9052,819.1649 L1496.7708,821.948 L1489.1556,825.3572 " fill="#A80036" style="stroke:#A80036;stroke-width:1.0;"/><ellipse cx="1316" cy="826" fill="#A80036" rx="3" ry="3" style="stroke:#A80036;stroke-width:1.0;stroke-dasharray:3.0,3.0;"/><path d="M1316,852 L1329,852 C1338.3256,852 1347.8821,852.0593 1357.5315,852.1661 " fill="none" style="stroke:#A80036;stroke-width:1.0;stroke-dasharray:3.0,3.0;"/><path d="M1357.4932,855.2684 L1359.8582,852.1948 L1357.5697,849.0637 L1365.2873,852.2617 L1357.4932,855.2684 " fill="#A80036" style="stroke:#A80036;stroke-width:1.0;"/><ellipse cx="1316" cy="852" fill="#A80036" rx="3" ry="3" style="stroke:#A80036;stroke-width:1.0;stroke-dasharray:3.0,3.0;"/><path d="M507.5,826 L520.5,826 C607.3749,826 702.1042,826 787.6449,826 " fill="none" style="stroke:#A80036;stroke-width:1.0;stroke-dasharray:3.0,3.0;"/><path d="M787.6449,829.0878 L789.9608,826 L787.6449,822.9122 L795.3644,826 L787.6449,829.0878 " fill="#A80036" style="stroke:#A80036;stroke-width:1.0;"/><ellipse cx="507.5" cy="826" fill="#A80036" rx="3" ry="3" style="stroke:#A80036;stroke-width:1.0;stroke-dasharray:3.0,3.0;"/><path d="M95,802 L108,802 C124.1536,802 127.927,805.388 144,807 C222.8516,814.9082 313.4677,820.0385 375.6028,822.9506 " fill="none" style="stroke:#A80036;stroke-width:1.0;stroke-dasharray:3.0,3.0;"/><path d="M375.4582,826.0758 L377.9467,823.059 L375.7474,819.8253 L383.4159,823.3121 L375.4582,826.0758 " fill="#A80036" style="stroke:#A80036;stroke-width:1.0;"/><ellipse cx="95" cy="802" fill="#A80036" rx="3" ry="3" style="stroke:#A80036;stroke-width:1.0;stroke-dasharray:3.0,3.0;"/><!--MD5=[757a51e367a55282000b1d9926bb11bf]
@startjson
{
  "info": {
    "copyright": "Copyright 2018-2019 Open Connectivity Foundation, Inc. All rights reserved.",
    "license": "https://github.com/one-data-model/oneDM/blob/master/LICENSE",
    "title": "Battery Material",
    "version": "2019-02-22"
  },
  "sdfObject": {
    "batterymaterial": {
      "description": "This Resource describes the battery material represented as an\\nenumerated set of strings.",
      "sdfProperty": {
        "material": {
          "description": "The battery construction material (type).",
          "enum": [
            "Alkaline",
            "Aluminium Air",
            "Aluminium Ion",
            "Atomic Betavoltaics",
            "Atomic Optoelectric Nuclear",
            "Atomic Nuclear",
            "Bunsen Cell",
            "Chromic Acid Cell",
            "Poggendorff Cell",
            "Clark Cell",
            "Daniell Cell",
            "Dry Cell",
            "Earth",
            "Flow",
            "Flow Vanadium Redox",
            "Flow Zinc Bromine",
            "Flow Zinc Cerium",
            "Frog",
            "Fuel",
            "Galvanic Cell",
            "Glass",
            "Grove Cell",
            "Lead Acid",
            "Lead Acid Deep Cycle",
            "Lead Acid VRLA",
            "Lead Acid AGM",
            "Lead Acid Gel",
            "Leclanche Cell",
            "Lemon Potato",
            "Lithium",
            "Lithium Air",
            "Lithium Ion",
            "Lithium Ion Cobalt Oxide (ICR)",
            "Lithium Ion Manganese Oxide (IMR)",
            "Lithium Ion Polymer",
            "Lithium Iron Phosphate",
            "Lithium Sulfur",
            "Lithium Titanate",
            "Lithium Ion Thin Film",
            "Magnesium",
            "Magnesium Ion",
            "Mercury",
            "Molten Salt",
            "Nickel Cadmium",
            "Nickel Cadmium Vented Cell",
            "Nickel Hydrogen",
            "Nickel Iron ",
            "Nickel Metal Hydride",
            "Nickel Metal Hydride Low Self-Discharge",
            "Nickel Oxyhydroxide",
            "Nickel Oxyride",
            "Nickel Zinc",
            "Organic Radical",
            "Paper",
            "Polymer Based",
            "Polysulfide Bromide",
            "Potassium Ion",
            "Pulvermachers Chain",
            "Silicon Air",
            "Silver Calcium",
            "Silver Oxide",
            "Silver Zinc",
            "Sodium Ion",
            "Sodium Sulfur",
            "Solid State",
            "Sugar",
            "Super Iron",
            "UltraBattery",
            "Voltaic Pile",
            "Voltaic Pile Penny",
            "Voltaic Pile Trough",
            "Water Activated",
            "Weston Cell",
            "Zinc Air",
            "Zinc Carbon",
            "Zinc Chloride",
            "Zinc Ion",
            "Unknown"
          ],
          "writable": false,
          "type": "string"
        }
      },
      "sdfRequired": [
        "#/sdfObject/batterymaterial/sdfProperty/material"
      ]
    }
  }
}
@endjson

PlantUML version 1.2021.2(Sun Mar 07 13:10:27 EET 2021)
(GPL source distribution)
Java Runtime: OpenJDK Runtime Environment
JVM: OpenJDK 64-Bit Server VM
Default Encoding: UTF-8
Language: en
Country: FI
--></g></svg>