<?xml version="1.0" encoding="UTF-8" standalone="no"?><svg xmlns="http://www.w3.org/2000/svg" xmlns:xlink="http://www.w3.org/1999/xlink" contentScriptType="application/ecmascript" contentStyleType="text/css" height="349px" preserveAspectRatio="none" style="width:2523px;height:349px;" version="1.1" viewBox="0 0 2523 349" width="2523px" zoomAndPan="magnify"><defs/><g><rect fill="#FEFECE" height="40.9766" rx="5" ry="5" style="stroke:#FEFECE;stroke-width:1.5;" width="97" x="10" y="105"/><text fill="#000000" font-family="sans-serif" font-size="14" lengthAdjust="spacing" textLength="27" x="15" y="120.5352">info</text><text fill="#000000" font-family="sans-serif" font-size="14" lengthAdjust="spacing" textLength="0" x="102" y="120.5352"/><line style="stroke:#A80036;stroke-width:1.0;" x1="85" x2="85" y1="105" y2="125.4883"/><line style="stroke:#A80036;stroke-width:1.0;" x1="10" x2="107" y1="125.4883" y2="125.4883"/><text fill="#000000" font-family="sans-serif" font-size="14" lengthAdjust="spacing" textLength="65" x="15" y="141.0234">sdfObject</text><text fill="#000000" font-family="sans-serif" font-size="14" lengthAdjust="spacing" textLength="0" x="102" y="141.0234"/><line style="stroke:#A80036;stroke-width:1.0;" x1="85" x2="85" y1="125.4883" y2="145.9766"/><rect fill="none" height="40.9766" rx="5" ry="5" style="stroke:#A80036;stroke-width:1.5;" width="97" x="10" y="105"/><rect fill="#FEFECE" height="81.9531" rx="5" ry="5" style="stroke:#FEFECE;stroke-width:1.5;" width="655" x="144" y="49.5"/><text fill="#000000" font-family="sans-serif" font-size="14" lengthAdjust="spacing" textLength="65" x="149" y="65.0352">copyright</text><text fill="#000000" font-family="sans-serif" font-size="14" lengthAdjust="spacing" textLength="570" x="224" y="65.0352">copyright 2016-2017, 2019 Open Connectivity Foundation, Inc. All rights reserved.</text><line style="stroke:#A80036;stroke-width:1.0;" x1="219" x2="219" y1="49.5" y2="69.9883"/><line style="stroke:#A80036;stroke-width:1.0;" x1="144" x2="799" y1="69.9883" y2="69.9883"/><text fill="#000000" font-family="sans-serif" font-size="14" lengthAdjust="spacing" textLength="47" x="149" y="85.5234">license</text><text fill="#000000" font-family="sans-serif" font-size="14" lengthAdjust="spacing" textLength="462" x="224" y="85.5234">https://github.com/one-data-model/oneDM/blob/master/LICENSE</text><line style="stroke:#A80036;stroke-width:1.0;" x1="219" x2="219" y1="69.9883" y2="90.4766"/><line style="stroke:#A80036;stroke-width:1.0;" x1="144" x2="799" y1="90.4766" y2="90.4766"/><text fill="#000000" font-family="sans-serif" font-size="14" lengthAdjust="spacing" textLength="26" x="149" y="106.0117">title</text><text fill="#000000" font-family="sans-serif" font-size="14" lengthAdjust="spacing" textLength="60" x="224" y="106.0117">Foaming</text><line style="stroke:#A80036;stroke-width:1.0;" x1="219" x2="219" y1="90.4766" y2="110.9648"/><line style="stroke:#A80036;stroke-width:1.0;" x1="144" x2="799" y1="110.9648" y2="110.9648"/><text fill="#000000" font-family="sans-serif" font-size="14" lengthAdjust="spacing" textLength="50" x="149" y="126.5">version</text><text fill="#000000" font-family="sans-serif" font-size="14" lengthAdjust="spacing" textLength="88" x="224" y="126.5">2019-02-15</text><line style="stroke:#A80036;stroke-width:1.0;" x1="219" x2="219" y1="110.9648" y2="131.4531"/><rect fill="none" height="81.9531" rx="5" ry="5" style="stroke:#A80036;stroke-width:1.5;" width="655" x="144" y="49.5"/><rect fill="#FEFECE" height="20.4883" rx="5" ry="5" style="stroke:#FEFECE;stroke-width:1.5;" width="89" x="427" y="149.5"/><text fill="#000000" font-family="sans-serif" font-size="14" lengthAdjust="spacing" textLength="57" x="432" y="165.0352">foaming</text><text fill="#000000" font-family="sans-serif" font-size="14" lengthAdjust="spacing" textLength="0" x="511" y="165.0352"/><line style="stroke:#A80036;stroke-width:1.0;" x1="494" x2="494" y1="149.5" y2="169.9883"/><rect fill="none" height="20.4883" rx="5" ry="5" style="stroke:#A80036;stroke-width:1.5;" width="89" x="427" y="149.5"/><rect fill="#FEFECE" height="110.9297" rx="5" ry="5" style="stroke:#FEFECE;stroke-width:1.5;" width="573" x="836" y="104"/><text fill="#000000" font-family="sans-serif" font-size="14" lengthAdjust="spacing" textLength="77" x="841" y="119.5352">description</text><text fill="#000000" font-family="sans-serif" font-size="14" lengthAdjust="spacing" textLength="465" x="934" y="119.5352">This Resource describes the attributes associated with foaming. The</text><text fill="#000000" font-family="sans-serif" font-size="14" lengthAdjust="spacing" textLength="451" x="934" y="136.0234">Property "foamstrength" of the liquid is represented as an integer.</text><text fill="#000000" font-family="sans-serif" font-size="14" lengthAdjust="spacing" textLength="470" x="934" y="152.5117">The foam strength is an integer, the range of which may be enforced</text><text fill="#000000" font-family="sans-serif" font-size="14" lengthAdjust="spacing" textLength="272" x="934" y="169">by the presence of the Property "range".</text><line style="stroke:#A80036;stroke-width:1.0;" x1="929" x2="929" y1="104" y2="173.9531"/><line style="stroke:#A80036;stroke-width:1.0;" x1="836" x2="1409" y1="173.9531" y2="173.9531"/><text fill="#000000" font-family="sans-serif" font-size="14" lengthAdjust="spacing" textLength="79" x="841" y="189.4883">sdfProperty</text><text fill="#000000" font-family="sans-serif" font-size="14" lengthAdjust="spacing" textLength="0" x="946" y="189.4883"/><line style="stroke:#A80036;stroke-width:1.0;" x1="929" x2="929" y1="173.9531" y2="194.4414"/><line style="stroke:#A80036;stroke-width:1.0;" x1="836" x2="1409" y1="194.4414" y2="194.4414"/><text fill="#000000" font-family="sans-serif" font-size="14" lengthAdjust="spacing" textLength="83" x="841" y="209.9766">sdfRequired</text><text fill="#000000" font-family="sans-serif" font-size="14" lengthAdjust="spacing" textLength="0" x="946" y="209.9766"/><line style="stroke:#A80036;stroke-width:1.0;" x1="929" x2="929" y1="194.4414" y2="214.9297"/><rect fill="none" height="110.9297" rx="5" ry="5" style="stroke:#A80036;stroke-width:1.5;" width="573" x="836" y="104"/><rect fill="#FEFECE" height="61.4648" rx="5" ry="5" style="stroke:#FEFECE;stroke-width:1.5;" width="125" x="1554" y="118"/><text fill="#000000" font-family="sans-serif" font-size="14" lengthAdjust="spacing" textLength="93" x="1559" y="133.5352">foamstrength</text><text fill="#000000" font-family="sans-serif" font-size="14" lengthAdjust="spacing" textLength="0" x="1674" y="133.5352"/><line style="stroke:#A80036;stroke-width:1.0;" x1="1657" x2="1657" y1="118" y2="138.4883"/><line style="stroke:#A80036;stroke-width:1.0;" x1="1554" x2="1679" y1="138.4883" y2="138.4883"/><text fill="#000000" font-family="sans-serif" font-size="14" lengthAdjust="spacing" textLength="40" x="1559" y="154.0234">range</text><text fill="#000000" font-family="sans-serif" font-size="14" lengthAdjust="spacing" textLength="0" x="1674" y="154.0234"/><line style="stroke:#A80036;stroke-width:1.0;" x1="1657" x2="1657" y1="138.4883" y2="158.9766"/><line style="stroke:#A80036;stroke-width:1.0;" x1="1554" x2="1679" y1="158.9766" y2="158.9766"/><text fill="#000000" font-family="sans-serif" font-size="14" lengthAdjust="spacing" textLength="29" x="1559" y="174.5117">step</text><text fill="#000000" font-family="sans-serif" font-size="14" lengthAdjust="spacing" textLength="0" x="1674" y="174.5117"/><line style="stroke:#A80036;stroke-width:1.0;" x1="1657" x2="1657" y1="158.9766" y2="179.4648"/><rect fill="none" height="61.4648" rx="5" ry="5" style="stroke:#A80036;stroke-width:1.5;" width="125" x="1554" y="118"/><rect fill="#FEFECE" height="40.9766" rx="5" ry="5" style="stroke:#FEFECE;stroke-width:1.5;" width="343" x="1928.5" y="10"/><text fill="#000000" font-family="sans-serif" font-size="14" lengthAdjust="spacing" textLength="77" x="1933.5" y="25.5352">description</text><text fill="#000000" font-family="sans-serif" font-size="14" lengthAdjust="spacing" textLength="246" x="2020.5" y="25.5352">The desired foaminess of the liquid.</text><line style="stroke:#A80036;stroke-width:1.0;" x1="2015.5" x2="2015.5" y1="10" y2="30.4883"/><line style="stroke:#A80036;stroke-width:1.0;" x1="1928.5" x2="2271.5" y1="30.4883" y2="30.4883"/><text fill="#000000" font-family="sans-serif" font-size="14" lengthAdjust="spacing" textLength="29" x="1933.5" y="46.0234">type</text><text fill="#000000" font-family="sans-serif" font-size="14" lengthAdjust="spacing" textLength="49" x="2020.5" y="46.0234">integer</text><line style="stroke:#A80036;stroke-width:1.0;" x1="2015.5" x2="2015.5" y1="30.4883" y2="50.9766"/><rect fill="none" height="40.9766" rx="5" ry="5" style="stroke:#A80036;stroke-width:1.5;" width="343" x="1928.5" y="10"/><rect fill="#FEFECE" height="155.9063" rx="5" ry="5" style="stroke:#FEFECE;stroke-width:1.5;" width="552" x="1824" y="69.5"/><text fill="#000000" font-family="sans-serif" font-size="14" lengthAdjust="spacing" textLength="29" x="1829" y="85.0352">type</text><text fill="#000000" font-family="sans-serif" font-size="14" lengthAdjust="spacing" textLength="35" x="1916" y="85.0352">array</text><line style="stroke:#A80036;stroke-width:1.0;" x1="1911" x2="1911" y1="69.5" y2="89.9883"/><line style="stroke:#A80036;stroke-width:1.0;" x1="1824" x2="2376" y1="89.9883" y2="89.9883"/><text fill="#000000" font-family="sans-serif" font-size="14" lengthAdjust="spacing" textLength="77" x="1829" y="105.5234">description</text><text fill="#000000" font-family="sans-serif" font-size="14" lengthAdjust="spacing" textLength="455" x="1916" y="105.5234">The valid range for the Property in the Resource as an integer. The</text><text fill="#000000" font-family="sans-serif" font-size="14" lengthAdjust="spacing" textLength="439" x="1916" y="122.0117">first value in the array is the minimum value, the second value in</text><text fill="#000000" font-family="sans-serif" font-size="14" lengthAdjust="spacing" textLength="219" x="1916" y="138.5">the array is the maximum value.</text><line style="stroke:#A80036;stroke-width:1.0;" x1="1911" x2="1911" y1="89.9883" y2="143.4531"/><line style="stroke:#A80036;stroke-width:1.0;" x1="1824" x2="2376" y1="143.4531" y2="143.4531"/><text fill="#000000" font-family="sans-serif" font-size="14" lengthAdjust="spacing" textLength="55" x="1829" y="158.9883">writable</text><text fill="#000000" font-family="sans-serif" font-size="14" lengthAdjust="spacing" textLength="48" x="1916" y="158.9883">☐ false</text><line style="stroke:#A80036;stroke-width:1.0;" x1="1911" x2="1911" y1="143.4531" y2="163.9414"/><line style="stroke:#A80036;stroke-width:1.0;" x1="1824" x2="2376" y1="163.9414" y2="163.9414"/><text fill="#000000" font-family="sans-serif" font-size="14" lengthAdjust="spacing" textLength="63" x="1829" y="179.4766">minItems</text><text fill="#000000" font-family="sans-serif" font-size="14" lengthAdjust="spacing" textLength="9" x="1916" y="179.4766">2</text><line style="stroke:#A80036;stroke-width:1.0;" x1="1911" x2="1911" y1="163.9414" y2="184.4297"/><line style="stroke:#A80036;stroke-width:1.0;" x1="1824" x2="2376" y1="184.4297" y2="184.4297"/><text fill="#000000" font-family="sans-serif" font-size="14" lengthAdjust="spacing" textLength="67" x="1829" y="199.9648">maxItems</text><text fill="#000000" font-family="sans-serif" font-size="14" lengthAdjust="spacing" textLength="9" x="1916" y="199.9648">2</text><line style="stroke:#A80036;stroke-width:1.0;" x1="1911" x2="1911" y1="184.4297" y2="204.918"/><line style="stroke:#A80036;stroke-width:1.0;" x1="1824" x2="2376" y1="204.918" y2="204.918"/><text fill="#000000" font-family="sans-serif" font-size="14" lengthAdjust="spacing" textLength="37" x="1829" y="220.4531">items</text><text fill="#000000" font-family="sans-serif" font-size="14" lengthAdjust="spacing" textLength="0" x="1928" y="220.4531"/><line style="stroke:#A80036;stroke-width:1.0;" x1="1911" x2="1911" y1="204.918" y2="225.4063"/><rect fill="none" height="155.9063" rx="5" ry="5" style="stroke:#A80036;stroke-width:1.5;" width="552" x="1824" y="69.5"/><rect fill="#FEFECE" height="20.4883" rx="5" ry="5" style="stroke:#FEFECE;stroke-width:1.5;" width="98" x="2413" y="202.5"/><text fill="#000000" font-family="sans-serif" font-size="14" lengthAdjust="spacing" textLength="29" x="2418" y="218.0352">type</text><text fill="#000000" font-family="sans-serif" font-size="14" lengthAdjust="spacing" textLength="49" x="2457" y="218.0352">integer</text><line style="stroke:#A80036;stroke-width:1.0;" x1="2452" x2="2452" y1="202.5" y2="222.9883"/><rect fill="none" height="20.4883" rx="5" ry="5" style="stroke:#A80036;stroke-width:1.5;" width="98" x="2413" y="202.5"/><rect fill="#FEFECE" height="94.4414" rx="5" ry="5" style="stroke:#FEFECE;stroke-width:1.5;" width="549" x="1825.5" y="243.5"/><text fill="#000000" font-family="sans-serif" font-size="14" lengthAdjust="spacing" textLength="77" x="1830.5" y="259.0352">description</text><text fill="#000000" font-family="sans-serif" font-size="14" lengthAdjust="spacing" textLength="448" x="1917.5" y="259.0352">Step value across the defined range when the range is an integer.</text><text fill="#000000" font-family="sans-serif" font-size="14" lengthAdjust="spacing" textLength="449" x="1917.5" y="275.5234">This is the increment for valid values across the range; so if range</text><text fill="#000000" font-family="sans-serif" font-size="14" lengthAdjust="spacing" textLength="376" x="1917.5" y="292.0117">is 0..10 and step is 2 then valid values are 0,2,4,6,8,10.</text><line style="stroke:#A80036;stroke-width:1.0;" x1="1912.5" x2="1912.5" y1="243.5" y2="296.9648"/><line style="stroke:#A80036;stroke-width:1.0;" x1="1825.5" x2="2374.5" y1="296.9648" y2="296.9648"/><text fill="#000000" font-family="sans-serif" font-size="14" lengthAdjust="spacing" textLength="55" x="1830.5" y="312.5">writable</text><text fill="#000000" font-family="sans-serif" font-size="14" lengthAdjust="spacing" textLength="48" x="1917.5" y="312.5">☐ false</text><line style="stroke:#A80036;stroke-width:1.0;" x1="1912.5" x2="1912.5" y1="296.9648" y2="317.4531"/><line style="stroke:#A80036;stroke-width:1.0;" x1="1825.5" x2="2374.5" y1="317.4531" y2="317.4531"/><text fill="#000000" font-family="sans-serif" font-size="14" lengthAdjust="spacing" textLength="29" x="1830.5" y="332.9883">type</text><text fill="#000000" font-family="sans-serif" font-size="14" lengthAdjust="spacing" textLength="49" x="1917.5" y="332.9883">integer</text><line style="stroke:#A80036;stroke-width:1.0;" x1="1912.5" x2="1912.5" y1="317.4531" y2="337.9414"/><rect fill="none" height="94.4414" rx="5" ry="5" style="stroke:#A80036;stroke-width:1.5;" width="549" x="1825.5" y="243.5"/><rect fill="#FEFECE" height="20.4883" rx="5" ry="5" style="stroke:#FEFECE;stroke-width:1.5;" width="341" x="1446" y="197.5"/><text fill="#000000" font-family="sans-serif" font-size="14" lengthAdjust="spacing" textLength="331" x="1451" y="213.0352">#/sdfObject/foaming/sdfProperty/foamstrength</text><rect fill="none" height="20.4883" rx="5" ry="5" style="stroke:#A80036;stroke-width:1.5;" width="341" x="1446" y="197.5"/><path d="M95,114.5 L108,114.5 C117.3442,114.5 126.8208,114.4198 136.3833,114.2688 " fill="none" style="stroke:#A80036;stroke-width:1.0;stroke-dasharray:3.0,3.0;"/><path d="M136.4378,117.3434 L138.6892,114.2279 L136.3288,111.1942 L144.0697,114.1326 L136.4378,117.3434 " fill="#A80036" style="stroke:#A80036;stroke-width:1.0;"/><ellipse cx="95" cy="114.5" fill="#A80036" rx="3" ry="3" style="stroke:#A80036;stroke-width:1.0;stroke-dasharray:3.0,3.0;"/><path d="M1668,127.5 L1681,127.5 C1751.1856,127.5 1756.4195,79.4446 1824,60.5 C1854.8797,51.8436 1888.3564,45.6612 1920.9843,41.2513 " fill="none" style="stroke:#A80036;stroke-width:1.0;stroke-dasharray:3.0,3.0;"/><path d="M1921.395,44.3829 L1923.333,40.9432 L1920.5736,38.1196 L1928.8133,40.2245 L1921.395,44.3829 " fill="#A80036" style="stroke:#A80036;stroke-width:1.0;"/><ellipse cx="1668" cy="127.5" fill="#A80036" rx="3" ry="3" style="stroke:#A80036;stroke-width:1.0;stroke-dasharray:3.0,3.0;"/><path d="M2364,212.5 L2377,212.5 C2386.2605,212.5 2396.0919,212.5 2405.6496,212.5 " fill="none" style="stroke:#A80036;stroke-width:1.0;stroke-dasharray:3.0,3.0;"/><path d="M2405.6496,215.5361 L2407.9267,212.5 L2405.6496,209.4639 L2413.2398,212.5 L2405.6496,215.5361 " fill="#A80036" style="stroke:#A80036;stroke-width:1.0;"/><ellipse cx="2364" cy="212.5" fill="#A80036" rx="3" ry="3" style="stroke:#A80036;stroke-width:1.0;stroke-dasharray:3.0,3.0;"/><path d="M1668,147.5 L1681,147.5 C1724.8758,147.5 1771.3391,147.5 1816.7276,147.5 " fill="none" style="stroke:#A80036;stroke-width:1.0;stroke-dasharray:3.0,3.0;"/><path d="M1816.7276,150.5279 L1818.9985,147.5 L1816.7276,144.4721 L1824.2974,147.5 L1816.7276,150.5279 " fill="#A80036" style="stroke:#A80036;stroke-width:1.0;"/><ellipse cx="1668" cy="147.5" fill="#A80036" rx="3" ry="3" style="stroke:#A80036;stroke-width:1.0;stroke-dasharray:3.0,3.0;"/><path d="M1668,168.5 L1681,168.5 C1729.3792,168.5 1746.6489,163.3876 1788,188.5 C1810.1897,201.9757 1801.9172,220.85 1824,234.5 C1826.8608,236.2683 1829.7671,237.982 1832.7146,239.6428 " fill="none" style="stroke:#A80036;stroke-width:1.0;stroke-dasharray:3.0,3.0;"/><path d="M1831.2027,242.4226 L1834.7995,240.7767 L1834.2264,236.8629 L1839.6643,243.4225 L1831.2027,242.4226 " fill="#A80036" style="stroke:#A80036;stroke-width:1.0;"/><ellipse cx="1668" cy="168.5" fill="#A80036" rx="3" ry="3" style="stroke:#A80036;stroke-width:1.0;stroke-dasharray:3.0,3.0;"/><path d="M1397,159.5 L1410,159.5 C1455.496,159.5 1506.5638,156.7915 1546.4712,154.0624 " fill="none" style="stroke:#A80036;stroke-width:1.0;stroke-dasharray:3.0,3.0;"/><path d="M1546.6893,157.1935 L1548.8195,153.8989 L1546.2531,150.9313 L1554.2989,153.5172 L1546.6893,157.1935 " fill="#A80036" style="stroke:#A80036;stroke-width:1.0;"/><ellipse cx="1397" cy="159.5" fill="#A80036" rx="3" ry="3" style="stroke:#A80036;stroke-width:1.0;stroke-dasharray:3.0,3.0;"/><path d="M1397,196.5 L1410,196.5 C1424.4868,196.5 1439.5386,196.7746 1454.615,197.2371 " fill="none" style="stroke:#A80036;stroke-width:1.0;stroke-dasharray:3.0,3.0;"/><path d="M1454.5116,200.3904 L1456.9801,197.3146 L1454.7184,194.0837 L1462.4985,197.4956 L1454.5116,200.3904 " fill="#A80036" style="stroke:#A80036;stroke-width:1.0;"/><ellipse cx="1397" cy="196.5" fill="#A80036" rx="3" ry="3" style="stroke:#A80036;stroke-width:1.0;stroke-dasharray:3.0,3.0;"/><path d="M505,159.5 L518,159.5 C619.1766,159.5 729.8866,159.5 828.5713,159.5 " fill="none" style="stroke:#A80036;stroke-width:1.0;stroke-dasharray:3.0,3.0;"/><path d="M828.5713,162.5752 L830.8777,159.5 L828.5713,156.4248 L836.2592,159.5 L828.5713,162.5752 " fill="#A80036" style="stroke:#A80036;stroke-width:1.0;"/><ellipse cx="505" cy="159.5" fill="#A80036" rx="3" ry="3" style="stroke:#A80036;stroke-width:1.0;stroke-dasharray:3.0,3.0;"/><path d="M95,135.5 L108,135.5 C124.1536,135.5 127.924,138.9191 144,140.5 C241.2095,150.0593 355.1846,155.3444 419.6636,157.7874 " fill="none" style="stroke:#A80036;stroke-width:1.0;stroke-dasharray:3.0,3.0;"/><path d="M419.55,160.8328 L421.9476,157.8726 L419.7771,154.742 L427.277,158.0714 L419.55,160.8328 " fill="#A80036" style="stroke:#A80036;stroke-width:1.0;"/><ellipse cx="95" cy="135.5" fill="#A80036" rx="3" ry="3" style="stroke:#A80036;stroke-width:1.0;stroke-dasharray:3.0,3.0;"/><!--MD5=[999c75b95af9fd0f780ee4281ed49241]
@startjson
{
  "info": {
    "copyright": "copyright 2016-2017, 2019 Open Connectivity Foundation, Inc. All rights reserved.",
    "license": "https://github.com/one-data-model/oneDM/blob/master/LICENSE",
    "title": "Foaming",
    "version": "2019-02-15"
  },
  "sdfObject": {
    "foaming": {
      "description": "This Resource describes the attributes associated with foaming. The\\nProperty \"foamstrength\" of the liquid is represented as an integer.\\nThe foam strength is an integer, the range of which may be enforced\\nby the presence of the Property \"range\".",
      "sdfProperty": {
        "foamstrength": {
          "description": "The desired foaminess of the liquid.",
          "type": "integer"
        },
        "range": {
          "type": "array",
          "description": "The valid range for the Property in the Resource as an integer. The\\nfirst value in the array is the minimum value, the second value in\\nthe array is the maximum value.",
          "writable": false,
          "minItems": 2,
          "maxItems": 2,
          "items": {
            "type": "integer"
          }
        },
        "step": {
          "description": "Step value across the defined range when the range is an integer. \\nThis is the increment for valid values across the range; so if range\\nis 0..10 and step is 2 then valid values are 0,2,4,6,8,10.",
          "writable": false,
          "type": "integer"
        }
      },
      "sdfRequired": [
        "#/sdfObject/foaming/sdfProperty/foamstrength"
      ]
    }
  }
}
@endjson

PlantUML version 1.2021.2(Sun Mar 07 13:10:27 EET 2021)
(GPL source distribution)
Java Runtime: OpenJDK Runtime Environment
JVM: OpenJDK 64-Bit Server VM
Default Encoding: UTF-8
Language: en
Country: FI
--></g></svg>