<?xml version="1.0" encoding="UTF-8" standalone="no"?><svg xmlns="http://www.w3.org/2000/svg" xmlns:xlink="http://www.w3.org/1999/xlink" contentScriptType="application/ecmascript" contentStyleType="text/css" height="195px" preserveAspectRatio="none" style="width:2610px;height:195px;" version="1.1" viewBox="0 0 2610 195" width="2610px" zoomAndPan="magnify"><defs/><g><rect fill="#FEFECE" height="40.9766" rx="5" ry="5" style="stroke:#FEFECE;stroke-width:1.5;" width="97" x="10" y="65.5"/><text fill="#000000" font-family="sans-serif" font-size="14" lengthAdjust="spacing" textLength="27" x="15" y="81.0352">info</text><text fill="#000000" font-family="sans-serif" font-size="14" lengthAdjust="spacing" textLength="0" x="102" y="81.0352"/><line style="stroke:#A80036;stroke-width:1.0;" x1="85" x2="85" y1="65.5" y2="85.9883"/><line style="stroke:#A80036;stroke-width:1.0;" x1="10" x2="107" y1="85.9883" y2="85.9883"/><text fill="#000000" font-family="sans-serif" font-size="14" lengthAdjust="spacing" textLength="65" x="15" y="101.5234">sdfObject</text><text fill="#000000" font-family="sans-serif" font-size="14" lengthAdjust="spacing" textLength="0" x="102" y="101.5234"/><line style="stroke:#A80036;stroke-width:1.0;" x1="85" x2="85" y1="85.9883" y2="106.4766"/><rect fill="none" height="40.9766" rx="5" ry="5" style="stroke:#A80036;stroke-width:1.5;" width="97" x="10" y="65.5"/><rect fill="#FEFECE" height="81.9531" rx="5" ry="5" style="stroke:#FEFECE;stroke-width:1.5;" width="614" x="144" y="10"/><text fill="#000000" font-family="sans-serif" font-size="14" lengthAdjust="spacing" textLength="65" x="149" y="25.5352">copyright</text><text fill="#000000" font-family="sans-serif" font-size="14" lengthAdjust="spacing" textLength="529" x="224" y="25.5352">Copyright 2016-2019 Open Connectivity Foundation, Inc. All rights reserved.</text><line style="stroke:#A80036;stroke-width:1.0;" x1="219" x2="219" y1="10" y2="30.4883"/><line style="stroke:#A80036;stroke-width:1.0;" x1="144" x2="758" y1="30.4883" y2="30.4883"/><text fill="#000000" font-family="sans-serif" font-size="14" lengthAdjust="spacing" textLength="47" x="149" y="46.0234">license</text><text fill="#000000" font-family="sans-serif" font-size="14" lengthAdjust="spacing" textLength="462" x="224" y="46.0234">https://github.com/one-data-model/oneDM/blob/master/LICENSE</text><line style="stroke:#A80036;stroke-width:1.0;" x1="219" x2="219" y1="30.4883" y2="50.9766"/><line style="stroke:#A80036;stroke-width:1.0;" x1="144" x2="758" y1="50.9766" y2="50.9766"/><text fill="#000000" font-family="sans-serif" font-size="14" lengthAdjust="spacing" textLength="26" x="149" y="66.5117">title</text><text fill="#000000" font-family="sans-serif" font-size="14" lengthAdjust="spacing" textLength="296" x="224" y="66.5117">Context Sample Location for Glucose Meter</text><line style="stroke:#A80036;stroke-width:1.0;" x1="219" x2="219" y1="50.9766" y2="71.4648"/><line style="stroke:#A80036;stroke-width:1.0;" x1="144" x2="758" y1="71.4648" y2="71.4648"/><text fill="#000000" font-family="sans-serif" font-size="14" lengthAdjust="spacing" textLength="50" x="149" y="87">version</text><text fill="#000000" font-family="sans-serif" font-size="14" lengthAdjust="spacing" textLength="88" x="224" y="87">2019-03-22</text><line style="stroke:#A80036;stroke-width:1.0;" x1="219" x2="219" y1="71.4648" y2="91.9531"/><rect fill="none" height="81.9531" rx="5" ry="5" style="stroke:#A80036;stroke-width:1.5;" width="614" x="144" y="10"/><rect fill="#FEFECE" height="20.4883" rx="5" ry="5" style="stroke:#FEFECE;stroke-width:1.5;" width="193" x="354.5" y="110"/><text fill="#000000" font-family="sans-serif" font-size="14" lengthAdjust="spacing" textLength="161" x="359.5" y="125.5352">glucose.samplelocation</text><text fill="#000000" font-family="sans-serif" font-size="14" lengthAdjust="spacing" textLength="0" x="542.5" y="125.5352"/><line style="stroke:#A80036;stroke-width:1.0;" x1="525.5" x2="525.5" y1="110" y2="130.4883"/><rect fill="none" height="20.4883" rx="5" ry="5" style="stroke:#A80036;stroke-width:1.5;" width="193" x="354.5" y="110"/><rect fill="#FEFECE" height="127.418" rx="5" ry="5" style="stroke:#FEFECE;stroke-width:1.5;" width="586" x="795" y="56.5"/><text fill="#000000" font-family="sans-serif" font-size="14" lengthAdjust="spacing" textLength="77" x="800" y="72.0352">description</text><text fill="#000000" font-family="sans-serif" font-size="14" lengthAdjust="spacing" textLength="483" x="893" y="72.0352">This Resource describes the Properties associated with context sample</text><text fill="#000000" font-family="sans-serif" font-size="14" lengthAdjust="spacing" textLength="412" x="893" y="88.5234">Location. AST means Alternative Site Test specifying that the</text><text fill="#000000" font-family="sans-serif" font-size="14" lengthAdjust="spacing" textLength="461" x="893" y="105.0117">location of test performed was from an alternative site on the body.</text><text fill="#000000" font-family="sans-serif" font-size="14" lengthAdjust="spacing" textLength="466" x="893" y="121.5">The samplelocation Property is a read-only value that is provided by</text><text fill="#000000" font-family="sans-serif" font-size="14" lengthAdjust="spacing" textLength="73" x="893" y="137.9883">the Server.</text><line style="stroke:#A80036;stroke-width:1.0;" x1="888" x2="888" y1="56.5" y2="142.9414"/><line style="stroke:#A80036;stroke-width:1.0;" x1="795" x2="1381" y1="142.9414" y2="142.9414"/><text fill="#000000" font-family="sans-serif" font-size="14" lengthAdjust="spacing" textLength="79" x="800" y="158.4766">sdfProperty</text><text fill="#000000" font-family="sans-serif" font-size="14" lengthAdjust="spacing" textLength="0" x="905" y="158.4766"/><line style="stroke:#A80036;stroke-width:1.0;" x1="888" x2="888" y1="142.9414" y2="163.4297"/><line style="stroke:#A80036;stroke-width:1.0;" x1="795" x2="1381" y1="163.4297" y2="163.4297"/><text fill="#000000" font-family="sans-serif" font-size="14" lengthAdjust="spacing" textLength="83" x="800" y="178.9648">sdfRequired</text><text fill="#000000" font-family="sans-serif" font-size="14" lengthAdjust="spacing" textLength="0" x="905" y="178.9648"/><line style="stroke:#A80036;stroke-width:1.0;" x1="888" x2="888" y1="163.4297" y2="183.918"/><rect fill="none" height="127.418" rx="5" ry="5" style="stroke:#A80036;stroke-width:1.5;" width="586" x="795" y="56.5"/><rect fill="#FEFECE" height="20.4883" rx="5" ry="5" style="stroke:#FEFECE;stroke-width:1.5;" width="136" x="1578" y="109"/><text fill="#000000" font-family="sans-serif" font-size="14" lengthAdjust="spacing" textLength="104" x="1583" y="124.5352">samplelocation</text><text fill="#000000" font-family="sans-serif" font-size="14" lengthAdjust="spacing" textLength="0" x="1709" y="124.5352"/><line style="stroke:#A80036;stroke-width:1.0;" x1="1692" x2="1692" y1="109" y2="129.4883"/><rect fill="none" height="20.4883" rx="5" ry="5" style="stroke:#A80036;stroke-width:1.5;" width="136" x="1578" y="109"/><rect fill="#FEFECE" height="81.9531" rx="5" ry="5" style="stroke:#FEFECE;stroke-width:1.5;" width="562" x="1911" y="78"/><text fill="#000000" font-family="sans-serif" font-size="14" lengthAdjust="spacing" textLength="77" x="1916" y="93.5352">description</text><text fill="#000000" font-family="sans-serif" font-size="14" lengthAdjust="spacing" textLength="465" x="2003" y="93.5352">The possible blood locations where the blood sample may be taken.</text><line style="stroke:#A80036;stroke-width:1.0;" x1="1998" x2="1998" y1="78" y2="98.4883"/><line style="stroke:#A80036;stroke-width:1.0;" x1="1911" x2="2473" y1="98.4883" y2="98.4883"/><text fill="#000000" font-family="sans-serif" font-size="14" lengthAdjust="spacing" textLength="39" x="1916" y="114.0234">enum</text><text fill="#000000" font-family="sans-serif" font-size="14" lengthAdjust="spacing" textLength="0" x="2015" y="114.0234"/><line style="stroke:#A80036;stroke-width:1.0;" x1="1998" x2="1998" y1="98.4883" y2="118.9766"/><line style="stroke:#A80036;stroke-width:1.0;" x1="1911" x2="2473" y1="118.9766" y2="118.9766"/><text fill="#000000" font-family="sans-serif" font-size="14" lengthAdjust="spacing" textLength="55" x="1916" y="134.5117">writable</text><text fill="#000000" font-family="sans-serif" font-size="14" lengthAdjust="spacing" textLength="48" x="2003" y="134.5117">☐ false</text><line style="stroke:#A80036;stroke-width:1.0;" x1="1998" x2="1998" y1="118.9766" y2="139.4648"/><line style="stroke:#A80036;stroke-width:1.0;" x1="1911" x2="2473" y1="139.4648" y2="139.4648"/><text fill="#000000" font-family="sans-serif" font-size="14" lengthAdjust="spacing" textLength="29" x="1916" y="155">type</text><text fill="#000000" font-family="sans-serif" font-size="14" lengthAdjust="spacing" textLength="40" x="2003" y="155">string</text><line style="stroke:#A80036;stroke-width:1.0;" x1="1998" x2="1998" y1="139.4648" y2="159.9531"/><rect fill="none" height="81.9531" rx="5" ry="5" style="stroke:#A80036;stroke-width:1.5;" width="562" x="1911" y="78"/><rect fill="#FEFECE" height="81.9531" rx="5" ry="5" style="stroke:#FEFECE;stroke-width:1.5;" width="88" x="2510" y="67"/><text fill="#000000" font-family="sans-serif" font-size="14" lengthAdjust="spacing" textLength="41" x="2515" y="82.5352">finger</text><line style="stroke:#A80036;stroke-width:1.0;" x1="2510" x2="2598" y1="87.4883" y2="87.4883"/><text fill="#000000" font-family="sans-serif" font-size="14" lengthAdjust="spacing" textLength="20" x="2515" y="103.0234">ast</text><line style="stroke:#A80036;stroke-width:1.0;" x1="2510" x2="2598" y1="107.9766" y2="107.9766"/><text fill="#000000" font-family="sans-serif" font-size="14" lengthAdjust="spacing" textLength="52" x="2515" y="123.5117">earlobe</text><line style="stroke:#A80036;stroke-width:1.0;" x1="2510" x2="2598" y1="128.4648" y2="128.4648"/><text fill="#000000" font-family="sans-serif" font-size="14" lengthAdjust="spacing" textLength="78" x="2515" y="144">ctrlsolution</text><rect fill="none" height="81.9531" rx="5" ry="5" style="stroke:#A80036;stroke-width:1.5;" width="88" x="2510" y="67"/><rect fill="#FEFECE" height="20.4883" rx="5" ry="5" style="stroke:#FEFECE;stroke-width:1.5;" width="456" x="1418" y="152"/><text fill="#000000" font-family="sans-serif" font-size="14" lengthAdjust="spacing" textLength="446" x="1423" y="167.5352">#/sdfObject/glucose.samplelocation/sdfProperty/samplelocation</text><rect fill="none" height="20.4883" rx="5" ry="5" style="stroke:#A80036;stroke-width:1.5;" width="456" x="1418" y="152"/><path d="M95,75 L108,75 C117.4068,75 126.9554,74.9088 136.5926,74.7376 " fill="none" style="stroke:#A80036;stroke-width:1.0;stroke-dasharray:3.0,3.0;"/><path d="M136.6543,77.8363 L138.9166,74.6914 L136.5309,71.6389 L144.3394,74.5834 L136.6543,77.8363 " fill="#A80036" style="stroke:#A80036;stroke-width:1.0;"/><ellipse cx="95" cy="75" fill="#A80036" rx="3" ry="3" style="stroke:#A80036;stroke-width:1.0;stroke-dasharray:3.0,3.0;"/><path d="M2461,108 L2474,108 C2483.2571,108 2493.1205,108 2502.6372,108 " fill="none" style="stroke:#A80036;stroke-width:1.0;stroke-dasharray:3.0,3.0;"/><path d="M2502.6372,111.0158 L2504.899,108 L2502.6372,104.9842 L2510.1767,108 L2502.6372,111.0158 " fill="#A80036" style="stroke:#A80036;stroke-width:1.0;"/><ellipse cx="2461" cy="108" fill="#A80036" rx="3" ry="3" style="stroke:#A80036;stroke-width:1.0;stroke-dasharray:3.0,3.0;"/><path d="M1702.5,119 L1715.5,119 C1776.4478,119 1841.7853,119 1903.9246,119 " fill="none" style="stroke:#A80036;stroke-width:1.0;stroke-dasharray:3.0,3.0;"/><path d="M1903.9246,122.0246 L1906.1931,119 L1903.9246,115.9754 L1911.4862,119 L1903.9246,122.0246 " fill="#A80036" style="stroke:#A80036;stroke-width:1.0;"/><ellipse cx="1702.5" cy="119" fill="#A80036" rx="3" ry="3" style="stroke:#A80036;stroke-width:1.0;stroke-dasharray:3.0,3.0;"/><path d="M1369,119 L1382,119 C1445.6592,119 1517.9693,119 1570.7155,119 " fill="none" style="stroke:#A80036;stroke-width:1.0;stroke-dasharray:3.0,3.0;"/><path d="M1570.7155,122.0548 L1573.0065,119 L1570.7155,115.9452 L1578.3524,119 L1570.7155,122.0548 " fill="#A80036" style="stroke:#A80036;stroke-width:1.0;"/><ellipse cx="1369" cy="119" fill="#A80036" rx="3" ry="3" style="stroke:#A80036;stroke-width:1.0;stroke-dasharray:3.0,3.0;"/><path d="M1369,162 L1382,162 C1391.3852,162 1400.9584,162 1410.6292,162 " fill="none" style="stroke:#A80036;stroke-width:1.0;stroke-dasharray:3.0,3.0;"/><path d="M1410.6292,165.11 L1412.9617,162 L1410.6292,158.89 L1418.4043,162 L1410.6292,165.11 " fill="#A80036" style="stroke:#A80036;stroke-width:1.0;"/><ellipse cx="1369" cy="162" fill="#A80036" rx="3" ry="3" style="stroke:#A80036;stroke-width:1.0;stroke-dasharray:3.0,3.0;"/><path d="M536.5,120 L549.5,120 C626.5949,120 709.9041,120 787.4058,120 " fill="none" style="stroke:#A80036;stroke-width:1.0;stroke-dasharray:3.0,3.0;"/><path d="M787.4058,123.1856 L789.795,120 L787.4058,116.8144 L795.3698,120 L787.4058,123.1856 " fill="#A80036" style="stroke:#A80036;stroke-width:1.0;"/><ellipse cx="536.5" cy="120" fill="#A80036" rx="3" ry="3" style="stroke:#A80036;stroke-width:1.0;stroke-dasharray:3.0,3.0;"/><path d="M95,96 L108,96 C124.1536,96 127.927,99.388 144,101 C211.5326,107.773 287.6946,112.5084 347.203,115.5577 " fill="none" style="stroke:#A80036;stroke-width:1.0;stroke-dasharray:3.0,3.0;"/><path d="M347.0502,118.5746 L349.4657,115.6723 L347.3558,112.5409 L354.7452,115.9398 L347.0502,118.5746 " fill="#A80036" style="stroke:#A80036;stroke-width:1.0;"/><ellipse cx="95" cy="96" fill="#A80036" rx="3" ry="3" style="stroke:#A80036;stroke-width:1.0;stroke-dasharray:3.0,3.0;"/><!--MD5=[ddc18518f50d5da667b0cf4c2a3e5e16]
@startjson
{
  "info": {
    "copyright": "Copyright 2016-2019 Open Connectivity Foundation, Inc. All rights reserved.",
    "license": "https://github.com/one-data-model/oneDM/blob/master/LICENSE",
    "title": "Context Sample Location for Glucose Meter",
    "version": "2019-03-22"
  },
  "sdfObject": {
    "glucose.samplelocation": {
      "description": "This Resource describes the Properties associated with context sample\\nLocation. AST means Alternative Site Test specifying that the\\nlocation of test performed was from an alternative site on the body.\\nThe samplelocation Property is a read-only value that is provided by\\nthe Server.",
      "sdfProperty": {
        "samplelocation": {
          "description": "The possible blood locations where the blood sample may be taken.",
          "enum": [
            "finger",
            "ast",
            "earlobe",
            "ctrlsolution"
          ],
          "writable": false,
          "type": "string"
        }
      },
      "sdfRequired": [
        "#/sdfObject/glucose.samplelocation/sdfProperty/samplelocation"
      ]
    }
  }
}
@endjson

PlantUML version 1.2021.2(Sun Mar 07 13:10:27 EET 2021)
(GPL source distribution)
Java Runtime: OpenJDK Runtime Environment
JVM: OpenJDK 64-Bit Server VM
Default Encoding: UTF-8
Language: en
Country: FI
--></g></svg>