<?xml version="1.0" encoding="UTF-8" standalone="no"?><svg xmlns="http://www.w3.org/2000/svg" xmlns:xlink="http://www.w3.org/1999/xlink" contentScriptType="application/ecmascript" contentStyleType="text/css" height="1107px" preserveAspectRatio="none" style="width:2264px;height:1107px;" version="1.1" viewBox="0 0 2264 1107" width="2264px" zoomAndPan="magnify"><defs/><g><rect fill="#FEFECE" height="40.9766" rx="5" ry="5" style="stroke:#FEFECE;stroke-width:1.5;" width="97" x="10" y="357"/><text fill="#000000" font-family="sans-serif" font-size="14" lengthAdjust="spacing" textLength="27" x="15" y="372.5352">info</text><text fill="#000000" font-family="sans-serif" font-size="14" lengthAdjust="spacing" textLength="0" x="102" y="372.5352"/><line style="stroke:#A80036;stroke-width:1.0;" x1="85" x2="85" y1="357" y2="377.4883"/><line style="stroke:#A80036;stroke-width:1.0;" x1="10" x2="107" y1="377.4883" y2="377.4883"/><text fill="#000000" font-family="sans-serif" font-size="14" lengthAdjust="spacing" textLength="65" x="15" y="393.0234">sdfObject</text><text fill="#000000" font-family="sans-serif" font-size="14" lengthAdjust="spacing" textLength="0" x="102" y="393.0234"/><line style="stroke:#A80036;stroke-width:1.0;" x1="85" x2="85" y1="377.4883" y2="397.9766"/><rect fill="none" height="40.9766" rx="5" ry="5" style="stroke:#A80036;stroke-width:1.5;" width="97" x="10" y="357"/><rect fill="#FEFECE" height="81.9531" rx="5" ry="5" style="stroke:#FEFECE;stroke-width:1.5;" width="547" x="144" y="301.5"/><text fill="#000000" font-family="sans-serif" font-size="14" lengthAdjust="spacing" textLength="26" x="149" y="317.0352">title</text><text fill="#000000" font-family="sans-serif" font-size="14" lengthAdjust="spacing" textLength="255" x="224" y="317.0352">OMA LwM2M Colour (Object ID 3335)</text><line style="stroke:#A80036;stroke-width:1.0;" x1="219" x2="219" y1="301.5" y2="321.9883"/><line style="stroke:#A80036;stroke-width:1.0;" x1="144" x2="691" y1="321.9883" y2="321.9883"/><text fill="#000000" font-family="sans-serif" font-size="14" lengthAdjust="spacing" textLength="50" x="149" y="337.5234">version</text><text fill="#000000" font-family="sans-serif" font-size="14" lengthAdjust="spacing" textLength="88" x="224" y="337.5234">2021-02-11</text><line style="stroke:#A80036;stroke-width:1.0;" x1="219" x2="219" y1="321.9883" y2="342.4766"/><line style="stroke:#A80036;stroke-width:1.0;" x1="144" x2="691" y1="342.4766" y2="342.4766"/><text fill="#000000" font-family="sans-serif" font-size="14" lengthAdjust="spacing" textLength="65" x="149" y="358.0117">copyright</text><text fill="#000000" font-family="sans-serif" font-size="14" lengthAdjust="spacing" textLength="208" x="224" y="358.0117">Copyright (c) 2018-2020 IPSO</text><line style="stroke:#A80036;stroke-width:1.0;" x1="219" x2="219" y1="342.4766" y2="362.9648"/><line style="stroke:#A80036;stroke-width:1.0;" x1="144" x2="691" y1="362.9648" y2="362.9648"/><text fill="#000000" font-family="sans-serif" font-size="14" lengthAdjust="spacing" textLength="47" x="149" y="378.5">license</text><text fill="#000000" font-family="sans-serif" font-size="14" lengthAdjust="spacing" textLength="462" x="224" y="378.5">https://github.com/one-data-model/oneDM/blob/master/LICENSE</text><line style="stroke:#A80036;stroke-width:1.0;" x1="219" x2="219" y1="362.9648" y2="383.4531"/><rect fill="none" height="81.9531" rx="5" ry="5" style="stroke:#A80036;stroke-width:1.5;" width="547" x="144" y="301.5"/><rect fill="#FEFECE" height="20.4883" rx="5" ry="5" style="stroke:#FEFECE;stroke-width:1.5;" width="79" x="378" y="401.5"/><text fill="#000000" font-family="sans-serif" font-size="14" lengthAdjust="spacing" textLength="47" x="383" y="417.0352">Colour</text><text fill="#000000" font-family="sans-serif" font-size="14" lengthAdjust="spacing" textLength="0" x="452" y="417.0352"/><line style="stroke:#A80036;stroke-width:1.0;" x1="435" x2="435" y1="401.5" y2="421.9883"/><rect fill="none" height="20.4883" rx="5" ry="5" style="stroke:#A80036;stroke-width:1.5;" width="79" x="378" y="401.5"/><rect fill="#FEFECE" height="118.9297" rx="5" ry="5" style="stroke:#FEFECE;stroke-width:1.5;" width="569" x="728" y="352"/><text fill="#000000" font-family="sans-serif" font-size="14" lengthAdjust="spacing" textLength="33" x="733" y="367.5352">label</text><text fill="#000000" font-family="sans-serif" font-size="14" lengthAdjust="spacing" textLength="47" x="826" y="367.5352">Colour</text><line style="stroke:#A80036;stroke-width:1.0;" x1="821" x2="821" y1="352" y2="372.4883"/><line style="stroke:#A80036;stroke-width:1.0;" x1="728" x2="1297" y1="372.4883" y2="372.4883"/><text fill="#000000" font-family="sans-serif" font-size="14" lengthAdjust="spacing" textLength="77" x="733" y="388.0234">description</text><text fill="#000000" font-family="sans-serif" font-size="14" lengthAdjust="spacing" textLength="452" x="826" y="388.0234">This IPSO object should be used to report the measured value of a</text><text fill="#000000" font-family="sans-serif" font-size="14" lengthAdjust="spacing" textLength="466" x="826" y="404.5117">colour sensor in some colour space described by the units resource.</text><line style="stroke:#A80036;stroke-width:1.0;" x1="821" x2="821" y1="372.4883" y2="409.4648"/><line style="stroke:#A80036;stroke-width:1.0;" x1="728" x2="1297" y1="409.4648" y2="409.4648"/><text fill="#000000" font-family="sans-serif" font-size="14" lengthAdjust="spacing" textLength="79" x="733" y="425">sdfProperty</text><text fill="#000000" font-family="sans-serif" font-size="14" lengthAdjust="spacing" textLength="0" x="838" y="425"/><line style="stroke:#A80036;stroke-width:1.0;" x1="821" x2="821" y1="409.4648" y2="429.9531"/><line style="stroke:#A80036;stroke-width:1.0;" x1="728" x2="1297" y1="429.9531" y2="429.9531"/><text fill="#000000" font-family="sans-serif" font-size="14" lengthAdjust="spacing" textLength="65" x="733" y="445.4883">sdfAction</text><text fill="#000000" font-family="sans-serif" font-size="14" lengthAdjust="spacing" textLength="0" x="838" y="445.4883"/><line style="stroke:#A80036;stroke-width:1.0;" x1="821" x2="821" y1="429.9531" y2="450.4414"/><line style="stroke:#A80036;stroke-width:1.0;" x1="728" x2="1297" y1="450.4414" y2="450.4414"/><text fill="#000000" font-family="sans-serif" font-size="14" lengthAdjust="spacing" textLength="83" x="733" y="465.9766">sdfRequired</text><text fill="#000000" font-family="sans-serif" font-size="14" lengthAdjust="spacing" textLength="0" x="838" y="465.9766"/><line style="stroke:#A80036;stroke-width:1.0;" x1="821" x2="821" y1="450.4414" y2="470.9297"/><rect fill="none" height="118.9297" rx="5" ry="5" style="stroke:#A80036;stroke-width:1.5;" width="569" x="728" y="352"/><rect fill="#FEFECE" height="143.418" rx="5" ry="5" style="stroke:#FEFECE;stroke-width:1.5;" width="248" x="1352.5" y="266"/><text fill="#000000" font-family="sans-serif" font-size="14" lengthAdjust="spacing" textLength="47" x="1357.5" y="281.5352">Colour</text><text fill="#000000" font-family="sans-serif" font-size="14" lengthAdjust="spacing" textLength="0" x="1595.5" y="281.5352"/><line style="stroke:#A80036;stroke-width:1.0;" x1="1578.5" x2="1578.5" y1="266" y2="286.4883"/><line style="stroke:#A80036;stroke-width:1.0;" x1="1352.5" x2="1600.5" y1="286.4883" y2="286.4883"/><text fill="#000000" font-family="sans-serif" font-size="14" lengthAdjust="spacing" textLength="89" x="1357.5" y="302.0234">Sensor_Units</text><text fill="#000000" font-family="sans-serif" font-size="14" lengthAdjust="spacing" textLength="0" x="1595.5" y="302.0234"/><line style="stroke:#A80036;stroke-width:1.0;" x1="1578.5" x2="1578.5" y1="286.4883" y2="306.9766"/><line style="stroke:#A80036;stroke-width:1.0;" x1="1352.5" x2="1600.5" y1="306.9766" y2="306.9766"/><text fill="#000000" font-family="sans-serif" font-size="14" lengthAdjust="spacing" textLength="118" x="1357.5" y="322.5117">Application_Type</text><text fill="#000000" font-family="sans-serif" font-size="14" lengthAdjust="spacing" textLength="0" x="1595.5" y="322.5117"/><line style="stroke:#A80036;stroke-width:1.0;" x1="1578.5" x2="1578.5" y1="306.9766" y2="327.4648"/><line style="stroke:#A80036;stroke-width:1.0;" x1="1352.5" x2="1600.5" y1="327.4648" y2="327.4648"/><text fill="#000000" font-family="sans-serif" font-size="14" lengthAdjust="spacing" textLength="76" x="1357.5" y="343">Timestamp</text><text fill="#000000" font-family="sans-serif" font-size="14" lengthAdjust="spacing" textLength="0" x="1595.5" y="343"/><line style="stroke:#A80036;stroke-width:1.0;" x1="1578.5" x2="1578.5" y1="327.4648" y2="347.9531"/><line style="stroke:#A80036;stroke-width:1.0;" x1="1352.5" x2="1600.5" y1="347.9531" y2="347.9531"/><text fill="#000000" font-family="sans-serif" font-size="14" lengthAdjust="spacing" textLength="151" x="1357.5" y="363.4883">Fractional_Timestamp</text><text fill="#000000" font-family="sans-serif" font-size="14" lengthAdjust="spacing" textLength="0" x="1595.5" y="363.4883"/><line style="stroke:#A80036;stroke-width:1.0;" x1="1578.5" x2="1578.5" y1="347.9531" y2="368.4414"/><line style="stroke:#A80036;stroke-width:1.0;" x1="1352.5" x2="1600.5" y1="368.4414" y2="368.4414"/><text fill="#000000" font-family="sans-serif" font-size="14" lengthAdjust="spacing" textLength="216" x="1357.5" y="383.9766">Measurement_Quality_Indicator</text><text fill="#000000" font-family="sans-serif" font-size="14" lengthAdjust="spacing" textLength="0" x="1595.5" y="383.9766"/><line style="stroke:#A80036;stroke-width:1.0;" x1="1578.5" x2="1578.5" y1="368.4414" y2="388.9297"/><line style="stroke:#A80036;stroke-width:1.0;" x1="1352.5" x2="1600.5" y1="388.9297" y2="388.9297"/><text fill="#000000" font-family="sans-serif" font-size="14" lengthAdjust="spacing" textLength="189" x="1357.5" y="404.4648">Measurement_Quality_Level</text><text fill="#000000" font-family="sans-serif" font-size="14" lengthAdjust="spacing" textLength="0" x="1595.5" y="404.4648"/><line style="stroke:#A80036;stroke-width:1.0;" x1="1578.5" x2="1578.5" y1="388.9297" y2="409.418"/><rect fill="none" height="143.418" rx="5" ry="5" style="stroke:#A80036;stroke-width:1.5;" width="248" x="1352.5" y="266"/><rect fill="#FEFECE" height="61.4648" rx="5" ry="5" style="stroke:#FEFECE;stroke-width:1.5;" width="439" x="1734.5" y="10"/><text fill="#000000" font-family="sans-serif" font-size="14" lengthAdjust="spacing" textLength="33" x="1739.5" y="25.5352">label</text><text fill="#000000" font-family="sans-serif" font-size="14" lengthAdjust="spacing" textLength="47" x="1826.5" y="25.5352">Colour</text><line style="stroke:#A80036;stroke-width:1.0;" x1="1821.5" x2="1821.5" y1="10" y2="30.4883"/><line style="stroke:#A80036;stroke-width:1.0;" x1="1734.5" x2="2173.5" y1="30.4883" y2="30.4883"/><text fill="#000000" font-family="sans-serif" font-size="14" lengthAdjust="spacing" textLength="77" x="1739.5" y="46.0234">description</text><text fill="#000000" font-family="sans-serif" font-size="14" lengthAdjust="spacing" textLength="342" x="1826.5" y="46.0234">A string representing a value in some color space.</text><line style="stroke:#A80036;stroke-width:1.0;" x1="1821.5" x2="1821.5" y1="30.4883" y2="50.9766"/><line style="stroke:#A80036;stroke-width:1.0;" x1="1734.5" x2="2173.5" y1="50.9766" y2="50.9766"/><text fill="#000000" font-family="sans-serif" font-size="14" lengthAdjust="spacing" textLength="29" x="1739.5" y="66.5117">type</text><text fill="#000000" font-family="sans-serif" font-size="14" lengthAdjust="spacing" textLength="40" x="1826.5" y="66.5117">string</text><line style="stroke:#A80036;stroke-width:1.0;" x1="1821.5" x2="1821.5" y1="50.9766" y2="71.4648"/><rect fill="none" height="61.4648" rx="5" ry="5" style="stroke:#A80036;stroke-width:1.5;" width="439" x="1734.5" y="10"/><rect fill="#FEFECE" height="81.9531" rx="5" ry="5" style="stroke:#FEFECE;stroke-width:1.5;" width="304" x="1802" y="89.5"/><text fill="#000000" font-family="sans-serif" font-size="14" lengthAdjust="spacing" textLength="33" x="1807" y="105.0352">label</text><text fill="#000000" font-family="sans-serif" font-size="14" lengthAdjust="spacing" textLength="86" x="1894" y="105.0352">Sensor Units</text><line style="stroke:#A80036;stroke-width:1.0;" x1="1889" x2="1889" y1="89.5" y2="109.9883"/><line style="stroke:#A80036;stroke-width:1.0;" x1="1802" x2="2106" y1="109.9883" y2="109.9883"/><text fill="#000000" font-family="sans-serif" font-size="14" lengthAdjust="spacing" textLength="77" x="1807" y="125.5234">description</text><text fill="#000000" font-family="sans-serif" font-size="14" lengthAdjust="spacing" textLength="207" x="1894" y="125.5234">Measurement Units Definition.</text><line style="stroke:#A80036;stroke-width:1.0;" x1="1889" x2="1889" y1="109.9883" y2="130.4766"/><line style="stroke:#A80036;stroke-width:1.0;" x1="1802" x2="2106" y1="130.4766" y2="130.4766"/><text fill="#000000" font-family="sans-serif" font-size="14" lengthAdjust="spacing" textLength="55" x="1807" y="146.0117">writable</text><text fill="#000000" font-family="sans-serif" font-size="14" lengthAdjust="spacing" textLength="48" x="1894" y="146.0117">☐ false</text><line style="stroke:#A80036;stroke-width:1.0;" x1="1889" x2="1889" y1="130.4766" y2="150.9648"/><line style="stroke:#A80036;stroke-width:1.0;" x1="1802" x2="2106" y1="150.9648" y2="150.9648"/><text fill="#000000" font-family="sans-serif" font-size="14" lengthAdjust="spacing" textLength="29" x="1807" y="166.5">type</text><text fill="#000000" font-family="sans-serif" font-size="14" lengthAdjust="spacing" textLength="40" x="1894" y="166.5">string</text><line style="stroke:#A80036;stroke-width:1.0;" x1="1889" x2="1889" y1="150.9648" y2="171.4531"/><rect fill="none" height="81.9531" rx="5" ry="5" style="stroke:#A80036;stroke-width:1.5;" width="304" x="1802" y="89.5"/><rect fill="#FEFECE" height="77.9531" rx="5" ry="5" style="stroke:#FEFECE;stroke-width:1.5;" width="563" x="1672.5" y="189.5"/><text fill="#000000" font-family="sans-serif" font-size="14" lengthAdjust="spacing" textLength="33" x="1677.5" y="205.0352">label</text><text fill="#000000" font-family="sans-serif" font-size="14" lengthAdjust="spacing" textLength="115" x="1764.5" y="205.0352">Application Type</text><line style="stroke:#A80036;stroke-width:1.0;" x1="1759.5" x2="1759.5" y1="189.5" y2="209.9883"/><line style="stroke:#A80036;stroke-width:1.0;" x1="1672.5" x2="2235.5" y1="209.9883" y2="209.9883"/><text fill="#000000" font-family="sans-serif" font-size="14" lengthAdjust="spacing" textLength="77" x="1677.5" y="225.5234">description</text><text fill="#000000" font-family="sans-serif" font-size="14" lengthAdjust="spacing" textLength="466" x="1764.5" y="225.5234">The application type of the sensor or actuator as a string depending</text><text fill="#000000" font-family="sans-serif" font-size="14" lengthAdjust="spacing" textLength="110" x="1764.5" y="242.0117">on the use case.</text><line style="stroke:#A80036;stroke-width:1.0;" x1="1759.5" x2="1759.5" y1="209.9883" y2="246.9648"/><line style="stroke:#A80036;stroke-width:1.0;" x1="1672.5" x2="2235.5" y1="246.9648" y2="246.9648"/><text fill="#000000" font-family="sans-serif" font-size="14" lengthAdjust="spacing" textLength="29" x="1677.5" y="262.5">type</text><text fill="#000000" font-family="sans-serif" font-size="14" lengthAdjust="spacing" textLength="40" x="1764.5" y="262.5">string</text><line style="stroke:#A80036;stroke-width:1.0;" x1="1759.5" x2="1759.5" y1="246.9648" y2="267.4531"/><rect fill="none" height="77.9531" rx="5" ry="5" style="stroke:#A80036;stroke-width:1.5;" width="563" x="1672.5" y="189.5"/><rect fill="#FEFECE" height="102.4414" rx="5" ry="5" style="stroke:#FEFECE;stroke-width:1.5;" width="493" x="1707.5" y="285.5"/><text fill="#000000" font-family="sans-serif" font-size="14" lengthAdjust="spacing" textLength="33" x="1712.5" y="301.0352">label</text><text fill="#000000" font-family="sans-serif" font-size="14" lengthAdjust="spacing" textLength="76" x="1799.5" y="301.0352">Timestamp</text><line style="stroke:#A80036;stroke-width:1.0;" x1="1794.5" x2="1794.5" y1="285.5" y2="305.9883"/><line style="stroke:#A80036;stroke-width:1.0;" x1="1707.5" x2="2200.5" y1="305.9883" y2="305.9883"/><text fill="#000000" font-family="sans-serif" font-size="14" lengthAdjust="spacing" textLength="77" x="1712.5" y="321.5234">description</text><text fill="#000000" font-family="sans-serif" font-size="14" lengthAdjust="spacing" textLength="396" x="1799.5" y="321.5234">The timestamp of when the measurement was performed.</text><line style="stroke:#A80036;stroke-width:1.0;" x1="1794.5" x2="1794.5" y1="305.9883" y2="326.4766"/><line style="stroke:#A80036;stroke-width:1.0;" x1="1707.5" x2="2200.5" y1="326.4766" y2="326.4766"/><text fill="#000000" font-family="sans-serif" font-size="14" lengthAdjust="spacing" textLength="55" x="1712.5" y="342.0117">writable</text><text fill="#000000" font-family="sans-serif" font-size="14" lengthAdjust="spacing" textLength="48" x="1799.5" y="342.0117">☐ false</text><line style="stroke:#A80036;stroke-width:1.0;" x1="1794.5" x2="1794.5" y1="326.4766" y2="346.9648"/><line style="stroke:#A80036;stroke-width:1.0;" x1="1707.5" x2="2200.5" y1="346.9648" y2="346.9648"/><text fill="#000000" font-family="sans-serif" font-size="14" lengthAdjust="spacing" textLength="29" x="1712.5" y="362.5">type</text><text fill="#000000" font-family="sans-serif" font-size="14" lengthAdjust="spacing" textLength="54" x="1799.5" y="362.5">number</text><line style="stroke:#A80036;stroke-width:1.0;" x1="1794.5" x2="1794.5" y1="346.9648" y2="367.4531"/><line style="stroke:#A80036;stroke-width:1.0;" x1="1707.5" x2="2200.5" y1="367.4531" y2="367.4531"/><text fill="#000000" font-family="sans-serif" font-size="14" lengthAdjust="spacing" textLength="54" x="1712.5" y="382.9883">sdfType</text><text fill="#000000" font-family="sans-serif" font-size="14" lengthAdjust="spacing" textLength="69" x="1799.5" y="382.9883">unix-time</text><line style="stroke:#A80036;stroke-width:1.0;" x1="1794.5" x2="1794.5" y1="367.4531" y2="387.9414"/><rect fill="none" height="102.4414" rx="5" ry="5" style="stroke:#A80036;stroke-width:1.5;" width="493" x="1707.5" y="285.5"/><rect fill="#FEFECE" height="159.9063" rx="5" ry="5" style="stroke:#FEFECE;stroke-width:1.5;" width="563" x="1672.5" y="405.5"/><text fill="#000000" font-family="sans-serif" font-size="14" lengthAdjust="spacing" textLength="33" x="1677.5" y="421.0352">label</text><text fill="#000000" font-family="sans-serif" font-size="14" lengthAdjust="spacing" textLength="148" x="1764.5" y="421.0352">Fractional Timestamp</text><line style="stroke:#A80036;stroke-width:1.0;" x1="1759.5" x2="1759.5" y1="405.5" y2="425.9883"/><line style="stroke:#A80036;stroke-width:1.0;" x1="1672.5" x2="2235.5" y1="425.9883" y2="425.9883"/><text fill="#000000" font-family="sans-serif" font-size="14" lengthAdjust="spacing" textLength="77" x="1677.5" y="441.5234">description</text><text fill="#000000" font-family="sans-serif" font-size="14" lengthAdjust="spacing" textLength="466" x="1764.5" y="441.5234">Fractional part of the timestamp when sub-second precision is used</text><text fill="#000000" font-family="sans-serif" font-size="14" lengthAdjust="spacing" textLength="157" x="1764.5" y="458.0117">(e.g., 0.23 for 230 ms).</text><line style="stroke:#A80036;stroke-width:1.0;" x1="1759.5" x2="1759.5" y1="425.9883" y2="462.9648"/><line style="stroke:#A80036;stroke-width:1.0;" x1="1672.5" x2="2235.5" y1="462.9648" y2="462.9648"/><text fill="#000000" font-family="sans-serif" font-size="14" lengthAdjust="spacing" textLength="55" x="1677.5" y="478.5">writable</text><text fill="#000000" font-family="sans-serif" font-size="14" lengthAdjust="spacing" textLength="48" x="1764.5" y="478.5">☐ false</text><line style="stroke:#A80036;stroke-width:1.0;" x1="1759.5" x2="1759.5" y1="462.9648" y2="483.4531"/><line style="stroke:#A80036;stroke-width:1.0;" x1="1672.5" x2="2235.5" y1="483.4531" y2="483.4531"/><text fill="#000000" font-family="sans-serif" font-size="14" lengthAdjust="spacing" textLength="29" x="1677.5" y="498.9883">type</text><text fill="#000000" font-family="sans-serif" font-size="14" lengthAdjust="spacing" textLength="54" x="1764.5" y="498.9883">number</text><line style="stroke:#A80036;stroke-width:1.0;" x1="1759.5" x2="1759.5" y1="483.4531" y2="503.9414"/><line style="stroke:#A80036;stroke-width:1.0;" x1="1672.5" x2="2235.5" y1="503.9414" y2="503.9414"/><text fill="#000000" font-family="sans-serif" font-size="14" lengthAdjust="spacing" textLength="27" x="1677.5" y="519.4766">unit</text><text fill="#000000" font-family="sans-serif" font-size="14" lengthAdjust="spacing" textLength="7" x="1764.5" y="519.4766">s</text><line style="stroke:#A80036;stroke-width:1.0;" x1="1759.5" x2="1759.5" y1="503.9414" y2="524.4297"/><line style="stroke:#A80036;stroke-width:1.0;" x1="1672.5" x2="2235.5" y1="524.4297" y2="524.4297"/><text fill="#000000" font-family="sans-serif" font-size="14" lengthAdjust="spacing" textLength="65" x="1677.5" y="539.9648">minimum</text><text fill="#000000" font-family="sans-serif" font-size="14" lengthAdjust="spacing" textLength="9" x="1764.5" y="539.9648">0</text><line style="stroke:#A80036;stroke-width:1.0;" x1="1759.5" x2="1759.5" y1="524.4297" y2="544.918"/><line style="stroke:#A80036;stroke-width:1.0;" x1="1672.5" x2="2235.5" y1="544.918" y2="544.918"/><text fill="#000000" font-family="sans-serif" font-size="14" lengthAdjust="spacing" textLength="69" x="1677.5" y="560.4531">maximum</text><text fill="#000000" font-family="sans-serif" font-size="14" lengthAdjust="spacing" textLength="9" x="1764.5" y="560.4531">1</text><line style="stroke:#A80036;stroke-width:1.0;" x1="1759.5" x2="1759.5" y1="544.918" y2="565.4063"/><rect fill="none" height="159.9063" rx="5" ry="5" style="stroke:#A80036;stroke-width:1.5;" width="563" x="1672.5" y="405.5"/><rect fill="#FEFECE" height="254.8359" rx="5" ry="5" style="stroke:#FEFECE;stroke-width:1.5;" width="596" x="1656" y="584"/><text fill="#000000" font-family="sans-serif" font-size="14" lengthAdjust="spacing" textLength="33" x="1661" y="599.5352">label</text><text fill="#000000" font-family="sans-serif" font-size="14" lengthAdjust="spacing" textLength="210" x="1748" y="599.5352">Measurement Quality Indicator</text><line style="stroke:#A80036;stroke-width:1.0;" x1="1743" x2="1743" y1="584" y2="604.4883"/><line style="stroke:#A80036;stroke-width:1.0;" x1="1656" x2="2252" y1="604.4883" y2="604.4883"/><text fill="#000000" font-family="sans-serif" font-size="14" lengthAdjust="spacing" textLength="77" x="1661" y="620.0234">description</text><text fill="#000000" font-family="sans-serif" font-size="14" lengthAdjust="spacing" textLength="401" x="1748" y="620.0234">Measurement quality indicator reported by a smart sensor.</text><text fill="#000000" font-family="sans-serif" font-size="14" lengthAdjust="spacing" textLength="499" x="1748" y="636.5117">0: UNCHECKED No quality checks were done because they do not exist or</text><text fill="#000000" font-family="sans-serif" font-size="14" lengthAdjust="spacing" textLength="131" x="1748" y="653">can not be applied.</text><text fill="#000000" font-family="sans-serif" font-size="14" lengthAdjust="spacing" textLength="414" x="1748" y="669.4883">1: REJECTED WITH CERTAINTY The measured value is invalid.</text><text fill="#000000" font-family="sans-serif" font-size="14" lengthAdjust="spacing" textLength="462" x="1748" y="685.9766">2: REJECTED WITH PROBABILITY The measured value is likely invalid.</text><text fill="#000000" font-family="sans-serif" font-size="14" lengthAdjust="spacing" textLength="430" x="1748" y="702.4648">3: ACCEPTED BUT SUSPICIOUS The measured value is likely OK.</text><text fill="#000000" font-family="sans-serif" font-size="14" lengthAdjust="spacing" textLength="275" x="1748" y="718.9531">4: ACCEPTED The measured value is OK.</text><text fill="#000000" font-family="sans-serif" font-size="14" lengthAdjust="spacing" textLength="258" x="1748" y="735.4414">5-15: Reserved for future extensions.</text><text fill="#000000" font-family="sans-serif" font-size="14" lengthAdjust="spacing" textLength="309" x="1748" y="751.9297">16-23: Vendor specific measurement quality.</text><line style="stroke:#A80036;stroke-width:1.0;" x1="1743" x2="1743" y1="604.4883" y2="756.8828"/><line style="stroke:#A80036;stroke-width:1.0;" x1="1656" x2="2252" y1="756.8828" y2="756.8828"/><text fill="#000000" font-family="sans-serif" font-size="14" lengthAdjust="spacing" textLength="55" x="1661" y="772.418">writable</text><text fill="#000000" font-family="sans-serif" font-size="14" lengthAdjust="spacing" textLength="48" x="1748" y="772.418">☐ false</text><line style="stroke:#A80036;stroke-width:1.0;" x1="1743" x2="1743" y1="756.8828" y2="777.3711"/><line style="stroke:#A80036;stroke-width:1.0;" x1="1656" x2="2252" y1="777.3711" y2="777.3711"/><text fill="#000000" font-family="sans-serif" font-size="14" lengthAdjust="spacing" textLength="29" x="1661" y="792.9063">type</text><text fill="#000000" font-family="sans-serif" font-size="14" lengthAdjust="spacing" textLength="49" x="1748" y="792.9063">integer</text><line style="stroke:#A80036;stroke-width:1.0;" x1="1743" x2="1743" y1="777.3711" y2="797.8594"/><line style="stroke:#A80036;stroke-width:1.0;" x1="1656" x2="2252" y1="797.8594" y2="797.8594"/><text fill="#000000" font-family="sans-serif" font-size="14" lengthAdjust="spacing" textLength="65" x="1661" y="813.3945">minimum</text><text fill="#000000" font-family="sans-serif" font-size="14" lengthAdjust="spacing" textLength="9" x="1748" y="813.3945">0</text><line style="stroke:#A80036;stroke-width:1.0;" x1="1743" x2="1743" y1="797.8594" y2="818.3477"/><line style="stroke:#A80036;stroke-width:1.0;" x1="1656" x2="2252" y1="818.3477" y2="818.3477"/><text fill="#000000" font-family="sans-serif" font-size="14" lengthAdjust="spacing" textLength="69" x="1661" y="833.8828">maximum</text><text fill="#000000" font-family="sans-serif" font-size="14" lengthAdjust="spacing" textLength="18" x="1748" y="833.8828">23</text><line style="stroke:#A80036;stroke-width:1.0;" x1="1743" x2="1743" y1="818.3477" y2="838.8359"/><rect fill="none" height="254.8359" rx="5" ry="5" style="stroke:#A80036;stroke-width:1.5;" width="596" x="1656" y="584"/><rect fill="#FEFECE" height="238.3477" rx="5" ry="5" style="stroke:#FEFECE;stroke-width:1.5;" width="585" x="1661.5" y="857.5"/><text fill="#000000" font-family="sans-serif" font-size="14" lengthAdjust="spacing" textLength="33" x="1666.5" y="873.0352">label</text><text fill="#000000" font-family="sans-serif" font-size="14" lengthAdjust="spacing" textLength="183" x="1753.5" y="873.0352">Measurement Quality Level</text><line style="stroke:#A80036;stroke-width:1.0;" x1="1748.5" x2="1748.5" y1="857.5" y2="877.9883"/><line style="stroke:#A80036;stroke-width:1.0;" x1="1661.5" x2="2246.5" y1="877.9883" y2="877.9883"/><text fill="#000000" font-family="sans-serif" font-size="14" lengthAdjust="spacing" textLength="77" x="1666.5" y="893.5234">description</text><text fill="#000000" font-family="sans-serif" font-size="14" lengthAdjust="spacing" textLength="458" x="1753.5" y="893.5234">Measurement quality level reported by a smart sensor. Quality level</text><text fill="#000000" font-family="sans-serif" font-size="14" lengthAdjust="spacing" textLength="437" x="1753.5" y="910.0117">100 means that the measurement has fully passed quality check</text><text fill="#000000" font-family="sans-serif" font-size="14" lengthAdjust="spacing" textLength="450" x="1753.5" y="926.5">algorithms. Smaller quality levels mean that quality has decreased</text><text fill="#000000" font-family="sans-serif" font-size="14" lengthAdjust="spacing" textLength="415" x="1753.5" y="942.9883">and the measurement has only partially passed quality check</text><text fill="#000000" font-family="sans-serif" font-size="14" lengthAdjust="spacing" textLength="470" x="1753.5" y="959.4766">algorithms. The smaller the quality level, the more caution should be</text><text fill="#000000" font-family="sans-serif" font-size="14" lengthAdjust="spacing" textLength="488" x="1753.5" y="975.9648">used by the application when using the measurement. When the quality</text><text fill="#000000" font-family="sans-serif" font-size="14" lengthAdjust="spacing" textLength="410" x="1753.5" y="992.4531">level is 0 it means that the measurement should certainly be</text><text fill="#000000" font-family="sans-serif" font-size="14" lengthAdjust="spacing" textLength="59" x="1753.5" y="1008.9414">rejected.</text><line style="stroke:#A80036;stroke-width:1.0;" x1="1748.5" x2="1748.5" y1="877.9883" y2="1013.8945"/><line style="stroke:#A80036;stroke-width:1.0;" x1="1661.5" x2="2246.5" y1="1013.8945" y2="1013.8945"/><text fill="#000000" font-family="sans-serif" font-size="14" lengthAdjust="spacing" textLength="55" x="1666.5" y="1029.4297">writable</text><text fill="#000000" font-family="sans-serif" font-size="14" lengthAdjust="spacing" textLength="48" x="1753.5" y="1029.4297">☐ false</text><line style="stroke:#A80036;stroke-width:1.0;" x1="1748.5" x2="1748.5" y1="1013.8945" y2="1034.3828"/><line style="stroke:#A80036;stroke-width:1.0;" x1="1661.5" x2="2246.5" y1="1034.3828" y2="1034.3828"/><text fill="#000000" font-family="sans-serif" font-size="14" lengthAdjust="spacing" textLength="29" x="1666.5" y="1049.918">type</text><text fill="#000000" font-family="sans-serif" font-size="14" lengthAdjust="spacing" textLength="49" x="1753.5" y="1049.918">integer</text><line style="stroke:#A80036;stroke-width:1.0;" x1="1748.5" x2="1748.5" y1="1034.3828" y2="1054.8711"/><line style="stroke:#A80036;stroke-width:1.0;" x1="1661.5" x2="2246.5" y1="1054.8711" y2="1054.8711"/><text fill="#000000" font-family="sans-serif" font-size="14" lengthAdjust="spacing" textLength="65" x="1666.5" y="1070.4063">minimum</text><text fill="#000000" font-family="sans-serif" font-size="14" lengthAdjust="spacing" textLength="9" x="1753.5" y="1070.4063">0</text><line style="stroke:#A80036;stroke-width:1.0;" x1="1748.5" x2="1748.5" y1="1054.8711" y2="1075.3594"/><line style="stroke:#A80036;stroke-width:1.0;" x1="1661.5" x2="2246.5" y1="1075.3594" y2="1075.3594"/><text fill="#000000" font-family="sans-serif" font-size="14" lengthAdjust="spacing" textLength="69" x="1666.5" y="1090.8945">maximum</text><text fill="#000000" font-family="sans-serif" font-size="14" lengthAdjust="spacing" textLength="27" x="1753.5" y="1090.8945">100</text><line style="stroke:#A80036;stroke-width:1.0;" x1="1748.5" x2="1748.5" y1="1075.3594" y2="1095.8477"/><rect fill="none" height="238.3477" rx="5" ry="5" style="stroke:#A80036;stroke-width:1.5;" width="585" x="1661.5" y="857.5"/><rect fill="#FEFECE" height="15" rx="5" ry="5" style="stroke:#FEFECE;stroke-width:1.5;" width="30" x="1464.5" y="427.5"/><rect fill="none" height="15" rx="5" ry="5" style="stroke:#A80036;stroke-width:1.5;" width="30" x="1464.5" y="427.5"/><rect fill="#FEFECE" height="20.4883" rx="5" ry="5" style="stroke:#FEFECE;stroke-width:1.5;" width="285" x="1334" y="461.5"/><text fill="#000000" font-family="sans-serif" font-size="14" lengthAdjust="spacing" textLength="275" x="1339" y="477.0352">#/sdfObject/Colour/sdfProperty/Colour</text><rect fill="none" height="20.4883" rx="5" ry="5" style="stroke:#A80036;stroke-width:1.5;" width="285" x="1334" y="461.5"/><path d="M95,366.5 L108,366.5 C117.3406,366.5 126.8353,366.3896 136.4202,366.1839 " fill="none" style="stroke:#A80036;stroke-width:1.0;stroke-dasharray:3.0,3.0;"/><path d="M136.4943,369.2659 L138.7318,366.1283 L136.3462,363.1019 L144.1253,365.9987 L136.4943,369.2659 " fill="#A80036" style="stroke:#A80036;stroke-width:1.0;"/><ellipse cx="95" cy="366.5" fill="#A80036" rx="3" ry="3" style="stroke:#A80036;stroke-width:1.0;stroke-dasharray:3.0,3.0;"/><path d="M1589,275.5 L1602,275.5 C1691.9284,275.5 1588.2225,139.6043 1656,80.5 C1676.554,62.5763 1701.136,50.3088 1727.2404,42.1342 " fill="none" style="stroke:#A80036;stroke-width:1.0;stroke-dasharray:3.0,3.0;"/><path d="M1728.1198,45.0947 L1729.4607,41.4747 L1726.361,39.1738 L1734.6415,39.9358 L1728.1198,45.0947 " fill="#A80036" style="stroke:#A80036;stroke-width:1.0;"/><ellipse cx="1589" cy="275.5" fill="#A80036" rx="3" ry="3" style="stroke:#A80036;stroke-width:1.0;stroke-dasharray:3.0,3.0;"/><path d="M1589,295.5 L1602,295.5 C1658.4654,295.5 1611.0198,214.634 1656,180.5 C1695.4852,150.536 1746.4358,135.8934 1794.978,129.3389 " fill="none" style="stroke:#A80036;stroke-width:1.0;stroke-dasharray:3.0,3.0;"/><path d="M1795.3566,132.3208 L1797.2144,129.055 L1794.5994,126.357 L1802.4328,128.3925 L1795.3566,132.3208 " fill="#A80036" style="stroke:#A80036;stroke-width:1.0;"/><ellipse cx="1589" cy="295.5" fill="#A80036" rx="3" ry="3" style="stroke:#A80036;stroke-width:1.0;stroke-dasharray:3.0,3.0;"/><path d="M1589,316.5 L1602,316.5 C1631.8672,316.5 1628.4761,288.0966 1656,276.5 C1661.2205,274.3004 1666.5317,272.2011 1671.9164,270.1974 " fill="none" style="stroke:#A80036;stroke-width:1.0;stroke-dasharray:3.0,3.0;"/><path d="M1672.9858,273.1521 L1674.1325,269.3953 L1670.847,267.2426 L1679.3033,267.5239 L1672.9858,273.1521 " fill="#A80036" style="stroke:#A80036;stroke-width:1.0;"/><ellipse cx="1589" cy="316.5" fill="#A80036" rx="3" ry="3" style="stroke:#A80036;stroke-width:1.0;stroke-dasharray:3.0,3.0;"/><path d="M1589,336.5 L1602,336.5 C1633.6373,336.5 1666.8763,336.5 1699.7709,336.5 " fill="none" style="stroke:#A80036;stroke-width:1.0;stroke-dasharray:3.0,3.0;"/><path d="M1699.7709,339.6615 L1702.142,336.5 L1699.7709,333.3385 L1707.6746,336.5 L1699.7709,339.6615 " fill="#A80036" style="stroke:#A80036;stroke-width:1.0;"/><ellipse cx="1589" cy="336.5" fill="#A80036" rx="3" ry="3" style="stroke:#A80036;stroke-width:1.0;stroke-dasharray:3.0,3.0;"/><path d="M1589,357.5 L1602,357.5 C1631.6048,357.5 1629.4474,383.4078 1656,396.5 C1659.9494,398.4473 1663.9497,400.361 1667.9936,402.2412 " fill="none" style="stroke:#A80036;stroke-width:1.0;stroke-dasharray:3.0,3.0;"/><path d="M1666.7405,404.9793 L1670.0472,403.181 L1669.2466,399.5031 L1674.8389,405.3738 L1666.7405,404.9793 " fill="#A80036" style="stroke:#A80036;stroke-width:1.0;"/><ellipse cx="1589" cy="357.5" fill="#A80036" rx="3" ry="3" style="stroke:#A80036;stroke-width:1.0;stroke-dasharray:3.0,3.0;"/><path d="M1589,378.5 L1602,378.5 C1692.3568,378.5 1598.9724,504.413 1656,574.5 C1656.9757,575.6992 1657.9643,576.8883 1658.9652,578.0675 " fill="none" style="stroke:#A80036;stroke-width:1.0;stroke-dasharray:3.0,3.0;"/><path d="M1656.6399,580.1102 L1660.4973,579.8115 L1661.2906,576.0247 L1664.0721,583.8809 L1656.6399,580.1102 " fill="#A80036" style="stroke:#A80036;stroke-width:1.0;"/><ellipse cx="1589" cy="378.5" fill="#A80036" rx="3" ry="3" style="stroke:#A80036;stroke-width:1.0;stroke-dasharray:3.0,3.0;"/><path d="M1590,397.5 L1590,410.5 C1590,424.2993 1611.1435,407.9179 1620,418.5 C1681.5433,492.0342 1599.9724,770.6811 1656,848.5 C1656.6673,849.4269 1657.3428,850.3471 1658.0262,851.2607 " fill="none" style="stroke:#A80036;stroke-width:1.0;stroke-dasharray:3.0,3.0;"/><path d="M1655.6524,853.1105 L1659.4136,853.0411 L1660.4,849.4109 L1662.6508,857.1952 L1655.6524,853.1105 " fill="#A80036" style="stroke:#A80036;stroke-width:1.0;"/><ellipse cx="1590" cy="397.5" fill="#A80036" rx="3" ry="3" style="stroke:#A80036;stroke-width:1.0;stroke-dasharray:3.0,3.0;"/><path d="M1285,410.5 L1298,410.5 C1313.6435,410.5 1329.5209,408.0566 1345.0231,404.0638 " fill="none" style="stroke:#A80036;stroke-width:1.0;stroke-dasharray:3.0,3.0;"/><path d="M1345.8553,407.0947 L1347.2963,403.4396 L1344.1908,401.0328 L1352.6004,401.9831 L1345.8553,407.0947 " fill="#A80036" style="stroke:#A80036;stroke-width:1.0;"/><ellipse cx="1285" cy="410.5" fill="#A80036" rx="3" ry="3" style="stroke:#A80036;stroke-width:1.0;stroke-dasharray:3.0,3.0;"/><path d="M1285,435.5 L1298,435.5 C1355.8703,435.5 1424.3237,435.5 1456.9105,435.5 " fill="none" style="stroke:#A80036;stroke-width:1.0;stroke-dasharray:3.0,3.0;"/><path d="M1456.9105,438.6375 L1459.2636,435.5 L1456.9105,432.3625 L1464.7541,435.5 L1456.9105,438.6375 " fill="#A80036" style="stroke:#A80036;stroke-width:1.0;"/><ellipse cx="1285" cy="435.5" fill="#A80036" rx="3" ry="3" style="stroke:#A80036;stroke-width:1.0;stroke-dasharray:3.0,3.0;"/><path d="M1285,459.5 L1298,459.5 C1315.8869,459.5 1334.7619,460.1107 1353.2691,461.0565 " fill="none" style="stroke:#A80036;stroke-width:1.0;stroke-dasharray:3.0,3.0;"/><path d="M1353.0991,464.2186 L1355.6406,461.184 L1353.4391,457.8944 L1361.1742,461.4816 L1353.0991,464.2186 " fill="#A80036" style="stroke:#A80036;stroke-width:1.0;"/><ellipse cx="1285" cy="459.5" fill="#A80036" rx="3" ry="3" style="stroke:#A80036;stroke-width:1.0;stroke-dasharray:3.0,3.0;"/><path d="M446,411.5 L459,411.5 C543.9233,411.5 636.1824,411.5 720.5688,411.5 " fill="none" style="stroke:#A80036;stroke-width:1.0;stroke-dasharray:3.0,3.0;"/><path d="M720.5688,414.5475 L722.8544,411.5 L720.5688,408.4525 L728.1875,411.5 L720.5688,414.5475 " fill="#A80036" style="stroke:#A80036;stroke-width:1.0;"/><ellipse cx="446" cy="411.5" fill="#A80036" rx="3" ry="3" style="stroke:#A80036;stroke-width:1.0;stroke-dasharray:3.0,3.0;"/><path d="M95,387.5 L108,387.5 C124.1536,387.5 127.9333,390.8271 144,392.5 C223.4955,400.777 316.4011,406.3805 370.764,409.25 " fill="none" style="stroke:#A80036;stroke-width:1.0;stroke-dasharray:3.0,3.0;"/><path d="M370.6026,412.3439 L373.0845,409.371 L370.9254,406.156 L378.4989,409.6535 L370.6026,412.3439 " fill="#A80036" style="stroke:#A80036;stroke-width:1.0;"/><ellipse cx="95" cy="387.5" fill="#A80036" rx="3" ry="3" style="stroke:#A80036;stroke-width:1.0;stroke-dasharray:3.0,3.0;"/><!--MD5=[f7c2a3d01372e0ac58a2fb9c9fbf1aac]
@startjson
{
  "info": {
    "title": "OMA LwM2M Colour (Object ID 3335)",
    "version": "2021-02-11",
    "copyright": "Copyright (c) 2018-2020 IPSO",
    "license": "https://github.com/one-data-model/oneDM/blob/master/LICENSE"
  },
  "sdfObject": {
    "Colour": {
      "label": "Colour",
      "description": "This IPSO object should be used to report the measured value of a\\ncolour sensor in some colour space described by the units resource.",
      "sdfProperty": {
        "Colour": {
          "label": "Colour",
          "description": "A string representing a value in some color space.",
          "type": "string"
        },
        "Sensor_Units": {
          "label": "Sensor Units",
          "description": "Measurement Units Definition.",
          "writable": false,
          "type": "string"
        },
        "Application_Type": {
          "label": "Application Type",
          "description": "The application type of the sensor or actuator as a string depending\\non the use case.",
          "type": "string"
        },
        "Timestamp": {
          "label": "Timestamp",
          "description": "The timestamp of when the measurement was performed.",
          "writable": false,
          "type": "number",
          "sdfType": "unix-time"
        },
        "Fractional_Timestamp": {
          "label": "Fractional Timestamp",
          "description": "Fractional part of the timestamp when sub-second precision is used\\n(e.g., 0.23 for 230 ms).",
          "writable": false,
          "type": "number",
          "unit": "s",
          "minimum": 0,
          "maximum": 1
        },
        "Measurement_Quality_Indicator": {
          "label": "Measurement Quality Indicator",
          "description": "Measurement quality indicator reported by a smart sensor.\\n0: UNCHECKED No quality checks were done because they do not exist or\\ncan not be applied.\\n1: REJECTED WITH CERTAINTY The measured value is invalid.\\n2: REJECTED WITH PROBABILITY The measured value is likely invalid.\\n3: ACCEPTED BUT SUSPICIOUS The measured value is likely OK.\\n4: ACCEPTED The measured value is OK.\\n5-15: Reserved for future extensions.\\n16-23: Vendor specific measurement quality.",
          "writable": false,
          "type": "integer",
          "minimum": 0,
          "maximum": 23
        },
        "Measurement_Quality_Level": {
          "label": "Measurement Quality Level",
          "description": "Measurement quality level reported by a smart sensor. Quality level\\n100 means that the measurement has fully passed quality check\\nalgorithms. Smaller quality levels mean that quality has decreased\\nand the measurement has only partially passed quality check\\nalgorithms. The smaller the quality level, the more caution should be\\nused by the application when using the measurement. When the quality\\nlevel is 0 it means that the measurement should certainly be\\nrejected.",
          "writable": false,
          "type": "integer",
          "minimum": 0,
          "maximum": 100
        }
      },
      "sdfAction": {},
      "sdfRequired": [
        "#/sdfObject/Colour/sdfProperty/Colour"
      ]
    }
  }
}
@endjson

PlantUML version 1.2021.2(Sun Mar 07 13:10:27 EET 2021)
(GPL source distribution)
Java Runtime: OpenJDK Runtime Environment
JVM: OpenJDK 64-Bit Server VM
Default Encoding: UTF-8
Language: en
Country: FI
--></g></svg>