<?xml version="1.0" encoding="UTF-8" standalone="no"?><svg xmlns="http://www.w3.org/2000/svg" xmlns:xlink="http://www.w3.org/1999/xlink" contentScriptType="application/ecmascript" contentStyleType="text/css" height="206px" preserveAspectRatio="none" style="width:2175px;height:206px;" version="1.1" viewBox="0 0 2175 206" width="2175px" zoomAndPan="magnify"><defs/><g><rect fill="#FEFECE" height="40.9766" rx="5" ry="5" style="stroke:#FEFECE;stroke-width:1.5;" width="97" x="10" y="65.5"/><text fill="#000000" font-family="sans-serif" font-size="14" lengthAdjust="spacing" textLength="27" x="15" y="81.0352">info</text><text fill="#000000" font-family="sans-serif" font-size="14" lengthAdjust="spacing" textLength="0" x="102" y="81.0352"/><line style="stroke:#A80036;stroke-width:1.0;" x1="85" x2="85" y1="65.5" y2="85.9883"/><line style="stroke:#A80036;stroke-width:1.0;" x1="10" x2="107" y1="85.9883" y2="85.9883"/><text fill="#000000" font-family="sans-serif" font-size="14" lengthAdjust="spacing" textLength="65" x="15" y="101.5234">sdfObject</text><text fill="#000000" font-family="sans-serif" font-size="14" lengthAdjust="spacing" textLength="0" x="102" y="101.5234"/><line style="stroke:#A80036;stroke-width:1.0;" x1="85" x2="85" y1="85.9883" y2="106.4766"/><rect fill="none" height="40.9766" rx="5" ry="5" style="stroke:#A80036;stroke-width:1.5;" width="97" x="10" y="65.5"/><rect fill="#FEFECE" height="81.9531" rx="5" ry="5" style="stroke:#FEFECE;stroke-width:1.5;" width="655" x="144" y="10"/><text fill="#000000" font-family="sans-serif" font-size="14" lengthAdjust="spacing" textLength="65" x="149" y="25.5352">copyright</text><text fill="#000000" font-family="sans-serif" font-size="14" lengthAdjust="spacing" textLength="570" x="224" y="25.5352">copyright 2016-2017, 2019 Open Connectivity Foundation, Inc. All rights reserved.</text><line style="stroke:#A80036;stroke-width:1.0;" x1="219" x2="219" y1="10" y2="30.4883"/><line style="stroke:#A80036;stroke-width:1.0;" x1="144" x2="799" y1="30.4883" y2="30.4883"/><text fill="#000000" font-family="sans-serif" font-size="14" lengthAdjust="spacing" textLength="47" x="149" y="46.0234">license</text><text fill="#000000" font-family="sans-serif" font-size="14" lengthAdjust="spacing" textLength="462" x="224" y="46.0234">https://github.com/one-data-model/oneDM/blob/master/LICENSE</text><line style="stroke:#A80036;stroke-width:1.0;" x1="219" x2="219" y1="30.4883" y2="50.9766"/><line style="stroke:#A80036;stroke-width:1.0;" x1="144" x2="799" y1="50.9766" y2="50.9766"/><text fill="#000000" font-family="sans-serif" font-size="14" lengthAdjust="spacing" textLength="26" x="149" y="66.5117">title</text><text fill="#000000" font-family="sans-serif" font-size="14" lengthAdjust="spacing" textLength="144" x="224" y="66.5117">Energy Consumption</text><line style="stroke:#A80036;stroke-width:1.0;" x1="219" x2="219" y1="50.9766" y2="71.4648"/><line style="stroke:#A80036;stroke-width:1.0;" x1="144" x2="799" y1="71.4648" y2="71.4648"/><text fill="#000000" font-family="sans-serif" font-size="14" lengthAdjust="spacing" textLength="50" x="149" y="87">version</text><text fill="#000000" font-family="sans-serif" font-size="14" lengthAdjust="spacing" textLength="88" x="224" y="87">2019-02-15</text><line style="stroke:#A80036;stroke-width:1.0;" x1="219" x2="219" y1="71.4648" y2="91.9531"/><rect fill="none" height="81.9531" rx="5" ry="5" style="stroke:#A80036;stroke-width:1.5;" width="655" x="144" y="10"/><rect fill="#FEFECE" height="20.4883" rx="5" ry="5" style="stroke:#FEFECE;stroke-width:1.5;" width="173" x="385" y="110"/><text fill="#000000" font-family="sans-serif" font-size="14" lengthAdjust="spacing" textLength="141" x="390" y="125.5352">energy.consumption</text><text fill="#000000" font-family="sans-serif" font-size="14" lengthAdjust="spacing" textLength="0" x="553" y="125.5352"/><line style="stroke:#A80036;stroke-width:1.0;" x1="536" x2="536" y1="110" y2="130.4883"/><rect fill="none" height="20.4883" rx="5" ry="5" style="stroke:#A80036;stroke-width:1.5;" width="173" x="385" y="110"/><rect fill="#FEFECE" height="143.9063" rx="5" ry="5" style="stroke:#FEFECE;stroke-width:1.5;" width="600" x="836" y="48"/><text fill="#000000" font-family="sans-serif" font-size="14" lengthAdjust="spacing" textLength="77" x="841" y="63.5352">description</text><text fill="#000000" font-family="sans-serif" font-size="14" lengthAdjust="spacing" textLength="497" x="934" y="63.5352">This Resource describes the energy consumed by the Device since power</text><text fill="#000000" font-family="sans-serif" font-size="14" lengthAdjust="spacing" textLength="448" x="934" y="80.0234">up (the energy value is in Watt Hours [Wh]) and the instantaneous</text><text fill="#000000" font-family="sans-serif" font-size="14" lengthAdjust="spacing" textLength="437" x="934" y="96.5117">power draw of the device (the power value is in Watts [W]) at the</text><text fill="#000000" font-family="sans-serif" font-size="14" lengthAdjust="spacing" textLength="473" x="934" y="113">time the resource was queried. The Property "power" value is in Watts</text><text fill="#000000" font-family="sans-serif" font-size="14" lengthAdjust="spacing" textLength="466" x="934" y="129.4883">[W]. The Property "energy" value is in Watt Hours [Wh]. The Resource</text><text fill="#000000" font-family="sans-serif" font-size="14" lengthAdjust="spacing" textLength="432" x="934" y="145.9766">provides the current power draw and cumulative energy usage.</text><line style="stroke:#A80036;stroke-width:1.0;" x1="929" x2="929" y1="48" y2="150.9297"/><line style="stroke:#A80036;stroke-width:1.0;" x1="836" x2="1436" y1="150.9297" y2="150.9297"/><text fill="#000000" font-family="sans-serif" font-size="14" lengthAdjust="spacing" textLength="79" x="841" y="166.4648">sdfProperty</text><text fill="#000000" font-family="sans-serif" font-size="14" lengthAdjust="spacing" textLength="0" x="946" y="166.4648"/><line style="stroke:#A80036;stroke-width:1.0;" x1="929" x2="929" y1="150.9297" y2="171.418"/><line style="stroke:#A80036;stroke-width:1.0;" x1="836" x2="1436" y1="171.418" y2="171.418"/><text fill="#000000" font-family="sans-serif" font-size="14" lengthAdjust="spacing" textLength="83" x="841" y="186.9531">sdfRequired</text><text fill="#000000" font-family="sans-serif" font-size="14" lengthAdjust="spacing" textLength="0" x="946" y="186.9531"/><line style="stroke:#A80036;stroke-width:1.0;" x1="929" x2="929" y1="171.418" y2="191.9063"/><rect fill="none" height="143.9063" rx="5" ry="5" style="stroke:#A80036;stroke-width:1.5;" width="600" x="836" y="48"/><rect fill="#FEFECE" height="40.9766" rx="5" ry="5" style="stroke:#FEFECE;stroke-width:1.5;" width="79" x="1623" y="94.5"/><text fill="#000000" font-family="sans-serif" font-size="14" lengthAdjust="spacing" textLength="43" x="1628" y="110.0352">power</text><text fill="#000000" font-family="sans-serif" font-size="14" lengthAdjust="spacing" textLength="0" x="1697" y="110.0352"/><line style="stroke:#A80036;stroke-width:1.0;" x1="1680" x2="1680" y1="94.5" y2="114.9883"/><line style="stroke:#A80036;stroke-width:1.0;" x1="1623" x2="1702" y1="114.9883" y2="114.9883"/><text fill="#000000" font-family="sans-serif" font-size="14" lengthAdjust="spacing" textLength="47" x="1628" y="130.5234">energy</text><text fill="#000000" font-family="sans-serif" font-size="14" lengthAdjust="spacing" textLength="0" x="1697" y="130.5234"/><line style="stroke:#A80036;stroke-width:1.0;" x1="1680" x2="1680" y1="114.9883" y2="135.4766"/><rect fill="none" height="40.9766" rx="5" ry="5" style="stroke:#A80036;stroke-width:1.5;" width="79" x="1623" y="94.5"/><rect fill="#FEFECE" height="61.4648" rx="5" ry="5" style="stroke:#FEFECE;stroke-width:1.5;" width="274" x="1889" y="44.5"/><text fill="#000000" font-family="sans-serif" font-size="14" lengthAdjust="spacing" textLength="77" x="1894" y="60.0352">description</text><text fill="#000000" font-family="sans-serif" font-size="14" lengthAdjust="spacing" textLength="177" x="1981" y="60.0352">The instantaneous Power.</text><line style="stroke:#A80036;stroke-width:1.0;" x1="1976" x2="1976" y1="44.5" y2="64.9883"/><line style="stroke:#A80036;stroke-width:1.0;" x1="1889" x2="2163" y1="64.9883" y2="64.9883"/><text fill="#000000" font-family="sans-serif" font-size="14" lengthAdjust="spacing" textLength="55" x="1894" y="80.5234">writable</text><text fill="#000000" font-family="sans-serif" font-size="14" lengthAdjust="spacing" textLength="48" x="1981" y="80.5234">☐ false</text><line style="stroke:#A80036;stroke-width:1.0;" x1="1976" x2="1976" y1="64.9883" y2="85.4766"/><line style="stroke:#A80036;stroke-width:1.0;" x1="1889" x2="2163" y1="85.4766" y2="85.4766"/><text fill="#000000" font-family="sans-serif" font-size="14" lengthAdjust="spacing" textLength="29" x="1894" y="101.0117">type</text><text fill="#000000" font-family="sans-serif" font-size="14" lengthAdjust="spacing" textLength="54" x="1981" y="101.0117">number</text><line style="stroke:#A80036;stroke-width:1.0;" x1="1976" x2="1976" y1="85.4766" y2="105.9648"/><rect fill="none" height="61.4648" rx="5" ry="5" style="stroke:#A80036;stroke-width:1.5;" width="274" x="1889" y="44.5"/><rect fill="#FEFECE" height="61.4648" rx="5" ry="5" style="stroke:#FEFECE;stroke-width:1.5;" width="253" x="1899.5" y="123.5"/><text fill="#000000" font-family="sans-serif" font-size="14" lengthAdjust="spacing" textLength="77" x="1904.5" y="139.0352">description</text><text fill="#000000" font-family="sans-serif" font-size="14" lengthAdjust="spacing" textLength="156" x="1991.5" y="139.0352">The energy consumed.</text><line style="stroke:#A80036;stroke-width:1.0;" x1="1986.5" x2="1986.5" y1="123.5" y2="143.9883"/><line style="stroke:#A80036;stroke-width:1.0;" x1="1899.5" x2="2152.5" y1="143.9883" y2="143.9883"/><text fill="#000000" font-family="sans-serif" font-size="14" lengthAdjust="spacing" textLength="55" x="1904.5" y="159.5234">writable</text><text fill="#000000" font-family="sans-serif" font-size="14" lengthAdjust="spacing" textLength="48" x="1991.5" y="159.5234">☐ false</text><line style="stroke:#A80036;stroke-width:1.0;" x1="1986.5" x2="1986.5" y1="143.9883" y2="164.4766"/><line style="stroke:#A80036;stroke-width:1.0;" x1="1899.5" x2="2152.5" y1="164.4766" y2="164.4766"/><text fill="#000000" font-family="sans-serif" font-size="14" lengthAdjust="spacing" textLength="29" x="1904.5" y="180.0117">type</text><text fill="#000000" font-family="sans-serif" font-size="14" lengthAdjust="spacing" textLength="54" x="1991.5" y="180.0117">number</text><line style="stroke:#A80036;stroke-width:1.0;" x1="1986.5" x2="1986.5" y1="164.4766" y2="184.9648"/><rect fill="none" height="61.4648" rx="5" ry="5" style="stroke:#A80036;stroke-width:1.5;" width="253" x="1899.5" y="123.5"/><rect fill="#FEFECE" height="40.9766" rx="5" ry="5" style="stroke:#FEFECE;stroke-width:1.5;" width="379" x="1473" y="153.5"/><text fill="#000000" font-family="sans-serif" font-size="14" lengthAdjust="spacing" textLength="365" x="1478" y="169.0352">#/sdfObject/energy.consumption/sdfProperty/power</text><line style="stroke:#A80036;stroke-width:1.0;" x1="1473" x2="1852" y1="173.9883" y2="173.9883"/><text fill="#000000" font-family="sans-serif" font-size="14" lengthAdjust="spacing" textLength="369" x="1478" y="189.5234">#/sdfObject/energy.consumption/sdfProperty/energy</text><rect fill="none" height="40.9766" rx="5" ry="5" style="stroke:#A80036;stroke-width:1.5;" width="379" x="1473" y="153.5"/><path d="M95,75 L108,75 C117.3442,75 126.8208,74.9198 136.3833,74.7688 " fill="none" style="stroke:#A80036;stroke-width:1.0;stroke-dasharray:3.0,3.0;"/><path d="M136.4378,77.8434 L138.6892,74.7279 L136.3288,71.6942 L144.0697,74.6326 L136.4378,77.8434 " fill="#A80036" style="stroke:#A80036;stroke-width:1.0;"/><ellipse cx="95" cy="75" fill="#A80036" rx="3" ry="3" style="stroke:#A80036;stroke-width:1.0;stroke-dasharray:3.0,3.0;"/><path d="M1691,104 L1704,104 C1762.2085,104 1826.1062,99.2263 1881.495,93.5525 " fill="none" style="stroke:#A80036;stroke-width:1.0;stroke-dasharray:3.0,3.0;"/><path d="M1881.8175,96.6556 L1883.8223,93.3107 L1881.1725,90.4494 L1889.2526,92.7463 L1881.8175,96.6556 " fill="#A80036" style="stroke:#A80036;stroke-width:1.0;"/><ellipse cx="1691" cy="104" fill="#A80036" rx="3" ry="3" style="stroke:#A80036;stroke-width:1.0;stroke-dasharray:3.0,3.0;"/><path d="M1691,125 L1704,125 C1765.9479,125 1834.3394,130.4067 1892.0606,136.5511 " fill="none" style="stroke:#A80036;stroke-width:1.0;stroke-dasharray:3.0,3.0;"/><path d="M1891.7279,139.6345 L1894.3731,136.8006 L1892.3932,133.4676 L1899.7692,137.3827 L1891.7279,139.6345 " fill="#A80036" style="stroke:#A80036;stroke-width:1.0;"/><ellipse cx="1691" cy="125" fill="#A80036" rx="3" ry="3" style="stroke:#A80036;stroke-width:1.0;stroke-dasharray:3.0,3.0;"/><path d="M1424,120 L1437,120 C1498.8668,120 1570.2787,118.0872 1615.7603,116.6278 " fill="none" style="stroke:#A80036;stroke-width:1.0;stroke-dasharray:3.0,3.0;"/><path d="M1615.8596,119.6783 L1618.0482,116.5533 L1615.661,113.5773 L1623.3866,116.3795 L1615.8596,119.6783 " fill="#A80036" style="stroke:#A80036;stroke-width:1.0;"/><ellipse cx="1424" cy="120" fill="#A80036" rx="3" ry="3" style="stroke:#A80036;stroke-width:1.0;stroke-dasharray:3.0,3.0;"/><path d="M1424,168 L1437,168 C1446.3272,168 1455.8711,168.0522 1465.5103,168.1468 " fill="none" style="stroke:#A80036;stroke-width:1.0;stroke-dasharray:3.0,3.0;"/><path d="M1465.4763,171.2462 L1467.8348,168.1722 L1465.5442,165.0474 L1473.2587,168.2315 L1465.4763,171.2462 " fill="#A80036" style="stroke:#A80036;stroke-width:1.0;"/><ellipse cx="1424" cy="168" fill="#A80036" rx="3" ry="3" style="stroke:#A80036;stroke-width:1.0;stroke-dasharray:3.0,3.0;"/><path d="M547,120 L560,120 C647.2539,120 741.9491,120 828.8548,120 " fill="none" style="stroke:#A80036;stroke-width:1.0;stroke-dasharray:3.0,3.0;"/><path d="M828.8548,123.0314 L831.1284,120 L828.8548,116.9686 L836.4334,120 L828.8548,123.0314 " fill="#A80036" style="stroke:#A80036;stroke-width:1.0;"/><ellipse cx="547" cy="120" fill="#A80036" rx="3" ry="3" style="stroke:#A80036;stroke-width:1.0;stroke-dasharray:3.0,3.0;"/><path d="M95,96 L108,96 C124.1536,96 127.924,99.4191 144,101 C222.5833,108.7277 312.1229,113.6622 377.614,116.56 " fill="none" style="stroke:#A80036;stroke-width:1.0;stroke-dasharray:3.0,3.0;"/><path d="M377.4767,119.7061 L379.9735,116.663 L377.7513,113.414 L385.4791,116.9034 L377.4767,119.7061 " fill="#A80036" style="stroke:#A80036;stroke-width:1.0;"/><ellipse cx="95" cy="96" fill="#A80036" rx="3" ry="3" style="stroke:#A80036;stroke-width:1.0;stroke-dasharray:3.0,3.0;"/><!--MD5=[1a9458af1d70d507752c5301e645132f]
@startjson
{
  "info": {
    "copyright": "copyright 2016-2017, 2019 Open Connectivity Foundation, Inc. All rights reserved.",
    "license": "https://github.com/one-data-model/oneDM/blob/master/LICENSE",
    "title": "Energy Consumption",
    "version": "2019-02-15"
  },
  "sdfObject": {
    "energy.consumption": {
      "description": "This Resource describes the energy consumed by the Device since power\\nup (the energy value is in Watt Hours [Wh]) and the instantaneous\\npower draw of the device (the power value is in Watts [W]) at the\\ntime the resource was queried. The Property \"power\" value is in Watts\\n[W]. The Property \"energy\" value is in Watt Hours [Wh]. The Resource\\nprovides the current power draw and cumulative energy usage.",
      "sdfProperty": {
        "power": {
          "description": "The instantaneous Power.",
          "writable": false,
          "type": "number"
        },
        "energy": {
          "description": "The energy consumed.",
          "writable": false,
          "type": "number"
        }
      },
      "sdfRequired": [
        "#/sdfObject/energy.consumption/sdfProperty/power",
        "#/sdfObject/energy.consumption/sdfProperty/energy"
      ]
    }
  }
}
@endjson

PlantUML version 1.2021.2(Sun Mar 07 13:10:27 EET 2021)
(GPL source distribution)
Java Runtime: OpenJDK Runtime Environment
JVM: OpenJDK 64-Bit Server VM
Default Encoding: UTF-8
Language: en
Country: FI
--></g></svg>