<?xml version="1.0" encoding="UTF-8" standalone="no"?><svg xmlns="http://www.w3.org/2000/svg" xmlns:xlink="http://www.w3.org/1999/xlink" contentScriptType="application/ecmascript" contentStyleType="text/css" height="556px" preserveAspectRatio="none" style="width:2487px;height:556px;" version="1.1" viewBox="0 0 2487 556" width="2487px" zoomAndPan="magnify"><defs/><g><rect fill="#FEFECE" height="40.9766" rx="5" ry="5" style="stroke:#FEFECE;stroke-width:1.5;" width="97" x="10" y="248.5"/><text fill="#000000" font-family="sans-serif" font-size="14" lengthAdjust="spacing" textLength="27" x="15" y="264.0352">info</text><text fill="#000000" font-family="sans-serif" font-size="14" lengthAdjust="spacing" textLength="0" x="102" y="264.0352"/><line style="stroke:#A80036;stroke-width:1.0;" x1="85" x2="85" y1="248.5" y2="268.9883"/><line style="stroke:#A80036;stroke-width:1.0;" x1="10" x2="107" y1="268.9883" y2="268.9883"/><text fill="#000000" font-family="sans-serif" font-size="14" lengthAdjust="spacing" textLength="65" x="15" y="284.5234">sdfObject</text><text fill="#000000" font-family="sans-serif" font-size="14" lengthAdjust="spacing" textLength="0" x="102" y="284.5234"/><line style="stroke:#A80036;stroke-width:1.0;" x1="85" x2="85" y1="268.9883" y2="289.4766"/><rect fill="none" height="40.9766" rx="5" ry="5" style="stroke:#A80036;stroke-width:1.5;" width="97" x="10" y="248.5"/><rect fill="#FEFECE" height="81.9531" rx="5" ry="5" style="stroke:#FEFECE;stroke-width:1.5;" width="614" x="144" y="193"/><text fill="#000000" font-family="sans-serif" font-size="14" lengthAdjust="spacing" textLength="65" x="149" y="208.5352">copyright</text><text fill="#000000" font-family="sans-serif" font-size="14" lengthAdjust="spacing" textLength="529" x="224" y="208.5352">Copyright 2016-2019 Open Connectivity Foundation, Inc. All rights reserved.</text><line style="stroke:#A80036;stroke-width:1.0;" x1="219" x2="219" y1="193" y2="213.4883"/><line style="stroke:#A80036;stroke-width:1.0;" x1="144" x2="758" y1="213.4883" y2="213.4883"/><text fill="#000000" font-family="sans-serif" font-size="14" lengthAdjust="spacing" textLength="47" x="149" y="229.0234">license</text><text fill="#000000" font-family="sans-serif" font-size="14" lengthAdjust="spacing" textLength="462" x="224" y="229.0234">https://github.com/one-data-model/oneDM/blob/master/LICENSE</text><line style="stroke:#A80036;stroke-width:1.0;" x1="219" x2="219" y1="213.4883" y2="233.9766"/><line style="stroke:#A80036;stroke-width:1.0;" x1="144" x2="758" y1="233.9766" y2="233.9766"/><text fill="#000000" font-family="sans-serif" font-size="14" lengthAdjust="spacing" textLength="26" x="149" y="249.5117">title</text><text fill="#000000" font-family="sans-serif" font-size="14" lengthAdjust="spacing" textLength="462" x="224" y="249.5117">Hemoglobin Bound to Glucose A1c Form (HbA1c) for Glucose Meter</text><line style="stroke:#A80036;stroke-width:1.0;" x1="219" x2="219" y1="233.9766" y2="254.4648"/><line style="stroke:#A80036;stroke-width:1.0;" x1="144" x2="758" y1="254.4648" y2="254.4648"/><text fill="#000000" font-family="sans-serif" font-size="14" lengthAdjust="spacing" textLength="50" x="149" y="270">version</text><text fill="#000000" font-family="sans-serif" font-size="14" lengthAdjust="spacing" textLength="88" x="224" y="270">2019-03-22</text><line style="stroke:#A80036;stroke-width:1.0;" x1="219" x2="219" y1="254.4648" y2="274.9531"/><rect fill="none" height="81.9531" rx="5" ry="5" style="stroke:#A80036;stroke-width:1.5;" width="614" x="144" y="193"/><rect fill="#FEFECE" height="20.4883" rx="5" ry="5" style="stroke:#FEFECE;stroke-width:1.5;" width="131" x="385.5" y="293"/><text fill="#000000" font-family="sans-serif" font-size="14" lengthAdjust="spacing" textLength="99" x="390.5" y="308.5352">glucose.hba1c</text><text fill="#000000" font-family="sans-serif" font-size="14" lengthAdjust="spacing" textLength="0" x="511.5" y="308.5352"/><line style="stroke:#A80036;stroke-width:1.0;" x1="494.5" x2="494.5" y1="293" y2="313.4883"/><rect fill="none" height="20.4883" rx="5" ry="5" style="stroke:#A80036;stroke-width:1.5;" width="131" x="385.5" y="293"/><rect fill="#FEFECE" height="94.4414" rx="5" ry="5" style="stroke:#FEFECE;stroke-width:1.5;" width="564" x="795" y="256"/><text fill="#000000" font-family="sans-serif" font-size="14" lengthAdjust="spacing" textLength="77" x="800" y="271.5352">description</text><text fill="#000000" font-family="sans-serif" font-size="14" lengthAdjust="spacing" textLength="448" x="893" y="271.5352">This Resource describes the Properties associated with a person's</text><text fill="#000000" font-family="sans-serif" font-size="14" lengthAdjust="spacing" textLength="461" x="893" y="288.0234">hba1c level. The unit is a single value that is percentage. The hba1c</text><text fill="#000000" font-family="sans-serif" font-size="14" lengthAdjust="spacing" textLength="405" x="893" y="304.5117">Property is a read-only value that is provided by the Server.</text><line style="stroke:#A80036;stroke-width:1.0;" x1="888" x2="888" y1="256" y2="309.4648"/><line style="stroke:#A80036;stroke-width:1.0;" x1="795" x2="1359" y1="309.4648" y2="309.4648"/><text fill="#000000" font-family="sans-serif" font-size="14" lengthAdjust="spacing" textLength="79" x="800" y="325">sdfProperty</text><text fill="#000000" font-family="sans-serif" font-size="14" lengthAdjust="spacing" textLength="0" x="905" y="325"/><line style="stroke:#A80036;stroke-width:1.0;" x1="888" x2="888" y1="309.4648" y2="329.9531"/><line style="stroke:#A80036;stroke-width:1.0;" x1="795" x2="1359" y1="329.9531" y2="329.9531"/><text fill="#000000" font-family="sans-serif" font-size="14" lengthAdjust="spacing" textLength="83" x="800" y="345.4883">sdfRequired</text><text fill="#000000" font-family="sans-serif" font-size="14" lengthAdjust="spacing" textLength="0" x="905" y="345.4883"/><line style="stroke:#A80036;stroke-width:1.0;" x1="888" x2="888" y1="329.9531" y2="350.4414"/><rect fill="none" height="94.4414" rx="5" ry="5" style="stroke:#A80036;stroke-width:1.5;" width="564" x="795" y="256"/><rect fill="#FEFECE" height="81.9531" rx="5" ry="5" style="stroke:#FEFECE;stroke-width:1.5;" width="95" x="1514.5" y="243"/><text fill="#000000" font-family="sans-serif" font-size="14" lengthAdjust="spacing" textLength="42" x="1519.5" y="258.5352">hba1c</text><text fill="#000000" font-family="sans-serif" font-size="14" lengthAdjust="spacing" textLength="0" x="1604.5" y="258.5352"/><line style="stroke:#A80036;stroke-width:1.0;" x1="1587.5" x2="1587.5" y1="243" y2="263.4883"/><line style="stroke:#A80036;stroke-width:1.0;" x1="1514.5" x2="1609.5" y1="263.4883" y2="263.4883"/><text fill="#000000" font-family="sans-serif" font-size="14" lengthAdjust="spacing" textLength="40" x="1519.5" y="279.0234">range</text><text fill="#000000" font-family="sans-serif" font-size="14" lengthAdjust="spacing" textLength="0" x="1604.5" y="279.0234"/><line style="stroke:#A80036;stroke-width:1.0;" x1="1587.5" x2="1587.5" y1="263.4883" y2="283.9766"/><line style="stroke:#A80036;stroke-width:1.0;" x1="1514.5" x2="1609.5" y1="283.9766" y2="283.9766"/><text fill="#000000" font-family="sans-serif" font-size="14" lengthAdjust="spacing" textLength="29" x="1519.5" y="299.5117">step</text><text fill="#000000" font-family="sans-serif" font-size="14" lengthAdjust="spacing" textLength="0" x="1604.5" y="299.5117"/><line style="stroke:#A80036;stroke-width:1.0;" x1="1587.5" x2="1587.5" y1="283.9766" y2="304.4648"/><line style="stroke:#A80036;stroke-width:1.0;" x1="1514.5" x2="1609.5" y1="304.4648" y2="304.4648"/><text fill="#000000" font-family="sans-serif" font-size="14" lengthAdjust="spacing" textLength="63" x="1519.5" y="320">precision</text><text fill="#000000" font-family="sans-serif" font-size="14" lengthAdjust="spacing" textLength="0" x="1604.5" y="320"/><line style="stroke:#A80036;stroke-width:1.0;" x1="1587.5" x2="1587.5" y1="304.4648" y2="324.9531"/><rect fill="none" height="81.9531" rx="5" ry="5" style="stroke:#A80036;stroke-width:1.5;" width="95" x="1514.5" y="243"/><rect fill="#FEFECE" height="102.4414" rx="5" ry="5" style="stroke:#FEFECE;stroke-width:1.5;" width="395" x="1852.5" y="10"/><text fill="#000000" font-family="sans-serif" font-size="14" lengthAdjust="spacing" textLength="77" x="1857.5" y="25.5352">description</text><text fill="#000000" font-family="sans-serif" font-size="14" lengthAdjust="spacing" textLength="298" x="1944.5" y="25.5352">Current HbA1c measurement in percentage</text><line style="stroke:#A80036;stroke-width:1.0;" x1="1939.5" x2="1939.5" y1="10" y2="30.4883"/><line style="stroke:#A80036;stroke-width:1.0;" x1="1852.5" x2="2247.5" y1="30.4883" y2="30.4883"/><text fill="#000000" font-family="sans-serif" font-size="14" lengthAdjust="spacing" textLength="69" x="1857.5" y="46.0234">maximum</text><text fill="#000000" font-family="sans-serif" font-size="14" lengthAdjust="spacing" textLength="27" x="1944.5" y="46.0234">100</text><line style="stroke:#A80036;stroke-width:1.0;" x1="1939.5" x2="1939.5" y1="30.4883" y2="50.9766"/><line style="stroke:#A80036;stroke-width:1.0;" x1="1852.5" x2="2247.5" y1="50.9766" y2="50.9766"/><text fill="#000000" font-family="sans-serif" font-size="14" lengthAdjust="spacing" textLength="65" x="1857.5" y="66.5117">minimum</text><text fill="#000000" font-family="sans-serif" font-size="14" lengthAdjust="spacing" textLength="9" x="1944.5" y="66.5117">0</text><line style="stroke:#A80036;stroke-width:1.0;" x1="1939.5" x2="1939.5" y1="50.9766" y2="71.4648"/><line style="stroke:#A80036;stroke-width:1.0;" x1="1852.5" x2="2247.5" y1="71.4648" y2="71.4648"/><text fill="#000000" font-family="sans-serif" font-size="14" lengthAdjust="spacing" textLength="55" x="1857.5" y="87">writable</text><text fill="#000000" font-family="sans-serif" font-size="14" lengthAdjust="spacing" textLength="48" x="1944.5" y="87">☐ false</text><line style="stroke:#A80036;stroke-width:1.0;" x1="1939.5" x2="1939.5" y1="71.4648" y2="91.9531"/><line style="stroke:#A80036;stroke-width:1.0;" x1="1852.5" x2="2247.5" y1="91.9531" y2="91.9531"/><text fill="#000000" font-family="sans-serif" font-size="14" lengthAdjust="spacing" textLength="29" x="1857.5" y="107.4883">type</text><text fill="#000000" font-family="sans-serif" font-size="14" lengthAdjust="spacing" textLength="54" x="1944.5" y="107.4883">number</text><line style="stroke:#A80036;stroke-width:1.0;" x1="1939.5" x2="1939.5" y1="91.9531" y2="112.4414"/><rect fill="none" height="102.4414" rx="5" ry="5" style="stroke:#A80036;stroke-width:1.5;" width="395" x="1852.5" y="10"/><rect fill="#FEFECE" height="155.9063" rx="5" ry="5" style="stroke:#FEFECE;stroke-width:1.5;" width="548" x="1776" y="130"/><text fill="#000000" font-family="sans-serif" font-size="14" lengthAdjust="spacing" textLength="29" x="1781" y="145.5352">type</text><text fill="#000000" font-family="sans-serif" font-size="14" lengthAdjust="spacing" textLength="35" x="1868" y="145.5352">array</text><line style="stroke:#A80036;stroke-width:1.0;" x1="1863" x2="1863" y1="130" y2="150.4883"/><line style="stroke:#A80036;stroke-width:1.0;" x1="1776" x2="2324" y1="150.4883" y2="150.4883"/><text fill="#000000" font-family="sans-serif" font-size="14" lengthAdjust="spacing" textLength="77" x="1781" y="166.0234">description</text><text fill="#000000" font-family="sans-serif" font-size="14" lengthAdjust="spacing" textLength="451" x="1868" y="166.0234">The valid range for the Property in the Resource as a number. The</text><text fill="#000000" font-family="sans-serif" font-size="14" lengthAdjust="spacing" textLength="439" x="1868" y="182.5117">first value in the array is the minimum value, the second value in</text><text fill="#000000" font-family="sans-serif" font-size="14" lengthAdjust="spacing" textLength="219" x="1868" y="199">the array is the maximum value.</text><line style="stroke:#A80036;stroke-width:1.0;" x1="1863" x2="1863" y1="150.4883" y2="203.9531"/><line style="stroke:#A80036;stroke-width:1.0;" x1="1776" x2="2324" y1="203.9531" y2="203.9531"/><text fill="#000000" font-family="sans-serif" font-size="14" lengthAdjust="spacing" textLength="55" x="1781" y="219.4883">writable</text><text fill="#000000" font-family="sans-serif" font-size="14" lengthAdjust="spacing" textLength="48" x="1868" y="219.4883">☐ false</text><line style="stroke:#A80036;stroke-width:1.0;" x1="1863" x2="1863" y1="203.9531" y2="224.4414"/><line style="stroke:#A80036;stroke-width:1.0;" x1="1776" x2="2324" y1="224.4414" y2="224.4414"/><text fill="#000000" font-family="sans-serif" font-size="14" lengthAdjust="spacing" textLength="63" x="1781" y="239.9766">minItems</text><text fill="#000000" font-family="sans-serif" font-size="14" lengthAdjust="spacing" textLength="9" x="1868" y="239.9766">2</text><line style="stroke:#A80036;stroke-width:1.0;" x1="1863" x2="1863" y1="224.4414" y2="244.9297"/><line style="stroke:#A80036;stroke-width:1.0;" x1="1776" x2="2324" y1="244.9297" y2="244.9297"/><text fill="#000000" font-family="sans-serif" font-size="14" lengthAdjust="spacing" textLength="67" x="1781" y="260.4648">maxItems</text><text fill="#000000" font-family="sans-serif" font-size="14" lengthAdjust="spacing" textLength="9" x="1868" y="260.4648">2</text><line style="stroke:#A80036;stroke-width:1.0;" x1="1863" x2="1863" y1="244.9297" y2="265.418"/><line style="stroke:#A80036;stroke-width:1.0;" x1="1776" x2="2324" y1="265.418" y2="265.418"/><text fill="#000000" font-family="sans-serif" font-size="14" lengthAdjust="spacing" textLength="37" x="1781" y="280.9531">items</text><text fill="#000000" font-family="sans-serif" font-size="14" lengthAdjust="spacing" textLength="0" x="1880" y="280.9531"/><line style="stroke:#A80036;stroke-width:1.0;" x1="1863" x2="1863" y1="265.418" y2="285.9063"/><rect fill="none" height="155.9063" rx="5" ry="5" style="stroke:#A80036;stroke-width:1.5;" width="548" x="1776" y="130"/><rect fill="#FEFECE" height="20.4883" rx="5" ry="5" style="stroke:#FEFECE;stroke-width:1.5;" width="103" x="2372" y="263"/><text fill="#000000" font-family="sans-serif" font-size="14" lengthAdjust="spacing" textLength="29" x="2377" y="278.5352">type</text><text fill="#000000" font-family="sans-serif" font-size="14" lengthAdjust="spacing" textLength="54" x="2416" y="278.5352">number</text><line style="stroke:#A80036;stroke-width:1.0;" x1="2411" x2="2411" y1="263" y2="283.4883"/><rect fill="none" height="20.4883" rx="5" ry="5" style="stroke:#A80036;stroke-width:1.5;" width="103" x="2372" y="263"/><rect fill="#FEFECE" height="110.9297" rx="5" ry="5" style="stroke:#FEFECE;stroke-width:1.5;" width="555" x="1772.5" y="304.5"/><text fill="#000000" font-family="sans-serif" font-size="14" lengthAdjust="spacing" textLength="77" x="1777.5" y="320.0352">description</text><text fill="#000000" font-family="sans-serif" font-size="14" lengthAdjust="spacing" textLength="456" x="1864.5" y="320.0352">Step value across the defined range an integer when the range is a</text><text fill="#000000" font-family="sans-serif" font-size="14" lengthAdjust="spacing" textLength="458" x="1864.5" y="336.5234">number.  This is the increment for valid values across the range; so</text><text fill="#000000" font-family="sans-serif" font-size="14" lengthAdjust="spacing" textLength="381" x="1864.5" y="353.0117">if range is 0.0..10.0 and step is 2.5 then valid values are</text><text fill="#000000" font-family="sans-serif" font-size="14" lengthAdjust="spacing" textLength="139" x="1864.5" y="369.5">0.0,2.5,5.0,7.5,10.0.</text><line style="stroke:#A80036;stroke-width:1.0;" x1="1859.5" x2="1859.5" y1="304.5" y2="374.4531"/><line style="stroke:#A80036;stroke-width:1.0;" x1="1772.5" x2="2327.5" y1="374.4531" y2="374.4531"/><text fill="#000000" font-family="sans-serif" font-size="14" lengthAdjust="spacing" textLength="55" x="1777.5" y="389.9883">writable</text><text fill="#000000" font-family="sans-serif" font-size="14" lengthAdjust="spacing" textLength="48" x="1864.5" y="389.9883">☐ false</text><line style="stroke:#A80036;stroke-width:1.0;" x1="1859.5" x2="1859.5" y1="374.4531" y2="394.9414"/><line style="stroke:#A80036;stroke-width:1.0;" x1="1772.5" x2="2327.5" y1="394.9414" y2="394.9414"/><text fill="#000000" font-family="sans-serif" font-size="14" lengthAdjust="spacing" textLength="29" x="1777.5" y="410.4766">type</text><text fill="#000000" font-family="sans-serif" font-size="14" lengthAdjust="spacing" textLength="54" x="1864.5" y="410.4766">number</text><line style="stroke:#A80036;stroke-width:1.0;" x1="1859.5" x2="1859.5" y1="394.9414" y2="415.4297"/><rect fill="none" height="110.9297" rx="5" ry="5" style="stroke:#A80036;stroke-width:1.5;" width="555" x="1772.5" y="304.5"/><rect fill="#FEFECE" height="110.9297" rx="5" ry="5" style="stroke:#FEFECE;stroke-width:1.5;" width="570" x="1765" y="433.5"/><text fill="#000000" font-family="sans-serif" font-size="14" lengthAdjust="spacing" textLength="29" x="1770" y="449.0352">type</text><text fill="#000000" font-family="sans-serif" font-size="14" lengthAdjust="spacing" textLength="54" x="1857" y="449.0352">number</text><line style="stroke:#A80036;stroke-width:1.0;" x1="1852" x2="1852" y1="433.5" y2="453.9883"/><line style="stroke:#A80036;stroke-width:1.0;" x1="1765" x2="2335" y1="453.9883" y2="453.9883"/><text fill="#000000" font-family="sans-serif" font-size="14" lengthAdjust="spacing" textLength="55" x="1770" y="469.5234">writable</text><text fill="#000000" font-family="sans-serif" font-size="14" lengthAdjust="spacing" textLength="48" x="1857" y="469.5234">☐ false</text><line style="stroke:#A80036;stroke-width:1.0;" x1="1852" x2="1852" y1="453.9883" y2="474.4766"/><line style="stroke:#A80036;stroke-width:1.0;" x1="1765" x2="2335" y1="474.4766" y2="474.4766"/><text fill="#000000" font-family="sans-serif" font-size="14" lengthAdjust="spacing" textLength="77" x="1770" y="490.0117">description</text><text fill="#000000" font-family="sans-serif" font-size="14" lengthAdjust="spacing" textLength="430" x="1857" y="490.0117">When exposed the value in 'precision' provides a +/- tolerance</text><text fill="#000000" font-family="sans-serif" font-size="14" lengthAdjust="spacing" textLength="473" x="1857" y="506.5">against the Properties in the Resource. Thus if a Property is UPDATED</text><text fill="#000000" font-family="sans-serif" font-size="14" lengthAdjust="spacing" textLength="465" x="1857" y="522.9883">to a value and that Property then RETRIEVED, the RETRIEVED value is</text><text fill="#000000" font-family="sans-serif" font-size="14" lengthAdjust="spacing" textLength="337" x="1857" y="539.4766">valid if in the range of the set value +/- precision</text><line style="stroke:#A80036;stroke-width:1.0;" x1="1852" x2="1852" y1="474.4766" y2="544.4297"/><rect fill="none" height="110.9297" rx="5" ry="5" style="stroke:#A80036;stroke-width:1.5;" width="570" x="1765" y="433.5"/><rect fill="#FEFECE" height="20.4883" rx="5" ry="5" style="stroke:#FEFECE;stroke-width:1.5;" width="332" x="1396" y="343"/><text fill="#000000" font-family="sans-serif" font-size="14" lengthAdjust="spacing" textLength="322" x="1401" y="358.5352">#/sdfObject/glucose.hba1c/sdfProperty/hba1c</text><rect fill="none" height="20.4883" rx="5" ry="5" style="stroke:#A80036;stroke-width:1.5;" width="332" x="1396" y="343"/><path d="M95,258 L108,258 C117.4068,258 126.9554,257.9088 136.5926,257.7376 " fill="none" style="stroke:#A80036;stroke-width:1.0;stroke-dasharray:3.0,3.0;"/><path d="M136.6543,260.8363 L138.9166,257.6914 L136.5309,254.6389 L144.3394,257.5834 L136.6543,260.8363 " fill="#A80036" style="stroke:#A80036;stroke-width:1.0;"/><ellipse cx="95" cy="258" fill="#A80036" rx="3" ry="3" style="stroke:#A80036;stroke-width:1.0;stroke-dasharray:3.0,3.0;"/><path d="M1598.5,253 L1611.5,253 C1701.478,253 1684.3367,160.8683 1765,121 C1790.0284,108.6295 1817.5215,98.8037 1845.2461,91.0004 " fill="none" style="stroke:#A80036;stroke-width:1.0;stroke-dasharray:3.0,3.0;"/><path d="M1846.0636,93.975 L1847.477,90.3872 L1844.4285,88.0258 L1852.6826,88.9565 L1846.0636,93.975 " fill="#A80036" style="stroke:#A80036;stroke-width:1.0;"/><ellipse cx="1598.5" cy="253" fill="#A80036" rx="3" ry="3" style="stroke:#A80036;stroke-width:1.0;stroke-dasharray:3.0,3.0;"/><path d="M2312.5,273 L2325.5,273 C2338.235,273 2351.9056,273 2364.8621,273 " fill="none" style="stroke:#A80036;stroke-width:1.0;stroke-dasharray:3.0,3.0;"/><path d="M2364.8621,276.0134 L2367.1221,273 L2364.8621,269.9866 L2372.3956,273 L2364.8621,276.0134 " fill="#A80036" style="stroke:#A80036;stroke-width:1.0;"/><ellipse cx="2312.5" cy="273" fill="#A80036" rx="3" ry="3" style="stroke:#A80036;stroke-width:1.0;stroke-dasharray:3.0,3.0;"/><path d="M1598.5,273 L1611.5,273 C1662.6065,273 1716.7074,268.6165 1768.8011,262.1262 " fill="none" style="stroke:#A80036;stroke-width:1.0;stroke-dasharray:3.0,3.0;"/><path d="M1769.1901,265.1945 L1771.1023,261.8344 L1768.412,259.0579 L1776.4718,261.1536 L1769.1901,265.1945 " fill="#A80036" style="stroke:#A80036;stroke-width:1.0;"/><ellipse cx="1598.5" cy="273" fill="#A80036" rx="3" ry="3" style="stroke:#A80036;stroke-width:1.0;stroke-dasharray:3.0,3.0;"/><path d="M1598.5,294 L1611.5,294 C1661.5241,294 1714.4068,298.2616 1765.4653,304.6189 " fill="none" style="stroke:#A80036;stroke-width:1.0;stroke-dasharray:3.0,3.0;"/><path d="M1765.0842,307.6267 L1767.7211,304.9048 L1765.8465,301.6112 L1772.9847,305.5718 L1765.0842,307.6267 " fill="#A80036" style="stroke:#A80036;stroke-width:1.0;"/><ellipse cx="1598.5" cy="294" fill="#A80036" rx="3" ry="3" style="stroke:#A80036;stroke-width:1.0;stroke-dasharray:3.0,3.0;"/><path d="M1598.5,315 L1611.5,315 C1664.4006,315 1687.773,300.8518 1729,334 C1762.8964,361.2541 1731.9499,396.7256 1765,425 C1766.3675,426.1699 1767.7518,427.3196 1769.1523,428.4495 " fill="none" style="stroke:#A80036;stroke-width:1.0;stroke-dasharray:3.0,3.0;"/><path d="M1767.221,430.9463 L1771.0249,429.898 L1771.0837,425.9528 L1775.3942,433.2779 L1767.221,430.9463 " fill="#A80036" style="stroke:#A80036;stroke-width:1.0;"/><ellipse cx="1598.5" cy="315" fill="#A80036" rx="3" ry="3" style="stroke:#A80036;stroke-width:1.0;stroke-dasharray:3.0,3.0;"/><path d="M1347,302 L1360,302 C1409.9881,302 1466.676,296.4362 1507.1628,291.4952 " fill="none" style="stroke:#A80036;stroke-width:1.0;stroke-dasharray:3.0,3.0;"/><path d="M1507.5412,294.5432 L1509.4488,291.2115 L1506.7845,288.4472 L1514.7829,290.5493 L1507.5412,294.5432 " fill="#A80036" style="stroke:#A80036;stroke-width:1.0;"/><ellipse cx="1347" cy="302" fill="#A80036" rx="3" ry="3" style="stroke:#A80036;stroke-width:1.0;stroke-dasharray:3.0,3.0;"/><path d="M1347,334 L1360,334 C1400.5135,334 1445.4073,337.8541 1482.5178,342.0906 " fill="none" style="stroke:#A80036;stroke-width:1.0;stroke-dasharray:3.0,3.0;"/><path d="M1482.1544,345.2092 L1484.8567,342.3632 L1482.8812,338.9721 L1490.3142,342.9992 L1482.1544,345.2092 " fill="#A80036" style="stroke:#A80036;stroke-width:1.0;"/><ellipse cx="1347" cy="334" fill="#A80036" rx="3" ry="3" style="stroke:#A80036;stroke-width:1.0;stroke-dasharray:3.0,3.0;"/><path d="M505.5,303 L518.5,303 C606.0423,303 701.31,303 787.941,303 " fill="none" style="stroke:#A80036;stroke-width:1.0;stroke-dasharray:3.0,3.0;"/><path d="M787.941,306.0209 L790.2067,303 L787.941,299.9791 L795.4933,303 L787.941,306.0209 " fill="#A80036" style="stroke:#A80036;stroke-width:1.0;"/><ellipse cx="505.5" cy="303" fill="#A80036" rx="3" ry="3" style="stroke:#A80036;stroke-width:1.0;stroke-dasharray:3.0,3.0;"/><path d="M95,279 L108,279 C124.1536,279 127.927,282.388 144,284 C223.8691,292.0103 315.8082,297.1704 377.9937,300.0622 " fill="none" style="stroke:#A80036;stroke-width:1.0;stroke-dasharray:3.0,3.0;"/><path d="M377.8502,303.1872 L380.3374,300.1698 L378.1372,296.9372 L385.8061,300.4208 L377.8502,303.1872 " fill="#A80036" style="stroke:#A80036;stroke-width:1.0;"/><ellipse cx="95" cy="279" fill="#A80036" rx="3" ry="3" style="stroke:#A80036;stroke-width:1.0;stroke-dasharray:3.0,3.0;"/><!--MD5=[8fe8c4218bf3307bada7b634032e1a0f]
@startjson
{
  "info": {
    "copyright": "Copyright 2016-2019 Open Connectivity Foundation, Inc. All rights reserved.",
    "license": "https://github.com/one-data-model/oneDM/blob/master/LICENSE",
    "title": "Hemoglobin Bound to Glucose A1c Form (HbA1c) for Glucose Meter",
    "version": "2019-03-22"
  },
  "sdfObject": {
    "glucose.hba1c": {
      "description": "This Resource describes the Properties associated with a person's\\nhba1c level. The unit is a single value that is percentage. The hba1c\\nProperty is a read-only value that is provided by the Server.",
      "sdfProperty": {
        "hba1c": {
          "description": "Current HbA1c measurement in percentage",
          "maximum": 100,
          "minimum": 0,
          "writable": false,
          "type": "number"
        },
        "range": {
          "type": "array",
          "description": "The valid range for the Property in the Resource as a number. The\\nfirst value in the array is the minimum value, the second value in\\nthe array is the maximum value.",
          "writable": false,
          "minItems": 2,
          "maxItems": 2,
          "items": {
            "type": "number"
          }
        },
        "step": {
          "description": "Step value across the defined range an integer when the range is a\\nnumber.  This is the increment for valid values across the range; so\\nif range is 0.0..10.0 and step is 2.5 then valid values are\\n0.0,2.5,5.0,7.5,10.0.",
          "writable": false,
          "type": "number"
        },
        "precision": {
          "type": "number",
          "writable": false,
          "description": "When exposed the value in 'precision' provides a +/- tolerance\\nagainst the Properties in the Resource. Thus if a Property is UPDATED\\nto a value and that Property then RETRIEVED, the RETRIEVED value is\\nvalid if in the range of the set value +/- precision"
        }
      },
      "sdfRequired": [
        "#/sdfObject/glucose.hba1c/sdfProperty/hba1c"
      ]
    }
  }
}
@endjson

PlantUML version 1.2021.2(Sun Mar 07 13:10:27 EET 2021)
(GPL source distribution)
Java Runtime: OpenJDK Runtime Environment
JVM: OpenJDK 64-Bit Server VM
Default Encoding: UTF-8
Language: en
Country: FI
--></g></svg>