<?xml version="1.0" encoding="UTF-8" standalone="no"?><svg xmlns="http://www.w3.org/2000/svg" xmlns:xlink="http://www.w3.org/1999/xlink" contentScriptType="application/ecmascript" contentStyleType="text/css" height="435px" preserveAspectRatio="none" style="width:3179px;height:435px;" version="1.1" viewBox="0 0 3179 435" width="3179px" zoomAndPan="magnify"><defs/><g><rect fill="#FEFECE" height="81.9531" rx="5" ry="5" style="stroke:#FEFECE;stroke-width:1.5;" width="164" x="10" y="88"/><text fill="#000000" font-family="sans-serif" font-size="14" lengthAdjust="spacing" textLength="27" x="15" y="103.5352">info</text><text fill="#000000" font-family="sans-serif" font-size="14" lengthAdjust="spacing" textLength="0" x="163" y="103.5352"/><line style="stroke:#A80036;stroke-width:1.0;" x1="146" x2="146" y1="88" y2="108.4883"/><line style="stroke:#A80036;stroke-width:1.0;" x1="10" x2="174" y1="108.4883" y2="108.4883"/><text fill="#000000" font-family="sans-serif" font-size="14" lengthAdjust="spacing" textLength="77" x="15" y="124.0234">namespace</text><text fill="#000000" font-family="sans-serif" font-size="14" lengthAdjust="spacing" textLength="0" x="163" y="124.0234"/><line style="stroke:#A80036;stroke-width:1.0;" x1="146" x2="146" y1="108.4883" y2="128.9766"/><line style="stroke:#A80036;stroke-width:1.0;" x1="10" x2="174" y1="128.9766" y2="128.9766"/><text fill="#000000" font-family="sans-serif" font-size="14" lengthAdjust="spacing" textLength="126" x="15" y="144.5117">defaultNamespace</text><text fill="#000000" font-family="sans-serif" font-size="14" lengthAdjust="spacing" textLength="18" x="151" y="144.5117">pg</text><line style="stroke:#A80036;stroke-width:1.0;" x1="146" x2="146" y1="128.9766" y2="149.4648"/><line style="stroke:#A80036;stroke-width:1.0;" x1="10" x2="174" y1="149.4648" y2="149.4648"/><text fill="#000000" font-family="sans-serif" font-size="14" lengthAdjust="spacing" textLength="65" x="15" y="165">sdfObject</text><text fill="#000000" font-family="sans-serif" font-size="14" lengthAdjust="spacing" textLength="0" x="163" y="165"/><line style="stroke:#A80036;stroke-width:1.0;" x1="146" x2="146" y1="149.4648" y2="169.9531"/><rect fill="none" height="81.9531" rx="5" ry="5" style="stroke:#A80036;stroke-width:1.5;" width="164" x="10" y="88"/><rect fill="#FEFECE" height="81.9531" rx="5" ry="5" style="stroke:#FEFECE;stroke-width:1.5;" width="547" x="211" y="10"/><text fill="#000000" font-family="sans-serif" font-size="14" lengthAdjust="spacing" textLength="26" x="216" y="25.5352">title</text><text fill="#000000" font-family="sans-serif" font-size="14" lengthAdjust="spacing" textLength="437" x="291" y="25.5352">Example Bluetooth mesh Generic Default Transition Time Model</text><line style="stroke:#A80036;stroke-width:1.0;" x1="286" x2="286" y1="10" y2="30.4883"/><line style="stroke:#A80036;stroke-width:1.0;" x1="211" x2="758" y1="30.4883" y2="30.4883"/><text fill="#000000" font-family="sans-serif" font-size="14" lengthAdjust="spacing" textLength="50" x="216" y="46.0234">version</text><text fill="#000000" font-family="sans-serif" font-size="14" lengthAdjust="spacing" textLength="72" x="291" y="46.0234">20200710</text><line style="stroke:#A80036;stroke-width:1.0;" x1="286" x2="286" y1="30.4883" y2="50.9766"/><line style="stroke:#A80036;stroke-width:1.0;" x1="211" x2="758" y1="50.9766" y2="50.9766"/><text fill="#000000" font-family="sans-serif" font-size="14" lengthAdjust="spacing" textLength="65" x="216" y="66.5117">copyright</text><text fill="#000000" font-family="sans-serif" font-size="14" lengthAdjust="spacing" textLength="329" x="291" y="66.5117">Copyright Bluetooth SIG, Inc. All rights reserved.</text><line style="stroke:#A80036;stroke-width:1.0;" x1="286" x2="286" y1="50.9766" y2="71.4648"/><line style="stroke:#A80036;stroke-width:1.0;" x1="211" x2="758" y1="71.4648" y2="71.4648"/><text fill="#000000" font-family="sans-serif" font-size="14" lengthAdjust="spacing" textLength="47" x="216" y="87">license</text><text fill="#000000" font-family="sans-serif" font-size="14" lengthAdjust="spacing" textLength="462" x="291" y="87">https://github.com/one-data-model/oneDM/blob/master/LICENSE</text><line style="stroke:#A80036;stroke-width:1.0;" x1="286" x2="286" y1="71.4648" y2="91.9531"/><rect fill="none" height="81.9531" rx="5" ry="5" style="stroke:#A80036;stroke-width:1.5;" width="547" x="211" y="10"/><rect fill="#FEFECE" height="20.4883" rx="5" ry="5" style="stroke:#FEFECE;stroke-width:1.5;" width="260" x="354.5" y="110"/><text fill="#000000" font-family="sans-serif" font-size="14" lengthAdjust="spacing" textLength="18" x="359.5" y="125.5352">pg</text><text fill="#000000" font-family="sans-serif" font-size="14" lengthAdjust="spacing" textLength="222" x="387.5" y="125.5352">https://onedm.org/playground/</text><line style="stroke:#A80036;stroke-width:1.0;" x1="382.5" x2="382.5" y1="110" y2="130.4883"/><rect fill="none" height="20.4883" rx="5" ry="5" style="stroke:#A80036;stroke-width:1.5;" width="260" x="354.5" y="110"/><rect fill="#FEFECE" height="20.4883" rx="5" ry="5" style="stroke:#FEFECE;stroke-width:1.5;" width="237" x="366" y="150"/><text fill="#000000" font-family="sans-serif" font-size="14" lengthAdjust="spacing" textLength="205" x="371" y="165.5352">GenericDefaultTransitionTime</text><text fill="#000000" font-family="sans-serif" font-size="14" lengthAdjust="spacing" textLength="0" x="598" y="165.5352"/><line style="stroke:#A80036;stroke-width:1.0;" x1="581" x2="581" y1="150" y2="170.4883"/><rect fill="none" height="20.4883" rx="5" ry="5" style="stroke:#A80036;stroke-width:1.5;" width="237" x="366" y="150"/><rect fill="#FEFECE" height="61.4648" rx="5" ry="5" style="stroke:#FEFECE;stroke-width:1.5;" width="111" x="795" y="129.5"/><text fill="#000000" font-family="sans-serif" font-size="14" lengthAdjust="spacing" textLength="79" x="800" y="145.0352">sdfProperty</text><text fill="#000000" font-family="sans-serif" font-size="14" lengthAdjust="spacing" textLength="0" x="901" y="145.0352"/><line style="stroke:#A80036;stroke-width:1.0;" x1="884" x2="884" y1="129.5" y2="149.9883"/><line style="stroke:#A80036;stroke-width:1.0;" x1="795" x2="906" y1="149.9883" y2="149.9883"/><text fill="#000000" font-family="sans-serif" font-size="14" lengthAdjust="spacing" textLength="65" x="800" y="165.5234">sdfAction</text><text fill="#000000" font-family="sans-serif" font-size="14" lengthAdjust="spacing" textLength="0" x="901" y="165.5234"/><line style="stroke:#A80036;stroke-width:1.0;" x1="884" x2="884" y1="149.9883" y2="170.4766"/><line style="stroke:#A80036;stroke-width:1.0;" x1="795" x2="906" y1="170.4766" y2="170.4766"/><text fill="#000000" font-family="sans-serif" font-size="14" lengthAdjust="spacing" textLength="52" x="800" y="186.0117">sdfData</text><text fill="#000000" font-family="sans-serif" font-size="14" lengthAdjust="spacing" textLength="0" x="901" y="186.0117"/><line style="stroke:#A80036;stroke-width:1.0;" x1="884" x2="884" y1="170.4766" y2="190.9648"/><rect fill="none" height="61.4648" rx="5" ry="5" style="stroke:#A80036;stroke-width:1.5;" width="111" x="795" y="129.5"/><rect fill="#FEFECE" height="40.9766" rx="5" ry="5" style="stroke:#FEFECE;stroke-width:1.5;" width="222" x="943" y="34.5"/><text fill="#000000" font-family="sans-serif" font-size="14" lengthAdjust="spacing" textLength="190" x="948" y="50.0352">DefaultTransitionTimeSteps</text><text fill="#000000" font-family="sans-serif" font-size="14" lengthAdjust="spacing" textLength="0" x="1160" y="50.0352"/><line style="stroke:#A80036;stroke-width:1.0;" x1="1143" x2="1143" y1="34.5" y2="54.9883"/><line style="stroke:#A80036;stroke-width:1.0;" x1="943" x2="1165" y1="54.9883" y2="54.9883"/><text fill="#000000" font-family="sans-serif" font-size="14" lengthAdjust="spacing" textLength="152" x="948" y="70.5234">DefaultStepResolution</text><text fill="#000000" font-family="sans-serif" font-size="14" lengthAdjust="spacing" textLength="0" x="1160" y="70.5234"/><line style="stroke:#A80036;stroke-width:1.0;" x1="1143" x2="1143" y1="54.9883" y2="75.4766"/><rect fill="none" height="40.9766" rx="5" ry="5" style="stroke:#A80036;stroke-width:1.5;" width="222" x="943" y="34.5"/><rect fill="#FEFECE" height="20.4883" rx="5" ry="5" style="stroke:#FEFECE;stroke-width:1.5;" width="563" x="1202" y="17"/><text fill="#000000" font-family="sans-serif" font-size="14" lengthAdjust="spacing" textLength="43" x="1207" y="32.5352">sdfRef</text><text fill="#000000" font-family="sans-serif" font-size="14" lengthAdjust="spacing" textLength="500" x="1260" y="32.5352">#/sdfObject/GenericDefaultTransitionTime/sdfData/TransitionTimeSteps</text><line style="stroke:#A80036;stroke-width:1.0;" x1="1255" x2="1255" y1="17" y2="37.4883"/><rect fill="none" height="20.4883" rx="5" ry="5" style="stroke:#A80036;stroke-width:1.5;" width="563" x="1202" y="17"/><rect fill="#FEFECE" height="20.4883" rx="5" ry="5" style="stroke:#FEFECE;stroke-width:1.5;" width="525" x="1221" y="55"/><text fill="#000000" font-family="sans-serif" font-size="14" lengthAdjust="spacing" textLength="43" x="1226" y="70.5352">sdfRef</text><text fill="#000000" font-family="sans-serif" font-size="14" lengthAdjust="spacing" textLength="462" x="1279" y="70.5352">#/sdfObject/GenericDefaultTransitionTime/sdfData/StepResolution</text><line style="stroke:#A80036;stroke-width:1.0;" x1="1274" x2="1274" y1="55" y2="75.4883"/><rect fill="none" height="20.4883" rx="5" ry="5" style="stroke:#A80036;stroke-width:1.5;" width="525" x="1221" y="55"/><rect fill="#FEFECE" height="40.9766" rx="5" ry="5" style="stroke:#FEFECE;stroke-width:1.5;" width="208" x="950" y="138.5"/><text fill="#000000" font-family="sans-serif" font-size="14" lengthAdjust="spacing" textLength="176" x="955" y="154.0352">DefaultTransitionTimeGet</text><text fill="#000000" font-family="sans-serif" font-size="14" lengthAdjust="spacing" textLength="0" x="1153" y="154.0352"/><line style="stroke:#A80036;stroke-width:1.0;" x1="1136" x2="1136" y1="138.5" y2="158.9883"/><line style="stroke:#A80036;stroke-width:1.0;" x1="950" x2="1158" y1="158.9883" y2="158.9883"/><text fill="#000000" font-family="sans-serif" font-size="14" lengthAdjust="spacing" textLength="174" x="955" y="174.5234">DefaultTransitionTimeSet</text><text fill="#000000" font-family="sans-serif" font-size="14" lengthAdjust="spacing" textLength="0" x="1153" y="174.5234"/><line style="stroke:#A80036;stroke-width:1.0;" x1="1136" x2="1136" y1="158.9883" y2="179.4766"/><rect fill="none" height="40.9766" rx="5" ry="5" style="stroke:#A80036;stroke-width:1.5;" width="208" x="950" y="138.5"/><rect fill="#FEFECE" height="61.4648" rx="5" ry="5" style="stroke:#FEFECE;stroke-width:1.5;" width="313" x="1327" y="93.5"/><text fill="#000000" font-family="sans-serif" font-size="14" lengthAdjust="spacing" textLength="77" x="1332" y="109.0352">description</text><text fill="#000000" font-family="sans-serif" font-size="14" lengthAdjust="spacing" textLength="205" x="1430" y="109.0352">Get the default transition time</text><line style="stroke:#A80036;stroke-width:1.0;" x1="1425" x2="1425" y1="93.5" y2="113.9883"/><line style="stroke:#A80036;stroke-width:1.0;" x1="1327" x2="1640" y1="113.9883" y2="113.9883"/><text fill="#000000" font-family="sans-serif" font-size="14" lengthAdjust="spacing" textLength="88" x="1332" y="129.5234">sdfInputData</text><text fill="#000000" font-family="sans-serif" font-size="14" lengthAdjust="spacing" textLength="0" x="1442" y="129.5234"/><line style="stroke:#A80036;stroke-width:1.0;" x1="1425" x2="1425" y1="113.9883" y2="134.4766"/><line style="stroke:#A80036;stroke-width:1.0;" x1="1327" x2="1640" y1="134.4766" y2="134.4766"/><text fill="#000000" font-family="sans-serif" font-size="14" lengthAdjust="spacing" textLength="52" x="1332" y="150.0117">sdfData</text><text fill="#000000" font-family="sans-serif" font-size="14" lengthAdjust="spacing" textLength="0" x="1442" y="150.0117"/><line style="stroke:#A80036;stroke-width:1.0;" x1="1425" x2="1425" y1="134.4766" y2="154.9648"/><rect fill="none" height="61.4648" rx="5" ry="5" style="stroke:#A80036;stroke-width:1.5;" width="313" x="1327" y="93.5"/><rect fill="#FEFECE" height="40.9766" rx="5" ry="5" style="stroke:#FEFECE;stroke-width:1.5;" width="765" x="1802" y="64.5"/><text fill="#000000" font-family="sans-serif" font-size="14" lengthAdjust="spacing" textLength="755" x="1807" y="80.0352">#/sdfObject/GenericDefaultTransitionTime/sdfAction/DefaultTransitionTimeGet/sdfData/TransitionTimeSteps</text><line style="stroke:#A80036;stroke-width:1.0;" x1="1802" x2="2567" y1="84.9883" y2="84.9883"/><text fill="#000000" font-family="sans-serif" font-size="14" lengthAdjust="spacing" textLength="717" x="1807" y="100.5234">#/sdfObject/GenericDefaultTransitionTime/sdfAction/DefaultTransitionTimeGet/sdfData/StepResolution</text><rect fill="none" height="40.9766" rx="5" ry="5" style="stroke:#A80036;stroke-width:1.5;" width="765" x="1802" y="64.5"/><rect fill="#FEFECE" height="40.9766" rx="5" ry="5" style="stroke:#FEFECE;stroke-width:1.5;" width="173" x="2098" y="123.5"/><text fill="#000000" font-family="sans-serif" font-size="14" lengthAdjust="spacing" textLength="141" x="2103" y="139.0352">TransitionTimeSteps</text><text fill="#000000" font-family="sans-serif" font-size="14" lengthAdjust="spacing" textLength="0" x="2266" y="139.0352"/><line style="stroke:#A80036;stroke-width:1.0;" x1="2249" x2="2249" y1="123.5" y2="143.9883"/><line style="stroke:#A80036;stroke-width:1.0;" x1="2098" x2="2271" y1="143.9883" y2="143.9883"/><text fill="#000000" font-family="sans-serif" font-size="14" lengthAdjust="spacing" textLength="103" x="2103" y="159.5234">StepResolution</text><text fill="#000000" font-family="sans-serif" font-size="14" lengthAdjust="spacing" textLength="0" x="2266" y="159.5234"/><line style="stroke:#A80036;stroke-width:1.0;" x1="2249" x2="2249" y1="143.9883" y2="164.4766"/><rect fill="none" height="40.9766" rx="5" ry="5" style="stroke:#A80036;stroke-width:1.5;" width="173" x="2098" y="123.5"/><rect fill="#FEFECE" height="20.4883" rx="5" ry="5" style="stroke:#FEFECE;stroke-width:1.5;" width="563" x="2604" y="106"/><text fill="#000000" font-family="sans-serif" font-size="14" lengthAdjust="spacing" textLength="43" x="2609" y="121.5352">sdfRef</text><text fill="#000000" font-family="sans-serif" font-size="14" lengthAdjust="spacing" textLength="500" x="2662" y="121.5352">#/sdfObject/GenericDefaultTransitionTime/sdfData/TransitionTimeSteps</text><line style="stroke:#A80036;stroke-width:1.0;" x1="2657" x2="2657" y1="106" y2="126.4883"/><rect fill="none" height="20.4883" rx="5" ry="5" style="stroke:#A80036;stroke-width:1.5;" width="563" x="2604" y="106"/><rect fill="#FEFECE" height="20.4883" rx="5" ry="5" style="stroke:#FEFECE;stroke-width:1.5;" width="525" x="2623" y="144"/><text fill="#000000" font-family="sans-serif" font-size="14" lengthAdjust="spacing" textLength="43" x="2628" y="159.5352">sdfRef</text><text fill="#000000" font-family="sans-serif" font-size="14" lengthAdjust="spacing" textLength="462" x="2681" y="159.5352">#/sdfObject/GenericDefaultTransitionTime/sdfData/StepResolution</text><line style="stroke:#A80036;stroke-width:1.0;" x1="2676" x2="2676" y1="144" y2="164.4883"/><rect fill="none" height="20.4883" rx="5" ry="5" style="stroke:#A80036;stroke-width:1.5;" width="525" x="2623" y="144"/><rect fill="#FEFECE" height="40.9766" rx="5" ry="5" style="stroke:#FEFECE;stroke-width:1.5;" width="300" x="1333.5" y="172.5"/><text fill="#000000" font-family="sans-serif" font-size="14" lengthAdjust="spacing" textLength="77" x="1338.5" y="188.0352">description</text><text fill="#000000" font-family="sans-serif" font-size="14" lengthAdjust="spacing" textLength="203" x="1425.5" y="188.0352">Set the default transition time</text><line style="stroke:#A80036;stroke-width:1.0;" x1="1420.5" x2="1420.5" y1="172.5" y2="192.9883"/><line style="stroke:#A80036;stroke-width:1.0;" x1="1333.5" x2="1633.5" y1="192.9883" y2="192.9883"/><text fill="#000000" font-family="sans-serif" font-size="14" lengthAdjust="spacing" textLength="52" x="1338.5" y="208.5234">sdfData</text><text fill="#000000" font-family="sans-serif" font-size="14" lengthAdjust="spacing" textLength="0" x="1437.5" y="208.5234"/><line style="stroke:#A80036;stroke-width:1.0;" x1="1420.5" x2="1420.5" y1="192.9883" y2="213.4766"/><rect fill="none" height="40.9766" rx="5" ry="5" style="stroke:#A80036;stroke-width:1.5;" width="300" x="1333.5" y="172.5"/><rect fill="#FEFECE" height="40.9766" rx="5" ry="5" style="stroke:#FEFECE;stroke-width:1.5;" width="173" x="2098" y="182.5"/><text fill="#000000" font-family="sans-serif" font-size="14" lengthAdjust="spacing" textLength="141" x="2103" y="198.0352">TransitionTimeSteps</text><text fill="#000000" font-family="sans-serif" font-size="14" lengthAdjust="spacing" textLength="0" x="2266" y="198.0352"/><line style="stroke:#A80036;stroke-width:1.0;" x1="2249" x2="2249" y1="182.5" y2="202.9883"/><line style="stroke:#A80036;stroke-width:1.0;" x1="2098" x2="2271" y1="202.9883" y2="202.9883"/><text fill="#000000" font-family="sans-serif" font-size="14" lengthAdjust="spacing" textLength="103" x="2103" y="218.5234">StepResolution</text><text fill="#000000" font-family="sans-serif" font-size="14" lengthAdjust="spacing" textLength="0" x="2266" y="218.5234"/><line style="stroke:#A80036;stroke-width:1.0;" x1="2249" x2="2249" y1="202.9883" y2="223.4766"/><rect fill="none" height="40.9766" rx="5" ry="5" style="stroke:#A80036;stroke-width:1.5;" width="173" x="2098" y="182.5"/><rect fill="#FEFECE" height="20.4883" rx="5" ry="5" style="stroke:#FEFECE;stroke-width:1.5;" width="563" x="2604" y="182"/><text fill="#000000" font-family="sans-serif" font-size="14" lengthAdjust="spacing" textLength="43" x="2609" y="197.5352">sdfRef</text><text fill="#000000" font-family="sans-serif" font-size="14" lengthAdjust="spacing" textLength="500" x="2662" y="197.5352">#/sdfObject/GenericDefaultTransitionTime/sdfData/TransitionTimeSteps</text><line style="stroke:#A80036;stroke-width:1.0;" x1="2657" x2="2657" y1="182" y2="202.4883"/><rect fill="none" height="20.4883" rx="5" ry="5" style="stroke:#A80036;stroke-width:1.5;" width="563" x="2604" y="182"/><rect fill="#FEFECE" height="20.4883" rx="5" ry="5" style="stroke:#FEFECE;stroke-width:1.5;" width="525" x="2623" y="220"/><text fill="#000000" font-family="sans-serif" font-size="14" lengthAdjust="spacing" textLength="43" x="2628" y="235.5352">sdfRef</text><text fill="#000000" font-family="sans-serif" font-size="14" lengthAdjust="spacing" textLength="462" x="2681" y="235.5352">#/sdfObject/GenericDefaultTransitionTime/sdfData/StepResolution</text><line style="stroke:#A80036;stroke-width:1.0;" x1="2676" x2="2676" y1="220" y2="240.4883"/><rect fill="none" height="20.4883" rx="5" ry="5" style="stroke:#A80036;stroke-width:1.5;" width="525" x="2623" y="220"/><rect fill="#FEFECE" height="40.9766" rx="5" ry="5" style="stroke:#FEFECE;stroke-width:1.5;" width="173" x="967.5" y="273.5"/><text fill="#000000" font-family="sans-serif" font-size="14" lengthAdjust="spacing" textLength="141" x="972.5" y="289.0352">TransitionTimeSteps</text><text fill="#000000" font-family="sans-serif" font-size="14" lengthAdjust="spacing" textLength="0" x="1135.5" y="289.0352"/><line style="stroke:#A80036;stroke-width:1.0;" x1="1118.5" x2="1118.5" y1="273.5" y2="293.9883"/><line style="stroke:#A80036;stroke-width:1.0;" x1="967.5" x2="1140.5" y1="293.9883" y2="293.9883"/><text fill="#000000" font-family="sans-serif" font-size="14" lengthAdjust="spacing" textLength="103" x="972.5" y="309.5234">StepResolution</text><text fill="#000000" font-family="sans-serif" font-size="14" lengthAdjust="spacing" textLength="0" x="1135.5" y="309.5234"/><line style="stroke:#A80036;stroke-width:1.0;" x1="1118.5" x2="1118.5" y1="293.9883" y2="314.4766"/><rect fill="none" height="40.9766" rx="5" ry="5" style="stroke:#A80036;stroke-width:1.5;" width="173" x="967.5" y="273.5"/><rect fill="#FEFECE" height="102.4414" rx="5" ry="5" style="stroke:#FEFECE;stroke-width:1.5;" width="323" x="1322" y="232"/><text fill="#000000" font-family="sans-serif" font-size="14" lengthAdjust="spacing" textLength="77" x="1327" y="247.5352">description</text><text fill="#000000" font-family="sans-serif" font-size="14" lengthAdjust="spacing" textLength="226" x="1414" y="247.5352">Number of steps in the transition</text><line style="stroke:#A80036;stroke-width:1.0;" x1="1409" x2="1409" y1="232" y2="252.4883"/><line style="stroke:#A80036;stroke-width:1.0;" x1="1322" x2="1645" y1="252.4883" y2="252.4883"/><text fill="#000000" font-family="sans-serif" font-size="14" lengthAdjust="spacing" textLength="29" x="1327" y="268.0234">type</text><text fill="#000000" font-family="sans-serif" font-size="14" lengthAdjust="spacing" textLength="54" x="1414" y="268.0234">number</text><line style="stroke:#A80036;stroke-width:1.0;" x1="1409" x2="1409" y1="252.4883" y2="272.9766"/><line style="stroke:#A80036;stroke-width:1.0;" x1="1322" x2="1645" y1="272.9766" y2="272.9766"/><text fill="#000000" font-family="sans-serif" font-size="14" lengthAdjust="spacing" textLength="65" x="1327" y="288.5117">minimum</text><text fill="#000000" font-family="sans-serif" font-size="14" lengthAdjust="spacing" textLength="9" x="1414" y="288.5117">0</text><line style="stroke:#A80036;stroke-width:1.0;" x1="1409" x2="1409" y1="272.9766" y2="293.4648"/><line style="stroke:#A80036;stroke-width:1.0;" x1="1322" x2="1645" y1="293.4648" y2="293.4648"/><text fill="#000000" font-family="sans-serif" font-size="14" lengthAdjust="spacing" textLength="69" x="1327" y="309">maximum</text><text fill="#000000" font-family="sans-serif" font-size="14" lengthAdjust="spacing" textLength="18" x="1414" y="309">63</text><line style="stroke:#A80036;stroke-width:1.0;" x1="1409" x2="1409" y1="293.4648" y2="313.9531"/><line style="stroke:#A80036;stroke-width:1.0;" x1="1322" x2="1645" y1="313.9531" y2="313.9531"/><text fill="#000000" font-family="sans-serif" font-size="14" lengthAdjust="spacing" textLength="72" x="1327" y="329.4883">multipleOf</text><text fill="#000000" font-family="sans-serif" font-size="14" lengthAdjust="spacing" textLength="9" x="1414" y="329.4883">1</text><line style="stroke:#A80036;stroke-width:1.0;" x1="1409" x2="1409" y1="313.9531" y2="334.4414"/><rect fill="none" height="102.4414" rx="5" ry="5" style="stroke:#A80036;stroke-width:1.5;" width="323" x="1322" y="232"/><rect fill="#FEFECE" height="40.9766" rx="5" ry="5" style="stroke:#FEFECE;stroke-width:1.5;" width="302" x="1332.5" y="352.5"/><text fill="#000000" font-family="sans-serif" font-size="14" lengthAdjust="spacing" textLength="77" x="1337.5" y="368.0352">description</text><text fill="#000000" font-family="sans-serif" font-size="14" lengthAdjust="spacing" textLength="205" x="1424.5" y="368.0352">Step Resolution, time per step</text><line style="stroke:#A80036;stroke-width:1.0;" x1="1419.5" x2="1419.5" y1="352.5" y2="372.9883"/><line style="stroke:#A80036;stroke-width:1.0;" x1="1332.5" x2="1634.5" y1="372.9883" y2="372.9883"/><text fill="#000000" font-family="sans-serif" font-size="14" lengthAdjust="spacing" textLength="39" x="1337.5" y="388.5234">enum</text><text fill="#000000" font-family="sans-serif" font-size="14" lengthAdjust="spacing" textLength="0" x="1436.5" y="388.5234"/><line style="stroke:#A80036;stroke-width:1.0;" x1="1419.5" x2="1419.5" y1="372.9883" y2="393.4766"/><rect fill="none" height="40.9766" rx="5" ry="5" style="stroke:#A80036;stroke-width:1.5;" width="302" x="1332.5" y="352.5"/><rect fill="#FEFECE" height="81.9531" rx="5" ry="5" style="stroke:#FEFECE;stroke-width:1.5;" width="125" x="2122" y="342"/><text fill="#000000" font-family="sans-serif" font-size="14" lengthAdjust="spacing" textLength="115" x="2127" y="357.5352">100 Milliseconds</text><line style="stroke:#A80036;stroke-width:1.0;" x1="2122" x2="2247" y1="362.4883" y2="362.4883"/><text fill="#000000" font-family="sans-serif" font-size="14" lengthAdjust="spacing" textLength="63" x="2127" y="378.0234">1 Second</text><line style="stroke:#A80036;stroke-width:1.0;" x1="2122" x2="2247" y1="382.9766" y2="382.9766"/><text fill="#000000" font-family="sans-serif" font-size="14" lengthAdjust="spacing" textLength="79" x="2127" y="398.5117">10 Seconds</text><line style="stroke:#A80036;stroke-width:1.0;" x1="2122" x2="2247" y1="403.4648" y2="403.4648"/><text fill="#000000" font-family="sans-serif" font-size="14" lengthAdjust="spacing" textLength="76" x="2127" y="419">10 Minutes</text><rect fill="none" height="81.9531" rx="5" ry="5" style="stroke:#A80036;stroke-width:1.5;" width="125" x="2122" y="342"/><path d="M162,98 L175,98 C203.5134,98 233.3403,96.0198 262.7401,92.8723 " fill="none" style="stroke:#A80036;stroke-width:1.0;stroke-dasharray:3.0,3.0;"/><path d="M263.07,95.858 L264.9794,92.6248 L262.4101,89.8866 L270.2043,92.0474 L263.07,95.858 " fill="#A80036" style="stroke:#A80036;stroke-width:1.0;"/><ellipse cx="162" cy="98" fill="#A80036" rx="3" ry="3" style="stroke:#A80036;stroke-width:1.0;stroke-dasharray:3.0,3.0;"/><path d="M162,118 L175,118 C231.3607,118 293.5028,118.3368 347.189,118.734 " fill="none" style="stroke:#A80036;stroke-width:1.0;stroke-dasharray:3.0,3.0;"/><path d="M347.1664,121.7411 L349.4443,118.751 L347.2115,115.7269 L354.7067,118.7905 L347.1664,121.7411 " fill="#A80036" style="stroke:#A80036;stroke-width:1.0;"/><ellipse cx="162" cy="118" fill="#A80036" rx="3" ry="3" style="stroke:#A80036;stroke-width:1.0;stroke-dasharray:3.0,3.0;"/><path d="M1153,44 L1166,44 C1225.4707,44 1291.1273,40.9797 1347.189,37.4852 " fill="none" style="stroke:#A80036;stroke-width:1.0;stroke-dasharray:3.0,3.0;"/><path d="M1347.3783,40.4819 L1349.4365,37.3432 L1346.9997,34.4885 L1354.6807,37.0119 L1347.3783,40.4819 " fill="#A80036" style="stroke:#A80036;stroke-width:1.0;"/><ellipse cx="1153" cy="44" fill="#A80036" rx="3" ry="3" style="stroke:#A80036;stroke-width:1.0;stroke-dasharray:3.0,3.0;"/><path d="M1153,65 L1166,65 C1181.4893,65 1197.4042,65 1213.4641,65 " fill="none" style="stroke:#A80036;stroke-width:1.0;stroke-dasharray:3.0,3.0;"/><path d="M1213.4641,68.1577 L1215.8324,65 L1213.4641,61.8423 L1221.3585,65 L1213.4641,68.1577 " fill="#A80036" style="stroke:#A80036;stroke-width:1.0;"/><ellipse cx="1153" cy="65" fill="#A80036" rx="3" ry="3" style="stroke:#A80036;stroke-width:1.0;stroke-dasharray:3.0,3.0;"/><path d="M894,139 L907,139 C930.9434,139 983.9702,104.8058 1019.2219,80.0508 " fill="none" style="stroke:#A80036;stroke-width:1.0;stroke-dasharray:3.0,3.0;"/><path d="M1021.0227,82.5966 L1021.1312,78.7002 L1017.4211,77.505 L1025.5863,75.5487 L1021.0227,82.5966 " fill="#A80036" style="stroke:#A80036;stroke-width:1.0;"/><ellipse cx="894" cy="139" fill="#A80036" rx="3" ry="3" style="stroke:#A80036;stroke-width:1.0;stroke-dasharray:3.0,3.0;"/><path d="M1629,123 L1642,123 C1670.0069,123 1788.6779,114.8216 1907.8636,106.053 " fill="none" style="stroke:#A80036;stroke-width:1.0;stroke-dasharray:3.0,3.0;"/><path d="M1908.0842,109.0474 L1910.1094,105.8876 L1907.643,103.0586 L1915.3497,105.5015 L1908.0842,109.0474 " fill="#A80036" style="stroke:#A80036;stroke-width:1.0;"/><ellipse cx="1629" cy="123" fill="#A80036" rx="3" ry="3" style="stroke:#A80036;stroke-width:1.0;stroke-dasharray:3.0,3.0;"/><path d="M2260,133 L2273,133 C2390.1513,133 2519.8683,129.8488 2629.6156,126.2599 " fill="none" style="stroke:#A80036;stroke-width:1.0;stroke-dasharray:3.0,3.0;"/><path d="M2629.7149,129.2731 L2631.8755,126.1855 L2629.5164,123.2467 L2637.1486,126.0119 L2629.7149,129.2731 " fill="#A80036" style="stroke:#A80036;stroke-width:1.0;"/><ellipse cx="2260" cy="133" fill="#A80036" rx="3" ry="3" style="stroke:#A80036;stroke-width:1.0;stroke-dasharray:3.0,3.0;"/><path d="M2260,154 L2273,154 C2385.1902,154 2508.9491,154 2615.6468,154 " fill="none" style="stroke:#A80036;stroke-width:1.0;stroke-dasharray:3.0,3.0;"/><path d="M2615.6468,157.0609 L2617.9425,154 L2615.6468,150.9391 L2623.2991,154 L2615.6468,157.0609 " fill="#A80036" style="stroke:#A80036;stroke-width:1.0;"/><ellipse cx="2260" cy="154" fill="#A80036" rx="3" ry="3" style="stroke:#A80036;stroke-width:1.0;stroke-dasharray:3.0,3.0;"/><path d="M1629,144 L1642,144 C1799.3647,144 1982.4298,144 2090.4602,144 " fill="none" style="stroke:#A80036;stroke-width:1.0;stroke-dasharray:3.0,3.0;"/><path d="M2090.4602,147.0589 L2092.7543,144 L2090.4602,140.9411 L2098.1073,144 L2090.4602,147.0589 " fill="#A80036" style="stroke:#A80036;stroke-width:1.0;"/><ellipse cx="1629" cy="144" fill="#A80036" rx="3" ry="3" style="stroke:#A80036;stroke-width:1.0;stroke-dasharray:3.0,3.0;"/><path d="M1146.5,148 L1159.5,148 C1211.7015,148 1268.5117,144.8536 1319.7496,140.8393 " fill="none" style="stroke:#A80036;stroke-width:1.0;stroke-dasharray:3.0,3.0;"/><path d="M1319.989,143.8466 L1322.0051,140.6598 L1319.5103,137.8321 L1327.2677,140.241 L1319.989,143.8466 " fill="#A80036" style="stroke:#A80036;stroke-width:1.0;"/><ellipse cx="1146.5" cy="148" fill="#A80036" rx="3" ry="3" style="stroke:#A80036;stroke-width:1.0;stroke-dasharray:3.0,3.0;"/><path d="M2260,192 L2273,192 C2378.5996,192 2494.4484,192 2596.6718,192 " fill="none" style="stroke:#A80036;stroke-width:1.0;stroke-dasharray:3.0,3.0;"/><path d="M2596.6718,195.0594 L2598.9664,192 L2596.6718,188.9406 L2604.3203,192 L2596.6718,195.0594 " fill="#A80036" style="stroke:#A80036;stroke-width:1.0;"/><ellipse cx="2260" cy="192" fill="#A80036" rx="3" ry="3" style="stroke:#A80036;stroke-width:1.0;stroke-dasharray:3.0,3.0;"/><path d="M2260,213 L2273,213 C2390.1513,213 2519.8683,216.1512 2629.6156,219.7401 " fill="none" style="stroke:#A80036;stroke-width:1.0;stroke-dasharray:3.0,3.0;"/><path d="M2629.5164,222.7533 L2631.8755,219.8145 L2629.7149,216.7269 L2637.1486,219.9881 L2629.5164,222.7533 " fill="#A80036" style="stroke:#A80036;stroke-width:1.0;"/><ellipse cx="2260" cy="213" fill="#A80036" rx="3" ry="3" style="stroke:#A80036;stroke-width:1.0;stroke-dasharray:3.0,3.0;"/><path d="M1622,203 L1635,203 C1795.0952,203 1981.4512,203 2090.6854,203 " fill="none" style="stroke:#A80036;stroke-width:1.0;stroke-dasharray:3.0,3.0;"/><path d="M2090.6854,206.0921 L2093.0045,203 L2090.6854,199.9079 L2098.4156,203 L2090.6854,206.0921 " fill="#A80036" style="stroke:#A80036;stroke-width:1.0;"/><ellipse cx="1622" cy="203" fill="#A80036" rx="3" ry="3" style="stroke:#A80036;stroke-width:1.0;stroke-dasharray:3.0,3.0;"/><path d="M1146.5,169 L1159.5,169 C1213.8486,169 1273.1928,172.4105 1326.0431,176.6603 " fill="none" style="stroke:#A80036;stroke-width:1.0;stroke-dasharray:3.0,3.0;"/><path d="M1325.79,179.7599 L1328.3678,176.8501 L1326.2962,173.5606 L1333.7922,177.293 L1325.79,179.7599 " fill="#A80036" style="stroke:#A80036;stroke-width:1.0;"/><ellipse cx="1146.5" cy="169" fill="#A80036" rx="3" ry="3" style="stroke:#A80036;stroke-width:1.0;stroke-dasharray:3.0,3.0;"/><path d="M894,159 L907,159 C918.5844,159 930.6841,159 942.749,159 " fill="none" style="stroke:#A80036;stroke-width:1.0;stroke-dasharray:3.0,3.0;"/><path d="M942.749,162.0011 L944.9998,159 L942.749,155.9989 L950.2517,159 L942.749,162.0011 " fill="#A80036" style="stroke:#A80036;stroke-width:1.0;"/><ellipse cx="894" cy="159" fill="#A80036" rx="3" ry="3" style="stroke:#A80036;stroke-width:1.0;stroke-dasharray:3.0,3.0;"/><path d="M1129.5,283 L1142.5,283 C1198.5356,283 1259.7584,283 1314.6441,283 " fill="none" style="stroke:#A80036;stroke-width:1.0;stroke-dasharray:3.0,3.0;"/><path d="M1314.6441,286.0805 L1316.9545,283 L1314.6441,279.9195 L1322.3455,283 L1314.6441,286.0805 " fill="#A80036" style="stroke:#A80036;stroke-width:1.0;"/><ellipse cx="1129.5" cy="283" fill="#A80036" rx="3" ry="3" style="stroke:#A80036;stroke-width:1.0;stroke-dasharray:3.0,3.0;"/><path d="M1623,383 L1636,383 C1808.174,383 2010.7762,383 2114.7449,383 " fill="none" style="stroke:#A80036;stroke-width:1.0;stroke-dasharray:3.0,3.0;"/><path d="M2114.7449,386.0473 L2117.0303,383 L2114.7449,379.9527 L2122.363,383 L2114.7449,386.0473 " fill="#A80036" style="stroke:#A80036;stroke-width:1.0;"/><ellipse cx="1623" cy="383" fill="#A80036" rx="3" ry="3" style="stroke:#A80036;stroke-width:1.0;stroke-dasharray:3.0,3.0;"/><path d="M1129.5,304 L1142.5,304 C1174.1189,304 1172.2259,332.3577 1202,343 C1240.7083,356.8357 1284.1788,364.8284 1325.1481,369.3207 " fill="none" style="stroke:#A80036;stroke-width:1.0;stroke-dasharray:3.0,3.0;"/><path d="M1324.8286,372.3683 L1327.4338,369.5603 L1325.4676,366.2731 L1332.7671,370.1194 L1324.8286,372.3683 " fill="#A80036" style="stroke:#A80036;stroke-width:1.0;"/><ellipse cx="1129.5" cy="304" fill="#A80036" rx="3" ry="3" style="stroke:#A80036;stroke-width:1.0;stroke-dasharray:3.0,3.0;"/><path d="M894,180 L907,180 C935.4085,180 994.1696,234.0671 1028.0037,267.7321 " fill="none" style="stroke:#A80036;stroke-width:1.0;stroke-dasharray:3.0,3.0;"/><path d="M1025.7544,269.9765 L1029.687,269.4191 L1030.2531,265.4876 L1033.6148,273.3555 L1025.7544,269.9765 " fill="#A80036" style="stroke:#A80036;stroke-width:1.0;"/><ellipse cx="894" cy="180" fill="#A80036" rx="3" ry="3" style="stroke:#A80036;stroke-width:1.0;stroke-dasharray:3.0,3.0;"/><path d="M592,160 L605,160 C666.9753,160 737.769,160 787.2664,160 " fill="none" style="stroke:#A80036;stroke-width:1.0;stroke-dasharray:3.0,3.0;"/><path d="M787.2664,163.1026 L789.5934,160 L787.2664,156.8974 L795.023,160 L787.2664,163.1026 " fill="#A80036" style="stroke:#A80036;stroke-width:1.0;"/><ellipse cx="592" cy="160" fill="#A80036" rx="3" ry="3" style="stroke:#A80036;stroke-width:1.0;stroke-dasharray:3.0,3.0;"/><path d="M162,160 L175,160 C235.4537,160 302.5603,160 358.7483,160 " fill="none" style="stroke:#A80036;stroke-width:1.0;stroke-dasharray:3.0,3.0;"/><path d="M358.7483,163.0002 L360.9985,160 L358.7483,156.9998 L366.2489,160 L358.7483,163.0002 " fill="#A80036" style="stroke:#A80036;stroke-width:1.0;"/><ellipse cx="162" cy="160" fill="#A80036" rx="3" ry="3" style="stroke:#A80036;stroke-width:1.0;stroke-dasharray:3.0,3.0;"/><!--MD5=[3942d1e09d96cee1ac9831447cffc588]
@startjson
{
  "info": {
    "title": "Example Bluetooth mesh Generic Default Transition Time Model",
    "version": "20200710",
    "copyright": "Copyright Bluetooth SIG, Inc. All rights reserved.",
    "license": "https://github.com/one-data-model/oneDM/blob/master/LICENSE"
  },
  "namespace": {
    "pg": "https://onedm.org/playground/"
  },
  "defaultNamespace": "pg",
  "sdfObject": {
    "GenericDefaultTransitionTime": {
      "sdfProperty": {
        "DefaultTransitionTimeSteps": {
          "sdfRef": "#/sdfObject/GenericDefaultTransitionTime/sdfData/TransitionTimeSteps"
        },
        "DefaultStepResolution": {
          "sdfRef": "#/sdfObject/GenericDefaultTransitionTime/sdfData/StepResolution"
        }
      },
      "sdfAction": {
        "DefaultTransitionTimeGet": {
          "description": "Get the default transition time",
          "sdfInputData": [
            "#/sdfObject/GenericDefaultTransitionTime/sdfAction/DefaultTransitionTimeGet/sdfData/TransitionTimeSteps",
            "#/sdfObject/GenericDefaultTransitionTime/sdfAction/DefaultTransitionTimeGet/sdfData/StepResolution"
          ],
          "sdfData": {
            "TransitionTimeSteps": {
              "sdfRef": "#/sdfObject/GenericDefaultTransitionTime/sdfData/TransitionTimeSteps"
            },
            "StepResolution": {
              "sdfRef": "#/sdfObject/GenericDefaultTransitionTime/sdfData/StepResolution"
            }
          }
        },
        "DefaultTransitionTimeSet": {
          "description": "Set the default transition time",
          "sdfData": {
            "TransitionTimeSteps": {
              "sdfRef": "#/sdfObject/GenericDefaultTransitionTime/sdfData/TransitionTimeSteps"
            },
            "StepResolution": {
              "sdfRef": "#/sdfObject/GenericDefaultTransitionTime/sdfData/StepResolution"
            }
          }
        }
      },
      "sdfData": {
        "TransitionTimeSteps": {
          "description": "Number of steps in the transition",
          "type": "number",
          "minimum": 0,
          "maximum": 63,
          "multipleOf": 1
        },
        "StepResolution": {
          "description": "Step Resolution, time per step",
          "enum": [
            "100 Milliseconds",
            "1 Second",
            "10 Seconds",
            "10 Minutes"
          ]
        }
      }
    }
  }
}
@endjson

PlantUML version 1.2021.2(Sun Mar 07 13:10:27 EET 2021)
(GPL source distribution)
Java Runtime: OpenJDK Runtime Environment
JVM: OpenJDK 64-Bit Server VM
Default Encoding: UTF-8
Language: en
Country: FI
--></g></svg>