<?xml version="1.0" encoding="UTF-8" standalone="no"?><svg xmlns="http://www.w3.org/2000/svg" xmlns:xlink="http://www.w3.org/1999/xlink" contentScriptType="application/ecmascript" contentStyleType="text/css" height="760px" preserveAspectRatio="none" style="width:2535px;height:760px;" version="1.1" viewBox="0 0 2535 760" width="2535px" zoomAndPan="magnify"><defs/><g><rect fill="#FEFECE" height="40.9766" rx="5" ry="5" style="stroke:#FEFECE;stroke-width:1.5;" width="97" x="10" y="305.5"/><text fill="#000000" font-family="sans-serif" font-size="14" lengthAdjust="spacing" textLength="27" x="15" y="321.0352">info</text><text fill="#000000" font-family="sans-serif" font-size="14" lengthAdjust="spacing" textLength="0" x="102" y="321.0352"/><line style="stroke:#A80036;stroke-width:1.0;" x1="85" x2="85" y1="305.5" y2="325.9883"/><line style="stroke:#A80036;stroke-width:1.0;" x1="10" x2="107" y1="325.9883" y2="325.9883"/><text fill="#000000" font-family="sans-serif" font-size="14" lengthAdjust="spacing" textLength="65" x="15" y="341.5234">sdfObject</text><text fill="#000000" font-family="sans-serif" font-size="14" lengthAdjust="spacing" textLength="0" x="102" y="341.5234"/><line style="stroke:#A80036;stroke-width:1.0;" x1="85" x2="85" y1="325.9883" y2="346.4766"/><rect fill="none" height="40.9766" rx="5" ry="5" style="stroke:#A80036;stroke-width:1.5;" width="97" x="10" y="305.5"/><rect fill="#FEFECE" height="81.9531" rx="5" ry="5" style="stroke:#FEFECE;stroke-width:1.5;" width="655" x="144" y="250"/><text fill="#000000" font-family="sans-serif" font-size="14" lengthAdjust="spacing" textLength="65" x="149" y="265.5352">copyright</text><text fill="#000000" font-family="sans-serif" font-size="14" lengthAdjust="spacing" textLength="570" x="224" y="265.5352">copyright 2016-2017, 2019 Open Connectivity Foundation, Inc. All rights reserved.</text><line style="stroke:#A80036;stroke-width:1.0;" x1="219" x2="219" y1="250" y2="270.4883"/><line style="stroke:#A80036;stroke-width:1.0;" x1="144" x2="799" y1="270.4883" y2="270.4883"/><text fill="#000000" font-family="sans-serif" font-size="14" lengthAdjust="spacing" textLength="47" x="149" y="286.0234">license</text><text fill="#000000" font-family="sans-serif" font-size="14" lengthAdjust="spacing" textLength="462" x="224" y="286.0234">https://github.com/one-data-model/oneDM/blob/master/LICENSE</text><line style="stroke:#A80036;stroke-width:1.0;" x1="219" x2="219" y1="270.4883" y2="290.9766"/><line style="stroke:#A80036;stroke-width:1.0;" x1="144" x2="799" y1="290.9766" y2="290.9766"/><text fill="#000000" font-family="sans-serif" font-size="14" lengthAdjust="spacing" textLength="26" x="149" y="306.5117">title</text><text fill="#000000" font-family="sans-serif" font-size="14" lengthAdjust="spacing" textLength="169" x="224" y="306.5117">Pan Tilt Zoom Movement</text><line style="stroke:#A80036;stroke-width:1.0;" x1="219" x2="219" y1="290.9766" y2="311.4648"/><line style="stroke:#A80036;stroke-width:1.0;" x1="144" x2="799" y1="311.4648" y2="311.4648"/><text fill="#000000" font-family="sans-serif" font-size="14" lengthAdjust="spacing" textLength="50" x="149" y="327">version</text><text fill="#000000" font-family="sans-serif" font-size="14" lengthAdjust="spacing" textLength="88" x="224" y="327">2019-02-15</text><line style="stroke:#A80036;stroke-width:1.0;" x1="219" x2="219" y1="311.4648" y2="331.9531"/><rect fill="none" height="81.9531" rx="5" ry="5" style="stroke:#A80036;stroke-width:1.5;" width="655" x="144" y="250"/><rect fill="#FEFECE" height="20.4883" rx="5" ry="5" style="stroke:#FEFECE;stroke-width:1.5;" width="54" x="444.5" y="350"/><text fill="#000000" font-family="sans-serif" font-size="14" lengthAdjust="spacing" textLength="22" x="449.5" y="365.5352">ptz</text><text fill="#000000" font-family="sans-serif" font-size="14" lengthAdjust="spacing" textLength="0" x="493.5" y="365.5352"/><line style="stroke:#A80036;stroke-width:1.0;" x1="476.5" x2="476.5" y1="350" y2="370.4883"/><rect fill="none" height="20.4883" rx="5" ry="5" style="stroke:#A80036;stroke-width:1.5;" width="54" x="444.5" y="350"/><rect fill="#FEFECE" height="391.2305" rx="5" ry="5" style="stroke:#FEFECE;stroke-width:1.5;" width="604" x="836" y="164.5"/><text fill="#000000" font-family="sans-serif" font-size="14" lengthAdjust="spacing" textLength="77" x="841" y="180.0352">description</text><text fill="#000000" font-family="sans-serif" font-size="14" lengthAdjust="spacing" textLength="421" x="934" y="180.0352">This Resource specifies the pan tilt and zoom capabilities of a</text><text fill="#000000" font-family="sans-serif" font-size="14" lengthAdjust="spacing" textLength="474" x="934" y="196.5234">device. The Resource Type is dynamic and reflects whether the values</text><text fill="#000000" font-family="sans-serif" font-size="14" lengthAdjust="spacing" textLength="397" x="934" y="213.0117">apply to physical movement of the device or digital/virtual</text><text fill="#000000" font-family="sans-serif" font-size="14" lengthAdjust="spacing" textLength="501" x="934" y="229.5">enhancements to the image. For physical movement the Resource Type is</text><text fill="#000000" font-family="sans-serif" font-size="14" lengthAdjust="spacing" textLength="458" x="934" y="245.9883">"oic. r. movement. ptz". For digital/virtual image enhancements the</text><text fill="#000000" font-family="sans-serif" font-size="14" lengthAdjust="spacing" textLength="421" x="934" y="262.4766">Resource Type is "oic. r. image. ptz". The Properties "pan" and</text><text fill="#000000" font-family="sans-serif" font-size="14" lengthAdjust="spacing" textLength="454" x="934" y="278.9648">"tilt" are specified in degrees. The Property "zoomFactor" is a value</text><text fill="#000000" font-family="sans-serif" font-size="14" lengthAdjust="spacing" textLength="449" x="934" y="295.4531">in the range 1-100 for linear (optical) zoom. The zoom factor is a</text><text fill="#000000" font-family="sans-serif" font-size="14" lengthAdjust="spacing" textLength="434" x="934" y="311.9414">value in the range [1x, 2x, 4x, 8x, 16x, 32x] for digital zoom. If</text><text fill="#000000" font-family="sans-serif" font-size="14" lengthAdjust="spacing" textLength="430" x="934" y="328.4297">there is no zoom value to set the zoom factor shall be '1x'. The</text><text fill="#000000" font-family="sans-serif" font-size="14" lengthAdjust="spacing" textLength="469" x="934" y="344.918">value 0 degrees means neutral, this is a vendor defined setting. Note</text><text fill="#000000" font-family="sans-serif" font-size="14" lengthAdjust="spacing" textLength="449" x="934" y="361.4063">that this resource also can be used to create an offset for physical</text><text fill="#000000" font-family="sans-serif" font-size="14" lengthAdjust="spacing" textLength="464" x="934" y="377.8945">movement. When that is the case, the Resource Type value is: "oic. r.</text><text fill="#000000" font-family="sans-serif" font-size="14" lengthAdjust="spacing" textLength="450" x="934" y="394.3828">movement. offset. ptz" Note that this resource also can be used to</text><text fill="#000000" font-family="sans-serif" font-size="14" lengthAdjust="spacing" textLength="434" x="934" y="410.8711">create an offset for image movement. When that is the case, the</text><text fill="#000000" font-family="sans-serif" font-size="14" lengthAdjust="spacing" textLength="406" x="934" y="427.3594">Resource Type value is: "oic. r. image. offset. ptz". When the</text><text fill="#000000" font-family="sans-serif" font-size="14" lengthAdjust="spacing" textLength="429" x="934" y="443.8477">Property "pan_range" value is omitted, then the range is [-180.</text><text fill="#000000" font-family="sans-serif" font-size="14" lengthAdjust="spacing" textLength="450" x="934" y="460.3359">0,180. 0]. If "pan" is not supported then the range shall be [0. 0,0.</text><text fill="#000000" font-family="sans-serif" font-size="14" lengthAdjust="spacing" textLength="459" x="934" y="476.8242">0] When the Property "tilt_range" value is omitted, then the range is</text><text fill="#000000" font-family="sans-serif" font-size="14" lengthAdjust="spacing" textLength="438" x="934" y="493.3125">[-180. 0,180. 0]. If "tilt" is not supported then the range shall be</text><text fill="#000000" font-family="sans-serif" font-size="14" lengthAdjust="spacing" textLength="70" x="934" y="509.8008">[0. 0,0. 0].</text><line style="stroke:#A80036;stroke-width:1.0;" x1="929" x2="929" y1="164.5" y2="514.7539"/><line style="stroke:#A80036;stroke-width:1.0;" x1="836" x2="1440" y1="514.7539" y2="514.7539"/><text fill="#000000" font-family="sans-serif" font-size="14" lengthAdjust="spacing" textLength="79" x="841" y="530.2891">sdfProperty</text><text fill="#000000" font-family="sans-serif" font-size="14" lengthAdjust="spacing" textLength="0" x="946" y="530.2891"/><line style="stroke:#A80036;stroke-width:1.0;" x1="929" x2="929" y1="514.7539" y2="535.2422"/><line style="stroke:#A80036;stroke-width:1.0;" x1="836" x2="1440" y1="535.2422" y2="535.2422"/><text fill="#000000" font-family="sans-serif" font-size="14" lengthAdjust="spacing" textLength="83" x="841" y="550.7773">sdfRequired</text><text fill="#000000" font-family="sans-serif" font-size="14" lengthAdjust="spacing" textLength="0" x="946" y="550.7773"/><line style="stroke:#A80036;stroke-width:1.0;" x1="929" x2="929" y1="535.2422" y2="555.7305"/><rect fill="none" height="391.2305" rx="5" ry="5" style="stroke:#A80036;stroke-width:1.5;" width="604" x="836" y="164.5"/><rect fill="#FEFECE" height="143.418" rx="5" ry="5" style="stroke:#FEFECE;stroke-width:1.5;" width="157" x="1546" y="287.5"/><text fill="#000000" font-family="sans-serif" font-size="14" lengthAdjust="spacing" textLength="65" x="1551" y="303.0352">tilt_range</text><text fill="#000000" font-family="sans-serif" font-size="14" lengthAdjust="spacing" textLength="0" x="1698" y="303.0352"/><line style="stroke:#A80036;stroke-width:1.0;" x1="1681" x2="1681" y1="287.5" y2="307.9883"/><line style="stroke:#A80036;stroke-width:1.0;" x1="1546" x2="1703" y1="307.9883" y2="307.9883"/><text fill="#000000" font-family="sans-serif" font-size="14" lengthAdjust="spacing" textLength="82" x="1551" y="323.5234">zoomFactor</text><text fill="#000000" font-family="sans-serif" font-size="14" lengthAdjust="spacing" textLength="0" x="1698" y="323.5234"/><line style="stroke:#A80036;stroke-width:1.0;" x1="1681" x2="1681" y1="307.9883" y2="328.4766"/><line style="stroke:#A80036;stroke-width:1.0;" x1="1546" x2="1703" y1="328.4766" y2="328.4766"/><text fill="#000000" font-family="sans-serif" font-size="14" lengthAdjust="spacing" textLength="18" x="1551" y="344.0117">tilt</text><text fill="#000000" font-family="sans-serif" font-size="14" lengthAdjust="spacing" textLength="0" x="1698" y="344.0117"/><line style="stroke:#A80036;stroke-width:1.0;" x1="1681" x2="1681" y1="328.4766" y2="348.9648"/><line style="stroke:#A80036;stroke-width:1.0;" x1="1546" x2="1703" y1="348.9648" y2="348.9648"/><text fill="#000000" font-family="sans-serif" font-size="14" lengthAdjust="spacing" textLength="63" x="1551" y="364.5">precision</text><text fill="#000000" font-family="sans-serif" font-size="14" lengthAdjust="spacing" textLength="0" x="1698" y="364.5"/><line style="stroke:#A80036;stroke-width:1.0;" x1="1681" x2="1681" y1="348.9648" y2="369.4531"/><line style="stroke:#A80036;stroke-width:1.0;" x1="1546" x2="1703" y1="369.4531" y2="369.4531"/><text fill="#000000" font-family="sans-serif" font-size="14" lengthAdjust="spacing" textLength="73" x="1551" y="384.9883">pan_range</text><text fill="#000000" font-family="sans-serif" font-size="14" lengthAdjust="spacing" textLength="0" x="1698" y="384.9883"/><line style="stroke:#A80036;stroke-width:1.0;" x1="1681" x2="1681" y1="369.4531" y2="389.9414"/><line style="stroke:#A80036;stroke-width:1.0;" x1="1546" x2="1703" y1="389.9414" y2="389.9414"/><text fill="#000000" font-family="sans-serif" font-size="14" lengthAdjust="spacing" textLength="125" x="1551" y="405.4766">zoomFactorRange</text><text fill="#000000" font-family="sans-serif" font-size="14" lengthAdjust="spacing" textLength="0" x="1698" y="405.4766"/><line style="stroke:#A80036;stroke-width:1.0;" x1="1681" x2="1681" y1="389.9414" y2="410.4297"/><line style="stroke:#A80036;stroke-width:1.0;" x1="1546" x2="1703" y1="410.4297" y2="410.4297"/><text fill="#000000" font-family="sans-serif" font-size="14" lengthAdjust="spacing" textLength="26" x="1551" y="425.9648">pan</text><text fill="#000000" font-family="sans-serif" font-size="14" lengthAdjust="spacing" textLength="0" x="1698" y="425.9648"/><line style="stroke:#A80036;stroke-width:1.0;" x1="1681" x2="1681" y1="410.4297" y2="430.918"/><rect fill="none" height="143.418" rx="5" ry="5" style="stroke:#A80036;stroke-width:1.5;" width="157" x="1546" y="287.5"/><rect fill="#FEFECE" height="155.9063" rx="5" ry="5" style="stroke:#FEFECE;stroke-width:1.5;" width="548" x="1822" y="10"/><text fill="#000000" font-family="sans-serif" font-size="14" lengthAdjust="spacing" textLength="29" x="1827" y="25.5352">type</text><text fill="#000000" font-family="sans-serif" font-size="14" lengthAdjust="spacing" textLength="35" x="1914" y="25.5352">array</text><line style="stroke:#A80036;stroke-width:1.0;" x1="1909" x2="1909" y1="10" y2="30.4883"/><line style="stroke:#A80036;stroke-width:1.0;" x1="1822" x2="2370" y1="30.4883" y2="30.4883"/><text fill="#000000" font-family="sans-serif" font-size="14" lengthAdjust="spacing" textLength="77" x="1827" y="46.0234">description</text><text fill="#000000" font-family="sans-serif" font-size="14" lengthAdjust="spacing" textLength="451" x="1914" y="46.0234">The valid range for the Property in the Resource as a number. The</text><text fill="#000000" font-family="sans-serif" font-size="14" lengthAdjust="spacing" textLength="439" x="1914" y="62.5117">first value in the array is the minimum value, the second value in</text><text fill="#000000" font-family="sans-serif" font-size="14" lengthAdjust="spacing" textLength="219" x="1914" y="79">the array is the maximum value.</text><line style="stroke:#A80036;stroke-width:1.0;" x1="1909" x2="1909" y1="30.4883" y2="83.9531"/><line style="stroke:#A80036;stroke-width:1.0;" x1="1822" x2="2370" y1="83.9531" y2="83.9531"/><text fill="#000000" font-family="sans-serif" font-size="14" lengthAdjust="spacing" textLength="55" x="1827" y="99.4883">writable</text><text fill="#000000" font-family="sans-serif" font-size="14" lengthAdjust="spacing" textLength="48" x="1914" y="99.4883">☐ false</text><line style="stroke:#A80036;stroke-width:1.0;" x1="1909" x2="1909" y1="83.9531" y2="104.4414"/><line style="stroke:#A80036;stroke-width:1.0;" x1="1822" x2="2370" y1="104.4414" y2="104.4414"/><text fill="#000000" font-family="sans-serif" font-size="14" lengthAdjust="spacing" textLength="63" x="1827" y="119.9766">minItems</text><text fill="#000000" font-family="sans-serif" font-size="14" lengthAdjust="spacing" textLength="9" x="1914" y="119.9766">2</text><line style="stroke:#A80036;stroke-width:1.0;" x1="1909" x2="1909" y1="104.4414" y2="124.9297"/><line style="stroke:#A80036;stroke-width:1.0;" x1="1822" x2="2370" y1="124.9297" y2="124.9297"/><text fill="#000000" font-family="sans-serif" font-size="14" lengthAdjust="spacing" textLength="67" x="1827" y="140.4648">maxItems</text><text fill="#000000" font-family="sans-serif" font-size="14" lengthAdjust="spacing" textLength="9" x="1914" y="140.4648">2</text><line style="stroke:#A80036;stroke-width:1.0;" x1="1909" x2="1909" y1="124.9297" y2="145.418"/><line style="stroke:#A80036;stroke-width:1.0;" x1="1822" x2="2370" y1="145.418" y2="145.418"/><text fill="#000000" font-family="sans-serif" font-size="14" lengthAdjust="spacing" textLength="37" x="1827" y="160.9531">items</text><text fill="#000000" font-family="sans-serif" font-size="14" lengthAdjust="spacing" textLength="0" x="1926" y="160.9531"/><line style="stroke:#A80036;stroke-width:1.0;" x1="1909" x2="1909" y1="145.418" y2="165.9063"/><rect fill="none" height="155.9063" rx="5" ry="5" style="stroke:#A80036;stroke-width:1.5;" width="548" x="1822" y="10"/><rect fill="#FEFECE" height="20.4883" rx="5" ry="5" style="stroke:#FEFECE;stroke-width:1.5;" width="103" x="2420" y="143"/><text fill="#000000" font-family="sans-serif" font-size="14" lengthAdjust="spacing" textLength="29" x="2425" y="158.5352">type</text><text fill="#000000" font-family="sans-serif" font-size="14" lengthAdjust="spacing" textLength="54" x="2464" y="158.5352">number</text><line style="stroke:#A80036;stroke-width:1.0;" x1="2459" x2="2459" y1="143" y2="163.4883"/><rect fill="none" height="20.4883" rx="5" ry="5" style="stroke:#A80036;stroke-width:1.5;" width="103" x="2420" y="143"/><rect fill="#FEFECE" height="40.9766" rx="5" ry="5" style="stroke:#FEFECE;stroke-width:1.5;" width="254" x="1969" y="184.5"/><text fill="#000000" font-family="sans-serif" font-size="14" lengthAdjust="spacing" textLength="77" x="1974" y="200.0352">description</text><text fill="#000000" font-family="sans-serif" font-size="14" lengthAdjust="spacing" textLength="157" x="2061" y="200.0352">The zoom factor value.</text><line style="stroke:#A80036;stroke-width:1.0;" x1="2056" x2="2056" y1="184.5" y2="204.9883"/><line style="stroke:#A80036;stroke-width:1.0;" x1="1969" x2="2223" y1="204.9883" y2="204.9883"/><text fill="#000000" font-family="sans-serif" font-size="14" lengthAdjust="spacing" textLength="29" x="1974" y="220.5234">type</text><text fill="#000000" font-family="sans-serif" font-size="14" lengthAdjust="spacing" textLength="40" x="2061" y="220.5234">string</text><line style="stroke:#A80036;stroke-width:1.0;" x1="2056" x2="2056" y1="204.9883" y2="225.4766"/><rect fill="none" height="40.9766" rx="5" ry="5" style="stroke:#A80036;stroke-width:1.5;" width="254" x="1969" y="184.5"/><rect fill="#FEFECE" height="40.9766" rx="5" ry="5" style="stroke:#FEFECE;stroke-width:1.5;" width="278" x="1957" y="243.5"/><text fill="#000000" font-family="sans-serif" font-size="14" lengthAdjust="spacing" textLength="77" x="1962" y="259.0352">description</text><text fill="#000000" font-family="sans-serif" font-size="14" lengthAdjust="spacing" textLength="181" x="2049" y="259.0352">The vertical tilt in degrees.</text><line style="stroke:#A80036;stroke-width:1.0;" x1="2044" x2="2044" y1="243.5" y2="263.9883"/><line style="stroke:#A80036;stroke-width:1.0;" x1="1957" x2="2235" y1="263.9883" y2="263.9883"/><text fill="#000000" font-family="sans-serif" font-size="14" lengthAdjust="spacing" textLength="29" x="1962" y="279.5234">type</text><text fill="#000000" font-family="sans-serif" font-size="14" lengthAdjust="spacing" textLength="54" x="2049" y="279.5234">number</text><line style="stroke:#A80036;stroke-width:1.0;" x1="2044" x2="2044" y1="263.9883" y2="284.4766"/><rect fill="none" height="40.9766" rx="5" ry="5" style="stroke:#A80036;stroke-width:1.5;" width="278" x="1957" y="243.5"/><rect fill="#FEFECE" height="110.9297" rx="5" ry="5" style="stroke:#FEFECE;stroke-width:1.5;" width="570" x="1811" y="302.5"/><text fill="#000000" font-family="sans-serif" font-size="14" lengthAdjust="spacing" textLength="29" x="1816" y="318.0352">type</text><text fill="#000000" font-family="sans-serif" font-size="14" lengthAdjust="spacing" textLength="54" x="1903" y="318.0352">number</text><line style="stroke:#A80036;stroke-width:1.0;" x1="1898" x2="1898" y1="302.5" y2="322.9883"/><line style="stroke:#A80036;stroke-width:1.0;" x1="1811" x2="2381" y1="322.9883" y2="322.9883"/><text fill="#000000" font-family="sans-serif" font-size="14" lengthAdjust="spacing" textLength="55" x="1816" y="338.5234">writable</text><text fill="#000000" font-family="sans-serif" font-size="14" lengthAdjust="spacing" textLength="48" x="1903" y="338.5234">☐ false</text><line style="stroke:#A80036;stroke-width:1.0;" x1="1898" x2="1898" y1="322.9883" y2="343.4766"/><line style="stroke:#A80036;stroke-width:1.0;" x1="1811" x2="2381" y1="343.4766" y2="343.4766"/><text fill="#000000" font-family="sans-serif" font-size="14" lengthAdjust="spacing" textLength="77" x="1816" y="359.0117">description</text><text fill="#000000" font-family="sans-serif" font-size="14" lengthAdjust="spacing" textLength="430" x="1903" y="359.0117">When exposed the value in 'precision' provides a +/- tolerance</text><text fill="#000000" font-family="sans-serif" font-size="14" lengthAdjust="spacing" textLength="473" x="1903" y="375.5">against the Properties in the Resource. Thus if a Property is UPDATED</text><text fill="#000000" font-family="sans-serif" font-size="14" lengthAdjust="spacing" textLength="465" x="1903" y="391.9883">to a value and that Property then RETRIEVED, the RETRIEVED value is</text><text fill="#000000" font-family="sans-serif" font-size="14" lengthAdjust="spacing" textLength="337" x="1903" y="408.4766">valid if in the range of the set value +/- precision</text><line style="stroke:#A80036;stroke-width:1.0;" x1="1898" x2="1898" y1="343.4766" y2="413.4297"/><rect fill="none" height="110.9297" rx="5" ry="5" style="stroke:#A80036;stroke-width:1.5;" width="570" x="1811" y="302.5"/><rect fill="#FEFECE" height="155.9063" rx="5" ry="5" style="stroke:#FEFECE;stroke-width:1.5;" width="548" x="1822" y="432"/><text fill="#000000" font-family="sans-serif" font-size="14" lengthAdjust="spacing" textLength="29" x="1827" y="447.5352">type</text><text fill="#000000" font-family="sans-serif" font-size="14" lengthAdjust="spacing" textLength="35" x="1914" y="447.5352">array</text><line style="stroke:#A80036;stroke-width:1.0;" x1="1909" x2="1909" y1="432" y2="452.4883"/><line style="stroke:#A80036;stroke-width:1.0;" x1="1822" x2="2370" y1="452.4883" y2="452.4883"/><text fill="#000000" font-family="sans-serif" font-size="14" lengthAdjust="spacing" textLength="77" x="1827" y="468.0234">description</text><text fill="#000000" font-family="sans-serif" font-size="14" lengthAdjust="spacing" textLength="451" x="1914" y="468.0234">The valid range for the Property in the Resource as a number. The</text><text fill="#000000" font-family="sans-serif" font-size="14" lengthAdjust="spacing" textLength="439" x="1914" y="484.5117">first value in the array is the minimum value, the second value in</text><text fill="#000000" font-family="sans-serif" font-size="14" lengthAdjust="spacing" textLength="219" x="1914" y="501">the array is the maximum value.</text><line style="stroke:#A80036;stroke-width:1.0;" x1="1909" x2="1909" y1="452.4883" y2="505.9531"/><line style="stroke:#A80036;stroke-width:1.0;" x1="1822" x2="2370" y1="505.9531" y2="505.9531"/><text fill="#000000" font-family="sans-serif" font-size="14" lengthAdjust="spacing" textLength="55" x="1827" y="521.4883">writable</text><text fill="#000000" font-family="sans-serif" font-size="14" lengthAdjust="spacing" textLength="48" x="1914" y="521.4883">☐ false</text><line style="stroke:#A80036;stroke-width:1.0;" x1="1909" x2="1909" y1="505.9531" y2="526.4414"/><line style="stroke:#A80036;stroke-width:1.0;" x1="1822" x2="2370" y1="526.4414" y2="526.4414"/><text fill="#000000" font-family="sans-serif" font-size="14" lengthAdjust="spacing" textLength="63" x="1827" y="541.9766">minItems</text><text fill="#000000" font-family="sans-serif" font-size="14" lengthAdjust="spacing" textLength="9" x="1914" y="541.9766">2</text><line style="stroke:#A80036;stroke-width:1.0;" x1="1909" x2="1909" y1="526.4414" y2="546.9297"/><line style="stroke:#A80036;stroke-width:1.0;" x1="1822" x2="2370" y1="546.9297" y2="546.9297"/><text fill="#000000" font-family="sans-serif" font-size="14" lengthAdjust="spacing" textLength="67" x="1827" y="562.4648">maxItems</text><text fill="#000000" font-family="sans-serif" font-size="14" lengthAdjust="spacing" textLength="9" x="1914" y="562.4648">2</text><line style="stroke:#A80036;stroke-width:1.0;" x1="1909" x2="1909" y1="546.9297" y2="567.418"/><line style="stroke:#A80036;stroke-width:1.0;" x1="1822" x2="2370" y1="567.418" y2="567.418"/><text fill="#000000" font-family="sans-serif" font-size="14" lengthAdjust="spacing" textLength="37" x="1827" y="582.9531">items</text><text fill="#000000" font-family="sans-serif" font-size="14" lengthAdjust="spacing" textLength="0" x="1926" y="582.9531"/><line style="stroke:#A80036;stroke-width:1.0;" x1="1909" x2="1909" y1="567.418" y2="587.9063"/><rect fill="none" height="155.9063" rx="5" ry="5" style="stroke:#A80036;stroke-width:1.5;" width="548" x="1822" y="432"/><rect fill="#FEFECE" height="20.4883" rx="5" ry="5" style="stroke:#FEFECE;stroke-width:1.5;" width="103" x="2420" y="545"/><text fill="#000000" font-family="sans-serif" font-size="14" lengthAdjust="spacing" textLength="29" x="2425" y="560.5352">type</text><text fill="#000000" font-family="sans-serif" font-size="14" lengthAdjust="spacing" textLength="54" x="2464" y="560.5352">number</text><line style="stroke:#A80036;stroke-width:1.0;" x1="2459" x2="2459" y1="545" y2="565.4883"/><rect fill="none" height="20.4883" rx="5" ry="5" style="stroke:#A80036;stroke-width:1.5;" width="103" x="2420" y="545"/><rect fill="#FEFECE" height="81.9531" rx="5" ry="5" style="stroke:#FEFECE;stroke-width:1.5;" width="574" x="1809" y="606"/><text fill="#000000" font-family="sans-serif" font-size="14" lengthAdjust="spacing" textLength="77" x="1814" y="621.5352">description</text><text fill="#000000" font-family="sans-serif" font-size="14" lengthAdjust="spacing" textLength="477" x="1901" y="621.5352">The allowed Zoom Factor values. Linear equates to a 1-100 min/max.</text><line style="stroke:#A80036;stroke-width:1.0;" x1="1896" x2="1896" y1="606" y2="626.4883"/><line style="stroke:#A80036;stroke-width:1.0;" x1="1809" x2="2383" y1="626.4883" y2="626.4883"/><text fill="#000000" font-family="sans-serif" font-size="14" lengthAdjust="spacing" textLength="39" x="1814" y="642.0234">enum</text><text fill="#000000" font-family="sans-serif" font-size="14" lengthAdjust="spacing" textLength="0" x="1913" y="642.0234"/><line style="stroke:#A80036;stroke-width:1.0;" x1="1896" x2="1896" y1="626.4883" y2="646.9766"/><line style="stroke:#A80036;stroke-width:1.0;" x1="1809" x2="2383" y1="646.9766" y2="646.9766"/><text fill="#000000" font-family="sans-serif" font-size="14" lengthAdjust="spacing" textLength="55" x="1814" y="662.5117">writable</text><text fill="#000000" font-family="sans-serif" font-size="14" lengthAdjust="spacing" textLength="48" x="1901" y="662.5117">☐ false</text><line style="stroke:#A80036;stroke-width:1.0;" x1="1896" x2="1896" y1="646.9766" y2="667.4648"/><line style="stroke:#A80036;stroke-width:1.0;" x1="1809" x2="2383" y1="667.4648" y2="667.4648"/><text fill="#000000" font-family="sans-serif" font-size="14" lengthAdjust="spacing" textLength="29" x="1814" y="683">type</text><text fill="#000000" font-family="sans-serif" font-size="14" lengthAdjust="spacing" textLength="40" x="1901" y="683">string</text><line style="stroke:#A80036;stroke-width:1.0;" x1="1896" x2="1896" y1="667.4648" y2="687.9531"/><rect fill="none" height="81.9531" rx="5" ry="5" style="stroke:#A80036;stroke-width:1.5;" width="574" x="1809" y="606"/><rect fill="#FEFECE" height="143.418" rx="5" ry="5" style="stroke:#FEFECE;stroke-width:1.5;" width="49" x="2447" y="583.5"/><text fill="#000000" font-family="sans-serif" font-size="14" lengthAdjust="spacing" textLength="39" x="2452" y="599.0352">linear</text><line style="stroke:#A80036;stroke-width:1.0;" x1="2447" x2="2496" y1="603.9883" y2="603.9883"/><text fill="#000000" font-family="sans-serif" font-size="14" lengthAdjust="spacing" textLength="18" x="2452" y="619.5234">1x</text><line style="stroke:#A80036;stroke-width:1.0;" x1="2447" x2="2496" y1="624.4766" y2="624.4766"/><text fill="#000000" font-family="sans-serif" font-size="14" lengthAdjust="spacing" textLength="18" x="2452" y="640.0117">2x</text><line style="stroke:#A80036;stroke-width:1.0;" x1="2447" x2="2496" y1="644.9648" y2="644.9648"/><text fill="#000000" font-family="sans-serif" font-size="14" lengthAdjust="spacing" textLength="18" x="2452" y="660.5">4x</text><line style="stroke:#A80036;stroke-width:1.0;" x1="2447" x2="2496" y1="665.4531" y2="665.4531"/><text fill="#000000" font-family="sans-serif" font-size="14" lengthAdjust="spacing" textLength="18" x="2452" y="680.9883">8x</text><line style="stroke:#A80036;stroke-width:1.0;" x1="2447" x2="2496" y1="685.9414" y2="685.9414"/><text fill="#000000" font-family="sans-serif" font-size="14" lengthAdjust="spacing" textLength="27" x="2452" y="701.4766">16x</text><line style="stroke:#A80036;stroke-width:1.0;" x1="2447" x2="2496" y1="706.4297" y2="706.4297"/><text fill="#000000" font-family="sans-serif" font-size="14" lengthAdjust="spacing" textLength="27" x="2452" y="721.9648">32x</text><rect fill="none" height="143.418" rx="5" ry="5" style="stroke:#A80036;stroke-width:1.5;" width="49" x="2447" y="583.5"/><rect fill="#FEFECE" height="40.9766" rx="5" ry="5" style="stroke:#FEFECE;stroke-width:1.5;" width="308" x="1942" y="706.5"/><text fill="#000000" font-family="sans-serif" font-size="14" lengthAdjust="spacing" textLength="77" x="1947" y="722.0352">description</text><text fill="#000000" font-family="sans-serif" font-size="14" lengthAdjust="spacing" textLength="211" x="2034" y="722.0352">The horizontal pan in degrees.</text><line style="stroke:#A80036;stroke-width:1.0;" x1="2029" x2="2029" y1="706.5" y2="726.9883"/><line style="stroke:#A80036;stroke-width:1.0;" x1="1942" x2="2250" y1="726.9883" y2="726.9883"/><text fill="#000000" font-family="sans-serif" font-size="14" lengthAdjust="spacing" textLength="29" x="1947" y="742.5234">type</text><text fill="#000000" font-family="sans-serif" font-size="14" lengthAdjust="spacing" textLength="54" x="2034" y="742.5234">number</text><line style="stroke:#A80036;stroke-width:1.0;" x1="2029" x2="2029" y1="726.9883" y2="747.4766"/><rect fill="none" height="40.9766" rx="5" ry="5" style="stroke:#A80036;stroke-width:1.5;" width="308" x="1942" y="706.5"/><rect fill="#FEFECE" height="61.4648" rx="5" ry="5" style="stroke:#FEFECE;stroke-width:1.5;" width="295" x="1477" y="459.5"/><text fill="#000000" font-family="sans-serif" font-size="14" lengthAdjust="spacing" textLength="229" x="1482" y="475.0352">#/sdfObject/ptz/sdfProperty/pan</text><line style="stroke:#A80036;stroke-width:1.0;" x1="1477" x2="1772" y1="479.9883" y2="479.9883"/><text fill="#000000" font-family="sans-serif" font-size="14" lengthAdjust="spacing" textLength="221" x="1482" y="495.5234">#/sdfObject/ptz/sdfProperty/tilt</text><line style="stroke:#A80036;stroke-width:1.0;" x1="1477" x2="1772" y1="500.4766" y2="500.4766"/><text fill="#000000" font-family="sans-serif" font-size="14" lengthAdjust="spacing" textLength="285" x="1482" y="516.0117">#/sdfObject/ptz/sdfProperty/zoomFactor</text><rect fill="none" height="61.4648" rx="5" ry="5" style="stroke:#A80036;stroke-width:1.5;" width="295" x="1477" y="459.5"/><path d="M95,315 L108,315 C117.3442,315 126.8208,314.9198 136.3833,314.7688 " fill="none" style="stroke:#A80036;stroke-width:1.0;stroke-dasharray:3.0,3.0;"/><path d="M136.4378,317.8434 L138.6892,314.7279 L136.3288,311.6942 L144.0697,314.6326 L136.4378,317.8434 " fill="#A80036" style="stroke:#A80036;stroke-width:1.0;"/><ellipse cx="95" cy="315" fill="#A80036" rx="3" ry="3" style="stroke:#A80036;stroke-width:1.0;stroke-dasharray:3.0,3.0;"/><path d="M2358.5,153 L2371.5,153 C2384.785,153 2399.0678,153 2412.5499,153 " fill="none" style="stroke:#A80036;stroke-width:1.0;stroke-dasharray:3.0,3.0;"/><path d="M2412.5499,156.1328 L2414.8995,153 L2412.5499,149.8672 L2420.3818,153 L2412.5499,156.1328 " fill="#A80036" style="stroke:#A80036;stroke-width:1.0;"/><ellipse cx="2358.5" cy="153" fill="#A80036" rx="3" ry="3" style="stroke:#A80036;stroke-width:1.0;stroke-dasharray:3.0,3.0;"/><path d="M1692,297 L1705,297 C1776.2499,297 1749.3961,214.0375 1809,175 C1811.4834,173.3735 1813.9987,171.7762 1816.543,170.2078 " fill="none" style="stroke:#A80036;stroke-width:1.0;stroke-dasharray:3.0,3.0;"/><path d="M1818.177,172.9282 L1818.5834,168.9823 L1814.909,167.4873 L1823.3442,166.1228 L1818.177,172.9282 " fill="#A80036" style="stroke:#A80036;stroke-width:1.0;"/><ellipse cx="1692" cy="297" fill="#A80036" rx="3" ry="3" style="stroke:#A80036;stroke-width:1.0;stroke-dasharray:3.0,3.0;"/><path d="M1692,317 L1705,317 C1764.1378,317 1754.2406,256.3315 1809,234 C1856.6645,214.5618 1912.334,206.0686 1961.8585,202.8606 " fill="none" style="stroke:#A80036;stroke-width:1.0;stroke-dasharray:3.0,3.0;"/><path d="M1962.0397,205.8912 L1964.1314,202.7247 L1961.6772,199.83 L1969.4349,202.4076 L1962.0397,205.8912 " fill="#A80036" style="stroke:#A80036;stroke-width:1.0;"/><ellipse cx="1692" cy="317" fill="#A80036" rx="3" ry="3" style="stroke:#A80036;stroke-width:1.0;stroke-dasharray:3.0,3.0;"/><path d="M1692,338 L1705,338 C1755.3636,338 1760.2602,305.6856 1809,293 C1854.0284,281.2803 1904.183,274.2492 1949.7852,270.0464 " fill="none" style="stroke:#A80036;stroke-width:1.0;stroke-dasharray:3.0,3.0;"/><path d="M1950.0556,273.0752 L1952.0568,269.8437 L1949.5148,267.0176 L1957.3572,269.3705 L1950.0556,273.0752 " fill="#A80036" style="stroke:#A80036;stroke-width:1.0;"/><ellipse cx="1692" cy="338" fill="#A80036" rx="3" ry="3" style="stroke:#A80036;stroke-width:1.0;stroke-dasharray:3.0,3.0;"/><path d="M1692,358 L1705,358 C1736.9869,358 1770.4475,358 1803.7523,358 " fill="none" style="stroke:#A80036;stroke-width:1.0;stroke-dasharray:3.0,3.0;"/><path d="M1803.7523,361.0213 L1806.0182,358 L1803.7523,354.9787 L1811.3054,358 L1803.7523,361.0213 " fill="#A80036" style="stroke:#A80036;stroke-width:1.0;"/><ellipse cx="1692" cy="358" fill="#A80036" rx="3" ry="3" style="stroke:#A80036;stroke-width:1.0;stroke-dasharray:3.0,3.0;"/><path d="M2358.5,575 L2371.5,575 C2391.08,575 2412.4099,571.2315 2430.281,566.9661 " fill="none" style="stroke:#A80036;stroke-width:1.0;stroke-dasharray:3.0,3.0;"/><path d="M2431.0206,569.9389 L2432.5107,566.4114 L2429.5415,563.9932 L2437.7131,565.1172 L2431.0206,569.9389 " fill="#A80036" style="stroke:#A80036;stroke-width:1.0;"/><ellipse cx="2358.5" cy="575" fill="#A80036" rx="3" ry="3" style="stroke:#A80036;stroke-width:1.0;stroke-dasharray:3.0,3.0;"/><path d="M1692,379 L1705,379 C1755.0173,379 1761.9305,405.0828 1809,422 C1815.9777,424.5079 1823.0663,427.0092 1830.2319,429.4969 " fill="none" style="stroke:#A80036;stroke-width:1.0;stroke-dasharray:3.0,3.0;"/><path d="M1829.2387,432.3729 L1832.3889,430.2418 L1831.2251,426.621 L1837.4218,431.9799 L1829.2387,432.3729 " fill="#A80036" style="stroke:#A80036;stroke-width:1.0;"/><ellipse cx="1692" cy="379" fill="#A80036" rx="3" ry="3" style="stroke:#A80036;stroke-width:1.0;stroke-dasharray:3.0,3.0;"/><path d="M2371,636 L2384,636 C2402.9037,636 2423.5968,640.3345 2440.0575,644.8629 " fill="none" style="stroke:#A80036;stroke-width:1.0;stroke-dasharray:3.0,3.0;"/><path d="M2439.2257,647.7603 L2442.2305,645.4867 L2440.8892,641.9655 L2447.301,646.9423 L2439.2257,647.7603 " fill="#A80036" style="stroke:#A80036;stroke-width:1.0;"/><ellipse cx="2371" cy="636" fill="#A80036" rx="3" ry="3" style="stroke:#A80036;stroke-width:1.0;stroke-dasharray:3.0,3.0;"/><path d="M1692,400 L1705,400 C1742.5128,400 1752.177,418.7972 1773,450 C1810.3376,505.9495 1759.8618,551.0665 1809,597 C1810.4524,598.3576 1811.9278,599.6853 1813.4253,600.9837 " fill="none" style="stroke:#A80036;stroke-width:1.0;stroke-dasharray:3.0,3.0;"/><path d="M1811.4798,603.337 L1815.1903,602.4429 L1815.3708,598.6304 L1819.3085,605.8475 L1811.4798,603.337 " fill="#A80036" style="stroke:#A80036;stroke-width:1.0;"/><ellipse cx="1692" cy="400" fill="#A80036" rx="3" ry="3" style="stroke:#A80036;stroke-width:1.0;stroke-dasharray:3.0,3.0;"/><path d="M1692,420 L1705,420 C1738.0327,420 1753.0086,423.7035 1773,450 C1840.1395,538.3145 1728.9868,620.1556 1809,697 C1842.3142,728.9948 1888.8809,741.8085 1934.8018,745.1169 " fill="none" style="stroke:#A80036;stroke-width:1.0;stroke-dasharray:3.0,3.0;"/><path d="M1934.6154,748.1812 L1937.1,745.2566 L1934.9881,742.0525 L1942.4626,745.5827 L1934.6154,748.1812 " fill="#A80036" style="stroke:#A80036;stroke-width:1.0;"/><ellipse cx="1692" cy="420" fill="#A80036" rx="3" ry="3" style="stroke:#A80036;stroke-width:1.0;stroke-dasharray:3.0,3.0;"/><path d="M1428,359 L1441,359 C1472.7783,359 1507.6606,359 1538.3702,359 " fill="none" style="stroke:#A80036;stroke-width:1.0;stroke-dasharray:3.0,3.0;"/><path d="M1538.3702,362.0853 L1540.6841,359 L1538.3702,355.9147 L1546.0834,359 L1538.3702,362.0853 " fill="#A80036" style="stroke:#A80036;stroke-width:1.0;"/><ellipse cx="1428" cy="359" fill="#A80036" rx="3" ry="3" style="stroke:#A80036;stroke-width:1.0;stroke-dasharray:3.0,3.0;"/><path d="M1428,490 L1441,490 C1450.2756,490 1459.8156,490 1469.4392,490 " fill="none" style="stroke:#A80036;stroke-width:1.0;stroke-dasharray:3.0,3.0;"/><path d="M1469.4392,493.0929 L1471.7589,490 L1469.4392,486.9071 L1477.1715,490 L1469.4392,493.0929 " fill="#A80036" style="stroke:#A80036;stroke-width:1.0;"/><ellipse cx="1428" cy="490" fill="#A80036" rx="3" ry="3" style="stroke:#A80036;stroke-width:1.0;stroke-dasharray:3.0,3.0;"/><path d="M487,360 L500,360 C607.0302,360 724.1682,360 828.5045,360 " fill="none" style="stroke:#A80036;stroke-width:1.0;stroke-dasharray:3.0,3.0;"/><path d="M828.5045,363.1235 L830.8471,360 L828.5045,356.8765 L836.3131,360 L828.5045,363.1235 " fill="#A80036" style="stroke:#A80036;stroke-width:1.0;"/><ellipse cx="487" cy="360" fill="#A80036" rx="3" ry="3" style="stroke:#A80036;stroke-width:1.0;stroke-dasharray:3.0,3.0;"/><path d="M95,336 L108,336 C124.1536,336 127.924,339.4191 144,341 C250.6988,351.4925 377.5964,356.8355 437.0698,358.9229 " fill="none" style="stroke:#A80036;stroke-width:1.0;stroke-dasharray:3.0,3.0;"/><path d="M436.9652,361.961 L439.3484,359.0014 L437.1745,355.8849 L444.6649,359.1846 L436.9652,361.961 " fill="#A80036" style="stroke:#A80036;stroke-width:1.0;"/><ellipse cx="95" cy="336" fill="#A80036" rx="3" ry="3" style="stroke:#A80036;stroke-width:1.0;stroke-dasharray:3.0,3.0;"/><!--MD5=[7a7b8967a82e55928594dfcead40f00c]
@startjson
{
  "info": {
    "copyright": "copyright 2016-2017, 2019 Open Connectivity Foundation, Inc. All rights reserved.",
    "license": "https://github.com/one-data-model/oneDM/blob/master/LICENSE",
    "title": "Pan Tilt Zoom Movement",
    "version": "2019-02-15"
  },
  "sdfObject": {
    "ptz": {
      "description": "This Resource specifies the pan tilt and zoom capabilities of a\\ndevice. The Resource Type is dynamic and reflects whether the values\\napply to physical movement of the device or digital/virtual\\nenhancements to the image. For physical movement the Resource Type is\\n\"oic. r. movement. ptz\". For digital/virtual image enhancements the\\nResource Type is \"oic. r. image. ptz\". The Properties \"pan\" and\\n\"tilt\" are specified in degrees. The Property \"zoomFactor\" is a value\\nin the range 1-100 for linear (optical) zoom. The zoom factor is a\\nvalue in the range [1x, 2x, 4x, 8x, 16x, 32x] for digital zoom. If\\nthere is no zoom value to set the zoom factor shall be '1x'. The\\nvalue 0 degrees means neutral, this is a vendor defined setting. Note\\nthat this resource also can be used to create an offset for physical\\nmovement. When that is the case, the Resource Type value is: \"oic. r.\\nmovement. offset. ptz\" Note that this resource also can be used to\\ncreate an offset for image movement. When that is the case, the\\nResource Type value is: \"oic. r. image. offset. ptz\". When the\\nProperty \"pan_range\" value is omitted, then the range is [-180.\\n0,180. 0]. If \"pan\" is not supported then the range shall be [0. 0,0.\\n0] When the Property \"tilt_range\" value is omitted, then the range is\\n[-180. 0,180. 0]. If \"tilt\" is not supported then the range shall be\\n[0. 0,0. 0].",
      "sdfProperty": {
        "tilt_range": {
          "type": "array",
          "description": "The valid range for the Property in the Resource as a number. The\\nfirst value in the array is the minimum value, the second value in\\nthe array is the maximum value.",
          "writable": false,
          "minItems": 2,
          "maxItems": 2,
          "items": {
            "type": "number"
          }
        },
        "zoomFactor": {
          "description": "The zoom factor value.",
          "type": "string"
        },
        "tilt": {
          "description": "The vertical tilt in degrees.",
          "type": "number"
        },
        "precision": {
          "type": "number",
          "writable": false,
          "description": "When exposed the value in 'precision' provides a +/- tolerance\\nagainst the Properties in the Resource. Thus if a Property is UPDATED\\nto a value and that Property then RETRIEVED, the RETRIEVED value is\\nvalid if in the range of the set value +/- precision"
        },
        "pan_range": {
          "type": "array",
          "description": "The valid range for the Property in the Resource as a number. The\\nfirst value in the array is the minimum value, the second value in\\nthe array is the maximum value.",
          "writable": false,
          "minItems": 2,
          "maxItems": 2,
          "items": {
            "type": "number"
          }
        },
        "zoomFactorRange": {
          "description": "The allowed Zoom Factor values. Linear equates to a 1-100 min/max.",
          "enum": [
            "linear",
            "1x",
            "2x",
            "4x",
            "8x",
            "16x",
            "32x"
          ],
          "writable": false,
          "type": "string"
        },
        "pan": {
          "description": "The horizontal pan in degrees.",
          "type": "number"
        }
      },
      "sdfRequired": [
        "#/sdfObject/ptz/sdfProperty/pan",
        "#/sdfObject/ptz/sdfProperty/tilt",
        "#/sdfObject/ptz/sdfProperty/zoomFactor"
      ]
    }
  }
}
@endjson

PlantUML version 1.2021.2(Sun Mar 07 13:10:27 EET 2021)
(GPL source distribution)
Java Runtime: OpenJDK Runtime Environment
JVM: OpenJDK 64-Bit Server VM
Default Encoding: UTF-8
Language: en
Country: FI
--></g></svg>