<?xml version="1.0" encoding="UTF-8" standalone="no"?><svg xmlns="http://www.w3.org/2000/svg" xmlns:xlink="http://www.w3.org/1999/xlink" contentScriptType="application/ecmascript" contentStyleType="text/css" height="349px" preserveAspectRatio="none" style="width:2529px;height:349px;" version="1.1" viewBox="0 0 2529 349" width="2529px" zoomAndPan="magnify"><defs/><g><rect fill="#FEFECE" height="40.9766" rx="5" ry="5" style="stroke:#FEFECE;stroke-width:1.5;" width="97" x="10" y="95"/><text fill="#000000" font-family="sans-serif" font-size="14" lengthAdjust="spacing" textLength="27" x="15" y="110.5352">info</text><text fill="#000000" font-family="sans-serif" font-size="14" lengthAdjust="spacing" textLength="0" x="102" y="110.5352"/><line style="stroke:#A80036;stroke-width:1.0;" x1="85" x2="85" y1="95" y2="115.4883"/><line style="stroke:#A80036;stroke-width:1.0;" x1="10" x2="107" y1="115.4883" y2="115.4883"/><text fill="#000000" font-family="sans-serif" font-size="14" lengthAdjust="spacing" textLength="65" x="15" y="131.0234">sdfObject</text><text fill="#000000" font-family="sans-serif" font-size="14" lengthAdjust="spacing" textLength="0" x="102" y="131.0234"/><line style="stroke:#A80036;stroke-width:1.0;" x1="85" x2="85" y1="115.4883" y2="135.9766"/><rect fill="none" height="40.9766" rx="5" ry="5" style="stroke:#A80036;stroke-width:1.5;" width="97" x="10" y="95"/><rect fill="#FEFECE" height="81.9531" rx="5" ry="5" style="stroke:#FEFECE;stroke-width:1.5;" width="655" x="144" y="39.5"/><text fill="#000000" font-family="sans-serif" font-size="14" lengthAdjust="spacing" textLength="65" x="149" y="55.0352">copyright</text><text fill="#000000" font-family="sans-serif" font-size="14" lengthAdjust="spacing" textLength="570" x="224" y="55.0352">copyright 2016-2017, 2019 Open Connectivity Foundation, Inc. All rights reserved.</text><line style="stroke:#A80036;stroke-width:1.0;" x1="219" x2="219" y1="39.5" y2="59.9883"/><line style="stroke:#A80036;stroke-width:1.0;" x1="144" x2="799" y1="59.9883" y2="59.9883"/><text fill="#000000" font-family="sans-serif" font-size="14" lengthAdjust="spacing" textLength="47" x="149" y="75.5234">license</text><text fill="#000000" font-family="sans-serif" font-size="14" lengthAdjust="spacing" textLength="462" x="224" y="75.5234">https://github.com/one-data-model/oneDM/blob/master/LICENSE</text><line style="stroke:#A80036;stroke-width:1.0;" x1="219" x2="219" y1="59.9883" y2="80.4766"/><line style="stroke:#A80036;stroke-width:1.0;" x1="144" x2="799" y1="80.4766" y2="80.4766"/><text fill="#000000" font-family="sans-serif" font-size="14" lengthAdjust="spacing" textLength="26" x="149" y="96.0117">title</text><text fill="#000000" font-family="sans-serif" font-size="14" lengthAdjust="spacing" textLength="75" x="224" y="96.0117">Open Level</text><line style="stroke:#A80036;stroke-width:1.0;" x1="219" x2="219" y1="80.4766" y2="100.9648"/><line style="stroke:#A80036;stroke-width:1.0;" x1="144" x2="799" y1="100.9648" y2="100.9648"/><text fill="#000000" font-family="sans-serif" font-size="14" lengthAdjust="spacing" textLength="50" x="149" y="116.5">version</text><text fill="#000000" font-family="sans-serif" font-size="14" lengthAdjust="spacing" textLength="88" x="224" y="116.5">2019-02-15</text><line style="stroke:#A80036;stroke-width:1.0;" x1="219" x2="219" y1="100.9648" y2="121.4531"/><rect fill="none" height="81.9531" rx="5" ry="5" style="stroke:#A80036;stroke-width:1.5;" width="655" x="144" y="39.5"/><rect fill="#FEFECE" height="20.4883" rx="5" ry="5" style="stroke:#FEFECE;stroke-width:1.5;" width="98" x="422.5" y="139.5"/><text fill="#000000" font-family="sans-serif" font-size="14" lengthAdjust="spacing" textLength="66" x="427.5" y="155.0352">openlevel</text><text fill="#000000" font-family="sans-serif" font-size="14" lengthAdjust="spacing" textLength="0" x="515.5" y="155.0352"/><line style="stroke:#A80036;stroke-width:1.0;" x1="498.5" x2="498.5" y1="139.5" y2="159.9883"/><rect fill="none" height="20.4883" rx="5" ry="5" style="stroke:#A80036;stroke-width:1.5;" width="98" x="422.5" y="139.5"/><rect fill="#FEFECE" height="193.3711" rx="5" ry="5" style="stroke:#FEFECE;stroke-width:1.5;" width="594" x="836" y="53"/><text fill="#000000" font-family="sans-serif" font-size="14" lengthAdjust="spacing" textLength="77" x="841" y="68.5352">description</text><text fill="#000000" font-family="sans-serif" font-size="14" lengthAdjust="spacing" textLength="477" x="934" y="68.5352">This Resource describes how open or ajar an entity such as a window,</text><text fill="#000000" font-family="sans-serif" font-size="14" lengthAdjust="spacing" textLength="426" x="934" y="85.0234">door, blind or shutter is. The Property "openLevel" can be read</text><text fill="#000000" font-family="sans-serif" font-size="14" lengthAdjust="spacing" textLength="446" x="934" y="101.5117">(acting as a sensor). The "openLevel" can also be set (acting as an</text><text fill="#000000" font-family="sans-serif" font-size="14" lengthAdjust="spacing" textLength="437" x="934" y="118">actuator). The "openLevel" is device dependent across the range</text><text fill="#000000" font-family="sans-serif" font-size="14" lengthAdjust="spacing" textLength="433" x="934" y="134.4883">provided. When the Property "range" is omitted then 0 to 100 is</text><text fill="#000000" font-family="sans-serif" font-size="14" lengthAdjust="spacing" textLength="471" x="934" y="150.9766">assumed where 0 means closed, 100 means fully open. If a "range" is</text><text fill="#000000" font-family="sans-serif" font-size="14" lengthAdjust="spacing" textLength="491" x="934" y="167.4648">provided then the lower bound=closed, upper bound=open. If Property</text><text fill="#000000" font-family="sans-serif" font-size="14" lengthAdjust="spacing" textLength="457" x="934" y="183.9531">"step" is present then it represents the increment between possible</text><text fill="#000000" font-family="sans-serif" font-size="14" lengthAdjust="spacing" textLength="249" x="934" y="200.4414">values; if not provided 1 is assumed.</text><line style="stroke:#A80036;stroke-width:1.0;" x1="929" x2="929" y1="53" y2="205.3945"/><line style="stroke:#A80036;stroke-width:1.0;" x1="836" x2="1430" y1="205.3945" y2="205.3945"/><text fill="#000000" font-family="sans-serif" font-size="14" lengthAdjust="spacing" textLength="79" x="841" y="220.9297">sdfProperty</text><text fill="#000000" font-family="sans-serif" font-size="14" lengthAdjust="spacing" textLength="0" x="946" y="220.9297"/><line style="stroke:#A80036;stroke-width:1.0;" x1="929" x2="929" y1="205.3945" y2="225.8828"/><line style="stroke:#A80036;stroke-width:1.0;" x1="836" x2="1430" y1="225.8828" y2="225.8828"/><text fill="#000000" font-family="sans-serif" font-size="14" lengthAdjust="spacing" textLength="83" x="841" y="241.418">sdfRequired</text><text fill="#000000" font-family="sans-serif" font-size="14" lengthAdjust="spacing" textLength="0" x="946" y="241.418"/><line style="stroke:#A80036;stroke-width:1.0;" x1="929" x2="929" y1="225.8828" y2="246.3711"/><rect fill="none" height="193.3711" rx="5" ry="5" style="stroke:#A80036;stroke-width:1.5;" width="594" x="836" y="53"/><rect fill="#FEFECE" height="61.4648" rx="5" ry="5" style="stroke:#FEFECE;stroke-width:1.5;" width="101" x="1579.5" y="118"/><text fill="#000000" font-family="sans-serif" font-size="14" lengthAdjust="spacing" textLength="69" x="1584.5" y="133.5352">openLevel</text><text fill="#000000" font-family="sans-serif" font-size="14" lengthAdjust="spacing" textLength="0" x="1675.5" y="133.5352"/><line style="stroke:#A80036;stroke-width:1.0;" x1="1658.5" x2="1658.5" y1="118" y2="138.4883"/><line style="stroke:#A80036;stroke-width:1.0;" x1="1579.5" x2="1680.5" y1="138.4883" y2="138.4883"/><text fill="#000000" font-family="sans-serif" font-size="14" lengthAdjust="spacing" textLength="40" x="1584.5" y="154.0234">range</text><text fill="#000000" font-family="sans-serif" font-size="14" lengthAdjust="spacing" textLength="0" x="1675.5" y="154.0234"/><line style="stroke:#A80036;stroke-width:1.0;" x1="1658.5" x2="1658.5" y1="138.4883" y2="158.9766"/><line style="stroke:#A80036;stroke-width:1.0;" x1="1579.5" x2="1680.5" y1="158.9766" y2="158.9766"/><text fill="#000000" font-family="sans-serif" font-size="14" lengthAdjust="spacing" textLength="29" x="1584.5" y="174.5117">step</text><text fill="#000000" font-family="sans-serif" font-size="14" lengthAdjust="spacing" textLength="0" x="1675.5" y="174.5117"/><line style="stroke:#A80036;stroke-width:1.0;" x1="1658.5" x2="1658.5" y1="158.9766" y2="179.4648"/><rect fill="none" height="61.4648" rx="5" ry="5" style="stroke:#A80036;stroke-width:1.5;" width="101" x="1579.5" y="118"/><rect fill="#FEFECE" height="40.9766" rx="5" ry="5" style="stroke:#FEFECE;stroke-width:1.5;" width="302" x="1955" y="10"/><text fill="#000000" font-family="sans-serif" font-size="14" lengthAdjust="spacing" textLength="77" x="1960" y="25.5352">description</text><text fill="#000000" font-family="sans-serif" font-size="14" lengthAdjust="spacing" textLength="205" x="2047" y="25.5352">How open or ajar the entity is.</text><line style="stroke:#A80036;stroke-width:1.0;" x1="2042" x2="2042" y1="10" y2="30.4883"/><line style="stroke:#A80036;stroke-width:1.0;" x1="1955" x2="2257" y1="30.4883" y2="30.4883"/><text fill="#000000" font-family="sans-serif" font-size="14" lengthAdjust="spacing" textLength="29" x="1960" y="46.0234">type</text><text fill="#000000" font-family="sans-serif" font-size="14" lengthAdjust="spacing" textLength="49" x="2047" y="46.0234">integer</text><line style="stroke:#A80036;stroke-width:1.0;" x1="2042" x2="2042" y1="30.4883" y2="50.9766"/><rect fill="none" height="40.9766" rx="5" ry="5" style="stroke:#A80036;stroke-width:1.5;" width="302" x="1955" y="10"/><rect fill="#FEFECE" height="155.9063" rx="5" ry="5" style="stroke:#FEFECE;stroke-width:1.5;" width="552" x="1830" y="69.5"/><text fill="#000000" font-family="sans-serif" font-size="14" lengthAdjust="spacing" textLength="29" x="1835" y="85.0352">type</text><text fill="#000000" font-family="sans-serif" font-size="14" lengthAdjust="spacing" textLength="35" x="1922" y="85.0352">array</text><line style="stroke:#A80036;stroke-width:1.0;" x1="1917" x2="1917" y1="69.5" y2="89.9883"/><line style="stroke:#A80036;stroke-width:1.0;" x1="1830" x2="2382" y1="89.9883" y2="89.9883"/><text fill="#000000" font-family="sans-serif" font-size="14" lengthAdjust="spacing" textLength="77" x="1835" y="105.5234">description</text><text fill="#000000" font-family="sans-serif" font-size="14" lengthAdjust="spacing" textLength="455" x="1922" y="105.5234">The valid range for the Property in the Resource as an integer. The</text><text fill="#000000" font-family="sans-serif" font-size="14" lengthAdjust="spacing" textLength="439" x="1922" y="122.0117">first value in the array is the minimum value, the second value in</text><text fill="#000000" font-family="sans-serif" font-size="14" lengthAdjust="spacing" textLength="219" x="1922" y="138.5">the array is the maximum value.</text><line style="stroke:#A80036;stroke-width:1.0;" x1="1917" x2="1917" y1="89.9883" y2="143.4531"/><line style="stroke:#A80036;stroke-width:1.0;" x1="1830" x2="2382" y1="143.4531" y2="143.4531"/><text fill="#000000" font-family="sans-serif" font-size="14" lengthAdjust="spacing" textLength="55" x="1835" y="158.9883">writable</text><text fill="#000000" font-family="sans-serif" font-size="14" lengthAdjust="spacing" textLength="48" x="1922" y="158.9883">☐ false</text><line style="stroke:#A80036;stroke-width:1.0;" x1="1917" x2="1917" y1="143.4531" y2="163.9414"/><line style="stroke:#A80036;stroke-width:1.0;" x1="1830" x2="2382" y1="163.9414" y2="163.9414"/><text fill="#000000" font-family="sans-serif" font-size="14" lengthAdjust="spacing" textLength="63" x="1835" y="179.4766">minItems</text><text fill="#000000" font-family="sans-serif" font-size="14" lengthAdjust="spacing" textLength="9" x="1922" y="179.4766">2</text><line style="stroke:#A80036;stroke-width:1.0;" x1="1917" x2="1917" y1="163.9414" y2="184.4297"/><line style="stroke:#A80036;stroke-width:1.0;" x1="1830" x2="2382" y1="184.4297" y2="184.4297"/><text fill="#000000" font-family="sans-serif" font-size="14" lengthAdjust="spacing" textLength="67" x="1835" y="199.9648">maxItems</text><text fill="#000000" font-family="sans-serif" font-size="14" lengthAdjust="spacing" textLength="9" x="1922" y="199.9648">2</text><line style="stroke:#A80036;stroke-width:1.0;" x1="1917" x2="1917" y1="184.4297" y2="204.918"/><line style="stroke:#A80036;stroke-width:1.0;" x1="1830" x2="2382" y1="204.918" y2="204.918"/><text fill="#000000" font-family="sans-serif" font-size="14" lengthAdjust="spacing" textLength="37" x="1835" y="220.4531">items</text><text fill="#000000" font-family="sans-serif" font-size="14" lengthAdjust="spacing" textLength="0" x="1934" y="220.4531"/><line style="stroke:#A80036;stroke-width:1.0;" x1="1917" x2="1917" y1="204.918" y2="225.4063"/><rect fill="none" height="155.9063" rx="5" ry="5" style="stroke:#A80036;stroke-width:1.5;" width="552" x="1830" y="69.5"/><rect fill="#FEFECE" height="20.4883" rx="5" ry="5" style="stroke:#FEFECE;stroke-width:1.5;" width="98" x="2419" y="202.5"/><text fill="#000000" font-family="sans-serif" font-size="14" lengthAdjust="spacing" textLength="29" x="2424" y="218.0352">type</text><text fill="#000000" font-family="sans-serif" font-size="14" lengthAdjust="spacing" textLength="49" x="2463" y="218.0352">integer</text><line style="stroke:#A80036;stroke-width:1.0;" x1="2458" x2="2458" y1="202.5" y2="222.9883"/><rect fill="none" height="20.4883" rx="5" ry="5" style="stroke:#A80036;stroke-width:1.5;" width="98" x="2419" y="202.5"/><rect fill="#FEFECE" height="94.4414" rx="5" ry="5" style="stroke:#FEFECE;stroke-width:1.5;" width="549" x="1831.5" y="243.5"/><text fill="#000000" font-family="sans-serif" font-size="14" lengthAdjust="spacing" textLength="77" x="1836.5" y="259.0352">description</text><text fill="#000000" font-family="sans-serif" font-size="14" lengthAdjust="spacing" textLength="448" x="1923.5" y="259.0352">Step value across the defined range when the range is an integer.</text><text fill="#000000" font-family="sans-serif" font-size="14" lengthAdjust="spacing" textLength="449" x="1923.5" y="275.5234">This is the increment for valid values across the range; so if range</text><text fill="#000000" font-family="sans-serif" font-size="14" lengthAdjust="spacing" textLength="376" x="1923.5" y="292.0117">is 0..10 and step is 2 then valid values are 0,2,4,6,8,10.</text><line style="stroke:#A80036;stroke-width:1.0;" x1="1918.5" x2="1918.5" y1="243.5" y2="296.9648"/><line style="stroke:#A80036;stroke-width:1.0;" x1="1831.5" x2="2380.5" y1="296.9648" y2="296.9648"/><text fill="#000000" font-family="sans-serif" font-size="14" lengthAdjust="spacing" textLength="55" x="1836.5" y="312.5">writable</text><text fill="#000000" font-family="sans-serif" font-size="14" lengthAdjust="spacing" textLength="48" x="1923.5" y="312.5">☐ false</text><line style="stroke:#A80036;stroke-width:1.0;" x1="1918.5" x2="1918.5" y1="296.9648" y2="317.4531"/><line style="stroke:#A80036;stroke-width:1.0;" x1="1831.5" x2="2380.5" y1="317.4531" y2="317.4531"/><text fill="#000000" font-family="sans-serif" font-size="14" lengthAdjust="spacing" textLength="29" x="1836.5" y="332.9883">type</text><text fill="#000000" font-family="sans-serif" font-size="14" lengthAdjust="spacing" textLength="49" x="1923.5" y="332.9883">integer</text><line style="stroke:#A80036;stroke-width:1.0;" x1="1918.5" x2="1918.5" y1="317.4531" y2="337.9414"/><rect fill="none" height="94.4414" rx="5" ry="5" style="stroke:#A80036;stroke-width:1.5;" width="549" x="1831.5" y="243.5"/><rect fill="#FEFECE" height="20.4883" rx="5" ry="5" style="stroke:#FEFECE;stroke-width:1.5;" width="326" x="1467" y="203.5"/><text fill="#000000" font-family="sans-serif" font-size="14" lengthAdjust="spacing" textLength="316" x="1472" y="219.0352">#/sdfObject/openlevel/sdfProperty/openLevel</text><rect fill="none" height="20.4883" rx="5" ry="5" style="stroke:#A80036;stroke-width:1.5;" width="326" x="1467" y="203.5"/><path d="M95,104.5 L108,104.5 C117.3442,104.5 126.8208,104.4198 136.3833,104.2688 " fill="none" style="stroke:#A80036;stroke-width:1.0;stroke-dasharray:3.0,3.0;"/><path d="M136.4378,107.3434 L138.6892,104.2279 L136.3288,101.1942 L144.0697,104.1326 L136.4378,107.3434 " fill="#A80036" style="stroke:#A80036;stroke-width:1.0;"/><ellipse cx="95" cy="104.5" fill="#A80036" rx="3" ry="3" style="stroke:#A80036;stroke-width:1.0;stroke-dasharray:3.0,3.0;"/><path d="M1669.5,127.5 L1682.5,127.5 C1754.5017,127.5 1760.5575,79.5259 1830,60.5 C1867.412,50.2498 1908.5852,43.4804 1947.4395,39.016 " fill="none" style="stroke:#A80036;stroke-width:1.0;stroke-dasharray:3.0,3.0;"/><path d="M1947.7845,42.1112 L1949.761,38.7572 L1947.0945,35.9207 L1955.1777,38.1535 L1947.7845,42.1112 " fill="#A80036" style="stroke:#A80036;stroke-width:1.0;"/><ellipse cx="1669.5" cy="127.5" fill="#A80036" rx="3" ry="3" style="stroke:#A80036;stroke-width:1.0;stroke-dasharray:3.0,3.0;"/><path d="M2370,212.5 L2383,212.5 C2392.2605,212.5 2402.0919,212.5 2411.6496,212.5 " fill="none" style="stroke:#A80036;stroke-width:1.0;stroke-dasharray:3.0,3.0;"/><path d="M2411.6496,215.5361 L2413.9267,212.5 L2411.6496,209.4639 L2419.2398,212.5 L2411.6496,215.5361 " fill="#A80036" style="stroke:#A80036;stroke-width:1.0;"/><ellipse cx="2370" cy="212.5" fill="#A80036" rx="3" ry="3" style="stroke:#A80036;stroke-width:1.0;stroke-dasharray:3.0,3.0;"/><path d="M1669.5,147.5 L1682.5,147.5 C1727.8975,147.5 1776.0356,147.5 1822.9436,147.5 " fill="none" style="stroke:#A80036;stroke-width:1.0;stroke-dasharray:3.0,3.0;"/><path d="M1822.9436,150.5069 L1825.1987,147.5 L1822.9436,144.4931 L1830.4608,147.5 L1822.9436,150.5069 " fill="#A80036" style="stroke:#A80036;stroke-width:1.0;"/><ellipse cx="1669.5" cy="147.5" fill="#A80036" rx="3" ry="3" style="stroke:#A80036;stroke-width:1.0;stroke-dasharray:3.0,3.0;"/><path d="M1669.5,168.5 L1682.5,168.5 C1733.385,168.5 1750.1873,168.6209 1794,194.5 C1814.5934,206.664 1809.2351,222.6312 1830,234.5 C1833.3569,236.4187 1836.7698,238.2723 1840.2321,240.0629 " fill="none" style="stroke:#A80036;stroke-width:1.0;stroke-dasharray:3.0,3.0;"/><path d="M1838.8854,242.7499 L1842.2473,241.0729 L1841.5787,237.376 L1846.9494,243.4295 L1838.8854,242.7499 " fill="#A80036" style="stroke:#A80036;stroke-width:1.0;"/><ellipse cx="1669.5" cy="168.5" fill="#A80036" rx="3" ry="3" style="stroke:#A80036;stroke-width:1.0;stroke-dasharray:3.0,3.0;"/><path d="M1418,148.5 L1431,148.5 C1478.4927,148.5 1532.377,148.5 1572.0081,148.5 " fill="none" style="stroke:#A80036;stroke-width:1.0;stroke-dasharray:3.0,3.0;"/><path d="M1572.0081,151.592 L1574.3271,148.5 L1572.0081,145.408 L1579.7381,148.5 L1572.0081,151.592 " fill="#A80036" style="stroke:#A80036;stroke-width:1.0;"/><ellipse cx="1418" cy="148.5" fill="#A80036" rx="3" ry="3" style="stroke:#A80036;stroke-width:1.0;stroke-dasharray:3.0,3.0;"/><path d="M1418,213.5 L1431,213.5 C1440.3134,213.5 1449.8727,213.5 1459.522,213.5 " fill="none" style="stroke:#A80036;stroke-width:1.0;stroke-dasharray:3.0,3.0;"/><path d="M1459.522,216.602 L1461.8485,213.5 L1459.522,210.398 L1467.2769,213.5 L1459.522,216.602 " fill="#A80036" style="stroke:#A80036;stroke-width:1.0;"/><ellipse cx="1418" cy="213.5" fill="#A80036" rx="3" ry="3" style="stroke:#A80036;stroke-width:1.0;stroke-dasharray:3.0,3.0;"/><path d="M509,149.5 L522,149.5 C621.8121,149.5 730.8034,149.5 828.7141,149.5 " fill="none" style="stroke:#A80036;stroke-width:1.0;stroke-dasharray:3.0,3.0;"/><path d="M828.7141,152.5518 L831.0029,149.5 L828.7141,146.4482 L836.3435,149.5 L828.7141,152.5518 " fill="#A80036" style="stroke:#A80036;stroke-width:1.0;"/><ellipse cx="509" cy="149.5" fill="#A80036" rx="3" ry="3" style="stroke:#A80036;stroke-width:1.0;stroke-dasharray:3.0,3.0;"/><path d="M95,125.5 L108,125.5 C124.1536,125.5 127.924,128.9191 144,130.5 C239.0341,139.8454 350.092,145.1057 415.2613,147.6191 " fill="none" style="stroke:#A80036;stroke-width:1.0;stroke-dasharray:3.0,3.0;"/><path d="M415.1441,150.7055 L417.5761,147.707 L415.3785,144.5328 L422.9771,147.9121 L415.1441,150.7055 " fill="#A80036" style="stroke:#A80036;stroke-width:1.0;"/><ellipse cx="95" cy="125.5" fill="#A80036" rx="3" ry="3" style="stroke:#A80036;stroke-width:1.0;stroke-dasharray:3.0,3.0;"/><!--MD5=[396b12f6fc8b454924e192d4a95c16fd]
@startjson
{
  "info": {
    "copyright": "copyright 2016-2017, 2019 Open Connectivity Foundation, Inc. All rights reserved.",
    "license": "https://github.com/one-data-model/oneDM/blob/master/LICENSE",
    "title": "Open Level",
    "version": "2019-02-15"
  },
  "sdfObject": {
    "openlevel": {
      "description": "This Resource describes how open or ajar an entity such as a window,\\ndoor, blind or shutter is. The Property \"openLevel\" can be read\\n(acting as a sensor). The \"openLevel\" can also be set (acting as an\\nactuator). The \"openLevel\" is device dependent across the range\\nprovided. When the Property \"range\" is omitted then 0 to 100 is\\nassumed where 0 means closed, 100 means fully open. If a \"range\" is\\nprovided then the lower bound=closed, upper bound=open. If Property\\n\"step\" is present then it represents the increment between possible\\nvalues; if not provided 1 is assumed.",
      "sdfProperty": {
        "openLevel": {
          "description": "How open or ajar the entity is.",
          "type": "integer"
        },
        "range": {
          "type": "array",
          "description": "The valid range for the Property in the Resource as an integer. The\\nfirst value in the array is the minimum value, the second value in\\nthe array is the maximum value.",
          "writable": false,
          "minItems": 2,
          "maxItems": 2,
          "items": {
            "type": "integer"
          }
        },
        "step": {
          "description": "Step value across the defined range when the range is an integer. \\nThis is the increment for valid values across the range; so if range\\nis 0..10 and step is 2 then valid values are 0,2,4,6,8,10.",
          "writable": false,
          "type": "integer"
        }
      },
      "sdfRequired": [
        "#/sdfObject/openlevel/sdfProperty/openLevel"
      ]
    }
  }
}
@endjson

PlantUML version 1.2021.2(Sun Mar 07 13:10:27 EET 2021)
(GPL source distribution)
Java Runtime: OpenJDK Runtime Environment
JVM: OpenJDK 64-Bit Server VM
Default Encoding: UTF-8
Language: en
Country: FI
--></g></svg>