<?xml version="1.0" encoding="UTF-8" standalone="no"?><svg xmlns="http://www.w3.org/2000/svg" xmlns:xlink="http://www.w3.org/1999/xlink" contentScriptType="application/ecmascript" contentStyleType="text/css" height="195px" preserveAspectRatio="none" style="width:2466px;height:195px;" version="1.1" viewBox="0 0 2466 195" width="2466px" zoomAndPan="magnify"><defs/><g><rect fill="#FEFECE" height="40.9766" rx="5" ry="5" style="stroke:#FEFECE;stroke-width:1.5;" width="97" x="10" y="65.5"/><text fill="#000000" font-family="sans-serif" font-size="14" lengthAdjust="spacing" textLength="27" x="15" y="81.0352">info</text><text fill="#000000" font-family="sans-serif" font-size="14" lengthAdjust="spacing" textLength="0" x="102" y="81.0352"/><line style="stroke:#A80036;stroke-width:1.0;" x1="85" x2="85" y1="65.5" y2="85.9883"/><line style="stroke:#A80036;stroke-width:1.0;" x1="10" x2="107" y1="85.9883" y2="85.9883"/><text fill="#000000" font-family="sans-serif" font-size="14" lengthAdjust="spacing" textLength="65" x="15" y="101.5234">sdfObject</text><text fill="#000000" font-family="sans-serif" font-size="14" lengthAdjust="spacing" textLength="0" x="102" y="101.5234"/><line style="stroke:#A80036;stroke-width:1.0;" x1="85" x2="85" y1="85.9883" y2="106.4766"/><rect fill="none" height="40.9766" rx="5" ry="5" style="stroke:#A80036;stroke-width:1.5;" width="97" x="10" y="65.5"/><rect fill="#FEFECE" height="81.9531" rx="5" ry="5" style="stroke:#FEFECE;stroke-width:1.5;" width="655" x="144" y="10"/><text fill="#000000" font-family="sans-serif" font-size="14" lengthAdjust="spacing" textLength="65" x="149" y="25.5352">copyright</text><text fill="#000000" font-family="sans-serif" font-size="14" lengthAdjust="spacing" textLength="570" x="224" y="25.5352">copyright 2016-2017, 2019 Open Connectivity Foundation, Inc. All rights reserved.</text><line style="stroke:#A80036;stroke-width:1.0;" x1="219" x2="219" y1="10" y2="30.4883"/><line style="stroke:#A80036;stroke-width:1.0;" x1="144" x2="799" y1="30.4883" y2="30.4883"/><text fill="#000000" font-family="sans-serif" font-size="14" lengthAdjust="spacing" textLength="47" x="149" y="46.0234">license</text><text fill="#000000" font-family="sans-serif" font-size="14" lengthAdjust="spacing" textLength="462" x="224" y="46.0234">https://github.com/one-data-model/oneDM/blob/master/LICENSE</text><line style="stroke:#A80036;stroke-width:1.0;" x1="219" x2="219" y1="30.4883" y2="50.9766"/><line style="stroke:#A80036;stroke-width:1.0;" x1="144" x2="799" y1="50.9766" y2="50.9766"/><text fill="#000000" font-family="sans-serif" font-size="14" lengthAdjust="spacing" textLength="26" x="149" y="66.5117">title</text><text fill="#000000" font-family="sans-serif" font-size="14" lengthAdjust="spacing" textLength="109" x="224" y="66.5117">Heart Rate Zone</text><line style="stroke:#A80036;stroke-width:1.0;" x1="219" x2="219" y1="50.9766" y2="71.4648"/><line style="stroke:#A80036;stroke-width:1.0;" x1="144" x2="799" y1="71.4648" y2="71.4648"/><text fill="#000000" font-family="sans-serif" font-size="14" lengthAdjust="spacing" textLength="50" x="149" y="87">version</text><text fill="#000000" font-family="sans-serif" font-size="14" lengthAdjust="spacing" textLength="88" x="224" y="87">2019-03-28</text><line style="stroke:#A80036;stroke-width:1.0;" x1="219" x2="219" y1="71.4648" y2="91.9531"/><rect fill="none" height="81.9531" rx="5" ry="5" style="stroke:#A80036;stroke-width:1.5;" width="655" x="144" y="10"/><rect fill="#FEFECE" height="20.4883" rx="5" ry="5" style="stroke:#FEFECE;stroke-width:1.5;" width="156" x="393.5" y="110"/><text fill="#000000" font-family="sans-serif" font-size="14" lengthAdjust="spacing" textLength="124" x="398.5" y="125.5352">sensor.heart.zone</text><text fill="#000000" font-family="sans-serif" font-size="14" lengthAdjust="spacing" textLength="0" x="544.5" y="125.5352"/><line style="stroke:#A80036;stroke-width:1.0;" x1="527.5" x2="527.5" y1="110" y2="130.4883"/><rect fill="none" height="20.4883" rx="5" ry="5" style="stroke:#A80036;stroke-width:1.5;" width="156" x="393.5" y="110"/><rect fill="#FEFECE" height="127.418" rx="5" ry="5" style="stroke:#FEFECE;stroke-width:1.5;" width="582" x="836" y="56.5"/><text fill="#000000" font-family="sans-serif" font-size="14" lengthAdjust="spacing" textLength="77" x="841" y="72.0352">description</text><text fill="#000000" font-family="sans-serif" font-size="14" lengthAdjust="spacing" textLength="458" x="934" y="72.0352">This Resource describes a measured heart rate by the current Zone</text><text fill="#000000" font-family="sans-serif" font-size="14" lengthAdjust="spacing" textLength="478" x="934" y="88.5234">using the Zoladz method. The Zoladz method defines Zones based on</text><text fill="#000000" font-family="sans-serif" font-size="14" lengthAdjust="spacing" textLength="469" x="934" y="105.0117">maximum heart rate; Zone 1 is the lowest, Zone 5 is the highest. The</text><text fill="#000000" font-family="sans-serif" font-size="14" lengthAdjust="spacing" textLength="479" x="934" y="121.5">heartRateZone is an enumeration containing one of: "Zone1", "Zone2",</text><text fill="#000000" font-family="sans-serif" font-size="14" lengthAdjust="spacing" textLength="209" x="934" y="137.9883">"Zone3", "Zone4", and "Zone5".</text><line style="stroke:#A80036;stroke-width:1.0;" x1="929" x2="929" y1="56.5" y2="142.9414"/><line style="stroke:#A80036;stroke-width:1.0;" x1="836" x2="1418" y1="142.9414" y2="142.9414"/><text fill="#000000" font-family="sans-serif" font-size="14" lengthAdjust="spacing" textLength="79" x="841" y="158.4766">sdfProperty</text><text fill="#000000" font-family="sans-serif" font-size="14" lengthAdjust="spacing" textLength="0" x="946" y="158.4766"/><line style="stroke:#A80036;stroke-width:1.0;" x1="929" x2="929" y1="142.9414" y2="163.4297"/><line style="stroke:#A80036;stroke-width:1.0;" x1="836" x2="1418" y1="163.4297" y2="163.4297"/><text fill="#000000" font-family="sans-serif" font-size="14" lengthAdjust="spacing" textLength="83" x="841" y="178.9648">sdfRequired</text><text fill="#000000" font-family="sans-serif" font-size="14" lengthAdjust="spacing" textLength="0" x="946" y="178.9648"/><line style="stroke:#A80036;stroke-width:1.0;" x1="929" x2="929" y1="163.4297" y2="183.918"/><rect fill="none" height="127.418" rx="5" ry="5" style="stroke:#A80036;stroke-width:1.5;" width="582" x="836" y="56.5"/><rect fill="#FEFECE" height="20.4883" rx="5" ry="5" style="stroke:#FEFECE;stroke-width:1.5;" width="132" x="1596.5" y="109"/><text fill="#000000" font-family="sans-serif" font-size="14" lengthAdjust="spacing" textLength="100" x="1601.5" y="124.5352">heartRateZone</text><text fill="#000000" font-family="sans-serif" font-size="14" lengthAdjust="spacing" textLength="0" x="1723.5" y="124.5352"/><line style="stroke:#A80036;stroke-width:1.0;" x1="1706.5" x2="1706.5" y1="109" y2="129.4883"/><rect fill="none" height="20.4883" rx="5" ry="5" style="stroke:#A80036;stroke-width:1.5;" width="132" x="1596.5" y="109"/><rect fill="#FEFECE" height="81.9531" rx="5" ry="5" style="stroke:#FEFECE;stroke-width:1.5;" width="457" x="1907" y="78"/><text fill="#000000" font-family="sans-serif" font-size="14" lengthAdjust="spacing" textLength="77" x="1912" y="93.5352">description</text><text fill="#000000" font-family="sans-serif" font-size="14" lengthAdjust="spacing" textLength="360" x="1999" y="93.5352">Current heart rate zone based on the Zoladz system.</text><line style="stroke:#A80036;stroke-width:1.0;" x1="1994" x2="1994" y1="78" y2="98.4883"/><line style="stroke:#A80036;stroke-width:1.0;" x1="1907" x2="2364" y1="98.4883" y2="98.4883"/><text fill="#000000" font-family="sans-serif" font-size="14" lengthAdjust="spacing" textLength="39" x="1912" y="114.0234">enum</text><text fill="#000000" font-family="sans-serif" font-size="14" lengthAdjust="spacing" textLength="0" x="2011" y="114.0234"/><line style="stroke:#A80036;stroke-width:1.0;" x1="1994" x2="1994" y1="98.4883" y2="118.9766"/><line style="stroke:#A80036;stroke-width:1.0;" x1="1907" x2="2364" y1="118.9766" y2="118.9766"/><text fill="#000000" font-family="sans-serif" font-size="14" lengthAdjust="spacing" textLength="55" x="1912" y="134.5117">writable</text><text fill="#000000" font-family="sans-serif" font-size="14" lengthAdjust="spacing" textLength="48" x="1999" y="134.5117">☐ false</text><line style="stroke:#A80036;stroke-width:1.0;" x1="1994" x2="1994" y1="118.9766" y2="139.4648"/><line style="stroke:#A80036;stroke-width:1.0;" x1="1907" x2="2364" y1="139.4648" y2="139.4648"/><text fill="#000000" font-family="sans-serif" font-size="14" lengthAdjust="spacing" textLength="29" x="1912" y="155">type</text><text fill="#000000" font-family="sans-serif" font-size="14" lengthAdjust="spacing" textLength="40" x="1999" y="155">string</text><line style="stroke:#A80036;stroke-width:1.0;" x1="1994" x2="1994" y1="139.4648" y2="159.9531"/><rect fill="none" height="81.9531" rx="5" ry="5" style="stroke:#A80036;stroke-width:1.5;" width="457" x="1907" y="78"/><rect fill="#FEFECE" height="102.4414" rx="5" ry="5" style="stroke:#FEFECE;stroke-width:1.5;" width="53" x="2401" y="57"/><text fill="#000000" font-family="sans-serif" font-size="14" lengthAdjust="spacing" textLength="43" x="2406" y="72.5352">Zone1</text><line style="stroke:#A80036;stroke-width:1.0;" x1="2401" x2="2454" y1="77.4883" y2="77.4883"/><text fill="#000000" font-family="sans-serif" font-size="14" lengthAdjust="spacing" textLength="43" x="2406" y="93.0234">Zone2</text><line style="stroke:#A80036;stroke-width:1.0;" x1="2401" x2="2454" y1="97.9766" y2="97.9766"/><text fill="#000000" font-family="sans-serif" font-size="14" lengthAdjust="spacing" textLength="43" x="2406" y="113.5117">Zone3</text><line style="stroke:#A80036;stroke-width:1.0;" x1="2401" x2="2454" y1="118.4648" y2="118.4648"/><text fill="#000000" font-family="sans-serif" font-size="14" lengthAdjust="spacing" textLength="43" x="2406" y="134">Zone4</text><line style="stroke:#A80036;stroke-width:1.0;" x1="2401" x2="2454" y1="138.9531" y2="138.9531"/><text fill="#000000" font-family="sans-serif" font-size="14" lengthAdjust="spacing" textLength="43" x="2406" y="154.4883">Zone5</text><rect fill="none" height="102.4414" rx="5" ry="5" style="stroke:#A80036;stroke-width:1.5;" width="53" x="2401" y="57"/><rect fill="#FEFECE" height="20.4883" rx="5" ry="5" style="stroke:#FEFECE;stroke-width:1.5;" width="415" x="1455" y="152"/><text fill="#000000" font-family="sans-serif" font-size="14" lengthAdjust="spacing" textLength="405" x="1460" y="167.5352">#/sdfObject/sensor.heart.zone/sdfProperty/heartRateZone</text><rect fill="none" height="20.4883" rx="5" ry="5" style="stroke:#A80036;stroke-width:1.5;" width="415" x="1455" y="152"/><path d="M95,75 L108,75 C117.3442,75 126.8208,74.9198 136.3833,74.7688 " fill="none" style="stroke:#A80036;stroke-width:1.0;stroke-dasharray:3.0,3.0;"/><path d="M136.4378,77.8434 L138.6892,74.7279 L136.3288,71.6942 L144.0697,74.6326 L136.4378,77.8434 " fill="#A80036" style="stroke:#A80036;stroke-width:1.0;"/><ellipse cx="95" cy="75" fill="#A80036" rx="3" ry="3" style="stroke:#A80036;stroke-width:1.0;stroke-dasharray:3.0,3.0;"/><path d="M2352,108 L2365,108 C2374.3343,108 2384.4591,108 2393.7677,108 " fill="none" style="stroke:#A80036;stroke-width:1.0;stroke-dasharray:3.0,3.0;"/><path d="M2393.7677,111.0368 L2396.0454,108 L2393.7677,104.9632 L2401.3598,108 L2393.7677,111.0368 " fill="#A80036" style="stroke:#A80036;stroke-width:1.0;"/><ellipse cx="2352" cy="108" fill="#A80036" rx="3" ry="3" style="stroke:#A80036;stroke-width:1.0;stroke-dasharray:3.0,3.0;"/><path d="M1717,119 L1730,119 C1784.8983,119 1843.9825,119 1899.5927,119 " fill="none" style="stroke:#A80036;stroke-width:1.0;stroke-dasharray:3.0,3.0;"/><path d="M1899.5927,122.1292 L1901.9396,119 L1899.5927,115.8708 L1907.4157,119 L1899.5927,122.1292 " fill="#A80036" style="stroke:#A80036;stroke-width:1.0;"/><ellipse cx="1717" cy="119" fill="#A80036" rx="3" ry="3" style="stroke:#A80036;stroke-width:1.0;stroke-dasharray:3.0,3.0;"/><path d="M1406,119 L1419,119 C1476.1645,119 1540.8932,119 1589.1636,119 " fill="none" style="stroke:#A80036;stroke-width:1.0;stroke-dasharray:3.0,3.0;"/><path d="M1589.1636,122.0408 L1591.4442,119 L1589.1636,115.9592 L1596.7657,119 L1589.1636,122.0408 " fill="#A80036" style="stroke:#A80036;stroke-width:1.0;"/><ellipse cx="1406" cy="119" fill="#A80036" rx="3" ry="3" style="stroke:#A80036;stroke-width:1.0;stroke-dasharray:3.0,3.0;"/><path d="M1406,162 L1419,162 C1428.3208,162 1437.8427,162 1447.4616,162 " fill="none" style="stroke:#A80036;stroke-width:1.0;stroke-dasharray:3.0,3.0;"/><path d="M1447.4616,165.0932 L1449.7815,162 L1447.4616,158.9068 L1455.1945,162 L1447.4616,165.0932 " fill="#A80036" style="stroke:#A80036;stroke-width:1.0;"/><ellipse cx="1406" cy="162" fill="#A80036" rx="3" ry="3" style="stroke:#A80036;stroke-width:1.0;stroke-dasharray:3.0,3.0;"/><path d="M538,120 L551,120 C641.257,120 739.4764,120 828.7999,120 " fill="none" style="stroke:#A80036;stroke-width:1.0;stroke-dasharray:3.0,3.0;"/><path d="M828.7999,123.0047 L831.0535,120 L828.7999,116.9953 L836.3118,120 L828.7999,123.0047 " fill="#A80036" style="stroke:#A80036;stroke-width:1.0;"/><ellipse cx="538" cy="120" fill="#A80036" rx="3" ry="3" style="stroke:#A80036;stroke-width:1.0;stroke-dasharray:3.0,3.0;"/><path d="M95,96 L108,96 C124.1536,96 127.924,99.4191 144,101 C226.1489,109.0783 320.2709,114.1042 386.3768,116.942 " fill="none" style="stroke:#A80036;stroke-width:1.0;stroke-dasharray:3.0,3.0;"/><path d="M386.2494,119.9483 L388.6316,117.0375 L386.5041,113.9356 L393.8927,117.2604 L386.2494,119.9483 " fill="#A80036" style="stroke:#A80036;stroke-width:1.0;"/><ellipse cx="95" cy="96" fill="#A80036" rx="3" ry="3" style="stroke:#A80036;stroke-width:1.0;stroke-dasharray:3.0,3.0;"/><!--MD5=[81992ad4359ff8fec2f918f18b3282e7]
@startjson
{
  "info": {
    "copyright": "copyright 2016-2017, 2019 Open Connectivity Foundation, Inc. All rights reserved.",
    "license": "https://github.com/one-data-model/oneDM/blob/master/LICENSE",
    "title": "Heart Rate Zone",
    "version": "2019-03-28"
  },
  "sdfObject": {
    "sensor.heart.zone": {
      "description": "This Resource describes a measured heart rate by the current Zone\\nusing the Zoladz method. The Zoladz method defines Zones based on\\nmaximum heart rate; Zone 1 is the lowest, Zone 5 is the highest. The\\nheartRateZone is an enumeration containing one of: \"Zone1\", \"Zone2\",\\n\"Zone3\", \"Zone4\", and \"Zone5\".",
      "sdfProperty": {
        "heartRateZone": {
          "description": "Current heart rate zone based on the Zoladz system.",
          "enum": [
            "Zone1",
            "Zone2",
            "Zone3",
            "Zone4",
            "Zone5"
          ],
          "writable": false,
          "type": "string"
        }
      },
      "sdfRequired": [
        "#/sdfObject/sensor.heart.zone/sdfProperty/heartRateZone"
      ]
    }
  }
}
@endjson

PlantUML version 1.2021.2(Sun Mar 07 13:10:27 EET 2021)
(GPL source distribution)
Java Runtime: OpenJDK Runtime Environment
JVM: OpenJDK 64-Bit Server VM
Default Encoding: UTF-8
Language: en
Country: FI
--></g></svg>