<?xml version="1.0" encoding="UTF-8" standalone="no"?><svg xmlns="http://www.w3.org/2000/svg" xmlns:xlink="http://www.w3.org/1999/xlink" contentScriptType="application/ecmascript" contentStyleType="text/css" height="199px" preserveAspectRatio="none" style="width:2541px;height:199px;" version="1.1" viewBox="0 0 2541 199" width="2541px" zoomAndPan="magnify"><defs/><g><rect fill="#FEFECE" height="40.9766" rx="5" ry="5" style="stroke:#FEFECE;stroke-width:1.5;" width="97" x="10" y="65.5"/><text fill="#000000" font-family="sans-serif" font-size="14" lengthAdjust="spacing" textLength="27" x="15" y="81.0352">info</text><text fill="#000000" font-family="sans-serif" font-size="14" lengthAdjust="spacing" textLength="0" x="102" y="81.0352"/><line style="stroke:#A80036;stroke-width:1.0;" x1="85" x2="85" y1="65.5" y2="85.9883"/><line style="stroke:#A80036;stroke-width:1.0;" x1="10" x2="107" y1="85.9883" y2="85.9883"/><text fill="#000000" font-family="sans-serif" font-size="14" lengthAdjust="spacing" textLength="65" x="15" y="101.5234">sdfObject</text><text fill="#000000" font-family="sans-serif" font-size="14" lengthAdjust="spacing" textLength="0" x="102" y="101.5234"/><line style="stroke:#A80036;stroke-width:1.0;" x1="85" x2="85" y1="85.9883" y2="106.4766"/><rect fill="none" height="40.9766" rx="5" ry="5" style="stroke:#A80036;stroke-width:1.5;" width="97" x="10" y="65.5"/><rect fill="#FEFECE" height="81.9531" rx="5" ry="5" style="stroke:#FEFECE;stroke-width:1.5;" width="570" x="144" y="10"/><text fill="#000000" font-family="sans-serif" font-size="14" lengthAdjust="spacing" textLength="65" x="149" y="25.5352">copyright</text><text fill="#000000" font-family="sans-serif" font-size="14" lengthAdjust="spacing" textLength="485" x="224" y="25.5352">Copyright 2019 Open Connectivity Foundation, Inc. All rights reserved.</text><line style="stroke:#A80036;stroke-width:1.0;" x1="219" x2="219" y1="10" y2="30.4883"/><line style="stroke:#A80036;stroke-width:1.0;" x1="144" x2="714" y1="30.4883" y2="30.4883"/><text fill="#000000" font-family="sans-serif" font-size="14" lengthAdjust="spacing" textLength="47" x="149" y="46.0234">license</text><text fill="#000000" font-family="sans-serif" font-size="14" lengthAdjust="spacing" textLength="462" x="224" y="46.0234">https://github.com/one-data-model/oneDM/blob/master/LICENSE</text><line style="stroke:#A80036;stroke-width:1.0;" x1="219" x2="219" y1="30.4883" y2="50.9766"/><line style="stroke:#A80036;stroke-width:1.0;" x1="144" x2="714" y1="50.9766" y2="50.9766"/><text fill="#000000" font-family="sans-serif" font-size="14" lengthAdjust="spacing" textLength="26" x="149" y="66.5117">title</text><text fill="#000000" font-family="sans-serif" font-size="14" lengthAdjust="spacing" textLength="179" x="224" y="66.5117">Muscle Oxygen Saturation</text><line style="stroke:#A80036;stroke-width:1.0;" x1="219" x2="219" y1="50.9766" y2="71.4648"/><line style="stroke:#A80036;stroke-width:1.0;" x1="144" x2="714" y1="71.4648" y2="71.4648"/><text fill="#000000" font-family="sans-serif" font-size="14" lengthAdjust="spacing" textLength="50" x="149" y="87">version</text><text fill="#000000" font-family="sans-serif" font-size="14" lengthAdjust="spacing" textLength="88" x="224" y="87">2019-08-20</text><line style="stroke:#A80036;stroke-width:1.0;" x1="219" x2="219" y1="71.4648" y2="91.9531"/><rect fill="none" height="81.9531" rx="5" ry="5" style="stroke:#A80036;stroke-width:1.5;" width="570" x="144" y="10"/><rect fill="#FEFECE" height="20.4883" rx="5" ry="5" style="stroke:#FEFECE;stroke-width:1.5;" width="201" x="328.5" y="110"/><text fill="#000000" font-family="sans-serif" font-size="14" lengthAdjust="spacing" textLength="169" x="333.5" y="125.5352">muscleoxygensaturation</text><text fill="#000000" font-family="sans-serif" font-size="14" lengthAdjust="spacing" textLength="0" x="524.5" y="125.5352"/><line style="stroke:#A80036;stroke-width:1.0;" x1="507.5" x2="507.5" y1="110" y2="130.4883"/><rect fill="none" height="20.4883" rx="5" ry="5" style="stroke:#A80036;stroke-width:1.5;" width="201" x="328.5" y="110"/><rect fill="#FEFECE" height="110.9297" rx="5" ry="5" style="stroke:#FEFECE;stroke-width:1.5;" width="593" x="751" y="64.5"/><text fill="#000000" font-family="sans-serif" font-size="14" lengthAdjust="spacing" textLength="77" x="756" y="80.0352">description</text><text fill="#000000" font-family="sans-serif" font-size="14" lengthAdjust="spacing" textLength="490" x="849" y="80.0352">This Resource describes the muscle oxygen saturation (SmO2), which is</text><text fill="#000000" font-family="sans-serif" font-size="14" lengthAdjust="spacing" textLength="454" x="849" y="96.5234">the percentage of hemoglobin that is saturated with oxygen in the</text><text fill="#000000" font-family="sans-serif" font-size="14" lengthAdjust="spacing" textLength="465" x="849" y="113.0117">capillaries of a muscle. The unit is percentage. The smo2 Property is</text><text fill="#000000" font-family="sans-serif" font-size="14" lengthAdjust="spacing" textLength="327" x="849" y="129.5">a read-only value that is provided by the server.</text><line style="stroke:#A80036;stroke-width:1.0;" x1="844" x2="844" y1="64.5" y2="134.4531"/><line style="stroke:#A80036;stroke-width:1.0;" x1="751" x2="1344" y1="134.4531" y2="134.4531"/><text fill="#000000" font-family="sans-serif" font-size="14" lengthAdjust="spacing" textLength="79" x="756" y="149.9883">sdfProperty</text><text fill="#000000" font-family="sans-serif" font-size="14" lengthAdjust="spacing" textLength="0" x="861" y="149.9883"/><line style="stroke:#A80036;stroke-width:1.0;" x1="844" x2="844" y1="134.4531" y2="154.9414"/><line style="stroke:#A80036;stroke-width:1.0;" x1="751" x2="1344" y1="154.9414" y2="154.9414"/><text fill="#000000" font-family="sans-serif" font-size="14" lengthAdjust="spacing" textLength="83" x="756" y="170.4766">sdfRequired</text><text fill="#000000" font-family="sans-serif" font-size="14" lengthAdjust="spacing" textLength="0" x="861" y="170.4766"/><line style="stroke:#A80036;stroke-width:1.0;" x1="844" x2="844" y1="154.9414" y2="175.4297"/><rect fill="none" height="110.9297" rx="5" ry="5" style="stroke:#A80036;stroke-width:1.5;" width="593" x="751" y="64.5"/><rect fill="#FEFECE" height="20.4883" rx="5" ry="5" style="stroke:#FEFECE;stroke-width:1.5;" width="201" x="1545" y="110"/><text fill="#000000" font-family="sans-serif" font-size="14" lengthAdjust="spacing" textLength="169" x="1550" y="125.5352">muscleoxygensaturation</text><text fill="#000000" font-family="sans-serif" font-size="14" lengthAdjust="spacing" textLength="0" x="1741" y="125.5352"/><line style="stroke:#A80036;stroke-width:1.0;" x1="1724" x2="1724" y1="110" y2="130.4883"/><rect fill="none" height="20.4883" rx="5" ry="5" style="stroke:#A80036;stroke-width:1.5;" width="201" x="1545" y="110"/><rect fill="#FEFECE" height="135.418" rx="5" ry="5" style="stroke:#FEFECE;stroke-width:1.5;" width="582" x="1947" y="52.5"/><text fill="#000000" font-family="sans-serif" font-size="14" lengthAdjust="spacing" textLength="77" x="1952" y="68.0352">description</text><text fill="#000000" font-family="sans-serif" font-size="14" lengthAdjust="spacing" textLength="485" x="2039" y="68.0352">This Property describes the muscle oxygen saturation (SmO2), which is</text><text fill="#000000" font-family="sans-serif" font-size="14" lengthAdjust="spacing" textLength="454" x="2039" y="84.5234">the percentage of hemoglobin that is saturated with oxygen in the</text><text fill="#000000" font-family="sans-serif" font-size="14" lengthAdjust="spacing" textLength="316" x="2039" y="101.0117">capillaries of a muscle. The unit is percentage.</text><line style="stroke:#A80036;stroke-width:1.0;" x1="2034" x2="2034" y1="52.5" y2="105.9648"/><line style="stroke:#A80036;stroke-width:1.0;" x1="1947" x2="2529" y1="105.9648" y2="105.9648"/><text fill="#000000" font-family="sans-serif" font-size="14" lengthAdjust="spacing" textLength="29" x="1952" y="121.5">type</text><text fill="#000000" font-family="sans-serif" font-size="14" lengthAdjust="spacing" textLength="54" x="2039" y="121.5">number</text><line style="stroke:#A80036;stroke-width:1.0;" x1="2034" x2="2034" y1="105.9648" y2="126.4531"/><line style="stroke:#A80036;stroke-width:1.0;" x1="1947" x2="2529" y1="126.4531" y2="126.4531"/><text fill="#000000" font-family="sans-serif" font-size="14" lengthAdjust="spacing" textLength="65" x="1952" y="141.9883">minimum</text><text fill="#000000" font-family="sans-serif" font-size="14" lengthAdjust="spacing" textLength="9" x="2039" y="141.9883">0</text><line style="stroke:#A80036;stroke-width:1.0;" x1="2034" x2="2034" y1="126.4531" y2="146.9414"/><line style="stroke:#A80036;stroke-width:1.0;" x1="1947" x2="2529" y1="146.9414" y2="146.9414"/><text fill="#000000" font-family="sans-serif" font-size="14" lengthAdjust="spacing" textLength="69" x="1952" y="162.4766">maximum</text><text fill="#000000" font-family="sans-serif" font-size="14" lengthAdjust="spacing" textLength="27" x="2039" y="162.4766">100</text><line style="stroke:#A80036;stroke-width:1.0;" x1="2034" x2="2034" y1="146.9414" y2="167.4297"/><line style="stroke:#A80036;stroke-width:1.0;" x1="1947" x2="2529" y1="167.4297" y2="167.4297"/><text fill="#000000" font-family="sans-serif" font-size="14" lengthAdjust="spacing" textLength="55" x="1952" y="182.9648">writable</text><text fill="#000000" font-family="sans-serif" font-size="14" lengthAdjust="spacing" textLength="48" x="2039" y="182.9648">☐ false</text><line style="stroke:#A80036;stroke-width:1.0;" x1="2034" x2="2034" y1="167.4297" y2="187.918"/><rect fill="none" height="135.418" rx="5" ry="5" style="stroke:#A80036;stroke-width:1.5;" width="582" x="1947" y="52.5"/><rect fill="#FEFECE" height="20.4883" rx="5" ry="5" style="stroke:#FEFECE;stroke-width:1.5;" width="529" x="1381" y="148"/><text fill="#000000" font-family="sans-serif" font-size="14" lengthAdjust="spacing" textLength="519" x="1386" y="163.5352">#/sdfObject/muscleoxygensaturation/sdfProperty/muscleoxygensaturation</text><rect fill="none" height="20.4883" rx="5" ry="5" style="stroke:#A80036;stroke-width:1.5;" width="529" x="1381" y="148"/><path d="M95,75 L108,75 C117.356,75 126.8613,74.897 136.4563,74.7046 " fill="none" style="stroke:#A80036;stroke-width:1.0;stroke-dasharray:3.0,3.0;"/><path d="M136.5256,77.7898 L138.7703,74.6526 L136.387,71.6194 L144.1694,74.5314 L136.5256,77.7898 " fill="#A80036" style="stroke:#A80036;stroke-width:1.0;"/><ellipse cx="95" cy="75" fill="#A80036" rx="3" ry="3" style="stroke:#A80036;stroke-width:1.0;stroke-dasharray:3.0,3.0;"/><path d="M1735,120 L1748,120 C1809.9618,120 1876.3354,120 1939.5817,120 " fill="none" style="stroke:#A80036;stroke-width:1.0;stroke-dasharray:3.0,3.0;"/><path d="M1939.5817,123.0788 L1941.8908,120 L1939.5817,116.9212 L1947.2787,120 L1939.5817,123.0788 " fill="#A80036" style="stroke:#A80036;stroke-width:1.0;"/><ellipse cx="1735" cy="120" fill="#A80036" rx="3" ry="3" style="stroke:#A80036;stroke-width:1.0;stroke-dasharray:3.0,3.0;"/><path d="M1332,120 L1345,120 C1408.9267,120 1480.5158,120 1537.7249,120 " fill="none" style="stroke:#A80036;stroke-width:1.0;stroke-dasharray:3.0,3.0;"/><path d="M1537.7249,123.0467 L1540.0099,120 L1537.7249,116.9533 L1545.3416,120 L1537.7249,123.0467 " fill="#A80036" style="stroke:#A80036;stroke-width:1.0;"/><ellipse cx="1332" cy="120" fill="#A80036" rx="3" ry="3" style="stroke:#A80036;stroke-width:1.0;stroke-dasharray:3.0,3.0;"/><path d="M1332,157 L1345,157 C1354.3496,157 1363.8631,157.0049 1373.4716,157.0141 " fill="none" style="stroke:#A80036;stroke-width:1.0;stroke-dasharray:3.0,3.0;"/><path d="M1373.4683,160.104 L1375.789,157.0165 L1373.4749,153.9241 L1381.1964,157.0223 L1373.4683,160.104 " fill="#A80036" style="stroke:#A80036;stroke-width:1.0;"/><ellipse cx="1332" cy="157" fill="#A80036" rx="3" ry="3" style="stroke:#A80036;stroke-width:1.0;stroke-dasharray:3.0,3.0;"/><path d="M518.5,120 L531.5,120 C600.1484,120 673.939,120 743.6273,120 " fill="none" style="stroke:#A80036;stroke-width:1.0;stroke-dasharray:3.0,3.0;"/><path d="M743.6273,123.0404 L745.9076,120 L743.6273,116.9596 L751.2283,120 L743.6273,123.0404 " fill="#A80036" style="stroke:#A80036;stroke-width:1.0;"/><ellipse cx="518.5" cy="120" fill="#A80036" rx="3" ry="3" style="stroke:#A80036;stroke-width:1.0;stroke-dasharray:3.0,3.0;"/><path d="M95,96 L108,96 C124.1536,96 127.9309,99.3496 144,101 C202.4342,107.0014 267.8243,111.5215 321.1664,114.6441 " fill="none" style="stroke:#A80036;stroke-width:1.0;stroke-dasharray:3.0,3.0;"/><path d="M320.9862,117.7563 L323.5006,114.7793 L321.3467,111.5319 L328.9469,115.0947 L320.9862,117.7563 " fill="#A80036" style="stroke:#A80036;stroke-width:1.0;"/><ellipse cx="95" cy="96" fill="#A80036" rx="3" ry="3" style="stroke:#A80036;stroke-width:1.0;stroke-dasharray:3.0,3.0;"/><!--MD5=[2001063dddc4edbf8ceac53ca398044f]
@startjson
{
  "info": {
    "copyright": "Copyright 2019 Open Connectivity Foundation, Inc. All rights reserved.",
    "license": "https://github.com/one-data-model/oneDM/blob/master/LICENSE",
    "title": "Muscle Oxygen Saturation",
    "version": "2019-08-20"
  },
  "sdfObject": {
    "muscleoxygensaturation": {
      "description": "This Resource describes the muscle oxygen saturation (SmO2), which is\\nthe percentage of hemoglobin that is saturated with oxygen in the\\ncapillaries of a muscle. The unit is percentage. The smo2 Property is\\na read-only value that is provided by the server.",
      "sdfProperty": {
        "muscleoxygensaturation": {
          "description": "This Property describes the muscle oxygen saturation (SmO2), which is\\nthe percentage of hemoglobin that is saturated with oxygen in the\\ncapillaries of a muscle. The unit is percentage.",
          "type": "number",
          "minimum": 0,
          "maximum": 100,
          "writable": false
        }
      },
      "sdfRequired": [
        "#/sdfObject/muscleoxygensaturation/sdfProperty/muscleoxygensaturation"
      ]
    }
  }
}
@endjson

PlantUML version 1.2021.2(Sun Mar 07 13:10:27 EET 2021)
(GPL source distribution)
Java Runtime: OpenJDK Runtime Environment
JVM: OpenJDK 64-Bit Server VM
Default Encoding: UTF-8
Language: en
Country: FI
--></g></svg>