<?xml version="1.0" encoding="UTF-8" standalone="no"?><svg xmlns="http://www.w3.org/2000/svg" xmlns:xlink="http://www.w3.org/1999/xlink" contentScriptType="application/ecmascript" contentStyleType="text/css" height="515px" preserveAspectRatio="none" style="width:2572px;height:515px;" version="1.1" viewBox="0 0 2572 515" width="2572px" zoomAndPan="magnify"><defs/><g><rect fill="#FEFECE" height="40.9766" rx="5" ry="5" style="stroke:#FEFECE;stroke-width:1.5;" width="97" x="10" y="205"/><text fill="#000000" font-family="sans-serif" font-size="14" lengthAdjust="spacing" textLength="27" x="15" y="220.5352">info</text><text fill="#000000" font-family="sans-serif" font-size="14" lengthAdjust="spacing" textLength="0" x="102" y="220.5352"/><line style="stroke:#A80036;stroke-width:1.0;" x1="85" x2="85" y1="205" y2="225.4883"/><line style="stroke:#A80036;stroke-width:1.0;" x1="10" x2="107" y1="225.4883" y2="225.4883"/><text fill="#000000" font-family="sans-serif" font-size="14" lengthAdjust="spacing" textLength="65" x="15" y="241.0234">sdfObject</text><text fill="#000000" font-family="sans-serif" font-size="14" lengthAdjust="spacing" textLength="0" x="102" y="241.0234"/><line style="stroke:#A80036;stroke-width:1.0;" x1="85" x2="85" y1="225.4883" y2="245.9766"/><rect fill="none" height="40.9766" rx="5" ry="5" style="stroke:#A80036;stroke-width:1.5;" width="97" x="10" y="205"/><rect fill="#FEFECE" height="81.9531" rx="5" ry="5" style="stroke:#FEFECE;stroke-width:1.5;" width="614" x="144" y="149.5"/><text fill="#000000" font-family="sans-serif" font-size="14" lengthAdjust="spacing" textLength="65" x="149" y="165.0352">copyright</text><text fill="#000000" font-family="sans-serif" font-size="14" lengthAdjust="spacing" textLength="529" x="224" y="165.0352">Copyright 2018-2019 Open Connectivity Foundation, Inc. All rights reserved.</text><line style="stroke:#A80036;stroke-width:1.0;" x1="219" x2="219" y1="149.5" y2="169.9883"/><line style="stroke:#A80036;stroke-width:1.0;" x1="144" x2="758" y1="169.9883" y2="169.9883"/><text fill="#000000" font-family="sans-serif" font-size="14" lengthAdjust="spacing" textLength="47" x="149" y="185.5234">license</text><text fill="#000000" font-family="sans-serif" font-size="14" lengthAdjust="spacing" textLength="462" x="224" y="185.5234">https://github.com/one-data-model/oneDM/blob/master/LICENSE</text><line style="stroke:#A80036;stroke-width:1.0;" x1="219" x2="219" y1="169.9883" y2="190.4766"/><line style="stroke:#A80036;stroke-width:1.0;" x1="144" x2="758" y1="190.4766" y2="190.4766"/><text fill="#000000" font-family="sans-serif" font-size="14" lengthAdjust="spacing" textLength="26" x="149" y="206.0117">title</text><text fill="#000000" font-family="sans-serif" font-size="14" lengthAdjust="spacing" textLength="136" x="224" y="206.0117">Acceleration Sensor</text><line style="stroke:#A80036;stroke-width:1.0;" x1="219" x2="219" y1="190.4766" y2="210.9648"/><line style="stroke:#A80036;stroke-width:1.0;" x1="144" x2="758" y1="210.9648" y2="210.9648"/><text fill="#000000" font-family="sans-serif" font-size="14" lengthAdjust="spacing" textLength="50" x="149" y="226.5">version</text><text fill="#000000" font-family="sans-serif" font-size="14" lengthAdjust="spacing" textLength="88" x="224" y="226.5">2019-02-15</text><line style="stroke:#A80036;stroke-width:1.0;" x1="219" x2="219" y1="210.9648" y2="231.4531"/><rect fill="none" height="81.9531" rx="5" ry="5" style="stroke:#A80036;stroke-width:1.5;" width="614" x="144" y="149.5"/><rect fill="#FEFECE" height="20.4883" rx="5" ry="5" style="stroke:#FEFECE;stroke-width:1.5;" width="165" x="368.5" y="249.5"/><text fill="#000000" font-family="sans-serif" font-size="14" lengthAdjust="spacing" textLength="133" x="373.5" y="265.0352">sensor.acceleration</text><text fill="#000000" font-family="sans-serif" font-size="14" lengthAdjust="spacing" textLength="0" x="528.5" y="265.0352"/><line style="stroke:#A80036;stroke-width:1.0;" x1="511.5" x2="511.5" y1="249.5" y2="269.9883"/><rect fill="none" height="20.4883" rx="5" ry="5" style="stroke:#A80036;stroke-width:1.5;" width="165" x="368.5" y="249.5"/><rect fill="#FEFECE" height="110.9297" rx="5" ry="5" style="stroke:#FEFECE;stroke-width:1.5;" width="574" x="795" y="204"/><text fill="#000000" font-family="sans-serif" font-size="14" lengthAdjust="spacing" textLength="77" x="800" y="219.5352">description</text><text fill="#000000" font-family="sans-serif" font-size="14" lengthAdjust="spacing" textLength="471" x="893" y="219.5352">This Resource provides a measure of proper acceleration (g force) as</text><text fill="#000000" font-family="sans-serif" font-size="14" lengthAdjust="spacing" textLength="441" x="893" y="236.0234">opposed to co-ordinate acceleration (which is dependent on the</text><text fill="#000000" font-family="sans-serif" font-size="14" lengthAdjust="spacing" textLength="466" x="893" y="252.5117">co-ordinate system and the observer). The Property "value" is a float</text><text fill="#000000" font-family="sans-serif" font-size="14" lengthAdjust="spacing" textLength="447" x="893" y="269">which describes the acceleration experienced by the object in "g".</text><line style="stroke:#A80036;stroke-width:1.0;" x1="888" x2="888" y1="204" y2="273.9531"/><line style="stroke:#A80036;stroke-width:1.0;" x1="795" x2="1369" y1="273.9531" y2="273.9531"/><text fill="#000000" font-family="sans-serif" font-size="14" lengthAdjust="spacing" textLength="79" x="800" y="289.4883">sdfProperty</text><text fill="#000000" font-family="sans-serif" font-size="14" lengthAdjust="spacing" textLength="0" x="905" y="289.4883"/><line style="stroke:#A80036;stroke-width:1.0;" x1="888" x2="888" y1="273.9531" y2="294.4414"/><line style="stroke:#A80036;stroke-width:1.0;" x1="795" x2="1369" y1="294.4414" y2="294.4414"/><text fill="#000000" font-family="sans-serif" font-size="14" lengthAdjust="spacing" textLength="83" x="800" y="309.9766">sdfRequired</text><text fill="#000000" font-family="sans-serif" font-size="14" lengthAdjust="spacing" textLength="0" x="905" y="309.9766"/><line style="stroke:#A80036;stroke-width:1.0;" x1="888" x2="888" y1="294.4414" y2="314.9297"/><rect fill="none" height="110.9297" rx="5" ry="5" style="stroke:#A80036;stroke-width:1.5;" width="574" x="795" y="204"/><rect fill="#FEFECE" height="81.9531" rx="5" ry="5" style="stroke:#FEFECE;stroke-width:1.5;" width="115" x="1552" y="202.5"/><text fill="#000000" font-family="sans-serif" font-size="14" lengthAdjust="spacing" textLength="83" x="1557" y="218.0352">acceleration</text><text fill="#000000" font-family="sans-serif" font-size="14" lengthAdjust="spacing" textLength="0" x="1662" y="218.0352"/><line style="stroke:#A80036;stroke-width:1.0;" x1="1645" x2="1645" y1="202.5" y2="222.9883"/><line style="stroke:#A80036;stroke-width:1.0;" x1="1552" x2="1667" y1="222.9883" y2="222.9883"/><text fill="#000000" font-family="sans-serif" font-size="14" lengthAdjust="spacing" textLength="40" x="1557" y="238.5234">range</text><text fill="#000000" font-family="sans-serif" font-size="14" lengthAdjust="spacing" textLength="0" x="1662" y="238.5234"/><line style="stroke:#A80036;stroke-width:1.0;" x1="1645" x2="1645" y1="222.9883" y2="243.4766"/><line style="stroke:#A80036;stroke-width:1.0;" x1="1552" x2="1667" y1="243.4766" y2="243.4766"/><text fill="#000000" font-family="sans-serif" font-size="14" lengthAdjust="spacing" textLength="29" x="1557" y="259.0117">step</text><text fill="#000000" font-family="sans-serif" font-size="14" lengthAdjust="spacing" textLength="0" x="1662" y="259.0117"/><line style="stroke:#A80036;stroke-width:1.0;" x1="1645" x2="1645" y1="243.4766" y2="263.9648"/><line style="stroke:#A80036;stroke-width:1.0;" x1="1552" x2="1667" y1="263.9648" y2="263.9648"/><text fill="#000000" font-family="sans-serif" font-size="14" lengthAdjust="spacing" textLength="63" x="1557" y="279.5">precision</text><text fill="#000000" font-family="sans-serif" font-size="14" lengthAdjust="spacing" textLength="0" x="1662" y="279.5"/><line style="stroke:#A80036;stroke-width:1.0;" x1="1645" x2="1645" y1="263.9648" y2="284.4531"/><rect fill="none" height="81.9531" rx="5" ry="5" style="stroke:#A80036;stroke-width:1.5;" width="115" x="1552" y="202.5"/><rect fill="#FEFECE" height="61.4648" rx="5" ry="5" style="stroke:#FEFECE;stroke-width:1.5;" width="391" x="1939.5" y="10"/><text fill="#000000" font-family="sans-serif" font-size="14" lengthAdjust="spacing" textLength="77" x="1944.5" y="25.5352">description</text><text fill="#000000" font-family="sans-serif" font-size="14" lengthAdjust="spacing" textLength="294" x="2031.5" y="25.5352">The sensed acceleration experienced in 'g'.</text><line style="stroke:#A80036;stroke-width:1.0;" x1="2026.5" x2="2026.5" y1="10" y2="30.4883"/><line style="stroke:#A80036;stroke-width:1.0;" x1="1939.5" x2="2330.5" y1="30.4883" y2="30.4883"/><text fill="#000000" font-family="sans-serif" font-size="14" lengthAdjust="spacing" textLength="55" x="1944.5" y="46.0234">writable</text><text fill="#000000" font-family="sans-serif" font-size="14" lengthAdjust="spacing" textLength="48" x="2031.5" y="46.0234">☐ false</text><line style="stroke:#A80036;stroke-width:1.0;" x1="2026.5" x2="2026.5" y1="30.4883" y2="50.9766"/><line style="stroke:#A80036;stroke-width:1.0;" x1="1939.5" x2="2330.5" y1="50.9766" y2="50.9766"/><text fill="#000000" font-family="sans-serif" font-size="14" lengthAdjust="spacing" textLength="29" x="1944.5" y="66.5117">type</text><text fill="#000000" font-family="sans-serif" font-size="14" lengthAdjust="spacing" textLength="54" x="2031.5" y="66.5117">number</text><line style="stroke:#A80036;stroke-width:1.0;" x1="2026.5" x2="2026.5" y1="50.9766" y2="71.4648"/><rect fill="none" height="61.4648" rx="5" ry="5" style="stroke:#A80036;stroke-width:1.5;" width="391" x="1939.5" y="10"/><rect fill="#FEFECE" height="155.9063" rx="5" ry="5" style="stroke:#FEFECE;stroke-width:1.5;" width="548" x="1861" y="89.5"/><text fill="#000000" font-family="sans-serif" font-size="14" lengthAdjust="spacing" textLength="29" x="1866" y="105.0352">type</text><text fill="#000000" font-family="sans-serif" font-size="14" lengthAdjust="spacing" textLength="35" x="1953" y="105.0352">array</text><line style="stroke:#A80036;stroke-width:1.0;" x1="1948" x2="1948" y1="89.5" y2="109.9883"/><line style="stroke:#A80036;stroke-width:1.0;" x1="1861" x2="2409" y1="109.9883" y2="109.9883"/><text fill="#000000" font-family="sans-serif" font-size="14" lengthAdjust="spacing" textLength="77" x="1866" y="125.5234">description</text><text fill="#000000" font-family="sans-serif" font-size="14" lengthAdjust="spacing" textLength="451" x="1953" y="125.5234">The valid range for the Property in the Resource as a number. The</text><text fill="#000000" font-family="sans-serif" font-size="14" lengthAdjust="spacing" textLength="439" x="1953" y="142.0117">first value in the array is the minimum value, the second value in</text><text fill="#000000" font-family="sans-serif" font-size="14" lengthAdjust="spacing" textLength="219" x="1953" y="158.5">the array is the maximum value.</text><line style="stroke:#A80036;stroke-width:1.0;" x1="1948" x2="1948" y1="109.9883" y2="163.4531"/><line style="stroke:#A80036;stroke-width:1.0;" x1="1861" x2="2409" y1="163.4531" y2="163.4531"/><text fill="#000000" font-family="sans-serif" font-size="14" lengthAdjust="spacing" textLength="55" x="1866" y="178.9883">writable</text><text fill="#000000" font-family="sans-serif" font-size="14" lengthAdjust="spacing" textLength="48" x="1953" y="178.9883">☐ false</text><line style="stroke:#A80036;stroke-width:1.0;" x1="1948" x2="1948" y1="163.4531" y2="183.9414"/><line style="stroke:#A80036;stroke-width:1.0;" x1="1861" x2="2409" y1="183.9414" y2="183.9414"/><text fill="#000000" font-family="sans-serif" font-size="14" lengthAdjust="spacing" textLength="63" x="1866" y="199.4766">minItems</text><text fill="#000000" font-family="sans-serif" font-size="14" lengthAdjust="spacing" textLength="9" x="1953" y="199.4766">2</text><line style="stroke:#A80036;stroke-width:1.0;" x1="1948" x2="1948" y1="183.9414" y2="204.4297"/><line style="stroke:#A80036;stroke-width:1.0;" x1="1861" x2="2409" y1="204.4297" y2="204.4297"/><text fill="#000000" font-family="sans-serif" font-size="14" lengthAdjust="spacing" textLength="67" x="1866" y="219.9648">maxItems</text><text fill="#000000" font-family="sans-serif" font-size="14" lengthAdjust="spacing" textLength="9" x="1953" y="219.9648">2</text><line style="stroke:#A80036;stroke-width:1.0;" x1="1948" x2="1948" y1="204.4297" y2="224.918"/><line style="stroke:#A80036;stroke-width:1.0;" x1="1861" x2="2409" y1="224.918" y2="224.918"/><text fill="#000000" font-family="sans-serif" font-size="14" lengthAdjust="spacing" textLength="37" x="1866" y="240.4531">items</text><text fill="#000000" font-family="sans-serif" font-size="14" lengthAdjust="spacing" textLength="0" x="1965" y="240.4531"/><line style="stroke:#A80036;stroke-width:1.0;" x1="1948" x2="1948" y1="224.918" y2="245.4063"/><rect fill="none" height="155.9063" rx="5" ry="5" style="stroke:#A80036;stroke-width:1.5;" width="548" x="1861" y="89.5"/><rect fill="#FEFECE" height="20.4883" rx="5" ry="5" style="stroke:#FEFECE;stroke-width:1.5;" width="103" x="2457" y="222.5"/><text fill="#000000" font-family="sans-serif" font-size="14" lengthAdjust="spacing" textLength="29" x="2462" y="238.0352">type</text><text fill="#000000" font-family="sans-serif" font-size="14" lengthAdjust="spacing" textLength="54" x="2501" y="238.0352">number</text><line style="stroke:#A80036;stroke-width:1.0;" x1="2496" x2="2496" y1="222.5" y2="242.9883"/><rect fill="none" height="20.4883" rx="5" ry="5" style="stroke:#A80036;stroke-width:1.5;" width="103" x="2457" y="222.5"/><rect fill="#FEFECE" height="110.9297" rx="5" ry="5" style="stroke:#FEFECE;stroke-width:1.5;" width="555" x="1857.5" y="264"/><text fill="#000000" font-family="sans-serif" font-size="14" lengthAdjust="spacing" textLength="77" x="1862.5" y="279.5352">description</text><text fill="#000000" font-family="sans-serif" font-size="14" lengthAdjust="spacing" textLength="456" x="1949.5" y="279.5352">Step value across the defined range an integer when the range is a</text><text fill="#000000" font-family="sans-serif" font-size="14" lengthAdjust="spacing" textLength="458" x="1949.5" y="296.0234">number.  This is the increment for valid values across the range; so</text><text fill="#000000" font-family="sans-serif" font-size="14" lengthAdjust="spacing" textLength="381" x="1949.5" y="312.5117">if range is 0.0..10.0 and step is 2.5 then valid values are</text><text fill="#000000" font-family="sans-serif" font-size="14" lengthAdjust="spacing" textLength="139" x="1949.5" y="329">0.0,2.5,5.0,7.5,10.0.</text><line style="stroke:#A80036;stroke-width:1.0;" x1="1944.5" x2="1944.5" y1="264" y2="333.9531"/><line style="stroke:#A80036;stroke-width:1.0;" x1="1857.5" x2="2412.5" y1="333.9531" y2="333.9531"/><text fill="#000000" font-family="sans-serif" font-size="14" lengthAdjust="spacing" textLength="55" x="1862.5" y="349.4883">writable</text><text fill="#000000" font-family="sans-serif" font-size="14" lengthAdjust="spacing" textLength="48" x="1949.5" y="349.4883">☐ false</text><line style="stroke:#A80036;stroke-width:1.0;" x1="1944.5" x2="1944.5" y1="333.9531" y2="354.4414"/><line style="stroke:#A80036;stroke-width:1.0;" x1="1857.5" x2="2412.5" y1="354.4414" y2="354.4414"/><text fill="#000000" font-family="sans-serif" font-size="14" lengthAdjust="spacing" textLength="29" x="1862.5" y="369.9766">type</text><text fill="#000000" font-family="sans-serif" font-size="14" lengthAdjust="spacing" textLength="54" x="1949.5" y="369.9766">number</text><line style="stroke:#A80036;stroke-width:1.0;" x1="1944.5" x2="1944.5" y1="354.4414" y2="374.9297"/><rect fill="none" height="110.9297" rx="5" ry="5" style="stroke:#A80036;stroke-width:1.5;" width="555" x="1857.5" y="264"/><rect fill="#FEFECE" height="110.9297" rx="5" ry="5" style="stroke:#FEFECE;stroke-width:1.5;" width="570" x="1850" y="393"/><text fill="#000000" font-family="sans-serif" font-size="14" lengthAdjust="spacing" textLength="29" x="1855" y="408.5352">type</text><text fill="#000000" font-family="sans-serif" font-size="14" lengthAdjust="spacing" textLength="54" x="1942" y="408.5352">number</text><line style="stroke:#A80036;stroke-width:1.0;" x1="1937" x2="1937" y1="393" y2="413.4883"/><line style="stroke:#A80036;stroke-width:1.0;" x1="1850" x2="2420" y1="413.4883" y2="413.4883"/><text fill="#000000" font-family="sans-serif" font-size="14" lengthAdjust="spacing" textLength="55" x="1855" y="429.0234">writable</text><text fill="#000000" font-family="sans-serif" font-size="14" lengthAdjust="spacing" textLength="48" x="1942" y="429.0234">☐ false</text><line style="stroke:#A80036;stroke-width:1.0;" x1="1937" x2="1937" y1="413.4883" y2="433.9766"/><line style="stroke:#A80036;stroke-width:1.0;" x1="1850" x2="2420" y1="433.9766" y2="433.9766"/><text fill="#000000" font-family="sans-serif" font-size="14" lengthAdjust="spacing" textLength="77" x="1855" y="449.5117">description</text><text fill="#000000" font-family="sans-serif" font-size="14" lengthAdjust="spacing" textLength="430" x="1942" y="449.5117">When exposed the value in 'precision' provides a +/- tolerance</text><text fill="#000000" font-family="sans-serif" font-size="14" lengthAdjust="spacing" textLength="473" x="1942" y="466">against the Properties in the Resource. Thus if a Property is UPDATED</text><text fill="#000000" font-family="sans-serif" font-size="14" lengthAdjust="spacing" textLength="465" x="1942" y="482.4883">to a value and that Property then RETRIEVED, the RETRIEVED value is</text><text fill="#000000" font-family="sans-serif" font-size="14" lengthAdjust="spacing" textLength="337" x="1942" y="498.9766">valid if in the range of the set value +/- precision</text><line style="stroke:#A80036;stroke-width:1.0;" x1="1937" x2="1937" y1="433.9766" y2="503.9297"/><rect fill="none" height="110.9297" rx="5" ry="5" style="stroke:#A80036;stroke-width:1.5;" width="570" x="1850" y="393"/><rect fill="#FEFECE" height="20.4883" rx="5" ry="5" style="stroke:#FEFECE;stroke-width:1.5;" width="407" x="1406" y="302.5"/><text fill="#000000" font-family="sans-serif" font-size="14" lengthAdjust="spacing" textLength="397" x="1411" y="318.0352">#/sdfObject/sensor.acceleration/sdfProperty/acceleration</text><rect fill="none" height="20.4883" rx="5" ry="5" style="stroke:#A80036;stroke-width:1.5;" width="407" x="1406" y="302.5"/><path d="M95,214.5 L108,214.5 C117.4068,214.5 126.9554,214.4088 136.5926,214.2376 " fill="none" style="stroke:#A80036;stroke-width:1.0;stroke-dasharray:3.0,3.0;"/><path d="M136.6543,217.3363 L138.9166,214.1914 L136.5309,211.1389 L144.3394,214.0834 L136.6543,217.3363 " fill="#A80036" style="stroke:#A80036;stroke-width:1.0;"/><ellipse cx="95" cy="214.5" fill="#A80036" rx="3" ry="3" style="stroke:#A80036;stroke-width:1.0;stroke-dasharray:3.0,3.0;"/><path d="M1656,212.5 L1669,212.5 C1768.5645,212.5 1757.7199,117.8827 1850,80.5 C1875.8864,70.0134 1904.0602,62.2006 1932.2821,56.3936 " fill="none" style="stroke:#A80036;stroke-width:1.0;stroke-dasharray:3.0,3.0;"/><path d="M1932.8858,59.4197 L1934.5517,55.9408 L1931.6784,53.3674 L1939.8476,54.8844 L1932.8858,59.4197 " fill="#A80036" style="stroke:#A80036;stroke-width:1.0;"/><ellipse cx="1656" cy="212.5" fill="#A80036" rx="3" ry="3" style="stroke:#A80036;stroke-width:1.0;stroke-dasharray:3.0,3.0;"/><path d="M2397.5,232.5 L2410.5,232.5 C2423.235,232.5 2436.9056,232.5 2449.8621,232.5 " fill="none" style="stroke:#A80036;stroke-width:1.0;stroke-dasharray:3.0,3.0;"/><path d="M2449.8621,235.5134 L2452.1221,232.5 L2449.8621,229.4866 L2457.3956,232.5 L2449.8621,235.5134 " fill="#A80036" style="stroke:#A80036;stroke-width:1.0;"/><ellipse cx="2397.5" cy="232.5" fill="#A80036" rx="3" ry="3" style="stroke:#A80036;stroke-width:1.0;stroke-dasharray:3.0,3.0;"/><path d="M1656,232.5 L1669,232.5 C1728.9615,232.5 1792.8537,227.1445 1853.4798,219.5081 " fill="none" style="stroke:#A80036;stroke-width:1.0;stroke-dasharray:3.0,3.0;"/><path d="M1853.8766,222.6122 L1855.8079,219.2104 L1853.0829,216.4039 L1861.2402,218.5159 L1853.8766,222.6122 " fill="#A80036" style="stroke:#A80036;stroke-width:1.0;"/><ellipse cx="1656" cy="232.5" fill="#A80036" rx="3" ry="3" style="stroke:#A80036;stroke-width:1.0;stroke-dasharray:3.0,3.0;"/><path d="M1656,253.5 L1669,253.5 C1727.903,253.5 1790.587,258.7445 1850.2399,266.2766 " fill="none" style="stroke:#A80036;stroke-width:1.0;stroke-dasharray:3.0,3.0;"/><path d="M1849.8484,269.3314 L1852.531,266.5703 L1850.6314,263.2219 L1857.8768,267.2554 L1849.8484,269.3314 " fill="#A80036" style="stroke:#A80036;stroke-width:1.0;"/><ellipse cx="1656" cy="253.5" fill="#A80036" rx="3" ry="3" style="stroke:#A80036;stroke-width:1.0;stroke-dasharray:3.0,3.0;"/><path d="M1656,274.5 L1669,274.5 C1733.9953,274.5 1762.7415,253.538 1814,293.5 C1848.3017,320.2422 1816.9499,356.2256 1850,384.5 C1851.3675,385.6699 1852.7518,386.8196 1854.1523,387.9495 " fill="none" style="stroke:#A80036;stroke-width:1.0;stroke-dasharray:3.0,3.0;"/><path d="M1852.221,390.4463 L1856.0249,389.398 L1856.0837,385.4528 L1860.3942,392.7779 L1852.221,390.4463 " fill="#A80036" style="stroke:#A80036;stroke-width:1.0;"/><ellipse cx="1656" cy="274.5" fill="#A80036" rx="3" ry="3" style="stroke:#A80036;stroke-width:1.0;stroke-dasharray:3.0,3.0;"/><path d="M1357,259.5 L1370,259.5 C1429.2112,259.5 1496.49,254.5506 1544.5459,250.1573 " fill="none" style="stroke:#A80036;stroke-width:1.0;stroke-dasharray:3.0,3.0;"/><path d="M1544.8257,253.1747 L1546.809,249.9474 L1544.2661,247.1399 L1552.0894,249.4578 L1544.8257,253.1747 " fill="#A80036" style="stroke:#A80036;stroke-width:1.0;"/><ellipse cx="1357" cy="259.5" fill="#A80036" rx="3" ry="3" style="stroke:#A80036;stroke-width:1.0;stroke-dasharray:3.0,3.0;"/><path d="M1357,296.5 L1370,296.5 C1411.4235,296.5 1456.7954,298.9224 1496.7717,301.882 " fill="none" style="stroke:#A80036;stroke-width:1.0;stroke-dasharray:3.0,3.0;"/><path d="M1496.5323,305.0502 L1499.1479,302.0616 L1497.0111,298.7138 L1504.6923,302.4806 L1496.5323,305.0502 " fill="#A80036" style="stroke:#A80036;stroke-width:1.0;"/><ellipse cx="1357" cy="296.5" fill="#A80036" rx="3" ry="3" style="stroke:#A80036;stroke-width:1.0;stroke-dasharray:3.0,3.0;"/><path d="M522.5,259.5 L535.5,259.5 C617.2282,259.5 705.8377,259.5 787.4231,259.5 " fill="none" style="stroke:#A80036;stroke-width:1.0;stroke-dasharray:3.0,3.0;"/><path d="M787.4231,262.6492 L789.785,259.5 L787.4231,256.3508 L795.2961,259.5 L787.4231,262.6492 " fill="#A80036" style="stroke:#A80036;stroke-width:1.0;"/><ellipse cx="522.5" cy="259.5" fill="#A80036" rx="3" ry="3" style="stroke:#A80036;stroke-width:1.0;stroke-dasharray:3.0,3.0;"/><path d="M95,235.5 L108,235.5 C124.1536,235.5 127.927,238.888 144,240.5 C216.8742,247.8088 299.7968,252.7447 360.9986,255.7498 " fill="none" style="stroke:#A80036;stroke-width:1.0;stroke-dasharray:3.0,3.0;"/><path d="M360.8486,258.8423 L363.3179,255.8623 L361.1486,252.6574 L368.7297,256.1248 L360.8486,258.8423 " fill="#A80036" style="stroke:#A80036;stroke-width:1.0;"/><ellipse cx="95" cy="235.5" fill="#A80036" rx="3" ry="3" style="stroke:#A80036;stroke-width:1.0;stroke-dasharray:3.0,3.0;"/><!--MD5=[af10fe5aed4b758bdbb53b55ee1aa7b3]
@startjson
{
  "info": {
    "copyright": "Copyright 2018-2019 Open Connectivity Foundation, Inc. All rights reserved.",
    "license": "https://github.com/one-data-model/oneDM/blob/master/LICENSE",
    "title": "Acceleration Sensor",
    "version": "2019-02-15"
  },
  "sdfObject": {
    "sensor.acceleration": {
      "description": "This Resource provides a measure of proper acceleration (g force) as\\nopposed to co-ordinate acceleration (which is dependent on the\\nco-ordinate system and the observer). The Property \"value\" is a float\\nwhich describes the acceleration experienced by the object in \"g\".",
      "sdfProperty": {
        "acceleration": {
          "description": "The sensed acceleration experienced in 'g'.",
          "writable": false,
          "type": "number"
        },
        "range": {
          "type": "array",
          "description": "The valid range for the Property in the Resource as a number. The\\nfirst value in the array is the minimum value, the second value in\\nthe array is the maximum value.",
          "writable": false,
          "minItems": 2,
          "maxItems": 2,
          "items": {
            "type": "number"
          }
        },
        "step": {
          "description": "Step value across the defined range an integer when the range is a\\nnumber.  This is the increment for valid values across the range; so\\nif range is 0.0..10.0 and step is 2.5 then valid values are\\n0.0,2.5,5.0,7.5,10.0.",
          "writable": false,
          "type": "number"
        },
        "precision": {
          "type": "number",
          "writable": false,
          "description": "When exposed the value in 'precision' provides a +/- tolerance\\nagainst the Properties in the Resource. Thus if a Property is UPDATED\\nto a value and that Property then RETRIEVED, the RETRIEVED value is\\nvalid if in the range of the set value +/- precision"
        }
      },
      "sdfRequired": [
        "#/sdfObject/sensor.acceleration/sdfProperty/acceleration"
      ]
    }
  }
}
@endjson

PlantUML version 1.2021.2(Sun Mar 07 13:10:27 EET 2021)
(GPL source distribution)
Java Runtime: OpenJDK Runtime Environment
JVM: OpenJDK 64-Bit Server VM
Default Encoding: UTF-8
Language: en
Country: FI
--></g></svg>