<?xml version="1.0" encoding="UTF-8" standalone="no"?><svg xmlns="http://www.w3.org/2000/svg" xmlns:xlink="http://www.w3.org/1999/xlink" contentScriptType="application/ecmascript" contentStyleType="text/css" height="253px" preserveAspectRatio="none" style="width:2525px;height:253px;" version="1.1" viewBox="0 0 2525 253" width="2525px" zoomAndPan="magnify"><defs/><g><rect fill="#FEFECE" height="40.9766" rx="5" ry="5" style="stroke:#FEFECE;stroke-width:1.5;" width="97" x="10" y="70"/><text fill="#000000" font-family="sans-serif" font-size="14" lengthAdjust="spacing" textLength="27" x="15" y="85.5352">info</text><text fill="#000000" font-family="sans-serif" font-size="14" lengthAdjust="spacing" textLength="0" x="102" y="85.5352"/><line style="stroke:#A80036;stroke-width:1.0;" x1="85" x2="85" y1="70" y2="90.4883"/><line style="stroke:#A80036;stroke-width:1.0;" x1="10" x2="107" y1="90.4883" y2="90.4883"/><text fill="#000000" font-family="sans-serif" font-size="14" lengthAdjust="spacing" textLength="65" x="15" y="106.0234">sdfObject</text><text fill="#000000" font-family="sans-serif" font-size="14" lengthAdjust="spacing" textLength="0" x="102" y="106.0234"/><line style="stroke:#A80036;stroke-width:1.0;" x1="85" x2="85" y1="90.4883" y2="110.9766"/><rect fill="none" height="40.9766" rx="5" ry="5" style="stroke:#A80036;stroke-width:1.5;" width="97" x="10" y="70"/><rect fill="#FEFECE" height="81.9531" rx="5" ry="5" style="stroke:#FEFECE;stroke-width:1.5;" width="655" x="144" y="14.5"/><text fill="#000000" font-family="sans-serif" font-size="14" lengthAdjust="spacing" textLength="65" x="149" y="30.0352">copyright</text><text fill="#000000" font-family="sans-serif" font-size="14" lengthAdjust="spacing" textLength="570" x="224" y="30.0352">copyright 2016-2017, 2019 Open Connectivity Foundation, Inc. All rights reserved.</text><line style="stroke:#A80036;stroke-width:1.0;" x1="219" x2="219" y1="14.5" y2="34.9883"/><line style="stroke:#A80036;stroke-width:1.0;" x1="144" x2="799" y1="34.9883" y2="34.9883"/><text fill="#000000" font-family="sans-serif" font-size="14" lengthAdjust="spacing" textLength="47" x="149" y="50.5234">license</text><text fill="#000000" font-family="sans-serif" font-size="14" lengthAdjust="spacing" textLength="462" x="224" y="50.5234">https://github.com/one-data-model/oneDM/blob/master/LICENSE</text><line style="stroke:#A80036;stroke-width:1.0;" x1="219" x2="219" y1="34.9883" y2="55.4766"/><line style="stroke:#A80036;stroke-width:1.0;" x1="144" x2="799" y1="55.4766" y2="55.4766"/><text fill="#000000" font-family="sans-serif" font-size="14" lengthAdjust="spacing" textLength="26" x="149" y="71.0117">title</text><text fill="#000000" font-family="sans-serif" font-size="14" lengthAdjust="spacing" textLength="179" x="224" y="71.0117">Colour Space Coordinates</text><line style="stroke:#A80036;stroke-width:1.0;" x1="219" x2="219" y1="55.4766" y2="75.9648"/><line style="stroke:#A80036;stroke-width:1.0;" x1="144" x2="799" y1="75.9648" y2="75.9648"/><text fill="#000000" font-family="sans-serif" font-size="14" lengthAdjust="spacing" textLength="50" x="149" y="91.5">version</text><text fill="#000000" font-family="sans-serif" font-size="14" lengthAdjust="spacing" textLength="88" x="224" y="91.5">2019-02-15</text><line style="stroke:#A80036;stroke-width:1.0;" x1="219" x2="219" y1="75.9648" y2="96.4531"/><rect fill="none" height="81.9531" rx="5" ry="5" style="stroke:#A80036;stroke-width:1.5;" width="655" x="144" y="14.5"/><rect fill="#FEFECE" height="20.4883" rx="5" ry="5" style="stroke:#FEFECE;stroke-width:1.5;" width="101" x="421" y="114.5"/><text fill="#000000" font-family="sans-serif" font-size="14" lengthAdjust="spacing" textLength="69" x="426" y="130.0352">colour.csc</text><text fill="#000000" font-family="sans-serif" font-size="14" lengthAdjust="spacing" textLength="0" x="517" y="130.0352"/><line style="stroke:#A80036;stroke-width:1.0;" x1="500" x2="500" y1="114.5" y2="134.9883"/><rect fill="none" height="20.4883" rx="5" ry="5" style="stroke:#A80036;stroke-width:1.5;" width="101" x="421" y="114.5"/><rect fill="#FEFECE" height="143.9063" rx="5" ry="5" style="stroke:#FEFECE;stroke-width:1.5;" width="572" x="836" y="52.5"/><text fill="#000000" font-family="sans-serif" font-size="14" lengthAdjust="spacing" textLength="77" x="841" y="68.0352">description</text><text fill="#000000" font-family="sans-serif" font-size="14" lengthAdjust="spacing" textLength="469" x="934" y="68.0352">This Resource describes the colour using colour space co-ordinates.</text><text fill="#000000" font-family="sans-serif" font-size="14" lengthAdjust="spacing" textLength="431" x="934" y="84.5234">The Property "csc" is the colour space coordinates in CIE colour</text><text fill="#000000" font-family="sans-serif" font-size="14" lengthAdjust="spacing" textLength="439" x="934" y="101.0117">space. The first item in the array is the X coordinate. The second</text><text fill="#000000" font-family="sans-serif" font-size="14" lengthAdjust="spacing" textLength="441" x="934" y="117.5">item in the array is the Y coordinate. If the Property "precision" is</text><text fill="#000000" font-family="sans-serif" font-size="14" lengthAdjust="spacing" textLength="449" x="934" y="133.9883">provided it applies to both the X and Y coordinates. The Resource</text><text fill="#000000" font-family="sans-serif" font-size="14" lengthAdjust="spacing" textLength="355" x="934" y="150.4766">provides the colour using colour space coordinates.</text><line style="stroke:#A80036;stroke-width:1.0;" x1="929" x2="929" y1="52.5" y2="155.4297"/><line style="stroke:#A80036;stroke-width:1.0;" x1="836" x2="1408" y1="155.4297" y2="155.4297"/><text fill="#000000" font-family="sans-serif" font-size="14" lengthAdjust="spacing" textLength="79" x="841" y="170.9648">sdfProperty</text><text fill="#000000" font-family="sans-serif" font-size="14" lengthAdjust="spacing" textLength="0" x="946" y="170.9648"/><line style="stroke:#A80036;stroke-width:1.0;" x1="929" x2="929" y1="155.4297" y2="175.918"/><line style="stroke:#A80036;stroke-width:1.0;" x1="836" x2="1408" y1="175.918" y2="175.918"/><text fill="#000000" font-family="sans-serif" font-size="14" lengthAdjust="spacing" textLength="83" x="841" y="191.4531">sdfRequired</text><text fill="#000000" font-family="sans-serif" font-size="14" lengthAdjust="spacing" textLength="0" x="946" y="191.4531"/><line style="stroke:#A80036;stroke-width:1.0;" x1="929" x2="929" y1="175.918" y2="196.4063"/><rect fill="none" height="143.9063" rx="5" ry="5" style="stroke:#A80036;stroke-width:1.5;" width="572" x="836" y="52.5"/><rect fill="#FEFECE" height="40.9766" rx="5" ry="5" style="stroke:#FEFECE;stroke-width:1.5;" width="95" x="1538" y="104"/><text fill="#000000" font-family="sans-serif" font-size="14" lengthAdjust="spacing" textLength="21" x="1543" y="119.5352">csc</text><text fill="#000000" font-family="sans-serif" font-size="14" lengthAdjust="spacing" textLength="0" x="1628" y="119.5352"/><line style="stroke:#A80036;stroke-width:1.0;" x1="1611" x2="1611" y1="104" y2="124.4883"/><line style="stroke:#A80036;stroke-width:1.0;" x1="1538" x2="1633" y1="124.4883" y2="124.4883"/><text fill="#000000" font-family="sans-serif" font-size="14" lengthAdjust="spacing" textLength="63" x="1543" y="140.0234">precision</text><text fill="#000000" font-family="sans-serif" font-size="14" lengthAdjust="spacing" textLength="0" x="1628" y="140.0234"/><line style="stroke:#A80036;stroke-width:1.0;" x1="1611" x2="1611" y1="124.4883" y2="144.9766"/><rect fill="none" height="40.9766" rx="5" ry="5" style="stroke:#A80036;stroke-width:1.5;" width="95" x="1538" y="104"/><rect fill="#FEFECE" height="102.4414" rx="5" ry="5" style="stroke:#FEFECE;stroke-width:1.5;" width="494" x="1801" y="10.5"/><text fill="#000000" font-family="sans-serif" font-size="14" lengthAdjust="spacing" textLength="77" x="1806" y="26.0352">description</text><text fill="#000000" font-family="sans-serif" font-size="14" lengthAdjust="spacing" textLength="397" x="1893" y="26.0352">The X and Y coordinates of the colour in CIE colour space.</text><line style="stroke:#A80036;stroke-width:1.0;" x1="1888" x2="1888" y1="10.5" y2="30.9883"/><line style="stroke:#A80036;stroke-width:1.0;" x1="1801" x2="2295" y1="30.9883" y2="30.9883"/><text fill="#000000" font-family="sans-serif" font-size="14" lengthAdjust="spacing" textLength="37" x="1806" y="46.5234">items</text><text fill="#000000" font-family="sans-serif" font-size="14" lengthAdjust="spacing" textLength="0" x="1905" y="46.5234"/><line style="stroke:#A80036;stroke-width:1.0;" x1="1888" x2="1888" y1="30.9883" y2="51.4766"/><line style="stroke:#A80036;stroke-width:1.0;" x1="1801" x2="2295" y1="51.4766" y2="51.4766"/><text fill="#000000" font-family="sans-serif" font-size="14" lengthAdjust="spacing" textLength="67" x="1806" y="67.0117">maxItems</text><text fill="#000000" font-family="sans-serif" font-size="14" lengthAdjust="spacing" textLength="9" x="1893" y="67.0117">2</text><line style="stroke:#A80036;stroke-width:1.0;" x1="1888" x2="1888" y1="51.4766" y2="71.9648"/><line style="stroke:#A80036;stroke-width:1.0;" x1="1801" x2="2295" y1="71.9648" y2="71.9648"/><text fill="#000000" font-family="sans-serif" font-size="14" lengthAdjust="spacing" textLength="63" x="1806" y="87.5">minItems</text><text fill="#000000" font-family="sans-serif" font-size="14" lengthAdjust="spacing" textLength="9" x="1893" y="87.5">2</text><line style="stroke:#A80036;stroke-width:1.0;" x1="1888" x2="1888" y1="71.9648" y2="92.4531"/><line style="stroke:#A80036;stroke-width:1.0;" x1="1801" x2="2295" y1="92.4531" y2="92.4531"/><text fill="#000000" font-family="sans-serif" font-size="14" lengthAdjust="spacing" textLength="29" x="1806" y="107.9883">type</text><text fill="#000000" font-family="sans-serif" font-size="14" lengthAdjust="spacing" textLength="35" x="1893" y="107.9883">array</text><line style="stroke:#A80036;stroke-width:1.0;" x1="1888" x2="1888" y1="92.4531" y2="112.9414"/><rect fill="none" height="102.4414" rx="5" ry="5" style="stroke:#A80036;stroke-width:1.5;" width="494" x="1801" y="10.5"/><rect fill="#FEFECE" height="61.4648" rx="5" ry="5" style="stroke:#FEFECE;stroke-width:1.5;" width="143" x="2370" y="10"/><text fill="#000000" font-family="sans-serif" font-size="14" lengthAdjust="spacing" textLength="69" x="2375" y="25.5352">maximum</text><text fill="#000000" font-family="sans-serif" font-size="14" lengthAdjust="spacing" textLength="9" x="2454" y="25.5352">1</text><line style="stroke:#A80036;stroke-width:1.0;" x1="2449" x2="2449" y1="10" y2="30.4883"/><line style="stroke:#A80036;stroke-width:1.0;" x1="2370" x2="2513" y1="30.4883" y2="30.4883"/><text fill="#000000" font-family="sans-serif" font-size="14" lengthAdjust="spacing" textLength="65" x="2375" y="46.0234">minimum</text><text fill="#000000" font-family="sans-serif" font-size="14" lengthAdjust="spacing" textLength="9" x="2454" y="46.0234">0</text><line style="stroke:#A80036;stroke-width:1.0;" x1="2449" x2="2449" y1="30.4883" y2="50.9766"/><line style="stroke:#A80036;stroke-width:1.0;" x1="2370" x2="2513" y1="50.9766" y2="50.9766"/><text fill="#000000" font-family="sans-serif" font-size="14" lengthAdjust="spacing" textLength="29" x="2375" y="66.5117">type</text><text fill="#000000" font-family="sans-serif" font-size="14" lengthAdjust="spacing" textLength="54" x="2454" y="66.5117">number</text><line style="stroke:#A80036;stroke-width:1.0;" x1="2449" x2="2449" y1="50.9766" y2="71.4648"/><rect fill="none" height="61.4648" rx="5" ry="5" style="stroke:#A80036;stroke-width:1.5;" width="143" x="2370" y="10"/><rect fill="#FEFECE" height="110.9297" rx="5" ry="5" style="stroke:#FEFECE;stroke-width:1.5;" width="570" x="1763" y="131"/><text fill="#000000" font-family="sans-serif" font-size="14" lengthAdjust="spacing" textLength="29" x="1768" y="146.5352">type</text><text fill="#000000" font-family="sans-serif" font-size="14" lengthAdjust="spacing" textLength="54" x="1855" y="146.5352">number</text><line style="stroke:#A80036;stroke-width:1.0;" x1="1850" x2="1850" y1="131" y2="151.4883"/><line style="stroke:#A80036;stroke-width:1.0;" x1="1763" x2="2333" y1="151.4883" y2="151.4883"/><text fill="#000000" font-family="sans-serif" font-size="14" lengthAdjust="spacing" textLength="55" x="1768" y="167.0234">writable</text><text fill="#000000" font-family="sans-serif" font-size="14" lengthAdjust="spacing" textLength="48" x="1855" y="167.0234">☐ false</text><line style="stroke:#A80036;stroke-width:1.0;" x1="1850" x2="1850" y1="151.4883" y2="171.9766"/><line style="stroke:#A80036;stroke-width:1.0;" x1="1763" x2="2333" y1="171.9766" y2="171.9766"/><text fill="#000000" font-family="sans-serif" font-size="14" lengthAdjust="spacing" textLength="77" x="1768" y="187.5117">description</text><text fill="#000000" font-family="sans-serif" font-size="14" lengthAdjust="spacing" textLength="430" x="1855" y="187.5117">When exposed the value in 'precision' provides a +/- tolerance</text><text fill="#000000" font-family="sans-serif" font-size="14" lengthAdjust="spacing" textLength="473" x="1855" y="204">against the Properties in the Resource. Thus if a Property is UPDATED</text><text fill="#000000" font-family="sans-serif" font-size="14" lengthAdjust="spacing" textLength="465" x="1855" y="220.4883">to a value and that Property then RETRIEVED, the RETRIEVED value is</text><text fill="#000000" font-family="sans-serif" font-size="14" lengthAdjust="spacing" textLength="337" x="1855" y="236.9766">valid if in the range of the set value +/- precision</text><line style="stroke:#A80036;stroke-width:1.0;" x1="1850" x2="1850" y1="171.9766" y2="241.9297"/><rect fill="none" height="110.9297" rx="5" ry="5" style="stroke:#A80036;stroke-width:1.5;" width="570" x="1763" y="131"/><rect fill="#FEFECE" height="20.4883" rx="5" ry="5" style="stroke:#FEFECE;stroke-width:1.5;" width="281" x="1445" y="163.5"/><text fill="#000000" font-family="sans-serif" font-size="14" lengthAdjust="spacing" textLength="271" x="1450" y="179.0352">#/sdfObject/colour.csc/sdfProperty/csc</text><rect fill="none" height="20.4883" rx="5" ry="5" style="stroke:#A80036;stroke-width:1.5;" width="281" x="1445" y="163.5"/><path d="M95,79.5 L108,79.5 C117.3442,79.5 126.8208,79.4198 136.3833,79.2688 " fill="none" style="stroke:#A80036;stroke-width:1.0;stroke-dasharray:3.0,3.0;"/><path d="M136.4378,82.3434 L138.6892,79.2279 L136.3288,76.1942 L144.0697,79.1326 L136.4378,82.3434 " fill="#A80036" style="stroke:#A80036;stroke-width:1.0;"/><ellipse cx="95" cy="79.5" fill="#A80036" rx="3" ry="3" style="stroke:#A80036;stroke-width:1.0;stroke-dasharray:3.0,3.0;"/><path d="M2283.5,40.5 L2296.5,40.5 C2318.0433,40.5 2341.3933,40.5 2362.9136,40.5 " fill="none" style="stroke:#A80036;stroke-width:1.0;stroke-dasharray:3.0,3.0;"/><path d="M2362.9136,43.5119 L2365.1725,40.5 L2362.9136,37.4881 L2370.4434,40.5 L2362.9136,43.5119 " fill="#A80036" style="stroke:#A80036;stroke-width:1.0;"/><ellipse cx="2283.5" cy="40.5" fill="#A80036" rx="3" ry="3" style="stroke:#A80036;stroke-width:1.0;stroke-dasharray:3.0,3.0;"/><path d="M1622,113.5 L1635,113.5 C1686.5124,113.5 1741.3611,109.4589 1793.6829,103.6298 " fill="none" style="stroke:#A80036;stroke-width:1.0;stroke-dasharray:3.0,3.0;"/><path d="M1794.032,106.7101 L1795.993,103.368 L1793.3338,100.5496 L1801.3834,102.7571 L1794.032,106.7101 " fill="#A80036" style="stroke:#A80036;stroke-width:1.0;"/><ellipse cx="1622" cy="113.5" fill="#A80036" rx="3" ry="3" style="stroke:#A80036;stroke-width:1.0;stroke-dasharray:3.0,3.0;"/><path d="M1622,134.5 L1635,134.5 C1674.1573,134.5 1715.2425,136.8351 1755.6801,140.5156 " fill="none" style="stroke:#A80036;stroke-width:1.0;stroke-dasharray:3.0,3.0;"/><path d="M1755.3991,143.5325 L1757.9428,140.7264 L1755.9612,137.4986 L1763.2225,141.2182 L1755.3991,143.5325 " fill="#A80036" style="stroke:#A80036;stroke-width:1.0;"/><ellipse cx="1622" cy="134.5" fill="#A80036" rx="3" ry="3" style="stroke:#A80036;stroke-width:1.0;stroke-dasharray:3.0,3.0;"/><path d="M1396,124.5 L1409,124.5 C1449.7642,124.5 1495.8393,124.5 1530.6192,124.5 " fill="none" style="stroke:#A80036;stroke-width:1.0;stroke-dasharray:3.0,3.0;"/><path d="M1530.6192,127.5761 L1532.9263,124.5 L1530.6192,121.4239 L1538.3094,124.5 L1530.6192,127.5761 " fill="#A80036" style="stroke:#A80036;stroke-width:1.0;"/><ellipse cx="1396" cy="124.5" fill="#A80036" rx="3" ry="3" style="stroke:#A80036;stroke-width:1.0;stroke-dasharray:3.0,3.0;"/><path d="M1396,172.5 L1409,172.5 C1418.2826,172.5 1427.8405,172.5141 1437.4778,172.5389 " fill="none" style="stroke:#A80036;stroke-width:1.0;stroke-dasharray:3.0,3.0;"/><path d="M1437.4689,175.6357 L1439.8004,172.5455 L1437.4866,169.4421 L1445.2199,172.561 L1437.4689,175.6357 " fill="#A80036" style="stroke:#A80036;stroke-width:1.0;"/><ellipse cx="1396" cy="172.5" fill="#A80036" rx="3" ry="3" style="stroke:#A80036;stroke-width:1.0;stroke-dasharray:3.0,3.0;"/><path d="M511,124.5 L524,124.5 C623.2032,124.5 731.6712,124.5 828.6378,124.5 " fill="none" style="stroke:#A80036;stroke-width:1.0;stroke-dasharray:3.0,3.0;"/><path d="M828.6378,127.5219 L830.9042,124.5 L828.6378,121.4781 L836.1925,124.5 L828.6378,127.5219 " fill="#A80036" style="stroke:#A80036;stroke-width:1.0;"/><ellipse cx="511" cy="124.5" fill="#A80036" rx="3" ry="3" style="stroke:#A80036;stroke-width:1.0;stroke-dasharray:3.0,3.0;"/><path d="M95,100.5 L108,100.5 C124.1536,100.5 127.924,103.9191 144,105.5 C238.2184,114.7652 348.1866,120.0151 413.573,122.5538 " fill="none" style="stroke:#A80036;stroke-width:1.0;stroke-dasharray:3.0,3.0;"/><path d="M413.4545,125.6534 L415.8977,122.6427 L413.6915,119.4542 L421.3219,122.85 L413.4545,125.6534 " fill="#A80036" style="stroke:#A80036;stroke-width:1.0;"/><ellipse cx="95" cy="100.5" fill="#A80036" rx="3" ry="3" style="stroke:#A80036;stroke-width:1.0;stroke-dasharray:3.0,3.0;"/><!--MD5=[1450ecb64d6ba583e0b2fac056f0c5d9]
@startjson
{
  "info": {
    "copyright": "copyright 2016-2017, 2019 Open Connectivity Foundation, Inc. All rights reserved.",
    "license": "https://github.com/one-data-model/oneDM/blob/master/LICENSE",
    "title": "Colour Space Coordinates",
    "version": "2019-02-15"
  },
  "sdfObject": {
    "colour.csc": {
      "description": "This Resource describes the colour using colour space co-ordinates.\\nThe Property \"csc\" is the colour space coordinates in CIE colour\\nspace. The first item in the array is the X coordinate. The second\\nitem in the array is the Y coordinate. If the Property \"precision\" is\\nprovided it applies to both the X and Y coordinates. The Resource\\nprovides the colour using colour space coordinates.",
      "sdfProperty": {
        "csc": {
          "description": "The X and Y coordinates of the colour in CIE colour space.",
          "items": {
            "maximum": 1,
            "minimum": 0,
            "type": "number"
          },
          "maxItems": 2,
          "minItems": 2,
          "type": "array"
        },
        "precision": {
          "type": "number",
          "writable": false,
          "description": "When exposed the value in 'precision' provides a +/- tolerance\\nagainst the Properties in the Resource. Thus if a Property is UPDATED\\nto a value and that Property then RETRIEVED, the RETRIEVED value is\\nvalid if in the range of the set value +/- precision"
        }
      },
      "sdfRequired": [
        "#/sdfObject/colour.csc/sdfProperty/csc"
      ]
    }
  }
}
@endjson

PlantUML version 1.2021.2(Sun Mar 07 13:10:27 EET 2021)
(GPL source distribution)
Java Runtime: OpenJDK Runtime Environment
JVM: OpenJDK 64-Bit Server VM
Default Encoding: UTF-8
Language: en
Country: FI
--></g></svg>