<?xml version="1.0" encoding="UTF-8" standalone="no"?><svg xmlns="http://www.w3.org/2000/svg" xmlns:xlink="http://www.w3.org/1999/xlink" contentScriptType="application/ecmascript" contentStyleType="text/css" height="212px" preserveAspectRatio="none" style="width:2578px;height:212px;" version="1.1" viewBox="0 0 2578 212" width="2578px" zoomAndPan="magnify"><defs/><g><rect fill="#FEFECE" height="40.9766" rx="5" ry="5" style="stroke:#FEFECE;stroke-width:1.5;" width="97" x="10" y="65.5"/><text fill="#000000" font-family="sans-serif" font-size="14" lengthAdjust="spacing" textLength="27" x="15" y="81.0352">info</text><text fill="#000000" font-family="sans-serif" font-size="14" lengthAdjust="spacing" textLength="0" x="102" y="81.0352"/><line style="stroke:#A80036;stroke-width:1.0;" x1="85" x2="85" y1="65.5" y2="85.9883"/><line style="stroke:#A80036;stroke-width:1.0;" x1="10" x2="107" y1="85.9883" y2="85.9883"/><text fill="#000000" font-family="sans-serif" font-size="14" lengthAdjust="spacing" textLength="65" x="15" y="101.5234">sdfObject</text><text fill="#000000" font-family="sans-serif" font-size="14" lengthAdjust="spacing" textLength="0" x="102" y="101.5234"/><line style="stroke:#A80036;stroke-width:1.0;" x1="85" x2="85" y1="85.9883" y2="106.4766"/><rect fill="none" height="40.9766" rx="5" ry="5" style="stroke:#A80036;stroke-width:1.5;" width="97" x="10" y="65.5"/><rect fill="#FEFECE" height="81.9531" rx="5" ry="5" style="stroke:#FEFECE;stroke-width:1.5;" width="614" x="144" y="10"/><text fill="#000000" font-family="sans-serif" font-size="14" lengthAdjust="spacing" textLength="65" x="149" y="25.5352">copyright</text><text fill="#000000" font-family="sans-serif" font-size="14" lengthAdjust="spacing" textLength="529" x="224" y="25.5352">Copyright 2018-2019 Open Connectivity Foundation, Inc. All rights reserved.</text><line style="stroke:#A80036;stroke-width:1.0;" x1="219" x2="219" y1="10" y2="30.4883"/><line style="stroke:#A80036;stroke-width:1.0;" x1="144" x2="758" y1="30.4883" y2="30.4883"/><text fill="#000000" font-family="sans-serif" font-size="14" lengthAdjust="spacing" textLength="47" x="149" y="46.0234">license</text><text fill="#000000" font-family="sans-serif" font-size="14" lengthAdjust="spacing" textLength="462" x="224" y="46.0234">https://github.com/one-data-model/oneDM/blob/master/LICENSE</text><line style="stroke:#A80036;stroke-width:1.0;" x1="219" x2="219" y1="30.4883" y2="50.9766"/><line style="stroke:#A80036;stroke-width:1.0;" x1="144" x2="758" y1="50.9766" y2="50.9766"/><text fill="#000000" font-family="sans-serif" font-size="14" lengthAdjust="spacing" textLength="26" x="149" y="66.5117">title</text><text fill="#000000" font-family="sans-serif" font-size="14" lengthAdjust="spacing" textLength="105" x="224" y="66.5117">KeyCard Switch</text><line style="stroke:#A80036;stroke-width:1.0;" x1="219" x2="219" y1="50.9766" y2="71.4648"/><line style="stroke:#A80036;stroke-width:1.0;" x1="144" x2="758" y1="71.4648" y2="71.4648"/><text fill="#000000" font-family="sans-serif" font-size="14" lengthAdjust="spacing" textLength="50" x="149" y="87">version</text><text fill="#000000" font-family="sans-serif" font-size="14" lengthAdjust="spacing" textLength="88" x="224" y="87">2019-08-07</text><line style="stroke:#A80036;stroke-width:1.0;" x1="219" x2="219" y1="71.4648" y2="91.9531"/><rect fill="none" height="81.9531" rx="5" ry="5" style="stroke:#A80036;stroke-width:1.5;" width="614" x="144" y="10"/><rect fill="#FEFECE" height="20.4883" rx="5" ry="5" style="stroke:#FEFECE;stroke-width:1.5;" width="128" x="387" y="110"/><text fill="#000000" font-family="sans-serif" font-size="14" lengthAdjust="spacing" textLength="96" x="392" y="125.5352">keycardswitch</text><text fill="#000000" font-family="sans-serif" font-size="14" lengthAdjust="spacing" textLength="0" x="510" y="125.5352"/><line style="stroke:#A80036;stroke-width:1.0;" x1="493" x2="493" y1="110" y2="130.4883"/><rect fill="none" height="20.4883" rx="5" ry="5" style="stroke:#A80036;stroke-width:1.5;" width="128" x="387" y="110"/><rect fill="#FEFECE" height="160.3945" rx="5" ry="5" style="stroke:#FEFECE;stroke-width:1.5;" width="576" x="795" y="40"/><text fill="#000000" font-family="sans-serif" font-size="14" lengthAdjust="spacing" textLength="77" x="800" y="55.5352">description</text><text fill="#000000" font-family="sans-serif" font-size="14" lengthAdjust="spacing" textLength="452" x="893" y="55.5352">This Resource describes the operation of a KeyCard style switch. It</text><text fill="#000000" font-family="sans-serif" font-size="14" lengthAdjust="spacing" textLength="447" x="893" y="72.0234">has one mandatory Property,"stateofcard", which is a string enum</text><text fill="#000000" font-family="sans-serif" font-size="14" lengthAdjust="spacing" textLength="336" x="893" y="88.5117">type. It has two enum values: "validCardInserted",</text><text fill="#000000" font-family="sans-serif" font-size="14" lengthAdjust="spacing" textLength="473" x="893" y="105">"validCardNotInserted". "validCardInserted" means that a keycard was</text><text fill="#000000" font-family="sans-serif" font-size="14" lengthAdjust="spacing" textLength="464" x="893" y="121.4883">inserted and passed validation check. "validCardNotInserted" means</text><text fill="#000000" font-family="sans-serif" font-size="14" lengthAdjust="spacing" textLength="442" x="893" y="137.9766">that a keycard is not inserted or it was inserted but failed to pass</text><text fill="#000000" font-family="sans-serif" font-size="14" lengthAdjust="spacing" textLength="114" x="893" y="154.4648">validation check.</text><line style="stroke:#A80036;stroke-width:1.0;" x1="888" x2="888" y1="40" y2="159.418"/><line style="stroke:#A80036;stroke-width:1.0;" x1="795" x2="1371" y1="159.418" y2="159.418"/><text fill="#000000" font-family="sans-serif" font-size="14" lengthAdjust="spacing" textLength="79" x="800" y="174.9531">sdfProperty</text><text fill="#000000" font-family="sans-serif" font-size="14" lengthAdjust="spacing" textLength="0" x="905" y="174.9531"/><line style="stroke:#A80036;stroke-width:1.0;" x1="888" x2="888" y1="159.418" y2="179.9063"/><line style="stroke:#A80036;stroke-width:1.0;" x1="795" x2="1371" y1="179.9063" y2="179.9063"/><text fill="#000000" font-family="sans-serif" font-size="14" lengthAdjust="spacing" textLength="83" x="800" y="195.4414">sdfRequired</text><text fill="#000000" font-family="sans-serif" font-size="14" lengthAdjust="spacing" textLength="0" x="905" y="195.4414"/><line style="stroke:#A80036;stroke-width:1.0;" x1="888" x2="888" y1="179.9063" y2="200.3945"/><rect fill="none" height="160.3945" rx="5" ry="5" style="stroke:#A80036;stroke-width:1.5;" width="576" x="795" y="40"/><rect fill="#FEFECE" height="20.4883" rx="5" ry="5" style="stroke:#FEFECE;stroke-width:1.5;" width="109" x="1535.5" y="109"/><text fill="#000000" font-family="sans-serif" font-size="14" lengthAdjust="spacing" textLength="77" x="1540.5" y="124.5352">stateofcard</text><text fill="#000000" font-family="sans-serif" font-size="14" lengthAdjust="spacing" textLength="0" x="1639.5" y="124.5352"/><line style="stroke:#A80036;stroke-width:1.0;" x1="1622.5" x2="1622.5" y1="109" y2="129.4883"/><rect fill="none" height="20.4883" rx="5" ry="5" style="stroke:#A80036;stroke-width:1.5;" width="109" x="1535.5" y="109"/><rect fill="#FEFECE" height="131.418" rx="5" ry="5" style="stroke:#FEFECE;stroke-width:1.5;" width="565" x="1809" y="53.5"/><text fill="#000000" font-family="sans-serif" font-size="14" lengthAdjust="spacing" textLength="77" x="1814" y="69.0352">description</text><text fill="#000000" font-family="sans-serif" font-size="14" lengthAdjust="spacing" textLength="446" x="1901" y="69.0352">The status of the keycardswitch. "validCardInserted" means that a</text><text fill="#000000" font-family="sans-serif" font-size="14" lengthAdjust="spacing" textLength="343" x="1901" y="85.5234">keycard was inserted and passed validation check.</text><text fill="#000000" font-family="sans-serif" font-size="14" lengthAdjust="spacing" textLength="468" x="1901" y="102.0117">"validCardNotInserted" means that a keycard is not inserted or it was</text><text fill="#000000" font-family="sans-serif" font-size="14" lengthAdjust="spacing" textLength="296" x="1901" y="118.5">inserted but failed to pass validation check.</text><line style="stroke:#A80036;stroke-width:1.0;" x1="1896" x2="1896" y1="53.5" y2="123.4531"/><line style="stroke:#A80036;stroke-width:1.0;" x1="1809" x2="2374" y1="123.4531" y2="123.4531"/><text fill="#000000" font-family="sans-serif" font-size="14" lengthAdjust="spacing" textLength="55" x="1814" y="138.9883">writable</text><text fill="#000000" font-family="sans-serif" font-size="14" lengthAdjust="spacing" textLength="48" x="1901" y="138.9883">☐ false</text><line style="stroke:#A80036;stroke-width:1.0;" x1="1896" x2="1896" y1="123.4531" y2="143.9414"/><line style="stroke:#A80036;stroke-width:1.0;" x1="1809" x2="2374" y1="143.9414" y2="143.9414"/><text fill="#000000" font-family="sans-serif" font-size="14" lengthAdjust="spacing" textLength="29" x="1814" y="159.4766">type</text><text fill="#000000" font-family="sans-serif" font-size="14" lengthAdjust="spacing" textLength="40" x="1901" y="159.4766">string</text><line style="stroke:#A80036;stroke-width:1.0;" x1="1896" x2="1896" y1="143.9414" y2="164.4297"/><line style="stroke:#A80036;stroke-width:1.0;" x1="1809" x2="2374" y1="164.4297" y2="164.4297"/><text fill="#000000" font-family="sans-serif" font-size="14" lengthAdjust="spacing" textLength="39" x="1814" y="179.9648">enum</text><text fill="#000000" font-family="sans-serif" font-size="14" lengthAdjust="spacing" textLength="0" x="1913" y="179.9648"/><line style="stroke:#A80036;stroke-width:1.0;" x1="1896" x2="1896" y1="164.4297" y2="184.918"/><rect fill="none" height="131.418" rx="5" ry="5" style="stroke:#A80036;stroke-width:1.5;" width="565" x="1809" y="53.5"/><rect fill="#FEFECE" height="40.9766" rx="5" ry="5" style="stroke:#FEFECE;stroke-width:1.5;" width="155" x="2411" y="147.5"/><text fill="#000000" font-family="sans-serif" font-size="14" lengthAdjust="spacing" textLength="121" x="2416" y="163.0352">validCardInserted</text><line style="stroke:#A80036;stroke-width:1.0;" x1="2411" x2="2566" y1="167.9883" y2="167.9883"/><text fill="#000000" font-family="sans-serif" font-size="14" lengthAdjust="spacing" textLength="145" x="2416" y="183.5234">validCardNotInserted</text><rect fill="none" height="40.9766" rx="5" ry="5" style="stroke:#A80036;stroke-width:1.5;" width="155" x="2411" y="147.5"/><rect fill="#FEFECE" height="20.4883" rx="5" ry="5" style="stroke:#FEFECE;stroke-width:1.5;" width="364" x="1408" y="163"/><text fill="#000000" font-family="sans-serif" font-size="14" lengthAdjust="spacing" textLength="354" x="1413" y="178.5352">#/sdfObject/keycardswitch/sdfProperty/stateofcard</text><rect fill="none" height="20.4883" rx="5" ry="5" style="stroke:#A80036;stroke-width:1.5;" width="364" x="1408" y="163"/><path d="M95,75 L108,75 C117.4068,75 126.9554,74.9088 136.5926,74.7376 " fill="none" style="stroke:#A80036;stroke-width:1.0;stroke-dasharray:3.0,3.0;"/><path d="M136.6543,77.8363 L138.9166,74.6914 L136.5309,71.6389 L144.3394,74.5834 L136.6543,77.8363 " fill="#A80036" style="stroke:#A80036;stroke-width:1.0;"/><ellipse cx="95" cy="75" fill="#A80036" rx="3" ry="3" style="stroke:#A80036;stroke-width:1.0;stroke-dasharray:3.0,3.0;"/><path d="M2362,168 L2375,168 C2384.2879,168 2394.0053,168 2403.6755,168 " fill="none" style="stroke:#A80036;stroke-width:1.0;stroke-dasharray:3.0,3.0;"/><path d="M2403.6755,171.0945 L2405.9964,168 L2403.6755,164.9055 L2411.4117,168 L2403.6755,171.0945 " fill="#A80036" style="stroke:#A80036;stroke-width:1.0;"/><ellipse cx="2362" cy="168" fill="#A80036" rx="3" ry="3" style="stroke:#A80036;stroke-width:1.0;stroke-dasharray:3.0,3.0;"/><path d="M1633.5,119 L1646.5,119 C1696.6998,119 1750.0886,119 1801.8043,119 " fill="none" style="stroke:#A80036;stroke-width:1.0;stroke-dasharray:3.0,3.0;"/><path d="M1801.8043,122.047 L1804.0895,119 L1801.8043,115.953 L1809.4218,119 L1801.8043,122.047 " fill="#A80036" style="stroke:#A80036;stroke-width:1.0;"/><ellipse cx="1633.5" cy="119" fill="#A80036" rx="3" ry="3" style="stroke:#A80036;stroke-width:1.0;stroke-dasharray:3.0,3.0;"/><path d="M1359,119 L1372,119 C1424.72,119 1484.6282,119 1528.2029,119 " fill="none" style="stroke:#A80036;stroke-width:1.0;stroke-dasharray:3.0,3.0;"/><path d="M1528.2029,122.0669 L1530.5031,119 L1528.2029,115.9331 L1535.8701,119 L1528.2029,122.0669 " fill="#A80036" style="stroke:#A80036;stroke-width:1.0;"/><ellipse cx="1359" cy="119" fill="#A80036" rx="3" ry="3" style="stroke:#A80036;stroke-width:1.0;stroke-dasharray:3.0,3.0;"/><path d="M1359,173 L1372,173 C1381.311,173 1390.8463,173 1400.4762,173 " fill="none" style="stroke:#A80036;stroke-width:1.0;stroke-dasharray:3.0,3.0;"/><path d="M1400.4762,176.0963 L1402.7984,173 L1400.4762,169.9037 L1408.217,173 L1400.4762,176.0963 " fill="#A80036" style="stroke:#A80036;stroke-width:1.0;"/><ellipse cx="1359" cy="173" fill="#A80036" rx="3" ry="3" style="stroke:#A80036;stroke-width:1.0;stroke-dasharray:3.0,3.0;"/><path d="M503.5,120 L516.5,120 C604.5812,120 700.3728,120 787.6763,120 " fill="none" style="stroke:#A80036;stroke-width:1.0;stroke-dasharray:3.0,3.0;"/><path d="M787.6763,123.0446 L789.9597,120 L787.6763,116.9554 L795.2878,120 L787.6763,123.0446 " fill="#A80036" style="stroke:#A80036;stroke-width:1.0;"/><ellipse cx="503.5" cy="120" fill="#A80036" rx="3" ry="3" style="stroke:#A80036;stroke-width:1.0;stroke-dasharray:3.0,3.0;"/><path d="M95,96 L108,96 C124.1536,96 127.927,99.388 144,101 C224.505,109.0741 317.273,114.2524 379.4733,117.1308 " fill="none" style="stroke:#A80036;stroke-width:1.0;stroke-dasharray:3.0,3.0;"/><path d="M379.3306,120.2548 L381.8163,117.2379 L379.616,114.0069 L387.2831,117.4876 L379.3306,120.2548 " fill="#A80036" style="stroke:#A80036;stroke-width:1.0;"/><ellipse cx="95" cy="96" fill="#A80036" rx="3" ry="3" style="stroke:#A80036;stroke-width:1.0;stroke-dasharray:3.0,3.0;"/><!--MD5=[e3e6742bcad6a44af832ae7a32d82bcf]
@startjson
{
  "info": {
    "copyright": "Copyright 2018-2019 Open Connectivity Foundation, Inc. All rights reserved.",
    "license": "https://github.com/one-data-model/oneDM/blob/master/LICENSE",
    "title": "KeyCard Switch",
    "version": "2019-08-07"
  },
  "sdfObject": {
    "keycardswitch": {
      "description": "This Resource describes the operation of a KeyCard style switch. It\\nhas one mandatory Property,\"stateofcard\", which is a string enum\\ntype. It has two enum values: \"validCardInserted\",\\n\"validCardNotInserted\". \"validCardInserted\" means that a keycard was\\ninserted and passed validation check. \"validCardNotInserted\" means\\nthat a keycard is not inserted or it was inserted but failed to pass\\nvalidation check.",
      "sdfProperty": {
        "stateofcard": {
          "description": "The status of the keycardswitch. \"validCardInserted\" means that a\\nkeycard was inserted and passed validation check.\\n\"validCardNotInserted\" means that a keycard is not inserted or it was\\ninserted but failed to pass validation check.",
          "writable": false,
          "type": "string",
          "enum": [
            "validCardInserted",
            "validCardNotInserted"
          ]
        }
      },
      "sdfRequired": [
        "#/sdfObject/keycardswitch/sdfProperty/stateofcard"
      ]
    }
  }
}
@endjson

PlantUML version 1.2021.2(Sun Mar 07 13:10:27 EET 2021)
(GPL source distribution)
Java Runtime: OpenJDK Runtime Environment
JVM: OpenJDK 64-Bit Server VM
Default Encoding: UTF-8
Language: en
Country: FI
--></g></svg>