<?xml version="1.0" encoding="UTF-8" standalone="no"?><svg xmlns="http://www.w3.org/2000/svg" xmlns:xlink="http://www.w3.org/1999/xlink" contentScriptType="application/ecmascript" contentStyleType="text/css" height="218px" preserveAspectRatio="none" style="width:2439px;height:218px;" version="1.1" viewBox="0 0 2439 218" width="2439px" zoomAndPan="magnify"><defs/><g><rect fill="#FEFECE" height="40.9766" rx="5" ry="5" style="stroke:#FEFECE;stroke-width:1.5;" width="97" x="10" y="65.5"/><text fill="#000000" font-family="sans-serif" font-size="14" lengthAdjust="spacing" textLength="27" x="15" y="81.0352">info</text><text fill="#000000" font-family="sans-serif" font-size="14" lengthAdjust="spacing" textLength="0" x="102" y="81.0352"/><line style="stroke:#A80036;stroke-width:1.0;" x1="85" x2="85" y1="65.5" y2="85.9883"/><line style="stroke:#A80036;stroke-width:1.0;" x1="10" x2="107" y1="85.9883" y2="85.9883"/><text fill="#000000" font-family="sans-serif" font-size="14" lengthAdjust="spacing" textLength="65" x="15" y="101.5234">sdfObject</text><text fill="#000000" font-family="sans-serif" font-size="14" lengthAdjust="spacing" textLength="0" x="102" y="101.5234"/><line style="stroke:#A80036;stroke-width:1.0;" x1="85" x2="85" y1="85.9883" y2="106.4766"/><rect fill="none" height="40.9766" rx="5" ry="5" style="stroke:#A80036;stroke-width:1.5;" width="97" x="10" y="65.5"/><rect fill="#FEFECE" height="81.9531" rx="5" ry="5" style="stroke:#FEFECE;stroke-width:1.5;" width="655" x="144" y="10"/><text fill="#000000" font-family="sans-serif" font-size="14" lengthAdjust="spacing" textLength="65" x="149" y="25.5352">copyright</text><text fill="#000000" font-family="sans-serif" font-size="14" lengthAdjust="spacing" textLength="570" x="224" y="25.5352">copyright 2016-2017, 2019 Open Connectivity Foundation, Inc. All rights reserved.</text><line style="stroke:#A80036;stroke-width:1.0;" x1="219" x2="219" y1="10" y2="30.4883"/><line style="stroke:#A80036;stroke-width:1.0;" x1="144" x2="799" y1="30.4883" y2="30.4883"/><text fill="#000000" font-family="sans-serif" font-size="14" lengthAdjust="spacing" textLength="47" x="149" y="46.0234">license</text><text fill="#000000" font-family="sans-serif" font-size="14" lengthAdjust="spacing" textLength="462" x="224" y="46.0234">https://github.com/one-data-model/oneDM/blob/master/LICENSE</text><line style="stroke:#A80036;stroke-width:1.0;" x1="219" x2="219" y1="30.4883" y2="50.9766"/><line style="stroke:#A80036;stroke-width:1.0;" x1="144" x2="799" y1="50.9766" y2="50.9766"/><text fill="#000000" font-family="sans-serif" font-size="14" lengthAdjust="spacing" textLength="26" x="149" y="66.5117">title</text><text fill="#000000" font-family="sans-serif" font-size="14" lengthAdjust="spacing" textLength="135" x="224" y="66.5117">Optical RFID Station</text><line style="stroke:#A80036;stroke-width:1.0;" x1="219" x2="219" y1="50.9766" y2="71.4648"/><line style="stroke:#A80036;stroke-width:1.0;" x1="144" x2="799" y1="71.4648" y2="71.4648"/><text fill="#000000" font-family="sans-serif" font-size="14" lengthAdjust="spacing" textLength="50" x="149" y="87">version</text><text fill="#000000" font-family="sans-serif" font-size="14" lengthAdjust="spacing" textLength="88" x="224" y="87">2019-02-15</text><line style="stroke:#A80036;stroke-width:1.0;" x1="219" x2="219" y1="71.4648" y2="91.9531"/><rect fill="none" height="81.9531" rx="5" ry="5" style="stroke:#A80036;stroke-width:1.5;" width="655" x="144" y="10"/><rect fill="#FEFECE" height="20.4883" rx="5" ry="5" style="stroke:#FEFECE;stroke-width:1.5;" width="116" x="413.5" y="110"/><text fill="#000000" font-family="sans-serif" font-size="14" lengthAdjust="spacing" textLength="84" x="418.5" y="125.5352">orfid.station</text><text fill="#000000" font-family="sans-serif" font-size="14" lengthAdjust="spacing" textLength="0" x="524.5" y="125.5352"/><line style="stroke:#A80036;stroke-width:1.0;" x1="507.5" x2="507.5" y1="110" y2="130.4883"/><rect fill="none" height="20.4883" rx="5" ry="5" style="stroke:#A80036;stroke-width:1.5;" width="116" x="413.5" y="110"/><rect fill="#FEFECE" height="160.3945" rx="5" ry="5" style="stroke:#FEFECE;stroke-width:1.5;" width="579" x="836" y="40"/><text fill="#000000" font-family="sans-serif" font-size="14" lengthAdjust="spacing" textLength="77" x="841" y="55.5352">description</text><text fill="#000000" font-family="sans-serif" font-size="14" lengthAdjust="spacing" textLength="444" x="934" y="55.5352">The Property "process" represents the stage of the product in the</text><text fill="#000000" font-family="sans-serif" font-size="14" lengthAdjust="spacing" textLength="463" x="934" y="72.0234">product line which has an optical RFID tag on its body. The Property</text><text fill="#000000" font-family="sans-serif" font-size="14" lengthAdjust="spacing" textLength="440" x="934" y="88.5117">"event" is represented by a Boolean value set to "true" and "false"</text><text fill="#000000" font-family="sans-serif" font-size="14" lengthAdjust="spacing" textLength="476" x="934" y="105">alarming the issue when additional action is requested for the tagged</text><text fill="#000000" font-family="sans-serif" font-size="14" lengthAdjust="spacing" textLength="452" x="934" y="121.4883">product. The Property "actionrequest" represent necessary actions</text><text fill="#000000" font-family="sans-serif" font-size="14" lengthAdjust="spacing" textLength="453" x="934" y="137.9766">like the isolation of the product, to send the product back to other</text><text fill="#000000" font-family="sans-serif" font-size="14" lengthAdjust="spacing" textLength="259" x="934" y="154.4648">specific line to modify or fix the issue.</text><line style="stroke:#A80036;stroke-width:1.0;" x1="929" x2="929" y1="40" y2="159.418"/><line style="stroke:#A80036;stroke-width:1.0;" x1="836" x2="1415" y1="159.418" y2="159.418"/><text fill="#000000" font-family="sans-serif" font-size="14" lengthAdjust="spacing" textLength="79" x="841" y="174.9531">sdfProperty</text><text fill="#000000" font-family="sans-serif" font-size="14" lengthAdjust="spacing" textLength="0" x="946" y="174.9531"/><line style="stroke:#A80036;stroke-width:1.0;" x1="929" x2="929" y1="159.418" y2="179.9063"/><line style="stroke:#A80036;stroke-width:1.0;" x1="836" x2="1415" y1="179.9063" y2="179.9063"/><text fill="#000000" font-family="sans-serif" font-size="14" lengthAdjust="spacing" textLength="83" x="841" y="195.4414">sdfRequired</text><text fill="#000000" font-family="sans-serif" font-size="14" lengthAdjust="spacing" textLength="0" x="946" y="195.4414"/><line style="stroke:#A80036;stroke-width:1.0;" x1="929" x2="929" y1="179.9063" y2="200.3945"/><rect fill="none" height="160.3945" rx="5" ry="5" style="stroke:#A80036;stroke-width:1.5;" width="579" x="836" y="40"/><rect fill="#FEFECE" height="61.4648" rx="5" ry="5" style="stroke:#FEFECE;stroke-width:1.5;" width="126" x="1573.5" y="81.5"/><text fill="#000000" font-family="sans-serif" font-size="14" lengthAdjust="spacing" textLength="53" x="1578.5" y="97.0352">process</text><text fill="#000000" font-family="sans-serif" font-size="14" lengthAdjust="spacing" textLength="0" x="1694.5" y="97.0352"/><line style="stroke:#A80036;stroke-width:1.0;" x1="1677.5" x2="1677.5" y1="81.5" y2="101.9883"/><line style="stroke:#A80036;stroke-width:1.0;" x1="1573.5" x2="1699.5" y1="101.9883" y2="101.9883"/><text fill="#000000" font-family="sans-serif" font-size="14" lengthAdjust="spacing" textLength="94" x="1578.5" y="117.5234">actionrequest</text><text fill="#000000" font-family="sans-serif" font-size="14" lengthAdjust="spacing" textLength="0" x="1694.5" y="117.5234"/><line style="stroke:#A80036;stroke-width:1.0;" x1="1677.5" x2="1677.5" y1="101.9883" y2="122.4766"/><line style="stroke:#A80036;stroke-width:1.0;" x1="1573.5" x2="1699.5" y1="122.4766" y2="122.4766"/><text fill="#000000" font-family="sans-serif" font-size="14" lengthAdjust="spacing" textLength="37" x="1578.5" y="138.0117">event</text><text fill="#000000" font-family="sans-serif" font-size="14" lengthAdjust="spacing" textLength="0" x="1694.5" y="138.0117"/><line style="stroke:#A80036;stroke-width:1.0;" x1="1677.5" x2="1677.5" y1="122.4766" y2="142.9648"/><rect fill="none" height="61.4648" rx="5" ry="5" style="stroke:#A80036;stroke-width:1.5;" width="126" x="1573.5" y="81.5"/><rect fill="#FEFECE" height="61.4648" rx="5" ry="5" style="stroke:#FEFECE;stroke-width:1.5;" width="480" x="1902.5" y="11.5"/><text fill="#000000" font-family="sans-serif" font-size="14" lengthAdjust="spacing" textLength="77" x="1907.5" y="27.0352">description</text><text fill="#000000" font-family="sans-serif" font-size="14" lengthAdjust="spacing" textLength="383" x="1994.5" y="27.0352">The process step that is being performed at this station.</text><line style="stroke:#A80036;stroke-width:1.0;" x1="1989.5" x2="1989.5" y1="11.5" y2="31.9883"/><line style="stroke:#A80036;stroke-width:1.0;" x1="1902.5" x2="2382.5" y1="31.9883" y2="31.9883"/><text fill="#000000" font-family="sans-serif" font-size="14" lengthAdjust="spacing" textLength="55" x="1907.5" y="47.5234">writable</text><text fill="#000000" font-family="sans-serif" font-size="14" lengthAdjust="spacing" textLength="48" x="1994.5" y="47.5234">☐ false</text><line style="stroke:#A80036;stroke-width:1.0;" x1="1989.5" x2="1989.5" y1="31.9883" y2="52.4766"/><line style="stroke:#A80036;stroke-width:1.0;" x1="1902.5" x2="2382.5" y1="52.4766" y2="52.4766"/><text fill="#000000" font-family="sans-serif" font-size="14" lengthAdjust="spacing" textLength="29" x="1907.5" y="68.0117">type</text><text fill="#000000" font-family="sans-serif" font-size="14" lengthAdjust="spacing" textLength="49" x="1994.5" y="68.0117">integer</text><line style="stroke:#A80036;stroke-width:1.0;" x1="1989.5" x2="1989.5" y1="52.4766" y2="72.9648"/><rect fill="none" height="61.4648" rx="5" ry="5" style="stroke:#A80036;stroke-width:1.5;" width="480" x="1902.5" y="11.5"/><rect fill="#FEFECE" height="40.9766" rx="5" ry="5" style="stroke:#FEFECE;stroke-width:1.5;" width="295" x="1995" y="90.5"/><text fill="#000000" font-family="sans-serif" font-size="14" lengthAdjust="spacing" textLength="77" x="2000" y="106.0352">description</text><text fill="#000000" font-family="sans-serif" font-size="14" lengthAdjust="spacing" textLength="198" x="2087" y="106.0352">The action request identifier.</text><line style="stroke:#A80036;stroke-width:1.0;" x1="2082" x2="2082" y1="90.5" y2="110.9883"/><line style="stroke:#A80036;stroke-width:1.0;" x1="1995" x2="2290" y1="110.9883" y2="110.9883"/><text fill="#000000" font-family="sans-serif" font-size="14" lengthAdjust="spacing" textLength="29" x="2000" y="126.5234">type</text><text fill="#000000" font-family="sans-serif" font-size="14" lengthAdjust="spacing" textLength="49" x="2087" y="126.5234">integer</text><line style="stroke:#A80036;stroke-width:1.0;" x1="2082" x2="2082" y1="110.9883" y2="131.4766"/><rect fill="none" height="40.9766" rx="5" ry="5" style="stroke:#A80036;stroke-width:1.5;" width="295" x="1995" y="90.5"/><rect fill="#FEFECE" height="57.4648" rx="5" ry="5" style="stroke:#FEFECE;stroke-width:1.5;" width="569" x="1858" y="149.5"/><text fill="#000000" font-family="sans-serif" font-size="14" lengthAdjust="spacing" textLength="77" x="1863" y="165.0352">description</text><text fill="#000000" font-family="sans-serif" font-size="14" lengthAdjust="spacing" textLength="472" x="1950" y="165.0352">The Event indicator, when True, the action request should be applied</text><text fill="#000000" font-family="sans-serif" font-size="14" lengthAdjust="spacing" textLength="256" x="1950" y="181.5234">to the product identified by the tagid.</text><line style="stroke:#A80036;stroke-width:1.0;" x1="1945" x2="1945" y1="149.5" y2="186.4766"/><line style="stroke:#A80036;stroke-width:1.0;" x1="1858" x2="2427" y1="186.4766" y2="186.4766"/><text fill="#000000" font-family="sans-serif" font-size="14" lengthAdjust="spacing" textLength="29" x="1863" y="202.0117">type</text><text fill="#000000" font-family="sans-serif" font-size="14" lengthAdjust="spacing" textLength="56" x="1950" y="202.0117">boolean</text><line style="stroke:#A80036;stroke-width:1.0;" x1="1945" x2="1945" y1="186.4766" y2="206.9648"/><rect fill="none" height="57.4648" rx="5" ry="5" style="stroke:#A80036;stroke-width:1.5;" width="569" x="1858" y="149.5"/><rect fill="#FEFECE" height="40.9766" rx="5" ry="5" style="stroke:#FEFECE;stroke-width:1.5;" width="369" x="1452" y="160.5"/><text fill="#000000" font-family="sans-serif" font-size="14" lengthAdjust="spacing" textLength="302" x="1457" y="176.0352">#/sdfObject/orfid.station/sdfProperty/event</text><line style="stroke:#A80036;stroke-width:1.0;" x1="1452" x2="1821" y1="180.9883" y2="180.9883"/><text fill="#000000" font-family="sans-serif" font-size="14" lengthAdjust="spacing" textLength="359" x="1457" y="196.5234">#/sdfObject/orfid.station/sdfProperty/actionrequest</text><rect fill="none" height="40.9766" rx="5" ry="5" style="stroke:#A80036;stroke-width:1.5;" width="369" x="1452" y="160.5"/><path d="M95,75 L108,75 C117.3442,75 126.8208,74.9198 136.3833,74.7688 " fill="none" style="stroke:#A80036;stroke-width:1.0;stroke-dasharray:3.0,3.0;"/><path d="M136.4378,77.8434 L138.6892,74.7279 L136.3288,71.6942 L144.0697,74.6326 L136.4378,77.8434 " fill="#A80036" style="stroke:#A80036;stroke-width:1.0;"/><ellipse cx="95" cy="75" fill="#A80036" rx="3" ry="3" style="stroke:#A80036;stroke-width:1.0;stroke-dasharray:3.0,3.0;"/><path d="M1688,91 L1701,91 C1740.8785,91 1820.6336,82.9852 1901.4875,73.4386 " fill="none" style="stroke:#A80036;stroke-width:1.0;stroke-dasharray:3.0,3.0;"/><path d="M1901.8589,76.5692 L1903.8355,73.16 L1901.1162,70.3079 L1909.3142,72.5101 L1901.8589,76.5692 " fill="#A80036" style="stroke:#A80036;stroke-width:1.0;"/><ellipse cx="1688" cy="91" fill="#A80036" rx="3" ry="3" style="stroke:#A80036;stroke-width:1.0;stroke-dasharray:3.0,3.0;"/><path d="M1688,111 L1701,111 C1796.2218,111 1903.0089,111 1987.649,111 " fill="none" style="stroke:#A80036;stroke-width:1.0;stroke-dasharray:3.0,3.0;"/><path d="M1987.649,114.0409 L1989.9297,111 L1987.649,107.9591 L1995.2512,111 L1987.649,114.0409 " fill="#A80036" style="stroke:#A80036;stroke-width:1.0;"/><ellipse cx="1688" cy="111" fill="#A80036" rx="3" ry="3" style="stroke:#A80036;stroke-width:1.0;stroke-dasharray:3.0,3.0;"/><path d="M1688,132 L1701,132 C1741.036,132 1821.3462,139.5946 1902.5917,148.6121 " fill="none" style="stroke:#A80036;stroke-width:1.0;stroke-dasharray:3.0,3.0;"/><path d="M1902.241,151.7578 L1904.9509,148.8752 L1902.9425,145.4665 L1910.4558,149.489 L1902.241,151.7578 " fill="#A80036" style="stroke:#A80036;stroke-width:1.0;"/><ellipse cx="1688" cy="132" fill="#A80036" rx="3" ry="3" style="stroke:#A80036;stroke-width:1.0;stroke-dasharray:3.0,3.0;"/><path d="M1403,119 L1416,119 C1466.2888,119 1523.011,117.1502 1566.2633,115.3524 " fill="none" style="stroke:#A80036;stroke-width:1.0;stroke-dasharray:3.0,3.0;"/><path d="M1566.3924,118.4088 L1568.5555,115.2556 L1566.1342,112.2961 L1573.9041,115.0296 L1566.3924,118.4088 " fill="#A80036" style="stroke:#A80036;stroke-width:1.0;"/><ellipse cx="1403" cy="119" fill="#A80036" rx="3" ry="3" style="stroke:#A80036;stroke-width:1.0;stroke-dasharray:3.0,3.0;"/><path d="M1403,173 L1416,173 C1425.3489,173 1434.9198,173.073 1444.5849,173.2052 " fill="none" style="stroke:#A80036;stroke-width:1.0;stroke-dasharray:3.0,3.0;"/><path d="M1444.5375,176.3128 L1446.9156,173.2407 L1444.6322,170.0976 L1452.3539,173.3235 L1444.5375,176.3128 " fill="#A80036" style="stroke:#A80036;stroke-width:1.0;"/><ellipse cx="1403" cy="173" fill="#A80036" rx="3" ry="3" style="stroke:#A80036;stroke-width:1.0;stroke-dasharray:3.0,3.0;"/><path d="M518,120 L531,120 C627.8917,120 733.6735,120 828.7686,120 " fill="none" style="stroke:#A80036;stroke-width:1.0;stroke-dasharray:3.0,3.0;"/><path d="M828.7686,123.0808 L831.0792,120 L828.7686,116.9192 L836.4706,120 L828.7686,123.0808 " fill="#A80036" style="stroke:#A80036;stroke-width:1.0;"/><ellipse cx="518" cy="120" fill="#A80036" rx="3" ry="3" style="stroke:#A80036;stroke-width:1.0;stroke-dasharray:3.0,3.0;"/><path d="M95,96 L108,96 C124.1536,96 127.924,99.4191 144,101 C234.6835,109.9176 339.9572,115.1155 406.0284,117.7565 " fill="none" style="stroke:#A80036;stroke-width:1.0;stroke-dasharray:3.0,3.0;"/><path d="M405.9046,120.9003 L408.3863,117.8494 L406.1522,114.6127 L413.8879,118.066 L405.9046,120.9003 " fill="#A80036" style="stroke:#A80036;stroke-width:1.0;"/><ellipse cx="95" cy="96" fill="#A80036" rx="3" ry="3" style="stroke:#A80036;stroke-width:1.0;stroke-dasharray:3.0,3.0;"/><!--MD5=[3534a78ef447e4323f0c83e188a54154]
@startjson
{
  "info": {
    "copyright": "copyright 2016-2017, 2019 Open Connectivity Foundation, Inc. All rights reserved.",
    "license": "https://github.com/one-data-model/oneDM/blob/master/LICENSE",
    "title": "Optical RFID Station",
    "version": "2019-02-15"
  },
  "sdfObject": {
    "orfid.station": {
      "description": "The Property \"process\" represents the stage of the product in the\\nproduct line which has an optical RFID tag on its body. The Property\\n\"event\" is represented by a Boolean value set to \"true\" and \"false\"\\nalarming the issue when additional action is requested for the tagged\\nproduct. The Property \"actionrequest\" represent necessary actions\\nlike the isolation of the product, to send the product back to other\\nspecific line to modify or fix the issue.",
      "sdfProperty": {
        "process": {
          "description": "The process step that is being performed at this station.",
          "writable": false,
          "type": "integer"
        },
        "actionrequest": {
          "description": "The action request identifier.",
          "type": "integer"
        },
        "event": {
          "description": "The Event indicator, when True, the action request should be applied\\nto the product identified by the tagid.",
          "type": "boolean"
        }
      },
      "sdfRequired": [
        "#/sdfObject/orfid.station/sdfProperty/event",
        "#/sdfObject/orfid.station/sdfProperty/actionrequest"
      ]
    }
  }
}
@endjson

PlantUML version 1.2021.2(Sun Mar 07 13:10:27 EET 2021)
(GPL source distribution)
Java Runtime: OpenJDK Runtime Environment
JVM: OpenJDK 64-Bit Server VM
Default Encoding: UTF-8
Language: en
Country: FI
--></g></svg>