<?xml version="1.0" encoding="UTF-8" standalone="no"?><svg xmlns="http://www.w3.org/2000/svg" xmlns:xlink="http://www.w3.org/1999/xlink" contentScriptType="application/ecmascript" contentStyleType="text/css" height="1129px" preserveAspectRatio="none" style="width:2351px;height:1129px;" version="1.1" viewBox="0 0 2351 1129" width="2351px" zoomAndPan="magnify"><defs/><g><rect fill="#FEFECE" height="40.9766" rx="5" ry="5" style="stroke:#FEFECE;stroke-width:1.5;" width="97" x="10" y="537"/><text fill="#000000" font-family="sans-serif" font-size="14" lengthAdjust="spacing" textLength="27" x="15" y="552.5352">info</text><text fill="#000000" font-family="sans-serif" font-size="14" lengthAdjust="spacing" textLength="0" x="102" y="552.5352"/><line style="stroke:#A80036;stroke-width:1.0;" x1="85" x2="85" y1="537" y2="557.4883"/><line style="stroke:#A80036;stroke-width:1.0;" x1="10" x2="107" y1="557.4883" y2="557.4883"/><text fill="#000000" font-family="sans-serif" font-size="14" lengthAdjust="spacing" textLength="65" x="15" y="573.0234">sdfObject</text><text fill="#000000" font-family="sans-serif" font-size="14" lengthAdjust="spacing" textLength="0" x="102" y="573.0234"/><line style="stroke:#A80036;stroke-width:1.0;" x1="85" x2="85" y1="557.4883" y2="577.9766"/><rect fill="none" height="40.9766" rx="5" ry="5" style="stroke:#A80036;stroke-width:1.5;" width="97" x="10" y="537"/><rect fill="#FEFECE" height="81.9531" rx="5" ry="5" style="stroke:#FEFECE;stroke-width:1.5;" width="547" x="144" y="481.5"/><text fill="#000000" font-family="sans-serif" font-size="14" lengthAdjust="spacing" textLength="26" x="149" y="497.0352">title</text><text fill="#000000" font-family="sans-serif" font-size="14" lengthAdjust="spacing" textLength="297" x="224" y="497.0352">OMA LwM2M Load Control (Object ID 3310)</text><line style="stroke:#A80036;stroke-width:1.0;" x1="219" x2="219" y1="481.5" y2="501.9883"/><line style="stroke:#A80036;stroke-width:1.0;" x1="144" x2="691" y1="501.9883" y2="501.9883"/><text fill="#000000" font-family="sans-serif" font-size="14" lengthAdjust="spacing" textLength="50" x="149" y="517.5234">version</text><text fill="#000000" font-family="sans-serif" font-size="14" lengthAdjust="spacing" textLength="88" x="224" y="517.5234">2021-02-11</text><line style="stroke:#A80036;stroke-width:1.0;" x1="219" x2="219" y1="501.9883" y2="522.4766"/><line style="stroke:#A80036;stroke-width:1.0;" x1="144" x2="691" y1="522.4766" y2="522.4766"/><text fill="#000000" font-family="sans-serif" font-size="14" lengthAdjust="spacing" textLength="65" x="149" y="538.0117">copyright</text><text fill="#000000" font-family="sans-serif" font-size="14" lengthAdjust="spacing" textLength="208" x="224" y="538.0117">Copyright (c) 2018-2020 IPSO</text><line style="stroke:#A80036;stroke-width:1.0;" x1="219" x2="219" y1="522.4766" y2="542.9648"/><line style="stroke:#A80036;stroke-width:1.0;" x1="144" x2="691" y1="542.9648" y2="542.9648"/><text fill="#000000" font-family="sans-serif" font-size="14" lengthAdjust="spacing" textLength="47" x="149" y="558.5">license</text><text fill="#000000" font-family="sans-serif" font-size="14" lengthAdjust="spacing" textLength="462" x="224" y="558.5">https://github.com/one-data-model/oneDM/blob/master/LICENSE</text><line style="stroke:#A80036;stroke-width:1.0;" x1="219" x2="219" y1="542.9648" y2="563.4531"/><rect fill="none" height="81.9531" rx="5" ry="5" style="stroke:#A80036;stroke-width:1.5;" width="547" x="144" y="481.5"/><rect fill="#FEFECE" height="20.4883" rx="5" ry="5" style="stroke:#FEFECE;stroke-width:1.5;" width="124" x="355.5" y="581.5"/><text fill="#000000" font-family="sans-serif" font-size="14" lengthAdjust="spacing" textLength="92" x="360.5" y="597.0352">Load_Control</text><text fill="#000000" font-family="sans-serif" font-size="14" lengthAdjust="spacing" textLength="0" x="474.5" y="597.0352"/><line style="stroke:#A80036;stroke-width:1.0;" x1="457.5" x2="457.5" y1="581.5" y2="601.9883"/><rect fill="none" height="20.4883" rx="5" ry="5" style="stroke:#A80036;stroke-width:1.5;" width="124" x="355.5" y="581.5"/><rect fill="#FEFECE" height="118.9297" rx="5" ry="5" style="stroke:#FEFECE;stroke-width:1.5;" width="579" x="728" y="532"/><text fill="#000000" font-family="sans-serif" font-size="14" lengthAdjust="spacing" textLength="33" x="733" y="547.5352">label</text><text fill="#000000" font-family="sans-serif" font-size="14" lengthAdjust="spacing" textLength="89" x="826" y="547.5352">Load Control</text><line style="stroke:#A80036;stroke-width:1.0;" x1="821" x2="821" y1="532" y2="552.4883"/><line style="stroke:#A80036;stroke-width:1.0;" x1="728" x2="1307" y1="552.4883" y2="552.4883"/><text fill="#000000" font-family="sans-serif" font-size="14" lengthAdjust="spacing" textLength="77" x="733" y="568.0234">description</text><text fill="#000000" font-family="sans-serif" font-size="14" lengthAdjust="spacing" textLength="476" x="826" y="568.0234">This Object is used for demand-response load control and other load</text><text fill="#000000" font-family="sans-serif" font-size="14" lengthAdjust="spacing" textLength="386" x="826" y="584.5117">control in automation application (not limited to power).</text><line style="stroke:#A80036;stroke-width:1.0;" x1="821" x2="821" y1="552.4883" y2="589.4648"/><line style="stroke:#A80036;stroke-width:1.0;" x1="728" x2="1307" y1="589.4648" y2="589.4648"/><text fill="#000000" font-family="sans-serif" font-size="14" lengthAdjust="spacing" textLength="79" x="733" y="605">sdfProperty</text><text fill="#000000" font-family="sans-serif" font-size="14" lengthAdjust="spacing" textLength="0" x="838" y="605"/><line style="stroke:#A80036;stroke-width:1.0;" x1="821" x2="821" y1="589.4648" y2="609.9531"/><line style="stroke:#A80036;stroke-width:1.0;" x1="728" x2="1307" y1="609.9531" y2="609.9531"/><text fill="#000000" font-family="sans-serif" font-size="14" lengthAdjust="spacing" textLength="65" x="733" y="625.4883">sdfAction</text><text fill="#000000" font-family="sans-serif" font-size="14" lengthAdjust="spacing" textLength="0" x="838" y="625.4883"/><line style="stroke:#A80036;stroke-width:1.0;" x1="821" x2="821" y1="609.9531" y2="630.4414"/><line style="stroke:#A80036;stroke-width:1.0;" x1="728" x2="1307" y1="630.4414" y2="630.4414"/><text fill="#000000" font-family="sans-serif" font-size="14" lengthAdjust="spacing" textLength="83" x="733" y="645.9766">sdfRequired</text><text fill="#000000" font-family="sans-serif" font-size="14" lengthAdjust="spacing" textLength="0" x="838" y="645.9766"/><line style="stroke:#A80036;stroke-width:1.0;" x1="821" x2="821" y1="630.4414" y2="650.9297"/><rect fill="none" height="118.9297" rx="5" ry="5" style="stroke:#A80036;stroke-width:1.5;" width="579" x="728" y="532"/><rect fill="#FEFECE" height="184.3945" rx="5" ry="5" style="stroke:#FEFECE;stroke-width:1.5;" width="183" x="1450" y="405.5"/><text fill="#000000" font-family="sans-serif" font-size="14" lengthAdjust="spacing" textLength="106" x="1455" y="421.0352">Event_Identifier</text><text fill="#000000" font-family="sans-serif" font-size="14" lengthAdjust="spacing" textLength="0" x="1628" y="421.0352"/><line style="stroke:#A80036;stroke-width:1.0;" x1="1611" x2="1611" y1="405.5" y2="425.9883"/><line style="stroke:#A80036;stroke-width:1.0;" x1="1450" x2="1633" y1="425.9883" y2="425.9883"/><text fill="#000000" font-family="sans-serif" font-size="14" lengthAdjust="spacing" textLength="73" x="1455" y="441.5234">Start_Time</text><text fill="#000000" font-family="sans-serif" font-size="14" lengthAdjust="spacing" textLength="0" x="1628" y="441.5234"/><line style="stroke:#A80036;stroke-width:1.0;" x1="1611" x2="1611" y1="425.9883" y2="446.4766"/><line style="stroke:#A80036;stroke-width:1.0;" x1="1450" x2="1633" y1="446.4766" y2="446.4766"/><text fill="#000000" font-family="sans-serif" font-size="14" lengthAdjust="spacing" textLength="112" x="1455" y="462.0117">Duration_In_Min</text><text fill="#000000" font-family="sans-serif" font-size="14" lengthAdjust="spacing" textLength="0" x="1628" y="462.0117"/><line style="stroke:#A80036;stroke-width:1.0;" x1="1611" x2="1611" y1="446.4766" y2="466.9648"/><line style="stroke:#A80036;stroke-width:1.0;" x1="1450" x2="1633" y1="466.9648" y2="466.9648"/><text fill="#000000" font-family="sans-serif" font-size="14" lengthAdjust="spacing" textLength="105" x="1455" y="482.5">Criticality_Level</text><text fill="#000000" font-family="sans-serif" font-size="14" lengthAdjust="spacing" textLength="0" x="1628" y="482.5"/><line style="stroke:#A80036;stroke-width:1.0;" x1="1611" x2="1611" y1="466.9648" y2="487.4531"/><line style="stroke:#A80036;stroke-width:1.0;" x1="1450" x2="1633" y1="487.4531" y2="487.4531"/><text fill="#000000" font-family="sans-serif" font-size="14" lengthAdjust="spacing" textLength="116" x="1455" y="502.9883">Avg_Load_AdjPct</text><text fill="#000000" font-family="sans-serif" font-size="14" lengthAdjust="spacing" textLength="0" x="1628" y="502.9883"/><line style="stroke:#A80036;stroke-width:1.0;" x1="1611" x2="1611" y1="487.4531" y2="507.9414"/><line style="stroke:#A80036;stroke-width:1.0;" x1="1450" x2="1633" y1="507.9414" y2="507.9414"/><text fill="#000000" font-family="sans-serif" font-size="14" lengthAdjust="spacing" textLength="74" x="1455" y="523.4766">Duty_Cycle</text><text fill="#000000" font-family="sans-serif" font-size="14" lengthAdjust="spacing" textLength="0" x="1628" y="523.4766"/><line style="stroke:#A80036;stroke-width:1.0;" x1="1611" x2="1611" y1="507.9414" y2="528.4297"/><line style="stroke:#A80036;stroke-width:1.0;" x1="1450" x2="1633" y1="528.4297" y2="528.4297"/><text fill="#000000" font-family="sans-serif" font-size="14" lengthAdjust="spacing" textLength="118" x="1455" y="543.9648">Application_Type</text><text fill="#000000" font-family="sans-serif" font-size="14" lengthAdjust="spacing" textLength="0" x="1628" y="543.9648"/><line style="stroke:#A80036;stroke-width:1.0;" x1="1611" x2="1611" y1="528.4297" y2="548.918"/><line style="stroke:#A80036;stroke-width:1.0;" x1="1450" x2="1633" y1="548.918" y2="548.918"/><text fill="#000000" font-family="sans-serif" font-size="14" lengthAdjust="spacing" textLength="76" x="1455" y="564.4531">Timestamp</text><text fill="#000000" font-family="sans-serif" font-size="14" lengthAdjust="spacing" textLength="0" x="1628" y="564.4531"/><line style="stroke:#A80036;stroke-width:1.0;" x1="1611" x2="1611" y1="548.918" y2="569.4063"/><line style="stroke:#A80036;stroke-width:1.0;" x1="1450" x2="1633" y1="569.4063" y2="569.4063"/><text fill="#000000" font-family="sans-serif" font-size="14" lengthAdjust="spacing" textLength="151" x="1455" y="584.9414">Fractional_Timestamp</text><text fill="#000000" font-family="sans-serif" font-size="14" lengthAdjust="spacing" textLength="0" x="1628" y="584.9414"/><line style="stroke:#A80036;stroke-width:1.0;" x1="1611" x2="1611" y1="569.4063" y2="589.8945"/><rect fill="none" height="184.3945" rx="5" ry="5" style="stroke:#A80036;stroke-width:1.5;" width="183" x="1450" y="405.5"/><rect fill="#FEFECE" height="61.4648" rx="5" ry="5" style="stroke:#FEFECE;stroke-width:1.5;" width="309" x="1903" y="10"/><text fill="#000000" font-family="sans-serif" font-size="14" lengthAdjust="spacing" textLength="33" x="1908" y="25.5352">label</text><text fill="#000000" font-family="sans-serif" font-size="14" lengthAdjust="spacing" textLength="103" x="1995" y="25.5352">Event Identifier</text><line style="stroke:#A80036;stroke-width:1.0;" x1="1990" x2="1990" y1="10" y2="30.4883"/><line style="stroke:#A80036;stroke-width:1.0;" x1="1903" x2="2212" y1="30.4883" y2="30.4883"/><text fill="#000000" font-family="sans-serif" font-size="14" lengthAdjust="spacing" textLength="77" x="1908" y="46.0234">description</text><text fill="#000000" font-family="sans-serif" font-size="14" lengthAdjust="spacing" textLength="212" x="1995" y="46.0234">The event identifier as a string.</text><line style="stroke:#A80036;stroke-width:1.0;" x1="1990" x2="1990" y1="30.4883" y2="50.9766"/><line style="stroke:#A80036;stroke-width:1.0;" x1="1903" x2="2212" y1="50.9766" y2="50.9766"/><text fill="#000000" font-family="sans-serif" font-size="14" lengthAdjust="spacing" textLength="29" x="1908" y="66.5117">type</text><text fill="#000000" font-family="sans-serif" font-size="14" lengthAdjust="spacing" textLength="40" x="1995" y="66.5117">string</text><line style="stroke:#A80036;stroke-width:1.0;" x1="1990" x2="1990" y1="50.9766" y2="71.4648"/><rect fill="none" height="61.4648" rx="5" ry="5" style="stroke:#A80036;stroke-width:1.5;" width="309" x="1903" y="10"/><rect fill="#FEFECE" height="81.9531" rx="5" ry="5" style="stroke:#FEFECE;stroke-width:1.5;" width="295" x="1910" y="89.5"/><text fill="#000000" font-family="sans-serif" font-size="14" lengthAdjust="spacing" textLength="33" x="1915" y="105.0352">label</text><text fill="#000000" font-family="sans-serif" font-size="14" lengthAdjust="spacing" textLength="70" x="2002" y="105.0352">Start Time</text><line style="stroke:#A80036;stroke-width:1.0;" x1="1997" x2="1997" y1="89.5" y2="109.9883"/><line style="stroke:#A80036;stroke-width:1.0;" x1="1910" x2="2205" y1="109.9883" y2="109.9883"/><text fill="#000000" font-family="sans-serif" font-size="14" lengthAdjust="spacing" textLength="77" x="1915" y="125.5234">description</text><text fill="#000000" font-family="sans-serif" font-size="14" lengthAdjust="spacing" textLength="198" x="2002" y="125.5234">Time when the event started.</text><line style="stroke:#A80036;stroke-width:1.0;" x1="1997" x2="1997" y1="109.9883" y2="130.4766"/><line style="stroke:#A80036;stroke-width:1.0;" x1="1910" x2="2205" y1="130.4766" y2="130.4766"/><text fill="#000000" font-family="sans-serif" font-size="14" lengthAdjust="spacing" textLength="29" x="1915" y="146.0117">type</text><text fill="#000000" font-family="sans-serif" font-size="14" lengthAdjust="spacing" textLength="54" x="2002" y="146.0117">number</text><line style="stroke:#A80036;stroke-width:1.0;" x1="1997" x2="1997" y1="130.4766" y2="150.9648"/><line style="stroke:#A80036;stroke-width:1.0;" x1="1910" x2="2205" y1="150.9648" y2="150.9648"/><text fill="#000000" font-family="sans-serif" font-size="14" lengthAdjust="spacing" textLength="54" x="1915" y="166.5">sdfType</text><text fill="#000000" font-family="sans-serif" font-size="14" lengthAdjust="spacing" textLength="69" x="2002" y="166.5">unix-time</text><line style="stroke:#A80036;stroke-width:1.0;" x1="1997" x2="1997" y1="150.9648" y2="171.4531"/><rect fill="none" height="81.9531" rx="5" ry="5" style="stroke:#A80036;stroke-width:1.5;" width="295" x="1910" y="89.5"/><rect fill="#FEFECE" height="81.9531" rx="5" ry="5" style="stroke:#FEFECE;stroke-width:1.5;" width="351" x="1882" y="189.5"/><text fill="#000000" font-family="sans-serif" font-size="14" lengthAdjust="spacing" textLength="33" x="1887" y="205.0352">label</text><text fill="#000000" font-family="sans-serif" font-size="14" lengthAdjust="spacing" textLength="106" x="1974" y="205.0352">Duration In Min</text><line style="stroke:#A80036;stroke-width:1.0;" x1="1969" x2="1969" y1="189.5" y2="209.9883"/><line style="stroke:#A80036;stroke-width:1.0;" x1="1882" x2="2233" y1="209.9883" y2="209.9883"/><text fill="#000000" font-family="sans-serif" font-size="14" lengthAdjust="spacing" textLength="77" x="1887" y="225.5234">description</text><text fill="#000000" font-family="sans-serif" font-size="14" lengthAdjust="spacing" textLength="254" x="1974" y="225.5234">The duration of the event in minutes.</text><line style="stroke:#A80036;stroke-width:1.0;" x1="1969" x2="1969" y1="209.9883" y2="230.4766"/><line style="stroke:#A80036;stroke-width:1.0;" x1="1882" x2="2233" y1="230.4766" y2="230.4766"/><text fill="#000000" font-family="sans-serif" font-size="14" lengthAdjust="spacing" textLength="29" x="1887" y="246.0117">type</text><text fill="#000000" font-family="sans-serif" font-size="14" lengthAdjust="spacing" textLength="49" x="1974" y="246.0117">integer</text><line style="stroke:#A80036;stroke-width:1.0;" x1="1969" x2="1969" y1="230.4766" y2="250.9648"/><line style="stroke:#A80036;stroke-width:1.0;" x1="1882" x2="2233" y1="250.9648" y2="250.9648"/><text fill="#000000" font-family="sans-serif" font-size="14" lengthAdjust="spacing" textLength="27" x="1887" y="266.5">unit</text><text fill="#000000" font-family="sans-serif" font-size="14" lengthAdjust="spacing" textLength="26" x="1974" y="266.5">min</text><line style="stroke:#A80036;stroke-width:1.0;" x1="1969" x2="1969" y1="250.9648" y2="271.4531"/><rect fill="none" height="81.9531" rx="5" ry="5" style="stroke:#A80036;stroke-width:1.5;" width="351" x="1882" y="189.5"/><rect fill="#FEFECE" height="118.9297" rx="5" ry="5" style="stroke:#FEFECE;stroke-width:1.5;" width="514" x="1800.5" y="290"/><text fill="#000000" font-family="sans-serif" font-size="14" lengthAdjust="spacing" textLength="33" x="1805.5" y="305.5352">label</text><text fill="#000000" font-family="sans-serif" font-size="14" lengthAdjust="spacing" textLength="102" x="1892.5" y="305.5352">Criticality Level</text><line style="stroke:#A80036;stroke-width:1.0;" x1="1887.5" x2="1887.5" y1="290" y2="310.4883"/><line style="stroke:#A80036;stroke-width:1.0;" x1="1800.5" x2="2314.5" y1="310.4883" y2="310.4883"/><text fill="#000000" font-family="sans-serif" font-size="14" lengthAdjust="spacing" textLength="77" x="1805.5" y="326.0234">description</text><text fill="#000000" font-family="sans-serif" font-size="14" lengthAdjust="spacing" textLength="417" x="1892.5" y="326.0234">The criticality of the event. The device receiving the event will</text><text fill="#000000" font-family="sans-serif" font-size="14" lengthAdjust="spacing" textLength="313" x="1892.5" y="342.5117">react in an appropriate fashion for the device.</text><line style="stroke:#A80036;stroke-width:1.0;" x1="1887.5" x2="1887.5" y1="310.4883" y2="347.4648"/><line style="stroke:#A80036;stroke-width:1.0;" x1="1800.5" x2="2314.5" y1="347.4648" y2="347.4648"/><text fill="#000000" font-family="sans-serif" font-size="14" lengthAdjust="spacing" textLength="29" x="1805.5" y="363">type</text><text fill="#000000" font-family="sans-serif" font-size="14" lengthAdjust="spacing" textLength="49" x="1892.5" y="363">integer</text><line style="stroke:#A80036;stroke-width:1.0;" x1="1887.5" x2="1887.5" y1="347.4648" y2="367.9531"/><line style="stroke:#A80036;stroke-width:1.0;" x1="1800.5" x2="2314.5" y1="367.9531" y2="367.9531"/><text fill="#000000" font-family="sans-serif" font-size="14" lengthAdjust="spacing" textLength="65" x="1805.5" y="383.4883">minimum</text><text fill="#000000" font-family="sans-serif" font-size="14" lengthAdjust="spacing" textLength="9" x="1892.5" y="383.4883">0</text><line style="stroke:#A80036;stroke-width:1.0;" x1="1887.5" x2="1887.5" y1="367.9531" y2="388.4414"/><line style="stroke:#A80036;stroke-width:1.0;" x1="1800.5" x2="2314.5" y1="388.4414" y2="388.4414"/><text fill="#000000" font-family="sans-serif" font-size="14" lengthAdjust="spacing" textLength="69" x="1805.5" y="403.9766">maximum</text><text fill="#000000" font-family="sans-serif" font-size="14" lengthAdjust="spacing" textLength="9" x="1892.5" y="403.9766">3</text><line style="stroke:#A80036;stroke-width:1.0;" x1="1887.5" x2="1887.5" y1="388.4414" y2="408.9297"/><rect fill="none" height="118.9297" rx="5" ry="5" style="stroke:#A80036;stroke-width:1.5;" width="514" x="1800.5" y="290"/><rect fill="#FEFECE" height="139.418" rx="5" ry="5" style="stroke:#FEFECE;stroke-width:1.5;" width="535" x="1790" y="427"/><text fill="#000000" font-family="sans-serif" font-size="14" lengthAdjust="spacing" textLength="33" x="1795" y="442.5352">label</text><text fill="#000000" font-family="sans-serif" font-size="14" lengthAdjust="spacing" textLength="110" x="1882" y="442.5352">Avg Load AdjPct</text><line style="stroke:#A80036;stroke-width:1.0;" x1="1877" x2="1877" y1="427" y2="447.4883"/><line style="stroke:#A80036;stroke-width:1.0;" x1="1790" x2="2325" y1="447.4883" y2="447.4883"/><text fill="#000000" font-family="sans-serif" font-size="14" lengthAdjust="spacing" textLength="77" x="1795" y="463.0234">description</text><text fill="#000000" font-family="sans-serif" font-size="14" lengthAdjust="spacing" textLength="438" x="1882" y="463.0234">Defines the maximum energy usage of the receiving device, as a</text><text fill="#000000" font-family="sans-serif" font-size="14" lengthAdjust="spacing" textLength="404" x="1882" y="479.5117">percentage of the device's normal maximum energy usage.</text><line style="stroke:#A80036;stroke-width:1.0;" x1="1877" x2="1877" y1="447.4883" y2="484.4648"/><line style="stroke:#A80036;stroke-width:1.0;" x1="1790" x2="2325" y1="484.4648" y2="484.4648"/><text fill="#000000" font-family="sans-serif" font-size="14" lengthAdjust="spacing" textLength="29" x="1795" y="500">type</text><text fill="#000000" font-family="sans-serif" font-size="14" lengthAdjust="spacing" textLength="49" x="1882" y="500">integer</text><line style="stroke:#A80036;stroke-width:1.0;" x1="1877" x2="1877" y1="484.4648" y2="504.9531"/><line style="stroke:#A80036;stroke-width:1.0;" x1="1790" x2="2325" y1="504.9531" y2="504.9531"/><text fill="#000000" font-family="sans-serif" font-size="14" lengthAdjust="spacing" textLength="27" x="1795" y="520.4883">unit</text><text fill="#000000" font-family="sans-serif" font-size="14" lengthAdjust="spacing" textLength="34" x="1882" y="520.4883">/100</text><line style="stroke:#A80036;stroke-width:1.0;" x1="1877" x2="1877" y1="504.9531" y2="525.4414"/><line style="stroke:#A80036;stroke-width:1.0;" x1="1790" x2="2325" y1="525.4414" y2="525.4414"/><text fill="#000000" font-family="sans-serif" font-size="14" lengthAdjust="spacing" textLength="65" x="1795" y="540.9766">minimum</text><text fill="#000000" font-family="sans-serif" font-size="14" lengthAdjust="spacing" textLength="9" x="1882" y="540.9766">0</text><line style="stroke:#A80036;stroke-width:1.0;" x1="1877" x2="1877" y1="525.4414" y2="545.9297"/><line style="stroke:#A80036;stroke-width:1.0;" x1="1790" x2="2325" y1="545.9297" y2="545.9297"/><text fill="#000000" font-family="sans-serif" font-size="14" lengthAdjust="spacing" textLength="69" x="1795" y="561.4648">maximum</text><text fill="#000000" font-family="sans-serif" font-size="14" lengthAdjust="spacing" textLength="27" x="1882" y="561.4648">100</text><line style="stroke:#A80036;stroke-width:1.0;" x1="1877" x2="1877" y1="545.9297" y2="566.418"/><rect fill="none" height="139.418" rx="5" ry="5" style="stroke:#A80036;stroke-width:1.5;" width="535" x="1790" y="427"/><rect fill="#FEFECE" height="139.418" rx="5" ry="5" style="stroke:#FEFECE;stroke-width:1.5;" width="502" x="1806.5" y="584"/><text fill="#000000" font-family="sans-serif" font-size="14" lengthAdjust="spacing" textLength="33" x="1811.5" y="599.5352">label</text><text fill="#000000" font-family="sans-serif" font-size="14" lengthAdjust="spacing" textLength="71" x="1898.5" y="599.5352">Duty Cycle</text><line style="stroke:#A80036;stroke-width:1.0;" x1="1893.5" x2="1893.5" y1="584" y2="604.4883"/><line style="stroke:#A80036;stroke-width:1.0;" x1="1806.5" x2="2308.5" y1="604.4883" y2="604.4883"/><text fill="#000000" font-family="sans-serif" font-size="14" lengthAdjust="spacing" textLength="77" x="1811.5" y="620.0234">description</text><text fill="#000000" font-family="sans-serif" font-size="14" lengthAdjust="spacing" textLength="391" x="1898.5" y="620.0234">Defines the duty cycle for the load control event, i.e, what</text><text fill="#000000" font-family="sans-serif" font-size="14" lengthAdjust="spacing" textLength="405" x="1898.5" y="636.5117">percentage of time the receiving device is allowed to be on.</text><line style="stroke:#A80036;stroke-width:1.0;" x1="1893.5" x2="1893.5" y1="604.4883" y2="641.4648"/><line style="stroke:#A80036;stroke-width:1.0;" x1="1806.5" x2="2308.5" y1="641.4648" y2="641.4648"/><text fill="#000000" font-family="sans-serif" font-size="14" lengthAdjust="spacing" textLength="29" x="1811.5" y="657">type</text><text fill="#000000" font-family="sans-serif" font-size="14" lengthAdjust="spacing" textLength="49" x="1898.5" y="657">integer</text><line style="stroke:#A80036;stroke-width:1.0;" x1="1893.5" x2="1893.5" y1="641.4648" y2="661.9531"/><line style="stroke:#A80036;stroke-width:1.0;" x1="1806.5" x2="2308.5" y1="661.9531" y2="661.9531"/><text fill="#000000" font-family="sans-serif" font-size="14" lengthAdjust="spacing" textLength="27" x="1811.5" y="677.4883">unit</text><text fill="#000000" font-family="sans-serif" font-size="14" lengthAdjust="spacing" textLength="34" x="1898.5" y="677.4883">/100</text><line style="stroke:#A80036;stroke-width:1.0;" x1="1893.5" x2="1893.5" y1="661.9531" y2="682.4414"/><line style="stroke:#A80036;stroke-width:1.0;" x1="1806.5" x2="2308.5" y1="682.4414" y2="682.4414"/><text fill="#000000" font-family="sans-serif" font-size="14" lengthAdjust="spacing" textLength="65" x="1811.5" y="697.9766">minimum</text><text fill="#000000" font-family="sans-serif" font-size="14" lengthAdjust="spacing" textLength="9" x="1898.5" y="697.9766">0</text><line style="stroke:#A80036;stroke-width:1.0;" x1="1893.5" x2="1893.5" y1="682.4414" y2="702.9297"/><line style="stroke:#A80036;stroke-width:1.0;" x1="1806.5" x2="2308.5" y1="702.9297" y2="702.9297"/><text fill="#000000" font-family="sans-serif" font-size="14" lengthAdjust="spacing" textLength="69" x="1811.5" y="718.4648">maximum</text><text fill="#000000" font-family="sans-serif" font-size="14" lengthAdjust="spacing" textLength="27" x="1898.5" y="718.4648">100</text><line style="stroke:#A80036;stroke-width:1.0;" x1="1893.5" x2="1893.5" y1="702.9297" y2="723.418"/><rect fill="none" height="139.418" rx="5" ry="5" style="stroke:#A80036;stroke-width:1.5;" width="502" x="1806.5" y="584"/><rect fill="#FEFECE" height="77.9531" rx="5" ry="5" style="stroke:#FEFECE;stroke-width:1.5;" width="563" x="1776" y="741.5"/><text fill="#000000" font-family="sans-serif" font-size="14" lengthAdjust="spacing" textLength="33" x="1781" y="757.0352">label</text><text fill="#000000" font-family="sans-serif" font-size="14" lengthAdjust="spacing" textLength="115" x="1868" y="757.0352">Application Type</text><line style="stroke:#A80036;stroke-width:1.0;" x1="1863" x2="1863" y1="741.5" y2="761.9883"/><line style="stroke:#A80036;stroke-width:1.0;" x1="1776" x2="2339" y1="761.9883" y2="761.9883"/><text fill="#000000" font-family="sans-serif" font-size="14" lengthAdjust="spacing" textLength="77" x="1781" y="777.5234">description</text><text fill="#000000" font-family="sans-serif" font-size="14" lengthAdjust="spacing" textLength="466" x="1868" y="777.5234">The application type of the sensor or actuator as a string depending</text><text fill="#000000" font-family="sans-serif" font-size="14" lengthAdjust="spacing" textLength="110" x="1868" y="794.0117">on the use case.</text><line style="stroke:#A80036;stroke-width:1.0;" x1="1863" x2="1863" y1="761.9883" y2="798.9648"/><line style="stroke:#A80036;stroke-width:1.0;" x1="1776" x2="2339" y1="798.9648" y2="798.9648"/><text fill="#000000" font-family="sans-serif" font-size="14" lengthAdjust="spacing" textLength="29" x="1781" y="814.5">type</text><text fill="#000000" font-family="sans-serif" font-size="14" lengthAdjust="spacing" textLength="40" x="1868" y="814.5">string</text><line style="stroke:#A80036;stroke-width:1.0;" x1="1863" x2="1863" y1="798.9648" y2="819.4531"/><rect fill="none" height="77.9531" rx="5" ry="5" style="stroke:#A80036;stroke-width:1.5;" width="563" x="1776" y="741.5"/><rect fill="#FEFECE" height="102.4414" rx="5" ry="5" style="stroke:#FEFECE;stroke-width:1.5;" width="493" x="1811" y="837.5"/><text fill="#000000" font-family="sans-serif" font-size="14" lengthAdjust="spacing" textLength="33" x="1816" y="853.0352">label</text><text fill="#000000" font-family="sans-serif" font-size="14" lengthAdjust="spacing" textLength="76" x="1903" y="853.0352">Timestamp</text><line style="stroke:#A80036;stroke-width:1.0;" x1="1898" x2="1898" y1="837.5" y2="857.9883"/><line style="stroke:#A80036;stroke-width:1.0;" x1="1811" x2="2304" y1="857.9883" y2="857.9883"/><text fill="#000000" font-family="sans-serif" font-size="14" lengthAdjust="spacing" textLength="77" x="1816" y="873.5234">description</text><text fill="#000000" font-family="sans-serif" font-size="14" lengthAdjust="spacing" textLength="396" x="1903" y="873.5234">The timestamp of when the measurement was performed.</text><line style="stroke:#A80036;stroke-width:1.0;" x1="1898" x2="1898" y1="857.9883" y2="878.4766"/><line style="stroke:#A80036;stroke-width:1.0;" x1="1811" x2="2304" y1="878.4766" y2="878.4766"/><text fill="#000000" font-family="sans-serif" font-size="14" lengthAdjust="spacing" textLength="55" x="1816" y="894.0117">writable</text><text fill="#000000" font-family="sans-serif" font-size="14" lengthAdjust="spacing" textLength="48" x="1903" y="894.0117">☐ false</text><line style="stroke:#A80036;stroke-width:1.0;" x1="1898" x2="1898" y1="878.4766" y2="898.9648"/><line style="stroke:#A80036;stroke-width:1.0;" x1="1811" x2="2304" y1="898.9648" y2="898.9648"/><text fill="#000000" font-family="sans-serif" font-size="14" lengthAdjust="spacing" textLength="29" x="1816" y="914.5">type</text><text fill="#000000" font-family="sans-serif" font-size="14" lengthAdjust="spacing" textLength="54" x="1903" y="914.5">number</text><line style="stroke:#A80036;stroke-width:1.0;" x1="1898" x2="1898" y1="898.9648" y2="919.4531"/><line style="stroke:#A80036;stroke-width:1.0;" x1="1811" x2="2304" y1="919.4531" y2="919.4531"/><text fill="#000000" font-family="sans-serif" font-size="14" lengthAdjust="spacing" textLength="54" x="1816" y="934.9883">sdfType</text><text fill="#000000" font-family="sans-serif" font-size="14" lengthAdjust="spacing" textLength="69" x="1903" y="934.9883">unix-time</text><line style="stroke:#A80036;stroke-width:1.0;" x1="1898" x2="1898" y1="919.4531" y2="939.9414"/><rect fill="none" height="102.4414" rx="5" ry="5" style="stroke:#A80036;stroke-width:1.5;" width="493" x="1811" y="837.5"/><rect fill="#FEFECE" height="159.9063" rx="5" ry="5" style="stroke:#FEFECE;stroke-width:1.5;" width="563" x="1776" y="957.5"/><text fill="#000000" font-family="sans-serif" font-size="14" lengthAdjust="spacing" textLength="33" x="1781" y="973.0352">label</text><text fill="#000000" font-family="sans-serif" font-size="14" lengthAdjust="spacing" textLength="148" x="1868" y="973.0352">Fractional Timestamp</text><line style="stroke:#A80036;stroke-width:1.0;" x1="1863" x2="1863" y1="957.5" y2="977.9883"/><line style="stroke:#A80036;stroke-width:1.0;" x1="1776" x2="2339" y1="977.9883" y2="977.9883"/><text fill="#000000" font-family="sans-serif" font-size="14" lengthAdjust="spacing" textLength="77" x="1781" y="993.5234">description</text><text fill="#000000" font-family="sans-serif" font-size="14" lengthAdjust="spacing" textLength="466" x="1868" y="993.5234">Fractional part of the timestamp when sub-second precision is used</text><text fill="#000000" font-family="sans-serif" font-size="14" lengthAdjust="spacing" textLength="157" x="1868" y="1010.0117">(e.g., 0.23 for 230 ms).</text><line style="stroke:#A80036;stroke-width:1.0;" x1="1863" x2="1863" y1="977.9883" y2="1014.9648"/><line style="stroke:#A80036;stroke-width:1.0;" x1="1776" x2="2339" y1="1014.9648" y2="1014.9648"/><text fill="#000000" font-family="sans-serif" font-size="14" lengthAdjust="spacing" textLength="55" x="1781" y="1030.5">writable</text><text fill="#000000" font-family="sans-serif" font-size="14" lengthAdjust="spacing" textLength="48" x="1868" y="1030.5">☐ false</text><line style="stroke:#A80036;stroke-width:1.0;" x1="1863" x2="1863" y1="1014.9648" y2="1035.4531"/><line style="stroke:#A80036;stroke-width:1.0;" x1="1776" x2="2339" y1="1035.4531" y2="1035.4531"/><text fill="#000000" font-family="sans-serif" font-size="14" lengthAdjust="spacing" textLength="29" x="1781" y="1050.9883">type</text><text fill="#000000" font-family="sans-serif" font-size="14" lengthAdjust="spacing" textLength="54" x="1868" y="1050.9883">number</text><line style="stroke:#A80036;stroke-width:1.0;" x1="1863" x2="1863" y1="1035.4531" y2="1055.9414"/><line style="stroke:#A80036;stroke-width:1.0;" x1="1776" x2="2339" y1="1055.9414" y2="1055.9414"/><text fill="#000000" font-family="sans-serif" font-size="14" lengthAdjust="spacing" textLength="27" x="1781" y="1071.4766">unit</text><text fill="#000000" font-family="sans-serif" font-size="14" lengthAdjust="spacing" textLength="7" x="1868" y="1071.4766">s</text><line style="stroke:#A80036;stroke-width:1.0;" x1="1863" x2="1863" y1="1055.9414" y2="1076.4297"/><line style="stroke:#A80036;stroke-width:1.0;" x1="1776" x2="2339" y1="1076.4297" y2="1076.4297"/><text fill="#000000" font-family="sans-serif" font-size="14" lengthAdjust="spacing" textLength="65" x="1781" y="1091.9648">minimum</text><text fill="#000000" font-family="sans-serif" font-size="14" lengthAdjust="spacing" textLength="9" x="1868" y="1091.9648">0</text><line style="stroke:#A80036;stroke-width:1.0;" x1="1863" x2="1863" y1="1076.4297" y2="1096.918"/><line style="stroke:#A80036;stroke-width:1.0;" x1="1776" x2="2339" y1="1096.918" y2="1096.918"/><text fill="#000000" font-family="sans-serif" font-size="14" lengthAdjust="spacing" textLength="69" x="1781" y="1112.4531">maximum</text><text fill="#000000" font-family="sans-serif" font-size="14" lengthAdjust="spacing" textLength="9" x="1868" y="1112.4531">1</text><line style="stroke:#A80036;stroke-width:1.0;" x1="1863" x2="1863" y1="1096.918" y2="1117.4063"/><rect fill="none" height="159.9063" rx="5" ry="5" style="stroke:#A80036;stroke-width:1.5;" width="563" x="1776" y="957.5"/><rect fill="#FEFECE" height="15" rx="5" ry="5" style="stroke:#FEFECE;stroke-width:1.5;" width="30" x="1529.5" y="607.5"/><rect fill="none" height="15" rx="5" ry="5" style="stroke:#A80036;stroke-width:1.5;" width="30" x="1529.5" y="607.5"/><rect fill="#FEFECE" height="61.4648" rx="5" ry="5" style="stroke:#FEFECE;stroke-width:1.5;" width="395" x="1344" y="642"/><text fill="#000000" font-family="sans-serif" font-size="14" lengthAdjust="spacing" textLength="379" x="1349" y="657.5352">#/sdfObject/Load_Control/sdfProperty/Event_Identifier</text><line style="stroke:#A80036;stroke-width:1.0;" x1="1344" x2="1739" y1="662.4883" y2="662.4883"/><text fill="#000000" font-family="sans-serif" font-size="14" lengthAdjust="spacing" textLength="346" x="1349" y="678.0234">#/sdfObject/Load_Control/sdfProperty/Start_Time</text><line style="stroke:#A80036;stroke-width:1.0;" x1="1344" x2="1739" y1="682.9766" y2="682.9766"/><text fill="#000000" font-family="sans-serif" font-size="14" lengthAdjust="spacing" textLength="385" x="1349" y="698.5117">#/sdfObject/Load_Control/sdfProperty/Duration_In_Min</text><rect fill="none" height="61.4648" rx="5" ry="5" style="stroke:#A80036;stroke-width:1.5;" width="395" x="1344" y="642"/><path d="M95,546.5 L108,546.5 C117.3406,546.5 126.8353,546.3896 136.4202,546.1839 " fill="none" style="stroke:#A80036;stroke-width:1.0;stroke-dasharray:3.0,3.0;"/><path d="M136.4943,549.2659 L138.7318,546.1283 L136.3462,543.1019 L144.1253,545.9987 L136.4943,549.2659 " fill="#A80036" style="stroke:#A80036;stroke-width:1.0;"/><ellipse cx="95" cy="546.5" fill="#A80036" rx="3" ry="3" style="stroke:#A80036;stroke-width:1.0;stroke-dasharray:3.0,3.0;"/><path d="M1622,415.5 L1635,415.5 C1796.5395,415.5 1648.0789,179.1469 1776,80.5 C1809.9584,54.3129 1853.3014,41.3075 1895.7244,35.548 " fill="none" style="stroke:#A80036;stroke-width:1.0;stroke-dasharray:3.0,3.0;"/><path d="M1896.1085,38.5997 L1898.0131,35.2599 L1895.3402,32.4963 L1903.3536,34.5877 L1896.1085,38.5997 " fill="#A80036" style="stroke:#A80036;stroke-width:1.0;"/><ellipse cx="1622" cy="415.5" fill="#A80036" rx="3" ry="3" style="stroke:#A80036;stroke-width:1.0;stroke-dasharray:3.0,3.0;"/><path d="M1622,435.5 L1635,435.5 C1764.505,435.5 1670.6661,255.8413 1776,180.5 C1812.5747,154.3395 1858.5303,140.4432 1902.6197,133.4033 " fill="none" style="stroke:#A80036;stroke-width:1.0;stroke-dasharray:3.0,3.0;"/><path d="M1903.0813,136.4557 L1904.909,133.0571 L1902.1581,130.351 L1910.2507,132.2493 L1903.0813,136.4557 " fill="#A80036" style="stroke:#A80036;stroke-width:1.0;"/><ellipse cx="1622" cy="435.5" fill="#A80036" rx="3" ry="3" style="stroke:#A80036;stroke-width:1.0;stroke-dasharray:3.0,3.0;"/><path d="M1622,455.5 L1635,455.5 C1734.8824,455.5 1690.0406,331.3672 1776,280.5 C1805.8591,262.8307 1840.406,251.0865 1874.8425,243.348 " fill="none" style="stroke:#A80036;stroke-width:1.0;stroke-dasharray:3.0,3.0;"/><path d="M1875.479,246.286 L1877.046,242.8707 L1874.2061,240.41 L1882.1875,241.7568 L1875.479,246.286 " fill="#A80036" style="stroke:#A80036;stroke-width:1.0;"/><ellipse cx="1622" cy="455.5" fill="#A80036" rx="3" ry="3" style="stroke:#A80036;stroke-width:1.0;stroke-dasharray:3.0,3.0;"/><path d="M1622,476.5 L1635,476.5 C1702.9317,476.5 1711.4501,438.6668 1776,417.5 C1782.4797,415.3752 1789.063,413.2845 1795.7208,411.2301 " fill="none" style="stroke:#A80036;stroke-width:1.0;stroke-dasharray:3.0,3.0;"/><path d="M1796.6067,414.1309 L1797.8965,410.5656 L1794.8349,408.3292 L1802.973,409.0152 L1796.6067,414.1309 " fill="#A80036" style="stroke:#A80036;stroke-width:1.0;"/><ellipse cx="1622" cy="476.5" fill="#A80036" rx="3" ry="3" style="stroke:#A80036;stroke-width:1.0;stroke-dasharray:3.0,3.0;"/><path d="M1622,496.5 L1635,496.5 C1682.7353,496.5 1733.5079,496.5 1782.6796,496.5 " fill="none" style="stroke:#A80036;stroke-width:1.0;stroke-dasharray:3.0,3.0;"/><path d="M1782.6796,499.5237 L1784.9474,496.5 L1782.6796,493.4763 L1790.2389,496.5 L1782.6796,499.5237 " fill="#A80036" style="stroke:#A80036;stroke-width:1.0;"/><ellipse cx="1622" cy="496.5" fill="#A80036" rx="3" ry="3" style="stroke:#A80036;stroke-width:1.0;stroke-dasharray:3.0,3.0;"/><path d="M1622,517.5 L1635,517.5 C1702.7614,517.5 1711.906,553.5099 1776,575.5 C1783.6997,578.1417 1791.5406,580.7592 1799.4746,583.3452 " fill="none" style="stroke:#A80036;stroke-width:1.0;stroke-dasharray:3.0,3.0;"/><path d="M1798.5283,586.2697 L1801.668,584.055 L1800.421,580.4208 L1806.7858,585.711 L1798.5283,586.2697 " fill="#A80036" style="stroke:#A80036;stroke-width:1.0;"/><ellipse cx="1622" cy="517.5" fill="#A80036" rx="3" ry="3" style="stroke:#A80036;stroke-width:1.0;stroke-dasharray:3.0,3.0;"/><path d="M1622,538.5 L1635,538.5 C1688.7484,538.5 1707.1712,555.9423 1740,598.5 C1777.6657,647.3279 1730.4091,690.9749 1776,732.5 C1777.5207,733.8851 1779.0662,735.2379 1780.6351,736.5591 " fill="none" style="stroke:#A80036;stroke-width:1.0;stroke-dasharray:3.0,3.0;"/><path d="M1778.6589,739.0252 L1782.4847,738.0412 L1782.6112,734.0929 L1786.8005,741.4995 L1778.6589,739.0252 " fill="#A80036" style="stroke:#A80036;stroke-width:1.0;"/><ellipse cx="1622" cy="538.5" fill="#A80036" rx="3" ry="3" style="stroke:#A80036;stroke-width:1.0;stroke-dasharray:3.0,3.0;"/><path d="M1622,558.5 L1635,558.5 C1684.9382,558.5 1708.5588,559.7021 1740,598.5 C1805.1428,678.8853 1704.8811,753.3502 1776,828.5 C1784.6605,837.6514 1794.3475,845.581 1804.774,852.4409 " fill="none" style="stroke:#A80036;stroke-width:1.0;stroke-dasharray:3.0,3.0;"/><path d="M1803.1203,855.0749 L1806.7495,853.6813 L1806.4278,849.8069 L1811.359,856.5753 L1803.1203,855.0749 " fill="#A80036" style="stroke:#A80036;stroke-width:1.0;"/><ellipse cx="1622" cy="558.5" fill="#A80036" rx="3" ry="3" style="stroke:#A80036;stroke-width:1.0;stroke-dasharray:3.0,3.0;"/><path d="M1623,577.5 L1623,590.5 C1623,603.5304 1730.6298,589.4452 1740,598.5 C1796.2254,652.8331 1726.6366,887.8647 1776,948.5 C1776.8607,949.5572 1777.7339,950.6021 1778.6193,951.6348 " fill="none" style="stroke:#A80036;stroke-width:1.0;stroke-dasharray:3.0,3.0;"/><path d="M1776.3067,953.7153 L1780.1797,953.3692 L1780.9319,949.5542 L1783.8206,957.4163 L1776.3067,953.7153 " fill="#A80036" style="stroke:#A80036;stroke-width:1.0;"/><ellipse cx="1623" cy="577.5" fill="#A80036" rx="3" ry="3" style="stroke:#A80036;stroke-width:1.0;stroke-dasharray:3.0,3.0;"/><path d="M1295,590.5 L1308,590.5 C1354.6281,590.5 1403.0051,574.2359 1443.5138,555.3107 " fill="none" style="stroke:#A80036;stroke-width:1.0;stroke-dasharray:3.0,3.0;"/><path d="M1444.8372,558.0905 L1445.5987,554.3181 L1442.1903,552.5308 L1450.4634,552.002 L1444.8372,558.0905 " fill="#A80036" style="stroke:#A80036;stroke-width:1.0;"/><ellipse cx="1295" cy="590.5" fill="#A80036" rx="3" ry="3" style="stroke:#A80036;stroke-width:1.0;stroke-dasharray:3.0,3.0;"/><path d="M1295,615.5 L1308,615.5 C1387.6845,615.5 1482.698,615.5 1522.2678,615.5 " fill="none" style="stroke:#A80036;stroke-width:1.0;stroke-dasharray:3.0,3.0;"/><path d="M1522.2678,618.5307 L1524.5408,615.5 L1522.2678,612.4693 L1529.8446,615.5 L1522.2678,618.5307 " fill="#A80036" style="stroke:#A80036;stroke-width:1.0;"/><ellipse cx="1295" cy="615.5" fill="#A80036" rx="3" ry="3" style="stroke:#A80036;stroke-width:1.0;stroke-dasharray:3.0,3.0;"/><path d="M1295,639.5 L1308,639.5 C1323.0972,639.5 1338.6908,640.1876 1354.3229,641.3643 " fill="none" style="stroke:#A80036;stroke-width:1.0;stroke-dasharray:3.0,3.0;"/><path d="M1354.0765,644.4343 L1356.6254,641.5491 L1354.5693,638.2943 L1361.9979,641.9804 L1354.0765,644.4343 " fill="#A80036" style="stroke:#A80036;stroke-width:1.0;"/><ellipse cx="1295" cy="639.5" fill="#A80036" rx="3" ry="3" style="stroke:#A80036;stroke-width:1.0;stroke-dasharray:3.0,3.0;"/><path d="M468,591.5 L481,591.5 C558.7523,591.5 642.8489,591.5 720.8656,591.5 " fill="none" style="stroke:#A80036;stroke-width:1.0;stroke-dasharray:3.0,3.0;"/><path d="M720.8656,594.5122 L723.1248,591.5 L720.8656,588.4878 L728.3962,591.5 L720.8656,594.5122 " fill="#A80036" style="stroke:#A80036;stroke-width:1.0;"/><ellipse cx="468" cy="591.5" fill="#A80036" rx="3" ry="3" style="stroke:#A80036;stroke-width:1.0;stroke-dasharray:3.0,3.0;"/><path d="M95,567.5 L108,567.5 C124.1536,567.5 127.9333,570.8271 144,572.5 C213.3908,579.7249 292.9993,584.9128 348.2723,588.0234 " fill="none" style="stroke:#A80036;stroke-width:1.0;stroke-dasharray:3.0,3.0;"/><path d="M348.1022,591.077 L350.5625,588.1509 L348.4423,584.9697 L355.9064,588.4485 L348.1022,591.077 " fill="#A80036" style="stroke:#A80036;stroke-width:1.0;"/><ellipse cx="95" cy="567.5" fill="#A80036" rx="3" ry="3" style="stroke:#A80036;stroke-width:1.0;stroke-dasharray:3.0,3.0;"/><!--MD5=[4212834e2b272847c32d2bc73ec6e2bb]
@startjson
{
  "info": {
    "title": "OMA LwM2M Load Control (Object ID 3310)",
    "version": "2021-02-11",
    "copyright": "Copyright (c) 2018-2020 IPSO",
    "license": "https://github.com/one-data-model/oneDM/blob/master/LICENSE"
  },
  "sdfObject": {
    "Load_Control": {
      "label": "Load Control",
      "description": "This Object is used for demand-response load control and other load\\ncontrol in automation application (not limited to power).",
      "sdfProperty": {
        "Event_Identifier": {
          "label": "Event Identifier",
          "description": "The event identifier as a string.",
          "type": "string"
        },
        "Start_Time": {
          "label": "Start Time",
          "description": "Time when the event started.",
          "type": "number",
          "sdfType": "unix-time"
        },
        "Duration_In_Min": {
          "label": "Duration In Min",
          "description": "The duration of the event in minutes.",
          "type": "integer",
          "unit": "min"
        },
        "Criticality_Level": {
          "label": "Criticality Level",
          "description": "The criticality of the event. The device receiving the event will\\nreact in an appropriate fashion for the device.",
          "type": "integer",
          "minimum": 0,
          "maximum": 3
        },
        "Avg_Load_AdjPct": {
          "label": "Avg Load AdjPct",
          "description": "Defines the maximum energy usage of the receiving device, as a\\npercentage of the device's normal maximum energy usage.",
          "type": "integer",
          "unit": "/100",
          "minimum": 0,
          "maximum": 100
        },
        "Duty_Cycle": {
          "label": "Duty Cycle",
          "description": "Defines the duty cycle for the load control event, i.e, what\\npercentage of time the receiving device is allowed to be on.",
          "type": "integer",
          "unit": "/100",
          "minimum": 0,
          "maximum": 100
        },
        "Application_Type": {
          "label": "Application Type",
          "description": "The application type of the sensor or actuator as a string depending\\non the use case.",
          "type": "string"
        },
        "Timestamp": {
          "label": "Timestamp",
          "description": "The timestamp of when the measurement was performed.",
          "writable": false,
          "type": "number",
          "sdfType": "unix-time"
        },
        "Fractional_Timestamp": {
          "label": "Fractional Timestamp",
          "description": "Fractional part of the timestamp when sub-second precision is used\\n(e.g., 0.23 for 230 ms).",
          "writable": false,
          "type": "number",
          "unit": "s",
          "minimum": 0,
          "maximum": 1
        }
      },
      "sdfAction": {},
      "sdfRequired": [
        "#/sdfObject/Load_Control/sdfProperty/Event_Identifier",
        "#/sdfObject/Load_Control/sdfProperty/Start_Time",
        "#/sdfObject/Load_Control/sdfProperty/Duration_In_Min"
      ]
    }
  }
}
@endjson

PlantUML version 1.2021.2(Sun Mar 07 13:10:27 EET 2021)
(GPL source distribution)
Java Runtime: OpenJDK Runtime Environment
JVM: OpenJDK 64-Bit Server VM
Default Encoding: UTF-8
Language: en
Country: FI
--></g></svg>