<?xml version="1.0" encoding="UTF-8" standalone="no"?><svg xmlns="http://www.w3.org/2000/svg" xmlns:xlink="http://www.w3.org/1999/xlink" contentScriptType="application/ecmascript" contentStyleType="text/css" height="777px" preserveAspectRatio="none" style="width:2608px;height:777px;" version="1.1" viewBox="0 0 2608 777" width="2608px" zoomAndPan="magnify"><defs/><g><rect fill="#FEFECE" height="40.9766" rx="5" ry="5" style="stroke:#FEFECE;stroke-width:1.5;" width="97" x="10" y="322.5"/><text fill="#000000" font-family="sans-serif" font-size="14" lengthAdjust="spacing" textLength="27" x="15" y="338.0352">info</text><text fill="#000000" font-family="sans-serif" font-size="14" lengthAdjust="spacing" textLength="0" x="102" y="338.0352"/><line style="stroke:#A80036;stroke-width:1.0;" x1="85" x2="85" y1="322.5" y2="342.9883"/><line style="stroke:#A80036;stroke-width:1.0;" x1="10" x2="107" y1="342.9883" y2="342.9883"/><text fill="#000000" font-family="sans-serif" font-size="14" lengthAdjust="spacing" textLength="65" x="15" y="358.5234">sdfObject</text><text fill="#000000" font-family="sans-serif" font-size="14" lengthAdjust="spacing" textLength="0" x="102" y="358.5234"/><line style="stroke:#A80036;stroke-width:1.0;" x1="85" x2="85" y1="342.9883" y2="363.4766"/><rect fill="none" height="40.9766" rx="5" ry="5" style="stroke:#A80036;stroke-width:1.5;" width="97" x="10" y="322.5"/><rect fill="#FEFECE" height="81.9531" rx="5" ry="5" style="stroke:#FEFECE;stroke-width:1.5;" width="614" x="144" y="267"/><text fill="#000000" font-family="sans-serif" font-size="14" lengthAdjust="spacing" textLength="65" x="149" y="282.5352">copyright</text><text fill="#000000" font-family="sans-serif" font-size="14" lengthAdjust="spacing" textLength="529" x="224" y="282.5352">Copyright 2016-2019 Open Connectivity Foundation, Inc. All rights reserved.</text><line style="stroke:#A80036;stroke-width:1.0;" x1="219" x2="219" y1="267" y2="287.4883"/><line style="stroke:#A80036;stroke-width:1.0;" x1="144" x2="758" y1="287.4883" y2="287.4883"/><text fill="#000000" font-family="sans-serif" font-size="14" lengthAdjust="spacing" textLength="47" x="149" y="303.0234">license</text><text fill="#000000" font-family="sans-serif" font-size="14" lengthAdjust="spacing" textLength="462" x="224" y="303.0234">https://github.com/one-data-model/oneDM/blob/master/LICENSE</text><line style="stroke:#A80036;stroke-width:1.0;" x1="219" x2="219" y1="287.4883" y2="307.9766"/><line style="stroke:#A80036;stroke-width:1.0;" x1="144" x2="758" y1="307.9766" y2="307.9766"/><text fill="#000000" font-family="sans-serif" font-size="14" lengthAdjust="spacing" textLength="26" x="149" y="323.5117">title</text><text fill="#000000" font-family="sans-serif" font-size="14" lengthAdjust="spacing" textLength="259" x="224" y="323.5117">Context Medication for Glucose Meter</text><line style="stroke:#A80036;stroke-width:1.0;" x1="219" x2="219" y1="307.9766" y2="328.4648"/><line style="stroke:#A80036;stroke-width:1.0;" x1="144" x2="758" y1="328.4648" y2="328.4648"/><text fill="#000000" font-family="sans-serif" font-size="14" lengthAdjust="spacing" textLength="50" x="149" y="344">version</text><text fill="#000000" font-family="sans-serif" font-size="14" lengthAdjust="spacing" textLength="88" x="224" y="344">2019-03-22</text><line style="stroke:#A80036;stroke-width:1.0;" x1="219" x2="219" y1="328.4648" y2="348.9531"/><rect fill="none" height="81.9531" rx="5" ry="5" style="stroke:#A80036;stroke-width:1.5;" width="614" x="144" y="267"/><rect fill="#FEFECE" height="20.4883" rx="5" ry="5" style="stroke:#FEFECE;stroke-width:1.5;" width="165" x="368.5" y="367"/><text fill="#000000" font-family="sans-serif" font-size="14" lengthAdjust="spacing" textLength="133" x="373.5" y="382.5352">glucose.medication</text><text fill="#000000" font-family="sans-serif" font-size="14" lengthAdjust="spacing" textLength="0" x="528.5" y="382.5352"/><line style="stroke:#A80036;stroke-width:1.0;" x1="511.5" x2="511.5" y1="367" y2="387.4883"/><rect fill="none" height="20.4883" rx="5" ry="5" style="stroke:#A80036;stroke-width:1.5;" width="165" x="368.5" y="367"/><rect fill="#FEFECE" height="143.9063" rx="5" ry="5" style="stroke:#FEFECE;stroke-width:1.5;" width="581" x="795" y="305"/><text fill="#000000" font-family="sans-serif" font-size="14" lengthAdjust="spacing" textLength="77" x="800" y="320.5352">description</text><text fill="#000000" font-family="sans-serif" font-size="14" lengthAdjust="spacing" textLength="430" x="893" y="320.5352">This Resource describes the Properties associated with context</text><text fill="#000000" font-family="sans-serif" font-size="14" lengthAdjust="spacing" textLength="461" x="893" y="337.0234">medication. The unit is a single value that is one of mg and mL. The</text><text fill="#000000" font-family="sans-serif" font-size="14" lengthAdjust="spacing" textLength="421" x="893" y="353.5117">medication Property has a default unit of milligrams[mg]. The</text><text fill="#000000" font-family="sans-serif" font-size="14" lengthAdjust="spacing" textLength="478" x="893" y="370">medication, unit and regimen Properties are read-only values that are</text><text fill="#000000" font-family="sans-serif" font-size="14" lengthAdjust="spacing" textLength="440" x="893" y="386.4883">provided by the Server. When range is omitted the default is 0 to</text><text fill="#000000" font-family="sans-serif" font-size="14" lengthAdjust="spacing" textLength="91" x="893" y="402.9766">+MAXFLOAT.</text><line style="stroke:#A80036;stroke-width:1.0;" x1="888" x2="888" y1="305" y2="407.9297"/><line style="stroke:#A80036;stroke-width:1.0;" x1="795" x2="1376" y1="407.9297" y2="407.9297"/><text fill="#000000" font-family="sans-serif" font-size="14" lengthAdjust="spacing" textLength="79" x="800" y="423.4648">sdfProperty</text><text fill="#000000" font-family="sans-serif" font-size="14" lengthAdjust="spacing" textLength="0" x="905" y="423.4648"/><line style="stroke:#A80036;stroke-width:1.0;" x1="888" x2="888" y1="407.9297" y2="428.418"/><line style="stroke:#A80036;stroke-width:1.0;" x1="795" x2="1376" y1="428.418" y2="428.418"/><text fill="#000000" font-family="sans-serif" font-size="14" lengthAdjust="spacing" textLength="83" x="800" y="443.9531">sdfRequired</text><text fill="#000000" font-family="sans-serif" font-size="14" lengthAdjust="spacing" textLength="0" x="905" y="443.9531"/><line style="stroke:#A80036;stroke-width:1.0;" x1="888" x2="888" y1="428.418" y2="448.9063"/><rect fill="none" height="143.9063" rx="5" ry="5" style="stroke:#A80036;stroke-width:1.5;" width="581" x="795" y="305"/><rect fill="#FEFECE" height="122.9297" rx="5" ry="5" style="stroke:#FEFECE;stroke-width:1.5;" width="108" x="1559" y="294.5"/><text fill="#000000" font-family="sans-serif" font-size="14" lengthAdjust="spacing" textLength="57" x="1564" y="310.0352">regimen</text><text fill="#000000" font-family="sans-serif" font-size="14" lengthAdjust="spacing" textLength="0" x="1662" y="310.0352"/><line style="stroke:#A80036;stroke-width:1.0;" x1="1645" x2="1645" y1="294.5" y2="314.9883"/><line style="stroke:#A80036;stroke-width:1.0;" x1="1559" x2="1667" y1="314.9883" y2="314.9883"/><text fill="#000000" font-family="sans-serif" font-size="14" lengthAdjust="spacing" textLength="76" x="1564" y="330.5234">medication</text><text fill="#000000" font-family="sans-serif" font-size="14" lengthAdjust="spacing" textLength="0" x="1662" y="330.5234"/><line style="stroke:#A80036;stroke-width:1.0;" x1="1645" x2="1645" y1="314.9883" y2="335.4766"/><line style="stroke:#A80036;stroke-width:1.0;" x1="1559" x2="1667" y1="335.4766" y2="335.4766"/><text fill="#000000" font-family="sans-serif" font-size="14" lengthAdjust="spacing" textLength="34" x="1564" y="351.0117">units</text><text fill="#000000" font-family="sans-serif" font-size="14" lengthAdjust="spacing" textLength="0" x="1662" y="351.0117"/><line style="stroke:#A80036;stroke-width:1.0;" x1="1645" x2="1645" y1="335.4766" y2="355.9648"/><line style="stroke:#A80036;stroke-width:1.0;" x1="1559" x2="1667" y1="355.9648" y2="355.9648"/><text fill="#000000" font-family="sans-serif" font-size="14" lengthAdjust="spacing" textLength="40" x="1564" y="371.5">range</text><text fill="#000000" font-family="sans-serif" font-size="14" lengthAdjust="spacing" textLength="0" x="1662" y="371.5"/><line style="stroke:#A80036;stroke-width:1.0;" x1="1645" x2="1645" y1="355.9648" y2="376.4531"/><line style="stroke:#A80036;stroke-width:1.0;" x1="1559" x2="1667" y1="376.4531" y2="376.4531"/><text fill="#000000" font-family="sans-serif" font-size="14" lengthAdjust="spacing" textLength="29" x="1564" y="391.9883">step</text><text fill="#000000" font-family="sans-serif" font-size="14" lengthAdjust="spacing" textLength="0" x="1662" y="391.9883"/><line style="stroke:#A80036;stroke-width:1.0;" x1="1645" x2="1645" y1="376.4531" y2="396.9414"/><line style="stroke:#A80036;stroke-width:1.0;" x1="1559" x2="1667" y1="396.9414" y2="396.9414"/><text fill="#000000" font-family="sans-serif" font-size="14" lengthAdjust="spacing" textLength="63" x="1564" y="412.4766">precision</text><text fill="#000000" font-family="sans-serif" font-size="14" lengthAdjust="spacing" textLength="0" x="1662" y="412.4766"/><line style="stroke:#A80036;stroke-width:1.0;" x1="1645" x2="1645" y1="396.9414" y2="417.4297"/><rect fill="none" height="122.9297" rx="5" ry="5" style="stroke:#A80036;stroke-width:1.5;" width="108" x="1559" y="294.5"/><rect fill="#FEFECE" height="81.9531" rx="5" ry="5" style="stroke:#FEFECE;stroke-width:1.5;" width="233" x="2018.5" y="31"/><text fill="#000000" font-family="sans-serif" font-size="14" lengthAdjust="spacing" textLength="77" x="2023.5" y="46.5352">description</text><text fill="#000000" font-family="sans-serif" font-size="14" lengthAdjust="spacing" textLength="136" x="2110.5" y="46.5352">Medication regimen</text><line style="stroke:#A80036;stroke-width:1.0;" x1="2105.5" x2="2105.5" y1="31" y2="51.4883"/><line style="stroke:#A80036;stroke-width:1.0;" x1="2018.5" x2="2251.5" y1="51.4883" y2="51.4883"/><text fill="#000000" font-family="sans-serif" font-size="14" lengthAdjust="spacing" textLength="39" x="2023.5" y="67.0234">enum</text><text fill="#000000" font-family="sans-serif" font-size="14" lengthAdjust="spacing" textLength="0" x="2122.5" y="67.0234"/><line style="stroke:#A80036;stroke-width:1.0;" x1="2105.5" x2="2105.5" y1="51.4883" y2="71.9766"/><line style="stroke:#A80036;stroke-width:1.0;" x1="2018.5" x2="2251.5" y1="71.9766" y2="71.9766"/><text fill="#000000" font-family="sans-serif" font-size="14" lengthAdjust="spacing" textLength="55" x="2023.5" y="87.5117">writable</text><text fill="#000000" font-family="sans-serif" font-size="14" lengthAdjust="spacing" textLength="48" x="2110.5" y="87.5117">☐ false</text><line style="stroke:#A80036;stroke-width:1.0;" x1="2105.5" x2="2105.5" y1="71.9766" y2="92.4648"/><line style="stroke:#A80036;stroke-width:1.0;" x1="2018.5" x2="2251.5" y1="92.4648" y2="92.4648"/><text fill="#000000" font-family="sans-serif" font-size="14" lengthAdjust="spacing" textLength="29" x="2023.5" y="108">type</text><text fill="#000000" font-family="sans-serif" font-size="14" lengthAdjust="spacing" textLength="40" x="2110.5" y="108">string</text><line style="stroke:#A80036;stroke-width:1.0;" x1="2105.5" x2="2105.5" y1="92.4648" y2="112.9531"/><rect fill="none" height="81.9531" rx="5" ry="5" style="stroke:#A80036;stroke-width:1.5;" width="233" x="2018.5" y="31"/><rect fill="#FEFECE" height="102.4414" rx="5" ry="5" style="stroke:#FEFECE;stroke-width:1.5;" width="139" x="2457" y="10"/><text fill="#000000" font-family="sans-serif" font-size="14" lengthAdjust="spacing" textLength="78" x="2462" y="25.5352">rapidacting</text><line style="stroke:#A80036;stroke-width:1.0;" x1="2457" x2="2596" y1="30.4883" y2="30.4883"/><text fill="#000000" font-family="sans-serif" font-size="14" lengthAdjust="spacing" textLength="78" x="2462" y="46.0234">shortacting</text><line style="stroke:#A80036;stroke-width:1.0;" x1="2457" x2="2596" y1="50.9766" y2="50.9766"/><text fill="#000000" font-family="sans-serif" font-size="14" lengthAdjust="spacing" textLength="129" x="2462" y="66.5117">intermediateacting</text><line style="stroke:#A80036;stroke-width:1.0;" x1="2457" x2="2596" y1="71.4648" y2="71.4648"/><text fill="#000000" font-family="sans-serif" font-size="14" lengthAdjust="spacing" textLength="73" x="2462" y="87">longacting</text><line style="stroke:#A80036;stroke-width:1.0;" x1="2457" x2="2596" y1="91.9531" y2="91.9531"/><text fill="#000000" font-family="sans-serif" font-size="14" lengthAdjust="spacing" textLength="49" x="2462" y="107.4883">premix</text><rect fill="none" height="102.4414" rx="5" ry="5" style="stroke:#A80036;stroke-width:1.5;" width="139" x="2457" y="10"/><rect fill="#FEFECE" height="81.9531" rx="5" ry="5" style="stroke:#FEFECE;stroke-width:1.5;" width="320" x="1975" y="131"/><text fill="#000000" font-family="sans-serif" font-size="14" lengthAdjust="spacing" textLength="77" x="1980" y="146.5352">description</text><text fill="#000000" font-family="sans-serif" font-size="14" lengthAdjust="spacing" textLength="223" x="2067" y="146.5352">The amount of medication taken</text><line style="stroke:#A80036;stroke-width:1.0;" x1="2062" x2="2062" y1="131" y2="151.4883"/><line style="stroke:#A80036;stroke-width:1.0;" x1="1975" x2="2295" y1="151.4883" y2="151.4883"/><text fill="#000000" font-family="sans-serif" font-size="14" lengthAdjust="spacing" textLength="55" x="1980" y="167.0234">writable</text><text fill="#000000" font-family="sans-serif" font-size="14" lengthAdjust="spacing" textLength="48" x="2067" y="167.0234">☐ false</text><line style="stroke:#A80036;stroke-width:1.0;" x1="2062" x2="2062" y1="151.4883" y2="171.9766"/><line style="stroke:#A80036;stroke-width:1.0;" x1="1975" x2="2295" y1="171.9766" y2="171.9766"/><text fill="#000000" font-family="sans-serif" font-size="14" lengthAdjust="spacing" textLength="29" x="1980" y="187.5117">type</text><text fill="#000000" font-family="sans-serif" font-size="14" lengthAdjust="spacing" textLength="54" x="2067" y="187.5117">number</text><line style="stroke:#A80036;stroke-width:1.0;" x1="2062" x2="2062" y1="171.9766" y2="192.4648"/><line style="stroke:#A80036;stroke-width:1.0;" x1="1975" x2="2295" y1="192.4648" y2="192.4648"/><text fill="#000000" font-family="sans-serif" font-size="14" lengthAdjust="spacing" textLength="65" x="1980" y="208">minimum</text><text fill="#000000" font-family="sans-serif" font-size="14" lengthAdjust="spacing" textLength="9" x="2067" y="208">0</text><line style="stroke:#A80036;stroke-width:1.0;" x1="2062" x2="2062" y1="192.4648" y2="212.9531"/><rect fill="none" height="81.9531" rx="5" ry="5" style="stroke:#A80036;stroke-width:1.5;" width="320" x="1975" y="131"/><rect fill="#FEFECE" height="102.4414" rx="5" ry="5" style="stroke:#FEFECE;stroke-width:1.5;" width="372" x="1949" y="231"/><text fill="#000000" font-family="sans-serif" font-size="14" lengthAdjust="spacing" textLength="77" x="1954" y="246.5352">description</text><text fill="#000000" font-family="sans-serif" font-size="14" lengthAdjust="spacing" textLength="275" x="2041" y="246.5352">Unit for the amount of medication taken</text><line style="stroke:#A80036;stroke-width:1.0;" x1="2036" x2="2036" y1="231" y2="251.4883"/><line style="stroke:#A80036;stroke-width:1.0;" x1="1949" x2="2321" y1="251.4883" y2="251.4883"/><text fill="#000000" font-family="sans-serif" font-size="14" lengthAdjust="spacing" textLength="39" x="1954" y="267.0234">enum</text><text fill="#000000" font-family="sans-serif" font-size="14" lengthAdjust="spacing" textLength="0" x="2053" y="267.0234"/><line style="stroke:#A80036;stroke-width:1.0;" x1="2036" x2="2036" y1="251.4883" y2="271.9766"/><line style="stroke:#A80036;stroke-width:1.0;" x1="1949" x2="2321" y1="271.9766" y2="271.9766"/><text fill="#000000" font-family="sans-serif" font-size="14" lengthAdjust="spacing" textLength="55" x="1954" y="287.5117">writable</text><text fill="#000000" font-family="sans-serif" font-size="14" lengthAdjust="spacing" textLength="48" x="2041" y="287.5117">☐ false</text><line style="stroke:#A80036;stroke-width:1.0;" x1="2036" x2="2036" y1="271.9766" y2="292.4648"/><line style="stroke:#A80036;stroke-width:1.0;" x1="1949" x2="2321" y1="292.4648" y2="292.4648"/><text fill="#000000" font-family="sans-serif" font-size="14" lengthAdjust="spacing" textLength="29" x="1954" y="308">type</text><text fill="#000000" font-family="sans-serif" font-size="14" lengthAdjust="spacing" textLength="40" x="2041" y="308">string</text><line style="stroke:#A80036;stroke-width:1.0;" x1="2036" x2="2036" y1="292.4648" y2="312.9531"/><line style="stroke:#A80036;stroke-width:1.0;" x1="1949" x2="2321" y1="312.9531" y2="312.9531"/><text fill="#000000" font-family="sans-serif" font-size="14" lengthAdjust="spacing" textLength="48" x="1954" y="328.4883">default</text><text fill="#000000" font-family="sans-serif" font-size="14" lengthAdjust="spacing" textLength="22" x="2041" y="328.4883">mg</text><line style="stroke:#A80036;stroke-width:1.0;" x1="2036" x2="2036" y1="312.9531" y2="333.4414"/><rect fill="none" height="102.4414" rx="5" ry="5" style="stroke:#A80036;stroke-width:1.5;" width="372" x="1949" y="231"/><rect fill="#FEFECE" height="40.9766" rx="5" ry="5" style="stroke:#FEFECE;stroke-width:1.5;" width="32" x="2510.5" y="240.5"/><text fill="#000000" font-family="sans-serif" font-size="14" lengthAdjust="spacing" textLength="22" x="2515.5" y="256.0352">mg</text><line style="stroke:#A80036;stroke-width:1.0;" x1="2510.5" x2="2542.5" y1="260.9883" y2="260.9883"/><text fill="#000000" font-family="sans-serif" font-size="14" lengthAdjust="spacing" textLength="20" x="2515.5" y="276.5234">mL</text><rect fill="none" height="40.9766" rx="5" ry="5" style="stroke:#A80036;stroke-width:1.5;" width="32" x="2510.5" y="240.5"/><rect fill="#FEFECE" height="155.9063" rx="5" ry="5" style="stroke:#FEFECE;stroke-width:1.5;" width="548" x="1861" y="351"/><text fill="#000000" font-family="sans-serif" font-size="14" lengthAdjust="spacing" textLength="29" x="1866" y="366.5352">type</text><text fill="#000000" font-family="sans-serif" font-size="14" lengthAdjust="spacing" textLength="35" x="1953" y="366.5352">array</text><line style="stroke:#A80036;stroke-width:1.0;" x1="1948" x2="1948" y1="351" y2="371.4883"/><line style="stroke:#A80036;stroke-width:1.0;" x1="1861" x2="2409" y1="371.4883" y2="371.4883"/><text fill="#000000" font-family="sans-serif" font-size="14" lengthAdjust="spacing" textLength="77" x="1866" y="387.0234">description</text><text fill="#000000" font-family="sans-serif" font-size="14" lengthAdjust="spacing" textLength="451" x="1953" y="387.0234">The valid range for the Property in the Resource as a number. The</text><text fill="#000000" font-family="sans-serif" font-size="14" lengthAdjust="spacing" textLength="439" x="1953" y="403.5117">first value in the array is the minimum value, the second value in</text><text fill="#000000" font-family="sans-serif" font-size="14" lengthAdjust="spacing" textLength="219" x="1953" y="420">the array is the maximum value.</text><line style="stroke:#A80036;stroke-width:1.0;" x1="1948" x2="1948" y1="371.4883" y2="424.9531"/><line style="stroke:#A80036;stroke-width:1.0;" x1="1861" x2="2409" y1="424.9531" y2="424.9531"/><text fill="#000000" font-family="sans-serif" font-size="14" lengthAdjust="spacing" textLength="55" x="1866" y="440.4883">writable</text><text fill="#000000" font-family="sans-serif" font-size="14" lengthAdjust="spacing" textLength="48" x="1953" y="440.4883">☐ false</text><line style="stroke:#A80036;stroke-width:1.0;" x1="1948" x2="1948" y1="424.9531" y2="445.4414"/><line style="stroke:#A80036;stroke-width:1.0;" x1="1861" x2="2409" y1="445.4414" y2="445.4414"/><text fill="#000000" font-family="sans-serif" font-size="14" lengthAdjust="spacing" textLength="63" x="1866" y="460.9766">minItems</text><text fill="#000000" font-family="sans-serif" font-size="14" lengthAdjust="spacing" textLength="9" x="1953" y="460.9766">2</text><line style="stroke:#A80036;stroke-width:1.0;" x1="1948" x2="1948" y1="445.4414" y2="465.9297"/><line style="stroke:#A80036;stroke-width:1.0;" x1="1861" x2="2409" y1="465.9297" y2="465.9297"/><text fill="#000000" font-family="sans-serif" font-size="14" lengthAdjust="spacing" textLength="67" x="1866" y="481.4648">maxItems</text><text fill="#000000" font-family="sans-serif" font-size="14" lengthAdjust="spacing" textLength="9" x="1953" y="481.4648">2</text><line style="stroke:#A80036;stroke-width:1.0;" x1="1948" x2="1948" y1="465.9297" y2="486.418"/><line style="stroke:#A80036;stroke-width:1.0;" x1="1861" x2="2409" y1="486.418" y2="486.418"/><text fill="#000000" font-family="sans-serif" font-size="14" lengthAdjust="spacing" textLength="37" x="1866" y="501.9531">items</text><text fill="#000000" font-family="sans-serif" font-size="14" lengthAdjust="spacing" textLength="0" x="1965" y="501.9531"/><line style="stroke:#A80036;stroke-width:1.0;" x1="1948" x2="1948" y1="486.418" y2="506.9063"/><rect fill="none" height="155.9063" rx="5" ry="5" style="stroke:#A80036;stroke-width:1.5;" width="548" x="1861" y="351"/><rect fill="#FEFECE" height="20.4883" rx="5" ry="5" style="stroke:#FEFECE;stroke-width:1.5;" width="103" x="2475" y="484"/><text fill="#000000" font-family="sans-serif" font-size="14" lengthAdjust="spacing" textLength="29" x="2480" y="499.5352">type</text><text fill="#000000" font-family="sans-serif" font-size="14" lengthAdjust="spacing" textLength="54" x="2519" y="499.5352">number</text><line style="stroke:#A80036;stroke-width:1.0;" x1="2514" x2="2514" y1="484" y2="504.4883"/><rect fill="none" height="20.4883" rx="5" ry="5" style="stroke:#A80036;stroke-width:1.5;" width="103" x="2475" y="484"/><rect fill="#FEFECE" height="110.9297" rx="5" ry="5" style="stroke:#FEFECE;stroke-width:1.5;" width="555" x="1857.5" y="525.5"/><text fill="#000000" font-family="sans-serif" font-size="14" lengthAdjust="spacing" textLength="77" x="1862.5" y="541.0352">description</text><text fill="#000000" font-family="sans-serif" font-size="14" lengthAdjust="spacing" textLength="456" x="1949.5" y="541.0352">Step value across the defined range an integer when the range is a</text><text fill="#000000" font-family="sans-serif" font-size="14" lengthAdjust="spacing" textLength="458" x="1949.5" y="557.5234">number.  This is the increment for valid values across the range; so</text><text fill="#000000" font-family="sans-serif" font-size="14" lengthAdjust="spacing" textLength="381" x="1949.5" y="574.0117">if range is 0.0..10.0 and step is 2.5 then valid values are</text><text fill="#000000" font-family="sans-serif" font-size="14" lengthAdjust="spacing" textLength="139" x="1949.5" y="590.5">0.0,2.5,5.0,7.5,10.0.</text><line style="stroke:#A80036;stroke-width:1.0;" x1="1944.5" x2="1944.5" y1="525.5" y2="595.4531"/><line style="stroke:#A80036;stroke-width:1.0;" x1="1857.5" x2="2412.5" y1="595.4531" y2="595.4531"/><text fill="#000000" font-family="sans-serif" font-size="14" lengthAdjust="spacing" textLength="55" x="1862.5" y="610.9883">writable</text><text fill="#000000" font-family="sans-serif" font-size="14" lengthAdjust="spacing" textLength="48" x="1949.5" y="610.9883">☐ false</text><line style="stroke:#A80036;stroke-width:1.0;" x1="1944.5" x2="1944.5" y1="595.4531" y2="615.9414"/><line style="stroke:#A80036;stroke-width:1.0;" x1="1857.5" x2="2412.5" y1="615.9414" y2="615.9414"/><text fill="#000000" font-family="sans-serif" font-size="14" lengthAdjust="spacing" textLength="29" x="1862.5" y="631.4766">type</text><text fill="#000000" font-family="sans-serif" font-size="14" lengthAdjust="spacing" textLength="54" x="1949.5" y="631.4766">number</text><line style="stroke:#A80036;stroke-width:1.0;" x1="1944.5" x2="1944.5" y1="615.9414" y2="636.4297"/><rect fill="none" height="110.9297" rx="5" ry="5" style="stroke:#A80036;stroke-width:1.5;" width="555" x="1857.5" y="525.5"/><rect fill="#FEFECE" height="110.9297" rx="5" ry="5" style="stroke:#FEFECE;stroke-width:1.5;" width="570" x="1850" y="654.5"/><text fill="#000000" font-family="sans-serif" font-size="14" lengthAdjust="spacing" textLength="29" x="1855" y="670.0352">type</text><text fill="#000000" font-family="sans-serif" font-size="14" lengthAdjust="spacing" textLength="54" x="1942" y="670.0352">number</text><line style="stroke:#A80036;stroke-width:1.0;" x1="1937" x2="1937" y1="654.5" y2="674.9883"/><line style="stroke:#A80036;stroke-width:1.0;" x1="1850" x2="2420" y1="674.9883" y2="674.9883"/><text fill="#000000" font-family="sans-serif" font-size="14" lengthAdjust="spacing" textLength="55" x="1855" y="690.5234">writable</text><text fill="#000000" font-family="sans-serif" font-size="14" lengthAdjust="spacing" textLength="48" x="1942" y="690.5234">☐ false</text><line style="stroke:#A80036;stroke-width:1.0;" x1="1937" x2="1937" y1="674.9883" y2="695.4766"/><line style="stroke:#A80036;stroke-width:1.0;" x1="1850" x2="2420" y1="695.4766" y2="695.4766"/><text fill="#000000" font-family="sans-serif" font-size="14" lengthAdjust="spacing" textLength="77" x="1855" y="711.0117">description</text><text fill="#000000" font-family="sans-serif" font-size="14" lengthAdjust="spacing" textLength="430" x="1942" y="711.0117">When exposed the value in 'precision' provides a +/- tolerance</text><text fill="#000000" font-family="sans-serif" font-size="14" lengthAdjust="spacing" textLength="473" x="1942" y="727.5">against the Properties in the Resource. Thus if a Property is UPDATED</text><text fill="#000000" font-family="sans-serif" font-size="14" lengthAdjust="spacing" textLength="465" x="1942" y="743.9883">to a value and that Property then RETRIEVED, the RETRIEVED value is</text><text fill="#000000" font-family="sans-serif" font-size="14" lengthAdjust="spacing" textLength="337" x="1942" y="760.4766">valid if in the range of the set value +/- precision</text><line style="stroke:#A80036;stroke-width:1.0;" x1="1937" x2="1937" y1="695.4766" y2="765.4297"/><rect fill="none" height="110.9297" rx="5" ry="5" style="stroke:#A80036;stroke-width:1.5;" width="570" x="1850" y="654.5"/><rect fill="#FEFECE" height="20.4883" rx="5" ry="5" style="stroke:#FEFECE;stroke-width:1.5;" width="400" x="1413" y="436"/><text fill="#000000" font-family="sans-serif" font-size="14" lengthAdjust="spacing" textLength="390" x="1418" y="451.5352">#/sdfObject/glucose.medication/sdfProperty/medication</text><rect fill="none" height="20.4883" rx="5" ry="5" style="stroke:#A80036;stroke-width:1.5;" width="400" x="1413" y="436"/><path d="M95,332 L108,332 C117.4068,332 126.9554,331.9088 136.5926,331.7376 " fill="none" style="stroke:#A80036;stroke-width:1.0;stroke-dasharray:3.0,3.0;"/><path d="M136.6543,334.8363 L138.9166,331.6914 L136.5309,328.6389 L144.3394,331.5834 L136.6543,334.8363 " fill="#A80036" style="stroke:#A80036;stroke-width:1.0;"/><ellipse cx="95" cy="332" fill="#A80036" rx="3" ry="3" style="stroke:#A80036;stroke-width:1.0;stroke-dasharray:3.0,3.0;"/><path d="M2240.5,61 L2253.5,61 C2319.8073,61 2395.1902,61 2449.8357,61 " fill="none" style="stroke:#A80036;stroke-width:1.0;stroke-dasharray:3.0,3.0;"/><path d="M2449.8357,64.028 L2452.1067,61 L2449.8357,57.972 L2457.4057,61 L2449.8357,64.028 " fill="#A80036" style="stroke:#A80036;stroke-width:1.0;"/><ellipse cx="2240.5" cy="61" fill="#A80036" rx="3" ry="3" style="stroke:#A80036;stroke-width:1.0;stroke-dasharray:3.0,3.0;"/><path d="M1655.5,304 L1668.5,304 C1782.7371,304 1748.6919,174.79 1850,122 C1899.2771,96.3225 1959.1936,83.5058 2011.3086,77.2273 " fill="none" style="stroke:#A80036;stroke-width:1.0;stroke-dasharray:3.0,3.0;"/><path d="M2011.6605,80.2794 L2013.5977,76.9634 L2010.9568,74.1752 L2018.939,76.3477 L2011.6605,80.2794 " fill="#A80036" style="stroke:#A80036;stroke-width:1.0;"/><ellipse cx="1655.5" cy="304" fill="#A80036" rx="3" ry="3" style="stroke:#A80036;stroke-width:1.0;stroke-dasharray:3.0,3.0;"/><path d="M1655.5,325 L1668.5,325 C1761.2508,325 1762.7167,253.3743 1850,222 C1887.1646,208.641 1928.386,198.7696 1967.6515,191.5041 " fill="none" style="stroke:#A80036;stroke-width:1.0;stroke-dasharray:3.0,3.0;"/><path d="M1968.2189,194.6342 L1969.9991,191.0785 L1967.084,188.374 L1975.4767,190.0855 L1968.2189,194.6342 " fill="#A80036" style="stroke:#A80036;stroke-width:1.0;"/><ellipse cx="1655.5" cy="325" fill="#A80036" rx="3" ry="3" style="stroke:#A80036;stroke-width:1.0;stroke-dasharray:3.0,3.0;"/><path d="M2309.5,261 L2322.5,261 C2388.0272,261 2465.4231,261 2503.0944,261 " fill="none" style="stroke:#A80036;stroke-width:1.0;stroke-dasharray:3.0,3.0;"/><path d="M2503.0944,264.1373 L2505.4474,261 L2503.0944,257.8627 L2510.9377,261 L2503.0944,264.1373 " fill="#A80036" style="stroke:#A80036;stroke-width:1.0;"/><ellipse cx="2309.5" cy="261" fill="#A80036" rx="3" ry="3" style="stroke:#A80036;stroke-width:1.0;stroke-dasharray:3.0,3.0;"/><path d="M1655.5,345 L1668.5,345 C1758.8416,345 1858.1539,333.2282 1941.8009,319.8617 " fill="none" style="stroke:#A80036;stroke-width:1.0;stroke-dasharray:3.0,3.0;"/><path d="M1942.2866,322.8738 L1944.0599,319.4974 L1941.3151,316.8496 L1949.331,318.6474 L1942.2866,322.8738 " fill="#A80036" style="stroke:#A80036;stroke-width:1.0;"/><ellipse cx="1655.5" cy="345" fill="#A80036" rx="3" ry="3" style="stroke:#A80036;stroke-width:1.0;stroke-dasharray:3.0,3.0;"/><path d="M2397.5,494 L2410.5,494 C2429.0983,494 2449.3812,494 2467.6867,494 " fill="none" style="stroke:#A80036;stroke-width:1.0;stroke-dasharray:3.0,3.0;"/><path d="M2467.6867,497.0854 L2470.0007,494 L2467.6867,490.9146 L2475.4001,494 L2467.6867,497.0854 " fill="#A80036" style="stroke:#A80036;stroke-width:1.0;"/><ellipse cx="2397.5" cy="494" fill="#A80036" rx="3" ry="3" style="stroke:#A80036;stroke-width:1.0;stroke-dasharray:3.0,3.0;"/><path d="M1655.5,366 L1668.5,366 C1728.5878,366 1792.6441,371.2076 1853.4201,378.6284 " fill="none" style="stroke:#A80036;stroke-width:1.0;stroke-dasharray:3.0,3.0;"/><path d="M1853.0345,381.7403 L1855.7539,378.9176 L1853.8057,375.5166 L1861.1996,379.5925 L1853.0345,381.7403 " fill="#A80036" style="stroke:#A80036;stroke-width:1.0;"/><ellipse cx="1655.5" cy="366" fill="#A80036" rx="3" ry="3" style="stroke:#A80036;stroke-width:1.0;stroke-dasharray:3.0,3.0;"/><path d="M1655.5,387 L1668.5,387 C1735.5658,387 1763.9061,382.4082 1814,427 C1845.871,455.3704 1817.5172,488.3322 1850,516 C1851.9285,517.6426 1853.8902,519.2459 1855.8831,520.8107 " fill="none" style="stroke:#A80036;stroke-width:1.0;stroke-dasharray:3.0,3.0;"/><path d="M1854.0511,523.2387 L1857.7041,522.1847 L1857.715,518.3827 L1861.9531,525.3907 L1854.0511,523.2387 " fill="#A80036" style="stroke:#A80036;stroke-width:1.0;"/><ellipse cx="1655.5" cy="387" fill="#A80036" rx="3" ry="3" style="stroke:#A80036;stroke-width:1.0;stroke-dasharray:3.0,3.0;"/><path d="M1655.5,407 L1668.5,407 C1733.7747,407 1767.2403,381.4553 1814,427 C1884.6608,495.8247 1782.3154,574.2464 1850,646 C1851.0422,647.1048 1852.099,648.1925 1853.17,649.2634 " fill="none" style="stroke:#A80036;stroke-width:1.0;stroke-dasharray:3.0,3.0;"/><path d="M1851.084,651.4516 L1854.8111,650.8279 L1855.256,647.0752 L1858.6406,654.4784 L1851.084,651.4516 " fill="#A80036" style="stroke:#A80036;stroke-width:1.0;"/><ellipse cx="1655.5" cy="407" fill="#A80036" rx="3" ry="3" style="stroke:#A80036;stroke-width:1.0;stroke-dasharray:3.0,3.0;"/><path d="M1364,377 L1377,377 C1436.6137,377 1504.3815,370.2414 1551.8657,364.3927 " fill="none" style="stroke:#A80036;stroke-width:1.0;stroke-dasharray:3.0,3.0;"/><path d="M1552.2376,367.3696 L1554.0984,364.1137 L1551.4938,361.4157 L1559.3081,363.4629 L1552.2376,367.3696 " fill="#A80036" style="stroke:#A80036;stroke-width:1.0;"/><ellipse cx="1364" cy="377" fill="#A80036" rx="3" ry="3" style="stroke:#A80036;stroke-width:1.0;stroke-dasharray:3.0,3.0;"/><path d="M1364,425 L1377,425 C1389.9372,425 1447.2455,430.0929 1502.0851,435.2626 " fill="none" style="stroke:#A80036;stroke-width:1.0;stroke-dasharray:3.0,3.0;"/><path d="M1501.7934,438.3493 L1504.4002,435.4814 L1502.3769,432.1758 L1509.802,435.992 L1501.7934,438.3493 " fill="#A80036" style="stroke:#A80036;stroke-width:1.0;"/><ellipse cx="1364" cy="425" fill="#A80036" rx="3" ry="3" style="stroke:#A80036;stroke-width:1.0;stroke-dasharray:3.0,3.0;"/><path d="M522.5,377 L535.5,377 C617.1745,377 705.6775,377 787.3072,377 " fill="none" style="stroke:#A80036;stroke-width:1.0;stroke-dasharray:3.0,3.0;"/><path d="M787.3072,380.1511 L789.6705,377 L787.3072,373.8489 L795.1849,377 L787.3072,380.1511 " fill="#A80036" style="stroke:#A80036;stroke-width:1.0;"/><ellipse cx="522.5" cy="377" fill="#A80036" rx="3" ry="3" style="stroke:#A80036;stroke-width:1.0;stroke-dasharray:3.0,3.0;"/><path d="M95,353 L108,353 C124.1536,353 127.927,356.388 144,358 C216.8742,365.3088 299.7968,370.2447 360.9986,373.2498 " fill="none" style="stroke:#A80036;stroke-width:1.0;stroke-dasharray:3.0,3.0;"/><path d="M360.8486,376.3423 L363.3179,373.3623 L361.1486,370.1574 L368.7297,373.6248 L360.8486,376.3423 " fill="#A80036" style="stroke:#A80036;stroke-width:1.0;"/><ellipse cx="95" cy="353" fill="#A80036" rx="3" ry="3" style="stroke:#A80036;stroke-width:1.0;stroke-dasharray:3.0,3.0;"/><!--MD5=[99ebf8631abc569fd8cf079eb11d458a]
@startjson
{
  "info": {
    "copyright": "Copyright 2016-2019 Open Connectivity Foundation, Inc. All rights reserved.",
    "license": "https://github.com/one-data-model/oneDM/blob/master/LICENSE",
    "title": "Context Medication for Glucose Meter",
    "version": "2019-03-22"
  },
  "sdfObject": {
    "glucose.medication": {
      "description": "This Resource describes the Properties associated with context\\nmedication. The unit is a single value that is one of mg and mL. The\\nmedication Property has a default unit of milligrams[mg]. The\\nmedication, unit and regimen Properties are read-only values that are\\nprovided by the Server. When range is omitted the default is 0 to\\n+MAXFLOAT.",
      "sdfProperty": {
        "regimen": {
          "description": "Medication regimen",
          "enum": [
            "rapidacting",
            "shortacting",
            "intermediateacting",
            "longacting",
            "premix"
          ],
          "writable": false,
          "type": "string"
        },
        "medication": {
          "description": "The amount of medication taken",
          "writable": false,
          "type": "number",
          "minimum": 0
        },
        "units": {
          "description": "Unit for the amount of medication taken",
          "enum": [
            "mg",
            "mL"
          ],
          "writable": false,
          "type": "string",
          "default": "mg"
        },
        "range": {
          "type": "array",
          "description": "The valid range for the Property in the Resource as a number. The\\nfirst value in the array is the minimum value, the second value in\\nthe array is the maximum value.",
          "writable": false,
          "minItems": 2,
          "maxItems": 2,
          "items": {
            "type": "number"
          }
        },
        "step": {
          "description": "Step value across the defined range an integer when the range is a\\nnumber.  This is the increment for valid values across the range; so\\nif range is 0.0..10.0 and step is 2.5 then valid values are\\n0.0,2.5,5.0,7.5,10.0.",
          "writable": false,
          "type": "number"
        },
        "precision": {
          "type": "number",
          "writable": false,
          "description": "When exposed the value in 'precision' provides a +/- tolerance\\nagainst the Properties in the Resource. Thus if a Property is UPDATED\\nto a value and that Property then RETRIEVED, the RETRIEVED value is\\nvalid if in the range of the set value +/- precision"
        }
      },
      "sdfRequired": [
        "#/sdfObject/glucose.medication/sdfProperty/medication"
      ]
    }
  }
}
@endjson

PlantUML version 1.2021.2(Sun Mar 07 13:10:27 EET 2021)
(GPL source distribution)
Java Runtime: OpenJDK Runtime Environment
JVM: OpenJDK 64-Bit Server VM
Default Encoding: UTF-8
Language: en
Country: FI
--></g></svg>