<?xml version="1.0" encoding="UTF-8" standalone="no"?><svg xmlns="http://www.w3.org/2000/svg" xmlns:xlink="http://www.w3.org/1999/xlink" contentScriptType="application/ecmascript" contentStyleType="text/css" height="203px" preserveAspectRatio="none" style="width:2127px;height:203px;" version="1.1" viewBox="0 0 2127 203" width="2127px" zoomAndPan="magnify"><defs/><g><rect fill="#FEFECE" height="40.9766" rx="5" ry="5" style="stroke:#FEFECE;stroke-width:1.5;" width="97" x="10" y="65.5"/><text fill="#000000" font-family="sans-serif" font-size="14" lengthAdjust="spacing" textLength="27" x="15" y="81.0352">info</text><text fill="#000000" font-family="sans-serif" font-size="14" lengthAdjust="spacing" textLength="0" x="102" y="81.0352"/><line style="stroke:#A80036;stroke-width:1.0;" x1="85" x2="85" y1="65.5" y2="85.9883"/><line style="stroke:#A80036;stroke-width:1.0;" x1="10" x2="107" y1="85.9883" y2="85.9883"/><text fill="#000000" font-family="sans-serif" font-size="14" lengthAdjust="spacing" textLength="65" x="15" y="101.5234">sdfObject</text><text fill="#000000" font-family="sans-serif" font-size="14" lengthAdjust="spacing" textLength="0" x="102" y="101.5234"/><line style="stroke:#A80036;stroke-width:1.0;" x1="85" x2="85" y1="85.9883" y2="106.4766"/><rect fill="none" height="40.9766" rx="5" ry="5" style="stroke:#A80036;stroke-width:1.5;" width="97" x="10" y="65.5"/><rect fill="#FEFECE" height="81.9531" rx="5" ry="5" style="stroke:#FEFECE;stroke-width:1.5;" width="567" x="144" y="10"/><text fill="#000000" font-family="sans-serif" font-size="14" lengthAdjust="spacing" textLength="65" x="149" y="25.5352">copyright</text><text fill="#000000" font-family="sans-serif" font-size="14" lengthAdjust="spacing" textLength="482" x="224" y="25.5352">copyright 2019 Open Connectivity Foundation, Inc. All rights reserved.</text><line style="stroke:#A80036;stroke-width:1.0;" x1="219" x2="219" y1="10" y2="30.4883"/><line style="stroke:#A80036;stroke-width:1.0;" x1="144" x2="711" y1="30.4883" y2="30.4883"/><text fill="#000000" font-family="sans-serif" font-size="14" lengthAdjust="spacing" textLength="47" x="149" y="46.0234">license</text><text fill="#000000" font-family="sans-serif" font-size="14" lengthAdjust="spacing" textLength="462" x="224" y="46.0234">https://github.com/one-data-model/oneDM/blob/master/LICENSE</text><line style="stroke:#A80036;stroke-width:1.0;" x1="219" x2="219" y1="30.4883" y2="50.9766"/><line style="stroke:#A80036;stroke-width:1.0;" x1="144" x2="711" y1="50.9766" y2="50.9766"/><text fill="#000000" font-family="sans-serif" font-size="14" lengthAdjust="spacing" textLength="26" x="149" y="66.5117">title</text><text fill="#000000" font-family="sans-serif" font-size="14" lengthAdjust="spacing" textLength="101" x="224" y="66.5117">HVAC Capacity</text><line style="stroke:#A80036;stroke-width:1.0;" x1="219" x2="219" y1="50.9766" y2="71.4648"/><line style="stroke:#A80036;stroke-width:1.0;" x1="144" x2="711" y1="71.4648" y2="71.4648"/><text fill="#000000" font-family="sans-serif" font-size="14" lengthAdjust="spacing" textLength="50" x="149" y="87">version</text><text fill="#000000" font-family="sans-serif" font-size="14" lengthAdjust="spacing" textLength="88" x="224" y="87">2019-07-24</text><line style="stroke:#A80036;stroke-width:1.0;" x1="219" x2="219" y1="71.4648" y2="91.9531"/><rect fill="none" height="81.9531" rx="5" ry="5" style="stroke:#A80036;stroke-width:1.5;" width="567" x="144" y="10"/><rect fill="#FEFECE" height="20.4883" rx="5" ry="5" style="stroke:#FEFECE;stroke-width:1.5;" width="122" x="366.5" y="110"/><text fill="#000000" font-family="sans-serif" font-size="14" lengthAdjust="spacing" textLength="90" x="371.5" y="125.5352">hvac.capacity</text><text fill="#000000" font-family="sans-serif" font-size="14" lengthAdjust="spacing" textLength="0" x="483.5" y="125.5352"/><line style="stroke:#A80036;stroke-width:1.0;" x1="466.5" x2="466.5" y1="110" y2="130.4883"/><rect fill="none" height="20.4883" rx="5" ry="5" style="stroke:#A80036;stroke-width:1.5;" width="122" x="366.5" y="110"/><rect fill="#FEFECE" height="143.9063" rx="5" ry="5" style="stroke:#FEFECE;stroke-width:1.5;" width="583" x="748" y="48"/><text fill="#000000" font-family="sans-serif" font-size="14" lengthAdjust="spacing" textLength="77" x="753" y="63.5352">description</text><text fill="#000000" font-family="sans-serif" font-size="14" lengthAdjust="spacing" textLength="463" x="846" y="63.5352">This Resource describes the capacity (heating or cooling) of a HVAC</text><text fill="#000000" font-family="sans-serif" font-size="14" lengthAdjust="spacing" textLength="458" x="846" y="80.0234">system. "capacity" is a number in units of kW (kilowatts). To convert</text><text fill="#000000" font-family="sans-serif" font-size="14" lengthAdjust="spacing" textLength="418" x="846" y="96.5117">from kW to other units that may be commonly used in certain</text><text fill="#000000" font-family="sans-serif" font-size="14" lengthAdjust="spacing" textLength="470" x="846" y="113">geographic locales the following conversions should be applied: - to</text><text fill="#000000" font-family="sans-serif" font-size="14" lengthAdjust="spacing" textLength="480" x="846" y="129.4883">convert to BTU/hr: BTU/hr = 3412. 142 * kW - to convert to ton: ton =</text><text fill="#000000" font-family="sans-serif" font-size="14" lengthAdjust="spacing" textLength="107" x="846" y="145.9766">kW/3. 5168525</text><line style="stroke:#A80036;stroke-width:1.0;" x1="841" x2="841" y1="48" y2="150.9297"/><line style="stroke:#A80036;stroke-width:1.0;" x1="748" x2="1331" y1="150.9297" y2="150.9297"/><text fill="#000000" font-family="sans-serif" font-size="14" lengthAdjust="spacing" textLength="79" x="753" y="166.4648">sdfProperty</text><text fill="#000000" font-family="sans-serif" font-size="14" lengthAdjust="spacing" textLength="0" x="858" y="166.4648"/><line style="stroke:#A80036;stroke-width:1.0;" x1="841" x2="841" y1="150.9297" y2="171.418"/><line style="stroke:#A80036;stroke-width:1.0;" x1="748" x2="1331" y1="171.418" y2="171.418"/><text fill="#000000" font-family="sans-serif" font-size="14" lengthAdjust="spacing" textLength="83" x="753" y="186.9531">sdfRequired</text><text fill="#000000" font-family="sans-serif" font-size="14" lengthAdjust="spacing" textLength="0" x="858" y="186.9531"/><line style="stroke:#A80036;stroke-width:1.0;" x1="841" x2="841" y1="171.418" y2="191.9063"/><rect fill="none" height="143.9063" rx="5" ry="5" style="stroke:#A80036;stroke-width:1.5;" width="583" x="748" y="48"/><rect fill="#FEFECE" height="20.4883" rx="5" ry="5" style="stroke:#FEFECE;stroke-width:1.5;" width="87" x="1492.5" y="110"/><text fill="#000000" font-family="sans-serif" font-size="14" lengthAdjust="spacing" textLength="55" x="1497.5" y="125.5352">capacity</text><text fill="#000000" font-family="sans-serif" font-size="14" lengthAdjust="spacing" textLength="0" x="1574.5" y="125.5352"/><line style="stroke:#A80036;stroke-width:1.0;" x1="1557.5" x2="1557.5" y1="110" y2="130.4883"/><rect fill="none" height="20.4883" rx="5" ry="5" style="stroke:#A80036;stroke-width:1.5;" width="87" x="1492.5" y="110"/><rect fill="#FEFECE" height="102.4414" rx="5" ry="5" style="stroke:#FEFECE;stroke-width:1.5;" width="374" x="1741" y="69"/><text fill="#000000" font-family="sans-serif" font-size="14" lengthAdjust="spacing" textLength="77" x="1746" y="84.5352">description</text><text fill="#000000" font-family="sans-serif" font-size="14" lengthAdjust="spacing" textLength="227" x="1883" y="84.5352">The rated capacity for the Device.</text><line style="stroke:#A80036;stroke-width:1.0;" x1="1878" x2="1878" y1="69" y2="89.4883"/><line style="stroke:#A80036;stroke-width:1.0;" x1="1741" x2="2115" y1="89.4883" y2="89.4883"/><text fill="#000000" font-family="sans-serif" font-size="14" lengthAdjust="spacing" textLength="65" x="1746" y="105.0234">minimum</text><text fill="#000000" font-family="sans-serif" font-size="14" lengthAdjust="spacing" textLength="9" x="1883" y="105.0234">0</text><line style="stroke:#A80036;stroke-width:1.0;" x1="1878" x2="1878" y1="89.4883" y2="109.9766"/><line style="stroke:#A80036;stroke-width:1.0;" x1="1741" x2="2115" y1="109.9766" y2="109.9766"/><text fill="#000000" font-family="sans-serif" font-size="14" lengthAdjust="spacing" textLength="127" x="1746" y="125.5117">exclusiveMinimum</text><text fill="#000000" font-family="sans-serif" font-size="14" lengthAdjust="spacing" textLength="44" x="1883" y="125.5117">☑ true</text><line style="stroke:#A80036;stroke-width:1.0;" x1="1878" x2="1878" y1="109.9766" y2="130.4648"/><line style="stroke:#A80036;stroke-width:1.0;" x1="1741" x2="2115" y1="130.4648" y2="130.4648"/><text fill="#000000" font-family="sans-serif" font-size="14" lengthAdjust="spacing" textLength="55" x="1746" y="146">writable</text><text fill="#000000" font-family="sans-serif" font-size="14" lengthAdjust="spacing" textLength="48" x="1883" y="146">☐ false</text><line style="stroke:#A80036;stroke-width:1.0;" x1="1878" x2="1878" y1="130.4648" y2="150.9531"/><line style="stroke:#A80036;stroke-width:1.0;" x1="1741" x2="2115" y1="150.9531" y2="150.9531"/><text fill="#000000" font-family="sans-serif" font-size="14" lengthAdjust="spacing" textLength="29" x="1746" y="166.4883">type</text><text fill="#000000" font-family="sans-serif" font-size="14" lengthAdjust="spacing" textLength="54" x="1883" y="166.4883">number</text><line style="stroke:#A80036;stroke-width:1.0;" x1="1878" x2="1878" y1="150.9531" y2="171.4414"/><rect fill="none" height="102.4414" rx="5" ry="5" style="stroke:#A80036;stroke-width:1.5;" width="374" x="1741" y="69"/><rect fill="#FEFECE" height="20.4883" rx="5" ry="5" style="stroke:#FEFECE;stroke-width:1.5;" width="336" x="1368" y="158"/><text fill="#000000" font-family="sans-serif" font-size="14" lengthAdjust="spacing" textLength="326" x="1373" y="173.5352">#/sdfObject/hvac.capacity/sdfProperty/capacity</text><rect fill="none" height="20.4883" rx="5" ry="5" style="stroke:#A80036;stroke-width:1.5;" width="336" x="1368" y="158"/><path d="M95,75 L108,75 C117.422,75 126.9962,74.8946 136.6609,74.6978 " fill="none" style="stroke:#A80036;stroke-width:1.0;stroke-dasharray:3.0,3.0;"/><path d="M136.7318,77.8054 L138.9917,74.6446 L136.59,71.5901 L144.4301,74.5206 L136.7318,77.8054 " fill="#A80036" style="stroke:#A80036;stroke-width:1.0;"/><ellipse cx="95" cy="75" fill="#A80036" rx="3" ry="3" style="stroke:#A80036;stroke-width:1.0;stroke-dasharray:3.0,3.0;"/><path d="M1568.5,120 L1581.5,120 C1630.7801,120 1684.0083,120 1733.5933,120 " fill="none" style="stroke:#A80036;stroke-width:1.0;stroke-dasharray:3.0,3.0;"/><path d="M1733.5933,123.0426 L1735.8753,120 L1733.5933,116.9574 L1741.1998,120 L1733.5933,123.0426 " fill="#A80036" style="stroke:#A80036;stroke-width:1.0;"/><ellipse cx="1568.5" cy="120" fill="#A80036" rx="3" ry="3" style="stroke:#A80036;stroke-width:1.0;stroke-dasharray:3.0,3.0;"/><path d="M1319,120 L1332,120 C1384.1095,120 1443.7247,120 1484.8991,120 " fill="none" style="stroke:#A80036;stroke-width:1.0;stroke-dasharray:3.0,3.0;"/><path d="M1484.8991,123.0897 L1487.2164,120 L1484.8991,116.9103 L1492.6233,120 L1484.8991,123.0897 " fill="#A80036" style="stroke:#A80036;stroke-width:1.0;"/><ellipse cx="1319" cy="120" fill="#A80036" rx="3" ry="3" style="stroke:#A80036;stroke-width:1.0;stroke-dasharray:3.0,3.0;"/><path d="M1319,168 L1332,168 C1341.339,168 1350.919,168 1360.5907,168 " fill="none" style="stroke:#A80036;stroke-width:1.0;stroke-dasharray:3.0,3.0;"/><path d="M1360.5907,171.1093 L1362.9227,168 L1360.5907,164.8907 L1368.3641,168 L1360.5907,171.1093 " fill="#A80036" style="stroke:#A80036;stroke-width:1.0;"/><ellipse cx="1319" cy="168" fill="#A80036" rx="3" ry="3" style="stroke:#A80036;stroke-width:1.0;stroke-dasharray:3.0,3.0;"/><path d="M477,120 L490,120 C571.2539,120 659.2724,120 740.5395,120 " fill="none" style="stroke:#A80036;stroke-width:1.0;stroke-dasharray:3.0,3.0;"/><path d="M740.5395,123.1372 L742.8924,120 L740.5395,116.8628 L748.3825,120 L740.5395,123.1372 " fill="#A80036" style="stroke:#A80036;stroke-width:1.0;"/><ellipse cx="477" cy="120" fill="#A80036" rx="3" ry="3" style="stroke:#A80036;stroke-width:1.0;stroke-dasharray:3.0,3.0;"/><path d="M95,96 L108,96 C124.1536,96 127.9312,99.3468 144,101 C217.4832,108.5601 302.0242,113.7843 359.4299,116.8141 " fill="none" style="stroke:#A80036;stroke-width:1.0;stroke-dasharray:3.0,3.0;"/><path d="M359.272,119.84 L361.6993,116.9326 L359.5879,113.7882 L366.9946,117.2089 L359.272,119.84 " fill="#A80036" style="stroke:#A80036;stroke-width:1.0;"/><ellipse cx="95" cy="96" fill="#A80036" rx="3" ry="3" style="stroke:#A80036;stroke-width:1.0;stroke-dasharray:3.0,3.0;"/><!--MD5=[c4e4b13cbea430af5bfeafa1637e7473]
@startjson
{
  "info": {
    "copyright": "copyright 2019 Open Connectivity Foundation, Inc. All rights reserved.",
    "license": "https://github.com/one-data-model/oneDM/blob/master/LICENSE",
    "title": "HVAC Capacity",
    "version": "2019-07-24"
  },
  "sdfObject": {
    "hvac.capacity": {
      "description": "This Resource describes the capacity (heating or cooling) of a HVAC\\nsystem. \"capacity\" is a number in units of kW (kilowatts). To convert\\nfrom kW to other units that may be commonly used in certain\\ngeographic locales the following conversions should be applied: - to\\nconvert to BTU/hr: BTU/hr = 3412. 142 * kW - to convert to ton: ton =\\nkW/3. 5168525",
      "sdfProperty": {
        "capacity": {
          "description": "The rated capacity for the Device.",
          "minimum": 0,
          "exclusiveMinimum": true,
          "writable": false,
          "type": "number"
        }
      },
      "sdfRequired": [
        "#/sdfObject/hvac.capacity/sdfProperty/capacity"
      ]
    }
  }
}
@endjson

PlantUML version 1.2021.2(Sun Mar 07 13:10:27 EET 2021)
(GPL source distribution)
Java Runtime: OpenJDK Runtime Environment
JVM: OpenJDK 64-Bit Server VM
Default Encoding: UTF-8
Language: en
Country: FI
--></g></svg>