<?xml version="1.0" encoding="UTF-8" standalone="no"?><svg xmlns="http://www.w3.org/2000/svg" xmlns:xlink="http://www.w3.org/1999/xlink" contentScriptType="application/ecmascript" contentStyleType="text/css" height="330px" preserveAspectRatio="none" style="width:2481px;height:330px;" version="1.1" viewBox="0 0 2481 330" width="2481px" zoomAndPan="magnify"><defs/><g><rect fill="#FEFECE" height="40.9766" rx="5" ry="5" style="stroke:#FEFECE;stroke-width:1.5;" width="97" x="10" y="110"/><text fill="#000000" font-family="sans-serif" font-size="14" lengthAdjust="spacing" textLength="27" x="15" y="125.5352">info</text><text fill="#000000" font-family="sans-serif" font-size="14" lengthAdjust="spacing" textLength="0" x="102" y="125.5352"/><line style="stroke:#A80036;stroke-width:1.0;" x1="85" x2="85" y1="110" y2="130.4883"/><line style="stroke:#A80036;stroke-width:1.0;" x1="10" x2="107" y1="130.4883" y2="130.4883"/><text fill="#000000" font-family="sans-serif" font-size="14" lengthAdjust="spacing" textLength="65" x="15" y="146.0234">sdfObject</text><text fill="#000000" font-family="sans-serif" font-size="14" lengthAdjust="spacing" textLength="0" x="102" y="146.0234"/><line style="stroke:#A80036;stroke-width:1.0;" x1="85" x2="85" y1="130.4883" y2="150.9766"/><rect fill="none" height="40.9766" rx="5" ry="5" style="stroke:#A80036;stroke-width:1.5;" width="97" x="10" y="110"/><rect fill="#FEFECE" height="81.9531" rx="5" ry="5" style="stroke:#FEFECE;stroke-width:1.5;" width="655" x="144" y="54.5"/><text fill="#000000" font-family="sans-serif" font-size="14" lengthAdjust="spacing" textLength="65" x="149" y="70.0352">copyright</text><text fill="#000000" font-family="sans-serif" font-size="14" lengthAdjust="spacing" textLength="570" x="224" y="70.0352">copyright 2016-2017, 2019 Open Connectivity Foundation, Inc. All rights reserved.</text><line style="stroke:#A80036;stroke-width:1.0;" x1="219" x2="219" y1="54.5" y2="74.9883"/><line style="stroke:#A80036;stroke-width:1.0;" x1="144" x2="799" y1="74.9883" y2="74.9883"/><text fill="#000000" font-family="sans-serif" font-size="14" lengthAdjust="spacing" textLength="47" x="149" y="90.5234">license</text><text fill="#000000" font-family="sans-serif" font-size="14" lengthAdjust="spacing" textLength="462" x="224" y="90.5234">https://github.com/one-data-model/oneDM/blob/master/LICENSE</text><line style="stroke:#A80036;stroke-width:1.0;" x1="219" x2="219" y1="74.9883" y2="95.4766"/><line style="stroke:#A80036;stroke-width:1.0;" x1="144" x2="799" y1="95.4766" y2="95.4766"/><text fill="#000000" font-family="sans-serif" font-size="14" lengthAdjust="spacing" textLength="26" x="149" y="111.0117">title</text><text fill="#000000" font-family="sans-serif" font-size="14" lengthAdjust="spacing" textLength="151" x="224" y="111.0117">Speech Synthesis-TTS</text><line style="stroke:#A80036;stroke-width:1.0;" x1="219" x2="219" y1="95.4766" y2="115.9648"/><line style="stroke:#A80036;stroke-width:1.0;" x1="144" x2="799" y1="115.9648" y2="115.9648"/><text fill="#000000" font-family="sans-serif" font-size="14" lengthAdjust="spacing" textLength="50" x="149" y="131.5">version</text><text fill="#000000" font-family="sans-serif" font-size="14" lengthAdjust="spacing" textLength="88" x="224" y="131.5">2019-02-15</text><line style="stroke:#A80036;stroke-width:1.0;" x1="219" x2="219" y1="115.9648" y2="136.4531"/><rect fill="none" height="81.9531" rx="5" ry="5" style="stroke:#A80036;stroke-width:1.5;" width="655" x="144" y="54.5"/><rect fill="#FEFECE" height="20.4883" rx="5" ry="5" style="stroke:#FEFECE;stroke-width:1.5;" width="101" x="421" y="154.5"/><text fill="#000000" font-family="sans-serif" font-size="14" lengthAdjust="spacing" textLength="69" x="426" y="170.0352">speech.tts</text><text fill="#000000" font-family="sans-serif" font-size="14" lengthAdjust="spacing" textLength="0" x="517" y="170.0352"/><line style="stroke:#A80036;stroke-width:1.0;" x1="500" x2="500" y1="154.5" y2="174.9883"/><rect fill="none" height="20.4883" rx="5" ry="5" style="stroke:#A80036;stroke-width:1.5;" width="101" x="421" y="154.5"/><rect fill="#FEFECE" height="308.7891" rx="5" ry="5" style="stroke:#FEFECE;stroke-width:1.5;" width="609" x="836" y="10"/><text fill="#000000" font-family="sans-serif" font-size="14" lengthAdjust="spacing" textLength="77" x="841" y="25.5352">description</text><text fill="#000000" font-family="sans-serif" font-size="14" lengthAdjust="spacing" textLength="453" x="934" y="25.5352">This Resource may be created on the OCF Server that is capable of</text><text fill="#000000" font-family="sans-serif" font-size="14" lengthAdjust="spacing" textLength="477" x="934" y="42.0234">rendering speech by an OCF Client and allows the client to provide an</text><text fill="#000000" font-family="sans-serif" font-size="14" lengthAdjust="spacing" textLength="491" x="934" y="58.5117">SSML document with text to render or may be created on the OIC Server</text><text fill="#000000" font-family="sans-serif" font-size="14" lengthAdjust="spacing" textLength="443" x="934" y="75">by some resident application. The audio rendered is at this stage</text><text fill="#000000" font-family="sans-serif" font-size="14" lengthAdjust="spacing" textLength="434" x="934" y="91.4883">local to the Server (i. e. not streamed). The utterance is an SSML</text><text fill="#000000" font-family="sans-serif" font-size="14" lengthAdjust="spacing" textLength="494" x="934" y="107.9766">document. The supportedLanguages is an array of the RFC5646 defined</text><text fill="#000000" font-family="sans-serif" font-size="14" lengthAdjust="spacing" textLength="457" x="934" y="124.4648">language tags that are supported. The supportedVoices is an SSML</text><text fill="#000000" font-family="sans-serif" font-size="14" lengthAdjust="spacing" textLength="486" x="934" y="140.9531">document fragment indicating the voices that are supported. Utterance</text><text fill="#000000" font-family="sans-serif" font-size="14" lengthAdjust="spacing" textLength="417" x="934" y="157.4414">in the example shall be a properly escaped (JSON rules) SSML</text><text fill="#000000" font-family="sans-serif" font-size="14" lengthAdjust="spacing" textLength="506" x="934" y="173.9297">document. An example: "&lt;?xml version="1. 0" encoding="ISO-8859-1"?&gt;</text><text fill="#000000" font-family="sans-serif" font-size="14" lengthAdjust="spacing" textLength="496" x="934" y="190.418">&lt;speak version="1. 1" xmlns="http://www. w3. org/2001/10/synthesis"</text><text fill="#000000" font-family="sans-serif" font-size="14" lengthAdjust="spacing" textLength="422" x="934" y="206.9063">xmlns:xsi="http://www. w3. org/2001/XMLSchema-instance"</text><text fill="#000000" font-family="sans-serif" font-size="14" lengthAdjust="spacing" textLength="182" x="934" y="223.3945">xsi:schemaLocation="http:</text><text fill="#000000" font-family="sans-serif" font-size="14" font-style="italic" lengthAdjust="spacing" textLength="267" x="1116" y="223.3945">www. w3. org/2001/10/synthesis http:</text><text fill="#000000" font-family="sans-serif" font-size="14" lengthAdjust="spacing" textLength="37" x="1383" y="223.3945">www.</text><text fill="#000000" font-family="sans-serif" font-size="14" lengthAdjust="spacing" textLength="498" x="934" y="239.8828">w3. org/TR/speech-synthesis11/synthesis. xsd" xml:lang="en-US"&gt; The</text><text fill="#000000" font-family="sans-serif" font-size="14" lengthAdjust="spacing" textLength="446" x="934" y="256.3711">title of the movie is: "Monty Pythons The Meaning of Life" which is</text><text fill="#000000" font-family="sans-serif" font-size="14" lengthAdjust="spacing" textLength="228" x="934" y="272.8594">directed by Terry Jones. &lt;/speak"</text><line style="stroke:#A80036;stroke-width:1.0;" x1="929" x2="929" y1="10" y2="277.8125"/><line style="stroke:#A80036;stroke-width:1.0;" x1="836" x2="1445" y1="277.8125" y2="277.8125"/><text fill="#000000" font-family="sans-serif" font-size="14" lengthAdjust="spacing" textLength="79" x="841" y="293.3477">sdfProperty</text><text fill="#000000" font-family="sans-serif" font-size="14" lengthAdjust="spacing" textLength="0" x="946" y="293.3477"/><line style="stroke:#A80036;stroke-width:1.0;" x1="929" x2="929" y1="277.8125" y2="298.3008"/><line style="stroke:#A80036;stroke-width:1.0;" x1="836" x2="1445" y1="298.3008" y2="298.3008"/><text fill="#000000" font-family="sans-serif" font-size="14" lengthAdjust="spacing" textLength="83" x="841" y="313.8359">sdfRequired</text><text fill="#000000" font-family="sans-serif" font-size="14" lengthAdjust="spacing" textLength="0" x="946" y="313.8359"/><line style="stroke:#A80036;stroke-width:1.0;" x1="929" x2="929" y1="298.3008" y2="318.7891"/><rect fill="none" height="308.7891" rx="5" ry="5" style="stroke:#A80036;stroke-width:1.5;" width="609" x="836" y="10"/><rect fill="#FEFECE" height="61.4648" rx="5" ry="5" style="stroke:#FEFECE;stroke-width:1.5;" width="177" x="1556" y="134"/><text fill="#000000" font-family="sans-serif" font-size="14" lengthAdjust="spacing" textLength="145" x="1561" y="149.5352">supportedLanguages</text><text fill="#000000" font-family="sans-serif" font-size="14" lengthAdjust="spacing" textLength="0" x="1728" y="149.5352"/><line style="stroke:#A80036;stroke-width:1.0;" x1="1711" x2="1711" y1="134" y2="154.4883"/><line style="stroke:#A80036;stroke-width:1.0;" x1="1556" x2="1733" y1="154.4883" y2="154.4883"/><text fill="#000000" font-family="sans-serif" font-size="14" lengthAdjust="spacing" textLength="115" x="1561" y="170.0234">supportedVoices</text><text fill="#000000" font-family="sans-serif" font-size="14" lengthAdjust="spacing" textLength="0" x="1728" y="170.0234"/><line style="stroke:#A80036;stroke-width:1.0;" x1="1711" x2="1711" y1="154.4883" y2="174.9766"/><line style="stroke:#A80036;stroke-width:1.0;" x1="1556" x2="1733" y1="174.9766" y2="174.9766"/><text fill="#000000" font-family="sans-serif" font-size="14" lengthAdjust="spacing" textLength="65" x="1561" y="190.5117">utterance</text><text fill="#000000" font-family="sans-serif" font-size="14" lengthAdjust="spacing" textLength="0" x="1728" y="190.5117"/><line style="stroke:#A80036;stroke-width:1.0;" x1="1711" x2="1711" y1="174.9766" y2="195.4648"/><rect fill="none" height="61.4648" rx="5" ry="5" style="stroke:#A80036;stroke-width:1.5;" width="177" x="1556" y="134"/><rect fill="#FEFECE" height="81.9531" rx="5" ry="5" style="stroke:#FEFECE;stroke-width:1.5;" width="360" x="1913.5" y="22.5"/><text fill="#000000" font-family="sans-serif" font-size="14" lengthAdjust="spacing" textLength="77" x="1918.5" y="38.0352">description</text><text fill="#000000" font-family="sans-serif" font-size="14" lengthAdjust="spacing" textLength="263" x="2005.5" y="38.0352">The array of supported language tags.</text><line style="stroke:#A80036;stroke-width:1.0;" x1="2000.5" x2="2000.5" y1="22.5" y2="42.9883"/><line style="stroke:#A80036;stroke-width:1.0;" x1="1913.5" x2="2273.5" y1="42.9883" y2="42.9883"/><text fill="#000000" font-family="sans-serif" font-size="14" lengthAdjust="spacing" textLength="37" x="1918.5" y="58.5234">items</text><text fill="#000000" font-family="sans-serif" font-size="14" lengthAdjust="spacing" textLength="0" x="2017.5" y="58.5234"/><line style="stroke:#A80036;stroke-width:1.0;" x1="2000.5" x2="2000.5" y1="42.9883" y2="63.4766"/><line style="stroke:#A80036;stroke-width:1.0;" x1="1913.5" x2="2273.5" y1="63.4766" y2="63.4766"/><text fill="#000000" font-family="sans-serif" font-size="14" lengthAdjust="spacing" textLength="55" x="1918.5" y="79.0117">writable</text><text fill="#000000" font-family="sans-serif" font-size="14" lengthAdjust="spacing" textLength="48" x="2005.5" y="79.0117">☐ false</text><line style="stroke:#A80036;stroke-width:1.0;" x1="2000.5" x2="2000.5" y1="63.4766" y2="83.9648"/><line style="stroke:#A80036;stroke-width:1.0;" x1="1913.5" x2="2273.5" y1="83.9648" y2="83.9648"/><text fill="#000000" font-family="sans-serif" font-size="14" lengthAdjust="spacing" textLength="29" x="1918.5" y="99.5">type</text><text fill="#000000" font-family="sans-serif" font-size="14" lengthAdjust="spacing" textLength="35" x="2005.5" y="99.5">array</text><line style="stroke:#A80036;stroke-width:1.0;" x1="2000.5" x2="2000.5" y1="83.9648" y2="104.4531"/><rect fill="none" height="81.9531" rx="5" ry="5" style="stroke:#A80036;stroke-width:1.5;" width="360" x="1913.5" y="22.5"/><rect fill="#FEFECE" height="20.4883" rx="5" ry="5" style="stroke:#FEFECE;stroke-width:1.5;" width="89" x="2380" y="42.5"/><text fill="#000000" font-family="sans-serif" font-size="14" lengthAdjust="spacing" textLength="29" x="2385" y="58.0352">type</text><text fill="#000000" font-family="sans-serif" font-size="14" lengthAdjust="spacing" textLength="40" x="2424" y="58.0352">string</text><line style="stroke:#A80036;stroke-width:1.0;" x1="2419" x2="2419" y1="42.5" y2="62.9883"/><rect fill="none" height="20.4883" rx="5" ry="5" style="stroke:#A80036;stroke-width:1.5;" width="89" x="2380" y="42.5"/><rect fill="#FEFECE" height="81.9531" rx="5" ry="5" style="stroke:#FEFECE;stroke-width:1.5;" width="499" x="1844" y="122.5"/><text fill="#000000" font-family="sans-serif" font-size="14" lengthAdjust="spacing" textLength="77" x="1849" y="138.0352">description</text><text fill="#000000" font-family="sans-serif" font-size="14" lengthAdjust="spacing" textLength="402" x="1936" y="138.0352">The SSML document fragment indicating supported voices.</text><line style="stroke:#A80036;stroke-width:1.0;" x1="1931" x2="1931" y1="122.5" y2="142.9883"/><line style="stroke:#A80036;stroke-width:1.0;" x1="1844" x2="2343" y1="142.9883" y2="142.9883"/><text fill="#000000" font-family="sans-serif" font-size="14" lengthAdjust="spacing" textLength="55" x="1849" y="158.5234">writable</text><text fill="#000000" font-family="sans-serif" font-size="14" lengthAdjust="spacing" textLength="48" x="1936" y="158.5234">☐ false</text><line style="stroke:#A80036;stroke-width:1.0;" x1="1931" x2="1931" y1="142.9883" y2="163.4766"/><line style="stroke:#A80036;stroke-width:1.0;" x1="1844" x2="2343" y1="163.4766" y2="163.4766"/><text fill="#000000" font-family="sans-serif" font-size="14" lengthAdjust="spacing" textLength="77" x="1849" y="179.0117">maxLength</text><text fill="#000000" font-family="sans-serif" font-size="14" lengthAdjust="spacing" textLength="36" x="1936" y="179.0117">1024</text><line style="stroke:#A80036;stroke-width:1.0;" x1="1931" x2="1931" y1="163.4766" y2="183.9648"/><line style="stroke:#A80036;stroke-width:1.0;" x1="1844" x2="2343" y1="183.9648" y2="183.9648"/><text fill="#000000" font-family="sans-serif" font-size="14" lengthAdjust="spacing" textLength="29" x="1849" y="199.5">type</text><text fill="#000000" font-family="sans-serif" font-size="14" lengthAdjust="spacing" textLength="40" x="1936" y="199.5">string</text><line style="stroke:#A80036;stroke-width:1.0;" x1="1931" x2="1931" y1="183.9648" y2="204.4531"/><rect fill="none" height="81.9531" rx="5" ry="5" style="stroke:#A80036;stroke-width:1.5;" width="499" x="1844" y="122.5"/><rect fill="#FEFECE" height="61.4648" rx="5" ry="5" style="stroke:#FEFECE;stroke-width:1.5;" width="423" x="1882" y="223"/><text fill="#000000" font-family="sans-serif" font-size="14" lengthAdjust="spacing" textLength="77" x="1887" y="238.5352">description</text><text fill="#000000" font-family="sans-serif" font-size="14" lengthAdjust="spacing" textLength="326" x="1974" y="238.5352">The SSML document including the speech body.</text><line style="stroke:#A80036;stroke-width:1.0;" x1="1969" x2="1969" y1="223" y2="243.4883"/><line style="stroke:#A80036;stroke-width:1.0;" x1="1882" x2="2305" y1="243.4883" y2="243.4883"/><text fill="#000000" font-family="sans-serif" font-size="14" lengthAdjust="spacing" textLength="77" x="1887" y="259.0234">maxLength</text><text fill="#000000" font-family="sans-serif" font-size="14" lengthAdjust="spacing" textLength="36" x="1974" y="259.0234">1024</text><line style="stroke:#A80036;stroke-width:1.0;" x1="1969" x2="1969" y1="243.4883" y2="263.9766"/><line style="stroke:#A80036;stroke-width:1.0;" x1="1882" x2="2305" y1="263.9766" y2="263.9766"/><text fill="#000000" font-family="sans-serif" font-size="14" lengthAdjust="spacing" textLength="29" x="1887" y="279.5117">type</text><text fill="#000000" font-family="sans-serif" font-size="14" lengthAdjust="spacing" textLength="40" x="1974" y="279.5117">string</text><line style="stroke:#A80036;stroke-width:1.0;" x1="1969" x2="1969" y1="263.9766" y2="284.4648"/><rect fill="none" height="61.4648" rx="5" ry="5" style="stroke:#A80036;stroke-width:1.5;" width="423" x="1882" y="223"/><rect fill="#FEFECE" height="20.4883" rx="5" ry="5" style="stroke:#FEFECE;stroke-width:1.5;" width="325" x="1482" y="257.5"/><text fill="#000000" font-family="sans-serif" font-size="14" lengthAdjust="spacing" textLength="315" x="1487" y="273.0352">#/sdfObject/speech.tts/sdfProperty/utterance</text><rect fill="none" height="20.4883" rx="5" ry="5" style="stroke:#A80036;stroke-width:1.5;" width="325" x="1482" y="257.5"/><path d="M95,119.5 L108,119.5 C117.3442,119.5 126.8208,119.4198 136.3833,119.2688 " fill="none" style="stroke:#A80036;stroke-width:1.0;stroke-dasharray:3.0,3.0;"/><path d="M136.4378,122.3434 L138.6892,119.2279 L136.3288,116.1942 L144.0697,119.1326 L136.4378,122.3434 " fill="#A80036" style="stroke:#A80036;stroke-width:1.0;"/><ellipse cx="95" cy="119.5" fill="#A80036" rx="3" ry="3" style="stroke:#A80036;stroke-width:1.0;stroke-dasharray:3.0,3.0;"/><path d="M2262,52.5 L2275,52.5 C2307.5321,52.5 2344.0596,52.5 2372.8059,52.5 " fill="none" style="stroke:#A80036;stroke-width:1.0;stroke-dasharray:3.0,3.0;"/><path d="M2372.8059,55.5047 L2375.0594,52.5 L2372.8059,49.4953 L2380.3176,52.5 L2372.8059,55.5047 " fill="#A80036" style="stroke:#A80036;stroke-width:1.0;"/><ellipse cx="2262" cy="52.5" fill="#A80036" rx="3" ry="3" style="stroke:#A80036;stroke-width:1.0;stroke-dasharray:3.0,3.0;"/><path d="M1722,143.5 L1735,143.5 C1785.2458,143.5 1795.1163,125.1199 1844,113.5 C1864.1456,108.7113 1885.2795,103.9969 1906.3612,99.4907 " fill="none" style="stroke:#A80036;stroke-width:1.0;stroke-dasharray:3.0,3.0;"/><path d="M1906.9952,102.4718 L1908.5971,99.0152 L1905.7272,96.5095 L1913.8142,97.9057 L1906.9952,102.4718 " fill="#A80036" style="stroke:#A80036;stroke-width:1.0;"/><ellipse cx="1722" cy="143.5" fill="#A80036" rx="3" ry="3" style="stroke:#A80036;stroke-width:1.0;stroke-dasharray:3.0,3.0;"/><path d="M1722,163.5 L1735,163.5 C1767.7917,163.5 1802.2729,163.5 1836.3544,163.5 " fill="none" style="stroke:#A80036;stroke-width:1.0;stroke-dasharray:3.0,3.0;"/><path d="M1836.3544,166.59 L1838.6719,163.5 L1836.3544,160.41 L1844.0794,163.5 L1836.3544,166.59 " fill="#A80036" style="stroke:#A80036;stroke-width:1.0;"/><ellipse cx="1722" cy="163.5" fill="#A80036" rx="3" ry="3" style="stroke:#A80036;stroke-width:1.0;stroke-dasharray:3.0,3.0;"/><path d="M1722,184.5 L1735,184.5 C1785.1297,184.5 1794.968,203.0668 1844,213.5 C1857.0983,216.2871 1870.6211,218.9792 1884.28,221.5592 " fill="none" style="stroke:#A80036;stroke-width:1.0;stroke-dasharray:3.0,3.0;"/><path d="M1883.7114,224.5994 L1886.5602,221.9857 L1884.8487,218.519 L1891.8805,222.9809 L1883.7114,224.5994 " fill="#A80036" style="stroke:#A80036;stroke-width:1.0;"/><ellipse cx="1722" cy="184.5" fill="#A80036" rx="3" ry="3" style="stroke:#A80036;stroke-width:1.0;stroke-dasharray:3.0,3.0;"/><path d="M1433,164.5 L1446,164.5 C1479.4149,164.5 1516.0019,164.5 1548.534,164.5 " fill="none" style="stroke:#A80036;stroke-width:1.0;stroke-dasharray:3.0,3.0;"/><path d="M1548.534,167.5969 L1550.8567,164.5 L1548.534,161.4031 L1556.2763,164.5 L1548.534,167.5969 " fill="#A80036" style="stroke:#A80036;stroke-width:1.0;"/><ellipse cx="1433" cy="164.5" fill="#A80036" rx="3" ry="3" style="stroke:#A80036;stroke-width:1.0;stroke-dasharray:3.0,3.0;"/><path d="M1433,267.5 L1446,267.5 C1455.4504,267.5 1465.1546,267.5 1474.949,267.5 " fill="none" style="stroke:#A80036;stroke-width:1.0;stroke-dasharray:3.0,3.0;"/><path d="M1474.949,270.5019 L1477.2004,267.5 L1474.949,264.4981 L1482.4537,267.5 L1474.949,270.5019 " fill="#A80036" style="stroke:#A80036;stroke-width:1.0;"/><ellipse cx="1433" cy="267.5" fill="#A80036" rx="3" ry="3" style="stroke:#A80036;stroke-width:1.0;stroke-dasharray:3.0,3.0;"/><path d="M511,164.5 L524,164.5 C623.1479,164.5 731.2723,164.5 828.8683,164.5 " fill="none" style="stroke:#A80036;stroke-width:1.0;stroke-dasharray:3.0,3.0;"/><path d="M828.8683,167.5424 L831.1501,164.5 L828.8683,161.4576 L836.4743,164.5 L828.8683,167.5424 " fill="#A80036" style="stroke:#A80036;stroke-width:1.0;"/><ellipse cx="511" cy="164.5" fill="#A80036" rx="3" ry="3" style="stroke:#A80036;stroke-width:1.0;stroke-dasharray:3.0,3.0;"/><path d="M95,140.5 L108,140.5 C124.1536,140.5 127.924,143.9191 144,145.5 C238.2184,154.7652 348.1866,160.0151 413.573,162.5538 " fill="none" style="stroke:#A80036;stroke-width:1.0;stroke-dasharray:3.0,3.0;"/><path d="M413.4545,165.6534 L415.8977,162.6427 L413.6915,159.4542 L421.3219,162.85 L413.4545,165.6534 " fill="#A80036" style="stroke:#A80036;stroke-width:1.0;"/><ellipse cx="95" cy="140.5" fill="#A80036" rx="3" ry="3" style="stroke:#A80036;stroke-width:1.0;stroke-dasharray:3.0,3.0;"/><!--MD5=[2e7cf3209cffeeec0f779600b0b83bf6]
@startjson
{
  "info": {
    "copyright": "copyright 2016-2017, 2019 Open Connectivity Foundation, Inc. All rights reserved.",
    "license": "https://github.com/one-data-model/oneDM/blob/master/LICENSE",
    "title": "Speech Synthesis-TTS",
    "version": "2019-02-15"
  },
  "sdfObject": {
    "speech.tts": {
      "description": "This Resource may be created on the OCF Server that is capable of\\nrendering speech by an OCF Client and allows the client to provide an\\nSSML document with text to render or may be created on the OIC Server\\nby some resident application. The audio rendered is at this stage\\nlocal to the Server (i. e. not streamed). The utterance is an SSML\\ndocument. The supportedLanguages is an array of the RFC5646 defined\\nlanguage tags that are supported. The supportedVoices is an SSML\\ndocument fragment indicating the voices that are supported. Utterance\\nin the example shall be a properly escaped (JSON rules) SSML\\ndocument. An example: \"<?xml version=\"1. 0\" encoding=\"ISO-8859-1\"?>\\n<speak version=\"1. 1\" xmlns=\"http://www. w3. org/2001/10/synthesis\"\\nxmlns:xsi=\"http://www. w3. org/2001/XMLSchema-instance\"\\nxsi:schemaLocation=\"http://www. w3. org/2001/10/synthesis http://www.\\nw3. org/TR/speech-synthesis11/synthesis. xsd\" xml:lang=\"en-US\"> The\\ntitle of the movie is: \"Monty Pythons The Meaning of Life\" which is\\ndirected by Terry Jones. </speak\"",
      "sdfProperty": {
        "supportedLanguages": {
          "description": "The array of supported language tags.",
          "items": {
            "type": "string"
          },
          "writable": false,
          "type": "array"
        },
        "supportedVoices": {
          "description": "The SSML document fragment indicating supported voices.",
          "writable": false,
          "maxLength": 1024,
          "type": "string"
        },
        "utterance": {
          "description": "The SSML document including the speech body.",
          "maxLength": 1024,
          "type": "string"
        }
      },
      "sdfRequired": [
        "#/sdfObject/speech.tts/sdfProperty/utterance"
      ]
    }
  }
}
@endjson

PlantUML version 1.2021.2(Sun Mar 07 13:10:27 EET 2021)
(GPL source distribution)
Java Runtime: OpenJDK Runtime Environment
JVM: OpenJDK 64-Bit Server VM
Default Encoding: UTF-8
Language: en
Country: FI
--></g></svg>