<?xml version="1.0" encoding="UTF-8" standalone="no"?><svg xmlns="http://www.w3.org/2000/svg" xmlns:xlink="http://www.w3.org/1999/xlink" contentScriptType="application/ecmascript" contentStyleType="text/css" height="706px" preserveAspectRatio="none" style="width:2468px;height:706px;" version="1.1" viewBox="0 0 2468 706" width="2468px" zoomAndPan="magnify"><defs/><g><rect fill="#FEFECE" height="40.9766" rx="5" ry="5" style="stroke:#FEFECE;stroke-width:1.5;" width="97" x="10" y="295"/><text fill="#000000" font-family="sans-serif" font-size="14" lengthAdjust="spacing" textLength="27" x="15" y="310.5352">info</text><text fill="#000000" font-family="sans-serif" font-size="14" lengthAdjust="spacing" textLength="0" x="102" y="310.5352"/><line style="stroke:#A80036;stroke-width:1.0;" x1="85" x2="85" y1="295" y2="315.4883"/><line style="stroke:#A80036;stroke-width:1.0;" x1="10" x2="107" y1="315.4883" y2="315.4883"/><text fill="#000000" font-family="sans-serif" font-size="14" lengthAdjust="spacing" textLength="65" x="15" y="331.0234">sdfObject</text><text fill="#000000" font-family="sans-serif" font-size="14" lengthAdjust="spacing" textLength="0" x="102" y="331.0234"/><line style="stroke:#A80036;stroke-width:1.0;" x1="85" x2="85" y1="315.4883" y2="335.9766"/><rect fill="none" height="40.9766" rx="5" ry="5" style="stroke:#A80036;stroke-width:1.5;" width="97" x="10" y="295"/><rect fill="#FEFECE" height="81.9531" rx="5" ry="5" style="stroke:#FEFECE;stroke-width:1.5;" width="614" x="144" y="239.5"/><text fill="#000000" font-family="sans-serif" font-size="14" lengthAdjust="spacing" textLength="65" x="149" y="255.0352">copyright</text><text fill="#000000" font-family="sans-serif" font-size="14" lengthAdjust="spacing" textLength="529" x="224" y="255.0352">Copyright 2018-2019 Open Connectivity Foundation, Inc. All rights reserved.</text><line style="stroke:#A80036;stroke-width:1.0;" x1="219" x2="219" y1="239.5" y2="259.9883"/><line style="stroke:#A80036;stroke-width:1.0;" x1="144" x2="758" y1="259.9883" y2="259.9883"/><text fill="#000000" font-family="sans-serif" font-size="14" lengthAdjust="spacing" textLength="47" x="149" y="275.5234">license</text><text fill="#000000" font-family="sans-serif" font-size="14" lengthAdjust="spacing" textLength="462" x="224" y="275.5234">https://github.com/one-data-model/oneDM/blob/master/LICENSE</text><line style="stroke:#A80036;stroke-width:1.0;" x1="219" x2="219" y1="259.9883" y2="280.4766"/><line style="stroke:#A80036;stroke-width:1.0;" x1="144" x2="758" y1="280.4766" y2="280.4766"/><text fill="#000000" font-family="sans-serif" font-size="14" lengthAdjust="spacing" textLength="26" x="149" y="296.0117">title</text><text fill="#000000" font-family="sans-serif" font-size="14" lengthAdjust="spacing" textLength="96" x="224" y="296.0117">Cycling Power</text><line style="stroke:#A80036;stroke-width:1.0;" x1="219" x2="219" y1="280.4766" y2="300.9648"/><line style="stroke:#A80036;stroke-width:1.0;" x1="144" x2="758" y1="300.9648" y2="300.9648"/><text fill="#000000" font-family="sans-serif" font-size="14" lengthAdjust="spacing" textLength="50" x="149" y="316.5">version</text><text fill="#000000" font-family="sans-serif" font-size="14" lengthAdjust="spacing" textLength="88" x="224" y="316.5">2019-06-11</text><line style="stroke:#A80036;stroke-width:1.0;" x1="219" x2="219" y1="300.9648" y2="321.4531"/><rect fill="none" height="81.9531" rx="5" ry="5" style="stroke:#A80036;stroke-width:1.5;" width="614" x="144" y="239.5"/><rect fill="#FEFECE" height="20.4883" rx="5" ry="5" style="stroke:#FEFECE;stroke-width:1.5;" width="122" x="390" y="339.5"/><text fill="#000000" font-family="sans-serif" font-size="14" lengthAdjust="spacing" textLength="90" x="395" y="355.0352">cyclingpower</text><text fill="#000000" font-family="sans-serif" font-size="14" lengthAdjust="spacing" textLength="0" x="507" y="355.0352"/><line style="stroke:#A80036;stroke-width:1.0;" x1="490" x2="490" y1="339.5" y2="359.9883"/><rect fill="none" height="20.4883" rx="5" ry="5" style="stroke:#A80036;stroke-width:1.5;" width="122" x="390" y="339.5"/><rect fill="#FEFECE" height="143.9063" rx="5" ry="5" style="stroke:#FEFECE;stroke-width:1.5;" width="568" x="795" y="277.5"/><text fill="#000000" font-family="sans-serif" font-size="14" lengthAdjust="spacing" textLength="77" x="800" y="293.0352">description</text><text fill="#000000" font-family="sans-serif" font-size="14" lengthAdjust="spacing" textLength="453" x="893" y="293.0352">This Resource describes the cycling power, which is the amount of</text><text fill="#000000" font-family="sans-serif" font-size="14" lengthAdjust="spacing" textLength="465" x="893" y="309.5234">energy transferred or converted per unit time. The unit, which is the</text><text fill="#000000" font-family="sans-serif" font-size="14" lengthAdjust="spacing" textLength="441" x="893" y="326.0117">default SI unit, is W (which is equal to one joule per second). The</text><text fill="#000000" font-family="sans-serif" font-size="14" lengthAdjust="spacing" textLength="451" x="893" y="342.5">power Property is a read-only value that is provided by the server.</text><text fill="#000000" font-family="sans-serif" font-size="14" lengthAdjust="spacing" textLength="455" x="893" y="358.9883">When range (from "oic. r. baseresource") is omitted the default is 0</text><text fill="#000000" font-family="sans-serif" font-size="14" lengthAdjust="spacing" textLength="109" x="893" y="375.4766">to +MAXFLOAT.</text><line style="stroke:#A80036;stroke-width:1.0;" x1="888" x2="888" y1="277.5" y2="380.4297"/><line style="stroke:#A80036;stroke-width:1.0;" x1="795" x2="1363" y1="380.4297" y2="380.4297"/><text fill="#000000" font-family="sans-serif" font-size="14" lengthAdjust="spacing" textLength="79" x="800" y="395.9648">sdfProperty</text><text fill="#000000" font-family="sans-serif" font-size="14" lengthAdjust="spacing" textLength="0" x="905" y="395.9648"/><line style="stroke:#A80036;stroke-width:1.0;" x1="888" x2="888" y1="380.4297" y2="400.918"/><line style="stroke:#A80036;stroke-width:1.0;" x1="795" x2="1363" y1="400.918" y2="400.918"/><text fill="#000000" font-family="sans-serif" font-size="14" lengthAdjust="spacing" textLength="83" x="800" y="416.4531">sdfRequired</text><text fill="#000000" font-family="sans-serif" font-size="14" lengthAdjust="spacing" textLength="0" x="905" y="416.4531"/><line style="stroke:#A80036;stroke-width:1.0;" x1="888" x2="888" y1="400.918" y2="421.4063"/><rect fill="none" height="143.9063" rx="5" ry="5" style="stroke:#A80036;stroke-width:1.5;" width="568" x="795" y="277.5"/><rect fill="#FEFECE" height="102.4414" rx="5" ry="5" style="stroke:#FEFECE;stroke-width:1.5;" width="116" x="1504" y="283.5"/><text fill="#000000" font-family="sans-serif" font-size="14" lengthAdjust="spacing" textLength="43" x="1509" y="299.0352">power</text><text fill="#000000" font-family="sans-serif" font-size="14" lengthAdjust="spacing" textLength="0" x="1615" y="299.0352"/><line style="stroke:#A80036;stroke-width:1.0;" x1="1598" x2="1598" y1="283.5" y2="303.9883"/><line style="stroke:#A80036;stroke-width:1.0;" x1="1504" x2="1620" y1="303.9883" y2="303.9883"/><text fill="#000000" font-family="sans-serif" font-size="14" lengthAdjust="spacing" textLength="73" x="1509" y="319.5234">power-left</text><text fill="#000000" font-family="sans-serif" font-size="14" lengthAdjust="spacing" textLength="0" x="1615" y="319.5234"/><line style="stroke:#A80036;stroke-width:1.0;" x1="1598" x2="1598" y1="303.9883" y2="324.4766"/><line style="stroke:#A80036;stroke-width:1.0;" x1="1504" x2="1620" y1="324.4766" y2="324.4766"/><text fill="#000000" font-family="sans-serif" font-size="14" lengthAdjust="spacing" textLength="84" x="1509" y="340.0117">power-right</text><text fill="#000000" font-family="sans-serif" font-size="14" lengthAdjust="spacing" textLength="0" x="1615" y="340.0117"/><line style="stroke:#A80036;stroke-width:1.0;" x1="1598" x2="1598" y1="324.4766" y2="344.9648"/><line style="stroke:#A80036;stroke-width:1.0;" x1="1504" x2="1620" y1="344.9648" y2="344.9648"/><text fill="#000000" font-family="sans-serif" font-size="14" lengthAdjust="spacing" textLength="40" x="1509" y="360.5">range</text><text fill="#000000" font-family="sans-serif" font-size="14" lengthAdjust="spacing" textLength="0" x="1615" y="360.5"/><line style="stroke:#A80036;stroke-width:1.0;" x1="1598" x2="1598" y1="344.9648" y2="365.4531"/><line style="stroke:#A80036;stroke-width:1.0;" x1="1504" x2="1620" y1="365.4531" y2="365.4531"/><text fill="#000000" font-family="sans-serif" font-size="14" lengthAdjust="spacing" textLength="29" x="1509" y="380.9883">step</text><text fill="#000000" font-family="sans-serif" font-size="14" lengthAdjust="spacing" textLength="0" x="1615" y="380.9883"/><line style="stroke:#A80036;stroke-width:1.0;" x1="1598" x2="1598" y1="365.4531" y2="385.9414"/><rect fill="none" height="102.4414" rx="5" ry="5" style="stroke:#A80036;stroke-width:1.5;" width="116" x="1504" y="283.5"/><rect fill="#FEFECE" height="114.9297" rx="5" ry="5" style="stroke:#FEFECE;stroke-width:1.5;" width="550" x="1763.5" y="10"/><text fill="#000000" font-family="sans-serif" font-size="14" lengthAdjust="spacing" textLength="77" x="1768.5" y="25.5352">description</text><text fill="#000000" font-family="sans-serif" font-size="14" lengthAdjust="spacing" textLength="453" x="1855.5" y="25.5352">This Resource describes the power, which is the amount of energy</text><text fill="#000000" font-family="sans-serif" font-size="14" lengthAdjust="spacing" textLength="451" x="1855.5" y="42.0234">transferred or converted per unit time, in W (which is equal to one</text><text fill="#000000" font-family="sans-serif" font-size="14" lengthAdjust="spacing" textLength="123" x="1855.5" y="58.5117">joule per second).</text><line style="stroke:#A80036;stroke-width:1.0;" x1="1850.5" x2="1850.5" y1="10" y2="63.4648"/><line style="stroke:#A80036;stroke-width:1.0;" x1="1763.5" x2="2313.5" y1="63.4648" y2="63.4648"/><text fill="#000000" font-family="sans-serif" font-size="14" lengthAdjust="spacing" textLength="29" x="1768.5" y="79">type</text><text fill="#000000" font-family="sans-serif" font-size="14" lengthAdjust="spacing" textLength="54" x="1855.5" y="79">number</text><line style="stroke:#A80036;stroke-width:1.0;" x1="1850.5" x2="1850.5" y1="63.4648" y2="83.9531"/><line style="stroke:#A80036;stroke-width:1.0;" x1="1763.5" x2="2313.5" y1="83.9531" y2="83.9531"/><text fill="#000000" font-family="sans-serif" font-size="14" lengthAdjust="spacing" textLength="65" x="1768.5" y="99.4883">minimum</text><text fill="#000000" font-family="sans-serif" font-size="14" lengthAdjust="spacing" textLength="9" x="1855.5" y="99.4883">0</text><line style="stroke:#A80036;stroke-width:1.0;" x1="1850.5" x2="1850.5" y1="83.9531" y2="104.4414"/><line style="stroke:#A80036;stroke-width:1.0;" x1="1763.5" x2="2313.5" y1="104.4414" y2="104.4414"/><text fill="#000000" font-family="sans-serif" font-size="14" lengthAdjust="spacing" textLength="55" x="1768.5" y="119.9766">writable</text><text fill="#000000" font-family="sans-serif" font-size="14" lengthAdjust="spacing" textLength="48" x="1855.5" y="119.9766">☐ false</text><line style="stroke:#A80036;stroke-width:1.0;" x1="1850.5" x2="1850.5" y1="104.4414" y2="124.9297"/><rect fill="none" height="114.9297" rx="5" ry="5" style="stroke:#A80036;stroke-width:1.5;" width="550" x="1763.5" y="10"/><rect fill="#FEFECE" height="114.9297" rx="5" ry="5" style="stroke:#FEFECE;stroke-width:1.5;" width="550" x="1763.5" y="143"/><text fill="#000000" font-family="sans-serif" font-size="14" lengthAdjust="spacing" textLength="77" x="1768.5" y="158.5352">description</text><text fill="#000000" font-family="sans-serif" font-size="14" lengthAdjust="spacing" textLength="453" x="1855.5" y="158.5352">This Resource describes the power, which is the amount of energy</text><text fill="#000000" font-family="sans-serif" font-size="14" lengthAdjust="spacing" textLength="451" x="1855.5" y="175.0234">transferred or converted per unit time, in W (which is equal to one</text><text fill="#000000" font-family="sans-serif" font-size="14" lengthAdjust="spacing" textLength="123" x="1855.5" y="191.5117">joule per second).</text><line style="stroke:#A80036;stroke-width:1.0;" x1="1850.5" x2="1850.5" y1="143" y2="196.4648"/><line style="stroke:#A80036;stroke-width:1.0;" x1="1763.5" x2="2313.5" y1="196.4648" y2="196.4648"/><text fill="#000000" font-family="sans-serif" font-size="14" lengthAdjust="spacing" textLength="29" x="1768.5" y="212">type</text><text fill="#000000" font-family="sans-serif" font-size="14" lengthAdjust="spacing" textLength="54" x="1855.5" y="212">number</text><line style="stroke:#A80036;stroke-width:1.0;" x1="1850.5" x2="1850.5" y1="196.4648" y2="216.9531"/><line style="stroke:#A80036;stroke-width:1.0;" x1="1763.5" x2="2313.5" y1="216.9531" y2="216.9531"/><text fill="#000000" font-family="sans-serif" font-size="14" lengthAdjust="spacing" textLength="65" x="1768.5" y="232.4883">minimum</text><text fill="#000000" font-family="sans-serif" font-size="14" lengthAdjust="spacing" textLength="9" x="1855.5" y="232.4883">0</text><line style="stroke:#A80036;stroke-width:1.0;" x1="1850.5" x2="1850.5" y1="216.9531" y2="237.4414"/><line style="stroke:#A80036;stroke-width:1.0;" x1="1763.5" x2="2313.5" y1="237.4414" y2="237.4414"/><text fill="#000000" font-family="sans-serif" font-size="14" lengthAdjust="spacing" textLength="55" x="1768.5" y="252.9766">writable</text><text fill="#000000" font-family="sans-serif" font-size="14" lengthAdjust="spacing" textLength="48" x="1855.5" y="252.9766">☐ false</text><line style="stroke:#A80036;stroke-width:1.0;" x1="1850.5" x2="1850.5" y1="237.4414" y2="257.9297"/><rect fill="none" height="114.9297" rx="5" ry="5" style="stroke:#A80036;stroke-width:1.5;" width="550" x="1763.5" y="143"/><rect fill="#FEFECE" height="114.9297" rx="5" ry="5" style="stroke:#FEFECE;stroke-width:1.5;" width="550" x="1763.5" y="276"/><text fill="#000000" font-family="sans-serif" font-size="14" lengthAdjust="spacing" textLength="77" x="1768.5" y="291.5352">description</text><text fill="#000000" font-family="sans-serif" font-size="14" lengthAdjust="spacing" textLength="453" x="1855.5" y="291.5352">This Resource describes the power, which is the amount of energy</text><text fill="#000000" font-family="sans-serif" font-size="14" lengthAdjust="spacing" textLength="451" x="1855.5" y="308.0234">transferred or converted per unit time, in W (which is equal to one</text><text fill="#000000" font-family="sans-serif" font-size="14" lengthAdjust="spacing" textLength="123" x="1855.5" y="324.5117">joule per second).</text><line style="stroke:#A80036;stroke-width:1.0;" x1="1850.5" x2="1850.5" y1="276" y2="329.4648"/><line style="stroke:#A80036;stroke-width:1.0;" x1="1763.5" x2="2313.5" y1="329.4648" y2="329.4648"/><text fill="#000000" font-family="sans-serif" font-size="14" lengthAdjust="spacing" textLength="29" x="1768.5" y="345">type</text><text fill="#000000" font-family="sans-serif" font-size="14" lengthAdjust="spacing" textLength="54" x="1855.5" y="345">number</text><line style="stroke:#A80036;stroke-width:1.0;" x1="1850.5" x2="1850.5" y1="329.4648" y2="349.9531"/><line style="stroke:#A80036;stroke-width:1.0;" x1="1763.5" x2="2313.5" y1="349.9531" y2="349.9531"/><text fill="#000000" font-family="sans-serif" font-size="14" lengthAdjust="spacing" textLength="65" x="1768.5" y="365.4883">minimum</text><text fill="#000000" font-family="sans-serif" font-size="14" lengthAdjust="spacing" textLength="9" x="1855.5" y="365.4883">0</text><line style="stroke:#A80036;stroke-width:1.0;" x1="1850.5" x2="1850.5" y1="349.9531" y2="370.4414"/><line style="stroke:#A80036;stroke-width:1.0;" x1="1763.5" x2="2313.5" y1="370.4414" y2="370.4414"/><text fill="#000000" font-family="sans-serif" font-size="14" lengthAdjust="spacing" textLength="55" x="1768.5" y="385.9766">writable</text><text fill="#000000" font-family="sans-serif" font-size="14" lengthAdjust="spacing" textLength="48" x="1855.5" y="385.9766">☐ false</text><line style="stroke:#A80036;stroke-width:1.0;" x1="1850.5" x2="1850.5" y1="370.4414" y2="390.9297"/><rect fill="none" height="114.9297" rx="5" ry="5" style="stroke:#A80036;stroke-width:1.5;" width="550" x="1763.5" y="276"/><rect fill="#FEFECE" height="155.9063" rx="5" ry="5" style="stroke:#FEFECE;stroke-width:1.5;" width="548" x="1764.5" y="409.5"/><text fill="#000000" font-family="sans-serif" font-size="14" lengthAdjust="spacing" textLength="29" x="1769.5" y="425.0352">type</text><text fill="#000000" font-family="sans-serif" font-size="14" lengthAdjust="spacing" textLength="35" x="1856.5" y="425.0352">array</text><line style="stroke:#A80036;stroke-width:1.0;" x1="1851.5" x2="1851.5" y1="409.5" y2="429.9883"/><line style="stroke:#A80036;stroke-width:1.0;" x1="1764.5" x2="2312.5" y1="429.9883" y2="429.9883"/><text fill="#000000" font-family="sans-serif" font-size="14" lengthAdjust="spacing" textLength="77" x="1769.5" y="445.5234">description</text><text fill="#000000" font-family="sans-serif" font-size="14" lengthAdjust="spacing" textLength="451" x="1856.5" y="445.5234">The valid range for the Property in the Resource as a number. The</text><text fill="#000000" font-family="sans-serif" font-size="14" lengthAdjust="spacing" textLength="439" x="1856.5" y="462.0117">first value in the array is the minimum value, the second value in</text><text fill="#000000" font-family="sans-serif" font-size="14" lengthAdjust="spacing" textLength="219" x="1856.5" y="478.5">the array is the maximum value.</text><line style="stroke:#A80036;stroke-width:1.0;" x1="1851.5" x2="1851.5" y1="429.9883" y2="483.4531"/><line style="stroke:#A80036;stroke-width:1.0;" x1="1764.5" x2="2312.5" y1="483.4531" y2="483.4531"/><text fill="#000000" font-family="sans-serif" font-size="14" lengthAdjust="spacing" textLength="55" x="1769.5" y="498.9883">writable</text><text fill="#000000" font-family="sans-serif" font-size="14" lengthAdjust="spacing" textLength="48" x="1856.5" y="498.9883">☐ false</text><line style="stroke:#A80036;stroke-width:1.0;" x1="1851.5" x2="1851.5" y1="483.4531" y2="503.9414"/><line style="stroke:#A80036;stroke-width:1.0;" x1="1764.5" x2="2312.5" y1="503.9414" y2="503.9414"/><text fill="#000000" font-family="sans-serif" font-size="14" lengthAdjust="spacing" textLength="63" x="1769.5" y="519.4766">minItems</text><text fill="#000000" font-family="sans-serif" font-size="14" lengthAdjust="spacing" textLength="9" x="1856.5" y="519.4766">2</text><line style="stroke:#A80036;stroke-width:1.0;" x1="1851.5" x2="1851.5" y1="503.9414" y2="524.4297"/><line style="stroke:#A80036;stroke-width:1.0;" x1="1764.5" x2="2312.5" y1="524.4297" y2="524.4297"/><text fill="#000000" font-family="sans-serif" font-size="14" lengthAdjust="spacing" textLength="67" x="1769.5" y="539.9648">maxItems</text><text fill="#000000" font-family="sans-serif" font-size="14" lengthAdjust="spacing" textLength="9" x="1856.5" y="539.9648">2</text><line style="stroke:#A80036;stroke-width:1.0;" x1="1851.5" x2="1851.5" y1="524.4297" y2="544.918"/><line style="stroke:#A80036;stroke-width:1.0;" x1="1764.5" x2="2312.5" y1="544.918" y2="544.918"/><text fill="#000000" font-family="sans-serif" font-size="14" lengthAdjust="spacing" textLength="37" x="1769.5" y="560.4531">items</text><text fill="#000000" font-family="sans-serif" font-size="14" lengthAdjust="spacing" textLength="0" x="1868.5" y="560.4531"/><line style="stroke:#A80036;stroke-width:1.0;" x1="1851.5" x2="1851.5" y1="544.918" y2="565.4063"/><rect fill="none" height="155.9063" rx="5" ry="5" style="stroke:#A80036;stroke-width:1.5;" width="548" x="1764.5" y="409.5"/><rect fill="#FEFECE" height="20.4883" rx="5" ry="5" style="stroke:#FEFECE;stroke-width:1.5;" width="103" x="2353" y="542.5"/><text fill="#000000" font-family="sans-serif" font-size="14" lengthAdjust="spacing" textLength="29" x="2358" y="558.0352">type</text><text fill="#000000" font-family="sans-serif" font-size="14" lengthAdjust="spacing" textLength="54" x="2397" y="558.0352">number</text><line style="stroke:#A80036;stroke-width:1.0;" x1="2392" x2="2392" y1="542.5" y2="562.9883"/><rect fill="none" height="20.4883" rx="5" ry="5" style="stroke:#A80036;stroke-width:1.5;" width="103" x="2353" y="542.5"/><rect fill="#FEFECE" height="110.9297" rx="5" ry="5" style="stroke:#FEFECE;stroke-width:1.5;" width="555" x="1761" y="584"/><text fill="#000000" font-family="sans-serif" font-size="14" lengthAdjust="spacing" textLength="77" x="1766" y="599.5352">description</text><text fill="#000000" font-family="sans-serif" font-size="14" lengthAdjust="spacing" textLength="456" x="1853" y="599.5352">Step value across the defined range an integer when the range is a</text><text fill="#000000" font-family="sans-serif" font-size="14" lengthAdjust="spacing" textLength="458" x="1853" y="616.0234">number.  This is the increment for valid values across the range; so</text><text fill="#000000" font-family="sans-serif" font-size="14" lengthAdjust="spacing" textLength="381" x="1853" y="632.5117">if range is 0.0..10.0 and step is 2.5 then valid values are</text><text fill="#000000" font-family="sans-serif" font-size="14" lengthAdjust="spacing" textLength="139" x="1853" y="649">0.0,2.5,5.0,7.5,10.0.</text><line style="stroke:#A80036;stroke-width:1.0;" x1="1848" x2="1848" y1="584" y2="653.9531"/><line style="stroke:#A80036;stroke-width:1.0;" x1="1761" x2="2316" y1="653.9531" y2="653.9531"/><text fill="#000000" font-family="sans-serif" font-size="14" lengthAdjust="spacing" textLength="55" x="1766" y="669.4883">writable</text><text fill="#000000" font-family="sans-serif" font-size="14" lengthAdjust="spacing" textLength="48" x="1853" y="669.4883">☐ false</text><line style="stroke:#A80036;stroke-width:1.0;" x1="1848" x2="1848" y1="653.9531" y2="674.4414"/><line style="stroke:#A80036;stroke-width:1.0;" x1="1761" x2="2316" y1="674.4414" y2="674.4414"/><text fill="#000000" font-family="sans-serif" font-size="14" lengthAdjust="spacing" textLength="29" x="1766" y="689.9766">type</text><text fill="#000000" font-family="sans-serif" font-size="14" lengthAdjust="spacing" textLength="54" x="1853" y="689.9766">number</text><line style="stroke:#A80036;stroke-width:1.0;" x1="1848" x2="1848" y1="674.4414" y2="694.9297"/><rect fill="none" height="110.9297" rx="5" ry="5" style="stroke:#A80036;stroke-width:1.5;" width="555" x="1761" y="584"/><rect fill="#FEFECE" height="20.4883" rx="5" ry="5" style="stroke:#FEFECE;stroke-width:1.5;" width="324" x="1400" y="403.5"/><text fill="#000000" font-family="sans-serif" font-size="14" lengthAdjust="spacing" textLength="314" x="1405" y="419.0352">#/sdfObject/cyclingpower/sdfProperty/power</text><rect fill="none" height="20.4883" rx="5" ry="5" style="stroke:#A80036;stroke-width:1.5;" width="324" x="1400" y="403.5"/><path d="M95,304.5 L108,304.5 C117.4068,304.5 126.9554,304.4088 136.5926,304.2376 " fill="none" style="stroke:#A80036;stroke-width:1.0;stroke-dasharray:3.0,3.0;"/><path d="M136.6543,307.3363 L138.9166,304.1914 L136.5309,301.1389 L144.3394,304.0834 L136.6543,307.3363 " fill="#A80036" style="stroke:#A80036;stroke-width:1.0;"/><ellipse cx="95" cy="304.5" fill="#A80036" rx="3" ry="3" style="stroke:#A80036;stroke-width:1.0;stroke-dasharray:3.0,3.0;"/><path d="M1608.5,293.5 L1621.5,293.5 C1715.5095,293.5 1680.5601,183.1538 1761,134.5 C1764.3538,132.4715 1767.7652,130.5044 1771.2276,128.5968 " fill="none" style="stroke:#A80036;stroke-width:1.0;stroke-dasharray:3.0,3.0;"/><path d="M1772.6658,131.2845 L1773.2434,127.5181 L1769.7893,125.909 L1777.9469,125.0012 L1772.6658,131.2845 " fill="#A80036" style="stroke:#A80036;stroke-width:1.0;"/><ellipse cx="1608.5" cy="293.5" fill="#A80036" rx="3" ry="3" style="stroke:#A80036;stroke-width:1.0;stroke-dasharray:3.0,3.0;"/><path d="M1608.5,313.5 L1621.5,313.5 C1686.7838,313.5 1698.2213,285.411 1761,267.5 C1769.8225,264.9829 1778.8202,262.4789 1787.9214,259.9994 " fill="none" style="stroke:#A80036;stroke-width:1.0;stroke-dasharray:3.0,3.0;"/><path d="M1788.7146,262.9274 L1790.1174,259.4045 L1787.1282,257.0715 L1795.2413,258.0163 L1788.7146,262.9274 " fill="#A80036" style="stroke:#A80036;stroke-width:1.0;"/><ellipse cx="1608.5" cy="313.5" fill="#A80036" rx="3" ry="3" style="stroke:#A80036;stroke-width:1.0;stroke-dasharray:3.0,3.0;"/><path d="M1608.5,333.5 L1621.5,333.5 C1665.0805,333.5 1711.226,333.5 1756.3133,333.5 " fill="none" style="stroke:#A80036;stroke-width:1.0;stroke-dasharray:3.0,3.0;"/><path d="M1756.3133,336.5078 L1758.5691,333.5 L1756.3133,330.4922 L1763.8328,333.5 L1756.3133,336.5078 " fill="#A80036" style="stroke:#A80036;stroke-width:1.0;"/><ellipse cx="1608.5" cy="333.5" fill="#A80036" rx="3" ry="3" style="stroke:#A80036;stroke-width:1.0;stroke-dasharray:3.0,3.0;"/><path d="M2301,552.5 L2314,552.5 C2324.1843,552.5 2335.0169,552.5 2345.5074,552.5 " fill="none" style="stroke:#A80036;stroke-width:1.0;stroke-dasharray:3.0,3.0;"/><path d="M2345.5074,555.5256 L2347.7767,552.5 L2345.5074,549.4744 L2353.0716,552.5 L2345.5074,555.5256 " fill="#A80036" style="stroke:#A80036;stroke-width:1.0;"/><ellipse cx="2301" cy="552.5" fill="#A80036" rx="3" ry="3" style="stroke:#A80036;stroke-width:1.0;stroke-dasharray:3.0,3.0;"/><path d="M1608.5,354.5 L1621.5,354.5 C1686.7838,354.5 1698.8564,380.4962 1761,400.5 C1767.695,402.6551 1774.483,404.8337 1781.3341,407.0269 " fill="none" style="stroke:#A80036;stroke-width:1.0;stroke-dasharray:3.0,3.0;"/><path d="M1780.3801,410.0099 L1783.5714,407.7424 L1782.2882,404.0439 L1788.7916,409.412 L1780.3801,410.0099 " fill="#A80036" style="stroke:#A80036;stroke-width:1.0;"/><ellipse cx="1608.5" cy="354.5" fill="#A80036" rx="3" ry="3" style="stroke:#A80036;stroke-width:1.0;stroke-dasharray:3.0,3.0;"/><path d="M1608.5,375.5 L1621.5,375.5 C1668.2687,375.5 1691.6686,361.6925 1725,394.5 C1783.144,451.7301 1704.2735,515.8646 1761,574.5 C1762.3899,575.9367 1763.8052,577.3442 1765.2445,578.7232 " fill="none" style="stroke:#A80036;stroke-width:1.0;stroke-dasharray:3.0,3.0;"/><path d="M1763.1733,580.9908 L1766.9452,580.2765 L1767.3157,576.4556 L1770.9135,583.9011 L1763.1733,580.9908 " fill="#A80036" style="stroke:#A80036;stroke-width:1.0;"/><ellipse cx="1608.5" cy="375.5" fill="#A80036" rx="3" ry="3" style="stroke:#A80036;stroke-width:1.0;stroke-dasharray:3.0,3.0;"/><path d="M1351,349.5 L1364,349.5 C1408.3269,349.5 1458.0897,345.6967 1496.5748,341.9204 " fill="none" style="stroke:#A80036;stroke-width:1.0;stroke-dasharray:3.0,3.0;"/><path d="M1496.8763,344.937 L1498.8373,341.6942 L1496.2733,338.9037 L1504.1165,341.1666 L1496.8763,344.937 " fill="#A80036" style="stroke:#A80036;stroke-width:1.0;"/><ellipse cx="1351" cy="349.5" fill="#A80036" rx="3" ry="3" style="stroke:#A80036;stroke-width:1.0;stroke-dasharray:3.0,3.0;"/><path d="M1351,397.5 L1364,397.5 C1397.7582,397.5 1434.6565,399.8511 1467.3269,402.7508 " fill="none" style="stroke:#A80036;stroke-width:1.0;stroke-dasharray:3.0,3.0;"/><path d="M1467.0441,405.8596 L1469.6586,402.9629 L1467.6097,399.6419 L1475.099,403.4578 L1467.0441,405.8596 " fill="#A80036" style="stroke:#A80036;stroke-width:1.0;"/><ellipse cx="1351" cy="397.5" fill="#A80036" rx="3" ry="3" style="stroke:#A80036;stroke-width:1.0;stroke-dasharray:3.0,3.0;"/><path d="M500.5,349.5 L513.5,349.5 C602.617,349.5 699.6408,349.5 787.7351,349.5 " fill="none" style="stroke:#A80036;stroke-width:1.0;stroke-dasharray:3.0,3.0;"/><path d="M787.7351,352.5718 L790.039,349.5 L787.7351,346.4282 L795.4146,349.5 L787.7351,352.5718 " fill="#A80036" style="stroke:#A80036;stroke-width:1.0;"/><ellipse cx="500.5" cy="349.5" fill="#A80036" rx="3" ry="3" style="stroke:#A80036;stroke-width:1.0;stroke-dasharray:3.0,3.0;"/><path d="M95,325.5 L108,325.5 C124.1536,325.5 127.927,328.888 144,330.5 C225.904,338.7144 320.5008,343.9315 382.6881,346.7788 " fill="none" style="stroke:#A80036;stroke-width:1.0;stroke-dasharray:3.0,3.0;"/><path d="M382.5471,349.8979 L385.0274,346.8845 L382.829,343.6597 L390.4859,347.1312 L382.5471,349.8979 " fill="#A80036" style="stroke:#A80036;stroke-width:1.0;"/><ellipse cx="95" cy="325.5" fill="#A80036" rx="3" ry="3" style="stroke:#A80036;stroke-width:1.0;stroke-dasharray:3.0,3.0;"/><!--MD5=[7035a4fc639bab3d86fd48977e42c748]
@startjson
{
  "info": {
    "copyright": "Copyright 2018-2019 Open Connectivity Foundation, Inc. All rights reserved.",
    "license": "https://github.com/one-data-model/oneDM/blob/master/LICENSE",
    "title": "Cycling Power",
    "version": "2019-06-11"
  },
  "sdfObject": {
    "cyclingpower": {
      "description": "This Resource describes the cycling power, which is the amount of\\nenergy transferred or converted per unit time. The unit, which is the\\ndefault SI unit, is W (which is equal to one joule per second). The\\npower Property is a read-only value that is provided by the server.\\nWhen range (from \"oic. r. baseresource\") is omitted the default is 0\\nto +MAXFLOAT.",
      "sdfProperty": {
        "power": {
          "description": "This Resource describes the power, which is the amount of energy\\ntransferred or converted per unit time, in W (which is equal to one\\njoule per second).",
          "type": "number",
          "minimum": 0,
          "writable": false
        },
        "power-left": {
          "description": "This Resource describes the power, which is the amount of energy\\ntransferred or converted per unit time, in W (which is equal to one\\njoule per second).",
          "type": "number",
          "minimum": 0,
          "writable": false
        },
        "power-right": {
          "description": "This Resource describes the power, which is the amount of energy\\ntransferred or converted per unit time, in W (which is equal to one\\njoule per second).",
          "type": "number",
          "minimum": 0,
          "writable": false
        },
        "range": {
          "type": "array",
          "description": "The valid range for the Property in the Resource as a number. The\\nfirst value in the array is the minimum value, the second value in\\nthe array is the maximum value.",
          "writable": false,
          "minItems": 2,
          "maxItems": 2,
          "items": {
            "type": "number"
          }
        },
        "step": {
          "description": "Step value across the defined range an integer when the range is a\\nnumber.  This is the increment for valid values across the range; so\\nif range is 0.0..10.0 and step is 2.5 then valid values are\\n0.0,2.5,5.0,7.5,10.0.",
          "writable": false,
          "type": "number"
        }
      },
      "sdfRequired": [
        "#/sdfObject/cyclingpower/sdfProperty/power"
      ]
    }
  }
}
@endjson

PlantUML version 1.2021.2(Sun Mar 07 13:10:27 EET 2021)
(GPL source distribution)
Java Runtime: OpenJDK Runtime Environment
JVM: OpenJDK 64-Bit Server VM
Default Encoding: UTF-8
Language: en
Country: FI
--></g></svg>