<?xml version="1.0" encoding="UTF-8" standalone="no"?><svg xmlns="http://www.w3.org/2000/svg" xmlns:xlink="http://www.w3.org/1999/xlink" contentScriptType="application/ecmascript" contentStyleType="text/css" height="630px" preserveAspectRatio="none" style="width:2764px;height:630px;" version="1.1" viewBox="0 0 2764 630" width="2764px" zoomAndPan="magnify"><defs/><g><rect fill="#FEFECE" height="81.9531" rx="5" ry="5" style="stroke:#FEFECE;stroke-width:1.5;" width="164" x="10" y="98"/><text fill="#000000" font-family="sans-serif" font-size="14" lengthAdjust="spacing" textLength="27" x="15" y="113.5352">info</text><text fill="#000000" font-family="sans-serif" font-size="14" lengthAdjust="spacing" textLength="0" x="163" y="113.5352"/><line style="stroke:#A80036;stroke-width:1.0;" x1="146" x2="146" y1="98" y2="118.4883"/><line style="stroke:#A80036;stroke-width:1.0;" x1="10" x2="174" y1="118.4883" y2="118.4883"/><text fill="#000000" font-family="sans-serif" font-size="14" lengthAdjust="spacing" textLength="77" x="15" y="134.0234">namespace</text><text fill="#000000" font-family="sans-serif" font-size="14" lengthAdjust="spacing" textLength="0" x="163" y="134.0234"/><line style="stroke:#A80036;stroke-width:1.0;" x1="146" x2="146" y1="118.4883" y2="138.9766"/><line style="stroke:#A80036;stroke-width:1.0;" x1="10" x2="174" y1="138.9766" y2="138.9766"/><text fill="#000000" font-family="sans-serif" font-size="14" lengthAdjust="spacing" textLength="126" x="15" y="154.5117">defaultNamespace</text><text fill="#000000" font-family="sans-serif" font-size="14" lengthAdjust="spacing" textLength="18" x="151" y="154.5117">pg</text><line style="stroke:#A80036;stroke-width:1.0;" x1="146" x2="146" y1="138.9766" y2="159.4648"/><line style="stroke:#A80036;stroke-width:1.0;" x1="10" x2="174" y1="159.4648" y2="159.4648"/><text fill="#000000" font-family="sans-serif" font-size="14" lengthAdjust="spacing" textLength="65" x="15" y="175">sdfObject</text><text fill="#000000" font-family="sans-serif" font-size="14" lengthAdjust="spacing" textLength="0" x="163" y="175"/><line style="stroke:#A80036;stroke-width:1.0;" x1="146" x2="146" y1="159.4648" y2="179.9531"/><rect fill="none" height="81.9531" rx="5" ry="5" style="stroke:#A80036;stroke-width:1.5;" width="164" x="10" y="98"/><rect fill="#FEFECE" height="81.9531" rx="5" ry="5" style="stroke:#FEFECE;stroke-width:1.5;" width="547" x="211" y="20"/><text fill="#000000" font-family="sans-serif" font-size="14" lengthAdjust="spacing" textLength="26" x="216" y="35.5352">title</text><text fill="#000000" font-family="sans-serif" font-size="14" lengthAdjust="spacing" textLength="317" x="291" y="35.5352">Example Bluetooth mesh Generic OnOff Model</text><line style="stroke:#A80036;stroke-width:1.0;" x1="286" x2="286" y1="20" y2="40.4883"/><line style="stroke:#A80036;stroke-width:1.0;" x1="211" x2="758" y1="40.4883" y2="40.4883"/><text fill="#000000" font-family="sans-serif" font-size="14" lengthAdjust="spacing" textLength="50" x="216" y="56.0234">version</text><text fill="#000000" font-family="sans-serif" font-size="14" lengthAdjust="spacing" textLength="72" x="291" y="56.0234">20200710</text><line style="stroke:#A80036;stroke-width:1.0;" x1="286" x2="286" y1="40.4883" y2="60.9766"/><line style="stroke:#A80036;stroke-width:1.0;" x1="211" x2="758" y1="60.9766" y2="60.9766"/><text fill="#000000" font-family="sans-serif" font-size="14" lengthAdjust="spacing" textLength="65" x="216" y="76.5117">copyright</text><text fill="#000000" font-family="sans-serif" font-size="14" lengthAdjust="spacing" textLength="369" x="291" y="76.5117">Copyright 2020 Bluetooth SIG, Inc. All rights reserved.</text><line style="stroke:#A80036;stroke-width:1.0;" x1="286" x2="286" y1="60.9766" y2="81.4648"/><line style="stroke:#A80036;stroke-width:1.0;" x1="211" x2="758" y1="81.4648" y2="81.4648"/><text fill="#000000" font-family="sans-serif" font-size="14" lengthAdjust="spacing" textLength="47" x="216" y="97">license</text><text fill="#000000" font-family="sans-serif" font-size="14" lengthAdjust="spacing" textLength="462" x="291" y="97">https://github.com/one-data-model/oneDM/blob/master/LICENSE</text><line style="stroke:#A80036;stroke-width:1.0;" x1="286" x2="286" y1="81.4648" y2="101.9531"/><rect fill="none" height="81.9531" rx="5" ry="5" style="stroke:#A80036;stroke-width:1.5;" width="547" x="211" y="20"/><rect fill="#FEFECE" height="20.4883" rx="5" ry="5" style="stroke:#FEFECE;stroke-width:1.5;" width="260" x="354.5" y="120"/><text fill="#000000" font-family="sans-serif" font-size="14" lengthAdjust="spacing" textLength="18" x="359.5" y="135.5352">pg</text><text fill="#000000" font-family="sans-serif" font-size="14" lengthAdjust="spacing" textLength="222" x="387.5" y="135.5352">https://onedm.org/playground/</text><line style="stroke:#A80036;stroke-width:1.0;" x1="382.5" x2="382.5" y1="120" y2="140.4883"/><rect fill="none" height="20.4883" rx="5" ry="5" style="stroke:#A80036;stroke-width:1.5;" width="260" x="354.5" y="120"/><rect fill="#FEFECE" height="20.4883" rx="5" ry="5" style="stroke:#FEFECE;stroke-width:1.5;" width="125" x="422" y="160"/><text fill="#000000" font-family="sans-serif" font-size="14" lengthAdjust="spacing" textLength="93" x="427" y="175.5352">GenericOnOff</text><text fill="#000000" font-family="sans-serif" font-size="14" lengthAdjust="spacing" textLength="0" x="542" y="175.5352"/><line style="stroke:#A80036;stroke-width:1.0;" x1="525" x2="525" y1="160" y2="180.4883"/><rect fill="none" height="20.4883" rx="5" ry="5" style="stroke:#A80036;stroke-width:1.5;" width="125" x="422" y="160"/><rect fill="#FEFECE" height="61.4648" rx="5" ry="5" style="stroke:#FEFECE;stroke-width:1.5;" width="111" x="795" y="139.5"/><text fill="#000000" font-family="sans-serif" font-size="14" lengthAdjust="spacing" textLength="79" x="800" y="155.0352">sdfProperty</text><text fill="#000000" font-family="sans-serif" font-size="14" lengthAdjust="spacing" textLength="0" x="901" y="155.0352"/><line style="stroke:#A80036;stroke-width:1.0;" x1="884" x2="884" y1="139.5" y2="159.9883"/><line style="stroke:#A80036;stroke-width:1.0;" x1="795" x2="906" y1="159.9883" y2="159.9883"/><text fill="#000000" font-family="sans-serif" font-size="14" lengthAdjust="spacing" textLength="65" x="800" y="175.5234">sdfAction</text><text fill="#000000" font-family="sans-serif" font-size="14" lengthAdjust="spacing" textLength="0" x="901" y="175.5234"/><line style="stroke:#A80036;stroke-width:1.0;" x1="884" x2="884" y1="159.9883" y2="180.4766"/><line style="stroke:#A80036;stroke-width:1.0;" x1="795" x2="906" y1="180.4766" y2="180.4766"/><text fill="#000000" font-family="sans-serif" font-size="14" lengthAdjust="spacing" textLength="52" x="800" y="196.0117">sdfData</text><text fill="#000000" font-family="sans-serif" font-size="14" lengthAdjust="spacing" textLength="0" x="901" y="196.0117"/><line style="stroke:#A80036;stroke-width:1.0;" x1="884" x2="884" y1="180.4766" y2="200.9648"/><rect fill="none" height="61.4648" rx="5" ry="5" style="stroke:#A80036;stroke-width:1.5;" width="111" x="795" y="139.5"/><rect fill="#FEFECE" height="20.4883" rx="5" ry="5" style="stroke:#FEFECE;stroke-width:1.5;" width="73" x="993" y="105"/><text fill="#000000" font-family="sans-serif" font-size="14" lengthAdjust="spacing" textLength="41" x="998" y="120.5352">OnOff</text><text fill="#000000" font-family="sans-serif" font-size="14" lengthAdjust="spacing" textLength="0" x="1061" y="120.5352"/><line style="stroke:#A80036;stroke-width:1.0;" x1="1044" x2="1044" y1="105" y2="125.4883"/><rect fill="none" height="20.4883" rx="5" ry="5" style="stroke:#A80036;stroke-width:1.5;" width="73" x="993" y="105"/><rect fill="#FEFECE" height="20.4883" rx="5" ry="5" style="stroke:#FEFECE;stroke-width:1.5;" width="434" x="1203.5" y="75"/><text fill="#000000" font-family="sans-serif" font-size="14" lengthAdjust="spacing" textLength="43" x="1208.5" y="90.5352">sdfRef</text><text fill="#000000" font-family="sans-serif" font-size="14" lengthAdjust="spacing" textLength="371" x="1261.5" y="90.5352">#/sdfObject/GenericOnOff/sdfData/GenericOnOffData</text><line style="stroke:#A80036;stroke-width:1.0;" x1="1256.5" x2="1256.5" y1="75" y2="95.4883"/><rect fill="none" height="20.4883" rx="5" ry="5" style="stroke:#A80036;stroke-width:1.5;" width="434" x="1203.5" y="75"/><rect fill="#FEFECE" height="40.9766" rx="5" ry="5" style="stroke:#FEFECE;stroke-width:1.5;" width="96" x="981.5" y="148.5"/><text fill="#000000" font-family="sans-serif" font-size="14" lengthAdjust="spacing" textLength="64" x="986.5" y="164.0352">OnOffGet</text><text fill="#000000" font-family="sans-serif" font-size="14" lengthAdjust="spacing" textLength="0" x="1072.5" y="164.0352"/><line style="stroke:#A80036;stroke-width:1.0;" x1="1055.5" x2="1055.5" y1="148.5" y2="168.9883"/><line style="stroke:#A80036;stroke-width:1.0;" x1="981.5" x2="1077.5" y1="168.9883" y2="168.9883"/><text fill="#000000" font-family="sans-serif" font-size="14" lengthAdjust="spacing" textLength="62" x="986.5" y="184.5234">OnOffSet</text><text fill="#000000" font-family="sans-serif" font-size="14" lengthAdjust="spacing" textLength="0" x="1072.5" y="184.5234"/><line style="stroke:#A80036;stroke-width:1.0;" x1="1055.5" x2="1055.5" y1="168.9883" y2="189.4766"/><rect fill="none" height="40.9766" rx="5" ry="5" style="stroke:#A80036;stroke-width:1.5;" width="96" x="981.5" y="148.5"/><rect fill="#FEFECE" height="40.9766" rx="5" ry="5" style="stroke:#FEFECE;stroke-width:1.5;" width="333" x="1254" y="113.5"/><text fill="#000000" font-family="sans-serif" font-size="14" lengthAdjust="spacing" textLength="77" x="1259" y="129.0352">description</text><text fill="#000000" font-family="sans-serif" font-size="14" lengthAdjust="spacing" textLength="236" x="1346" y="129.0352">Get the status of the On/Off server</text><line style="stroke:#A80036;stroke-width:1.0;" x1="1341" x2="1341" y1="113.5" y2="133.9883"/><line style="stroke:#A80036;stroke-width:1.0;" x1="1254" x2="1587" y1="133.9883" y2="133.9883"/><text fill="#000000" font-family="sans-serif" font-size="14" lengthAdjust="spacing" textLength="52" x="1259" y="149.5234">sdfData</text><text fill="#000000" font-family="sans-serif" font-size="14" lengthAdjust="spacing" textLength="0" x="1358" y="149.5234"/><line style="stroke:#A80036;stroke-width:1.0;" x1="1341" x2="1341" y1="133.9883" y2="154.4766"/><rect fill="none" height="40.9766" rx="5" ry="5" style="stroke:#A80036;stroke-width:1.5;" width="333" x="1254" y="113.5"/><rect fill="#FEFECE" height="81.9531" rx="5" ry="5" style="stroke:#FEFECE;stroke-width:1.5;" width="176" x="1906.5" y="36"/><text fill="#000000" font-family="sans-serif" font-size="14" lengthAdjust="spacing" textLength="92" x="1911.5" y="51.5352">PresentOnOff</text><text fill="#000000" font-family="sans-serif" font-size="14" lengthAdjust="spacing" textLength="0" x="2077.5" y="51.5352"/><line style="stroke:#A80036;stroke-width:1.0;" x1="2060.5" x2="2060.5" y1="36" y2="56.4883"/><line style="stroke:#A80036;stroke-width:1.0;" x1="1906.5" x2="2082.5" y1="56.4883" y2="56.4883"/><text fill="#000000" font-family="sans-serif" font-size="14" lengthAdjust="spacing" textLength="86" x="1911.5" y="72.0234">TargetOnOff</text><text fill="#000000" font-family="sans-serif" font-size="14" lengthAdjust="spacing" textLength="0" x="2077.5" y="72.0234"/><line style="stroke:#A80036;stroke-width:1.0;" x1="2060.5" x2="2060.5" y1="56.4883" y2="76.9766"/><line style="stroke:#A80036;stroke-width:1.0;" x1="1906.5" x2="2082.5" y1="76.9766" y2="76.9766"/><text fill="#000000" font-family="sans-serif" font-size="14" lengthAdjust="spacing" textLength="144" x="1911.5" y="92.5117">RemainingTimeSteps</text><text fill="#000000" font-family="sans-serif" font-size="14" lengthAdjust="spacing" textLength="0" x="2077.5" y="92.5117"/><line style="stroke:#A80036;stroke-width:1.0;" x1="2060.5" x2="2060.5" y1="76.9766" y2="97.4648"/><line style="stroke:#A80036;stroke-width:1.0;" x1="1906.5" x2="2082.5" y1="97.4648" y2="97.4648"/><text fill="#000000" font-family="sans-serif" font-size="14" lengthAdjust="spacing" textLength="103" x="1911.5" y="113">StepResolution</text><text fill="#000000" font-family="sans-serif" font-size="14" lengthAdjust="spacing" textLength="0" x="2077.5" y="113"/><line style="stroke:#A80036;stroke-width:1.0;" x1="2060.5" x2="2060.5" y1="97.4648" y2="117.9531"/><rect fill="none" height="81.9531" rx="5" ry="5" style="stroke:#A80036;stroke-width:1.5;" width="176" x="1906.5" y="36"/><rect fill="#FEFECE" height="20.4883" rx="5" ry="5" style="stroke:#FEFECE;stroke-width:1.5;" width="434" x="2309.5" y="10"/><text fill="#000000" font-family="sans-serif" font-size="14" lengthAdjust="spacing" textLength="43" x="2314.5" y="25.5352">sdfRef</text><text fill="#000000" font-family="sans-serif" font-size="14" lengthAdjust="spacing" textLength="371" x="2367.5" y="25.5352">#/sdfObject/GenericOnOff/sdfData/GenericOnOffData</text><line style="stroke:#A80036;stroke-width:1.0;" x1="2362.5" x2="2362.5" y1="10" y2="30.4883"/><rect fill="none" height="20.4883" rx="5" ry="5" style="stroke:#A80036;stroke-width:1.5;" width="434" x="2309.5" y="10"/><rect fill="#FEFECE" height="20.4883" rx="5" ry="5" style="stroke:#FEFECE;stroke-width:1.5;" width="434" x="2309.5" y="48"/><text fill="#000000" font-family="sans-serif" font-size="14" lengthAdjust="spacing" textLength="43" x="2314.5" y="63.5352">sdfRef</text><text fill="#000000" font-family="sans-serif" font-size="14" lengthAdjust="spacing" textLength="371" x="2367.5" y="63.5352">#/sdfObject/GenericOnOff/sdfData/GenericOnOffData</text><line style="stroke:#A80036;stroke-width:1.0;" x1="2362.5" x2="2362.5" y1="48" y2="68.4883"/><rect fill="none" height="20.4883" rx="5" ry="5" style="stroke:#A80036;stroke-width:1.5;" width="434" x="2309.5" y="48"/><rect fill="#FEFECE" height="20.4883" rx="5" ry="5" style="stroke:#FEFECE;stroke-width:1.5;" width="451" x="2301" y="86"/><text fill="#000000" font-family="sans-serif" font-size="14" lengthAdjust="spacing" textLength="43" x="2306" y="101.5352">sdfRef</text><text fill="#000000" font-family="sans-serif" font-size="14" lengthAdjust="spacing" textLength="388" x="2359" y="101.5352">#/sdfObject/GenericOnOff/sdfData/TransitionTimeSteps</text><line style="stroke:#A80036;stroke-width:1.0;" x1="2354" x2="2354" y1="86" y2="106.4883"/><rect fill="none" height="20.4883" rx="5" ry="5" style="stroke:#A80036;stroke-width:1.5;" width="451" x="2301" y="86"/><rect fill="#FEFECE" height="20.4883" rx="5" ry="5" style="stroke:#FEFECE;stroke-width:1.5;" width="413" x="2320" y="124"/><text fill="#000000" font-family="sans-serif" font-size="14" lengthAdjust="spacing" textLength="43" x="2325" y="139.5352">sdfRef</text><text fill="#000000" font-family="sans-serif" font-size="14" lengthAdjust="spacing" textLength="350" x="2378" y="139.5352">#/sdfObject/GenericOnOff/sdfData/StepResolution</text><line style="stroke:#A80036;stroke-width:1.0;" x1="2373" x2="2373" y1="124" y2="144.4883"/><rect fill="none" height="20.4883" rx="5" ry="5" style="stroke:#A80036;stroke-width:1.5;" width="413" x="2320" y="124"/><rect fill="#FEFECE" height="61.4648" rx="5" ry="5" style="stroke:#FEFECE;stroke-width:1.5;" width="509" x="1166" y="172.5"/><text fill="#000000" font-family="sans-serif" font-size="14" lengthAdjust="spacing" textLength="77" x="1171" y="188.0352">description</text><text fill="#000000" font-family="sans-serif" font-size="14" lengthAdjust="spacing" textLength="401" x="1269" y="188.0352">Set the On/Off server state with time and delay parameters</text><line style="stroke:#A80036;stroke-width:1.0;" x1="1264" x2="1264" y1="172.5" y2="192.9883"/><line style="stroke:#A80036;stroke-width:1.0;" x1="1166" x2="1675" y1="192.9883" y2="192.9883"/><text fill="#000000" font-family="sans-serif" font-size="14" lengthAdjust="spacing" textLength="88" x="1171" y="208.5234">sdfInputData</text><text fill="#000000" font-family="sans-serif" font-size="14" lengthAdjust="spacing" textLength="0" x="1281" y="208.5234"/><line style="stroke:#A80036;stroke-width:1.0;" x1="1264" x2="1264" y1="192.9883" y2="213.4766"/><line style="stroke:#A80036;stroke-width:1.0;" x1="1166" x2="1675" y1="213.4766" y2="213.4766"/><text fill="#000000" font-family="sans-serif" font-size="14" lengthAdjust="spacing" textLength="52" x="1171" y="229.0117">sdfData</text><text fill="#000000" font-family="sans-serif" font-size="14" lengthAdjust="spacing" textLength="0" x="1281" y="229.0117"/><line style="stroke:#A80036;stroke-width:1.0;" x1="1264" x2="1264" y1="213.4766" y2="233.9648"/><rect fill="none" height="61.4648" rx="5" ry="5" style="stroke:#A80036;stroke-width:1.5;" width="509" x="1166" y="172.5"/><rect fill="#FEFECE" height="81.9531" rx="5" ry="5" style="stroke:#FEFECE;stroke-width:1.5;" width="539" x="1725" y="136"/><text fill="#000000" font-family="sans-serif" font-size="14" lengthAdjust="spacing" textLength="429" x="1730" y="151.5352">#/sdfObject/GenericOnOff/sdfAction/OnOffSet/sdfData/OnOff</text><line style="stroke:#A80036;stroke-width:1.0;" x1="1725" x2="2264" y1="156.4883" y2="156.4883"/><text fill="#000000" font-family="sans-serif" font-size="14" lengthAdjust="spacing" textLength="529" x="1730" y="172.0234">#/sdfObject/GenericOnOff/sdfAction/OnOffSet/sdfData/TransitionTimeSteps</text><line style="stroke:#A80036;stroke-width:1.0;" x1="1725" x2="2264" y1="176.9766" y2="176.9766"/><text fill="#000000" font-family="sans-serif" font-size="14" lengthAdjust="spacing" textLength="491" x="1730" y="192.5117">#/sdfObject/GenericOnOff/sdfAction/OnOffSet/sdfData/StepResolution</text><line style="stroke:#A80036;stroke-width:1.0;" x1="1725" x2="2264" y1="197.4648" y2="197.4648"/><text fill="#000000" font-family="sans-serif" font-size="14" lengthAdjust="spacing" textLength="425" x="1730" y="213">#/sdfObject/GenericOnOff/sdfAction/OnOffSet/sdfData/Delay</text><rect fill="none" height="81.9531" rx="5" ry="5" style="stroke:#A80036;stroke-width:1.5;" width="539" x="1725" y="136"/><rect fill="#FEFECE" height="81.9531" rx="5" ry="5" style="stroke:#FEFECE;stroke-width:1.5;" width="173" x="1908" y="236"/><text fill="#000000" font-family="sans-serif" font-size="14" lengthAdjust="spacing" textLength="41" x="1913" y="251.5352">OnOff</text><text fill="#000000" font-family="sans-serif" font-size="14" lengthAdjust="spacing" textLength="0" x="2076" y="251.5352"/><line style="stroke:#A80036;stroke-width:1.0;" x1="2059" x2="2059" y1="236" y2="256.4883"/><line style="stroke:#A80036;stroke-width:1.0;" x1="1908" x2="2081" y1="256.4883" y2="256.4883"/><text fill="#000000" font-family="sans-serif" font-size="14" lengthAdjust="spacing" textLength="141" x="1913" y="272.0234">TransitionTimeSteps</text><text fill="#000000" font-family="sans-serif" font-size="14" lengthAdjust="spacing" textLength="0" x="2076" y="272.0234"/><line style="stroke:#A80036;stroke-width:1.0;" x1="2059" x2="2059" y1="256.4883" y2="276.9766"/><line style="stroke:#A80036;stroke-width:1.0;" x1="1908" x2="2081" y1="276.9766" y2="276.9766"/><text fill="#000000" font-family="sans-serif" font-size="14" lengthAdjust="spacing" textLength="103" x="1913" y="292.5117">StepResolution</text><text fill="#000000" font-family="sans-serif" font-size="14" lengthAdjust="spacing" textLength="0" x="2076" y="292.5117"/><line style="stroke:#A80036;stroke-width:1.0;" x1="2059" x2="2059" y1="276.9766" y2="297.4648"/><line style="stroke:#A80036;stroke-width:1.0;" x1="1908" x2="2081" y1="297.4648" y2="297.4648"/><text fill="#000000" font-family="sans-serif" font-size="14" lengthAdjust="spacing" textLength="37" x="1913" y="313">Delay</text><text fill="#000000" font-family="sans-serif" font-size="14" lengthAdjust="spacing" textLength="0" x="2076" y="313"/><line style="stroke:#A80036;stroke-width:1.0;" x1="2059" x2="2059" y1="297.4648" y2="317.9531"/><rect fill="none" height="81.9531" rx="5" ry="5" style="stroke:#A80036;stroke-width:1.5;" width="173" x="1908" y="236"/><rect fill="#FEFECE" height="20.4883" rx="5" ry="5" style="stroke:#FEFECE;stroke-width:1.5;" width="434" x="2309.5" y="209"/><text fill="#000000" font-family="sans-serif" font-size="14" lengthAdjust="spacing" textLength="43" x="2314.5" y="224.5352">sdfRef</text><text fill="#000000" font-family="sans-serif" font-size="14" lengthAdjust="spacing" textLength="371" x="2367.5" y="224.5352">#/sdfObject/GenericOnOff/sdfData/GenericOnOffData</text><line style="stroke:#A80036;stroke-width:1.0;" x1="2362.5" x2="2362.5" y1="209" y2="229.4883"/><rect fill="none" height="20.4883" rx="5" ry="5" style="stroke:#A80036;stroke-width:1.5;" width="434" x="2309.5" y="209"/><rect fill="#FEFECE" height="20.4883" rx="5" ry="5" style="stroke:#FEFECE;stroke-width:1.5;" width="451" x="2301" y="247"/><text fill="#000000" font-family="sans-serif" font-size="14" lengthAdjust="spacing" textLength="43" x="2306" y="262.5352">sdfRef</text><text fill="#000000" font-family="sans-serif" font-size="14" lengthAdjust="spacing" textLength="388" x="2359" y="262.5352">#/sdfObject/GenericOnOff/sdfData/TransitionTimeSteps</text><line style="stroke:#A80036;stroke-width:1.0;" x1="2354" x2="2354" y1="247" y2="267.4883"/><rect fill="none" height="20.4883" rx="5" ry="5" style="stroke:#A80036;stroke-width:1.5;" width="451" x="2301" y="247"/><rect fill="#FEFECE" height="20.4883" rx="5" ry="5" style="stroke:#FEFECE;stroke-width:1.5;" width="413" x="2320" y="285"/><text fill="#000000" font-family="sans-serif" font-size="14" lengthAdjust="spacing" textLength="43" x="2325" y="300.5352">sdfRef</text><text fill="#000000" font-family="sans-serif" font-size="14" lengthAdjust="spacing" textLength="350" x="2378" y="300.5352">#/sdfObject/GenericOnOff/sdfData/StepResolution</text><line style="stroke:#A80036;stroke-width:1.0;" x1="2373" x2="2373" y1="285" y2="305.4883"/><rect fill="none" height="20.4883" rx="5" ry="5" style="stroke:#A80036;stroke-width:1.5;" width="413" x="2320" y="285"/><rect fill="#FEFECE" height="20.4883" rx="5" ry="5" style="stroke:#FEFECE;stroke-width:1.5;" width="378" x="2337.5" y="323"/><text fill="#000000" font-family="sans-serif" font-size="14" lengthAdjust="spacing" textLength="43" x="2342.5" y="338.5352">sdfRef</text><text fill="#000000" font-family="sans-serif" font-size="14" lengthAdjust="spacing" textLength="315" x="2395.5" y="338.5352">#/sdfObject/GenericOnOff/sdfData/DelayData</text><line style="stroke:#A80036;stroke-width:1.0;" x1="2390.5" x2="2390.5" y1="323" y2="343.4883"/><rect fill="none" height="20.4883" rx="5" ry="5" style="stroke:#A80036;stroke-width:1.5;" width="378" x="2337.5" y="323"/><rect fill="#FEFECE" height="81.9531" rx="5" ry="5" style="stroke:#FEFECE;stroke-width:1.5;" width="173" x="943" y="357"/><text fill="#000000" font-family="sans-serif" font-size="14" lengthAdjust="spacing" textLength="124" x="948" y="372.5352">GenericOnOffData</text><text fill="#000000" font-family="sans-serif" font-size="14" lengthAdjust="spacing" textLength="0" x="1111" y="372.5352"/><line style="stroke:#A80036;stroke-width:1.0;" x1="1094" x2="1094" y1="357" y2="377.4883"/><line style="stroke:#A80036;stroke-width:1.0;" x1="943" x2="1116" y1="377.4883" y2="377.4883"/><text fill="#000000" font-family="sans-serif" font-size="14" lengthAdjust="spacing" textLength="141" x="948" y="393.0234">TransitionTimeSteps</text><text fill="#000000" font-family="sans-serif" font-size="14" lengthAdjust="spacing" textLength="0" x="1111" y="393.0234"/><line style="stroke:#A80036;stroke-width:1.0;" x1="1094" x2="1094" y1="377.4883" y2="397.9766"/><line style="stroke:#A80036;stroke-width:1.0;" x1="943" x2="1116" y1="397.9766" y2="397.9766"/><text fill="#000000" font-family="sans-serif" font-size="14" lengthAdjust="spacing" textLength="103" x="948" y="413.5117">StepResolution</text><text fill="#000000" font-family="sans-serif" font-size="14" lengthAdjust="spacing" textLength="0" x="1111" y="413.5117"/><line style="stroke:#A80036;stroke-width:1.0;" x1="1094" x2="1094" y1="397.9766" y2="418.4648"/><line style="stroke:#A80036;stroke-width:1.0;" x1="943" x2="1116" y1="418.4648" y2="418.4648"/><text fill="#000000" font-family="sans-serif" font-size="14" lengthAdjust="spacing" textLength="68" x="948" y="434">DelayData</text><text fill="#000000" font-family="sans-serif" font-size="14" lengthAdjust="spacing" textLength="0" x="1111" y="434"/><line style="stroke:#A80036;stroke-width:1.0;" x1="1094" x2="1094" y1="418.4648" y2="438.9531"/><rect fill="none" height="81.9531" rx="5" ry="5" style="stroke:#A80036;stroke-width:1.5;" width="173" x="943" y="357"/><rect fill="#FEFECE" height="40.9766" rx="5" ry="5" style="stroke:#FEFECE;stroke-width:1.5;" width="535" x="1153" y="276.5"/><text fill="#000000" font-family="sans-serif" font-size="14" lengthAdjust="spacing" textLength="77" x="1158" y="292.0352">description</text><text fill="#000000" font-family="sans-serif" font-size="14" lengthAdjust="spacing" textLength="438" x="1245" y="292.0352">the on/off state property, use a mapping file for encoded values</text><line style="stroke:#A80036;stroke-width:1.0;" x1="1240" x2="1240" y1="276.5" y2="296.9883"/><line style="stroke:#A80036;stroke-width:1.0;" x1="1153" x2="1688" y1="296.9883" y2="296.9883"/><text fill="#000000" font-family="sans-serif" font-size="14" lengthAdjust="spacing" textLength="39" x="1158" y="312.5234">enum</text><text fill="#000000" font-family="sans-serif" font-size="14" lengthAdjust="spacing" textLength="0" x="1257" y="312.5234"/><line style="stroke:#A80036;stroke-width:1.0;" x1="1240" x2="1240" y1="296.9883" y2="317.4766"/><rect fill="none" height="40.9766" rx="5" ry="5" style="stroke:#A80036;stroke-width:1.5;" width="535" x="1153" y="276.5"/><rect fill="#FEFECE" height="40.9766" rx="5" ry="5" style="stroke:#FEFECE;stroke-width:1.5;" width="31" x="1979" y="336.5"/><text fill="#000000" font-family="sans-serif" font-size="14" lengthAdjust="spacing" textLength="21" x="1984" y="352.0352">Off</text><line style="stroke:#A80036;stroke-width:1.0;" x1="1979" x2="2010" y1="356.9883" y2="356.9883"/><text fill="#000000" font-family="sans-serif" font-size="14" lengthAdjust="spacing" textLength="20" x="1984" y="372.5234">On</text><rect fill="none" height="40.9766" rx="5" ry="5" style="stroke:#A80036;stroke-width:1.5;" width="31" x="1979" y="336.5"/><rect fill="#FEFECE" height="102.4414" rx="5" ry="5" style="stroke:#FEFECE;stroke-width:1.5;" width="323" x="1259" y="336"/><text fill="#000000" font-family="sans-serif" font-size="14" lengthAdjust="spacing" textLength="77" x="1264" y="351.5352">description</text><text fill="#000000" font-family="sans-serif" font-size="14" lengthAdjust="spacing" textLength="226" x="1351" y="351.5352">Number of steps in the transition</text><line style="stroke:#A80036;stroke-width:1.0;" x1="1346" x2="1346" y1="336" y2="356.4883"/><line style="stroke:#A80036;stroke-width:1.0;" x1="1259" x2="1582" y1="356.4883" y2="356.4883"/><text fill="#000000" font-family="sans-serif" font-size="14" lengthAdjust="spacing" textLength="29" x="1264" y="372.0234">type</text><text fill="#000000" font-family="sans-serif" font-size="14" lengthAdjust="spacing" textLength="54" x="1351" y="372.0234">number</text><line style="stroke:#A80036;stroke-width:1.0;" x1="1346" x2="1346" y1="356.4883" y2="376.9766"/><line style="stroke:#A80036;stroke-width:1.0;" x1="1259" x2="1582" y1="376.9766" y2="376.9766"/><text fill="#000000" font-family="sans-serif" font-size="14" lengthAdjust="spacing" textLength="65" x="1264" y="392.5117">minimum</text><text fill="#000000" font-family="sans-serif" font-size="14" lengthAdjust="spacing" textLength="9" x="1351" y="392.5117">0</text><line style="stroke:#A80036;stroke-width:1.0;" x1="1346" x2="1346" y1="376.9766" y2="397.4648"/><line style="stroke:#A80036;stroke-width:1.0;" x1="1259" x2="1582" y1="397.4648" y2="397.4648"/><text fill="#000000" font-family="sans-serif" font-size="14" lengthAdjust="spacing" textLength="69" x="1264" y="413">maximum</text><text fill="#000000" font-family="sans-serif" font-size="14" lengthAdjust="spacing" textLength="18" x="1351" y="413">63</text><line style="stroke:#A80036;stroke-width:1.0;" x1="1346" x2="1346" y1="397.4648" y2="417.9531"/><line style="stroke:#A80036;stroke-width:1.0;" x1="1259" x2="1582" y1="417.9531" y2="417.9531"/><text fill="#000000" font-family="sans-serif" font-size="14" lengthAdjust="spacing" textLength="72" x="1264" y="433.4883">multipleOf</text><text fill="#000000" font-family="sans-serif" font-size="14" lengthAdjust="spacing" textLength="9" x="1351" y="433.4883">1</text><line style="stroke:#A80036;stroke-width:1.0;" x1="1346" x2="1346" y1="417.9531" y2="438.4414"/><rect fill="none" height="102.4414" rx="5" ry="5" style="stroke:#A80036;stroke-width:1.5;" width="323" x="1259" y="336"/><rect fill="#FEFECE" height="40.9766" rx="5" ry="5" style="stroke:#FEFECE;stroke-width:1.5;" width="302" x="1269.5" y="456.5"/><text fill="#000000" font-family="sans-serif" font-size="14" lengthAdjust="spacing" textLength="77" x="1274.5" y="472.0352">description</text><text fill="#000000" font-family="sans-serif" font-size="14" lengthAdjust="spacing" textLength="205" x="1361.5" y="472.0352">Step Resolution, time per step</text><line style="stroke:#A80036;stroke-width:1.0;" x1="1356.5" x2="1356.5" y1="456.5" y2="476.9883"/><line style="stroke:#A80036;stroke-width:1.0;" x1="1269.5" x2="1571.5" y1="476.9883" y2="476.9883"/><text fill="#000000" font-family="sans-serif" font-size="14" lengthAdjust="spacing" textLength="39" x="1274.5" y="492.5234">enum</text><text fill="#000000" font-family="sans-serif" font-size="14" lengthAdjust="spacing" textLength="0" x="1373.5" y="492.5234"/><line style="stroke:#A80036;stroke-width:1.0;" x1="1356.5" x2="1356.5" y1="476.9883" y2="497.4766"/><rect fill="none" height="40.9766" rx="5" ry="5" style="stroke:#A80036;stroke-width:1.5;" width="302" x="1269.5" y="456.5"/><rect fill="#FEFECE" height="81.9531" rx="5" ry="5" style="stroke:#FEFECE;stroke-width:1.5;" width="125" x="1932" y="446"/><text fill="#000000" font-family="sans-serif" font-size="14" lengthAdjust="spacing" textLength="115" x="1937" y="461.5352">100 Milliseconds</text><line style="stroke:#A80036;stroke-width:1.0;" x1="1932" x2="2057" y1="466.4883" y2="466.4883"/><text fill="#000000" font-family="sans-serif" font-size="14" lengthAdjust="spacing" textLength="63" x="1937" y="482.0234">1 Second</text><line style="stroke:#A80036;stroke-width:1.0;" x1="1932" x2="2057" y1="486.9766" y2="486.9766"/><text fill="#000000" font-family="sans-serif" font-size="14" lengthAdjust="spacing" textLength="79" x="1937" y="502.5117">10 Seconds</text><line style="stroke:#A80036;stroke-width:1.0;" x1="1932" x2="2057" y1="507.4648" y2="507.4648"/><text fill="#000000" font-family="sans-serif" font-size="14" lengthAdjust="spacing" textLength="76" x="1937" y="523">10 Minutes</text><rect fill="none" height="81.9531" rx="5" ry="5" style="stroke:#A80036;stroke-width:1.5;" width="125" x="1932" y="446"/><rect fill="#FEFECE" height="102.4414" rx="5" ry="5" style="stroke:#FEFECE;stroke-width:1.5;" width="282" x="1279.5" y="516"/><text fill="#000000" font-family="sans-serif" font-size="14" lengthAdjust="spacing" textLength="77" x="1284.5" y="531.5352">description</text><text fill="#000000" font-family="sans-serif" font-size="14" lengthAdjust="spacing" textLength="185" x="1371.5" y="531.5352">delay in increments of 5mS</text><line style="stroke:#A80036;stroke-width:1.0;" x1="1366.5" x2="1366.5" y1="516" y2="536.4883"/><line style="stroke:#A80036;stroke-width:1.0;" x1="1279.5" x2="1561.5" y1="536.4883" y2="536.4883"/><text fill="#000000" font-family="sans-serif" font-size="14" lengthAdjust="spacing" textLength="29" x="1284.5" y="552.0234">type</text><text fill="#000000" font-family="sans-serif" font-size="14" lengthAdjust="spacing" textLength="54" x="1371.5" y="552.0234">number</text><line style="stroke:#A80036;stroke-width:1.0;" x1="1366.5" x2="1366.5" y1="536.4883" y2="556.9766"/><line style="stroke:#A80036;stroke-width:1.0;" x1="1279.5" x2="1561.5" y1="556.9766" y2="556.9766"/><text fill="#000000" font-family="sans-serif" font-size="14" lengthAdjust="spacing" textLength="65" x="1284.5" y="572.5117">minimum</text><text fill="#000000" font-family="sans-serif" font-size="14" lengthAdjust="spacing" textLength="9" x="1371.5" y="572.5117">0</text><line style="stroke:#A80036;stroke-width:1.0;" x1="1366.5" x2="1366.5" y1="556.9766" y2="577.4648"/><line style="stroke:#A80036;stroke-width:1.0;" x1="1279.5" x2="1561.5" y1="577.4648" y2="577.4648"/><text fill="#000000" font-family="sans-serif" font-size="14" lengthAdjust="spacing" textLength="69" x="1284.5" y="593">maximum</text><text fill="#000000" font-family="sans-serif" font-size="14" lengthAdjust="spacing" textLength="27" x="1371.5" y="593">255</text><line style="stroke:#A80036;stroke-width:1.0;" x1="1366.5" x2="1366.5" y1="577.4648" y2="597.9531"/><line style="stroke:#A80036;stroke-width:1.0;" x1="1279.5" x2="1561.5" y1="597.9531" y2="597.9531"/><text fill="#000000" font-family="sans-serif" font-size="14" lengthAdjust="spacing" textLength="72" x="1284.5" y="613.4883">multipleOf</text><text fill="#000000" font-family="sans-serif" font-size="14" lengthAdjust="spacing" textLength="9" x="1371.5" y="613.4883">1</text><line style="stroke:#A80036;stroke-width:1.0;" x1="1366.5" x2="1366.5" y1="597.9531" y2="618.4414"/><rect fill="none" height="102.4414" rx="5" ry="5" style="stroke:#A80036;stroke-width:1.5;" width="282" x="1279.5" y="516"/><path d="M162,108 L175,108 C203.5134,108 233.3403,106.0198 262.7401,102.8723 " fill="none" style="stroke:#A80036;stroke-width:1.0;stroke-dasharray:3.0,3.0;"/><path d="M263.07,105.858 L264.9794,102.6248 L262.4101,99.8866 L270.2043,102.0474 L263.07,105.858 " fill="#A80036" style="stroke:#A80036;stroke-width:1.0;"/><ellipse cx="162" cy="108" fill="#A80036" rx="3" ry="3" style="stroke:#A80036;stroke-width:1.0;stroke-dasharray:3.0,3.0;"/><path d="M162,128 L175,128 C231.3607,128 293.5028,128.3368 347.189,128.734 " fill="none" style="stroke:#A80036;stroke-width:1.0;stroke-dasharray:3.0,3.0;"/><path d="M347.1664,131.7411 L349.4443,128.751 L347.2115,125.7269 L354.7067,128.7905 L347.1664,131.7411 " fill="#A80036" style="stroke:#A80036;stroke-width:1.0;"/><ellipse cx="162" cy="128" fill="#A80036" rx="3" ry="3" style="stroke:#A80036;stroke-width:1.0;stroke-dasharray:3.0,3.0;"/><path d="M1055,115 L1068,115 C1106.0383,115 1115.1366,108.6437 1153,105 C1188.746,101.56 1227.2329,98.3749 1263.551,95.6041 " fill="none" style="stroke:#A80036;stroke-width:1.0;stroke-dasharray:3.0,3.0;"/><path d="M1263.785,98.6901 L1265.8656,95.4286 L1263.3171,92.518 L1271.2662,95.0191 L1263.785,98.6901 " fill="#A80036" style="stroke:#A80036;stroke-width:1.0;"/><ellipse cx="1055" cy="115" fill="#A80036" rx="3" ry="3" style="stroke:#A80036;stroke-width:1.0;stroke-dasharray:3.0,3.0;"/><path d="M894,149 L907,149 C911.1905,149 953.6649,136.9396 987.3344,127.1847 " fill="none" style="stroke:#A80036;stroke-width:1.0;stroke-dasharray:3.0,3.0;"/><path d="M988.2014,130.1719 L989.5748,126.5345 L986.4674,124.1976 L994.8023,125.0172 L988.2014,130.1719 " fill="#A80036" style="stroke:#A80036;stroke-width:1.0;"/><ellipse cx="894" cy="149" fill="#A80036" rx="3" ry="3" style="stroke:#A80036;stroke-width:1.0;stroke-dasharray:3.0,3.0;"/><path d="M2071,46 L2084,46 C2194.3572,46 2319.9462,37.823 2408.9755,30.6404 " fill="none" style="stroke:#A80036;stroke-width:1.0;stroke-dasharray:3.0,3.0;"/><path d="M2409.2256,33.7164 L2411.2825,30.4528 L2408.7254,27.5643 L2416.6655,30.0151 L2409.2256,33.7164 " fill="#A80036" style="stroke:#A80036;stroke-width:1.0;"/><ellipse cx="2071" cy="46" fill="#A80036" rx="3" ry="3" style="stroke:#A80036;stroke-width:1.0;stroke-dasharray:3.0,3.0;"/><path d="M2071,66 L2084,66 C2154.9959,66 2232.3959,64.9554 2302.3018,63.6212 " fill="none" style="stroke:#A80036;stroke-width:1.0;stroke-dasharray:3.0,3.0;"/><path d="M2302.3605,66.6656 L2304.5851,63.5771 L2302.243,60.5768 L2309.9128,63.4742 L2302.3605,66.6656 " fill="#A80036" style="stroke:#A80036;stroke-width:1.0;"/><ellipse cx="2071" cy="66" fill="#A80036" rx="3" ry="3" style="stroke:#A80036;stroke-width:1.0;stroke-dasharray:3.0,3.0;"/><path d="M2071,87 L2084,87 C2152.0839,87 2226.0547,88.0806 2293.6579,89.493 " fill="none" style="stroke:#A80036;stroke-width:1.0;stroke-dasharray:3.0,3.0;"/><path d="M2293.592,92.6078 L2295.994,89.5424 L2293.7238,86.3781 L2301.445,89.6577 L2293.592,92.6078 " fill="#A80036" style="stroke:#A80036;stroke-width:1.0;"/><ellipse cx="2071" cy="87" fill="#A80036" rx="3" ry="3" style="stroke:#A80036;stroke-width:1.0;stroke-dasharray:3.0,3.0;"/><path d="M2071,108 L2084,108 C2194.3572,108 2319.9462,116.177 2408.9755,123.3596 " fill="none" style="stroke:#A80036;stroke-width:1.0;stroke-dasharray:3.0,3.0;"/><path d="M2408.7254,126.4357 L2411.2825,123.5472 L2409.2256,120.2836 L2416.6655,123.9849 L2408.7254,126.4357 " fill="#A80036" style="stroke:#A80036;stroke-width:1.0;"/><ellipse cx="2071" cy="108" fill="#A80036" rx="3" ry="3" style="stroke:#A80036;stroke-width:1.0;stroke-dasharray:3.0,3.0;"/><path d="M1576,144 L1589,144 C1619.4359,144 1789.587,114.167 1899.4414,94.3152 " fill="none" style="stroke:#A80036;stroke-width:1.0;stroke-dasharray:3.0,3.0;"/><path d="M1899.9823,97.3049 L1901.6838,93.9095 L1898.9006,91.3254 L1906.9159,92.963 L1899.9823,97.3049 " fill="#A80036" style="stroke:#A80036;stroke-width:1.0;"/><ellipse cx="1576" cy="144" fill="#A80036" rx="3" ry="3" style="stroke:#A80036;stroke-width:1.0;stroke-dasharray:3.0,3.0;"/><path d="M1066,158 L1079,158 C1133.5563,158 1192.9013,154.9054 1246.5614,150.9386 " fill="none" style="stroke:#A80036;stroke-width:1.0;stroke-dasharray:3.0,3.0;"/><path d="M1246.7875,153.9517 L1248.8212,150.769 L1246.3353,147.9254 L1254.0942,150.3733 L1246.7875,153.9517 " fill="#A80036" style="stroke:#A80036;stroke-width:1.0;"/><ellipse cx="1066" cy="158" fill="#A80036" rx="3" ry="3" style="stroke:#A80036;stroke-width:1.0;stroke-dasharray:3.0,3.0;"/><path d="M1664,202 L1677,202 C1690.2752,202 1703.8535,201.7794 1717.5608,201.3797 " fill="none" style="stroke:#A80036;stroke-width:1.0;stroke-dasharray:3.0,3.0;"/><path d="M1717.6569,204.4306 L1719.849,201.3076 L1717.4647,198.3288 L1725.1881,201.1394 L1717.6569,204.4306 " fill="#A80036" style="stroke:#A80036;stroke-width:1.0;"/><ellipse cx="1664" cy="202" fill="#A80036" rx="3" ry="3" style="stroke:#A80036;stroke-width:1.0;stroke-dasharray:3.0,3.0;"/><path d="M2070,246 L2083,246 C2139.5289,246 2276.7879,237.1302 2383.6644,229.5582 " fill="none" style="stroke:#A80036;stroke-width:1.0;stroke-dasharray:3.0,3.0;"/><path d="M2383.8816,232.6147 L2385.9568,229.3954 L2383.4473,226.5018 L2391.3055,229.0154 L2383.8816,232.6147 " fill="#A80036" style="stroke:#A80036;stroke-width:1.0;"/><ellipse cx="2070" cy="246" fill="#A80036" rx="3" ry="3" style="stroke:#A80036;stroke-width:1.0;stroke-dasharray:3.0,3.0;"/><path d="M2070,266 L2083,266 C2151.3304,266 2225.5772,264.9164 2293.4079,263.5013 " fill="none" style="stroke:#A80036;stroke-width:1.0;stroke-dasharray:3.0,3.0;"/><path d="M2293.474,266.6266 L2295.7519,263.4518 L2293.3419,260.376 L2301.2211,263.3362 L2293.474,266.6266 " fill="#A80036" style="stroke:#A80036;stroke-width:1.0;"/><ellipse cx="2070" cy="266" fill="#A80036" rx="3" ry="3" style="stroke:#A80036;stroke-width:1.0;stroke-dasharray:3.0,3.0;"/><path d="M2070,287 L2083,287 C2157.7746,287 2239.6371,288.1535 2312.4232,289.5845 " fill="none" style="stroke:#A80036;stroke-width:1.0;stroke-dasharray:3.0,3.0;"/><path d="M2312.3602,292.7522 L2314.7991,289.6317 L2312.4862,286.4167 L2320.3427,289.742 L2312.3602,292.7522 " fill="#A80036" style="stroke:#A80036;stroke-width:1.0;"/><ellipse cx="2070" cy="287" fill="#A80036" rx="3" ry="3" style="stroke:#A80036;stroke-width:1.0;stroke-dasharray:3.0,3.0;"/><path d="M2070,308 L2083,308 C2191.5333,308 2314.7862,315.5726 2403.6815,322.3823 " fill="none" style="stroke:#A80036;stroke-width:1.0;stroke-dasharray:3.0,3.0;"/><path d="M2403.4442,325.4559 L2405.9867,322.5603 L2403.9189,319.3087 L2411.3655,322.9756 L2403.4442,325.4559 " fill="#A80036" style="stroke:#A80036;stroke-width:1.0;"/><ellipse cx="2070" cy="308" fill="#A80036" rx="3" ry="3" style="stroke:#A80036;stroke-width:1.0;stroke-dasharray:3.0,3.0;"/><path d="M1664,223 L1677,223 C1699.1393,223 1815.5536,243.7332 1900.9103,259.5056 " fill="none" style="stroke:#A80036;stroke-width:1.0;stroke-dasharray:3.0,3.0;"/><path d="M1900.364,262.458 L1903.1246,259.9153 L1901.4566,256.5531 L1908.2914,260.8714 L1900.364,262.458 " fill="#A80036" style="stroke:#A80036;stroke-width:1.0;"/><ellipse cx="1664" cy="223" fill="#A80036" rx="3" ry="3" style="stroke:#A80036;stroke-width:1.0;stroke-dasharray:3.0,3.0;"/><path d="M1066,179 L1079,179 C1104.9032,179 1131.8861,179.6976 1158.8274,180.855 " fill="none" style="stroke:#A80036;stroke-width:1.0;stroke-dasharray:3.0,3.0;"/><path d="M1158.692,183.8937 L1161.1064,180.9566 L1158.9627,177.8163 L1166.4241,181.1935 L1158.692,183.8937 " fill="#A80036" style="stroke:#A80036;stroke-width:1.0;"/><ellipse cx="1066" cy="179" fill="#A80036" rx="3" ry="3" style="stroke:#A80036;stroke-width:1.0;stroke-dasharray:3.0,3.0;"/><path d="M894,169 L907,169 C928.9765,169 953.1798,169 974.1947,169 " fill="none" style="stroke:#A80036;stroke-width:1.0;stroke-dasharray:3.0,3.0;"/><path d="M974.1947,172.0352 L976.4711,169 L974.1947,165.9648 L981.7827,169 L974.1947,172.0352 " fill="#A80036" style="stroke:#A80036;stroke-width:1.0;"/><ellipse cx="894" cy="169" fill="#A80036" rx="3" ry="3" style="stroke:#A80036;stroke-width:1.0;stroke-dasharray:3.0,3.0;"/><path d="M1676,307 L1689,307 C1707.3033,307 1707.564,321.4324 1725,327 C1813.0468,355.1147 1924.5928,357.7367 1971.5523,357.4425 " fill="none" style="stroke:#A80036;stroke-width:1.0;stroke-dasharray:3.0,3.0;"/><path d="M1971.5842,360.5389 L1973.8746,357.4186 L1971.5205,354.3461 L1979.2933,357.3629 L1971.5842,360.5389 " fill="#A80036" style="stroke:#A80036;stroke-width:1.0;"/><ellipse cx="1676" cy="307" fill="#A80036" rx="3" ry="3" style="stroke:#A80036;stroke-width:1.0;stroke-dasharray:3.0,3.0;"/><path d="M1104,367 L1117,367 C1140.9176,367 1131.7296,337.9371 1153,327 C1157.5291,324.6712 1162.1576,322.4864 1166.8686,320.4377 " fill="none" style="stroke:#A80036;stroke-width:1.0;stroke-dasharray:3.0,3.0;"/><path d="M1168.0307,323.2214 L1168.9564,319.5661 L1165.7065,317.6539 L1173.828,317.5324 L1168.0307,323.2214 " fill="#A80036" style="stroke:#A80036;stroke-width:1.0;"/><ellipse cx="1104" cy="367" fill="#A80036" rx="3" ry="3" style="stroke:#A80036;stroke-width:1.0;stroke-dasharray:3.0,3.0;"/><path d="M1104,387 L1117,387 C1160.6358,387 1207.8063,387 1251.6395,387 " fill="none" style="stroke:#A80036;stroke-width:1.0;stroke-dasharray:3.0,3.0;"/><path d="M1251.6395,390.029 L1253.9112,387 L1251.6395,383.971 L1259.212,387 L1251.6395,390.029 " fill="#A80036" style="stroke:#A80036;stroke-width:1.0;"/><ellipse cx="1104" cy="387" fill="#A80036" rx="3" ry="3" style="stroke:#A80036;stroke-width:1.0;stroke-dasharray:3.0,3.0;"/><path d="M1560,487 L1573,487 C1696.8586,487 1841.2143,487 1924.6584,487 " fill="none" style="stroke:#A80036;stroke-width:1.0;stroke-dasharray:3.0,3.0;"/><path d="M1924.6584,490.0538 L1926.9488,487 L1924.6584,483.9462 L1932.2929,487 L1924.6584,490.0538 " fill="#A80036" style="stroke:#A80036;stroke-width:1.0;"/><ellipse cx="1560" cy="487" fill="#A80036" rx="3" ry="3" style="stroke:#A80036;stroke-width:1.0;stroke-dasharray:3.0,3.0;"/><path d="M1104,408 L1117,408 C1140.5891,408 1131.9542,436.3456 1153,447 C1186.3585,463.8877 1225.0033,473.1411 1262.3538,477.8853 " fill="none" style="stroke:#A80036;stroke-width:1.0;stroke-dasharray:3.0,3.0;"/><path d="M1261.9979,480.8656 L1264.589,478.1522 L1262.7096,474.9049 L1269.8046,478.7749 L1261.9979,480.8656 " fill="#A80036" style="stroke:#A80036;stroke-width:1.0;"/><ellipse cx="1104" cy="408" fill="#A80036" rx="3" ry="3" style="stroke:#A80036;stroke-width:1.0;stroke-dasharray:3.0,3.0;"/><path d="M1104,429 L1117,429 C1155.1809,429 1123.3048,483.0005 1153,507 C1186.6381,534.1861 1230.1155,549.6245 1272.1809,558.2325 " fill="none" style="stroke:#A80036;stroke-width:1.0;stroke-dasharray:3.0,3.0;"/><path d="M1271.5899,561.2562 L1274.4487,558.6758 L1272.772,555.2088 L1279.7402,559.7102 L1271.5899,561.2562 " fill="#A80036" style="stroke:#A80036;stroke-width:1.0;"/><ellipse cx="1104" cy="429" fill="#A80036" rx="3" ry="3" style="stroke:#A80036;stroke-width:1.0;stroke-dasharray:3.0,3.0;"/><path d="M896,189 L896,202 C896,260.7922 937.4815,315.0474 974.1119,351.4964 " fill="none" style="stroke:#A80036;stroke-width:1.0;stroke-dasharray:3.0,3.0;"/><path d="M972.0131,353.6419 L975.7211,353.0705 L976.2107,349.3509 L979.4757,356.7434 L972.0131,353.6419 " fill="#A80036" style="stroke:#A80036;stroke-width:1.0;"/><ellipse cx="896" cy="189" fill="#A80036" rx="3" ry="3" style="stroke:#A80036;stroke-width:1.0;stroke-dasharray:3.0,3.0;"/><path d="M536,170 L549,170 C631.5621,170 726.8628,170 787.7319,170 " fill="none" style="stroke:#A80036;stroke-width:1.0;stroke-dasharray:3.0,3.0;"/><path d="M787.7319,173.047 L790.0171,170 L787.7319,166.953 L795.3493,170 L787.7319,173.047 " fill="#A80036" style="stroke:#A80036;stroke-width:1.0;"/><ellipse cx="536" cy="170" fill="#A80036" rx="3" ry="3" style="stroke:#A80036;stroke-width:1.0;stroke-dasharray:3.0,3.0;"/><path d="M162,170 L175,170 C257.3128,170 351.9595,170 414.5851,170 " fill="none" style="stroke:#A80036;stroke-width:1.0;stroke-dasharray:3.0,3.0;"/><path d="M414.5851,173.1425 L416.942,170 L414.5851,166.8575 L422.4414,170 L414.5851,173.1425 " fill="#A80036" style="stroke:#A80036;stroke-width:1.0;"/><ellipse cx="162" cy="170" fill="#A80036" rx="3" ry="3" style="stroke:#A80036;stroke-width:1.0;stroke-dasharray:3.0,3.0;"/><!--MD5=[be3b1c65b1260afbd180edae0303093e]
@startjson
{
  "info": {
    "title": "Example Bluetooth mesh Generic OnOff Model",
    "version": "20200710",
    "copyright": "Copyright 2020 Bluetooth SIG, Inc. All rights reserved.",
    "license": "https://github.com/one-data-model/oneDM/blob/master/LICENSE"
  },
  "namespace": {
    "pg": "https://onedm.org/playground/"
  },
  "defaultNamespace": "pg",
  "sdfObject": {
    "GenericOnOff": {
      "sdfProperty": {
        "OnOff": {
          "sdfRef": "#/sdfObject/GenericOnOff/sdfData/GenericOnOffData"
        }
      },
      "sdfAction": {
        "OnOffGet": {
          "description": "Get the status of the On/Off server",
          "sdfData": {
            "PresentOnOff": {
              "sdfRef": "#/sdfObject/GenericOnOff/sdfData/GenericOnOffData"
            },
            "TargetOnOff": {
              "sdfRef": "#/sdfObject/GenericOnOff/sdfData/GenericOnOffData"
            },
            "RemainingTimeSteps": {
              "sdfRef": "#/sdfObject/GenericOnOff/sdfData/TransitionTimeSteps"
            },
            "StepResolution": {
              "sdfRef": "#/sdfObject/GenericOnOff/sdfData/StepResolution"
            }
          }
        },
        "OnOffSet": {
          "description": "Set the On/Off server state with time and delay parameters",
          "sdfInputData": [
            "#/sdfObject/GenericOnOff/sdfAction/OnOffSet/sdfData/OnOff",
            "#/sdfObject/GenericOnOff/sdfAction/OnOffSet/sdfData/TransitionTimeSteps",
            "#/sdfObject/GenericOnOff/sdfAction/OnOffSet/sdfData/StepResolution",
            "#/sdfObject/GenericOnOff/sdfAction/OnOffSet/sdfData/Delay"
          ],
          "sdfData": {
            "OnOff": {
              "sdfRef": "#/sdfObject/GenericOnOff/sdfData/GenericOnOffData"
            },
            "TransitionTimeSteps": {
              "sdfRef": "#/sdfObject/GenericOnOff/sdfData/TransitionTimeSteps"
            },
            "StepResolution": {
              "sdfRef": "#/sdfObject/GenericOnOff/sdfData/StepResolution"
            },
            "Delay": {
              "sdfRef": "#/sdfObject/GenericOnOff/sdfData/DelayData"
            }
          }
        }
      },
      "sdfData": {
        "GenericOnOffData": {
          "description": "the on/off state property, use a mapping file for encoded values",
          "enum": [
            "Off",
            "On"
          ]
        },
        "TransitionTimeSteps": {
          "description": "Number of steps in the transition",
          "type": "number",
          "minimum": 0,
          "maximum": 63,
          "multipleOf": 1
        },
        "StepResolution": {
          "description": "Step Resolution, time per step",
          "enum": [
            "100 Milliseconds",
            "1 Second",
            "10 Seconds",
            "10 Minutes"
          ]
        },
        "DelayData": {
          "description": "delay in increments of 5mS",
          "type": "number",
          "minimum": 0,
          "maximum": 255,
          "multipleOf": 1
        }
      }
    }
  }
}
@endjson

PlantUML version 1.2021.2(Sun Mar 07 13:10:27 EET 2021)
(GPL source distribution)
Java Runtime: OpenJDK Runtime Environment
JVM: OpenJDK 64-Bit Server VM
Default Encoding: UTF-8
Language: en
Country: FI
--></g></svg>