<?xml version="1.0" encoding="UTF-8" standalone="no"?><svg xmlns="http://www.w3.org/2000/svg" xmlns:xlink="http://www.w3.org/1999/xlink" contentScriptType="application/ecmascript" contentStyleType="text/css" height="846px" preserveAspectRatio="none" style="width:2261px;height:846px;" version="1.1" viewBox="0 0 2261 846" width="2261px" zoomAndPan="magnify"><defs/><g><rect fill="#FEFECE" height="40.9766" rx="5" ry="5" style="stroke:#FEFECE;stroke-width:1.5;" width="97" x="10" y="413"/><text fill="#000000" font-family="sans-serif" font-size="14" lengthAdjust="spacing" textLength="27" x="15" y="428.5352">info</text><text fill="#000000" font-family="sans-serif" font-size="14" lengthAdjust="spacing" textLength="0" x="102" y="428.5352"/><line style="stroke:#A80036;stroke-width:1.0;" x1="85" x2="85" y1="413" y2="433.4883"/><line style="stroke:#A80036;stroke-width:1.0;" x1="10" x2="107" y1="433.4883" y2="433.4883"/><text fill="#000000" font-family="sans-serif" font-size="14" lengthAdjust="spacing" textLength="65" x="15" y="449.0234">sdfObject</text><text fill="#000000" font-family="sans-serif" font-size="14" lengthAdjust="spacing" textLength="0" x="102" y="449.0234"/><line style="stroke:#A80036;stroke-width:1.0;" x1="85" x2="85" y1="433.4883" y2="453.9766"/><rect fill="none" height="40.9766" rx="5" ry="5" style="stroke:#A80036;stroke-width:1.5;" width="97" x="10" y="413"/><rect fill="#FEFECE" height="81.9531" rx="5" ry="5" style="stroke:#FEFECE;stroke-width:1.5;" width="547" x="144" y="357.5"/><text fill="#000000" font-family="sans-serif" font-size="14" lengthAdjust="spacing" textLength="26" x="149" y="373.0352">title</text><text fill="#000000" font-family="sans-serif" font-size="14" lengthAdjust="spacing" textLength="274" x="224" y="373.0352">OMA LwM2M Actuation (Object ID 3306)</text><line style="stroke:#A80036;stroke-width:1.0;" x1="219" x2="219" y1="357.5" y2="377.9883"/><line style="stroke:#A80036;stroke-width:1.0;" x1="144" x2="691" y1="377.9883" y2="377.9883"/><text fill="#000000" font-family="sans-serif" font-size="14" lengthAdjust="spacing" textLength="50" x="149" y="393.5234">version</text><text fill="#000000" font-family="sans-serif" font-size="14" lengthAdjust="spacing" textLength="88" x="224" y="393.5234">2021-02-11</text><line style="stroke:#A80036;stroke-width:1.0;" x1="219" x2="219" y1="377.9883" y2="398.4766"/><line style="stroke:#A80036;stroke-width:1.0;" x1="144" x2="691" y1="398.4766" y2="398.4766"/><text fill="#000000" font-family="sans-serif" font-size="14" lengthAdjust="spacing" textLength="65" x="149" y="414.0117">copyright</text><text fill="#000000" font-family="sans-serif" font-size="14" lengthAdjust="spacing" textLength="208" x="224" y="414.0117">Copyright (c) 2018-2020 IPSO</text><line style="stroke:#A80036;stroke-width:1.0;" x1="219" x2="219" y1="398.4766" y2="418.9648"/><line style="stroke:#A80036;stroke-width:1.0;" x1="144" x2="691" y1="418.9648" y2="418.9648"/><text fill="#000000" font-family="sans-serif" font-size="14" lengthAdjust="spacing" textLength="47" x="149" y="434.5">license</text><text fill="#000000" font-family="sans-serif" font-size="14" lengthAdjust="spacing" textLength="462" x="224" y="434.5">https://github.com/one-data-model/oneDM/blob/master/LICENSE</text><line style="stroke:#A80036;stroke-width:1.0;" x1="219" x2="219" y1="418.9648" y2="439.4531"/><rect fill="none" height="81.9531" rx="5" ry="5" style="stroke:#A80036;stroke-width:1.5;" width="547" x="144" y="357.5"/><rect fill="#FEFECE" height="20.4883" rx="5" ry="5" style="stroke:#FEFECE;stroke-width:1.5;" width="98" x="368.5" y="457.5"/><text fill="#000000" font-family="sans-serif" font-size="14" lengthAdjust="spacing" textLength="66" x="373.5" y="473.0352">Actuation</text><text fill="#000000" font-family="sans-serif" font-size="14" lengthAdjust="spacing" textLength="0" x="461.5" y="473.0352"/><line style="stroke:#A80036;stroke-width:1.0;" x1="444.5" x2="444.5" y1="457.5" y2="477.9883"/><rect fill="none" height="20.4883" rx="5" ry="5" style="stroke:#A80036;stroke-width:1.5;" width="98" x="368.5" y="457.5"/><rect fill="#FEFECE" height="168.3945" rx="5" ry="5" style="stroke:#FEFECE;stroke-width:1.5;" width="565" x="728" y="383.5"/><text fill="#000000" font-family="sans-serif" font-size="14" lengthAdjust="spacing" textLength="33" x="733" y="399.0352">label</text><text fill="#000000" font-family="sans-serif" font-size="14" lengthAdjust="spacing" textLength="66" x="826" y="399.0352">Actuation</text><line style="stroke:#A80036;stroke-width:1.0;" x1="821" x2="821" y1="383.5" y2="403.9883"/><line style="stroke:#A80036;stroke-width:1.0;" x1="728" x2="1293" y1="403.9883" y2="403.9883"/><text fill="#000000" font-family="sans-serif" font-size="14" lengthAdjust="spacing" textLength="77" x="733" y="419.5234">description</text><text fill="#000000" font-family="sans-serif" font-size="14" lengthAdjust="spacing" textLength="449" x="826" y="419.5234">This IPSO object is dedicated to remote actuation such as ON/OFF</text><text fill="#000000" font-family="sans-serif" font-size="14" lengthAdjust="spacing" textLength="457" x="826" y="436.0117">action or dimming. A multi-state output can also be described as a</text><text fill="#000000" font-family="sans-serif" font-size="14" lengthAdjust="spacing" textLength="412" x="826" y="452.5">string. This is useful to send pilot wire orders for instance. It</text><text fill="#000000" font-family="sans-serif" font-size="14" lengthAdjust="spacing" textLength="462" x="826" y="468.9883">also provides a resource to reflect the time that the device has been</text><text fill="#000000" font-family="sans-serif" font-size="14" lengthAdjust="spacing" textLength="86" x="826" y="485.4766">switched on.</text><line style="stroke:#A80036;stroke-width:1.0;" x1="821" x2="821" y1="403.9883" y2="490.4297"/><line style="stroke:#A80036;stroke-width:1.0;" x1="728" x2="1293" y1="490.4297" y2="490.4297"/><text fill="#000000" font-family="sans-serif" font-size="14" lengthAdjust="spacing" textLength="79" x="733" y="505.9648">sdfProperty</text><text fill="#000000" font-family="sans-serif" font-size="14" lengthAdjust="spacing" textLength="0" x="838" y="505.9648"/><line style="stroke:#A80036;stroke-width:1.0;" x1="821" x2="821" y1="490.4297" y2="510.918"/><line style="stroke:#A80036;stroke-width:1.0;" x1="728" x2="1293" y1="510.918" y2="510.918"/><text fill="#000000" font-family="sans-serif" font-size="14" lengthAdjust="spacing" textLength="65" x="733" y="526.4531">sdfAction</text><text fill="#000000" font-family="sans-serif" font-size="14" lengthAdjust="spacing" textLength="0" x="838" y="526.4531"/><line style="stroke:#A80036;stroke-width:1.0;" x1="821" x2="821" y1="510.918" y2="531.4063"/><line style="stroke:#A80036;stroke-width:1.0;" x1="728" x2="1293" y1="531.4063" y2="531.4063"/><text fill="#000000" font-family="sans-serif" font-size="14" lengthAdjust="spacing" textLength="83" x="733" y="546.9414">sdfRequired</text><text fill="#000000" font-family="sans-serif" font-size="14" lengthAdjust="spacing" textLength="0" x="838" y="546.9414"/><line style="stroke:#A80036;stroke-width:1.0;" x1="821" x2="821" y1="531.4063" y2="551.8945"/><rect fill="none" height="168.3945" rx="5" ry="5" style="stroke:#A80036;stroke-width:1.5;" width="565" x="728" y="383.5"/><rect fill="#FEFECE" height="143.418" rx="5" ry="5" style="stroke:#FEFECE;stroke-width:1.5;" width="183" x="1391" y="331"/><text fill="#000000" font-family="sans-serif" font-size="14" lengthAdjust="spacing" textLength="48" x="1396" y="346.5352">On_Off</text><text fill="#000000" font-family="sans-serif" font-size="14" lengthAdjust="spacing" textLength="0" x="1569" y="346.5352"/><line style="stroke:#A80036;stroke-width:1.0;" x1="1552" x2="1552" y1="331" y2="351.4883"/><line style="stroke:#A80036;stroke-width:1.0;" x1="1391" x2="1574" y1="351.4883" y2="351.4883"/><text fill="#000000" font-family="sans-serif" font-size="14" lengthAdjust="spacing" textLength="54" x="1396" y="367.0234">Dimmer</text><text fill="#000000" font-family="sans-serif" font-size="14" lengthAdjust="spacing" textLength="0" x="1569" y="367.0234"/><line style="stroke:#A80036;stroke-width:1.0;" x1="1552" x2="1552" y1="351.4883" y2="371.9766"/><line style="stroke:#A80036;stroke-width:1.0;" x1="1391" x2="1574" y1="371.9766" y2="371.9766"/><text fill="#000000" font-family="sans-serif" font-size="14" lengthAdjust="spacing" textLength="57" x="1396" y="387.5117">On_time</text><text fill="#000000" font-family="sans-serif" font-size="14" lengthAdjust="spacing" textLength="0" x="1569" y="387.5117"/><line style="stroke:#A80036;stroke-width:1.0;" x1="1552" x2="1552" y1="371.9766" y2="392.4648"/><line style="stroke:#A80036;stroke-width:1.0;" x1="1391" x2="1574" y1="392.4648" y2="392.4648"/><text fill="#000000" font-family="sans-serif" font-size="14" lengthAdjust="spacing" textLength="126" x="1396" y="408">Muti-state_Output</text><text fill="#000000" font-family="sans-serif" font-size="14" lengthAdjust="spacing" textLength="0" x="1569" y="408"/><line style="stroke:#A80036;stroke-width:1.0;" x1="1552" x2="1552" y1="392.4648" y2="412.9531"/><line style="stroke:#A80036;stroke-width:1.0;" x1="1391" x2="1574" y1="412.9531" y2="412.9531"/><text fill="#000000" font-family="sans-serif" font-size="14" lengthAdjust="spacing" textLength="118" x="1396" y="428.4883">Application_Type</text><text fill="#000000" font-family="sans-serif" font-size="14" lengthAdjust="spacing" textLength="0" x="1569" y="428.4883"/><line style="stroke:#A80036;stroke-width:1.0;" x1="1552" x2="1552" y1="412.9531" y2="433.4414"/><line style="stroke:#A80036;stroke-width:1.0;" x1="1391" x2="1574" y1="433.4414" y2="433.4414"/><text fill="#000000" font-family="sans-serif" font-size="14" lengthAdjust="spacing" textLength="76" x="1396" y="448.9766">Timestamp</text><text fill="#000000" font-family="sans-serif" font-size="14" lengthAdjust="spacing" textLength="0" x="1569" y="448.9766"/><line style="stroke:#A80036;stroke-width:1.0;" x1="1552" x2="1552" y1="433.4414" y2="453.9297"/><line style="stroke:#A80036;stroke-width:1.0;" x1="1391" x2="1574" y1="453.9297" y2="453.9297"/><text fill="#000000" font-family="sans-serif" font-size="14" lengthAdjust="spacing" textLength="151" x="1396" y="469.4648">Fractional_Timestamp</text><text fill="#000000" font-family="sans-serif" font-size="14" lengthAdjust="spacing" textLength="0" x="1569" y="469.4648"/><line style="stroke:#A80036;stroke-width:1.0;" x1="1552" x2="1552" y1="453.9297" y2="474.418"/><rect fill="none" height="143.418" rx="5" ry="5" style="stroke:#A80036;stroke-width:1.5;" width="183" x="1391" y="331"/><rect fill="#FEFECE" height="61.4648" rx="5" ry="5" style="stroke:#FEFECE;stroke-width:1.5;" width="533" x="1694" y="10"/><text fill="#000000" font-family="sans-serif" font-size="14" lengthAdjust="spacing" textLength="33" x="1699" y="25.5352">label</text><text fill="#000000" font-family="sans-serif" font-size="14" lengthAdjust="spacing" textLength="48" x="1786" y="25.5352">On/Off</text><line style="stroke:#A80036;stroke-width:1.0;" x1="1781" x2="1781" y1="10" y2="30.4883"/><line style="stroke:#A80036;stroke-width:1.0;" x1="1694" x2="2227" y1="30.4883" y2="30.4883"/><text fill="#000000" font-family="sans-serif" font-size="14" lengthAdjust="spacing" textLength="77" x="1699" y="46.0234">description</text><text fill="#000000" font-family="sans-serif" font-size="14" lengthAdjust="spacing" textLength="436" x="1786" y="46.0234">On/off control. Boolean value where True is On and False is Off.</text><line style="stroke:#A80036;stroke-width:1.0;" x1="1781" x2="1781" y1="30.4883" y2="50.9766"/><line style="stroke:#A80036;stroke-width:1.0;" x1="1694" x2="2227" y1="50.9766" y2="50.9766"/><text fill="#000000" font-family="sans-serif" font-size="14" lengthAdjust="spacing" textLength="29" x="1699" y="66.5117">type</text><text fill="#000000" font-family="sans-serif" font-size="14" lengthAdjust="spacing" textLength="56" x="1786" y="66.5117">boolean</text><line style="stroke:#A80036;stroke-width:1.0;" x1="1781" x2="1781" y1="50.9766" y2="71.4648"/><rect fill="none" height="61.4648" rx="5" ry="5" style="stroke:#A80036;stroke-width:1.5;" width="533" x="1694" y="10"/><rect fill="#FEFECE" height="139.418" rx="5" ry="5" style="stroke:#FEFECE;stroke-width:1.5;" width="577" x="1672" y="89"/><text fill="#000000" font-family="sans-serif" font-size="14" lengthAdjust="spacing" textLength="33" x="1677" y="104.5352">label</text><text fill="#000000" font-family="sans-serif" font-size="14" lengthAdjust="spacing" textLength="54" x="1764" y="104.5352">Dimmer</text><line style="stroke:#A80036;stroke-width:1.0;" x1="1759" x2="1759" y1="89" y2="109.4883"/><line style="stroke:#A80036;stroke-width:1.0;" x1="1672" x2="2249" y1="109.4883" y2="109.4883"/><text fill="#000000" font-family="sans-serif" font-size="14" lengthAdjust="spacing" textLength="77" x="1677" y="125.0234">description</text><text fill="#000000" font-family="sans-serif" font-size="14" lengthAdjust="spacing" textLength="480" x="1764" y="125.0234">This resource represents a dimmer setting, which has an Integer value</text><text fill="#000000" font-family="sans-serif" font-size="14" lengthAdjust="spacing" textLength="248" x="1764" y="141.5117">between 0 and 100 as a percentage.</text><line style="stroke:#A80036;stroke-width:1.0;" x1="1759" x2="1759" y1="109.4883" y2="146.4648"/><line style="stroke:#A80036;stroke-width:1.0;" x1="1672" x2="2249" y1="146.4648" y2="146.4648"/><text fill="#000000" font-family="sans-serif" font-size="14" lengthAdjust="spacing" textLength="29" x="1677" y="162">type</text><text fill="#000000" font-family="sans-serif" font-size="14" lengthAdjust="spacing" textLength="49" x="1764" y="162">integer</text><line style="stroke:#A80036;stroke-width:1.0;" x1="1759" x2="1759" y1="146.4648" y2="166.9531"/><line style="stroke:#A80036;stroke-width:1.0;" x1="1672" x2="2249" y1="166.9531" y2="166.9531"/><text fill="#000000" font-family="sans-serif" font-size="14" lengthAdjust="spacing" textLength="27" x="1677" y="182.4883">unit</text><text fill="#000000" font-family="sans-serif" font-size="14" lengthAdjust="spacing" textLength="34" x="1764" y="182.4883">/100</text><line style="stroke:#A80036;stroke-width:1.0;" x1="1759" x2="1759" y1="166.9531" y2="187.4414"/><line style="stroke:#A80036;stroke-width:1.0;" x1="1672" x2="2249" y1="187.4414" y2="187.4414"/><text fill="#000000" font-family="sans-serif" font-size="14" lengthAdjust="spacing" textLength="65" x="1677" y="202.9766">minimum</text><text fill="#000000" font-family="sans-serif" font-size="14" lengthAdjust="spacing" textLength="9" x="1764" y="202.9766">0</text><line style="stroke:#A80036;stroke-width:1.0;" x1="1759" x2="1759" y1="187.4414" y2="207.9297"/><line style="stroke:#A80036;stroke-width:1.0;" x1="1672" x2="2249" y1="207.9297" y2="207.9297"/><text fill="#000000" font-family="sans-serif" font-size="14" lengthAdjust="spacing" textLength="69" x="1677" y="223.4648">maximum</text><text fill="#000000" font-family="sans-serif" font-size="14" lengthAdjust="spacing" textLength="27" x="1764" y="223.4648">100</text><line style="stroke:#A80036;stroke-width:1.0;" x1="1759" x2="1759" y1="207.9297" y2="228.418"/><rect fill="none" height="139.418" rx="5" ry="5" style="stroke:#A80036;stroke-width:1.5;" width="577" x="1672" y="89"/><rect fill="#FEFECE" height="98.4414" rx="5" ry="5" style="stroke:#FEFECE;stroke-width:1.5;" width="566" x="1677.5" y="246.5"/><text fill="#000000" font-family="sans-serif" font-size="14" lengthAdjust="spacing" textLength="33" x="1682.5" y="262.0352">label</text><text fill="#000000" font-family="sans-serif" font-size="14" lengthAdjust="spacing" textLength="54" x="1769.5" y="262.0352">On time</text><line style="stroke:#A80036;stroke-width:1.0;" x1="1764.5" x2="1764.5" y1="246.5" y2="266.9883"/><line style="stroke:#A80036;stroke-width:1.0;" x1="1677.5" x2="2243.5" y1="266.9883" y2="266.9883"/><text fill="#000000" font-family="sans-serif" font-size="14" lengthAdjust="spacing" textLength="77" x="1682.5" y="282.5234">description</text><text fill="#000000" font-family="sans-serif" font-size="14" lengthAdjust="spacing" textLength="469" x="1769.5" y="282.5234">The time in seconds that the device has been on. Writing a value of 0</text><text fill="#000000" font-family="sans-serif" font-size="14" lengthAdjust="spacing" textLength="128" x="1769.5" y="299.0117">resets the counter.</text><line style="stroke:#A80036;stroke-width:1.0;" x1="1764.5" x2="1764.5" y1="266.9883" y2="303.9648"/><line style="stroke:#A80036;stroke-width:1.0;" x1="1677.5" x2="2243.5" y1="303.9648" y2="303.9648"/><text fill="#000000" font-family="sans-serif" font-size="14" lengthAdjust="spacing" textLength="29" x="1682.5" y="319.5">type</text><text fill="#000000" font-family="sans-serif" font-size="14" lengthAdjust="spacing" textLength="49" x="1769.5" y="319.5">integer</text><line style="stroke:#A80036;stroke-width:1.0;" x1="1764.5" x2="1764.5" y1="303.9648" y2="324.4531"/><line style="stroke:#A80036;stroke-width:1.0;" x1="1677.5" x2="2243.5" y1="324.4531" y2="324.4531"/><text fill="#000000" font-family="sans-serif" font-size="14" lengthAdjust="spacing" textLength="27" x="1682.5" y="339.9883">unit</text><text fill="#000000" font-family="sans-serif" font-size="14" lengthAdjust="spacing" textLength="7" x="1769.5" y="339.9883">s</text><line style="stroke:#A80036;stroke-width:1.0;" x1="1764.5" x2="1764.5" y1="324.4531" y2="344.9414"/><rect fill="none" height="98.4414" rx="5" ry="5" style="stroke:#A80036;stroke-width:1.5;" width="566" x="1677.5" y="246.5"/><rect fill="#FEFECE" height="77.9531" rx="5" ry="5" style="stroke:#FEFECE;stroke-width:1.5;" width="534" x="1693.5" y="362.5"/><text fill="#000000" font-family="sans-serif" font-size="14" lengthAdjust="spacing" textLength="33" x="1698.5" y="378.0352">label</text><text fill="#000000" font-family="sans-serif" font-size="14" lengthAdjust="spacing" textLength="123" x="1785.5" y="378.0352">Muti-state Output</text><line style="stroke:#A80036;stroke-width:1.0;" x1="1780.5" x2="1780.5" y1="362.5" y2="382.9883"/><line style="stroke:#A80036;stroke-width:1.0;" x1="1693.5" x2="2227.5" y1="382.9883" y2="382.9883"/><text fill="#000000" font-family="sans-serif" font-size="14" lengthAdjust="spacing" textLength="77" x="1698.5" y="398.5234">description</text><text fill="#000000" font-family="sans-serif" font-size="14" lengthAdjust="spacing" textLength="437" x="1785.5" y="398.5234">A string describing a state for multiple level output such as Pilot</text><text fill="#000000" font-family="sans-serif" font-size="14" lengthAdjust="spacing" textLength="34" x="1785.5" y="415.0117">Wire.</text><line style="stroke:#A80036;stroke-width:1.0;" x1="1780.5" x2="1780.5" y1="382.9883" y2="419.9648"/><line style="stroke:#A80036;stroke-width:1.0;" x1="1693.5" x2="2227.5" y1="419.9648" y2="419.9648"/><text fill="#000000" font-family="sans-serif" font-size="14" lengthAdjust="spacing" textLength="29" x="1698.5" y="435.5">type</text><text fill="#000000" font-family="sans-serif" font-size="14" lengthAdjust="spacing" textLength="40" x="1785.5" y="435.5">string</text><line style="stroke:#A80036;stroke-width:1.0;" x1="1780.5" x2="1780.5" y1="419.9648" y2="440.4531"/><rect fill="none" height="77.9531" rx="5" ry="5" style="stroke:#A80036;stroke-width:1.5;" width="534" x="1693.5" y="362.5"/><rect fill="#FEFECE" height="77.9531" rx="5" ry="5" style="stroke:#FEFECE;stroke-width:1.5;" width="563" x="1679" y="458.5"/><text fill="#000000" font-family="sans-serif" font-size="14" lengthAdjust="spacing" textLength="33" x="1684" y="474.0352">label</text><text fill="#000000" font-family="sans-serif" font-size="14" lengthAdjust="spacing" textLength="115" x="1771" y="474.0352">Application Type</text><line style="stroke:#A80036;stroke-width:1.0;" x1="1766" x2="1766" y1="458.5" y2="478.9883"/><line style="stroke:#A80036;stroke-width:1.0;" x1="1679" x2="2242" y1="478.9883" y2="478.9883"/><text fill="#000000" font-family="sans-serif" font-size="14" lengthAdjust="spacing" textLength="77" x="1684" y="494.5234">description</text><text fill="#000000" font-family="sans-serif" font-size="14" lengthAdjust="spacing" textLength="466" x="1771" y="494.5234">The application type of the sensor or actuator as a string depending</text><text fill="#000000" font-family="sans-serif" font-size="14" lengthAdjust="spacing" textLength="110" x="1771" y="511.0117">on the use case.</text><line style="stroke:#A80036;stroke-width:1.0;" x1="1766" x2="1766" y1="478.9883" y2="515.9648"/><line style="stroke:#A80036;stroke-width:1.0;" x1="1679" x2="2242" y1="515.9648" y2="515.9648"/><text fill="#000000" font-family="sans-serif" font-size="14" lengthAdjust="spacing" textLength="29" x="1684" y="531.5">type</text><text fill="#000000" font-family="sans-serif" font-size="14" lengthAdjust="spacing" textLength="40" x="1771" y="531.5">string</text><line style="stroke:#A80036;stroke-width:1.0;" x1="1766" x2="1766" y1="515.9648" y2="536.4531"/><rect fill="none" height="77.9531" rx="5" ry="5" style="stroke:#A80036;stroke-width:1.5;" width="563" x="1679" y="458.5"/><rect fill="#FEFECE" height="102.4414" rx="5" ry="5" style="stroke:#FEFECE;stroke-width:1.5;" width="493" x="1714" y="554.5"/><text fill="#000000" font-family="sans-serif" font-size="14" lengthAdjust="spacing" textLength="33" x="1719" y="570.0352">label</text><text fill="#000000" font-family="sans-serif" font-size="14" lengthAdjust="spacing" textLength="76" x="1806" y="570.0352">Timestamp</text><line style="stroke:#A80036;stroke-width:1.0;" x1="1801" x2="1801" y1="554.5" y2="574.9883"/><line style="stroke:#A80036;stroke-width:1.0;" x1="1714" x2="2207" y1="574.9883" y2="574.9883"/><text fill="#000000" font-family="sans-serif" font-size="14" lengthAdjust="spacing" textLength="77" x="1719" y="590.5234">description</text><text fill="#000000" font-family="sans-serif" font-size="14" lengthAdjust="spacing" textLength="396" x="1806" y="590.5234">The timestamp of when the measurement was performed.</text><line style="stroke:#A80036;stroke-width:1.0;" x1="1801" x2="1801" y1="574.9883" y2="595.4766"/><line style="stroke:#A80036;stroke-width:1.0;" x1="1714" x2="2207" y1="595.4766" y2="595.4766"/><text fill="#000000" font-family="sans-serif" font-size="14" lengthAdjust="spacing" textLength="55" x="1719" y="611.0117">writable</text><text fill="#000000" font-family="sans-serif" font-size="14" lengthAdjust="spacing" textLength="48" x="1806" y="611.0117">☐ false</text><line style="stroke:#A80036;stroke-width:1.0;" x1="1801" x2="1801" y1="595.4766" y2="615.9648"/><line style="stroke:#A80036;stroke-width:1.0;" x1="1714" x2="2207" y1="615.9648" y2="615.9648"/><text fill="#000000" font-family="sans-serif" font-size="14" lengthAdjust="spacing" textLength="29" x="1719" y="631.5">type</text><text fill="#000000" font-family="sans-serif" font-size="14" lengthAdjust="spacing" textLength="54" x="1806" y="631.5">number</text><line style="stroke:#A80036;stroke-width:1.0;" x1="1801" x2="1801" y1="615.9648" y2="636.4531"/><line style="stroke:#A80036;stroke-width:1.0;" x1="1714" x2="2207" y1="636.4531" y2="636.4531"/><text fill="#000000" font-family="sans-serif" font-size="14" lengthAdjust="spacing" textLength="54" x="1719" y="651.9883">sdfType</text><text fill="#000000" font-family="sans-serif" font-size="14" lengthAdjust="spacing" textLength="69" x="1806" y="651.9883">unix-time</text><line style="stroke:#A80036;stroke-width:1.0;" x1="1801" x2="1801" y1="636.4531" y2="656.9414"/><rect fill="none" height="102.4414" rx="5" ry="5" style="stroke:#A80036;stroke-width:1.5;" width="493" x="1714" y="554.5"/><rect fill="#FEFECE" height="159.9063" rx="5" ry="5" style="stroke:#FEFECE;stroke-width:1.5;" width="563" x="1679" y="674.5"/><text fill="#000000" font-family="sans-serif" font-size="14" lengthAdjust="spacing" textLength="33" x="1684" y="690.0352">label</text><text fill="#000000" font-family="sans-serif" font-size="14" lengthAdjust="spacing" textLength="148" x="1771" y="690.0352">Fractional Timestamp</text><line style="stroke:#A80036;stroke-width:1.0;" x1="1766" x2="1766" y1="674.5" y2="694.9883"/><line style="stroke:#A80036;stroke-width:1.0;" x1="1679" x2="2242" y1="694.9883" y2="694.9883"/><text fill="#000000" font-family="sans-serif" font-size="14" lengthAdjust="spacing" textLength="77" x="1684" y="710.5234">description</text><text fill="#000000" font-family="sans-serif" font-size="14" lengthAdjust="spacing" textLength="466" x="1771" y="710.5234">Fractional part of the timestamp when sub-second precision is used</text><text fill="#000000" font-family="sans-serif" font-size="14" lengthAdjust="spacing" textLength="157" x="1771" y="727.0117">(e.g., 0.23 for 230 ms).</text><line style="stroke:#A80036;stroke-width:1.0;" x1="1766" x2="1766" y1="694.9883" y2="731.9648"/><line style="stroke:#A80036;stroke-width:1.0;" x1="1679" x2="2242" y1="731.9648" y2="731.9648"/><text fill="#000000" font-family="sans-serif" font-size="14" lengthAdjust="spacing" textLength="55" x="1684" y="747.5">writable</text><text fill="#000000" font-family="sans-serif" font-size="14" lengthAdjust="spacing" textLength="48" x="1771" y="747.5">☐ false</text><line style="stroke:#A80036;stroke-width:1.0;" x1="1766" x2="1766" y1="731.9648" y2="752.4531"/><line style="stroke:#A80036;stroke-width:1.0;" x1="1679" x2="2242" y1="752.4531" y2="752.4531"/><text fill="#000000" font-family="sans-serif" font-size="14" lengthAdjust="spacing" textLength="29" x="1684" y="767.9883">type</text><text fill="#000000" font-family="sans-serif" font-size="14" lengthAdjust="spacing" textLength="54" x="1771" y="767.9883">number</text><line style="stroke:#A80036;stroke-width:1.0;" x1="1766" x2="1766" y1="752.4531" y2="772.9414"/><line style="stroke:#A80036;stroke-width:1.0;" x1="1679" x2="2242" y1="772.9414" y2="772.9414"/><text fill="#000000" font-family="sans-serif" font-size="14" lengthAdjust="spacing" textLength="27" x="1684" y="788.4766">unit</text><text fill="#000000" font-family="sans-serif" font-size="14" lengthAdjust="spacing" textLength="7" x="1771" y="788.4766">s</text><line style="stroke:#A80036;stroke-width:1.0;" x1="1766" x2="1766" y1="772.9414" y2="793.4297"/><line style="stroke:#A80036;stroke-width:1.0;" x1="1679" x2="2242" y1="793.4297" y2="793.4297"/><text fill="#000000" font-family="sans-serif" font-size="14" lengthAdjust="spacing" textLength="65" x="1684" y="808.9648">minimum</text><text fill="#000000" font-family="sans-serif" font-size="14" lengthAdjust="spacing" textLength="9" x="1771" y="808.9648">0</text><line style="stroke:#A80036;stroke-width:1.0;" x1="1766" x2="1766" y1="793.4297" y2="813.918"/><line style="stroke:#A80036;stroke-width:1.0;" x1="1679" x2="2242" y1="813.918" y2="813.918"/><text fill="#000000" font-family="sans-serif" font-size="14" lengthAdjust="spacing" textLength="69" x="1684" y="829.4531">maximum</text><text fill="#000000" font-family="sans-serif" font-size="14" lengthAdjust="spacing" textLength="9" x="1771" y="829.4531">1</text><line style="stroke:#A80036;stroke-width:1.0;" x1="1766" x2="1766" y1="813.918" y2="834.4063"/><rect fill="none" height="159.9063" rx="5" ry="5" style="stroke:#A80036;stroke-width:1.5;" width="563" x="1679" y="674.5"/><rect fill="#FEFECE" height="15" rx="5" ry="5" style="stroke:#FEFECE;stroke-width:1.5;" width="30" x="1470.5" y="492.5"/><rect fill="none" height="15" rx="5" ry="5" style="stroke:#A80036;stroke-width:1.5;" width="30" x="1470.5" y="492.5"/><rect fill="#FEFECE" height="20.4883" rx="5" ry="5" style="stroke:#FEFECE;stroke-width:1.5;" width="305" x="1330" y="526.5"/><text fill="#000000" font-family="sans-serif" font-size="14" lengthAdjust="spacing" textLength="295" x="1335" y="542.0352">#/sdfObject/Actuation/sdfProperty/On_Off</text><rect fill="none" height="20.4883" rx="5" ry="5" style="stroke:#A80036;stroke-width:1.5;" width="305" x="1330" y="526.5"/><path d="M95,422.5 L108,422.5 C117.3406,422.5 126.8353,422.3896 136.4202,422.1839 " fill="none" style="stroke:#A80036;stroke-width:1.0;stroke-dasharray:3.0,3.0;"/><path d="M136.4943,425.2659 L138.7318,422.1283 L136.3462,419.1019 L144.1253,421.9987 L136.4943,425.2659 " fill="#A80036" style="stroke:#A80036;stroke-width:1.0;"/><ellipse cx="95" cy="422.5" fill="#A80036" rx="3" ry="3" style="stroke:#A80036;stroke-width:1.0;stroke-dasharray:3.0,3.0;"/><path d="M1563,340.5 L1576,340.5 C1699.5979,340.5 1575.6198,156.8776 1672,79.5 C1677.0903,75.4133 1682.4016,71.6401 1687.8987,68.1591 " fill="none" style="stroke:#A80036;stroke-width:1.0;stroke-dasharray:3.0,3.0;"/><path d="M1689.4801,70.7736 L1689.8596,66.973 L1686.3173,65.5446 L1694.435,64.2056 L1689.4801,70.7736 " fill="#A80036" style="stroke:#A80036;stroke-width:1.0;"/><ellipse cx="1563" cy="340.5" fill="#A80036" rx="3" ry="3" style="stroke:#A80036;stroke-width:1.0;stroke-dasharray:3.0,3.0;"/><path d="M1563,360.5 L1576,360.5 C1645.3462,360.5 1614.2963,275.96 1672,237.5 C1674.7301,235.6804 1677.5012,233.9024 1680.3096,232.1652 " fill="none" style="stroke:#A80036;stroke-width:1.0;stroke-dasharray:3.0,3.0;"/><path d="M1681.9017,234.8128 L1682.2953,230.9712 L1678.7176,229.5176 L1686.9286,228.1852 L1681.9017,234.8128 " fill="#A80036" style="stroke:#A80036;stroke-width:1.0;"/><ellipse cx="1563" cy="360.5" fill="#A80036" rx="3" ry="3" style="stroke:#A80036;stroke-width:1.0;stroke-dasharray:3.0,3.0;"/><path d="M1563,381.5 L1576,381.5 C1620.4444,381.5 1628.8428,364.1191 1672,353.5 C1681.9634,351.0485 1692.1393,348.6241 1702.4329,346.2377 " fill="none" style="stroke:#A80036;stroke-width:1.0;stroke-dasharray:3.0,3.0;"/><path d="M1703.1252,349.2436 L1704.6873,345.7184 L1701.7406,343.2318 L1709.9476,344.5069 L1703.1252,349.2436 " fill="#A80036" style="stroke:#A80036;stroke-width:1.0;"/><ellipse cx="1563" cy="381.5" fill="#A80036" rx="3" ry="3" style="stroke:#A80036;stroke-width:1.0;stroke-dasharray:3.0,3.0;"/><path d="M1563,401.5 L1576,401.5 C1611.5544,401.5 1648.9605,401.5 1685.9037,401.5 " fill="none" style="stroke:#A80036;stroke-width:1.0;stroke-dasharray:3.0,3.0;"/><path d="M1685.9037,404.6502 L1688.2663,401.5 L1685.9037,398.3498 L1693.7791,401.5 L1685.9037,404.6502 " fill="#A80036" style="stroke:#A80036;stroke-width:1.0;"/><ellipse cx="1563" cy="401.5" fill="#A80036" rx="3" ry="3" style="stroke:#A80036;stroke-width:1.0;stroke-dasharray:3.0,3.0;"/><path d="M1563,422.5 L1576,422.5 C1620.3221,422.5 1628.7429,439.8424 1672,449.5 C1683.4713,452.0611 1695.2272,454.552 1707.1222,456.9645 " fill="none" style="stroke:#A80036;stroke-width:1.0;stroke-dasharray:3.0,3.0;"/><path d="M1706.5255,459.9337 L1709.3491,457.412 L1707.719,453.9953 L1714.5452,458.4564 L1706.5255,459.9337 " fill="#A80036" style="stroke:#A80036;stroke-width:1.0;"/><ellipse cx="1563" cy="422.5" fill="#A80036" rx="3" ry="3" style="stroke:#A80036;stroke-width:1.0;stroke-dasharray:3.0,3.0;"/><path d="M1563,443.5 L1576,443.5 C1608.0493,443.5 1614.0503,460.1469 1636,483.5 C1657.8227,506.718 1646.1607,526.8549 1672,545.5 C1683.0952,553.5061 1695.022,560.4936 1707.485,566.588 " fill="none" style="stroke:#A80036;stroke-width:1.0;stroke-dasharray:3.0,3.0;"/><path d="M1706.1671,569.3789 L1709.5781,567.5765 L1708.8029,563.7972 L1714.4621,569.8828 L1706.1671,569.3789 " fill="#A80036" style="stroke:#A80036;stroke-width:1.0;"/><ellipse cx="1563" cy="443.5" fill="#A80036" rx="3" ry="3" style="stroke:#A80036;stroke-width:1.0;stroke-dasharray:3.0,3.0;"/><path d="M1563,463.5 L1576,463.5 C1604.1091,463.5 1617.4196,462.4075 1636,483.5 C1690.5043,545.3732 1616.8174,604.231 1672,665.5 C1673.0179,666.6301 1674.0497,667.7461 1675.0952,668.848 " fill="none" style="stroke:#A80036;stroke-width:1.0;stroke-dasharray:3.0,3.0;"/><path d="M1672.9377,670.9832 L1676.6966,670.4661 L1677.2526,666.7128 L1680.4332,674.2417 L1672.9377,670.9832 " fill="#A80036" style="stroke:#A80036;stroke-width:1.0;"/><ellipse cx="1563" cy="463.5" fill="#A80036" rx="3" ry="3" style="stroke:#A80036;stroke-width:1.0;stroke-dasharray:3.0,3.0;"/><path d="M1281,466.5 L1294,466.5 C1324.1955,466.5 1355.7334,459.0098 1384.1614,449.1543 " fill="none" style="stroke:#A80036;stroke-width:1.0;stroke-dasharray:3.0,3.0;"/><path d="M1385.1828,452.0174 L1386.3088,448.3883 L1383.14,446.2912 L1391.3192,446.6008 L1385.1828,452.0174 " fill="#A80036" style="stroke:#A80036;stroke-width:1.0;"/><ellipse cx="1281" cy="466.5" fill="#A80036" rx="3" ry="3" style="stroke:#A80036;stroke-width:1.0;stroke-dasharray:3.0,3.0;"/><path d="M1281,500.5 L1294,500.5 C1355.9833,500.5 1429.4617,500.5 1463.2713,500.5 " fill="none" style="stroke:#A80036;stroke-width:1.0;stroke-dasharray:3.0,3.0;"/><path d="M1463.2713,503.5839 L1465.5842,500.5 L1463.2713,497.4161 L1470.9811,500.5 L1463.2713,503.5839 " fill="#A80036" style="stroke:#A80036;stroke-width:1.0;"/><ellipse cx="1281" cy="500.5" fill="#A80036" rx="3" ry="3" style="stroke:#A80036;stroke-width:1.0;stroke-dasharray:3.0,3.0;"/><path d="M1281,534.5 L1294,534.5 C1303.3364,534.5 1312.9335,534.525 1322.6164,534.5693 " fill="none" style="stroke:#A80036;stroke-width:1.0;stroke-dasharray:3.0,3.0;"/><path d="M1322.6005,537.6816 L1324.9505,534.5812 L1322.6322,531.4571 L1330.3969,534.6089 L1322.6005,537.6816 " fill="#A80036" style="stroke:#A80036;stroke-width:1.0;"/><ellipse cx="1281" cy="534.5" fill="#A80036" rx="3" ry="3" style="stroke:#A80036;stroke-width:1.0;stroke-dasharray:3.0,3.0;"/><path d="M455,467.5 L468,467.5 C549.9271,467.5 638.8201,467.5 720.4642,467.5 " fill="none" style="stroke:#A80036;stroke-width:1.0;stroke-dasharray:3.0,3.0;"/><path d="M720.4642,470.6512 L722.8276,467.5 L720.4642,464.3488 L728.3421,467.5 L720.4642,470.6512 " fill="#A80036" style="stroke:#A80036;stroke-width:1.0;"/><ellipse cx="455" cy="467.5" fill="#A80036" rx="3" ry="3" style="stroke:#A80036;stroke-width:1.0;stroke-dasharray:3.0,3.0;"/><path d="M95,443.5 L108,443.5 C124.1536,443.5 127.9333,446.8271 144,448.5 C218.9195,456.3006 305.7497,461.7265 361.0029,464.7273 " fill="none" style="stroke:#A80036;stroke-width:1.0;stroke-dasharray:3.0,3.0;"/><path d="M360.84,467.7602 L363.2776,464.8495 L361.1658,461.6943 L368.5853,465.1346 L360.84,467.7602 " fill="#A80036" style="stroke:#A80036;stroke-width:1.0;"/><ellipse cx="95" cy="443.5" fill="#A80036" rx="3" ry="3" style="stroke:#A80036;stroke-width:1.0;stroke-dasharray:3.0,3.0;"/><!--MD5=[1c9170b2e70ada68d17f9f8ed5341265]
@startjson
{
  "info": {
    "title": "OMA LwM2M Actuation (Object ID 3306)",
    "version": "2021-02-11",
    "copyright": "Copyright (c) 2018-2020 IPSO",
    "license": "https://github.com/one-data-model/oneDM/blob/master/LICENSE"
  },
  "sdfObject": {
    "Actuation": {
      "label": "Actuation",
      "description": "This IPSO object is dedicated to remote actuation such as ON/OFF\\naction or dimming. A multi-state output can also be described as a\\nstring. This is useful to send pilot wire orders for instance. It\\nalso provides a resource to reflect the time that the device has been\\nswitched on.",
      "sdfProperty": {
        "On_Off": {
          "label": "On/Off",
          "description": "On/off control. Boolean value where True is On and False is Off.",
          "type": "boolean"
        },
        "Dimmer": {
          "label": "Dimmer",
          "description": "This resource represents a dimmer setting, which has an Integer value\\nbetween 0 and 100 as a percentage.",
          "type": "integer",
          "unit": "/100",
          "minimum": 0,
          "maximum": 100
        },
        "On_time": {
          "label": "On time",
          "description": "The time in seconds that the device has been on. Writing a value of 0\\nresets the counter.",
          "type": "integer",
          "unit": "s"
        },
        "Muti-state_Output": {
          "label": "Muti-state Output",
          "description": "A string describing a state for multiple level output such as Pilot\\nWire.",
          "type": "string"
        },
        "Application_Type": {
          "label": "Application Type",
          "description": "The application type of the sensor or actuator as a string depending\\non the use case.",
          "type": "string"
        },
        "Timestamp": {
          "label": "Timestamp",
          "description": "The timestamp of when the measurement was performed.",
          "writable": false,
          "type": "number",
          "sdfType": "unix-time"
        },
        "Fractional_Timestamp": {
          "label": "Fractional Timestamp",
          "description": "Fractional part of the timestamp when sub-second precision is used\\n(e.g., 0.23 for 230 ms).",
          "writable": false,
          "type": "number",
          "unit": "s",
          "minimum": 0,
          "maximum": 1
        }
      },
      "sdfAction": {},
      "sdfRequired": [
        "#/sdfObject/Actuation/sdfProperty/On_Off"
      ]
    }
  }
}
@endjson

PlantUML version 1.2021.2(Sun Mar 07 13:10:27 EET 2021)
(GPL source distribution)
Java Runtime: OpenJDK Runtime Environment
JVM: OpenJDK 64-Bit Server VM
Default Encoding: UTF-8
Language: en
Country: FI
--></g></svg>