<?xml version="1.0" encoding="UTF-8" standalone="no"?><svg xmlns="http://www.w3.org/2000/svg" xmlns:xlink="http://www.w3.org/1999/xlink" contentScriptType="application/ecmascript" contentStyleType="text/css" height="336px" preserveAspectRatio="none" style="width:2390px;height:336px;" version="1.1" viewBox="0 0 2390 336" width="2390px" zoomAndPan="magnify"><defs/><g><rect fill="#FEFECE" height="40.9766" rx="5" ry="5" style="stroke:#FEFECE;stroke-width:1.5;" width="97" x="10" y="128.5"/><text fill="#000000" font-family="sans-serif" font-size="14" lengthAdjust="spacing" textLength="27" x="15" y="144.0352">info</text><text fill="#000000" font-family="sans-serif" font-size="14" lengthAdjust="spacing" textLength="0" x="102" y="144.0352"/><line style="stroke:#A80036;stroke-width:1.0;" x1="85" x2="85" y1="128.5" y2="148.9883"/><line style="stroke:#A80036;stroke-width:1.0;" x1="10" x2="107" y1="148.9883" y2="148.9883"/><text fill="#000000" font-family="sans-serif" font-size="14" lengthAdjust="spacing" textLength="65" x="15" y="164.5234">sdfObject</text><text fill="#000000" font-family="sans-serif" font-size="14" lengthAdjust="spacing" textLength="0" x="102" y="164.5234"/><line style="stroke:#A80036;stroke-width:1.0;" x1="85" x2="85" y1="148.9883" y2="169.4766"/><rect fill="none" height="40.9766" rx="5" ry="5" style="stroke:#A80036;stroke-width:1.5;" width="97" x="10" y="128.5"/><rect fill="#FEFECE" height="81.9531" rx="5" ry="5" style="stroke:#FEFECE;stroke-width:1.5;" width="655" x="144" y="73"/><text fill="#000000" font-family="sans-serif" font-size="14" lengthAdjust="spacing" textLength="65" x="149" y="88.5352">copyright</text><text fill="#000000" font-family="sans-serif" font-size="14" lengthAdjust="spacing" textLength="570" x="224" y="88.5352">copyright 2016-2017, 2019 Open Connectivity Foundation, Inc. All rights reserved.</text><line style="stroke:#A80036;stroke-width:1.0;" x1="219" x2="219" y1="73" y2="93.4883"/><line style="stroke:#A80036;stroke-width:1.0;" x1="144" x2="799" y1="93.4883" y2="93.4883"/><text fill="#000000" font-family="sans-serif" font-size="14" lengthAdjust="spacing" textLength="47" x="149" y="109.0234">license</text><text fill="#000000" font-family="sans-serif" font-size="14" lengthAdjust="spacing" textLength="462" x="224" y="109.0234">https://github.com/one-data-model/oneDM/blob/master/LICENSE</text><line style="stroke:#A80036;stroke-width:1.0;" x1="219" x2="219" y1="93.4883" y2="113.9766"/><line style="stroke:#A80036;stroke-width:1.0;" x1="144" x2="799" y1="113.9766" y2="113.9766"/><text fill="#000000" font-family="sans-serif" font-size="14" lengthAdjust="spacing" textLength="26" x="149" y="129.5117">title</text><text fill="#000000" font-family="sans-serif" font-size="14" lengthAdjust="spacing" textLength="80" x="224" y="129.5117">Liquid Level</text><line style="stroke:#A80036;stroke-width:1.0;" x1="219" x2="219" y1="113.9766" y2="134.4648"/><line style="stroke:#A80036;stroke-width:1.0;" x1="144" x2="799" y1="134.4648" y2="134.4648"/><text fill="#000000" font-family="sans-serif" font-size="14" lengthAdjust="spacing" textLength="50" x="149" y="150">version</text><text fill="#000000" font-family="sans-serif" font-size="14" lengthAdjust="spacing" textLength="88" x="224" y="150">2019-02-15</text><line style="stroke:#A80036;stroke-width:1.0;" x1="219" x2="219" y1="134.4648" y2="154.9531"/><rect fill="none" height="81.9531" rx="5" ry="5" style="stroke:#A80036;stroke-width:1.5;" width="655" x="144" y="73"/><rect fill="#FEFECE" height="20.4883" rx="5" ry="5" style="stroke:#FEFECE;stroke-width:1.5;" width="106" x="418.5" y="173"/><text fill="#000000" font-family="sans-serif" font-size="14" lengthAdjust="spacing" textLength="74" x="423.5" y="188.5352">liquid.level</text><text fill="#000000" font-family="sans-serif" font-size="14" lengthAdjust="spacing" textLength="0" x="519.5" y="188.5352"/><line style="stroke:#A80036;stroke-width:1.0;" x1="502.5" x2="502.5" y1="173" y2="193.4883"/><rect fill="none" height="20.4883" rx="5" ry="5" style="stroke:#A80036;stroke-width:1.5;" width="106" x="418.5" y="173"/><rect fill="#FEFECE" height="110.9297" rx="5" ry="5" style="stroke:#FEFECE;stroke-width:1.5;" width="572" x="836" y="127.5"/><text fill="#000000" font-family="sans-serif" font-size="14" lengthAdjust="spacing" textLength="77" x="841" y="143.0352">description</text><text fill="#000000" font-family="sans-serif" font-size="14" lengthAdjust="spacing" textLength="452" x="934" y="143.0352">This Resource describes the attributes associated with liquid level.</text><text fill="#000000" font-family="sans-serif" font-size="14" lengthAdjust="spacing" textLength="451" x="934" y="159.5234">The Property "currentlevel" and "desiredlevel" are defined in terms</text><text fill="#000000" font-family="sans-serif" font-size="14" lengthAdjust="spacing" textLength="414" x="934" y="176.0117">of a percentage. The behaviour of when the currentlevel and</text><text fill="#000000" font-family="sans-serif" font-size="14" lengthAdjust="spacing" textLength="469" x="934" y="192.5">desiredlevel are not equal is determined by the device manufacturer.</text><line style="stroke:#A80036;stroke-width:1.0;" x1="929" x2="929" y1="127.5" y2="197.4531"/><line style="stroke:#A80036;stroke-width:1.0;" x1="836" x2="1408" y1="197.4531" y2="197.4531"/><text fill="#000000" font-family="sans-serif" font-size="14" lengthAdjust="spacing" textLength="79" x="841" y="212.9883">sdfProperty</text><text fill="#000000" font-family="sans-serif" font-size="14" lengthAdjust="spacing" textLength="0" x="946" y="212.9883"/><line style="stroke:#A80036;stroke-width:1.0;" x1="929" x2="929" y1="197.4531" y2="217.9414"/><line style="stroke:#A80036;stroke-width:1.0;" x1="836" x2="1408" y1="217.9414" y2="217.9414"/><text fill="#000000" font-family="sans-serif" font-size="14" lengthAdjust="spacing" textLength="83" x="841" y="233.4766">sdfRequired</text><text fill="#000000" font-family="sans-serif" font-size="14" lengthAdjust="spacing" textLength="0" x="946" y="233.4766"/><line style="stroke:#A80036;stroke-width:1.0;" x1="929" x2="929" y1="217.9414" y2="238.4297"/><rect fill="none" height="110.9297" rx="5" ry="5" style="stroke:#A80036;stroke-width:1.5;" width="572" x="836" y="127.5"/><rect fill="#FEFECE" height="61.4648" rx="5" ry="5" style="stroke:#FEFECE;stroke-width:1.5;" width="114" x="1561.5" y="141.5"/><text fill="#000000" font-family="sans-serif" font-size="14" lengthAdjust="spacing" textLength="81" x="1566.5" y="157.0352">currentlevel</text><text fill="#000000" font-family="sans-serif" font-size="14" lengthAdjust="spacing" textLength="0" x="1670.5" y="157.0352"/><line style="stroke:#A80036;stroke-width:1.0;" x1="1653.5" x2="1653.5" y1="141.5" y2="161.9883"/><line style="stroke:#A80036;stroke-width:1.0;" x1="1561.5" x2="1675.5" y1="161.9883" y2="161.9883"/><text fill="#000000" font-family="sans-serif" font-size="14" lengthAdjust="spacing" textLength="82" x="1566.5" y="177.5234">desiredlevel</text><text fill="#000000" font-family="sans-serif" font-size="14" lengthAdjust="spacing" textLength="0" x="1670.5" y="177.5234"/><line style="stroke:#A80036;stroke-width:1.0;" x1="1653.5" x2="1653.5" y1="161.9883" y2="182.4766"/><line style="stroke:#A80036;stroke-width:1.0;" x1="1561.5" x2="1675.5" y1="182.4766" y2="182.4766"/><text fill="#000000" font-family="sans-serif" font-size="14" lengthAdjust="spacing" textLength="29" x="1566.5" y="198.0117">step</text><text fill="#000000" font-family="sans-serif" font-size="14" lengthAdjust="spacing" textLength="0" x="1670.5" y="198.0117"/><line style="stroke:#A80036;stroke-width:1.0;" x1="1653.5" x2="1653.5" y1="182.4766" y2="202.9648"/><rect fill="none" height="61.4648" rx="5" ry="5" style="stroke:#A80036;stroke-width:1.5;" width="114" x="1561.5" y="141.5"/><rect fill="#FEFECE" height="102.4414" rx="5" ry="5" style="stroke:#FEFECE;stroke-width:1.5;" width="401" x="1903" y="10"/><text fill="#000000" font-family="sans-serif" font-size="14" lengthAdjust="spacing" textLength="77" x="1908" y="25.5352">description</text><text fill="#000000" font-family="sans-serif" font-size="14" lengthAdjust="spacing" textLength="304" x="1995" y="25.5352">The current level of the liquid in percentage.</text><line style="stroke:#A80036;stroke-width:1.0;" x1="1990" x2="1990" y1="10" y2="30.4883"/><line style="stroke:#A80036;stroke-width:1.0;" x1="1903" x2="2304" y1="30.4883" y2="30.4883"/><text fill="#000000" font-family="sans-serif" font-size="14" lengthAdjust="spacing" textLength="69" x="1908" y="46.0234">maximum</text><text fill="#000000" font-family="sans-serif" font-size="14" lengthAdjust="spacing" textLength="27" x="1995" y="46.0234">100</text><line style="stroke:#A80036;stroke-width:1.0;" x1="1990" x2="1990" y1="30.4883" y2="50.9766"/><line style="stroke:#A80036;stroke-width:1.0;" x1="1903" x2="2304" y1="50.9766" y2="50.9766"/><text fill="#000000" font-family="sans-serif" font-size="14" lengthAdjust="spacing" textLength="65" x="1908" y="66.5117">minimum</text><text fill="#000000" font-family="sans-serif" font-size="14" lengthAdjust="spacing" textLength="9" x="1995" y="66.5117">0</text><line style="stroke:#A80036;stroke-width:1.0;" x1="1990" x2="1990" y1="50.9766" y2="71.4648"/><line style="stroke:#A80036;stroke-width:1.0;" x1="1903" x2="2304" y1="71.4648" y2="71.4648"/><text fill="#000000" font-family="sans-serif" font-size="14" lengthAdjust="spacing" textLength="55" x="1908" y="87">writable</text><text fill="#000000" font-family="sans-serif" font-size="14" lengthAdjust="spacing" textLength="48" x="1995" y="87">☐ false</text><line style="stroke:#A80036;stroke-width:1.0;" x1="1990" x2="1990" y1="71.4648" y2="91.9531"/><line style="stroke:#A80036;stroke-width:1.0;" x1="1903" x2="2304" y1="91.9531" y2="91.9531"/><text fill="#000000" font-family="sans-serif" font-size="14" lengthAdjust="spacing" textLength="29" x="1908" y="107.4883">type</text><text fill="#000000" font-family="sans-serif" font-size="14" lengthAdjust="spacing" textLength="49" x="1995" y="107.4883">integer</text><line style="stroke:#A80036;stroke-width:1.0;" x1="1990" x2="1990" y1="91.9531" y2="112.4414"/><rect fill="none" height="102.4414" rx="5" ry="5" style="stroke:#A80036;stroke-width:1.5;" width="401" x="1903" y="10"/><rect fill="#FEFECE" height="81.9531" rx="5" ry="5" style="stroke:#FEFECE;stroke-width:1.5;" width="402" x="1902.5" y="130"/><text fill="#000000" font-family="sans-serif" font-size="14" lengthAdjust="spacing" textLength="77" x="1907.5" y="145.5352">description</text><text fill="#000000" font-family="sans-serif" font-size="14" lengthAdjust="spacing" textLength="305" x="1994.5" y="145.5352">The desired level of the liquid in percentage.</text><line style="stroke:#A80036;stroke-width:1.0;" x1="1989.5" x2="1989.5" y1="130" y2="150.4883"/><line style="stroke:#A80036;stroke-width:1.0;" x1="1902.5" x2="2304.5" y1="150.4883" y2="150.4883"/><text fill="#000000" font-family="sans-serif" font-size="14" lengthAdjust="spacing" textLength="69" x="1907.5" y="166.0234">maximum</text><text fill="#000000" font-family="sans-serif" font-size="14" lengthAdjust="spacing" textLength="27" x="1994.5" y="166.0234">100</text><line style="stroke:#A80036;stroke-width:1.0;" x1="1989.5" x2="1989.5" y1="150.4883" y2="170.9766"/><line style="stroke:#A80036;stroke-width:1.0;" x1="1902.5" x2="2304.5" y1="170.9766" y2="170.9766"/><text fill="#000000" font-family="sans-serif" font-size="14" lengthAdjust="spacing" textLength="65" x="1907.5" y="186.5117">minimum</text><text fill="#000000" font-family="sans-serif" font-size="14" lengthAdjust="spacing" textLength="9" x="1994.5" y="186.5117">0</text><line style="stroke:#A80036;stroke-width:1.0;" x1="1989.5" x2="1989.5" y1="170.9766" y2="191.4648"/><line style="stroke:#A80036;stroke-width:1.0;" x1="1902.5" x2="2304.5" y1="191.4648" y2="191.4648"/><text fill="#000000" font-family="sans-serif" font-size="14" lengthAdjust="spacing" textLength="29" x="1907.5" y="207">type</text><text fill="#000000" font-family="sans-serif" font-size="14" lengthAdjust="spacing" textLength="49" x="1994.5" y="207">integer</text><line style="stroke:#A80036;stroke-width:1.0;" x1="1989.5" x2="1989.5" y1="191.4648" y2="211.9531"/><rect fill="none" height="81.9531" rx="5" ry="5" style="stroke:#A80036;stroke-width:1.5;" width="402" x="1902.5" y="130"/><rect fill="#FEFECE" height="94.4414" rx="5" ry="5" style="stroke:#FEFECE;stroke-width:1.5;" width="549" x="1829" y="230"/><text fill="#000000" font-family="sans-serif" font-size="14" lengthAdjust="spacing" textLength="77" x="1834" y="245.5352">description</text><text fill="#000000" font-family="sans-serif" font-size="14" lengthAdjust="spacing" textLength="448" x="1921" y="245.5352">Step value across the defined range when the range is an integer.</text><text fill="#000000" font-family="sans-serif" font-size="14" lengthAdjust="spacing" textLength="449" x="1921" y="262.0234">This is the increment for valid values across the range; so if range</text><text fill="#000000" font-family="sans-serif" font-size="14" lengthAdjust="spacing" textLength="376" x="1921" y="278.5117">is 0..10 and step is 2 then valid values are 0,2,4,6,8,10.</text><line style="stroke:#A80036;stroke-width:1.0;" x1="1916" x2="1916" y1="230" y2="283.4648"/><line style="stroke:#A80036;stroke-width:1.0;" x1="1829" x2="2378" y1="283.4648" y2="283.4648"/><text fill="#000000" font-family="sans-serif" font-size="14" lengthAdjust="spacing" textLength="55" x="1834" y="299">writable</text><text fill="#000000" font-family="sans-serif" font-size="14" lengthAdjust="spacing" textLength="48" x="1921" y="299">☐ false</text><line style="stroke:#A80036;stroke-width:1.0;" x1="1916" x2="1916" y1="283.4648" y2="303.9531"/><line style="stroke:#A80036;stroke-width:1.0;" x1="1829" x2="2378" y1="303.9531" y2="303.9531"/><text fill="#000000" font-family="sans-serif" font-size="14" lengthAdjust="spacing" textLength="29" x="1834" y="319.4883">type</text><text fill="#000000" font-family="sans-serif" font-size="14" lengthAdjust="spacing" textLength="49" x="1921" y="319.4883">integer</text><line style="stroke:#A80036;stroke-width:1.0;" x1="1916" x2="1916" y1="303.9531" y2="324.4414"/><rect fill="none" height="94.4414" rx="5" ry="5" style="stroke:#A80036;stroke-width:1.5;" width="549" x="1829" y="230"/><rect fill="#FEFECE" height="20.4883" rx="5" ry="5" style="stroke:#FEFECE;stroke-width:1.5;" width="347" x="1445" y="221"/><text fill="#000000" font-family="sans-serif" font-size="14" lengthAdjust="spacing" textLength="337" x="1450" y="236.5352">#/sdfObject/liquid.level/sdfProperty/desiredlevel</text><rect fill="none" height="20.4883" rx="5" ry="5" style="stroke:#A80036;stroke-width:1.5;" width="347" x="1445" y="221"/><path d="M95,138 L108,138 C117.3442,138 126.8208,137.9198 136.3833,137.7688 " fill="none" style="stroke:#A80036;stroke-width:1.0;stroke-dasharray:3.0,3.0;"/><path d="M136.4378,140.8434 L138.6892,137.7279 L136.3288,134.6942 L144.0697,137.6326 L136.4378,140.8434 " fill="#A80036" style="stroke:#A80036;stroke-width:1.0;"/><ellipse cx="95" cy="138" fill="#A80036" rx="3" ry="3" style="stroke:#A80036;stroke-width:1.0;stroke-dasharray:3.0,3.0;"/><path d="M1664,151 L1677,151 C1683.0728,151 1790.4477,128.3097 1895.8642,105.7152 " fill="none" style="stroke:#A80036;stroke-width:1.0;stroke-dasharray:3.0,3.0;"/><path d="M1896.5147,108.7493 L1898.1398,105.2273 L1895.2137,102.6811 L1903.4494,104.0889 L1896.5147,108.7493 " fill="#A80036" style="stroke:#A80036;stroke-width:1.0;"/><ellipse cx="1664" cy="151" fill="#A80036" rx="3" ry="3" style="stroke:#A80036;stroke-width:1.0;stroke-dasharray:3.0,3.0;"/><path d="M1664,171 L1677,171 C1748.0906,171 1825.8545,171 1895.2577,171 " fill="none" style="stroke:#A80036;stroke-width:1.0;stroke-dasharray:3.0,3.0;"/><path d="M1895.2577,174.021 L1897.5235,171 L1895.2577,167.979 L1902.8103,171 L1895.2577,174.021 " fill="#A80036" style="stroke:#A80036;stroke-width:1.0;"/><ellipse cx="1664" cy="171" fill="#A80036" rx="3" ry="3" style="stroke:#A80036;stroke-width:1.0;stroke-dasharray:3.0,3.0;"/><path d="M1664,192 L1677,192 C1729.3162,192 1741.8099,201.2038 1793,212 C1809.1374,215.4034 1812.917,217.3479 1829,221 C1839.778,223.4474 1850.8057,225.9024 1861.9535,228.3442 " fill="none" style="stroke:#A80036;stroke-width:1.0;stroke-dasharray:3.0,3.0;"/><path d="M1861.3125,231.2809 L1864.156,228.825 L1862.5945,225.4076 L1869.2952,229.9467 L1861.3125,231.2809 " fill="#A80036" style="stroke:#A80036;stroke-width:1.0;"/><ellipse cx="1664" cy="192" fill="#A80036" rx="3" ry="3" style="stroke:#A80036;stroke-width:1.0;stroke-dasharray:3.0,3.0;"/><path d="M1396,183 L1409,183 C1457.7435,183 1512.7932,179.9794 1554.1549,177.1039 " fill="none" style="stroke:#A80036;stroke-width:1.0;stroke-dasharray:3.0,3.0;"/><path d="M1554.3686,180.1276 L1556.4226,176.9436 L1553.9411,174.0802 L1561.7141,176.5694 L1554.3686,180.1276 " fill="#A80036" style="stroke:#A80036;stroke-width:1.0;"/><ellipse cx="1396" cy="183" fill="#A80036" rx="3" ry="3" style="stroke:#A80036;stroke-width:1.0;stroke-dasharray:3.0,3.0;"/><path d="M1396,220 L1409,220 C1423.832,220 1439.248,220.2797 1454.6845,220.7499 " fill="none" style="stroke:#A80036;stroke-width:1.0;stroke-dasharray:3.0,3.0;"/><path d="M1454.5862,223.7807 L1456.9576,220.8236 L1454.7828,217.719 L1462.2616,220.9956 L1454.5862,223.7807 " fill="#A80036" style="stroke:#A80036;stroke-width:1.0;"/><ellipse cx="1396" cy="220" fill="#A80036" rx="3" ry="3" style="stroke:#A80036;stroke-width:1.0;stroke-dasharray:3.0,3.0;"/><path d="M513,183 L526,183 C624.6192,183 732.4253,183 828.8792,183 " fill="none" style="stroke:#A80036;stroke-width:1.0;stroke-dasharray:3.0,3.0;"/><path d="M828.8792,186.006 L831.1337,183 L828.8792,179.994 L836.3942,183 L828.8792,186.006 " fill="#A80036" style="stroke:#A80036;stroke-width:1.0;"/><ellipse cx="513" cy="183" fill="#A80036" rx="3" ry="3" style="stroke:#A80036;stroke-width:1.0;stroke-dasharray:3.0,3.0;"/><path d="M95,159 L108,159 C124.1536,159 127.924,162.4191 144,164 C236.9948,173.1449 345.333,178.3781 411.0031,180.9535 " fill="none" style="stroke:#A80036;stroke-width:1.0;stroke-dasharray:3.0,3.0;"/><path d="M410.8827,184.0708 L413.341,181.0438 L411.1235,177.8363 L418.7962,181.2545 L410.8827,184.0708 " fill="#A80036" style="stroke:#A80036;stroke-width:1.0;"/><ellipse cx="95" cy="159" fill="#A80036" rx="3" ry="3" style="stroke:#A80036;stroke-width:1.0;stroke-dasharray:3.0,3.0;"/><!--MD5=[30bf3d5d7dfb138d45a8fedc07c81ee7]
@startjson
{
  "info": {
    "copyright": "copyright 2016-2017, 2019 Open Connectivity Foundation, Inc. All rights reserved.",
    "license": "https://github.com/one-data-model/oneDM/blob/master/LICENSE",
    "title": "Liquid Level",
    "version": "2019-02-15"
  },
  "sdfObject": {
    "liquid.level": {
      "description": "This Resource describes the attributes associated with liquid level.\\nThe Property \"currentlevel\" and \"desiredlevel\" are defined in terms\\nof a percentage. The behaviour of when the currentlevel and\\ndesiredlevel are not equal is determined by the device manufacturer.",
      "sdfProperty": {
        "currentlevel": {
          "description": "The current level of the liquid in percentage.",
          "maximum": 100,
          "minimum": 0,
          "writable": false,
          "type": "integer"
        },
        "desiredlevel": {
          "description": "The desired level of the liquid in percentage.",
          "maximum": 100,
          "minimum": 0,
          "type": "integer"
        },
        "step": {
          "description": "Step value across the defined range when the range is an integer. \\nThis is the increment for valid values across the range; so if range\\nis 0..10 and step is 2 then valid values are 0,2,4,6,8,10.",
          "writable": false,
          "type": "integer"
        }
      },
      "sdfRequired": [
        "#/sdfObject/liquid.level/sdfProperty/desiredlevel"
      ]
    }
  }
}
@endjson

PlantUML version 1.2021.2(Sun Mar 07 13:10:27 EET 2021)
(GPL source distribution)
Java Runtime: OpenJDK Runtime Environment
JVM: OpenJDK 64-Bit Server VM
Default Encoding: UTF-8
Language: en
Country: FI
--></g></svg>