<?xml version="1.0" encoding="UTF-8" standalone="no"?><svg xmlns="http://www.w3.org/2000/svg" xmlns:xlink="http://www.w3.org/1999/xlink" contentScriptType="application/ecmascript" contentStyleType="text/css" height="439px" preserveAspectRatio="none" style="width:2341px;height:439px;" version="1.1" viewBox="0 0 2341 439" width="2341px" zoomAndPan="magnify"><defs/><g><rect fill="#FEFECE" height="40.9766" rx="5" ry="5" style="stroke:#FEFECE;stroke-width:1.5;" width="97" x="10" y="192"/><text fill="#000000" font-family="sans-serif" font-size="14" lengthAdjust="spacing" textLength="27" x="15" y="207.5352">info</text><text fill="#000000" font-family="sans-serif" font-size="14" lengthAdjust="spacing" textLength="0" x="102" y="207.5352"/><line style="stroke:#A80036;stroke-width:1.0;" x1="85" x2="85" y1="192" y2="212.4883"/><line style="stroke:#A80036;stroke-width:1.0;" x1="10" x2="107" y1="212.4883" y2="212.4883"/><text fill="#000000" font-family="sans-serif" font-size="14" lengthAdjust="spacing" textLength="65" x="15" y="228.0234">sdfObject</text><text fill="#000000" font-family="sans-serif" font-size="14" lengthAdjust="spacing" textLength="0" x="102" y="228.0234"/><line style="stroke:#A80036;stroke-width:1.0;" x1="85" x2="85" y1="212.4883" y2="232.9766"/><rect fill="none" height="40.9766" rx="5" ry="5" style="stroke:#A80036;stroke-width:1.5;" width="97" x="10" y="192"/><rect fill="#FEFECE" height="81.9531" rx="5" ry="5" style="stroke:#FEFECE;stroke-width:1.5;" width="611" x="144" y="136.5"/><text fill="#000000" font-family="sans-serif" font-size="14" lengthAdjust="spacing" textLength="65" x="149" y="152.0352">copyright</text><text fill="#000000" font-family="sans-serif" font-size="14" lengthAdjust="spacing" textLength="526" x="224" y="152.0352">copyright 2018-2019 Open Connectivity Foundation, Inc. All rights reserved.</text><line style="stroke:#A80036;stroke-width:1.0;" x1="219" x2="219" y1="136.5" y2="156.9883"/><line style="stroke:#A80036;stroke-width:1.0;" x1="144" x2="755" y1="156.9883" y2="156.9883"/><text fill="#000000" font-family="sans-serif" font-size="14" lengthAdjust="spacing" textLength="47" x="149" y="172.5234">license</text><text fill="#000000" font-family="sans-serif" font-size="14" lengthAdjust="spacing" textLength="462" x="224" y="172.5234">https://github.com/one-data-model/oneDM/blob/master/LICENSE</text><line style="stroke:#A80036;stroke-width:1.0;" x1="219" x2="219" y1="156.9883" y2="177.4766"/><line style="stroke:#A80036;stroke-width:1.0;" x1="144" x2="755" y1="177.4766" y2="177.4766"/><text fill="#000000" font-family="sans-serif" font-size="14" lengthAdjust="spacing" textLength="26" x="149" y="193.0117">title</text><text fill="#000000" font-family="sans-serif" font-size="14" lengthAdjust="spacing" textLength="89" x="224" y="193.0117">Opaque Data</text><line style="stroke:#A80036;stroke-width:1.0;" x1="219" x2="219" y1="177.4766" y2="197.9648"/><line style="stroke:#A80036;stroke-width:1.0;" x1="144" x2="755" y1="197.9648" y2="197.9648"/><text fill="#000000" font-family="sans-serif" font-size="14" lengthAdjust="spacing" textLength="50" x="149" y="213.5">version</text><text fill="#000000" font-family="sans-serif" font-size="14" lengthAdjust="spacing" textLength="88" x="224" y="213.5">2018-12-12</text><line style="stroke:#A80036;stroke-width:1.0;" x1="219" x2="219" y1="197.9648" y2="218.4531"/><rect fill="none" height="81.9531" rx="5" ry="5" style="stroke:#A80036;stroke-width:1.5;" width="611" x="144" y="136.5"/><rect fill="#FEFECE" height="20.4883" rx="5" ry="5" style="stroke:#FEFECE;stroke-width:1.5;" width="114" x="392.5" y="236.5"/><text fill="#000000" font-family="sans-serif" font-size="14" lengthAdjust="spacing" textLength="82" x="397.5" y="252.0352">opaquedata</text><text fill="#000000" font-family="sans-serif" font-size="14" lengthAdjust="spacing" textLength="0" x="501.5" y="252.0352"/><line style="stroke:#A80036;stroke-width:1.0;" x1="484.5" x2="484.5" y1="236.5" y2="256.9883"/><rect fill="none" height="20.4883" rx="5" ry="5" style="stroke:#A80036;stroke-width:1.5;" width="114" x="392.5" y="236.5"/><rect fill="#FEFECE" height="94.4414" rx="5" ry="5" style="stroke:#FEFECE;stroke-width:1.5;" width="560" x="792" y="199.5"/><text fill="#000000" font-family="sans-serif" font-size="14" lengthAdjust="spacing" textLength="77" x="797" y="215.0352">description</text><text fill="#000000" font-family="sans-serif" font-size="14" lengthAdjust="spacing" textLength="457" x="890" y="215.0352">This Resource defines opaque data that can be transfered between</text><text fill="#000000" font-family="sans-serif" font-size="14" lengthAdjust="spacing" textLength="426" x="890" y="231.5234">endpoints where the data itself is not interpretable by the OCF</text><text fill="#000000" font-family="sans-serif" font-size="14" lengthAdjust="spacing" textLength="385" x="890" y="248.0117">endpoints. The stringdata is a string of ASCII characters.</text><line style="stroke:#A80036;stroke-width:1.0;" x1="885" x2="885" y1="199.5" y2="252.9648"/><line style="stroke:#A80036;stroke-width:1.0;" x1="792" x2="1352" y1="252.9648" y2="252.9648"/><text fill="#000000" font-family="sans-serif" font-size="14" lengthAdjust="spacing" textLength="79" x="797" y="268.5">sdfProperty</text><text fill="#000000" font-family="sans-serif" font-size="14" lengthAdjust="spacing" textLength="0" x="902" y="268.5"/><line style="stroke:#A80036;stroke-width:1.0;" x1="885" x2="885" y1="252.9648" y2="273.4531"/><line style="stroke:#A80036;stroke-width:1.0;" x1="792" x2="1352" y1="273.4531" y2="273.4531"/><text fill="#000000" font-family="sans-serif" font-size="14" lengthAdjust="spacing" textLength="83" x="797" y="288.9883">sdfRequired</text><text fill="#000000" font-family="sans-serif" font-size="14" lengthAdjust="spacing" textLength="0" x="902" y="288.9883"/><line style="stroke:#A80036;stroke-width:1.0;" x1="885" x2="885" y1="273.4531" y2="293.9414"/><rect fill="none" height="94.4414" rx="5" ry="5" style="stroke:#A80036;stroke-width:1.5;" width="560" x="792" y="199.5"/><rect fill="#FEFECE" height="122.9297" rx="5" ry="5" style="stroke:#FEFECE;stroke-width:1.5;" width="115" x="1500" y="145"/><text fill="#000000" font-family="sans-serif" font-size="14" lengthAdjust="spacing" textLength="54" x="1505" y="160.5352">payload</text><text fill="#000000" font-family="sans-serif" font-size="14" lengthAdjust="spacing" textLength="0" x="1610" y="160.5352"/><line style="stroke:#A80036;stroke-width:1.0;" x1="1593" x2="1593" y1="145" y2="165.4883"/><line style="stroke:#A80036;stroke-width:1.0;" x1="1500" x2="1615" y1="165.4883" y2="165.4883"/><text fill="#000000" font-family="sans-serif" font-size="14" lengthAdjust="spacing" textLength="64" x="1505" y="181.0234">encoding</text><text fill="#000000" font-family="sans-serif" font-size="14" lengthAdjust="spacing" textLength="0" x="1610" y="181.0234"/><line style="stroke:#A80036;stroke-width:1.0;" x1="1593" x2="1593" y1="165.4883" y2="185.9766"/><line style="stroke:#A80036;stroke-width:1.0;" x1="1500" x2="1615" y1="185.9766" y2="185.9766"/><text fill="#000000" font-family="sans-serif" font-size="14" lengthAdjust="spacing" textLength="83" x="1505" y="201.5117">payloadtype</text><text fill="#000000" font-family="sans-serif" font-size="14" lengthAdjust="spacing" textLength="0" x="1610" y="201.5117"/><line style="stroke:#A80036;stroke-width:1.0;" x1="1593" x2="1593" y1="185.9766" y2="206.4648"/><line style="stroke:#A80036;stroke-width:1.0;" x1="1500" x2="1615" y1="206.4648" y2="206.4648"/><text fill="#000000" font-family="sans-serif" font-size="14" lengthAdjust="spacing" textLength="27" x="1505" y="222">size</text><text fill="#000000" font-family="sans-serif" font-size="14" lengthAdjust="spacing" textLength="0" x="1610" y="222"/><line style="stroke:#A80036;stroke-width:1.0;" x1="1593" x2="1593" y1="206.4648" y2="226.9531"/><line style="stroke:#A80036;stroke-width:1.0;" x1="1500" x2="1615" y1="226.9531" y2="226.9531"/><text fill="#000000" font-family="sans-serif" font-size="14" lengthAdjust="spacing" textLength="33" x="1505" y="242.4883">hash</text><text fill="#000000" font-family="sans-serif" font-size="14" lengthAdjust="spacing" textLength="0" x="1610" y="242.4883"/><line style="stroke:#A80036;stroke-width:1.0;" x1="1593" x2="1593" y1="226.9531" y2="247.4414"/><line style="stroke:#A80036;stroke-width:1.0;" x1="1500" x2="1615" y1="247.4414" y2="247.4414"/><text fill="#000000" font-family="sans-serif" font-size="14" lengthAdjust="spacing" textLength="47" x="1505" y="262.9766">system</text><text fill="#000000" font-family="sans-serif" font-size="14" lengthAdjust="spacing" textLength="0" x="1610" y="262.9766"/><line style="stroke:#A80036;stroke-width:1.0;" x1="1593" x2="1593" y1="247.4414" y2="267.9297"/><rect fill="none" height="122.9297" rx="5" ry="5" style="stroke:#A80036;stroke-width:1.5;" width="115" x="1500" y="145"/><rect fill="#FEFECE" height="40.9766" rx="5" ry="5" style="stroke:#FEFECE;stroke-width:1.5;" width="370" x="1861" y="10"/><text fill="#000000" font-family="sans-serif" font-size="14" lengthAdjust="spacing" textLength="29" x="1866" y="25.5352">type</text><text fill="#000000" font-family="sans-serif" font-size="14" lengthAdjust="spacing" textLength="40" x="1953" y="25.5352">string</text><line style="stroke:#A80036;stroke-width:1.0;" x1="1948" x2="1948" y1="10" y2="30.4883"/><line style="stroke:#A80036;stroke-width:1.0;" x1="1861" x2="2231" y1="30.4883" y2="30.4883"/><text fill="#000000" font-family="sans-serif" font-size="14" lengthAdjust="spacing" textLength="77" x="1866" y="46.0234">description</text><text fill="#000000" font-family="sans-serif" font-size="14" lengthAdjust="spacing" textLength="273" x="1953" y="46.0234">This Property contains the opaque data.</text><line style="stroke:#A80036;stroke-width:1.0;" x1="1948" x2="1948" y1="30.4883" y2="50.9766"/><rect fill="none" height="40.9766" rx="5" ry="5" style="stroke:#A80036;stroke-width:1.5;" width="370" x="1861" y="10"/><rect fill="#FEFECE" height="57.4648" rx="5" ry="5" style="stroke:#FEFECE;stroke-width:1.5;" width="552" x="1770" y="69"/><text fill="#000000" font-family="sans-serif" font-size="14" lengthAdjust="spacing" textLength="29" x="1775" y="84.5352">type</text><text fill="#000000" font-family="sans-serif" font-size="14" lengthAdjust="spacing" textLength="40" x="1862" y="84.5352">string</text><line style="stroke:#A80036;stroke-width:1.0;" x1="1857" x2="1857" y1="69" y2="89.4883"/><line style="stroke:#A80036;stroke-width:1.0;" x1="1770" x2="2322" y1="89.4883" y2="89.4883"/><text fill="#000000" font-family="sans-serif" font-size="14" lengthAdjust="spacing" textLength="77" x="1775" y="105.0234">description</text><text fill="#000000" font-family="sans-serif" font-size="14" lengthAdjust="spacing" textLength="455" x="1862" y="105.0234">This Property describes the encoding of the payload, e.g. binary as</text><text fill="#000000" font-family="sans-serif" font-size="14" lengthAdjust="spacing" textLength="169" x="1862" y="121.5117">base64, json, xml, utf-8.</text><line style="stroke:#A80036;stroke-width:1.0;" x1="1857" x2="1857" y1="89.4883" y2="126.4648"/><rect fill="none" height="57.4648" rx="5" ry="5" style="stroke:#A80036;stroke-width:1.5;" width="552" x="1770" y="69"/><rect fill="#FEFECE" height="57.4648" rx="5" ry="5" style="stroke:#FEFECE;stroke-width:1.5;" width="549" x="1771.5" y="144"/><text fill="#000000" font-family="sans-serif" font-size="14" lengthAdjust="spacing" textLength="29" x="1776.5" y="159.5352">type</text><text fill="#000000" font-family="sans-serif" font-size="14" lengthAdjust="spacing" textLength="40" x="1863.5" y="159.5352">string</text><line style="stroke:#A80036;stroke-width:1.0;" x1="1858.5" x2="1858.5" y1="144" y2="164.4883"/><line style="stroke:#A80036;stroke-width:1.0;" x1="1771.5" x2="2320.5" y1="164.4883" y2="164.4883"/><text fill="#000000" font-family="sans-serif" font-size="14" lengthAdjust="spacing" textLength="77" x="1776.5" y="180.0234">description</text><text fill="#000000" font-family="sans-serif" font-size="14" lengthAdjust="spacing" textLength="452" x="1863.5" y="180.0234">This Property describes the identification of the payload, e.g. what</text><text fill="#000000" font-family="sans-serif" font-size="14" lengthAdjust="spacing" textLength="195" x="1863.5" y="196.5117">the payload is representing .</text><line style="stroke:#A80036;stroke-width:1.0;" x1="1858.5" x2="1858.5" y1="164.4883" y2="201.4648"/><rect fill="none" height="57.4648" rx="5" ry="5" style="stroke:#A80036;stroke-width:1.5;" width="549" x="1771.5" y="144"/><rect fill="#FEFECE" height="40.9766" rx="5" ry="5" style="stroke:#FEFECE;stroke-width:1.5;" width="415" x="1838.5" y="219"/><text fill="#000000" font-family="sans-serif" font-size="14" lengthAdjust="spacing" textLength="29" x="1843.5" y="234.5352">type</text><text fill="#000000" font-family="sans-serif" font-size="14" lengthAdjust="spacing" textLength="49" x="1930.5" y="234.5352">integer</text><line style="stroke:#A80036;stroke-width:1.0;" x1="1925.5" x2="1925.5" y1="219" y2="239.4883"/><line style="stroke:#A80036;stroke-width:1.0;" x1="1838.5" x2="2253.5" y1="239.4883" y2="239.4883"/><text fill="#000000" font-family="sans-serif" font-size="14" lengthAdjust="spacing" textLength="77" x="1843.5" y="255.0234">description</text><text fill="#000000" font-family="sans-serif" font-size="14" lengthAdjust="spacing" textLength="318" x="1930.5" y="255.0234">The size in bytes of the decoded binary object.</text><line style="stroke:#A80036;stroke-width:1.0;" x1="1925.5" x2="1925.5" y1="239.4883" y2="259.9766"/><rect fill="none" height="40.9766" rx="5" ry="5" style="stroke:#A80036;stroke-width:1.5;" width="415" x="1838.5" y="219"/><rect fill="#FEFECE" height="90.4414" rx="5" ry="5" style="stroke:#FEFECE;stroke-width:1.5;" width="566" x="1763" y="278.5"/><text fill="#000000" font-family="sans-serif" font-size="14" lengthAdjust="spacing" textLength="29" x="1768" y="294.0352">type</text><text fill="#000000" font-family="sans-serif" font-size="14" lengthAdjust="spacing" textLength="40" x="1855" y="294.0352">string</text><line style="stroke:#A80036;stroke-width:1.0;" x1="1850" x2="1850" y1="278.5" y2="298.9883"/><line style="stroke:#A80036;stroke-width:1.0;" x1="1763" x2="2329" y1="298.9883" y2="298.9883"/><text fill="#000000" font-family="sans-serif" font-size="14" lengthAdjust="spacing" textLength="77" x="1768" y="314.5234">description</text><text fill="#000000" font-family="sans-serif" font-size="14" lengthAdjust="spacing" textLength="408" x="1855" y="314.5234">The hash code of the blob. If present, it is used to check the</text><text fill="#000000" font-family="sans-serif" font-size="14" lengthAdjust="spacing" textLength="469" x="1855" y="331.0117">decoded content of the object data point for integrity. The algorithm</text><text fill="#000000" font-family="sans-serif" font-size="14" lengthAdjust="spacing" textLength="443" x="1855" y="347.5">used for generating the hash value is SHA-2 [15]. The data point</text><text fill="#000000" font-family="sans-serif" font-size="14" lengthAdjust="spacing" textLength="289" x="1855" y="363.9883">contains the hash as a hex encoded value.</text><line style="stroke:#A80036;stroke-width:1.0;" x1="1850" x2="1850" y1="298.9883" y2="368.9414"/><rect fill="none" height="90.4414" rx="5" ry="5" style="stroke:#A80036;stroke-width:1.5;" width="566" x="1763" y="278.5"/><rect fill="#FEFECE" height="40.9766" rx="5" ry="5" style="stroke:#FEFECE;stroke-width:1.5;" width="378" x="1857" y="387"/><text fill="#000000" font-family="sans-serif" font-size="14" lengthAdjust="spacing" textLength="29" x="1862" y="402.5352">type</text><text fill="#000000" font-family="sans-serif" font-size="14" lengthAdjust="spacing" textLength="40" x="1949" y="402.5352">string</text><line style="stroke:#A80036;stroke-width:1.0;" x1="1944" x2="1944" y1="387" y2="407.4883"/><line style="stroke:#A80036;stroke-width:1.0;" x1="1857" x2="2235" y1="407.4883" y2="407.4883"/><text fill="#000000" font-family="sans-serif" font-size="14" lengthAdjust="spacing" textLength="77" x="1862" y="423.0234">description</text><text fill="#000000" font-family="sans-serif" font-size="14" lengthAdjust="spacing" textLength="281" x="1949" y="423.0234">The eco system that is using the payload.</text><line style="stroke:#A80036;stroke-width:1.0;" x1="1944" x2="1944" y1="407.4883" y2="427.9766"/><rect fill="none" height="40.9766" rx="5" ry="5" style="stroke:#A80036;stroke-width:1.5;" width="378" x="1857" y="387"/><rect fill="#FEFECE" height="61.4648" rx="5" ry="5" style="stroke:#FEFECE;stroke-width:1.5;" width="337" x="1389" y="286"/><text fill="#000000" font-family="sans-serif" font-size="14" lengthAdjust="spacing" textLength="317" x="1394" y="301.5352">#/sdfObject/opaquedata/sdfProperty/payload</text><line style="stroke:#A80036;stroke-width:1.0;" x1="1389" x2="1726" y1="306.4883" y2="306.4883"/><text fill="#000000" font-family="sans-serif" font-size="14" lengthAdjust="spacing" textLength="327" x="1394" y="322.0234">#/sdfObject/opaquedata/sdfProperty/encoding</text><line style="stroke:#A80036;stroke-width:1.0;" x1="1389" x2="1726" y1="326.9766" y2="326.9766"/><text fill="#000000" font-family="sans-serif" font-size="14" lengthAdjust="spacing" textLength="310" x="1394" y="342.5117">#/sdfObject/opaquedata/sdfProperty/system</text><rect fill="none" height="61.4648" rx="5" ry="5" style="stroke:#A80036;stroke-width:1.5;" width="337" x="1389" y="286"/><path d="M95,201.5 L108,201.5 C117.3658,201.5 126.8728,201.4088 136.4679,201.2376 " fill="none" style="stroke:#A80036;stroke-width:1.0;stroke-dasharray:3.0,3.0;"/><path d="M136.5296,204.3228 L138.7818,201.1914 L136.4062,198.1524 L144.1809,201.0834 L136.5296,204.3228 " fill="#A80036" style="stroke:#A80036;stroke-width:1.0;"/><ellipse cx="95" cy="201.5" fill="#A80036" rx="3" ry="3" style="stroke:#A80036;stroke-width:1.0;stroke-dasharray:3.0,3.0;"/><path d="M1604,154.5 L1617,154.5 C1694.4163,154.5 1690.0045,85.2864 1763,59.5 C1791.7274,49.3518 1823.0468,42.4131 1854.0329,37.7258 " fill="none" style="stroke:#A80036;stroke-width:1.0;stroke-dasharray:3.0,3.0;"/><path d="M1854.4667,40.7036 L1856.2662,37.4005 L1853.5992,34.748 L1861.4773,36.6414 L1854.4667,40.7036 " fill="#A80036" style="stroke:#A80036;stroke-width:1.0;"/><ellipse cx="1604" cy="154.5" fill="#A80036" rx="3" ry="3" style="stroke:#A80036;stroke-width:1.0;stroke-dasharray:3.0,3.0;"/><path d="M1604,175.5 L1617,175.5 C1684.3989,175.5 1696.9715,148.0223 1763,134.5 C1775.355,131.9698 1788.0511,129.5765 1800.8978,127.3181 " fill="none" style="stroke:#A80036;stroke-width:1.0;stroke-dasharray:3.0,3.0;"/><path d="M1801.4235,130.3501 L1803.1718,126.9238 L1800.3722,124.2861 L1808.4778,126.0039 L1801.4235,130.3501 " fill="#A80036" style="stroke:#A80036;stroke-width:1.0;"/><ellipse cx="1604" cy="175.5" fill="#A80036" rx="3" ry="3" style="stroke:#A80036;stroke-width:1.0;stroke-dasharray:3.0,3.0;"/><path d="M1604,195.5 L1617,195.5 C1664.6545,195.5 1715.2474,194.064 1764.335,191.9097 " fill="none" style="stroke:#A80036;stroke-width:1.0;stroke-dasharray:3.0,3.0;"/><path d="M1764.4699,194.9285 L1766.5991,191.8084 L1764.2,188.8908 L1771.8821,191.5723 L1764.4699,194.9285 " fill="#A80036" style="stroke:#A80036;stroke-width:1.0;"/><ellipse cx="1604" cy="195.5" fill="#A80036" rx="3" ry="3" style="stroke:#A80036;stroke-width:1.0;stroke-dasharray:3.0,3.0;"/><path d="M1604,216.5 L1617,216.5 C1686.6724,216.5 1762.6257,219.5695 1830.9726,223.4658 " fill="none" style="stroke:#A80036;stroke-width:1.0;stroke-dasharray:3.0,3.0;"/><path d="M1830.791,226.6128 L1833.3328,223.602 L1831.1542,220.3188 L1838.8401,223.9198 L1830.791,226.6128 " fill="#A80036" style="stroke:#A80036;stroke-width:1.0;"/><ellipse cx="1604" cy="216.5" fill="#A80036" rx="3" ry="3" style="stroke:#A80036;stroke-width:1.0;stroke-dasharray:3.0,3.0;"/><path d="M1604,237.5 L1617,237.5 C1683.4292,237.5 1697.9257,256.1516 1763,269.5 C1775.0624,271.9743 1787.4223,274.473 1799.9104,276.9684 " fill="none" style="stroke:#A80036;stroke-width:1.0;stroke-dasharray:3.0,3.0;"/><path d="M1799.323,279.915 L1802.1203,277.409 L1800.4979,274.0219 L1807.2768,278.4371 L1799.323,279.915 " fill="#A80036" style="stroke:#A80036;stroke-width:1.0;"/><ellipse cx="1604" cy="237.5" fill="#A80036" rx="3" ry="3" style="stroke:#A80036;stroke-width:1.0;stroke-dasharray:3.0,3.0;"/><path d="M1604,257.5 L1617,257.5 C1666.6904,257.5 1689.0763,245.3919 1727,277.5 C1763.051,308.0227 1725.8438,348.3328 1763,377.5 C1788.0516,397.1652 1818.4392,408.8184 1849.8769,415.2504 " fill="none" style="stroke:#A80036;stroke-width:1.0;stroke-dasharray:3.0,3.0;"/><path d="M1849.2978,418.282 L1852.1506,415.6847 L1850.456,412.2188 L1857.4559,416.6981 L1849.2978,418.282 " fill="#A80036" style="stroke:#A80036;stroke-width:1.0;"/><ellipse cx="1604" cy="257.5" fill="#A80036" rx="3" ry="3" style="stroke:#A80036;stroke-width:1.0;stroke-dasharray:3.0,3.0;"/><path d="M1340,245.5 L1353,245.5 C1400.5234,245.5 1453.1842,235.163 1493.0965,225.1326 " fill="none" style="stroke:#A80036;stroke-width:1.0;stroke-dasharray:3.0,3.0;"/><path d="M1493.8432,228.0526 L1495.2865,224.5726 L1492.3498,222.2126 L1500.3965,223.2658 L1493.8432,228.0526 " fill="#A80036" style="stroke:#A80036;stroke-width:1.0;"/><ellipse cx="1340" cy="245.5" fill="#A80036" rx="3" ry="3" style="stroke:#A80036;stroke-width:1.0;stroke-dasharray:3.0,3.0;"/><path d="M1340,277.5 L1353,277.5 C1378.2702,277.5 1404.9931,280.4228 1430.4793,284.6681 " fill="none" style="stroke:#A80036;stroke-width:1.0;stroke-dasharray:3.0,3.0;"/><path d="M1429.9616,287.6716 L1432.7319,285.0564 L1430.9971,281.6646 L1437.988,285.9624 L1429.9616,287.6716 " fill="#A80036" style="stroke:#A80036;stroke-width:1.0;"/><ellipse cx="1340" cy="277.5" fill="#A80036" rx="3" ry="3" style="stroke:#A80036;stroke-width:1.0;stroke-dasharray:3.0,3.0;"/><path d="M495,246.5 L508,246.5 C597.9499,246.5 695.9763,246.5 784.6746,246.5 " fill="none" style="stroke:#A80036;stroke-width:1.0;stroke-dasharray:3.0,3.0;"/><path d="M784.6746,249.5925 L786.994,246.5 L784.6746,243.4075 L792.4059,246.5 L784.6746,249.5925 " fill="#A80036" style="stroke:#A80036;stroke-width:1.0;"/><ellipse cx="495" cy="246.5" fill="#A80036" rx="3" ry="3" style="stroke:#A80036;stroke-width:1.0;stroke-dasharray:3.0,3.0;"/><path d="M95,222.5 L108,222.5 C124.1536,222.5 127.9273,225.8856 144,227.5 C227.1487,235.852 323.4428,241.1192 385.2279,243.9358 " fill="none" style="stroke:#A80036;stroke-width:1.0;stroke-dasharray:3.0,3.0;"/><path d="M385.0887,247.0296 L387.5482,244.0402 L385.3671,240.842 L392.9624,244.2838 L385.0887,247.0296 " fill="#A80036" style="stroke:#A80036;stroke-width:1.0;"/><ellipse cx="95" cy="222.5" fill="#A80036" rx="3" ry="3" style="stroke:#A80036;stroke-width:1.0;stroke-dasharray:3.0,3.0;"/><!--MD5=[36bc71026199b43925f1baa6451dcc81]
@startjson
{
  "info": {
    "copyright": "copyright 2018-2019 Open Connectivity Foundation, Inc. All rights reserved.",
    "license": "https://github.com/one-data-model/oneDM/blob/master/LICENSE",
    "title": "Opaque Data",
    "version": "2018-12-12"
  },
  "sdfObject": {
    "opaquedata": {
      "description": "This Resource defines opaque data that can be transfered between\\nendpoints where the data itself is not interpretable by the OCF\\nendpoints. The stringdata is a string of ASCII characters.",
      "sdfProperty": {
        "payload": {
          "type": "string",
          "description": "This Property contains the opaque data."
        },
        "encoding": {
          "type": "string",
          "description": "This Property describes the encoding of the payload, e.g. binary as\\nbase64, json, xml, utf-8."
        },
        "payloadtype": {
          "type": "string",
          "description": "This Property describes the identification of the payload, e.g. what\\nthe payload is representing ."
        },
        "size": {
          "type": "integer",
          "description": "The size in bytes of the decoded binary object."
        },
        "hash": {
          "type": "string",
          "description": "The hash code of the blob. If present, it is used to check the\\ndecoded content of the object data point for integrity. The algorithm\\nused for generating the hash value is SHA-2 [15]. The data point\\ncontains the hash as a hex encoded value."
        },
        "system": {
          "type": "string",
          "description": "The eco system that is using the payload."
        }
      },
      "sdfRequired": [
        "#/sdfObject/opaquedata/sdfProperty/payload",
        "#/sdfObject/opaquedata/sdfProperty/encoding",
        "#/sdfObject/opaquedata/sdfProperty/system"
      ]
    }
  }
}
@endjson

PlantUML version 1.2021.2(Sun Mar 07 13:10:27 EET 2021)
(GPL source distribution)
Java Runtime: OpenJDK Runtime Environment
JVM: OpenJDK 64-Bit Server VM
Default Encoding: UTF-8
Language: en
Country: FI
--></g></svg>