<?xml version="1.0" encoding="UTF-8" standalone="no"?><svg xmlns="http://www.w3.org/2000/svg" xmlns:xlink="http://www.w3.org/1999/xlink" contentScriptType="application/ecmascript" contentStyleType="text/css" height="617px" preserveAspectRatio="none" style="width:2679px;height:617px;" version="1.1" viewBox="0 0 2679 617" width="2679px" zoomAndPan="magnify"><defs/><g><rect fill="#FEFECE" height="40.9766" rx="5" ry="5" style="stroke:#FEFECE;stroke-width:1.5;" width="97" x="10" y="292.5"/><text fill="#000000" font-family="sans-serif" font-size="14" lengthAdjust="spacing" textLength="27" x="15" y="308.0352">info</text><text fill="#000000" font-family="sans-serif" font-size="14" lengthAdjust="spacing" textLength="0" x="102" y="308.0352"/><line style="stroke:#A80036;stroke-width:1.0;" x1="85" x2="85" y1="292.5" y2="312.9883"/><line style="stroke:#A80036;stroke-width:1.0;" x1="10" x2="107" y1="312.9883" y2="312.9883"/><text fill="#000000" font-family="sans-serif" font-size="14" lengthAdjust="spacing" textLength="65" x="15" y="328.5234">sdfObject</text><text fill="#000000" font-family="sans-serif" font-size="14" lengthAdjust="spacing" textLength="0" x="102" y="328.5234"/><line style="stroke:#A80036;stroke-width:1.0;" x1="85" x2="85" y1="312.9883" y2="333.4766"/><rect fill="none" height="40.9766" rx="5" ry="5" style="stroke:#A80036;stroke-width:1.5;" width="97" x="10" y="292.5"/><rect fill="#FEFECE" height="81.9531" rx="5" ry="5" style="stroke:#FEFECE;stroke-width:1.5;" width="614" x="144" y="237"/><text fill="#000000" font-family="sans-serif" font-size="14" lengthAdjust="spacing" textLength="65" x="149" y="252.5352">copyright</text><text fill="#000000" font-family="sans-serif" font-size="14" lengthAdjust="spacing" textLength="529" x="224" y="252.5352">Copyright 2018-2019 Open Connectivity Foundation, Inc. All rights reserved.</text><line style="stroke:#A80036;stroke-width:1.0;" x1="219" x2="219" y1="237" y2="257.4883"/><line style="stroke:#A80036;stroke-width:1.0;" x1="144" x2="758" y1="257.4883" y2="257.4883"/><text fill="#000000" font-family="sans-serif" font-size="14" lengthAdjust="spacing" textLength="47" x="149" y="273.0234">license</text><text fill="#000000" font-family="sans-serif" font-size="14" lengthAdjust="spacing" textLength="462" x="224" y="273.0234">https://github.com/one-data-model/oneDM/blob/master/LICENSE</text><line style="stroke:#A80036;stroke-width:1.0;" x1="219" x2="219" y1="257.4883" y2="277.9766"/><line style="stroke:#A80036;stroke-width:1.0;" x1="144" x2="758" y1="277.9766" y2="277.9766"/><text fill="#000000" font-family="sans-serif" font-size="14" lengthAdjust="spacing" textLength="26" x="149" y="293.5117">title</text><text fill="#000000" font-family="sans-serif" font-size="14" lengthAdjust="spacing" textLength="69" x="224" y="293.5117">3D Printer</text><line style="stroke:#A80036;stroke-width:1.0;" x1="219" x2="219" y1="277.9766" y2="298.4648"/><line style="stroke:#A80036;stroke-width:1.0;" x1="144" x2="758" y1="298.4648" y2="298.4648"/><text fill="#000000" font-family="sans-serif" font-size="14" lengthAdjust="spacing" textLength="50" x="149" y="314">version</text><text fill="#000000" font-family="sans-serif" font-size="14" lengthAdjust="spacing" textLength="88" x="224" y="314">2019-02-22</text><line style="stroke:#A80036;stroke-width:1.0;" x1="219" x2="219" y1="298.4648" y2="318.9531"/><rect fill="none" height="81.9531" rx="5" ry="5" style="stroke:#A80036;stroke-width:1.5;" width="614" x="144" y="237"/><rect fill="#FEFECE" height="20.4883" rx="5" ry="5" style="stroke:#FEFECE;stroke-width:1.5;" width="101" x="400.5" y="337"/><text fill="#000000" font-family="sans-serif" font-size="14" lengthAdjust="spacing" textLength="69" x="405.5" y="352.5352">printer.3d</text><text fill="#000000" font-family="sans-serif" font-size="14" lengthAdjust="spacing" textLength="0" x="496.5" y="352.5352"/><line style="stroke:#A80036;stroke-width:1.0;" x1="479.5" x2="479.5" y1="337" y2="357.4883"/><rect fill="none" height="20.4883" rx="5" ry="5" style="stroke:#A80036;stroke-width:1.5;" width="101" x="400.5" y="337"/><rect fill="#FEFECE" height="143.9063" rx="5" ry="5" style="stroke:#FEFECE;stroke-width:1.5;" width="576" x="795" y="275"/><text fill="#000000" font-family="sans-serif" font-size="14" lengthAdjust="spacing" textLength="77" x="800" y="290.5352">description</text><text fill="#000000" font-family="sans-serif" font-size="14" lengthAdjust="spacing" textLength="447" x="893" y="290.5352">This Resource describes the attributes associated with 3D Printer.</text><text fill="#000000" font-family="sans-serif" font-size="14" lengthAdjust="spacing" textLength="447" x="893" y="307.0234">The type of 3D printing technology is specified by an enumerated</text><text fill="#000000" font-family="sans-serif" font-size="14" lengthAdjust="spacing" textLength="473" x="893" y="323.5117">string value. The maximum sizes in mm are included for the x, y, and</text><text fill="#000000" font-family="sans-serif" font-size="14" lengthAdjust="spacing" textLength="471" x="893" y="340">z dimensions. A designation of whether the device is capable of WAN</text><text fill="#000000" font-family="sans-serif" font-size="14" lengthAdjust="spacing" textLength="440" x="893" y="356.4883">connectivity is represented in a boolean. The memory capacity is</text><text fill="#000000" font-family="sans-serif" font-size="14" lengthAdjust="spacing" textLength="106" x="893" y="372.9766">captured in MB.</text><line style="stroke:#A80036;stroke-width:1.0;" x1="888" x2="888" y1="275" y2="377.9297"/><line style="stroke:#A80036;stroke-width:1.0;" x1="795" x2="1371" y1="377.9297" y2="377.9297"/><text fill="#000000" font-family="sans-serif" font-size="14" lengthAdjust="spacing" textLength="79" x="800" y="393.4648">sdfProperty</text><text fill="#000000" font-family="sans-serif" font-size="14" lengthAdjust="spacing" textLength="0" x="905" y="393.4648"/><line style="stroke:#A80036;stroke-width:1.0;" x1="888" x2="888" y1="377.9297" y2="398.418"/><line style="stroke:#A80036;stroke-width:1.0;" x1="795" x2="1371" y1="398.418" y2="398.418"/><text fill="#000000" font-family="sans-serif" font-size="14" lengthAdjust="spacing" textLength="83" x="800" y="413.9531">sdfRequired</text><text fill="#000000" font-family="sans-serif" font-size="14" lengthAdjust="spacing" textLength="0" x="905" y="413.9531"/><line style="stroke:#A80036;stroke-width:1.0;" x1="888" x2="888" y1="398.418" y2="418.9063"/><rect fill="none" height="143.9063" rx="5" ry="5" style="stroke:#A80036;stroke-width:1.5;" width="576" x="795" y="275"/><rect fill="#FEFECE" height="122.9297" rx="5" ry="5" style="stroke:#FEFECE;stroke-width:1.5;" width="131" x="1522" y="239.5"/><text fill="#000000" font-family="sans-serif" font-size="14" lengthAdjust="spacing" textLength="67" x="1527" y="255.0352">printsizey</text><text fill="#000000" font-family="sans-serif" font-size="14" lengthAdjust="spacing" textLength="0" x="1648" y="255.0352"/><line style="stroke:#A80036;stroke-width:1.0;" x1="1631" x2="1631" y1="239.5" y2="259.9883"/><line style="stroke:#A80036;stroke-width:1.0;" x1="1522" x2="1653" y1="259.9883" y2="259.9883"/><text fill="#000000" font-family="sans-serif" font-size="14" lengthAdjust="spacing" textLength="83" x="1527" y="275.5234">memorysize</text><text fill="#000000" font-family="sans-serif" font-size="14" lengthAdjust="spacing" textLength="0" x="1648" y="275.5234"/><line style="stroke:#A80036;stroke-width:1.0;" x1="1631" x2="1631" y1="259.9883" y2="280.4766"/><line style="stroke:#A80036;stroke-width:1.0;" x1="1522" x2="1653" y1="280.4766" y2="280.4766"/><text fill="#000000" font-family="sans-serif" font-size="14" lengthAdjust="spacing" textLength="80" x="1527" y="296.0117">3dprinttype</text><text fill="#000000" font-family="sans-serif" font-size="14" lengthAdjust="spacing" textLength="0" x="1648" y="296.0117"/><line style="stroke:#A80036;stroke-width:1.0;" x1="1631" x2="1631" y1="280.4766" y2="300.9648"/><line style="stroke:#A80036;stroke-width:1.0;" x1="1522" x2="1653" y1="300.9648" y2="300.9648"/><text fill="#000000" font-family="sans-serif" font-size="14" lengthAdjust="spacing" textLength="99" x="1527" y="316.5">wanconnected</text><text fill="#000000" font-family="sans-serif" font-size="14" lengthAdjust="spacing" textLength="0" x="1648" y="316.5"/><line style="stroke:#A80036;stroke-width:1.0;" x1="1631" x2="1631" y1="300.9648" y2="321.4531"/><line style="stroke:#A80036;stroke-width:1.0;" x1="1522" x2="1653" y1="321.4531" y2="321.4531"/><text fill="#000000" font-family="sans-serif" font-size="14" lengthAdjust="spacing" textLength="69" x="1527" y="336.9883">printsizex</text><text fill="#000000" font-family="sans-serif" font-size="14" lengthAdjust="spacing" textLength="0" x="1648" y="336.9883"/><line style="stroke:#A80036;stroke-width:1.0;" x1="1631" x2="1631" y1="321.4531" y2="341.9414"/><line style="stroke:#A80036;stroke-width:1.0;" x1="1522" x2="1653" y1="341.9414" y2="341.9414"/><text fill="#000000" font-family="sans-serif" font-size="14" lengthAdjust="spacing" textLength="68" x="1527" y="357.4766">printsizez</text><text fill="#000000" font-family="sans-serif" font-size="14" lengthAdjust="spacing" textLength="0" x="1648" y="357.4766"/><line style="stroke:#A80036;stroke-width:1.0;" x1="1631" x2="1631" y1="341.9414" y2="362.4297"/><rect fill="none" height="122.9297" rx="5" ry="5" style="stroke:#A80036;stroke-width:1.5;" width="131" x="1522" y="239.5"/><rect fill="#FEFECE" height="77.9531" rx="5" ry="5" style="stroke:#FEFECE;stroke-width:1.5;" width="561" x="1804" y="10"/><text fill="#000000" font-family="sans-serif" font-size="14" lengthAdjust="spacing" textLength="77" x="1809" y="25.5352">description</text><text fill="#000000" font-family="sans-serif" font-size="14" lengthAdjust="spacing" textLength="464" x="1896" y="25.5352">This Property represents the maximum size of printing object in the</text><text fill="#000000" font-family="sans-serif" font-size="14" lengthAdjust="spacing" textLength="242" x="1896" y="42.0234">direction of Y-axis. The unit is mm.</text><line style="stroke:#A80036;stroke-width:1.0;" x1="1891" x2="1891" y1="10" y2="46.9766"/><line style="stroke:#A80036;stroke-width:1.0;" x1="1804" x2="2365" y1="46.9766" y2="46.9766"/><text fill="#000000" font-family="sans-serif" font-size="14" lengthAdjust="spacing" textLength="55" x="1809" y="62.5117">writable</text><text fill="#000000" font-family="sans-serif" font-size="14" lengthAdjust="spacing" textLength="48" x="1896" y="62.5117">☐ false</text><line style="stroke:#A80036;stroke-width:1.0;" x1="1891" x2="1891" y1="46.9766" y2="67.4648"/><line style="stroke:#A80036;stroke-width:1.0;" x1="1804" x2="2365" y1="67.4648" y2="67.4648"/><text fill="#000000" font-family="sans-serif" font-size="14" lengthAdjust="spacing" textLength="29" x="1809" y="83">type</text><text fill="#000000" font-family="sans-serif" font-size="14" lengthAdjust="spacing" textLength="54" x="1896" y="83">number</text><line style="stroke:#A80036;stroke-width:1.0;" x1="1891" x2="1891" y1="67.4648" y2="87.9531"/><rect fill="none" height="77.9531" rx="5" ry="5" style="stroke:#A80036;stroke-width:1.5;" width="561" x="1804" y="10"/><rect fill="#FEFECE" height="77.9531" rx="5" ry="5" style="stroke:#FEFECE;stroke-width:1.5;" width="546" x="1811.5" y="106"/><text fill="#000000" font-family="sans-serif" font-size="14" lengthAdjust="spacing" textLength="77" x="1816.5" y="121.5352">description</text><text fill="#000000" font-family="sans-serif" font-size="14" lengthAdjust="spacing" textLength="449" x="1903.5" y="121.5352">This Property represents the total memory size of the printer. The</text><text fill="#000000" font-family="sans-serif" font-size="14" lengthAdjust="spacing" textLength="152" x="1903.5" y="138.0234">unit is MB(Mega Bytes)</text><line style="stroke:#A80036;stroke-width:1.0;" x1="1898.5" x2="1898.5" y1="106" y2="142.9766"/><line style="stroke:#A80036;stroke-width:1.0;" x1="1811.5" x2="2357.5" y1="142.9766" y2="142.9766"/><text fill="#000000" font-family="sans-serif" font-size="14" lengthAdjust="spacing" textLength="55" x="1816.5" y="158.5117">writable</text><text fill="#000000" font-family="sans-serif" font-size="14" lengthAdjust="spacing" textLength="48" x="1903.5" y="158.5117">☐ false</text><line style="stroke:#A80036;stroke-width:1.0;" x1="1898.5" x2="1898.5" y1="142.9766" y2="163.4648"/><line style="stroke:#A80036;stroke-width:1.0;" x1="1811.5" x2="2357.5" y1="163.4648" y2="163.4648"/><text fill="#000000" font-family="sans-serif" font-size="14" lengthAdjust="spacing" textLength="29" x="1816.5" y="179">type</text><text fill="#000000" font-family="sans-serif" font-size="14" lengthAdjust="spacing" textLength="54" x="1903.5" y="179">number</text><line style="stroke:#A80036;stroke-width:1.0;" x1="1898.5" x2="1898.5" y1="163.4648" y2="183.9531"/><rect fill="none" height="77.9531" rx="5" ry="5" style="stroke:#A80036;stroke-width:1.5;" width="546" x="1811.5" y="106"/><rect fill="#FEFECE" height="81.9531" rx="5" ry="5" style="stroke:#FEFECE;stroke-width:1.5;" width="340" x="1914.5" y="202"/><text fill="#000000" font-family="sans-serif" font-size="14" lengthAdjust="spacing" textLength="77" x="1919.5" y="217.5352">description</text><text fill="#000000" font-family="sans-serif" font-size="14" lengthAdjust="spacing" textLength="243" x="2006.5" y="217.5352">The type of 3D printing technology.</text><line style="stroke:#A80036;stroke-width:1.0;" x1="2001.5" x2="2001.5" y1="202" y2="222.4883"/><line style="stroke:#A80036;stroke-width:1.0;" x1="1914.5" x2="2254.5" y1="222.4883" y2="222.4883"/><text fill="#000000" font-family="sans-serif" font-size="14" lengthAdjust="spacing" textLength="39" x="1919.5" y="238.0234">enum</text><text fill="#000000" font-family="sans-serif" font-size="14" lengthAdjust="spacing" textLength="0" x="2018.5" y="238.0234"/><line style="stroke:#A80036;stroke-width:1.0;" x1="2001.5" x2="2001.5" y1="222.4883" y2="242.9766"/><line style="stroke:#A80036;stroke-width:1.0;" x1="1914.5" x2="2254.5" y1="242.9766" y2="242.9766"/><text fill="#000000" font-family="sans-serif" font-size="14" lengthAdjust="spacing" textLength="55" x="1919.5" y="258.5117">writable</text><text fill="#000000" font-family="sans-serif" font-size="14" lengthAdjust="spacing" textLength="48" x="2006.5" y="258.5117">☐ false</text><line style="stroke:#A80036;stroke-width:1.0;" x1="2001.5" x2="2001.5" y1="242.9766" y2="263.4648"/><line style="stroke:#A80036;stroke-width:1.0;" x1="1914.5" x2="2254.5" y1="263.4648" y2="263.4648"/><text fill="#000000" font-family="sans-serif" font-size="14" lengthAdjust="spacing" textLength="29" x="1919.5" y="279">type</text><text fill="#000000" font-family="sans-serif" font-size="14" lengthAdjust="spacing" textLength="40" x="2006.5" y="279">string</text><line style="stroke:#A80036;stroke-width:1.0;" x1="2001.5" x2="2001.5" y1="263.4648" y2="283.9531"/><rect fill="none" height="81.9531" rx="5" ry="5" style="stroke:#A80036;stroke-width:1.5;" width="340" x="1914.5" y="202"/><rect fill="#FEFECE" height="184.3945" rx="5" ry="5" style="stroke:#FEFECE;stroke-width:1.5;" width="265" x="2402" y="140"/><text fill="#000000" font-family="sans-serif" font-size="14" lengthAdjust="spacing" textLength="185" x="2407" y="155.5352">Fused Filament Fabrication</text><line style="stroke:#A80036;stroke-width:1.0;" x1="2402" x2="2667" y1="160.4883" y2="160.4883"/><text fill="#000000" font-family="sans-serif" font-size="14" lengthAdjust="spacing" textLength="187" x="2407" y="176.0234">Fused Deposition Modeling</text><line style="stroke:#A80036;stroke-width:1.0;" x1="2402" x2="2667" y1="180.9766" y2="180.9766"/><text fill="#000000" font-family="sans-serif" font-size="14" lengthAdjust="spacing" textLength="160" x="2407" y="196.5117">Digital Light Processing</text><line style="stroke:#A80036;stroke-width:1.0;" x1="2402" x2="2667" y1="201.4648" y2="201.4648"/><text fill="#000000" font-family="sans-serif" font-size="14" lengthAdjust="spacing" textLength="255" x="2407" y="217">Powder Bed &amp; inkjet head 3D Printing</text><line style="stroke:#A80036;stroke-width:1.0;" x1="2402" x2="2667" y1="221.9531" y2="221.9531"/><text fill="#000000" font-family="sans-serif" font-size="14" lengthAdjust="spacing" textLength="228" x="2407" y="237.4883">Photopolymer Jetting Technology</text><line style="stroke:#A80036;stroke-width:1.0;" x1="2402" x2="2667" y1="242.4414" y2="242.4414"/><text fill="#000000" font-family="sans-serif" font-size="14" lengthAdjust="spacing" textLength="223" x="2407" y="257.9766">Laminated Object Manufacturing</text><line style="stroke:#A80036;stroke-width:1.0;" x1="2402" x2="2667" y1="262.9297" y2="262.9297"/><text fill="#000000" font-family="sans-serif" font-size="14" lengthAdjust="spacing" textLength="198" x="2407" y="278.4648">Stereolithography Apparatus</text><line style="stroke:#A80036;stroke-width:1.0;" x1="2402" x2="2667" y1="283.418" y2="283.418"/><text fill="#000000" font-family="sans-serif" font-size="14" lengthAdjust="spacing" textLength="165" x="2407" y="298.9531">Selective Laser Sintering</text><line style="stroke:#A80036;stroke-width:1.0;" x1="2402" x2="2667" y1="303.9063" y2="303.9063"/><text fill="#000000" font-family="sans-serif" font-size="14" lengthAdjust="spacing" textLength="65" x="2407" y="319.4414">Unknown</text><rect fill="none" height="184.3945" rx="5" ry="5" style="stroke:#A80036;stroke-width:1.5;" width="265" x="2402" y="140"/><rect fill="#FEFECE" height="110.9297" rx="5" ry="5" style="stroke:#FEFECE;stroke-width:1.5;" width="553" x="1808" y="302.5"/><text fill="#000000" font-family="sans-serif" font-size="14" lengthAdjust="spacing" textLength="77" x="1813" y="318.0352">description</text><text fill="#000000" font-family="sans-serif" font-size="14" lengthAdjust="spacing" textLength="403" x="1900" y="318.0352">This Property indicates the connectivity capability of the 3D</text><text fill="#000000" font-family="sans-serif" font-size="14" lengthAdjust="spacing" textLength="422" x="1900" y="334.5234">printer. If the value is false, the printer does not have network</text><text fill="#000000" font-family="sans-serif" font-size="14" lengthAdjust="spacing" textLength="456" x="1900" y="351.0117">facility to Wide Area Network such as internet and GSM. If the value</text><text fill="#000000" font-family="sans-serif" font-size="14" lengthAdjust="spacing" textLength="297" x="1900" y="367.5">is true, the printer has network connectivity</text><line style="stroke:#A80036;stroke-width:1.0;" x1="1895" x2="1895" y1="302.5" y2="372.4531"/><line style="stroke:#A80036;stroke-width:1.0;" x1="1808" x2="2361" y1="372.4531" y2="372.4531"/><text fill="#000000" font-family="sans-serif" font-size="14" lengthAdjust="spacing" textLength="55" x="1813" y="387.9883">writable</text><text fill="#000000" font-family="sans-serif" font-size="14" lengthAdjust="spacing" textLength="48" x="1900" y="387.9883">☐ false</text><line style="stroke:#A80036;stroke-width:1.0;" x1="1895" x2="1895" y1="372.4531" y2="392.9414"/><line style="stroke:#A80036;stroke-width:1.0;" x1="1808" x2="2361" y1="392.9414" y2="392.9414"/><text fill="#000000" font-family="sans-serif" font-size="14" lengthAdjust="spacing" textLength="29" x="1813" y="408.4766">type</text><text fill="#000000" font-family="sans-serif" font-size="14" lengthAdjust="spacing" textLength="56" x="1900" y="408.4766">boolean</text><line style="stroke:#A80036;stroke-width:1.0;" x1="1895" x2="1895" y1="392.9414" y2="413.4297"/><rect fill="none" height="110.9297" rx="5" ry="5" style="stroke:#A80036;stroke-width:1.5;" width="553" x="1808" y="302.5"/><rect fill="#FEFECE" height="77.9531" rx="5" ry="5" style="stroke:#FEFECE;stroke-width:1.5;" width="561" x="1804" y="432"/><text fill="#000000" font-family="sans-serif" font-size="14" lengthAdjust="spacing" textLength="77" x="1809" y="447.5352">description</text><text fill="#000000" font-family="sans-serif" font-size="14" lengthAdjust="spacing" textLength="464" x="1896" y="447.5352">This Property represents the maximum size of printing object in the</text><text fill="#000000" font-family="sans-serif" font-size="14" lengthAdjust="spacing" textLength="242" x="1896" y="464.0234">direction of X-axis. The unit is mm.</text><line style="stroke:#A80036;stroke-width:1.0;" x1="1891" x2="1891" y1="432" y2="468.9766"/><line style="stroke:#A80036;stroke-width:1.0;" x1="1804" x2="2365" y1="468.9766" y2="468.9766"/><text fill="#000000" font-family="sans-serif" font-size="14" lengthAdjust="spacing" textLength="55" x="1809" y="484.5117">writable</text><text fill="#000000" font-family="sans-serif" font-size="14" lengthAdjust="spacing" textLength="48" x="1896" y="484.5117">☐ false</text><line style="stroke:#A80036;stroke-width:1.0;" x1="1891" x2="1891" y1="468.9766" y2="489.4648"/><line style="stroke:#A80036;stroke-width:1.0;" x1="1804" x2="2365" y1="489.4648" y2="489.4648"/><text fill="#000000" font-family="sans-serif" font-size="14" lengthAdjust="spacing" textLength="29" x="1809" y="505">type</text><text fill="#000000" font-family="sans-serif" font-size="14" lengthAdjust="spacing" textLength="54" x="1896" y="505">number</text><line style="stroke:#A80036;stroke-width:1.0;" x1="1891" x2="1891" y1="489.4648" y2="509.9531"/><rect fill="none" height="77.9531" rx="5" ry="5" style="stroke:#A80036;stroke-width:1.5;" width="561" x="1804" y="432"/><rect fill="#FEFECE" height="77.9531" rx="5" ry="5" style="stroke:#FEFECE;stroke-width:1.5;" width="561" x="1804" y="528"/><text fill="#000000" font-family="sans-serif" font-size="14" lengthAdjust="spacing" textLength="77" x="1809" y="543.5352">description</text><text fill="#000000" font-family="sans-serif" font-size="14" lengthAdjust="spacing" textLength="464" x="1896" y="543.5352">This Property represents the maximum size of printing object in the</text><text fill="#000000" font-family="sans-serif" font-size="14" lengthAdjust="spacing" textLength="241" x="1896" y="560.0234">direction of Z-axis. The unit is mm.</text><line style="stroke:#A80036;stroke-width:1.0;" x1="1891" x2="1891" y1="528" y2="564.9766"/><line style="stroke:#A80036;stroke-width:1.0;" x1="1804" x2="2365" y1="564.9766" y2="564.9766"/><text fill="#000000" font-family="sans-serif" font-size="14" lengthAdjust="spacing" textLength="55" x="1809" y="580.5117">writable</text><text fill="#000000" font-family="sans-serif" font-size="14" lengthAdjust="spacing" textLength="48" x="1896" y="580.5117">☐ false</text><line style="stroke:#A80036;stroke-width:1.0;" x1="1891" x2="1891" y1="564.9766" y2="585.4648"/><line style="stroke:#A80036;stroke-width:1.0;" x1="1804" x2="2365" y1="585.4648" y2="585.4648"/><text fill="#000000" font-family="sans-serif" font-size="14" lengthAdjust="spacing" textLength="29" x="1809" y="601">type</text><text fill="#000000" font-family="sans-serif" font-size="14" lengthAdjust="spacing" textLength="54" x="1896" y="601">number</text><line style="stroke:#A80036;stroke-width:1.0;" x1="1891" x2="1891" y1="585.4648" y2="605.9531"/><rect fill="none" height="77.9531" rx="5" ry="5" style="stroke:#A80036;stroke-width:1.5;" width="561" x="1804" y="528"/><rect fill="#FEFECE" height="122.9297" rx="5" ry="5" style="stroke:#FEFECE;stroke-width:1.5;" width="359" x="1408" y="380.5"/><text fill="#000000" font-family="sans-serif" font-size="14" lengthAdjust="spacing" textLength="330" x="1413" y="396.0352">#/sdfObject/printer.3d/sdfProperty/3dprinttype</text><line style="stroke:#A80036;stroke-width:1.0;" x1="1408" x2="1767" y1="400.9883" y2="400.9883"/><text fill="#000000" font-family="sans-serif" font-size="14" lengthAdjust="spacing" textLength="319" x="1413" y="416.5234">#/sdfObject/printer.3d/sdfProperty/printsizex</text><line style="stroke:#A80036;stroke-width:1.0;" x1="1408" x2="1767" y1="421.4766" y2="421.4766"/><text fill="#000000" font-family="sans-serif" font-size="14" lengthAdjust="spacing" textLength="317" x="1413" y="437.0117">#/sdfObject/printer.3d/sdfProperty/printsizey</text><line style="stroke:#A80036;stroke-width:1.0;" x1="1408" x2="1767" y1="441.9648" y2="441.9648"/><text fill="#000000" font-family="sans-serif" font-size="14" lengthAdjust="spacing" textLength="318" x="1413" y="457.5">#/sdfObject/printer.3d/sdfProperty/printsizez</text><line style="stroke:#A80036;stroke-width:1.0;" x1="1408" x2="1767" y1="462.4531" y2="462.4531"/><text fill="#000000" font-family="sans-serif" font-size="14" lengthAdjust="spacing" textLength="349" x="1413" y="477.9883">#/sdfObject/printer.3d/sdfProperty/wanconnected</text><line style="stroke:#A80036;stroke-width:1.0;" x1="1408" x2="1767" y1="482.9414" y2="482.9414"/><text fill="#000000" font-family="sans-serif" font-size="14" lengthAdjust="spacing" textLength="333" x="1413" y="498.4766">#/sdfObject/printer.3d/sdfProperty/memorysize</text><rect fill="none" height="122.9297" rx="5" ry="5" style="stroke:#A80036;stroke-width:1.5;" width="359" x="1408" y="380.5"/><path d="M95,302 L108,302 C117.4068,302 126.9554,301.9088 136.5926,301.7376 " fill="none" style="stroke:#A80036;stroke-width:1.0;stroke-dasharray:3.0,3.0;"/><path d="M136.6543,304.8363 L138.9166,301.6914 L136.5309,298.6389 L144.3394,301.5834 L136.6543,304.8363 " fill="#A80036" style="stroke:#A80036;stroke-width:1.0;"/><ellipse cx="95" cy="302" fill="#A80036" rx="3" ry="3" style="stroke:#A80036;stroke-width:1.0;stroke-dasharray:3.0,3.0;"/><path d="M1642,249 L1655,249 C1749.5999,249 1720.203,140.8999 1804,97 C1807.7544,95.0331 1811.5724,93.1442 1815.4452,91.3302 " fill="none" style="stroke:#A80036;stroke-width:1.0;stroke-dasharray:3.0,3.0;"/><path d="M1816.7192,94.1417 L1817.5538,90.3747 L1814.1713,88.5187 L1822.474,88.1453 L1816.7192,94.1417 " fill="#A80036" style="stroke:#A80036;stroke-width:1.0;"/><ellipse cx="1642" cy="249" fill="#A80036" rx="3" ry="3" style="stroke:#A80036;stroke-width:1.0;stroke-dasharray:3.0,3.0;"/><path d="M1642,270 L1655,270 C1729.5422,270 1733.3215,216.6875 1804,193 C1811.1023,190.6197 1818.3473,188.3529 1825.6932,186.1945 " fill="none" style="stroke:#A80036;stroke-width:1.0;stroke-dasharray:3.0,3.0;"/><path d="M1826.5422,189.1457 L1827.9066,185.5578 L1824.8442,183.2434 L1833.0711,184.0721 L1826.5422,189.1457 " fill="#A80036" style="stroke:#A80036;stroke-width:1.0;"/><ellipse cx="1642" cy="270" fill="#A80036" rx="3" ry="3" style="stroke:#A80036;stroke-width:1.0;stroke-dasharray:3.0,3.0;"/><path d="M2243,232 L2256,232 C2301.1682,232 2350.4645,232 2394.8342,232 " fill="none" style="stroke:#A80036;stroke-width:1.0;stroke-dasharray:3.0,3.0;"/><path d="M2394.8342,235.0597 L2397.129,232 L2394.8342,228.9403 L2402.4836,232 L2394.8342,235.0597 " fill="#A80036" style="stroke:#A80036;stroke-width:1.0;"/><ellipse cx="2243" cy="232" fill="#A80036" rx="3" ry="3" style="stroke:#A80036;stroke-width:1.0;stroke-dasharray:3.0,3.0;"/><path d="M1642,290 L1655,290 C1738.1215,290 1829.7664,281.1734 1906.937,271.1704 " fill="none" style="stroke:#A80036;stroke-width:1.0;stroke-dasharray:3.0,3.0;"/><path d="M1907.3508,274.3299 L1909.3066,270.86 L1906.5232,268.0109 L1914.8358,270.1359 L1907.3508,274.3299 " fill="#A80036" style="stroke:#A80036;stroke-width:1.0;"/><ellipse cx="1642" cy="290" fill="#A80036" rx="3" ry="3" style="stroke:#A80036;stroke-width:1.0;stroke-dasharray:3.0,3.0;"/><path d="M1642,311 L1655,311 C1702.3031,311 1752.3664,313.8585 1800.9517,318.1657 " fill="none" style="stroke:#A80036;stroke-width:1.0;stroke-dasharray:3.0,3.0;"/><path d="M1800.6818,321.1537 L1803.1927,318.3681 L1801.2215,315.1777 L1808.4217,318.8403 L1800.6818,321.1537 " fill="#A80036" style="stroke:#A80036;stroke-width:1.0;"/><ellipse cx="1642" cy="311" fill="#A80036" rx="3" ry="3" style="stroke:#A80036;stroke-width:1.0;stroke-dasharray:3.0,3.0;"/><path d="M1642,332 L1655,332 C1708.2759,332 1725.5292,339.8356 1768,372 C1790.1178,388.7505 1780.5367,408.1929 1804,423 C1806.8154,424.7767 1809.6769,426.4931 1812.5803,428.1511 " fill="none" style="stroke:#A80036;stroke-width:1.0;stroke-dasharray:3.0,3.0;"/><path d="M1811.0748,430.8904 L1814.6348,429.2802 L1814.0858,425.4118 L1819.4286,431.9148 L1811.0748,430.8904 " fill="#A80036" style="stroke:#A80036;stroke-width:1.0;"/><ellipse cx="1642" cy="332" fill="#A80036" rx="3" ry="3" style="stroke:#A80036;stroke-width:1.0;stroke-dasharray:3.0,3.0;"/><path d="M1642,352 L1655,352 C1706.0028,352 1730.7828,337.1264 1768,372 C1817.0831,417.9923 1754.7929,473.1403 1804,519 C1805.4601,520.3608 1806.9441,521.6906 1808.4507,522.9899 " fill="none" style="stroke:#A80036;stroke-width:1.0;stroke-dasharray:3.0,3.0;"/><path d="M1806.5056,525.3585 L1810.2271,524.4487 L1810.3957,520.6214 L1814.3721,527.8525 L1806.5056,525.3585 " fill="#A80036" style="stroke:#A80036;stroke-width:1.0;"/><ellipse cx="1642" cy="352" fill="#A80036" rx="3" ry="3" style="stroke:#A80036;stroke-width:1.0;stroke-dasharray:3.0,3.0;"/><path d="M1359,347 L1372,347 C1420.4323,347 1473.6704,335.7 1515.053,324.3014 " fill="none" style="stroke:#A80036;stroke-width:1.0;stroke-dasharray:3.0,3.0;"/><path d="M1515.8737,327.2303 L1517.2497,323.6858 L1514.2323,321.3725 L1522.3752,322.2496 L1515.8737,327.2303 " fill="#A80036" style="stroke:#A80036;stroke-width:1.0;"/><ellipse cx="1359" cy="347" fill="#A80036" rx="3" ry="3" style="stroke:#A80036;stroke-width:1.0;stroke-dasharray:3.0,3.0;"/><path d="M1359,395 L1372,395 C1381.5147,395 1391.2126,395.4447 1400.9683,396.2477 " fill="none" style="stroke:#A80036;stroke-width:1.0;stroke-dasharray:3.0,3.0;"/><path d="M1400.6953,399.2354 L1403.2091,396.4524 L1401.2412,393.2599 L1408.4376,396.9301 L1400.6953,399.2354 " fill="#A80036" style="stroke:#A80036;stroke-width:1.0;"/><ellipse cx="1359" cy="395" fill="#A80036" rx="3" ry="3" style="stroke:#A80036;stroke-width:1.0;stroke-dasharray:3.0,3.0;"/><path d="M490.5,347 L503.5,347 C595.8947,347 696.583,347 787.6982,347 " fill="none" style="stroke:#A80036;stroke-width:1.0;stroke-dasharray:3.0,3.0;"/><path d="M787.6982,350.0645 L789.9966,347 L787.6982,343.9355 L795.3595,347 L787.6982,350.0645 " fill="#A80036" style="stroke:#A80036;stroke-width:1.0;"/><ellipse cx="490.5" cy="347" fill="#A80036" rx="3" ry="3" style="stroke:#A80036;stroke-width:1.0;stroke-dasharray:3.0,3.0;"/><path d="M95,323 L108,323 C124.1536,323 127.927,326.388 144,328 C230.6096,336.6863 331.4125,342.0211 393.0772,344.7462 " fill="none" style="stroke:#A80036;stroke-width:1.0;stroke-dasharray:3.0,3.0;"/><path d="M392.9431,347.8235 L395.3852,344.8468 L393.2114,341.6689 L400.7704,345.0816 L392.9431,347.8235 " fill="#A80036" style="stroke:#A80036;stroke-width:1.0;"/><ellipse cx="95" cy="323" fill="#A80036" rx="3" ry="3" style="stroke:#A80036;stroke-width:1.0;stroke-dasharray:3.0,3.0;"/><!--MD5=[b70663feae9b94ce36e69edd15920e8a]
@startjson
{
  "info": {
    "copyright": "Copyright 2018-2019 Open Connectivity Foundation, Inc. All rights reserved.",
    "license": "https://github.com/one-data-model/oneDM/blob/master/LICENSE",
    "title": "3D Printer",
    "version": "2019-02-22"
  },
  "sdfObject": {
    "printer.3d": {
      "description": "This Resource describes the attributes associated with 3D Printer.\\nThe type of 3D printing technology is specified by an enumerated\\nstring value. The maximum sizes in mm are included for the x, y, and\\nz dimensions. A designation of whether the device is capable of WAN\\nconnectivity is represented in a boolean. The memory capacity is\\ncaptured in MB.",
      "sdfProperty": {
        "printsizey": {
          "description": "This Property represents the maximum size of printing object in the\\ndirection of Y-axis. The unit is mm.",
          "writable": false,
          "type": "number"
        },
        "memorysize": {
          "description": "This Property represents the total memory size of the printer. The\\nunit is MB(Mega Bytes)",
          "writable": false,
          "type": "number"
        },
        "3dprinttype": {
          "description": "The type of 3D printing technology.",
          "enum": [
            "Fused Filament Fabrication",
            "Fused Deposition Modeling",
            "Digital Light Processing",
            "Powder Bed & inkjet head 3D Printing",
            "Photopolymer Jetting Technology",
            "Laminated Object Manufacturing",
            "Stereolithography Apparatus",
            "Selective Laser Sintering",
            "Unknown"
          ],
          "writable": false,
          "type": "string"
        },
        "wanconnected": {
          "description": "This Property indicates the connectivity capability of the 3D\\nprinter. If the value is false, the printer does not have network\\nfacility to Wide Area Network such as internet and GSM. If the value\\nis true, the printer has network connectivity",
          "writable": false,
          "type": "boolean"
        },
        "printsizex": {
          "description": "This Property represents the maximum size of printing object in the\\ndirection of X-axis. The unit is mm.",
          "writable": false,
          "type": "number"
        },
        "printsizez": {
          "description": "This Property represents the maximum size of printing object in the\\ndirection of Z-axis. The unit is mm.",
          "writable": false,
          "type": "number"
        }
      },
      "sdfRequired": [
        "#/sdfObject/printer.3d/sdfProperty/3dprinttype",
        "#/sdfObject/printer.3d/sdfProperty/printsizex",
        "#/sdfObject/printer.3d/sdfProperty/printsizey",
        "#/sdfObject/printer.3d/sdfProperty/printsizez",
        "#/sdfObject/printer.3d/sdfProperty/wanconnected",
        "#/sdfObject/printer.3d/sdfProperty/memorysize"
      ]
    }
  }
}
@endjson

PlantUML version 1.2021.2(Sun Mar 07 13:10:27 EET 2021)
(GPL source distribution)
Java Runtime: OpenJDK Runtime Environment
JVM: OpenJDK 64-Bit Server VM
Default Encoding: UTF-8
Language: en
Country: FI
--></g></svg>