<?xml version="1.0" encoding="UTF-8" standalone="no"?><svg xmlns="http://www.w3.org/2000/svg" xmlns:xlink="http://www.w3.org/1999/xlink" contentScriptType="application/ecmascript" contentStyleType="text/css" height="281px" preserveAspectRatio="none" style="width:2256px;height:281px;" version="1.1" viewBox="0 0 2256 281" width="2256px" zoomAndPan="magnify"><defs/><g><rect fill="#FEFECE" height="40.9766" rx="5" ry="5" style="stroke:#FEFECE;stroke-width:1.5;" width="97" x="10" y="85"/><text fill="#000000" font-family="sans-serif" font-size="14" lengthAdjust="spacing" textLength="27" x="15" y="100.5352">info</text><text fill="#000000" font-family="sans-serif" font-size="14" lengthAdjust="spacing" textLength="0" x="102" y="100.5352"/><line style="stroke:#A80036;stroke-width:1.0;" x1="85" x2="85" y1="85" y2="105.4883"/><line style="stroke:#A80036;stroke-width:1.0;" x1="10" x2="107" y1="105.4883" y2="105.4883"/><text fill="#000000" font-family="sans-serif" font-size="14" lengthAdjust="spacing" textLength="65" x="15" y="121.0234">sdfObject</text><text fill="#000000" font-family="sans-serif" font-size="14" lengthAdjust="spacing" textLength="0" x="102" y="121.0234"/><line style="stroke:#A80036;stroke-width:1.0;" x1="85" x2="85" y1="105.4883" y2="125.9766"/><rect fill="none" height="40.9766" rx="5" ry="5" style="stroke:#A80036;stroke-width:1.5;" width="97" x="10" y="85"/><rect fill="#FEFECE" height="81.9531" rx="5" ry="5" style="stroke:#FEFECE;stroke-width:1.5;" width="567" x="144" y="29.5"/><text fill="#000000" font-family="sans-serif" font-size="14" lengthAdjust="spacing" textLength="65" x="149" y="45.0352">copyright</text><text fill="#000000" font-family="sans-serif" font-size="14" lengthAdjust="spacing" textLength="482" x="224" y="45.0352">copyright 2019 Open Connectivity Foundation, Inc. All rights reserved.</text><line style="stroke:#A80036;stroke-width:1.0;" x1="219" x2="219" y1="29.5" y2="49.9883"/><line style="stroke:#A80036;stroke-width:1.0;" x1="144" x2="711" y1="49.9883" y2="49.9883"/><text fill="#000000" font-family="sans-serif" font-size="14" lengthAdjust="spacing" textLength="47" x="149" y="65.5234">license</text><text fill="#000000" font-family="sans-serif" font-size="14" lengthAdjust="spacing" textLength="462" x="224" y="65.5234">https://github.com/one-data-model/oneDM/blob/master/LICENSE</text><line style="stroke:#A80036;stroke-width:1.0;" x1="219" x2="219" y1="49.9883" y2="70.4766"/><line style="stroke:#A80036;stroke-width:1.0;" x1="144" x2="711" y1="70.4766" y2="70.4766"/><text fill="#000000" font-family="sans-serif" font-size="14" lengthAdjust="spacing" textLength="26" x="149" y="86.0117">title</text><text fill="#000000" font-family="sans-serif" font-size="14" lengthAdjust="spacing" textLength="98" x="224" y="86.0117">Deodorization</text><line style="stroke:#A80036;stroke-width:1.0;" x1="219" x2="219" y1="70.4766" y2="90.9648"/><line style="stroke:#A80036;stroke-width:1.0;" x1="144" x2="711" y1="90.9648" y2="90.9648"/><text fill="#000000" font-family="sans-serif" font-size="14" lengthAdjust="spacing" textLength="50" x="149" y="106.5">version</text><text fill="#000000" font-family="sans-serif" font-size="14" lengthAdjust="spacing" textLength="88" x="224" y="106.5">2019-08-20</text><line style="stroke:#A80036;stroke-width:1.0;" x1="219" x2="219" y1="90.9648" y2="111.4531"/><rect fill="none" height="81.9531" rx="5" ry="5" style="stroke:#A80036;stroke-width:1.5;" width="567" x="144" y="29.5"/><rect fill="#FEFECE" height="20.4883" rx="5" ry="5" style="stroke:#FEFECE;stroke-width:1.5;" width="129" x="363" y="129.5"/><text fill="#000000" font-family="sans-serif" font-size="14" lengthAdjust="spacing" textLength="97" x="368" y="145.0352">deodorization</text><text fill="#000000" font-family="sans-serif" font-size="14" lengthAdjust="spacing" textLength="0" x="487" y="145.0352"/><line style="stroke:#A80036;stroke-width:1.0;" x1="470" x2="470" y1="129.5" y2="149.9883"/><rect fill="none" height="20.4883" rx="5" ry="5" style="stroke:#A80036;stroke-width:1.5;" width="129" x="363" y="129.5"/><rect fill="#FEFECE" height="259.3242" rx="5" ry="5" style="stroke:#FEFECE;stroke-width:1.5;" width="592" x="748" y="10"/><text fill="#000000" font-family="sans-serif" font-size="14" lengthAdjust="spacing" textLength="77" x="753" y="25.5352">description</text><text fill="#000000" font-family="sans-serif" font-size="14" lengthAdjust="spacing" textLength="436" x="846" y="25.5352">This Resource describes a deodorization function, which can be</text><text fill="#000000" font-family="sans-serif" font-size="14" lengthAdjust="spacing" textLength="469" x="846" y="42.0234">supported by controlling on air filter. The Property "mode" is a mode</text><text fill="#000000" font-family="sans-serif" font-size="14" lengthAdjust="spacing" textLength="489" x="846" y="58.5117">of the deodorization function. The supported modes are defined by the</text><text fill="#000000" font-family="sans-serif" font-size="14" lengthAdjust="spacing" textLength="460" x="846" y="75">enumeration ["off", "on", "auto"]. "off" means that the deodorization</text><text fill="#000000" font-family="sans-serif" font-size="14" lengthAdjust="spacing" textLength="462" x="846" y="91.4883">function is not enabled. "on" means that the deodorization function</text><text fill="#000000" font-family="sans-serif" font-size="14" lengthAdjust="spacing" textLength="386" x="846" y="107.9766">is active. "auto" means that the deodorization function is</text><text fill="#000000" font-family="sans-serif" font-size="14" lengthAdjust="spacing" textLength="451" x="846" y="124.4648">automatically controlled depending on sensed air condition in the</text><text fill="#000000" font-family="sans-serif" font-size="14" lengthAdjust="spacing" textLength="431" x="846" y="140.9531">device inside. The Property "currentstate" is the current state of</text><text fill="#000000" font-family="sans-serif" font-size="14" lengthAdjust="spacing" textLength="466" x="846" y="157.4414">the deodorization function. In the case of "auto" mode, if the sensed</text><text fill="#000000" font-family="sans-serif" font-size="14" lengthAdjust="spacing" textLength="429" x="846" y="173.9297">air condition is determined to be bad, the function will be "on".</text><text fill="#000000" font-family="sans-serif" font-size="14" lengthAdjust="spacing" textLength="423" x="846" y="190.418">Then, "mode" value is "auto" and "currentstate" value is "on". If</text><text fill="#000000" font-family="sans-serif" font-size="14" lengthAdjust="spacing" textLength="417" x="846" y="206.9063">not, the function is remaining "off" state. Then, "currentstate"</text><text fill="#000000" font-family="sans-serif" font-size="14" lengthAdjust="spacing" textLength="88" x="846" y="223.3945">value is "off".</text><line style="stroke:#A80036;stroke-width:1.0;" x1="841" x2="841" y1="10" y2="228.3477"/><line style="stroke:#A80036;stroke-width:1.0;" x1="748" x2="1340" y1="228.3477" y2="228.3477"/><text fill="#000000" font-family="sans-serif" font-size="14" lengthAdjust="spacing" textLength="79" x="753" y="243.8828">sdfProperty</text><text fill="#000000" font-family="sans-serif" font-size="14" lengthAdjust="spacing" textLength="0" x="858" y="243.8828"/><line style="stroke:#A80036;stroke-width:1.0;" x1="841" x2="841" y1="228.3477" y2="248.8359"/><line style="stroke:#A80036;stroke-width:1.0;" x1="748" x2="1340" y1="248.8359" y2="248.8359"/><text fill="#000000" font-family="sans-serif" font-size="14" lengthAdjust="spacing" textLength="83" x="753" y="264.3711">sdfRequired</text><text fill="#000000" font-family="sans-serif" font-size="14" lengthAdjust="spacing" textLength="0" x="858" y="264.3711"/><line style="stroke:#A80036;stroke-width:1.0;" x1="841" x2="841" y1="248.8359" y2="269.3242"/><rect fill="none" height="259.3242" rx="5" ry="5" style="stroke:#A80036;stroke-width:1.5;" width="592" x="748" y="10"/><rect fill="#FEFECE" height="40.9766" rx="5" ry="5" style="stroke:#FEFECE;stroke-width:1.5;" width="115" x="1483" y="118"/><text fill="#000000" font-family="sans-serif" font-size="14" lengthAdjust="spacing" textLength="39" x="1488" y="133.5352">mode</text><text fill="#000000" font-family="sans-serif" font-size="14" lengthAdjust="spacing" textLength="0" x="1593" y="133.5352"/><line style="stroke:#A80036;stroke-width:1.0;" x1="1576" x2="1576" y1="118" y2="138.4883"/><line style="stroke:#A80036;stroke-width:1.0;" x1="1483" x2="1598" y1="138.4883" y2="138.4883"/><text fill="#000000" font-family="sans-serif" font-size="14" lengthAdjust="spacing" textLength="83" x="1488" y="154.0234">currentstate</text><text fill="#000000" font-family="sans-serif" font-size="14" lengthAdjust="spacing" textLength="0" x="1593" y="154.0234"/><line style="stroke:#A80036;stroke-width:1.0;" x1="1576" x2="1576" y1="138.4883" y2="158.9766"/><rect fill="none" height="40.9766" rx="5" ry="5" style="stroke:#A80036;stroke-width:1.5;" width="115" x="1483" y="118"/><rect fill="#FEFECE" height="61.4648" rx="5" ry="5" style="stroke:#FEFECE;stroke-width:1.5;" width="384" x="1761.5" y="63"/><text fill="#000000" font-family="sans-serif" font-size="14" lengthAdjust="spacing" textLength="77" x="1766.5" y="78.5352">description</text><text fill="#000000" font-family="sans-serif" font-size="14" lengthAdjust="spacing" textLength="287" x="1853.5" y="78.5352">The modes of the Deodorization function.</text><line style="stroke:#A80036;stroke-width:1.0;" x1="1848.5" x2="1848.5" y1="63" y2="83.4883"/><line style="stroke:#A80036;stroke-width:1.0;" x1="1761.5" x2="2145.5" y1="83.4883" y2="83.4883"/><text fill="#000000" font-family="sans-serif" font-size="14" lengthAdjust="spacing" textLength="39" x="1766.5" y="99.0234">enum</text><text fill="#000000" font-family="sans-serif" font-size="14" lengthAdjust="spacing" textLength="0" x="1865.5" y="99.0234"/><line style="stroke:#A80036;stroke-width:1.0;" x1="1848.5" x2="1848.5" y1="83.4883" y2="103.9766"/><line style="stroke:#A80036;stroke-width:1.0;" x1="1761.5" x2="2145.5" y1="103.9766" y2="103.9766"/><text fill="#000000" font-family="sans-serif" font-size="14" lengthAdjust="spacing" textLength="29" x="1766.5" y="119.5117">type</text><text fill="#000000" font-family="sans-serif" font-size="14" lengthAdjust="spacing" textLength="40" x="1853.5" y="119.5117">string</text><line style="stroke:#A80036;stroke-width:1.0;" x1="1848.5" x2="1848.5" y1="103.9766" y2="124.4648"/><rect fill="none" height="61.4648" rx="5" ry="5" style="stroke:#A80036;stroke-width:1.5;" width="384" x="1761.5" y="63"/><rect fill="#FEFECE" height="61.4648" rx="5" ry="5" style="stroke:#FEFECE;stroke-width:1.5;" width="41" x="2203" y="62"/><text fill="#000000" font-family="sans-serif" font-size="14" lengthAdjust="spacing" textLength="19" x="2208" y="77.5352">off</text><line style="stroke:#A80036;stroke-width:1.0;" x1="2203" x2="2244" y1="82.4883" y2="82.4883"/><text fill="#000000" font-family="sans-serif" font-size="14" lengthAdjust="spacing" textLength="18" x="2208" y="98.0234">on</text><line style="stroke:#A80036;stroke-width:1.0;" x1="2203" x2="2244" y1="102.9766" y2="102.9766"/><text fill="#000000" font-family="sans-serif" font-size="14" lengthAdjust="spacing" textLength="31" x="2208" y="118.5117">auto</text><rect fill="none" height="61.4648" rx="5" ry="5" style="stroke:#A80036;stroke-width:1.5;" width="41" x="2203" y="62"/><rect fill="#FEFECE" height="81.9531" rx="5" ry="5" style="stroke:#FEFECE;stroke-width:1.5;" width="425" x="1741" y="142.5"/><text fill="#000000" font-family="sans-serif" font-size="14" lengthAdjust="spacing" textLength="77" x="1746" y="158.0352">description</text><text fill="#000000" font-family="sans-serif" font-size="14" lengthAdjust="spacing" textLength="328" x="1833" y="158.0352">The current state of the Deodorization function.</text><line style="stroke:#A80036;stroke-width:1.0;" x1="1828" x2="1828" y1="142.5" y2="162.9883"/><line style="stroke:#A80036;stroke-width:1.0;" x1="1741" x2="2166" y1="162.9883" y2="162.9883"/><text fill="#000000" font-family="sans-serif" font-size="14" lengthAdjust="spacing" textLength="39" x="1746" y="178.5234">enum</text><text fill="#000000" font-family="sans-serif" font-size="14" lengthAdjust="spacing" textLength="0" x="1845" y="178.5234"/><line style="stroke:#A80036;stroke-width:1.0;" x1="1828" x2="1828" y1="162.9883" y2="183.4766"/><line style="stroke:#A80036;stroke-width:1.0;" x1="1741" x2="2166" y1="183.4766" y2="183.4766"/><text fill="#000000" font-family="sans-serif" font-size="14" lengthAdjust="spacing" textLength="55" x="1746" y="199.0117">writable</text><text fill="#000000" font-family="sans-serif" font-size="14" lengthAdjust="spacing" textLength="48" x="1833" y="199.0117">☐ false</text><line style="stroke:#A80036;stroke-width:1.0;" x1="1828" x2="1828" y1="183.4766" y2="203.9648"/><line style="stroke:#A80036;stroke-width:1.0;" x1="1741" x2="2166" y1="203.9648" y2="203.9648"/><text fill="#000000" font-family="sans-serif" font-size="14" lengthAdjust="spacing" textLength="29" x="1746" y="219.5">type</text><text fill="#000000" font-family="sans-serif" font-size="14" lengthAdjust="spacing" textLength="40" x="1833" y="219.5">string</text><line style="stroke:#A80036;stroke-width:1.0;" x1="1828" x2="1828" y1="203.9648" y2="224.4531"/><rect fill="none" height="81.9531" rx="5" ry="5" style="stroke:#A80036;stroke-width:1.5;" width="425" x="1741" y="142.5"/><rect fill="#FEFECE" height="40.9766" rx="5" ry="5" style="stroke:#FEFECE;stroke-width:1.5;" width="29" x="2209" y="152"/><text fill="#000000" font-family="sans-serif" font-size="14" lengthAdjust="spacing" textLength="19" x="2214" y="167.5352">off</text><line style="stroke:#A80036;stroke-width:1.0;" x1="2209" x2="2238" y1="172.4883" y2="172.4883"/><text fill="#000000" font-family="sans-serif" font-size="14" lengthAdjust="spacing" textLength="18" x="2214" y="188.0234">on</text><rect fill="none" height="40.9766" rx="5" ry="5" style="stroke:#A80036;stroke-width:1.5;" width="29" x="2209" y="152"/><rect fill="#FEFECE" height="20.4883" rx="5" ry="5" style="stroke:#FEFECE;stroke-width:1.5;" width="327" x="1377" y="215.5"/><text fill="#000000" font-family="sans-serif" font-size="14" lengthAdjust="spacing" textLength="317" x="1382" y="231.0352">#/sdfObject/deodorization/sdfProperty/mode</text><rect fill="none" height="20.4883" rx="5" ry="5" style="stroke:#A80036;stroke-width:1.5;" width="327" x="1377" y="215.5"/><path d="M95,94.5 L108,94.5 C117.422,94.5 126.9962,94.3946 136.6609,94.1978 " fill="none" style="stroke:#A80036;stroke-width:1.0;stroke-dasharray:3.0,3.0;"/><path d="M136.7318,97.3054 L138.9917,94.1446 L136.59,91.0901 L144.4301,94.0206 L136.7318,97.3054 " fill="#A80036" style="stroke:#A80036;stroke-width:1.0;"/><ellipse cx="95" cy="94.5" fill="#A80036" rx="3" ry="3" style="stroke:#A80036;stroke-width:1.0;stroke-dasharray:3.0,3.0;"/><path d="M2134,92.5 L2147,92.5 C2163.1426,92.5 2181.2138,92.5 2195.6834,92.5 " fill="none" style="stroke:#A80036;stroke-width:1.0;stroke-dasharray:3.0,3.0;"/><path d="M2195.6834,95.5532 L2197.9733,92.5 L2195.6834,89.4468 L2203.3164,92.5 L2195.6834,95.5532 " fill="#A80036" style="stroke:#A80036;stroke-width:1.0;"/><ellipse cx="2134" cy="92.5" fill="#A80036" rx="3" ry="3" style="stroke:#A80036;stroke-width:1.0;stroke-dasharray:3.0,3.0;"/><path d="M1587,127.5 L1600,127.5 C1650.0706,127.5 1703.9528,124.0688 1754.172,119.3864 " fill="none" style="stroke:#A80036;stroke-width:1.0;stroke-dasharray:3.0,3.0;"/><path d="M1754.4643,122.468 L1756.4832,119.1672 L1753.8797,116.3048 L1761.876,118.6557 L1754.4643,122.468 " fill="#A80036" style="stroke:#A80036;stroke-width:1.0;"/><ellipse cx="1587" cy="127.5" fill="#A80036" rx="3" ry="3" style="stroke:#A80036;stroke-width:1.0;stroke-dasharray:3.0,3.0;"/><path d="M2154,172.5 L2167,172.5 C2178.3537,172.5 2191.0023,172.5 2201.4017,172.5 " fill="none" style="stroke:#A80036;stroke-width:1.0;stroke-dasharray:3.0,3.0;"/><path d="M2201.4017,175.6161 L2203.7387,172.5 L2201.4017,169.3839 L2209.1918,172.5 L2201.4017,175.6161 " fill="#A80036" style="stroke:#A80036;stroke-width:1.0;"/><ellipse cx="2154" cy="172.5" fill="#A80036" rx="3" ry="3" style="stroke:#A80036;stroke-width:1.0;stroke-dasharray:3.0,3.0;"/><path d="M1587,148.5 L1600,148.5 C1643.3719,148.5 1689.5957,151.1488 1733.8198,154.9891 " fill="none" style="stroke:#A80036;stroke-width:1.0;stroke-dasharray:3.0,3.0;"/><path d="M1733.5486,158.0508 L1736.1161,155.1925 L1734.0911,151.9274 L1741.4741,155.6672 L1733.5486,158.0508 " fill="#A80036" style="stroke:#A80036;stroke-width:1.0;"/><ellipse cx="1587" cy="148.5" fill="#A80036" rx="3" ry="3" style="stroke:#A80036;stroke-width:1.0;stroke-dasharray:3.0,3.0;"/><path d="M1328,138.5 L1341,138.5 C1386.0212,138.5 1436.7716,138.5 1475.753,138.5 " fill="none" style="stroke:#A80036;stroke-width:1.0;stroke-dasharray:3.0,3.0;"/><path d="M1475.753,141.5537 L1478.0432,138.5 L1475.753,135.4463 L1483.3871,138.5 L1475.753,141.5537 " fill="#A80036" style="stroke:#A80036;stroke-width:1.0;"/><ellipse cx="1328" cy="138.5" fill="#A80036" rx="3" ry="3" style="stroke:#A80036;stroke-width:1.0;stroke-dasharray:3.0,3.0;"/><path d="M1328,225.5 L1341,225.5 C1350.3369,225.5 1359.9202,225.5 1369.5939,225.5 " fill="none" style="stroke:#A80036;stroke-width:1.0;stroke-dasharray:3.0,3.0;"/><path d="M1369.5939,228.6098 L1371.9262,225.5 L1369.5939,222.3902 L1377.3683,225.5 L1369.5939,228.6098 " fill="#A80036" style="stroke:#A80036;stroke-width:1.0;"/><ellipse cx="1328" cy="225.5" fill="#A80036" rx="3" ry="3" style="stroke:#A80036;stroke-width:1.0;stroke-dasharray:3.0,3.0;"/><path d="M481,139.5 L494,139.5 C573.9416,139.5 660.4251,139.5 740.6023,139.5 " fill="none" style="stroke:#A80036;stroke-width:1.0;stroke-dasharray:3.0,3.0;"/><path d="M740.6023,142.5956 L742.924,139.5 L740.6023,136.4044 L748.3413,139.5 L740.6023,142.5956 " fill="#A80036" style="stroke:#A80036;stroke-width:1.0;"/><ellipse cx="481" cy="139.5" fill="#A80036" rx="3" ry="3" style="stroke:#A80036;stroke-width:1.0;stroke-dasharray:3.0,3.0;"/><path d="M95,115.5 L108,115.5 C124.1536,115.5 127.9312,118.8468 144,120.5 C215.9596,127.9034 298.5232,133.0666 355.8246,136.1228 " fill="none" style="stroke:#A80036;stroke-width:1.0;stroke-dasharray:3.0,3.0;"/><path d="M355.665,139.1477 L358.0932,136.2425 L355.9842,133.098 L363.3867,136.5217 L355.665,139.1477 " fill="#A80036" style="stroke:#A80036;stroke-width:1.0;"/><ellipse cx="95" cy="115.5" fill="#A80036" rx="3" ry="3" style="stroke:#A80036;stroke-width:1.0;stroke-dasharray:3.0,3.0;"/><!--MD5=[6ca0d644f0cd2dc25b11ddd4bf1ffd03]
@startjson
{
  "info": {
    "copyright": "copyright 2019 Open Connectivity Foundation, Inc. All rights reserved.",
    "license": "https://github.com/one-data-model/oneDM/blob/master/LICENSE",
    "title": "Deodorization",
    "version": "2019-08-20"
  },
  "sdfObject": {
    "deodorization": {
      "description": "This Resource describes a deodorization function, which can be\\nsupported by controlling on air filter. The Property \"mode\" is a mode\\nof the deodorization function. The supported modes are defined by the\\nenumeration [\"off\", \"on\", \"auto\"]. \"off\" means that the deodorization\\nfunction is not enabled. \"on\" means that the deodorization function\\nis active. \"auto\" means that the deodorization function is\\nautomatically controlled depending on sensed air condition in the\\ndevice inside. The Property \"currentstate\" is the current state of\\nthe deodorization function. In the case of \"auto\" mode, if the sensed\\nair condition is determined to be bad, the function will be \"on\".\\nThen, \"mode\" value is \"auto\" and \"currentstate\" value is \"on\". If\\nnot, the function is remaining \"off\" state. Then, \"currentstate\"\\nvalue is \"off\".",
      "sdfProperty": {
        "mode": {
          "description": "The modes of the Deodorization function.",
          "enum": [
            "off",
            "on",
            "auto"
          ],
          "type": "string"
        },
        "currentstate": {
          "description": "The current state of the Deodorization function.",
          "enum": [
            "off",
            "on"
          ],
          "writable": false,
          "type": "string"
        }
      },
      "sdfRequired": [
        "#/sdfObject/deodorization/sdfProperty/mode"
      ]
    }
  }
}
@endjson

PlantUML version 1.2021.2(Sun Mar 07 13:10:27 EET 2021)
(GPL source distribution)
Java Runtime: OpenJDK Runtime Environment
JVM: OpenJDK 64-Bit Server VM
Default Encoding: UTF-8
Language: en
Country: FI
--></g></svg>