<?xml version="1.0" encoding="UTF-8" standalone="no"?><svg xmlns="http://www.w3.org/2000/svg" xmlns:xlink="http://www.w3.org/1999/xlink" contentScriptType="application/ecmascript" contentStyleType="text/css" height="308px" preserveAspectRatio="none" style="width:4340px;height:308px;" version="1.1" viewBox="0 0 4340 308" width="4340px" zoomAndPan="magnify"><defs/><g><rect fill="#FEFECE" height="40.9766" rx="5" ry="5" style="stroke:#FEFECE;stroke-width:1.5;" width="97" x="10" y="143"/><text fill="#000000" font-family="sans-serif" font-size="14" lengthAdjust="spacing" textLength="27" x="15" y="158.5352">info</text><text fill="#000000" font-family="sans-serif" font-size="14" lengthAdjust="spacing" textLength="0" x="102" y="158.5352"/><line style="stroke:#A80036;stroke-width:1.0;" x1="85" x2="85" y1="143" y2="163.4883"/><line style="stroke:#A80036;stroke-width:1.0;" x1="10" x2="107" y1="163.4883" y2="163.4883"/><text fill="#000000" font-family="sans-serif" font-size="14" lengthAdjust="spacing" textLength="65" x="15" y="179.0234">sdfObject</text><text fill="#000000" font-family="sans-serif" font-size="14" lengthAdjust="spacing" textLength="0" x="102" y="179.0234"/><line style="stroke:#A80036;stroke-width:1.0;" x1="85" x2="85" y1="163.4883" y2="183.9766"/><rect fill="none" height="40.9766" rx="5" ry="5" style="stroke:#A80036;stroke-width:1.5;" width="97" x="10" y="143"/><rect fill="#FEFECE" height="81.9531" rx="5" ry="5" style="stroke:#FEFECE;stroke-width:1.5;" width="655" x="144" y="87.5"/><text fill="#000000" font-family="sans-serif" font-size="14" lengthAdjust="spacing" textLength="65" x="149" y="103.0352">copyright</text><text fill="#000000" font-family="sans-serif" font-size="14" lengthAdjust="spacing" textLength="570" x="224" y="103.0352">copyright 2016-2017, 2019 Open Connectivity Foundation, Inc. All rights reserved.</text><line style="stroke:#A80036;stroke-width:1.0;" x1="219" x2="219" y1="87.5" y2="107.9883"/><line style="stroke:#A80036;stroke-width:1.0;" x1="144" x2="799" y1="107.9883" y2="107.9883"/><text fill="#000000" font-family="sans-serif" font-size="14" lengthAdjust="spacing" textLength="47" x="149" y="123.5234">license</text><text fill="#000000" font-family="sans-serif" font-size="14" lengthAdjust="spacing" textLength="462" x="224" y="123.5234">https://github.com/one-data-model/oneDM/blob/master/LICENSE</text><line style="stroke:#A80036;stroke-width:1.0;" x1="219" x2="219" y1="107.9883" y2="128.4766"/><line style="stroke:#A80036;stroke-width:1.0;" x1="144" x2="799" y1="128.4766" y2="128.4766"/><text fill="#000000" font-family="sans-serif" font-size="14" lengthAdjust="spacing" textLength="26" x="149" y="144.0117">title</text><text fill="#000000" font-family="sans-serif" font-size="14" lengthAdjust="spacing" textLength="34" x="224" y="144.0117">Door</text><line style="stroke:#A80036;stroke-width:1.0;" x1="219" x2="219" y1="128.4766" y2="148.9648"/><line style="stroke:#A80036;stroke-width:1.0;" x1="144" x2="799" y1="148.9648" y2="148.9648"/><text fill="#000000" font-family="sans-serif" font-size="14" lengthAdjust="spacing" textLength="50" x="149" y="164.5">version</text><text fill="#000000" font-family="sans-serif" font-size="14" lengthAdjust="spacing" textLength="88" x="224" y="164.5">2019-02-15</text><line style="stroke:#A80036;stroke-width:1.0;" x1="219" x2="219" y1="148.9648" y2="169.4531"/><rect fill="none" height="81.9531" rx="5" ry="5" style="stroke:#A80036;stroke-width:1.5;" width="655" x="144" y="87.5"/><rect fill="#FEFECE" height="20.4883" rx="5" ry="5" style="stroke:#FEFECE;stroke-width:1.5;" width="65" x="439" y="187.5"/><text fill="#000000" font-family="sans-serif" font-size="14" lengthAdjust="spacing" textLength="33" x="444" y="203.0352">door</text><text fill="#000000" font-family="sans-serif" font-size="14" lengthAdjust="spacing" textLength="0" x="499" y="203.0352"/><line style="stroke:#A80036;stroke-width:1.0;" x1="482" x2="482" y1="187.5" y2="207.9883"/><rect fill="none" height="20.4883" rx="5" ry="5" style="stroke:#A80036;stroke-width:1.5;" width="65" x="439" y="187.5"/><rect fill="#FEFECE" height="176.8828" rx="5" ry="5" style="stroke:#FEFECE;stroke-width:1.5;" width="607" x="836" y="109"/><text fill="#000000" font-family="sans-serif" font-size="14" lengthAdjust="spacing" textLength="77" x="841" y="124.5352">description</text><text fill="#000000" font-family="sans-serif" font-size="14" lengthAdjust="spacing" textLength="418" x="934" y="124.5352">This Resource describes the open state of the door. A door is</text><text fill="#000000" font-family="sans-serif" font-size="14" lengthAdjust="spacing" textLength="504" x="934" y="141.0234">modelled by means of openState (Open/Closed), openDuration (ISO 8601</text><text fill="#000000" font-family="sans-serif" font-size="14" lengthAdjust="spacing" textLength="469" x="934" y="157.5117">Time), and openAlarm (boolean). For Property "openState", the value</text><text fill="#000000" font-family="sans-serif" font-size="14" lengthAdjust="spacing" textLength="447" x="934" y="174">'Open' indicates the door is open. The value 'Closed' indicates the</text><text fill="#000000" font-family="sans-serif" font-size="14" lengthAdjust="spacing" textLength="457" x="934" y="190.4883">door is closed. The type of Property "openDuration" is an RFC Time</text><text fill="#000000" font-family="sans-serif" font-size="14" lengthAdjust="spacing" textLength="463" x="934" y="206.9766">encoded string. The Property "openAlarm" value 'true' indicates that</text><text fill="#000000" font-family="sans-serif" font-size="14" lengthAdjust="spacing" textLength="454" x="934" y="223.4648">the open alarm is active. The openAlarm value 'false' indicates that</text><text fill="#000000" font-family="sans-serif" font-size="14" lengthAdjust="spacing" textLength="379" x="934" y="239.9531">open alarm is not active. retrieves the state of the Door.</text><line style="stroke:#A80036;stroke-width:1.0;" x1="929" x2="929" y1="109" y2="244.9063"/><line style="stroke:#A80036;stroke-width:1.0;" x1="836" x2="1443" y1="244.9063" y2="244.9063"/><text fill="#000000" font-family="sans-serif" font-size="14" lengthAdjust="spacing" textLength="79" x="841" y="260.4414">sdfProperty</text><text fill="#000000" font-family="sans-serif" font-size="14" lengthAdjust="spacing" textLength="0" x="946" y="260.4414"/><line style="stroke:#A80036;stroke-width:1.0;" x1="929" x2="929" y1="244.9063" y2="265.3945"/><line style="stroke:#A80036;stroke-width:1.0;" x1="836" x2="1443" y1="265.3945" y2="265.3945"/><text fill="#000000" font-family="sans-serif" font-size="14" lengthAdjust="spacing" textLength="83" x="841" y="280.9297">sdfRequired</text><text fill="#000000" font-family="sans-serif" font-size="14" lengthAdjust="spacing" textLength="0" x="946" y="280.9297"/><line style="stroke:#A80036;stroke-width:1.0;" x1="929" x2="929" y1="265.3945" y2="285.8828"/><rect fill="none" height="176.8828" rx="5" ry="5" style="stroke:#A80036;stroke-width:1.5;" width="607" x="836" y="109"/><rect fill="#FEFECE" height="61.4648" rx="5" ry="5" style="stroke:#FEFECE;stroke-width:1.5;" width="127" x="1566.5" y="167"/><text fill="#000000" font-family="sans-serif" font-size="14" lengthAdjust="spacing" textLength="95" x="1571.5" y="182.5352">openDuration</text><text fill="#000000" font-family="sans-serif" font-size="14" lengthAdjust="spacing" textLength="0" x="1688.5" y="182.5352"/><line style="stroke:#A80036;stroke-width:1.0;" x1="1671.5" x2="1671.5" y1="167" y2="187.4883"/><line style="stroke:#A80036;stroke-width:1.0;" x1="1566.5" x2="1693.5" y1="187.4883" y2="187.4883"/><text fill="#000000" font-family="sans-serif" font-size="14" lengthAdjust="spacing" textLength="69" x="1571.5" y="203.0234">openState</text><text fill="#000000" font-family="sans-serif" font-size="14" lengthAdjust="spacing" textLength="0" x="1688.5" y="203.0234"/><line style="stroke:#A80036;stroke-width:1.0;" x1="1671.5" x2="1671.5" y1="187.4883" y2="207.9766"/><line style="stroke:#A80036;stroke-width:1.0;" x1="1566.5" x2="1693.5" y1="207.9766" y2="207.9766"/><text fill="#000000" font-family="sans-serif" font-size="14" lengthAdjust="spacing" textLength="76" x="1571.5" y="223.5117">openAlarm</text><text fill="#000000" font-family="sans-serif" font-size="14" lengthAdjust="spacing" textLength="0" x="1688.5" y="223.5117"/><line style="stroke:#A80036;stroke-width:1.0;" x1="1671.5" x2="1671.5" y1="207.9766" y2="228.4648"/><rect fill="none" height="61.4648" rx="5" ry="5" style="stroke:#A80036;stroke-width:1.5;" width="127" x="1566.5" y="167"/><rect fill="#FEFECE" height="127.418" rx="5" ry="5" style="stroke:#FEFECE;stroke-width:1.5;" width="2417" x="1817" y="10"/><text fill="#000000" font-family="sans-serif" font-size="14" lengthAdjust="spacing" textLength="77" x="1822" y="25.5352">description</text><text fill="#000000" font-family="sans-serif" font-size="14" lengthAdjust="spacing" textLength="444" x="1909" y="25.5352">A string representing duration formatted as defined in ISO 8601.</text><text fill="#000000" font-family="sans-serif" font-size="14" lengthAdjust="spacing" textLength="401" x="1909" y="42.0234">Allowable formats are: P[n]Y[n]M[n]DT[n]H[n]M[n]S, P[n]W,</text><text fill="#000000" font-family="sans-serif" font-size="14" lengthAdjust="spacing" textLength="375" x="1909" y="58.5117">P[n]Y[n]-M[n]-DT[0-23]H[0-59]:M[0-59]:S, and P[n]W,</text><text fill="#000000" font-family="sans-serif" font-size="14" lengthAdjust="spacing" textLength="444" x="1909" y="75">P[n]Y[n]M[n]DT[0-23]H[0-59]M[0-59]S. P is mandatory, all other</text><text fill="#000000" font-family="sans-serif" font-size="14" lengthAdjust="spacing" textLength="366" x="1909" y="91.4883">elements are optional, time elements must follow a T.</text><line style="stroke:#A80036;stroke-width:1.0;" x1="1904" x2="1904" y1="10" y2="96.4414"/><line style="stroke:#A80036;stroke-width:1.0;" x1="1817" x2="4234" y1="96.4414" y2="96.4414"/><text fill="#000000" font-family="sans-serif" font-size="14" lengthAdjust="spacing" textLength="29" x="1822" y="111.9766">type</text><text fill="#000000" font-family="sans-serif" font-size="14" lengthAdjust="spacing" textLength="40" x="1909" y="111.9766">string</text><line style="stroke:#A80036;stroke-width:1.0;" x1="1904" x2="1904" y1="96.4414" y2="116.9297"/><line style="stroke:#A80036;stroke-width:1.0;" x1="1817" x2="4234" y1="116.9297" y2="116.9297"/><text fill="#000000" font-family="sans-serif" font-size="14" lengthAdjust="spacing" textLength="50" x="1822" y="132.4648">pattern</text><text fill="#000000" font-family="sans-serif" font-size="14" lengthAdjust="spacing" textLength="2320" x="1909" y="132.4648">^(P(?!$)([0-9]+Y)?([0-9]+M)?([0-9]+W)?([0-9]+D)?((T(?=[0-9]+[HMS])([0-9]+H)?([0-9]+M)?([0-9]+S)?)?))$|^(P[0-9]+W)$|^(P[0-9]{4})-(1[0-2]|0[1-9])-(3[0-1]|2[0-9]|1[0-9]|0[1-9])T(2[0-3]|1[0-9]|0[1-9]):([0-5][0-9]):([0-5][0-9])$|^(P[0-9]{4})(1[0-2]|0[1-9])(3[0-1]|2[0-9]|1[0-9]|0[1-9])T(2[0-3]|1[0-9]|0[1-9])([0-5][0-9])([0-5][0-9])$</text><line style="stroke:#A80036;stroke-width:1.0;" x1="1904" x2="1904" y1="116.9297" y2="137.418"/><rect fill="none" height="127.418" rx="5" ry="5" style="stroke:#A80036;stroke-width:1.5;" width="2417" x="1817" y="10"/><rect fill="#FEFECE" height="81.9531" rx="5" ry="5" style="stroke:#FEFECE;stroke-width:1.5;" width="361" x="2845" y="155.5"/><text fill="#000000" font-family="sans-serif" font-size="14" lengthAdjust="spacing" textLength="77" x="2850" y="171.0352">description</text><text fill="#000000" font-family="sans-serif" font-size="14" lengthAdjust="spacing" textLength="264" x="2937" y="171.0352">The state of the door (open or closed).</text><line style="stroke:#A80036;stroke-width:1.0;" x1="2932" x2="2932" y1="155.5" y2="175.9883"/><line style="stroke:#A80036;stroke-width:1.0;" x1="2845" x2="3206" y1="175.9883" y2="175.9883"/><text fill="#000000" font-family="sans-serif" font-size="14" lengthAdjust="spacing" textLength="39" x="2850" y="191.5234">enum</text><text fill="#000000" font-family="sans-serif" font-size="14" lengthAdjust="spacing" textLength="0" x="2949" y="191.5234"/><line style="stroke:#A80036;stroke-width:1.0;" x1="2932" x2="2932" y1="175.9883" y2="196.4766"/><line style="stroke:#A80036;stroke-width:1.0;" x1="2845" x2="3206" y1="196.4766" y2="196.4766"/><text fill="#000000" font-family="sans-serif" font-size="14" lengthAdjust="spacing" textLength="55" x="2850" y="212.0117">writable</text><text fill="#000000" font-family="sans-serif" font-size="14" lengthAdjust="spacing" textLength="48" x="2937" y="212.0117">☐ false</text><line style="stroke:#A80036;stroke-width:1.0;" x1="2932" x2="2932" y1="196.4766" y2="216.9648"/><line style="stroke:#A80036;stroke-width:1.0;" x1="2845" x2="3206" y1="216.9648" y2="216.9648"/><text fill="#000000" font-family="sans-serif" font-size="14" lengthAdjust="spacing" textLength="29" x="2850" y="232.5">type</text><text fill="#000000" font-family="sans-serif" font-size="14" lengthAdjust="spacing" textLength="40" x="2937" y="232.5">string</text><line style="stroke:#A80036;stroke-width:1.0;" x1="2932" x2="2932" y1="216.9648" y2="237.4531"/><rect fill="none" height="81.9531" rx="5" ry="5" style="stroke:#A80036;stroke-width:1.5;" width="361" x="2845" y="155.5"/><rect fill="#FEFECE" height="40.9766" rx="5" ry="5" style="stroke:#FEFECE;stroke-width:1.5;" width="57" x="4271" y="165"/><text fill="#000000" font-family="sans-serif" font-size="14" lengthAdjust="spacing" textLength="37" x="4276" y="180.5352">Open</text><line style="stroke:#A80036;stroke-width:1.0;" x1="4271" x2="4328" y1="185.4883" y2="185.4883"/><text fill="#000000" font-family="sans-serif" font-size="14" lengthAdjust="spacing" textLength="47" x="4276" y="201.0234">Closed</text><rect fill="none" height="40.9766" rx="5" ry="5" style="stroke:#A80036;stroke-width:1.5;" width="57" x="4271" y="165"/><rect fill="#FEFECE" height="40.9766" rx="5" ry="5" style="stroke:#FEFECE;stroke-width:1.5;" width="327" x="2862" y="256"/><text fill="#000000" font-family="sans-serif" font-size="14" lengthAdjust="spacing" textLength="77" x="2867" y="271.5352">description</text><text fill="#000000" font-family="sans-serif" font-size="14" lengthAdjust="spacing" textLength="230" x="2954" y="271.5352">The state of the door open alarm.</text><line style="stroke:#A80036;stroke-width:1.0;" x1="2949" x2="2949" y1="256" y2="276.4883"/><line style="stroke:#A80036;stroke-width:1.0;" x1="2862" x2="3189" y1="276.4883" y2="276.4883"/><text fill="#000000" font-family="sans-serif" font-size="14" lengthAdjust="spacing" textLength="29" x="2867" y="292.0234">type</text><text fill="#000000" font-family="sans-serif" font-size="14" lengthAdjust="spacing" textLength="56" x="2954" y="292.0234">boolean</text><line style="stroke:#A80036;stroke-width:1.0;" x1="2949" x2="2949" y1="276.4883" y2="296.9766"/><rect fill="none" height="40.9766" rx="5" ry="5" style="stroke:#A80036;stroke-width:1.5;" width="327" x="2862" y="256"/><rect fill="#FEFECE" height="20.4883" rx="5" ry="5" style="stroke:#FEFECE;stroke-width:1.5;" width="300" x="1480" y="246.5"/><text fill="#000000" font-family="sans-serif" font-size="14" lengthAdjust="spacing" textLength="290" x="1485" y="262.0352">#/sdfObject/door/sdfProperty/openAlarm</text><rect fill="none" height="20.4883" rx="5" ry="5" style="stroke:#A80036;stroke-width:1.5;" width="300" x="1480" y="246.5"/><path d="M95,152.5 L108,152.5 C117.3442,152.5 126.8208,152.4198 136.3833,152.2688 " fill="none" style="stroke:#A80036;stroke-width:1.0;stroke-dasharray:3.0,3.0;"/><path d="M136.4378,155.3434 L138.6892,152.2279 L136.3288,149.1942 L144.0697,152.1326 L136.4378,155.3434 " fill="#A80036" style="stroke:#A80036;stroke-width:1.0;"/><ellipse cx="95" cy="152.5" fill="#A80036" rx="3" ry="3" style="stroke:#A80036;stroke-width:1.0;stroke-dasharray:3.0,3.0;"/><path d="M1682.5,176.5 L1695.5,176.5 C1751.1217,176.5 1762.013,154.8788 1817,146.5 C1836.2236,143.5708 1855.6361,140.7579 1875.1987,138.0569 " fill="none" style="stroke:#A80036;stroke-width:1.0;stroke-dasharray:3.0,3.0;"/><path d="M1875.6106,141.0588 L1877.4501,137.7479 L1874.7868,135.0549 L1882.7035,137.0271 L1875.6106,141.0588 " fill="#A80036" style="stroke:#A80036;stroke-width:1.0;"/><ellipse cx="1682.5" cy="176.5" fill="#A80036" rx="3" ry="3" style="stroke:#A80036;stroke-width:1.0;stroke-dasharray:3.0,3.0;"/><path d="M3195,185.5 L3208,185.5 C3623.0626,185.5 4126.948,185.5 4263.4645,185.5 " fill="none" style="stroke:#A80036;stroke-width:1.0;stroke-dasharray:3.0,3.0;"/><path d="M4263.4645,188.587 L4265.7798,185.5 L4263.4645,182.413 L4271.182,185.5 L4263.4645,188.587 " fill="#A80036" style="stroke:#A80036;stroke-width:1.0;"/><ellipse cx="3195" cy="185.5" fill="#A80036" rx="3" ry="3" style="stroke:#A80036;stroke-width:1.0;stroke-dasharray:3.0,3.0;"/><path d="M1682.5,196.5 L1695.5,196.5 C2102.9116,196.5 2580.5497,196.5 2837.8918,196.5 " fill="none" style="stroke:#A80036;stroke-width:1.0;stroke-dasharray:3.0,3.0;"/><path d="M2837.8918,199.5196 L2840.1565,196.5 L2837.8918,193.4804 L2845.4409,196.5 L2837.8918,199.5196 " fill="#A80036" style="stroke:#A80036;stroke-width:1.0;"/><ellipse cx="1682.5" cy="196.5" fill="#A80036" rx="3" ry="3" style="stroke:#A80036;stroke-width:1.0;stroke-dasharray:3.0,3.0;"/><path d="M1682.5,217.5 L1695.5,217.5 C1734.5258,217.5 1743.0686,228.3227 1781,237.5 C1797.0299,241.3783 1800.6574,244.2818 1817,246.5 C2184.3382,296.3582 2620.1196,291.68 2854.8364,283.9986 " fill="none" style="stroke:#A80036;stroke-width:1.0;stroke-dasharray:3.0,3.0;"/><path d="M2854.9369,287.0285 L2857.1088,283.9232 L2854.7359,280.9687 L2862.4112,283.7473 L2854.9369,287.0285 " fill="#A80036" style="stroke:#A80036;stroke-width:1.0;"/><ellipse cx="1682.5" cy="217.5" fill="#A80036" rx="3" ry="3" style="stroke:#A80036;stroke-width:1.0;stroke-dasharray:3.0,3.0;"/><path d="M1431,197.5 L1444,197.5 C1482.0244,197.5 1524.4331,197.5 1559.0935,197.5 " fill="none" style="stroke:#A80036;stroke-width:1.0;stroke-dasharray:3.0,3.0;"/><path d="M1559.0935,200.5904 L1561.4113,197.5 L1559.0935,194.4096 L1566.8194,197.5 L1559.0935,200.5904 " fill="#A80036" style="stroke:#A80036;stroke-width:1.0;"/><ellipse cx="1431" cy="197.5" fill="#A80036" rx="3" ry="3" style="stroke:#A80036;stroke-width:1.0;stroke-dasharray:3.0,3.0;"/><path d="M1431,256.5 L1444,256.5 C1453.3388,256.5 1462.942,256.5 1472.63,256.5 " fill="none" style="stroke:#A80036;stroke-width:1.0;stroke-dasharray:3.0,3.0;"/><path d="M1472.63,259.6137 L1474.9653,256.5 L1472.63,253.3863 L1480.4143,256.5 L1472.63,259.6137 " fill="#A80036" style="stroke:#A80036;stroke-width:1.0;"/><ellipse cx="1431" cy="256.5" fill="#A80036" rx="3" ry="3" style="stroke:#A80036;stroke-width:1.0;stroke-dasharray:3.0,3.0;"/><path d="M493,197.5 L506,197.5 C611.0686,197.5 725.947,197.5 828.6534,197.5 " fill="none" style="stroke:#A80036;stroke-width:1.0;stroke-dasharray:3.0,3.0;"/><path d="M828.6534,200.575 L830.9596,197.5 L828.6534,194.425 L836.3409,197.5 L828.6534,200.575 " fill="#A80036" style="stroke:#A80036;stroke-width:1.0;"/><ellipse cx="493" cy="197.5" fill="#A80036" rx="3" ry="3" style="stroke:#A80036;stroke-width:1.0;stroke-dasharray:3.0,3.0;"/><path d="M95,173.5 L108,173.5 C124.1536,173.5 127.924,176.9191 144,178.5 C247.6603,188.6937 370.3851,194.027 431.8267,196.2366 " fill="none" style="stroke:#A80036;stroke-width:1.0;stroke-dasharray:3.0,3.0;"/><path d="M431.7201,199.253 L434.089,196.3166 L431.9333,193.2203 L439.3677,196.5032 L431.7201,199.253 " fill="#A80036" style="stroke:#A80036;stroke-width:1.0;"/><ellipse cx="95" cy="173.5" fill="#A80036" rx="3" ry="3" style="stroke:#A80036;stroke-width:1.0;stroke-dasharray:3.0,3.0;"/><!--MD5=[337ef7422e5ff681ee14863a67b858d3]
@startjson
{
  "info": {
    "copyright": "copyright 2016-2017, 2019 Open Connectivity Foundation, Inc. All rights reserved.",
    "license": "https://github.com/one-data-model/oneDM/blob/master/LICENSE",
    "title": "Door",
    "version": "2019-02-15"
  },
  "sdfObject": {
    "door": {
      "description": "This Resource describes the open state of the door. A door is\\nmodelled by means of openState (Open/Closed), openDuration (ISO 8601\\nTime), and openAlarm (boolean). For Property \"openState\", the value\\n'Open' indicates the door is open. The value 'Closed' indicates the\\ndoor is closed. The type of Property \"openDuration\" is an RFC Time\\nencoded string. The Property \"openAlarm\" value 'true' indicates that\\nthe open alarm is active. The openAlarm value 'false' indicates that\\nopen alarm is not active. retrieves the state of the Door.",
      "sdfProperty": {
        "openDuration": {
          "description": "A string representing duration formatted as defined in ISO 8601.\\nAllowable formats are: P[n]Y[n]M[n]DT[n]H[n]M[n]S, P[n]W,\\nP[n]Y[n]-M[n]-DT[0-23]H[0-59]:M[0-59]:S, and P[n]W,\\nP[n]Y[n]M[n]DT[0-23]H[0-59]M[0-59]S. P is mandatory, all other\\nelements are optional, time elements must follow a T.",
          "type": "string",
          "pattern": "^(P(?!$)([0-9]+Y)?([0-9]+M)?([0-9]+W)?([0-9]+D)?((T(?=[0-9]+[HMS])([0-9]+H)?([0-9]+M)?([0-9]+S)?)?))$|^(P[0-9]+W)$|^(P[0-9]{4})-(1[0-2]|0[1-9])-(3[0-1]|2[0-9]|1[0-9]|0[1-9])T(2[0-3]|1[0-9]|0[1-9]):([0-5][0-9]):([0-5][0-9])$|^(P[0-9]{4})(1[0-2]|0[1-9])(3[0-1]|2[0-9]|1[0-9]|0[1-9])T(2[0-3]|1[0-9]|0[1-9])([0-5][0-9])([0-5][0-9])$"
        },
        "openState": {
          "description": "The state of the door (open or closed).",
          "enum": [
            "Open",
            "Closed"
          ],
          "writable": false,
          "type": "string"
        },
        "openAlarm": {
          "description": "The state of the door open alarm.",
          "type": "boolean"
        }
      },
      "sdfRequired": [
        "#/sdfObject/door/sdfProperty/openAlarm"
      ]
    }
  }
}
@endjson

PlantUML version 1.2021.2(Sun Mar 07 13:10:27 EET 2021)
(GPL source distribution)
Java Runtime: OpenJDK Runtime Environment
JVM: OpenJDK 64-Bit Server VM
Default Encoding: UTF-8
Language: en
Country: FI
--></g></svg>