<?xml version="1.0" encoding="UTF-8" standalone="no"?><svg xmlns="http://www.w3.org/2000/svg" xmlns:xlink="http://www.w3.org/1999/xlink" contentScriptType="application/ecmascript" contentStyleType="text/css" height="229px" preserveAspectRatio="none" style="width:2128px;height:229px;" version="1.1" viewBox="0 0 2128 229" width="2128px" zoomAndPan="magnify"><defs/><g><rect fill="#FEFECE" height="40.9766" rx="5" ry="5" style="stroke:#FEFECE;stroke-width:1.5;" width="97" x="10" y="65.5"/><text fill="#000000" font-family="sans-serif" font-size="14" lengthAdjust="spacing" textLength="27" x="15" y="81.0352">info</text><text fill="#000000" font-family="sans-serif" font-size="14" lengthAdjust="spacing" textLength="0" x="102" y="81.0352"/><line style="stroke:#A80036;stroke-width:1.0;" x1="85" x2="85" y1="65.5" y2="85.9883"/><line style="stroke:#A80036;stroke-width:1.0;" x1="10" x2="107" y1="85.9883" y2="85.9883"/><text fill="#000000" font-family="sans-serif" font-size="14" lengthAdjust="spacing" textLength="65" x="15" y="101.5234">sdfObject</text><text fill="#000000" font-family="sans-serif" font-size="14" lengthAdjust="spacing" textLength="0" x="102" y="101.5234"/><line style="stroke:#A80036;stroke-width:1.0;" x1="85" x2="85" y1="85.9883" y2="106.4766"/><rect fill="none" height="40.9766" rx="5" ry="5" style="stroke:#A80036;stroke-width:1.5;" width="97" x="10" y="65.5"/><rect fill="#FEFECE" height="81.9531" rx="5" ry="5" style="stroke:#FEFECE;stroke-width:1.5;" width="570" x="144" y="10"/><text fill="#000000" font-family="sans-serif" font-size="14" lengthAdjust="spacing" textLength="65" x="149" y="25.5352">copyright</text><text fill="#000000" font-family="sans-serif" font-size="14" lengthAdjust="spacing" textLength="485" x="224" y="25.5352">Copyright 2019 Open Connectivity Foundation, Inc. All rights reserved.</text><line style="stroke:#A80036;stroke-width:1.0;" x1="219" x2="219" y1="10" y2="30.4883"/><line style="stroke:#A80036;stroke-width:1.0;" x1="144" x2="714" y1="30.4883" y2="30.4883"/><text fill="#000000" font-family="sans-serif" font-size="14" lengthAdjust="spacing" textLength="47" x="149" y="46.0234">license</text><text fill="#000000" font-family="sans-serif" font-size="14" lengthAdjust="spacing" textLength="462" x="224" y="46.0234">https://github.com/one-data-model/oneDM/blob/master/LICENSE</text><line style="stroke:#A80036;stroke-width:1.0;" x1="219" x2="219" y1="30.4883" y2="50.9766"/><line style="stroke:#A80036;stroke-width:1.0;" x1="144" x2="714" y1="50.9766" y2="50.9766"/><text fill="#000000" font-family="sans-serif" font-size="14" lengthAdjust="spacing" textLength="26" x="149" y="66.5117">title</text><text fill="#000000" font-family="sans-serif" font-size="14" lengthAdjust="spacing" textLength="99" x="224" y="66.5117">Calorific Value</text><line style="stroke:#A80036;stroke-width:1.0;" x1="219" x2="219" y1="50.9766" y2="71.4648"/><line style="stroke:#A80036;stroke-width:1.0;" x1="144" x2="714" y1="71.4648" y2="71.4648"/><text fill="#000000" font-family="sans-serif" font-size="14" lengthAdjust="spacing" textLength="50" x="149" y="87">version</text><text fill="#000000" font-family="sans-serif" font-size="14" lengthAdjust="spacing" textLength="88" x="224" y="87">2019-03-18</text><line style="stroke:#A80036;stroke-width:1.0;" x1="219" x2="219" y1="71.4648" y2="91.9531"/><rect fill="none" height="81.9531" rx="5" ry="5" style="stroke:#A80036;stroke-width:1.5;" width="570" x="144" y="10"/><rect fill="#FEFECE" height="20.4883" rx="5" ry="5" style="stroke:#FEFECE;stroke-width:1.5;" width="122" x="368" y="110"/><text fill="#000000" font-family="sans-serif" font-size="14" lengthAdjust="spacing" textLength="90" x="373" y="125.5352">calorificvalue</text><text fill="#000000" font-family="sans-serif" font-size="14" lengthAdjust="spacing" textLength="0" x="485" y="125.5352"/><line style="stroke:#A80036;stroke-width:1.0;" x1="468" x2="468" y1="110" y2="130.4883"/><rect fill="none" height="20.4883" rx="5" ry="5" style="stroke:#A80036;stroke-width:1.5;" width="122" x="368" y="110"/><rect fill="#FEFECE" height="127.418" rx="5" ry="5" style="stroke:#FEFECE;stroke-width:1.5;" width="572" x="751" y="56.5"/><text fill="#000000" font-family="sans-serif" font-size="14" lengthAdjust="spacing" textLength="77" x="756" y="72.0352">description</text><text fill="#000000" font-family="sans-serif" font-size="14" lengthAdjust="spacing" textLength="425" x="849" y="72.0352">This Resource describes Properties associated with the energy</text><text fill="#000000" font-family="sans-serif" font-size="14" lengthAdjust="spacing" textLength="469" x="849" y="88.5234">associated with the consumption of different fuels (including natural</text><text fill="#000000" font-family="sans-serif" font-size="14" lengthAdjust="spacing" textLength="456" x="849" y="105.0117">gas) The calorific value is a number the calorific value is a measure</text><text fill="#000000" font-family="sans-serif" font-size="14" lengthAdjust="spacing" textLength="421" x="849" y="121.5">of the available heat energy, used as part of the calculation to</text><text fill="#000000" font-family="sans-serif" font-size="14" lengthAdjust="spacing" textLength="457" x="849" y="137.9883">convert a volume of a fuel (e. g. m3) to an energy value (e. g. KWh).</text><line style="stroke:#A80036;stroke-width:1.0;" x1="844" x2="844" y1="56.5" y2="142.9414"/><line style="stroke:#A80036;stroke-width:1.0;" x1="751" x2="1323" y1="142.9414" y2="142.9414"/><text fill="#000000" font-family="sans-serif" font-size="14" lengthAdjust="spacing" textLength="79" x="756" y="158.4766">sdfProperty</text><text fill="#000000" font-family="sans-serif" font-size="14" lengthAdjust="spacing" textLength="0" x="861" y="158.4766"/><line style="stroke:#A80036;stroke-width:1.0;" x1="844" x2="844" y1="142.9414" y2="163.4297"/><line style="stroke:#A80036;stroke-width:1.0;" x1="751" x2="1323" y1="163.4297" y2="163.4297"/><text fill="#000000" font-family="sans-serif" font-size="14" lengthAdjust="spacing" textLength="83" x="756" y="178.9648">sdfRequired</text><text fill="#000000" font-family="sans-serif" font-size="14" lengthAdjust="spacing" textLength="0" x="861" y="178.9648"/><line style="stroke:#A80036;stroke-width:1.0;" x1="844" x2="844" y1="163.4297" y2="183.918"/><rect fill="none" height="127.418" rx="5" ry="5" style="stroke:#A80036;stroke-width:1.5;" width="572" x="751" y="56.5"/><rect fill="#FEFECE" height="40.9766" rx="5" ry="5" style="stroke:#FEFECE;stroke-width:1.5;" width="95" x="1480" y="95.5"/><text fill="#000000" font-family="sans-serif" font-size="14" lengthAdjust="spacing" textLength="63" x="1485" y="111.0352">precision</text><text fill="#000000" font-family="sans-serif" font-size="14" lengthAdjust="spacing" textLength="0" x="1570" y="111.0352"/><line style="stroke:#A80036;stroke-width:1.0;" x1="1553" x2="1553" y1="95.5" y2="115.9883"/><line style="stroke:#A80036;stroke-width:1.0;" x1="1480" x2="1575" y1="115.9883" y2="115.9883"/><text fill="#000000" font-family="sans-serif" font-size="14" lengthAdjust="spacing" textLength="54" x="1485" y="131.5234">calorific</text><text fill="#000000" font-family="sans-serif" font-size="14" lengthAdjust="spacing" textLength="0" x="1570" y="131.5234"/><line style="stroke:#A80036;stroke-width:1.0;" x1="1553" x2="1553" y1="115.9883" y2="136.4766"/><rect fill="none" height="40.9766" rx="5" ry="5" style="stroke:#A80036;stroke-width:1.5;" width="95" x="1480" y="95.5"/><rect fill="#FEFECE" height="61.4648" rx="5" ry="5" style="stroke:#FEFECE;stroke-width:1.5;" width="384" x="1732" y="35.5"/><text fill="#000000" font-family="sans-serif" font-size="14" lengthAdjust="spacing" textLength="77" x="1737" y="51.0352">description</text><text fill="#000000" font-family="sans-serif" font-size="14" lengthAdjust="spacing" textLength="287" x="1824" y="51.0352">Accuracy granularity of the exposed value</text><line style="stroke:#A80036;stroke-width:1.0;" x1="1819" x2="1819" y1="35.5" y2="55.9883"/><line style="stroke:#A80036;stroke-width:1.0;" x1="1732" x2="2116" y1="55.9883" y2="55.9883"/><text fill="#000000" font-family="sans-serif" font-size="14" lengthAdjust="spacing" textLength="55" x="1737" y="71.5234">writable</text><text fill="#000000" font-family="sans-serif" font-size="14" lengthAdjust="spacing" textLength="48" x="1824" y="71.5234">☐ false</text><line style="stroke:#A80036;stroke-width:1.0;" x1="1819" x2="1819" y1="55.9883" y2="76.4766"/><line style="stroke:#A80036;stroke-width:1.0;" x1="1732" x2="2116" y1="76.4766" y2="76.4766"/><text fill="#000000" font-family="sans-serif" font-size="14" lengthAdjust="spacing" textLength="29" x="1737" y="92.0117">type</text><text fill="#000000" font-family="sans-serif" font-size="14" lengthAdjust="spacing" textLength="54" x="1824" y="92.0117">number</text><line style="stroke:#A80036;stroke-width:1.0;" x1="1819" x2="1819" y1="76.4766" y2="96.9648"/><rect fill="none" height="61.4648" rx="5" ry="5" style="stroke:#A80036;stroke-width:1.5;" width="384" x="1732" y="35.5"/><rect fill="#FEFECE" height="102.4414" rx="5" ry="5" style="stroke:#FEFECE;stroke-width:1.5;" width="292" x="1778" y="115"/><text fill="#000000" font-family="sans-serif" font-size="14" lengthAdjust="spacing" textLength="77" x="1783" y="130.5352">description</text><text fill="#000000" font-family="sans-serif" font-size="14" lengthAdjust="spacing" textLength="145" x="1920" y="130.5352">Calorific value of fuel</text><line style="stroke:#A80036;stroke-width:1.0;" x1="1915" x2="1915" y1="115" y2="135.4883"/><line style="stroke:#A80036;stroke-width:1.0;" x1="1778" x2="2070" y1="135.4883" y2="135.4883"/><text fill="#000000" font-family="sans-serif" font-size="14" lengthAdjust="spacing" textLength="55" x="1783" y="151.0234">writable</text><text fill="#000000" font-family="sans-serif" font-size="14" lengthAdjust="spacing" textLength="48" x="1920" y="151.0234">☐ false</text><line style="stroke:#A80036;stroke-width:1.0;" x1="1915" x2="1915" y1="135.4883" y2="155.9766"/><line style="stroke:#A80036;stroke-width:1.0;" x1="1778" x2="2070" y1="155.9766" y2="155.9766"/><text fill="#000000" font-family="sans-serif" font-size="14" lengthAdjust="spacing" textLength="29" x="1783" y="171.5117">type</text><text fill="#000000" font-family="sans-serif" font-size="14" lengthAdjust="spacing" textLength="54" x="1920" y="171.5117">number</text><line style="stroke:#A80036;stroke-width:1.0;" x1="1915" x2="1915" y1="155.9766" y2="176.4648"/><line style="stroke:#A80036;stroke-width:1.0;" x1="1778" x2="2070" y1="176.4648" y2="176.4648"/><text fill="#000000" font-family="sans-serif" font-size="14" lengthAdjust="spacing" textLength="65" x="1783" y="192">minimum</text><text fill="#000000" font-family="sans-serif" font-size="14" lengthAdjust="spacing" textLength="9" x="1920" y="192">0</text><line style="stroke:#A80036;stroke-width:1.0;" x1="1915" x2="1915" y1="176.4648" y2="196.9531"/><line style="stroke:#A80036;stroke-width:1.0;" x1="1778" x2="2070" y1="196.9531" y2="196.9531"/><text fill="#000000" font-family="sans-serif" font-size="14" lengthAdjust="spacing" textLength="127" x="1783" y="212.4883">exclusiveMinimum</text><text fill="#000000" font-family="sans-serif" font-size="14" lengthAdjust="spacing" textLength="44" x="1920" y="212.4883">☑ true</text><line style="stroke:#A80036;stroke-width:1.0;" x1="1915" x2="1915" y1="196.9531" y2="217.4414"/><rect fill="none" height="102.4414" rx="5" ry="5" style="stroke:#A80036;stroke-width:1.5;" width="292" x="1778" y="115"/><rect fill="#FEFECE" height="20.4883" rx="5" ry="5" style="stroke:#FEFECE;stroke-width:1.5;" width="335" x="1360" y="155"/><text fill="#000000" font-family="sans-serif" font-size="14" lengthAdjust="spacing" textLength="325" x="1365" y="170.5352">#/sdfObject/calorificvalue/sdfProperty/calorific</text><rect fill="none" height="20.4883" rx="5" ry="5" style="stroke:#A80036;stroke-width:1.5;" width="335" x="1360" y="155"/><path d="M95,75 L108,75 C117.356,75 126.8613,74.897 136.4563,74.7046 " fill="none" style="stroke:#A80036;stroke-width:1.0;stroke-dasharray:3.0,3.0;"/><path d="M136.5256,77.7898 L138.7703,74.6526 L136.387,71.6194 L144.1694,74.5314 L136.5256,77.7898 " fill="#A80036" style="stroke:#A80036;stroke-width:1.0;"/><ellipse cx="95" cy="75" fill="#A80036" rx="3" ry="3" style="stroke:#A80036;stroke-width:1.0;stroke-dasharray:3.0,3.0;"/><path d="M1564,105 L1577,105 C1624.9808,105 1676.4656,101.2616 1724.6855,96.0996 " fill="none" style="stroke:#A80036;stroke-width:1.0;stroke-dasharray:3.0,3.0;"/><path d="M1725.0216,99.1836 L1726.9984,95.8475 L1724.3493,93.0156 L1732.3954,95.2593 L1725.0216,99.1836 " fill="#A80036" style="stroke:#A80036;stroke-width:1.0;"/><ellipse cx="1564" cy="105" fill="#A80036" rx="3" ry="3" style="stroke:#A80036;stroke-width:1.0;stroke-dasharray:3.0,3.0;"/><path d="M1564,126 L1577,126 C1640.5889,126 1710.3114,132.7303 1770.4365,140.6694 " fill="none" style="stroke:#A80036;stroke-width:1.0;stroke-dasharray:3.0,3.0;"/><path d="M1770.0266,143.7337 L1772.7347,140.9768 L1770.8465,137.6051 L1778.0972,141.6943 L1770.0266,143.7337 " fill="#A80036" style="stroke:#A80036;stroke-width:1.0;"/><ellipse cx="1564" cy="126" fill="#A80036" rx="3" ry="3" style="stroke:#A80036;stroke-width:1.0;stroke-dasharray:3.0,3.0;"/><path d="M1311,119 L1324,119 C1374.3315,119 1431.6748,118.0666 1472.5473,117.2411 " fill="none" style="stroke:#A80036;stroke-width:1.0;stroke-dasharray:3.0,3.0;"/><path d="M1472.6105,120.3175 L1474.8546,117.1937 L1472.4841,114.1646 L1480.2384,117.0831 L1472.6105,120.3175 " fill="#A80036" style="stroke:#A80036;stroke-width:1.0;"/><ellipse cx="1311" cy="119" fill="#A80036" rx="3" ry="3" style="stroke:#A80036;stroke-width:1.0;stroke-dasharray:3.0,3.0;"/><path d="M1311,162 L1324,162 C1333.317,162 1342.8743,162.032 1352.5229,162.0894 " fill="none" style="stroke:#A80036;stroke-width:1.0;stroke-dasharray:3.0,3.0;"/><path d="M1352.5024,165.1912 L1354.8494,162.1047 L1352.5435,158.9875 L1360.2777,162.1407 L1352.5024,165.1912 " fill="#A80036" style="stroke:#A80036;stroke-width:1.0;"/><ellipse cx="1311" cy="162" fill="#A80036" rx="3" ry="3" style="stroke:#A80036;stroke-width:1.0;stroke-dasharray:3.0,3.0;"/><path d="M478.5,120 L491.5,120 C573.1931,120 661.7742,120 743.3048,120 " fill="none" style="stroke:#A80036;stroke-width:1.0;stroke-dasharray:3.0,3.0;"/><path d="M743.3048,123.147 L745.6651,120 L743.3048,116.853 L751.1724,120 L743.3048,123.147 " fill="#A80036" style="stroke:#A80036;stroke-width:1.0;"/><ellipse cx="478.5" cy="120" fill="#A80036" rx="3" ry="3" style="stroke:#A80036;stroke-width:1.0;stroke-dasharray:3.0,3.0;"/><path d="M95,96 L108,96 C124.1536,96 127.9309,99.3496 144,101 C217.9901,108.5991 303.1325,113.8232 360.8475,116.8424 " fill="none" style="stroke:#A80036;stroke-width:1.0;stroke-dasharray:3.0,3.0;"/><path d="M360.6902,119.8842 L363.1289,116.9604 L361.0048,113.8006 L368.452,117.2357 L360.6902,119.8842 " fill="#A80036" style="stroke:#A80036;stroke-width:1.0;"/><ellipse cx="95" cy="96" fill="#A80036" rx="3" ry="3" style="stroke:#A80036;stroke-width:1.0;stroke-dasharray:3.0,3.0;"/><!--MD5=[246c6680cc531607dc6eed91c8024899]
@startjson
{
  "info": {
    "copyright": "Copyright 2019 Open Connectivity Foundation, Inc. All rights reserved.",
    "license": "https://github.com/one-data-model/oneDM/blob/master/LICENSE",
    "title": "Calorific Value",
    "version": "2019-03-18"
  },
  "sdfObject": {
    "calorificvalue": {
      "description": "This Resource describes Properties associated with the energy\\nassociated with the consumption of different fuels (including natural\\ngas) The calorific value is a number the calorific value is a measure\\nof the available heat energy, used as part of the calculation to\\nconvert a volume of a fuel (e. g. m3) to an energy value (e. g. KWh).",
      "sdfProperty": {
        "precision": {
          "description": "Accuracy granularity of the exposed value",
          "writable": false,
          "type": "number"
        },
        "calorific": {
          "description": "Calorific value of fuel",
          "writable": false,
          "type": "number",
          "minimum": 0,
          "exclusiveMinimum": true
        }
      },
      "sdfRequired": [
        "#/sdfObject/calorificvalue/sdfProperty/calorific"
      ]
    }
  }
}
@endjson

PlantUML version 1.2021.2(Sun Mar 07 13:10:27 EET 2021)
(GPL source distribution)
Java Runtime: OpenJDK Runtime Environment
JVM: OpenJDK 64-Bit Server VM
Default Encoding: UTF-8
Language: en
Country: FI
--></g></svg>