<?xml version="1.0" encoding="UTF-8" standalone="no"?><svg xmlns="http://www.w3.org/2000/svg" xmlns:xlink="http://www.w3.org/1999/xlink" contentScriptType="application/ecmascript" contentStyleType="text/css" height="509px" preserveAspectRatio="none" style="width:2577px;height:509px;" version="1.1" viewBox="0 0 2577 509" width="2577px" zoomAndPan="magnify"><defs/><g><rect fill="#FEFECE" height="40.9766" rx="5" ry="5" style="stroke:#FEFECE;stroke-width:1.5;" width="97" x="10" y="263"/><text fill="#000000" font-family="sans-serif" font-size="14" lengthAdjust="spacing" textLength="27" x="15" y="278.5352">info</text><text fill="#000000" font-family="sans-serif" font-size="14" lengthAdjust="spacing" textLength="0" x="102" y="278.5352"/><line style="stroke:#A80036;stroke-width:1.0;" x1="85" x2="85" y1="263" y2="283.4883"/><line style="stroke:#A80036;stroke-width:1.0;" x1="10" x2="107" y1="283.4883" y2="283.4883"/><text fill="#000000" font-family="sans-serif" font-size="14" lengthAdjust="spacing" textLength="65" x="15" y="299.0234">sdfObject</text><text fill="#000000" font-family="sans-serif" font-size="14" lengthAdjust="spacing" textLength="0" x="102" y="299.0234"/><line style="stroke:#A80036;stroke-width:1.0;" x1="85" x2="85" y1="283.4883" y2="303.9766"/><rect fill="none" height="40.9766" rx="5" ry="5" style="stroke:#A80036;stroke-width:1.5;" width="97" x="10" y="263"/><rect fill="#FEFECE" height="81.9531" rx="5" ry="5" style="stroke:#FEFECE;stroke-width:1.5;" width="614" x="144" y="207.5"/><text fill="#000000" font-family="sans-serif" font-size="14" lengthAdjust="spacing" textLength="65" x="149" y="223.0352">copyright</text><text fill="#000000" font-family="sans-serif" font-size="14" lengthAdjust="spacing" textLength="529" x="224" y="223.0352">Copyright 2018-2019 Open Connectivity Foundation, Inc. All rights reserved.</text><line style="stroke:#A80036;stroke-width:1.0;" x1="219" x2="219" y1="207.5" y2="227.9883"/><line style="stroke:#A80036;stroke-width:1.0;" x1="144" x2="758" y1="227.9883" y2="227.9883"/><text fill="#000000" font-family="sans-serif" font-size="14" lengthAdjust="spacing" textLength="47" x="149" y="243.5234">license</text><text fill="#000000" font-family="sans-serif" font-size="14" lengthAdjust="spacing" textLength="462" x="224" y="243.5234">https://github.com/one-data-model/oneDM/blob/master/LICENSE</text><line style="stroke:#A80036;stroke-width:1.0;" x1="219" x2="219" y1="227.9883" y2="248.4766"/><line style="stroke:#A80036;stroke-width:1.0;" x1="144" x2="758" y1="248.4766" y2="248.4766"/><text fill="#000000" font-family="sans-serif" font-size="14" lengthAdjust="spacing" textLength="26" x="149" y="264.0117">title</text><text fill="#000000" font-family="sans-serif" font-size="14" lengthAdjust="spacing" textLength="287" x="224" y="264.0117">Pulsatile Characteristic for Pulse Oximeter</text><line style="stroke:#A80036;stroke-width:1.0;" x1="219" x2="219" y1="248.4766" y2="268.9648"/><line style="stroke:#A80036;stroke-width:1.0;" x1="144" x2="758" y1="268.9648" y2="268.9648"/><text fill="#000000" font-family="sans-serif" font-size="14" lengthAdjust="spacing" textLength="50" x="149" y="284.5">version</text><text fill="#000000" font-family="sans-serif" font-size="14" lengthAdjust="spacing" textLength="88" x="224" y="284.5">2019-03-04</text><line style="stroke:#A80036;stroke-width:1.0;" x1="219" x2="219" y1="268.9648" y2="289.4531"/><rect fill="none" height="81.9531" rx="5" ry="5" style="stroke:#A80036;stroke-width:1.5;" width="614" x="144" y="207.5"/><rect fill="#FEFECE" height="20.4883" rx="5" ry="5" style="stroke:#FEFECE;stroke-width:1.5;" width="181" x="360.5" y="307.5"/><text fill="#000000" font-family="sans-serif" font-size="14" lengthAdjust="spacing" textLength="149" x="365.5" y="323.0352">pulsatilecharacteristic</text><text fill="#000000" font-family="sans-serif" font-size="14" lengthAdjust="spacing" textLength="0" x="536.5" y="323.0352"/><line style="stroke:#A80036;stroke-width:1.0;" x1="519.5" x2="519.5" y1="307.5" y2="327.9883"/><rect fill="none" height="20.4883" rx="5" ry="5" style="stroke:#A80036;stroke-width:1.5;" width="181" x="360.5" y="307.5"/><rect fill="#FEFECE" height="127.418" rx="5" ry="5" style="stroke:#FEFECE;stroke-width:1.5;" width="552" x="795" y="254"/><text fill="#000000" font-family="sans-serif" font-size="14" lengthAdjust="spacing" textLength="77" x="800" y="269.5352">description</text><text fill="#000000" font-family="sans-serif" font-size="14" lengthAdjust="spacing" textLength="448" x="893" y="269.5352">This Resource describes the Properties associated with a pulsatile</text><text fill="#000000" font-family="sans-serif" font-size="14" lengthAdjust="spacing" textLength="410" x="893" y="286.0234">characteristic of the pulsative wave of a Pulse Oximeter. The</text><text fill="#000000" font-family="sans-serif" font-size="14" lengthAdjust="spacing" textLength="449" x="893" y="302.5117">characteristic Property is a read-only value that is provided by the</text><text fill="#000000" font-family="sans-serif" font-size="14" lengthAdjust="spacing" textLength="425" x="893" y="319">server. When range (from "oic. r. baseresource") is omitted the</text><text fill="#000000" font-family="sans-serif" font-size="14" lengthAdjust="spacing" textLength="189" x="893" y="335.4883">default is 0 to +MAXFLOAT.</text><line style="stroke:#A80036;stroke-width:1.0;" x1="888" x2="888" y1="254" y2="340.4414"/><line style="stroke:#A80036;stroke-width:1.0;" x1="795" x2="1347" y1="340.4414" y2="340.4414"/><text fill="#000000" font-family="sans-serif" font-size="14" lengthAdjust="spacing" textLength="79" x="800" y="355.9766">sdfProperty</text><text fill="#000000" font-family="sans-serif" font-size="14" lengthAdjust="spacing" textLength="0" x="905" y="355.9766"/><line style="stroke:#A80036;stroke-width:1.0;" x1="888" x2="888" y1="340.4414" y2="360.9297"/><line style="stroke:#A80036;stroke-width:1.0;" x1="795" x2="1347" y1="360.9297" y2="360.9297"/><text fill="#000000" font-family="sans-serif" font-size="14" lengthAdjust="spacing" textLength="83" x="800" y="376.4648">sdfRequired</text><text fill="#000000" font-family="sans-serif" font-size="14" lengthAdjust="spacing" textLength="0" x="905" y="376.4648"/><line style="stroke:#A80036;stroke-width:1.0;" x1="888" x2="888" y1="360.9297" y2="381.418"/><rect fill="none" height="127.418" rx="5" ry="5" style="stroke:#A80036;stroke-width:1.5;" width="552" x="795" y="254"/><rect fill="#FEFECE" height="61.4648" rx="5" ry="5" style="stroke:#FEFECE;stroke-width:1.5;" width="123" x="1538" y="278"/><text fill="#000000" font-family="sans-serif" font-size="14" lengthAdjust="spacing" textLength="91" x="1543" y="293.5352">characteristic</text><text fill="#000000" font-family="sans-serif" font-size="14" lengthAdjust="spacing" textLength="0" x="1656" y="293.5352"/><line style="stroke:#A80036;stroke-width:1.0;" x1="1639" x2="1639" y1="278" y2="298.4883"/><line style="stroke:#A80036;stroke-width:1.0;" x1="1538" x2="1661" y1="298.4883" y2="298.4883"/><text fill="#000000" font-family="sans-serif" font-size="14" lengthAdjust="spacing" textLength="40" x="1543" y="314.0234">range</text><text fill="#000000" font-family="sans-serif" font-size="14" lengthAdjust="spacing" textLength="0" x="1656" y="314.0234"/><line style="stroke:#A80036;stroke-width:1.0;" x1="1639" x2="1639" y1="298.4883" y2="318.9766"/><line style="stroke:#A80036;stroke-width:1.0;" x1="1538" x2="1661" y1="318.9766" y2="318.9766"/><text fill="#000000" font-family="sans-serif" font-size="14" lengthAdjust="spacing" textLength="29" x="1543" y="334.5117">step</text><text fill="#000000" font-family="sans-serif" font-size="14" lengthAdjust="spacing" textLength="0" x="1656" y="334.5117"/><line style="stroke:#A80036;stroke-width:1.0;" x1="1639" x2="1639" y1="318.9766" y2="339.4648"/><rect fill="none" height="61.4648" rx="5" ry="5" style="stroke:#A80036;stroke-width:1.5;" width="123" x="1538" y="278"/><rect fill="#FEFECE" height="201.3711" rx="5" ry="5" style="stroke:#FEFECE;stroke-width:1.5;" width="578" x="1852" y="10"/><text fill="#000000" font-family="sans-serif" font-size="14" lengthAdjust="spacing" textLength="77" x="1857" y="25.5352">description</text><text fill="#000000" font-family="sans-serif" font-size="14" lengthAdjust="spacing" textLength="397" x="1944" y="25.5352">This Property describes the current pulsatile characteristic</text><text fill="#000000" font-family="sans-serif" font-size="14" lengthAdjust="spacing" textLength="481" x="1944" y="42.0234">measurement. The value is an integer bit mapped value. The following</text><text fill="#000000" font-family="sans-serif" font-size="14" lengthAdjust="spacing" textLength="469" x="1944" y="58.5117">describes what each integer means. 0 - Quality of the detected pulse</text><text fill="#000000" font-family="sans-serif" font-size="14" lengthAdjust="spacing" textLength="433" x="1944" y="75">is nominal, in that there are no recognized abnormalities in the</text><text fill="#000000" font-family="sans-serif" font-size="14" lengthAdjust="spacing" textLength="430" x="1944" y="91.4883">detected pulse. 1 - Perfusion or quality of the detected pulse is</text><text fill="#000000" font-family="sans-serif" font-size="14" lengthAdjust="spacing" textLength="454" x="1944" y="107.9766">marginal. 2 - Perfusion or quality of the detected pulse is minimal.</text><text fill="#000000" font-family="sans-serif" font-size="14" lengthAdjust="spacing" textLength="421" x="1944" y="124.4648">3 - Perfusion or quality of the detected pulse is unacceptable.</text><line style="stroke:#A80036;stroke-width:1.0;" x1="1939" x2="1939" y1="10" y2="129.418"/><line style="stroke:#A80036;stroke-width:1.0;" x1="1852" x2="2430" y1="129.418" y2="129.418"/><text fill="#000000" font-family="sans-serif" font-size="14" lengthAdjust="spacing" textLength="29" x="1857" y="144.9531">type</text><text fill="#000000" font-family="sans-serif" font-size="14" lengthAdjust="spacing" textLength="49" x="1944" y="144.9531">integer</text><line style="stroke:#A80036;stroke-width:1.0;" x1="1939" x2="1939" y1="129.418" y2="149.9063"/><line style="stroke:#A80036;stroke-width:1.0;" x1="1852" x2="2430" y1="149.9063" y2="149.9063"/><text fill="#000000" font-family="sans-serif" font-size="14" lengthAdjust="spacing" textLength="65" x="1857" y="165.4414">minimum</text><text fill="#000000" font-family="sans-serif" font-size="14" lengthAdjust="spacing" textLength="9" x="1944" y="165.4414">0</text><line style="stroke:#A80036;stroke-width:1.0;" x1="1939" x2="1939" y1="149.9063" y2="170.3945"/><line style="stroke:#A80036;stroke-width:1.0;" x1="1852" x2="2430" y1="170.3945" y2="170.3945"/><text fill="#000000" font-family="sans-serif" font-size="14" lengthAdjust="spacing" textLength="69" x="1857" y="185.9297">maximum</text><text fill="#000000" font-family="sans-serif" font-size="14" lengthAdjust="spacing" textLength="9" x="1944" y="185.9297">3</text><line style="stroke:#A80036;stroke-width:1.0;" x1="1939" x2="1939" y1="170.3945" y2="190.8828"/><line style="stroke:#A80036;stroke-width:1.0;" x1="1852" x2="2430" y1="190.8828" y2="190.8828"/><text fill="#000000" font-family="sans-serif" font-size="14" lengthAdjust="spacing" textLength="55" x="1857" y="206.418">writable</text><text fill="#000000" font-family="sans-serif" font-size="14" lengthAdjust="spacing" textLength="48" x="1944" y="206.418">☐ false</text><line style="stroke:#A80036;stroke-width:1.0;" x1="1939" x2="1939" y1="190.8828" y2="211.3711"/><rect fill="none" height="201.3711" rx="5" ry="5" style="stroke:#A80036;stroke-width:1.5;" width="578" x="1852" y="10"/><rect fill="#FEFECE" height="155.9063" rx="5" ry="5" style="stroke:#FEFECE;stroke-width:1.5;" width="552" x="1865" y="229.5"/><text fill="#000000" font-family="sans-serif" font-size="14" lengthAdjust="spacing" textLength="29" x="1870" y="245.0352">type</text><text fill="#000000" font-family="sans-serif" font-size="14" lengthAdjust="spacing" textLength="35" x="1957" y="245.0352">array</text><line style="stroke:#A80036;stroke-width:1.0;" x1="1952" x2="1952" y1="229.5" y2="249.9883"/><line style="stroke:#A80036;stroke-width:1.0;" x1="1865" x2="2417" y1="249.9883" y2="249.9883"/><text fill="#000000" font-family="sans-serif" font-size="14" lengthAdjust="spacing" textLength="77" x="1870" y="265.5234">description</text><text fill="#000000" font-family="sans-serif" font-size="14" lengthAdjust="spacing" textLength="455" x="1957" y="265.5234">The valid range for the Property in the Resource as an integer. The</text><text fill="#000000" font-family="sans-serif" font-size="14" lengthAdjust="spacing" textLength="439" x="1957" y="282.0117">first value in the array is the minimum value, the second value in</text><text fill="#000000" font-family="sans-serif" font-size="14" lengthAdjust="spacing" textLength="219" x="1957" y="298.5">the array is the maximum value.</text><line style="stroke:#A80036;stroke-width:1.0;" x1="1952" x2="1952" y1="249.9883" y2="303.4531"/><line style="stroke:#A80036;stroke-width:1.0;" x1="1865" x2="2417" y1="303.4531" y2="303.4531"/><text fill="#000000" font-family="sans-serif" font-size="14" lengthAdjust="spacing" textLength="55" x="1870" y="318.9883">writable</text><text fill="#000000" font-family="sans-serif" font-size="14" lengthAdjust="spacing" textLength="48" x="1957" y="318.9883">☐ false</text><line style="stroke:#A80036;stroke-width:1.0;" x1="1952" x2="1952" y1="303.4531" y2="323.9414"/><line style="stroke:#A80036;stroke-width:1.0;" x1="1865" x2="2417" y1="323.9414" y2="323.9414"/><text fill="#000000" font-family="sans-serif" font-size="14" lengthAdjust="spacing" textLength="63" x="1870" y="339.4766">minItems</text><text fill="#000000" font-family="sans-serif" font-size="14" lengthAdjust="spacing" textLength="9" x="1957" y="339.4766">2</text><line style="stroke:#A80036;stroke-width:1.0;" x1="1952" x2="1952" y1="323.9414" y2="344.4297"/><line style="stroke:#A80036;stroke-width:1.0;" x1="1865" x2="2417" y1="344.4297" y2="344.4297"/><text fill="#000000" font-family="sans-serif" font-size="14" lengthAdjust="spacing" textLength="67" x="1870" y="359.9648">maxItems</text><text fill="#000000" font-family="sans-serif" font-size="14" lengthAdjust="spacing" textLength="9" x="1957" y="359.9648">2</text><line style="stroke:#A80036;stroke-width:1.0;" x1="1952" x2="1952" y1="344.4297" y2="364.918"/><line style="stroke:#A80036;stroke-width:1.0;" x1="1865" x2="2417" y1="364.918" y2="364.918"/><text fill="#000000" font-family="sans-serif" font-size="14" lengthAdjust="spacing" textLength="37" x="1870" y="380.4531">items</text><text fill="#000000" font-family="sans-serif" font-size="14" lengthAdjust="spacing" textLength="0" x="1969" y="380.4531"/><line style="stroke:#A80036;stroke-width:1.0;" x1="1952" x2="1952" y1="364.918" y2="385.4063"/><rect fill="none" height="155.9063" rx="5" ry="5" style="stroke:#A80036;stroke-width:1.5;" width="552" x="1865" y="229.5"/><rect fill="#FEFECE" height="20.4883" rx="5" ry="5" style="stroke:#FEFECE;stroke-width:1.5;" width="98" x="2467" y="362.5"/><text fill="#000000" font-family="sans-serif" font-size="14" lengthAdjust="spacing" textLength="29" x="2472" y="378.0352">type</text><text fill="#000000" font-family="sans-serif" font-size="14" lengthAdjust="spacing" textLength="49" x="2511" y="378.0352">integer</text><line style="stroke:#A80036;stroke-width:1.0;" x1="2506" x2="2506" y1="362.5" y2="382.9883"/><rect fill="none" height="20.4883" rx="5" ry="5" style="stroke:#A80036;stroke-width:1.5;" width="98" x="2467" y="362.5"/><rect fill="#FEFECE" height="94.4414" rx="5" ry="5" style="stroke:#FEFECE;stroke-width:1.5;" width="549" x="1866.5" y="403.5"/><text fill="#000000" font-family="sans-serif" font-size="14" lengthAdjust="spacing" textLength="77" x="1871.5" y="419.0352">description</text><text fill="#000000" font-family="sans-serif" font-size="14" lengthAdjust="spacing" textLength="448" x="1958.5" y="419.0352">Step value across the defined range when the range is an integer.</text><text fill="#000000" font-family="sans-serif" font-size="14" lengthAdjust="spacing" textLength="449" x="1958.5" y="435.5234">This is the increment for valid values across the range; so if range</text><text fill="#000000" font-family="sans-serif" font-size="14" lengthAdjust="spacing" textLength="376" x="1958.5" y="452.0117">is 0..10 and step is 2 then valid values are 0,2,4,6,8,10.</text><line style="stroke:#A80036;stroke-width:1.0;" x1="1953.5" x2="1953.5" y1="403.5" y2="456.9648"/><line style="stroke:#A80036;stroke-width:1.0;" x1="1866.5" x2="2415.5" y1="456.9648" y2="456.9648"/><text fill="#000000" font-family="sans-serif" font-size="14" lengthAdjust="spacing" textLength="55" x="1871.5" y="472.5">writable</text><text fill="#000000" font-family="sans-serif" font-size="14" lengthAdjust="spacing" textLength="48" x="1958.5" y="472.5">☐ false</text><line style="stroke:#A80036;stroke-width:1.0;" x1="1953.5" x2="1953.5" y1="456.9648" y2="477.4531"/><line style="stroke:#A80036;stroke-width:1.0;" x1="1866.5" x2="2415.5" y1="477.4531" y2="477.4531"/><text fill="#000000" font-family="sans-serif" font-size="14" lengthAdjust="spacing" textLength="29" x="1871.5" y="492.9883">type</text><text fill="#000000" font-family="sans-serif" font-size="14" lengthAdjust="spacing" textLength="49" x="1958.5" y="492.9883">integer</text><line style="stroke:#A80036;stroke-width:1.0;" x1="1953.5" x2="1953.5" y1="477.4531" y2="497.9414"/><rect fill="none" height="94.4414" rx="5" ry="5" style="stroke:#A80036;stroke-width:1.5;" width="549" x="1866.5" y="403.5"/><rect fill="#FEFECE" height="20.4883" rx="5" ry="5" style="stroke:#FEFECE;stroke-width:1.5;" width="431" x="1384" y="357.5"/><text fill="#000000" font-family="sans-serif" font-size="14" lengthAdjust="spacing" textLength="421" x="1389" y="373.0352">#/sdfObject/pulsatilecharacteristic/sdfProperty/characteristic</text><rect fill="none" height="20.4883" rx="5" ry="5" style="stroke:#A80036;stroke-width:1.5;" width="431" x="1384" y="357.5"/><path d="M95,272.5 L108,272.5 C117.4068,272.5 126.9554,272.4088 136.5926,272.2376 " fill="none" style="stroke:#A80036;stroke-width:1.0;stroke-dasharray:3.0,3.0;"/><path d="M136.6543,275.3363 L138.9166,272.1914 L136.5309,269.1389 L144.3394,272.0834 L136.6543,275.3363 " fill="#A80036" style="stroke:#A80036;stroke-width:1.0;"/><ellipse cx="95" cy="272.5" fill="#A80036" rx="3" ry="3" style="stroke:#A80036;stroke-width:1.0;stroke-dasharray:3.0,3.0;"/><path d="M1650,287.5 L1663,287.5 C1669.2861,287.5 1764.2787,252.5473 1867.8979,213.7064 " fill="none" style="stroke:#A80036;stroke-width:1.0;stroke-dasharray:3.0,3.0;"/><path d="M1868.9711,216.5685 L1870.0444,212.9014 L1866.8246,210.8443 L1875.0531,211.0232 L1868.9711,216.5685 " fill="#A80036" style="stroke:#A80036;stroke-width:1.0;"/><ellipse cx="1650" cy="287.5" fill="#A80036" rx="3" ry="3" style="stroke:#A80036;stroke-width:1.0;stroke-dasharray:3.0,3.0;"/><path d="M2405.5,372.5 L2418.5,372.5 C2431.7328,372.5 2445.981,372.5 2459.3745,372.5 " fill="none" style="stroke:#A80036;stroke-width:1.0;stroke-dasharray:3.0,3.0;"/><path d="M2459.3745,375.6092 L2461.7064,372.5 L2459.3745,369.3908 L2467.1475,372.5 L2459.3745,375.6092 " fill="#A80036" style="stroke:#A80036;stroke-width:1.0;"/><ellipse cx="2405.5" cy="372.5" fill="#A80036" rx="3" ry="3" style="stroke:#A80036;stroke-width:1.0;stroke-dasharray:3.0,3.0;"/><path d="M1650,307.5 L1663,307.5 C1725.9322,307.5 1793.5299,307.5 1857.4921,307.5 " fill="none" style="stroke:#A80036;stroke-width:1.0;stroke-dasharray:3.0,3.0;"/><path d="M1857.4921,310.6127 L1859.8266,307.5 L1857.4921,304.3873 L1865.2738,307.5 L1857.4921,310.6127 " fill="#A80036" style="stroke:#A80036;stroke-width:1.0;"/><ellipse cx="1650" cy="307.5" fill="#A80036" rx="3" ry="3" style="stroke:#A80036;stroke-width:1.0;stroke-dasharray:3.0,3.0;"/><path d="M1650,328.5 L1663,328.5 C1731.5785,328.5 1756.4307,314.522 1816,348.5 C1838.5505,361.3627 1829.8572,380.9474 1852,394.5 C1854.8762,396.2604 1857.7963,397.9673 1860.7559,399.6221 " fill="none" style="stroke:#A80036;stroke-width:1.0;stroke-dasharray:3.0,3.0;"/><path d="M1859.2488,402.4124 L1862.8486,400.7525 L1862.263,396.8318 L1867.7316,403.3899 L1859.2488,402.4124 " fill="#A80036" style="stroke:#A80036;stroke-width:1.0;"/><ellipse cx="1650" cy="328.5" fill="#A80036" rx="3" ry="3" style="stroke:#A80036;stroke-width:1.0;stroke-dasharray:3.0,3.0;"/><path d="M1335,316.5 L1348,316.5 C1409.8935,316.5 1480.3284,314.0399 1530.7984,311.8481 " fill="none" style="stroke:#A80036;stroke-width:1.0;stroke-dasharray:3.0,3.0;"/><path d="M1530.9325,314.8925 L1533.0817,311.7476 L1530.6644,308.8038 L1538.4093,311.5131 L1530.9325,314.8925 " fill="#A80036" style="stroke:#A80036;stroke-width:1.0;"/><ellipse cx="1335" cy="316.5" fill="#A80036" rx="3" ry="3" style="stroke:#A80036;stroke-width:1.0;stroke-dasharray:3.0,3.0;"/><path d="M1335,359.5 L1348,359.5 C1357.3745,359.5 1366.945,359.5564 1376.6124,359.6598 " fill="none" style="stroke:#A80036;stroke-width:1.0;stroke-dasharray:3.0,3.0;"/><path d="M1376.5753,362.7686 L1378.944,359.6877 L1376.6495,356.5511 L1384.3843,359.7526 L1376.5753,362.7686 " fill="#A80036" style="stroke:#A80036;stroke-width:1.0;"/><ellipse cx="1335" cy="359.5" fill="#A80036" rx="3" ry="3" style="stroke:#A80036;stroke-width:1.0;stroke-dasharray:3.0,3.0;"/><path d="M530.5,317.5 L543.5,317.5 C622.7165,317.5 708.6311,317.5 787.6516,317.5 " fill="none" style="stroke:#A80036;stroke-width:1.0;stroke-dasharray:3.0,3.0;"/><path d="M787.6516,320.5501 L789.9391,317.5 L787.6516,314.4499 L795.2768,317.5 L787.6516,320.5501 " fill="#A80036" style="stroke:#A80036;stroke-width:1.0;"/><ellipse cx="530.5" cy="317.5" fill="#A80036" rx="3" ry="3" style="stroke:#A80036;stroke-width:1.0;stroke-dasharray:3.0,3.0;"/><path d="M95,293.5 L108,293.5 C124.1536,293.5 127.927,296.888 144,298.5 C213.8219,305.5026 292.868,310.3271 353.1963,313.362 " fill="none" style="stroke:#A80036;stroke-width:1.0;stroke-dasharray:3.0,3.0;"/><path d="M353.0445,316.4163 L355.4871,313.4759 L353.3482,310.3077 L360.8321,313.7417 L353.0445,316.4163 " fill="#A80036" style="stroke:#A80036;stroke-width:1.0;"/><ellipse cx="95" cy="293.5" fill="#A80036" rx="3" ry="3" style="stroke:#A80036;stroke-width:1.0;stroke-dasharray:3.0,3.0;"/><!--MD5=[64d27a674ef97573ec29018ed4bd5dcb]
@startjson
{
  "info": {
    "copyright": "Copyright 2018-2019 Open Connectivity Foundation, Inc. All rights reserved.",
    "license": "https://github.com/one-data-model/oneDM/blob/master/LICENSE",
    "title": "Pulsatile Characteristic for Pulse Oximeter",
    "version": "2019-03-04"
  },
  "sdfObject": {
    "pulsatilecharacteristic": {
      "description": "This Resource describes the Properties associated with a pulsatile\\ncharacteristic of the pulsative wave of a Pulse Oximeter. The\\ncharacteristic Property is a read-only value that is provided by the\\nserver. When range (from \"oic. r. baseresource\") is omitted the\\ndefault is 0 to +MAXFLOAT.",
      "sdfProperty": {
        "characteristic": {
          "description": "This Property describes the current pulsatile characteristic\\nmeasurement. The value is an integer bit mapped value. The following\\ndescribes what each integer means. 0 - Quality of the detected pulse\\nis nominal, in that there are no recognized abnormalities in the\\ndetected pulse. 1 - Perfusion or quality of the detected pulse is\\nmarginal. 2 - Perfusion or quality of the detected pulse is minimal.\\n3 - Perfusion or quality of the detected pulse is unacceptable.",
          "type": "integer",
          "minimum": 0,
          "maximum": 3,
          "writable": false
        },
        "range": {
          "type": "array",
          "description": "The valid range for the Property in the Resource as an integer. The\\nfirst value in the array is the minimum value, the second value in\\nthe array is the maximum value.",
          "writable": false,
          "minItems": 2,
          "maxItems": 2,
          "items": {
            "type": "integer"
          }
        },
        "step": {
          "description": "Step value across the defined range when the range is an integer. \\nThis is the increment for valid values across the range; so if range\\nis 0..10 and step is 2 then valid values are 0,2,4,6,8,10.",
          "writable": false,
          "type": "integer"
        }
      },
      "sdfRequired": [
        "#/sdfObject/pulsatilecharacteristic/sdfProperty/characteristic"
      ]
    }
  }
}
@endjson

PlantUML version 1.2021.2(Sun Mar 07 13:10:27 EET 2021)
(GPL source distribution)
Java Runtime: OpenJDK Runtime Environment
JVM: OpenJDK 64-Bit Server VM
Default Encoding: UTF-8
Language: en
Country: FI
--></g></svg>