<?xml version="1.0" encoding="UTF-8" standalone="no"?><svg xmlns="http://www.w3.org/2000/svg" xmlns:xlink="http://www.w3.org/1999/xlink" contentScriptType="application/ecmascript" contentStyleType="text/css" height="195px" preserveAspectRatio="none" style="width:2414px;height:195px;" version="1.1" viewBox="0 0 2414 195" width="2414px" zoomAndPan="magnify"><defs/><g><rect fill="#FEFECE" height="40.9766" rx="5" ry="5" style="stroke:#FEFECE;stroke-width:1.5;" width="97" x="10" y="65.5"/><text fill="#000000" font-family="sans-serif" font-size="14" lengthAdjust="spacing" textLength="27" x="15" y="81.0352">info</text><text fill="#000000" font-family="sans-serif" font-size="14" lengthAdjust="spacing" textLength="0" x="102" y="81.0352"/><line style="stroke:#A80036;stroke-width:1.0;" x1="85" x2="85" y1="65.5" y2="85.9883"/><line style="stroke:#A80036;stroke-width:1.0;" x1="10" x2="107" y1="85.9883" y2="85.9883"/><text fill="#000000" font-family="sans-serif" font-size="14" lengthAdjust="spacing" textLength="65" x="15" y="101.5234">sdfObject</text><text fill="#000000" font-family="sans-serif" font-size="14" lengthAdjust="spacing" textLength="0" x="102" y="101.5234"/><line style="stroke:#A80036;stroke-width:1.0;" x1="85" x2="85" y1="85.9883" y2="106.4766"/><rect fill="none" height="40.9766" rx="5" ry="5" style="stroke:#A80036;stroke-width:1.5;" width="97" x="10" y="65.5"/><rect fill="#FEFECE" height="81.9531" rx="5" ry="5" style="stroke:#FEFECE;stroke-width:1.5;" width="614" x="144" y="10"/><text fill="#000000" font-family="sans-serif" font-size="14" lengthAdjust="spacing" textLength="65" x="149" y="25.5352">copyright</text><text fill="#000000" font-family="sans-serif" font-size="14" lengthAdjust="spacing" textLength="529" x="224" y="25.5352">Copyright 2018-2019 Open Connectivity Foundation, Inc. All rights reserved.</text><line style="stroke:#A80036;stroke-width:1.0;" x1="219" x2="219" y1="10" y2="30.4883"/><line style="stroke:#A80036;stroke-width:1.0;" x1="144" x2="758" y1="30.4883" y2="30.4883"/><text fill="#000000" font-family="sans-serif" font-size="14" lengthAdjust="spacing" textLength="47" x="149" y="46.0234">license</text><text fill="#000000" font-family="sans-serif" font-size="14" lengthAdjust="spacing" textLength="462" x="224" y="46.0234">https://github.com/one-data-model/oneDM/blob/master/LICENSE</text><line style="stroke:#A80036;stroke-width:1.0;" x1="219" x2="219" y1="30.4883" y2="50.9766"/><line style="stroke:#A80036;stroke-width:1.0;" x1="144" x2="758" y1="50.9766" y2="50.9766"/><text fill="#000000" font-family="sans-serif" font-size="14" lengthAdjust="spacing" textLength="26" x="149" y="66.5117">title</text><text fill="#000000" font-family="sans-serif" font-size="14" lengthAdjust="spacing" textLength="72" x="224" y="66.5117">Brightness</text><line style="stroke:#A80036;stroke-width:1.0;" x1="219" x2="219" y1="50.9766" y2="71.4648"/><line style="stroke:#A80036;stroke-width:1.0;" x1="144" x2="758" y1="71.4648" y2="71.4648"/><text fill="#000000" font-family="sans-serif" font-size="14" lengthAdjust="spacing" textLength="50" x="149" y="87">version</text><text fill="#000000" font-family="sans-serif" font-size="14" lengthAdjust="spacing" textLength="88" x="224" y="87">2019-02-22</text><line style="stroke:#A80036;stroke-width:1.0;" x1="219" x2="219" y1="71.4648" y2="91.9531"/><rect fill="none" height="81.9531" rx="5" ry="5" style="stroke:#A80036;stroke-width:1.5;" width="614" x="144" y="10"/><rect fill="#FEFECE" height="20.4883" rx="5" ry="5" style="stroke:#FEFECE;stroke-width:1.5;" width="140" x="381" y="110"/><text fill="#000000" font-family="sans-serif" font-size="14" lengthAdjust="spacing" textLength="108" x="386" y="125.5352">light.brightness</text><text fill="#000000" font-family="sans-serif" font-size="14" lengthAdjust="spacing" textLength="0" x="516" y="125.5352"/><line style="stroke:#A80036;stroke-width:1.0;" x1="499" x2="499" y1="110" y2="130.4883"/><rect fill="none" height="20.4883" rx="5" ry="5" style="stroke:#A80036;stroke-width:1.5;" width="140" x="381" y="110"/><rect fill="#FEFECE" height="127.418" rx="5" ry="5" style="stroke:#FEFECE;stroke-width:1.5;" width="573" x="795" y="56.5"/><text fill="#000000" font-family="sans-serif" font-size="14" lengthAdjust="spacing" textLength="77" x="800" y="72.0352">description</text><text fill="#000000" font-family="sans-serif" font-size="14" lengthAdjust="spacing" textLength="424" x="893" y="72.0352">This Resource describes the brightness of a light or lamp. The</text><text fill="#000000" font-family="sans-serif" font-size="14" lengthAdjust="spacing" textLength="453" x="893" y="88.5234">Property "brightness" is an integer showing the current brightness</text><text fill="#000000" font-family="sans-serif" font-size="14" lengthAdjust="spacing" textLength="470" x="893" y="105.0117">level as a quantized representation in the range 0-100. A brightness</text><text fill="#000000" font-family="sans-serif" font-size="14" lengthAdjust="spacing" textLength="436" x="893" y="121.5">of 0 is the minimum for the resource. A brightness of 100 is the</text><text fill="#000000" font-family="sans-serif" font-size="14" lengthAdjust="spacing" textLength="187" x="893" y="137.9883">maximum for the resource.</text><line style="stroke:#A80036;stroke-width:1.0;" x1="888" x2="888" y1="56.5" y2="142.9414"/><line style="stroke:#A80036;stroke-width:1.0;" x1="795" x2="1368" y1="142.9414" y2="142.9414"/><text fill="#000000" font-family="sans-serif" font-size="14" lengthAdjust="spacing" textLength="79" x="800" y="158.4766">sdfProperty</text><text fill="#000000" font-family="sans-serif" font-size="14" lengthAdjust="spacing" textLength="0" x="905" y="158.4766"/><line style="stroke:#A80036;stroke-width:1.0;" x1="888" x2="888" y1="142.9414" y2="163.4297"/><line style="stroke:#A80036;stroke-width:1.0;" x1="795" x2="1368" y1="163.4297" y2="163.4297"/><text fill="#000000" font-family="sans-serif" font-size="14" lengthAdjust="spacing" textLength="83" x="800" y="178.9648">sdfRequired</text><text fill="#000000" font-family="sans-serif" font-size="14" lengthAdjust="spacing" textLength="0" x="905" y="178.9648"/><line style="stroke:#A80036;stroke-width:1.0;" x1="888" x2="888" y1="163.4297" y2="183.918"/><rect fill="none" height="127.418" rx="5" ry="5" style="stroke:#A80036;stroke-width:1.5;" width="573" x="795" y="56.5"/><rect fill="#FEFECE" height="20.4883" rx="5" ry="5" style="stroke:#FEFECE;stroke-width:1.5;" width="105" x="1538.5" y="109"/><text fill="#000000" font-family="sans-serif" font-size="14" lengthAdjust="spacing" textLength="73" x="1543.5" y="124.5352">brightness</text><text fill="#000000" font-family="sans-serif" font-size="14" lengthAdjust="spacing" textLength="0" x="1638.5" y="124.5352"/><line style="stroke:#A80036;stroke-width:1.0;" x1="1621.5" x2="1621.5" y1="109" y2="129.4883"/><rect fill="none" height="20.4883" rx="5" ry="5" style="stroke:#A80036;stroke-width:1.5;" width="105" x="1538.5" y="109"/><rect fill="#FEFECE" height="98.4414" rx="5" ry="5" style="stroke:#FEFECE;stroke-width:1.5;" width="588" x="1814" y="70"/><text fill="#000000" font-family="sans-serif" font-size="14" lengthAdjust="spacing" textLength="77" x="1819" y="85.5352">description</text><text fill="#000000" font-family="sans-serif" font-size="14" lengthAdjust="spacing" textLength="491" x="1906" y="85.5352">The Quantized representation in the range 0-100 of the current sensed</text><text fill="#000000" font-family="sans-serif" font-size="14" lengthAdjust="spacing" textLength="183" x="1906" y="102.0234">or set value for Brightness.</text><line style="stroke:#A80036;stroke-width:1.0;" x1="1901" x2="1901" y1="70" y2="106.9766"/><line style="stroke:#A80036;stroke-width:1.0;" x1="1814" x2="2402" y1="106.9766" y2="106.9766"/><text fill="#000000" font-family="sans-serif" font-size="14" lengthAdjust="spacing" textLength="69" x="1819" y="122.5117">maximum</text><text fill="#000000" font-family="sans-serif" font-size="14" lengthAdjust="spacing" textLength="27" x="1906" y="122.5117">100</text><line style="stroke:#A80036;stroke-width:1.0;" x1="1901" x2="1901" y1="106.9766" y2="127.4648"/><line style="stroke:#A80036;stroke-width:1.0;" x1="1814" x2="2402" y1="127.4648" y2="127.4648"/><text fill="#000000" font-family="sans-serif" font-size="14" lengthAdjust="spacing" textLength="65" x="1819" y="143">minimum</text><text fill="#000000" font-family="sans-serif" font-size="14" lengthAdjust="spacing" textLength="9" x="1906" y="143">0</text><line style="stroke:#A80036;stroke-width:1.0;" x1="1901" x2="1901" y1="127.4648" y2="147.9531"/><line style="stroke:#A80036;stroke-width:1.0;" x1="1814" x2="2402" y1="147.9531" y2="147.9531"/><text fill="#000000" font-family="sans-serif" font-size="14" lengthAdjust="spacing" textLength="29" x="1819" y="163.4883">type</text><text fill="#000000" font-family="sans-serif" font-size="14" lengthAdjust="spacing" textLength="49" x="1906" y="163.4883">integer</text><line style="stroke:#A80036;stroke-width:1.0;" x1="1901" x2="1901" y1="147.9531" y2="168.4414"/><rect fill="none" height="98.4414" rx="5" ry="5" style="stroke:#A80036;stroke-width:1.5;" width="588" x="1814" y="70"/><rect fill="#FEFECE" height="20.4883" rx="5" ry="5" style="stroke:#FEFECE;stroke-width:1.5;" width="372" x="1405" y="152"/><text fill="#000000" font-family="sans-serif" font-size="14" lengthAdjust="spacing" textLength="362" x="1410" y="167.5352">#/sdfObject/light.brightness/sdfProperty/brightness</text><rect fill="none" height="20.4883" rx="5" ry="5" style="stroke:#A80036;stroke-width:1.5;" width="372" x="1405" y="152"/><path d="M95,75 L108,75 C117.4068,75 126.9554,74.9088 136.5926,74.7376 " fill="none" style="stroke:#A80036;stroke-width:1.0;stroke-dasharray:3.0,3.0;"/><path d="M136.6543,77.8363 L138.9166,74.6914 L136.5309,71.6389 L144.3394,74.5834 L136.6543,77.8363 " fill="#A80036" style="stroke:#A80036;stroke-width:1.0;"/><ellipse cx="95" cy="75" fill="#A80036" rx="3" ry="3" style="stroke:#A80036;stroke-width:1.0;stroke-dasharray:3.0,3.0;"/><path d="M1632.5,119 L1645.5,119 C1697.5916,119 1752.9869,119 1806.6572,119 " fill="none" style="stroke:#A80036;stroke-width:1.0;stroke-dasharray:3.0,3.0;"/><path d="M1806.6572,122.0245 L1808.9255,119 L1806.6572,115.9755 L1814.2183,119 L1806.6572,122.0245 " fill="#A80036" style="stroke:#A80036;stroke-width:1.0;"/><ellipse cx="1632.5" cy="119" fill="#A80036" rx="3" ry="3" style="stroke:#A80036;stroke-width:1.0;stroke-dasharray:3.0,3.0;"/><path d="M1356,119 L1369,119 C1423.8913,119 1486.4343,119 1531.0301,119 " fill="none" style="stroke:#A80036;stroke-width:1.0;stroke-dasharray:3.0,3.0;"/><path d="M1531.0301,122.0218 L1533.2965,119 L1531.0301,115.9782 L1538.5847,119 L1531.0301,122.0218 " fill="#A80036" style="stroke:#A80036;stroke-width:1.0;"/><ellipse cx="1356" cy="119" fill="#A80036" rx="3" ry="3" style="stroke:#A80036;stroke-width:1.0;stroke-dasharray:3.0,3.0;"/><path d="M1356,162 L1369,162 C1378.3306,162 1387.8822,162 1397.5292,162 " fill="none" style="stroke:#A80036;stroke-width:1.0;stroke-dasharray:3.0,3.0;"/><path d="M1397.5292,165.1019 L1399.8556,162 L1397.5292,158.8981 L1405.284,162 L1397.5292,165.1019 " fill="#A80036" style="stroke:#A80036;stroke-width:1.0;"/><ellipse cx="1356" cy="162" fill="#A80036" rx="3" ry="3" style="stroke:#A80036;stroke-width:1.0;stroke-dasharray:3.0,3.0;"/><path d="M509.5,120 L522.5,120 C608.6208,120 702.2116,120 787.7221,120 " fill="none" style="stroke:#A80036;stroke-width:1.0;stroke-dasharray:3.0,3.0;"/><path d="M787.7221,123.088 L790.0381,120 L787.7221,116.912 L795.442,120 L787.7221,123.088 " fill="#A80036" style="stroke:#A80036;stroke-width:1.0;"/><ellipse cx="509.5" cy="120" fill="#A80036" rx="3" ry="3" style="stroke:#A80036;stroke-width:1.0;stroke-dasharray:3.0,3.0;"/><path d="M95,96 L108,96 C124.1536,96 127.927,99.388 144,101 C221.9614,108.819 311.4231,113.9223 373.4874,116.8511 " fill="none" style="stroke:#A80036;stroke-width:1.0;stroke-dasharray:3.0,3.0;"/><path d="M373.3418,119.9751 L375.8304,116.9603 L373.6329,113.7271 L381.2974,117.215 L373.3418,119.9751 " fill="#A80036" style="stroke:#A80036;stroke-width:1.0;"/><ellipse cx="95" cy="96" fill="#A80036" rx="3" ry="3" style="stroke:#A80036;stroke-width:1.0;stroke-dasharray:3.0,3.0;"/><!--MD5=[9a1cc1d5f85f03368071a2a5be2ac5b2]
@startjson
{
  "info": {
    "copyright": "Copyright 2018-2019 Open Connectivity Foundation, Inc. All rights reserved.",
    "license": "https://github.com/one-data-model/oneDM/blob/master/LICENSE",
    "title": "Brightness",
    "version": "2019-02-22"
  },
  "sdfObject": {
    "light.brightness": {
      "description": "This Resource describes the brightness of a light or lamp. The\\nProperty \"brightness\" is an integer showing the current brightness\\nlevel as a quantized representation in the range 0-100. A brightness\\nof 0 is the minimum for the resource. A brightness of 100 is the\\nmaximum for the resource.",
      "sdfProperty": {
        "brightness": {
          "description": "The Quantized representation in the range 0-100 of the current sensed\\nor set value for Brightness.",
          "maximum": 100,
          "minimum": 0,
          "type": "integer"
        }
      },
      "sdfRequired": [
        "#/sdfObject/light.brightness/sdfProperty/brightness"
      ]
    }
  }
}
@endjson

PlantUML version 1.2021.2(Sun Mar 07 13:10:27 EET 2021)
(GPL source distribution)
Java Runtime: OpenJDK Runtime Environment
JVM: OpenJDK 64-Bit Server VM
Default Encoding: UTF-8
Language: en
Country: FI
--></g></svg>