<?xml version="1.0" encoding="UTF-8" standalone="no"?><svg xmlns="http://www.w3.org/2000/svg" xmlns:xlink="http://www.w3.org/1999/xlink" contentScriptType="application/ecmascript" contentStyleType="text/css" height="282px" preserveAspectRatio="none" style="width:2697px;height:282px;" version="1.1" viewBox="0 0 2697 282" width="2697px" zoomAndPan="magnify"><defs/><g><rect fill="#FEFECE" height="40.9766" rx="5" ry="5" style="stroke:#FEFECE;stroke-width:1.5;" width="97" x="10" y="132.5"/><text fill="#000000" font-family="sans-serif" font-size="14" lengthAdjust="spacing" textLength="27" x="15" y="148.0352">info</text><text fill="#000000" font-family="sans-serif" font-size="14" lengthAdjust="spacing" textLength="0" x="102" y="148.0352"/><line style="stroke:#A80036;stroke-width:1.0;" x1="85" x2="85" y1="132.5" y2="152.9883"/><line style="stroke:#A80036;stroke-width:1.0;" x1="10" x2="107" y1="152.9883" y2="152.9883"/><text fill="#000000" font-family="sans-serif" font-size="14" lengthAdjust="spacing" textLength="65" x="15" y="168.5234">sdfObject</text><text fill="#000000" font-family="sans-serif" font-size="14" lengthAdjust="spacing" textLength="0" x="102" y="168.5234"/><line style="stroke:#A80036;stroke-width:1.0;" x1="85" x2="85" y1="152.9883" y2="173.4766"/><rect fill="none" height="40.9766" rx="5" ry="5" style="stroke:#A80036;stroke-width:1.5;" width="97" x="10" y="132.5"/><rect fill="#FEFECE" height="81.9531" rx="5" ry="5" style="stroke:#FEFECE;stroke-width:1.5;" width="655" x="144" y="77"/><text fill="#000000" font-family="sans-serif" font-size="14" lengthAdjust="spacing" textLength="65" x="149" y="92.5352">copyright</text><text fill="#000000" font-family="sans-serif" font-size="14" lengthAdjust="spacing" textLength="570" x="224" y="92.5352">copyright 2016-2017, 2019 Open Connectivity Foundation, Inc. All rights reserved.</text><line style="stroke:#A80036;stroke-width:1.0;" x1="219" x2="219" y1="77" y2="97.4883"/><line style="stroke:#A80036;stroke-width:1.0;" x1="144" x2="799" y1="97.4883" y2="97.4883"/><text fill="#000000" font-family="sans-serif" font-size="14" lengthAdjust="spacing" textLength="47" x="149" y="113.0234">license</text><text fill="#000000" font-family="sans-serif" font-size="14" lengthAdjust="spacing" textLength="462" x="224" y="113.0234">https://github.com/one-data-model/oneDM/blob/master/LICENSE</text><line style="stroke:#A80036;stroke-width:1.0;" x1="219" x2="219" y1="97.4883" y2="117.9766"/><line style="stroke:#A80036;stroke-width:1.0;" x1="144" x2="799" y1="117.9766" y2="117.9766"/><text fill="#000000" font-family="sans-serif" font-size="14" lengthAdjust="spacing" textLength="26" x="149" y="133.5117">title</text><text fill="#000000" font-family="sans-serif" font-size="14" lengthAdjust="spacing" textLength="89" x="224" y="133.5117">PowerSource</text><line style="stroke:#A80036;stroke-width:1.0;" x1="219" x2="219" y1="117.9766" y2="138.4648"/><line style="stroke:#A80036;stroke-width:1.0;" x1="144" x2="799" y1="138.4648" y2="138.4648"/><text fill="#000000" font-family="sans-serif" font-size="14" lengthAdjust="spacing" textLength="50" x="149" y="154">version</text><text fill="#000000" font-family="sans-serif" font-size="14" lengthAdjust="spacing" textLength="88" x="224" y="154">2019-05-13</text><line style="stroke:#A80036;stroke-width:1.0;" x1="219" x2="219" y1="138.4648" y2="158.9531"/><rect fill="none" height="81.9531" rx="5" ry="5" style="stroke:#A80036;stroke-width:1.5;" width="655" x="144" y="77"/><rect fill="#FEFECE" height="20.4883" rx="5" ry="5" style="stroke:#FEFECE;stroke-width:1.5;" width="121" x="411" y="177"/><text fill="#000000" font-family="sans-serif" font-size="14" lengthAdjust="spacing" textLength="89" x="416" y="192.5352">powersource</text><text fill="#000000" font-family="sans-serif" font-size="14" lengthAdjust="spacing" textLength="0" x="527" y="192.5352"/><line style="stroke:#A80036;stroke-width:1.0;" x1="510" x2="510" y1="177" y2="197.4883"/><rect fill="none" height="20.4883" rx="5" ry="5" style="stroke:#A80036;stroke-width:1.5;" width="121" x="411" y="177"/><rect fill="#FEFECE" height="127.418" rx="5" ry="5" style="stroke:#FEFECE;stroke-width:1.5;" width="572" x="836" y="123.5"/><text fill="#000000" font-family="sans-serif" font-size="14" lengthAdjust="spacing" textLength="77" x="841" y="139.0352">description</text><text fill="#000000" font-family="sans-serif" font-size="14" lengthAdjust="spacing" textLength="446" x="934" y="139.0352">This Resource list the available power sources for the Device. The</text><text fill="#000000" font-family="sans-serif" font-size="14" lengthAdjust="spacing" textLength="378" x="934" y="155.5234">Property "powersources" is a list that is read only and is</text><text fill="#000000" font-family="sans-serif" font-size="14" lengthAdjust="spacing" textLength="443" x="934" y="172.0117">informative only. If there is more than 1 power source active, use</text><text fill="#000000" font-family="sans-serif" font-size="14" lengthAdjust="spacing" textLength="469" x="934" y="188.5">multiple Resources to indicate the active power sources. If the power</text><text fill="#000000" font-family="sans-serif" font-size="14" lengthAdjust="spacing" textLength="305" x="934" y="204.9883">source is unknown use the value "unknown".</text><line style="stroke:#A80036;stroke-width:1.0;" x1="929" x2="929" y1="123.5" y2="209.9414"/><line style="stroke:#A80036;stroke-width:1.0;" x1="836" x2="1408" y1="209.9414" y2="209.9414"/><text fill="#000000" font-family="sans-serif" font-size="14" lengthAdjust="spacing" textLength="79" x="841" y="225.4766">sdfProperty</text><text fill="#000000" font-family="sans-serif" font-size="14" lengthAdjust="spacing" textLength="0" x="946" y="225.4766"/><line style="stroke:#A80036;stroke-width:1.0;" x1="929" x2="929" y1="209.9414" y2="230.4297"/><line style="stroke:#A80036;stroke-width:1.0;" x1="836" x2="1408" y1="230.4297" y2="230.4297"/><text fill="#000000" font-family="sans-serif" font-size="14" lengthAdjust="spacing" textLength="83" x="841" y="245.9648">sdfRequired</text><text fill="#000000" font-family="sans-serif" font-size="14" lengthAdjust="spacing" textLength="0" x="946" y="245.9648"/><line style="stroke:#A80036;stroke-width:1.0;" x1="929" x2="929" y1="230.4297" y2="250.918"/><rect fill="none" height="127.418" rx="5" ry="5" style="stroke:#A80036;stroke-width:1.5;" width="572" x="836" y="123.5"/><rect fill="#FEFECE" height="40.9766" rx="5" ry="5" style="stroke:#FEFECE;stroke-width:1.5;" width="128" x="1569" y="162.5"/><text fill="#000000" font-family="sans-serif" font-size="14" lengthAdjust="spacing" textLength="96" x="1574" y="178.0352">powersources</text><text fill="#000000" font-family="sans-serif" font-size="14" lengthAdjust="spacing" textLength="0" x="1692" y="178.0352"/><line style="stroke:#A80036;stroke-width:1.0;" x1="1675" x2="1675" y1="162.5" y2="182.9883"/><line style="stroke:#A80036;stroke-width:1.0;" x1="1569" x2="1697" y1="182.9883" y2="182.9883"/><text fill="#000000" font-family="sans-serif" font-size="14" lengthAdjust="spacing" textLength="77" x="1574" y="198.5234">sourcefault</text><text fill="#000000" font-family="sans-serif" font-size="14" lengthAdjust="spacing" textLength="0" x="1692" y="198.5234"/><line style="stroke:#A80036;stroke-width:1.0;" x1="1675" x2="1675" y1="182.9883" y2="203.4766"/><rect fill="none" height="40.9766" rx="5" ry="5" style="stroke:#A80036;stroke-width:1.5;" width="128" x="1569" y="162.5"/><rect fill="#FEFECE" height="81.9531" rx="5" ry="5" style="stroke:#FEFECE;stroke-width:1.5;" width="149" x="2036.5" y="93"/><text fill="#000000" font-family="sans-serif" font-size="14" lengthAdjust="spacing" textLength="37" x="2041.5" y="108.5352">items</text><text fill="#000000" font-family="sans-serif" font-size="14" lengthAdjust="spacing" textLength="0" x="2148.5" y="108.5352"/><line style="stroke:#A80036;stroke-width:1.0;" x1="2131.5" x2="2131.5" y1="93" y2="113.4883"/><line style="stroke:#A80036;stroke-width:1.0;" x1="2036.5" x2="2185.5" y1="113.4883" y2="113.4883"/><text fill="#000000" font-family="sans-serif" font-size="14" lengthAdjust="spacing" textLength="63" x="2041.5" y="129.0234">minItems</text><text fill="#000000" font-family="sans-serif" font-size="14" lengthAdjust="spacing" textLength="9" x="2136.5" y="129.0234">1</text><line style="stroke:#A80036;stroke-width:1.0;" x1="2131.5" x2="2131.5" y1="113.4883" y2="133.9766"/><line style="stroke:#A80036;stroke-width:1.0;" x1="2036.5" x2="2185.5" y1="133.9766" y2="133.9766"/><text fill="#000000" font-family="sans-serif" font-size="14" lengthAdjust="spacing" textLength="85" x="2041.5" y="149.5117">uniqueItems</text><text fill="#000000" font-family="sans-serif" font-size="14" lengthAdjust="spacing" textLength="44" x="2136.5" y="149.5117">☑ true</text><line style="stroke:#A80036;stroke-width:1.0;" x1="2131.5" x2="2131.5" y1="133.9766" y2="154.4648"/><line style="stroke:#A80036;stroke-width:1.0;" x1="2036.5" x2="2185.5" y1="154.4648" y2="154.4648"/><text fill="#000000" font-family="sans-serif" font-size="14" lengthAdjust="spacing" textLength="29" x="2041.5" y="170">type</text><text fill="#000000" font-family="sans-serif" font-size="14" lengthAdjust="spacing" textLength="35" x="2136.5" y="170">array</text><line style="stroke:#A80036;stroke-width:1.0;" x1="2131.5" x2="2131.5" y1="154.4648" y2="174.9531"/><rect fill="none" height="81.9531" rx="5" ry="5" style="stroke:#A80036;stroke-width:1.5;" width="149" x="2036.5" y="93"/><rect fill="#FEFECE" height="40.9766" rx="5" ry="5" style="stroke:#FEFECE;stroke-width:1.5;" width="99" x="2401" y="82.5"/><text fill="#000000" font-family="sans-serif" font-size="14" lengthAdjust="spacing" textLength="39" x="2406" y="98.0352">enum</text><text fill="#000000" font-family="sans-serif" font-size="14" lengthAdjust="spacing" textLength="0" x="2467" y="98.0352"/><line style="stroke:#A80036;stroke-width:1.0;" x1="2450" x2="2450" y1="82.5" y2="102.9883"/><line style="stroke:#A80036;stroke-width:1.0;" x1="2401" x2="2500" y1="102.9883" y2="102.9883"/><text fill="#000000" font-family="sans-serif" font-size="14" lengthAdjust="spacing" textLength="29" x="2406" y="118.5234">type</text><text fill="#000000" font-family="sans-serif" font-size="14" lengthAdjust="spacing" textLength="40" x="2455" y="118.5234">string</text><line style="stroke:#A80036;stroke-width:1.0;" x1="2450" x2="2450" y1="102.9883" y2="123.4766"/><rect fill="none" height="40.9766" rx="5" ry="5" style="stroke:#A80036;stroke-width:1.5;" width="99" x="2401" y="82.5"/><rect fill="#FEFECE" height="163.9063" rx="5" ry="5" style="stroke:#FEFECE;stroke-width:1.5;" width="148" x="2537" y="10"/><text fill="#000000" font-family="sans-serif" font-size="14" lengthAdjust="spacing" textLength="64" x="2542" y="25.5352">unknown</text><line style="stroke:#A80036;stroke-width:1.0;" x1="2537" x2="2685" y1="30.4883" y2="30.4883"/><text fill="#000000" font-family="sans-serif" font-size="14" lengthAdjust="spacing" textLength="67" x="2542" y="46.0234">DC power</text><line style="stroke:#A80036;stroke-width:1.0;" x1="2537" x2="2685" y1="50.9766" y2="50.9766"/><text fill="#000000" font-family="sans-serif" font-size="14" lengthAdjust="spacing" textLength="104" x="2542" y="66.5117">Internal Battery</text><line style="stroke:#A80036;stroke-width:1.0;" x1="2537" x2="2685" y1="71.4648" y2="71.4648"/><text fill="#000000" font-family="sans-serif" font-size="14" lengthAdjust="spacing" textLength="108" x="2542" y="87">External Battery</text><line style="stroke:#A80036;stroke-width:1.0;" x1="2537" x2="2685" y1="91.9531" y2="91.9531"/><text fill="#000000" font-family="sans-serif" font-size="14" lengthAdjust="spacing" textLength="138" x="2542" y="107.4883">Power over Ethernet</text><line style="stroke:#A80036;stroke-width:1.0;" x1="2537" x2="2685" y1="112.4414" y2="112.4414"/><text fill="#000000" font-family="sans-serif" font-size="14" lengthAdjust="spacing" textLength="26" x="2542" y="127.9766">USB</text><line style="stroke:#A80036;stroke-width:1.0;" x1="2537" x2="2685" y1="132.9297" y2="132.9297"/><text fill="#000000" font-family="sans-serif" font-size="14" lengthAdjust="spacing" textLength="120" x="2542" y="148.4648">AC (Mains) Power</text><line style="stroke:#A80036;stroke-width:1.0;" x1="2537" x2="2685" y1="153.418" y2="153.418"/><text fill="#000000" font-family="sans-serif" font-size="14" lengthAdjust="spacing" textLength="35" x="2542" y="168.9531">Solar</text><rect fill="none" height="163.9063" rx="5" ry="5" style="stroke:#A80036;stroke-width:1.5;" width="148" x="2537" y="10"/><rect fill="#FEFECE" height="77.9531" rx="5" ry="5" style="stroke:#FEFECE;stroke-width:1.5;" width="506" x="1858" y="193"/><text fill="#000000" font-family="sans-serif" font-size="14" lengthAdjust="spacing" textLength="77" x="1863" y="208.5352">description</text><text fill="#000000" font-family="sans-serif" font-size="14" lengthAdjust="spacing" textLength="409" x="1950" y="208.5352">Fault detected in currently active power source. True = fault</text><text fill="#000000" font-family="sans-serif" font-size="14" lengthAdjust="spacing" textLength="59" x="1950" y="225.0234">detected</text><line style="stroke:#A80036;stroke-width:1.0;" x1="1945" x2="1945" y1="193" y2="229.9766"/><line style="stroke:#A80036;stroke-width:1.0;" x1="1858" x2="2364" y1="229.9766" y2="229.9766"/><text fill="#000000" font-family="sans-serif" font-size="14" lengthAdjust="spacing" textLength="55" x="1863" y="245.5117">writable</text><text fill="#000000" font-family="sans-serif" font-size="14" lengthAdjust="spacing" textLength="48" x="1950" y="245.5117">☐ false</text><line style="stroke:#A80036;stroke-width:1.0;" x1="1945" x2="1945" y1="229.9766" y2="250.4648"/><line style="stroke:#A80036;stroke-width:1.0;" x1="1858" x2="2364" y1="250.4648" y2="250.4648"/><text fill="#000000" font-family="sans-serif" font-size="14" lengthAdjust="spacing" textLength="29" x="1863" y="266">type</text><text fill="#000000" font-family="sans-serif" font-size="14" lengthAdjust="spacing" textLength="56" x="1950" y="266">boolean</text><line style="stroke:#A80036;stroke-width:1.0;" x1="1945" x2="1945" y1="250.4648" y2="270.9531"/><rect fill="none" height="77.9531" rx="5" ry="5" style="stroke:#A80036;stroke-width:1.5;" width="506" x="1858" y="193"/><rect fill="#FEFECE" height="20.4883" rx="5" ry="5" style="stroke:#FEFECE;stroke-width:1.5;" width="376" x="1445" y="222"/><text fill="#000000" font-family="sans-serif" font-size="14" lengthAdjust="spacing" textLength="366" x="1450" y="237.5352">#/sdfObject/powersource/sdfProperty/powersources</text><rect fill="none" height="20.4883" rx="5" ry="5" style="stroke:#A80036;stroke-width:1.5;" width="376" x="1445" y="222"/><path d="M95,142 L108,142 C117.3442,142 126.8208,141.9198 136.3833,141.7688 " fill="none" style="stroke:#A80036;stroke-width:1.0;stroke-dasharray:3.0,3.0;"/><path d="M136.4378,144.8434 L138.6892,141.7279 L136.3288,138.6942 L144.0697,141.6326 L136.4378,144.8434 " fill="#A80036" style="stroke:#A80036;stroke-width:1.0;"/><ellipse cx="95" cy="142" fill="#A80036" rx="3" ry="3" style="stroke:#A80036;stroke-width:1.0;stroke-dasharray:3.0,3.0;"/><path d="M2488,92 L2501,92 C2510.3003,92 2520.0448,92 2529.7243,92 " fill="none" style="stroke:#A80036;stroke-width:1.0;stroke-dasharray:3.0,3.0;"/><path d="M2529.7243,95.0956 L2532.046,92 L2529.7243,88.9044 L2537.4633,92 L2529.7243,95.0956 " fill="#A80036" style="stroke:#A80036;stroke-width:1.0;"/><ellipse cx="2488" cy="92" fill="#A80036" rx="3" ry="3" style="stroke:#A80036;stroke-width:1.0;stroke-dasharray:3.0,3.0;"/><path d="M2174.5,103 L2187.5,103 C2258.519,103 2340.3459,103 2393.5058,103 " fill="none" style="stroke:#A80036;stroke-width:1.0;stroke-dasharray:3.0,3.0;"/><path d="M2393.5058,106.0522 L2395.795,103 L2393.5058,99.9478 L2401.1364,103 L2393.5058,106.0522 " fill="#A80036" style="stroke:#A80036;stroke-width:1.0;"/><ellipse cx="2174.5" cy="103" fill="#A80036" rx="3" ry="3" style="stroke:#A80036;stroke-width:1.0;stroke-dasharray:3.0,3.0;"/><path d="M1685.5,172 L1698.5,172 C1813.6078,172 1946.0439,157.1103 2029.0113,145.9718 " fill="none" style="stroke:#A80036;stroke-width:1.0;stroke-dasharray:3.0,3.0;"/><path d="M2029.424,149.0213 L2031.2984,145.6623 L2028.5986,142.9224 L2036.635,144.9402 L2029.424,149.0213 " fill="#A80036" style="stroke:#A80036;stroke-width:1.0;"/><ellipse cx="1685.5" cy="172" fill="#A80036" rx="3" ry="3" style="stroke:#A80036;stroke-width:1.0;stroke-dasharray:3.0,3.0;"/><path d="M1685.5,193 L1698.5,193 C1747.7898,193 1800.2494,195.8007 1850.6404,199.9012 " fill="none" style="stroke:#A80036;stroke-width:1.0;stroke-dasharray:3.0,3.0;"/><path d="M1850.3837,202.9985 L1852.9634,200.0936 L1850.897,196.8038 L1858.3837,200.5427 L1850.3837,202.9985 " fill="#A80036" style="stroke:#A80036;stroke-width:1.0;"/><ellipse cx="1685.5" cy="193" fill="#A80036" rx="3" ry="3" style="stroke:#A80036;stroke-width:1.0;stroke-dasharray:3.0,3.0;"/><path d="M1396,186 L1409,186 C1460.0676,186 1517.6928,185.2072 1561.6388,184.4368 " fill="none" style="stroke:#A80036;stroke-width:1.0;stroke-dasharray:3.0,3.0;"/><path d="M1561.6942,187.5421 L1563.9678,184.3953 L1561.5835,181.3314 L1569.4022,184.2984 L1561.6942,187.5421 " fill="#A80036" style="stroke:#A80036;stroke-width:1.0;"/><ellipse cx="1396" cy="186" fill="#A80036" rx="3" ry="3" style="stroke:#A80036;stroke-width:1.0;stroke-dasharray:3.0,3.0;"/><path d="M1396,229 L1409,229 C1418.3391,229 1427.8975,229.0265 1437.5515,229.0746 " fill="none" style="stroke:#A80036;stroke-width:1.0;stroke-dasharray:3.0,3.0;"/><path d="M1437.5343,232.1787 L1439.8796,229.0875 L1437.5687,225.9704 L1445.3119,229.1176 L1437.5343,232.1787 " fill="#A80036" style="stroke:#A80036;stroke-width:1.0;"/><ellipse cx="1396" cy="229" fill="#A80036" rx="3" ry="3" style="stroke:#A80036;stroke-width:1.0;stroke-dasharray:3.0,3.0;"/><path d="M521,187 L534,187 C629.8314,187 734.4557,187 828.5102,187 " fill="none" style="stroke:#A80036;stroke-width:1.0;stroke-dasharray:3.0,3.0;"/><path d="M828.5102,190.0471 L830.7955,187 L828.5102,183.9529 L836.1279,187 L828.5102,190.0471 " fill="#A80036" style="stroke:#A80036;stroke-width:1.0;"/><ellipse cx="521" cy="187" fill="#A80036" rx="3" ry="3" style="stroke:#A80036;stroke-width:1.0;stroke-dasharray:3.0,3.0;"/><path d="M95,163 L108,163 C124.1536,163 127.924,166.4191 144,168 C233.4599,176.7973 337.1189,181.9746 403.3326,184.6482 " fill="none" style="stroke:#A80036;stroke-width:1.0;stroke-dasharray:3.0,3.0;"/><path d="M403.2071,187.8025 L405.6983,184.7424 L403.4581,181.4939 L411.2184,184.962 L403.2071,187.8025 " fill="#A80036" style="stroke:#A80036;stroke-width:1.0;"/><ellipse cx="95" cy="163" fill="#A80036" rx="3" ry="3" style="stroke:#A80036;stroke-width:1.0;stroke-dasharray:3.0,3.0;"/><!--MD5=[bd027b21db104407c4a9d75db5965332]
@startjson
{
  "info": {
    "copyright": "copyright 2016-2017, 2019 Open Connectivity Foundation, Inc. All rights reserved.",
    "license": "https://github.com/one-data-model/oneDM/blob/master/LICENSE",
    "title": "PowerSource",
    "version": "2019-05-13"
  },
  "sdfObject": {
    "powersource": {
      "description": "This Resource list the available power sources for the Device. The\\nProperty \"powersources\" is a list that is read only and is\\ninformative only. If there is more than 1 power source active, use\\nmultiple Resources to indicate the active power sources. If the power\\nsource is unknown use the value \"unknown\".",
      "sdfProperty": {
        "powersources": {
          "items": {
            "enum": [
              "unknown",
              "DC power",
              "Internal Battery",
              "External Battery",
              "Power over Ethernet",
              "USB",
              "AC (Mains) Power",
              "Solar"
            ],
            "type": "string"
          },
          "minItems": 1,
          "uniqueItems": true,
          "type": "array"
        },
        "sourcefault": {
          "description": "Fault detected in currently active power source. True = fault\\ndetected",
          "writable": false,
          "type": "boolean"
        }
      },
      "sdfRequired": [
        "#/sdfObject/powersource/sdfProperty/powersources"
      ]
    }
  }
}
@endjson

PlantUML version 1.2021.2(Sun Mar 07 13:10:27 EET 2021)
(GPL source distribution)
Java Runtime: OpenJDK Runtime Environment
JVM: OpenJDK 64-Bit Server VM
Default Encoding: UTF-8
Language: en
Country: FI
--></g></svg>