<?xml version="1.0" encoding="UTF-8" standalone="no"?><svg xmlns="http://www.w3.org/2000/svg" xmlns:xlink="http://www.w3.org/1999/xlink" contentScriptType="application/ecmascript" contentStyleType="text/css" height="594px" preserveAspectRatio="none" style="width:2529px;height:594px;" version="1.1" viewBox="0 0 2529 594" width="2529px" zoomAndPan="magnify"><defs/><g><rect fill="#FEFECE" height="40.9766" rx="5" ry="5" style="stroke:#FEFECE;stroke-width:1.5;" width="97" x="10" y="194"/><text fill="#000000" font-family="sans-serif" font-size="14" lengthAdjust="spacing" textLength="27" x="15" y="209.5352">info</text><text fill="#000000" font-family="sans-serif" font-size="14" lengthAdjust="spacing" textLength="0" x="102" y="209.5352"/><line style="stroke:#A80036;stroke-width:1.0;" x1="85" x2="85" y1="194" y2="214.4883"/><line style="stroke:#A80036;stroke-width:1.0;" x1="10" x2="107" y1="214.4883" y2="214.4883"/><text fill="#000000" font-family="sans-serif" font-size="14" lengthAdjust="spacing" textLength="65" x="15" y="230.0234">sdfObject</text><text fill="#000000" font-family="sans-serif" font-size="14" lengthAdjust="spacing" textLength="0" x="102" y="230.0234"/><line style="stroke:#A80036;stroke-width:1.0;" x1="85" x2="85" y1="214.4883" y2="234.9766"/><rect fill="none" height="40.9766" rx="5" ry="5" style="stroke:#A80036;stroke-width:1.5;" width="97" x="10" y="194"/><rect fill="#FEFECE" height="81.9531" rx="5" ry="5" style="stroke:#FEFECE;stroke-width:1.5;" width="655" x="144" y="138.5"/><text fill="#000000" font-family="sans-serif" font-size="14" lengthAdjust="spacing" textLength="65" x="149" y="154.0352">copyright</text><text fill="#000000" font-family="sans-serif" font-size="14" lengthAdjust="spacing" textLength="570" x="224" y="154.0352">copyright 2016-2017, 2019 Open Connectivity Foundation, Inc. All rights reserved.</text><line style="stroke:#A80036;stroke-width:1.0;" x1="219" x2="219" y1="138.5" y2="158.9883"/><line style="stroke:#A80036;stroke-width:1.0;" x1="144" x2="799" y1="158.9883" y2="158.9883"/><text fill="#000000" font-family="sans-serif" font-size="14" lengthAdjust="spacing" textLength="47" x="149" y="174.5234">license</text><text fill="#000000" font-family="sans-serif" font-size="14" lengthAdjust="spacing" textLength="462" x="224" y="174.5234">https://github.com/one-data-model/oneDM/blob/master/LICENSE</text><line style="stroke:#A80036;stroke-width:1.0;" x1="219" x2="219" y1="158.9883" y2="179.4766"/><line style="stroke:#A80036;stroke-width:1.0;" x1="144" x2="799" y1="179.4766" y2="179.4766"/><text fill="#000000" font-family="sans-serif" font-size="14" lengthAdjust="spacing" textLength="26" x="149" y="195.0117">title</text><text fill="#000000" font-family="sans-serif" font-size="14" lengthAdjust="spacing" textLength="97" x="224" y="195.0117">Smoke Sensor</text><line style="stroke:#A80036;stroke-width:1.0;" x1="219" x2="219" y1="179.4766" y2="199.9648"/><line style="stroke:#A80036;stroke-width:1.0;" x1="144" x2="799" y1="199.9648" y2="199.9648"/><text fill="#000000" font-family="sans-serif" font-size="14" lengthAdjust="spacing" textLength="50" x="149" y="215.5">version</text><text fill="#000000" font-family="sans-serif" font-size="14" lengthAdjust="spacing" textLength="88" x="224" y="215.5">2019-11-18</text><line style="stroke:#A80036;stroke-width:1.0;" x1="219" x2="219" y1="199.9648" y2="220.4531"/><rect fill="none" height="81.9531" rx="5" ry="5" style="stroke:#A80036;stroke-width:1.5;" width="655" x="144" y="138.5"/><rect fill="#FEFECE" height="20.4883" rx="5" ry="5" style="stroke:#FEFECE;stroke-width:1.5;" width="127" x="408" y="238.5"/><text fill="#000000" font-family="sans-serif" font-size="14" lengthAdjust="spacing" textLength="95" x="413" y="254.0352">sensor.smoke</text><text fill="#000000" font-family="sans-serif" font-size="14" lengthAdjust="spacing" textLength="0" x="530" y="254.0352"/><line style="stroke:#A80036;stroke-width:1.0;" x1="513" x2="513" y1="238.5" y2="258.9883"/><rect fill="none" height="20.4883" rx="5" ry="5" style="stroke:#A80036;stroke-width:1.5;" width="127" x="408" y="238.5"/><rect fill="#FEFECE" height="94.4414" rx="5" ry="5" style="stroke:#FEFECE;stroke-width:1.5;" width="575" x="836" y="201.5"/><text fill="#000000" font-family="sans-serif" font-size="14" lengthAdjust="spacing" textLength="77" x="841" y="217.0352">description</text><text fill="#000000" font-family="sans-serif" font-size="14" lengthAdjust="spacing" textLength="472" x="934" y="217.0352">This Resource describes whether smoke has been sensed or not. The</text><text fill="#000000" font-family="sans-serif" font-size="14" lengthAdjust="spacing" textLength="466" x="934" y="233.5234">Property "value" is a boolean. A value of 'true' means that smoke has</text><text fill="#000000" font-family="sans-serif" font-size="14" lengthAdjust="spacing" textLength="454" x="934" y="250.0117">been sensed. A value of 'false' means that smoke not been sensed.</text><line style="stroke:#A80036;stroke-width:1.0;" x1="929" x2="929" y1="201.5" y2="254.9648"/><line style="stroke:#A80036;stroke-width:1.0;" x1="836" x2="1411" y1="254.9648" y2="254.9648"/><text fill="#000000" font-family="sans-serif" font-size="14" lengthAdjust="spacing" textLength="79" x="841" y="270.5">sdfProperty</text><text fill="#000000" font-family="sans-serif" font-size="14" lengthAdjust="spacing" textLength="0" x="946" y="270.5"/><line style="stroke:#A80036;stroke-width:1.0;" x1="929" x2="929" y1="254.9648" y2="275.4531"/><line style="stroke:#A80036;stroke-width:1.0;" x1="836" x2="1411" y1="275.4531" y2="275.4531"/><text fill="#000000" font-family="sans-serif" font-size="14" lengthAdjust="spacing" textLength="83" x="841" y="290.9883">sdfRequired</text><text fill="#000000" font-family="sans-serif" font-size="14" lengthAdjust="spacing" textLength="0" x="946" y="290.9883"/><line style="stroke:#A80036;stroke-width:1.0;" x1="929" x2="929" y1="275.4531" y2="295.9414"/><rect fill="none" height="94.4414" rx="5" ry="5" style="stroke:#A80036;stroke-width:1.5;" width="575" x="836" y="201.5"/><rect fill="#FEFECE" height="102.4414" rx="5" ry="5" style="stroke:#FEFECE;stroke-width:1.5;" width="126" x="1546" y="173.5"/><text fill="#000000" font-family="sans-serif" font-size="14" lengthAdjust="spacing" textLength="36" x="1551" y="189.0352">value</text><text fill="#000000" font-family="sans-serif" font-size="14" lengthAdjust="spacing" textLength="0" x="1667" y="189.0352"/><line style="stroke:#A80036;stroke-width:1.0;" x1="1650" x2="1650" y1="173.5" y2="193.9883"/><line style="stroke:#A80036;stroke-width:1.0;" x1="1546" x2="1672" y1="193.9883" y2="193.9883"/><text fill="#000000" font-family="sans-serif" font-size="14" lengthAdjust="spacing" textLength="94" x="1551" y="209.5234">measurement</text><text fill="#000000" font-family="sans-serif" font-size="14" lengthAdjust="spacing" textLength="0" x="1667" y="209.5234"/><line style="stroke:#A80036;stroke-width:1.0;" x1="1650" x2="1650" y1="193.9883" y2="214.4766"/><line style="stroke:#A80036;stroke-width:1.0;" x1="1546" x2="1672" y1="214.4766" y2="214.4766"/><text fill="#000000" font-family="sans-serif" font-size="14" lengthAdjust="spacing" textLength="63" x="1551" y="230.0117">precision</text><text fill="#000000" font-family="sans-serif" font-size="14" lengthAdjust="spacing" textLength="0" x="1667" y="230.0117"/><line style="stroke:#A80036;stroke-width:1.0;" x1="1650" x2="1650" y1="214.4766" y2="234.9648"/><line style="stroke:#A80036;stroke-width:1.0;" x1="1546" x2="1672" y1="234.9648" y2="234.9648"/><text fill="#000000" font-family="sans-serif" font-size="14" lengthAdjust="spacing" textLength="40" x="1551" y="250.5">range</text><text fill="#000000" font-family="sans-serif" font-size="14" lengthAdjust="spacing" textLength="0" x="1667" y="250.5"/><line style="stroke:#A80036;stroke-width:1.0;" x1="1650" x2="1650" y1="234.9648" y2="255.4531"/><line style="stroke:#A80036;stroke-width:1.0;" x1="1546" x2="1672" y1="255.4531" y2="255.4531"/><text fill="#000000" font-family="sans-serif" font-size="14" lengthAdjust="spacing" textLength="29" x="1551" y="270.9883">step</text><text fill="#000000" font-family="sans-serif" font-size="14" lengthAdjust="spacing" textLength="0" x="1667" y="270.9883"/><line style="stroke:#A80036;stroke-width:1.0;" x1="1650" x2="1650" y1="255.4531" y2="275.9414"/><rect fill="none" height="102.4414" rx="5" ry="5" style="stroke:#A80036;stroke-width:1.5;" width="126" x="1546" y="173.5"/><rect fill="#FEFECE" height="61.4648" rx="5" ry="5" style="stroke:#FEFECE;stroke-width:1.5;" width="478" x="1853" y="10"/><text fill="#000000" font-family="sans-serif" font-size="14" lengthAdjust="spacing" textLength="77" x="1858" y="25.5352">description</text><text fill="#000000" font-family="sans-serif" font-size="14" lengthAdjust="spacing" textLength="381" x="1945" y="25.5352">The smoke indicator, true = sensed, false = not sensed.</text><line style="stroke:#A80036;stroke-width:1.0;" x1="1940" x2="1940" y1="10" y2="30.4883"/><line style="stroke:#A80036;stroke-width:1.0;" x1="1853" x2="2331" y1="30.4883" y2="30.4883"/><text fill="#000000" font-family="sans-serif" font-size="14" lengthAdjust="spacing" textLength="55" x="1858" y="46.0234">writable</text><text fill="#000000" font-family="sans-serif" font-size="14" lengthAdjust="spacing" textLength="48" x="1945" y="46.0234">☐ false</text><line style="stroke:#A80036;stroke-width:1.0;" x1="1940" x2="1940" y1="30.4883" y2="50.9766"/><line style="stroke:#A80036;stroke-width:1.0;" x1="1853" x2="2331" y1="50.9766" y2="50.9766"/><text fill="#000000" font-family="sans-serif" font-size="14" lengthAdjust="spacing" textLength="29" x="1858" y="66.5117">type</text><text fill="#000000" font-family="sans-serif" font-size="14" lengthAdjust="spacing" textLength="56" x="1945" y="66.5117">boolean</text><line style="stroke:#A80036;stroke-width:1.0;" x1="1940" x2="1940" y1="50.9766" y2="71.4648"/><rect fill="none" height="61.4648" rx="5" ry="5" style="stroke:#A80036;stroke-width:1.5;" width="478" x="1853" y="10"/><rect fill="#FEFECE" height="61.4648" rx="5" ry="5" style="stroke:#FEFECE;stroke-width:1.5;" width="448" x="1868" y="89"/><text fill="#000000" font-family="sans-serif" font-size="14" lengthAdjust="spacing" textLength="29" x="1873" y="104.5352">type</text><text fill="#000000" font-family="sans-serif" font-size="14" lengthAdjust="spacing" textLength="54" x="1960" y="104.5352">number</text><line style="stroke:#A80036;stroke-width:1.0;" x1="1955" x2="1955" y1="89" y2="109.4883"/><line style="stroke:#A80036;stroke-width:1.0;" x1="1868" x2="2316" y1="109.4883" y2="109.4883"/><text fill="#000000" font-family="sans-serif" font-size="14" lengthAdjust="spacing" textLength="77" x="1873" y="125.0234">description</text><text fill="#000000" font-family="sans-serif" font-size="14" lengthAdjust="spacing" textLength="351" x="1960" y="125.0234">Measured value for this sensor, this is a percentage</text><line style="stroke:#A80036;stroke-width:1.0;" x1="1955" x2="1955" y1="109.4883" y2="129.9766"/><line style="stroke:#A80036;stroke-width:1.0;" x1="1868" x2="2316" y1="129.9766" y2="129.9766"/><text fill="#000000" font-family="sans-serif" font-size="14" lengthAdjust="spacing" textLength="55" x="1873" y="145.5117">writable</text><text fill="#000000" font-family="sans-serif" font-size="14" lengthAdjust="spacing" textLength="48" x="1960" y="145.5117">☐ false</text><line style="stroke:#A80036;stroke-width:1.0;" x1="1955" x2="1955" y1="129.9766" y2="150.4648"/><rect fill="none" height="61.4648" rx="5" ry="5" style="stroke:#A80036;stroke-width:1.5;" width="448" x="1868" y="89"/><rect fill="#FEFECE" height="110.9297" rx="5" ry="5" style="stroke:#FEFECE;stroke-width:1.5;" width="570" x="1807" y="168"/><text fill="#000000" font-family="sans-serif" font-size="14" lengthAdjust="spacing" textLength="29" x="1812" y="183.5352">type</text><text fill="#000000" font-family="sans-serif" font-size="14" lengthAdjust="spacing" textLength="54" x="1899" y="183.5352">number</text><line style="stroke:#A80036;stroke-width:1.0;" x1="1894" x2="1894" y1="168" y2="188.4883"/><line style="stroke:#A80036;stroke-width:1.0;" x1="1807" x2="2377" y1="188.4883" y2="188.4883"/><text fill="#000000" font-family="sans-serif" font-size="14" lengthAdjust="spacing" textLength="55" x="1812" y="204.0234">writable</text><text fill="#000000" font-family="sans-serif" font-size="14" lengthAdjust="spacing" textLength="48" x="1899" y="204.0234">☐ false</text><line style="stroke:#A80036;stroke-width:1.0;" x1="1894" x2="1894" y1="188.4883" y2="208.9766"/><line style="stroke:#A80036;stroke-width:1.0;" x1="1807" x2="2377" y1="208.9766" y2="208.9766"/><text fill="#000000" font-family="sans-serif" font-size="14" lengthAdjust="spacing" textLength="77" x="1812" y="224.5117">description</text><text fill="#000000" font-family="sans-serif" font-size="14" lengthAdjust="spacing" textLength="430" x="1899" y="224.5117">When exposed the value in 'precision' provides a +/- tolerance</text><text fill="#000000" font-family="sans-serif" font-size="14" lengthAdjust="spacing" textLength="473" x="1899" y="241">against the Properties in the Resource. Thus if a Property is UPDATED</text><text fill="#000000" font-family="sans-serif" font-size="14" lengthAdjust="spacing" textLength="465" x="1899" y="257.4883">to a value and that Property then RETRIEVED, the RETRIEVED value is</text><text fill="#000000" font-family="sans-serif" font-size="14" lengthAdjust="spacing" textLength="337" x="1899" y="273.9766">valid if in the range of the set value +/- precision</text><line style="stroke:#A80036;stroke-width:1.0;" x1="1894" x2="1894" y1="208.9766" y2="278.9297"/><rect fill="none" height="110.9297" rx="5" ry="5" style="stroke:#A80036;stroke-width:1.5;" width="570" x="1807" y="168"/><rect fill="#FEFECE" height="155.9063" rx="5" ry="5" style="stroke:#FEFECE;stroke-width:1.5;" width="548" x="1818" y="297.5"/><text fill="#000000" font-family="sans-serif" font-size="14" lengthAdjust="spacing" textLength="29" x="1823" y="313.0352">type</text><text fill="#000000" font-family="sans-serif" font-size="14" lengthAdjust="spacing" textLength="35" x="1910" y="313.0352">array</text><line style="stroke:#A80036;stroke-width:1.0;" x1="1905" x2="1905" y1="297.5" y2="317.9883"/><line style="stroke:#A80036;stroke-width:1.0;" x1="1818" x2="2366" y1="317.9883" y2="317.9883"/><text fill="#000000" font-family="sans-serif" font-size="14" lengthAdjust="spacing" textLength="77" x="1823" y="333.5234">description</text><text fill="#000000" font-family="sans-serif" font-size="14" lengthAdjust="spacing" textLength="451" x="1910" y="333.5234">The valid range for the Property in the Resource as a number. The</text><text fill="#000000" font-family="sans-serif" font-size="14" lengthAdjust="spacing" textLength="439" x="1910" y="350.0117">first value in the array is the minimum value, the second value in</text><text fill="#000000" font-family="sans-serif" font-size="14" lengthAdjust="spacing" textLength="219" x="1910" y="366.5">the array is the maximum value.</text><line style="stroke:#A80036;stroke-width:1.0;" x1="1905" x2="1905" y1="317.9883" y2="371.4531"/><line style="stroke:#A80036;stroke-width:1.0;" x1="1818" x2="2366" y1="371.4531" y2="371.4531"/><text fill="#000000" font-family="sans-serif" font-size="14" lengthAdjust="spacing" textLength="55" x="1823" y="386.9883">writable</text><text fill="#000000" font-family="sans-serif" font-size="14" lengthAdjust="spacing" textLength="48" x="1910" y="386.9883">☐ false</text><line style="stroke:#A80036;stroke-width:1.0;" x1="1905" x2="1905" y1="371.4531" y2="391.9414"/><line style="stroke:#A80036;stroke-width:1.0;" x1="1818" x2="2366" y1="391.9414" y2="391.9414"/><text fill="#000000" font-family="sans-serif" font-size="14" lengthAdjust="spacing" textLength="63" x="1823" y="407.4766">minItems</text><text fill="#000000" font-family="sans-serif" font-size="14" lengthAdjust="spacing" textLength="9" x="1910" y="407.4766">2</text><line style="stroke:#A80036;stroke-width:1.0;" x1="1905" x2="1905" y1="391.9414" y2="412.4297"/><line style="stroke:#A80036;stroke-width:1.0;" x1="1818" x2="2366" y1="412.4297" y2="412.4297"/><text fill="#000000" font-family="sans-serif" font-size="14" lengthAdjust="spacing" textLength="67" x="1823" y="427.9648">maxItems</text><text fill="#000000" font-family="sans-serif" font-size="14" lengthAdjust="spacing" textLength="9" x="1910" y="427.9648">2</text><line style="stroke:#A80036;stroke-width:1.0;" x1="1905" x2="1905" y1="412.4297" y2="432.918"/><line style="stroke:#A80036;stroke-width:1.0;" x1="1818" x2="2366" y1="432.918" y2="432.918"/><text fill="#000000" font-family="sans-serif" font-size="14" lengthAdjust="spacing" textLength="37" x="1823" y="448.4531">items</text><text fill="#000000" font-family="sans-serif" font-size="14" lengthAdjust="spacing" textLength="0" x="1922" y="448.4531"/><line style="stroke:#A80036;stroke-width:1.0;" x1="1905" x2="1905" y1="432.918" y2="453.4063"/><rect fill="none" height="155.9063" rx="5" ry="5" style="stroke:#A80036;stroke-width:1.5;" width="548" x="1818" y="297.5"/><rect fill="#FEFECE" height="20.4883" rx="5" ry="5" style="stroke:#FEFECE;stroke-width:1.5;" width="103" x="2414" y="430.5"/><text fill="#000000" font-family="sans-serif" font-size="14" lengthAdjust="spacing" textLength="29" x="2419" y="446.0352">type</text><text fill="#000000" font-family="sans-serif" font-size="14" lengthAdjust="spacing" textLength="54" x="2458" y="446.0352">number</text><line style="stroke:#A80036;stroke-width:1.0;" x1="2453" x2="2453" y1="430.5" y2="450.9883"/><rect fill="none" height="20.4883" rx="5" ry="5" style="stroke:#A80036;stroke-width:1.5;" width="103" x="2414" y="430.5"/><rect fill="#FEFECE" height="110.9297" rx="5" ry="5" style="stroke:#FEFECE;stroke-width:1.5;" width="555" x="1814.5" y="472"/><text fill="#000000" font-family="sans-serif" font-size="14" lengthAdjust="spacing" textLength="77" x="1819.5" y="487.5352">description</text><text fill="#000000" font-family="sans-serif" font-size="14" lengthAdjust="spacing" textLength="456" x="1906.5" y="487.5352">Step value across the defined range an integer when the range is a</text><text fill="#000000" font-family="sans-serif" font-size="14" lengthAdjust="spacing" textLength="458" x="1906.5" y="504.0234">number.  This is the increment for valid values across the range; so</text><text fill="#000000" font-family="sans-serif" font-size="14" lengthAdjust="spacing" textLength="381" x="1906.5" y="520.5117">if range is 0.0..10.0 and step is 2.5 then valid values are</text><text fill="#000000" font-family="sans-serif" font-size="14" lengthAdjust="spacing" textLength="139" x="1906.5" y="537">0.0,2.5,5.0,7.5,10.0.</text><line style="stroke:#A80036;stroke-width:1.0;" x1="1901.5" x2="1901.5" y1="472" y2="541.9531"/><line style="stroke:#A80036;stroke-width:1.0;" x1="1814.5" x2="2369.5" y1="541.9531" y2="541.9531"/><text fill="#000000" font-family="sans-serif" font-size="14" lengthAdjust="spacing" textLength="55" x="1819.5" y="557.4883">writable</text><text fill="#000000" font-family="sans-serif" font-size="14" lengthAdjust="spacing" textLength="48" x="1906.5" y="557.4883">☐ false</text><line style="stroke:#A80036;stroke-width:1.0;" x1="1901.5" x2="1901.5" y1="541.9531" y2="562.4414"/><line style="stroke:#A80036;stroke-width:1.0;" x1="1814.5" x2="2369.5" y1="562.4414" y2="562.4414"/><text fill="#000000" font-family="sans-serif" font-size="14" lengthAdjust="spacing" textLength="29" x="1819.5" y="577.9766">type</text><text fill="#000000" font-family="sans-serif" font-size="14" lengthAdjust="spacing" textLength="54" x="1906.5" y="577.9766">number</text><line style="stroke:#A80036;stroke-width:1.0;" x1="1901.5" x2="1901.5" y1="562.4414" y2="582.9297"/><rect fill="none" height="110.9297" rx="5" ry="5" style="stroke:#A80036;stroke-width:1.5;" width="555" x="1814.5" y="472"/><rect fill="#FEFECE" height="20.4883" rx="5" ry="5" style="stroke:#FEFECE;stroke-width:1.5;" width="322" x="1448" y="293.5"/><text fill="#000000" font-family="sans-serif" font-size="14" lengthAdjust="spacing" textLength="312" x="1453" y="309.0352">#/sdfObject/sensor.smoke/sdfProperty/value</text><rect fill="none" height="20.4883" rx="5" ry="5" style="stroke:#A80036;stroke-width:1.5;" width="322" x="1448" y="293.5"/><path d="M95,203.5 L108,203.5 C117.3442,203.5 126.8208,203.4198 136.3833,203.2688 " fill="none" style="stroke:#A80036;stroke-width:1.0;stroke-dasharray:3.0,3.0;"/><path d="M136.4378,206.3434 L138.6892,203.2279 L136.3288,200.1942 L144.0697,203.1326 L136.4378,206.3434 " fill="#A80036" style="stroke:#A80036;stroke-width:1.0;"/><ellipse cx="95" cy="203.5" fill="#A80036" rx="3" ry="3" style="stroke:#A80036;stroke-width:1.0;stroke-dasharray:3.0,3.0;"/><path d="M1660.5,183.5 L1673.5,183.5 C1748.4403,183.5 1737.9292,109.5735 1807,80.5 C1819.5093,75.2346 1832.5736,70.6365 1845.9337,66.6236 " fill="none" style="stroke:#A80036;stroke-width:1.0;stroke-dasharray:3.0,3.0;"/><path d="M1846.8016,69.604 L1848.169,65.9726 L1845.0658,63.6431 L1853.3847,64.4538 L1846.8016,69.604 " fill="#A80036" style="stroke:#A80036;stroke-width:1.0;"/><ellipse cx="1660.5" cy="183.5" fill="#A80036" rx="3" ry="3" style="stroke:#A80036;stroke-width:1.0;stroke-dasharray:3.0,3.0;"/><path d="M1660.5,203.5 L1673.5,203.5 C1735.9729,203.5 1746.1584,173.6833 1807,159.5 C1824.3203,155.4623 1842.3349,151.7734 1860.5145,148.4144 " fill="none" style="stroke:#A80036;stroke-width:1.0;stroke-dasharray:3.0,3.0;"/><path d="M1861.0822,151.5343 L1862.8544,147.9886 L1859.9467,145.2945 L1868.3143,146.995 L1861.0822,151.5343 " fill="#A80036" style="stroke:#A80036;stroke-width:1.0;"/><ellipse cx="1660.5" cy="203.5" fill="#A80036" rx="3" ry="3" style="stroke:#A80036;stroke-width:1.0;stroke-dasharray:3.0,3.0;"/><path d="M1660.5,223.5 L1673.5,223.5 C1714.3187,223.5 1757.3796,223.5 1799.7268,223.5 " fill="none" style="stroke:#A80036;stroke-width:1.0;stroke-dasharray:3.0,3.0;"/><path d="M1799.7268,226.5478 L1802.0126,223.5 L1799.7268,220.4522 L1807.3462,223.5 L1799.7268,226.5478 " fill="#A80036" style="stroke:#A80036;stroke-width:1.0;"/><ellipse cx="1660.5" cy="223.5" fill="#A80036" rx="3" ry="3" style="stroke:#A80036;stroke-width:1.0;stroke-dasharray:3.0,3.0;"/><path d="M2354.5,440.5 L2367.5,440.5 C2380.235,440.5 2393.9056,440.5 2406.8621,440.5 " fill="none" style="stroke:#A80036;stroke-width:1.0;stroke-dasharray:3.0,3.0;"/><path d="M2406.8621,443.5134 L2409.1221,440.5 L2406.8621,437.4866 L2414.3956,440.5 L2406.8621,443.5134 " fill="#A80036" style="stroke:#A80036;stroke-width:1.0;"/><ellipse cx="2354.5" cy="440.5" fill="#A80036" rx="3" ry="3" style="stroke:#A80036;stroke-width:1.0;stroke-dasharray:3.0,3.0;"/><path d="M1660.5,244.5 L1673.5,244.5 C1735.9729,244.5 1747.4589,269.5866 1807,288.5 C1813.7782,290.6531 1820.6504,292.8263 1827.5867,295.0112 " fill="none" style="stroke:#A80036;stroke-width:1.0;stroke-dasharray:3.0,3.0;"/><path d="M1826.6367,298.0314 L1829.8519,295.7237 L1828.5367,291.991 L1835.1372,297.3862 L1826.6367,298.0314 " fill="#A80036" style="stroke:#A80036;stroke-width:1.0;"/><ellipse cx="1660.5" cy="244.5" fill="#A80036" rx="3" ry="3" style="stroke:#A80036;stroke-width:1.0;stroke-dasharray:3.0,3.0;"/><path d="M1660.5,265.5 L1673.5,265.5 C1717.6485,265.5 1739.6718,253.3933 1771,284.5 C1828.2747,341.3698 1750.647,404.7167 1807,462.5 C1808.3928,463.9282 1809.8102,465.3278 1811.2508,466.6995 " fill="none" style="stroke:#A80036;stroke-width:1.0;stroke-dasharray:3.0,3.0;"/><path d="M1809.1897,468.9677 L1812.952,468.2453 L1813.3119,464.4312 L1816.9214,471.8522 L1809.1897,468.9677 " fill="#A80036" style="stroke:#A80036;stroke-width:1.0;"/><ellipse cx="1660.5" cy="265.5" fill="#A80036" rx="3" ry="3" style="stroke:#A80036;stroke-width:1.0;stroke-dasharray:3.0,3.0;"/><path d="M1399,247.5 L1412,247.5 C1454.1676,247.5 1501.0821,242.2105 1538.493,236.7048 " fill="none" style="stroke:#A80036;stroke-width:1.0;stroke-dasharray:3.0,3.0;"/><path d="M1538.9636,239.8382 L1540.8432,236.3519 L1538.0225,233.5713 L1546.3268,235.5284 L1538.9636,239.8382 " fill="#A80036" style="stroke:#A80036;stroke-width:1.0;"/><ellipse cx="1399" cy="247.5" fill="#A80036" rx="3" ry="3" style="stroke:#A80036;stroke-width:1.0;stroke-dasharray:3.0,3.0;"/><path d="M1399,279.5 L1412,279.5 C1428.1536,279.5 1431.9784,282.4393 1448,284.5 C1469.1605,287.2217 1491.9099,290.0027 1513.4376,292.5678 " fill="none" style="stroke:#A80036;stroke-width:1.0;stroke-dasharray:3.0,3.0;"/><path d="M1513.0784,295.5914 L1515.7053,292.8371 L1513.7967,289.5442 L1520.9966,293.4656 L1513.0784,295.5914 " fill="#A80036" style="stroke:#A80036;stroke-width:1.0;"/><ellipse cx="1399" cy="279.5" fill="#A80036" rx="3" ry="3" style="stroke:#A80036;stroke-width:1.0;stroke-dasharray:3.0,3.0;"/><path d="M524,248.5 L537,248.5 C631.9677,248.5 735.5925,248.5 828.9341,248.5 " fill="none" style="stroke:#A80036;stroke-width:1.0;stroke-dasharray:3.0,3.0;"/><path d="M828.9341,251.5242 L831.2023,248.5 L828.9341,245.4758 L836.4946,248.5 L828.9341,251.5242 " fill="#A80036" style="stroke:#A80036;stroke-width:1.0;"/><ellipse cx="524" cy="248.5" fill="#A80036" rx="3" ry="3" style="stroke:#A80036;stroke-width:1.0;stroke-dasharray:3.0,3.0;"/><path d="M95,224.5 L108,224.5 C124.1536,224.5 127.924,227.9191 144,229.5 C232.2794,238.1812 334.3856,243.3373 400.6919,246.0411 " fill="none" style="stroke:#A80036;stroke-width:1.0;stroke-dasharray:3.0,3.0;"/><path d="M400.5712,249.0426 L402.9431,246.1316 L400.8126,243.0395 L408.1958,246.3428 L400.5712,249.0426 " fill="#A80036" style="stroke:#A80036;stroke-width:1.0;"/><ellipse cx="95" cy="224.5" fill="#A80036" rx="3" ry="3" style="stroke:#A80036;stroke-width:1.0;stroke-dasharray:3.0,3.0;"/><!--MD5=[b97606e51206da8838f4edce0d6799e0]
@startjson
{
  "info": {
    "copyright": "copyright 2016-2017, 2019 Open Connectivity Foundation, Inc. All rights reserved.",
    "license": "https://github.com/one-data-model/oneDM/blob/master/LICENSE",
    "title": "Smoke Sensor",
    "version": "2019-11-18"
  },
  "sdfObject": {
    "sensor.smoke": {
      "description": "This Resource describes whether smoke has been sensed or not. The\\nProperty \"value\" is a boolean. A value of 'true' means that smoke has\\nbeen sensed. A value of 'false' means that smoke not been sensed.",
      "sdfProperty": {
        "value": {
          "description": "The smoke indicator, true = sensed, false = not sensed.",
          "writable": false,
          "type": "boolean"
        },
        "measurement": {
          "type": "number",
          "description": "Measured value for this sensor, this is a percentage",
          "writable": false
        },
        "precision": {
          "type": "number",
          "writable": false,
          "description": "When exposed the value in 'precision' provides a +/- tolerance\\nagainst the Properties in the Resource. Thus if a Property is UPDATED\\nto a value and that Property then RETRIEVED, the RETRIEVED value is\\nvalid if in the range of the set value +/- precision"
        },
        "range": {
          "type": "array",
          "description": "The valid range for the Property in the Resource as a number. The\\nfirst value in the array is the minimum value, the second value in\\nthe array is the maximum value.",
          "writable": false,
          "minItems": 2,
          "maxItems": 2,
          "items": {
            "type": "number"
          }
        },
        "step": {
          "description": "Step value across the defined range an integer when the range is a\\nnumber.  This is the increment for valid values across the range; so\\nif range is 0.0..10.0 and step is 2.5 then valid values are\\n0.0,2.5,5.0,7.5,10.0.",
          "writable": false,
          "type": "number"
        }
      },
      "sdfRequired": [
        "#/sdfObject/sensor.smoke/sdfProperty/value"
      ]
    }
  }
}
@endjson

PlantUML version 1.2021.2(Sun Mar 07 13:10:27 EET 2021)
(GPL source distribution)
Java Runtime: OpenJDK Runtime Environment
JVM: OpenJDK 64-Bit Server VM
Default Encoding: UTF-8
Language: en
Country: FI
--></g></svg>