<?xml version="1.0" encoding="UTF-8" standalone="no"?><svg xmlns="http://www.w3.org/2000/svg" xmlns:xlink="http://www.w3.org/1999/xlink" contentScriptType="application/ecmascript" contentStyleType="text/css" height="212px" preserveAspectRatio="none" style="width:2288px;height:212px;" version="1.1" viewBox="0 0 2288 212" width="2288px" zoomAndPan="magnify"><defs/><g><rect fill="#FEFECE" height="40.9766" rx="5" ry="5" style="stroke:#FEFECE;stroke-width:1.5;" width="97" x="10" y="65.5"/><text fill="#000000" font-family="sans-serif" font-size="14" lengthAdjust="spacing" textLength="27" x="15" y="81.0352">info</text><text fill="#000000" font-family="sans-serif" font-size="14" lengthAdjust="spacing" textLength="0" x="102" y="81.0352"/><line style="stroke:#A80036;stroke-width:1.0;" x1="85" x2="85" y1="65.5" y2="85.9883"/><line style="stroke:#A80036;stroke-width:1.0;" x1="10" x2="107" y1="85.9883" y2="85.9883"/><text fill="#000000" font-family="sans-serif" font-size="14" lengthAdjust="spacing" textLength="65" x="15" y="101.5234">sdfObject</text><text fill="#000000" font-family="sans-serif" font-size="14" lengthAdjust="spacing" textLength="0" x="102" y="101.5234"/><line style="stroke:#A80036;stroke-width:1.0;" x1="85" x2="85" y1="85.9883" y2="106.4766"/><rect fill="none" height="40.9766" rx="5" ry="5" style="stroke:#A80036;stroke-width:1.5;" width="97" x="10" y="65.5"/><rect fill="#FEFECE" height="81.9531" rx="5" ry="5" style="stroke:#FEFECE;stroke-width:1.5;" width="655" x="144" y="10"/><text fill="#000000" font-family="sans-serif" font-size="14" lengthAdjust="spacing" textLength="65" x="149" y="25.5352">copyright</text><text fill="#000000" font-family="sans-serif" font-size="14" lengthAdjust="spacing" textLength="570" x="224" y="25.5352">copyright 2016-2017, 2019 Open Connectivity Foundation, Inc. All rights reserved.</text><line style="stroke:#A80036;stroke-width:1.0;" x1="219" x2="219" y1="10" y2="30.4883"/><line style="stroke:#A80036;stroke-width:1.0;" x1="144" x2="799" y1="30.4883" y2="30.4883"/><text fill="#000000" font-family="sans-serif" font-size="14" lengthAdjust="spacing" textLength="47" x="149" y="46.0234">license</text><text fill="#000000" font-family="sans-serif" font-size="14" lengthAdjust="spacing" textLength="462" x="224" y="46.0234">https://github.com/one-data-model/oneDM/blob/master/LICENSE</text><line style="stroke:#A80036;stroke-width:1.0;" x1="219" x2="219" y1="30.4883" y2="50.9766"/><line style="stroke:#A80036;stroke-width:1.0;" x1="144" x2="799" y1="50.9766" y2="50.9766"/><text fill="#000000" font-family="sans-serif" font-size="14" lengthAdjust="spacing" textLength="26" x="149" y="66.5117">title</text><text fill="#000000" font-family="sans-serif" font-size="14" lengthAdjust="spacing" textLength="91" x="224" y="66.5117">Heating Zone</text><line style="stroke:#A80036;stroke-width:1.0;" x1="219" x2="219" y1="50.9766" y2="71.4648"/><line style="stroke:#A80036;stroke-width:1.0;" x1="144" x2="799" y1="71.4648" y2="71.4648"/><text fill="#000000" font-family="sans-serif" font-size="14" lengthAdjust="spacing" textLength="50" x="149" y="87">version</text><text fill="#000000" font-family="sans-serif" font-size="14" lengthAdjust="spacing" textLength="88" x="224" y="87">2019-02-15</text><line style="stroke:#A80036;stroke-width:1.0;" x1="219" x2="219" y1="71.4648" y2="91.9531"/><rect fill="none" height="81.9531" rx="5" ry="5" style="stroke:#A80036;stroke-width:1.5;" width="655" x="144" y="10"/><rect fill="#FEFECE" height="20.4883" rx="5" ry="5" style="stroke:#FEFECE;stroke-width:1.5;" width="118" x="412.5" y="110"/><text fill="#000000" font-family="sans-serif" font-size="14" lengthAdjust="spacing" textLength="86" x="417.5" y="125.5352">heatingzone</text><text fill="#000000" font-family="sans-serif" font-size="14" lengthAdjust="spacing" textLength="0" x="525.5" y="125.5352"/><line style="stroke:#A80036;stroke-width:1.0;" x1="508.5" x2="508.5" y1="110" y2="130.4883"/><rect fill="none" height="20.4883" rx="5" ry="5" style="stroke:#A80036;stroke-width:1.5;" width="118" x="412.5" y="110"/><rect fill="#FEFECE" height="160.3945" rx="5" ry="5" style="stroke:#FEFECE;stroke-width:1.5;" width="597" x="836" y="40"/><text fill="#000000" font-family="sans-serif" font-size="14" lengthAdjust="spacing" textLength="77" x="841" y="55.5352">description</text><text fill="#000000" font-family="sans-serif" font-size="14" lengthAdjust="spacing" textLength="444" x="934" y="55.5352">This Resource provides information about the status of a (single)</text><text fill="#000000" font-family="sans-serif" font-size="14" lengthAdjust="spacing" textLength="494" x="934" y="72.0234">heating zone of a Cook-Top. It describes the case of a Cook-Top whose</text><text fill="#000000" font-family="sans-serif" font-size="14" lengthAdjust="spacing" textLength="456" x="934" y="88.5117">zones can be activated dynamically (i. e. the device implements pot</text><text fill="#000000" font-family="sans-serif" font-size="14" lengthAdjust="spacing" textLength="456" x="934" y="105">recognition). The Property "maxheatinglevel" defines the max level</text><text fill="#000000" font-family="sans-serif" font-size="14" lengthAdjust="spacing" textLength="424" x="934" y="121.4883">for the heating zone The Property "heatinglevel" is the current</text><text fill="#000000" font-family="sans-serif" font-size="14" lengthAdjust="spacing" textLength="470" x="934" y="137.9766">heating level of the zone For each element, the value range is from 0</text><text fill="#000000" font-family="sans-serif" font-size="14" lengthAdjust="spacing" textLength="420" x="934" y="154.4648">(indication that the zone is not heating) to "maxheatinglevel".</text><line style="stroke:#A80036;stroke-width:1.0;" x1="929" x2="929" y1="40" y2="159.418"/><line style="stroke:#A80036;stroke-width:1.0;" x1="836" x2="1433" y1="159.418" y2="159.418"/><text fill="#000000" font-family="sans-serif" font-size="14" lengthAdjust="spacing" textLength="79" x="841" y="174.9531">sdfProperty</text><text fill="#000000" font-family="sans-serif" font-size="14" lengthAdjust="spacing" textLength="0" x="946" y="174.9531"/><line style="stroke:#A80036;stroke-width:1.0;" x1="929" x2="929" y1="159.418" y2="179.9063"/><line style="stroke:#A80036;stroke-width:1.0;" x1="836" x2="1433" y1="179.9063" y2="179.9063"/><text fill="#000000" font-family="sans-serif" font-size="14" lengthAdjust="spacing" textLength="83" x="841" y="195.4414">sdfRequired</text><text fill="#000000" font-family="sans-serif" font-size="14" lengthAdjust="spacing" textLength="0" x="946" y="195.4414"/><line style="stroke:#A80036;stroke-width:1.0;" x1="929" x2="929" y1="179.9063" y2="200.3945"/><rect fill="none" height="160.3945" rx="5" ry="5" style="stroke:#A80036;stroke-width:1.5;" width="597" x="836" y="40"/><rect fill="#FEFECE" height="40.9766" rx="5" ry="5" style="stroke:#FEFECE;stroke-width:1.5;" width="145" x="1592.5" y="96.5"/><text fill="#000000" font-family="sans-serif" font-size="14" lengthAdjust="spacing" textLength="83" x="1597.5" y="112.0352">heatinglevel</text><text fill="#000000" font-family="sans-serif" font-size="14" lengthAdjust="spacing" textLength="0" x="1732.5" y="112.0352"/><line style="stroke:#A80036;stroke-width:1.0;" x1="1715.5" x2="1715.5" y1="96.5" y2="116.9883"/><line style="stroke:#A80036;stroke-width:1.0;" x1="1592.5" x2="1737.5" y1="116.9883" y2="116.9883"/><text fill="#000000" font-family="sans-serif" font-size="14" lengthAdjust="spacing" textLength="113" x="1597.5" y="132.5234">maxheatinglevel</text><text fill="#000000" font-family="sans-serif" font-size="14" lengthAdjust="spacing" textLength="0" x="1732.5" y="132.5234"/><line style="stroke:#A80036;stroke-width:1.0;" x1="1715.5" x2="1715.5" y1="116.9883" y2="137.4766"/><rect fill="none" height="40.9766" rx="5" ry="5" style="stroke:#A80036;stroke-width:1.5;" width="145" x="1592.5" y="96.5"/><rect fill="#FEFECE" height="61.4648" rx="5" ry="5" style="stroke:#FEFECE;stroke-width:1.5;" width="360" x="1906.5" y="46.5"/><text fill="#000000" font-family="sans-serif" font-size="14" lengthAdjust="spacing" textLength="77" x="1911.5" y="62.0352">description</text><text fill="#000000" font-family="sans-serif" font-size="14" lengthAdjust="spacing" textLength="263" x="1998.5" y="62.0352">The current heating level for the zone.</text><line style="stroke:#A80036;stroke-width:1.0;" x1="1993.5" x2="1993.5" y1="46.5" y2="66.9883"/><line style="stroke:#A80036;stroke-width:1.0;" x1="1906.5" x2="2266.5" y1="66.9883" y2="66.9883"/><text fill="#000000" font-family="sans-serif" font-size="14" lengthAdjust="spacing" textLength="55" x="1911.5" y="82.5234">writable</text><text fill="#000000" font-family="sans-serif" font-size="14" lengthAdjust="spacing" textLength="48" x="1998.5" y="82.5234">☐ false</text><line style="stroke:#A80036;stroke-width:1.0;" x1="1993.5" x2="1993.5" y1="66.9883" y2="87.4766"/><line style="stroke:#A80036;stroke-width:1.0;" x1="1906.5" x2="2266.5" y1="87.4766" y2="87.4766"/><text fill="#000000" font-family="sans-serif" font-size="14" lengthAdjust="spacing" textLength="29" x="1911.5" y="103.0117">type</text><text fill="#000000" font-family="sans-serif" font-size="14" lengthAdjust="spacing" textLength="49" x="1998.5" y="103.0117">integer</text><line style="stroke:#A80036;stroke-width:1.0;" x1="1993.5" x2="1993.5" y1="87.4766" y2="107.9648"/><rect fill="none" height="61.4648" rx="5" ry="5" style="stroke:#A80036;stroke-width:1.5;" width="360" x="1906.5" y="46.5"/><rect fill="#FEFECE" height="61.4648" rx="5" ry="5" style="stroke:#FEFECE;stroke-width:1.5;" width="379" x="1897" y="125.5"/><text fill="#000000" font-family="sans-serif" font-size="14" lengthAdjust="spacing" textLength="77" x="1902" y="141.0352">description</text><text fill="#000000" font-family="sans-serif" font-size="14" lengthAdjust="spacing" textLength="282" x="1989" y="141.0352">The maximum heating level for the zone.</text><line style="stroke:#A80036;stroke-width:1.0;" x1="1984" x2="1984" y1="125.5" y2="145.9883"/><line style="stroke:#A80036;stroke-width:1.0;" x1="1897" x2="2276" y1="145.9883" y2="145.9883"/><text fill="#000000" font-family="sans-serif" font-size="14" lengthAdjust="spacing" textLength="55" x="1902" y="161.5234">writable</text><text fill="#000000" font-family="sans-serif" font-size="14" lengthAdjust="spacing" textLength="48" x="1989" y="161.5234">☐ false</text><line style="stroke:#A80036;stroke-width:1.0;" x1="1984" x2="1984" y1="145.9883" y2="166.4766"/><line style="stroke:#A80036;stroke-width:1.0;" x1="1897" x2="2276" y1="166.4766" y2="166.4766"/><text fill="#000000" font-family="sans-serif" font-size="14" lengthAdjust="spacing" textLength="29" x="1902" y="182.0117">type</text><text fill="#000000" font-family="sans-serif" font-size="14" lengthAdjust="spacing" textLength="49" x="1989" y="182.0117">integer</text><line style="stroke:#A80036;stroke-width:1.0;" x1="1984" x2="1984" y1="166.4766" y2="186.9648"/><rect fill="none" height="61.4648" rx="5" ry="5" style="stroke:#A80036;stroke-width:1.5;" width="379" x="1897" y="125.5"/><rect fill="#FEFECE" height="40.9766" rx="5" ry="5" style="stroke:#FEFECE;stroke-width:1.5;" width="390" x="1470" y="155.5"/><text fill="#000000" font-family="sans-serif" font-size="14" lengthAdjust="spacing" textLength="380" x="1475" y="171.0352">#/sdfObject/heatingzone/sdfProperty/maxheatinglevel</text><line style="stroke:#A80036;stroke-width:1.0;" x1="1470" x2="1860" y1="175.9883" y2="175.9883"/><text fill="#000000" font-family="sans-serif" font-size="14" lengthAdjust="spacing" textLength="350" x="1475" y="191.5234">#/sdfObject/heatingzone/sdfProperty/heatinglevel</text><rect fill="none" height="40.9766" rx="5" ry="5" style="stroke:#A80036;stroke-width:1.5;" width="390" x="1470" y="155.5"/><path d="M95,75 L108,75 C117.3442,75 126.8208,74.9198 136.3833,74.7688 " fill="none" style="stroke:#A80036;stroke-width:1.0;stroke-dasharray:3.0,3.0;"/><path d="M136.4378,77.8434 L138.6892,74.7279 L136.3288,71.6942 L144.0697,74.6326 L136.4378,77.8434 " fill="#A80036" style="stroke:#A80036;stroke-width:1.0;"/><ellipse cx="95" cy="75" fill="#A80036" rx="3" ry="3" style="stroke:#A80036;stroke-width:1.0;stroke-dasharray:3.0,3.0;"/><path d="M1726.5,106 L1739.5,106 C1791.427,106 1847.5794,102.7257 1899.2546,98.3776 " fill="none" style="stroke:#A80036;stroke-width:1.0;stroke-dasharray:3.0,3.0;"/><path d="M1899.5142,101.4139 L1901.5318,98.1829 L1898.995,95.3414 L1906.8453,97.7286 L1899.5142,101.4139 " fill="#A80036" style="stroke:#A80036;stroke-width:1.0;"/><ellipse cx="1726.5" cy="106" fill="#A80036" rx="3" ry="3" style="stroke:#A80036;stroke-width:1.0;stroke-dasharray:3.0,3.0;"/><path d="M1726.5,127 L1739.5,127 C1788.3061,127 1840.8449,129.8925 1889.8907,133.8505 " fill="none" style="stroke:#A80036;stroke-width:1.0;stroke-dasharray:3.0,3.0;"/><path d="M1889.6436,136.8604 L1892.1481,134.0358 L1890.1378,130.8406 L1897.4153,134.4682 L1889.6436,136.8604 " fill="#A80036" style="stroke:#A80036;stroke-width:1.0;"/><ellipse cx="1726.5" cy="127" fill="#A80036" rx="3" ry="3" style="stroke:#A80036;stroke-width:1.0;stroke-dasharray:3.0,3.0;"/><path d="M1421,119 L1434,119 C1484.3143,119 1540.8042,118.5176 1585.268,118.0266 " fill="none" style="stroke:#A80036;stroke-width:1.0;stroke-dasharray:3.0,3.0;"/><path d="M1585.3021,121.0637 L1587.5458,118.0011 L1585.2339,114.9896 L1592.8606,117.9414 L1585.3021,121.0637 " fill="#A80036" style="stroke:#A80036;stroke-width:1.0;"/><ellipse cx="1421" cy="119" fill="#A80036" rx="3" ry="3" style="stroke:#A80036;stroke-width:1.0;stroke-dasharray:3.0,3.0;"/><path d="M1421,173 L1434,173 C1443.3158,173 1452.8431,173.0248 1462.4666,173.0699 " fill="none" style="stroke:#A80036;stroke-width:1.0;stroke-dasharray:3.0,3.0;"/><path d="M1462.4504,176.1644 L1464.7875,173.082 L1462.4828,169.9754 L1470.2028,173.1103 L1462.4504,176.1644 " fill="#A80036" style="stroke:#A80036;stroke-width:1.0;"/><ellipse cx="1421" cy="173" fill="#A80036" rx="3" ry="3" style="stroke:#A80036;stroke-width:1.0;stroke-dasharray:3.0,3.0;"/><path d="M519,120 L532,120 C628.4158,120 733.5178,120 828.5252,120 " fill="none" style="stroke:#A80036;stroke-width:1.0;stroke-dasharray:3.0,3.0;"/><path d="M828.5252,123.0785 L830.834,120 L828.5252,116.9215 L836.2213,120 L828.5252,123.0785 " fill="#A80036" style="stroke:#A80036;stroke-width:1.0;"/><ellipse cx="519" cy="120" fill="#A80036" rx="3" ry="3" style="stroke:#A80036;stroke-width:1.0;stroke-dasharray:3.0,3.0;"/><path d="M95,96 L108,96 C124.1536,96 127.924,99.4191 144,101 C234.1397,109.8641 338.6951,115.0531 404.8355,117.7088 " fill="none" style="stroke:#A80036;stroke-width:1.0;stroke-dasharray:3.0,3.0;"/><path d="M404.711,120.8575 L407.1971,117.8022 L404.9601,114.56 L412.7075,118.0201 L404.711,120.8575 " fill="#A80036" style="stroke:#A80036;stroke-width:1.0;"/><ellipse cx="95" cy="96" fill="#A80036" rx="3" ry="3" style="stroke:#A80036;stroke-width:1.0;stroke-dasharray:3.0,3.0;"/><!--MD5=[e5d6e9c87b99b2713a73be901e9e8912]
@startjson
{
  "info": {
    "copyright": "copyright 2016-2017, 2019 Open Connectivity Foundation, Inc. All rights reserved.",
    "license": "https://github.com/one-data-model/oneDM/blob/master/LICENSE",
    "title": "Heating Zone",
    "version": "2019-02-15"
  },
  "sdfObject": {
    "heatingzone": {
      "description": "This Resource provides information about the status of a (single)\\nheating zone of a Cook-Top. It describes the case of a Cook-Top whose\\nzones can be activated dynamically (i. e. the device implements pot\\nrecognition). The Property \"maxheatinglevel\" defines the max level\\nfor the heating zone The Property \"heatinglevel\" is the current\\nheating level of the zone For each element, the value range is from 0\\n(indication that the zone is not heating) to \"maxheatinglevel\".",
      "sdfProperty": {
        "heatinglevel": {
          "description": "The current heating level for the zone.",
          "writable": false,
          "type": "integer"
        },
        "maxheatinglevel": {
          "description": "The maximum heating level for the zone.",
          "writable": false,
          "type": "integer"
        }
      },
      "sdfRequired": [
        "#/sdfObject/heatingzone/sdfProperty/maxheatinglevel",
        "#/sdfObject/heatingzone/sdfProperty/heatinglevel"
      ]
    }
  }
}
@endjson

PlantUML version 1.2021.2(Sun Mar 07 13:10:27 EET 2021)
(GPL source distribution)
Java Runtime: OpenJDK Runtime Environment
JVM: OpenJDK 64-Bit Server VM
Default Encoding: UTF-8
Language: en
Country: FI
--></g></svg>