<?xml version="1.0" encoding="UTF-8" standalone="no"?><svg xmlns="http://www.w3.org/2000/svg" xmlns:xlink="http://www.w3.org/1999/xlink" contentScriptType="application/ecmascript" contentStyleType="text/css" height="212px" preserveAspectRatio="none" style="width:2403px;height:212px;" version="1.1" viewBox="0 0 2403 212" width="2403px" zoomAndPan="magnify"><defs/><g><rect fill="#FEFECE" height="40.9766" rx="5" ry="5" style="stroke:#FEFECE;stroke-width:1.5;" width="97" x="10" y="65.5"/><text fill="#000000" font-family="sans-serif" font-size="14" lengthAdjust="spacing" textLength="27" x="15" y="81.0352">info</text><text fill="#000000" font-family="sans-serif" font-size="14" lengthAdjust="spacing" textLength="0" x="102" y="81.0352"/><line style="stroke:#A80036;stroke-width:1.0;" x1="85" x2="85" y1="65.5" y2="85.9883"/><line style="stroke:#A80036;stroke-width:1.0;" x1="10" x2="107" y1="85.9883" y2="85.9883"/><text fill="#000000" font-family="sans-serif" font-size="14" lengthAdjust="spacing" textLength="65" x="15" y="101.5234">sdfObject</text><text fill="#000000" font-family="sans-serif" font-size="14" lengthAdjust="spacing" textLength="0" x="102" y="101.5234"/><line style="stroke:#A80036;stroke-width:1.0;" x1="85" x2="85" y1="85.9883" y2="106.4766"/><rect fill="none" height="40.9766" rx="5" ry="5" style="stroke:#A80036;stroke-width:1.5;" width="97" x="10" y="65.5"/><rect fill="#FEFECE" height="81.9531" rx="5" ry="5" style="stroke:#FEFECE;stroke-width:1.5;" width="614" x="144" y="10"/><text fill="#000000" font-family="sans-serif" font-size="14" lengthAdjust="spacing" textLength="65" x="149" y="25.5352">copyright</text><text fill="#000000" font-family="sans-serif" font-size="14" lengthAdjust="spacing" textLength="529" x="224" y="25.5352">Copyright 2018-2019 Open Connectivity Foundation, Inc. All rights reserved.</text><line style="stroke:#A80036;stroke-width:1.0;" x1="219" x2="219" y1="10" y2="30.4883"/><line style="stroke:#A80036;stroke-width:1.0;" x1="144" x2="758" y1="30.4883" y2="30.4883"/><text fill="#000000" font-family="sans-serif" font-size="14" lengthAdjust="spacing" textLength="47" x="149" y="46.0234">license</text><text fill="#000000" font-family="sans-serif" font-size="14" lengthAdjust="spacing" textLength="462" x="224" y="46.0234">https://github.com/one-data-model/oneDM/blob/master/LICENSE</text><line style="stroke:#A80036;stroke-width:1.0;" x1="219" x2="219" y1="30.4883" y2="50.9766"/><line style="stroke:#A80036;stroke-width:1.0;" x1="144" x2="758" y1="50.9766" y2="50.9766"/><text fill="#000000" font-family="sans-serif" font-size="14" lengthAdjust="spacing" textLength="26" x="149" y="66.5117">title</text><text fill="#000000" font-family="sans-serif" font-size="14" lengthAdjust="spacing" textLength="195" x="224" y="66.5117">Automatic Document Feeder</text><line style="stroke:#A80036;stroke-width:1.0;" x1="219" x2="219" y1="50.9766" y2="71.4648"/><line style="stroke:#A80036;stroke-width:1.0;" x1="144" x2="758" y1="71.4648" y2="71.4648"/><text fill="#000000" font-family="sans-serif" font-size="14" lengthAdjust="spacing" textLength="50" x="149" y="87">version</text><text fill="#000000" font-family="sans-serif" font-size="14" lengthAdjust="spacing" textLength="88" x="224" y="87">2019-02-22</text><line style="stroke:#A80036;stroke-width:1.0;" x1="219" x2="219" y1="71.4648" y2="91.9531"/><rect fill="none" height="81.9531" rx="5" ry="5" style="stroke:#A80036;stroke-width:1.5;" width="614" x="144" y="10"/><rect fill="#FEFECE" height="20.4883" rx="5" ry="5" style="stroke:#FEFECE;stroke-width:1.5;" width="213" x="344.5" y="110"/><text fill="#000000" font-family="sans-serif" font-size="14" lengthAdjust="spacing" textLength="181" x="349.5" y="125.5352">automaticdocumentfeeder</text><text fill="#000000" font-family="sans-serif" font-size="14" lengthAdjust="spacing" textLength="0" x="552.5" y="125.5352"/><line style="stroke:#A80036;stroke-width:1.0;" x1="535.5" x2="535.5" y1="110" y2="130.4883"/><rect fill="none" height="20.4883" rx="5" ry="5" style="stroke:#A80036;stroke-width:1.5;" width="213" x="344.5" y="110"/><rect fill="#FEFECE" height="160.3945" rx="5" ry="5" style="stroke:#FEFECE;stroke-width:1.5;" width="567" x="795" y="40"/><text fill="#000000" font-family="sans-serif" font-size="14" lengthAdjust="spacing" textLength="77" x="800" y="55.5352">description</text><text fill="#000000" font-family="sans-serif" font-size="14" lengthAdjust="spacing" textLength="464" x="893" y="55.5352">This Resource describes the state of an automatic document feeder,</text><text fill="#000000" font-family="sans-serif" font-size="14" lengthAdjust="spacing" textLength="397" x="893" y="72.0234">typically used with a scanner. The Property "adfstates" and</text><text fill="#000000" font-family="sans-serif" font-size="14" lengthAdjust="spacing" textLength="460" x="893" y="88.5117">"currentAdfState" are read only. The Property "adfStates" is an array</text><text fill="#000000" font-family="sans-serif" font-size="14" lengthAdjust="spacing" textLength="449" x="893" y="105">of the possible operational states. The Property "adfProcessing" is</text><text fill="#000000" font-family="sans-serif" font-size="14" lengthAdjust="spacing" textLength="427" x="893" y="121.4883">the OK state, other states are errors or require 'user attention'.</text><text fill="#000000" font-family="sans-serif" font-size="14" lengthAdjust="spacing" textLength="434" x="893" y="137.9766">The currentAdfState is the current value of the ADF state on the</text><text fill="#000000" font-family="sans-serif" font-size="14" lengthAdjust="spacing" textLength="47" x="893" y="154.4648">device.</text><line style="stroke:#A80036;stroke-width:1.0;" x1="888" x2="888" y1="40" y2="159.418"/><line style="stroke:#A80036;stroke-width:1.0;" x1="795" x2="1362" y1="159.418" y2="159.418"/><text fill="#000000" font-family="sans-serif" font-size="14" lengthAdjust="spacing" textLength="79" x="800" y="174.9531">sdfProperty</text><text fill="#000000" font-family="sans-serif" font-size="14" lengthAdjust="spacing" textLength="0" x="905" y="174.9531"/><line style="stroke:#A80036;stroke-width:1.0;" x1="888" x2="888" y1="159.418" y2="179.9063"/><line style="stroke:#A80036;stroke-width:1.0;" x1="795" x2="1362" y1="179.9063" y2="179.9063"/><text fill="#000000" font-family="sans-serif" font-size="14" lengthAdjust="spacing" textLength="83" x="800" y="195.4414">sdfRequired</text><text fill="#000000" font-family="sans-serif" font-size="14" lengthAdjust="spacing" textLength="0" x="905" y="195.4414"/><line style="stroke:#A80036;stroke-width:1.0;" x1="888" x2="888" y1="179.9063" y2="200.3945"/><rect fill="none" height="160.3945" rx="5" ry="5" style="stroke:#A80036;stroke-width:1.5;" width="567" x="795" y="40"/><rect fill="#FEFECE" height="40.9766" rx="5" ry="5" style="stroke:#FEFECE;stroke-width:1.5;" width="140" x="1569" y="96.5"/><text fill="#000000" font-family="sans-serif" font-size="14" lengthAdjust="spacing" textLength="63" x="1574" y="112.0352">adfStates</text><text fill="#000000" font-family="sans-serif" font-size="14" lengthAdjust="spacing" textLength="0" x="1704" y="112.0352"/><line style="stroke:#A80036;stroke-width:1.0;" x1="1687" x2="1687" y1="96.5" y2="116.9883"/><line style="stroke:#A80036;stroke-width:1.0;" x1="1569" x2="1709" y1="116.9883" y2="116.9883"/><text fill="#000000" font-family="sans-serif" font-size="14" lengthAdjust="spacing" textLength="108" x="1574" y="132.5234">currentAdfState</text><text fill="#000000" font-family="sans-serif" font-size="14" lengthAdjust="spacing" textLength="0" x="1704" y="132.5234"/><line style="stroke:#A80036;stroke-width:1.0;" x1="1687" x2="1687" y1="116.9883" y2="137.4766"/><rect fill="none" height="40.9766" rx="5" ry="5" style="stroke:#A80036;stroke-width:1.5;" width="140" x="1569" y="96.5"/><rect fill="#FEFECE" height="102.4414" rx="5" ry="5" style="stroke:#FEFECE;stroke-width:1.5;" width="349" x="1916" y="16"/><text fill="#000000" font-family="sans-serif" font-size="14" lengthAdjust="spacing" textLength="77" x="1921" y="31.5352">description</text><text fill="#000000" font-family="sans-serif" font-size="14" lengthAdjust="spacing" textLength="244" x="2016" y="31.5352">The array of the possible adf states.</text><line style="stroke:#A80036;stroke-width:1.0;" x1="2011" x2="2011" y1="16" y2="36.4883"/><line style="stroke:#A80036;stroke-width:1.0;" x1="1916" x2="2265" y1="36.4883" y2="36.4883"/><text fill="#000000" font-family="sans-serif" font-size="14" lengthAdjust="spacing" textLength="37" x="1921" y="52.0234">items</text><text fill="#000000" font-family="sans-serif" font-size="14" lengthAdjust="spacing" textLength="0" x="2028" y="52.0234"/><line style="stroke:#A80036;stroke-width:1.0;" x1="2011" x2="2011" y1="36.4883" y2="56.9766"/><line style="stroke:#A80036;stroke-width:1.0;" x1="1916" x2="2265" y1="56.9766" y2="56.9766"/><text fill="#000000" font-family="sans-serif" font-size="14" lengthAdjust="spacing" textLength="55" x="1921" y="72.5117">writable</text><text fill="#000000" font-family="sans-serif" font-size="14" lengthAdjust="spacing" textLength="48" x="2016" y="72.5117">☐ false</text><line style="stroke:#A80036;stroke-width:1.0;" x1="2011" x2="2011" y1="56.9766" y2="77.4648"/><line style="stroke:#A80036;stroke-width:1.0;" x1="1916" x2="2265" y1="77.4648" y2="77.4648"/><text fill="#000000" font-family="sans-serif" font-size="14" lengthAdjust="spacing" textLength="85" x="1921" y="93">uniqueItems</text><text fill="#000000" font-family="sans-serif" font-size="14" lengthAdjust="spacing" textLength="44" x="2016" y="93">☑ true</text><line style="stroke:#A80036;stroke-width:1.0;" x1="2011" x2="2011" y1="77.4648" y2="97.9531"/><line style="stroke:#A80036;stroke-width:1.0;" x1="1916" x2="2265" y1="97.9531" y2="97.9531"/><text fill="#000000" font-family="sans-serif" font-size="14" lengthAdjust="spacing" textLength="29" x="1921" y="113.4883">type</text><text fill="#000000" font-family="sans-serif" font-size="14" lengthAdjust="spacing" textLength="35" x="2016" y="113.4883">array</text><line style="stroke:#A80036;stroke-width:1.0;" x1="2011" x2="2011" y1="97.9531" y2="118.4414"/><rect fill="none" height="102.4414" rx="5" ry="5" style="stroke:#A80036;stroke-width:1.5;" width="349" x="1916" y="16"/><rect fill="#FEFECE" height="20.4883" rx="5" ry="5" style="stroke:#FEFECE;stroke-width:1.5;" width="89" x="2302" y="36"/><text fill="#000000" font-family="sans-serif" font-size="14" lengthAdjust="spacing" textLength="29" x="2307" y="51.5352">type</text><text fill="#000000" font-family="sans-serif" font-size="14" lengthAdjust="spacing" textLength="40" x="2346" y="51.5352">string</text><line style="stroke:#A80036;stroke-width:1.0;" x1="2341" x2="2341" y1="36" y2="56.4883"/><rect fill="none" height="20.4883" rx="5" ry="5" style="stroke:#A80036;stroke-width:1.5;" width="89" x="2302" y="36"/><rect fill="#FEFECE" height="61.4648" rx="5" ry="5" style="stroke:#FEFECE;stroke-width:1.5;" width="244" x="1968.5" y="136.5"/><text fill="#000000" font-family="sans-serif" font-size="14" lengthAdjust="spacing" textLength="77" x="1973.5" y="152.0352">description</text><text fill="#000000" font-family="sans-serif" font-size="14" lengthAdjust="spacing" textLength="147" x="2060.5" y="152.0352">The current adf state.</text><line style="stroke:#A80036;stroke-width:1.0;" x1="2055.5" x2="2055.5" y1="136.5" y2="156.9883"/><line style="stroke:#A80036;stroke-width:1.0;" x1="1968.5" x2="2212.5" y1="156.9883" y2="156.9883"/><text fill="#000000" font-family="sans-serif" font-size="14" lengthAdjust="spacing" textLength="55" x="1973.5" y="172.5234">writable</text><text fill="#000000" font-family="sans-serif" font-size="14" lengthAdjust="spacing" textLength="48" x="2060.5" y="172.5234">☐ false</text><line style="stroke:#A80036;stroke-width:1.0;" x1="2055.5" x2="2055.5" y1="156.9883" y2="177.4766"/><line style="stroke:#A80036;stroke-width:1.0;" x1="1968.5" x2="2212.5" y1="177.4766" y2="177.4766"/><text fill="#000000" font-family="sans-serif" font-size="14" lengthAdjust="spacing" textLength="29" x="1973.5" y="193.0117">type</text><text fill="#000000" font-family="sans-serif" font-size="14" lengthAdjust="spacing" textLength="40" x="2060.5" y="193.0117">string</text><line style="stroke:#A80036;stroke-width:1.0;" x1="2055.5" x2="2055.5" y1="177.4766" y2="197.9648"/><rect fill="none" height="61.4648" rx="5" ry="5" style="stroke:#A80036;stroke-width:1.5;" width="244" x="1968.5" y="136.5"/><rect fill="#FEFECE" height="40.9766" rx="5" ry="5" style="stroke:#FEFECE;stroke-width:1.5;" width="480" x="1399" y="155.5"/><text fill="#000000" font-family="sans-serif" font-size="14" lengthAdjust="spacing" textLength="425" x="1404" y="171.0352">#/sdfObject/automaticdocumentfeeder/sdfProperty/adfStates</text><line style="stroke:#A80036;stroke-width:1.0;" x1="1399" x2="1879" y1="175.9883" y2="175.9883"/><text fill="#000000" font-family="sans-serif" font-size="14" lengthAdjust="spacing" textLength="470" x="1404" y="191.5234">#/sdfObject/automaticdocumentfeeder/sdfProperty/currentAdfState</text><rect fill="none" height="40.9766" rx="5" ry="5" style="stroke:#A80036;stroke-width:1.5;" width="480" x="1399" y="155.5"/><path d="M95,75 L108,75 C117.4068,75 126.9554,74.9088 136.5926,74.7376 " fill="none" style="stroke:#A80036;stroke-width:1.0;stroke-dasharray:3.0,3.0;"/><path d="M136.6543,77.8363 L138.9166,74.6914 L136.5309,71.6389 L144.3394,74.5834 L136.6543,77.8363 " fill="#A80036" style="stroke:#A80036;stroke-width:1.0;"/><ellipse cx="95" cy="75" fill="#A80036" rx="3" ry="3" style="stroke:#A80036;stroke-width:1.0;stroke-dasharray:3.0,3.0;"/><path d="M2253,46 L2266,46 C2275.3153,46 2285.2408,46 2294.8173,46 " fill="none" style="stroke:#A80036;stroke-width:1.0;stroke-dasharray:3.0,3.0;"/><path d="M2294.8173,49.0348 L2297.0934,46 L2294.8173,42.9652 L2302.4043,46 L2294.8173,49.0348 " fill="#A80036" style="stroke:#A80036;stroke-width:1.0;"/><ellipse cx="2253" cy="46" fill="#A80036" rx="3" ry="3" style="stroke:#A80036;stroke-width:1.0;stroke-dasharray:3.0,3.0;"/><path d="M1697.5,106 L1710.5,106 C1775.259,106 1845.9099,100.3109 1908.5053,93.2784 " fill="none" style="stroke:#A80036;stroke-width:1.0;stroke-dasharray:3.0,3.0;"/><path d="M1908.8509,96.3155 L1910.7831,93.0192 L1908.1597,90.2413 L1916.098,92.4144 L1908.8509,96.3155 " fill="#A80036" style="stroke:#A80036;stroke-width:1.0;"/><ellipse cx="1697.5" cy="106" fill="#A80036" rx="3" ry="3" style="stroke:#A80036;stroke-width:1.0;stroke-dasharray:3.0,3.0;"/><path d="M1697.5,127 L1710.5,127 C1794.4064,127 1888.1759,136.7902 1961.5129,146.6837 " fill="none" style="stroke:#A80036;stroke-width:1.0;stroke-dasharray:3.0,3.0;"/><path d="M1961.1052,149.6767 L1963.7576,146.9895 L1961.9206,143.6907 L1968.9953,147.703 L1961.1052,149.6767 " fill="#A80036" style="stroke:#A80036;stroke-width:1.0;"/><ellipse cx="1697.5" cy="127" fill="#A80036" rx="3" ry="3" style="stroke:#A80036;stroke-width:1.0;stroke-dasharray:3.0,3.0;"/><path d="M1350,119 L1363,119 C1430.1532,119 1506.5113,118.3985 1561.7804,117.8552 " fill="none" style="stroke:#A80036;stroke-width:1.0;stroke-dasharray:3.0,3.0;"/><path d="M1561.8109,120.9174 L1564.0771,117.8323 L1561.7499,114.7929 L1569.436,117.779 L1561.8109,120.9174 " fill="#A80036" style="stroke:#A80036;stroke-width:1.0;"/><ellipse cx="1350" cy="119" fill="#A80036" rx="3" ry="3" style="stroke:#A80036;stroke-width:1.0;stroke-dasharray:3.0,3.0;"/><path d="M1350,173 L1363,173 C1372.3414,173 1381.8608,173.0175 1391.4768,173.0497 " fill="none" style="stroke:#A80036;stroke-width:1.0;stroke-dasharray:3.0,3.0;"/><path d="M1391.4652,176.1421 L1393.7961,173.0584 L1391.4884,169.9573 L1399.2078,173.0787 L1391.4652,176.1421 " fill="#A80036" style="stroke:#A80036;stroke-width:1.0;"/><ellipse cx="1350" cy="173" fill="#A80036" rx="3" ry="3" style="stroke:#A80036;stroke-width:1.0;stroke-dasharray:3.0,3.0;"/><path d="M546.5,120 L559.5,120 C633.4742,120 713.385,120 787.7983,120 " fill="none" style="stroke:#A80036;stroke-width:1.0;stroke-dasharray:3.0,3.0;"/><path d="M787.7983,123.0588 L790.0924,120 L787.7983,116.9412 L795.4452,120 L787.7983,123.0588 " fill="#A80036" style="stroke:#A80036;stroke-width:1.0;"/><ellipse cx="546.5" cy="120" fill="#A80036" rx="3" ry="3" style="stroke:#A80036;stroke-width:1.0;stroke-dasharray:3.0,3.0;"/><path d="M95,96 L108,96 C124.1536,96 127.927,99.388 144,101 C207.7144,107.3901 279.1099,111.9664 336.9542,115.0243 " fill="none" style="stroke:#A80036;stroke-width:1.0;stroke-dasharray:3.0,3.0;"/><path d="M336.7931,118.1072 L339.2664,115.1451 L337.1153,111.9413 L344.6616,115.427 L336.7931,118.1072 " fill="#A80036" style="stroke:#A80036;stroke-width:1.0;"/><ellipse cx="95" cy="96" fill="#A80036" rx="3" ry="3" style="stroke:#A80036;stroke-width:1.0;stroke-dasharray:3.0,3.0;"/><!--MD5=[f9ee9f5591ad5acfb9123437eb75bd9b]
@startjson
{
  "info": {
    "copyright": "Copyright 2018-2019 Open Connectivity Foundation, Inc. All rights reserved.",
    "license": "https://github.com/one-data-model/oneDM/blob/master/LICENSE",
    "title": "Automatic Document Feeder",
    "version": "2019-02-22"
  },
  "sdfObject": {
    "automaticdocumentfeeder": {
      "description": "This Resource describes the state of an automatic document feeder,\\ntypically used with a scanner. The Property \"adfstates\" and\\n\"currentAdfState\" are read only. The Property \"adfStates\" is an array\\nof the possible operational states. The Property \"adfProcessing\" is\\nthe OK state, other states are errors or require 'user attention'.\\nThe currentAdfState is the current value of the ADF state on the\\ndevice.",
      "sdfProperty": {
        "adfStates": {
          "description": "The array of the possible adf states.",
          "items": {
            "type": "string"
          },
          "writable": false,
          "uniqueItems": true,
          "type": "array"
        },
        "currentAdfState": {
          "description": "The current adf state.",
          "writable": false,
          "type": "string"
        }
      },
      "sdfRequired": [
        "#/sdfObject/automaticdocumentfeeder/sdfProperty/adfStates",
        "#/sdfObject/automaticdocumentfeeder/sdfProperty/currentAdfState"
      ]
    }
  }
}
@endjson

PlantUML version 1.2021.2(Sun Mar 07 13:10:27 EET 2021)
(GPL source distribution)
Java Runtime: OpenJDK Runtime Environment
JVM: OpenJDK 64-Bit Server VM
Default Encoding: UTF-8
Language: en
Country: FI
--></g></svg>