<?xml version="1.0" encoding="UTF-8" standalone="no"?><svg xmlns="http://www.w3.org/2000/svg" xmlns:xlink="http://www.w3.org/1999/xlink" contentScriptType="application/ecmascript" contentStyleType="text/css" height="757px" preserveAspectRatio="none" style="width:2419px;height:757px;" version="1.1" viewBox="0 0 2419 757" width="2419px" zoomAndPan="magnify"><defs/><g><rect fill="#FEFECE" height="40.9766" rx="5" ry="5" style="stroke:#FEFECE;stroke-width:1.5;" width="97" x="10" y="541.5"/><text fill="#000000" font-family="sans-serif" font-size="14" lengthAdjust="spacing" textLength="27" x="15" y="557.0352">info</text><text fill="#000000" font-family="sans-serif" font-size="14" lengthAdjust="spacing" textLength="0" x="102" y="557.0352"/><line style="stroke:#A80036;stroke-width:1.0;" x1="85" x2="85" y1="541.5" y2="561.9883"/><line style="stroke:#A80036;stroke-width:1.0;" x1="10" x2="107" y1="561.9883" y2="561.9883"/><text fill="#000000" font-family="sans-serif" font-size="14" lengthAdjust="spacing" textLength="65" x="15" y="577.5234">sdfObject</text><text fill="#000000" font-family="sans-serif" font-size="14" lengthAdjust="spacing" textLength="0" x="102" y="577.5234"/><line style="stroke:#A80036;stroke-width:1.0;" x1="85" x2="85" y1="561.9883" y2="582.4766"/><rect fill="none" height="40.9766" rx="5" ry="5" style="stroke:#A80036;stroke-width:1.5;" width="97" x="10" y="541.5"/><rect fill="#FEFECE" height="81.9531" rx="5" ry="5" style="stroke:#FEFECE;stroke-width:1.5;" width="547" x="144" y="486"/><text fill="#000000" font-family="sans-serif" font-size="14" lengthAdjust="spacing" textLength="26" x="149" y="501.5352">title</text><text fill="#000000" font-family="sans-serif" font-size="14" lengthAdjust="spacing" textLength="255" x="224" y="501.5352">OMA LwM2M Bitmap (Object ID 3349)</text><line style="stroke:#A80036;stroke-width:1.0;" x1="219" x2="219" y1="486" y2="506.4883"/><line style="stroke:#A80036;stroke-width:1.0;" x1="144" x2="691" y1="506.4883" y2="506.4883"/><text fill="#000000" font-family="sans-serif" font-size="14" lengthAdjust="spacing" textLength="50" x="149" y="522.0234">version</text><text fill="#000000" font-family="sans-serif" font-size="14" lengthAdjust="spacing" textLength="88" x="224" y="522.0234">2021-02-11</text><line style="stroke:#A80036;stroke-width:1.0;" x1="219" x2="219" y1="506.4883" y2="526.9766"/><line style="stroke:#A80036;stroke-width:1.0;" x1="144" x2="691" y1="526.9766" y2="526.9766"/><text fill="#000000" font-family="sans-serif" font-size="14" lengthAdjust="spacing" textLength="65" x="149" y="542.5117">copyright</text><text fill="#000000" font-family="sans-serif" font-size="14" lengthAdjust="spacing" textLength="208" x="224" y="542.5117">Copyright (c) 2018-2020 IPSO</text><line style="stroke:#A80036;stroke-width:1.0;" x1="219" x2="219" y1="526.9766" y2="547.4648"/><line style="stroke:#A80036;stroke-width:1.0;" x1="144" x2="691" y1="547.4648" y2="547.4648"/><text fill="#000000" font-family="sans-serif" font-size="14" lengthAdjust="spacing" textLength="47" x="149" y="563">license</text><text fill="#000000" font-family="sans-serif" font-size="14" lengthAdjust="spacing" textLength="462" x="224" y="563">https://github.com/one-data-model/oneDM/blob/master/LICENSE</text><line style="stroke:#A80036;stroke-width:1.0;" x1="219" x2="219" y1="547.4648" y2="567.9531"/><rect fill="none" height="81.9531" rx="5" ry="5" style="stroke:#A80036;stroke-width:1.5;" width="547" x="144" y="486"/><rect fill="#FEFECE" height="20.4883" rx="5" ry="5" style="stroke:#FEFECE;stroke-width:1.5;" width="79" x="378" y="586"/><text fill="#000000" font-family="sans-serif" font-size="14" lengthAdjust="spacing" textLength="47" x="383" y="601.5352">Bitmap</text><text fill="#000000" font-family="sans-serif" font-size="14" lengthAdjust="spacing" textLength="0" x="452" y="601.5352"/><line style="stroke:#A80036;stroke-width:1.0;" x1="435" x2="435" y1="586" y2="606.4883"/><rect fill="none" height="20.4883" rx="5" ry="5" style="stroke:#A80036;stroke-width:1.5;" width="79" x="378" y="586"/><rect fill="#FEFECE" height="118.9297" rx="5" ry="5" style="stroke:#FEFECE;stroke-width:1.5;" width="575" x="728" y="536.5"/><text fill="#000000" font-family="sans-serif" font-size="14" lengthAdjust="spacing" textLength="33" x="733" y="552.0352">label</text><text fill="#000000" font-family="sans-serif" font-size="14" lengthAdjust="spacing" textLength="47" x="826" y="552.0352">Bitmap</text><line style="stroke:#A80036;stroke-width:1.0;" x1="821" x2="821" y1="536.5" y2="556.9883"/><line style="stroke:#A80036;stroke-width:1.0;" x1="728" x2="1303" y1="556.9883" y2="556.9883"/><text fill="#000000" font-family="sans-serif" font-size="14" lengthAdjust="spacing" textLength="77" x="733" y="572.5234">description</text><text fill="#000000" font-family="sans-serif" font-size="14" lengthAdjust="spacing" textLength="472" x="826" y="572.5234">Summarize several digital inputs to one value by mapping each bit to</text><text fill="#000000" font-family="sans-serif" font-size="14" lengthAdjust="spacing" textLength="99" x="826" y="589.0117">a digital input.</text><line style="stroke:#A80036;stroke-width:1.0;" x1="821" x2="821" y1="556.9883" y2="593.9648"/><line style="stroke:#A80036;stroke-width:1.0;" x1="728" x2="1303" y1="593.9648" y2="593.9648"/><text fill="#000000" font-family="sans-serif" font-size="14" lengthAdjust="spacing" textLength="79" x="733" y="609.5">sdfProperty</text><text fill="#000000" font-family="sans-serif" font-size="14" lengthAdjust="spacing" textLength="0" x="838" y="609.5"/><line style="stroke:#A80036;stroke-width:1.0;" x1="821" x2="821" y1="593.9648" y2="614.4531"/><line style="stroke:#A80036;stroke-width:1.0;" x1="728" x2="1303" y1="614.4531" y2="614.4531"/><text fill="#000000" font-family="sans-serif" font-size="14" lengthAdjust="spacing" textLength="65" x="733" y="629.9883">sdfAction</text><text fill="#000000" font-family="sans-serif" font-size="14" lengthAdjust="spacing" textLength="0" x="838" y="629.9883"/><line style="stroke:#A80036;stroke-width:1.0;" x1="821" x2="821" y1="614.4531" y2="634.9414"/><line style="stroke:#A80036;stroke-width:1.0;" x1="728" x2="1303" y1="634.9414" y2="634.9414"/><text fill="#000000" font-family="sans-serif" font-size="14" lengthAdjust="spacing" textLength="83" x="733" y="650.4766">sdfRequired</text><text fill="#000000" font-family="sans-serif" font-size="14" lengthAdjust="spacing" textLength="0" x="838" y="650.4766"/><line style="stroke:#A80036;stroke-width:1.0;" x1="821" x2="821" y1="634.9414" y2="655.4297"/><rect fill="none" height="118.9297" rx="5" ry="5" style="stroke:#A80036;stroke-width:1.5;" width="575" x="728" y="536.5"/><rect fill="#FEFECE" height="102.4414" rx="5" ry="5" style="stroke:#FEFECE;stroke-width:1.5;" width="183" x="1412.5" y="342"/><text fill="#000000" font-family="sans-serif" font-size="14" lengthAdjust="spacing" textLength="90" x="1417.5" y="357.5352">Bitmap_Input</text><text fill="#000000" font-family="sans-serif" font-size="14" lengthAdjust="spacing" textLength="0" x="1590.5" y="357.5352"/><line style="stroke:#A80036;stroke-width:1.0;" x1="1573.5" x2="1573.5" y1="342" y2="362.4883"/><line style="stroke:#A80036;stroke-width:1.0;" x1="1412.5" x2="1595.5" y1="362.4883" y2="362.4883"/><text fill="#000000" font-family="sans-serif" font-size="14" lengthAdjust="spacing" textLength="140" x="1417.5" y="378.0234">Element_Description</text><text fill="#000000" font-family="sans-serif" font-size="14" lengthAdjust="spacing" textLength="0" x="1590.5" y="378.0234"/><line style="stroke:#A80036;stroke-width:1.0;" x1="1573.5" x2="1573.5" y1="362.4883" y2="382.9766"/><line style="stroke:#A80036;stroke-width:1.0;" x1="1412.5" x2="1595.5" y1="382.9766" y2="382.9766"/><text fill="#000000" font-family="sans-serif" font-size="14" lengthAdjust="spacing" textLength="118" x="1417.5" y="398.5117">Application_Type</text><text fill="#000000" font-family="sans-serif" font-size="14" lengthAdjust="spacing" textLength="0" x="1590.5" y="398.5117"/><line style="stroke:#A80036;stroke-width:1.0;" x1="1573.5" x2="1573.5" y1="382.9766" y2="403.4648"/><line style="stroke:#A80036;stroke-width:1.0;" x1="1412.5" x2="1595.5" y1="403.4648" y2="403.4648"/><text fill="#000000" font-family="sans-serif" font-size="14" lengthAdjust="spacing" textLength="76" x="1417.5" y="419">Timestamp</text><text fill="#000000" font-family="sans-serif" font-size="14" lengthAdjust="spacing" textLength="0" x="1590.5" y="419"/><line style="stroke:#A80036;stroke-width:1.0;" x1="1573.5" x2="1573.5" y1="403.4648" y2="423.9531"/><line style="stroke:#A80036;stroke-width:1.0;" x1="1412.5" x2="1595.5" y1="423.9531" y2="423.9531"/><text fill="#000000" font-family="sans-serif" font-size="14" lengthAdjust="spacing" textLength="151" x="1417.5" y="439.4883">Fractional_Timestamp</text><text fill="#000000" font-family="sans-serif" font-size="14" lengthAdjust="spacing" textLength="0" x="1590.5" y="439.4883"/><line style="stroke:#A80036;stroke-width:1.0;" x1="1573.5" x2="1573.5" y1="423.9531" y2="444.4414"/><rect fill="none" height="102.4414" rx="5" ry="5" style="stroke:#A80036;stroke-width:1.5;" width="183" x="1412.5" y="342"/><rect fill="#FEFECE" height="147.9063" rx="5" ry="5" style="stroke:#FEFECE;stroke-width:1.5;" width="576" x="1705" y="10"/><text fill="#000000" font-family="sans-serif" font-size="14" lengthAdjust="spacing" textLength="33" x="1710" y="25.5352">label</text><text fill="#000000" font-family="sans-serif" font-size="14" lengthAdjust="spacing" textLength="87" x="1797" y="25.5352">Bitmap Input</text><line style="stroke:#A80036;stroke-width:1.0;" x1="1792" x2="1792" y1="10" y2="30.4883"/><line style="stroke:#A80036;stroke-width:1.0;" x1="1705" x2="2281" y1="30.4883" y2="30.4883"/><text fill="#000000" font-family="sans-serif" font-size="14" lengthAdjust="spacing" textLength="77" x="1710" y="46.0234">description</text><text fill="#000000" font-family="sans-serif" font-size="14" lengthAdjust="spacing" textLength="409" x="1797" y="46.0234">Integer in which each of the bits are associated with specific</text><text fill="#000000" font-family="sans-serif" font-size="14" lengthAdjust="spacing" textLength="415" x="1797" y="62.5117">digital input value. Represented as a binary signed integer in</text><text fill="#000000" font-family="sans-serif" font-size="14" lengthAdjust="spacing" textLength="462" x="1797" y="79">network byte order, and in two's complement representation. Using</text><text fill="#000000" font-family="sans-serif" font-size="14" lengthAdjust="spacing" textLength="479" x="1797" y="95.4883">values in range 0-127 is recommended to avoid ambiguities with byte</text><text fill="#000000" font-family="sans-serif" font-size="14" lengthAdjust="spacing" textLength="181" x="1797" y="111.9766">order and negative values.</text><line style="stroke:#A80036;stroke-width:1.0;" x1="1792" x2="1792" y1="30.4883" y2="116.9297"/><line style="stroke:#A80036;stroke-width:1.0;" x1="1705" x2="2281" y1="116.9297" y2="116.9297"/><text fill="#000000" font-family="sans-serif" font-size="14" lengthAdjust="spacing" textLength="55" x="1710" y="132.4648">writable</text><text fill="#000000" font-family="sans-serif" font-size="14" lengthAdjust="spacing" textLength="48" x="1797" y="132.4648">☐ false</text><line style="stroke:#A80036;stroke-width:1.0;" x1="1792" x2="1792" y1="116.9297" y2="137.418"/><line style="stroke:#A80036;stroke-width:1.0;" x1="1705" x2="2281" y1="137.418" y2="137.418"/><text fill="#000000" font-family="sans-serif" font-size="14" lengthAdjust="spacing" textLength="29" x="1710" y="152.9531">type</text><text fill="#000000" font-family="sans-serif" font-size="14" lengthAdjust="spacing" textLength="49" x="1797" y="152.9531">integer</text><line style="stroke:#A80036;stroke-width:1.0;" x1="1792" x2="1792" y1="137.418" y2="157.9063"/><rect fill="none" height="147.9063" rx="5" ry="5" style="stroke:#A80036;stroke-width:1.5;" width="576" x="1705" y="10"/><rect fill="#FEFECE" height="114.9297" rx="5" ry="5" style="stroke:#FEFECE;stroke-width:1.5;" width="549" x="1718.5" y="176.5"/><text fill="#000000" font-family="sans-serif" font-size="14" lengthAdjust="spacing" textLength="33" x="1723.5" y="192.0352">label</text><text fill="#000000" font-family="sans-serif" font-size="14" lengthAdjust="spacing" textLength="137" x="1810.5" y="192.0352">Element Description</text><line style="stroke:#A80036;stroke-width:1.0;" x1="1805.5" x2="1805.5" y1="176.5" y2="196.9883"/><line style="stroke:#A80036;stroke-width:1.0;" x1="1718.5" x2="2267.5" y1="196.9883" y2="196.9883"/><text fill="#000000" font-family="sans-serif" font-size="14" lengthAdjust="spacing" textLength="77" x="1723.5" y="212.5234">description</text><text fill="#000000" font-family="sans-serif" font-size="14" lengthAdjust="spacing" textLength="452" x="1810.5" y="212.5234">The description of each bit as a string. First instance describes the</text><text fill="#000000" font-family="sans-serif" font-size="14" lengthAdjust="spacing" textLength="437" x="1810.5" y="229.0117">least significant bit, second instance the second least significant</text><text fill="#000000" font-family="sans-serif" font-size="14" lengthAdjust="spacing" textLength="22" x="1810.5" y="245.5">bit.</text><line style="stroke:#A80036;stroke-width:1.0;" x1="1805.5" x2="1805.5" y1="196.9883" y2="250.4531"/><line style="stroke:#A80036;stroke-width:1.0;" x1="1718.5" x2="2267.5" y1="250.4531" y2="250.4531"/><text fill="#000000" font-family="sans-serif" font-size="14" lengthAdjust="spacing" textLength="29" x="1723.5" y="265.9883">type</text><text fill="#000000" font-family="sans-serif" font-size="14" lengthAdjust="spacing" textLength="35" x="1810.5" y="265.9883">array</text><line style="stroke:#A80036;stroke-width:1.0;" x1="1805.5" x2="1805.5" y1="250.4531" y2="270.9414"/><line style="stroke:#A80036;stroke-width:1.0;" x1="1718.5" x2="2267.5" y1="270.9414" y2="270.9414"/><text fill="#000000" font-family="sans-serif" font-size="14" lengthAdjust="spacing" textLength="37" x="1723.5" y="286.4766">items</text><text fill="#000000" font-family="sans-serif" font-size="14" lengthAdjust="spacing" textLength="0" x="1822.5" y="286.4766"/><line style="stroke:#A80036;stroke-width:1.0;" x1="1805.5" x2="1805.5" y1="270.9414" y2="291.4297"/><rect fill="none" height="114.9297" rx="5" ry="5" style="stroke:#A80036;stroke-width:1.5;" width="549" x="1718.5" y="176.5"/><rect fill="#FEFECE" height="20.4883" rx="5" ry="5" style="stroke:#FEFECE;stroke-width:1.5;" width="89" x="2318" y="267"/><text fill="#000000" font-family="sans-serif" font-size="14" lengthAdjust="spacing" textLength="29" x="2323" y="282.5352">type</text><text fill="#000000" font-family="sans-serif" font-size="14" lengthAdjust="spacing" textLength="40" x="2362" y="282.5352">string</text><line style="stroke:#A80036;stroke-width:1.0;" x1="2357" x2="2357" y1="267" y2="287.4883"/><rect fill="none" height="20.4883" rx="5" ry="5" style="stroke:#A80036;stroke-width:1.5;" width="89" x="2318" y="267"/><rect fill="#FEFECE" height="77.9531" rx="5" ry="5" style="stroke:#FEFECE;stroke-width:1.5;" width="563" x="1711.5" y="310"/><text fill="#000000" font-family="sans-serif" font-size="14" lengthAdjust="spacing" textLength="33" x="1716.5" y="325.5352">label</text><text fill="#000000" font-family="sans-serif" font-size="14" lengthAdjust="spacing" textLength="115" x="1803.5" y="325.5352">Application Type</text><line style="stroke:#A80036;stroke-width:1.0;" x1="1798.5" x2="1798.5" y1="310" y2="330.4883"/><line style="stroke:#A80036;stroke-width:1.0;" x1="1711.5" x2="2274.5" y1="330.4883" y2="330.4883"/><text fill="#000000" font-family="sans-serif" font-size="14" lengthAdjust="spacing" textLength="77" x="1716.5" y="346.0234">description</text><text fill="#000000" font-family="sans-serif" font-size="14" lengthAdjust="spacing" textLength="466" x="1803.5" y="346.0234">The application type of the sensor or actuator as a string depending</text><text fill="#000000" font-family="sans-serif" font-size="14" lengthAdjust="spacing" textLength="110" x="1803.5" y="362.5117">on the use case.</text><line style="stroke:#A80036;stroke-width:1.0;" x1="1798.5" x2="1798.5" y1="330.4883" y2="367.4648"/><line style="stroke:#A80036;stroke-width:1.0;" x1="1711.5" x2="2274.5" y1="367.4648" y2="367.4648"/><text fill="#000000" font-family="sans-serif" font-size="14" lengthAdjust="spacing" textLength="29" x="1716.5" y="383">type</text><text fill="#000000" font-family="sans-serif" font-size="14" lengthAdjust="spacing" textLength="40" x="1803.5" y="383">string</text><line style="stroke:#A80036;stroke-width:1.0;" x1="1798.5" x2="1798.5" y1="367.4648" y2="387.9531"/><rect fill="none" height="77.9531" rx="5" ry="5" style="stroke:#A80036;stroke-width:1.5;" width="563" x="1711.5" y="310"/><rect fill="#FEFECE" height="102.4414" rx="5" ry="5" style="stroke:#FEFECE;stroke-width:1.5;" width="493" x="1746.5" y="406"/><text fill="#000000" font-family="sans-serif" font-size="14" lengthAdjust="spacing" textLength="33" x="1751.5" y="421.5352">label</text><text fill="#000000" font-family="sans-serif" font-size="14" lengthAdjust="spacing" textLength="76" x="1838.5" y="421.5352">Timestamp</text><line style="stroke:#A80036;stroke-width:1.0;" x1="1833.5" x2="1833.5" y1="406" y2="426.4883"/><line style="stroke:#A80036;stroke-width:1.0;" x1="1746.5" x2="2239.5" y1="426.4883" y2="426.4883"/><text fill="#000000" font-family="sans-serif" font-size="14" lengthAdjust="spacing" textLength="77" x="1751.5" y="442.0234">description</text><text fill="#000000" font-family="sans-serif" font-size="14" lengthAdjust="spacing" textLength="396" x="1838.5" y="442.0234">The timestamp of when the measurement was performed.</text><line style="stroke:#A80036;stroke-width:1.0;" x1="1833.5" x2="1833.5" y1="426.4883" y2="446.9766"/><line style="stroke:#A80036;stroke-width:1.0;" x1="1746.5" x2="2239.5" y1="446.9766" y2="446.9766"/><text fill="#000000" font-family="sans-serif" font-size="14" lengthAdjust="spacing" textLength="55" x="1751.5" y="462.5117">writable</text><text fill="#000000" font-family="sans-serif" font-size="14" lengthAdjust="spacing" textLength="48" x="1838.5" y="462.5117">☐ false</text><line style="stroke:#A80036;stroke-width:1.0;" x1="1833.5" x2="1833.5" y1="446.9766" y2="467.4648"/><line style="stroke:#A80036;stroke-width:1.0;" x1="1746.5" x2="2239.5" y1="467.4648" y2="467.4648"/><text fill="#000000" font-family="sans-serif" font-size="14" lengthAdjust="spacing" textLength="29" x="1751.5" y="483">type</text><text fill="#000000" font-family="sans-serif" font-size="14" lengthAdjust="spacing" textLength="54" x="1838.5" y="483">number</text><line style="stroke:#A80036;stroke-width:1.0;" x1="1833.5" x2="1833.5" y1="467.4648" y2="487.9531"/><line style="stroke:#A80036;stroke-width:1.0;" x1="1746.5" x2="2239.5" y1="487.9531" y2="487.9531"/><text fill="#000000" font-family="sans-serif" font-size="14" lengthAdjust="spacing" textLength="54" x="1751.5" y="503.4883">sdfType</text><text fill="#000000" font-family="sans-serif" font-size="14" lengthAdjust="spacing" textLength="69" x="1838.5" y="503.4883">unix-time</text><line style="stroke:#A80036;stroke-width:1.0;" x1="1833.5" x2="1833.5" y1="487.9531" y2="508.4414"/><rect fill="none" height="102.4414" rx="5" ry="5" style="stroke:#A80036;stroke-width:1.5;" width="493" x="1746.5" y="406"/><rect fill="#FEFECE" height="159.9063" rx="5" ry="5" style="stroke:#FEFECE;stroke-width:1.5;" width="563" x="1711.5" y="526"/><text fill="#000000" font-family="sans-serif" font-size="14" lengthAdjust="spacing" textLength="33" x="1716.5" y="541.5352">label</text><text fill="#000000" font-family="sans-serif" font-size="14" lengthAdjust="spacing" textLength="148" x="1803.5" y="541.5352">Fractional Timestamp</text><line style="stroke:#A80036;stroke-width:1.0;" x1="1798.5" x2="1798.5" y1="526" y2="546.4883"/><line style="stroke:#A80036;stroke-width:1.0;" x1="1711.5" x2="2274.5" y1="546.4883" y2="546.4883"/><text fill="#000000" font-family="sans-serif" font-size="14" lengthAdjust="spacing" textLength="77" x="1716.5" y="562.0234">description</text><text fill="#000000" font-family="sans-serif" font-size="14" lengthAdjust="spacing" textLength="466" x="1803.5" y="562.0234">Fractional part of the timestamp when sub-second precision is used</text><text fill="#000000" font-family="sans-serif" font-size="14" lengthAdjust="spacing" textLength="157" x="1803.5" y="578.5117">(e.g., 0.23 for 230 ms).</text><line style="stroke:#A80036;stroke-width:1.0;" x1="1798.5" x2="1798.5" y1="546.4883" y2="583.4648"/><line style="stroke:#A80036;stroke-width:1.0;" x1="1711.5" x2="2274.5" y1="583.4648" y2="583.4648"/><text fill="#000000" font-family="sans-serif" font-size="14" lengthAdjust="spacing" textLength="55" x="1716.5" y="599">writable</text><text fill="#000000" font-family="sans-serif" font-size="14" lengthAdjust="spacing" textLength="48" x="1803.5" y="599">☐ false</text><line style="stroke:#A80036;stroke-width:1.0;" x1="1798.5" x2="1798.5" y1="583.4648" y2="603.9531"/><line style="stroke:#A80036;stroke-width:1.0;" x1="1711.5" x2="2274.5" y1="603.9531" y2="603.9531"/><text fill="#000000" font-family="sans-serif" font-size="14" lengthAdjust="spacing" textLength="29" x="1716.5" y="619.4883">type</text><text fill="#000000" font-family="sans-serif" font-size="14" lengthAdjust="spacing" textLength="54" x="1803.5" y="619.4883">number</text><line style="stroke:#A80036;stroke-width:1.0;" x1="1798.5" x2="1798.5" y1="603.9531" y2="624.4414"/><line style="stroke:#A80036;stroke-width:1.0;" x1="1711.5" x2="2274.5" y1="624.4414" y2="624.4414"/><text fill="#000000" font-family="sans-serif" font-size="14" lengthAdjust="spacing" textLength="27" x="1716.5" y="639.9766">unit</text><text fill="#000000" font-family="sans-serif" font-size="14" lengthAdjust="spacing" textLength="7" x="1803.5" y="639.9766">s</text><line style="stroke:#A80036;stroke-width:1.0;" x1="1798.5" x2="1798.5" y1="624.4414" y2="644.9297"/><line style="stroke:#A80036;stroke-width:1.0;" x1="1711.5" x2="2274.5" y1="644.9297" y2="644.9297"/><text fill="#000000" font-family="sans-serif" font-size="14" lengthAdjust="spacing" textLength="65" x="1716.5" y="660.4648">minimum</text><text fill="#000000" font-family="sans-serif" font-size="14" lengthAdjust="spacing" textLength="9" x="1803.5" y="660.4648">0</text><line style="stroke:#A80036;stroke-width:1.0;" x1="1798.5" x2="1798.5" y1="644.9297" y2="665.418"/><line style="stroke:#A80036;stroke-width:1.0;" x1="1711.5" x2="2274.5" y1="665.418" y2="665.418"/><text fill="#000000" font-family="sans-serif" font-size="14" lengthAdjust="spacing" textLength="69" x="1716.5" y="680.9531">maximum</text><text fill="#000000" font-family="sans-serif" font-size="14" lengthAdjust="spacing" textLength="9" x="1803.5" y="680.9531">1</text><line style="stroke:#A80036;stroke-width:1.0;" x1="1798.5" x2="1798.5" y1="665.418" y2="685.9063"/><rect fill="none" height="159.9063" rx="5" ry="5" style="stroke:#A80036;stroke-width:1.5;" width="563" x="1711.5" y="526"/><rect fill="#FEFECE" height="20.4883" rx="5" ry="5" style="stroke:#FEFECE;stroke-width:1.5;" width="166" x="1421" y="610"/><text fill="#000000" font-family="sans-serif" font-size="14" lengthAdjust="spacing" textLength="134" x="1426" y="625.5352">Bitmap_Input_Reset</text><text fill="#000000" font-family="sans-serif" font-size="14" lengthAdjust="spacing" textLength="0" x="1582" y="625.5352"/><line style="stroke:#A80036;stroke-width:1.0;" x1="1565" x2="1565" y1="610" y2="630.4883"/><rect fill="none" height="20.4883" rx="5" ry="5" style="stroke:#A80036;stroke-width:1.5;" width="166" x="1421" y="610"/><rect fill="#FEFECE" height="40.9766" rx="5" ry="5" style="stroke:#FEFECE;stroke-width:1.5;" width="295" x="1845.5" y="704.5"/><text fill="#000000" font-family="sans-serif" font-size="14" lengthAdjust="spacing" textLength="33" x="1850.5" y="720.0352">label</text><text fill="#000000" font-family="sans-serif" font-size="14" lengthAdjust="spacing" textLength="128" x="1937.5" y="720.0352">Bitmap Input Reset</text><line style="stroke:#A80036;stroke-width:1.0;" x1="1932.5" x2="1932.5" y1="704.5" y2="724.9883"/><line style="stroke:#A80036;stroke-width:1.0;" x1="1845.5" x2="2140.5" y1="724.9883" y2="724.9883"/><text fill="#000000" font-family="sans-serif" font-size="14" lengthAdjust="spacing" textLength="77" x="1850.5" y="740.5234">description</text><text fill="#000000" font-family="sans-serif" font-size="14" lengthAdjust="spacing" textLength="198" x="1937.5" y="740.5234">Reset the Bitmap Input value.</text><line style="stroke:#A80036;stroke-width:1.0;" x1="1932.5" x2="1932.5" y1="724.9883" y2="745.4766"/><rect fill="none" height="40.9766" rx="5" ry="5" style="stroke:#A80036;stroke-width:1.5;" width="295" x="1845.5" y="704.5"/><rect fill="#FEFECE" height="20.4883" rx="5" ry="5" style="stroke:#FEFECE;stroke-width:1.5;" width="328" x="1340" y="648"/><text fill="#000000" font-family="sans-serif" font-size="14" lengthAdjust="spacing" textLength="318" x="1345" y="663.5352">#/sdfObject/Bitmap/sdfProperty/Bitmap_Input</text><rect fill="none" height="20.4883" rx="5" ry="5" style="stroke:#A80036;stroke-width:1.5;" width="328" x="1340" y="648"/><path d="M95,551 L108,551 C117.3406,551 126.8353,550.8896 136.4202,550.6839 " fill="none" style="stroke:#A80036;stroke-width:1.0;stroke-dasharray:3.0,3.0;"/><path d="M136.4943,553.7659 L138.7318,550.6283 L136.3462,547.6019 L144.1253,550.4987 L136.4943,553.7659 " fill="#A80036" style="stroke:#A80036;stroke-width:1.0;"/><ellipse cx="95" cy="551" fill="#A80036" rx="3" ry="3" style="stroke:#A80036;stroke-width:1.0;stroke-dasharray:3.0,3.0;"/><path d="M1584.5,352 L1597.5,352 C1692.5958,352 1630.0344,225.5096 1705,167 C1706.8237,165.5766 1708.671,164.1776 1710.5405,162.8026 " fill="none" style="stroke:#A80036;stroke-width:1.0;stroke-dasharray:3.0,3.0;"/><path d="M1712.3738,165.3784 L1712.4724,161.4276 L1708.7072,160.2267 L1716.9801,158.2193 L1712.3738,165.3784 " fill="#A80036" style="stroke:#A80036;stroke-width:1.0;"/><ellipse cx="1584.5" cy="352" fill="#A80036" rx="3" ry="3" style="stroke:#A80036;stroke-width:1.0;stroke-dasharray:3.0,3.0;"/><path d="M2256.5,277 L2269.5,277 C2282.7901,277 2297.1543,277 2310.5092,277 " fill="none" style="stroke:#A80036;stroke-width:1.0;stroke-dasharray:3.0,3.0;"/><path d="M2310.5092,280.0923 L2312.8285,277 L2310.5092,273.9077 L2318.24,277 L2310.5092,280.0923 " fill="#A80036" style="stroke:#A80036;stroke-width:1.0;"/><ellipse cx="2256.5" cy="277" fill="#A80036" rx="3" ry="3" style="stroke:#A80036;stroke-width:1.0;stroke-dasharray:3.0,3.0;"/><path d="M1584.5,372 L1597.5,372 C1654.7579,372 1652.4041,323.6305 1705,301 C1710.379,298.6856 1715.8506,296.4443 1721.3957,294.2742 " fill="none" style="stroke:#A80036;stroke-width:1.0;stroke-dasharray:3.0,3.0;"/><path d="M1722.48,297.0989 L1723.5142,293.4609 L1720.3114,291.4495 L1728.4574,291.5633 L1722.48,297.0989 " fill="#A80036" style="stroke:#A80036;stroke-width:1.0;"/><ellipse cx="1584.5" cy="372" fill="#A80036" rx="3" ry="3" style="stroke:#A80036;stroke-width:1.0;stroke-dasharray:3.0,3.0;"/><path d="M1584.5,392 L1597.5,392 C1632.1154,392 1668.3374,390.3478 1704.2062,387.6911 " fill="none" style="stroke:#A80036;stroke-width:1.0;stroke-dasharray:3.0,3.0;"/><path d="M1704.439,390.7503 L1706.5006,387.5166 L1703.9734,384.632 L1711.8542,387.1092 L1704.439,390.7503 " fill="#A80036" style="stroke:#A80036;stroke-width:1.0;"/><ellipse cx="1584.5" cy="392" fill="#A80036" rx="3" ry="3" style="stroke:#A80036;stroke-width:1.0;stroke-dasharray:3.0,3.0;"/><path d="M1584.5,413 L1597.5,413 C1643.5114,413 1692.3532,415.9854 1739.4291,420.4009 " fill="none" style="stroke:#A80036;stroke-width:1.0;stroke-dasharray:3.0,3.0;"/><path d="M1739.1409,423.4167 L1741.691,420.6171 L1739.7174,417.385 L1746.9687,421.1216 L1739.1409,423.4167 " fill="#A80036" style="stroke:#A80036;stroke-width:1.0;"/><ellipse cx="1584.5" cy="413" fill="#A80036" rx="3" ry="3" style="stroke:#A80036;stroke-width:1.0;stroke-dasharray:3.0,3.0;"/><path d="M1584.5,434 L1597.5,434 C1657.8615,434 1651.4277,489.1879 1705,517 C1708.6954,518.9185 1712.4393,520.8037 1716.2251,522.656 " fill="none" style="stroke:#A80036;stroke-width:1.0;stroke-dasharray:3.0,3.0;"/><path d="M1714.9057,525.3993 L1718.2825,523.6455 L1717.5444,519.9127 L1723.0833,525.9545 L1714.9057,525.3993 " fill="#A80036" style="stroke:#A80036;stroke-width:1.0;"/><ellipse cx="1584.5" cy="434" fill="#A80036" rx="3" ry="3" style="stroke:#A80036;stroke-width:1.0;stroke-dasharray:3.0,3.0;"/><path d="M1291,595 L1304,595 C1385.5136,595 1444.9664,510.7017 1476.8438,451.0188 " fill="none" style="stroke:#A80036;stroke-width:1.0;stroke-dasharray:3.0,3.0;"/><path d="M1479.5576,452.4438 L1477.9126,448.9834 L1474.13,449.5938 L1480.4063,444.2343 L1479.5576,452.4438 " fill="#A80036" style="stroke:#A80036;stroke-width:1.0;"/><ellipse cx="1291" cy="595" fill="#A80036" rx="3" ry="3" style="stroke:#A80036;stroke-width:1.0;stroke-dasharray:3.0,3.0;"/><path d="M1575.5,620 L1588.5,620 C1625.2608,620 1638.9879,617.7719 1669,639 C1693.1562,656.0861 1679.802,679.4914 1705,695 C1744.3711,719.2316 1792.6358,729.9085 1838.2951,733.6482 " fill="none" style="stroke:#A80036;stroke-width:1.0;stroke-dasharray:3.0,3.0;"/><path d="M1838.0706,736.688 L1840.5749,733.8166 L1838.5196,730.6085 L1845.8944,734.2094 L1838.0706,736.688 " fill="#A80036" style="stroke:#A80036;stroke-width:1.0;"/><ellipse cx="1575.5" cy="620" fill="#A80036" rx="3" ry="3" style="stroke:#A80036;stroke-width:1.0;stroke-dasharray:3.0,3.0;"/><path d="M1291,620 L1304,620 C1339.9031,620 1379.4407,620 1413.7827,620 " fill="none" style="stroke:#A80036;stroke-width:1.0;stroke-dasharray:3.0,3.0;"/><path d="M1413.7827,623.0796 L1416.0924,620 L1413.7827,616.9204 L1421.4816,620 L1413.7827,623.0796 " fill="#A80036" style="stroke:#A80036;stroke-width:1.0;"/><ellipse cx="1291" cy="620" fill="#A80036" rx="3" ry="3" style="stroke:#A80036;stroke-width:1.0;stroke-dasharray:3.0,3.0;"/><path d="M1291,644 L1304,644 C1332.7649,644 1363.8056,645.4662 1392.6365,647.4497 " fill="none" style="stroke:#A80036;stroke-width:1.0;stroke-dasharray:3.0,3.0;"/><path d="M1392.4192,650.5189 L1394.9384,647.6127 L1392.8539,644.3805 L1400.3096,647.9931 L1392.4192,650.5189 " fill="#A80036" style="stroke:#A80036;stroke-width:1.0;"/><ellipse cx="1291" cy="644" fill="#A80036" rx="3" ry="3" style="stroke:#A80036;stroke-width:1.0;stroke-dasharray:3.0,3.0;"/><path d="M446,596 L459,596 C543.9155,596 636.1258,596 720.5905,596 " fill="none" style="stroke:#A80036;stroke-width:1.0;stroke-dasharray:3.0,3.0;"/><path d="M720.5905,599.0505 L722.8783,596 L720.5905,592.9495 L728.2166,596 L720.5905,599.0505 " fill="#A80036" style="stroke:#A80036;stroke-width:1.0;"/><ellipse cx="446" cy="596" fill="#A80036" rx="3" ry="3" style="stroke:#A80036;stroke-width:1.0;stroke-dasharray:3.0,3.0;"/><path d="M95,572 L108,572 C124.1536,572 127.9333,575.3271 144,577 C223.4955,585.277 316.4011,590.8805 370.764,593.75 " fill="none" style="stroke:#A80036;stroke-width:1.0;stroke-dasharray:3.0,3.0;"/><path d="M370.6026,596.8439 L373.0845,593.871 L370.9254,590.656 L378.4989,594.1535 L370.6026,596.8439 " fill="#A80036" style="stroke:#A80036;stroke-width:1.0;"/><ellipse cx="95" cy="572" fill="#A80036" rx="3" ry="3" style="stroke:#A80036;stroke-width:1.0;stroke-dasharray:3.0,3.0;"/><!--MD5=[3c648e0a2c7f25f7adbc0465ea3c2cba]
@startjson
{
  "info": {
    "title": "OMA LwM2M Bitmap (Object ID 3349)",
    "version": "2021-02-11",
    "copyright": "Copyright (c) 2018-2020 IPSO",
    "license": "https://github.com/one-data-model/oneDM/blob/master/LICENSE"
  },
  "sdfObject": {
    "Bitmap": {
      "label": "Bitmap",
      "description": "Summarize several digital inputs to one value by mapping each bit to\\na digital input.",
      "sdfProperty": {
        "Bitmap_Input": {
          "label": "Bitmap Input",
          "description": "Integer in which each of the bits are associated with specific\\ndigital input value. Represented as a binary signed integer in\\nnetwork byte order, and in two's complement representation. Using\\nvalues in range 0-127 is recommended to avoid ambiguities with byte\\norder and negative values.",
          "writable": false,
          "type": "integer"
        },
        "Element_Description": {
          "label": "Element Description",
          "description": "The description of each bit as a string. First instance describes the\\nleast significant bit, second instance the second least significant\\nbit.",
          "type": "array",
          "items": {
            "type": "string"
          }
        },
        "Application_Type": {
          "label": "Application Type",
          "description": "The application type of the sensor or actuator as a string depending\\non the use case.",
          "type": "string"
        },
        "Timestamp": {
          "label": "Timestamp",
          "description": "The timestamp of when the measurement was performed.",
          "writable": false,
          "type": "number",
          "sdfType": "unix-time"
        },
        "Fractional_Timestamp": {
          "label": "Fractional Timestamp",
          "description": "Fractional part of the timestamp when sub-second precision is used\\n(e.g., 0.23 for 230 ms).",
          "writable": false,
          "type": "number",
          "unit": "s",
          "minimum": 0,
          "maximum": 1
        }
      },
      "sdfAction": {
        "Bitmap_Input_Reset": {
          "label": "Bitmap Input Reset",
          "description": "Reset the Bitmap Input value."
        }
      },
      "sdfRequired": [
        "#/sdfObject/Bitmap/sdfProperty/Bitmap_Input"
      ]
    }
  }
}
@endjson

PlantUML version 1.2021.2(Sun Mar 07 13:10:27 EET 2021)
(GPL source distribution)
Java Runtime: OpenJDK Runtime Environment
JVM: OpenJDK 64-Bit Server VM
Default Encoding: UTF-8
Language: en
Country: FI
--></g></svg>