<?xml version="1.0" encoding="UTF-8" standalone="no"?><svg xmlns="http://www.w3.org/2000/svg" xmlns:xlink="http://www.w3.org/1999/xlink" contentScriptType="application/ecmascript" contentStyleType="text/css" height="349px" preserveAspectRatio="none" style="width:2491px;height:349px;" version="1.1" viewBox="0 0 2491 349" width="2491px" zoomAndPan="magnify"><defs/><g><rect fill="#FEFECE" height="40.9766" rx="5" ry="5" style="stroke:#FEFECE;stroke-width:1.5;" width="97" x="10" y="99"/><text fill="#000000" font-family="sans-serif" font-size="14" lengthAdjust="spacing" textLength="27" x="15" y="114.5352">info</text><text fill="#000000" font-family="sans-serif" font-size="14" lengthAdjust="spacing" textLength="0" x="102" y="114.5352"/><line style="stroke:#A80036;stroke-width:1.0;" x1="85" x2="85" y1="99" y2="119.4883"/><line style="stroke:#A80036;stroke-width:1.0;" x1="10" x2="107" y1="119.4883" y2="119.4883"/><text fill="#000000" font-family="sans-serif" font-size="14" lengthAdjust="spacing" textLength="65" x="15" y="135.0234">sdfObject</text><text fill="#000000" font-family="sans-serif" font-size="14" lengthAdjust="spacing" textLength="0" x="102" y="135.0234"/><line style="stroke:#A80036;stroke-width:1.0;" x1="85" x2="85" y1="119.4883" y2="139.9766"/><rect fill="none" height="40.9766" rx="5" ry="5" style="stroke:#A80036;stroke-width:1.5;" width="97" x="10" y="99"/><rect fill="#FEFECE" height="81.9531" rx="5" ry="5" style="stroke:#FEFECE;stroke-width:1.5;" width="614" x="144" y="43.5"/><text fill="#000000" font-family="sans-serif" font-size="14" lengthAdjust="spacing" textLength="65" x="149" y="59.0352">copyright</text><text fill="#000000" font-family="sans-serif" font-size="14" lengthAdjust="spacing" textLength="529" x="224" y="59.0352">Copyright 2018-2019 Open Connectivity Foundation, Inc. All rights reserved.</text><line style="stroke:#A80036;stroke-width:1.0;" x1="219" x2="219" y1="43.5" y2="63.9883"/><line style="stroke:#A80036;stroke-width:1.0;" x1="144" x2="758" y1="63.9883" y2="63.9883"/><text fill="#000000" font-family="sans-serif" font-size="14" lengthAdjust="spacing" textLength="47" x="149" y="79.5234">license</text><text fill="#000000" font-family="sans-serif" font-size="14" lengthAdjust="spacing" textLength="462" x="224" y="79.5234">https://github.com/one-data-model/oneDM/blob/master/LICENSE</text><line style="stroke:#A80036;stroke-width:1.0;" x1="219" x2="219" y1="63.9883" y2="84.4766"/><line style="stroke:#A80036;stroke-width:1.0;" x1="144" x2="758" y1="84.4766" y2="84.4766"/><text fill="#000000" font-family="sans-serif" font-size="14" lengthAdjust="spacing" textLength="26" x="149" y="100.0117">title</text><text fill="#000000" font-family="sans-serif" font-size="14" lengthAdjust="spacing" textLength="95" x="224" y="100.0117">Activity Count</text><line style="stroke:#A80036;stroke-width:1.0;" x1="219" x2="219" y1="84.4766" y2="104.9648"/><line style="stroke:#A80036;stroke-width:1.0;" x1="144" x2="758" y1="104.9648" y2="104.9648"/><text fill="#000000" font-family="sans-serif" font-size="14" lengthAdjust="spacing" textLength="50" x="149" y="120.5">version</text><text fill="#000000" font-family="sans-serif" font-size="14" lengthAdjust="spacing" textLength="88" x="224" y="120.5">2019-02-22</text><line style="stroke:#A80036;stroke-width:1.0;" x1="219" x2="219" y1="104.9648" y2="125.4531"/><rect fill="none" height="81.9531" rx="5" ry="5" style="stroke:#A80036;stroke-width:1.5;" width="614" x="144" y="43.5"/><rect fill="#FEFECE" height="20.4883" rx="5" ry="5" style="stroke:#FEFECE;stroke-width:1.5;" width="172" x="365" y="143.5"/><text fill="#000000" font-family="sans-serif" font-size="14" lengthAdjust="spacing" textLength="140" x="370" y="159.0352">sensor.activity.count</text><text fill="#000000" font-family="sans-serif" font-size="14" lengthAdjust="spacing" textLength="0" x="532" y="159.0352"/><line style="stroke:#A80036;stroke-width:1.0;" x1="515" x2="515" y1="143.5" y2="163.9883"/><rect fill="none" height="20.4883" rx="5" ry="5" style="stroke:#A80036;stroke-width:1.5;" width="172" x="365" y="143.5"/><rect fill="#FEFECE" height="143.9063" rx="5" ry="5" style="stroke:#FEFECE;stroke-width:1.5;" width="553" x="795" y="81.5"/><text fill="#000000" font-family="sans-serif" font-size="14" lengthAdjust="spacing" textLength="77" x="800" y="97.0352">description</text><text fill="#000000" font-family="sans-serif" font-size="14" lengthAdjust="spacing" textLength="424" x="893" y="97.0352">This Resource specifies an activity count. The Resource can be</text><text fill="#000000" font-family="sans-serif" font-size="14" lengthAdjust="spacing" textLength="414" x="893" y="113.5234">readonly (oic. if. s interface) in which instance it represents a</text><text fill="#000000" font-family="sans-serif" font-size="14" lengthAdjust="spacing" textLength="450" x="893" y="130.0117">count. The Resource can be readwrite (oic. if. a interface) in which</text><text fill="#000000" font-family="sans-serif" font-size="14" lengthAdjust="spacing" textLength="432" x="893" y="146.5">instance it represents a goal or target for a count. The Property</text><text fill="#000000" font-family="sans-serif" font-size="14" lengthAdjust="spacing" textLength="450" x="893" y="162.9883">"count" is an integer representing either the current count or goal</text><text fill="#000000" font-family="sans-serif" font-size="14" lengthAdjust="spacing" textLength="40" x="893" y="179.4766">value.</text><line style="stroke:#A80036;stroke-width:1.0;" x1="888" x2="888" y1="81.5" y2="184.4297"/><line style="stroke:#A80036;stroke-width:1.0;" x1="795" x2="1348" y1="184.4297" y2="184.4297"/><text fill="#000000" font-family="sans-serif" font-size="14" lengthAdjust="spacing" textLength="79" x="800" y="199.9648">sdfProperty</text><text fill="#000000" font-family="sans-serif" font-size="14" lengthAdjust="spacing" textLength="0" x="905" y="199.9648"/><line style="stroke:#A80036;stroke-width:1.0;" x1="888" x2="888" y1="184.4297" y2="204.918"/><line style="stroke:#A80036;stroke-width:1.0;" x1="795" x2="1348" y1="204.918" y2="204.918"/><text fill="#000000" font-family="sans-serif" font-size="14" lengthAdjust="spacing" textLength="83" x="800" y="220.4531">sdfRequired</text><text fill="#000000" font-family="sans-serif" font-size="14" lengthAdjust="spacing" textLength="0" x="905" y="220.4531"/><line style="stroke:#A80036;stroke-width:1.0;" x1="888" x2="888" y1="204.918" y2="225.4063"/><rect fill="none" height="143.9063" rx="5" ry="5" style="stroke:#A80036;stroke-width:1.5;" width="553" x="795" y="81.5"/><rect fill="#FEFECE" height="61.4648" rx="5" ry="5" style="stroke:#FEFECE;stroke-width:1.5;" width="72" x="1534" y="118"/><text fill="#000000" font-family="sans-serif" font-size="14" lengthAdjust="spacing" textLength="39" x="1539" y="133.5352">count</text><text fill="#000000" font-family="sans-serif" font-size="14" lengthAdjust="spacing" textLength="0" x="1601" y="133.5352"/><line style="stroke:#A80036;stroke-width:1.0;" x1="1584" x2="1584" y1="118" y2="138.4883"/><line style="stroke:#A80036;stroke-width:1.0;" x1="1534" x2="1606" y1="138.4883" y2="138.4883"/><text fill="#000000" font-family="sans-serif" font-size="14" lengthAdjust="spacing" textLength="40" x="1539" y="154.0234">range</text><text fill="#000000" font-family="sans-serif" font-size="14" lengthAdjust="spacing" textLength="0" x="1601" y="154.0234"/><line style="stroke:#A80036;stroke-width:1.0;" x1="1584" x2="1584" y1="138.4883" y2="158.9766"/><line style="stroke:#A80036;stroke-width:1.0;" x1="1534" x2="1606" y1="158.9766" y2="158.9766"/><text fill="#000000" font-family="sans-serif" font-size="14" lengthAdjust="spacing" textLength="29" x="1539" y="174.5117">step</text><text fill="#000000" font-family="sans-serif" font-size="14" lengthAdjust="spacing" textLength="0" x="1601" y="174.5117"/><line style="stroke:#A80036;stroke-width:1.0;" x1="1584" x2="1584" y1="158.9766" y2="179.4648"/><rect fill="none" height="61.4648" rx="5" ry="5" style="stroke:#A80036;stroke-width:1.5;" width="72" x="1534" y="118"/><rect fill="#FEFECE" height="40.9766" rx="5" ry="5" style="stroke:#FEFECE;stroke-width:1.5;" width="292" x="1922" y="10"/><text fill="#000000" font-family="sans-serif" font-size="14" lengthAdjust="spacing" textLength="77" x="1927" y="25.5352">description</text><text fill="#000000" font-family="sans-serif" font-size="14" lengthAdjust="spacing" textLength="195" x="2014" y="25.5352">The current or Target count.</text><line style="stroke:#A80036;stroke-width:1.0;" x1="2009" x2="2009" y1="10" y2="30.4883"/><line style="stroke:#A80036;stroke-width:1.0;" x1="1922" x2="2214" y1="30.4883" y2="30.4883"/><text fill="#000000" font-family="sans-serif" font-size="14" lengthAdjust="spacing" textLength="29" x="1927" y="46.0234">type</text><text fill="#000000" font-family="sans-serif" font-size="14" lengthAdjust="spacing" textLength="49" x="2014" y="46.0234">integer</text><line style="stroke:#A80036;stroke-width:1.0;" x1="2009" x2="2009" y1="30.4883" y2="50.9766"/><rect fill="none" height="40.9766" rx="5" ry="5" style="stroke:#A80036;stroke-width:1.5;" width="292" x="1922" y="10"/><rect fill="#FEFECE" height="155.9063" rx="5" ry="5" style="stroke:#FEFECE;stroke-width:1.5;" width="552" x="1792" y="69.5"/><text fill="#000000" font-family="sans-serif" font-size="14" lengthAdjust="spacing" textLength="29" x="1797" y="85.0352">type</text><text fill="#000000" font-family="sans-serif" font-size="14" lengthAdjust="spacing" textLength="35" x="1884" y="85.0352">array</text><line style="stroke:#A80036;stroke-width:1.0;" x1="1879" x2="1879" y1="69.5" y2="89.9883"/><line style="stroke:#A80036;stroke-width:1.0;" x1="1792" x2="2344" y1="89.9883" y2="89.9883"/><text fill="#000000" font-family="sans-serif" font-size="14" lengthAdjust="spacing" textLength="77" x="1797" y="105.5234">description</text><text fill="#000000" font-family="sans-serif" font-size="14" lengthAdjust="spacing" textLength="455" x="1884" y="105.5234">The valid range for the Property in the Resource as an integer. The</text><text fill="#000000" font-family="sans-serif" font-size="14" lengthAdjust="spacing" textLength="439" x="1884" y="122.0117">first value in the array is the minimum value, the second value in</text><text fill="#000000" font-family="sans-serif" font-size="14" lengthAdjust="spacing" textLength="219" x="1884" y="138.5">the array is the maximum value.</text><line style="stroke:#A80036;stroke-width:1.0;" x1="1879" x2="1879" y1="89.9883" y2="143.4531"/><line style="stroke:#A80036;stroke-width:1.0;" x1="1792" x2="2344" y1="143.4531" y2="143.4531"/><text fill="#000000" font-family="sans-serif" font-size="14" lengthAdjust="spacing" textLength="55" x="1797" y="158.9883">writable</text><text fill="#000000" font-family="sans-serif" font-size="14" lengthAdjust="spacing" textLength="48" x="1884" y="158.9883">☐ false</text><line style="stroke:#A80036;stroke-width:1.0;" x1="1879" x2="1879" y1="143.4531" y2="163.9414"/><line style="stroke:#A80036;stroke-width:1.0;" x1="1792" x2="2344" y1="163.9414" y2="163.9414"/><text fill="#000000" font-family="sans-serif" font-size="14" lengthAdjust="spacing" textLength="63" x="1797" y="179.4766">minItems</text><text fill="#000000" font-family="sans-serif" font-size="14" lengthAdjust="spacing" textLength="9" x="1884" y="179.4766">2</text><line style="stroke:#A80036;stroke-width:1.0;" x1="1879" x2="1879" y1="163.9414" y2="184.4297"/><line style="stroke:#A80036;stroke-width:1.0;" x1="1792" x2="2344" y1="184.4297" y2="184.4297"/><text fill="#000000" font-family="sans-serif" font-size="14" lengthAdjust="spacing" textLength="67" x="1797" y="199.9648">maxItems</text><text fill="#000000" font-family="sans-serif" font-size="14" lengthAdjust="spacing" textLength="9" x="1884" y="199.9648">2</text><line style="stroke:#A80036;stroke-width:1.0;" x1="1879" x2="1879" y1="184.4297" y2="204.918"/><line style="stroke:#A80036;stroke-width:1.0;" x1="1792" x2="2344" y1="204.918" y2="204.918"/><text fill="#000000" font-family="sans-serif" font-size="14" lengthAdjust="spacing" textLength="37" x="1797" y="220.4531">items</text><text fill="#000000" font-family="sans-serif" font-size="14" lengthAdjust="spacing" textLength="0" x="1896" y="220.4531"/><line style="stroke:#A80036;stroke-width:1.0;" x1="1879" x2="1879" y1="204.918" y2="225.4063"/><rect fill="none" height="155.9063" rx="5" ry="5" style="stroke:#A80036;stroke-width:1.5;" width="552" x="1792" y="69.5"/><rect fill="#FEFECE" height="20.4883" rx="5" ry="5" style="stroke:#FEFECE;stroke-width:1.5;" width="98" x="2381" y="202.5"/><text fill="#000000" font-family="sans-serif" font-size="14" lengthAdjust="spacing" textLength="29" x="2386" y="218.0352">type</text><text fill="#000000" font-family="sans-serif" font-size="14" lengthAdjust="spacing" textLength="49" x="2425" y="218.0352">integer</text><line style="stroke:#A80036;stroke-width:1.0;" x1="2420" x2="2420" y1="202.5" y2="222.9883"/><rect fill="none" height="20.4883" rx="5" ry="5" style="stroke:#A80036;stroke-width:1.5;" width="98" x="2381" y="202.5"/><rect fill="#FEFECE" height="94.4414" rx="5" ry="5" style="stroke:#FEFECE;stroke-width:1.5;" width="549" x="1793.5" y="243.5"/><text fill="#000000" font-family="sans-serif" font-size="14" lengthAdjust="spacing" textLength="77" x="1798.5" y="259.0352">description</text><text fill="#000000" font-family="sans-serif" font-size="14" lengthAdjust="spacing" textLength="448" x="1885.5" y="259.0352">Step value across the defined range when the range is an integer.</text><text fill="#000000" font-family="sans-serif" font-size="14" lengthAdjust="spacing" textLength="449" x="1885.5" y="275.5234">This is the increment for valid values across the range; so if range</text><text fill="#000000" font-family="sans-serif" font-size="14" lengthAdjust="spacing" textLength="376" x="1885.5" y="292.0117">is 0..10 and step is 2 then valid values are 0,2,4,6,8,10.</text><line style="stroke:#A80036;stroke-width:1.0;" x1="1880.5" x2="1880.5" y1="243.5" y2="296.9648"/><line style="stroke:#A80036;stroke-width:1.0;" x1="1793.5" x2="2342.5" y1="296.9648" y2="296.9648"/><text fill="#000000" font-family="sans-serif" font-size="14" lengthAdjust="spacing" textLength="55" x="1798.5" y="312.5">writable</text><text fill="#000000" font-family="sans-serif" font-size="14" lengthAdjust="spacing" textLength="48" x="1885.5" y="312.5">☐ false</text><line style="stroke:#A80036;stroke-width:1.0;" x1="1880.5" x2="1880.5" y1="296.9648" y2="317.4531"/><line style="stroke:#A80036;stroke-width:1.0;" x1="1793.5" x2="2342.5" y1="317.4531" y2="317.4531"/><text fill="#000000" font-family="sans-serif" font-size="14" lengthAdjust="spacing" textLength="29" x="1798.5" y="332.9883">type</text><text fill="#000000" font-family="sans-serif" font-size="14" lengthAdjust="spacing" textLength="49" x="1885.5" y="332.9883">integer</text><line style="stroke:#A80036;stroke-width:1.0;" x1="1880.5" x2="1880.5" y1="317.4531" y2="337.9414"/><rect fill="none" height="94.4414" rx="5" ry="5" style="stroke:#A80036;stroke-width:1.5;" width="549" x="1793.5" y="243.5"/><rect fill="#FEFECE" height="20.4883" rx="5" ry="5" style="stroke:#FEFECE;stroke-width:1.5;" width="370" x="1385" y="197.5"/><text fill="#000000" font-family="sans-serif" font-size="14" lengthAdjust="spacing" textLength="360" x="1390" y="213.0352">#/sdfObject/sensor.activity.count/sdfProperty/count</text><rect fill="none" height="20.4883" rx="5" ry="5" style="stroke:#A80036;stroke-width:1.5;" width="370" x="1385" y="197.5"/><path d="M95,108.5 L108,108.5 C117.4068,108.5 126.9554,108.4088 136.5926,108.2376 " fill="none" style="stroke:#A80036;stroke-width:1.0;stroke-dasharray:3.0,3.0;"/><path d="M136.6543,111.3363 L138.9166,108.1914 L136.5309,105.1389 L144.3394,108.0834 L136.6543,111.3363 " fill="#A80036" style="stroke:#A80036;stroke-width:1.0;"/><ellipse cx="95" cy="108.5" fill="#A80036" rx="3" ry="3" style="stroke:#A80036;stroke-width:1.0;stroke-dasharray:3.0,3.0;"/><path d="M1594.5,127.5 L1607.5,127.5 C1694.7394,127.5 1707.0262,80.2527 1792,60.5 C1831.3746,51.3471 1874.5798,44.9707 1914.8598,40.5342 " fill="none" style="stroke:#A80036;stroke-width:1.0;stroke-dasharray:3.0,3.0;"/><path d="M1915.1822,43.5284 L1917.1054,40.2924 L1914.5373,37.54 L1922.3453,39.7282 L1915.1822,43.5284 " fill="#A80036" style="stroke:#A80036;stroke-width:1.0;"/><ellipse cx="1594.5" cy="127.5" fill="#A80036" rx="3" ry="3" style="stroke:#A80036;stroke-width:1.0;stroke-dasharray:3.0,3.0;"/><path d="M2332,212.5 L2345,212.5 C2354.2605,212.5 2364.0919,212.5 2373.6496,212.5 " fill="none" style="stroke:#A80036;stroke-width:1.0;stroke-dasharray:3.0,3.0;"/><path d="M2373.6496,215.5361 L2375.9267,212.5 L2373.6496,209.4639 L2381.2398,212.5 L2373.6496,215.5361 " fill="#A80036" style="stroke:#A80036;stroke-width:1.0;"/><ellipse cx="2332" cy="212.5" fill="#A80036" rx="3" ry="3" style="stroke:#A80036;stroke-width:1.0;stroke-dasharray:3.0,3.0;"/><path d="M1594.5,147.5 L1607.5,147.5 C1664.8434,147.5 1726.2079,147.5 1784.8263,147.5 " fill="none" style="stroke:#A80036;stroke-width:1.0;stroke-dasharray:3.0,3.0;"/><path d="M1784.8263,150.5023 L1787.078,147.5 L1784.8263,144.4977 L1792.332,147.5 L1784.8263,150.5023 " fill="#A80036" style="stroke:#A80036;stroke-width:1.0;"/><ellipse cx="1594.5" cy="147.5" fill="#A80036" rx="3" ry="3" style="stroke:#A80036;stroke-width:1.0;stroke-dasharray:3.0,3.0;"/><path d="M1594.5,168.5 L1607.5,168.5 C1674.0959,168.5 1698.2171,155.3918 1756,188.5 C1778.5255,201.4066 1769.9172,220.85 1792,234.5 C1794.8608,236.2683 1797.7671,237.982 1800.7146,239.6428 " fill="none" style="stroke:#A80036;stroke-width:1.0;stroke-dasharray:3.0,3.0;"/><path d="M1799.2027,242.4226 L1802.7995,240.7767 L1802.2264,236.8629 L1807.6643,243.4225 L1799.2027,242.4226 " fill="#A80036" style="stroke:#A80036;stroke-width:1.0;"/><ellipse cx="1594.5" cy="168.5" fill="#A80036" rx="3" ry="3" style="stroke:#A80036;stroke-width:1.0;stroke-dasharray:3.0,3.0;"/><path d="M1336,153.5 L1349,153.5 C1410.7691,153.5 1482.2463,151.5147 1526.6702,150.046 " fill="none" style="stroke:#A80036;stroke-width:1.0;stroke-dasharray:3.0,3.0;"/><path d="M1526.7736,153.1265 L1528.9806,149.9685 L1526.5669,146.9655 L1534.3715,149.7876 L1526.7736,153.1265 " fill="#A80036" style="stroke:#A80036;stroke-width:1.0;"/><ellipse cx="1336" cy="153.5" fill="#A80036" rx="3" ry="3" style="stroke:#A80036;stroke-width:1.0;stroke-dasharray:3.0,3.0;"/><path d="M1336,201.5 L1349,201.5 C1358.3674,201.5 1367.9579,201.5548 1377.6432,201.6539 " fill="none" style="stroke:#A80036;stroke-width:1.0;stroke-dasharray:3.0,3.0;"/><path d="M1377.6077,204.768 L1379.9788,201.6805 L1377.6787,198.5397 L1385.4285,201.7426 L1377.6077,204.768 " fill="#A80036" style="stroke:#A80036;stroke-width:1.0;"/><ellipse cx="1336" cy="201.5" fill="#A80036" rx="3" ry="3" style="stroke:#A80036;stroke-width:1.0;stroke-dasharray:3.0,3.0;"/><path d="M525.5,153.5 L538.5,153.5 C619.3269,153.5 707.0549,153.5 787.5428,153.5 " fill="none" style="stroke:#A80036;stroke-width:1.0;stroke-dasharray:3.0,3.0;"/><path d="M787.5428,156.6064 L789.8726,153.5 L787.5428,150.3936 L795.3088,153.5 L787.5428,156.6064 " fill="#A80036" style="stroke:#A80036;stroke-width:1.0;"/><ellipse cx="525.5" cy="153.5" fill="#A80036" rx="3" ry="3" style="stroke:#A80036;stroke-width:1.0;stroke-dasharray:3.0,3.0;"/><path d="M95,129.5 L108,129.5 C124.1536,129.5 127.927,132.888 144,134.5 C215.6024,141.6812 296.9055,146.5717 357.7746,149.5907 " fill="none" style="stroke:#A80036;stroke-width:1.0;stroke-dasharray:3.0,3.0;"/><path d="M357.6238,152.669 L360.0833,149.7039 L357.9255,146.5125 L365.4702,149.9679 L357.6238,152.669 " fill="#A80036" style="stroke:#A80036;stroke-width:1.0;"/><ellipse cx="95" cy="129.5" fill="#A80036" rx="3" ry="3" style="stroke:#A80036;stroke-width:1.0;stroke-dasharray:3.0,3.0;"/><!--MD5=[190a25e16347ae1f2bedeefcae1576d7]
@startjson
{
  "info": {
    "copyright": "Copyright 2018-2019 Open Connectivity Foundation, Inc. All rights reserved.",
    "license": "https://github.com/one-data-model/oneDM/blob/master/LICENSE",
    "title": "Activity Count",
    "version": "2019-02-22"
  },
  "sdfObject": {
    "sensor.activity.count": {
      "description": "This Resource specifies an activity count. The Resource can be\\nreadonly (oic. if. s interface) in which instance it represents a\\ncount. The Resource can be readwrite (oic. if. a interface) in which\\ninstance it represents a goal or target for a count. The Property\\n\"count\" is an integer representing either the current count or goal\\nvalue.",
      "sdfProperty": {
        "count": {
          "description": "The current or Target count.",
          "type": "integer"
        },
        "range": {
          "type": "array",
          "description": "The valid range for the Property in the Resource as an integer. The\\nfirst value in the array is the minimum value, the second value in\\nthe array is the maximum value.",
          "writable": false,
          "minItems": 2,
          "maxItems": 2,
          "items": {
            "type": "integer"
          }
        },
        "step": {
          "description": "Step value across the defined range when the range is an integer. \\nThis is the increment for valid values across the range; so if range\\nis 0..10 and step is 2 then valid values are 0,2,4,6,8,10.",
          "writable": false,
          "type": "integer"
        }
      },
      "sdfRequired": [
        "#/sdfObject/sensor.activity.count/sdfProperty/count"
      ]
    }
  }
}
@endjson

PlantUML version 1.2021.2(Sun Mar 07 13:10:27 EET 2021)
(GPL source distribution)
Java Runtime: OpenJDK Runtime Environment
JVM: OpenJDK 64-Bit Server VM
Default Encoding: UTF-8
Language: en
Country: FI
--></g></svg>