<?xml version="1.0" encoding="UTF-8" standalone="no"?><svg xmlns="http://www.w3.org/2000/svg" xmlns:xlink="http://www.w3.org/1999/xlink" contentScriptType="application/ecmascript" contentStyleType="text/css" height="179px" preserveAspectRatio="none" style="width:2357px;height:179px;" version="1.1" viewBox="0 0 2357 179" width="2357px" zoomAndPan="magnify"><defs/><g><rect fill="#FEFECE" height="40.9766" rx="5" ry="5" style="stroke:#FEFECE;stroke-width:1.5;" width="97" x="10" y="65.5"/><text fill="#000000" font-family="sans-serif" font-size="14" lengthAdjust="spacing" textLength="27" x="15" y="81.0352">info</text><text fill="#000000" font-family="sans-serif" font-size="14" lengthAdjust="spacing" textLength="0" x="102" y="81.0352"/><line style="stroke:#A80036;stroke-width:1.0;" x1="85" x2="85" y1="65.5" y2="85.9883"/><line style="stroke:#A80036;stroke-width:1.0;" x1="10" x2="107" y1="85.9883" y2="85.9883"/><text fill="#000000" font-family="sans-serif" font-size="14" lengthAdjust="spacing" textLength="65" x="15" y="101.5234">sdfObject</text><text fill="#000000" font-family="sans-serif" font-size="14" lengthAdjust="spacing" textLength="0" x="102" y="101.5234"/><line style="stroke:#A80036;stroke-width:1.0;" x1="85" x2="85" y1="85.9883" y2="106.4766"/><rect fill="none" height="40.9766" rx="5" ry="5" style="stroke:#A80036;stroke-width:1.5;" width="97" x="10" y="65.5"/><rect fill="#FEFECE" height="81.9531" rx="5" ry="5" style="stroke:#FEFECE;stroke-width:1.5;" width="655" x="144" y="10"/><text fill="#000000" font-family="sans-serif" font-size="14" lengthAdjust="spacing" textLength="65" x="149" y="25.5352">copyright</text><text fill="#000000" font-family="sans-serif" font-size="14" lengthAdjust="spacing" textLength="570" x="224" y="25.5352">copyright 2016-2017, 2019 Open Connectivity Foundation, Inc. All rights reserved.</text><line style="stroke:#A80036;stroke-width:1.0;" x1="219" x2="219" y1="10" y2="30.4883"/><line style="stroke:#A80036;stroke-width:1.0;" x1="144" x2="799" y1="30.4883" y2="30.4883"/><text fill="#000000" font-family="sans-serif" font-size="14" lengthAdjust="spacing" textLength="47" x="149" y="46.0234">license</text><text fill="#000000" font-family="sans-serif" font-size="14" lengthAdjust="spacing" textLength="462" x="224" y="46.0234">https://github.com/one-data-model/oneDM/blob/master/LICENSE</text><line style="stroke:#A80036;stroke-width:1.0;" x1="219" x2="219" y1="30.4883" y2="50.9766"/><line style="stroke:#A80036;stroke-width:1.0;" x1="144" x2="799" y1="50.9766" y2="50.9766"/><text fill="#000000" font-family="sans-serif" font-size="14" lengthAdjust="spacing" textLength="26" x="149" y="66.5117">title</text><text fill="#000000" font-family="sans-serif" font-size="14" lengthAdjust="spacing" textLength="88" x="224" y="66.5117">Sleep Sensor</text><line style="stroke:#A80036;stroke-width:1.0;" x1="219" x2="219" y1="50.9766" y2="71.4648"/><line style="stroke:#A80036;stroke-width:1.0;" x1="144" x2="799" y1="71.4648" y2="71.4648"/><text fill="#000000" font-family="sans-serif" font-size="14" lengthAdjust="spacing" textLength="50" x="149" y="87">version</text><text fill="#000000" font-family="sans-serif" font-size="14" lengthAdjust="spacing" textLength="88" x="224" y="87">2019-02-15</text><line style="stroke:#A80036;stroke-width:1.0;" x1="219" x2="219" y1="71.4648" y2="91.9531"/><rect fill="none" height="81.9531" rx="5" ry="5" style="stroke:#A80036;stroke-width:1.5;" width="655" x="144" y="10"/><rect fill="#FEFECE" height="20.4883" rx="5" ry="5" style="stroke:#FEFECE;stroke-width:1.5;" width="118" x="412.5" y="110"/><text fill="#000000" font-family="sans-serif" font-size="14" lengthAdjust="spacing" textLength="86" x="417.5" y="125.5352">sensor.sleep</text><text fill="#000000" font-family="sans-serif" font-size="14" lengthAdjust="spacing" textLength="0" x="525.5" y="125.5352"/><line style="stroke:#A80036;stroke-width:1.0;" x1="508.5" x2="508.5" y1="110" y2="130.4883"/><rect fill="none" height="20.4883" rx="5" ry="5" style="stroke:#A80036;stroke-width:1.5;" width="118" x="412.5" y="110"/><rect fill="#FEFECE" height="94.4414" rx="5" ry="5" style="stroke:#FEFECE;stroke-width:1.5;" width="588" x="836" y="73"/><text fill="#000000" font-family="sans-serif" font-size="14" lengthAdjust="spacing" textLength="77" x="841" y="88.5352">description</text><text fill="#000000" font-family="sans-serif" font-size="14" lengthAdjust="spacing" textLength="485" x="934" y="88.5352">This Resource describes whether human sleep has been sensed or not.</text><text fill="#000000" font-family="sans-serif" font-size="14" lengthAdjust="spacing" textLength="459" x="934" y="105.0234">The Property "value" is a boolean. A value of 'true' means that sleep</text><text fill="#000000" font-family="sans-serif" font-size="14" lengthAdjust="spacing" textLength="473" x="934" y="121.5117">has been sensed. A value of 'false' means that sleep not been sensed.</text><line style="stroke:#A80036;stroke-width:1.0;" x1="929" x2="929" y1="73" y2="126.4648"/><line style="stroke:#A80036;stroke-width:1.0;" x1="836" x2="1424" y1="126.4648" y2="126.4648"/><text fill="#000000" font-family="sans-serif" font-size="14" lengthAdjust="spacing" textLength="79" x="841" y="142">sdfProperty</text><text fill="#000000" font-family="sans-serif" font-size="14" lengthAdjust="spacing" textLength="0" x="946" y="142"/><line style="stroke:#A80036;stroke-width:1.0;" x1="929" x2="929" y1="126.4648" y2="146.9531"/><line style="stroke:#A80036;stroke-width:1.0;" x1="836" x2="1424" y1="146.9531" y2="146.9531"/><text fill="#000000" font-family="sans-serif" font-size="14" lengthAdjust="spacing" textLength="83" x="841" y="162.4883">sdfRequired</text><text fill="#000000" font-family="sans-serif" font-size="14" lengthAdjust="spacing" textLength="0" x="946" y="162.4883"/><line style="stroke:#A80036;stroke-width:1.0;" x1="929" x2="929" y1="146.9531" y2="167.4414"/><rect fill="none" height="94.4414" rx="5" ry="5" style="stroke:#A80036;stroke-width:1.5;" width="588" x="836" y="73"/><rect fill="#FEFECE" height="20.4883" rx="5" ry="5" style="stroke:#FEFECE;stroke-width:1.5;" width="68" x="1583.5" y="106"/><text fill="#000000" font-family="sans-serif" font-size="14" lengthAdjust="spacing" textLength="36" x="1588.5" y="121.5352">value</text><text fill="#000000" font-family="sans-serif" font-size="14" lengthAdjust="spacing" textLength="0" x="1646.5" y="121.5352"/><line style="stroke:#A80036;stroke-width:1.0;" x1="1629.5" x2="1629.5" y1="106" y2="126.4883"/><rect fill="none" height="20.4883" rx="5" ry="5" style="stroke:#A80036;stroke-width:1.5;" width="68" x="1583.5" y="106"/><rect fill="#FEFECE" height="61.4648" rx="5" ry="5" style="stroke:#FEFECE;stroke-width:1.5;" width="534" x="1811" y="85.5"/><text fill="#000000" font-family="sans-serif" font-size="14" lengthAdjust="spacing" textLength="77" x="1816" y="101.0352">description</text><text fill="#000000" font-family="sans-serif" font-size="14" lengthAdjust="spacing" textLength="437" x="1903" y="101.0352">The sleep sensor, true = sleep sensed, false = sleep not sensed.</text><line style="stroke:#A80036;stroke-width:1.0;" x1="1898" x2="1898" y1="85.5" y2="105.9883"/><line style="stroke:#A80036;stroke-width:1.0;" x1="1811" x2="2345" y1="105.9883" y2="105.9883"/><text fill="#000000" font-family="sans-serif" font-size="14" lengthAdjust="spacing" textLength="55" x="1816" y="121.5234">writable</text><text fill="#000000" font-family="sans-serif" font-size="14" lengthAdjust="spacing" textLength="48" x="1903" y="121.5234">☐ false</text><line style="stroke:#A80036;stroke-width:1.0;" x1="1898" x2="1898" y1="105.9883" y2="126.4766"/><line style="stroke:#A80036;stroke-width:1.0;" x1="1811" x2="2345" y1="126.4766" y2="126.4766"/><text fill="#000000" font-family="sans-serif" font-size="14" lengthAdjust="spacing" textLength="29" x="1816" y="142.0117">type</text><text fill="#000000" font-family="sans-serif" font-size="14" lengthAdjust="spacing" textLength="56" x="1903" y="142.0117">boolean</text><line style="stroke:#A80036;stroke-width:1.0;" x1="1898" x2="1898" y1="126.4766" y2="146.9648"/><rect fill="none" height="61.4648" rx="5" ry="5" style="stroke:#A80036;stroke-width:1.5;" width="534" x="1811" y="85.5"/><rect fill="#FEFECE" height="20.4883" rx="5" ry="5" style="stroke:#FEFECE;stroke-width:1.5;" width="313" x="1461" y="144"/><text fill="#000000" font-family="sans-serif" font-size="14" lengthAdjust="spacing" textLength="303" x="1466" y="159.5352">#/sdfObject/sensor.sleep/sdfProperty/value</text><rect fill="none" height="20.4883" rx="5" ry="5" style="stroke:#A80036;stroke-width:1.5;" width="313" x="1461" y="144"/><path d="M95,75 L108,75 C117.3442,75 126.8208,74.9198 136.3833,74.7688 " fill="none" style="stroke:#A80036;stroke-width:1.0;stroke-dasharray:3.0,3.0;"/><path d="M136.4378,77.8434 L138.6892,74.7279 L136.3288,71.6942 L144.0697,74.6326 L136.4378,77.8434 " fill="#A80036" style="stroke:#A80036;stroke-width:1.0;"/><ellipse cx="95" cy="75" fill="#A80036" rx="3" ry="3" style="stroke:#A80036;stroke-width:1.0;stroke-dasharray:3.0,3.0;"/><path d="M1640,116 L1653,116 C1701.7191,116 1753.5833,116 1803.7197,116 " fill="none" style="stroke:#A80036;stroke-width:1.0;stroke-dasharray:3.0,3.0;"/><path d="M1803.7197,119.0828 L1806.0318,116 L1803.7197,112.9172 L1811.4266,116 L1803.7197,119.0828 " fill="#A80036" style="stroke:#A80036;stroke-width:1.0;"/><ellipse cx="1640" cy="116" fill="#A80036" rx="3" ry="3" style="stroke:#A80036;stroke-width:1.0;stroke-dasharray:3.0,3.0;"/><path d="M1412,119 L1425,119 C1476.9764,119 1536.8578,117.8873 1575.737,117.0172 " fill="none" style="stroke:#A80036;stroke-width:1.0;stroke-dasharray:3.0,3.0;"/><path d="M1575.8096,120.2041 L1578.1271,116.9627 L1575.6644,113.8303 L1583.7042,116.8357 L1575.8096,120.2041 " fill="#A80036" style="stroke:#A80036;stroke-width:1.0;"/><ellipse cx="1412" cy="119" fill="#A80036" rx="3" ry="3" style="stroke:#A80036;stroke-width:1.0;stroke-dasharray:3.0,3.0;"/><path d="M1412,151 L1425,151 C1434.3384,151 1443.9319,151.0359 1453.613,151.0999 " fill="none" style="stroke:#A80036;stroke-width:1.0;stroke-dasharray:3.0,3.0;"/><path d="M1453.5901,154.2117 L1455.9469,151.117 L1453.6359,147.9881 L1461.3926,151.1571 L1453.5901,154.2117 " fill="#A80036" style="stroke:#A80036;stroke-width:1.0;"/><ellipse cx="1412" cy="151" fill="#A80036" rx="3" ry="3" style="stroke:#A80036;stroke-width:1.0;stroke-dasharray:3.0,3.0;"/><path d="M519,120 L532,120 C628.4526,120 733.6634,120 828.546,120 " fill="none" style="stroke:#A80036;stroke-width:1.0;stroke-dasharray:3.0,3.0;"/><path d="M828.546,123.0742 L830.8516,120 L828.546,116.9258 L836.2315,120 L828.546,123.0742 " fill="#A80036" style="stroke:#A80036;stroke-width:1.0;"/><ellipse cx="519" cy="120" fill="#A80036" rx="3" ry="3" style="stroke:#A80036;stroke-width:1.0;stroke-dasharray:3.0,3.0;"/><path d="M95,96 L108,96 C124.1536,96 127.924,99.4191 144,101 C234.1397,109.8641 338.6951,115.0531 404.8355,117.7088 " fill="none" style="stroke:#A80036;stroke-width:1.0;stroke-dasharray:3.0,3.0;"/><path d="M404.711,120.8575 L407.1971,117.8022 L404.9601,114.56 L412.7075,118.0201 L404.711,120.8575 " fill="#A80036" style="stroke:#A80036;stroke-width:1.0;"/><ellipse cx="95" cy="96" fill="#A80036" rx="3" ry="3" style="stroke:#A80036;stroke-width:1.0;stroke-dasharray:3.0,3.0;"/><!--MD5=[3b23c34cdce983cf03eda175fa58b4db]
@startjson
{
  "info": {
    "copyright": "copyright 2016-2017, 2019 Open Connectivity Foundation, Inc. All rights reserved.",
    "license": "https://github.com/one-data-model/oneDM/blob/master/LICENSE",
    "title": "Sleep Sensor",
    "version": "2019-02-15"
  },
  "sdfObject": {
    "sensor.sleep": {
      "description": "This Resource describes whether human sleep has been sensed or not.\\nThe Property \"value\" is a boolean. A value of 'true' means that sleep\\nhas been sensed. A value of 'false' means that sleep not been sensed.",
      "sdfProperty": {
        "value": {
          "description": "The sleep sensor, true = sleep sensed, false = sleep not sensed.",
          "writable": false,
          "type": "boolean"
        }
      },
      "sdfRequired": [
        "#/sdfObject/sensor.sleep/sdfProperty/value"
      ]
    }
  }
}
@endjson

PlantUML version 1.2021.2(Sun Mar 07 13:10:27 EET 2021)
(GPL source distribution)
Java Runtime: OpenJDK Runtime Environment
JVM: OpenJDK 64-Bit Server VM
Default Encoding: UTF-8
Language: en
Country: FI
--></g></svg>