<?xml version="1.0" encoding="UTF-8" standalone="no"?><svg xmlns="http://www.w3.org/2000/svg" xmlns:xlink="http://www.w3.org/1999/xlink" contentScriptType="application/ecmascript" contentStyleType="text/css" height="267px" preserveAspectRatio="none" style="width:2096px;height:267px;" version="1.1" viewBox="0 0 2096 267" width="2096px" zoomAndPan="magnify"><defs/><g><rect fill="#FEFECE" height="40.9766" rx="5" ry="5" style="stroke:#FEFECE;stroke-width:1.5;" width="97" x="10" y="85.5"/><text fill="#000000" font-family="sans-serif" font-size="14" lengthAdjust="spacing" textLength="27" x="15" y="101.0352">info</text><text fill="#000000" font-family="sans-serif" font-size="14" lengthAdjust="spacing" textLength="0" x="102" y="101.0352"/><line style="stroke:#A80036;stroke-width:1.0;" x1="85" x2="85" y1="85.5" y2="105.9883"/><line style="stroke:#A80036;stroke-width:1.0;" x1="10" x2="107" y1="105.9883" y2="105.9883"/><text fill="#000000" font-family="sans-serif" font-size="14" lengthAdjust="spacing" textLength="65" x="15" y="121.5234">sdfObject</text><text fill="#000000" font-family="sans-serif" font-size="14" lengthAdjust="spacing" textLength="0" x="102" y="121.5234"/><line style="stroke:#A80036;stroke-width:1.0;" x1="85" x2="85" y1="105.9883" y2="126.4766"/><rect fill="none" height="40.9766" rx="5" ry="5" style="stroke:#A80036;stroke-width:1.5;" width="97" x="10" y="85.5"/><rect fill="#FEFECE" height="81.9531" rx="5" ry="5" style="stroke:#FEFECE;stroke-width:1.5;" width="611" x="144" y="30"/><text fill="#000000" font-family="sans-serif" font-size="14" lengthAdjust="spacing" textLength="65" x="149" y="45.5352">copyright</text><text fill="#000000" font-family="sans-serif" font-size="14" lengthAdjust="spacing" textLength="526" x="224" y="45.5352">copyright 2018-2019 Open Connectivity Foundation, Inc. All rights reserved.</text><line style="stroke:#A80036;stroke-width:1.0;" x1="219" x2="219" y1="30" y2="50.4883"/><line style="stroke:#A80036;stroke-width:1.0;" x1="144" x2="755" y1="50.4883" y2="50.4883"/><text fill="#000000" font-family="sans-serif" font-size="14" lengthAdjust="spacing" textLength="47" x="149" y="66.0234">license</text><text fill="#000000" font-family="sans-serif" font-size="14" lengthAdjust="spacing" textLength="462" x="224" y="66.0234">https://github.com/one-data-model/oneDM/blob/master/LICENSE</text><line style="stroke:#A80036;stroke-width:1.0;" x1="219" x2="219" y1="50.4883" y2="70.9766"/><line style="stroke:#A80036;stroke-width:1.0;" x1="144" x2="755" y1="70.9766" y2="70.9766"/><text fill="#000000" font-family="sans-serif" font-size="14" lengthAdjust="spacing" textLength="26" x="149" y="86.5117">title</text><text fill="#000000" font-family="sans-serif" font-size="14" lengthAdjust="spacing" textLength="82" x="224" y="86.5117">KeyPadChar</text><line style="stroke:#A80036;stroke-width:1.0;" x1="219" x2="219" y1="70.9766" y2="91.4648"/><line style="stroke:#A80036;stroke-width:1.0;" x1="144" x2="755" y1="91.4648" y2="91.4648"/><text fill="#000000" font-family="sans-serif" font-size="14" lengthAdjust="spacing" textLength="50" x="149" y="107">version</text><text fill="#000000" font-family="sans-serif" font-size="14" lengthAdjust="spacing" textLength="88" x="224" y="107">2018-12-12</text><line style="stroke:#A80036;stroke-width:1.0;" x1="219" x2="219" y1="91.4648" y2="111.9531"/><rect fill="none" height="81.9531" rx="5" ry="5" style="stroke:#A80036;stroke-width:1.5;" width="611" x="144" y="30"/><rect fill="#FEFECE" height="20.4883" rx="5" ry="5" style="stroke:#FEFECE;stroke-width:1.5;" width="111" x="394" y="130"/><text fill="#000000" font-family="sans-serif" font-size="14" lengthAdjust="spacing" textLength="79" x="399" y="145.5352">keypadchar</text><text fill="#000000" font-family="sans-serif" font-size="14" lengthAdjust="spacing" textLength="0" x="500" y="145.5352"/><line style="stroke:#A80036;stroke-width:1.0;" x1="483" x2="483" y1="130" y2="150.4883"/><rect fill="none" height="20.4883" rx="5" ry="5" style="stroke:#A80036;stroke-width:1.5;" width="111" x="394" y="130"/><rect fill="#FEFECE" height="77.9531" rx="5" ry="5" style="stroke:#FEFECE;stroke-width:1.5;" width="531" x="792" y="101"/><text fill="#000000" font-family="sans-serif" font-size="14" lengthAdjust="spacing" textLength="77" x="797" y="116.5352">description</text><text fill="#000000" font-family="sans-serif" font-size="14" lengthAdjust="spacing" textLength="428" x="890" y="116.5352">This Resource describes a char (0-9,*,#) which is selected on a</text><text fill="#000000" font-family="sans-serif" font-size="14" lengthAdjust="spacing" textLength="111" x="890" y="133.0234">number keypad.</text><line style="stroke:#A80036;stroke-width:1.0;" x1="885" x2="885" y1="101" y2="137.9766"/><line style="stroke:#A80036;stroke-width:1.0;" x1="792" x2="1323" y1="137.9766" y2="137.9766"/><text fill="#000000" font-family="sans-serif" font-size="14" lengthAdjust="spacing" textLength="79" x="797" y="153.5117">sdfProperty</text><text fill="#000000" font-family="sans-serif" font-size="14" lengthAdjust="spacing" textLength="0" x="902" y="153.5117"/><line style="stroke:#A80036;stroke-width:1.0;" x1="885" x2="885" y1="137.9766" y2="158.4648"/><line style="stroke:#A80036;stroke-width:1.0;" x1="792" x2="1323" y1="158.4648" y2="158.4648"/><text fill="#000000" font-family="sans-serif" font-size="14" lengthAdjust="spacing" textLength="83" x="797" y="174">sdfRequired</text><text fill="#000000" font-family="sans-serif" font-size="14" lengthAdjust="spacing" textLength="0" x="902" y="174"/><line style="stroke:#A80036;stroke-width:1.0;" x1="885" x2="885" y1="158.4648" y2="178.9531"/><rect fill="none" height="77.9531" rx="5" ry="5" style="stroke:#A80036;stroke-width:1.5;" width="531" x="792" y="101"/><rect fill="#FEFECE" height="20.4883" rx="5" ry="5" style="stroke:#FEFECE;stroke-width:1.5;" width="91" x="1479" y="124"/><text fill="#000000" font-family="sans-serif" font-size="14" lengthAdjust="spacing" textLength="59" x="1484" y="139.5352">keyvalue</text><text fill="#000000" font-family="sans-serif" font-size="14" lengthAdjust="spacing" textLength="0" x="1565" y="139.5352"/><line style="stroke:#A80036;stroke-width:1.0;" x1="1548" x2="1548" y1="124" y2="144.4883"/><rect fill="none" height="20.4883" rx="5" ry="5" style="stroke:#A80036;stroke-width:1.5;" width="91" x="1479" y="124"/><rect fill="#FEFECE" height="61.4648" rx="5" ry="5" style="stroke:#FEFECE;stroke-width:1.5;" width="302" x="1726" y="103.5"/><text fill="#000000" font-family="sans-serif" font-size="14" lengthAdjust="spacing" textLength="29" x="1731" y="119.0352">type</text><text fill="#000000" font-family="sans-serif" font-size="14" lengthAdjust="spacing" textLength="40" x="1818" y="119.0352">string</text><line style="stroke:#A80036;stroke-width:1.0;" x1="1813" x2="1813" y1="103.5" y2="123.9883"/><line style="stroke:#A80036;stroke-width:1.0;" x1="1726" x2="2028" y1="123.9883" y2="123.9883"/><text fill="#000000" font-family="sans-serif" font-size="14" lengthAdjust="spacing" textLength="39" x="1731" y="139.5234">enum</text><text fill="#000000" font-family="sans-serif" font-size="14" lengthAdjust="spacing" textLength="0" x="1830" y="139.5234"/><line style="stroke:#A80036;stroke-width:1.0;" x1="1813" x2="1813" y1="123.9883" y2="144.4766"/><line style="stroke:#A80036;stroke-width:1.0;" x1="1726" x2="2028" y1="144.4766" y2="144.4766"/><text fill="#000000" font-family="sans-serif" font-size="14" lengthAdjust="spacing" textLength="77" x="1731" y="160.0117">description</text><text fill="#000000" font-family="sans-serif" font-size="14" lengthAdjust="spacing" textLength="205" x="1818" y="160.0117">The value of the key pad char.</text><line style="stroke:#A80036;stroke-width:1.0;" x1="1813" x2="1813" y1="144.4766" y2="164.9648"/><rect fill="none" height="61.4648" rx="5" ry="5" style="stroke:#A80036;stroke-width:1.5;" width="302" x="1726" y="103.5"/><rect fill="#FEFECE" height="245.8594" rx="5" ry="5" style="stroke:#FEFECE;stroke-width:1.5;" width="19" x="2065" y="10"/><text fill="#000000" font-family="sans-serif" font-size="14" lengthAdjust="spacing" textLength="9" x="2070" y="25.5352">0</text><line style="stroke:#A80036;stroke-width:1.0;" x1="2065" x2="2084" y1="30.4883" y2="30.4883"/><text fill="#000000" font-family="sans-serif" font-size="14" lengthAdjust="spacing" textLength="9" x="2070" y="46.0234">1</text><line style="stroke:#A80036;stroke-width:1.0;" x1="2065" x2="2084" y1="50.9766" y2="50.9766"/><text fill="#000000" font-family="sans-serif" font-size="14" lengthAdjust="spacing" textLength="9" x="2070" y="66.5117">2</text><line style="stroke:#A80036;stroke-width:1.0;" x1="2065" x2="2084" y1="71.4648" y2="71.4648"/><text fill="#000000" font-family="sans-serif" font-size="14" lengthAdjust="spacing" textLength="9" x="2070" y="87">3</text><line style="stroke:#A80036;stroke-width:1.0;" x1="2065" x2="2084" y1="91.9531" y2="91.9531"/><text fill="#000000" font-family="sans-serif" font-size="14" lengthAdjust="spacing" textLength="9" x="2070" y="107.4883">4</text><line style="stroke:#A80036;stroke-width:1.0;" x1="2065" x2="2084" y1="112.4414" y2="112.4414"/><text fill="#000000" font-family="sans-serif" font-size="14" lengthAdjust="spacing" textLength="9" x="2070" y="127.9766">5</text><line style="stroke:#A80036;stroke-width:1.0;" x1="2065" x2="2084" y1="132.9297" y2="132.9297"/><text fill="#000000" font-family="sans-serif" font-size="14" lengthAdjust="spacing" textLength="9" x="2070" y="148.4648">6</text><line style="stroke:#A80036;stroke-width:1.0;" x1="2065" x2="2084" y1="153.418" y2="153.418"/><text fill="#000000" font-family="sans-serif" font-size="14" lengthAdjust="spacing" textLength="9" x="2070" y="168.9531">7</text><line style="stroke:#A80036;stroke-width:1.0;" x1="2065" x2="2084" y1="173.9063" y2="173.9063"/><text fill="#000000" font-family="sans-serif" font-size="14" lengthAdjust="spacing" textLength="9" x="2070" y="189.4414">8</text><line style="stroke:#A80036;stroke-width:1.0;" x1="2065" x2="2084" y1="194.3945" y2="194.3945"/><text fill="#000000" font-family="sans-serif" font-size="14" lengthAdjust="spacing" textLength="9" x="2070" y="209.9297">9</text><line style="stroke:#A80036;stroke-width:1.0;" x1="2065" x2="2084" y1="214.8828" y2="214.8828"/><text fill="#000000" font-family="sans-serif" font-size="14" lengthAdjust="spacing" textLength="7" x="2070" y="230.418">*</text><line style="stroke:#A80036;stroke-width:1.0;" x1="2065" x2="2084" y1="235.3711" y2="235.3711"/><text fill="#000000" font-family="sans-serif" font-size="14" lengthAdjust="spacing" textLength="9" x="2070" y="250.9063">#</text><rect fill="none" height="245.8594" rx="5" ry="5" style="stroke:#A80036;stroke-width:1.5;" width="19" x="2065" y="10"/><rect fill="#FEFECE" height="20.4883" rx="5" ry="5" style="stroke:#FEFECE;stroke-width:1.5;" width="329" x="1360" y="162"/><text fill="#000000" font-family="sans-serif" font-size="14" lengthAdjust="spacing" textLength="319" x="1365" y="177.5352">#/sdfObject/keypadchar/sdfProperty/keyvalue</text><rect fill="none" height="20.4883" rx="5" ry="5" style="stroke:#A80036;stroke-width:1.5;" width="329" x="1360" y="162"/><path d="M95,95 L108,95 C117.3658,95 126.8728,94.9088 136.4679,94.7376 " fill="none" style="stroke:#A80036;stroke-width:1.0;stroke-dasharray:3.0,3.0;"/><path d="M136.5296,97.8228 L138.7818,94.6914 L136.4062,91.6524 L144.1809,94.5834 L136.5296,97.8228 " fill="#A80036" style="stroke:#A80036;stroke-width:1.0;"/><ellipse cx="95" cy="95" fill="#A80036" rx="3" ry="3" style="stroke:#A80036;stroke-width:1.0;stroke-dasharray:3.0,3.0;"/><path d="M2016,133 L2029,133 C2038.374,133 2048.7885,133 2057.4714,133 " fill="none" style="stroke:#A80036;stroke-width:1.0;stroke-dasharray:3.0,3.0;"/><path d="M2057.4714,136.0815 L2059.7825,133 L2057.4714,129.9185 L2065.1751,133 L2057.4714,136.0815 " fill="#A80036" style="stroke:#A80036;stroke-width:1.0;"/><ellipse cx="2016" cy="133" fill="#A80036" rx="3" ry="3" style="stroke:#A80036;stroke-width:1.0;stroke-dasharray:3.0,3.0;"/><path d="M1559,134 L1572,134 C1619.6711,134 1671.5401,134 1718.7347,134 " fill="none" style="stroke:#A80036;stroke-width:1.0;stroke-dasharray:3.0,3.0;"/><path d="M1718.7347,137.0132 L1720.9946,134 L1718.7347,130.9868 L1726.2677,134 L1718.7347,137.0132 " fill="#A80036" style="stroke:#A80036;stroke-width:1.0;"/><ellipse cx="1559" cy="134" fill="#A80036" rx="3" ry="3" style="stroke:#A80036;stroke-width:1.0;stroke-dasharray:3.0,3.0;"/><path d="M1311,140 L1324,140 C1374.0941,140 1431.2142,138.0961 1471.5492,136.4333 " fill="none" style="stroke:#A80036;stroke-width:1.0;stroke-dasharray:3.0,3.0;"/><path d="M1471.6764,139.4666 L1473.8241,136.3379 L1471.422,133.4 L1479.1323,136.1154 L1471.6764,139.4666 " fill="#A80036" style="stroke:#A80036;stroke-width:1.0;"/><ellipse cx="1311" cy="140" fill="#A80036" rx="3" ry="3" style="stroke:#A80036;stroke-width:1.0;stroke-dasharray:3.0,3.0;"/><path d="M1311,166 L1324,166 C1333.3195,166 1342.8822,166.0659 1352.5347,166.1839 " fill="none" style="stroke:#A80036;stroke-width:1.0;stroke-dasharray:3.0,3.0;"/><path d="M1352.4925,169.2869 L1354.862,166.2155 L1352.577,163.0809 L1360.2922,166.2894 L1352.4925,169.2869 " fill="#A80036" style="stroke:#A80036;stroke-width:1.0;"/><ellipse cx="1311" cy="166" fill="#A80036" rx="3" ry="3" style="stroke:#A80036;stroke-width:1.0;stroke-dasharray:3.0,3.0;"/><path d="M494,140 L507,140 C597.3464,140 696.0408,140 784.5707,140 " fill="none" style="stroke:#A80036;stroke-width:1.0;stroke-dasharray:3.0,3.0;"/><path d="M784.5707,143.0858 L786.885,140 L784.5707,136.9142 L792.2851,140 L784.5707,143.0858 " fill="#A80036" style="stroke:#A80036;stroke-width:1.0;"/><ellipse cx="494" cy="140" fill="#A80036" rx="3" ry="3" style="stroke:#A80036;stroke-width:1.0;stroke-dasharray:3.0,3.0;"/><path d="M95,116 L108,116 C124.1536,116 127.9273,119.3856 144,121 C227.7815,129.4155 324.9093,134.6992 386.6325,137.4997 " fill="none" style="stroke:#A80036;stroke-width:1.0;stroke-dasharray:3.0,3.0;"/><path d="M386.4942,140.5883 L388.9489,137.6034 L386.7708,134.4111 L394.354,137.8455 L386.4942,140.5883 " fill="#A80036" style="stroke:#A80036;stroke-width:1.0;"/><ellipse cx="95" cy="116" fill="#A80036" rx="3" ry="3" style="stroke:#A80036;stroke-width:1.0;stroke-dasharray:3.0,3.0;"/><!--MD5=[6e6f430b7f83c78de1a72436a4bbfddb]
@startjson
{
  "info": {
    "copyright": "copyright 2018-2019 Open Connectivity Foundation, Inc. All rights reserved.",
    "license": "https://github.com/one-data-model/oneDM/blob/master/LICENSE",
    "title": "KeyPadChar",
    "version": "2018-12-12"
  },
  "sdfObject": {
    "keypadchar": {
      "description": "This Resource describes a char (0-9,*,#) which is selected on a\\nnumber keypad.",
      "sdfProperty": {
        "keyvalue": {
          "type": "string",
          "enum": [
            "0",
            "1",
            "2",
            "3",
            "4",
            "5",
            "6",
            "7",
            "8",
            "9",
            "*",
            "#"
          ],
          "description": "The value of the key pad char."
        }
      },
      "sdfRequired": [
        "#/sdfObject/keypadchar/sdfProperty/keyvalue"
      ]
    }
  }
}
@endjson

PlantUML version 1.2021.2(Sun Mar 07 13:10:27 EET 2021)
(GPL source distribution)
Java Runtime: OpenJDK Runtime Environment
JVM: OpenJDK 64-Bit Server VM
Default Encoding: UTF-8
Language: en
Country: FI
--></g></svg>