<?xml version="1.0" encoding="UTF-8" standalone="no"?><svg xmlns="http://www.w3.org/2000/svg" xmlns:xlink="http://www.w3.org/1999/xlink" contentScriptType="application/ecmascript" contentStyleType="text/css" height="390px" preserveAspectRatio="none" style="width:2436px;height:390px;" version="1.1" viewBox="0 0 2436 390" width="2436px" zoomAndPan="magnify"><defs/><g><rect fill="#FEFECE" height="40.9766" rx="5" ry="5" style="stroke:#FEFECE;stroke-width:1.5;" width="97" x="10" y="143.5"/><text fill="#000000" font-family="sans-serif" font-size="14" lengthAdjust="spacing" textLength="27" x="15" y="159.0352">info</text><text fill="#000000" font-family="sans-serif" font-size="14" lengthAdjust="spacing" textLength="0" x="102" y="159.0352"/><line style="stroke:#A80036;stroke-width:1.0;" x1="85" x2="85" y1="143.5" y2="163.9883"/><line style="stroke:#A80036;stroke-width:1.0;" x1="10" x2="107" y1="163.9883" y2="163.9883"/><text fill="#000000" font-family="sans-serif" font-size="14" lengthAdjust="spacing" textLength="65" x="15" y="179.5234">sdfObject</text><text fill="#000000" font-family="sans-serif" font-size="14" lengthAdjust="spacing" textLength="0" x="102" y="179.5234"/><line style="stroke:#A80036;stroke-width:1.0;" x1="85" x2="85" y1="163.9883" y2="184.4766"/><rect fill="none" height="40.9766" rx="5" ry="5" style="stroke:#A80036;stroke-width:1.5;" width="97" x="10" y="143.5"/><rect fill="#FEFECE" height="81.9531" rx="5" ry="5" style="stroke:#FEFECE;stroke-width:1.5;" width="614" x="144" y="88"/><text fill="#000000" font-family="sans-serif" font-size="14" lengthAdjust="spacing" textLength="65" x="149" y="103.5352">copyright</text><text fill="#000000" font-family="sans-serif" font-size="14" lengthAdjust="spacing" textLength="529" x="224" y="103.5352">Copyright 2018-2019 Open Connectivity Foundation, Inc. All rights reserved.</text><line style="stroke:#A80036;stroke-width:1.0;" x1="219" x2="219" y1="88" y2="108.4883"/><line style="stroke:#A80036;stroke-width:1.0;" x1="144" x2="758" y1="108.4883" y2="108.4883"/><text fill="#000000" font-family="sans-serif" font-size="14" lengthAdjust="spacing" textLength="47" x="149" y="124.0234">license</text><text fill="#000000" font-family="sans-serif" font-size="14" lengthAdjust="spacing" textLength="462" x="224" y="124.0234">https://github.com/one-data-model/oneDM/blob/master/LICENSE</text><line style="stroke:#A80036;stroke-width:1.0;" x1="219" x2="219" y1="108.4883" y2="128.9766"/><line style="stroke:#A80036;stroke-width:1.0;" x1="144" x2="758" y1="128.9766" y2="128.9766"/><text fill="#000000" font-family="sans-serif" font-size="14" lengthAdjust="spacing" textLength="26" x="149" y="144.5117">title</text><text fill="#000000" font-family="sans-serif" font-size="14" lengthAdjust="spacing" textLength="71" x="224" y="144.5117">Heart Rate</text><line style="stroke:#A80036;stroke-width:1.0;" x1="219" x2="219" y1="128.9766" y2="149.4648"/><line style="stroke:#A80036;stroke-width:1.0;" x1="144" x2="758" y1="149.4648" y2="149.4648"/><text fill="#000000" font-family="sans-serif" font-size="14" lengthAdjust="spacing" textLength="50" x="149" y="165">version</text><text fill="#000000" font-family="sans-serif" font-size="14" lengthAdjust="spacing" textLength="88" x="224" y="165">2019-03-04</text><line style="stroke:#A80036;stroke-width:1.0;" x1="219" x2="219" y1="149.4648" y2="169.9531"/><rect fill="none" height="81.9531" rx="5" ry="5" style="stroke:#A80036;stroke-width:1.5;" width="614" x="144" y="88"/><rect fill="#FEFECE" height="20.4883" rx="5" ry="5" style="stroke:#FEFECE;stroke-width:1.5;" width="95" x="403.5" y="188"/><text fill="#000000" font-family="sans-serif" font-size="14" lengthAdjust="spacing" textLength="63" x="408.5" y="203.5352">heartrate</text><text fill="#000000" font-family="sans-serif" font-size="14" lengthAdjust="spacing" textLength="0" x="493.5" y="203.5352"/><line style="stroke:#A80036;stroke-width:1.0;" x1="476.5" x2="476.5" y1="188" y2="208.4883"/><rect fill="none" height="20.4883" rx="5" ry="5" style="stroke:#A80036;stroke-width:1.5;" width="95" x="403.5" y="188"/><rect fill="#FEFECE" height="127.418" rx="5" ry="5" style="stroke:#FEFECE;stroke-width:1.5;" width="551" x="795" y="134.5"/><text fill="#000000" font-family="sans-serif" font-size="14" lengthAdjust="spacing" textLength="77" x="800" y="150.0352">description</text><text fill="#000000" font-family="sans-serif" font-size="14" lengthAdjust="spacing" textLength="448" x="893" y="150.0352">This Resource describes the Properties associated with a person's</text><text fill="#000000" font-family="sans-serif" font-size="14" lengthAdjust="spacing" textLength="392" x="893" y="166.5234">heart rate. The unit, which is the default unit, is bpm. The</text><text fill="#000000" font-family="sans-serif" font-size="14" lengthAdjust="spacing" textLength="421" x="893" y="183.0117">heartrate Property is a read-only value that is provided by the</text><text fill="#000000" font-family="sans-serif" font-size="14" lengthAdjust="spacing" textLength="425" x="893" y="199.5">server. When range (from "oic. r. baseresource") is omitted the</text><text fill="#000000" font-family="sans-serif" font-size="14" lengthAdjust="spacing" textLength="189" x="893" y="215.9883">default is 0 to +MAXFLOAT.</text><line style="stroke:#A80036;stroke-width:1.0;" x1="888" x2="888" y1="134.5" y2="220.9414"/><line style="stroke:#A80036;stroke-width:1.0;" x1="795" x2="1346" y1="220.9414" y2="220.9414"/><text fill="#000000" font-family="sans-serif" font-size="14" lengthAdjust="spacing" textLength="79" x="800" y="236.4766">sdfProperty</text><text fill="#000000" font-family="sans-serif" font-size="14" lengthAdjust="spacing" textLength="0" x="905" y="236.4766"/><line style="stroke:#A80036;stroke-width:1.0;" x1="888" x2="888" y1="220.9414" y2="241.4297"/><line style="stroke:#A80036;stroke-width:1.0;" x1="795" x2="1346" y1="241.4297" y2="241.4297"/><text fill="#000000" font-family="sans-serif" font-size="14" lengthAdjust="spacing" textLength="83" x="800" y="256.9648">sdfRequired</text><text fill="#000000" font-family="sans-serif" font-size="14" lengthAdjust="spacing" textLength="0" x="905" y="256.9648"/><line style="stroke:#A80036;stroke-width:1.0;" x1="888" x2="888" y1="241.4297" y2="261.918"/><rect fill="none" height="127.418" rx="5" ry="5" style="stroke:#A80036;stroke-width:1.5;" width="551" x="795" y="134.5"/><rect fill="#FEFECE" height="61.4648" rx="5" ry="5" style="stroke:#FEFECE;stroke-width:1.5;" width="95" x="1494" y="158.5"/><text fill="#000000" font-family="sans-serif" font-size="14" lengthAdjust="spacing" textLength="63" x="1499" y="174.0352">heartrate</text><text fill="#000000" font-family="sans-serif" font-size="14" lengthAdjust="spacing" textLength="0" x="1584" y="174.0352"/><line style="stroke:#A80036;stroke-width:1.0;" x1="1567" x2="1567" y1="158.5" y2="178.9883"/><line style="stroke:#A80036;stroke-width:1.0;" x1="1494" x2="1589" y1="178.9883" y2="178.9883"/><text fill="#000000" font-family="sans-serif" font-size="14" lengthAdjust="spacing" textLength="40" x="1499" y="194.5234">range</text><text fill="#000000" font-family="sans-serif" font-size="14" lengthAdjust="spacing" textLength="0" x="1584" y="194.5234"/><line style="stroke:#A80036;stroke-width:1.0;" x1="1567" x2="1567" y1="178.9883" y2="199.4766"/><line style="stroke:#A80036;stroke-width:1.0;" x1="1494" x2="1589" y1="199.4766" y2="199.4766"/><text fill="#000000" font-family="sans-serif" font-size="14" lengthAdjust="spacing" textLength="29" x="1499" y="215.0117">step</text><text fill="#000000" font-family="sans-serif" font-size="14" lengthAdjust="spacing" textLength="0" x="1584" y="215.0117"/><line style="stroke:#A80036;stroke-width:1.0;" x1="1567" x2="1567" y1="199.4766" y2="219.9648"/><rect fill="none" height="61.4648" rx="5" ry="5" style="stroke:#A80036;stroke-width:1.5;" width="95" x="1494" y="158.5"/><rect fill="#FEFECE" height="81.9531" rx="5" ry="5" style="stroke:#FEFECE;stroke-width:1.5;" width="410" x="1808" y="10"/><text fill="#000000" font-family="sans-serif" font-size="14" lengthAdjust="spacing" textLength="77" x="1813" y="25.5352">description</text><text fill="#000000" font-family="sans-serif" font-size="14" lengthAdjust="spacing" textLength="313" x="1900" y="25.5352">This Property describes the heart rate in bpm.</text><line style="stroke:#A80036;stroke-width:1.0;" x1="1895" x2="1895" y1="10" y2="30.4883"/><line style="stroke:#A80036;stroke-width:1.0;" x1="1808" x2="2218" y1="30.4883" y2="30.4883"/><text fill="#000000" font-family="sans-serif" font-size="14" lengthAdjust="spacing" textLength="29" x="1813" y="46.0234">type</text><text fill="#000000" font-family="sans-serif" font-size="14" lengthAdjust="spacing" textLength="49" x="1900" y="46.0234">integer</text><line style="stroke:#A80036;stroke-width:1.0;" x1="1895" x2="1895" y1="30.4883" y2="50.9766"/><line style="stroke:#A80036;stroke-width:1.0;" x1="1808" x2="2218" y1="50.9766" y2="50.9766"/><text fill="#000000" font-family="sans-serif" font-size="14" lengthAdjust="spacing" textLength="65" x="1813" y="66.5117">minimum</text><text fill="#000000" font-family="sans-serif" font-size="14" lengthAdjust="spacing" textLength="9" x="1900" y="66.5117">0</text><line style="stroke:#A80036;stroke-width:1.0;" x1="1895" x2="1895" y1="50.9766" y2="71.4648"/><line style="stroke:#A80036;stroke-width:1.0;" x1="1808" x2="2218" y1="71.4648" y2="71.4648"/><text fill="#000000" font-family="sans-serif" font-size="14" lengthAdjust="spacing" textLength="55" x="1813" y="87">writable</text><text fill="#000000" font-family="sans-serif" font-size="14" lengthAdjust="spacing" textLength="48" x="1900" y="87">☐ false</text><line style="stroke:#A80036;stroke-width:1.0;" x1="1895" x2="1895" y1="71.4648" y2="91.9531"/><rect fill="none" height="81.9531" rx="5" ry="5" style="stroke:#A80036;stroke-width:1.5;" width="410" x="1808" y="10"/><rect fill="#FEFECE" height="155.9063" rx="5" ry="5" style="stroke:#FEFECE;stroke-width:1.5;" width="552" x="1737" y="110"/><text fill="#000000" font-family="sans-serif" font-size="14" lengthAdjust="spacing" textLength="29" x="1742" y="125.5352">type</text><text fill="#000000" font-family="sans-serif" font-size="14" lengthAdjust="spacing" textLength="35" x="1829" y="125.5352">array</text><line style="stroke:#A80036;stroke-width:1.0;" x1="1824" x2="1824" y1="110" y2="130.4883"/><line style="stroke:#A80036;stroke-width:1.0;" x1="1737" x2="2289" y1="130.4883" y2="130.4883"/><text fill="#000000" font-family="sans-serif" font-size="14" lengthAdjust="spacing" textLength="77" x="1742" y="146.0234">description</text><text fill="#000000" font-family="sans-serif" font-size="14" lengthAdjust="spacing" textLength="455" x="1829" y="146.0234">The valid range for the Property in the Resource as an integer. The</text><text fill="#000000" font-family="sans-serif" font-size="14" lengthAdjust="spacing" textLength="439" x="1829" y="162.5117">first value in the array is the minimum value, the second value in</text><text fill="#000000" font-family="sans-serif" font-size="14" lengthAdjust="spacing" textLength="219" x="1829" y="179">the array is the maximum value.</text><line style="stroke:#A80036;stroke-width:1.0;" x1="1824" x2="1824" y1="130.4883" y2="183.9531"/><line style="stroke:#A80036;stroke-width:1.0;" x1="1737" x2="2289" y1="183.9531" y2="183.9531"/><text fill="#000000" font-family="sans-serif" font-size="14" lengthAdjust="spacing" textLength="55" x="1742" y="199.4883">writable</text><text fill="#000000" font-family="sans-serif" font-size="14" lengthAdjust="spacing" textLength="48" x="1829" y="199.4883">☐ false</text><line style="stroke:#A80036;stroke-width:1.0;" x1="1824" x2="1824" y1="183.9531" y2="204.4414"/><line style="stroke:#A80036;stroke-width:1.0;" x1="1737" x2="2289" y1="204.4414" y2="204.4414"/><text fill="#000000" font-family="sans-serif" font-size="14" lengthAdjust="spacing" textLength="63" x="1742" y="219.9766">minItems</text><text fill="#000000" font-family="sans-serif" font-size="14" lengthAdjust="spacing" textLength="9" x="1829" y="219.9766">2</text><line style="stroke:#A80036;stroke-width:1.0;" x1="1824" x2="1824" y1="204.4414" y2="224.9297"/><line style="stroke:#A80036;stroke-width:1.0;" x1="1737" x2="2289" y1="224.9297" y2="224.9297"/><text fill="#000000" font-family="sans-serif" font-size="14" lengthAdjust="spacing" textLength="67" x="1742" y="240.4648">maxItems</text><text fill="#000000" font-family="sans-serif" font-size="14" lengthAdjust="spacing" textLength="9" x="1829" y="240.4648">2</text><line style="stroke:#A80036;stroke-width:1.0;" x1="1824" x2="1824" y1="224.9297" y2="245.418"/><line style="stroke:#A80036;stroke-width:1.0;" x1="1737" x2="2289" y1="245.418" y2="245.418"/><text fill="#000000" font-family="sans-serif" font-size="14" lengthAdjust="spacing" textLength="37" x="1742" y="260.9531">items</text><text fill="#000000" font-family="sans-serif" font-size="14" lengthAdjust="spacing" textLength="0" x="1841" y="260.9531"/><line style="stroke:#A80036;stroke-width:1.0;" x1="1824" x2="1824" y1="245.418" y2="265.9063"/><rect fill="none" height="155.9063" rx="5" ry="5" style="stroke:#A80036;stroke-width:1.5;" width="552" x="1737" y="110"/><rect fill="#FEFECE" height="20.4883" rx="5" ry="5" style="stroke:#FEFECE;stroke-width:1.5;" width="98" x="2326" y="243"/><text fill="#000000" font-family="sans-serif" font-size="14" lengthAdjust="spacing" textLength="29" x="2331" y="258.5352">type</text><text fill="#000000" font-family="sans-serif" font-size="14" lengthAdjust="spacing" textLength="49" x="2370" y="258.5352">integer</text><line style="stroke:#A80036;stroke-width:1.0;" x1="2365" x2="2365" y1="243" y2="263.4883"/><rect fill="none" height="20.4883" rx="5" ry="5" style="stroke:#A80036;stroke-width:1.5;" width="98" x="2326" y="243"/><rect fill="#FEFECE" height="94.4414" rx="5" ry="5" style="stroke:#FEFECE;stroke-width:1.5;" width="549" x="1738.5" y="284"/><text fill="#000000" font-family="sans-serif" font-size="14" lengthAdjust="spacing" textLength="77" x="1743.5" y="299.5352">description</text><text fill="#000000" font-family="sans-serif" font-size="14" lengthAdjust="spacing" textLength="448" x="1830.5" y="299.5352">Step value across the defined range when the range is an integer.</text><text fill="#000000" font-family="sans-serif" font-size="14" lengthAdjust="spacing" textLength="449" x="1830.5" y="316.0234">This is the increment for valid values across the range; so if range</text><text fill="#000000" font-family="sans-serif" font-size="14" lengthAdjust="spacing" textLength="376" x="1830.5" y="332.5117">is 0..10 and step is 2 then valid values are 0,2,4,6,8,10.</text><line style="stroke:#A80036;stroke-width:1.0;" x1="1825.5" x2="1825.5" y1="284" y2="337.4648"/><line style="stroke:#A80036;stroke-width:1.0;" x1="1738.5" x2="2287.5" y1="337.4648" y2="337.4648"/><text fill="#000000" font-family="sans-serif" font-size="14" lengthAdjust="spacing" textLength="55" x="1743.5" y="353">writable</text><text fill="#000000" font-family="sans-serif" font-size="14" lengthAdjust="spacing" textLength="48" x="1830.5" y="353">☐ false</text><line style="stroke:#A80036;stroke-width:1.0;" x1="1825.5" x2="1825.5" y1="337.4648" y2="357.9531"/><line style="stroke:#A80036;stroke-width:1.0;" x1="1738.5" x2="2287.5" y1="357.9531" y2="357.9531"/><text fill="#000000" font-family="sans-serif" font-size="14" lengthAdjust="spacing" textLength="29" x="1743.5" y="373.4883">type</text><text fill="#000000" font-family="sans-serif" font-size="14" lengthAdjust="spacing" textLength="49" x="1830.5" y="373.4883">integer</text><line style="stroke:#A80036;stroke-width:1.0;" x1="1825.5" x2="1825.5" y1="357.9531" y2="378.4414"/><rect fill="none" height="94.4414" rx="5" ry="5" style="stroke:#A80036;stroke-width:1.5;" width="549" x="1738.5" y="284"/><rect fill="#FEFECE" height="20.4883" rx="5" ry="5" style="stroke:#FEFECE;stroke-width:1.5;" width="317" x="1383" y="238"/><text fill="#000000" font-family="sans-serif" font-size="14" lengthAdjust="spacing" textLength="307" x="1388" y="253.5352">#/sdfObject/heartrate/sdfProperty/heartrate</text><rect fill="none" height="20.4883" rx="5" ry="5" style="stroke:#A80036;stroke-width:1.5;" width="317" x="1383" y="238"/><path d="M95,153 L108,153 C117.4068,153 126.9554,152.9088 136.5926,152.7376 " fill="none" style="stroke:#A80036;stroke-width:1.0;stroke-dasharray:3.0,3.0;"/><path d="M136.6543,155.8363 L138.9166,152.6914 L136.5309,149.6389 L144.3394,152.5834 L136.6543,155.8363 " fill="#A80036" style="stroke:#A80036;stroke-width:1.0;"/><ellipse cx="95" cy="153" fill="#A80036" rx="3" ry="3" style="stroke:#A80036;stroke-width:1.0;stroke-dasharray:3.0,3.0;"/><path d="M1578,168 L1591,168 C1662.3953,168 1668.8974,122.4316 1737,101 C1757.5175,94.5432 1779.173,88.8247 1800.96,83.7822 " fill="none" style="stroke:#A80036;stroke-width:1.0;stroke-dasharray:3.0,3.0;"/><path d="M1801.6337,86.7391 L1803.1776,83.2769 L1800.2863,80.8253 L1808.3522,82.0979 L1801.6337,86.7391 " fill="#A80036" style="stroke:#A80036;stroke-width:1.0;"/><ellipse cx="1578" cy="168" fill="#A80036" rx="3" ry="3" style="stroke:#A80036;stroke-width:1.0;stroke-dasharray:3.0,3.0;"/><path d="M2277,253 L2290,253 C2299.2605,253 2309.0919,253 2318.6496,253 " fill="none" style="stroke:#A80036;stroke-width:1.0;stroke-dasharray:3.0,3.0;"/><path d="M2318.6496,256.0361 L2320.9267,253 L2318.6496,249.9639 L2326.2398,253 L2318.6496,256.0361 " fill="#A80036" style="stroke:#A80036;stroke-width:1.0;"/><ellipse cx="2277" cy="253" fill="#A80036" rx="3" ry="3" style="stroke:#A80036;stroke-width:1.0;stroke-dasharray:3.0,3.0;"/><path d="M1578,188 L1591,188 C1635.7968,188 1683.2717,188 1729.5823,188 " fill="none" style="stroke:#A80036;stroke-width:1.0;stroke-dasharray:3.0,3.0;"/><path d="M1729.5823,191.0891 L1731.8992,188 L1729.5823,184.9109 L1737.3051,188 L1729.5823,191.0891 " fill="#A80036" style="stroke:#A80036;stroke-width:1.0;"/><ellipse cx="1578" cy="188" fill="#A80036" rx="3" ry="3" style="stroke:#A80036;stroke-width:1.0;stroke-dasharray:3.0,3.0;"/><path d="M1578,209 L1591,209 C1640.6904,209 1658.4647,203.3118 1701,229 C1723.2228,242.421 1714.9172,261.35 1737,275 C1739.8608,276.7683 1742.7671,278.482 1745.7146,280.1428 " fill="none" style="stroke:#A80036;stroke-width:1.0;stroke-dasharray:3.0,3.0;"/><path d="M1744.2027,282.9226 L1747.7995,281.2767 L1747.2264,277.3629 L1752.6643,283.9225 L1744.2027,282.9226 " fill="#A80036" style="stroke:#A80036;stroke-width:1.0;"/><ellipse cx="1578" cy="209" fill="#A80036" rx="3" ry="3" style="stroke:#A80036;stroke-width:1.0;stroke-dasharray:3.0,3.0;"/><path d="M1334,197 L1347,197 C1394.2455,197 1447.9082,194.6021 1486.8,192.4319 " fill="none" style="stroke:#A80036;stroke-width:1.0;stroke-dasharray:3.0,3.0;"/><path d="M1486.9721,195.4619 L1489.0726,192.3028 L1486.6279,189.4018 L1494.3752,192.0017 L1486.9721,195.4619 " fill="#A80036" style="stroke:#A80036;stroke-width:1.0;"/><ellipse cx="1334" cy="197" fill="#A80036" rx="3" ry="3" style="stroke:#A80036;stroke-width:1.0;stroke-dasharray:3.0,3.0;"/><path d="M1334,240 L1347,240 C1356.3095,240 1365.8682,240.0931 1375.514,240.2592 " fill="none" style="stroke:#A80036;stroke-width:1.0;stroke-dasharray:3.0,3.0;"/><path d="M1375.4546,243.3597 L1377.8393,240.3038 L1375.5734,237.1587 L1383.2652,240.4077 L1375.4546,243.3597 " fill="#A80036" style="stroke:#A80036;stroke-width:1.0;"/><ellipse cx="1334" cy="240" fill="#A80036" rx="3" ry="3" style="stroke:#A80036;stroke-width:1.0;stroke-dasharray:3.0,3.0;"/><path d="M487.5,198 L500.5,198 C593.9032,198 695.9233,198 787.4814,198 " fill="none" style="stroke:#A80036;stroke-width:1.0;stroke-dasharray:3.0,3.0;"/><path d="M787.4814,201.0786 L789.7903,198 L787.4814,194.9214 L795.1779,198 L787.4814,201.0786 " fill="#A80036" style="stroke:#A80036;stroke-width:1.0;"/><ellipse cx="487.5" cy="198" fill="#A80036" rx="3" ry="3" style="stroke:#A80036;stroke-width:1.0;stroke-dasharray:3.0,3.0;"/><path d="M95,174 L108,174 C124.1536,174 127.927,177.388 144,179 C232.1358,187.8394 334.9695,193.2081 396.3003,195.8879 " fill="none" style="stroke:#A80036;stroke-width:1.0;stroke-dasharray:3.0,3.0;"/><path d="M396.1686,198.9427 L398.5914,195.9866 L396.4319,192.833 L403.9374,196.217 L396.1686,198.9427 " fill="#A80036" style="stroke:#A80036;stroke-width:1.0;"/><ellipse cx="95" cy="174" fill="#A80036" rx="3" ry="3" style="stroke:#A80036;stroke-width:1.0;stroke-dasharray:3.0,3.0;"/><!--MD5=[e0d9140745723c5f94b25848c84dbe59]
@startjson
{
  "info": {
    "copyright": "Copyright 2018-2019 Open Connectivity Foundation, Inc. All rights reserved.",
    "license": "https://github.com/one-data-model/oneDM/blob/master/LICENSE",
    "title": "Heart Rate",
    "version": "2019-03-04"
  },
  "sdfObject": {
    "heartrate": {
      "description": "This Resource describes the Properties associated with a person's\\nheart rate. The unit, which is the default unit, is bpm. The\\nheartrate Property is a read-only value that is provided by the\\nserver. When range (from \"oic. r. baseresource\") is omitted the\\ndefault is 0 to +MAXFLOAT.",
      "sdfProperty": {
        "heartrate": {
          "description": "This Property describes the heart rate in bpm.",
          "type": "integer",
          "minimum": 0,
          "writable": false
        },
        "range": {
          "type": "array",
          "description": "The valid range for the Property in the Resource as an integer. The\\nfirst value in the array is the minimum value, the second value in\\nthe array is the maximum value.",
          "writable": false,
          "minItems": 2,
          "maxItems": 2,
          "items": {
            "type": "integer"
          }
        },
        "step": {
          "description": "Step value across the defined range when the range is an integer. \\nThis is the increment for valid values across the range; so if range\\nis 0..10 and step is 2 then valid values are 0,2,4,6,8,10.",
          "writable": false,
          "type": "integer"
        }
      },
      "sdfRequired": [
        "#/sdfObject/heartrate/sdfProperty/heartrate"
      ]
    }
  }
}
@endjson

PlantUML version 1.2021.2(Sun Mar 07 13:10:27 EET 2021)
(GPL source distribution)
Java Runtime: OpenJDK Runtime Environment
JVM: OpenJDK 64-Bit Server VM
Default Encoding: UTF-8
Language: en
Country: FI
--></g></svg>