<?xml version="1.0" encoding="UTF-8" standalone="no"?><svg xmlns="http://www.w3.org/2000/svg" xmlns:xlink="http://www.w3.org/1999/xlink" contentScriptType="application/ecmascript" contentStyleType="text/css" height="220px" preserveAspectRatio="none" style="width:2421px;height:220px;" version="1.1" viewBox="0 0 2421 220" width="2421px" zoomAndPan="magnify"><defs/><g><rect fill="#FEFECE" height="40.9766" rx="5" ry="5" style="stroke:#FEFECE;stroke-width:1.5;" width="97" x="10" y="65.5"/><text fill="#000000" font-family="sans-serif" font-size="14" lengthAdjust="spacing" textLength="27" x="15" y="81.0352">info</text><text fill="#000000" font-family="sans-serif" font-size="14" lengthAdjust="spacing" textLength="0" x="102" y="81.0352"/><line style="stroke:#A80036;stroke-width:1.0;" x1="85" x2="85" y1="65.5" y2="85.9883"/><line style="stroke:#A80036;stroke-width:1.0;" x1="10" x2="107" y1="85.9883" y2="85.9883"/><text fill="#000000" font-family="sans-serif" font-size="14" lengthAdjust="spacing" textLength="65" x="15" y="101.5234">sdfObject</text><text fill="#000000" font-family="sans-serif" font-size="14" lengthAdjust="spacing" textLength="0" x="102" y="101.5234"/><line style="stroke:#A80036;stroke-width:1.0;" x1="85" x2="85" y1="85.9883" y2="106.4766"/><rect fill="none" height="40.9766" rx="5" ry="5" style="stroke:#A80036;stroke-width:1.5;" width="97" x="10" y="65.5"/><rect fill="#FEFECE" height="81.9531" rx="5" ry="5" style="stroke:#FEFECE;stroke-width:1.5;" width="570" x="144" y="10"/><text fill="#000000" font-family="sans-serif" font-size="14" lengthAdjust="spacing" textLength="65" x="149" y="25.5352">copyright</text><text fill="#000000" font-family="sans-serif" font-size="14" lengthAdjust="spacing" textLength="485" x="224" y="25.5352">Copyright 2019 Open Connectivity Foundation, Inc. All rights reserved.</text><line style="stroke:#A80036;stroke-width:1.0;" x1="219" x2="219" y1="10" y2="30.4883"/><line style="stroke:#A80036;stroke-width:1.0;" x1="144" x2="714" y1="30.4883" y2="30.4883"/><text fill="#000000" font-family="sans-serif" font-size="14" lengthAdjust="spacing" textLength="47" x="149" y="46.0234">license</text><text fill="#000000" font-family="sans-serif" font-size="14" lengthAdjust="spacing" textLength="462" x="224" y="46.0234">https://github.com/one-data-model/oneDM/blob/master/LICENSE</text><line style="stroke:#A80036;stroke-width:1.0;" x1="219" x2="219" y1="30.4883" y2="50.9766"/><line style="stroke:#A80036;stroke-width:1.0;" x1="144" x2="714" y1="50.9766" y2="50.9766"/><text fill="#000000" font-family="sans-serif" font-size="14" lengthAdjust="spacing" textLength="26" x="149" y="66.5117">title</text><text fill="#000000" font-family="sans-serif" font-size="14" lengthAdjust="spacing" textLength="125" x="224" y="66.5117">Conversion Factor</text><line style="stroke:#A80036;stroke-width:1.0;" x1="219" x2="219" y1="50.9766" y2="71.4648"/><line style="stroke:#A80036;stroke-width:1.0;" x1="144" x2="714" y1="71.4648" y2="71.4648"/><text fill="#000000" font-family="sans-serif" font-size="14" lengthAdjust="spacing" textLength="50" x="149" y="87">version</text><text fill="#000000" font-family="sans-serif" font-size="14" lengthAdjust="spacing" textLength="88" x="224" y="87">2019-03-18</text><line style="stroke:#A80036;stroke-width:1.0;" x1="219" x2="219" y1="71.4648" y2="91.9531"/><rect fill="none" height="81.9531" rx="5" ry="5" style="stroke:#A80036;stroke-width:1.5;" width="570" x="144" y="10"/><rect fill="#FEFECE" height="20.4883" rx="5" ry="5" style="stroke:#FEFECE;stroke-width:1.5;" width="147" x="355.5" y="110"/><text fill="#000000" font-family="sans-serif" font-size="14" lengthAdjust="spacing" textLength="115" x="360.5" y="125.5352">conversionfactor</text><text fill="#000000" font-family="sans-serif" font-size="14" lengthAdjust="spacing" textLength="0" x="497.5" y="125.5352"/><line style="stroke:#A80036;stroke-width:1.0;" x1="480.5" x2="480.5" y1="110" y2="130.4883"/><rect fill="none" height="20.4883" rx="5" ry="5" style="stroke:#A80036;stroke-width:1.5;" width="147" x="355.5" y="110"/><rect fill="#FEFECE" height="176.8828" rx="5" ry="5" style="stroke:#FEFECE;stroke-width:1.5;" width="572" x="751" y="31.5"/><text fill="#000000" font-family="sans-serif" font-size="14" lengthAdjust="spacing" textLength="77" x="756" y="47.0352">description</text><text fill="#000000" font-family="sans-serif" font-size="14" lengthAdjust="spacing" textLength="425" x="849" y="47.0352">This Resource describes Properties associated with the energy</text><text fill="#000000" font-family="sans-serif" font-size="14" lengthAdjust="spacing" textLength="469" x="849" y="63.5234">associated with the consumption of different fuels (including natural</text><text fill="#000000" font-family="sans-serif" font-size="14" lengthAdjust="spacing" textLength="399" x="849" y="80.0117">gas) The conversion factor is a number used as part of the</text><text fill="#000000" font-family="sans-serif" font-size="14" lengthAdjust="spacing" textLength="461" x="849" y="96.5">calculation to convert gas volume to gas energy. The value used for</text><text fill="#000000" font-family="sans-serif" font-size="14" lengthAdjust="spacing" textLength="435" x="849" y="112.9883">this calculation is generally defined by local regulations and the</text><text fill="#000000" font-family="sans-serif" font-size="14" lengthAdjust="spacing" textLength="449" x="849" y="129.4766">conversion factor resource is therefore configurable. Provides the</text><text fill="#000000" font-family="sans-serif" font-size="14" lengthAdjust="spacing" textLength="468" x="849" y="145.9648">conversion factor used/required as part of the calculation to convert</text><text fill="#000000" font-family="sans-serif" font-size="14" lengthAdjust="spacing" textLength="299" x="849" y="162.4531">from fuel volume (m3) to fuel energy (kWh).</text><line style="stroke:#A80036;stroke-width:1.0;" x1="844" x2="844" y1="31.5" y2="167.4063"/><line style="stroke:#A80036;stroke-width:1.0;" x1="751" x2="1323" y1="167.4063" y2="167.4063"/><text fill="#000000" font-family="sans-serif" font-size="14" lengthAdjust="spacing" textLength="79" x="756" y="182.9414">sdfProperty</text><text fill="#000000" font-family="sans-serif" font-size="14" lengthAdjust="spacing" textLength="0" x="861" y="182.9414"/><line style="stroke:#A80036;stroke-width:1.0;" x1="844" x2="844" y1="167.4063" y2="187.8945"/><line style="stroke:#A80036;stroke-width:1.0;" x1="751" x2="1323" y1="187.8945" y2="187.8945"/><text fill="#000000" font-family="sans-serif" font-size="14" lengthAdjust="spacing" textLength="83" x="756" y="203.4297">sdfRequired</text><text fill="#000000" font-family="sans-serif" font-size="14" lengthAdjust="spacing" textLength="0" x="861" y="203.4297"/><line style="stroke:#A80036;stroke-width:1.0;" x1="844" x2="844" y1="187.8945" y2="208.3828"/><rect fill="none" height="176.8828" rx="5" ry="5" style="stroke:#A80036;stroke-width:1.5;" width="572" x="751" y="31.5"/><rect fill="#FEFECE" height="40.9766" rx="5" ry="5" style="stroke:#FEFECE;stroke-width:1.5;" width="107" x="1497" y="99.5"/><text fill="#000000" font-family="sans-serif" font-size="14" lengthAdjust="spacing" textLength="75" x="1502" y="115.0352">conversion</text><text fill="#000000" font-family="sans-serif" font-size="14" lengthAdjust="spacing" textLength="0" x="1599" y="115.0352"/><line style="stroke:#A80036;stroke-width:1.0;" x1="1582" x2="1582" y1="99.5" y2="119.9883"/><line style="stroke:#A80036;stroke-width:1.0;" x1="1497" x2="1604" y1="119.9883" y2="119.9883"/><text fill="#000000" font-family="sans-serif" font-size="14" lengthAdjust="spacing" textLength="63" x="1502" y="135.5234">precision</text><text fill="#000000" font-family="sans-serif" font-size="14" lengthAdjust="spacing" textLength="0" x="1599" y="135.5234"/><line style="stroke:#A80036;stroke-width:1.0;" x1="1582" x2="1582" y1="119.9883" y2="140.4766"/><rect fill="none" height="40.9766" rx="5" ry="5" style="stroke:#A80036;stroke-width:1.5;" width="107" x="1497" y="99.5"/><rect fill="#FEFECE" height="102.4414" rx="5" ry="5" style="stroke:#FEFECE;stroke-width:1.5;" width="631" x="1778" y="19"/><text fill="#000000" font-family="sans-serif" font-size="14" lengthAdjust="spacing" textLength="77" x="1783" y="34.5352">description</text><text fill="#000000" font-family="sans-serif" font-size="14" lengthAdjust="spacing" textLength="484" x="1920" y="34.5352">Conversion factor to convert a volume of a fuel to energy consumption</text><line style="stroke:#A80036;stroke-width:1.0;" x1="1915" x2="1915" y1="19" y2="39.4883"/><line style="stroke:#A80036;stroke-width:1.0;" x1="1778" x2="2409" y1="39.4883" y2="39.4883"/><text fill="#000000" font-family="sans-serif" font-size="14" lengthAdjust="spacing" textLength="55" x="1783" y="55.0234">writable</text><text fill="#000000" font-family="sans-serif" font-size="14" lengthAdjust="spacing" textLength="48" x="1920" y="55.0234">☐ false</text><line style="stroke:#A80036;stroke-width:1.0;" x1="1915" x2="1915" y1="39.4883" y2="59.9766"/><line style="stroke:#A80036;stroke-width:1.0;" x1="1778" x2="2409" y1="59.9766" y2="59.9766"/><text fill="#000000" font-family="sans-serif" font-size="14" lengthAdjust="spacing" textLength="29" x="1783" y="75.5117">type</text><text fill="#000000" font-family="sans-serif" font-size="14" lengthAdjust="spacing" textLength="54" x="1920" y="75.5117">number</text><line style="stroke:#A80036;stroke-width:1.0;" x1="1915" x2="1915" y1="59.9766" y2="80.4648"/><line style="stroke:#A80036;stroke-width:1.0;" x1="1778" x2="2409" y1="80.4648" y2="80.4648"/><text fill="#000000" font-family="sans-serif" font-size="14" lengthAdjust="spacing" textLength="65" x="1783" y="96">minimum</text><text fill="#000000" font-family="sans-serif" font-size="14" lengthAdjust="spacing" textLength="9" x="1920" y="96">0</text><line style="stroke:#A80036;stroke-width:1.0;" x1="1915" x2="1915" y1="80.4648" y2="100.9531"/><line style="stroke:#A80036;stroke-width:1.0;" x1="1778" x2="2409" y1="100.9531" y2="100.9531"/><text fill="#000000" font-family="sans-serif" font-size="14" lengthAdjust="spacing" textLength="127" x="1783" y="116.4883">exclusiveMinimum</text><text fill="#000000" font-family="sans-serif" font-size="14" lengthAdjust="spacing" textLength="44" x="1920" y="116.4883">☑ true</text><line style="stroke:#A80036;stroke-width:1.0;" x1="1915" x2="1915" y1="100.9531" y2="121.4414"/><rect fill="none" height="102.4414" rx="5" ry="5" style="stroke:#A80036;stroke-width:1.5;" width="631" x="1778" y="19"/><rect fill="#FEFECE" height="61.4648" rx="5" ry="5" style="stroke:#FEFECE;stroke-width:1.5;" width="384" x="1901.5" y="139.5"/><text fill="#000000" font-family="sans-serif" font-size="14" lengthAdjust="spacing" textLength="77" x="1906.5" y="155.0352">description</text><text fill="#000000" font-family="sans-serif" font-size="14" lengthAdjust="spacing" textLength="287" x="1993.5" y="155.0352">Accuracy granularity of the exposed value</text><line style="stroke:#A80036;stroke-width:1.0;" x1="1988.5" x2="1988.5" y1="139.5" y2="159.9883"/><line style="stroke:#A80036;stroke-width:1.0;" x1="1901.5" x2="2285.5" y1="159.9883" y2="159.9883"/><text fill="#000000" font-family="sans-serif" font-size="14" lengthAdjust="spacing" textLength="55" x="1906.5" y="175.5234">writable</text><text fill="#000000" font-family="sans-serif" font-size="14" lengthAdjust="spacing" textLength="48" x="1993.5" y="175.5234">☐ false</text><line style="stroke:#A80036;stroke-width:1.0;" x1="1988.5" x2="1988.5" y1="159.9883" y2="180.4766"/><line style="stroke:#A80036;stroke-width:1.0;" x1="1901.5" x2="2285.5" y1="180.4766" y2="180.4766"/><text fill="#000000" font-family="sans-serif" font-size="14" lengthAdjust="spacing" textLength="29" x="1906.5" y="196.0117">type</text><text fill="#000000" font-family="sans-serif" font-size="14" lengthAdjust="spacing" textLength="54" x="1993.5" y="196.0117">number</text><line style="stroke:#A80036;stroke-width:1.0;" x1="1988.5" x2="1988.5" y1="180.4766" y2="200.9648"/><rect fill="none" height="61.4648" rx="5" ry="5" style="stroke:#A80036;stroke-width:1.5;" width="384" x="1901.5" y="139.5"/><rect fill="#FEFECE" height="20.4883" rx="5" ry="5" style="stroke:#FEFECE;stroke-width:1.5;" width="381" x="1360" y="169"/><text fill="#000000" font-family="sans-serif" font-size="14" lengthAdjust="spacing" textLength="371" x="1365" y="184.5352">#/sdfObject/conversionfactor/sdfProperty/conversion</text><rect fill="none" height="20.4883" rx="5" ry="5" style="stroke:#A80036;stroke-width:1.5;" width="381" x="1360" y="169"/><path d="M95,75 L108,75 C117.356,75 126.8613,74.897 136.4563,74.7046 " fill="none" style="stroke:#A80036;stroke-width:1.0;stroke-dasharray:3.0,3.0;"/><path d="M136.5256,77.7898 L138.7703,74.6526 L136.387,71.6194 L144.1694,74.5314 L136.5256,77.7898 " fill="#A80036" style="stroke:#A80036;stroke-width:1.0;"/><ellipse cx="95" cy="75" fill="#A80036" rx="3" ry="3" style="stroke:#A80036;stroke-width:1.0;stroke-dasharray:3.0,3.0;"/><path d="M1593,109 L1606,109 C1659.2634,109 1715.6994,106.6533 1770.5466,103.1112 " fill="none" style="stroke:#A80036;stroke-width:1.0;stroke-dasharray:3.0,3.0;"/><path d="M1770.7497,106.2025 L1772.8651,102.9589 L1770.3436,100.02 L1778.2747,102.6036 L1770.7497,106.2025 " fill="#A80036" style="stroke:#A80036;stroke-width:1.0;"/><ellipse cx="1593" cy="109" fill="#A80036" rx="3" ry="3" style="stroke:#A80036;stroke-width:1.0;stroke-dasharray:3.0,3.0;"/><path d="M1593,130 L1606,130 C1701.0015,130 1806.0787,137.6543 1894.2371,146.2663 " fill="none" style="stroke:#A80036;stroke-width:1.0;stroke-dasharray:3.0,3.0;"/><path d="M1893.935,149.3321 L1896.5365,146.4929 L1894.5392,143.2005 L1901.9016,147.0216 L1893.935,149.3321 " fill="#A80036" style="stroke:#A80036;stroke-width:1.0;"/><ellipse cx="1593" cy="130" fill="#A80036" rx="3" ry="3" style="stroke:#A80036;stroke-width:1.0;stroke-dasharray:3.0,3.0;"/><path d="M1311,120 L1324,120 C1380.1919,120 1444.2428,120 1489.7733,120 " fill="none" style="stroke:#A80036;stroke-width:1.0;stroke-dasharray:3.0,3.0;"/><path d="M1489.7733,123.0844 L1492.0866,120 L1489.7733,116.9156 L1497.4843,120 L1489.7733,123.0844 " fill="#A80036" style="stroke:#A80036;stroke-width:1.0;"/><ellipse cx="1311" cy="120" fill="#A80036" rx="3" ry="3" style="stroke:#A80036;stroke-width:1.0;stroke-dasharray:3.0,3.0;"/><path d="M1311,179 L1324,179 C1333.3653,179 1342.9489,179 1352.6288,179 " fill="none" style="stroke:#A80036;stroke-width:1.0;stroke-dasharray:3.0,3.0;"/><path d="M1352.6288,182.1125 L1354.9631,179 L1352.6288,175.8875 L1360.41,179 L1352.6288,182.1125 " fill="#A80036" style="stroke:#A80036;stroke-width:1.0;"/><ellipse cx="1311" cy="179" fill="#A80036" rx="3" ry="3" style="stroke:#A80036;stroke-width:1.0;stroke-dasharray:3.0,3.0;"/><path d="M491.5,120 L504.5,120 C582.1194,120 666.109,120 743.9217,120 " fill="none" style="stroke:#A80036;stroke-width:1.0;stroke-dasharray:3.0,3.0;"/><path d="M743.9217,123.0042 L746.1748,120 L743.9217,116.9958 L751.4322,120 L743.9217,123.0042 " fill="#A80036" style="stroke:#A80036;stroke-width:1.0;"/><ellipse cx="491.5" cy="120" fill="#A80036" rx="3" ry="3" style="stroke:#A80036;stroke-width:1.0;stroke-dasharray:3.0,3.0;"/><path d="M95,96 L108,96 C124.1536,96 127.9309,99.3496 144,101 C212.806,108.0667 291.2565,113.0795 348.3257,116.1752 " fill="none" style="stroke:#A80036;stroke-width:1.0;stroke-dasharray:3.0,3.0;"/><path d="M348.1635,119.1971 L350.5921,116.2968 L348.4878,113.1533 L355.8804,116.5806 L348.1635,119.1971 " fill="#A80036" style="stroke:#A80036;stroke-width:1.0;"/><ellipse cx="95" cy="96" fill="#A80036" rx="3" ry="3" style="stroke:#A80036;stroke-width:1.0;stroke-dasharray:3.0,3.0;"/><!--MD5=[9b6d7edea602447a6f63c718c5c9fcd5]
@startjson
{
  "info": {
    "copyright": "Copyright 2019 Open Connectivity Foundation, Inc. All rights reserved.",
    "license": "https://github.com/one-data-model/oneDM/blob/master/LICENSE",
    "title": "Conversion Factor",
    "version": "2019-03-18"
  },
  "sdfObject": {
    "conversionfactor": {
      "description": "This Resource describes Properties associated with the energy\\nassociated with the consumption of different fuels (including natural\\ngas) The conversion factor is a number used as part of the\\ncalculation to convert gas volume to gas energy. The value used for\\nthis calculation is generally defined by local regulations and the\\nconversion factor resource is therefore configurable. Provides the\\nconversion factor used/required as part of the calculation to convert\\nfrom fuel volume (m3) to fuel energy (kWh).",
      "sdfProperty": {
        "conversion": {
          "description": "Conversion factor to convert a volume of a fuel to energy consumption",
          "writable": false,
          "type": "number",
          "minimum": 0,
          "exclusiveMinimum": true
        },
        "precision": {
          "description": "Accuracy granularity of the exposed value",
          "writable": false,
          "type": "number"
        }
      },
      "sdfRequired": [
        "#/sdfObject/conversionfactor/sdfProperty/conversion"
      ]
    }
  }
}
@endjson

PlantUML version 1.2021.2(Sun Mar 07 13:10:27 EET 2021)
(GPL source distribution)
Java Runtime: OpenJDK Runtime Environment
JVM: OpenJDK 64-Bit Server VM
Default Encoding: UTF-8
Language: en
Country: FI
--></g></svg>