<?xml version="1.0" encoding="UTF-8" standalone="no"?><svg xmlns="http://www.w3.org/2000/svg" xmlns:xlink="http://www.w3.org/1999/xlink" contentScriptType="application/ecmascript" contentStyleType="text/css" height="988px" preserveAspectRatio="none" style="width:2300px;height:988px;" version="1.1" viewBox="0 0 2300 988" width="2300px" zoomAndPan="magnify"><defs/><g><rect fill="#FEFECE" height="40.9766" rx="5" ry="5" style="stroke:#FEFECE;stroke-width:1.5;" width="97" x="10" y="509"/><text fill="#000000" font-family="sans-serif" font-size="14" lengthAdjust="spacing" textLength="27" x="15" y="524.5352">info</text><text fill="#000000" font-family="sans-serif" font-size="14" lengthAdjust="spacing" textLength="0" x="102" y="524.5352"/><line style="stroke:#A80036;stroke-width:1.0;" x1="85" x2="85" y1="509" y2="529.4883"/><line style="stroke:#A80036;stroke-width:1.0;" x1="10" x2="107" y1="529.4883" y2="529.4883"/><text fill="#000000" font-family="sans-serif" font-size="14" lengthAdjust="spacing" textLength="65" x="15" y="545.0234">sdfObject</text><text fill="#000000" font-family="sans-serif" font-size="14" lengthAdjust="spacing" textLength="0" x="102" y="545.0234"/><line style="stroke:#A80036;stroke-width:1.0;" x1="85" x2="85" y1="529.4883" y2="549.9766"/><rect fill="none" height="40.9766" rx="5" ry="5" style="stroke:#A80036;stroke-width:1.5;" width="97" x="10" y="509"/><rect fill="#FEFECE" height="81.9531" rx="5" ry="5" style="stroke:#FEFECE;stroke-width:1.5;" width="547" x="144" y="453.5"/><text fill="#000000" font-family="sans-serif" font-size="14" lengthAdjust="spacing" textLength="26" x="149" y="469.0352">title</text><text fill="#000000" font-family="sans-serif" font-size="14" lengthAdjust="spacing" textLength="306" x="224" y="469.0352">OMA LwM2M Power Control (Object ID 3312)</text><line style="stroke:#A80036;stroke-width:1.0;" x1="219" x2="219" y1="453.5" y2="473.9883"/><line style="stroke:#A80036;stroke-width:1.0;" x1="144" x2="691" y1="473.9883" y2="473.9883"/><text fill="#000000" font-family="sans-serif" font-size="14" lengthAdjust="spacing" textLength="50" x="149" y="489.5234">version</text><text fill="#000000" font-family="sans-serif" font-size="14" lengthAdjust="spacing" textLength="88" x="224" y="489.5234">2021-02-11</text><line style="stroke:#A80036;stroke-width:1.0;" x1="219" x2="219" y1="473.9883" y2="494.4766"/><line style="stroke:#A80036;stroke-width:1.0;" x1="144" x2="691" y1="494.4766" y2="494.4766"/><text fill="#000000" font-family="sans-serif" font-size="14" lengthAdjust="spacing" textLength="65" x="149" y="510.0117">copyright</text><text fill="#000000" font-family="sans-serif" font-size="14" lengthAdjust="spacing" textLength="208" x="224" y="510.0117">Copyright (c) 2018-2020 IPSO</text><line style="stroke:#A80036;stroke-width:1.0;" x1="219" x2="219" y1="494.4766" y2="514.9648"/><line style="stroke:#A80036;stroke-width:1.0;" x1="144" x2="691" y1="514.9648" y2="514.9648"/><text fill="#000000" font-family="sans-serif" font-size="14" lengthAdjust="spacing" textLength="47" x="149" y="530.5">license</text><text fill="#000000" font-family="sans-serif" font-size="14" lengthAdjust="spacing" textLength="462" x="224" y="530.5">https://github.com/one-data-model/oneDM/blob/master/LICENSE</text><line style="stroke:#A80036;stroke-width:1.0;" x1="219" x2="219" y1="514.9648" y2="535.4531"/><rect fill="none" height="81.9531" rx="5" ry="5" style="stroke:#A80036;stroke-width:1.5;" width="547" x="144" y="453.5"/><rect fill="#FEFECE" height="20.4883" rx="5" ry="5" style="stroke:#FEFECE;stroke-width:1.5;" width="133" x="351" y="553.5"/><text fill="#000000" font-family="sans-serif" font-size="14" lengthAdjust="spacing" textLength="101" x="356" y="569.0352">Power_Control</text><text fill="#000000" font-family="sans-serif" font-size="14" lengthAdjust="spacing" textLength="0" x="479" y="569.0352"/><line style="stroke:#A80036;stroke-width:1.0;" x1="462" x2="462" y1="553.5" y2="573.9883"/><rect fill="none" height="20.4883" rx="5" ry="5" style="stroke:#A80036;stroke-width:1.5;" width="133" x="351" y="553.5"/><rect fill="#FEFECE" height="135.418" rx="5" ry="5" style="stroke:#FEFECE;stroke-width:1.5;" width="569" x="728" y="496"/><text fill="#000000" font-family="sans-serif" font-size="14" lengthAdjust="spacing" textLength="33" x="733" y="511.5352">label</text><text fill="#000000" font-family="sans-serif" font-size="14" lengthAdjust="spacing" textLength="98" x="826" y="511.5352">Power Control</text><line style="stroke:#A80036;stroke-width:1.0;" x1="821" x2="821" y1="496" y2="516.4883"/><line style="stroke:#A80036;stroke-width:1.0;" x1="728" x2="1297" y1="516.4883" y2="516.4883"/><text fill="#000000" font-family="sans-serif" font-size="14" lengthAdjust="spacing" textLength="77" x="733" y="532.0234">description</text><text fill="#000000" font-family="sans-serif" font-size="14" lengthAdjust="spacing" textLength="462" x="826" y="532.0234">This Object is used to control a power source, such as a Smart Plug.</text><text fill="#000000" font-family="sans-serif" font-size="14" lengthAdjust="spacing" textLength="463" x="826" y="548.5117">It allows a power relay to be turned on or off and its dimmer setting</text><text fill="#000000" font-family="sans-serif" font-size="14" lengthAdjust="spacing" textLength="272" x="826" y="565">to be control as a % between 0 and 100.</text><line style="stroke:#A80036;stroke-width:1.0;" x1="821" x2="821" y1="516.4883" y2="569.9531"/><line style="stroke:#A80036;stroke-width:1.0;" x1="728" x2="1297" y1="569.9531" y2="569.9531"/><text fill="#000000" font-family="sans-serif" font-size="14" lengthAdjust="spacing" textLength="79" x="733" y="585.4883">sdfProperty</text><text fill="#000000" font-family="sans-serif" font-size="14" lengthAdjust="spacing" textLength="0" x="838" y="585.4883"/><line style="stroke:#A80036;stroke-width:1.0;" x1="821" x2="821" y1="569.9531" y2="590.4414"/><line style="stroke:#A80036;stroke-width:1.0;" x1="728" x2="1297" y1="590.4414" y2="590.4414"/><text fill="#000000" font-family="sans-serif" font-size="14" lengthAdjust="spacing" textLength="65" x="733" y="605.9766">sdfAction</text><text fill="#000000" font-family="sans-serif" font-size="14" lengthAdjust="spacing" textLength="0" x="838" y="605.9766"/><line style="stroke:#A80036;stroke-width:1.0;" x1="821" x2="821" y1="590.4414" y2="610.9297"/><line style="stroke:#A80036;stroke-width:1.0;" x1="728" x2="1297" y1="610.9297" y2="610.9297"/><text fill="#000000" font-family="sans-serif" font-size="14" lengthAdjust="spacing" textLength="83" x="733" y="626.4648">sdfRequired</text><text fill="#000000" font-family="sans-serif" font-size="14" lengthAdjust="spacing" textLength="0" x="838" y="626.4648"/><line style="stroke:#A80036;stroke-width:1.0;" x1="821" x2="821" y1="610.9297" y2="631.418"/><rect fill="none" height="135.418" rx="5" ry="5" style="stroke:#A80036;stroke-width:1.5;" width="569" x="728" y="496"/><rect fill="#FEFECE" height="163.9063" rx="5" ry="5" style="stroke:#FEFECE;stroke-width:1.5;" width="205" x="1401.5" y="400.5"/><text fill="#000000" font-family="sans-serif" font-size="14" lengthAdjust="spacing" textLength="48" x="1406.5" y="416.0352">On_Off</text><text fill="#000000" font-family="sans-serif" font-size="14" lengthAdjust="spacing" textLength="0" x="1601.5" y="416.0352"/><line style="stroke:#A80036;stroke-width:1.0;" x1="1584.5" x2="1584.5" y1="400.5" y2="420.9883"/><line style="stroke:#A80036;stroke-width:1.0;" x1="1401.5" x2="1606.5" y1="420.9883" y2="420.9883"/><text fill="#000000" font-family="sans-serif" font-size="14" lengthAdjust="spacing" textLength="54" x="1406.5" y="436.5234">Dimmer</text><text fill="#000000" font-family="sans-serif" font-size="14" lengthAdjust="spacing" textLength="0" x="1601.5" y="436.5234"/><line style="stroke:#A80036;stroke-width:1.0;" x1="1584.5" x2="1584.5" y1="420.9883" y2="441.4766"/><line style="stroke:#A80036;stroke-width:1.0;" x1="1401.5" x2="1606.5" y1="441.4766" y2="441.4766"/><text fill="#000000" font-family="sans-serif" font-size="14" lengthAdjust="spacing" textLength="57" x="1406.5" y="457.0117">On_time</text><text fill="#000000" font-family="sans-serif" font-size="14" lengthAdjust="spacing" textLength="0" x="1601.5" y="457.0117"/><line style="stroke:#A80036;stroke-width:1.0;" x1="1584.5" x2="1584.5" y1="441.4766" y2="461.9648"/><line style="stroke:#A80036;stroke-width:1.0;" x1="1401.5" x2="1606.5" y1="461.9648" y2="461.9648"/><text fill="#000000" font-family="sans-serif" font-size="14" lengthAdjust="spacing" textLength="173" x="1406.5" y="477.5">Cumulative_active_power</text><text fill="#000000" font-family="sans-serif" font-size="14" lengthAdjust="spacing" textLength="0" x="1601.5" y="477.5"/><line style="stroke:#A80036;stroke-width:1.0;" x1="1584.5" x2="1584.5" y1="461.9648" y2="482.4531"/><line style="stroke:#A80036;stroke-width:1.0;" x1="1401.5" x2="1606.5" y1="482.4531" y2="482.4531"/><text fill="#000000" font-family="sans-serif" font-size="14" lengthAdjust="spacing" textLength="89" x="1406.5" y="497.9883">Power_factor</text><text fill="#000000" font-family="sans-serif" font-size="14" lengthAdjust="spacing" textLength="0" x="1601.5" y="497.9883"/><line style="stroke:#A80036;stroke-width:1.0;" x1="1584.5" x2="1584.5" y1="482.4531" y2="502.9414"/><line style="stroke:#A80036;stroke-width:1.0;" x1="1401.5" x2="1606.5" y1="502.9414" y2="502.9414"/><text fill="#000000" font-family="sans-serif" font-size="14" lengthAdjust="spacing" textLength="118" x="1406.5" y="518.4766">Application_Type</text><text fill="#000000" font-family="sans-serif" font-size="14" lengthAdjust="spacing" textLength="0" x="1601.5" y="518.4766"/><line style="stroke:#A80036;stroke-width:1.0;" x1="1584.5" x2="1584.5" y1="502.9414" y2="523.4297"/><line style="stroke:#A80036;stroke-width:1.0;" x1="1401.5" x2="1606.5" y1="523.4297" y2="523.4297"/><text fill="#000000" font-family="sans-serif" font-size="14" lengthAdjust="spacing" textLength="76" x="1406.5" y="538.9648">Timestamp</text><text fill="#000000" font-family="sans-serif" font-size="14" lengthAdjust="spacing" textLength="0" x="1601.5" y="538.9648"/><line style="stroke:#A80036;stroke-width:1.0;" x1="1584.5" x2="1584.5" y1="523.4297" y2="543.918"/><line style="stroke:#A80036;stroke-width:1.0;" x1="1401.5" x2="1606.5" y1="543.918" y2="543.918"/><text fill="#000000" font-family="sans-serif" font-size="14" lengthAdjust="spacing" textLength="151" x="1406.5" y="559.4531">Fractional_Timestamp</text><text fill="#000000" font-family="sans-serif" font-size="14" lengthAdjust="spacing" textLength="0" x="1601.5" y="559.4531"/><line style="stroke:#A80036;stroke-width:1.0;" x1="1584.5" x2="1584.5" y1="543.918" y2="564.4063"/><rect fill="none" height="163.9063" rx="5" ry="5" style="stroke:#A80036;stroke-width:1.5;" width="205" x="1401.5" y="400.5"/><rect fill="#FEFECE" height="61.4648" rx="5" ry="5" style="stroke:#FEFECE;stroke-width:1.5;" width="533" x="1733" y="10"/><text fill="#000000" font-family="sans-serif" font-size="14" lengthAdjust="spacing" textLength="33" x="1738" y="25.5352">label</text><text fill="#000000" font-family="sans-serif" font-size="14" lengthAdjust="spacing" textLength="48" x="1825" y="25.5352">On/Off</text><line style="stroke:#A80036;stroke-width:1.0;" x1="1820" x2="1820" y1="10" y2="30.4883"/><line style="stroke:#A80036;stroke-width:1.0;" x1="1733" x2="2266" y1="30.4883" y2="30.4883"/><text fill="#000000" font-family="sans-serif" font-size="14" lengthAdjust="spacing" textLength="77" x="1738" y="46.0234">description</text><text fill="#000000" font-family="sans-serif" font-size="14" lengthAdjust="spacing" textLength="436" x="1825" y="46.0234">On/off control. Boolean value where True is On and False is Off.</text><line style="stroke:#A80036;stroke-width:1.0;" x1="1820" x2="1820" y1="30.4883" y2="50.9766"/><line style="stroke:#A80036;stroke-width:1.0;" x1="1733" x2="2266" y1="50.9766" y2="50.9766"/><text fill="#000000" font-family="sans-serif" font-size="14" lengthAdjust="spacing" textLength="29" x="1738" y="66.5117">type</text><text fill="#000000" font-family="sans-serif" font-size="14" lengthAdjust="spacing" textLength="56" x="1825" y="66.5117">boolean</text><line style="stroke:#A80036;stroke-width:1.0;" x1="1820" x2="1820" y1="50.9766" y2="71.4648"/><rect fill="none" height="61.4648" rx="5" ry="5" style="stroke:#A80036;stroke-width:1.5;" width="533" x="1733" y="10"/><rect fill="#FEFECE" height="139.418" rx="5" ry="5" style="stroke:#FEFECE;stroke-width:1.5;" width="577" x="1711" y="89"/><text fill="#000000" font-family="sans-serif" font-size="14" lengthAdjust="spacing" textLength="33" x="1716" y="104.5352">label</text><text fill="#000000" font-family="sans-serif" font-size="14" lengthAdjust="spacing" textLength="54" x="1803" y="104.5352">Dimmer</text><line style="stroke:#A80036;stroke-width:1.0;" x1="1798" x2="1798" y1="89" y2="109.4883"/><line style="stroke:#A80036;stroke-width:1.0;" x1="1711" x2="2288" y1="109.4883" y2="109.4883"/><text fill="#000000" font-family="sans-serif" font-size="14" lengthAdjust="spacing" textLength="77" x="1716" y="125.0234">description</text><text fill="#000000" font-family="sans-serif" font-size="14" lengthAdjust="spacing" textLength="480" x="1803" y="125.0234">This resource represents a dimmer setting, which has an Integer value</text><text fill="#000000" font-family="sans-serif" font-size="14" lengthAdjust="spacing" textLength="248" x="1803" y="141.5117">between 0 and 100 as a percentage.</text><line style="stroke:#A80036;stroke-width:1.0;" x1="1798" x2="1798" y1="109.4883" y2="146.4648"/><line style="stroke:#A80036;stroke-width:1.0;" x1="1711" x2="2288" y1="146.4648" y2="146.4648"/><text fill="#000000" font-family="sans-serif" font-size="14" lengthAdjust="spacing" textLength="29" x="1716" y="162">type</text><text fill="#000000" font-family="sans-serif" font-size="14" lengthAdjust="spacing" textLength="49" x="1803" y="162">integer</text><line style="stroke:#A80036;stroke-width:1.0;" x1="1798" x2="1798" y1="146.4648" y2="166.9531"/><line style="stroke:#A80036;stroke-width:1.0;" x1="1711" x2="2288" y1="166.9531" y2="166.9531"/><text fill="#000000" font-family="sans-serif" font-size="14" lengthAdjust="spacing" textLength="27" x="1716" y="182.4883">unit</text><text fill="#000000" font-family="sans-serif" font-size="14" lengthAdjust="spacing" textLength="34" x="1803" y="182.4883">/100</text><line style="stroke:#A80036;stroke-width:1.0;" x1="1798" x2="1798" y1="166.9531" y2="187.4414"/><line style="stroke:#A80036;stroke-width:1.0;" x1="1711" x2="2288" y1="187.4414" y2="187.4414"/><text fill="#000000" font-family="sans-serif" font-size="14" lengthAdjust="spacing" textLength="65" x="1716" y="202.9766">minimum</text><text fill="#000000" font-family="sans-serif" font-size="14" lengthAdjust="spacing" textLength="9" x="1803" y="202.9766">0</text><line style="stroke:#A80036;stroke-width:1.0;" x1="1798" x2="1798" y1="187.4414" y2="207.9297"/><line style="stroke:#A80036;stroke-width:1.0;" x1="1711" x2="2288" y1="207.9297" y2="207.9297"/><text fill="#000000" font-family="sans-serif" font-size="14" lengthAdjust="spacing" textLength="69" x="1716" y="223.4648">maximum</text><text fill="#000000" font-family="sans-serif" font-size="14" lengthAdjust="spacing" textLength="27" x="1803" y="223.4648">100</text><line style="stroke:#A80036;stroke-width:1.0;" x1="1798" x2="1798" y1="207.9297" y2="228.418"/><rect fill="none" height="139.418" rx="5" ry="5" style="stroke:#A80036;stroke-width:1.5;" width="577" x="1711" y="89"/><rect fill="#FEFECE" height="98.4414" rx="5" ry="5" style="stroke:#FEFECE;stroke-width:1.5;" width="566" x="1716.5" y="246.5"/><text fill="#000000" font-family="sans-serif" font-size="14" lengthAdjust="spacing" textLength="33" x="1721.5" y="262.0352">label</text><text fill="#000000" font-family="sans-serif" font-size="14" lengthAdjust="spacing" textLength="54" x="1808.5" y="262.0352">On time</text><line style="stroke:#A80036;stroke-width:1.0;" x1="1803.5" x2="1803.5" y1="246.5" y2="266.9883"/><line style="stroke:#A80036;stroke-width:1.0;" x1="1716.5" x2="2282.5" y1="266.9883" y2="266.9883"/><text fill="#000000" font-family="sans-serif" font-size="14" lengthAdjust="spacing" textLength="77" x="1721.5" y="282.5234">description</text><text fill="#000000" font-family="sans-serif" font-size="14" lengthAdjust="spacing" textLength="469" x="1808.5" y="282.5234">The time in seconds that the device has been on. Writing a value of 0</text><text fill="#000000" font-family="sans-serif" font-size="14" lengthAdjust="spacing" textLength="128" x="1808.5" y="299.0117">resets the counter.</text><line style="stroke:#A80036;stroke-width:1.0;" x1="1803.5" x2="1803.5" y1="266.9883" y2="303.9648"/><line style="stroke:#A80036;stroke-width:1.0;" x1="1716.5" x2="2282.5" y1="303.9648" y2="303.9648"/><text fill="#000000" font-family="sans-serif" font-size="14" lengthAdjust="spacing" textLength="29" x="1721.5" y="319.5">type</text><text fill="#000000" font-family="sans-serif" font-size="14" lengthAdjust="spacing" textLength="49" x="1808.5" y="319.5">integer</text><line style="stroke:#A80036;stroke-width:1.0;" x1="1803.5" x2="1803.5" y1="303.9648" y2="324.4531"/><line style="stroke:#A80036;stroke-width:1.0;" x1="1716.5" x2="2282.5" y1="324.4531" y2="324.4531"/><text fill="#000000" font-family="sans-serif" font-size="14" lengthAdjust="spacing" textLength="27" x="1721.5" y="339.9883">unit</text><text fill="#000000" font-family="sans-serif" font-size="14" lengthAdjust="spacing" textLength="7" x="1808.5" y="339.9883">s</text><line style="stroke:#A80036;stroke-width:1.0;" x1="1803.5" x2="1803.5" y1="324.4531" y2="344.9414"/><rect fill="none" height="98.4414" rx="5" ry="5" style="stroke:#A80036;stroke-width:1.5;" width="566" x="1716.5" y="246.5"/><rect fill="#FEFECE" height="118.9297" rx="5" ry="5" style="stroke:#FEFECE;stroke-width:1.5;" width="570" x="1714.5" y="363"/><text fill="#000000" font-family="sans-serif" font-size="14" lengthAdjust="spacing" textLength="33" x="1719.5" y="378.5352">label</text><text fill="#000000" font-family="sans-serif" font-size="14" lengthAdjust="spacing" textLength="167" x="1806.5" y="378.5352">Cumulative active power</text><line style="stroke:#A80036;stroke-width:1.0;" x1="1801.5" x2="1801.5" y1="363" y2="383.4883"/><line style="stroke:#A80036;stroke-width:1.0;" x1="1714.5" x2="2284.5" y1="383.4883" y2="383.4883"/><text fill="#000000" font-family="sans-serif" font-size="14" lengthAdjust="spacing" textLength="77" x="1719.5" y="399.0234">description</text><text fill="#000000" font-family="sans-serif" font-size="14" lengthAdjust="spacing" textLength="473" x="1806.5" y="399.0234">The cumulative active power since the last cumulative energy reset or</text><text fill="#000000" font-family="sans-serif" font-size="14" lengthAdjust="spacing" textLength="82" x="1806.5" y="415.5117">device start.</text><line style="stroke:#A80036;stroke-width:1.0;" x1="1801.5" x2="1801.5" y1="383.4883" y2="420.4648"/><line style="stroke:#A80036;stroke-width:1.0;" x1="1714.5" x2="2284.5" y1="420.4648" y2="420.4648"/><text fill="#000000" font-family="sans-serif" font-size="14" lengthAdjust="spacing" textLength="55" x="1719.5" y="436">writable</text><text fill="#000000" font-family="sans-serif" font-size="14" lengthAdjust="spacing" textLength="48" x="1806.5" y="436">☐ false</text><line style="stroke:#A80036;stroke-width:1.0;" x1="1801.5" x2="1801.5" y1="420.4648" y2="440.9531"/><line style="stroke:#A80036;stroke-width:1.0;" x1="1714.5" x2="2284.5" y1="440.9531" y2="440.9531"/><text fill="#000000" font-family="sans-serif" font-size="14" lengthAdjust="spacing" textLength="29" x="1719.5" y="456.4883">type</text><text fill="#000000" font-family="sans-serif" font-size="14" lengthAdjust="spacing" textLength="54" x="1806.5" y="456.4883">number</text><line style="stroke:#A80036;stroke-width:1.0;" x1="1801.5" x2="1801.5" y1="440.9531" y2="461.4414"/><line style="stroke:#A80036;stroke-width:1.0;" x1="1714.5" x2="2284.5" y1="461.4414" y2="461.4414"/><text fill="#000000" font-family="sans-serif" font-size="14" lengthAdjust="spacing" textLength="27" x="1719.5" y="476.9766">unit</text><text fill="#000000" font-family="sans-serif" font-size="14" lengthAdjust="spacing" textLength="21" x="1806.5" y="476.9766">Wh</text><line style="stroke:#A80036;stroke-width:1.0;" x1="1801.5" x2="1801.5" y1="461.4414" y2="481.9297"/><rect fill="none" height="118.9297" rx="5" ry="5" style="stroke:#A80036;stroke-width:1.5;" width="570" x="1714.5" y="363"/><rect fill="#FEFECE" height="81.9531" rx="5" ry="5" style="stroke:#FEFECE;stroke-width:1.5;" width="497" x="1751" y="500.5"/><text fill="#000000" font-family="sans-serif" font-size="14" lengthAdjust="spacing" textLength="33" x="1756" y="516.0352">label</text><text fill="#000000" font-family="sans-serif" font-size="14" lengthAdjust="spacing" textLength="86" x="1843" y="516.0352">Power factor</text><line style="stroke:#A80036;stroke-width:1.0;" x1="1838" x2="1838" y1="500.5" y2="520.9883"/><line style="stroke:#A80036;stroke-width:1.0;" x1="1751" x2="2248" y1="520.9883" y2="520.9883"/><text fill="#000000" font-family="sans-serif" font-size="14" lengthAdjust="spacing" textLength="77" x="1756" y="536.5234">description</text><text fill="#000000" font-family="sans-serif" font-size="14" lengthAdjust="spacing" textLength="400" x="1843" y="536.5234">If applicable, the power factor of the current consumption.</text><line style="stroke:#A80036;stroke-width:1.0;" x1="1838" x2="1838" y1="520.9883" y2="541.4766"/><line style="stroke:#A80036;stroke-width:1.0;" x1="1751" x2="2248" y1="541.4766" y2="541.4766"/><text fill="#000000" font-family="sans-serif" font-size="14" lengthAdjust="spacing" textLength="55" x="1756" y="557.0117">writable</text><text fill="#000000" font-family="sans-serif" font-size="14" lengthAdjust="spacing" textLength="48" x="1843" y="557.0117">☐ false</text><line style="stroke:#A80036;stroke-width:1.0;" x1="1838" x2="1838" y1="541.4766" y2="561.9648"/><line style="stroke:#A80036;stroke-width:1.0;" x1="1751" x2="2248" y1="561.9648" y2="561.9648"/><text fill="#000000" font-family="sans-serif" font-size="14" lengthAdjust="spacing" textLength="29" x="1756" y="577.5">type</text><text fill="#000000" font-family="sans-serif" font-size="14" lengthAdjust="spacing" textLength="54" x="1843" y="577.5">number</text><line style="stroke:#A80036;stroke-width:1.0;" x1="1838" x2="1838" y1="561.9648" y2="582.4531"/><rect fill="none" height="81.9531" rx="5" ry="5" style="stroke:#A80036;stroke-width:1.5;" width="497" x="1751" y="500.5"/><rect fill="#FEFECE" height="77.9531" rx="5" ry="5" style="stroke:#FEFECE;stroke-width:1.5;" width="563" x="1718" y="600.5"/><text fill="#000000" font-family="sans-serif" font-size="14" lengthAdjust="spacing" textLength="33" x="1723" y="616.0352">label</text><text fill="#000000" font-family="sans-serif" font-size="14" lengthAdjust="spacing" textLength="115" x="1810" y="616.0352">Application Type</text><line style="stroke:#A80036;stroke-width:1.0;" x1="1805" x2="1805" y1="600.5" y2="620.9883"/><line style="stroke:#A80036;stroke-width:1.0;" x1="1718" x2="2281" y1="620.9883" y2="620.9883"/><text fill="#000000" font-family="sans-serif" font-size="14" lengthAdjust="spacing" textLength="77" x="1723" y="636.5234">description</text><text fill="#000000" font-family="sans-serif" font-size="14" lengthAdjust="spacing" textLength="466" x="1810" y="636.5234">The application type of the sensor or actuator as a string depending</text><text fill="#000000" font-family="sans-serif" font-size="14" lengthAdjust="spacing" textLength="110" x="1810" y="653.0117">on the use case.</text><line style="stroke:#A80036;stroke-width:1.0;" x1="1805" x2="1805" y1="620.9883" y2="657.9648"/><line style="stroke:#A80036;stroke-width:1.0;" x1="1718" x2="2281" y1="657.9648" y2="657.9648"/><text fill="#000000" font-family="sans-serif" font-size="14" lengthAdjust="spacing" textLength="29" x="1723" y="673.5">type</text><text fill="#000000" font-family="sans-serif" font-size="14" lengthAdjust="spacing" textLength="40" x="1810" y="673.5">string</text><line style="stroke:#A80036;stroke-width:1.0;" x1="1805" x2="1805" y1="657.9648" y2="678.4531"/><rect fill="none" height="77.9531" rx="5" ry="5" style="stroke:#A80036;stroke-width:1.5;" width="563" x="1718" y="600.5"/><rect fill="#FEFECE" height="102.4414" rx="5" ry="5" style="stroke:#FEFECE;stroke-width:1.5;" width="493" x="1753" y="696.5"/><text fill="#000000" font-family="sans-serif" font-size="14" lengthAdjust="spacing" textLength="33" x="1758" y="712.0352">label</text><text fill="#000000" font-family="sans-serif" font-size="14" lengthAdjust="spacing" textLength="76" x="1845" y="712.0352">Timestamp</text><line style="stroke:#A80036;stroke-width:1.0;" x1="1840" x2="1840" y1="696.5" y2="716.9883"/><line style="stroke:#A80036;stroke-width:1.0;" x1="1753" x2="2246" y1="716.9883" y2="716.9883"/><text fill="#000000" font-family="sans-serif" font-size="14" lengthAdjust="spacing" textLength="77" x="1758" y="732.5234">description</text><text fill="#000000" font-family="sans-serif" font-size="14" lengthAdjust="spacing" textLength="396" x="1845" y="732.5234">The timestamp of when the measurement was performed.</text><line style="stroke:#A80036;stroke-width:1.0;" x1="1840" x2="1840" y1="716.9883" y2="737.4766"/><line style="stroke:#A80036;stroke-width:1.0;" x1="1753" x2="2246" y1="737.4766" y2="737.4766"/><text fill="#000000" font-family="sans-serif" font-size="14" lengthAdjust="spacing" textLength="55" x="1758" y="753.0117">writable</text><text fill="#000000" font-family="sans-serif" font-size="14" lengthAdjust="spacing" textLength="48" x="1845" y="753.0117">☐ false</text><line style="stroke:#A80036;stroke-width:1.0;" x1="1840" x2="1840" y1="737.4766" y2="757.9648"/><line style="stroke:#A80036;stroke-width:1.0;" x1="1753" x2="2246" y1="757.9648" y2="757.9648"/><text fill="#000000" font-family="sans-serif" font-size="14" lengthAdjust="spacing" textLength="29" x="1758" y="773.5">type</text><text fill="#000000" font-family="sans-serif" font-size="14" lengthAdjust="spacing" textLength="54" x="1845" y="773.5">number</text><line style="stroke:#A80036;stroke-width:1.0;" x1="1840" x2="1840" y1="757.9648" y2="778.4531"/><line style="stroke:#A80036;stroke-width:1.0;" x1="1753" x2="2246" y1="778.4531" y2="778.4531"/><text fill="#000000" font-family="sans-serif" font-size="14" lengthAdjust="spacing" textLength="54" x="1758" y="793.9883">sdfType</text><text fill="#000000" font-family="sans-serif" font-size="14" lengthAdjust="spacing" textLength="69" x="1845" y="793.9883">unix-time</text><line style="stroke:#A80036;stroke-width:1.0;" x1="1840" x2="1840" y1="778.4531" y2="798.9414"/><rect fill="none" height="102.4414" rx="5" ry="5" style="stroke:#A80036;stroke-width:1.5;" width="493" x="1753" y="696.5"/><rect fill="#FEFECE" height="159.9063" rx="5" ry="5" style="stroke:#FEFECE;stroke-width:1.5;" width="563" x="1718" y="816.5"/><text fill="#000000" font-family="sans-serif" font-size="14" lengthAdjust="spacing" textLength="33" x="1723" y="832.0352">label</text><text fill="#000000" font-family="sans-serif" font-size="14" lengthAdjust="spacing" textLength="148" x="1810" y="832.0352">Fractional Timestamp</text><line style="stroke:#A80036;stroke-width:1.0;" x1="1805" x2="1805" y1="816.5" y2="836.9883"/><line style="stroke:#A80036;stroke-width:1.0;" x1="1718" x2="2281" y1="836.9883" y2="836.9883"/><text fill="#000000" font-family="sans-serif" font-size="14" lengthAdjust="spacing" textLength="77" x="1723" y="852.5234">description</text><text fill="#000000" font-family="sans-serif" font-size="14" lengthAdjust="spacing" textLength="466" x="1810" y="852.5234">Fractional part of the timestamp when sub-second precision is used</text><text fill="#000000" font-family="sans-serif" font-size="14" lengthAdjust="spacing" textLength="157" x="1810" y="869.0117">(e.g., 0.23 for 230 ms).</text><line style="stroke:#A80036;stroke-width:1.0;" x1="1805" x2="1805" y1="836.9883" y2="873.9648"/><line style="stroke:#A80036;stroke-width:1.0;" x1="1718" x2="2281" y1="873.9648" y2="873.9648"/><text fill="#000000" font-family="sans-serif" font-size="14" lengthAdjust="spacing" textLength="55" x="1723" y="889.5">writable</text><text fill="#000000" font-family="sans-serif" font-size="14" lengthAdjust="spacing" textLength="48" x="1810" y="889.5">☐ false</text><line style="stroke:#A80036;stroke-width:1.0;" x1="1805" x2="1805" y1="873.9648" y2="894.4531"/><line style="stroke:#A80036;stroke-width:1.0;" x1="1718" x2="2281" y1="894.4531" y2="894.4531"/><text fill="#000000" font-family="sans-serif" font-size="14" lengthAdjust="spacing" textLength="29" x="1723" y="909.9883">type</text><text fill="#000000" font-family="sans-serif" font-size="14" lengthAdjust="spacing" textLength="54" x="1810" y="909.9883">number</text><line style="stroke:#A80036;stroke-width:1.0;" x1="1805" x2="1805" y1="894.4531" y2="914.9414"/><line style="stroke:#A80036;stroke-width:1.0;" x1="1718" x2="2281" y1="914.9414" y2="914.9414"/><text fill="#000000" font-family="sans-serif" font-size="14" lengthAdjust="spacing" textLength="27" x="1723" y="930.4766">unit</text><text fill="#000000" font-family="sans-serif" font-size="14" lengthAdjust="spacing" textLength="7" x="1810" y="930.4766">s</text><line style="stroke:#A80036;stroke-width:1.0;" x1="1805" x2="1805" y1="914.9414" y2="935.4297"/><line style="stroke:#A80036;stroke-width:1.0;" x1="1718" x2="2281" y1="935.4297" y2="935.4297"/><text fill="#000000" font-family="sans-serif" font-size="14" lengthAdjust="spacing" textLength="65" x="1723" y="950.9648">minimum</text><text fill="#000000" font-family="sans-serif" font-size="14" lengthAdjust="spacing" textLength="9" x="1810" y="950.9648">0</text><line style="stroke:#A80036;stroke-width:1.0;" x1="1805" x2="1805" y1="935.4297" y2="955.918"/><line style="stroke:#A80036;stroke-width:1.0;" x1="1718" x2="2281" y1="955.918" y2="955.918"/><text fill="#000000" font-family="sans-serif" font-size="14" lengthAdjust="spacing" textLength="69" x="1723" y="971.4531">maximum</text><text fill="#000000" font-family="sans-serif" font-size="14" lengthAdjust="spacing" textLength="9" x="1810" y="971.4531">1</text><line style="stroke:#A80036;stroke-width:1.0;" x1="1805" x2="1805" y1="955.918" y2="976.4063"/><rect fill="none" height="159.9063" rx="5" ry="5" style="stroke:#A80036;stroke-width:1.5;" width="563" x="1718" y="816.5"/><rect fill="#FEFECE" height="15" rx="5" ry="5" style="stroke:#FEFECE;stroke-width:1.5;" width="30" x="1492" y="582.5"/><rect fill="none" height="15" rx="5" ry="5" style="stroke:#A80036;stroke-width:1.5;" width="30" x="1492" y="582.5"/><rect fill="#FEFECE" height="20.4883" rx="5" ry="5" style="stroke:#FEFECE;stroke-width:1.5;" width="340" x="1334" y="616.5"/><text fill="#000000" font-family="sans-serif" font-size="14" lengthAdjust="spacing" textLength="330" x="1339" y="632.0352">#/sdfObject/Power_Control/sdfProperty/On_Off</text><rect fill="none" height="20.4883" rx="5" ry="5" style="stroke:#A80036;stroke-width:1.5;" width="340" x="1334" y="616.5"/><path d="M95,518.5 L108,518.5 C117.3406,518.5 126.8353,518.3896 136.4202,518.1839 " fill="none" style="stroke:#A80036;stroke-width:1.0;stroke-dasharray:3.0,3.0;"/><path d="M136.4943,521.2659 L138.7318,518.1283 L136.3462,515.1019 L144.1253,517.9987 L136.4943,521.2659 " fill="#A80036" style="stroke:#A80036;stroke-width:1.0;"/><ellipse cx="95" cy="518.5" fill="#A80036" rx="3" ry="3" style="stroke:#A80036;stroke-width:1.0;stroke-dasharray:3.0,3.0;"/><path d="M1595.5,410.5 L1608.5,410.5 C1762.5032,410.5 1593.4648,179.0111 1711,79.5 C1716.0512,75.2234 1721.3409,71.2827 1726.8314,67.6546 " fill="none" style="stroke:#A80036;stroke-width:1.0;stroke-dasharray:3.0,3.0;"/><path d="M1728.4781,70.2687 L1728.792,66.4196 L1725.1847,65.0405 L1733.3667,63.5378 L1728.4781,70.2687 " fill="#A80036" style="stroke:#A80036;stroke-width:1.0;"/><ellipse cx="1595.5" cy="410.5" fill="#A80036" rx="3" ry="3" style="stroke:#A80036;stroke-width:1.0;stroke-dasharray:3.0,3.0;"/><path d="M1595.5,430.5 L1608.5,430.5 C1705.6243,430.5 1635.1837,298.2045 1711,237.5 C1713.0236,235.8797 1715.078,234.2926 1717.1613,232.738 " fill="none" style="stroke:#A80036;stroke-width:1.0;stroke-dasharray:3.0,3.0;"/><path d="M1718.9882,235.2717 L1719.0616,231.3679 L1715.3345,230.2043 L1723.4957,228.1709 L1718.9882,235.2717 " fill="#A80036" style="stroke:#A80036;stroke-width:1.0;"/><ellipse cx="1595.5" cy="430.5" fill="#A80036" rx="3" ry="3" style="stroke:#A80036;stroke-width:1.0;stroke-dasharray:3.0,3.0;"/><path d="M1595.5,451.5 L1608.5,451.5 C1671.5269,451.5 1655.12,382.6517 1711,353.5 C1714.7448,351.5464 1718.5487,349.6585 1722.404,347.8341 " fill="none" style="stroke:#A80036;stroke-width:1.0;stroke-dasharray:3.0,3.0;"/><path d="M1723.6903,350.6314 L1724.5019,346.8693 L1721.1176,345.0368 L1729.3972,344.6182 L1723.6903,350.6314 " fill="#A80036" style="stroke:#A80036;stroke-width:1.0;"/><ellipse cx="1595.5" cy="451.5" fill="#A80036" rx="3" ry="3" style="stroke:#A80036;stroke-width:1.0;stroke-dasharray:3.0,3.0;"/><path d="M1595.5,471.5 L1608.5,471.5 C1640.5789,471.5 1674.0256,469.8519 1707.2594,467.1603 " fill="none" style="stroke:#A80036;stroke-width:1.0;stroke-dasharray:3.0,3.0;"/><path d="M1707.5107,470.1748 L1709.5202,466.9718 L1707.0081,464.1459 L1714.7955,466.532 L1707.5107,470.1748 " fill="#A80036" style="stroke:#A80036;stroke-width:1.0;"/><ellipse cx="1595.5" cy="471.5" fill="#A80036" rx="3" ry="3" style="stroke:#A80036;stroke-width:1.0;stroke-dasharray:3.0,3.0;"/><path d="M1595.5,492.5 L1608.5,492.5 C1652.4312,492.5 1698.9275,495.5909 1743.9294,500.22 " fill="none" style="stroke:#A80036;stroke-width:1.0;stroke-dasharray:3.0,3.0;"/><path d="M1743.6146,503.2205 L1746.1798,500.4562 L1744.2443,497.2195 L1751.4306,501.0072 L1743.6146,503.2205 " fill="#A80036" style="stroke:#A80036;stroke-width:1.0;"/><ellipse cx="1595.5" cy="492.5" fill="#A80036" rx="3" ry="3" style="stroke:#A80036;stroke-width:1.0;stroke-dasharray:3.0,3.0;"/><path d="M1595.5,513.5 L1608.5,513.5 C1665.7458,513.5 1658.449,568.7959 1711,591.5 C1716.0386,593.6769 1721.1662,595.7555 1726.3663,597.7402 " fill="none" style="stroke:#A80036;stroke-width:1.0;stroke-dasharray:3.0,3.0;"/><path d="M1725.3068,600.594 L1728.5066,598.5348 L1727.4258,594.8865 L1733.5007,600.3889 L1725.3068,600.594 " fill="#A80036" style="stroke:#A80036;stroke-width:1.0;"/><ellipse cx="1595.5" cy="513.5" fill="#A80036" rx="3" ry="3" style="stroke:#A80036;stroke-width:1.0;stroke-dasharray:3.0,3.0;"/><path d="M1595.5,533.5 L1608.5,533.5 C1642.9903,533.5 1653.6476,546.4139 1675,573.5 C1707.8937,615.2266 1671.5899,651.8636 1711,687.5 C1721.8069,697.2721 1733.7816,705.6114 1746.5296,712.7158 " fill="none" style="stroke:#A80036;stroke-width:1.0;stroke-dasharray:3.0,3.0;"/><path d="M1745.0881,715.4097 L1748.55,713.7968 L1747.971,710.0218 L1753.2643,716.3194 L1745.0881,715.4097 " fill="#A80036" style="stroke:#A80036;stroke-width:1.0;"/><ellipse cx="1595.5" cy="533.5" fill="#A80036" rx="3" ry="3" style="stroke:#A80036;stroke-width:1.0;stroke-dasharray:3.0,3.0;"/><path d="M1595.5,554.5 L1608.5,554.5 C1639.2382,554.5 1654.6723,550.443 1675,573.5 C1744.5861,652.4289 1642.2631,727.8304 1711,807.5 C1711.9935,808.6516 1713.0016,809.7885 1714.0238,810.9109 " fill="none" style="stroke:#A80036;stroke-width:1.0;stroke-dasharray:3.0,3.0;"/><path d="M1711.827,813.0014 L1715.5918,812.5585 L1716.2207,808.8203 L1719.2502,816.4029 L1711.827,813.0014 " fill="#A80036" style="stroke:#A80036;stroke-width:1.0;"/><ellipse cx="1595.5" cy="554.5" fill="#A80036" rx="3" ry="3" style="stroke:#A80036;stroke-width:1.0;stroke-dasharray:3.0,3.0;"/><path d="M1285,563.5 L1298,563.5 C1330.6621,563.5 1364.3377,554.534 1394.737,542.5681 " fill="none" style="stroke:#A80036;stroke-width:1.0;stroke-dasharray:3.0,3.0;"/><path d="M1395.9101,545.4664 L1396.9108,541.6883 L1393.564,539.6697 L1401.9829,539.6354 L1395.9101,545.4664 " fill="#A80036" style="stroke:#A80036;stroke-width:1.0;"/><ellipse cx="1285" cy="563.5" fill="#A80036" rx="3" ry="3" style="stroke:#A80036;stroke-width:1.0;stroke-dasharray:3.0,3.0;"/><path d="M1285,590.5 L1298,590.5 C1366.7007,590.5 1448.3205,590.5 1484.5531,590.5 " fill="none" style="stroke:#A80036;stroke-width:1.0;stroke-dasharray:3.0,3.0;"/><path d="M1484.5531,593.6236 L1486.8958,590.5 L1484.5531,587.3764 L1492.3621,590.5 L1484.5531,593.6236 " fill="#A80036" style="stroke:#A80036;stroke-width:1.0;"/><ellipse cx="1285" cy="590.5" fill="#A80036" rx="3" ry="3" style="stroke:#A80036;stroke-width:1.0;stroke-dasharray:3.0,3.0;"/><path d="M1285,617.5 L1298,617.5 C1307.4621,617.5 1317.1669,617.5964 1326.9628,617.7693 " fill="none" style="stroke:#A80036;stroke-width:1.0;stroke-dasharray:3.0,3.0;"/><path d="M1326.9041,620.7718 L1329.2147,617.8133 L1327.0216,614.7668 L1334.4691,617.916 L1326.9041,620.7718 " fill="#A80036" style="stroke:#A80036;stroke-width:1.0;"/><ellipse cx="1285" cy="617.5" fill="#A80036" rx="3" ry="3" style="stroke:#A80036;stroke-width:1.0;stroke-dasharray:3.0,3.0;"/><path d="M473,563.5 L486,563.5 C562.0375,563.5 644.2579,563.5 720.595,563.5 " fill="none" style="stroke:#A80036;stroke-width:1.0;stroke-dasharray:3.0,3.0;"/><path d="M720.595,566.6375 L722.9481,563.5 L720.595,560.3625 L728.4388,563.5 L720.595,566.6375 " fill="#A80036" style="stroke:#A80036;stroke-width:1.0;"/><ellipse cx="473" cy="563.5" fill="#A80036" rx="3" ry="3" style="stroke:#A80036;stroke-width:1.0;stroke-dasharray:3.0,3.0;"/><path d="M95,539.5 L108,539.5 C124.1536,539.5 127.9333,542.8271 144,544.5 C211.4727,551.5252 288.606,556.6244 343.6336,559.7606 " fill="none" style="stroke:#A80036;stroke-width:1.0;stroke-dasharray:3.0,3.0;"/><path d="M343.4618,562.8065 L345.918,559.8895 L343.8054,556.7148 L351.2482,560.1901 L343.4618,562.8065 " fill="#A80036" style="stroke:#A80036;stroke-width:1.0;"/><ellipse cx="95" cy="539.5" fill="#A80036" rx="3" ry="3" style="stroke:#A80036;stroke-width:1.0;stroke-dasharray:3.0,3.0;"/><!--MD5=[316eb4a0393902942048c5b24068b60a]
@startjson
{
  "info": {
    "title": "OMA LwM2M Power Control (Object ID 3312)",
    "version": "2021-02-11",
    "copyright": "Copyright (c) 2018-2020 IPSO",
    "license": "https://github.com/one-data-model/oneDM/blob/master/LICENSE"
  },
  "sdfObject": {
    "Power_Control": {
      "label": "Power Control",
      "description": "This Object is used to control a power source, such as a Smart Plug. \\nIt allows a power relay to be turned on or off and its dimmer setting\\nto be control as a % between 0 and 100.",
      "sdfProperty": {
        "On_Off": {
          "label": "On/Off",
          "description": "On/off control. Boolean value where True is On and False is Off.",
          "type": "boolean"
        },
        "Dimmer": {
          "label": "Dimmer",
          "description": "This resource represents a dimmer setting, which has an Integer value\\nbetween 0 and 100 as a percentage.",
          "type": "integer",
          "unit": "/100",
          "minimum": 0,
          "maximum": 100
        },
        "On_time": {
          "label": "On time",
          "description": "The time in seconds that the device has been on. Writing a value of 0\\nresets the counter.",
          "type": "integer",
          "unit": "s"
        },
        "Cumulative_active_power": {
          "label": "Cumulative active power",
          "description": "The cumulative active power since the last cumulative energy reset or\\ndevice start.",
          "writable": false,
          "type": "number",
          "unit": "Wh"
        },
        "Power_factor": {
          "label": "Power factor",
          "description": "If applicable, the power factor of the current consumption.",
          "writable": false,
          "type": "number"
        },
        "Application_Type": {
          "label": "Application Type",
          "description": "The application type of the sensor or actuator as a string depending\\non the use case.",
          "type": "string"
        },
        "Timestamp": {
          "label": "Timestamp",
          "description": "The timestamp of when the measurement was performed.",
          "writable": false,
          "type": "number",
          "sdfType": "unix-time"
        },
        "Fractional_Timestamp": {
          "label": "Fractional Timestamp",
          "description": "Fractional part of the timestamp when sub-second precision is used\\n(e.g., 0.23 for 230 ms).",
          "writable": false,
          "type": "number",
          "unit": "s",
          "minimum": 0,
          "maximum": 1
        }
      },
      "sdfAction": {},
      "sdfRequired": [
        "#/sdfObject/Power_Control/sdfProperty/On_Off"
      ]
    }
  }
}
@endjson

PlantUML version 1.2021.2(Sun Mar 07 13:10:27 EET 2021)
(GPL source distribution)
Java Runtime: OpenJDK Runtime Environment
JVM: OpenJDK 64-Bit Server VM
Default Encoding: UTF-8
Language: en
Country: FI
--></g></svg>