<?xml version="1.0" encoding="UTF-8" standalone="no"?><svg xmlns="http://www.w3.org/2000/svg" xmlns:xlink="http://www.w3.org/1999/xlink" contentScriptType="application/ecmascript" contentStyleType="text/css" height="207px" preserveAspectRatio="none" style="width:2648px;height:207px;" version="1.1" viewBox="0 0 2648 207" width="2648px" zoomAndPan="magnify"><defs/><g><rect fill="#FEFECE" height="40.9766" rx="5" ry="5" style="stroke:#FEFECE;stroke-width:1.5;" width="97" x="10" y="65.5"/><text fill="#000000" font-family="sans-serif" font-size="14" lengthAdjust="spacing" textLength="27" x="15" y="81.0352">info</text><text fill="#000000" font-family="sans-serif" font-size="14" lengthAdjust="spacing" textLength="0" x="102" y="81.0352"/><line style="stroke:#A80036;stroke-width:1.0;" x1="85" x2="85" y1="65.5" y2="85.9883"/><line style="stroke:#A80036;stroke-width:1.0;" x1="10" x2="107" y1="85.9883" y2="85.9883"/><text fill="#000000" font-family="sans-serif" font-size="14" lengthAdjust="spacing" textLength="65" x="15" y="101.5234">sdfObject</text><text fill="#000000" font-family="sans-serif" font-size="14" lengthAdjust="spacing" textLength="0" x="102" y="101.5234"/><line style="stroke:#A80036;stroke-width:1.0;" x1="85" x2="85" y1="85.9883" y2="106.4766"/><rect fill="none" height="40.9766" rx="5" ry="5" style="stroke:#A80036;stroke-width:1.5;" width="97" x="10" y="65.5"/><rect fill="#FEFECE" height="81.9531" rx="5" ry="5" style="stroke:#FEFECE;stroke-width:1.5;" width="614" x="144" y="10"/><text fill="#000000" font-family="sans-serif" font-size="14" lengthAdjust="spacing" textLength="65" x="149" y="25.5352">copyright</text><text fill="#000000" font-family="sans-serif" font-size="14" lengthAdjust="spacing" textLength="529" x="224" y="25.5352">Copyright 2018-2019 Open Connectivity Foundation, Inc. All rights reserved.</text><line style="stroke:#A80036;stroke-width:1.0;" x1="219" x2="219" y1="10" y2="30.4883"/><line style="stroke:#A80036;stroke-width:1.0;" x1="144" x2="758" y1="30.4883" y2="30.4883"/><text fill="#000000" font-family="sans-serif" font-size="14" lengthAdjust="spacing" textLength="47" x="149" y="46.0234">license</text><text fill="#000000" font-family="sans-serif" font-size="14" lengthAdjust="spacing" textLength="462" x="224" y="46.0234">https://github.com/one-data-model/oneDM/blob/master/LICENSE</text><line style="stroke:#A80036;stroke-width:1.0;" x1="219" x2="219" y1="30.4883" y2="50.9766"/><line style="stroke:#A80036;stroke-width:1.0;" x1="144" x2="758" y1="50.9766" y2="50.9766"/><text fill="#000000" font-family="sans-serif" font-size="14" lengthAdjust="spacing" textLength="26" x="149" y="66.5117">title</text><text fill="#000000" font-family="sans-serif" font-size="14" lengthAdjust="spacing" textLength="271" x="224" y="66.5117">Pulsatile Occurrence for Pulse Oximeter</text><line style="stroke:#A80036;stroke-width:1.0;" x1="219" x2="219" y1="50.9766" y2="71.4648"/><line style="stroke:#A80036;stroke-width:1.0;" x1="144" x2="758" y1="71.4648" y2="71.4648"/><text fill="#000000" font-family="sans-serif" font-size="14" lengthAdjust="spacing" textLength="50" x="149" y="87">version</text><text fill="#000000" font-family="sans-serif" font-size="14" lengthAdjust="spacing" textLength="88" x="224" y="87">2019-03-04</text><line style="stroke:#A80036;stroke-width:1.0;" x1="219" x2="219" y1="71.4648" y2="91.9531"/><rect fill="none" height="81.9531" rx="5" ry="5" style="stroke:#A80036;stroke-width:1.5;" width="614" x="144" y="10"/><rect fill="#FEFECE" height="20.4883" rx="5" ry="5" style="stroke:#FEFECE;stroke-width:1.5;" width="166" x="368" y="110"/><text fill="#000000" font-family="sans-serif" font-size="14" lengthAdjust="spacing" textLength="134" x="373" y="125.5352">pulsatileoccurrence</text><text fill="#000000" font-family="sans-serif" font-size="14" lengthAdjust="spacing" textLength="0" x="529" y="125.5352"/><line style="stroke:#A80036;stroke-width:1.0;" x1="512" x2="512" y1="110" y2="130.4883"/><rect fill="none" height="20.4883" rx="5" ry="5" style="stroke:#A80036;stroke-width:1.5;" width="166" x="368" y="110"/><rect fill="#FEFECE" height="110.9297" rx="5" ry="5" style="stroke:#FEFECE;stroke-width:1.5;" width="587" x="795" y="64.5"/><text fill="#000000" font-family="sans-serif" font-size="14" lengthAdjust="spacing" textLength="77" x="800" y="80.0352">description</text><text fill="#000000" font-family="sans-serif" font-size="14" lengthAdjust="spacing" textLength="447" x="893" y="80.0352">This Resource describes the Properties associated with a Pulsatile</text><text fill="#000000" font-family="sans-serif" font-size="14" lengthAdjust="spacing" textLength="484" x="893" y="96.5234">Occurrence detected by a Pulse Oximeter. The occurrence Property is a</text><text fill="#000000" font-family="sans-serif" font-size="14" lengthAdjust="spacing" textLength="443" x="893" y="113.0117">read-only value that is provided by the server. When range (from</text><text fill="#000000" font-family="sans-serif" font-size="14" lengthAdjust="spacing" textLength="440" x="893" y="129.5">"oic. r. baseresource") is omitted the default is 0 to +MAXFLOAT.</text><line style="stroke:#A80036;stroke-width:1.0;" x1="888" x2="888" y1="64.5" y2="134.4531"/><line style="stroke:#A80036;stroke-width:1.0;" x1="795" x2="1382" y1="134.4531" y2="134.4531"/><text fill="#000000" font-family="sans-serif" font-size="14" lengthAdjust="spacing" textLength="79" x="800" y="149.9883">sdfProperty</text><text fill="#000000" font-family="sans-serif" font-size="14" lengthAdjust="spacing" textLength="0" x="905" y="149.9883"/><line style="stroke:#A80036;stroke-width:1.0;" x1="888" x2="888" y1="134.4531" y2="154.9414"/><line style="stroke:#A80036;stroke-width:1.0;" x1="795" x2="1382" y1="154.9414" y2="154.9414"/><text fill="#000000" font-family="sans-serif" font-size="14" lengthAdjust="spacing" textLength="83" x="800" y="170.4766">sdfRequired</text><text fill="#000000" font-family="sans-serif" font-size="14" lengthAdjust="spacing" textLength="0" x="905" y="170.4766"/><line style="stroke:#A80036;stroke-width:1.0;" x1="888" x2="888" y1="154.9414" y2="175.4297"/><rect fill="none" height="110.9297" rx="5" ry="5" style="stroke:#A80036;stroke-width:1.5;" width="587" x="795" y="64.5"/><rect fill="#FEFECE" height="20.4883" rx="5" ry="5" style="stroke:#FEFECE;stroke-width:1.5;" width="108" x="1565.5" y="110"/><text fill="#000000" font-family="sans-serif" font-size="14" lengthAdjust="spacing" textLength="76" x="1570.5" y="125.5352">occurrence</text><text fill="#000000" font-family="sans-serif" font-size="14" lengthAdjust="spacing" textLength="0" x="1668.5" y="125.5352"/><line style="stroke:#A80036;stroke-width:1.0;" x1="1651.5" x2="1651.5" y1="110" y2="130.4883"/><rect fill="none" height="20.4883" rx="5" ry="5" style="stroke:#A80036;stroke-width:1.5;" width="108" x="1565.5" y="110"/><rect fill="#FEFECE" height="151.9063" rx="5" ry="5" style="stroke:#FEFECE;stroke-width:1.5;" width="601" x="1857" y="44"/><text fill="#000000" font-family="sans-serif" font-size="14" lengthAdjust="spacing" textLength="29" x="1862" y="59.5352">type</text><text fill="#000000" font-family="sans-serif" font-size="14" lengthAdjust="spacing" textLength="40" x="1949" y="59.5352">string</text><line style="stroke:#A80036;stroke-width:1.0;" x1="1944" x2="1944" y1="44" y2="64.4883"/><line style="stroke:#A80036;stroke-width:1.0;" x1="1857" x2="2458" y1="64.4883" y2="64.4883"/><text fill="#000000" font-family="sans-serif" font-size="14" lengthAdjust="spacing" textLength="55" x="1862" y="80.0234">writable</text><text fill="#000000" font-family="sans-serif" font-size="14" lengthAdjust="spacing" textLength="48" x="1949" y="80.0234">☐ false</text><line style="stroke:#A80036;stroke-width:1.0;" x1="1944" x2="1944" y1="64.4883" y2="84.9766"/><line style="stroke:#A80036;stroke-width:1.0;" x1="1857" x2="2458" y1="84.9766" y2="84.9766"/><text fill="#000000" font-family="sans-serif" font-size="14" lengthAdjust="spacing" textLength="39" x="1862" y="100.5117">enum</text><text fill="#000000" font-family="sans-serif" font-size="14" lengthAdjust="spacing" textLength="0" x="1961" y="100.5117"/><line style="stroke:#A80036;stroke-width:1.0;" x1="1944" x2="1944" y1="84.9766" y2="105.4648"/><line style="stroke:#A80036;stroke-width:1.0;" x1="1857" x2="2458" y1="105.4648" y2="105.4648"/><text fill="#000000" font-family="sans-serif" font-size="14" lengthAdjust="spacing" textLength="77" x="1862" y="121">description</text><text fill="#000000" font-family="sans-serif" font-size="14" lengthAdjust="spacing" textLength="464" x="1949" y="121">This Property describes the Pulsatile Occurrence detected by a Pulse</text><text fill="#000000" font-family="sans-serif" font-size="14" lengthAdjust="spacing" textLength="504" x="1949" y="137.4883">Oximeter. BEAT - Pulsatile occurrence has occurred. BEAT_MAX_INRUSH -</text><text fill="#000000" font-family="sans-serif" font-size="14" lengthAdjust="spacing" textLength="477" x="1949" y="153.9766">Maximal inrush of the pulsatile wave has occurred. NOS - No pulsatile</text><text fill="#000000" font-family="sans-serif" font-size="14" lengthAdjust="spacing" textLength="106" x="1949" y="170.4648">event occurred.</text><line style="stroke:#A80036;stroke-width:1.0;" x1="1944" x2="1944" y1="105.4648" y2="175.418"/><line style="stroke:#A80036;stroke-width:1.0;" x1="1857" x2="2458" y1="175.418" y2="175.418"/><text fill="#000000" font-family="sans-serif" font-size="14" lengthAdjust="spacing" textLength="48" x="1862" y="190.9531">default</text><text fill="#000000" font-family="sans-serif" font-size="14" lengthAdjust="spacing" textLength="29" x="1949" y="190.9531">NOS</text><line style="stroke:#A80036;stroke-width:1.0;" x1="1944" x2="1944" y1="175.418" y2="195.9063"/><rect fill="none" height="151.9063" rx="5" ry="5" style="stroke:#A80036;stroke-width:1.5;" width="601" x="1857" y="44"/><rect fill="#FEFECE" height="61.4648" rx="5" ry="5" style="stroke:#FEFECE;stroke-width:1.5;" width="141" x="2495" y="88.5"/><text fill="#000000" font-family="sans-serif" font-size="14" lengthAdjust="spacing" textLength="35" x="2500" y="104.0352">BEAT</text><line style="stroke:#A80036;stroke-width:1.0;" x1="2495" x2="2636" y1="108.9883" y2="108.9883"/><text fill="#000000" font-family="sans-serif" font-size="14" lengthAdjust="spacing" textLength="131" x="2500" y="124.5234">BEAT_MAX_INRUSH</text><line style="stroke:#A80036;stroke-width:1.0;" x1="2495" x2="2636" y1="129.4766" y2="129.4766"/><text fill="#000000" font-family="sans-serif" font-size="14" lengthAdjust="spacing" textLength="29" x="2500" y="145.0117">NOS</text><rect fill="none" height="61.4648" rx="5" ry="5" style="stroke:#A80036;stroke-width:1.5;" width="141" x="2495" y="88.5"/><rect fill="#FEFECE" height="20.4883" rx="5" ry="5" style="stroke:#FEFECE;stroke-width:1.5;" width="401" x="1419" y="148"/><text fill="#000000" font-family="sans-serif" font-size="14" lengthAdjust="spacing" textLength="391" x="1424" y="163.5352">#/sdfObject/pulsatileoccurrence/sdfProperty/occurrence</text><rect fill="none" height="20.4883" rx="5" ry="5" style="stroke:#A80036;stroke-width:1.5;" width="401" x="1419" y="148"/><path d="M95,75 L108,75 C117.4068,75 126.9554,74.9088 136.5926,74.7376 " fill="none" style="stroke:#A80036;stroke-width:1.0;stroke-dasharray:3.0,3.0;"/><path d="M136.6543,77.8363 L138.9166,74.6914 L136.5309,71.6389 L144.3394,74.5834 L136.6543,77.8363 " fill="#A80036" style="stroke:#A80036;stroke-width:1.0;"/><ellipse cx="95" cy="75" fill="#A80036" rx="3" ry="3" style="stroke:#A80036;stroke-width:1.0;stroke-dasharray:3.0,3.0;"/><path d="M2446,119 L2459,119 C2468.2934,119 2478.0451,119 2487.7127,119 " fill="none" style="stroke:#A80036;stroke-width:1.0;stroke-dasharray:3.0,3.0;"/><path d="M2487.7127,122.0899 L2490.0301,119 L2487.7127,115.9101 L2495.4375,119 L2487.7127,122.0899 " fill="#A80036" style="stroke:#A80036;stroke-width:1.0;"/><ellipse cx="2446" cy="119" fill="#A80036" rx="3" ry="3" style="stroke:#A80036;stroke-width:1.0;stroke-dasharray:3.0,3.0;"/><path d="M1662,120 L1675,120 C1731.4599,120 1791.6398,120 1849.6571,120 " fill="none" style="stroke:#A80036;stroke-width:1.0;stroke-dasharray:3.0,3.0;"/><path d="M1849.6571,123.1204 L1851.9974,120 L1849.6571,116.8796 L1857.4581,120 L1849.6571,123.1204 " fill="#A80036" style="stroke:#A80036;stroke-width:1.0;"/><ellipse cx="1662" cy="120" fill="#A80036" rx="3" ry="3" style="stroke:#A80036;stroke-width:1.0;stroke-dasharray:3.0,3.0;"/><path d="M1370,120 L1383,120 C1442.3817,120 1510.168,120 1557.8099,120 " fill="none" style="stroke:#A80036;stroke-width:1.0;stroke-dasharray:3.0,3.0;"/><path d="M1557.8099,123.1058 L1560.1392,120 L1557.8099,116.8942 L1565.5744,120 L1557.8099,123.1058 " fill="#A80036" style="stroke:#A80036;stroke-width:1.0;"/><ellipse cx="1370" cy="120" fill="#A80036" rx="3" ry="3" style="stroke:#A80036;stroke-width:1.0;stroke-dasharray:3.0,3.0;"/><path d="M1370,157 L1383,157 C1392.3757,157 1401.9609,157.008 1411.6432,157.0225 " fill="none" style="stroke:#A80036;stroke-width:1.0;stroke-dasharray:3.0,3.0;"/><path d="M1411.638,160.136 L1413.9783,157.0265 L1411.6484,153.9091 L1419.4269,157.0356 L1411.638,160.136 " fill="#A80036" style="stroke:#A80036;stroke-width:1.0;"/><ellipse cx="1370" cy="157" fill="#A80036" rx="3" ry="3" style="stroke:#A80036;stroke-width:1.0;stroke-dasharray:3.0,3.0;"/><path d="M522.5,120 L535.5,120 C617.1558,120 705.5999,120 787.2882,120 " fill="none" style="stroke:#A80036;stroke-width:1.0;stroke-dasharray:3.0,3.0;"/><path d="M787.2882,123.1535 L789.6533,120 L787.2882,116.8465 L795.1719,120 L787.2882,123.1535 " fill="#A80036" style="stroke:#A80036;stroke-width:1.0;"/><ellipse cx="522.5" cy="120" fill="#A80036" rx="3" ry="3" style="stroke:#A80036;stroke-width:1.0;stroke-dasharray:3.0,3.0;"/><path d="M95,96 L108,96 C124.1536,96 127.927,99.388 144,101 C216.747,108.296 299.5074,113.2275 360.678,116.2341 " fill="none" style="stroke:#A80036;stroke-width:1.0;stroke-dasharray:3.0,3.0;"/><path d="M360.5279,119.3252 L362.9963,116.3466 L360.8281,113.1429 L368.4058,116.6093 L360.5279,119.3252 " fill="#A80036" style="stroke:#A80036;stroke-width:1.0;"/><ellipse cx="95" cy="96" fill="#A80036" rx="3" ry="3" style="stroke:#A80036;stroke-width:1.0;stroke-dasharray:3.0,3.0;"/><!--MD5=[c2f83849f1b751072dd855118680dc7e]
@startjson
{
  "info": {
    "copyright": "Copyright 2018-2019 Open Connectivity Foundation, Inc. All rights reserved.",
    "license": "https://github.com/one-data-model/oneDM/blob/master/LICENSE",
    "title": "Pulsatile Occurrence for Pulse Oximeter",
    "version": "2019-03-04"
  },
  "sdfObject": {
    "pulsatileoccurrence": {
      "description": "This Resource describes the Properties associated with a Pulsatile\\nOccurrence detected by a Pulse Oximeter. The occurrence Property is a\\nread-only value that is provided by the server. When range (from\\n\"oic. r. baseresource\") is omitted the default is 0 to +MAXFLOAT.",
      "sdfProperty": {
        "occurrence": {
          "type": "string",
          "writable": false,
          "enum": [
            "BEAT",
            "BEAT_MAX_INRUSH",
            "NOS"
          ],
          "description": "This Property describes the Pulsatile Occurrence detected by a Pulse\\nOximeter. BEAT - Pulsatile occurrence has occurred. BEAT_MAX_INRUSH -\\nMaximal inrush of the pulsatile wave has occurred. NOS - No pulsatile\\nevent occurred.",
          "default": "NOS"
        }
      },
      "sdfRequired": [
        "#/sdfObject/pulsatileoccurrence/sdfProperty/occurrence"
      ]
    }
  }
}
@endjson

PlantUML version 1.2021.2(Sun Mar 07 13:10:27 EET 2021)
(GPL source distribution)
Java Runtime: OpenJDK Runtime Environment
JVM: OpenJDK 64-Bit Server VM
Default Encoding: UTF-8
Language: en
Country: FI
--></g></svg>