<?xml version="1.0" encoding="UTF-8" standalone="no"?><svg xmlns="http://www.w3.org/2000/svg" xmlns:xlink="http://www.w3.org/1999/xlink" contentScriptType="application/ecmascript" contentStyleType="text/css" height="209px" preserveAspectRatio="none" style="width:2298px;height:209px;" version="1.1" viewBox="0 0 2298 209" width="2298px" zoomAndPan="magnify"><defs/><g><rect fill="#FEFECE" height="40.9766" rx="5" ry="5" style="stroke:#FEFECE;stroke-width:1.5;" width="97" x="10" y="65.5"/><text fill="#000000" font-family="sans-serif" font-size="14" lengthAdjust="spacing" textLength="27" x="15" y="81.0352">info</text><text fill="#000000" font-family="sans-serif" font-size="14" lengthAdjust="spacing" textLength="0" x="102" y="81.0352"/><line style="stroke:#A80036;stroke-width:1.0;" x1="85" x2="85" y1="65.5" y2="85.9883"/><line style="stroke:#A80036;stroke-width:1.0;" x1="10" x2="107" y1="85.9883" y2="85.9883"/><text fill="#000000" font-family="sans-serif" font-size="14" lengthAdjust="spacing" textLength="65" x="15" y="101.5234">sdfObject</text><text fill="#000000" font-family="sans-serif" font-size="14" lengthAdjust="spacing" textLength="0" x="102" y="101.5234"/><line style="stroke:#A80036;stroke-width:1.0;" x1="85" x2="85" y1="85.9883" y2="106.4766"/><rect fill="none" height="40.9766" rx="5" ry="5" style="stroke:#A80036;stroke-width:1.5;" width="97" x="10" y="65.5"/><rect fill="#FEFECE" height="81.9531" rx="5" ry="5" style="stroke:#FEFECE;stroke-width:1.5;" width="614" x="144" y="10"/><text fill="#000000" font-family="sans-serif" font-size="14" lengthAdjust="spacing" textLength="65" x="149" y="25.5352">copyright</text><text fill="#000000" font-family="sans-serif" font-size="14" lengthAdjust="spacing" textLength="529" x="224" y="25.5352">Copyright 2016-2019 Open Connectivity Foundation, Inc. All rights reserved.</text><line style="stroke:#A80036;stroke-width:1.0;" x1="219" x2="219" y1="10" y2="30.4883"/><line style="stroke:#A80036;stroke-width:1.0;" x1="144" x2="758" y1="30.4883" y2="30.4883"/><text fill="#000000" font-family="sans-serif" font-size="14" lengthAdjust="spacing" textLength="47" x="149" y="46.0234">license</text><text fill="#000000" font-family="sans-serif" font-size="14" lengthAdjust="spacing" textLength="462" x="224" y="46.0234">https://github.com/one-data-model/oneDM/blob/master/LICENSE</text><line style="stroke:#A80036;stroke-width:1.0;" x1="219" x2="219" y1="30.4883" y2="50.9766"/><line style="stroke:#A80036;stroke-width:1.0;" x1="144" x2="758" y1="50.9766" y2="50.9766"/><text fill="#000000" font-family="sans-serif" font-size="14" lengthAdjust="spacing" textLength="26" x="149" y="66.5117">title</text><text fill="#000000" font-family="sans-serif" font-size="14" lengthAdjust="spacing" textLength="188" x="224" y="66.5117">Body Location Temperature</text><line style="stroke:#A80036;stroke-width:1.0;" x1="219" x2="219" y1="50.9766" y2="71.4648"/><line style="stroke:#A80036;stroke-width:1.0;" x1="144" x2="758" y1="71.4648" y2="71.4648"/><text fill="#000000" font-family="sans-serif" font-size="14" lengthAdjust="spacing" textLength="50" x="149" y="87">version</text><text fill="#000000" font-family="sans-serif" font-size="14" lengthAdjust="spacing" textLength="88" x="224" y="87">2019-03-22</text><line style="stroke:#A80036;stroke-width:1.0;" x1="219" x2="219" y1="71.4648" y2="91.9531"/><rect fill="none" height="81.9531" rx="5" ry="5" style="stroke:#A80036;stroke-width:1.5;" width="614" x="144" y="10"/><rect fill="#FEFECE" height="20.4883" rx="5" ry="5" style="stroke:#FEFECE;stroke-width:1.5;" width="214" x="344" y="110"/><text fill="#000000" font-family="sans-serif" font-size="14" lengthAdjust="spacing" textLength="182" x="349" y="125.5352">body.location.temperature</text><text fill="#000000" font-family="sans-serif" font-size="14" lengthAdjust="spacing" textLength="0" x="553" y="125.5352"/><line style="stroke:#A80036;stroke-width:1.0;" x1="536" x2="536" y1="110" y2="130.4883"/><rect fill="none" height="20.4883" rx="5" ry="5" style="stroke:#A80036;stroke-width:1.5;" width="214" x="344" y="110"/><rect fill="#FEFECE" height="94.4414" rx="5" ry="5" style="stroke:#FEFECE;stroke-width:1.5;" width="574" x="795" y="73"/><text fill="#000000" font-family="sans-serif" font-size="14" lengthAdjust="spacing" textLength="77" x="800" y="88.5352">description</text><text fill="#000000" font-family="sans-serif" font-size="14" lengthAdjust="spacing" textLength="471" x="893" y="88.5352">This Resource describes the Properties associated with body location</text><text fill="#000000" font-family="sans-serif" font-size="14" lengthAdjust="spacing" textLength="445" x="893" y="105.0234">for temperature measurement of a person. The bloc Property is a</text><text fill="#000000" font-family="sans-serif" font-size="14" lengthAdjust="spacing" textLength="316" x="893" y="121.5117">read-only value that is provided by the Server.</text><line style="stroke:#A80036;stroke-width:1.0;" x1="888" x2="888" y1="73" y2="126.4648"/><line style="stroke:#A80036;stroke-width:1.0;" x1="795" x2="1369" y1="126.4648" y2="126.4648"/><text fill="#000000" font-family="sans-serif" font-size="14" lengthAdjust="spacing" textLength="79" x="800" y="142">sdfProperty</text><text fill="#000000" font-family="sans-serif" font-size="14" lengthAdjust="spacing" textLength="0" x="905" y="142"/><line style="stroke:#A80036;stroke-width:1.0;" x1="888" x2="888" y1="126.4648" y2="146.9531"/><line style="stroke:#A80036;stroke-width:1.0;" x1="795" x2="1369" y1="146.9531" y2="146.9531"/><text fill="#000000" font-family="sans-serif" font-size="14" lengthAdjust="spacing" textLength="83" x="800" y="162.4883">sdfRequired</text><text fill="#000000" font-family="sans-serif" font-size="14" lengthAdjust="spacing" textLength="0" x="905" y="162.4883"/><line style="stroke:#A80036;stroke-width:1.0;" x1="888" x2="888" y1="146.9531" y2="167.4414"/><rect fill="none" height="94.4414" rx="5" ry="5" style="stroke:#A80036;stroke-width:1.5;" width="574" x="795" y="73"/><rect fill="#FEFECE" height="20.4883" rx="5" ry="5" style="stroke:#FEFECE;stroke-width:1.5;" width="61" x="1576.5" y="106"/><text fill="#000000" font-family="sans-serif" font-size="14" lengthAdjust="spacing" textLength="29" x="1581.5" y="121.5352">bloc</text><text fill="#000000" font-family="sans-serif" font-size="14" lengthAdjust="spacing" textLength="0" x="1632.5" y="121.5352"/><line style="stroke:#A80036;stroke-width:1.0;" x1="1615.5" x2="1615.5" y1="106" y2="126.4883"/><rect fill="none" height="20.4883" rx="5" ry="5" style="stroke:#A80036;stroke-width:1.5;" width="61" x="1576.5" y="106"/><rect fill="#FEFECE" height="81.9531" rx="5" ry="5" style="stroke:#FEFECE;stroke-width:1.5;" width="321" x="1845" y="75"/><text fill="#000000" font-family="sans-serif" font-size="14" lengthAdjust="spacing" textLength="77" x="1850" y="90.5352">description</text><text fill="#000000" font-family="sans-serif" font-size="14" lengthAdjust="spacing" textLength="224" x="1937" y="90.5352">A list specific to temperature site</text><line style="stroke:#A80036;stroke-width:1.0;" x1="1932" x2="1932" y1="75" y2="95.4883"/><line style="stroke:#A80036;stroke-width:1.0;" x1="1845" x2="2166" y1="95.4883" y2="95.4883"/><text fill="#000000" font-family="sans-serif" font-size="14" lengthAdjust="spacing" textLength="39" x="1850" y="111.0234">enum</text><text fill="#000000" font-family="sans-serif" font-size="14" lengthAdjust="spacing" textLength="0" x="1949" y="111.0234"/><line style="stroke:#A80036;stroke-width:1.0;" x1="1932" x2="1932" y1="95.4883" y2="115.9766"/><line style="stroke:#A80036;stroke-width:1.0;" x1="1845" x2="2166" y1="115.9766" y2="115.9766"/><text fill="#000000" font-family="sans-serif" font-size="14" lengthAdjust="spacing" textLength="55" x="1850" y="131.5117">writable</text><text fill="#000000" font-family="sans-serif" font-size="14" lengthAdjust="spacing" textLength="48" x="1937" y="131.5117">☐ false</text><line style="stroke:#A80036;stroke-width:1.0;" x1="1932" x2="1932" y1="115.9766" y2="136.4648"/><line style="stroke:#A80036;stroke-width:1.0;" x1="1845" x2="2166" y1="136.4648" y2="136.4648"/><text fill="#000000" font-family="sans-serif" font-size="14" lengthAdjust="spacing" textLength="29" x="1850" y="152">type</text><text fill="#000000" font-family="sans-serif" font-size="14" lengthAdjust="spacing" textLength="40" x="1937" y="152">string</text><line style="stroke:#A80036;stroke-width:1.0;" x1="1932" x2="1932" y1="136.4648" y2="156.9531"/><rect fill="none" height="81.9531" rx="5" ry="5" style="stroke:#A80036;stroke-width:1.5;" width="321" x="1845" y="75"/><rect fill="#FEFECE" height="184.3945" rx="5" ry="5" style="stroke:#FEFECE;stroke-width:1.5;" width="83" x="2203" y="13"/><text fill="#000000" font-family="sans-serif" font-size="14" lengthAdjust="spacing" textLength="50" x="2208" y="28.5352">axillary</text><line style="stroke:#A80036;stroke-width:1.0;" x1="2203" x2="2286" y1="33.4883" y2="33.4883"/><text fill="#000000" font-family="sans-serif" font-size="14" lengthAdjust="spacing" textLength="34" x="2208" y="49.0234">body</text><line style="stroke:#A80036;stroke-width:1.0;" x1="2203" x2="2286" y1="53.9766" y2="53.9766"/><text fill="#000000" font-family="sans-serif" font-size="14" lengthAdjust="spacing" textLength="22" x="2208" y="69.5117">ear</text><line style="stroke:#A80036;stroke-width:1.0;" x1="2203" x2="2286" y1="74.4648" y2="74.4648"/><text fill="#000000" font-family="sans-serif" font-size="14" lengthAdjust="spacing" textLength="41" x="2208" y="90">finger</text><line style="stroke:#A80036;stroke-width:1.0;" x1="2203" x2="2286" y1="94.9531" y2="94.9531"/><text fill="#000000" font-family="sans-serif" font-size="14" lengthAdjust="spacing" textLength="44" x="2208" y="110.4883">gitract</text><line style="stroke:#A80036;stroke-width:1.0;" x1="2203" x2="2286" y1="115.4414" y2="115.4414"/><text fill="#000000" font-family="sans-serif" font-size="14" lengthAdjust="spacing" textLength="45" x="2208" y="130.9766">mouth</text><line style="stroke:#A80036;stroke-width:1.0;" x1="2203" x2="2286" y1="135.9297" y2="135.9297"/><text fill="#000000" font-family="sans-serif" font-size="14" lengthAdjust="spacing" textLength="48" x="2208" y="151.4648">rectum</text><line style="stroke:#A80036;stroke-width:1.0;" x1="2203" x2="2286" y1="156.418" y2="156.418"/><text fill="#000000" font-family="sans-serif" font-size="14" lengthAdjust="spacing" textLength="22" x="2208" y="171.9531">toe</text><line style="stroke:#A80036;stroke-width:1.0;" x1="2203" x2="2286" y1="176.9063" y2="176.9063"/><text fill="#000000" font-family="sans-serif" font-size="14" lengthAdjust="spacing" textLength="73" x="2208" y="192.4414">tympanum</text><rect fill="none" height="184.3945" rx="5" ry="5" style="stroke:#A80036;stroke-width:1.5;" width="83" x="2203" y="13"/><rect fill="#FEFECE" height="20.4883" rx="5" ry="5" style="stroke:#FEFECE;stroke-width:1.5;" width="402" x="1406" y="144"/><text fill="#000000" font-family="sans-serif" font-size="14" lengthAdjust="spacing" textLength="392" x="1411" y="159.5352">#/sdfObject/body.location.temperature/sdfProperty/bloc</text><rect fill="none" height="20.4883" rx="5" ry="5" style="stroke:#A80036;stroke-width:1.5;" width="402" x="1406" y="144"/><path d="M95,75 L108,75 C117.4068,75 126.9554,74.9088 136.5926,74.7376 " fill="none" style="stroke:#A80036;stroke-width:1.0;stroke-dasharray:3.0,3.0;"/><path d="M136.6543,77.8363 L138.9166,74.6914 L136.5309,71.6389 L144.3394,74.5834 L136.6543,77.8363 " fill="#A80036" style="stroke:#A80036;stroke-width:1.0;"/><ellipse cx="95" cy="75" fill="#A80036" rx="3" ry="3" style="stroke:#A80036;stroke-width:1.0;stroke-dasharray:3.0,3.0;"/><path d="M2154,105 L2167,105 C2176.2824,105 2186.1943,105 2195.7113,105 " fill="none" style="stroke:#A80036;stroke-width:1.0;stroke-dasharray:3.0,3.0;"/><path d="M2195.7113,108.0113 L2197.9697,105 L2195.7113,101.9887 L2203.2394,105 L2195.7113,108.0113 " fill="#A80036" style="stroke:#A80036;stroke-width:1.0;"/><ellipse cx="2154" cy="105" fill="#A80036" rx="3" ry="3" style="stroke:#A80036;stroke-width:1.0;stroke-dasharray:3.0,3.0;"/><path d="M1626.5,116 L1639.5,116 C1704.2872,116 1775.534,116 1837.7828,116 " fill="none" style="stroke:#A80036;stroke-width:1.0;stroke-dasharray:3.0,3.0;"/><path d="M1837.7828,119.0183 L1840.0465,116 L1837.7828,112.9817 L1845.3285,116 L1837.7828,119.0183 " fill="#A80036" style="stroke:#A80036;stroke-width:1.0;"/><ellipse cx="1626.5" cy="116" fill="#A80036" rx="3" ry="3" style="stroke:#A80036;stroke-width:1.0;stroke-dasharray:3.0,3.0;"/><path d="M1357,119 L1370,119 C1440.2583,119 1522.2476,117.6599 1568.9015,116.771 " fill="none" style="stroke:#A80036;stroke-width:1.0;stroke-dasharray:3.0,3.0;"/><path d="M1568.9613,119.8642 L1571.2214,116.7262 L1568.8418,113.6778 L1576.6346,116.6216 L1568.9613,119.8642 " fill="#A80036" style="stroke:#A80036;stroke-width:1.0;"/><ellipse cx="1357" cy="119" fill="#A80036" rx="3" ry="3" style="stroke:#A80036;stroke-width:1.0;stroke-dasharray:3.0,3.0;"/><path d="M1357,151 L1370,151 C1379.3152,151 1388.8366,151.0236 1398.4546,151.0665 " fill="none" style="stroke:#A80036;stroke-width:1.0;stroke-dasharray:3.0,3.0;"/><path d="M1398.4392,154.1593 L1400.7742,151.0781 L1398.47,147.9737 L1406.1866,151.105 L1398.4392,154.1593 " fill="#A80036" style="stroke:#A80036;stroke-width:1.0;"/><ellipse cx="1357" cy="151" fill="#A80036" rx="3" ry="3" style="stroke:#A80036;stroke-width:1.0;stroke-dasharray:3.0,3.0;"/><path d="M546.5,120 L559.5,120 C633.426,120 713.241,120 787.6859,120 " fill="none" style="stroke:#A80036;stroke-width:1.0;stroke-dasharray:3.0,3.0;"/><path d="M787.6859,123.0603 L789.9811,120 L787.6859,116.9397 L795.3366,120 L787.6859,123.0603 " fill="#A80036" style="stroke:#A80036;stroke-width:1.0;"/><ellipse cx="546.5" cy="120" fill="#A80036" rx="3" ry="3" style="stroke:#A80036;stroke-width:1.0;stroke-dasharray:3.0,3.0;"/><path d="M95,96 L108,96 C124.1536,96 127.927,99.388 144,101 C207.5874,107.3774 278.8255,111.9482 336.6083,115.006 " fill="none" style="stroke:#A80036;stroke-width:1.0;stroke-dasharray:3.0,3.0;"/><path d="M336.4472,118.0859 L338.9182,115.1268 L336.7694,111.9261 L344.308,115.4087 L336.4472,118.0859 " fill="#A80036" style="stroke:#A80036;stroke-width:1.0;"/><ellipse cx="95" cy="96" fill="#A80036" rx="3" ry="3" style="stroke:#A80036;stroke-width:1.0;stroke-dasharray:3.0,3.0;"/><!--MD5=[08be81761393365102cc6d99237f40e9]
@startjson
{
  "info": {
    "copyright": "Copyright 2016-2019 Open Connectivity Foundation, Inc. All rights reserved.",
    "license": "https://github.com/one-data-model/oneDM/blob/master/LICENSE",
    "title": "Body Location Temperature",
    "version": "2019-03-22"
  },
  "sdfObject": {
    "body.location.temperature": {
      "description": "This Resource describes the Properties associated with body location\\nfor temperature measurement of a person. The bloc Property is a\\nread-only value that is provided by the Server.",
      "sdfProperty": {
        "bloc": {
          "description": "A list specific to temperature site",
          "enum": [
            "axillary",
            "body",
            "ear",
            "finger",
            "gitract",
            "mouth",
            "rectum",
            "toe",
            "tympanum"
          ],
          "writable": false,
          "type": "string"
        }
      },
      "sdfRequired": [
        "#/sdfObject/body.location.temperature/sdfProperty/bloc"
      ]
    }
  }
}
@endjson

PlantUML version 1.2021.2(Sun Mar 07 13:10:27 EET 2021)
(GPL source distribution)
Java Runtime: OpenJDK Runtime Environment
JVM: OpenJDK 64-Bit Server VM
Default Encoding: UTF-8
Language: en
Country: FI
--></g></svg>