<?xml version="1.0" encoding="UTF-8" standalone="no"?><svg xmlns="http://www.w3.org/2000/svg" xmlns:xlink="http://www.w3.org/1999/xlink" contentScriptType="application/ecmascript" contentStyleType="text/css" height="536px" preserveAspectRatio="none" style="width:2393px;height:536px;" version="1.1" viewBox="0 0 2393 536" width="2393px" zoomAndPan="magnify"><defs/><g><rect fill="#FEFECE" height="40.9766" rx="5" ry="5" style="stroke:#FEFECE;stroke-width:1.5;" width="97" x="10" y="223.5"/><text fill="#000000" font-family="sans-serif" font-size="14" lengthAdjust="spacing" textLength="27" x="15" y="239.0352">info</text><text fill="#000000" font-family="sans-serif" font-size="14" lengthAdjust="spacing" textLength="0" x="102" y="239.0352"/><line style="stroke:#A80036;stroke-width:1.0;" x1="85" x2="85" y1="223.5" y2="243.9883"/><line style="stroke:#A80036;stroke-width:1.0;" x1="10" x2="107" y1="243.9883" y2="243.9883"/><text fill="#000000" font-family="sans-serif" font-size="14" lengthAdjust="spacing" textLength="65" x="15" y="259.5234">sdfObject</text><text fill="#000000" font-family="sans-serif" font-size="14" lengthAdjust="spacing" textLength="0" x="102" y="259.5234"/><line style="stroke:#A80036;stroke-width:1.0;" x1="85" x2="85" y1="243.9883" y2="264.4766"/><rect fill="none" height="40.9766" rx="5" ry="5" style="stroke:#A80036;stroke-width:1.5;" width="97" x="10" y="223.5"/><rect fill="#FEFECE" height="81.9531" rx="5" ry="5" style="stroke:#FEFECE;stroke-width:1.5;" width="614" x="144" y="168"/><text fill="#000000" font-family="sans-serif" font-size="14" lengthAdjust="spacing" textLength="65" x="149" y="183.5352">copyright</text><text fill="#000000" font-family="sans-serif" font-size="14" lengthAdjust="spacing" textLength="529" x="224" y="183.5352">Copyright 2016-2019 Open Connectivity Foundation, Inc. All rights reserved.</text><line style="stroke:#A80036;stroke-width:1.0;" x1="219" x2="219" y1="168" y2="188.4883"/><line style="stroke:#A80036;stroke-width:1.0;" x1="144" x2="758" y1="188.4883" y2="188.4883"/><text fill="#000000" font-family="sans-serif" font-size="14" lengthAdjust="spacing" textLength="47" x="149" y="204.0234">license</text><text fill="#000000" font-family="sans-serif" font-size="14" lengthAdjust="spacing" textLength="462" x="224" y="204.0234">https://github.com/one-data-model/oneDM/blob/master/LICENSE</text><line style="stroke:#A80036;stroke-width:1.0;" x1="219" x2="219" y1="188.4883" y2="208.9766"/><line style="stroke:#A80036;stroke-width:1.0;" x1="144" x2="758" y1="208.9766" y2="208.9766"/><text fill="#000000" font-family="sans-serif" font-size="14" lengthAdjust="spacing" textLength="26" x="149" y="224.5117">title</text><text fill="#000000" font-family="sans-serif" font-size="14" lengthAdjust="spacing" textLength="148" x="224" y="224.5117">Body Mass Index(BMI)</text><line style="stroke:#A80036;stroke-width:1.0;" x1="219" x2="219" y1="208.9766" y2="229.4648"/><line style="stroke:#A80036;stroke-width:1.0;" x1="144" x2="758" y1="229.4648" y2="229.4648"/><text fill="#000000" font-family="sans-serif" font-size="14" lengthAdjust="spacing" textLength="50" x="149" y="245">version</text><text fill="#000000" font-family="sans-serif" font-size="14" lengthAdjust="spacing" textLength="88" x="224" y="245">2019-03-22</text><line style="stroke:#A80036;stroke-width:1.0;" x1="219" x2="219" y1="229.4648" y2="249.9531"/><rect fill="none" height="81.9531" rx="5" ry="5" style="stroke:#A80036;stroke-width:1.5;" width="614" x="144" y="168"/><rect fill="#FEFECE" height="20.4883" rx="5" ry="5" style="stroke:#FEFECE;stroke-width:1.5;" width="58" x="422" y="268"/><text fill="#000000" font-family="sans-serif" font-size="14" lengthAdjust="spacing" textLength="26" x="427" y="283.5352">bmi</text><text fill="#000000" font-family="sans-serif" font-size="14" lengthAdjust="spacing" textLength="0" x="475" y="283.5352"/><line style="stroke:#A80036;stroke-width:1.0;" x1="458" x2="458" y1="268" y2="288.4883"/><rect fill="none" height="20.4883" rx="5" ry="5" style="stroke:#A80036;stroke-width:1.5;" width="58" x="422" y="268"/><rect fill="#FEFECE" height="127.418" rx="5" ry="5" style="stroke:#FEFECE;stroke-width:1.5;" width="559" x="795" y="214.5"/><text fill="#000000" font-family="sans-serif" font-size="14" lengthAdjust="spacing" textLength="77" x="800" y="230.0352">description</text><text fill="#000000" font-family="sans-serif" font-size="14" lengthAdjust="spacing" textLength="448" x="893" y="230.0352">This Resource describes the Properties associated with a person's</text><text fill="#000000" font-family="sans-serif" font-size="14" lengthAdjust="spacing" textLength="408" x="893" y="246.5234">Body Mass Index (BMI). The unit, which is the default unit, is</text><text fill="#000000" font-family="sans-serif" font-size="14" lengthAdjust="spacing" textLength="456" x="893" y="263.0117">kg/m^2. The bmi and unit Properties are read-only values that are</text><text fill="#000000" font-family="sans-serif" font-size="14" lengthAdjust="spacing" textLength="439" x="893" y="279.5">provided by the server. When range is omitted the default is 0 to</text><text fill="#000000" font-family="sans-serif" font-size="14" lengthAdjust="spacing" textLength="91" x="893" y="295.9883">+MAXFLOAT.</text><line style="stroke:#A80036;stroke-width:1.0;" x1="888" x2="888" y1="214.5" y2="300.9414"/><line style="stroke:#A80036;stroke-width:1.0;" x1="795" x2="1354" y1="300.9414" y2="300.9414"/><text fill="#000000" font-family="sans-serif" font-size="14" lengthAdjust="spacing" textLength="79" x="800" y="316.4766">sdfProperty</text><text fill="#000000" font-family="sans-serif" font-size="14" lengthAdjust="spacing" textLength="0" x="905" y="316.4766"/><line style="stroke:#A80036;stroke-width:1.0;" x1="888" x2="888" y1="300.9414" y2="321.4297"/><line style="stroke:#A80036;stroke-width:1.0;" x1="795" x2="1354" y1="321.4297" y2="321.4297"/><text fill="#000000" font-family="sans-serif" font-size="14" lengthAdjust="spacing" textLength="83" x="800" y="336.9648">sdfRequired</text><text fill="#000000" font-family="sans-serif" font-size="14" lengthAdjust="spacing" textLength="0" x="905" y="336.9648"/><line style="stroke:#A80036;stroke-width:1.0;" x1="888" x2="888" y1="321.4297" y2="341.918"/><rect fill="none" height="127.418" rx="5" ry="5" style="stroke:#A80036;stroke-width:1.5;" width="559" x="795" y="214.5"/><rect fill="#FEFECE" height="81.9531" rx="5" ry="5" style="stroke:#FEFECE;stroke-width:1.5;" width="95" x="1465" y="223"/><text fill="#000000" font-family="sans-serif" font-size="14" lengthAdjust="spacing" textLength="26" x="1470" y="238.5352">bmi</text><text fill="#000000" font-family="sans-serif" font-size="14" lengthAdjust="spacing" textLength="0" x="1555" y="238.5352"/><line style="stroke:#A80036;stroke-width:1.0;" x1="1538" x2="1538" y1="223" y2="243.4883"/><line style="stroke:#A80036;stroke-width:1.0;" x1="1465" x2="1560" y1="243.4883" y2="243.4883"/><text fill="#000000" font-family="sans-serif" font-size="14" lengthAdjust="spacing" textLength="40" x="1470" y="259.0234">range</text><text fill="#000000" font-family="sans-serif" font-size="14" lengthAdjust="spacing" textLength="0" x="1555" y="259.0234"/><line style="stroke:#A80036;stroke-width:1.0;" x1="1538" x2="1538" y1="243.4883" y2="263.9766"/><line style="stroke:#A80036;stroke-width:1.0;" x1="1465" x2="1560" y1="263.9766" y2="263.9766"/><text fill="#000000" font-family="sans-serif" font-size="14" lengthAdjust="spacing" textLength="29" x="1470" y="279.5117">step</text><text fill="#000000" font-family="sans-serif" font-size="14" lengthAdjust="spacing" textLength="0" x="1555" y="279.5117"/><line style="stroke:#A80036;stroke-width:1.0;" x1="1538" x2="1538" y1="263.9766" y2="284.4648"/><line style="stroke:#A80036;stroke-width:1.0;" x1="1465" x2="1560" y1="284.4648" y2="284.4648"/><text fill="#000000" font-family="sans-serif" font-size="14" lengthAdjust="spacing" textLength="63" x="1470" y="300">precision</text><text fill="#000000" font-family="sans-serif" font-size="14" lengthAdjust="spacing" textLength="0" x="1555" y="300"/><line style="stroke:#A80036;stroke-width:1.0;" x1="1538" x2="1538" y1="284.4648" y2="304.9531"/><rect fill="none" height="81.9531" rx="5" ry="5" style="stroke:#A80036;stroke-width:1.5;" width="95" x="1465" y="223"/><rect fill="#FEFECE" height="81.9531" rx="5" ry="5" style="stroke:#FEFECE;stroke-width:1.5;" width="325" x="1793.5" y="10"/><text fill="#000000" font-family="sans-serif" font-size="14" lengthAdjust="spacing" textLength="77" x="1798.5" y="25.5352">description</text><text fill="#000000" font-family="sans-serif" font-size="14" lengthAdjust="spacing" textLength="228" x="1885.5" y="25.5352">Body Mass Index (BMI) in kg/m^2</text><line style="stroke:#A80036;stroke-width:1.0;" x1="1880.5" x2="1880.5" y1="10" y2="30.4883"/><line style="stroke:#A80036;stroke-width:1.0;" x1="1793.5" x2="2118.5" y1="30.4883" y2="30.4883"/><text fill="#000000" font-family="sans-serif" font-size="14" lengthAdjust="spacing" textLength="65" x="1798.5" y="46.0234">minimum</text><text fill="#000000" font-family="sans-serif" font-size="14" lengthAdjust="spacing" textLength="9" x="1885.5" y="46.0234">0</text><line style="stroke:#A80036;stroke-width:1.0;" x1="1880.5" x2="1880.5" y1="30.4883" y2="50.9766"/><line style="stroke:#A80036;stroke-width:1.0;" x1="1793.5" x2="2118.5" y1="50.9766" y2="50.9766"/><text fill="#000000" font-family="sans-serif" font-size="14" lengthAdjust="spacing" textLength="55" x="1798.5" y="66.5117">writable</text><text fill="#000000" font-family="sans-serif" font-size="14" lengthAdjust="spacing" textLength="48" x="1885.5" y="66.5117">☐ false</text><line style="stroke:#A80036;stroke-width:1.0;" x1="1880.5" x2="1880.5" y1="50.9766" y2="71.4648"/><line style="stroke:#A80036;stroke-width:1.0;" x1="1793.5" x2="2118.5" y1="71.4648" y2="71.4648"/><text fill="#000000" font-family="sans-serif" font-size="14" lengthAdjust="spacing" textLength="29" x="1798.5" y="87">type</text><text fill="#000000" font-family="sans-serif" font-size="14" lengthAdjust="spacing" textLength="54" x="1885.5" y="87">number</text><line style="stroke:#A80036;stroke-width:1.0;" x1="1880.5" x2="1880.5" y1="71.4648" y2="91.9531"/><rect fill="none" height="81.9531" rx="5" ry="5" style="stroke:#A80036;stroke-width:1.5;" width="325" x="1793.5" y="10"/><rect fill="#FEFECE" height="155.9063" rx="5" ry="5" style="stroke:#FEFECE;stroke-width:1.5;" width="548" x="1682" y="110"/><text fill="#000000" font-family="sans-serif" font-size="14" lengthAdjust="spacing" textLength="29" x="1687" y="125.5352">type</text><text fill="#000000" font-family="sans-serif" font-size="14" lengthAdjust="spacing" textLength="35" x="1774" y="125.5352">array</text><line style="stroke:#A80036;stroke-width:1.0;" x1="1769" x2="1769" y1="110" y2="130.4883"/><line style="stroke:#A80036;stroke-width:1.0;" x1="1682" x2="2230" y1="130.4883" y2="130.4883"/><text fill="#000000" font-family="sans-serif" font-size="14" lengthAdjust="spacing" textLength="77" x="1687" y="146.0234">description</text><text fill="#000000" font-family="sans-serif" font-size="14" lengthAdjust="spacing" textLength="451" x="1774" y="146.0234">The valid range for the Property in the Resource as a number. The</text><text fill="#000000" font-family="sans-serif" font-size="14" lengthAdjust="spacing" textLength="439" x="1774" y="162.5117">first value in the array is the minimum value, the second value in</text><text fill="#000000" font-family="sans-serif" font-size="14" lengthAdjust="spacing" textLength="219" x="1774" y="179">the array is the maximum value.</text><line style="stroke:#A80036;stroke-width:1.0;" x1="1769" x2="1769" y1="130.4883" y2="183.9531"/><line style="stroke:#A80036;stroke-width:1.0;" x1="1682" x2="2230" y1="183.9531" y2="183.9531"/><text fill="#000000" font-family="sans-serif" font-size="14" lengthAdjust="spacing" textLength="55" x="1687" y="199.4883">writable</text><text fill="#000000" font-family="sans-serif" font-size="14" lengthAdjust="spacing" textLength="48" x="1774" y="199.4883">☐ false</text><line style="stroke:#A80036;stroke-width:1.0;" x1="1769" x2="1769" y1="183.9531" y2="204.4414"/><line style="stroke:#A80036;stroke-width:1.0;" x1="1682" x2="2230" y1="204.4414" y2="204.4414"/><text fill="#000000" font-family="sans-serif" font-size="14" lengthAdjust="spacing" textLength="63" x="1687" y="219.9766">minItems</text><text fill="#000000" font-family="sans-serif" font-size="14" lengthAdjust="spacing" textLength="9" x="1774" y="219.9766">2</text><line style="stroke:#A80036;stroke-width:1.0;" x1="1769" x2="1769" y1="204.4414" y2="224.9297"/><line style="stroke:#A80036;stroke-width:1.0;" x1="1682" x2="2230" y1="224.9297" y2="224.9297"/><text fill="#000000" font-family="sans-serif" font-size="14" lengthAdjust="spacing" textLength="67" x="1687" y="240.4648">maxItems</text><text fill="#000000" font-family="sans-serif" font-size="14" lengthAdjust="spacing" textLength="9" x="1774" y="240.4648">2</text><line style="stroke:#A80036;stroke-width:1.0;" x1="1769" x2="1769" y1="224.9297" y2="245.418"/><line style="stroke:#A80036;stroke-width:1.0;" x1="1682" x2="2230" y1="245.418" y2="245.418"/><text fill="#000000" font-family="sans-serif" font-size="14" lengthAdjust="spacing" textLength="37" x="1687" y="260.9531">items</text><text fill="#000000" font-family="sans-serif" font-size="14" lengthAdjust="spacing" textLength="0" x="1786" y="260.9531"/><line style="stroke:#A80036;stroke-width:1.0;" x1="1769" x2="1769" y1="245.418" y2="265.9063"/><rect fill="none" height="155.9063" rx="5" ry="5" style="stroke:#A80036;stroke-width:1.5;" width="548" x="1682" y="110"/><rect fill="#FEFECE" height="20.4883" rx="5" ry="5" style="stroke:#FEFECE;stroke-width:1.5;" width="103" x="2278" y="243"/><text fill="#000000" font-family="sans-serif" font-size="14" lengthAdjust="spacing" textLength="29" x="2283" y="258.5352">type</text><text fill="#000000" font-family="sans-serif" font-size="14" lengthAdjust="spacing" textLength="54" x="2322" y="258.5352">number</text><line style="stroke:#A80036;stroke-width:1.0;" x1="2317" x2="2317" y1="243" y2="263.4883"/><rect fill="none" height="20.4883" rx="5" ry="5" style="stroke:#A80036;stroke-width:1.5;" width="103" x="2278" y="243"/><rect fill="#FEFECE" height="110.9297" rx="5" ry="5" style="stroke:#FEFECE;stroke-width:1.5;" width="555" x="1678.5" y="284.5"/><text fill="#000000" font-family="sans-serif" font-size="14" lengthAdjust="spacing" textLength="77" x="1683.5" y="300.0352">description</text><text fill="#000000" font-family="sans-serif" font-size="14" lengthAdjust="spacing" textLength="456" x="1770.5" y="300.0352">Step value across the defined range an integer when the range is a</text><text fill="#000000" font-family="sans-serif" font-size="14" lengthAdjust="spacing" textLength="458" x="1770.5" y="316.5234">number.  This is the increment for valid values across the range; so</text><text fill="#000000" font-family="sans-serif" font-size="14" lengthAdjust="spacing" textLength="381" x="1770.5" y="333.0117">if range is 0.0..10.0 and step is 2.5 then valid values are</text><text fill="#000000" font-family="sans-serif" font-size="14" lengthAdjust="spacing" textLength="139" x="1770.5" y="349.5">0.0,2.5,5.0,7.5,10.0.</text><line style="stroke:#A80036;stroke-width:1.0;" x1="1765.5" x2="1765.5" y1="284.5" y2="354.4531"/><line style="stroke:#A80036;stroke-width:1.0;" x1="1678.5" x2="2233.5" y1="354.4531" y2="354.4531"/><text fill="#000000" font-family="sans-serif" font-size="14" lengthAdjust="spacing" textLength="55" x="1683.5" y="369.9883">writable</text><text fill="#000000" font-family="sans-serif" font-size="14" lengthAdjust="spacing" textLength="48" x="1770.5" y="369.9883">☐ false</text><line style="stroke:#A80036;stroke-width:1.0;" x1="1765.5" x2="1765.5" y1="354.4531" y2="374.9414"/><line style="stroke:#A80036;stroke-width:1.0;" x1="1678.5" x2="2233.5" y1="374.9414" y2="374.9414"/><text fill="#000000" font-family="sans-serif" font-size="14" lengthAdjust="spacing" textLength="29" x="1683.5" y="390.4766">type</text><text fill="#000000" font-family="sans-serif" font-size="14" lengthAdjust="spacing" textLength="54" x="1770.5" y="390.4766">number</text><line style="stroke:#A80036;stroke-width:1.0;" x1="1765.5" x2="1765.5" y1="374.9414" y2="395.4297"/><rect fill="none" height="110.9297" rx="5" ry="5" style="stroke:#A80036;stroke-width:1.5;" width="555" x="1678.5" y="284.5"/><rect fill="#FEFECE" height="110.9297" rx="5" ry="5" style="stroke:#FEFECE;stroke-width:1.5;" width="570" x="1671" y="413.5"/><text fill="#000000" font-family="sans-serif" font-size="14" lengthAdjust="spacing" textLength="29" x="1676" y="429.0352">type</text><text fill="#000000" font-family="sans-serif" font-size="14" lengthAdjust="spacing" textLength="54" x="1763" y="429.0352">number</text><line style="stroke:#A80036;stroke-width:1.0;" x1="1758" x2="1758" y1="413.5" y2="433.9883"/><line style="stroke:#A80036;stroke-width:1.0;" x1="1671" x2="2241" y1="433.9883" y2="433.9883"/><text fill="#000000" font-family="sans-serif" font-size="14" lengthAdjust="spacing" textLength="55" x="1676" y="449.5234">writable</text><text fill="#000000" font-family="sans-serif" font-size="14" lengthAdjust="spacing" textLength="48" x="1763" y="449.5234">☐ false</text><line style="stroke:#A80036;stroke-width:1.0;" x1="1758" x2="1758" y1="433.9883" y2="454.4766"/><line style="stroke:#A80036;stroke-width:1.0;" x1="1671" x2="2241" y1="454.4766" y2="454.4766"/><text fill="#000000" font-family="sans-serif" font-size="14" lengthAdjust="spacing" textLength="77" x="1676" y="470.0117">description</text><text fill="#000000" font-family="sans-serif" font-size="14" lengthAdjust="spacing" textLength="430" x="1763" y="470.0117">When exposed the value in 'precision' provides a +/- tolerance</text><text fill="#000000" font-family="sans-serif" font-size="14" lengthAdjust="spacing" textLength="473" x="1763" y="486.5">against the Properties in the Resource. Thus if a Property is UPDATED</text><text fill="#000000" font-family="sans-serif" font-size="14" lengthAdjust="spacing" textLength="465" x="1763" y="502.9883">to a value and that Property then RETRIEVED, the RETRIEVED value is</text><text fill="#000000" font-family="sans-serif" font-size="14" lengthAdjust="spacing" textLength="337" x="1763" y="519.4766">valid if in the range of the set value +/- precision</text><line style="stroke:#A80036;stroke-width:1.0;" x1="1758" x2="1758" y1="454.4766" y2="524.4297"/><rect fill="none" height="110.9297" rx="5" ry="5" style="stroke:#A80036;stroke-width:1.5;" width="570" x="1671" y="413.5"/><rect fill="#FEFECE" height="20.4883" rx="5" ry="5" style="stroke:#FEFECE;stroke-width:1.5;" width="243" x="1391" y="323"/><text fill="#000000" font-family="sans-serif" font-size="14" lengthAdjust="spacing" textLength="233" x="1396" y="338.5352">#/sdfObject/bmi/sdfProperty/bmi</text><rect fill="none" height="20.4883" rx="5" ry="5" style="stroke:#A80036;stroke-width:1.5;" width="243" x="1391" y="323"/><path d="M95,233 L108,233 C117.4068,233 126.9554,232.9088 136.5926,232.7376 " fill="none" style="stroke:#A80036;stroke-width:1.0;stroke-dasharray:3.0,3.0;"/><path d="M136.6543,235.8363 L138.9166,232.6914 L136.5309,229.6389 L144.3394,232.5834 L136.6543,235.8363 " fill="#A80036" style="stroke:#A80036;stroke-width:1.0;"/><ellipse cx="95" cy="233" fill="#A80036" rx="3" ry="3" style="stroke:#A80036;stroke-width:1.0;stroke-dasharray:3.0,3.0;"/><path d="M1549,233 L1562,233 C1638.0831,233 1605.2497,139.2824 1671,101 C1705.7813,80.7489 1746.7156,68.2811 1786.5266,60.7068 " fill="none" style="stroke:#A80036;stroke-width:1.0;stroke-dasharray:3.0,3.0;"/><path d="M1787.0699,63.6744 L1788.7523,60.2994 L1785.9834,57.7393 L1793.9454,59.3487 L1787.0699,63.6744 " fill="#A80036" style="stroke:#A80036;stroke-width:1.0;"/><ellipse cx="1549" cy="233" fill="#A80036" rx="3" ry="3" style="stroke:#A80036;stroke-width:1.0;stroke-dasharray:3.0,3.0;"/><path d="M2218.5,253 L2231.5,253 C2244.235,253 2257.9056,253 2270.8621,253 " fill="none" style="stroke:#A80036;stroke-width:1.0;stroke-dasharray:3.0,3.0;"/><path d="M2270.8621,256.0134 L2273.1221,253 L2270.8621,249.9866 L2278.3956,253 L2270.8621,256.0134 " fill="#A80036" style="stroke:#A80036;stroke-width:1.0;"/><ellipse cx="2218.5" cy="253" fill="#A80036" rx="3" ry="3" style="stroke:#A80036;stroke-width:1.0;stroke-dasharray:3.0,3.0;"/><path d="M1549,253 L1562,253 C1598.6765,253 1637.0218,250.2173 1674.7753,245.8033 " fill="none" style="stroke:#A80036;stroke-width:1.0;stroke-dasharray:3.0,3.0;"/><path d="M1675.137,248.8202 L1677.038,245.5321 L1674.4136,242.7865 L1682.3174,244.8991 L1675.137,248.8202 " fill="#A80036" style="stroke:#A80036;stroke-width:1.0;"/><ellipse cx="1549" cy="253" fill="#A80036" rx="3" ry="3" style="stroke:#A80036;stroke-width:1.0;stroke-dasharray:3.0,3.0;"/><path d="M1549,274 L1562,274 C1604.3178,274 1648.8471,277.7585 1692.1227,283.4817 " fill="none" style="stroke:#A80036;stroke-width:1.0;stroke-dasharray:3.0,3.0;"/><path d="M1691.7176,286.4807 L1694.3719,283.7855 L1692.5278,280.4828 L1699.6201,284.4944 L1691.7176,286.4807 " fill="#A80036" style="stroke:#A80036;stroke-width:1.0;"/><ellipse cx="1549" cy="274" fill="#A80036" rx="3" ry="3" style="stroke:#A80036;stroke-width:1.0;stroke-dasharray:3.0,3.0;"/><path d="M1549,295 L1562,295 C1595.5254,295 1609.8919,291.7843 1635,314 C1667.5741,342.8216 1637.9499,376.7256 1671,405 C1672.3675,406.1699 1673.7518,407.3196 1675.1523,408.4495 " fill="none" style="stroke:#A80036;stroke-width:1.0;stroke-dasharray:3.0,3.0;"/><path d="M1673.221,410.9463 L1677.0249,409.898 L1677.0837,405.9528 L1681.3942,413.2779 L1673.221,410.9463 " fill="#A80036" style="stroke:#A80036;stroke-width:1.0;"/><ellipse cx="1549" cy="295" fill="#A80036" rx="3" ry="3" style="stroke:#A80036;stroke-width:1.0;stroke-dasharray:3.0,3.0;"/><path d="M1342,277 L1355,277 C1389.2903,277 1427.6502,273.8819 1457.8689,270.6999 " fill="none" style="stroke:#A80036;stroke-width:1.0;stroke-dasharray:3.0,3.0;"/><path d="M1458.1924,273.6999 L1460.1189,270.4574 L1457.5455,267.7 L1465.3688,269.8914 L1458.1924,273.6999 " fill="#A80036" style="stroke:#A80036;stroke-width:1.0;"/><ellipse cx="1342" cy="277" fill="#A80036" rx="3" ry="3" style="stroke:#A80036;stroke-width:1.0;stroke-dasharray:3.0,3.0;"/><path d="M1342,320 L1355,320 C1374.2803,320 1394.8472,320.9858 1414.53,322.4144 " fill="none" style="stroke:#A80036;stroke-width:1.0;stroke-dasharray:3.0,3.0;"/><path d="M1414.3028,325.4127 L1416.7788,322.5848 L1414.7573,319.416 L1422.0259,322.9825 L1414.3028,325.4127 " fill="#A80036" style="stroke:#A80036;stroke-width:1.0;"/><ellipse cx="1342" cy="320" fill="#A80036" rx="3" ry="3" style="stroke:#A80036;stroke-width:1.0;stroke-dasharray:3.0,3.0;"/><path d="M468.5,278 L481.5,278 C581.2515,278 690.4496,278 787.6239,278 " fill="none" style="stroke:#A80036;stroke-width:1.0;stroke-dasharray:3.0,3.0;"/><path d="M787.6239,281.028 L789.8949,278 L787.6239,274.972 L795.1938,278 L787.6239,281.028 " fill="#A80036" style="stroke:#A80036;stroke-width:1.0;"/><ellipse cx="468.5" cy="278" fill="#A80036" rx="3" ry="3" style="stroke:#A80036;stroke-width:1.0;stroke-dasharray:3.0,3.0;"/><path d="M95,254 L108,254 C124.1536,254 127.927,257.388 144,259 C241.5298,268.7815 357.0575,274.3131 414.4286,276.654 " fill="none" style="stroke:#A80036;stroke-width:1.0;stroke-dasharray:3.0,3.0;"/><path d="M414.3049,279.7346 L416.739,276.7468 L414.5523,273.5735 L422.13,276.9633 L414.3049,279.7346 " fill="#A80036" style="stroke:#A80036;stroke-width:1.0;"/><ellipse cx="95" cy="254" fill="#A80036" rx="3" ry="3" style="stroke:#A80036;stroke-width:1.0;stroke-dasharray:3.0,3.0;"/><!--MD5=[d0353a5f4aad0d0a7db29782ace6ac01]
@startjson
{
  "info": {
    "copyright": "Copyright 2016-2019 Open Connectivity Foundation, Inc. All rights reserved.",
    "license": "https://github.com/one-data-model/oneDM/blob/master/LICENSE",
    "title": "Body Mass Index(BMI)",
    "version": "2019-03-22"
  },
  "sdfObject": {
    "bmi": {
      "description": "This Resource describes the Properties associated with a person's\\nBody Mass Index (BMI). The unit, which is the default unit, is\\nkg/m^2. The bmi and unit Properties are read-only values that are\\nprovided by the server. When range is omitted the default is 0 to\\n+MAXFLOAT.",
      "sdfProperty": {
        "bmi": {
          "description": "Body Mass Index (BMI) in kg/m^2",
          "minimum": 0,
          "writable": false,
          "type": "number"
        },
        "range": {
          "type": "array",
          "description": "The valid range for the Property in the Resource as a number. The\\nfirst value in the array is the minimum value, the second value in\\nthe array is the maximum value.",
          "writable": false,
          "minItems": 2,
          "maxItems": 2,
          "items": {
            "type": "number"
          }
        },
        "step": {
          "description": "Step value across the defined range an integer when the range is a\\nnumber.  This is the increment for valid values across the range; so\\nif range is 0.0..10.0 and step is 2.5 then valid values are\\n0.0,2.5,5.0,7.5,10.0.",
          "writable": false,
          "type": "number"
        },
        "precision": {
          "type": "number",
          "writable": false,
          "description": "When exposed the value in 'precision' provides a +/- tolerance\\nagainst the Properties in the Resource. Thus if a Property is UPDATED\\nto a value and that Property then RETRIEVED, the RETRIEVED value is\\nvalid if in the range of the set value +/- precision"
        }
      },
      "sdfRequired": [
        "#/sdfObject/bmi/sdfProperty/bmi"
      ]
    }
  }
}
@endjson

PlantUML version 1.2021.2(Sun Mar 07 13:10:27 EET 2021)
(GPL source distribution)
Java Runtime: OpenJDK Runtime Environment
JVM: OpenJDK 64-Bit Server VM
Default Encoding: UTF-8
Language: en
Country: FI
--></g></svg>