<?xml version="1.0" encoding="UTF-8" standalone="no"?><svg xmlns="http://www.w3.org/2000/svg" xmlns:xlink="http://www.w3.org/1999/xlink" contentScriptType="application/ecmascript" contentStyleType="text/css" height="410px" preserveAspectRatio="none" style="width:2528px;height:410px;" version="1.1" viewBox="0 0 2528 410" width="2528px" zoomAndPan="magnify"><defs/><g><rect fill="#FEFECE" height="40.9766" rx="5" ry="5" style="stroke:#FEFECE;stroke-width:1.5;" width="97" x="10" y="159.5"/><text fill="#000000" font-family="sans-serif" font-size="14" lengthAdjust="spacing" textLength="27" x="15" y="175.0352">info</text><text fill="#000000" font-family="sans-serif" font-size="14" lengthAdjust="spacing" textLength="0" x="102" y="175.0352"/><line style="stroke:#A80036;stroke-width:1.0;" x1="85" x2="85" y1="159.5" y2="179.9883"/><line style="stroke:#A80036;stroke-width:1.0;" x1="10" x2="107" y1="179.9883" y2="179.9883"/><text fill="#000000" font-family="sans-serif" font-size="14" lengthAdjust="spacing" textLength="65" x="15" y="195.5234">sdfObject</text><text fill="#000000" font-family="sans-serif" font-size="14" lengthAdjust="spacing" textLength="0" x="102" y="195.5234"/><line style="stroke:#A80036;stroke-width:1.0;" x1="85" x2="85" y1="179.9883" y2="200.4766"/><rect fill="none" height="40.9766" rx="5" ry="5" style="stroke:#A80036;stroke-width:1.5;" width="97" x="10" y="159.5"/><rect fill="#FEFECE" height="81.9531" rx="5" ry="5" style="stroke:#FEFECE;stroke-width:1.5;" width="655" x="144" y="104"/><text fill="#000000" font-family="sans-serif" font-size="14" lengthAdjust="spacing" textLength="65" x="149" y="119.5352">copyright</text><text fill="#000000" font-family="sans-serif" font-size="14" lengthAdjust="spacing" textLength="570" x="224" y="119.5352">copyright 2016-2017, 2019 Open Connectivity Foundation, Inc. All rights reserved.</text><line style="stroke:#A80036;stroke-width:1.0;" x1="219" x2="219" y1="104" y2="124.4883"/><line style="stroke:#A80036;stroke-width:1.0;" x1="144" x2="799" y1="124.4883" y2="124.4883"/><text fill="#000000" font-family="sans-serif" font-size="14" lengthAdjust="spacing" textLength="47" x="149" y="140.0234">license</text><text fill="#000000" font-family="sans-serif" font-size="14" lengthAdjust="spacing" textLength="462" x="224" y="140.0234">https://github.com/one-data-model/oneDM/blob/master/LICENSE</text><line style="stroke:#A80036;stroke-width:1.0;" x1="219" x2="219" y1="124.4883" y2="144.9766"/><line style="stroke:#A80036;stroke-width:1.0;" x1="144" x2="799" y1="144.9766" y2="144.9766"/><text fill="#000000" font-family="sans-serif" font-size="14" lengthAdjust="spacing" textLength="26" x="149" y="160.5117">title</text><text fill="#000000" font-family="sans-serif" font-size="14" lengthAdjust="spacing" textLength="78" x="224" y="160.5117">Colour RGB</text><line style="stroke:#A80036;stroke-width:1.0;" x1="219" x2="219" y1="144.9766" y2="165.4648"/><line style="stroke:#A80036;stroke-width:1.0;" x1="144" x2="799" y1="165.4648" y2="165.4648"/><text fill="#000000" font-family="sans-serif" font-size="14" lengthAdjust="spacing" textLength="50" x="149" y="181">version</text><text fill="#000000" font-family="sans-serif" font-size="14" lengthAdjust="spacing" textLength="88" x="224" y="181">2019-02-15</text><line style="stroke:#A80036;stroke-width:1.0;" x1="219" x2="219" y1="165.4648" y2="185.9531"/><rect fill="none" height="81.9531" rx="5" ry="5" style="stroke:#A80036;stroke-width:1.5;" width="655" x="144" y="104"/><rect fill="#FEFECE" height="20.4883" rx="5" ry="5" style="stroke:#FEFECE;stroke-width:1.5;" width="104" x="419.5" y="204"/><text fill="#000000" font-family="sans-serif" font-size="14" lengthAdjust="spacing" textLength="72" x="424.5" y="219.5352">colour.rgb</text><text fill="#000000" font-family="sans-serif" font-size="14" lengthAdjust="spacing" textLength="0" x="518.5" y="219.5352"/><line style="stroke:#A80036;stroke-width:1.0;" x1="501.5" x2="501.5" y1="204" y2="224.4883"/><rect fill="none" height="20.4883" rx="5" ry="5" style="stroke:#A80036;stroke-width:1.5;" width="104" x="419.5" y="204"/><rect fill="#FEFECE" height="143.9063" rx="5" ry="5" style="stroke:#FEFECE;stroke-width:1.5;" width="594" x="836" y="142"/><text fill="#000000" font-family="sans-serif" font-size="14" lengthAdjust="spacing" textLength="77" x="841" y="157.5352">description</text><text fill="#000000" font-family="sans-serif" font-size="14" lengthAdjust="spacing" textLength="395" x="934" y="157.5352">This Resource specifies the actual colour in the RGB space</text><text fill="#000000" font-family="sans-serif" font-size="14" lengthAdjust="spacing" textLength="454" x="934" y="174.0234">represented as an array of integers. Each colour value is described</text><text fill="#000000" font-family="sans-serif" font-size="14" lengthAdjust="spacing" textLength="491" x="934" y="190.5117">with a Red, Green, Blue component. These colour values are encoded as</text><text fill="#000000" font-family="sans-serif" font-size="14" lengthAdjust="spacing" textLength="487" x="934" y="207">an array of integer values ([R,G,B]). The minimum and maximum colour</text><text fill="#000000" font-family="sans-serif" font-size="14" lengthAdjust="spacing" textLength="477" x="934" y="223.4883">value per component may be described by the Property "range". When</text><text fill="#000000" font-family="sans-serif" font-size="14" lengthAdjust="spacing" textLength="314" x="934" y="239.9766">"range" is omitted, then the "range" is [0,255].</text><line style="stroke:#A80036;stroke-width:1.0;" x1="929" x2="929" y1="142" y2="244.9297"/><line style="stroke:#A80036;stroke-width:1.0;" x1="836" x2="1430" y1="244.9297" y2="244.9297"/><text fill="#000000" font-family="sans-serif" font-size="14" lengthAdjust="spacing" textLength="79" x="841" y="260.4648">sdfProperty</text><text fill="#000000" font-family="sans-serif" font-size="14" lengthAdjust="spacing" textLength="0" x="946" y="260.4648"/><line style="stroke:#A80036;stroke-width:1.0;" x1="929" x2="929" y1="244.9297" y2="265.418"/><line style="stroke:#A80036;stroke-width:1.0;" x1="836" x2="1430" y1="265.418" y2="265.418"/><text fill="#000000" font-family="sans-serif" font-size="14" lengthAdjust="spacing" textLength="83" x="841" y="280.9531">sdfRequired</text><text fill="#000000" font-family="sans-serif" font-size="14" lengthAdjust="spacing" textLength="0" x="946" y="280.9531"/><line style="stroke:#A80036;stroke-width:1.0;" x1="929" x2="929" y1="265.418" y2="285.9063"/><rect fill="none" height="143.9063" rx="5" ry="5" style="stroke:#A80036;stroke-width:1.5;" width="594" x="836" y="142"/><rect fill="#FEFECE" height="61.4648" rx="5" ry="5" style="stroke:#FEFECE;stroke-width:1.5;" width="94" x="1582.5" y="178.5"/><text fill="#000000" font-family="sans-serif" font-size="14" lengthAdjust="spacing" textLength="62" x="1587.5" y="194.0352">rgbValue</text><text fill="#000000" font-family="sans-serif" font-size="14" lengthAdjust="spacing" textLength="0" x="1671.5" y="194.0352"/><line style="stroke:#A80036;stroke-width:1.0;" x1="1654.5" x2="1654.5" y1="178.5" y2="198.9883"/><line style="stroke:#A80036;stroke-width:1.0;" x1="1582.5" x2="1676.5" y1="198.9883" y2="198.9883"/><text fill="#000000" font-family="sans-serif" font-size="14" lengthAdjust="spacing" textLength="40" x="1587.5" y="214.5234">range</text><text fill="#000000" font-family="sans-serif" font-size="14" lengthAdjust="spacing" textLength="0" x="1671.5" y="214.5234"/><line style="stroke:#A80036;stroke-width:1.0;" x1="1654.5" x2="1654.5" y1="198.9883" y2="219.4766"/><line style="stroke:#A80036;stroke-width:1.0;" x1="1582.5" x2="1676.5" y1="219.4766" y2="219.4766"/><text fill="#000000" font-family="sans-serif" font-size="14" lengthAdjust="spacing" textLength="29" x="1587.5" y="235.0117">step</text><text fill="#000000" font-family="sans-serif" font-size="14" lengthAdjust="spacing" textLength="0" x="1671.5" y="235.0117"/><line style="stroke:#A80036;stroke-width:1.0;" x1="1654.5" x2="1654.5" y1="219.4766" y2="239.9648"/><rect fill="none" height="61.4648" rx="5" ry="5" style="stroke:#A80036;stroke-width:1.5;" width="94" x="1582.5" y="178.5"/><rect fill="#FEFECE" height="102.4414" rx="5" ry="5" style="stroke:#FEFECE;stroke-width:1.5;" width="523" x="1843.5" y="10"/><text fill="#000000" font-family="sans-serif" font-size="14" lengthAdjust="spacing" textLength="77" x="1848.5" y="25.5352">description</text><text fill="#000000" font-family="sans-serif" font-size="14" lengthAdjust="spacing" textLength="426" x="1935.5" y="25.5352">The RGB value; the first item is the R, second the G, third the B.</text><line style="stroke:#A80036;stroke-width:1.0;" x1="1930.5" x2="1930.5" y1="10" y2="30.4883"/><line style="stroke:#A80036;stroke-width:1.0;" x1="1843.5" x2="2366.5" y1="30.4883" y2="30.4883"/><text fill="#000000" font-family="sans-serif" font-size="14" lengthAdjust="spacing" textLength="37" x="1848.5" y="46.0234">items</text><text fill="#000000" font-family="sans-serif" font-size="14" lengthAdjust="spacing" textLength="0" x="1947.5" y="46.0234"/><line style="stroke:#A80036;stroke-width:1.0;" x1="1930.5" x2="1930.5" y1="30.4883" y2="50.9766"/><line style="stroke:#A80036;stroke-width:1.0;" x1="1843.5" x2="2366.5" y1="50.9766" y2="50.9766"/><text fill="#000000" font-family="sans-serif" font-size="14" lengthAdjust="spacing" textLength="67" x="1848.5" y="66.5117">maxItems</text><text fill="#000000" font-family="sans-serif" font-size="14" lengthAdjust="spacing" textLength="9" x="1935.5" y="66.5117">3</text><line style="stroke:#A80036;stroke-width:1.0;" x1="1930.5" x2="1930.5" y1="50.9766" y2="71.4648"/><line style="stroke:#A80036;stroke-width:1.0;" x1="1843.5" x2="2366.5" y1="71.4648" y2="71.4648"/><text fill="#000000" font-family="sans-serif" font-size="14" lengthAdjust="spacing" textLength="63" x="1848.5" y="87">minItems</text><text fill="#000000" font-family="sans-serif" font-size="14" lengthAdjust="spacing" textLength="9" x="1935.5" y="87">3</text><line style="stroke:#A80036;stroke-width:1.0;" x1="1930.5" x2="1930.5" y1="71.4648" y2="91.9531"/><line style="stroke:#A80036;stroke-width:1.0;" x1="1843.5" x2="2366.5" y1="91.9531" y2="91.9531"/><text fill="#000000" font-family="sans-serif" font-size="14" lengthAdjust="spacing" textLength="29" x="1848.5" y="107.4883">type</text><text fill="#000000" font-family="sans-serif" font-size="14" lengthAdjust="spacing" textLength="35" x="1935.5" y="107.4883">array</text><line style="stroke:#A80036;stroke-width:1.0;" x1="1930.5" x2="1930.5" y1="91.9531" y2="112.4414"/><rect fill="none" height="102.4414" rx="5" ry="5" style="stroke:#A80036;stroke-width:1.5;" width="523" x="1843.5" y="10"/><rect fill="#FEFECE" height="20.4883" rx="5" ry="5" style="stroke:#FEFECE;stroke-width:1.5;" width="98" x="2418" y="30"/><text fill="#000000" font-family="sans-serif" font-size="14" lengthAdjust="spacing" textLength="29" x="2423" y="45.5352">type</text><text fill="#000000" font-family="sans-serif" font-size="14" lengthAdjust="spacing" textLength="49" x="2462" y="45.5352">integer</text><line style="stroke:#A80036;stroke-width:1.0;" x1="2457" x2="2457" y1="30" y2="50.4883"/><rect fill="none" height="20.4883" rx="5" ry="5" style="stroke:#A80036;stroke-width:1.5;" width="98" x="2418" y="30"/><rect fill="#FEFECE" height="155.9063" rx="5" ry="5" style="stroke:#FEFECE;stroke-width:1.5;" width="552" x="1829" y="130"/><text fill="#000000" font-family="sans-serif" font-size="14" lengthAdjust="spacing" textLength="29" x="1834" y="145.5352">type</text><text fill="#000000" font-family="sans-serif" font-size="14" lengthAdjust="spacing" textLength="35" x="1921" y="145.5352">array</text><line style="stroke:#A80036;stroke-width:1.0;" x1="1916" x2="1916" y1="130" y2="150.4883"/><line style="stroke:#A80036;stroke-width:1.0;" x1="1829" x2="2381" y1="150.4883" y2="150.4883"/><text fill="#000000" font-family="sans-serif" font-size="14" lengthAdjust="spacing" textLength="77" x="1834" y="166.0234">description</text><text fill="#000000" font-family="sans-serif" font-size="14" lengthAdjust="spacing" textLength="455" x="1921" y="166.0234">The valid range for the Property in the Resource as an integer. The</text><text fill="#000000" font-family="sans-serif" font-size="14" lengthAdjust="spacing" textLength="439" x="1921" y="182.5117">first value in the array is the minimum value, the second value in</text><text fill="#000000" font-family="sans-serif" font-size="14" lengthAdjust="spacing" textLength="219" x="1921" y="199">the array is the maximum value.</text><line style="stroke:#A80036;stroke-width:1.0;" x1="1916" x2="1916" y1="150.4883" y2="203.9531"/><line style="stroke:#A80036;stroke-width:1.0;" x1="1829" x2="2381" y1="203.9531" y2="203.9531"/><text fill="#000000" font-family="sans-serif" font-size="14" lengthAdjust="spacing" textLength="55" x="1834" y="219.4883">writable</text><text fill="#000000" font-family="sans-serif" font-size="14" lengthAdjust="spacing" textLength="48" x="1921" y="219.4883">☐ false</text><line style="stroke:#A80036;stroke-width:1.0;" x1="1916" x2="1916" y1="203.9531" y2="224.4414"/><line style="stroke:#A80036;stroke-width:1.0;" x1="1829" x2="2381" y1="224.4414" y2="224.4414"/><text fill="#000000" font-family="sans-serif" font-size="14" lengthAdjust="spacing" textLength="63" x="1834" y="239.9766">minItems</text><text fill="#000000" font-family="sans-serif" font-size="14" lengthAdjust="spacing" textLength="9" x="1921" y="239.9766">2</text><line style="stroke:#A80036;stroke-width:1.0;" x1="1916" x2="1916" y1="224.4414" y2="244.9297"/><line style="stroke:#A80036;stroke-width:1.0;" x1="1829" x2="2381" y1="244.9297" y2="244.9297"/><text fill="#000000" font-family="sans-serif" font-size="14" lengthAdjust="spacing" textLength="67" x="1834" y="260.4648">maxItems</text><text fill="#000000" font-family="sans-serif" font-size="14" lengthAdjust="spacing" textLength="9" x="1921" y="260.4648">2</text><line style="stroke:#A80036;stroke-width:1.0;" x1="1916" x2="1916" y1="244.9297" y2="265.418"/><line style="stroke:#A80036;stroke-width:1.0;" x1="1829" x2="2381" y1="265.418" y2="265.418"/><text fill="#000000" font-family="sans-serif" font-size="14" lengthAdjust="spacing" textLength="37" x="1834" y="280.9531">items</text><text fill="#000000" font-family="sans-serif" font-size="14" lengthAdjust="spacing" textLength="0" x="1933" y="280.9531"/><line style="stroke:#A80036;stroke-width:1.0;" x1="1916" x2="1916" y1="265.418" y2="285.9063"/><rect fill="none" height="155.9063" rx="5" ry="5" style="stroke:#A80036;stroke-width:1.5;" width="552" x="1829" y="130"/><rect fill="#FEFECE" height="20.4883" rx="5" ry="5" style="stroke:#FEFECE;stroke-width:1.5;" width="98" x="2418" y="263"/><text fill="#000000" font-family="sans-serif" font-size="14" lengthAdjust="spacing" textLength="29" x="2423" y="278.5352">type</text><text fill="#000000" font-family="sans-serif" font-size="14" lengthAdjust="spacing" textLength="49" x="2462" y="278.5352">integer</text><line style="stroke:#A80036;stroke-width:1.0;" x1="2457" x2="2457" y1="263" y2="283.4883"/><rect fill="none" height="20.4883" rx="5" ry="5" style="stroke:#A80036;stroke-width:1.5;" width="98" x="2418" y="263"/><rect fill="#FEFECE" height="94.4414" rx="5" ry="5" style="stroke:#FEFECE;stroke-width:1.5;" width="549" x="1830.5" y="304"/><text fill="#000000" font-family="sans-serif" font-size="14" lengthAdjust="spacing" textLength="77" x="1835.5" y="319.5352">description</text><text fill="#000000" font-family="sans-serif" font-size="14" lengthAdjust="spacing" textLength="448" x="1922.5" y="319.5352">Step value across the defined range when the range is an integer.</text><text fill="#000000" font-family="sans-serif" font-size="14" lengthAdjust="spacing" textLength="449" x="1922.5" y="336.0234">This is the increment for valid values across the range; so if range</text><text fill="#000000" font-family="sans-serif" font-size="14" lengthAdjust="spacing" textLength="376" x="1922.5" y="352.5117">is 0..10 and step is 2 then valid values are 0,2,4,6,8,10.</text><line style="stroke:#A80036;stroke-width:1.0;" x1="1917.5" x2="1917.5" y1="304" y2="357.4648"/><line style="stroke:#A80036;stroke-width:1.0;" x1="1830.5" x2="2379.5" y1="357.4648" y2="357.4648"/><text fill="#000000" font-family="sans-serif" font-size="14" lengthAdjust="spacing" textLength="55" x="1835.5" y="373">writable</text><text fill="#000000" font-family="sans-serif" font-size="14" lengthAdjust="spacing" textLength="48" x="1922.5" y="373">☐ false</text><line style="stroke:#A80036;stroke-width:1.0;" x1="1917.5" x2="1917.5" y1="357.4648" y2="377.9531"/><line style="stroke:#A80036;stroke-width:1.0;" x1="1830.5" x2="2379.5" y1="377.9531" y2="377.9531"/><text fill="#000000" font-family="sans-serif" font-size="14" lengthAdjust="spacing" textLength="29" x="1835.5" y="393.4883">type</text><text fill="#000000" font-family="sans-serif" font-size="14" lengthAdjust="spacing" textLength="49" x="1922.5" y="393.4883">integer</text><line style="stroke:#A80036;stroke-width:1.0;" x1="1917.5" x2="1917.5" y1="377.9531" y2="398.4414"/><rect fill="none" height="94.4414" rx="5" ry="5" style="stroke:#A80036;stroke-width:1.5;" width="549" x="1830.5" y="304"/><rect fill="#FEFECE" height="20.4883" rx="5" ry="5" style="stroke:#FEFECE;stroke-width:1.5;" width="325" x="1467" y="258"/><text fill="#000000" font-family="sans-serif" font-size="14" lengthAdjust="spacing" textLength="315" x="1472" y="273.5352">#/sdfObject/colour.rgb/sdfProperty/rgbValue</text><rect fill="none" height="20.4883" rx="5" ry="5" style="stroke:#A80036;stroke-width:1.5;" width="325" x="1467" y="258"/><path d="M95,169 L108,169 C117.3442,169 126.8208,168.9198 136.3833,168.7688 " fill="none" style="stroke:#A80036;stroke-width:1.0;stroke-dasharray:3.0,3.0;"/><path d="M136.4378,171.8434 L138.6892,168.7279 L136.3288,165.6942 L144.0697,168.6326 L136.4378,171.8434 " fill="#A80036" style="stroke:#A80036;stroke-width:1.0;"/><ellipse cx="95" cy="169" fill="#A80036" rx="3" ry="3" style="stroke:#A80036;stroke-width:1.0;stroke-dasharray:3.0,3.0;"/><path d="M2355.5,40 L2368.5,40 C2382.2095,40 2396.9977,40 2410.8274,40 " fill="none" style="stroke:#A80036;stroke-width:1.0;stroke-dasharray:3.0,3.0;"/><path d="M2410.8274,43.0286 L2413.0989,40 L2410.8274,36.9714 L2418.3991,40 L2410.8274,43.0286 " fill="#A80036" style="stroke:#A80036;stroke-width:1.0;"/><ellipse cx="2355.5" cy="40" fill="#A80036" rx="3" ry="3" style="stroke:#A80036;stroke-width:1.0;stroke-dasharray:3.0,3.0;"/><path d="M1665,188 L1678,188 C1751.4208,188 1759.2151,143.8184 1829,121 C1836.0663,118.6895 1843.2638,116.4419 1850.552,114.258 " fill="none" style="stroke:#A80036;stroke-width:1.0;stroke-dasharray:3.0,3.0;"/><path d="M1851.4171,117.1848 L1852.7471,113.6091 L1849.687,111.3311 L1857.8691,112.0953 L1851.4171,117.1848 " fill="#A80036" style="stroke:#A80036;stroke-width:1.0;"/><ellipse cx="1665" cy="188" fill="#A80036" rx="3" ry="3" style="stroke:#A80036;stroke-width:1.0;stroke-dasharray:3.0,3.0;"/><path d="M2369,273 L2382,273 C2391.2605,273 2401.0919,273 2410.6496,273 " fill="none" style="stroke:#A80036;stroke-width:1.0;stroke-dasharray:3.0,3.0;"/><path d="M2410.6496,276.0361 L2412.9267,273 L2410.6496,269.9639 L2418.2398,273 L2410.6496,276.0361 " fill="#A80036" style="stroke:#A80036;stroke-width:1.0;"/><ellipse cx="2369" cy="273" fill="#A80036" rx="3" ry="3" style="stroke:#A80036;stroke-width:1.0;stroke-dasharray:3.0,3.0;"/><path d="M1665,208 L1678,208 C1724.476,208 1773.8007,208 1821.7834,208 " fill="none" style="stroke:#A80036;stroke-width:1.0;stroke-dasharray:3.0,3.0;"/><path d="M1821.7834,211.0755 L1824.0901,208 L1821.7834,204.9245 L1829.4722,208 L1821.7834,211.0755 " fill="#A80036" style="stroke:#A80036;stroke-width:1.0;"/><ellipse cx="1665" cy="208" fill="#A80036" rx="3" ry="3" style="stroke:#A80036;stroke-width:1.0;stroke-dasharray:3.0,3.0;"/><path d="M1665,229 L1678,229 C1729.8783,229 1748.4894,222.3511 1793,249 C1815.2741,262.3357 1806.9172,281.35 1829,295 C1831.8608,296.7683 1834.7671,298.482 1837.7146,300.1428 " fill="none" style="stroke:#A80036;stroke-width:1.0;stroke-dasharray:3.0,3.0;"/><path d="M1836.2027,302.9226 L1839.7995,301.2767 L1839.2264,297.3629 L1844.6643,303.9225 L1836.2027,302.9226 " fill="#A80036" style="stroke:#A80036;stroke-width:1.0;"/><ellipse cx="1665" cy="229" fill="#A80036" rx="3" ry="3" style="stroke:#A80036;stroke-width:1.0;stroke-dasharray:3.0,3.0;"/><path d="M1418,214 L1431,214 C1479.8388,214 1535.4322,212.4609 1575.252,211.0906 " fill="none" style="stroke:#A80036;stroke-width:1.0;stroke-dasharray:3.0,3.0;"/><path d="M1575.3605,214.1894 L1577.5761,211.0092 L1575.1435,207.9918 L1582.9989,210.8193 L1575.3605,214.1894 " fill="#A80036" style="stroke:#A80036;stroke-width:1.0;"/><ellipse cx="1418" cy="214" fill="#A80036" rx="3" ry="3" style="stroke:#A80036;stroke-width:1.0;stroke-dasharray:3.0,3.0;"/><path d="M1418,262 L1431,262 C1440.4548,262 1450.1623,262.0692 1459.9594,262.1927 " fill="none" style="stroke:#A80036;stroke-width:1.0;stroke-dasharray:3.0,3.0;"/><path d="M1459.9174,265.1954 L1462.2113,262.2242 L1460.0013,259.1901 L1467.4659,262.2975 L1459.9174,265.1954 " fill="#A80036" style="stroke:#A80036;stroke-width:1.0;"/><ellipse cx="1418" cy="262" fill="#A80036" rx="3" ry="3" style="stroke:#A80036;stroke-width:1.0;stroke-dasharray:3.0,3.0;"/><path d="M512,214 L525,214 C623.8077,214 731.6552,214 828.6935,214 " fill="none" style="stroke:#A80036;stroke-width:1.0;stroke-dasharray:3.0,3.0;"/><path d="M828.6935,217.0247 L830.9621,214 L828.6935,210.9753 L836.2553,214 L828.6935,217.0247 " fill="#A80036" style="stroke:#A80036;stroke-width:1.0;"/><ellipse cx="512" cy="214" fill="#A80036" rx="3" ry="3" style="stroke:#A80036;stroke-width:1.0;stroke-dasharray:3.0,3.0;"/><path d="M95,190 L108,190 C124.1536,190 127.924,193.4191 144,195 C237.5386,204.1984 346.6006,209.4392 412.1508,211.9984 " fill="none" style="stroke:#A80036;stroke-width:1.0;stroke-dasharray:3.0,3.0;"/><path d="M412.0312,215.1081 L414.4831,212.0881 L412.2703,208.8887 L419.925,212.2973 L412.0312,215.1081 " fill="#A80036" style="stroke:#A80036;stroke-width:1.0;"/><ellipse cx="95" cy="190" fill="#A80036" rx="3" ry="3" style="stroke:#A80036;stroke-width:1.0;stroke-dasharray:3.0,3.0;"/><!--MD5=[c619a1475e7d9346769b57bdee1c451e]
@startjson
{
  "info": {
    "copyright": "copyright 2016-2017, 2019 Open Connectivity Foundation, Inc. All rights reserved.",
    "license": "https://github.com/one-data-model/oneDM/blob/master/LICENSE",
    "title": "Colour RGB",
    "version": "2019-02-15"
  },
  "sdfObject": {
    "colour.rgb": {
      "description": "This Resource specifies the actual colour in the RGB space\\nrepresented as an array of integers. Each colour value is described\\nwith a Red, Green, Blue component. These colour values are encoded as\\nan array of integer values ([R,G,B]). The minimum and maximum colour\\nvalue per component may be described by the Property \"range\". When\\n\"range\" is omitted, then the \"range\" is [0,255].",
      "sdfProperty": {
        "rgbValue": {
          "description": "The RGB value; the first item is the R, second the G, third the B.",
          "items": {
            "type": "integer"
          },
          "maxItems": 3,
          "minItems": 3,
          "type": "array"
        },
        "range": {
          "type": "array",
          "description": "The valid range for the Property in the Resource as an integer. The\\nfirst value in the array is the minimum value, the second value in\\nthe array is the maximum value.",
          "writable": false,
          "minItems": 2,
          "maxItems": 2,
          "items": {
            "type": "integer"
          }
        },
        "step": {
          "description": "Step value across the defined range when the range is an integer. \\nThis is the increment for valid values across the range; so if range\\nis 0..10 and step is 2 then valid values are 0,2,4,6,8,10.",
          "writable": false,
          "type": "integer"
        }
      },
      "sdfRequired": [
        "#/sdfObject/colour.rgb/sdfProperty/rgbValue"
      ]
    }
  }
}
@endjson

PlantUML version 1.2021.2(Sun Mar 07 13:10:27 EET 2021)
(GPL source distribution)
Java Runtime: OpenJDK Runtime Environment
JVM: OpenJDK 64-Bit Server VM
Default Encoding: UTF-8
Language: en
Country: FI
--></g></svg>