<?xml version="1.0" encoding="UTF-8" standalone="no"?><svg xmlns="http://www.w3.org/2000/svg" xmlns:xlink="http://www.w3.org/1999/xlink" contentScriptType="application/ecmascript" contentStyleType="text/css" height="212px" preserveAspectRatio="none" style="width:2147px;height:212px;" version="1.1" viewBox="0 0 2147 212" width="2147px" zoomAndPan="magnify"><defs/><g><rect fill="#FEFECE" height="40.9766" rx="5" ry="5" style="stroke:#FEFECE;stroke-width:1.5;" width="97" x="10" y="65.5"/><text fill="#000000" font-family="sans-serif" font-size="14" lengthAdjust="spacing" textLength="27" x="15" y="81.0352">info</text><text fill="#000000" font-family="sans-serif" font-size="14" lengthAdjust="spacing" textLength="0" x="102" y="81.0352"/><line style="stroke:#A80036;stroke-width:1.0;" x1="85" x2="85" y1="65.5" y2="85.9883"/><line style="stroke:#A80036;stroke-width:1.0;" x1="10" x2="107" y1="85.9883" y2="85.9883"/><text fill="#000000" font-family="sans-serif" font-size="14" lengthAdjust="spacing" textLength="65" x="15" y="101.5234">sdfObject</text><text fill="#000000" font-family="sans-serif" font-size="14" lengthAdjust="spacing" textLength="0" x="102" y="101.5234"/><line style="stroke:#A80036;stroke-width:1.0;" x1="85" x2="85" y1="85.9883" y2="106.4766"/><rect fill="none" height="40.9766" rx="5" ry="5" style="stroke:#A80036;stroke-width:1.5;" width="97" x="10" y="65.5"/><rect fill="#FEFECE" height="81.9531" rx="5" ry="5" style="stroke:#FEFECE;stroke-width:1.5;" width="655" x="144" y="10"/><text fill="#000000" font-family="sans-serif" font-size="14" lengthAdjust="spacing" textLength="65" x="149" y="25.5352">copyright</text><text fill="#000000" font-family="sans-serif" font-size="14" lengthAdjust="spacing" textLength="570" x="224" y="25.5352">copyright 2016-2017, 2019 Open Connectivity Foundation, Inc. All rights reserved.</text><line style="stroke:#A80036;stroke-width:1.0;" x1="219" x2="219" y1="10" y2="30.4883"/><line style="stroke:#A80036;stroke-width:1.0;" x1="144" x2="799" y1="30.4883" y2="30.4883"/><text fill="#000000" font-family="sans-serif" font-size="14" lengthAdjust="spacing" textLength="47" x="149" y="46.0234">license</text><text fill="#000000" font-family="sans-serif" font-size="14" lengthAdjust="spacing" textLength="462" x="224" y="46.0234">https://github.com/one-data-model/oneDM/blob/master/LICENSE</text><line style="stroke:#A80036;stroke-width:1.0;" x1="219" x2="219" y1="30.4883" y2="50.9766"/><line style="stroke:#A80036;stroke-width:1.0;" x1="144" x2="799" y1="50.9766" y2="50.9766"/><text fill="#000000" font-family="sans-serif" font-size="14" lengthAdjust="spacing" textLength="26" x="149" y="66.5117">title</text><text fill="#000000" font-family="sans-serif" font-size="14" lengthAdjust="spacing" textLength="65" x="224" y="66.5117">Ice Maker</text><line style="stroke:#A80036;stroke-width:1.0;" x1="219" x2="219" y1="50.9766" y2="71.4648"/><line style="stroke:#A80036;stroke-width:1.0;" x1="144" x2="799" y1="71.4648" y2="71.4648"/><text fill="#000000" font-family="sans-serif" font-size="14" lengthAdjust="spacing" textLength="50" x="149" y="87">version</text><text fill="#000000" font-family="sans-serif" font-size="14" lengthAdjust="spacing" textLength="88" x="224" y="87">2019-02-15</text><line style="stroke:#A80036;stroke-width:1.0;" x1="219" x2="219" y1="71.4648" y2="91.9531"/><rect fill="none" height="81.9531" rx="5" ry="5" style="stroke:#A80036;stroke-width:1.5;" width="655" x="144" y="10"/><rect fill="#FEFECE" height="20.4883" rx="5" ry="5" style="stroke:#FEFECE;stroke-width:1.5;" width="94" x="424.5" y="110"/><text fill="#000000" font-family="sans-serif" font-size="14" lengthAdjust="spacing" textLength="62" x="429.5" y="125.5352">icemaker</text><text fill="#000000" font-family="sans-serif" font-size="14" lengthAdjust="spacing" textLength="0" x="513.5" y="125.5352"/><line style="stroke:#A80036;stroke-width:1.0;" x1="496.5" x2="496.5" y1="110" y2="130.4883"/><rect fill="none" height="20.4883" rx="5" ry="5" style="stroke:#A80036;stroke-width:1.5;" width="94" x="424.5" y="110"/><rect fill="#FEFECE" height="160.3945" rx="5" ry="5" style="stroke:#FEFECE;stroke-width:1.5;" width="577" x="836" y="40"/><text fill="#000000" font-family="sans-serif" font-size="14" lengthAdjust="spacing" textLength="77" x="841" y="55.5352">description</text><text fill="#000000" font-family="sans-serif" font-size="14" lengthAdjust="spacing" textLength="474" x="934" y="55.5352">This Resource describes an the operational state of an Ice Maker. The</text><text fill="#000000" font-family="sans-serif" font-size="14" lengthAdjust="spacing" textLength="418" x="934" y="72.0234">Property "status" is a string containing a value from the set of</text><text fill="#000000" font-family="sans-serif" font-size="14" lengthAdjust="spacing" textLength="470" x="934" y="88.5117">possible ice maker statuses. The possible statuses are defined by the</text><text fill="#000000" font-family="sans-serif" font-size="14" lengthAdjust="spacing" textLength="445" x="934" y="105">enumeration ["on", "off", "full"] A status of "on" means that the Ice</text><text fill="#000000" font-family="sans-serif" font-size="14" lengthAdjust="spacing" textLength="459" x="934" y="121.4883">Maker is operating. A status of "off" means that the Ice Maker is not</text><text fill="#000000" font-family="sans-serif" font-size="14" lengthAdjust="spacing" textLength="424" x="934" y="137.9766">operating. A status of "full" means that the ice collection bin is</text><text fill="#000000" font-family="sans-serif" font-size="14" lengthAdjust="spacing" textLength="191" x="934" y="154.4648">full (Ice Maker is operating).</text><line style="stroke:#A80036;stroke-width:1.0;" x1="929" x2="929" y1="40" y2="159.418"/><line style="stroke:#A80036;stroke-width:1.0;" x1="836" x2="1413" y1="159.418" y2="159.418"/><text fill="#000000" font-family="sans-serif" font-size="14" lengthAdjust="spacing" textLength="79" x="841" y="174.9531">sdfProperty</text><text fill="#000000" font-family="sans-serif" font-size="14" lengthAdjust="spacing" textLength="0" x="946" y="174.9531"/><line style="stroke:#A80036;stroke-width:1.0;" x1="929" x2="929" y1="159.418" y2="179.9063"/><line style="stroke:#A80036;stroke-width:1.0;" x1="836" x2="1413" y1="179.9063" y2="179.9063"/><text fill="#000000" font-family="sans-serif" font-size="14" lengthAdjust="spacing" textLength="83" x="841" y="195.4414">sdfRequired</text><text fill="#000000" font-family="sans-serif" font-size="14" lengthAdjust="spacing" textLength="0" x="946" y="195.4414"/><line style="stroke:#A80036;stroke-width:1.0;" x1="929" x2="929" y1="179.9063" y2="200.3945"/><rect fill="none" height="160.3945" rx="5" ry="5" style="stroke:#A80036;stroke-width:1.5;" width="577" x="836" y="40"/><rect fill="#FEFECE" height="20.4883" rx="5" ry="5" style="stroke:#FEFECE;stroke-width:1.5;" width="73" x="1560.5" y="109"/><text fill="#000000" font-family="sans-serif" font-size="14" lengthAdjust="spacing" textLength="41" x="1565.5" y="124.5352">status</text><text fill="#000000" font-family="sans-serif" font-size="14" lengthAdjust="spacing" textLength="0" x="1628.5" y="124.5352"/><line style="stroke:#A80036;stroke-width:1.0;" x1="1611.5" x2="1611.5" y1="109" y2="129.4883"/><rect fill="none" height="20.4883" rx="5" ry="5" style="stroke:#A80036;stroke-width:1.5;" width="73" x="1560.5" y="109"/><rect fill="#FEFECE" height="61.4648" rx="5" ry="5" style="stroke:#FEFECE;stroke-width:1.5;" width="285" x="1781" y="88.5"/><text fill="#000000" font-family="sans-serif" font-size="14" lengthAdjust="spacing" textLength="77" x="1786" y="104.0352">description</text><text fill="#000000" font-family="sans-serif" font-size="14" lengthAdjust="spacing" textLength="188" x="1873" y="104.0352">The status of the Ice Maker.</text><line style="stroke:#A80036;stroke-width:1.0;" x1="1868" x2="1868" y1="88.5" y2="108.9883"/><line style="stroke:#A80036;stroke-width:1.0;" x1="1781" x2="2066" y1="108.9883" y2="108.9883"/><text fill="#000000" font-family="sans-serif" font-size="14" lengthAdjust="spacing" textLength="39" x="1786" y="124.5234">enum</text><text fill="#000000" font-family="sans-serif" font-size="14" lengthAdjust="spacing" textLength="0" x="1885" y="124.5234"/><line style="stroke:#A80036;stroke-width:1.0;" x1="1868" x2="1868" y1="108.9883" y2="129.4766"/><line style="stroke:#A80036;stroke-width:1.0;" x1="1781" x2="2066" y1="129.4766" y2="129.4766"/><text fill="#000000" font-family="sans-serif" font-size="14" lengthAdjust="spacing" textLength="29" x="1786" y="145.0117">type</text><text fill="#000000" font-family="sans-serif" font-size="14" lengthAdjust="spacing" textLength="40" x="1873" y="145.0117">string</text><line style="stroke:#A80036;stroke-width:1.0;" x1="1868" x2="1868" y1="129.4766" y2="149.9648"/><rect fill="none" height="61.4648" rx="5" ry="5" style="stroke:#A80036;stroke-width:1.5;" width="285" x="1781" y="88.5"/><rect fill="#FEFECE" height="61.4648" rx="5" ry="5" style="stroke:#FEFECE;stroke-width:1.5;" width="32" x="2103" y="87.5"/><text fill="#000000" font-family="sans-serif" font-size="14" lengthAdjust="spacing" textLength="18" x="2108" y="103.0352">on</text><line style="stroke:#A80036;stroke-width:1.0;" x1="2103" x2="2135" y1="107.9883" y2="107.9883"/><text fill="#000000" font-family="sans-serif" font-size="14" lengthAdjust="spacing" textLength="19" x="2108" y="123.5234">off</text><line style="stroke:#A80036;stroke-width:1.0;" x1="2103" x2="2135" y1="128.4766" y2="128.4766"/><text fill="#000000" font-family="sans-serif" font-size="14" lengthAdjust="spacing" textLength="22" x="2108" y="144.0117">full</text><rect fill="none" height="61.4648" rx="5" ry="5" style="stroke:#A80036;stroke-width:1.5;" width="32" x="2103" y="87.5"/><rect fill="#FEFECE" height="20.4883" rx="5" ry="5" style="stroke:#FEFECE;stroke-width:1.5;" width="294" x="1450" y="163"/><text fill="#000000" font-family="sans-serif" font-size="14" lengthAdjust="spacing" textLength="284" x="1455" y="178.5352">#/sdfObject/icemaker/sdfProperty/status</text><rect fill="none" height="20.4883" rx="5" ry="5" style="stroke:#A80036;stroke-width:1.5;" width="294" x="1450" y="163"/><path d="M95,75 L108,75 C117.3442,75 126.8208,74.9198 136.3833,74.7688 " fill="none" style="stroke:#A80036;stroke-width:1.0;stroke-dasharray:3.0,3.0;"/><path d="M136.4378,77.8434 L138.6892,74.7279 L136.3288,71.6942 L144.0697,74.6326 L136.4378,77.8434 " fill="#A80036" style="stroke:#A80036;stroke-width:1.0;"/><ellipse cx="95" cy="75" fill="#A80036" rx="3" ry="3" style="stroke:#A80036;stroke-width:1.0;stroke-dasharray:3.0,3.0;"/><path d="M2054,118 L2067,118 C2076.3098,118 2086.5662,118 2095.4591,118 " fill="none" style="stroke:#A80036;stroke-width:1.0;stroke-dasharray:3.0,3.0;"/><path d="M2095.4591,121.0869 L2097.7743,118 L2095.4591,114.9131 L2103.1764,118 L2095.4591,121.0869 " fill="#A80036" style="stroke:#A80036;stroke-width:1.0;"/><ellipse cx="2054" cy="118" fill="#A80036" rx="3" ry="3" style="stroke:#A80036;stroke-width:1.0;stroke-dasharray:3.0,3.0;"/><path d="M1622.5,119 L1635.5,119 C1680.3244,119 1729.0799,119 1773.4923,119 " fill="none" style="stroke:#A80036;stroke-width:1.0;stroke-dasharray:3.0,3.0;"/><path d="M1773.4923,122.0651 L1775.7911,119 L1773.4923,115.9349 L1781.155,119 L1773.4923,122.0651 " fill="#A80036" style="stroke:#A80036;stroke-width:1.0;"/><ellipse cx="1622.5" cy="119" fill="#A80036" rx="3" ry="3" style="stroke:#A80036;stroke-width:1.0;stroke-dasharray:3.0,3.0;"/><path d="M1401,119 L1414,119 C1461.6238,119 1516.2381,119 1553.2164,119 " fill="none" style="stroke:#A80036;stroke-width:1.0;stroke-dasharray:3.0,3.0;"/><path d="M1553.2164,122.0457 L1555.5007,119 L1553.2164,115.9543 L1560.8306,119 L1553.2164,122.0457 " fill="#A80036" style="stroke:#A80036;stroke-width:1.0;"/><ellipse cx="1401" cy="119" fill="#A80036" rx="3" ry="3" style="stroke:#A80036;stroke-width:1.0;stroke-dasharray:3.0,3.0;"/><path d="M1401,173 L1414,173 C1423.2503,173 1432.7642,173 1442.3615,173 " fill="none" style="stroke:#A80036;stroke-width:1.0;stroke-dasharray:3.0,3.0;"/><path d="M1442.3615,176.0845 L1444.6749,173 L1442.3615,169.9155 L1450.0727,173 L1442.3615,176.0845 " fill="#A80036" style="stroke:#A80036;stroke-width:1.0;"/><ellipse cx="1401" cy="173" fill="#A80036" rx="3" ry="3" style="stroke:#A80036;stroke-width:1.0;stroke-dasharray:3.0,3.0;"/><path d="M507,120 L520,120 C620.5379,120 730.4892,120 828.7008,120 " fill="none" style="stroke:#A80036;stroke-width:1.0;stroke-dasharray:3.0,3.0;"/><path d="M828.7008,123.0606 L830.9963,120 L828.7008,116.9394 L836.3524,120 L828.7008,123.0606 " fill="#A80036" style="stroke:#A80036;stroke-width:1.0;"/><ellipse cx="507" cy="120" fill="#A80036" rx="3" ry="3" style="stroke:#A80036;stroke-width:1.0;stroke-dasharray:3.0,3.0;"/><path d="M95,96 L108,96 C124.1536,96 127.924,99.4191 144,101 C239.9858,110.439 352.3179,115.7107 417.2053,118.1938 " fill="none" style="stroke:#A80036;stroke-width:1.0;stroke-dasharray:3.0,3.0;"/><path d="M417.0897,121.2633 L419.5074,118.2805 L417.3209,115.1244 L424.8789,118.4829 L417.0897,121.2633 " fill="#A80036" style="stroke:#A80036;stroke-width:1.0;"/><ellipse cx="95" cy="96" fill="#A80036" rx="3" ry="3" style="stroke:#A80036;stroke-width:1.0;stroke-dasharray:3.0,3.0;"/><!--MD5=[7540a273cbb7ceaea1b557213c121c8f]
@startjson
{
  "info": {
    "copyright": "copyright 2016-2017, 2019 Open Connectivity Foundation, Inc. All rights reserved.",
    "license": "https://github.com/one-data-model/oneDM/blob/master/LICENSE",
    "title": "Ice Maker",
    "version": "2019-02-15"
  },
  "sdfObject": {
    "icemaker": {
      "description": "This Resource describes an the operational state of an Ice Maker. The\\nProperty \"status\" is a string containing a value from the set of\\npossible ice maker statuses. The possible statuses are defined by the\\nenumeration [\"on\", \"off\", \"full\"] A status of \"on\" means that the Ice\\nMaker is operating. A status of \"off\" means that the Ice Maker is not\\noperating. A status of \"full\" means that the ice collection bin is\\nfull (Ice Maker is operating).",
      "sdfProperty": {
        "status": {
          "description": "The status of the Ice Maker.",
          "enum": [
            "on",
            "off",
            "full"
          ],
          "type": "string"
        }
      },
      "sdfRequired": [
        "#/sdfObject/icemaker/sdfProperty/status"
      ]
    }
  }
}
@endjson

PlantUML version 1.2021.2(Sun Mar 07 13:10:27 EET 2021)
(GPL source distribution)
Java Runtime: OpenJDK Runtime Environment
JVM: OpenJDK 64-Bit Server VM
Default Encoding: UTF-8
Language: en
Country: FI
--></g></svg>