<?xml version="1.0" encoding="UTF-8" standalone="no"?><svg xmlns="http://www.w3.org/2000/svg" xmlns:xlink="http://www.w3.org/1999/xlink" contentScriptType="application/ecmascript" contentStyleType="text/css" height="406px" preserveAspectRatio="none" style="width:2434px;height:406px;" version="1.1" viewBox="0 0 2434 406" width="2434px" zoomAndPan="magnify"><defs/><g><rect fill="#FEFECE" height="40.9766" rx="5" ry="5" style="stroke:#FEFECE;stroke-width:1.5;" width="97" x="10" y="159.5"/><text fill="#000000" font-family="sans-serif" font-size="14" lengthAdjust="spacing" textLength="27" x="15" y="175.0352">info</text><text fill="#000000" font-family="sans-serif" font-size="14" lengthAdjust="spacing" textLength="0" x="102" y="175.0352"/><line style="stroke:#A80036;stroke-width:1.0;" x1="85" x2="85" y1="159.5" y2="179.9883"/><line style="stroke:#A80036;stroke-width:1.0;" x1="10" x2="107" y1="179.9883" y2="179.9883"/><text fill="#000000" font-family="sans-serif" font-size="14" lengthAdjust="spacing" textLength="65" x="15" y="195.5234">sdfObject</text><text fill="#000000" font-family="sans-serif" font-size="14" lengthAdjust="spacing" textLength="0" x="102" y="195.5234"/><line style="stroke:#A80036;stroke-width:1.0;" x1="85" x2="85" y1="179.9883" y2="200.4766"/><rect fill="none" height="40.9766" rx="5" ry="5" style="stroke:#A80036;stroke-width:1.5;" width="97" x="10" y="159.5"/><rect fill="#FEFECE" height="81.9531" rx="5" ry="5" style="stroke:#FEFECE;stroke-width:1.5;" width="614" x="144" y="104"/><text fill="#000000" font-family="sans-serif" font-size="14" lengthAdjust="spacing" textLength="65" x="149" y="119.5352">copyright</text><text fill="#000000" font-family="sans-serif" font-size="14" lengthAdjust="spacing" textLength="529" x="224" y="119.5352">Copyright 2018-2019 Open Connectivity Foundation, Inc. All rights reserved.</text><line style="stroke:#A80036;stroke-width:1.0;" x1="219" x2="219" y1="104" y2="124.4883"/><line style="stroke:#A80036;stroke-width:1.0;" x1="144" x2="758" y1="124.4883" y2="124.4883"/><text fill="#000000" font-family="sans-serif" font-size="14" lengthAdjust="spacing" textLength="47" x="149" y="140.0234">license</text><text fill="#000000" font-family="sans-serif" font-size="14" lengthAdjust="spacing" textLength="462" x="224" y="140.0234">https://github.com/one-data-model/oneDM/blob/master/LICENSE</text><line style="stroke:#A80036;stroke-width:1.0;" x1="219" x2="219" y1="124.4883" y2="144.9766"/><line style="stroke:#A80036;stroke-width:1.0;" x1="144" x2="758" y1="144.9766" y2="144.9766"/><text fill="#000000" font-family="sans-serif" font-size="14" lengthAdjust="spacing" textLength="26" x="149" y="160.5117">title</text><text fill="#000000" font-family="sans-serif" font-size="14" lengthAdjust="spacing" textLength="59" x="224" y="160.5117">Cadence</text><line style="stroke:#A80036;stroke-width:1.0;" x1="219" x2="219" y1="144.9766" y2="165.4648"/><line style="stroke:#A80036;stroke-width:1.0;" x1="144" x2="758" y1="165.4648" y2="165.4648"/><text fill="#000000" font-family="sans-serif" font-size="14" lengthAdjust="spacing" textLength="50" x="149" y="181">version</text><text fill="#000000" font-family="sans-serif" font-size="14" lengthAdjust="spacing" textLength="88" x="224" y="181">2019-06-11</text><line style="stroke:#A80036;stroke-width:1.0;" x1="219" x2="219" y1="165.4648" y2="185.9531"/><rect fill="none" height="81.9531" rx="5" ry="5" style="stroke:#A80036;stroke-width:1.5;" width="614" x="144" y="104"/><rect fill="#FEFECE" height="20.4883" rx="5" ry="5" style="stroke:#FEFECE;stroke-width:1.5;" width="88" x="407" y="204"/><text fill="#000000" font-family="sans-serif" font-size="14" lengthAdjust="spacing" textLength="56" x="412" y="219.5352">cadence</text><text fill="#000000" font-family="sans-serif" font-size="14" lengthAdjust="spacing" textLength="0" x="490" y="219.5352"/><line style="stroke:#A80036;stroke-width:1.0;" x1="473" x2="473" y1="204" y2="224.4883"/><rect fill="none" height="20.4883" rx="5" ry="5" style="stroke:#A80036;stroke-width:1.5;" width="88" x="407" y="204"/><rect fill="#FEFECE" height="127.418" rx="5" ry="5" style="stroke:#FEFECE;stroke-width:1.5;" width="563" x="795" y="150.5"/><text fill="#000000" font-family="sans-serif" font-size="14" lengthAdjust="spacing" textLength="77" x="800" y="166.0352">description</text><text fill="#000000" font-family="sans-serif" font-size="14" lengthAdjust="spacing" textLength="416" x="893" y="166.0352">This Resource describes the cadence, which is the number of</text><text fill="#000000" font-family="sans-serif" font-size="14" lengthAdjust="spacing" textLength="460" x="893" y="182.5234">revolutions of crank per minute when cyclists pedal the pedals. The</text><text fill="#000000" font-family="sans-serif" font-size="14" lengthAdjust="spacing" textLength="433" x="893" y="199.0117">unit, which is the default unit, is rpm. The cadence Property is a</text><text fill="#000000" font-family="sans-serif" font-size="14" lengthAdjust="spacing" textLength="443" x="893" y="215.5">read-only value that is provided by the server. When range (from</text><text fill="#000000" font-family="sans-serif" font-size="14" lengthAdjust="spacing" textLength="440" x="893" y="231.9883">"oic. r. baseresource") is omitted the default is 0 to +MAXFLOAT.</text><line style="stroke:#A80036;stroke-width:1.0;" x1="888" x2="888" y1="150.5" y2="236.9414"/><line style="stroke:#A80036;stroke-width:1.0;" x1="795" x2="1358" y1="236.9414" y2="236.9414"/><text fill="#000000" font-family="sans-serif" font-size="14" lengthAdjust="spacing" textLength="79" x="800" y="252.4766">sdfProperty</text><text fill="#000000" font-family="sans-serif" font-size="14" lengthAdjust="spacing" textLength="0" x="905" y="252.4766"/><line style="stroke:#A80036;stroke-width:1.0;" x1="888" x2="888" y1="236.9414" y2="257.4297"/><line style="stroke:#A80036;stroke-width:1.0;" x1="795" x2="1358" y1="257.4297" y2="257.4297"/><text fill="#000000" font-family="sans-serif" font-size="14" lengthAdjust="spacing" textLength="83" x="800" y="272.9648">sdfRequired</text><text fill="#000000" font-family="sans-serif" font-size="14" lengthAdjust="spacing" textLength="0" x="905" y="272.9648"/><line style="stroke:#A80036;stroke-width:1.0;" x1="888" x2="888" y1="257.4297" y2="277.918"/><rect fill="none" height="127.418" rx="5" ry="5" style="stroke:#A80036;stroke-width:1.5;" width="563" x="795" y="150.5"/><rect fill="#FEFECE" height="61.4648" rx="5" ry="5" style="stroke:#FEFECE;stroke-width:1.5;" width="88" x="1502.5" y="174.5"/><text fill="#000000" font-family="sans-serif" font-size="14" lengthAdjust="spacing" textLength="56" x="1507.5" y="190.0352">cadence</text><text fill="#000000" font-family="sans-serif" font-size="14" lengthAdjust="spacing" textLength="0" x="1585.5" y="190.0352"/><line style="stroke:#A80036;stroke-width:1.0;" x1="1568.5" x2="1568.5" y1="174.5" y2="194.9883"/><line style="stroke:#A80036;stroke-width:1.0;" x1="1502.5" x2="1590.5" y1="194.9883" y2="194.9883"/><text fill="#000000" font-family="sans-serif" font-size="14" lengthAdjust="spacing" textLength="40" x="1507.5" y="210.5234">range</text><text fill="#000000" font-family="sans-serif" font-size="14" lengthAdjust="spacing" textLength="0" x="1585.5" y="210.5234"/><line style="stroke:#A80036;stroke-width:1.0;" x1="1568.5" x2="1568.5" y1="194.9883" y2="215.4766"/><line style="stroke:#A80036;stroke-width:1.0;" x1="1502.5" x2="1590.5" y1="215.4766" y2="215.4766"/><text fill="#000000" font-family="sans-serif" font-size="14" lengthAdjust="spacing" textLength="29" x="1507.5" y="231.0117">step</text><text fill="#000000" font-family="sans-serif" font-size="14" lengthAdjust="spacing" textLength="0" x="1585.5" y="231.0117"/><line style="stroke:#A80036;stroke-width:1.0;" x1="1568.5" x2="1568.5" y1="215.4766" y2="235.9648"/><rect fill="none" height="61.4648" rx="5" ry="5" style="stroke:#A80036;stroke-width:1.5;" width="88" x="1502.5" y="174.5"/><rect fill="#FEFECE" height="98.4414" rx="5" ry="5" style="stroke:#FEFECE;stroke-width:1.5;" width="447" x="1787.5" y="10"/><text fill="#000000" font-family="sans-serif" font-size="14" lengthAdjust="spacing" textLength="77" x="1792.5" y="25.5352">description</text><text fill="#000000" font-family="sans-serif" font-size="14" lengthAdjust="spacing" textLength="350" x="1879.5" y="25.5352">This Property describes the rate at which a cyclist is</text><text fill="#000000" font-family="sans-serif" font-size="14" lengthAdjust="spacing" textLength="201" x="1879.5" y="42.0234">pedalling/turning the pedals.</text><line style="stroke:#A80036;stroke-width:1.0;" x1="1874.5" x2="1874.5" y1="10" y2="46.9766"/><line style="stroke:#A80036;stroke-width:1.0;" x1="1787.5" x2="2234.5" y1="46.9766" y2="46.9766"/><text fill="#000000" font-family="sans-serif" font-size="14" lengthAdjust="spacing" textLength="29" x="1792.5" y="62.5117">type</text><text fill="#000000" font-family="sans-serif" font-size="14" lengthAdjust="spacing" textLength="49" x="1879.5" y="62.5117">integer</text><line style="stroke:#A80036;stroke-width:1.0;" x1="1874.5" x2="1874.5" y1="46.9766" y2="67.4648"/><line style="stroke:#A80036;stroke-width:1.0;" x1="1787.5" x2="2234.5" y1="67.4648" y2="67.4648"/><text fill="#000000" font-family="sans-serif" font-size="14" lengthAdjust="spacing" textLength="65" x="1792.5" y="83">minimum</text><text fill="#000000" font-family="sans-serif" font-size="14" lengthAdjust="spacing" textLength="9" x="1879.5" y="83">0</text><line style="stroke:#A80036;stroke-width:1.0;" x1="1874.5" x2="1874.5" y1="67.4648" y2="87.9531"/><line style="stroke:#A80036;stroke-width:1.0;" x1="1787.5" x2="2234.5" y1="87.9531" y2="87.9531"/><text fill="#000000" font-family="sans-serif" font-size="14" lengthAdjust="spacing" textLength="55" x="1792.5" y="103.4883">writable</text><text fill="#000000" font-family="sans-serif" font-size="14" lengthAdjust="spacing" textLength="48" x="1879.5" y="103.4883">☐ false</text><line style="stroke:#A80036;stroke-width:1.0;" x1="1874.5" x2="1874.5" y1="87.9531" y2="108.4414"/><rect fill="none" height="98.4414" rx="5" ry="5" style="stroke:#A80036;stroke-width:1.5;" width="447" x="1787.5" y="10"/><rect fill="#FEFECE" height="155.9063" rx="5" ry="5" style="stroke:#FEFECE;stroke-width:1.5;" width="552" x="1735" y="126"/><text fill="#000000" font-family="sans-serif" font-size="14" lengthAdjust="spacing" textLength="29" x="1740" y="141.5352">type</text><text fill="#000000" font-family="sans-serif" font-size="14" lengthAdjust="spacing" textLength="35" x="1827" y="141.5352">array</text><line style="stroke:#A80036;stroke-width:1.0;" x1="1822" x2="1822" y1="126" y2="146.4883"/><line style="stroke:#A80036;stroke-width:1.0;" x1="1735" x2="2287" y1="146.4883" y2="146.4883"/><text fill="#000000" font-family="sans-serif" font-size="14" lengthAdjust="spacing" textLength="77" x="1740" y="162.0234">description</text><text fill="#000000" font-family="sans-serif" font-size="14" lengthAdjust="spacing" textLength="455" x="1827" y="162.0234">The valid range for the Property in the Resource as an integer. The</text><text fill="#000000" font-family="sans-serif" font-size="14" lengthAdjust="spacing" textLength="439" x="1827" y="178.5117">first value in the array is the minimum value, the second value in</text><text fill="#000000" font-family="sans-serif" font-size="14" lengthAdjust="spacing" textLength="219" x="1827" y="195">the array is the maximum value.</text><line style="stroke:#A80036;stroke-width:1.0;" x1="1822" x2="1822" y1="146.4883" y2="199.9531"/><line style="stroke:#A80036;stroke-width:1.0;" x1="1735" x2="2287" y1="199.9531" y2="199.9531"/><text fill="#000000" font-family="sans-serif" font-size="14" lengthAdjust="spacing" textLength="55" x="1740" y="215.4883">writable</text><text fill="#000000" font-family="sans-serif" font-size="14" lengthAdjust="spacing" textLength="48" x="1827" y="215.4883">☐ false</text><line style="stroke:#A80036;stroke-width:1.0;" x1="1822" x2="1822" y1="199.9531" y2="220.4414"/><line style="stroke:#A80036;stroke-width:1.0;" x1="1735" x2="2287" y1="220.4414" y2="220.4414"/><text fill="#000000" font-family="sans-serif" font-size="14" lengthAdjust="spacing" textLength="63" x="1740" y="235.9766">minItems</text><text fill="#000000" font-family="sans-serif" font-size="14" lengthAdjust="spacing" textLength="9" x="1827" y="235.9766">2</text><line style="stroke:#A80036;stroke-width:1.0;" x1="1822" x2="1822" y1="220.4414" y2="240.9297"/><line style="stroke:#A80036;stroke-width:1.0;" x1="1735" x2="2287" y1="240.9297" y2="240.9297"/><text fill="#000000" font-family="sans-serif" font-size="14" lengthAdjust="spacing" textLength="67" x="1740" y="256.4648">maxItems</text><text fill="#000000" font-family="sans-serif" font-size="14" lengthAdjust="spacing" textLength="9" x="1827" y="256.4648">2</text><line style="stroke:#A80036;stroke-width:1.0;" x1="1822" x2="1822" y1="240.9297" y2="261.418"/><line style="stroke:#A80036;stroke-width:1.0;" x1="1735" x2="2287" y1="261.418" y2="261.418"/><text fill="#000000" font-family="sans-serif" font-size="14" lengthAdjust="spacing" textLength="37" x="1740" y="276.9531">items</text><text fill="#000000" font-family="sans-serif" font-size="14" lengthAdjust="spacing" textLength="0" x="1839" y="276.9531"/><line style="stroke:#A80036;stroke-width:1.0;" x1="1822" x2="1822" y1="261.418" y2="281.9063"/><rect fill="none" height="155.9063" rx="5" ry="5" style="stroke:#A80036;stroke-width:1.5;" width="552" x="1735" y="126"/><rect fill="#FEFECE" height="20.4883" rx="5" ry="5" style="stroke:#FEFECE;stroke-width:1.5;" width="98" x="2324" y="259"/><text fill="#000000" font-family="sans-serif" font-size="14" lengthAdjust="spacing" textLength="29" x="2329" y="274.5352">type</text><text fill="#000000" font-family="sans-serif" font-size="14" lengthAdjust="spacing" textLength="49" x="2368" y="274.5352">integer</text><line style="stroke:#A80036;stroke-width:1.0;" x1="2363" x2="2363" y1="259" y2="279.4883"/><rect fill="none" height="20.4883" rx="5" ry="5" style="stroke:#A80036;stroke-width:1.5;" width="98" x="2324" y="259"/><rect fill="#FEFECE" height="94.4414" rx="5" ry="5" style="stroke:#FEFECE;stroke-width:1.5;" width="549" x="1736.5" y="300"/><text fill="#000000" font-family="sans-serif" font-size="14" lengthAdjust="spacing" textLength="77" x="1741.5" y="315.5352">description</text><text fill="#000000" font-family="sans-serif" font-size="14" lengthAdjust="spacing" textLength="448" x="1828.5" y="315.5352">Step value across the defined range when the range is an integer.</text><text fill="#000000" font-family="sans-serif" font-size="14" lengthAdjust="spacing" textLength="449" x="1828.5" y="332.0234">This is the increment for valid values across the range; so if range</text><text fill="#000000" font-family="sans-serif" font-size="14" lengthAdjust="spacing" textLength="376" x="1828.5" y="348.5117">is 0..10 and step is 2 then valid values are 0,2,4,6,8,10.</text><line style="stroke:#A80036;stroke-width:1.0;" x1="1823.5" x2="1823.5" y1="300" y2="353.4648"/><line style="stroke:#A80036;stroke-width:1.0;" x1="1736.5" x2="2285.5" y1="353.4648" y2="353.4648"/><text fill="#000000" font-family="sans-serif" font-size="14" lengthAdjust="spacing" textLength="55" x="1741.5" y="369">writable</text><text fill="#000000" font-family="sans-serif" font-size="14" lengthAdjust="spacing" textLength="48" x="1828.5" y="369">☐ false</text><line style="stroke:#A80036;stroke-width:1.0;" x1="1823.5" x2="1823.5" y1="353.4648" y2="373.9531"/><line style="stroke:#A80036;stroke-width:1.0;" x1="1736.5" x2="2285.5" y1="373.9531" y2="373.9531"/><text fill="#000000" font-family="sans-serif" font-size="14" lengthAdjust="spacing" textLength="29" x="1741.5" y="389.4883">type</text><text fill="#000000" font-family="sans-serif" font-size="14" lengthAdjust="spacing" textLength="49" x="1828.5" y="389.4883">integer</text><line style="stroke:#A80036;stroke-width:1.0;" x1="1823.5" x2="1823.5" y1="373.9531" y2="394.4414"/><rect fill="none" height="94.4414" rx="5" ry="5" style="stroke:#A80036;stroke-width:1.5;" width="549" x="1736.5" y="300"/><rect fill="#FEFECE" height="20.4883" rx="5" ry="5" style="stroke:#FEFECE;stroke-width:1.5;" width="303" x="1395" y="254"/><text fill="#000000" font-family="sans-serif" font-size="14" lengthAdjust="spacing" textLength="293" x="1400" y="269.5352">#/sdfObject/cadence/sdfProperty/cadence</text><rect fill="none" height="20.4883" rx="5" ry="5" style="stroke:#A80036;stroke-width:1.5;" width="303" x="1395" y="254"/><path d="M95,169 L108,169 C117.4068,169 126.9554,168.9088 136.5926,168.7376 " fill="none" style="stroke:#A80036;stroke-width:1.0;stroke-dasharray:3.0,3.0;"/><path d="M136.6543,171.8363 L138.9166,168.6914 L136.5309,165.6389 L144.3394,168.5834 L136.6543,171.8363 " fill="#A80036" style="stroke:#A80036;stroke-width:1.0;"/><ellipse cx="95" cy="169" fill="#A80036" rx="3" ry="3" style="stroke:#A80036;stroke-width:1.0;stroke-dasharray:3.0,3.0;"/><path d="M1579,184 L1592,184 C1662.1856,184 1668.44,139.2663 1735,117 C1749.6393,112.1027 1764.8596,107.531 1780.2947,103.2791 " fill="none" style="stroke:#A80036;stroke-width:1.0;stroke-dasharray:3.0,3.0;"/><path d="M1781.1193,106.3163 L1782.5725,102.6606 L1779.47,100.242 L1787.8876,101.2175 L1781.1193,106.3163 " fill="#A80036" style="stroke:#A80036;stroke-width:1.0;"/><ellipse cx="1579" cy="184" fill="#A80036" rx="3" ry="3" style="stroke:#A80036;stroke-width:1.0;stroke-dasharray:3.0,3.0;"/><path d="M2275,269 L2288,269 C2297.2605,269 2307.0919,269 2316.6496,269 " fill="none" style="stroke:#A80036;stroke-width:1.0;stroke-dasharray:3.0,3.0;"/><path d="M2316.6496,272.0361 L2318.9267,269 L2316.6496,265.9639 L2324.2398,269 L2316.6496,272.0361 " fill="#A80036" style="stroke:#A80036;stroke-width:1.0;"/><ellipse cx="2275" cy="269" fill="#A80036" rx="3" ry="3" style="stroke:#A80036;stroke-width:1.0;stroke-dasharray:3.0,3.0;"/><path d="M1579,204 L1592,204 C1635.8758,204 1682.3391,204 1727.7276,204 " fill="none" style="stroke:#A80036;stroke-width:1.0;stroke-dasharray:3.0,3.0;"/><path d="M1727.7276,207.0279 L1729.9985,204 L1727.7276,200.9721 L1735.2974,204 L1727.7276,207.0279 " fill="#A80036" style="stroke:#A80036;stroke-width:1.0;"/><ellipse cx="1579" cy="204" fill="#A80036" rx="3" ry="3" style="stroke:#A80036;stroke-width:1.0;stroke-dasharray:3.0,3.0;"/><path d="M1579,225 L1592,225 C1640.3792,225 1657.6489,219.8876 1699,245 C1721.1897,258.4757 1712.9172,277.35 1735,291 C1737.8608,292.7683 1740.7671,294.482 1743.7146,296.1428 " fill="none" style="stroke:#A80036;stroke-width:1.0;stroke-dasharray:3.0,3.0;"/><path d="M1742.2027,298.9226 L1745.7995,297.2767 L1745.2264,293.3629 L1750.6643,299.9225 L1742.2027,298.9226 " fill="#A80036" style="stroke:#A80036;stroke-width:1.0;"/><ellipse cx="1579" cy="225" fill="#A80036" rx="3" ry="3" style="stroke:#A80036;stroke-width:1.0;stroke-dasharray:3.0,3.0;"/><path d="M1346,213 L1359,213 C1405.1124,213 1457.5625,210.5418 1495.155,208.3507 " fill="none" style="stroke:#A80036;stroke-width:1.0;stroke-dasharray:3.0,3.0;"/><path d="M1495.34,211.4662 L1497.4916,208.212 L1494.97,205.2352 L1502.9437,207.8882 L1495.34,211.4662 " fill="#A80036" style="stroke:#A80036;stroke-width:1.0;"/><ellipse cx="1346" cy="213" fill="#A80036" rx="3" ry="3" style="stroke:#A80036;stroke-width:1.0;stroke-dasharray:3.0,3.0;"/><path d="M1346,256 L1359,256 C1368.4515,256 1378.1692,256.1033 1387.9707,256.2863 " fill="none" style="stroke:#A80036;stroke-width:1.0;stroke-dasharray:3.0,3.0;"/><path d="M1387.9086,259.2898 L1390.2232,256.3329 L1388.0327,253.2829 L1395.4792,256.4415 L1387.9086,259.2898 " fill="#A80036" style="stroke:#A80036;stroke-width:1.0;"/><ellipse cx="1346" cy="256" fill="#A80036" rx="3" ry="3" style="stroke:#A80036;stroke-width:1.0;stroke-dasharray:3.0,3.0;"/><path d="M483.5,214 L496.5,214 C591.2714,214 694.7609,214 787.7207,214 " fill="none" style="stroke:#A80036;stroke-width:1.0;stroke-dasharray:3.0,3.0;"/><path d="M787.7207,217.0115 L789.9794,214 L787.7207,210.9885 L795.2496,214 L787.7207,217.0115 " fill="#A80036" style="stroke:#A80036;stroke-width:1.0;"/><ellipse cx="483.5" cy="214" fill="#A80036" rx="3" ry="3" style="stroke:#A80036;stroke-width:1.0;stroke-dasharray:3.0,3.0;"/><path d="M95,190 L108,190 C124.1536,190 127.927,193.388 144,195 C233.7891,204.0052 338.8328,209.4083 399.7076,212.0358 " fill="none" style="stroke:#A80036;stroke-width:1.0;stroke-dasharray:3.0,3.0;"/><path d="M399.5788,215.0614 L401.9767,212.1324 L399.8364,209.0103 L407.2714,212.3578 L399.5788,215.0614 " fill="#A80036" style="stroke:#A80036;stroke-width:1.0;"/><ellipse cx="95" cy="190" fill="#A80036" rx="3" ry="3" style="stroke:#A80036;stroke-width:1.0;stroke-dasharray:3.0,3.0;"/><!--MD5=[7f7ba19d1a0a7cd51a689b6da52941f3]
@startjson
{
  "info": {
    "copyright": "Copyright 2018-2019 Open Connectivity Foundation, Inc. All rights reserved.",
    "license": "https://github.com/one-data-model/oneDM/blob/master/LICENSE",
    "title": "Cadence",
    "version": "2019-06-11"
  },
  "sdfObject": {
    "cadence": {
      "description": "This Resource describes the cadence, which is the number of\\nrevolutions of crank per minute when cyclists pedal the pedals. The\\nunit, which is the default unit, is rpm. The cadence Property is a\\nread-only value that is provided by the server. When range (from\\n\"oic. r. baseresource\") is omitted the default is 0 to +MAXFLOAT.",
      "sdfProperty": {
        "cadence": {
          "description": "This Property describes the rate at which a cyclist is\\npedalling/turning the pedals.",
          "type": "integer",
          "minimum": 0,
          "writable": false
        },
        "range": {
          "type": "array",
          "description": "The valid range for the Property in the Resource as an integer. The\\nfirst value in the array is the minimum value, the second value in\\nthe array is the maximum value.",
          "writable": false,
          "minItems": 2,
          "maxItems": 2,
          "items": {
            "type": "integer"
          }
        },
        "step": {
          "description": "Step value across the defined range when the range is an integer. \\nThis is the increment for valid values across the range; so if range\\nis 0..10 and step is 2 then valid values are 0,2,4,6,8,10.",
          "writable": false,
          "type": "integer"
        }
      },
      "sdfRequired": [
        "#/sdfObject/cadence/sdfProperty/cadence"
      ]
    }
  }
}
@endjson

PlantUML version 1.2021.2(Sun Mar 07 13:10:27 EET 2021)
(GPL source distribution)
Java Runtime: OpenJDK Runtime Environment
JVM: OpenJDK 64-Bit Server VM
Default Encoding: UTF-8
Language: en
Country: FI
--></g></svg>