<?xml version="1.0" encoding="UTF-8" standalone="no"?><svg xmlns="http://www.w3.org/2000/svg" xmlns:xlink="http://www.w3.org/1999/xlink" contentScriptType="application/ecmascript" contentStyleType="text/css" height="856px" preserveAspectRatio="none" style="width:2532px;height:856px;" version="1.1" viewBox="0 0 2532 856" width="2532px" zoomAndPan="magnify"><defs/><g><rect fill="#FEFECE" height="40.9766" rx="5" ry="5" style="stroke:#FEFECE;stroke-width:1.5;" width="97" x="10" y="348.5"/><text fill="#000000" font-family="sans-serif" font-size="14" lengthAdjust="spacing" textLength="27" x="15" y="364.0352">info</text><text fill="#000000" font-family="sans-serif" font-size="14" lengthAdjust="spacing" textLength="0" x="102" y="364.0352"/><line style="stroke:#A80036;stroke-width:1.0;" x1="85" x2="85" y1="348.5" y2="368.9883"/><line style="stroke:#A80036;stroke-width:1.0;" x1="10" x2="107" y1="368.9883" y2="368.9883"/><text fill="#000000" font-family="sans-serif" font-size="14" lengthAdjust="spacing" textLength="65" x="15" y="384.5234">sdfObject</text><text fill="#000000" font-family="sans-serif" font-size="14" lengthAdjust="spacing" textLength="0" x="102" y="384.5234"/><line style="stroke:#A80036;stroke-width:1.0;" x1="85" x2="85" y1="368.9883" y2="389.4766"/><rect fill="none" height="40.9766" rx="5" ry="5" style="stroke:#A80036;stroke-width:1.5;" width="97" x="10" y="348.5"/><rect fill="#FEFECE" height="81.9531" rx="5" ry="5" style="stroke:#FEFECE;stroke-width:1.5;" width="614" x="144" y="293"/><text fill="#000000" font-family="sans-serif" font-size="14" lengthAdjust="spacing" textLength="65" x="149" y="308.5352">copyright</text><text fill="#000000" font-family="sans-serif" font-size="14" lengthAdjust="spacing" textLength="529" x="224" y="308.5352">Copyright 2016-2019 Open Connectivity Foundation, Inc. All rights reserved.</text><line style="stroke:#A80036;stroke-width:1.0;" x1="219" x2="219" y1="293" y2="313.4883"/><line style="stroke:#A80036;stroke-width:1.0;" x1="144" x2="758" y1="313.4883" y2="313.4883"/><text fill="#000000" font-family="sans-serif" font-size="14" lengthAdjust="spacing" textLength="47" x="149" y="329.0234">license</text><text fill="#000000" font-family="sans-serif" font-size="14" lengthAdjust="spacing" textLength="462" x="224" y="329.0234">https://github.com/one-data-model/oneDM/blob/master/LICENSE</text><line style="stroke:#A80036;stroke-width:1.0;" x1="219" x2="219" y1="313.4883" y2="333.9766"/><line style="stroke:#A80036;stroke-width:1.0;" x1="144" x2="758" y1="333.9766" y2="333.9766"/><text fill="#000000" font-family="sans-serif" font-size="14" lengthAdjust="spacing" textLength="26" x="149" y="349.5117">title</text><text fill="#000000" font-family="sans-serif" font-size="14" lengthAdjust="spacing" textLength="102" x="224" y="349.5117">Blood Pressure</text><line style="stroke:#A80036;stroke-width:1.0;" x1="219" x2="219" y1="333.9766" y2="354.4648"/><line style="stroke:#A80036;stroke-width:1.0;" x1="144" x2="758" y1="354.4648" y2="354.4648"/><text fill="#000000" font-family="sans-serif" font-size="14" lengthAdjust="spacing" textLength="50" x="149" y="370">version</text><text fill="#000000" font-family="sans-serif" font-size="14" lengthAdjust="spacing" textLength="88" x="224" y="370">2019-03-22</text><line style="stroke:#A80036;stroke-width:1.0;" x1="219" x2="219" y1="354.4648" y2="374.9531"/><rect fill="none" height="81.9531" rx="5" ry="5" style="stroke:#A80036;stroke-width:1.5;" width="614" x="144" y="293"/><rect fill="#FEFECE" height="20.4883" rx="5" ry="5" style="stroke:#FEFECE;stroke-width:1.5;" width="136" x="383" y="393"/><text fill="#000000" font-family="sans-serif" font-size="14" lengthAdjust="spacing" textLength="104" x="388" y="408.5352">blood.pressure</text><text fill="#000000" font-family="sans-serif" font-size="14" lengthAdjust="spacing" textLength="0" x="514" y="408.5352"/><line style="stroke:#A80036;stroke-width:1.0;" x1="497" x2="497" y1="393" y2="413.4883"/><rect fill="none" height="20.4883" rx="5" ry="5" style="stroke:#A80036;stroke-width:1.5;" width="136" x="383" y="393"/><rect fill="#FEFECE" height="143.9063" rx="5" ry="5" style="stroke:#FEFECE;stroke-width:1.5;" width="589" x="795" y="331"/><text fill="#000000" font-family="sans-serif" font-size="14" lengthAdjust="spacing" textLength="77" x="800" y="346.5352">description</text><text fill="#000000" font-family="sans-serif" font-size="14" lengthAdjust="spacing" textLength="448" x="893" y="346.5352">This Resource describes the Properties associated with a person's</text><text fill="#000000" font-family="sans-serif" font-size="14" lengthAdjust="spacing" textLength="443" x="893" y="363.0234">blood pressure. The unit is a single value that is one of mmHg or</text><text fill="#000000" font-family="sans-serif" font-size="14" lengthAdjust="spacing" textLength="428" x="893" y="379.5117">kPa. If the unit Property is missing the default is a millimeter of</text><text fill="#000000" font-family="sans-serif" font-size="14" lengthAdjust="spacing" textLength="486" x="893" y="396">mercury [mmHg]. The bloodpressure and unit Properties are read-only</text><text fill="#000000" font-family="sans-serif" font-size="14" lengthAdjust="spacing" textLength="446" x="893" y="412.4883">values that are provided by the Server. When range is omitted the</text><text fill="#000000" font-family="sans-serif" font-size="14" lengthAdjust="spacing" textLength="189" x="893" y="428.9766">default is 0 to +MAXFLOAT.</text><line style="stroke:#A80036;stroke-width:1.0;" x1="888" x2="888" y1="331" y2="433.9297"/><line style="stroke:#A80036;stroke-width:1.0;" x1="795" x2="1384" y1="433.9297" y2="433.9297"/><text fill="#000000" font-family="sans-serif" font-size="14" lengthAdjust="spacing" textLength="79" x="800" y="449.4648">sdfProperty</text><text fill="#000000" font-family="sans-serif" font-size="14" lengthAdjust="spacing" textLength="0" x="905" y="449.4648"/><line style="stroke:#A80036;stroke-width:1.0;" x1="888" x2="888" y1="433.9297" y2="454.418"/><line style="stroke:#A80036;stroke-width:1.0;" x1="795" x2="1384" y1="454.418" y2="454.418"/><text fill="#000000" font-family="sans-serif" font-size="14" lengthAdjust="spacing" textLength="83" x="800" y="469.9531">sdfRequired</text><text fill="#000000" font-family="sans-serif" font-size="14" lengthAdjust="spacing" textLength="0" x="905" y="469.9531"/><line style="stroke:#A80036;stroke-width:1.0;" x1="888" x2="888" y1="454.418" y2="474.9063"/><rect fill="none" height="143.9063" rx="5" ry="5" style="stroke:#A80036;stroke-width:1.5;" width="589" x="795" y="331"/><rect fill="#FEFECE" height="143.418" rx="5" ry="5" style="stroke:#FEFECE;stroke-width:1.5;" width="95" x="1549.5" y="300.5"/><text fill="#000000" font-family="sans-serif" font-size="14" lengthAdjust="spacing" textLength="30" x="1554.5" y="316.0352">map</text><text fill="#000000" font-family="sans-serif" font-size="14" lengthAdjust="spacing" textLength="0" x="1639.5" y="316.0352"/><line style="stroke:#A80036;stroke-width:1.0;" x1="1622.5" x2="1622.5" y1="300.5" y2="320.9883"/><line style="stroke:#A80036;stroke-width:1.0;" x1="1549.5" x2="1644.5" y1="320.9883" y2="320.9883"/><text fill="#000000" font-family="sans-serif" font-size="14" lengthAdjust="spacing" textLength="34" x="1554.5" y="336.5234">units</text><text fill="#000000" font-family="sans-serif" font-size="14" lengthAdjust="spacing" textLength="0" x="1639.5" y="336.5234"/><line style="stroke:#A80036;stroke-width:1.0;" x1="1622.5" x2="1622.5" y1="320.9883" y2="341.4766"/><line style="stroke:#A80036;stroke-width:1.0;" x1="1549.5" x2="1644.5" y1="341.4766" y2="341.4766"/><text fill="#000000" font-family="sans-serif" font-size="14" lengthAdjust="spacing" textLength="50" x="1554.5" y="357.0117">systolic</text><text fill="#000000" font-family="sans-serif" font-size="14" lengthAdjust="spacing" textLength="0" x="1639.5" y="357.0117"/><line style="stroke:#A80036;stroke-width:1.0;" x1="1622.5" x2="1622.5" y1="341.4766" y2="361.9648"/><line style="stroke:#A80036;stroke-width:1.0;" x1="1549.5" x2="1644.5" y1="361.9648" y2="361.9648"/><text fill="#000000" font-family="sans-serif" font-size="14" lengthAdjust="spacing" textLength="57" x="1554.5" y="377.5">diastolic</text><text fill="#000000" font-family="sans-serif" font-size="14" lengthAdjust="spacing" textLength="0" x="1639.5" y="377.5"/><line style="stroke:#A80036;stroke-width:1.0;" x1="1622.5" x2="1622.5" y1="361.9648" y2="382.4531"/><line style="stroke:#A80036;stroke-width:1.0;" x1="1549.5" x2="1644.5" y1="382.4531" y2="382.4531"/><text fill="#000000" font-family="sans-serif" font-size="14" lengthAdjust="spacing" textLength="40" x="1554.5" y="397.9883">range</text><text fill="#000000" font-family="sans-serif" font-size="14" lengthAdjust="spacing" textLength="0" x="1639.5" y="397.9883"/><line style="stroke:#A80036;stroke-width:1.0;" x1="1622.5" x2="1622.5" y1="382.4531" y2="402.9414"/><line style="stroke:#A80036;stroke-width:1.0;" x1="1549.5" x2="1644.5" y1="402.9414" y2="402.9414"/><text fill="#000000" font-family="sans-serif" font-size="14" lengthAdjust="spacing" textLength="29" x="1554.5" y="418.4766">step</text><text fill="#000000" font-family="sans-serif" font-size="14" lengthAdjust="spacing" textLength="0" x="1639.5" y="418.4766"/><line style="stroke:#A80036;stroke-width:1.0;" x1="1622.5" x2="1622.5" y1="402.9414" y2="423.4297"/><line style="stroke:#A80036;stroke-width:1.0;" x1="1549.5" x2="1644.5" y1="423.4297" y2="423.4297"/><text fill="#000000" font-family="sans-serif" font-size="14" lengthAdjust="spacing" textLength="63" x="1554.5" y="438.9648">precision</text><text fill="#000000" font-family="sans-serif" font-size="14" lengthAdjust="spacing" textLength="0" x="1639.5" y="438.9648"/><line style="stroke:#A80036;stroke-width:1.0;" x1="1622.5" x2="1622.5" y1="423.4297" y2="443.918"/><rect fill="none" height="143.418" rx="5" ry="5" style="stroke:#A80036;stroke-width:1.5;" width="95" x="1549.5" y="300.5"/><rect fill="#FEFECE" height="81.9531" rx="5" ry="5" style="stroke:#FEFECE;stroke-width:1.5;" width="295" x="1947.5" y="10"/><text fill="#000000" font-family="sans-serif" font-size="14" lengthAdjust="spacing" textLength="77" x="1952.5" y="25.5352">description</text><text fill="#000000" font-family="sans-serif" font-size="14" lengthAdjust="spacing" textLength="198" x="2039.5" y="25.5352">Mean arterial pressure (MAP)</text><line style="stroke:#A80036;stroke-width:1.0;" x1="2034.5" x2="2034.5" y1="10" y2="30.4883"/><line style="stroke:#A80036;stroke-width:1.0;" x1="1947.5" x2="2242.5" y1="30.4883" y2="30.4883"/><text fill="#000000" font-family="sans-serif" font-size="14" lengthAdjust="spacing" textLength="65" x="1952.5" y="46.0234">minimum</text><text fill="#000000" font-family="sans-serif" font-size="14" lengthAdjust="spacing" textLength="9" x="2039.5" y="46.0234">0</text><line style="stroke:#A80036;stroke-width:1.0;" x1="2034.5" x2="2034.5" y1="30.4883" y2="50.9766"/><line style="stroke:#A80036;stroke-width:1.0;" x1="1947.5" x2="2242.5" y1="50.9766" y2="50.9766"/><text fill="#000000" font-family="sans-serif" font-size="14" lengthAdjust="spacing" textLength="55" x="1952.5" y="66.5117">writable</text><text fill="#000000" font-family="sans-serif" font-size="14" lengthAdjust="spacing" textLength="48" x="2039.5" y="66.5117">☐ false</text><line style="stroke:#A80036;stroke-width:1.0;" x1="2034.5" x2="2034.5" y1="50.9766" y2="71.4648"/><line style="stroke:#A80036;stroke-width:1.0;" x1="1947.5" x2="2242.5" y1="71.4648" y2="71.4648"/><text fill="#000000" font-family="sans-serif" font-size="14" lengthAdjust="spacing" textLength="29" x="1952.5" y="87">type</text><text fill="#000000" font-family="sans-serif" font-size="14" lengthAdjust="spacing" textLength="54" x="2039.5" y="87">number</text><line style="stroke:#A80036;stroke-width:1.0;" x1="2034.5" x2="2034.5" y1="71.4648" y2="91.9531"/><rect fill="none" height="81.9531" rx="5" ry="5" style="stroke:#A80036;stroke-width:1.5;" width="295" x="1947.5" y="10"/><rect fill="#FEFECE" height="102.4414" rx="5" ry="5" style="stroke:#FEFECE;stroke-width:1.5;" width="231" x="1979.5" y="110"/><text fill="#000000" font-family="sans-serif" font-size="14" lengthAdjust="spacing" textLength="77" x="1984.5" y="125.5352">description</text><text fill="#000000" font-family="sans-serif" font-size="14" lengthAdjust="spacing" textLength="134" x="2071.5" y="125.5352">Blood pressure unit</text><line style="stroke:#A80036;stroke-width:1.0;" x1="2066.5" x2="2066.5" y1="110" y2="130.4883"/><line style="stroke:#A80036;stroke-width:1.0;" x1="1979.5" x2="2210.5" y1="130.4883" y2="130.4883"/><text fill="#000000" font-family="sans-serif" font-size="14" lengthAdjust="spacing" textLength="39" x="1984.5" y="146.0234">enum</text><text fill="#000000" font-family="sans-serif" font-size="14" lengthAdjust="spacing" textLength="0" x="2083.5" y="146.0234"/><line style="stroke:#A80036;stroke-width:1.0;" x1="2066.5" x2="2066.5" y1="130.4883" y2="150.9766"/><line style="stroke:#A80036;stroke-width:1.0;" x1="1979.5" x2="2210.5" y1="150.9766" y2="150.9766"/><text fill="#000000" font-family="sans-serif" font-size="14" lengthAdjust="spacing" textLength="55" x="1984.5" y="166.5117">writable</text><text fill="#000000" font-family="sans-serif" font-size="14" lengthAdjust="spacing" textLength="48" x="2071.5" y="166.5117">☐ false</text><line style="stroke:#A80036;stroke-width:1.0;" x1="2066.5" x2="2066.5" y1="150.9766" y2="171.4648"/><line style="stroke:#A80036;stroke-width:1.0;" x1="1979.5" x2="2210.5" y1="171.4648" y2="171.4648"/><text fill="#000000" font-family="sans-serif" font-size="14" lengthAdjust="spacing" textLength="29" x="1984.5" y="187">type</text><text fill="#000000" font-family="sans-serif" font-size="14" lengthAdjust="spacing" textLength="40" x="2071.5" y="187">string</text><line style="stroke:#A80036;stroke-width:1.0;" x1="2066.5" x2="2066.5" y1="171.4648" y2="191.9531"/><line style="stroke:#A80036;stroke-width:1.0;" x1="1979.5" x2="2210.5" y1="191.9531" y2="191.9531"/><text fill="#000000" font-family="sans-serif" font-size="14" lengthAdjust="spacing" textLength="48" x="1984.5" y="207.4883">default</text><text fill="#000000" font-family="sans-serif" font-size="14" lengthAdjust="spacing" textLength="45" x="2071.5" y="207.4883">mmHg</text><line style="stroke:#A80036;stroke-width:1.0;" x1="2066.5" x2="2066.5" y1="191.9531" y2="212.4414"/><rect fill="none" height="102.4414" rx="5" ry="5" style="stroke:#A80036;stroke-width:1.5;" width="231" x="1979.5" y="110"/><rect fill="#FEFECE" height="40.9766" rx="5" ry="5" style="stroke:#FEFECE;stroke-width:1.5;" width="55" x="2441" y="119.5"/><text fill="#000000" font-family="sans-serif" font-size="14" lengthAdjust="spacing" textLength="45" x="2446" y="135.0352">mmHg</text><line style="stroke:#A80036;stroke-width:1.0;" x1="2441" x2="2496" y1="139.9883" y2="139.9883"/><text fill="#000000" font-family="sans-serif" font-size="14" lengthAdjust="spacing" textLength="24" x="2446" y="155.5234">kPa</text><rect fill="none" height="40.9766" rx="5" ry="5" style="stroke:#A80036;stroke-width:1.5;" width="55" x="2441" y="119.5"/><rect fill="#FEFECE" height="81.9531" rx="5" ry="5" style="stroke:#FEFECE;stroke-width:1.5;" width="256" x="1967" y="230"/><text fill="#000000" font-family="sans-serif" font-size="14" lengthAdjust="spacing" textLength="77" x="1972" y="245.5352">description</text><text fill="#000000" font-family="sans-serif" font-size="14" lengthAdjust="spacing" textLength="159" x="2059" y="245.5352">Systolic blood pressure</text><line style="stroke:#A80036;stroke-width:1.0;" x1="2054" x2="2054" y1="230" y2="250.4883"/><line style="stroke:#A80036;stroke-width:1.0;" x1="1967" x2="2223" y1="250.4883" y2="250.4883"/><text fill="#000000" font-family="sans-serif" font-size="14" lengthAdjust="spacing" textLength="65" x="1972" y="266.0234">minimum</text><text fill="#000000" font-family="sans-serif" font-size="14" lengthAdjust="spacing" textLength="9" x="2059" y="266.0234">0</text><line style="stroke:#A80036;stroke-width:1.0;" x1="2054" x2="2054" y1="250.4883" y2="270.9766"/><line style="stroke:#A80036;stroke-width:1.0;" x1="1967" x2="2223" y1="270.9766" y2="270.9766"/><text fill="#000000" font-family="sans-serif" font-size="14" lengthAdjust="spacing" textLength="55" x="1972" y="286.5117">writable</text><text fill="#000000" font-family="sans-serif" font-size="14" lengthAdjust="spacing" textLength="48" x="2059" y="286.5117">☐ false</text><line style="stroke:#A80036;stroke-width:1.0;" x1="2054" x2="2054" y1="270.9766" y2="291.4648"/><line style="stroke:#A80036;stroke-width:1.0;" x1="1967" x2="2223" y1="291.4648" y2="291.4648"/><text fill="#000000" font-family="sans-serif" font-size="14" lengthAdjust="spacing" textLength="29" x="1972" y="307">type</text><text fill="#000000" font-family="sans-serif" font-size="14" lengthAdjust="spacing" textLength="54" x="2059" y="307">number</text><line style="stroke:#A80036;stroke-width:1.0;" x1="2054" x2="2054" y1="291.4648" y2="311.9531"/><rect fill="none" height="81.9531" rx="5" ry="5" style="stroke:#A80036;stroke-width:1.5;" width="256" x="1967" y="230"/><rect fill="#FEFECE" height="81.9531" rx="5" ry="5" style="stroke:#FEFECE;stroke-width:1.5;" width="263" x="1963.5" y="330"/><text fill="#000000" font-family="sans-serif" font-size="14" lengthAdjust="spacing" textLength="77" x="1968.5" y="345.5352">description</text><text fill="#000000" font-family="sans-serif" font-size="14" lengthAdjust="spacing" textLength="166" x="2055.5" y="345.5352">Diastolic blood pressure</text><line style="stroke:#A80036;stroke-width:1.0;" x1="2050.5" x2="2050.5" y1="330" y2="350.4883"/><line style="stroke:#A80036;stroke-width:1.0;" x1="1963.5" x2="2226.5" y1="350.4883" y2="350.4883"/><text fill="#000000" font-family="sans-serif" font-size="14" lengthAdjust="spacing" textLength="65" x="1968.5" y="366.0234">minimum</text><text fill="#000000" font-family="sans-serif" font-size="14" lengthAdjust="spacing" textLength="9" x="2055.5" y="366.0234">0</text><line style="stroke:#A80036;stroke-width:1.0;" x1="2050.5" x2="2050.5" y1="350.4883" y2="370.9766"/><line style="stroke:#A80036;stroke-width:1.0;" x1="1963.5" x2="2226.5" y1="370.9766" y2="370.9766"/><text fill="#000000" font-family="sans-serif" font-size="14" lengthAdjust="spacing" textLength="55" x="1968.5" y="386.5117">writable</text><text fill="#000000" font-family="sans-serif" font-size="14" lengthAdjust="spacing" textLength="48" x="2055.5" y="386.5117">☐ false</text><line style="stroke:#A80036;stroke-width:1.0;" x1="2050.5" x2="2050.5" y1="370.9766" y2="391.4648"/><line style="stroke:#A80036;stroke-width:1.0;" x1="1963.5" x2="2226.5" y1="391.4648" y2="391.4648"/><text fill="#000000" font-family="sans-serif" font-size="14" lengthAdjust="spacing" textLength="29" x="1968.5" y="407">type</text><text fill="#000000" font-family="sans-serif" font-size="14" lengthAdjust="spacing" textLength="54" x="2055.5" y="407">number</text><line style="stroke:#A80036;stroke-width:1.0;" x1="2050.5" x2="2050.5" y1="391.4648" y2="411.9531"/><rect fill="none" height="81.9531" rx="5" ry="5" style="stroke:#A80036;stroke-width:1.5;" width="263" x="1963.5" y="330"/><rect fill="#FEFECE" height="155.9063" rx="5" ry="5" style="stroke:#FEFECE;stroke-width:1.5;" width="548" x="1821" y="430"/><text fill="#000000" font-family="sans-serif" font-size="14" lengthAdjust="spacing" textLength="29" x="1826" y="445.5352">type</text><text fill="#000000" font-family="sans-serif" font-size="14" lengthAdjust="spacing" textLength="35" x="1913" y="445.5352">array</text><line style="stroke:#A80036;stroke-width:1.0;" x1="1908" x2="1908" y1="430" y2="450.4883"/><line style="stroke:#A80036;stroke-width:1.0;" x1="1821" x2="2369" y1="450.4883" y2="450.4883"/><text fill="#000000" font-family="sans-serif" font-size="14" lengthAdjust="spacing" textLength="77" x="1826" y="466.0234">description</text><text fill="#000000" font-family="sans-serif" font-size="14" lengthAdjust="spacing" textLength="451" x="1913" y="466.0234">The valid range for the Property in the Resource as a number. The</text><text fill="#000000" font-family="sans-serif" font-size="14" lengthAdjust="spacing" textLength="439" x="1913" y="482.5117">first value in the array is the minimum value, the second value in</text><text fill="#000000" font-family="sans-serif" font-size="14" lengthAdjust="spacing" textLength="219" x="1913" y="499">the array is the maximum value.</text><line style="stroke:#A80036;stroke-width:1.0;" x1="1908" x2="1908" y1="450.4883" y2="503.9531"/><line style="stroke:#A80036;stroke-width:1.0;" x1="1821" x2="2369" y1="503.9531" y2="503.9531"/><text fill="#000000" font-family="sans-serif" font-size="14" lengthAdjust="spacing" textLength="55" x="1826" y="519.4883">writable</text><text fill="#000000" font-family="sans-serif" font-size="14" lengthAdjust="spacing" textLength="48" x="1913" y="519.4883">☐ false</text><line style="stroke:#A80036;stroke-width:1.0;" x1="1908" x2="1908" y1="503.9531" y2="524.4414"/><line style="stroke:#A80036;stroke-width:1.0;" x1="1821" x2="2369" y1="524.4414" y2="524.4414"/><text fill="#000000" font-family="sans-serif" font-size="14" lengthAdjust="spacing" textLength="63" x="1826" y="539.9766">minItems</text><text fill="#000000" font-family="sans-serif" font-size="14" lengthAdjust="spacing" textLength="9" x="1913" y="539.9766">2</text><line style="stroke:#A80036;stroke-width:1.0;" x1="1908" x2="1908" y1="524.4414" y2="544.9297"/><line style="stroke:#A80036;stroke-width:1.0;" x1="1821" x2="2369" y1="544.9297" y2="544.9297"/><text fill="#000000" font-family="sans-serif" font-size="14" lengthAdjust="spacing" textLength="67" x="1826" y="560.4648">maxItems</text><text fill="#000000" font-family="sans-serif" font-size="14" lengthAdjust="spacing" textLength="9" x="1913" y="560.4648">2</text><line style="stroke:#A80036;stroke-width:1.0;" x1="1908" x2="1908" y1="544.9297" y2="565.418"/><line style="stroke:#A80036;stroke-width:1.0;" x1="1821" x2="2369" y1="565.418" y2="565.418"/><text fill="#000000" font-family="sans-serif" font-size="14" lengthAdjust="spacing" textLength="37" x="1826" y="580.9531">items</text><text fill="#000000" font-family="sans-serif" font-size="14" lengthAdjust="spacing" textLength="0" x="1925" y="580.9531"/><line style="stroke:#A80036;stroke-width:1.0;" x1="1908" x2="1908" y1="565.418" y2="585.9063"/><rect fill="none" height="155.9063" rx="5" ry="5" style="stroke:#A80036;stroke-width:1.5;" width="548" x="1821" y="430"/><rect fill="#FEFECE" height="20.4883" rx="5" ry="5" style="stroke:#FEFECE;stroke-width:1.5;" width="103" x="2417" y="563"/><text fill="#000000" font-family="sans-serif" font-size="14" lengthAdjust="spacing" textLength="29" x="2422" y="578.5352">type</text><text fill="#000000" font-family="sans-serif" font-size="14" lengthAdjust="spacing" textLength="54" x="2461" y="578.5352">number</text><line style="stroke:#A80036;stroke-width:1.0;" x1="2456" x2="2456" y1="563" y2="583.4883"/><rect fill="none" height="20.4883" rx="5" ry="5" style="stroke:#A80036;stroke-width:1.5;" width="103" x="2417" y="563"/><rect fill="#FEFECE" height="110.9297" rx="5" ry="5" style="stroke:#FEFECE;stroke-width:1.5;" width="555" x="1817.5" y="604.5"/><text fill="#000000" font-family="sans-serif" font-size="14" lengthAdjust="spacing" textLength="77" x="1822.5" y="620.0352">description</text><text fill="#000000" font-family="sans-serif" font-size="14" lengthAdjust="spacing" textLength="456" x="1909.5" y="620.0352">Step value across the defined range an integer when the range is a</text><text fill="#000000" font-family="sans-serif" font-size="14" lengthAdjust="spacing" textLength="458" x="1909.5" y="636.5234">number.  This is the increment for valid values across the range; so</text><text fill="#000000" font-family="sans-serif" font-size="14" lengthAdjust="spacing" textLength="381" x="1909.5" y="653.0117">if range is 0.0..10.0 and step is 2.5 then valid values are</text><text fill="#000000" font-family="sans-serif" font-size="14" lengthAdjust="spacing" textLength="139" x="1909.5" y="669.5">0.0,2.5,5.0,7.5,10.0.</text><line style="stroke:#A80036;stroke-width:1.0;" x1="1904.5" x2="1904.5" y1="604.5" y2="674.4531"/><line style="stroke:#A80036;stroke-width:1.0;" x1="1817.5" x2="2372.5" y1="674.4531" y2="674.4531"/><text fill="#000000" font-family="sans-serif" font-size="14" lengthAdjust="spacing" textLength="55" x="1822.5" y="689.9883">writable</text><text fill="#000000" font-family="sans-serif" font-size="14" lengthAdjust="spacing" textLength="48" x="1909.5" y="689.9883">☐ false</text><line style="stroke:#A80036;stroke-width:1.0;" x1="1904.5" x2="1904.5" y1="674.4531" y2="694.9414"/><line style="stroke:#A80036;stroke-width:1.0;" x1="1817.5" x2="2372.5" y1="694.9414" y2="694.9414"/><text fill="#000000" font-family="sans-serif" font-size="14" lengthAdjust="spacing" textLength="29" x="1822.5" y="710.4766">type</text><text fill="#000000" font-family="sans-serif" font-size="14" lengthAdjust="spacing" textLength="54" x="1909.5" y="710.4766">number</text><line style="stroke:#A80036;stroke-width:1.0;" x1="1904.5" x2="1904.5" y1="694.9414" y2="715.4297"/><rect fill="none" height="110.9297" rx="5" ry="5" style="stroke:#A80036;stroke-width:1.5;" width="555" x="1817.5" y="604.5"/><rect fill="#FEFECE" height="110.9297" rx="5" ry="5" style="stroke:#FEFECE;stroke-width:1.5;" width="570" x="1810" y="733.5"/><text fill="#000000" font-family="sans-serif" font-size="14" lengthAdjust="spacing" textLength="29" x="1815" y="749.0352">type</text><text fill="#000000" font-family="sans-serif" font-size="14" lengthAdjust="spacing" textLength="54" x="1902" y="749.0352">number</text><line style="stroke:#A80036;stroke-width:1.0;" x1="1897" x2="1897" y1="733.5" y2="753.9883"/><line style="stroke:#A80036;stroke-width:1.0;" x1="1810" x2="2380" y1="753.9883" y2="753.9883"/><text fill="#000000" font-family="sans-serif" font-size="14" lengthAdjust="spacing" textLength="55" x="1815" y="769.5234">writable</text><text fill="#000000" font-family="sans-serif" font-size="14" lengthAdjust="spacing" textLength="48" x="1902" y="769.5234">☐ false</text><line style="stroke:#A80036;stroke-width:1.0;" x1="1897" x2="1897" y1="753.9883" y2="774.4766"/><line style="stroke:#A80036;stroke-width:1.0;" x1="1810" x2="2380" y1="774.4766" y2="774.4766"/><text fill="#000000" font-family="sans-serif" font-size="14" lengthAdjust="spacing" textLength="77" x="1815" y="790.0117">description</text><text fill="#000000" font-family="sans-serif" font-size="14" lengthAdjust="spacing" textLength="430" x="1902" y="790.0117">When exposed the value in 'precision' provides a +/- tolerance</text><text fill="#000000" font-family="sans-serif" font-size="14" lengthAdjust="spacing" textLength="473" x="1902" y="806.5">against the Properties in the Resource. Thus if a Property is UPDATED</text><text fill="#000000" font-family="sans-serif" font-size="14" lengthAdjust="spacing" textLength="465" x="1902" y="822.9883">to a value and that Property then RETRIEVED, the RETRIEVED value is</text><text fill="#000000" font-family="sans-serif" font-size="14" lengthAdjust="spacing" textLength="337" x="1902" y="839.4766">valid if in the range of the set value +/- precision</text><line style="stroke:#A80036;stroke-width:1.0;" x1="1897" x2="1897" y1="774.4766" y2="844.4297"/><rect fill="none" height="110.9297" rx="5" ry="5" style="stroke:#A80036;stroke-width:1.5;" width="570" x="1810" y="733.5"/><rect fill="#FEFECE" height="40.9766" rx="5" ry="5" style="stroke:#FEFECE;stroke-width:1.5;" width="352" x="1421" y="461.5"/><text fill="#000000" font-family="sans-serif" font-size="14" lengthAdjust="spacing" textLength="335" x="1426" y="477.0352">#/sdfObject/blood.pressure/sdfProperty/systolic</text><line style="stroke:#A80036;stroke-width:1.0;" x1="1421" x2="1773" y1="481.9883" y2="481.9883"/><text fill="#000000" font-family="sans-serif" font-size="14" lengthAdjust="spacing" textLength="342" x="1426" y="497.5234">#/sdfObject/blood.pressure/sdfProperty/diastolic</text><rect fill="none" height="40.9766" rx="5" ry="5" style="stroke:#A80036;stroke-width:1.5;" width="352" x="1421" y="461.5"/><path d="M95,358 L108,358 C117.4068,358 126.9554,357.9088 136.5926,357.7376 " fill="none" style="stroke:#A80036;stroke-width:1.0;stroke-dasharray:3.0,3.0;"/><path d="M136.6543,360.8363 L138.9166,357.6914 L136.5309,354.6389 L144.3394,357.5834 L136.6543,360.8363 " fill="#A80036" style="stroke:#A80036;stroke-width:1.0;"/><ellipse cx="95" cy="358" fill="#A80036" rx="3" ry="3" style="stroke:#A80036;stroke-width:1.0;stroke-dasharray:3.0,3.0;"/><path d="M1633.5,310 L1646.5,310 C1764.4355,310 1708.8734,161.6811 1810,101 C1848.8208,77.7055 1895.6418,64.6225 1939.9928,57.4457 " fill="none" style="stroke:#A80036;stroke-width:1.0;stroke-dasharray:3.0,3.0;"/><path d="M1940.4676,60.5139 L1942.2939,57.0896 L1939.518,54.3776 L1947.6632,56.2587 L1940.4676,60.5139 " fill="#A80036" style="stroke:#A80036;stroke-width:1.0;"/><ellipse cx="1633.5" cy="310" fill="#A80036" rx="3" ry="3" style="stroke:#A80036;stroke-width:1.0;stroke-dasharray:3.0,3.0;"/><path d="M2199.5,140 L2212.5,140 C2291.4947,140 2384.2276,140 2433.3571,140 " fill="none" style="stroke:#A80036;stroke-width:1.0;stroke-dasharray:3.0,3.0;"/><path d="M2433.3571,143.1159 L2435.6941,140 L2433.3571,136.8841 L2441.147,140 L2433.3571,143.1159 " fill="#A80036" style="stroke:#A80036;stroke-width:1.0;"/><ellipse cx="2199.5" cy="140" fill="#A80036" rx="3" ry="3" style="stroke:#A80036;stroke-width:1.0;stroke-dasharray:3.0,3.0;"/><path d="M1633.5,330 L1646.5,330 C1733.8345,330 1729.4893,254.8428 1810,221 C1861.1173,199.5128 1920.7488,185.4183 1972.1759,176.3285 " fill="none" style="stroke:#A80036;stroke-width:1.0;stroke-dasharray:3.0,3.0;"/><path d="M1972.6979,179.339 L1974.4337,175.937 L1971.6539,173.3181 L1979.702,175.0235 L1972.6979,179.339 " fill="#A80036" style="stroke:#A80036;stroke-width:1.0;"/><ellipse cx="1633.5" cy="330" fill="#A80036" rx="3" ry="3" style="stroke:#A80036;stroke-width:1.0;stroke-dasharray:3.0,3.0;"/><path d="M1633.5,351 L1646.5,351 C1720.3798,351 1737.2839,334.0608 1810,321 C1858.8442,312.2269 1912.4368,302.7653 1959.8087,294.4583 " fill="none" style="stroke:#A80036;stroke-width:1.0;stroke-dasharray:3.0,3.0;"/><path d="M1960.3379,297.4775 L1962.073,294.0614 L1959.2795,291.4392 L1967.3565,293.1353 L1960.3379,297.4775 " fill="#A80036" style="stroke:#A80036;stroke-width:1.0;"/><ellipse cx="1633.5" cy="351" fill="#A80036" rx="3" ry="3" style="stroke:#A80036;stroke-width:1.0;stroke-dasharray:3.0,3.0;"/><path d="M1633.5,371 L1646.5,371 C1750.2268,371 1867.4627,371 1955.9824,371 " fill="none" style="stroke:#A80036;stroke-width:1.0;stroke-dasharray:3.0,3.0;"/><path d="M1955.9824,374.0663 L1958.2821,371 L1955.9824,367.9337 L1963.6481,371 L1955.9824,374.0663 " fill="#A80036" style="stroke:#A80036;stroke-width:1.0;"/><ellipse cx="1633.5" cy="371" fill="#A80036" rx="3" ry="3" style="stroke:#A80036;stroke-width:1.0;stroke-dasharray:3.0,3.0;"/><path d="M2357.5,573 L2370.5,573 C2383.235,573 2396.9056,573 2409.8621,573 " fill="none" style="stroke:#A80036;stroke-width:1.0;stroke-dasharray:3.0,3.0;"/><path d="M2409.8621,576.0134 L2412.1221,573 L2409.8621,569.9866 L2417.3956,573 L2409.8621,576.0134 " fill="#A80036" style="stroke:#A80036;stroke-width:1.0;"/><ellipse cx="2357.5" cy="573" fill="#A80036" rx="3" ry="3" style="stroke:#A80036;stroke-width:1.0;stroke-dasharray:3.0,3.0;"/><path d="M1633.5,392 L1646.5,392 C1684.6377,392 1756.1019,407.9534 1830.9293,428.0276 " fill="none" style="stroke:#A80036;stroke-width:1.0;stroke-dasharray:3.0,3.0;"/><path d="M1830.1472,430.9279 L1833.1045,428.6141 L1831.7113,425.1273 L1838.1801,429.9827 L1830.1472,430.9279 " fill="#A80036" style="stroke:#A80036;stroke-width:1.0;"/><ellipse cx="1633.5" cy="392" fill="#A80036" rx="3" ry="3" style="stroke:#A80036;stroke-width:1.0;stroke-dasharray:3.0,3.0;"/><path d="M1633.5,413 L1646.5,413 C1705.8899,413 1733.1909,409.8516 1774,453 C1818.738,500.3025 1763.4202,549.5101 1810,595 C1811.4669,596.4326 1812.9585,597.8361 1814.4736,599.2111 " fill="none" style="stroke:#A80036;stroke-width:1.0;stroke-dasharray:3.0,3.0;"/><path d="M1812.4082,601.5945 L1816.2612,600.7601 L1816.5391,596.8276 L1820.4323,604.3746 L1812.4082,601.5945 " fill="#A80036" style="stroke:#A80036;stroke-width:1.0;"/><ellipse cx="1633.5" cy="413" fill="#A80036" rx="3" ry="3" style="stroke:#A80036;stroke-width:1.0;stroke-dasharray:3.0,3.0;"/><path d="M1633.5,433 L1646.5,433 C1703.8596,433 1733.9304,411.9567 1774,453 C1859.1856,540.2556 1727.7252,634.9946 1810,725 C1810.91,725.9955 1811.8318,726.9772 1812.7652,727.9453 " fill="none" style="stroke:#A80036;stroke-width:1.0;stroke-dasharray:3.0,3.0;"/><path d="M1810.6064,730.133 L1814.406,729.5644 L1814.924,725.7575 L1818.2345,733.3422 L1810.6064,730.133 " fill="#A80036" style="stroke:#A80036;stroke-width:1.0;"/><ellipse cx="1633.5" cy="433" fill="#A80036" rx="3" ry="3" style="stroke:#A80036;stroke-width:1.0;stroke-dasharray:3.0,3.0;"/><path d="M1372,403 L1385,403 C1438.914,403 1499.7491,393.0166 1542.2873,384.3808 " fill="none" style="stroke:#A80036;stroke-width:1.0;stroke-dasharray:3.0,3.0;"/><path d="M1542.9027,387.3643 L1544.525,383.9192 L1541.6719,381.3973 L1549.7462,382.8423 L1542.9027,387.3643 " fill="#A80036" style="stroke:#A80036;stroke-width:1.0;"/><ellipse cx="1372" cy="403" fill="#A80036" rx="3" ry="3" style="stroke:#A80036;stroke-width:1.0;stroke-dasharray:3.0,3.0;"/><path d="M1372,451 L1385,451 C1402.3233,451 1435.14,455.1229 1469.8458,460.3615 " fill="none" style="stroke:#A80036;stroke-width:1.0;stroke-dasharray:3.0,3.0;"/><path d="M1469.3923,463.3333 L1472.0747,460.7016 L1470.2993,457.3896 L1477.2754,461.4952 L1469.3923,463.3333 " fill="#A80036" style="stroke:#A80036;stroke-width:1.0;"/><ellipse cx="1372" cy="451" fill="#A80036" rx="3" ry="3" style="stroke:#A80036;stroke-width:1.0;stroke-dasharray:3.0,3.0;"/><path d="M507.5,403 L520.5,403 C607.292,403 701.5373,403 787.8745,403 " fill="none" style="stroke:#A80036;stroke-width:1.0;stroke-dasharray:3.0,3.0;"/><path d="M787.8745,406.0114 L790.1331,403 L787.8745,399.9886 L795.4031,403 L787.8745,406.0114 " fill="#A80036" style="stroke:#A80036;stroke-width:1.0;"/><ellipse cx="507.5" cy="403" fill="#A80036" rx="3" ry="3" style="stroke:#A80036;stroke-width:1.0;stroke-dasharray:3.0,3.0;"/><path d="M95,379 L108,379 C124.1536,379 127.927,382.388 144,384 C222.8516,391.9082 313.4677,397.0385 375.6028,399.9506 " fill="none" style="stroke:#A80036;stroke-width:1.0;stroke-dasharray:3.0,3.0;"/><path d="M375.4582,403.0758 L377.9467,400.059 L375.7474,396.8253 L383.4159,400.3121 L375.4582,403.0758 " fill="#A80036" style="stroke:#A80036;stroke-width:1.0;"/><ellipse cx="95" cy="379" fill="#A80036" rx="3" ry="3" style="stroke:#A80036;stroke-width:1.0;stroke-dasharray:3.0,3.0;"/><!--MD5=[1b7bffb29df7503a141fbcf6eee2831e]
@startjson
{
  "info": {
    "copyright": "Copyright 2016-2019 Open Connectivity Foundation, Inc. All rights reserved.",
    "license": "https://github.com/one-data-model/oneDM/blob/master/LICENSE",
    "title": "Blood Pressure",
    "version": "2019-03-22"
  },
  "sdfObject": {
    "blood.pressure": {
      "description": "This Resource describes the Properties associated with a person's\\nblood pressure. The unit is a single value that is one of mmHg or\\nkPa. If the unit Property is missing the default is a millimeter of\\nmercury [mmHg]. The bloodpressure and unit Properties are read-only\\nvalues that are provided by the Server. When range is omitted the\\ndefault is 0 to +MAXFLOAT.",
      "sdfProperty": {
        "map": {
          "description": "Mean arterial pressure (MAP)",
          "minimum": 0,
          "writable": false,
          "type": "number"
        },
        "units": {
          "description": "Blood pressure unit",
          "enum": [
            "mmHg",
            "kPa"
          ],
          "writable": false,
          "type": "string",
          "default": "mmHg"
        },
        "systolic": {
          "description": "Systolic blood pressure",
          "minimum": 0,
          "writable": false,
          "type": "number"
        },
        "diastolic": {
          "description": "Diastolic blood pressure",
          "minimum": 0,
          "writable": false,
          "type": "number"
        },
        "range": {
          "type": "array",
          "description": "The valid range for the Property in the Resource as a number. The\\nfirst value in the array is the minimum value, the second value in\\nthe array is the maximum value.",
          "writable": false,
          "minItems": 2,
          "maxItems": 2,
          "items": {
            "type": "number"
          }
        },
        "step": {
          "description": "Step value across the defined range an integer when the range is a\\nnumber.  This is the increment for valid values across the range; so\\nif range is 0.0..10.0 and step is 2.5 then valid values are\\n0.0,2.5,5.0,7.5,10.0.",
          "writable": false,
          "type": "number"
        },
        "precision": {
          "type": "number",
          "writable": false,
          "description": "When exposed the value in 'precision' provides a +/- tolerance\\nagainst the Properties in the Resource. Thus if a Property is UPDATED\\nto a value and that Property then RETRIEVED, the RETRIEVED value is\\nvalid if in the range of the set value +/- precision"
        }
      },
      "sdfRequired": [
        "#/sdfObject/blood.pressure/sdfProperty/systolic",
        "#/sdfObject/blood.pressure/sdfProperty/diastolic"
      ]
    }
  }
}
@endjson

PlantUML version 1.2021.2(Sun Mar 07 13:10:27 EET 2021)
(GPL source distribution)
Java Runtime: OpenJDK Runtime Environment
JVM: OpenJDK 64-Bit Server VM
Default Encoding: UTF-8
Language: en
Country: FI
--></g></svg>