<?xml version="1.0" encoding="UTF-8" standalone="no"?><svg xmlns="http://www.w3.org/2000/svg" xmlns:xlink="http://www.w3.org/1999/xlink" contentScriptType="application/ecmascript" contentStyleType="text/css" height="770px" preserveAspectRatio="none" style="width:2474px;height:770px;" version="1.1" viewBox="0 0 2474 770" width="2474px" zoomAndPan="magnify"><defs/><g><rect fill="#FEFECE" height="40.9766" rx="5" ry="5" style="stroke:#FEFECE;stroke-width:1.5;" width="97" x="10" y="327"/><text fill="#000000" font-family="sans-serif" font-size="14" lengthAdjust="spacing" textLength="27" x="15" y="342.5352">info</text><text fill="#000000" font-family="sans-serif" font-size="14" lengthAdjust="spacing" textLength="0" x="102" y="342.5352"/><line style="stroke:#A80036;stroke-width:1.0;" x1="85" x2="85" y1="327" y2="347.4883"/><line style="stroke:#A80036;stroke-width:1.0;" x1="10" x2="107" y1="347.4883" y2="347.4883"/><text fill="#000000" font-family="sans-serif" font-size="14" lengthAdjust="spacing" textLength="65" x="15" y="363.0234">sdfObject</text><text fill="#000000" font-family="sans-serif" font-size="14" lengthAdjust="spacing" textLength="0" x="102" y="363.0234"/><line style="stroke:#A80036;stroke-width:1.0;" x1="85" x2="85" y1="347.4883" y2="367.9766"/><rect fill="none" height="40.9766" rx="5" ry="5" style="stroke:#A80036;stroke-width:1.5;" width="97" x="10" y="327"/><rect fill="#FEFECE" height="81.9531" rx="5" ry="5" style="stroke:#FEFECE;stroke-width:1.5;" width="614" x="144" y="271.5"/><text fill="#000000" font-family="sans-serif" font-size="14" lengthAdjust="spacing" textLength="65" x="149" y="287.0352">copyright</text><text fill="#000000" font-family="sans-serif" font-size="14" lengthAdjust="spacing" textLength="529" x="224" y="287.0352">Copyright 2018-2019 Open Connectivity Foundation, Inc. All rights reserved.</text><line style="stroke:#A80036;stroke-width:1.0;" x1="219" x2="219" y1="271.5" y2="291.9883"/><line style="stroke:#A80036;stroke-width:1.0;" x1="144" x2="758" y1="291.9883" y2="291.9883"/><text fill="#000000" font-family="sans-serif" font-size="14" lengthAdjust="spacing" textLength="47" x="149" y="307.5234">license</text><text fill="#000000" font-family="sans-serif" font-size="14" lengthAdjust="spacing" textLength="462" x="224" y="307.5234">https://github.com/one-data-model/oneDM/blob/master/LICENSE</text><line style="stroke:#A80036;stroke-width:1.0;" x1="219" x2="219" y1="291.9883" y2="312.4766"/><line style="stroke:#A80036;stroke-width:1.0;" x1="144" x2="758" y1="312.4766" y2="312.4766"/><text fill="#000000" font-family="sans-serif" font-size="14" lengthAdjust="spacing" textLength="26" x="149" y="328.0117">title</text><text fill="#000000" font-family="sans-serif" font-size="14" lengthAdjust="spacing" textLength="47" x="224" y="328.0117">Battery</text><line style="stroke:#A80036;stroke-width:1.0;" x1="219" x2="219" y1="312.4766" y2="332.9648"/><line style="stroke:#A80036;stroke-width:1.0;" x1="144" x2="758" y1="332.9648" y2="332.9648"/><text fill="#000000" font-family="sans-serif" font-size="14" lengthAdjust="spacing" textLength="50" x="149" y="348.5">version</text><text fill="#000000" font-family="sans-serif" font-size="14" lengthAdjust="spacing" textLength="88" x="224" y="348.5">2019-06-18</text><line style="stroke:#A80036;stroke-width:1.0;" x1="219" x2="219" y1="332.9648" y2="353.4531"/><rect fill="none" height="81.9531" rx="5" ry="5" style="stroke:#A80036;stroke-width:1.5;" width="614" x="144" y="271.5"/><rect fill="#FEFECE" height="20.4883" rx="5" ry="5" style="stroke:#FEFECE;stroke-width:1.5;" width="131" x="385.5" y="371.5"/><text fill="#000000" font-family="sans-serif" font-size="14" lengthAdjust="spacing" textLength="99" x="390.5" y="387.0352">energy.battery</text><text fill="#000000" font-family="sans-serif" font-size="14" lengthAdjust="spacing" textLength="0" x="511.5" y="387.0352"/><line style="stroke:#A80036;stroke-width:1.0;" x1="494.5" x2="494.5" y1="371.5" y2="391.9883"/><rect fill="none" height="20.4883" rx="5" ry="5" style="stroke:#A80036;stroke-width:1.5;" width="131" x="385.5" y="371.5"/><rect fill="#FEFECE" height="209.8594" rx="5" ry="5" style="stroke:#FEFECE;stroke-width:1.5;" width="571" x="795" y="276.5"/><text fill="#000000" font-family="sans-serif" font-size="14" lengthAdjust="spacing" textLength="77" x="800" y="292.0352">description</text><text fill="#000000" font-family="sans-serif" font-size="14" lengthAdjust="spacing" textLength="468" x="893" y="292.0352">This Resource describes the attributes associated with a battery. The</text><text fill="#000000" font-family="sans-serif" font-size="14" lengthAdjust="spacing" textLength="453" x="893" y="308.5234">Property "charge" is an integer showing the current battery charge</text><text fill="#000000" font-family="sans-serif" font-size="14" lengthAdjust="spacing" textLength="453" x="893" y="325.0117">level as a percentage in the range 0 (fully discharged) to 100 (fully</text><text fill="#000000" font-family="sans-serif" font-size="14" lengthAdjust="spacing" textLength="441" x="893" y="341.5">charged). The Property "capacity" represents the total capacity of</text><text fill="#000000" font-family="sans-serif" font-size="14" lengthAdjust="spacing" textLength="458" x="893" y="357.9883">battery in Amp Hours (Ah). The "charging" status and "discharging"</text><text fill="#000000" font-family="sans-serif" font-size="14" lengthAdjust="spacing" textLength="437" x="893" y="374.4766">status are represented by boolean values set to "true" indicating</text><text fill="#000000" font-family="sans-serif" font-size="14" lengthAdjust="spacing" textLength="412" x="893" y="390.9648">enabled and "false" indicating disabled. Low battery status is</text><text fill="#000000" font-family="sans-serif" font-size="14" lengthAdjust="spacing" textLength="450" x="893" y="407.4531">represented by a boolean value set to "true" indicating low charge</text><text fill="#000000" font-family="sans-serif" font-size="14" lengthAdjust="spacing" textLength="417" x="893" y="423.9414">level and "false" indicating otherwise, based upon the battery</text><text fill="#000000" font-family="sans-serif" font-size="14" lengthAdjust="spacing" textLength="269" x="893" y="440.4297">threshold represented as a percentage.</text><line style="stroke:#A80036;stroke-width:1.0;" x1="888" x2="888" y1="276.5" y2="445.3828"/><line style="stroke:#A80036;stroke-width:1.0;" x1="795" x2="1366" y1="445.3828" y2="445.3828"/><text fill="#000000" font-family="sans-serif" font-size="14" lengthAdjust="spacing" textLength="79" x="800" y="460.918">sdfProperty</text><text fill="#000000" font-family="sans-serif" font-size="14" lengthAdjust="spacing" textLength="0" x="905" y="460.918"/><line style="stroke:#A80036;stroke-width:1.0;" x1="888" x2="888" y1="445.3828" y2="465.8711"/><line style="stroke:#A80036;stroke-width:1.0;" x1="795" x2="1366" y1="465.8711" y2="465.8711"/><text fill="#000000" font-family="sans-serif" font-size="14" lengthAdjust="spacing" textLength="83" x="800" y="481.4063">sdfRequired</text><text fill="#000000" font-family="sans-serif" font-size="14" lengthAdjust="spacing" textLength="0" x="905" y="481.4063"/><line style="stroke:#A80036;stroke-width:1.0;" x1="888" x2="888" y1="465.8711" y2="486.3594"/><rect fill="none" height="209.8594" rx="5" ry="5" style="stroke:#A80036;stroke-width:1.5;" width="571" x="795" y="276.5"/><rect fill="#FEFECE" height="163.9063" rx="5" ry="5" style="stroke:#FEFECE;stroke-width:1.5;" width="146" x="1532" y="279.5"/><text fill="#000000" font-family="sans-serif" font-size="14" lengthAdjust="spacing" textLength="81" x="1537" y="295.0352">discharging</text><text fill="#000000" font-family="sans-serif" font-size="14" lengthAdjust="spacing" textLength="0" x="1673" y="295.0352"/><line style="stroke:#A80036;stroke-width:1.0;" x1="1656" x2="1656" y1="279.5" y2="299.9883"/><line style="stroke:#A80036;stroke-width:1.0;" x1="1532" x2="1678" y1="299.9883" y2="299.9883"/><text fill="#000000" font-family="sans-serif" font-size="14" lengthAdjust="spacing" textLength="72" x="1537" y="315.5234">lowbattery</text><text fill="#000000" font-family="sans-serif" font-size="14" lengthAdjust="spacing" textLength="0" x="1673" y="315.5234"/><line style="stroke:#A80036;stroke-width:1.0;" x1="1656" x2="1656" y1="299.9883" y2="320.4766"/><line style="stroke:#A80036;stroke-width:1.0;" x1="1532" x2="1678" y1="320.4766" y2="320.4766"/><text fill="#000000" font-family="sans-serif" font-size="14" lengthAdjust="spacing" textLength="55" x="1537" y="336.0117">capacity</text><text fill="#000000" font-family="sans-serif" font-size="14" lengthAdjust="spacing" textLength="0" x="1673" y="336.0117"/><line style="stroke:#A80036;stroke-width:1.0;" x1="1656" x2="1656" y1="320.4766" y2="340.9648"/><line style="stroke:#A80036;stroke-width:1.0;" x1="1532" x2="1678" y1="340.9648" y2="340.9648"/><text fill="#000000" font-family="sans-serif" font-size="14" lengthAdjust="spacing" textLength="114" x="1537" y="356.5">batterythreshold</text><text fill="#000000" font-family="sans-serif" font-size="14" lengthAdjust="spacing" textLength="0" x="1673" y="356.5"/><line style="stroke:#A80036;stroke-width:1.0;" x1="1656" x2="1656" y1="340.9648" y2="361.4531"/><line style="stroke:#A80036;stroke-width:1.0;" x1="1532" x2="1678" y1="361.4531" y2="361.4531"/><text fill="#000000" font-family="sans-serif" font-size="14" lengthAdjust="spacing" textLength="47" x="1537" y="376.9883">charge</text><text fill="#000000" font-family="sans-serif" font-size="14" lengthAdjust="spacing" textLength="0" x="1673" y="376.9883"/><line style="stroke:#A80036;stroke-width:1.0;" x1="1656" x2="1656" y1="361.4531" y2="381.9414"/><line style="stroke:#A80036;stroke-width:1.0;" x1="1532" x2="1678" y1="381.9414" y2="381.9414"/><text fill="#000000" font-family="sans-serif" font-size="14" lengthAdjust="spacing" textLength="61" x="1537" y="397.4766">charging</text><text fill="#000000" font-family="sans-serif" font-size="14" lengthAdjust="spacing" textLength="0" x="1673" y="397.4766"/><line style="stroke:#A80036;stroke-width:1.0;" x1="1656" x2="1656" y1="381.9414" y2="402.4297"/><line style="stroke:#A80036;stroke-width:1.0;" x1="1532" x2="1678" y1="402.4297" y2="402.4297"/><text fill="#000000" font-family="sans-serif" font-size="14" lengthAdjust="spacing" textLength="42" x="1537" y="417.9648">defect</text><text fill="#000000" font-family="sans-serif" font-size="14" lengthAdjust="spacing" textLength="0" x="1673" y="417.9648"/><line style="stroke:#A80036;stroke-width:1.0;" x1="1656" x2="1656" y1="402.4297" y2="422.918"/><line style="stroke:#A80036;stroke-width:1.0;" x1="1532" x2="1678" y1="422.918" y2="422.918"/><text fill="#000000" font-family="sans-serif" font-size="14" lengthAdjust="spacing" textLength="72" x="1537" y="438.4531">timestamp</text><text fill="#000000" font-family="sans-serif" font-size="14" lengthAdjust="spacing" textLength="0" x="1673" y="438.4531"/><line style="stroke:#A80036;stroke-width:1.0;" x1="1656" x2="1656" y1="422.918" y2="443.4063"/><rect fill="none" height="163.9063" rx="5" ry="5" style="stroke:#A80036;stroke-width:1.5;" width="146" x="1532" y="279.5"/><rect fill="#FEFECE" height="61.4648" rx="5" ry="5" style="stroke:#FEFECE;stroke-width:1.5;" width="275" x="2015.5" y="10"/><text fill="#000000" font-family="sans-serif" font-size="14" lengthAdjust="spacing" textLength="77" x="2020.5" y="25.5352">description</text><text fill="#000000" font-family="sans-serif" font-size="14" lengthAdjust="spacing" textLength="178" x="2107.5" y="25.5352">The status of discharging.</text><line style="stroke:#A80036;stroke-width:1.0;" x1="2102.5" x2="2102.5" y1="10" y2="30.4883"/><line style="stroke:#A80036;stroke-width:1.0;" x1="2015.5" x2="2290.5" y1="30.4883" y2="30.4883"/><text fill="#000000" font-family="sans-serif" font-size="14" lengthAdjust="spacing" textLength="55" x="2020.5" y="46.0234">writable</text><text fill="#000000" font-family="sans-serif" font-size="14" lengthAdjust="spacing" textLength="48" x="2107.5" y="46.0234">☐ false</text><line style="stroke:#A80036;stroke-width:1.0;" x1="2102.5" x2="2102.5" y1="30.4883" y2="50.9766"/><line style="stroke:#A80036;stroke-width:1.0;" x1="2015.5" x2="2290.5" y1="50.9766" y2="50.9766"/><text fill="#000000" font-family="sans-serif" font-size="14" lengthAdjust="spacing" textLength="29" x="2020.5" y="66.5117">type</text><text fill="#000000" font-family="sans-serif" font-size="14" lengthAdjust="spacing" textLength="56" x="2107.5" y="66.5117">boolean</text><line style="stroke:#A80036;stroke-width:1.0;" x1="2102.5" x2="2102.5" y1="50.9766" y2="71.4648"/><rect fill="none" height="61.4648" rx="5" ry="5" style="stroke:#A80036;stroke-width:1.5;" width="275" x="2015.5" y="10"/><rect fill="#FEFECE" height="77.9531" rx="5" ry="5" style="stroke:#FEFECE;stroke-width:1.5;" width="519" x="1893.5" y="89.5"/><text fill="#000000" font-family="sans-serif" font-size="14" lengthAdjust="spacing" textLength="77" x="1898.5" y="105.0352">description</text><text fill="#000000" font-family="sans-serif" font-size="14" lengthAdjust="spacing" textLength="422" x="1985.5" y="105.0352">The status of the low battery warning based upon the defined</text><text fill="#000000" font-family="sans-serif" font-size="14" lengthAdjust="spacing" textLength="70" x="1985.5" y="121.5234">threshold.</text><line style="stroke:#A80036;stroke-width:1.0;" x1="1980.5" x2="1980.5" y1="89.5" y2="126.4766"/><line style="stroke:#A80036;stroke-width:1.0;" x1="1893.5" x2="2412.5" y1="126.4766" y2="126.4766"/><text fill="#000000" font-family="sans-serif" font-size="14" lengthAdjust="spacing" textLength="55" x="1898.5" y="142.0117">writable</text><text fill="#000000" font-family="sans-serif" font-size="14" lengthAdjust="spacing" textLength="48" x="1985.5" y="142.0117">☐ false</text><line style="stroke:#A80036;stroke-width:1.0;" x1="1980.5" x2="1980.5" y1="126.4766" y2="146.9648"/><line style="stroke:#A80036;stroke-width:1.0;" x1="1893.5" x2="2412.5" y1="146.9648" y2="146.9648"/><text fill="#000000" font-family="sans-serif" font-size="14" lengthAdjust="spacing" textLength="29" x="1898.5" y="162.5">type</text><text fill="#000000" font-family="sans-serif" font-size="14" lengthAdjust="spacing" textLength="56" x="1985.5" y="162.5">boolean</text><line style="stroke:#A80036;stroke-width:1.0;" x1="1980.5" x2="1980.5" y1="146.9648" y2="167.4531"/><rect fill="none" height="77.9531" rx="5" ry="5" style="stroke:#A80036;stroke-width:1.5;" width="519" x="1893.5" y="89.5"/><rect fill="#FEFECE" height="61.4648" rx="5" ry="5" style="stroke:#FEFECE;stroke-width:1.5;" width="355" x="1975.5" y="186"/><text fill="#000000" font-family="sans-serif" font-size="14" lengthAdjust="spacing" textLength="77" x="1980.5" y="201.5352">description</text><text fill="#000000" font-family="sans-serif" font-size="14" lengthAdjust="spacing" textLength="258" x="2067.5" y="201.5352">The total capacity in Amp-hours (Ah).</text><line style="stroke:#A80036;stroke-width:1.0;" x1="2062.5" x2="2062.5" y1="186" y2="206.4883"/><line style="stroke:#A80036;stroke-width:1.0;" x1="1975.5" x2="2330.5" y1="206.4883" y2="206.4883"/><text fill="#000000" font-family="sans-serif" font-size="14" lengthAdjust="spacing" textLength="55" x="1980.5" y="222.0234">writable</text><text fill="#000000" font-family="sans-serif" font-size="14" lengthAdjust="spacing" textLength="48" x="2067.5" y="222.0234">☐ false</text><line style="stroke:#A80036;stroke-width:1.0;" x1="2062.5" x2="2062.5" y1="206.4883" y2="226.9766"/><line style="stroke:#A80036;stroke-width:1.0;" x1="1975.5" x2="2330.5" y1="226.9766" y2="226.9766"/><text fill="#000000" font-family="sans-serif" font-size="14" lengthAdjust="spacing" textLength="29" x="1980.5" y="242.5117">type</text><text fill="#000000" font-family="sans-serif" font-size="14" lengthAdjust="spacing" textLength="54" x="2067.5" y="242.5117">number</text><line style="stroke:#A80036;stroke-width:1.0;" x1="2062.5" x2="2062.5" y1="226.9766" y2="247.4648"/><rect fill="none" height="61.4648" rx="5" ry="5" style="stroke:#A80036;stroke-width:1.5;" width="355" x="1975.5" y="186"/><rect fill="#FEFECE" height="81.9531" rx="5" ry="5" style="stroke:#FEFECE;stroke-width:1.5;" width="468" x="1919" y="265.5"/><text fill="#000000" font-family="sans-serif" font-size="14" lengthAdjust="spacing" textLength="77" x="1924" y="281.0352">description</text><text fill="#000000" font-family="sans-serif" font-size="14" lengthAdjust="spacing" textLength="371" x="2011" y="281.0352">The threshold percentage for the low battery warning.</text><line style="stroke:#A80036;stroke-width:1.0;" x1="2006" x2="2006" y1="265.5" y2="285.9883"/><line style="stroke:#A80036;stroke-width:1.0;" x1="1919" x2="2387" y1="285.9883" y2="285.9883"/><text fill="#000000" font-family="sans-serif" font-size="14" lengthAdjust="spacing" textLength="69" x="1924" y="301.5234">maximum</text><text fill="#000000" font-family="sans-serif" font-size="14" lengthAdjust="spacing" textLength="27" x="2011" y="301.5234">100</text><line style="stroke:#A80036;stroke-width:1.0;" x1="2006" x2="2006" y1="285.9883" y2="306.4766"/><line style="stroke:#A80036;stroke-width:1.0;" x1="1919" x2="2387" y1="306.4766" y2="306.4766"/><text fill="#000000" font-family="sans-serif" font-size="14" lengthAdjust="spacing" textLength="65" x="1924" y="322.0117">minimum</text><text fill="#000000" font-family="sans-serif" font-size="14" lengthAdjust="spacing" textLength="9" x="2011" y="322.0117">0</text><line style="stroke:#A80036;stroke-width:1.0;" x1="2006" x2="2006" y1="306.4766" y2="326.9648"/><line style="stroke:#A80036;stroke-width:1.0;" x1="1919" x2="2387" y1="326.9648" y2="326.9648"/><text fill="#000000" font-family="sans-serif" font-size="14" lengthAdjust="spacing" textLength="29" x="1924" y="342.5">type</text><text fill="#000000" font-family="sans-serif" font-size="14" lengthAdjust="spacing" textLength="49" x="2011" y="342.5">integer</text><line style="stroke:#A80036;stroke-width:1.0;" x1="2006" x2="2006" y1="326.9648" y2="347.4531"/><rect fill="none" height="81.9531" rx="5" ry="5" style="stroke:#A80036;stroke-width:1.5;" width="468" x="1919" y="265.5"/><rect fill="#FEFECE" height="102.4414" rx="5" ry="5" style="stroke:#FEFECE;stroke-width:1.5;" width="313" x="1996.5" y="365.5"/><text fill="#000000" font-family="sans-serif" font-size="14" lengthAdjust="spacing" textLength="77" x="2001.5" y="381.0352">description</text><text fill="#000000" font-family="sans-serif" font-size="14" lengthAdjust="spacing" textLength="216" x="2088.5" y="381.0352">The current charge percentage.</text><line style="stroke:#A80036;stroke-width:1.0;" x1="2083.5" x2="2083.5" y1="365.5" y2="385.9883"/><line style="stroke:#A80036;stroke-width:1.0;" x1="1996.5" x2="2309.5" y1="385.9883" y2="385.9883"/><text fill="#000000" font-family="sans-serif" font-size="14" lengthAdjust="spacing" textLength="69" x="2001.5" y="401.5234">maximum</text><text fill="#000000" font-family="sans-serif" font-size="14" lengthAdjust="spacing" textLength="27" x="2088.5" y="401.5234">100</text><line style="stroke:#A80036;stroke-width:1.0;" x1="2083.5" x2="2083.5" y1="385.9883" y2="406.4766"/><line style="stroke:#A80036;stroke-width:1.0;" x1="1996.5" x2="2309.5" y1="406.4766" y2="406.4766"/><text fill="#000000" font-family="sans-serif" font-size="14" lengthAdjust="spacing" textLength="65" x="2001.5" y="422.0117">minimum</text><text fill="#000000" font-family="sans-serif" font-size="14" lengthAdjust="spacing" textLength="9" x="2088.5" y="422.0117">0</text><line style="stroke:#A80036;stroke-width:1.0;" x1="2083.5" x2="2083.5" y1="406.4766" y2="426.9648"/><line style="stroke:#A80036;stroke-width:1.0;" x1="1996.5" x2="2309.5" y1="426.9648" y2="426.9648"/><text fill="#000000" font-family="sans-serif" font-size="14" lengthAdjust="spacing" textLength="55" x="2001.5" y="442.5">writable</text><text fill="#000000" font-family="sans-serif" font-size="14" lengthAdjust="spacing" textLength="48" x="2088.5" y="442.5">☐ false</text><line style="stroke:#A80036;stroke-width:1.0;" x1="2083.5" x2="2083.5" y1="426.9648" y2="447.4531"/><line style="stroke:#A80036;stroke-width:1.0;" x1="1996.5" x2="2309.5" y1="447.4531" y2="447.4531"/><text fill="#000000" font-family="sans-serif" font-size="14" lengthAdjust="spacing" textLength="29" x="2001.5" y="462.9883">type</text><text fill="#000000" font-family="sans-serif" font-size="14" lengthAdjust="spacing" textLength="49" x="2088.5" y="462.9883">integer</text><line style="stroke:#A80036;stroke-width:1.0;" x1="2083.5" x2="2083.5" y1="447.4531" y2="467.9414"/><rect fill="none" height="102.4414" rx="5" ry="5" style="stroke:#A80036;stroke-width:1.5;" width="313" x="1996.5" y="365.5"/><rect fill="#FEFECE" height="61.4648" rx="5" ry="5" style="stroke:#FEFECE;stroke-width:1.5;" width="255" x="2025.5" y="486"/><text fill="#000000" font-family="sans-serif" font-size="14" lengthAdjust="spacing" textLength="77" x="2030.5" y="501.5352">description</text><text fill="#000000" font-family="sans-serif" font-size="14" lengthAdjust="spacing" textLength="158" x="2117.5" y="501.5352">The status of charging.</text><line style="stroke:#A80036;stroke-width:1.0;" x1="2112.5" x2="2112.5" y1="486" y2="506.4883"/><line style="stroke:#A80036;stroke-width:1.0;" x1="2025.5" x2="2280.5" y1="506.4883" y2="506.4883"/><text fill="#000000" font-family="sans-serif" font-size="14" lengthAdjust="spacing" textLength="55" x="2030.5" y="522.0234">writable</text><text fill="#000000" font-family="sans-serif" font-size="14" lengthAdjust="spacing" textLength="48" x="2117.5" y="522.0234">☐ false</text><line style="stroke:#A80036;stroke-width:1.0;" x1="2112.5" x2="2112.5" y1="506.4883" y2="526.9766"/><line style="stroke:#A80036;stroke-width:1.0;" x1="2025.5" x2="2280.5" y1="526.9766" y2="526.9766"/><text fill="#000000" font-family="sans-serif" font-size="14" lengthAdjust="spacing" textLength="29" x="2030.5" y="542.5117">type</text><text fill="#000000" font-family="sans-serif" font-size="14" lengthAdjust="spacing" textLength="56" x="2117.5" y="542.5117">boolean</text><line style="stroke:#A80036;stroke-width:1.0;" x1="2112.5" x2="2112.5" y1="526.9766" y2="547.4648"/><rect fill="none" height="61.4648" rx="5" ry="5" style="stroke:#A80036;stroke-width:1.5;" width="255" x="2025.5" y="486"/><rect fill="#FEFECE" height="61.4648" rx="5" ry="5" style="stroke:#FEFECE;stroke-width:1.5;" width="480" x="1913" y="565"/><text fill="#000000" font-family="sans-serif" font-size="14" lengthAdjust="spacing" textLength="77" x="1918" y="580.5352">description</text><text fill="#000000" font-family="sans-serif" font-size="14" lengthAdjust="spacing" textLength="383" x="2005" y="580.5352">Battery defect detected. True = defect, False = no defect</text><line style="stroke:#A80036;stroke-width:1.0;" x1="2000" x2="2000" y1="565" y2="585.4883"/><line style="stroke:#A80036;stroke-width:1.0;" x1="1913" x2="2393" y1="585.4883" y2="585.4883"/><text fill="#000000" font-family="sans-serif" font-size="14" lengthAdjust="spacing" textLength="55" x="1918" y="601.0234">writable</text><text fill="#000000" font-family="sans-serif" font-size="14" lengthAdjust="spacing" textLength="48" x="2005" y="601.0234">☐ false</text><line style="stroke:#A80036;stroke-width:1.0;" x1="2000" x2="2000" y1="585.4883" y2="605.9766"/><line style="stroke:#A80036;stroke-width:1.0;" x1="1913" x2="2393" y1="605.9766" y2="605.9766"/><text fill="#000000" font-family="sans-serif" font-size="14" lengthAdjust="spacing" textLength="29" x="1918" y="621.5117">type</text><text fill="#000000" font-family="sans-serif" font-size="14" lengthAdjust="spacing" textLength="56" x="2005" y="621.5117">boolean</text><line style="stroke:#A80036;stroke-width:1.0;" x1="2000" x2="2000" y1="605.9766" y2="626.4648"/><rect fill="none" height="61.4648" rx="5" ry="5" style="stroke:#A80036;stroke-width:1.5;" width="480" x="1913" y="565"/><rect fill="#FEFECE" height="114.9297" rx="5" ry="5" style="stroke:#FEFECE;stroke-width:1.5;" width="618" x="1844" y="644"/><text fill="#000000" font-family="sans-serif" font-size="14" lengthAdjust="spacing" textLength="77" x="1849" y="659.5352">description</text><text fill="#000000" font-family="sans-serif" font-size="14" lengthAdjust="spacing" textLength="462" x="1936" y="659.5352">An RFC3339 formatted time indicating when the data was observed</text><text fill="#000000" font-family="sans-serif" font-size="14" lengthAdjust="spacing" textLength="521" x="1936" y="676.0234">(e.g.: 2016-02-15T09:19Z, 1996-12-19T16:39:57-08:00). Note that 1/100</text><text fill="#000000" font-family="sans-serif" font-size="14" lengthAdjust="spacing" textLength="217" x="1936" y="692.5117">time resolution should be used.</text><line style="stroke:#A80036;stroke-width:1.0;" x1="1931" x2="1931" y1="644" y2="697.4648"/><line style="stroke:#A80036;stroke-width:1.0;" x1="1844" x2="2462" y1="697.4648" y2="697.4648"/><text fill="#000000" font-family="sans-serif" font-size="14" lengthAdjust="spacing" textLength="46" x="1849" y="713">format</text><text fill="#000000" font-family="sans-serif" font-size="14" lengthAdjust="spacing" textLength="68" x="1936" y="713">date-time</text><line style="stroke:#A80036;stroke-width:1.0;" x1="1931" x2="1931" y1="697.4648" y2="717.9531"/><line style="stroke:#A80036;stroke-width:1.0;" x1="1844" x2="2462" y1="717.9531" y2="717.9531"/><text fill="#000000" font-family="sans-serif" font-size="14" lengthAdjust="spacing" textLength="55" x="1849" y="733.4883">writable</text><text fill="#000000" font-family="sans-serif" font-size="14" lengthAdjust="spacing" textLength="48" x="1936" y="733.4883">☐ false</text><line style="stroke:#A80036;stroke-width:1.0;" x1="1931" x2="1931" y1="717.9531" y2="738.4414"/><line style="stroke:#A80036;stroke-width:1.0;" x1="1844" x2="2462" y1="738.4414" y2="738.4414"/><text fill="#000000" font-family="sans-serif" font-size="14" lengthAdjust="spacing" textLength="29" x="1849" y="753.9766">type</text><text fill="#000000" font-family="sans-serif" font-size="14" lengthAdjust="spacing" textLength="40" x="1936" y="753.9766">string</text><line style="stroke:#A80036;stroke-width:1.0;" x1="1931" x2="1931" y1="738.4414" y2="758.9297"/><rect fill="none" height="114.9297" rx="5" ry="5" style="stroke:#A80036;stroke-width:1.5;" width="618" x="1844" y="644"/><rect fill="#FEFECE" height="20.4883" rx="5" ry="5" style="stroke:#FEFECE;stroke-width:1.5;" width="404" x="1403" y="461.5"/><text fill="#000000" font-family="sans-serif" font-size="14" lengthAdjust="spacing" textLength="394" x="1408" y="477.0352">#/sdfObject/energy.battery/sdfProperty/batterythreshold</text><rect fill="none" height="20.4883" rx="5" ry="5" style="stroke:#A80036;stroke-width:1.5;" width="404" x="1403" y="461.5"/><path d="M95,336.5 L108,336.5 C117.4068,336.5 126.9554,336.4088 136.5926,336.2376 " fill="none" style="stroke:#A80036;stroke-width:1.0;stroke-dasharray:3.0,3.0;"/><path d="M136.6543,339.3363 L138.9166,336.1914 L136.5309,333.1389 L144.3394,336.0834 L136.6543,339.3363 " fill="#A80036" style="stroke:#A80036;stroke-width:1.0;"/><ellipse cx="95" cy="336.5" fill="#A80036" rx="3" ry="3" style="stroke:#A80036;stroke-width:1.0;stroke-dasharray:3.0,3.0;"/><path d="M1666.5,289.5 L1679.5,289.5 C1797.7099,289.5 1741.208,138.8728 1844,80.5 C1893.2268,52.5454 1953.862,40.7769 2008.3102,36.6263 " fill="none" style="stroke:#A80036;stroke-width:1.0;stroke-dasharray:3.0,3.0;"/><path d="M2008.5246,39.6823 L2010.6022,36.4655 L2008.0958,33.5703 L2015.9502,36.0903 L2008.5246,39.6823 " fill="#A80036" style="stroke:#A80036;stroke-width:1.0;"/><ellipse cx="1666.5" cy="289.5" fill="#A80036" rx="3" ry="3" style="stroke:#A80036;stroke-width:1.0;stroke-dasharray:3.0,3.0;"/><path d="M1666.5,309.5 L1679.5,309.5 C1773.5179,309.5 1758.0437,214.5903 1844,176.5 C1857.6278,170.461 1871.8877,165.1656 1886.4867,160.5236 " fill="none" style="stroke:#A80036;stroke-width:1.0;stroke-dasharray:3.0,3.0;"/><path d="M1887.3773,163.4007 L1888.6445,159.8556 L1885.596,157.6465 L1893.6793,158.2969 L1887.3773,163.4007 " fill="#A80036" style="stroke:#A80036;stroke-width:1.0;"/><ellipse cx="1666.5" cy="309.5" fill="#A80036" rx="3" ry="3" style="stroke:#A80036;stroke-width:1.0;stroke-dasharray:3.0,3.0;"/><path d="M1666.5,330.5 L1679.5,330.5 C1759.668,330.5 1766.8624,278.3337 1844,256.5 C1883.5036,245.3185 1926.7491,237.2506 1968.0308,231.433 " fill="none" style="stroke:#A80036;stroke-width:1.0;stroke-dasharray:3.0,3.0;"/><path d="M1968.455,234.5066 L1970.336,231.1149 L1967.6067,228.3594 L1975.7149,230.3726 L1968.455,234.5066 " fill="#A80036" style="stroke:#A80036;stroke-width:1.0;"/><ellipse cx="1666.5" cy="330.5" fill="#A80036" rx="3" ry="3" style="stroke:#A80036;stroke-width:1.0;stroke-dasharray:3.0,3.0;"/><path d="M1666.5,350.5 L1679.5,350.5 C1755.1479,350.5 1837.3097,344.8513 1911.606,337.6018 " fill="none" style="stroke:#A80036;stroke-width:1.0;stroke-dasharray:3.0,3.0;"/><path d="M1911.907,340.6524 L1913.8939,337.3761 L1911.3051,334.5513 L1919.2324,336.8494 L1911.907,340.6524 " fill="#A80036" style="stroke:#A80036;stroke-width:1.0;"/><ellipse cx="1666.5" cy="350.5" fill="#A80036" rx="3" ry="3" style="stroke:#A80036;stroke-width:1.0;stroke-dasharray:3.0,3.0;"/><path d="M1666.5,371.5 L1679.5,371.5 C1782.8004,371.5 1898.2227,382.2683 1989.1882,393.2696 " fill="none" style="stroke:#A80036;stroke-width:1.0;stroke-dasharray:3.0,3.0;"/><path d="M1988.8169,396.3148 L1991.4721,393.5481 L1989.5594,390.2244 L1996.8012,394.1978 L1988.8169,396.3148 " fill="#A80036" style="stroke:#A80036;stroke-width:1.0;"/><ellipse cx="1666.5" cy="371.5" fill="#A80036" rx="3" ry="3" style="stroke:#A80036;stroke-width:1.0;stroke-dasharray:3.0,3.0;"/><path d="M1666.5,392.5 L1679.5,392.5 C1742.5301,392.5 1753.0655,421.597 1808,452.5 C1824.7598,461.9281 1825.9927,469.7534 1844,476.5 C1898.944,497.0853 1962.8134,507.4025 2018.1377,512.4595 " fill="none" style="stroke:#A80036;stroke-width:1.0;stroke-dasharray:3.0,3.0;"/><path d="M2017.866,515.5587 L2020.4621,512.6633 L2018.4093,509.3603 L2025.8856,513.1387 L2017.866,515.5587 " fill="#A80036" style="stroke:#A80036;stroke-width:1.0;"/><ellipse cx="1666.5" cy="392.5" fill="#A80036" rx="3" ry="3" style="stroke:#A80036;stroke-width:1.0;stroke-dasharray:3.0,3.0;"/><path d="M1666.5,412.5 L1679.5,412.5 C1739.3141,412.5 1765.0448,410.8757 1808,452.5 C1843.1267,486.5384 1806.0173,525.681 1844,556.5 C1862.4409,571.4629 1883.6533,582.4351 1906.1401,590.3462 " fill="none" style="stroke:#A80036;stroke-width:1.0;stroke-dasharray:3.0,3.0;"/><path d="M1905.1552,593.2838 L1908.3432,591.0849 L1907.125,587.4087 L1913.4839,592.8084 L1905.1552,593.2838 " fill="#A80036" style="stroke:#A80036;stroke-width:1.0;"/><ellipse cx="1666.5" cy="412.5" fill="#A80036" rx="3" ry="3" style="stroke:#A80036;stroke-width:1.0;stroke-dasharray:3.0,3.0;"/><path d="M1666.5,433.5 L1679.5,433.5 C1737.232,433.5 1766.2205,412.6571 1808,452.5 C1867.9874,509.7068 1785.8725,576.4042 1844,635.5 C1845.0802,636.5982 1846.1739,637.6803 1847.2807,638.7464 " fill="none" style="stroke:#A80036;stroke-width:1.0;stroke-dasharray:3.0,3.0;"/><path d="M1845.2012,641.0027 L1848.973,640.306 L1849.3602,636.49 L1852.9217,643.9451 L1845.2012,641.0027 " fill="#A80036" style="stroke:#A80036;stroke-width:1.0;"/><ellipse cx="1666.5" cy="433.5" fill="#A80036" rx="3" ry="3" style="stroke:#A80036;stroke-width:1.0;stroke-dasharray:3.0,3.0;"/><path d="M1354,381.5 L1367,381.5 C1419.7193,381.5 1478.7898,376.5462 1524.8316,371.5695 " fill="none" style="stroke:#A80036;stroke-width:1.0;stroke-dasharray:3.0,3.0;"/><path d="M1525.1639,374.5955 L1527.1011,371.3203 L1524.4994,368.5435 L1532.3966,370.7389 L1525.1639,374.5955 " fill="#A80036" style="stroke:#A80036;stroke-width:1.0;"/><ellipse cx="1354" cy="381.5" fill="#A80036" rx="3" ry="3" style="stroke:#A80036;stroke-width:1.0;stroke-dasharray:3.0,3.0;"/><path d="M1354,451.5 L1367,451.5 C1392.14,451.5 1446.9228,456.006 1497.5441,460.7404 " fill="none" style="stroke:#A80036;stroke-width:1.0;stroke-dasharray:3.0,3.0;"/><path d="M1497.252,463.8437 L1499.8716,460.9595 L1497.8363,457.637 L1505.3025,461.4707 L1497.252,463.8437 " fill="#A80036" style="stroke:#A80036;stroke-width:1.0;"/><ellipse cx="1354" cy="451.5" fill="#A80036" rx="3" ry="3" style="stroke:#A80036;stroke-width:1.0;stroke-dasharray:3.0,3.0;"/><path d="M505.5,381.5 L518.5,381.5 C605.9994,381.5 701.1685,381.5 787.8723,381.5 " fill="none" style="stroke:#A80036;stroke-width:1.0;stroke-dasharray:3.0,3.0;"/><path d="M787.8723,384.5237 L790.14,381.5 L787.8723,378.4763 L795.4315,381.5 L787.8723,384.5237 " fill="#A80036" style="stroke:#A80036;stroke-width:1.0;"/><ellipse cx="505.5" cy="381.5" fill="#A80036" rx="3" ry="3" style="stroke:#A80036;stroke-width:1.0;stroke-dasharray:3.0,3.0;"/><path d="M95,357.5 L108,357.5 C124.1536,357.5 127.927,360.888 144,362.5 C223.8691,370.5103 315.8082,375.6704 377.9937,378.5622 " fill="none" style="stroke:#A80036;stroke-width:1.0;stroke-dasharray:3.0,3.0;"/><path d="M377.8502,381.6872 L380.3374,378.6698 L378.1372,375.4372 L385.8061,378.9208 L377.8502,381.6872 " fill="#A80036" style="stroke:#A80036;stroke-width:1.0;"/><ellipse cx="95" cy="357.5" fill="#A80036" rx="3" ry="3" style="stroke:#A80036;stroke-width:1.0;stroke-dasharray:3.0,3.0;"/><!--MD5=[954f874eeb82b5782072d8a6ac66dd28]
@startjson
{
  "info": {
    "copyright": "Copyright 2018-2019 Open Connectivity Foundation, Inc. All rights reserved.",
    "license": "https://github.com/one-data-model/oneDM/blob/master/LICENSE",
    "title": "Battery",
    "version": "2019-06-18"
  },
  "sdfObject": {
    "energy.battery": {
      "description": "This Resource describes the attributes associated with a battery. The\\nProperty \"charge\" is an integer showing the current battery charge\\nlevel as a percentage in the range 0 (fully discharged) to 100 (fully\\ncharged). The Property \"capacity\" represents the total capacity of\\nbattery in Amp Hours (Ah). The \"charging\" status and \"discharging\"\\nstatus are represented by boolean values set to \"true\" indicating\\nenabled and \"false\" indicating disabled. Low battery status is\\nrepresented by a boolean value set to \"true\" indicating low charge\\nlevel and \"false\" indicating otherwise, based upon the battery\\nthreshold represented as a percentage.",
      "sdfProperty": {
        "discharging": {
          "description": "The status of discharging.",
          "writable": false,
          "type": "boolean"
        },
        "lowbattery": {
          "description": "The status of the low battery warning based upon the defined\\nthreshold.",
          "writable": false,
          "type": "boolean"
        },
        "capacity": {
          "description": "The total capacity in Amp-hours (Ah).",
          "writable": false,
          "type": "number"
        },
        "batterythreshold": {
          "description": "The threshold percentage for the low battery warning.",
          "maximum": 100,
          "minimum": 0,
          "type": "integer"
        },
        "charge": {
          "description": "The current charge percentage.",
          "maximum": 100,
          "minimum": 0,
          "writable": false,
          "type": "integer"
        },
        "charging": {
          "description": "The status of charging.",
          "writable": false,
          "type": "boolean"
        },
        "defect": {
          "description": "Battery defect detected. True = defect, False = no defect",
          "writable": false,
          "type": "boolean"
        },
        "timestamp": {
          "description": "An RFC3339 formatted time indicating when the data was observed\\n(e.g.: 2016-02-15T09:19Z, 1996-12-19T16:39:57-08:00). Note that 1/100\\ntime resolution should be used.",
          "format": "date-time",
          "writable": false,
          "type": "string"
        }
      },
      "sdfRequired": [
        "#/sdfObject/energy.battery/sdfProperty/batterythreshold"
      ]
    }
  }
}
@endjson

PlantUML version 1.2021.2(Sun Mar 07 13:10:27 EET 2021)
(GPL source distribution)
Java Runtime: OpenJDK Runtime Environment
JVM: OpenJDK 64-Bit Server VM
Default Encoding: UTF-8
Language: en
Country: FI
--></g></svg>