<?xml version="1.0" encoding="UTF-8" standalone="no"?><svg xmlns="http://www.w3.org/2000/svg" xmlns:xlink="http://www.w3.org/1999/xlink" contentScriptType="application/ecmascript" contentStyleType="text/css" height="210px" preserveAspectRatio="none" style="width:2281px;height:210px;" version="1.1" viewBox="0 0 2281 210" width="2281px" zoomAndPan="magnify"><defs/><g><rect fill="#FEFECE" height="40.9766" rx="5" ry="5" style="stroke:#FEFECE;stroke-width:1.5;" width="97" x="10" y="65.5"/><text fill="#000000" font-family="sans-serif" font-size="14" lengthAdjust="spacing" textLength="27" x="15" y="81.0352">info</text><text fill="#000000" font-family="sans-serif" font-size="14" lengthAdjust="spacing" textLength="0" x="102" y="81.0352"/><line style="stroke:#A80036;stroke-width:1.0;" x1="85" x2="85" y1="65.5" y2="85.9883"/><line style="stroke:#A80036;stroke-width:1.0;" x1="10" x2="107" y1="85.9883" y2="85.9883"/><text fill="#000000" font-family="sans-serif" font-size="14" lengthAdjust="spacing" textLength="65" x="15" y="101.5234">sdfObject</text><text fill="#000000" font-family="sans-serif" font-size="14" lengthAdjust="spacing" textLength="0" x="102" y="101.5234"/><line style="stroke:#A80036;stroke-width:1.0;" x1="85" x2="85" y1="85.9883" y2="106.4766"/><rect fill="none" height="40.9766" rx="5" ry="5" style="stroke:#A80036;stroke-width:1.5;" width="97" x="10" y="65.5"/><rect fill="#FEFECE" height="81.9531" rx="5" ry="5" style="stroke:#FEFECE;stroke-width:1.5;" width="655" x="144" y="10"/><text fill="#000000" font-family="sans-serif" font-size="14" lengthAdjust="spacing" textLength="65" x="149" y="25.5352">copyright</text><text fill="#000000" font-family="sans-serif" font-size="14" lengthAdjust="spacing" textLength="570" x="224" y="25.5352">copyright 2016-2017, 2019 Open Connectivity Foundation, Inc. All rights reserved.</text><line style="stroke:#A80036;stroke-width:1.0;" x1="219" x2="219" y1="10" y2="30.4883"/><line style="stroke:#A80036;stroke-width:1.0;" x1="144" x2="799" y1="30.4883" y2="30.4883"/><text fill="#000000" font-family="sans-serif" font-size="14" lengthAdjust="spacing" textLength="47" x="149" y="46.0234">license</text><text fill="#000000" font-family="sans-serif" font-size="14" lengthAdjust="spacing" textLength="462" x="224" y="46.0234">https://github.com/one-data-model/oneDM/blob/master/LICENSE</text><line style="stroke:#A80036;stroke-width:1.0;" x1="219" x2="219" y1="30.4883" y2="50.9766"/><line style="stroke:#A80036;stroke-width:1.0;" x1="144" x2="799" y1="50.9766" y2="50.9766"/><text fill="#000000" font-family="sans-serif" font-size="14" lengthAdjust="spacing" textLength="26" x="149" y="66.5117">title</text><text fill="#000000" font-family="sans-serif" font-size="14" lengthAdjust="spacing" textLength="38" x="224" y="66.5117">Clock</text><line style="stroke:#A80036;stroke-width:1.0;" x1="219" x2="219" y1="50.9766" y2="71.4648"/><line style="stroke:#A80036;stroke-width:1.0;" x1="144" x2="799" y1="71.4648" y2="71.4648"/><text fill="#000000" font-family="sans-serif" font-size="14" lengthAdjust="spacing" textLength="50" x="149" y="87">version</text><text fill="#000000" font-family="sans-serif" font-size="14" lengthAdjust="spacing" textLength="88" x="224" y="87">2019-03-27</text><line style="stroke:#A80036;stroke-width:1.0;" x1="219" x2="219" y1="71.4648" y2="91.9531"/><rect fill="none" height="81.9531" rx="5" ry="5" style="stroke:#A80036;stroke-width:1.5;" width="655" x="144" y="10"/><rect fill="#FEFECE" height="20.4883" rx="5" ry="5" style="stroke:#FEFECE;stroke-width:1.5;" width="67" x="438" y="110"/><text fill="#000000" font-family="sans-serif" font-size="14" lengthAdjust="spacing" textLength="35" x="443" y="125.5352">clock</text><text fill="#000000" font-family="sans-serif" font-size="14" lengthAdjust="spacing" textLength="0" x="500" y="125.5352"/><line style="stroke:#A80036;stroke-width:1.0;" x1="483" x2="483" y1="110" y2="130.4883"/><rect fill="none" height="20.4883" rx="5" ry="5" style="stroke:#A80036;stroke-width:1.5;" width="67" x="438" y="110"/><rect fill="#FEFECE" height="127.418" rx="5" ry="5" style="stroke:#FEFECE;stroke-width:1.5;" width="582" x="836" y="56.5"/><text fill="#000000" font-family="sans-serif" font-size="14" lengthAdjust="spacing" textLength="77" x="841" y="72.0352">description</text><text fill="#000000" font-family="sans-serif" font-size="14" lengthAdjust="spacing" textLength="444" x="934" y="72.0352">This Resource describes the properties associated with clock and</text><text fill="#000000" font-family="sans-serif" font-size="14" lengthAdjust="spacing" textLength="449" x="934" y="88.5234">time. Clock is a time information. The Property "datetime" is using</text><text fill="#000000" font-family="sans-serif" font-size="14" lengthAdjust="spacing" textLength="379" x="934" y="105.0117">RFC3339 datetime format (e. g: "2007-04-05T14:30Z")</text><text fill="#000000" font-family="sans-serif" font-size="14" lengthAdjust="spacing" textLength="479" x="934" y="121.5">(Time+Date+Timezone) The Property "countdown" is the desired total</text><text fill="#000000" font-family="sans-serif" font-size="14" lengthAdjust="spacing" textLength="165" x="934" y="137.9883">seconds for countdown.</text><line style="stroke:#A80036;stroke-width:1.0;" x1="929" x2="929" y1="56.5" y2="142.9414"/><line style="stroke:#A80036;stroke-width:1.0;" x1="836" x2="1418" y1="142.9414" y2="142.9414"/><text fill="#000000" font-family="sans-serif" font-size="14" lengthAdjust="spacing" textLength="79" x="841" y="158.4766">sdfProperty</text><text fill="#000000" font-family="sans-serif" font-size="14" lengthAdjust="spacing" textLength="0" x="946" y="158.4766"/><line style="stroke:#A80036;stroke-width:1.0;" x1="929" x2="929" y1="142.9414" y2="163.4297"/><line style="stroke:#A80036;stroke-width:1.0;" x1="836" x2="1418" y1="163.4297" y2="163.4297"/><text fill="#000000" font-family="sans-serif" font-size="14" lengthAdjust="spacing" textLength="83" x="841" y="178.9648">sdfRequired</text><text fill="#000000" font-family="sans-serif" font-size="14" lengthAdjust="spacing" textLength="0" x="946" y="178.9648"/><line style="stroke:#A80036;stroke-width:1.0;" x1="929" x2="929" y1="163.4297" y2="183.918"/><rect fill="none" height="127.418" rx="5" ry="5" style="stroke:#A80036;stroke-width:1.5;" width="582" x="836" y="56.5"/><rect fill="#FEFECE" height="40.9766" rx="5" ry="5" style="stroke:#FEFECE;stroke-width:1.5;" width="109" x="1543.5" y="95.5"/><text fill="#000000" font-family="sans-serif" font-size="14" lengthAdjust="spacing" textLength="77" x="1548.5" y="111.0352">countdown</text><text fill="#000000" font-family="sans-serif" font-size="14" lengthAdjust="spacing" textLength="0" x="1647.5" y="111.0352"/><line style="stroke:#A80036;stroke-width:1.0;" x1="1630.5" x2="1630.5" y1="95.5" y2="115.9883"/><line style="stroke:#A80036;stroke-width:1.0;" x1="1543.5" x2="1652.5" y1="115.9883" y2="115.9883"/><text fill="#000000" font-family="sans-serif" font-size="14" lengthAdjust="spacing" textLength="60" x="1548.5" y="131.5234">datetime</text><text fill="#000000" font-family="sans-serif" font-size="14" lengthAdjust="spacing" textLength="0" x="1647.5" y="131.5234"/><line style="stroke:#A80036;stroke-width:1.0;" x1="1630.5" x2="1630.5" y1="115.9883" y2="136.4766"/><rect fill="none" height="40.9766" rx="5" ry="5" style="stroke:#A80036;stroke-width:1.5;" width="109" x="1543.5" y="95.5"/><rect fill="#FEFECE" height="61.4648" rx="5" ry="5" style="stroke:#FEFECE;stroke-width:1.5;" width="382" x="1832.5" y="41.5"/><text fill="#000000" font-family="sans-serif" font-size="14" lengthAdjust="spacing" textLength="77" x="1837.5" y="57.0352">description</text><text fill="#000000" font-family="sans-serif" font-size="14" lengthAdjust="spacing" textLength="285" x="1924.5" y="57.0352">The desired total seconds for countdown.</text><line style="stroke:#A80036;stroke-width:1.0;" x1="1919.5" x2="1919.5" y1="41.5" y2="61.9883"/><line style="stroke:#A80036;stroke-width:1.0;" x1="1832.5" x2="2214.5" y1="61.9883" y2="61.9883"/><text fill="#000000" font-family="sans-serif" font-size="14" lengthAdjust="spacing" textLength="65" x="1837.5" y="77.5234">minimum</text><text fill="#000000" font-family="sans-serif" font-size="14" lengthAdjust="spacing" textLength="9" x="1924.5" y="77.5234">0</text><line style="stroke:#A80036;stroke-width:1.0;" x1="1919.5" x2="1919.5" y1="61.9883" y2="82.4766"/><line style="stroke:#A80036;stroke-width:1.0;" x1="1832.5" x2="2214.5" y1="82.4766" y2="82.4766"/><text fill="#000000" font-family="sans-serif" font-size="14" lengthAdjust="spacing" textLength="29" x="1837.5" y="98.0117">type</text><text fill="#000000" font-family="sans-serif" font-size="14" lengthAdjust="spacing" textLength="54" x="1924.5" y="98.0117">number</text><line style="stroke:#A80036;stroke-width:1.0;" x1="1919.5" x2="1919.5" y1="82.4766" y2="102.9648"/><rect fill="none" height="61.4648" rx="5" ry="5" style="stroke:#A80036;stroke-width:1.5;" width="382" x="1832.5" y="41.5"/><rect fill="#FEFECE" height="77.9531" rx="5" ry="5" style="stroke:#FEFECE;stroke-width:1.5;" width="491" x="1778" y="121"/><text fill="#000000" font-family="sans-serif" font-size="14" lengthAdjust="spacing" textLength="77" x="1783" y="136.5352">description</text><text fill="#000000" font-family="sans-serif" font-size="14" lengthAdjust="spacing" textLength="351" x="1870" y="136.5352">Rhe date time using RFC3339 datetime format (e.g:</text><text fill="#000000" font-family="sans-serif" font-size="14" lengthAdjust="spacing" textLength="394" x="1870" y="153.0234">2007-04-05T14:30:00Z, 2007-04-05T14:30:00+09:00).</text><line style="stroke:#A80036;stroke-width:1.0;" x1="1865" x2="1865" y1="121" y2="157.9766"/><line style="stroke:#A80036;stroke-width:1.0;" x1="1778" x2="2269" y1="157.9766" y2="157.9766"/><text fill="#000000" font-family="sans-serif" font-size="14" lengthAdjust="spacing" textLength="29" x="1783" y="173.5117">type</text><text fill="#000000" font-family="sans-serif" font-size="14" lengthAdjust="spacing" textLength="40" x="1870" y="173.5117">string</text><line style="stroke:#A80036;stroke-width:1.0;" x1="1865" x2="1865" y1="157.9766" y2="178.4648"/><line style="stroke:#A80036;stroke-width:1.0;" x1="1778" x2="2269" y1="178.4648" y2="178.4648"/><text fill="#000000" font-family="sans-serif" font-size="14" lengthAdjust="spacing" textLength="46" x="1783" y="194">format</text><text fill="#000000" font-family="sans-serif" font-size="14" lengthAdjust="spacing" textLength="68" x="1870" y="194">date-time</text><line style="stroke:#A80036;stroke-width:1.0;" x1="1865" x2="1865" y1="178.4648" y2="198.9531"/><rect fill="none" height="77.9531" rx="5" ry="5" style="stroke:#A80036;stroke-width:1.5;" width="491" x="1778" y="121"/><rect fill="#FEFECE" height="20.4883" rx="5" ry="5" style="stroke:#FEFECE;stroke-width:1.5;" width="286" x="1455" y="155"/><text fill="#000000" font-family="sans-serif" font-size="14" lengthAdjust="spacing" textLength="276" x="1460" y="170.5352">#/sdfObject/clock/sdfProperty/datetime</text><rect fill="none" height="20.4883" rx="5" ry="5" style="stroke:#A80036;stroke-width:1.5;" width="286" x="1455" y="155"/><path d="M95,75 L108,75 C117.3442,75 126.8208,74.9198 136.3833,74.7688 " fill="none" style="stroke:#A80036;stroke-width:1.0;stroke-dasharray:3.0,3.0;"/><path d="M136.4378,77.8434 L138.6892,74.7279 L136.3288,71.6942 L144.0697,74.6326 L136.4378,77.8434 " fill="#A80036" style="stroke:#A80036;stroke-width:1.0;"/><ellipse cx="95" cy="75" fill="#A80036" rx="3" ry="3" style="stroke:#A80036;stroke-width:1.0;stroke-dasharray:3.0,3.0;"/><path d="M1641.5,105 L1654.5,105 C1710.0184,105 1770.0549,101.2381 1825.2297,96.2546 " fill="none" style="stroke:#A80036;stroke-width:1.0;stroke-dasharray:3.0,3.0;"/><path d="M1825.5141,99.3554 L1827.5553,96.0413 L1824.9453,93.1537 L1832.9818,95.5435 L1825.5141,99.3554 " fill="#A80036" style="stroke:#A80036;stroke-width:1.0;"/><ellipse cx="1641.5" cy="105" fill="#A80036" rx="3" ry="3" style="stroke:#A80036;stroke-width:1.0;stroke-dasharray:3.0,3.0;"/><path d="M1641.5,126 L1654.5,126 C1692.145,126 1731.862,127.7812 1770.7305,130.5281 " fill="none" style="stroke:#A80036;stroke-width:1.0;stroke-dasharray:3.0,3.0;"/><path d="M1770.5057,133.6327 L1773.059,130.6967 L1770.9553,127.4235 L1778.492,131.0901 L1770.5057,133.6327 " fill="#A80036" style="stroke:#A80036;stroke-width:1.0;"/><ellipse cx="1641.5" cy="126" fill="#A80036" rx="3" ry="3" style="stroke:#A80036;stroke-width:1.0;stroke-dasharray:3.0,3.0;"/><path d="M1406,119 L1419,119 C1458.0439,119 1501.8849,118.2736 1536.3477,117.5356 " fill="none" style="stroke:#A80036;stroke-width:1.0;stroke-dasharray:3.0,3.0;"/><path d="M1536.4146,120.5965 L1538.6433,117.4854 L1536.2807,114.4747 L1543.9999,117.3683 L1536.4146,120.5965 " fill="#A80036" style="stroke:#A80036;stroke-width:1.0;"/><ellipse cx="1406" cy="119" fill="#A80036" rx="3" ry="3" style="stroke:#A80036;stroke-width:1.0;stroke-dasharray:3.0,3.0;"/><path d="M1406,162 L1419,162 C1428.2933,162 1437.8585,162.0412 1447.5042,162.1138 " fill="none" style="stroke:#A80036;stroke-width:1.0;stroke-dasharray:3.0,3.0;"/><path d="M1447.4783,165.2136 L1449.829,162.1333 L1447.5302,159.0141 L1455.2535,162.1787 L1447.4783,165.2136 " fill="#A80036" style="stroke:#A80036;stroke-width:1.0;"/><ellipse cx="1406" cy="162" fill="#A80036" rx="3" ry="3" style="stroke:#A80036;stroke-width:1.0;stroke-dasharray:3.0,3.0;"/><path d="M494,120 L507,120 C611.7951,120 726.5619,120 828.5283,120 " fill="none" style="stroke:#A80036;stroke-width:1.0;stroke-dasharray:3.0,3.0;"/><path d="M828.5283,123.0523 L830.8176,120 L828.5283,116.9477 L836.1591,120 L828.5283,123.0523 " fill="#A80036" style="stroke:#A80036;stroke-width:1.0;"/><ellipse cx="494" cy="120" fill="#A80036" rx="3" ry="3" style="stroke:#A80036;stroke-width:1.0;stroke-dasharray:3.0,3.0;"/><path d="M95,96 L108,96 C124.1536,96 127.924,99.4191 144,101 C247.1175,111.1403 369.1006,116.471 430.8567,118.7017 " fill="none" style="stroke:#A80036;stroke-width:1.0;stroke-dasharray:3.0,3.0;"/><path d="M430.7489,121.7366 L433.1328,118.7825 L430.9644,115.6668 L438.4439,118.971 L430.7489,121.7366 " fill="#A80036" style="stroke:#A80036;stroke-width:1.0;"/><ellipse cx="95" cy="96" fill="#A80036" rx="3" ry="3" style="stroke:#A80036;stroke-width:1.0;stroke-dasharray:3.0,3.0;"/><!--MD5=[1b05dcd21aa1a039bb62b60b88b51ba0]
@startjson
{
  "info": {
    "copyright": "copyright 2016-2017, 2019 Open Connectivity Foundation, Inc. All rights reserved.",
    "license": "https://github.com/one-data-model/oneDM/blob/master/LICENSE",
    "title": "Clock",
    "version": "2019-03-27"
  },
  "sdfObject": {
    "clock": {
      "description": "This Resource describes the properties associated with clock and\\ntime. Clock is a time information. The Property \"datetime\" is using\\nRFC3339 datetime format (e. g: \"2007-04-05T14:30Z\")\\n(Time+Date+Timezone) The Property \"countdown\" is the desired total\\nseconds for countdown.",
      "sdfProperty": {
        "countdown": {
          "description": "The desired total seconds for countdown.",
          "minimum": 0,
          "type": "number"
        },
        "datetime": {
          "description": "Rhe date time using RFC3339 datetime format (e.g:\\n2007-04-05T14:30:00Z, 2007-04-05T14:30:00+09:00).",
          "type": "string",
          "format": "date-time"
        }
      },
      "sdfRequired": [
        "#/sdfObject/clock/sdfProperty/datetime"
      ]
    }
  }
}
@endjson

PlantUML version 1.2021.2(Sun Mar 07 13:10:27 EET 2021)
(GPL source distribution)
Java Runtime: OpenJDK Runtime Environment
JVM: OpenJDK 64-Bit Server VM
Default Encoding: UTF-8
Language: en
Country: FI
--></g></svg>