<?xml version="1.0" encoding="UTF-8" standalone="no"?><svg xmlns="http://www.w3.org/2000/svg" xmlns:xlink="http://www.w3.org/1999/xlink" contentScriptType="application/ecmascript" contentStyleType="text/css" height="536px" preserveAspectRatio="none" style="width:2525px;height:536px;" version="1.1" viewBox="0 0 2525 536" width="2525px" zoomAndPan="magnify"><defs/><g><rect fill="#FEFECE" height="40.9766" rx="5" ry="5" style="stroke:#FEFECE;stroke-width:1.5;" width="97" x="10" y="230.5"/><text fill="#000000" font-family="sans-serif" font-size="14" lengthAdjust="spacing" textLength="27" x="15" y="246.0352">info</text><text fill="#000000" font-family="sans-serif" font-size="14" lengthAdjust="spacing" textLength="0" x="102" y="246.0352"/><line style="stroke:#A80036;stroke-width:1.0;" x1="85" x2="85" y1="230.5" y2="250.9883"/><line style="stroke:#A80036;stroke-width:1.0;" x1="10" x2="107" y1="250.9883" y2="250.9883"/><text fill="#000000" font-family="sans-serif" font-size="14" lengthAdjust="spacing" textLength="65" x="15" y="266.5234">sdfObject</text><text fill="#000000" font-family="sans-serif" font-size="14" lengthAdjust="spacing" textLength="0" x="102" y="266.5234"/><line style="stroke:#A80036;stroke-width:1.0;" x1="85" x2="85" y1="250.9883" y2="271.4766"/><rect fill="none" height="40.9766" rx="5" ry="5" style="stroke:#A80036;stroke-width:1.5;" width="97" x="10" y="230.5"/><rect fill="#FEFECE" height="81.9531" rx="5" ry="5" style="stroke:#FEFECE;stroke-width:1.5;" width="614" x="144" y="175"/><text fill="#000000" font-family="sans-serif" font-size="14" lengthAdjust="spacing" textLength="65" x="149" y="190.5352">copyright</text><text fill="#000000" font-family="sans-serif" font-size="14" lengthAdjust="spacing" textLength="529" x="224" y="190.5352">Copyright 2018-2019 Open Connectivity Foundation, Inc. All rights reserved.</text><line style="stroke:#A80036;stroke-width:1.0;" x1="219" x2="219" y1="175" y2="195.4883"/><line style="stroke:#A80036;stroke-width:1.0;" x1="144" x2="758" y1="195.4883" y2="195.4883"/><text fill="#000000" font-family="sans-serif" font-size="14" lengthAdjust="spacing" textLength="47" x="149" y="211.0234">license</text><text fill="#000000" font-family="sans-serif" font-size="14" lengthAdjust="spacing" textLength="462" x="224" y="211.0234">https://github.com/one-data-model/oneDM/blob/master/LICENSE</text><line style="stroke:#A80036;stroke-width:1.0;" x1="219" x2="219" y1="195.4883" y2="215.9766"/><line style="stroke:#A80036;stroke-width:1.0;" x1="144" x2="758" y1="215.9766" y2="215.9766"/><text fill="#000000" font-family="sans-serif" font-size="14" lengthAdjust="spacing" textLength="26" x="149" y="231.5117">title</text><text fill="#000000" font-family="sans-serif" font-size="14" lengthAdjust="spacing" textLength="374" x="224" y="231.5117">Sampling Interval for Continuous Glucose Meter (CGM)</text><line style="stroke:#A80036;stroke-width:1.0;" x1="219" x2="219" y1="215.9766" y2="236.4648"/><line style="stroke:#A80036;stroke-width:1.0;" x1="144" x2="758" y1="236.4648" y2="236.4648"/><text fill="#000000" font-family="sans-serif" font-size="14" lengthAdjust="spacing" textLength="50" x="149" y="252">version</text><text fill="#000000" font-family="sans-serif" font-size="14" lengthAdjust="spacing" textLength="88" x="224" y="252">2019-03-04</text><line style="stroke:#A80036;stroke-width:1.0;" x1="219" x2="219" y1="236.4648" y2="256.9531"/><rect fill="none" height="81.9531" rx="5" ry="5" style="stroke:#A80036;stroke-width:1.5;" width="614" x="144" y="175"/><rect fill="#FEFECE" height="20.4883" rx="5" ry="5" style="stroke:#FEFECE;stroke-width:1.5;" width="179" x="361.5" y="275"/><text fill="#000000" font-family="sans-serif" font-size="14" lengthAdjust="spacing" textLength="147" x="366.5" y="290.5352">cgm.samplinginterval</text><text fill="#000000" font-family="sans-serif" font-size="14" lengthAdjust="spacing" textLength="0" x="535.5" y="290.5352"/><line style="stroke:#A80036;stroke-width:1.0;" x1="518.5" x2="518.5" y1="275" y2="295.4883"/><rect fill="none" height="20.4883" rx="5" ry="5" style="stroke:#A80036;stroke-width:1.5;" width="179" x="361.5" y="275"/><rect fill="#FEFECE" height="77.9531" rx="5" ry="5" style="stroke:#FEFECE;stroke-width:1.5;" width="545" x="795" y="246"/><text fill="#000000" font-family="sans-serif" font-size="14" lengthAdjust="spacing" textLength="77" x="800" y="261.5352">description</text><text fill="#000000" font-family="sans-serif" font-size="14" lengthAdjust="spacing" textLength="442" x="893" y="261.5352">This Resource describes the Properties associated with Sampling</text><text fill="#000000" font-family="sans-serif" font-size="14" lengthAdjust="spacing" textLength="310" x="893" y="278.0234">Interval for Continuous Glucose Meter (CGM).</text><line style="stroke:#A80036;stroke-width:1.0;" x1="888" x2="888" y1="246" y2="282.9766"/><line style="stroke:#A80036;stroke-width:1.0;" x1="795" x2="1340" y1="282.9766" y2="282.9766"/><text fill="#000000" font-family="sans-serif" font-size="14" lengthAdjust="spacing" textLength="79" x="800" y="298.5117">sdfProperty</text><text fill="#000000" font-family="sans-serif" font-size="14" lengthAdjust="spacing" textLength="0" x="905" y="298.5117"/><line style="stroke:#A80036;stroke-width:1.0;" x1="888" x2="888" y1="282.9766" y2="303.4648"/><line style="stroke:#A80036;stroke-width:1.0;" x1="795" x2="1340" y1="303.4648" y2="303.4648"/><text fill="#000000" font-family="sans-serif" font-size="14" lengthAdjust="spacing" textLength="83" x="800" y="319">sdfRequired</text><text fill="#000000" font-family="sans-serif" font-size="14" lengthAdjust="spacing" textLength="0" x="905" y="319"/><line style="stroke:#A80036;stroke-width:1.0;" x1="888" x2="888" y1="303.4648" y2="323.9531"/><rect fill="none" height="77.9531" rx="5" ry="5" style="stroke:#A80036;stroke-width:1.5;" width="545" x="795" y="246"/><rect fill="#FEFECE" height="81.9531" rx="5" ry="5" style="stroke:#FEFECE;stroke-width:1.5;" width="95" x="1524" y="223"/><text fill="#000000" font-family="sans-serif" font-size="14" lengthAdjust="spacing" textLength="51" x="1529" y="238.5352">interval</text><text fill="#000000" font-family="sans-serif" font-size="14" lengthAdjust="spacing" textLength="0" x="1614" y="238.5352"/><line style="stroke:#A80036;stroke-width:1.0;" x1="1597" x2="1597" y1="223" y2="243.4883"/><line style="stroke:#A80036;stroke-width:1.0;" x1="1524" x2="1619" y1="243.4883" y2="243.4883"/><text fill="#000000" font-family="sans-serif" font-size="14" lengthAdjust="spacing" textLength="40" x="1529" y="259.0234">range</text><text fill="#000000" font-family="sans-serif" font-size="14" lengthAdjust="spacing" textLength="0" x="1614" y="259.0234"/><line style="stroke:#A80036;stroke-width:1.0;" x1="1597" x2="1597" y1="243.4883" y2="263.9766"/><line style="stroke:#A80036;stroke-width:1.0;" x1="1524" x2="1619" y1="263.9766" y2="263.9766"/><text fill="#000000" font-family="sans-serif" font-size="14" lengthAdjust="spacing" textLength="29" x="1529" y="279.5117">step</text><text fill="#000000" font-family="sans-serif" font-size="14" lengthAdjust="spacing" textLength="0" x="1614" y="279.5117"/><line style="stroke:#A80036;stroke-width:1.0;" x1="1597" x2="1597" y1="263.9766" y2="284.4648"/><line style="stroke:#A80036;stroke-width:1.0;" x1="1524" x2="1619" y1="284.4648" y2="284.4648"/><text fill="#000000" font-family="sans-serif" font-size="14" lengthAdjust="spacing" textLength="63" x="1529" y="300">precision</text><text fill="#000000" font-family="sans-serif" font-size="14" lengthAdjust="spacing" textLength="0" x="1614" y="300"/><line style="stroke:#A80036;stroke-width:1.0;" x1="1597" x2="1597" y1="284.4648" y2="304.9531"/><rect fill="none" height="81.9531" rx="5" ry="5" style="stroke:#A80036;stroke-width:1.5;" width="95" x="1524" y="223"/><rect fill="#FEFECE" height="81.9531" rx="5" ry="5" style="stroke:#FEFECE;stroke-width:1.5;" width="487" x="1844.5" y="10"/><text fill="#000000" font-family="sans-serif" font-size="14" lengthAdjust="spacing" textLength="77" x="1849.5" y="25.5352">description</text><text fill="#000000" font-family="sans-serif" font-size="14" lengthAdjust="spacing" textLength="390" x="1936.5" y="25.5352">This Property describes the Sampling interval in seconds.</text><line style="stroke:#A80036;stroke-width:1.0;" x1="1931.5" x2="1931.5" y1="10" y2="30.4883"/><line style="stroke:#A80036;stroke-width:1.0;" x1="1844.5" x2="2331.5" y1="30.4883" y2="30.4883"/><text fill="#000000" font-family="sans-serif" font-size="14" lengthAdjust="spacing" textLength="29" x="1849.5" y="46.0234">type</text><text fill="#000000" font-family="sans-serif" font-size="14" lengthAdjust="spacing" textLength="54" x="1936.5" y="46.0234">number</text><line style="stroke:#A80036;stroke-width:1.0;" x1="1931.5" x2="1931.5" y1="30.4883" y2="50.9766"/><line style="stroke:#A80036;stroke-width:1.0;" x1="1844.5" x2="2331.5" y1="50.9766" y2="50.9766"/><text fill="#000000" font-family="sans-serif" font-size="14" lengthAdjust="spacing" textLength="65" x="1849.5" y="66.5117">minimum</text><text fill="#000000" font-family="sans-serif" font-size="14" lengthAdjust="spacing" textLength="9" x="1936.5" y="66.5117">0</text><line style="stroke:#A80036;stroke-width:1.0;" x1="1931.5" x2="1931.5" y1="50.9766" y2="71.4648"/><line style="stroke:#A80036;stroke-width:1.0;" x1="1844.5" x2="2331.5" y1="71.4648" y2="71.4648"/><text fill="#000000" font-family="sans-serif" font-size="14" lengthAdjust="spacing" textLength="55" x="1849.5" y="87">writable</text><text fill="#000000" font-family="sans-serif" font-size="14" lengthAdjust="spacing" textLength="44" x="1936.5" y="87">☑ true</text><line style="stroke:#A80036;stroke-width:1.0;" x1="1931.5" x2="1931.5" y1="71.4648" y2="91.9531"/><rect fill="none" height="81.9531" rx="5" ry="5" style="stroke:#A80036;stroke-width:1.5;" width="487" x="1844.5" y="10"/><rect fill="#FEFECE" height="155.9063" rx="5" ry="5" style="stroke:#FEFECE;stroke-width:1.5;" width="548" x="1814" y="110"/><text fill="#000000" font-family="sans-serif" font-size="14" lengthAdjust="spacing" textLength="29" x="1819" y="125.5352">type</text><text fill="#000000" font-family="sans-serif" font-size="14" lengthAdjust="spacing" textLength="35" x="1906" y="125.5352">array</text><line style="stroke:#A80036;stroke-width:1.0;" x1="1901" x2="1901" y1="110" y2="130.4883"/><line style="stroke:#A80036;stroke-width:1.0;" x1="1814" x2="2362" y1="130.4883" y2="130.4883"/><text fill="#000000" font-family="sans-serif" font-size="14" lengthAdjust="spacing" textLength="77" x="1819" y="146.0234">description</text><text fill="#000000" font-family="sans-serif" font-size="14" lengthAdjust="spacing" textLength="451" x="1906" y="146.0234">The valid range for the Property in the Resource as a number. The</text><text fill="#000000" font-family="sans-serif" font-size="14" lengthAdjust="spacing" textLength="439" x="1906" y="162.5117">first value in the array is the minimum value, the second value in</text><text fill="#000000" font-family="sans-serif" font-size="14" lengthAdjust="spacing" textLength="219" x="1906" y="179">the array is the maximum value.</text><line style="stroke:#A80036;stroke-width:1.0;" x1="1901" x2="1901" y1="130.4883" y2="183.9531"/><line style="stroke:#A80036;stroke-width:1.0;" x1="1814" x2="2362" y1="183.9531" y2="183.9531"/><text fill="#000000" font-family="sans-serif" font-size="14" lengthAdjust="spacing" textLength="55" x="1819" y="199.4883">writable</text><text fill="#000000" font-family="sans-serif" font-size="14" lengthAdjust="spacing" textLength="48" x="1906" y="199.4883">☐ false</text><line style="stroke:#A80036;stroke-width:1.0;" x1="1901" x2="1901" y1="183.9531" y2="204.4414"/><line style="stroke:#A80036;stroke-width:1.0;" x1="1814" x2="2362" y1="204.4414" y2="204.4414"/><text fill="#000000" font-family="sans-serif" font-size="14" lengthAdjust="spacing" textLength="63" x="1819" y="219.9766">minItems</text><text fill="#000000" font-family="sans-serif" font-size="14" lengthAdjust="spacing" textLength="9" x="1906" y="219.9766">2</text><line style="stroke:#A80036;stroke-width:1.0;" x1="1901" x2="1901" y1="204.4414" y2="224.9297"/><line style="stroke:#A80036;stroke-width:1.0;" x1="1814" x2="2362" y1="224.9297" y2="224.9297"/><text fill="#000000" font-family="sans-serif" font-size="14" lengthAdjust="spacing" textLength="67" x="1819" y="240.4648">maxItems</text><text fill="#000000" font-family="sans-serif" font-size="14" lengthAdjust="spacing" textLength="9" x="1906" y="240.4648">2</text><line style="stroke:#A80036;stroke-width:1.0;" x1="1901" x2="1901" y1="224.9297" y2="245.418"/><line style="stroke:#A80036;stroke-width:1.0;" x1="1814" x2="2362" y1="245.418" y2="245.418"/><text fill="#000000" font-family="sans-serif" font-size="14" lengthAdjust="spacing" textLength="37" x="1819" y="260.9531">items</text><text fill="#000000" font-family="sans-serif" font-size="14" lengthAdjust="spacing" textLength="0" x="1918" y="260.9531"/><line style="stroke:#A80036;stroke-width:1.0;" x1="1901" x2="1901" y1="245.418" y2="265.9063"/><rect fill="none" height="155.9063" rx="5" ry="5" style="stroke:#A80036;stroke-width:1.5;" width="548" x="1814" y="110"/><rect fill="#FEFECE" height="20.4883" rx="5" ry="5" style="stroke:#FEFECE;stroke-width:1.5;" width="103" x="2410" y="243"/><text fill="#000000" font-family="sans-serif" font-size="14" lengthAdjust="spacing" textLength="29" x="2415" y="258.5352">type</text><text fill="#000000" font-family="sans-serif" font-size="14" lengthAdjust="spacing" textLength="54" x="2454" y="258.5352">number</text><line style="stroke:#A80036;stroke-width:1.0;" x1="2449" x2="2449" y1="243" y2="263.4883"/><rect fill="none" height="20.4883" rx="5" ry="5" style="stroke:#A80036;stroke-width:1.5;" width="103" x="2410" y="243"/><rect fill="#FEFECE" height="110.9297" rx="5" ry="5" style="stroke:#FEFECE;stroke-width:1.5;" width="555" x="1810.5" y="284.5"/><text fill="#000000" font-family="sans-serif" font-size="14" lengthAdjust="spacing" textLength="77" x="1815.5" y="300.0352">description</text><text fill="#000000" font-family="sans-serif" font-size="14" lengthAdjust="spacing" textLength="456" x="1902.5" y="300.0352">Step value across the defined range an integer when the range is a</text><text fill="#000000" font-family="sans-serif" font-size="14" lengthAdjust="spacing" textLength="458" x="1902.5" y="316.5234">number.  This is the increment for valid values across the range; so</text><text fill="#000000" font-family="sans-serif" font-size="14" lengthAdjust="spacing" textLength="381" x="1902.5" y="333.0117">if range is 0.0..10.0 and step is 2.5 then valid values are</text><text fill="#000000" font-family="sans-serif" font-size="14" lengthAdjust="spacing" textLength="139" x="1902.5" y="349.5">0.0,2.5,5.0,7.5,10.0.</text><line style="stroke:#A80036;stroke-width:1.0;" x1="1897.5" x2="1897.5" y1="284.5" y2="354.4531"/><line style="stroke:#A80036;stroke-width:1.0;" x1="1810.5" x2="2365.5" y1="354.4531" y2="354.4531"/><text fill="#000000" font-family="sans-serif" font-size="14" lengthAdjust="spacing" textLength="55" x="1815.5" y="369.9883">writable</text><text fill="#000000" font-family="sans-serif" font-size="14" lengthAdjust="spacing" textLength="48" x="1902.5" y="369.9883">☐ false</text><line style="stroke:#A80036;stroke-width:1.0;" x1="1897.5" x2="1897.5" y1="354.4531" y2="374.9414"/><line style="stroke:#A80036;stroke-width:1.0;" x1="1810.5" x2="2365.5" y1="374.9414" y2="374.9414"/><text fill="#000000" font-family="sans-serif" font-size="14" lengthAdjust="spacing" textLength="29" x="1815.5" y="390.4766">type</text><text fill="#000000" font-family="sans-serif" font-size="14" lengthAdjust="spacing" textLength="54" x="1902.5" y="390.4766">number</text><line style="stroke:#A80036;stroke-width:1.0;" x1="1897.5" x2="1897.5" y1="374.9414" y2="395.4297"/><rect fill="none" height="110.9297" rx="5" ry="5" style="stroke:#A80036;stroke-width:1.5;" width="555" x="1810.5" y="284.5"/><rect fill="#FEFECE" height="110.9297" rx="5" ry="5" style="stroke:#FEFECE;stroke-width:1.5;" width="570" x="1803" y="413.5"/><text fill="#000000" font-family="sans-serif" font-size="14" lengthAdjust="spacing" textLength="29" x="1808" y="429.0352">type</text><text fill="#000000" font-family="sans-serif" font-size="14" lengthAdjust="spacing" textLength="54" x="1895" y="429.0352">number</text><line style="stroke:#A80036;stroke-width:1.0;" x1="1890" x2="1890" y1="413.5" y2="433.9883"/><line style="stroke:#A80036;stroke-width:1.0;" x1="1803" x2="2373" y1="433.9883" y2="433.9883"/><text fill="#000000" font-family="sans-serif" font-size="14" lengthAdjust="spacing" textLength="55" x="1808" y="449.5234">writable</text><text fill="#000000" font-family="sans-serif" font-size="14" lengthAdjust="spacing" textLength="48" x="1895" y="449.5234">☐ false</text><line style="stroke:#A80036;stroke-width:1.0;" x1="1890" x2="1890" y1="433.9883" y2="454.4766"/><line style="stroke:#A80036;stroke-width:1.0;" x1="1803" x2="2373" y1="454.4766" y2="454.4766"/><text fill="#000000" font-family="sans-serif" font-size="14" lengthAdjust="spacing" textLength="77" x="1808" y="470.0117">description</text><text fill="#000000" font-family="sans-serif" font-size="14" lengthAdjust="spacing" textLength="430" x="1895" y="470.0117">When exposed the value in 'precision' provides a +/- tolerance</text><text fill="#000000" font-family="sans-serif" font-size="14" lengthAdjust="spacing" textLength="473" x="1895" y="486.5">against the Properties in the Resource. Thus if a Property is UPDATED</text><text fill="#000000" font-family="sans-serif" font-size="14" lengthAdjust="spacing" textLength="465" x="1895" y="502.9883">to a value and that Property then RETRIEVED, the RETRIEVED value is</text><text fill="#000000" font-family="sans-serif" font-size="14" lengthAdjust="spacing" textLength="337" x="1895" y="519.4766">valid if in the range of the set value +/- precision</text><line style="stroke:#A80036;stroke-width:1.0;" x1="1890" x2="1890" y1="454.4766" y2="524.4297"/><rect fill="none" height="110.9297" rx="5" ry="5" style="stroke:#A80036;stroke-width:1.5;" width="570" x="1803" y="413.5"/><rect fill="#FEFECE" height="20.4883" rx="5" ry="5" style="stroke:#FEFECE;stroke-width:1.5;" width="389" x="1377" y="323"/><text fill="#000000" font-family="sans-serif" font-size="14" lengthAdjust="spacing" textLength="379" x="1382" y="338.5352">#/sdfObject/cgm.samplinginterval/sdfProperty/interval</text><rect fill="none" height="20.4883" rx="5" ry="5" style="stroke:#A80036;stroke-width:1.5;" width="389" x="1377" y="323"/><path d="M95,240 L108,240 C117.4068,240 126.9554,239.9088 136.5926,239.7376 " fill="none" style="stroke:#A80036;stroke-width:1.0;stroke-dasharray:3.0,3.0;"/><path d="M136.6543,242.8363 L138.9166,239.6914 L136.5309,236.6389 L144.3394,239.5834 L136.6543,242.8363 " fill="#A80036" style="stroke:#A80036;stroke-width:1.0;"/><ellipse cx="95" cy="240" fill="#A80036" rx="3" ry="3" style="stroke:#A80036;stroke-width:1.0;stroke-dasharray:3.0,3.0;"/><path d="M1608,233 L1621,233 C1720.9239,233 1710.9924,139.9793 1803,101 C1814.0895,96.3019 1825.6022,92.0452 1837.361,88.1885 " fill="none" style="stroke:#A80036;stroke-width:1.0;stroke-dasharray:3.0,3.0;"/><path d="M1838.301,91.1292 L1839.5665,87.4835 L1836.4209,85.2478 L1844.7127,85.8385 L1838.301,91.1292 " fill="#A80036" style="stroke:#A80036;stroke-width:1.0;"/><ellipse cx="1608" cy="233" fill="#A80036" rx="3" ry="3" style="stroke:#A80036;stroke-width:1.0;stroke-dasharray:3.0,3.0;"/><path d="M2350.5,253 L2363.5,253 C2376.235,253 2389.9056,253 2402.8621,253 " fill="none" style="stroke:#A80036;stroke-width:1.0;stroke-dasharray:3.0,3.0;"/><path d="M2402.8621,256.0134 L2405.1221,253 L2402.8621,249.9866 L2410.3956,253 L2402.8621,256.0134 " fill="#A80036" style="stroke:#A80036;stroke-width:1.0;"/><ellipse cx="2350.5" cy="253" fill="#A80036" rx="3" ry="3" style="stroke:#A80036;stroke-width:1.0;stroke-dasharray:3.0,3.0;"/><path d="M1608,253 L1621,253 C1681.2839,253 1745.5341,247.6095 1806.4669,239.9332 " fill="none" style="stroke:#A80036;stroke-width:1.0;stroke-dasharray:3.0,3.0;"/><path d="M1806.8658,243.053 L1808.8067,239.6341 L1806.068,236.8134 L1814.2664,238.936 L1806.8658,243.053 " fill="#A80036" style="stroke:#A80036;stroke-width:1.0;"/><ellipse cx="1608" cy="253" fill="#A80036" rx="3" ry="3" style="stroke:#A80036;stroke-width:1.0;stroke-dasharray:3.0,3.0;"/><path d="M1608,274 L1621,274 C1680.2231,274 1743.2621,279.2794 1803.2212,286.8518 " fill="none" style="stroke:#A80036;stroke-width:1.0;stroke-dasharray:3.0,3.0;"/><path d="M1802.8276,289.9221 L1805.5239,287.147 L1803.6147,283.7814 L1810.897,287.8358 L1802.8276,289.9221 " fill="#A80036" style="stroke:#A80036;stroke-width:1.0;"/><ellipse cx="1608" cy="274" fill="#A80036" rx="3" ry="3" style="stroke:#A80036;stroke-width:1.0;stroke-dasharray:3.0,3.0;"/><path d="M1608,295 L1621,295 C1686.436,295 1715.3762,273.7898 1767,314 C1801.3135,340.7271 1769.9499,376.7256 1803,405 C1804.3675,406.1699 1805.7518,407.3196 1807.1523,408.4495 " fill="none" style="stroke:#A80036;stroke-width:1.0;stroke-dasharray:3.0,3.0;"/><path d="M1805.221,410.9463 L1809.0249,409.898 L1809.0837,405.9528 L1813.3942,413.2779 L1805.221,410.9463 " fill="#A80036" style="stroke:#A80036;stroke-width:1.0;"/><ellipse cx="1608" cy="295" fill="#A80036" rx="3" ry="3" style="stroke:#A80036;stroke-width:1.0;stroke-dasharray:3.0,3.0;"/><path d="M1328,285 L1341,285 C1401.3917,285 1470.3349,277.731 1516.8629,271.7462 " fill="none" style="stroke:#A80036;stroke-width:1.0;stroke-dasharray:3.0,3.0;"/><path d="M1517.2574,274.769 L1519.13,271.4504 L1516.4685,268.7235 L1524.4199,270.7601 L1517.2574,274.769 " fill="#A80036" style="stroke:#A80036;stroke-width:1.0;"/><ellipse cx="1328" cy="285" fill="#A80036" rx="3" ry="3" style="stroke:#A80036;stroke-width:1.0;stroke-dasharray:3.0,3.0;"/><path d="M1328,311 L1341,311 C1344.2571,311 1403.4435,316.666 1460.9534,322.2471 " fill="none" style="stroke:#A80036;stroke-width:1.0;stroke-dasharray:3.0,3.0;"/><path d="M1460.6532,325.3394 L1463.2727,322.4723 L1461.2537,319.1547 L1468.6843,322.9978 L1460.6532,325.3394 " fill="#A80036" style="stroke:#A80036;stroke-width:1.0;"/><ellipse cx="1328" cy="311" fill="#A80036" rx="3" ry="3" style="stroke:#A80036;stroke-width:1.0;stroke-dasharray:3.0,3.0;"/><path d="M529.5,285 L542.5,285 C622.1126,285 708.5226,285 787.8013,285 " fill="none" style="stroke:#A80036;stroke-width:1.0;stroke-dasharray:3.0,3.0;"/><path d="M787.8013,288.0598 L790.0961,285 L787.8013,281.9402 L795.4507,285 L787.8013,288.0598 " fill="#A80036" style="stroke:#A80036;stroke-width:1.0;"/><ellipse cx="529.5" cy="285" fill="#A80036" rx="3" ry="3" style="stroke:#A80036;stroke-width:1.0;stroke-dasharray:3.0,3.0;"/><path d="M95,261 L108,261 C124.1536,261 127.927,264.388 144,266 C214.2034,273.0409 293.7322,277.8797 354.1836,280.9116 " fill="none" style="stroke:#A80036;stroke-width:1.0;stroke-dasharray:3.0,3.0;"/><path d="M354.032,283.9715 L356.4785,281.0254 L354.3353,277.8518 L361.8332,281.2908 L354.032,283.9715 " fill="#A80036" style="stroke:#A80036;stroke-width:1.0;"/><ellipse cx="95" cy="261" fill="#A80036" rx="3" ry="3" style="stroke:#A80036;stroke-width:1.0;stroke-dasharray:3.0,3.0;"/><!--MD5=[860d2103ad5e90ec88a356a0dcc10cd5]
@startjson
{
  "info": {
    "copyright": "Copyright 2018-2019 Open Connectivity Foundation, Inc. All rights reserved.",
    "license": "https://github.com/one-data-model/oneDM/blob/master/LICENSE",
    "title": "Sampling Interval for Continuous Glucose Meter (CGM)",
    "version": "2019-03-04"
  },
  "sdfObject": {
    "cgm.samplinginterval": {
      "description": "This Resource describes the Properties associated with Sampling\\nInterval for Continuous Glucose Meter (CGM).",
      "sdfProperty": {
        "interval": {
          "description": "This Property describes the Sampling interval in seconds.",
          "type": "number",
          "minimum": 0,
          "writable": true
        },
        "range": {
          "type": "array",
          "description": "The valid range for the Property in the Resource as a number. The\\nfirst value in the array is the minimum value, the second value in\\nthe array is the maximum value.",
          "writable": false,
          "minItems": 2,
          "maxItems": 2,
          "items": {
            "type": "number"
          }
        },
        "step": {
          "description": "Step value across the defined range an integer when the range is a\\nnumber.  This is the increment for valid values across the range; so\\nif range is 0.0..10.0 and step is 2.5 then valid values are\\n0.0,2.5,5.0,7.5,10.0.",
          "writable": false,
          "type": "number"
        },
        "precision": {
          "type": "number",
          "writable": false,
          "description": "When exposed the value in 'precision' provides a +/- tolerance\\nagainst the Properties in the Resource. Thus if a Property is UPDATED\\nto a value and that Property then RETRIEVED, the RETRIEVED value is\\nvalid if in the range of the set value +/- precision"
        }
      },
      "sdfRequired": [
        "#/sdfObject/cgm.samplinginterval/sdfProperty/interval"
      ]
    }
  }
}
@endjson

PlantUML version 1.2021.2(Sun Mar 07 13:10:27 EET 2021)
(GPL source distribution)
Java Runtime: OpenJDK Runtime Environment
JVM: OpenJDK 64-Bit Server VM
Default Encoding: UTF-8
Language: en
Country: FI
--></g></svg>