<?xml version="1.0" encoding="UTF-8" standalone="no"?><svg xmlns="http://www.w3.org/2000/svg" xmlns:xlink="http://www.w3.org/1999/xlink" contentScriptType="application/ecmascript" contentStyleType="text/css" height="1174px" preserveAspectRatio="none" style="width:2306px;height:1174px;" version="1.1" viewBox="0 0 2306 1174" width="2306px" zoomAndPan="magnify"><defs/><g><rect fill="#FEFECE" height="40.9766" rx="5" ry="5" style="stroke:#FEFECE;stroke-width:1.5;" width="97" x="10" y="803.5"/><text fill="#000000" font-family="sans-serif" font-size="14" lengthAdjust="spacing" textLength="27" x="15" y="819.0352">info</text><text fill="#000000" font-family="sans-serif" font-size="14" lengthAdjust="spacing" textLength="0" x="102" y="819.0352"/><line style="stroke:#A80036;stroke-width:1.0;" x1="85" x2="85" y1="803.5" y2="823.9883"/><line style="stroke:#A80036;stroke-width:1.0;" x1="10" x2="107" y1="823.9883" y2="823.9883"/><text fill="#000000" font-family="sans-serif" font-size="14" lengthAdjust="spacing" textLength="65" x="15" y="839.5234">sdfObject</text><text fill="#000000" font-family="sans-serif" font-size="14" lengthAdjust="spacing" textLength="0" x="102" y="839.5234"/><line style="stroke:#A80036;stroke-width:1.0;" x1="85" x2="85" y1="823.9883" y2="844.4766"/><rect fill="none" height="40.9766" rx="5" ry="5" style="stroke:#A80036;stroke-width:1.5;" width="97" x="10" y="803.5"/><rect fill="#FEFECE" height="81.9531" rx="5" ry="5" style="stroke:#FEFECE;stroke-width:1.5;" width="547" x="144" y="748"/><text fill="#000000" font-family="sans-serif" font-size="14" lengthAdjust="spacing" textLength="26" x="149" y="763.5352">title</text><text fill="#000000" font-family="sans-serif" font-size="14" lengthAdjust="spacing" textLength="248" x="224" y="763.5352">OMA LwM2M Timer (Object ID 3340)</text><line style="stroke:#A80036;stroke-width:1.0;" x1="219" x2="219" y1="748" y2="768.4883"/><line style="stroke:#A80036;stroke-width:1.0;" x1="144" x2="691" y1="768.4883" y2="768.4883"/><text fill="#000000" font-family="sans-serif" font-size="14" lengthAdjust="spacing" textLength="50" x="149" y="784.0234">version</text><text fill="#000000" font-family="sans-serif" font-size="14" lengthAdjust="spacing" textLength="88" x="224" y="784.0234">2021-02-11</text><line style="stroke:#A80036;stroke-width:1.0;" x1="219" x2="219" y1="768.4883" y2="788.9766"/><line style="stroke:#A80036;stroke-width:1.0;" x1="144" x2="691" y1="788.9766" y2="788.9766"/><text fill="#000000" font-family="sans-serif" font-size="14" lengthAdjust="spacing" textLength="65" x="149" y="804.5117">copyright</text><text fill="#000000" font-family="sans-serif" font-size="14" lengthAdjust="spacing" textLength="208" x="224" y="804.5117">Copyright (c) 2018-2020 IPSO</text><line style="stroke:#A80036;stroke-width:1.0;" x1="219" x2="219" y1="788.9766" y2="809.4648"/><line style="stroke:#A80036;stroke-width:1.0;" x1="144" x2="691" y1="809.4648" y2="809.4648"/><text fill="#000000" font-family="sans-serif" font-size="14" lengthAdjust="spacing" textLength="47" x="149" y="825">license</text><text fill="#000000" font-family="sans-serif" font-size="14" lengthAdjust="spacing" textLength="462" x="224" y="825">https://github.com/one-data-model/oneDM/blob/master/LICENSE</text><line style="stroke:#A80036;stroke-width:1.0;" x1="219" x2="219" y1="809.4648" y2="829.9531"/><rect fill="none" height="81.9531" rx="5" ry="5" style="stroke:#A80036;stroke-width:1.5;" width="547" x="144" y="748"/><rect fill="#FEFECE" height="20.4883" rx="5" ry="5" style="stroke:#FEFECE;stroke-width:1.5;" width="72" x="381.5" y="848"/><text fill="#000000" font-family="sans-serif" font-size="14" lengthAdjust="spacing" textLength="40" x="386.5" y="863.5352">Timer</text><text fill="#000000" font-family="sans-serif" font-size="14" lengthAdjust="spacing" textLength="0" x="448.5" y="863.5352"/><line style="stroke:#A80036;stroke-width:1.0;" x1="431.5" x2="431.5" y1="848" y2="868.4883"/><rect fill="none" height="20.4883" rx="5" ry="5" style="stroke:#A80036;stroke-width:1.5;" width="72" x="381.5" y="848"/><rect fill="#FEFECE" height="267.3242" rx="5" ry="5" style="stroke:#FEFECE;stroke-width:1.5;" width="590" x="728" y="724.5"/><text fill="#000000" font-family="sans-serif" font-size="14" lengthAdjust="spacing" textLength="33" x="733" y="740.0352">label</text><text fill="#000000" font-family="sans-serif" font-size="14" lengthAdjust="spacing" textLength="40" x="826" y="740.0352">Timer</text><line style="stroke:#A80036;stroke-width:1.0;" x1="821" x2="821" y1="724.5" y2="744.9883"/><line style="stroke:#A80036;stroke-width:1.0;" x1="728" x2="1318" y1="744.9883" y2="744.9883"/><text fill="#000000" font-family="sans-serif" font-size="14" lengthAdjust="spacing" textLength="77" x="733" y="760.5234">description</text><text fill="#000000" font-family="sans-serif" font-size="14" lengthAdjust="spacing" textLength="452" x="826" y="760.5234">This IPSO object is used to time events and actions, using patterns</text><text fill="#000000" font-family="sans-serif" font-size="14" lengthAdjust="spacing" textLength="428" x="826" y="777.0117">common to industrial timers. A write to the trigger resource or</text><text fill="#000000" font-family="sans-serif" font-size="14" lengthAdjust="spacing" textLength="466" x="826" y="793.5">On/Off input state change starts the timing operation, and the timer</text><text fill="#000000" font-family="sans-serif" font-size="14" lengthAdjust="spacing" textLength="440" x="826" y="809.9883">remaining time shows zero when the operation is complete. The</text><text fill="#000000" font-family="sans-serif" font-size="14" lengthAdjust="spacing" textLength="487" x="826" y="826.4766">patterns supported are One-Shot (mode 1), On-Time or Interval (mode</text><text fill="#000000" font-family="sans-serif" font-size="14" lengthAdjust="spacing" textLength="437" x="826" y="842.9648">2), Time delay on pick-up or TDPU (mode 3), and Time Delay on</text><text fill="#000000" font-family="sans-serif" font-size="14" lengthAdjust="spacing" textLength="481" x="826" y="859.4531">Drop-Out or TDDO (mode 4). Mode 0 disables the timer, so the output</text><text fill="#000000" font-family="sans-serif" font-size="14" lengthAdjust="spacing" textLength="426" x="826" y="875.9414">follows the input with no delay. A counter is provided to count</text><text fill="#000000" font-family="sans-serif" font-size="14" lengthAdjust="spacing" textLength="475" x="826" y="892.4297">occurrences of the timer output changing from 0 to 1. Writing a value</text><text fill="#000000" font-family="sans-serif" font-size="14" lengthAdjust="spacing" textLength="455" x="826" y="908.918">of zero resets the counter. The Digital Input State resource reports</text><text fill="#000000" font-family="sans-serif" font-size="14" lengthAdjust="spacing" textLength="197" x="826" y="925.4063">the state of the timer output.</text><line style="stroke:#A80036;stroke-width:1.0;" x1="821" x2="821" y1="744.9883" y2="930.3594"/><line style="stroke:#A80036;stroke-width:1.0;" x1="728" x2="1318" y1="930.3594" y2="930.3594"/><text fill="#000000" font-family="sans-serif" font-size="14" lengthAdjust="spacing" textLength="79" x="733" y="945.8945">sdfProperty</text><text fill="#000000" font-family="sans-serif" font-size="14" lengthAdjust="spacing" textLength="0" x="838" y="945.8945"/><line style="stroke:#A80036;stroke-width:1.0;" x1="821" x2="821" y1="930.3594" y2="950.8477"/><line style="stroke:#A80036;stroke-width:1.0;" x1="728" x2="1318" y1="950.8477" y2="950.8477"/><text fill="#000000" font-family="sans-serif" font-size="14" lengthAdjust="spacing" textLength="65" x="733" y="966.3828">sdfAction</text><text fill="#000000" font-family="sans-serif" font-size="14" lengthAdjust="spacing" textLength="0" x="838" y="966.3828"/><line style="stroke:#A80036;stroke-width:1.0;" x1="821" x2="821" y1="950.8477" y2="971.3359"/><line style="stroke:#A80036;stroke-width:1.0;" x1="728" x2="1318" y1="971.3359" y2="971.3359"/><text fill="#000000" font-family="sans-serif" font-size="14" lengthAdjust="spacing" textLength="83" x="733" y="986.8711">sdfRequired</text><text fill="#000000" font-family="sans-serif" font-size="14" lengthAdjust="spacing" textLength="0" x="838" y="986.8711"/><line style="stroke:#A80036;stroke-width:1.0;" x1="821" x2="821" y1="971.3359" y2="991.8242"/><rect fill="none" height="267.3242" rx="5" ry="5" style="stroke:#A80036;stroke-width:1.5;" width="590" x="728" y="724.5"/><rect fill="#FEFECE" height="204.8828" rx="5" ry="5" style="stroke:#FEFECE;stroke-width:1.5;" width="182" x="1431.5" y="462.5"/><text fill="#000000" font-family="sans-serif" font-size="14" lengthAdjust="spacing" textLength="104" x="1436.5" y="478.0352">Delay_Duration</text><text fill="#000000" font-family="sans-serif" font-size="14" lengthAdjust="spacing" textLength="0" x="1608.5" y="478.0352"/><line style="stroke:#A80036;stroke-width:1.0;" x1="1591.5" x2="1591.5" y1="462.5" y2="482.9883"/><line style="stroke:#A80036;stroke-width:1.0;" x1="1431.5" x2="1613.5" y1="482.9883" y2="482.9883"/><text fill="#000000" font-family="sans-serif" font-size="14" lengthAdjust="spacing" textLength="114" x="1436.5" y="498.5234">Remaining_Time</text><text fill="#000000" font-family="sans-serif" font-size="14" lengthAdjust="spacing" textLength="0" x="1608.5" y="498.5234"/><line style="stroke:#A80036;stroke-width:1.0;" x1="1591.5" x2="1591.5" y1="482.9883" y2="503.4766"/><line style="stroke:#A80036;stroke-width:1.0;" x1="1431.5" x2="1613.5" y1="503.4766" y2="503.4766"/><text fill="#000000" font-family="sans-serif" font-size="14" lengthAdjust="spacing" textLength="130" x="1436.5" y="519.0117">Minimum_Off-time</text><text fill="#000000" font-family="sans-serif" font-size="14" lengthAdjust="spacing" textLength="0" x="1608.5" y="519.0117"/><line style="stroke:#A80036;stroke-width:1.0;" x1="1591.5" x2="1591.5" y1="503.4766" y2="523.9648"/><line style="stroke:#A80036;stroke-width:1.0;" x1="1431.5" x2="1613.5" y1="523.9648" y2="523.9648"/><text fill="#000000" font-family="sans-serif" font-size="14" lengthAdjust="spacing" textLength="48" x="1436.5" y="539.5">On_Off</text><text fill="#000000" font-family="sans-serif" font-size="14" lengthAdjust="spacing" textLength="0" x="1608.5" y="539.5"/><line style="stroke:#A80036;stroke-width:1.0;" x1="1591.5" x2="1591.5" y1="523.9648" y2="544.4531"/><line style="stroke:#A80036;stroke-width:1.0;" x1="1431.5" x2="1613.5" y1="544.4531" y2="544.4531"/><text fill="#000000" font-family="sans-serif" font-size="14" lengthAdjust="spacing" textLength="150" x="1436.5" y="559.9883">Digital_Input_Counter</text><text fill="#000000" font-family="sans-serif" font-size="14" lengthAdjust="spacing" textLength="0" x="1608.5" y="559.9883"/><line style="stroke:#A80036;stroke-width:1.0;" x1="1591.5" x2="1591.5" y1="544.4531" y2="564.9414"/><line style="stroke:#A80036;stroke-width:1.0;" x1="1431.5" x2="1613.5" y1="564.9414" y2="564.9414"/><text fill="#000000" font-family="sans-serif" font-size="14" lengthAdjust="spacing" textLength="118" x="1436.5" y="580.4766">Cumulative_Time</text><text fill="#000000" font-family="sans-serif" font-size="14" lengthAdjust="spacing" textLength="0" x="1608.5" y="580.4766"/><line style="stroke:#A80036;stroke-width:1.0;" x1="1591.5" x2="1591.5" y1="564.9414" y2="585.4297"/><line style="stroke:#A80036;stroke-width:1.0;" x1="1431.5" x2="1613.5" y1="585.4297" y2="585.4297"/><text fill="#000000" font-family="sans-serif" font-size="14" lengthAdjust="spacing" textLength="85" x="1436.5" y="600.9648">Digital_State</text><text fill="#000000" font-family="sans-serif" font-size="14" lengthAdjust="spacing" textLength="0" x="1608.5" y="600.9648"/><line style="stroke:#A80036;stroke-width:1.0;" x1="1591.5" x2="1591.5" y1="585.4297" y2="605.918"/><line style="stroke:#A80036;stroke-width:1.0;" x1="1431.5" x2="1613.5" y1="605.918" y2="605.918"/><text fill="#000000" font-family="sans-serif" font-size="14" lengthAdjust="spacing" textLength="56" x="1436.5" y="621.4531">Counter</text><text fill="#000000" font-family="sans-serif" font-size="14" lengthAdjust="spacing" textLength="0" x="1608.5" y="621.4531"/><line style="stroke:#A80036;stroke-width:1.0;" x1="1591.5" x2="1591.5" y1="605.918" y2="626.4063"/><line style="stroke:#A80036;stroke-width:1.0;" x1="1431.5" x2="1613.5" y1="626.4063" y2="626.4063"/><text fill="#000000" font-family="sans-serif" font-size="14" lengthAdjust="spacing" textLength="85" x="1436.5" y="641.9414">Timer_Mode</text><text fill="#000000" font-family="sans-serif" font-size="14" lengthAdjust="spacing" textLength="0" x="1608.5" y="641.9414"/><line style="stroke:#A80036;stroke-width:1.0;" x1="1591.5" x2="1591.5" y1="626.4063" y2="646.8945"/><line style="stroke:#A80036;stroke-width:1.0;" x1="1431.5" x2="1613.5" y1="646.8945" y2="646.8945"/><text fill="#000000" font-family="sans-serif" font-size="14" lengthAdjust="spacing" textLength="118" x="1436.5" y="662.4297">Application_Type</text><text fill="#000000" font-family="sans-serif" font-size="14" lengthAdjust="spacing" textLength="0" x="1608.5" y="662.4297"/><line style="stroke:#A80036;stroke-width:1.0;" x1="1591.5" x2="1591.5" y1="646.8945" y2="667.3828"/><rect fill="none" height="204.8828" rx="5" ry="5" style="stroke:#A80036;stroke-width:1.5;" width="182" x="1431.5" y="462.5"/><rect fill="#FEFECE" height="81.9531" rx="5" ry="5" style="stroke:#FEFECE;stroke-width:1.5;" width="308" x="1856.5" y="10"/><text fill="#000000" font-family="sans-serif" font-size="14" lengthAdjust="spacing" textLength="33" x="1861.5" y="25.5352">label</text><text fill="#000000" font-family="sans-serif" font-size="14" lengthAdjust="spacing" textLength="101" x="1948.5" y="25.5352">Delay Duration</text><line style="stroke:#A80036;stroke-width:1.0;" x1="1943.5" x2="1943.5" y1="10" y2="30.4883"/><line style="stroke:#A80036;stroke-width:1.0;" x1="1856.5" x2="2164.5" y1="30.4883" y2="30.4883"/><text fill="#000000" font-family="sans-serif" font-size="14" lengthAdjust="spacing" textLength="77" x="1861.5" y="46.0234">description</text><text fill="#000000" font-family="sans-serif" font-size="14" lengthAdjust="spacing" textLength="211" x="1948.5" y="46.0234">The duration of the time delay.</text><line style="stroke:#A80036;stroke-width:1.0;" x1="1943.5" x2="1943.5" y1="30.4883" y2="50.9766"/><line style="stroke:#A80036;stroke-width:1.0;" x1="1856.5" x2="2164.5" y1="50.9766" y2="50.9766"/><text fill="#000000" font-family="sans-serif" font-size="14" lengthAdjust="spacing" textLength="29" x="1861.5" y="66.5117">type</text><text fill="#000000" font-family="sans-serif" font-size="14" lengthAdjust="spacing" textLength="54" x="1948.5" y="66.5117">number</text><line style="stroke:#A80036;stroke-width:1.0;" x1="1943.5" x2="1943.5" y1="50.9766" y2="71.4648"/><line style="stroke:#A80036;stroke-width:1.0;" x1="1856.5" x2="2164.5" y1="71.4648" y2="71.4648"/><text fill="#000000" font-family="sans-serif" font-size="14" lengthAdjust="spacing" textLength="27" x="1861.5" y="87">unit</text><text fill="#000000" font-family="sans-serif" font-size="14" lengthAdjust="spacing" textLength="7" x="1948.5" y="87">s</text><line style="stroke:#A80036;stroke-width:1.0;" x1="1943.5" x2="1943.5" y1="71.4648" y2="91.9531"/><rect fill="none" height="81.9531" rx="5" ry="5" style="stroke:#A80036;stroke-width:1.5;" width="308" x="1856.5" y="10"/><rect fill="#FEFECE" height="102.4414" rx="5" ry="5" style="stroke:#FEFECE;stroke-width:1.5;" width="344" x="1838.5" y="110"/><text fill="#000000" font-family="sans-serif" font-size="14" lengthAdjust="spacing" textLength="33" x="1843.5" y="125.5352">label</text><text fill="#000000" font-family="sans-serif" font-size="14" lengthAdjust="spacing" textLength="111" x="1930.5" y="125.5352">Remaining Time</text><line style="stroke:#A80036;stroke-width:1.0;" x1="1925.5" x2="1925.5" y1="110" y2="130.4883"/><line style="stroke:#A80036;stroke-width:1.0;" x1="1838.5" x2="2182.5" y1="130.4883" y2="130.4883"/><text fill="#000000" font-family="sans-serif" font-size="14" lengthAdjust="spacing" textLength="77" x="1843.5" y="146.0234">description</text><text fill="#000000" font-family="sans-serif" font-size="14" lengthAdjust="spacing" textLength="247" x="1930.5" y="146.0234">The time remaining in an operation.</text><line style="stroke:#A80036;stroke-width:1.0;" x1="1925.5" x2="1925.5" y1="130.4883" y2="150.9766"/><line style="stroke:#A80036;stroke-width:1.0;" x1="1838.5" x2="2182.5" y1="150.9766" y2="150.9766"/><text fill="#000000" font-family="sans-serif" font-size="14" lengthAdjust="spacing" textLength="55" x="1843.5" y="166.5117">writable</text><text fill="#000000" font-family="sans-serif" font-size="14" lengthAdjust="spacing" textLength="48" x="1930.5" y="166.5117">☐ false</text><line style="stroke:#A80036;stroke-width:1.0;" x1="1925.5" x2="1925.5" y1="150.9766" y2="171.4648"/><line style="stroke:#A80036;stroke-width:1.0;" x1="1838.5" x2="2182.5" y1="171.4648" y2="171.4648"/><text fill="#000000" font-family="sans-serif" font-size="14" lengthAdjust="spacing" textLength="29" x="1843.5" y="187">type</text><text fill="#000000" font-family="sans-serif" font-size="14" lengthAdjust="spacing" textLength="54" x="1930.5" y="187">number</text><line style="stroke:#A80036;stroke-width:1.0;" x1="1925.5" x2="1925.5" y1="171.4648" y2="191.9531"/><line style="stroke:#A80036;stroke-width:1.0;" x1="1838.5" x2="2182.5" y1="191.9531" y2="191.9531"/><text fill="#000000" font-family="sans-serif" font-size="14" lengthAdjust="spacing" textLength="27" x="1843.5" y="207.4883">unit</text><text fill="#000000" font-family="sans-serif" font-size="14" lengthAdjust="spacing" textLength="7" x="1930.5" y="207.4883">s</text><line style="stroke:#A80036;stroke-width:1.0;" x1="1925.5" x2="1925.5" y1="191.9531" y2="212.4414"/><rect fill="none" height="102.4414" rx="5" ry="5" style="stroke:#A80036;stroke-width:1.5;" width="344" x="1838.5" y="110"/><rect fill="#FEFECE" height="98.4414" rx="5" ry="5" style="stroke:#FEFECE;stroke-width:1.5;" width="551" x="1735" y="230"/><text fill="#000000" font-family="sans-serif" font-size="14" lengthAdjust="spacing" textLength="33" x="1740" y="245.5352">label</text><text fill="#000000" font-family="sans-serif" font-size="14" lengthAdjust="spacing" textLength="127" x="1827" y="245.5352">Minimum Off-time</text><line style="stroke:#A80036;stroke-width:1.0;" x1="1822" x2="1822" y1="230" y2="250.4883"/><line style="stroke:#A80036;stroke-width:1.0;" x1="1735" x2="2286" y1="250.4883" y2="250.4883"/><text fill="#000000" font-family="sans-serif" font-size="14" lengthAdjust="spacing" textLength="77" x="1740" y="266.0234">description</text><text fill="#000000" font-family="sans-serif" font-size="14" lengthAdjust="spacing" textLength="454" x="1827" y="266.0234">The duration of the rearm delay (i.e. the delay from the end of one</text><text fill="#000000" font-family="sans-serif" font-size="14" lengthAdjust="spacing" textLength="368" x="1827" y="282.5117">cycle until the beginning of the next, the inhibit time).</text><line style="stroke:#A80036;stroke-width:1.0;" x1="1822" x2="1822" y1="250.4883" y2="287.4648"/><line style="stroke:#A80036;stroke-width:1.0;" x1="1735" x2="2286" y1="287.4648" y2="287.4648"/><text fill="#000000" font-family="sans-serif" font-size="14" lengthAdjust="spacing" textLength="29" x="1740" y="303">type</text><text fill="#000000" font-family="sans-serif" font-size="14" lengthAdjust="spacing" textLength="54" x="1827" y="303">number</text><line style="stroke:#A80036;stroke-width:1.0;" x1="1822" x2="1822" y1="287.4648" y2="307.9531"/><line style="stroke:#A80036;stroke-width:1.0;" x1="1735" x2="2286" y1="307.9531" y2="307.9531"/><text fill="#000000" font-family="sans-serif" font-size="14" lengthAdjust="spacing" textLength="27" x="1740" y="323.4883">unit</text><text fill="#000000" font-family="sans-serif" font-size="14" lengthAdjust="spacing" textLength="7" x="1827" y="323.4883">s</text><line style="stroke:#A80036;stroke-width:1.0;" x1="1822" x2="1822" y1="307.9531" y2="328.4414"/><rect fill="none" height="98.4414" rx="5" ry="5" style="stroke:#A80036;stroke-width:1.5;" width="551" x="1735" y="230"/><rect fill="#FEFECE" height="61.4648" rx="5" ry="5" style="stroke:#FEFECE;stroke-width:1.5;" width="533" x="1744" y="346.5"/><text fill="#000000" font-family="sans-serif" font-size="14" lengthAdjust="spacing" textLength="33" x="1749" y="362.0352">label</text><text fill="#000000" font-family="sans-serif" font-size="14" lengthAdjust="spacing" textLength="48" x="1836" y="362.0352">On/Off</text><line style="stroke:#A80036;stroke-width:1.0;" x1="1831" x2="1831" y1="346.5" y2="366.9883"/><line style="stroke:#A80036;stroke-width:1.0;" x1="1744" x2="2277" y1="366.9883" y2="366.9883"/><text fill="#000000" font-family="sans-serif" font-size="14" lengthAdjust="spacing" textLength="77" x="1749" y="382.5234">description</text><text fill="#000000" font-family="sans-serif" font-size="14" lengthAdjust="spacing" textLength="436" x="1836" y="382.5234">On/off control. Boolean value where True is On and False is Off.</text><line style="stroke:#A80036;stroke-width:1.0;" x1="1831" x2="1831" y1="366.9883" y2="387.4766"/><line style="stroke:#A80036;stroke-width:1.0;" x1="1744" x2="2277" y1="387.4766" y2="387.4766"/><text fill="#000000" font-family="sans-serif" font-size="14" lengthAdjust="spacing" textLength="29" x="1749" y="403.0117">type</text><text fill="#000000" font-family="sans-serif" font-size="14" lengthAdjust="spacing" textLength="56" x="1836" y="403.0117">boolean</text><line style="stroke:#A80036;stroke-width:1.0;" x1="1831" x2="1831" y1="387.4766" y2="407.9648"/><rect fill="none" height="61.4648" rx="5" ry="5" style="stroke:#A80036;stroke-width:1.5;" width="533" x="1744" y="346.5"/><rect fill="#FEFECE" height="81.9531" rx="5" ry="5" style="stroke:#FEFECE;stroke-width:1.5;" width="406" x="1807.5" y="426"/><text fill="#000000" font-family="sans-serif" font-size="14" lengthAdjust="spacing" textLength="33" x="1812.5" y="441.5352">label</text><text fill="#000000" font-family="sans-serif" font-size="14" lengthAdjust="spacing" textLength="144" x="1899.5" y="441.5352">Digital Input Counter</text><line style="stroke:#A80036;stroke-width:1.0;" x1="1894.5" x2="1894.5" y1="426" y2="446.4883"/><line style="stroke:#A80036;stroke-width:1.0;" x1="1807.5" x2="2213.5" y1="446.4883" y2="446.4883"/><text fill="#000000" font-family="sans-serif" font-size="14" lengthAdjust="spacing" textLength="77" x="1812.5" y="462.0234">description</text><text fill="#000000" font-family="sans-serif" font-size="14" lengthAdjust="spacing" textLength="309" x="1899.5" y="462.0234">The cumulative value of active state detected.</text><line style="stroke:#A80036;stroke-width:1.0;" x1="1894.5" x2="1894.5" y1="446.4883" y2="466.9766"/><line style="stroke:#A80036;stroke-width:1.0;" x1="1807.5" x2="2213.5" y1="466.9766" y2="466.9766"/><text fill="#000000" font-family="sans-serif" font-size="14" lengthAdjust="spacing" textLength="55" x="1812.5" y="482.5117">writable</text><text fill="#000000" font-family="sans-serif" font-size="14" lengthAdjust="spacing" textLength="48" x="1899.5" y="482.5117">☐ false</text><line style="stroke:#A80036;stroke-width:1.0;" x1="1894.5" x2="1894.5" y1="466.9766" y2="487.4648"/><line style="stroke:#A80036;stroke-width:1.0;" x1="1807.5" x2="2213.5" y1="487.4648" y2="487.4648"/><text fill="#000000" font-family="sans-serif" font-size="14" lengthAdjust="spacing" textLength="29" x="1812.5" y="503">type</text><text fill="#000000" font-family="sans-serif" font-size="14" lengthAdjust="spacing" textLength="49" x="1899.5" y="503">integer</text><line style="stroke:#A80036;stroke-width:1.0;" x1="1894.5" x2="1894.5" y1="487.4648" y2="507.9531"/><rect fill="none" height="81.9531" rx="5" ry="5" style="stroke:#A80036;stroke-width:1.5;" width="406" x="1807.5" y="426"/><rect fill="#FEFECE" height="98.4414" rx="5" ry="5" style="stroke:#FEFECE;stroke-width:1.5;" width="535" x="1743" y="526"/><text fill="#000000" font-family="sans-serif" font-size="14" lengthAdjust="spacing" textLength="33" x="1748" y="541.5352">label</text><text fill="#000000" font-family="sans-serif" font-size="14" lengthAdjust="spacing" textLength="115" x="1835" y="541.5352">Cumulative Time</text><line style="stroke:#A80036;stroke-width:1.0;" x1="1830" x2="1830" y1="526" y2="546.4883"/><line style="stroke:#A80036;stroke-width:1.0;" x1="1743" x2="2278" y1="546.4883" y2="546.4883"/><text fill="#000000" font-family="sans-serif" font-size="14" lengthAdjust="spacing" textLength="77" x="1748" y="562.0234">description</text><text fill="#000000" font-family="sans-serif" font-size="14" lengthAdjust="spacing" textLength="438" x="1835" y="562.0234">The total time in seconds that the timer input is true. Writing a 0</text><text fill="#000000" font-family="sans-serif" font-size="14" lengthAdjust="spacing" textLength="105" x="1835" y="578.5117">resets the time.</text><line style="stroke:#A80036;stroke-width:1.0;" x1="1830" x2="1830" y1="546.4883" y2="583.4648"/><line style="stroke:#A80036;stroke-width:1.0;" x1="1743" x2="2278" y1="583.4648" y2="583.4648"/><text fill="#000000" font-family="sans-serif" font-size="14" lengthAdjust="spacing" textLength="29" x="1748" y="599">type</text><text fill="#000000" font-family="sans-serif" font-size="14" lengthAdjust="spacing" textLength="54" x="1835" y="599">number</text><line style="stroke:#A80036;stroke-width:1.0;" x1="1830" x2="1830" y1="583.4648" y2="603.9531"/><line style="stroke:#A80036;stroke-width:1.0;" x1="1743" x2="2278" y1="603.9531" y2="603.9531"/><text fill="#000000" font-family="sans-serif" font-size="14" lengthAdjust="spacing" textLength="27" x="1748" y="619.4883">unit</text><text fill="#000000" font-family="sans-serif" font-size="14" lengthAdjust="spacing" textLength="7" x="1835" y="619.4883">s</text><line style="stroke:#A80036;stroke-width:1.0;" x1="1830" x2="1830" y1="603.9531" y2="624.4414"/><rect fill="none" height="98.4414" rx="5" ry="5" style="stroke:#A80036;stroke-width:1.5;" width="535" x="1743" y="526"/><rect fill="#FEFECE" height="81.9531" rx="5" ry="5" style="stroke:#FEFECE;stroke-width:1.5;" width="352" x="1834.5" y="642"/><text fill="#000000" font-family="sans-serif" font-size="14" lengthAdjust="spacing" textLength="33" x="1839.5" y="657.5352">label</text><text fill="#000000" font-family="sans-serif" font-size="14" lengthAdjust="spacing" textLength="82" x="1926.5" y="657.5352">Digital State</text><line style="stroke:#A80036;stroke-width:1.0;" x1="1921.5" x2="1921.5" y1="642" y2="662.4883"/><line style="stroke:#A80036;stroke-width:1.0;" x1="1834.5" x2="2186.5" y1="662.4883" y2="662.4883"/><text fill="#000000" font-family="sans-serif" font-size="14" lengthAdjust="spacing" textLength="77" x="1839.5" y="678.0234">description</text><text fill="#000000" font-family="sans-serif" font-size="14" lengthAdjust="spacing" textLength="255" x="1926.5" y="678.0234">The current state of the timer output.</text><line style="stroke:#A80036;stroke-width:1.0;" x1="1921.5" x2="1921.5" y1="662.4883" y2="682.9766"/><line style="stroke:#A80036;stroke-width:1.0;" x1="1834.5" x2="2186.5" y1="682.9766" y2="682.9766"/><text fill="#000000" font-family="sans-serif" font-size="14" lengthAdjust="spacing" textLength="55" x="1839.5" y="698.5117">writable</text><text fill="#000000" font-family="sans-serif" font-size="14" lengthAdjust="spacing" textLength="48" x="1926.5" y="698.5117">☐ false</text><line style="stroke:#A80036;stroke-width:1.0;" x1="1921.5" x2="1921.5" y1="682.9766" y2="703.4648"/><line style="stroke:#A80036;stroke-width:1.0;" x1="1834.5" x2="2186.5" y1="703.4648" y2="703.4648"/><text fill="#000000" font-family="sans-serif" font-size="14" lengthAdjust="spacing" textLength="29" x="1839.5" y="719">type</text><text fill="#000000" font-family="sans-serif" font-size="14" lengthAdjust="spacing" textLength="56" x="1926.5" y="719">boolean</text><line style="stroke:#A80036;stroke-width:1.0;" x1="1921.5" x2="1921.5" y1="703.4648" y2="723.9531"/><rect fill="none" height="81.9531" rx="5" ry="5" style="stroke:#A80036;stroke-width:1.5;" width="352" x="1834.5" y="642"/><rect fill="#FEFECE" height="61.4648" rx="5" ry="5" style="stroke:#FEFECE;stroke-width:1.5;" width="567" x="1727" y="742.5"/><text fill="#000000" font-family="sans-serif" font-size="14" lengthAdjust="spacing" textLength="33" x="1732" y="758.0352">label</text><text fill="#000000" font-family="sans-serif" font-size="14" lengthAdjust="spacing" textLength="56" x="1819" y="758.0352">Counter</text><line style="stroke:#A80036;stroke-width:1.0;" x1="1814" x2="1814" y1="742.5" y2="762.9883"/><line style="stroke:#A80036;stroke-width:1.0;" x1="1727" x2="2294" y1="762.9883" y2="762.9883"/><text fill="#000000" font-family="sans-serif" font-size="14" lengthAdjust="spacing" textLength="77" x="1732" y="778.5234">description</text><text fill="#000000" font-family="sans-serif" font-size="14" lengthAdjust="spacing" textLength="470" x="1819" y="778.5234">Counts the number of times the timer output transitions from 0 to 1.</text><line style="stroke:#A80036;stroke-width:1.0;" x1="1814" x2="1814" y1="762.9883" y2="783.4766"/><line style="stroke:#A80036;stroke-width:1.0;" x1="1727" x2="2294" y1="783.4766" y2="783.4766"/><text fill="#000000" font-family="sans-serif" font-size="14" lengthAdjust="spacing" textLength="29" x="1732" y="799.0117">type</text><text fill="#000000" font-family="sans-serif" font-size="14" lengthAdjust="spacing" textLength="49" x="1819" y="799.0117">integer</text><line style="stroke:#A80036;stroke-width:1.0;" x1="1814" x2="1814" y1="783.4766" y2="803.9648"/><rect fill="none" height="61.4648" rx="5" ry="5" style="stroke:#A80036;stroke-width:1.5;" width="567" x="1727" y="742.5"/><rect fill="#FEFECE" height="184.8828" rx="5" ry="5" style="stroke:#FEFECE;stroke-width:1.5;" width="369" x="1826" y="821.5"/><text fill="#000000" font-family="sans-serif" font-size="14" lengthAdjust="spacing" textLength="33" x="1831" y="837.0352">label</text><text fill="#000000" font-family="sans-serif" font-size="14" lengthAdjust="spacing" textLength="82" x="1918" y="837.0352">Timer Mode</text><line style="stroke:#A80036;stroke-width:1.0;" x1="1913" x2="1913" y1="821.5" y2="841.9883"/><line style="stroke:#A80036;stroke-width:1.0;" x1="1826" x2="2195" y1="841.9883" y2="841.9883"/><text fill="#000000" font-family="sans-serif" font-size="14" lengthAdjust="spacing" textLength="77" x="1831" y="857.5234">description</text><text fill="#000000" font-family="sans-serif" font-size="14" lengthAdjust="spacing" textLength="272" x="1918" y="857.5234">Type of timer pattern used by the timer.</text><text fill="#000000" font-family="sans-serif" font-size="14" lengthAdjust="spacing" textLength="87" x="1918" y="874.0117">1: One-shot,</text><text fill="#000000" font-family="sans-serif" font-size="14" lengthAdjust="spacing" textLength="157" x="1918" y="890.5">2: On-Time or Interval,</text><text fill="#000000" font-family="sans-serif" font-size="14" lengthAdjust="spacing" textLength="175" x="1918" y="906.9883">3: Time delay on pick-up,</text><text fill="#000000" font-family="sans-serif" font-size="14" lengthAdjust="spacing" textLength="189" x="1918" y="923.4766">4: Time Delay on Drop-Out,</text><text fill="#000000" font-family="sans-serif" font-size="14" lengthAdjust="spacing" textLength="143" x="1918" y="939.9648">0: disables the timer.</text><line style="stroke:#A80036;stroke-width:1.0;" x1="1913" x2="1913" y1="841.9883" y2="944.918"/><line style="stroke:#A80036;stroke-width:1.0;" x1="1826" x2="2195" y1="944.918" y2="944.918"/><text fill="#000000" font-family="sans-serif" font-size="14" lengthAdjust="spacing" textLength="29" x="1831" y="960.4531">type</text><text fill="#000000" font-family="sans-serif" font-size="14" lengthAdjust="spacing" textLength="49" x="1918" y="960.4531">integer</text><line style="stroke:#A80036;stroke-width:1.0;" x1="1913" x2="1913" y1="944.918" y2="965.4063"/><line style="stroke:#A80036;stroke-width:1.0;" x1="1826" x2="2195" y1="965.4063" y2="965.4063"/><text fill="#000000" font-family="sans-serif" font-size="14" lengthAdjust="spacing" textLength="65" x="1831" y="980.9414">minimum</text><text fill="#000000" font-family="sans-serif" font-size="14" lengthAdjust="spacing" textLength="9" x="1918" y="980.9414">0</text><line style="stroke:#A80036;stroke-width:1.0;" x1="1913" x2="1913" y1="965.4063" y2="985.8945"/><line style="stroke:#A80036;stroke-width:1.0;" x1="1826" x2="2195" y1="985.8945" y2="985.8945"/><text fill="#000000" font-family="sans-serif" font-size="14" lengthAdjust="spacing" textLength="69" x="1831" y="1001.4297">maximum</text><text fill="#000000" font-family="sans-serif" font-size="14" lengthAdjust="spacing" textLength="9" x="1918" y="1001.4297">4</text><line style="stroke:#A80036;stroke-width:1.0;" x1="1913" x2="1913" y1="985.8945" y2="1006.3828"/><rect fill="none" height="184.8828" rx="5" ry="5" style="stroke:#A80036;stroke-width:1.5;" width="369" x="1826" y="821.5"/><rect fill="#FEFECE" height="77.9531" rx="5" ry="5" style="stroke:#FEFECE;stroke-width:1.5;" width="563" x="1729" y="1025"/><text fill="#000000" font-family="sans-serif" font-size="14" lengthAdjust="spacing" textLength="33" x="1734" y="1040.5352">label</text><text fill="#000000" font-family="sans-serif" font-size="14" lengthAdjust="spacing" textLength="115" x="1821" y="1040.5352">Application Type</text><line style="stroke:#A80036;stroke-width:1.0;" x1="1816" x2="1816" y1="1025" y2="1045.4883"/><line style="stroke:#A80036;stroke-width:1.0;" x1="1729" x2="2292" y1="1045.4883" y2="1045.4883"/><text fill="#000000" font-family="sans-serif" font-size="14" lengthAdjust="spacing" textLength="77" x="1734" y="1061.0234">description</text><text fill="#000000" font-family="sans-serif" font-size="14" lengthAdjust="spacing" textLength="466" x="1821" y="1061.0234">The application type of the sensor or actuator as a string depending</text><text fill="#000000" font-family="sans-serif" font-size="14" lengthAdjust="spacing" textLength="110" x="1821" y="1077.5117">on the use case.</text><line style="stroke:#A80036;stroke-width:1.0;" x1="1816" x2="1816" y1="1045.4883" y2="1082.4648"/><line style="stroke:#A80036;stroke-width:1.0;" x1="1729" x2="2292" y1="1082.4648" y2="1082.4648"/><text fill="#000000" font-family="sans-serif" font-size="14" lengthAdjust="spacing" textLength="29" x="1734" y="1098">type</text><text fill="#000000" font-family="sans-serif" font-size="14" lengthAdjust="spacing" textLength="40" x="1821" y="1098">string</text><line style="stroke:#A80036;stroke-width:1.0;" x1="1816" x2="1816" y1="1082.4648" y2="1102.9531"/><rect fill="none" height="77.9531" rx="5" ry="5" style="stroke:#A80036;stroke-width:1.5;" width="563" x="1729" y="1025"/><rect fill="#FEFECE" height="20.4883" rx="5" ry="5" style="stroke:#FEFECE;stroke-width:1.5;" width="83" x="1481" y="909"/><text fill="#000000" font-family="sans-serif" font-size="14" lengthAdjust="spacing" textLength="51" x="1486" y="924.5352">Trigger</text><text fill="#000000" font-family="sans-serif" font-size="14" lengthAdjust="spacing" textLength="0" x="1559" y="924.5352"/><line style="stroke:#A80036;stroke-width:1.0;" x1="1542" x2="1542" y1="909" y2="929.4883"/><rect fill="none" height="20.4883" rx="5" ry="5" style="stroke:#A80036;stroke-width:1.5;" width="83" x="1481" y="909"/><rect fill="#FEFECE" height="40.9766" rx="5" ry="5" style="stroke:#FEFECE;stroke-width:1.5;" width="285" x="1868" y="1121.5"/><text fill="#000000" font-family="sans-serif" font-size="14" lengthAdjust="spacing" textLength="33" x="1873" y="1137.0352">label</text><text fill="#000000" font-family="sans-serif" font-size="14" lengthAdjust="spacing" textLength="51" x="1960" y="1137.0352">Trigger</text><line style="stroke:#A80036;stroke-width:1.0;" x1="1955" x2="1955" y1="1121.5" y2="1141.9883"/><line style="stroke:#A80036;stroke-width:1.0;" x1="1868" x2="2153" y1="1141.9883" y2="1141.9883"/><text fill="#000000" font-family="sans-serif" font-size="14" lengthAdjust="spacing" textLength="77" x="1873" y="1157.5234">description</text><text fill="#000000" font-family="sans-serif" font-size="14" lengthAdjust="spacing" textLength="188" x="1960" y="1157.5234">Trigger initiating actuation.</text><line style="stroke:#A80036;stroke-width:1.0;" x1="1955" x2="1955" y1="1141.9883" y2="1162.4766"/><rect fill="none" height="40.9766" rx="5" ry="5" style="stroke:#A80036;stroke-width:1.5;" width="285" x="1868" y="1121.5"/><rect fill="#FEFECE" height="20.4883" rx="5" ry="5" style="stroke:#FEFECE;stroke-width:1.5;" width="335" x="1355" y="955"/><text fill="#000000" font-family="sans-serif" font-size="14" lengthAdjust="spacing" textLength="325" x="1360" y="970.5352">#/sdfObject/Timer/sdfProperty/Delay_Duration</text><rect fill="none" height="20.4883" rx="5" ry="5" style="stroke:#A80036;stroke-width:1.5;" width="335" x="1355" y="955"/><path d="M95,813 L108,813 C117.3406,813 126.8353,812.8896 136.4202,812.6839 " fill="none" style="stroke:#A80036;stroke-width:1.0;stroke-dasharray:3.0,3.0;"/><path d="M136.4943,815.7659 L138.7318,812.6283 L136.3462,809.6019 L144.1253,812.4987 L136.4943,815.7659 " fill="#A80036" style="stroke:#A80036;stroke-width:1.0;"/><ellipse cx="95" cy="813" fill="#A80036" rx="3" ry="3" style="stroke:#A80036;stroke-width:1.0;stroke-dasharray:3.0,3.0;"/><path d="M1602,472 L1615,472 C1787.2387,472 1598.2213,215.3776 1727,101 C1760.4123,71.3241 1805.0873,56.2934 1849.0537,49.2925 " fill="none" style="stroke:#A80036;stroke-width:1.0;stroke-dasharray:3.0,3.0;"/><path d="M1849.508,52.3409 L1851.34,48.9518 L1848.5994,46.244 L1856.6748,48.1568 L1849.508,52.3409 " fill="#A80036" style="stroke:#A80036;stroke-width:1.0;"/><ellipse cx="1602" cy="472" fill="#A80036" rx="3" ry="3" style="stroke:#A80036;stroke-width:1.0;stroke-dasharray:3.0,3.0;"/><path d="M1602,493 L1615,493 C1745.7362,493 1626.5503,304.6768 1727,221 C1756.5749,196.3634 1793.8061,181.1005 1831.4586,171.8068 " fill="none" style="stroke:#A80036;stroke-width:1.0;stroke-dasharray:3.0,3.0;"/><path d="M1832.1707,174.8204 L1833.7188,171.2728 L1830.7466,168.7932 L1838.9926,170.0267 L1832.1707,174.8204 " fill="#A80036" style="stroke:#A80036;stroke-width:1.0;"/><ellipse cx="1602" cy="493" fill="#A80036" rx="3" ry="3" style="stroke:#A80036;stroke-width:1.0;stroke-dasharray:3.0,3.0;"/><path d="M1602,513 L1615,513 C1707.7175,513 1650.64,389.5898 1727,337 C1729.4138,335.3376 1731.8648,333.7209 1734.3501,332.1487 " fill="none" style="stroke:#A80036;stroke-width:1.0;stroke-dasharray:3.0,3.0;"/><path d="M1735.9737,334.8114 L1736.3472,330.931 L1732.7266,329.4859 L1741.0071,328.0898 L1735.9737,334.8114 " fill="#A80036" style="stroke:#A80036;stroke-width:1.0;"/><ellipse cx="1602" cy="513" fill="#A80036" rx="3" ry="3" style="stroke:#A80036;stroke-width:1.0;stroke-dasharray:3.0,3.0;"/><path d="M1602,534 L1615,534 C1686.9849,534 1662.9456,449.846 1727,417 C1731.3464,414.7713 1735.7769,412.6548 1740.2788,410.6452 " fill="none" style="stroke:#A80036;stroke-width:1.0;stroke-dasharray:3.0,3.0;"/><path d="M1741.507,413.4977 L1742.4181,409.724 L1739.0505,407.7927 L1747.4099,407.5746 L1741.507,413.4977 " fill="#A80036" style="stroke:#A80036;stroke-width:1.0;"/><ellipse cx="1602" cy="534" fill="#A80036" rx="3" ry="3" style="stroke:#A80036;stroke-width:1.0;stroke-dasharray:3.0,3.0;"/><path d="M1602,554 L1615,554 C1667.4237,554 1676.167,529.816 1727,517 C1750.6674,511.033 1775.624,505.5206 1800.5126,500.5071 " fill="none" style="stroke:#A80036;stroke-width:1.0;stroke-dasharray:3.0,3.0;"/><path d="M1801.1006,503.4539 L1802.7227,500.0661 L1799.9245,497.5602 L1807.8797,499.037 L1801.1006,503.4539 " fill="#A80036" style="stroke:#A80036;stroke-width:1.0;"/><ellipse cx="1602" cy="554" fill="#A80036" rx="3" ry="3" style="stroke:#A80036;stroke-width:1.0;stroke-dasharray:3.0,3.0;"/><path d="M1602,575 L1615,575 C1654.0577,575 1695.2879,575 1735.7905,575 " fill="none" style="stroke:#A80036;stroke-width:1.0;stroke-dasharray:3.0,3.0;"/><path d="M1735.7905,578.0214 L1738.0566,575 L1735.7905,571.9786 L1743.3441,575 L1735.7905,578.0214 " fill="#A80036" style="stroke:#A80036;stroke-width:1.0;"/><ellipse cx="1602" cy="575" fill="#A80036" rx="3" ry="3" style="stroke:#A80036;stroke-width:1.0;stroke-dasharray:3.0,3.0;"/><path d="M1602,596 L1615,596 C1667.4237,596 1676.167,620.184 1727,633 C1759.1588,641.1078 1793.6976,648.3763 1827.2122,654.6945 " fill="none" style="stroke:#A80036;stroke-width:1.0;stroke-dasharray:3.0,3.0;"/><path d="M1826.6453,657.7286 L1829.4877,655.1197 L1827.7791,651.6605 L1834.7973,656.1118 L1826.6453,657.7286 " fill="#A80036" style="stroke:#A80036;stroke-width:1.0;"/><ellipse cx="1602" cy="596" fill="#A80036" rx="3" ry="3" style="stroke:#A80036;stroke-width:1.0;stroke-dasharray:3.0,3.0;"/><path d="M1602,616 L1615,616 C1686.9849,616 1662.9456,700.154 1727,733 C1731.3464,735.2287 1735.7769,737.3452 1740.2788,739.3548 " fill="none" style="stroke:#A80036;stroke-width:1.0;stroke-dasharray:3.0,3.0;"/><path d="M1739.0505,742.2073 L1742.4181,740.276 L1741.507,736.5023 L1747.4099,742.4254 L1739.0505,742.2073 " fill="#A80036" style="stroke:#A80036;stroke-width:1.0;"/><ellipse cx="1602" cy="616" fill="#A80036" rx="3" ry="3" style="stroke:#A80036;stroke-width:1.0;stroke-dasharray:3.0,3.0;"/><path d="M1602,637 L1615,637 C1707.3429,637 1654.8327,754.3884 1727,812 C1754.2449,833.7498 1786.523,851.0921 1819.3569,864.8467 " fill="none" style="stroke:#A80036;stroke-width:1.0;stroke-dasharray:3.0,3.0;"/><path d="M1818.2045,867.652 L1821.4609,865.7109 L1820.5093,862.0414 L1826.3701,867.7276 L1818.2045,867.652 " fill="#A80036" style="stroke:#A80036;stroke-width:1.0;"/><ellipse cx="1602" cy="637" fill="#A80036" rx="3" ry="3" style="stroke:#A80036;stroke-width:1.0;stroke-dasharray:3.0,3.0;"/><path d="M1602,657 L1615,657 C1635.8925,657 1711.2784,1002.2404 1727,1016 C1728.6699,1017.4615 1730.3674,1018.8867 1732.0909,1020.2764 " fill="none" style="stroke:#A80036;stroke-width:1.0;stroke-dasharray:3.0,3.0;"/><path d="M1730.2552,1022.6597 L1733.8784,1021.6532 L1733.9266,1017.8931 L1738.0492,1024.8658 L1730.2552,1022.6597 " fill="#A80036" style="stroke:#A80036;stroke-width:1.0;"/><ellipse cx="1602" cy="657" fill="#A80036" rx="3" ry="3" style="stroke:#A80036;stroke-width:1.0;stroke-dasharray:3.0,3.0;"/><path d="M1306,857 L1319,857 C1411.1463,857 1464.847,757.7556 1493.6104,674.9839 " fill="none" style="stroke:#A80036;stroke-width:1.0;stroke-dasharray:3.0,3.0;"/><path d="M1496.5889,675.9985 L1494.3714,672.75 L1490.6319,673.9693 L1496.147,667.5377 L1496.5889,675.9985 " fill="#A80036" style="stroke:#A80036;stroke-width:1.0;"/><ellipse cx="1306" cy="857" fill="#A80036" rx="3" ry="3" style="stroke:#A80036;stroke-width:1.0;stroke-dasharray:3.0,3.0;"/><path d="M1553,919 L1566,919 C1622.8368,919 1650.7937,905.827 1691,946 C1744.4036,999.3593 1670.8165,1061.5761 1727,1112 C1762.9499,1144.2645 1812.7179,1156.2603 1860.5059,1158.7631 " fill="none" style="stroke:#A80036;stroke-width:1.0;stroke-dasharray:3.0,3.0;"/><path d="M1860.3771,1161.8232 L1862.8009,1158.8597 L1860.6346,1155.703 L1868.1561,1159.085 L1860.3771,1161.8232 " fill="#A80036" style="stroke:#A80036;stroke-width:1.0;"/><ellipse cx="1553" cy="919" fill="#A80036" rx="3" ry="3" style="stroke:#A80036;stroke-width:1.0;stroke-dasharray:3.0,3.0;"/><path d="M1306,911 L1319,911 C1371.8502,911 1432.38,913.7408 1473.4926,916.0139 " fill="none" style="stroke:#A80036;stroke-width:1.0;stroke-dasharray:3.0,3.0;"/><path d="M1473.3195,919.0939 L1475.8025,916.1438 L1473.6657,912.934 L1481.1924,916.4468 L1473.3195,919.0939 " fill="#A80036" style="stroke:#A80036;stroke-width:1.0;"/><ellipse cx="1306" cy="911" fill="#A80036" rx="3" ry="3" style="stroke:#A80036;stroke-width:1.0;stroke-dasharray:3.0,3.0;"/><path d="M1306,965 L1319,965 C1328.316,965 1337.8725,965 1347.5205,965 " fill="none" style="stroke:#A80036;stroke-width:1.0;stroke-dasharray:3.0,3.0;"/><path d="M1347.5205,968.1017 L1349.8468,965 L1347.5205,961.8983 L1355.2747,965 L1347.5205,968.1017 " fill="#A80036" style="stroke:#A80036;stroke-width:1.0;"/><ellipse cx="1306" cy="965" fill="#A80036" rx="3" ry="3" style="stroke:#A80036;stroke-width:1.0;stroke-dasharray:3.0,3.0;"/><path d="M442,858 L455,858 C541.1936,858 634.7511,858 720.5734,858 " fill="none" style="stroke:#A80036;stroke-width:1.0;stroke-dasharray:3.0,3.0;"/><path d="M720.5734,861.0996 L722.8982,858 L720.5734,854.9004 L728.3225,858 L720.5734,861.0996 " fill="#A80036" style="stroke:#A80036;stroke-width:1.0;"/><ellipse cx="442" cy="858" fill="#A80036" rx="3" ry="3" style="stroke:#A80036;stroke-width:1.0;stroke-dasharray:3.0,3.0;"/><path d="M95,834 L108,834 C124.1536,834 127.9333,837.3271 144,839 C225.0719,847.4412 320.091,853.1017 373.9522,855.9174 " fill="none" style="stroke:#A80036;stroke-width:1.0;stroke-dasharray:3.0,3.0;"/><path d="M373.7943,858.9741 L376.2446,856.0359 L374.1101,852.8608 L381.5937,856.3122 L373.7943,858.9741 " fill="#A80036" style="stroke:#A80036;stroke-width:1.0;"/><ellipse cx="95" cy="834" fill="#A80036" rx="3" ry="3" style="stroke:#A80036;stroke-width:1.0;stroke-dasharray:3.0,3.0;"/><!--MD5=[2c73fbbb63151672e53dc85c0c37e03c]
@startjson
{
  "info": {
    "title": "OMA LwM2M Timer (Object ID 3340)",
    "version": "2021-02-11",
    "copyright": "Copyright (c) 2018-2020 IPSO",
    "license": "https://github.com/one-data-model/oneDM/blob/master/LICENSE"
  },
  "sdfObject": {
    "Timer": {
      "label": "Timer",
      "description": "This IPSO object is used to time events and actions, using patterns\\ncommon to industrial timers. A write to the trigger resource or\\nOn/Off input state change starts the timing operation, and the timer\\nremaining time shows zero when the operation is complete. The\\npatterns supported are One-Shot (mode 1), On-Time or Interval (mode\\n2), Time delay on pick-up or TDPU (mode 3), and Time Delay on\\nDrop-Out or TDDO (mode 4). Mode 0 disables the timer, so the output\\nfollows the input with no delay. A counter is provided to count\\noccurrences of the timer output changing from 0 to 1. Writing a value\\nof zero resets the counter. The Digital Input State resource reports\\nthe state of the timer output.",
      "sdfProperty": {
        "Delay_Duration": {
          "label": "Delay Duration",
          "description": "The duration of the time delay.",
          "type": "number",
          "unit": "s"
        },
        "Remaining_Time": {
          "label": "Remaining Time",
          "description": "The time remaining in an operation.",
          "writable": false,
          "type": "number",
          "unit": "s"
        },
        "Minimum_Off-time": {
          "label": "Minimum Off-time",
          "description": "The duration of the rearm delay (i.e. the delay from the end of one\\ncycle until the beginning of the next, the inhibit time).",
          "type": "number",
          "unit": "s"
        },
        "On_Off": {
          "label": "On/Off",
          "description": "On/off control. Boolean value where True is On and False is Off.",
          "type": "boolean"
        },
        "Digital_Input_Counter": {
          "label": "Digital Input Counter",
          "description": "The cumulative value of active state detected.",
          "writable": false,
          "type": "integer"
        },
        "Cumulative_Time": {
          "label": "Cumulative Time",
          "description": "The total time in seconds that the timer input is true. Writing a 0\\nresets the time.",
          "type": "number",
          "unit": "s"
        },
        "Digital_State": {
          "label": "Digital State",
          "description": "The current state of the timer output.",
          "writable": false,
          "type": "boolean"
        },
        "Counter": {
          "label": "Counter",
          "description": "Counts the number of times the timer output transitions from 0 to 1.",
          "type": "integer"
        },
        "Timer_Mode": {
          "label": "Timer Mode",
          "description": "Type of timer pattern used by the timer.\\n1: One-shot,\\n2: On-Time or Interval,\\n3: Time delay on pick-up,\\n4: Time Delay on Drop-Out,\\n0: disables the timer.",
          "type": "integer",
          "minimum": 0,
          "maximum": 4
        },
        "Application_Type": {
          "label": "Application Type",
          "description": "The application type of the sensor or actuator as a string depending\\non the use case.",
          "type": "string"
        }
      },
      "sdfAction": {
        "Trigger": {
          "label": "Trigger",
          "description": "Trigger initiating actuation."
        }
      },
      "sdfRequired": [
        "#/sdfObject/Timer/sdfProperty/Delay_Duration"
      ]
    }
  }
}
@endjson

PlantUML version 1.2021.2(Sun Mar 07 13:10:27 EET 2021)
(GPL source distribution)
Java Runtime: OpenJDK Runtime Environment
JVM: OpenJDK 64-Bit Server VM
Default Encoding: UTF-8
Language: en
Country: FI
--></g></svg>