<?xml version="1.0" encoding="UTF-8" standalone="no"?><svg xmlns="http://www.w3.org/2000/svg" xmlns:xlink="http://www.w3.org/1999/xlink" contentScriptType="application/ecmascript" contentStyleType="text/css" height="1187px" preserveAspectRatio="none" style="width:2333px;height:1187px;" version="1.1" viewBox="0 0 2333 1187" width="2333px" zoomAndPan="magnify"><defs/><g><rect fill="#FEFECE" height="40.9766" rx="5" ry="5" style="stroke:#FEFECE;stroke-width:1.5;" width="97" x="10" y="788.5"/><text fill="#000000" font-family="sans-serif" font-size="14" lengthAdjust="spacing" textLength="27" x="15" y="804.0352">info</text><text fill="#000000" font-family="sans-serif" font-size="14" lengthAdjust="spacing" textLength="0" x="102" y="804.0352"/><line style="stroke:#A80036;stroke-width:1.0;" x1="85" x2="85" y1="788.5" y2="808.9883"/><line style="stroke:#A80036;stroke-width:1.0;" x1="10" x2="107" y1="808.9883" y2="808.9883"/><text fill="#000000" font-family="sans-serif" font-size="14" lengthAdjust="spacing" textLength="65" x="15" y="824.5234">sdfObject</text><text fill="#000000" font-family="sans-serif" font-size="14" lengthAdjust="spacing" textLength="0" x="102" y="824.5234"/><line style="stroke:#A80036;stroke-width:1.0;" x1="85" x2="85" y1="808.9883" y2="829.4766"/><rect fill="none" height="40.9766" rx="5" ry="5" style="stroke:#A80036;stroke-width:1.5;" width="97" x="10" y="788.5"/><rect fill="#FEFECE" height="81.9531" rx="5" ry="5" style="stroke:#FEFECE;stroke-width:1.5;" width="547" x="144" y="733"/><text fill="#000000" font-family="sans-serif" font-size="14" lengthAdjust="spacing" textLength="26" x="149" y="748.5352">title</text><text fill="#000000" font-family="sans-serif" font-size="14" lengthAdjust="spacing" textLength="255" x="224" y="748.5352">OMA LwM2M Energy (Object ID 3331)</text><line style="stroke:#A80036;stroke-width:1.0;" x1="219" x2="219" y1="733" y2="753.4883"/><line style="stroke:#A80036;stroke-width:1.0;" x1="144" x2="691" y1="753.4883" y2="753.4883"/><text fill="#000000" font-family="sans-serif" font-size="14" lengthAdjust="spacing" textLength="50" x="149" y="769.0234">version</text><text fill="#000000" font-family="sans-serif" font-size="14" lengthAdjust="spacing" textLength="88" x="224" y="769.0234">2021-02-11</text><line style="stroke:#A80036;stroke-width:1.0;" x1="219" x2="219" y1="753.4883" y2="773.9766"/><line style="stroke:#A80036;stroke-width:1.0;" x1="144" x2="691" y1="773.9766" y2="773.9766"/><text fill="#000000" font-family="sans-serif" font-size="14" lengthAdjust="spacing" textLength="65" x="149" y="789.5117">copyright</text><text fill="#000000" font-family="sans-serif" font-size="14" lengthAdjust="spacing" textLength="208" x="224" y="789.5117">Copyright (c) 2018-2020 IPSO</text><line style="stroke:#A80036;stroke-width:1.0;" x1="219" x2="219" y1="773.9766" y2="794.4648"/><line style="stroke:#A80036;stroke-width:1.0;" x1="144" x2="691" y1="794.4648" y2="794.4648"/><text fill="#000000" font-family="sans-serif" font-size="14" lengthAdjust="spacing" textLength="47" x="149" y="810">license</text><text fill="#000000" font-family="sans-serif" font-size="14" lengthAdjust="spacing" textLength="462" x="224" y="810">https://github.com/one-data-model/oneDM/blob/master/LICENSE</text><line style="stroke:#A80036;stroke-width:1.0;" x1="219" x2="219" y1="794.4648" y2="814.9531"/><rect fill="none" height="81.9531" rx="5" ry="5" style="stroke:#A80036;stroke-width:1.5;" width="547" x="144" y="733"/><rect fill="#FEFECE" height="20.4883" rx="5" ry="5" style="stroke:#FEFECE;stroke-width:1.5;" width="79" x="378" y="833"/><text fill="#000000" font-family="sans-serif" font-size="14" lengthAdjust="spacing" textLength="47" x="383" y="848.5352">Energy</text><text fill="#000000" font-family="sans-serif" font-size="14" lengthAdjust="spacing" textLength="0" x="452" y="848.5352"/><line style="stroke:#A80036;stroke-width:1.0;" x1="435" x2="435" y1="833" y2="853.4883"/><rect fill="none" height="20.4883" rx="5" ry="5" style="stroke:#A80036;stroke-width:1.5;" width="79" x="378" y="833"/><rect fill="#FEFECE" height="135.418" rx="5" ry="5" style="stroke:#FEFECE;stroke-width:1.5;" width="593" x="728" y="775.5"/><text fill="#000000" font-family="sans-serif" font-size="14" lengthAdjust="spacing" textLength="33" x="733" y="791.0352">label</text><text fill="#000000" font-family="sans-serif" font-size="14" lengthAdjust="spacing" textLength="47" x="826" y="791.0352">Energy</text><line style="stroke:#A80036;stroke-width:1.0;" x1="821" x2="821" y1="775.5" y2="795.9883"/><line style="stroke:#A80036;stroke-width:1.0;" x1="728" x2="1321" y1="795.9883" y2="795.9883"/><text fill="#000000" font-family="sans-serif" font-size="14" lengthAdjust="spacing" textLength="77" x="733" y="811.5234">description</text><text fill="#000000" font-family="sans-serif" font-size="14" lengthAdjust="spacing" textLength="429" x="826" y="811.5234">This IPSO object should be used to report energy consumption</text><text fill="#000000" font-family="sans-serif" font-size="14" lengthAdjust="spacing" textLength="490" x="826" y="828.0117">(Cumulative Power) of an electrical load. An example measurement unit</text><text fill="#000000" font-family="sans-serif" font-size="14" lengthAdjust="spacing" textLength="94" x="826" y="844.5">is Watt Hours.</text><line style="stroke:#A80036;stroke-width:1.0;" x1="821" x2="821" y1="795.9883" y2="849.4531"/><line style="stroke:#A80036;stroke-width:1.0;" x1="728" x2="1321" y1="849.4531" y2="849.4531"/><text fill="#000000" font-family="sans-serif" font-size="14" lengthAdjust="spacing" textLength="79" x="733" y="864.9883">sdfProperty</text><text fill="#000000" font-family="sans-serif" font-size="14" lengthAdjust="spacing" textLength="0" x="838" y="864.9883"/><line style="stroke:#A80036;stroke-width:1.0;" x1="821" x2="821" y1="849.4531" y2="869.9414"/><line style="stroke:#A80036;stroke-width:1.0;" x1="728" x2="1321" y1="869.9414" y2="869.9414"/><text fill="#000000" font-family="sans-serif" font-size="14" lengthAdjust="spacing" textLength="65" x="733" y="885.4766">sdfAction</text><text fill="#000000" font-family="sans-serif" font-size="14" lengthAdjust="spacing" textLength="0" x="838" y="885.4766"/><line style="stroke:#A80036;stroke-width:1.0;" x1="821" x2="821" y1="869.9414" y2="890.4297"/><line style="stroke:#A80036;stroke-width:1.0;" x1="728" x2="1321" y1="890.4297" y2="890.4297"/><text fill="#000000" font-family="sans-serif" font-size="14" lengthAdjust="spacing" textLength="83" x="733" y="905.9648">sdfRequired</text><text fill="#000000" font-family="sans-serif" font-size="14" lengthAdjust="spacing" textLength="0" x="838" y="905.9648"/><line style="stroke:#A80036;stroke-width:1.0;" x1="821" x2="821" y1="890.4297" y2="910.918"/><rect fill="none" height="135.418" rx="5" ry="5" style="stroke:#A80036;stroke-width:1.5;" width="593" x="728" y="775.5"/><rect fill="#FEFECE" height="143.418" rx="5" ry="5" style="stroke:#FEFECE;stroke-width:1.5;" width="248" x="1399" y="350.5"/><text fill="#000000" font-family="sans-serif" font-size="14" lengthAdjust="spacing" textLength="92" x="1404" y="366.0352">Sensor_Value</text><text fill="#000000" font-family="sans-serif" font-size="14" lengthAdjust="spacing" textLength="0" x="1642" y="366.0352"/><line style="stroke:#A80036;stroke-width:1.0;" x1="1625" x2="1625" y1="350.5" y2="370.9883"/><line style="stroke:#A80036;stroke-width:1.0;" x1="1399" x2="1647" y1="370.9883" y2="370.9883"/><text fill="#000000" font-family="sans-serif" font-size="14" lengthAdjust="spacing" textLength="89" x="1404" y="386.5234">Sensor_Units</text><text fill="#000000" font-family="sans-serif" font-size="14" lengthAdjust="spacing" textLength="0" x="1642" y="386.5234"/><line style="stroke:#A80036;stroke-width:1.0;" x1="1625" x2="1625" y1="370.9883" y2="391.4766"/><line style="stroke:#A80036;stroke-width:1.0;" x1="1399" x2="1647" y1="391.4766" y2="391.4766"/><text fill="#000000" font-family="sans-serif" font-size="14" lengthAdjust="spacing" textLength="118" x="1404" y="407.0117">Application_Type</text><text fill="#000000" font-family="sans-serif" font-size="14" lengthAdjust="spacing" textLength="0" x="1642" y="407.0117"/><line style="stroke:#A80036;stroke-width:1.0;" x1="1625" x2="1625" y1="391.4766" y2="411.9648"/><line style="stroke:#A80036;stroke-width:1.0;" x1="1399" x2="1647" y1="411.9648" y2="411.9648"/><text fill="#000000" font-family="sans-serif" font-size="14" lengthAdjust="spacing" textLength="76" x="1404" y="427.5">Timestamp</text><text fill="#000000" font-family="sans-serif" font-size="14" lengthAdjust="spacing" textLength="0" x="1642" y="427.5"/><line style="stroke:#A80036;stroke-width:1.0;" x1="1625" x2="1625" y1="411.9648" y2="432.4531"/><line style="stroke:#A80036;stroke-width:1.0;" x1="1399" x2="1647" y1="432.4531" y2="432.4531"/><text fill="#000000" font-family="sans-serif" font-size="14" lengthAdjust="spacing" textLength="151" x="1404" y="447.9883">Fractional_Timestamp</text><text fill="#000000" font-family="sans-serif" font-size="14" lengthAdjust="spacing" textLength="0" x="1642" y="447.9883"/><line style="stroke:#A80036;stroke-width:1.0;" x1="1625" x2="1625" y1="432.4531" y2="452.9414"/><line style="stroke:#A80036;stroke-width:1.0;" x1="1399" x2="1647" y1="452.9414" y2="452.9414"/><text fill="#000000" font-family="sans-serif" font-size="14" lengthAdjust="spacing" textLength="216" x="1404" y="468.4766">Measurement_Quality_Indicator</text><text fill="#000000" font-family="sans-serif" font-size="14" lengthAdjust="spacing" textLength="0" x="1642" y="468.4766"/><line style="stroke:#A80036;stroke-width:1.0;" x1="1625" x2="1625" y1="452.9414" y2="473.4297"/><line style="stroke:#A80036;stroke-width:1.0;" x1="1399" x2="1647" y1="473.4297" y2="473.4297"/><text fill="#000000" font-family="sans-serif" font-size="14" lengthAdjust="spacing" textLength="189" x="1404" y="488.9648">Measurement_Quality_Level</text><text fill="#000000" font-family="sans-serif" font-size="14" lengthAdjust="spacing" textLength="0" x="1642" y="488.9648"/><line style="stroke:#A80036;stroke-width:1.0;" x1="1625" x2="1625" y1="473.4297" y2="493.918"/><rect fill="none" height="143.418" rx="5" ry="5" style="stroke:#A80036;stroke-width:1.5;" width="248" x="1399" y="350.5"/><rect fill="#FEFECE" height="81.9531" rx="5" ry="5" style="stroke:#FEFECE;stroke-width:1.5;" width="431" x="1807.5" y="10"/><text fill="#000000" font-family="sans-serif" font-size="14" lengthAdjust="spacing" textLength="33" x="1812.5" y="25.5352">label</text><text fill="#000000" font-family="sans-serif" font-size="14" lengthAdjust="spacing" textLength="89" x="1899.5" y="25.5352">Sensor Value</text><line style="stroke:#A80036;stroke-width:1.0;" x1="1894.5" x2="1894.5" y1="10" y2="30.4883"/><line style="stroke:#A80036;stroke-width:1.0;" x1="1807.5" x2="2238.5" y1="30.4883" y2="30.4883"/><text fill="#000000" font-family="sans-serif" font-size="14" lengthAdjust="spacing" textLength="77" x="1812.5" y="46.0234">description</text><text fill="#000000" font-family="sans-serif" font-size="14" lengthAdjust="spacing" textLength="334" x="1899.5" y="46.0234">Last or Current Measured Value from the Sensor.</text><line style="stroke:#A80036;stroke-width:1.0;" x1="1894.5" x2="1894.5" y1="30.4883" y2="50.9766"/><line style="stroke:#A80036;stroke-width:1.0;" x1="1807.5" x2="2238.5" y1="50.9766" y2="50.9766"/><text fill="#000000" font-family="sans-serif" font-size="14" lengthAdjust="spacing" textLength="55" x="1812.5" y="66.5117">writable</text><text fill="#000000" font-family="sans-serif" font-size="14" lengthAdjust="spacing" textLength="48" x="1899.5" y="66.5117">☐ false</text><line style="stroke:#A80036;stroke-width:1.0;" x1="1894.5" x2="1894.5" y1="50.9766" y2="71.4648"/><line style="stroke:#A80036;stroke-width:1.0;" x1="1807.5" x2="2238.5" y1="71.4648" y2="71.4648"/><text fill="#000000" font-family="sans-serif" font-size="14" lengthAdjust="spacing" textLength="29" x="1812.5" y="87">type</text><text fill="#000000" font-family="sans-serif" font-size="14" lengthAdjust="spacing" textLength="54" x="1899.5" y="87">number</text><line style="stroke:#A80036;stroke-width:1.0;" x1="1894.5" x2="1894.5" y1="71.4648" y2="91.9531"/><rect fill="none" height="81.9531" rx="5" ry="5" style="stroke:#A80036;stroke-width:1.5;" width="431" x="1807.5" y="10"/><rect fill="#FEFECE" height="81.9531" rx="5" ry="5" style="stroke:#FEFECE;stroke-width:1.5;" width="304" x="1871" y="110"/><text fill="#000000" font-family="sans-serif" font-size="14" lengthAdjust="spacing" textLength="33" x="1876" y="125.5352">label</text><text fill="#000000" font-family="sans-serif" font-size="14" lengthAdjust="spacing" textLength="86" x="1963" y="125.5352">Sensor Units</text><line style="stroke:#A80036;stroke-width:1.0;" x1="1958" x2="1958" y1="110" y2="130.4883"/><line style="stroke:#A80036;stroke-width:1.0;" x1="1871" x2="2175" y1="130.4883" y2="130.4883"/><text fill="#000000" font-family="sans-serif" font-size="14" lengthAdjust="spacing" textLength="77" x="1876" y="146.0234">description</text><text fill="#000000" font-family="sans-serif" font-size="14" lengthAdjust="spacing" textLength="207" x="1963" y="146.0234">Measurement Units Definition.</text><line style="stroke:#A80036;stroke-width:1.0;" x1="1958" x2="1958" y1="130.4883" y2="150.9766"/><line style="stroke:#A80036;stroke-width:1.0;" x1="1871" x2="2175" y1="150.9766" y2="150.9766"/><text fill="#000000" font-family="sans-serif" font-size="14" lengthAdjust="spacing" textLength="55" x="1876" y="166.5117">writable</text><text fill="#000000" font-family="sans-serif" font-size="14" lengthAdjust="spacing" textLength="48" x="1963" y="166.5117">☐ false</text><line style="stroke:#A80036;stroke-width:1.0;" x1="1958" x2="1958" y1="150.9766" y2="171.4648"/><line style="stroke:#A80036;stroke-width:1.0;" x1="1871" x2="2175" y1="171.4648" y2="171.4648"/><text fill="#000000" font-family="sans-serif" font-size="14" lengthAdjust="spacing" textLength="29" x="1876" y="187">type</text><text fill="#000000" font-family="sans-serif" font-size="14" lengthAdjust="spacing" textLength="40" x="1963" y="187">string</text><line style="stroke:#A80036;stroke-width:1.0;" x1="1958" x2="1958" y1="171.4648" y2="191.9531"/><rect fill="none" height="81.9531" rx="5" ry="5" style="stroke:#A80036;stroke-width:1.5;" width="304" x="1871" y="110"/><rect fill="#FEFECE" height="77.9531" rx="5" ry="5" style="stroke:#FEFECE;stroke-width:1.5;" width="563" x="1741.5" y="210"/><text fill="#000000" font-family="sans-serif" font-size="14" lengthAdjust="spacing" textLength="33" x="1746.5" y="225.5352">label</text><text fill="#000000" font-family="sans-serif" font-size="14" lengthAdjust="spacing" textLength="115" x="1833.5" y="225.5352">Application Type</text><line style="stroke:#A80036;stroke-width:1.0;" x1="1828.5" x2="1828.5" y1="210" y2="230.4883"/><line style="stroke:#A80036;stroke-width:1.0;" x1="1741.5" x2="2304.5" y1="230.4883" y2="230.4883"/><text fill="#000000" font-family="sans-serif" font-size="14" lengthAdjust="spacing" textLength="77" x="1746.5" y="246.0234">description</text><text fill="#000000" font-family="sans-serif" font-size="14" lengthAdjust="spacing" textLength="466" x="1833.5" y="246.0234">The application type of the sensor or actuator as a string depending</text><text fill="#000000" font-family="sans-serif" font-size="14" lengthAdjust="spacing" textLength="110" x="1833.5" y="262.5117">on the use case.</text><line style="stroke:#A80036;stroke-width:1.0;" x1="1828.5" x2="1828.5" y1="230.4883" y2="267.4648"/><line style="stroke:#A80036;stroke-width:1.0;" x1="1741.5" x2="2304.5" y1="267.4648" y2="267.4648"/><text fill="#000000" font-family="sans-serif" font-size="14" lengthAdjust="spacing" textLength="29" x="1746.5" y="283">type</text><text fill="#000000" font-family="sans-serif" font-size="14" lengthAdjust="spacing" textLength="40" x="1833.5" y="283">string</text><line style="stroke:#A80036;stroke-width:1.0;" x1="1828.5" x2="1828.5" y1="267.4648" y2="287.9531"/><rect fill="none" height="77.9531" rx="5" ry="5" style="stroke:#A80036;stroke-width:1.5;" width="563" x="1741.5" y="210"/><rect fill="#FEFECE" height="102.4414" rx="5" ry="5" style="stroke:#FEFECE;stroke-width:1.5;" width="493" x="1776.5" y="306"/><text fill="#000000" font-family="sans-serif" font-size="14" lengthAdjust="spacing" textLength="33" x="1781.5" y="321.5352">label</text><text fill="#000000" font-family="sans-serif" font-size="14" lengthAdjust="spacing" textLength="76" x="1868.5" y="321.5352">Timestamp</text><line style="stroke:#A80036;stroke-width:1.0;" x1="1863.5" x2="1863.5" y1="306" y2="326.4883"/><line style="stroke:#A80036;stroke-width:1.0;" x1="1776.5" x2="2269.5" y1="326.4883" y2="326.4883"/><text fill="#000000" font-family="sans-serif" font-size="14" lengthAdjust="spacing" textLength="77" x="1781.5" y="342.0234">description</text><text fill="#000000" font-family="sans-serif" font-size="14" lengthAdjust="spacing" textLength="396" x="1868.5" y="342.0234">The timestamp of when the measurement was performed.</text><line style="stroke:#A80036;stroke-width:1.0;" x1="1863.5" x2="1863.5" y1="326.4883" y2="346.9766"/><line style="stroke:#A80036;stroke-width:1.0;" x1="1776.5" x2="2269.5" y1="346.9766" y2="346.9766"/><text fill="#000000" font-family="sans-serif" font-size="14" lengthAdjust="spacing" textLength="55" x="1781.5" y="362.5117">writable</text><text fill="#000000" font-family="sans-serif" font-size="14" lengthAdjust="spacing" textLength="48" x="1868.5" y="362.5117">☐ false</text><line style="stroke:#A80036;stroke-width:1.0;" x1="1863.5" x2="1863.5" y1="346.9766" y2="367.4648"/><line style="stroke:#A80036;stroke-width:1.0;" x1="1776.5" x2="2269.5" y1="367.4648" y2="367.4648"/><text fill="#000000" font-family="sans-serif" font-size="14" lengthAdjust="spacing" textLength="29" x="1781.5" y="383">type</text><text fill="#000000" font-family="sans-serif" font-size="14" lengthAdjust="spacing" textLength="54" x="1868.5" y="383">number</text><line style="stroke:#A80036;stroke-width:1.0;" x1="1863.5" x2="1863.5" y1="367.4648" y2="387.9531"/><line style="stroke:#A80036;stroke-width:1.0;" x1="1776.5" x2="2269.5" y1="387.9531" y2="387.9531"/><text fill="#000000" font-family="sans-serif" font-size="14" lengthAdjust="spacing" textLength="54" x="1781.5" y="403.4883">sdfType</text><text fill="#000000" font-family="sans-serif" font-size="14" lengthAdjust="spacing" textLength="69" x="1868.5" y="403.4883">unix-time</text><line style="stroke:#A80036;stroke-width:1.0;" x1="1863.5" x2="1863.5" y1="387.9531" y2="408.4414"/><rect fill="none" height="102.4414" rx="5" ry="5" style="stroke:#A80036;stroke-width:1.5;" width="493" x="1776.5" y="306"/><rect fill="#FEFECE" height="159.9063" rx="5" ry="5" style="stroke:#FEFECE;stroke-width:1.5;" width="563" x="1741.5" y="426"/><text fill="#000000" font-family="sans-serif" font-size="14" lengthAdjust="spacing" textLength="33" x="1746.5" y="441.5352">label</text><text fill="#000000" font-family="sans-serif" font-size="14" lengthAdjust="spacing" textLength="148" x="1833.5" y="441.5352">Fractional Timestamp</text><line style="stroke:#A80036;stroke-width:1.0;" x1="1828.5" x2="1828.5" y1="426" y2="446.4883"/><line style="stroke:#A80036;stroke-width:1.0;" x1="1741.5" x2="2304.5" y1="446.4883" y2="446.4883"/><text fill="#000000" font-family="sans-serif" font-size="14" lengthAdjust="spacing" textLength="77" x="1746.5" y="462.0234">description</text><text fill="#000000" font-family="sans-serif" font-size="14" lengthAdjust="spacing" textLength="466" x="1833.5" y="462.0234">Fractional part of the timestamp when sub-second precision is used</text><text fill="#000000" font-family="sans-serif" font-size="14" lengthAdjust="spacing" textLength="157" x="1833.5" y="478.5117">(e.g., 0.23 for 230 ms).</text><line style="stroke:#A80036;stroke-width:1.0;" x1="1828.5" x2="1828.5" y1="446.4883" y2="483.4648"/><line style="stroke:#A80036;stroke-width:1.0;" x1="1741.5" x2="2304.5" y1="483.4648" y2="483.4648"/><text fill="#000000" font-family="sans-serif" font-size="14" lengthAdjust="spacing" textLength="55" x="1746.5" y="499">writable</text><text fill="#000000" font-family="sans-serif" font-size="14" lengthAdjust="spacing" textLength="48" x="1833.5" y="499">☐ false</text><line style="stroke:#A80036;stroke-width:1.0;" x1="1828.5" x2="1828.5" y1="483.4648" y2="503.9531"/><line style="stroke:#A80036;stroke-width:1.0;" x1="1741.5" x2="2304.5" y1="503.9531" y2="503.9531"/><text fill="#000000" font-family="sans-serif" font-size="14" lengthAdjust="spacing" textLength="29" x="1746.5" y="519.4883">type</text><text fill="#000000" font-family="sans-serif" font-size="14" lengthAdjust="spacing" textLength="54" x="1833.5" y="519.4883">number</text><line style="stroke:#A80036;stroke-width:1.0;" x1="1828.5" x2="1828.5" y1="503.9531" y2="524.4414"/><line style="stroke:#A80036;stroke-width:1.0;" x1="1741.5" x2="2304.5" y1="524.4414" y2="524.4414"/><text fill="#000000" font-family="sans-serif" font-size="14" lengthAdjust="spacing" textLength="27" x="1746.5" y="539.9766">unit</text><text fill="#000000" font-family="sans-serif" font-size="14" lengthAdjust="spacing" textLength="7" x="1833.5" y="539.9766">s</text><line style="stroke:#A80036;stroke-width:1.0;" x1="1828.5" x2="1828.5" y1="524.4414" y2="544.9297"/><line style="stroke:#A80036;stroke-width:1.0;" x1="1741.5" x2="2304.5" y1="544.9297" y2="544.9297"/><text fill="#000000" font-family="sans-serif" font-size="14" lengthAdjust="spacing" textLength="65" x="1746.5" y="560.4648">minimum</text><text fill="#000000" font-family="sans-serif" font-size="14" lengthAdjust="spacing" textLength="9" x="1833.5" y="560.4648">0</text><line style="stroke:#A80036;stroke-width:1.0;" x1="1828.5" x2="1828.5" y1="544.9297" y2="565.418"/><line style="stroke:#A80036;stroke-width:1.0;" x1="1741.5" x2="2304.5" y1="565.418" y2="565.418"/><text fill="#000000" font-family="sans-serif" font-size="14" lengthAdjust="spacing" textLength="69" x="1746.5" y="580.9531">maximum</text><text fill="#000000" font-family="sans-serif" font-size="14" lengthAdjust="spacing" textLength="9" x="1833.5" y="580.9531">1</text><line style="stroke:#A80036;stroke-width:1.0;" x1="1828.5" x2="1828.5" y1="565.418" y2="585.9063"/><rect fill="none" height="159.9063" rx="5" ry="5" style="stroke:#A80036;stroke-width:1.5;" width="563" x="1741.5" y="426"/><rect fill="#FEFECE" height="254.8359" rx="5" ry="5" style="stroke:#FEFECE;stroke-width:1.5;" width="596" x="1725" y="604.5"/><text fill="#000000" font-family="sans-serif" font-size="14" lengthAdjust="spacing" textLength="33" x="1730" y="620.0352">label</text><text fill="#000000" font-family="sans-serif" font-size="14" lengthAdjust="spacing" textLength="210" x="1817" y="620.0352">Measurement Quality Indicator</text><line style="stroke:#A80036;stroke-width:1.0;" x1="1812" x2="1812" y1="604.5" y2="624.9883"/><line style="stroke:#A80036;stroke-width:1.0;" x1="1725" x2="2321" y1="624.9883" y2="624.9883"/><text fill="#000000" font-family="sans-serif" font-size="14" lengthAdjust="spacing" textLength="77" x="1730" y="640.5234">description</text><text fill="#000000" font-family="sans-serif" font-size="14" lengthAdjust="spacing" textLength="401" x="1817" y="640.5234">Measurement quality indicator reported by a smart sensor.</text><text fill="#000000" font-family="sans-serif" font-size="14" lengthAdjust="spacing" textLength="499" x="1817" y="657.0117">0: UNCHECKED No quality checks were done because they do not exist or</text><text fill="#000000" font-family="sans-serif" font-size="14" lengthAdjust="spacing" textLength="131" x="1817" y="673.5">can not be applied.</text><text fill="#000000" font-family="sans-serif" font-size="14" lengthAdjust="spacing" textLength="414" x="1817" y="689.9883">1: REJECTED WITH CERTAINTY The measured value is invalid.</text><text fill="#000000" font-family="sans-serif" font-size="14" lengthAdjust="spacing" textLength="462" x="1817" y="706.4766">2: REJECTED WITH PROBABILITY The measured value is likely invalid.</text><text fill="#000000" font-family="sans-serif" font-size="14" lengthAdjust="spacing" textLength="430" x="1817" y="722.9648">3: ACCEPTED BUT SUSPICIOUS The measured value is likely OK.</text><text fill="#000000" font-family="sans-serif" font-size="14" lengthAdjust="spacing" textLength="275" x="1817" y="739.4531">4: ACCEPTED The measured value is OK.</text><text fill="#000000" font-family="sans-serif" font-size="14" lengthAdjust="spacing" textLength="258" x="1817" y="755.9414">5-15: Reserved for future extensions.</text><text fill="#000000" font-family="sans-serif" font-size="14" lengthAdjust="spacing" textLength="309" x="1817" y="772.4297">16-23: Vendor specific measurement quality.</text><line style="stroke:#A80036;stroke-width:1.0;" x1="1812" x2="1812" y1="624.9883" y2="777.3828"/><line style="stroke:#A80036;stroke-width:1.0;" x1="1725" x2="2321" y1="777.3828" y2="777.3828"/><text fill="#000000" font-family="sans-serif" font-size="14" lengthAdjust="spacing" textLength="55" x="1730" y="792.918">writable</text><text fill="#000000" font-family="sans-serif" font-size="14" lengthAdjust="spacing" textLength="48" x="1817" y="792.918">☐ false</text><line style="stroke:#A80036;stroke-width:1.0;" x1="1812" x2="1812" y1="777.3828" y2="797.8711"/><line style="stroke:#A80036;stroke-width:1.0;" x1="1725" x2="2321" y1="797.8711" y2="797.8711"/><text fill="#000000" font-family="sans-serif" font-size="14" lengthAdjust="spacing" textLength="29" x="1730" y="813.4063">type</text><text fill="#000000" font-family="sans-serif" font-size="14" lengthAdjust="spacing" textLength="49" x="1817" y="813.4063">integer</text><line style="stroke:#A80036;stroke-width:1.0;" x1="1812" x2="1812" y1="797.8711" y2="818.3594"/><line style="stroke:#A80036;stroke-width:1.0;" x1="1725" x2="2321" y1="818.3594" y2="818.3594"/><text fill="#000000" font-family="sans-serif" font-size="14" lengthAdjust="spacing" textLength="65" x="1730" y="833.8945">minimum</text><text fill="#000000" font-family="sans-serif" font-size="14" lengthAdjust="spacing" textLength="9" x="1817" y="833.8945">0</text><line style="stroke:#A80036;stroke-width:1.0;" x1="1812" x2="1812" y1="818.3594" y2="838.8477"/><line style="stroke:#A80036;stroke-width:1.0;" x1="1725" x2="2321" y1="838.8477" y2="838.8477"/><text fill="#000000" font-family="sans-serif" font-size="14" lengthAdjust="spacing" textLength="69" x="1730" y="854.3828">maximum</text><text fill="#000000" font-family="sans-serif" font-size="14" lengthAdjust="spacing" textLength="18" x="1817" y="854.3828">23</text><line style="stroke:#A80036;stroke-width:1.0;" x1="1812" x2="1812" y1="838.8477" y2="859.3359"/><rect fill="none" height="254.8359" rx="5" ry="5" style="stroke:#A80036;stroke-width:1.5;" width="596" x="1725" y="604.5"/><rect fill="#FEFECE" height="238.3477" rx="5" ry="5" style="stroke:#FEFECE;stroke-width:1.5;" width="585" x="1730.5" y="878"/><text fill="#000000" font-family="sans-serif" font-size="14" lengthAdjust="spacing" textLength="33" x="1735.5" y="893.5352">label</text><text fill="#000000" font-family="sans-serif" font-size="14" lengthAdjust="spacing" textLength="183" x="1822.5" y="893.5352">Measurement Quality Level</text><line style="stroke:#A80036;stroke-width:1.0;" x1="1817.5" x2="1817.5" y1="878" y2="898.4883"/><line style="stroke:#A80036;stroke-width:1.0;" x1="1730.5" x2="2315.5" y1="898.4883" y2="898.4883"/><text fill="#000000" font-family="sans-serif" font-size="14" lengthAdjust="spacing" textLength="77" x="1735.5" y="914.0234">description</text><text fill="#000000" font-family="sans-serif" font-size="14" lengthAdjust="spacing" textLength="458" x="1822.5" y="914.0234">Measurement quality level reported by a smart sensor. Quality level</text><text fill="#000000" font-family="sans-serif" font-size="14" lengthAdjust="spacing" textLength="437" x="1822.5" y="930.5117">100 means that the measurement has fully passed quality check</text><text fill="#000000" font-family="sans-serif" font-size="14" lengthAdjust="spacing" textLength="450" x="1822.5" y="947">algorithms. Smaller quality levels mean that quality has decreased</text><text fill="#000000" font-family="sans-serif" font-size="14" lengthAdjust="spacing" textLength="415" x="1822.5" y="963.4883">and the measurement has only partially passed quality check</text><text fill="#000000" font-family="sans-serif" font-size="14" lengthAdjust="spacing" textLength="470" x="1822.5" y="979.9766">algorithms. The smaller the quality level, the more caution should be</text><text fill="#000000" font-family="sans-serif" font-size="14" lengthAdjust="spacing" textLength="488" x="1822.5" y="996.4648">used by the application when using the measurement. When the quality</text><text fill="#000000" font-family="sans-serif" font-size="14" lengthAdjust="spacing" textLength="410" x="1822.5" y="1012.9531">level is 0 it means that the measurement should certainly be</text><text fill="#000000" font-family="sans-serif" font-size="14" lengthAdjust="spacing" textLength="59" x="1822.5" y="1029.4414">rejected.</text><line style="stroke:#A80036;stroke-width:1.0;" x1="1817.5" x2="1817.5" y1="898.4883" y2="1034.3945"/><line style="stroke:#A80036;stroke-width:1.0;" x1="1730.5" x2="2315.5" y1="1034.3945" y2="1034.3945"/><text fill="#000000" font-family="sans-serif" font-size="14" lengthAdjust="spacing" textLength="55" x="1735.5" y="1049.9297">writable</text><text fill="#000000" font-family="sans-serif" font-size="14" lengthAdjust="spacing" textLength="48" x="1822.5" y="1049.9297">☐ false</text><line style="stroke:#A80036;stroke-width:1.0;" x1="1817.5" x2="1817.5" y1="1034.3945" y2="1054.8828"/><line style="stroke:#A80036;stroke-width:1.0;" x1="1730.5" x2="2315.5" y1="1054.8828" y2="1054.8828"/><text fill="#000000" font-family="sans-serif" font-size="14" lengthAdjust="spacing" textLength="29" x="1735.5" y="1070.418">type</text><text fill="#000000" font-family="sans-serif" font-size="14" lengthAdjust="spacing" textLength="49" x="1822.5" y="1070.418">integer</text><line style="stroke:#A80036;stroke-width:1.0;" x1="1817.5" x2="1817.5" y1="1054.8828" y2="1075.3711"/><line style="stroke:#A80036;stroke-width:1.0;" x1="1730.5" x2="2315.5" y1="1075.3711" y2="1075.3711"/><text fill="#000000" font-family="sans-serif" font-size="14" lengthAdjust="spacing" textLength="65" x="1735.5" y="1090.9063">minimum</text><text fill="#000000" font-family="sans-serif" font-size="14" lengthAdjust="spacing" textLength="9" x="1822.5" y="1090.9063">0</text><line style="stroke:#A80036;stroke-width:1.0;" x1="1817.5" x2="1817.5" y1="1075.3711" y2="1095.8594"/><line style="stroke:#A80036;stroke-width:1.0;" x1="1730.5" x2="2315.5" y1="1095.8594" y2="1095.8594"/><text fill="#000000" font-family="sans-serif" font-size="14" lengthAdjust="spacing" textLength="69" x="1735.5" y="1111.3945">maximum</text><text fill="#000000" font-family="sans-serif" font-size="14" lengthAdjust="spacing" textLength="27" x="1822.5" y="1111.3945">100</text><line style="stroke:#A80036;stroke-width:1.0;" x1="1817.5" x2="1817.5" y1="1095.8594" y2="1116.3477"/><rect fill="none" height="238.3477" rx="5" ry="5" style="stroke:#A80036;stroke-width:1.5;" width="585" x="1730.5" y="878"/><rect fill="#FEFECE" height="20.4883" rx="5" ry="5" style="stroke:#FEFECE;stroke-width:1.5;" width="207" x="1419.5" y="860"/><text fill="#000000" font-family="sans-serif" font-size="14" lengthAdjust="spacing" textLength="175" x="1424.5" y="875.5352">Reset_Cumulative_energy</text><text fill="#000000" font-family="sans-serif" font-size="14" lengthAdjust="spacing" textLength="0" x="1621.5" y="875.5352"/><line style="stroke:#A80036;stroke-width:1.0;" x1="1604.5" x2="1604.5" y1="860" y2="880.4883"/><rect fill="none" height="20.4883" rx="5" ry="5" style="stroke:#A80036;stroke-width:1.5;" width="207" x="1419.5" y="860"/><rect fill="#FEFECE" height="40.9766" rx="5" ry="5" style="stroke:#FEFECE;stroke-width:1.5;" width="402" x="1822" y="1134.5"/><text fill="#000000" font-family="sans-serif" font-size="14" lengthAdjust="spacing" textLength="33" x="1827" y="1150.0352">label</text><text fill="#000000" font-family="sans-serif" font-size="14" lengthAdjust="spacing" textLength="169" x="1914" y="1150.0352">Reset Cumulative energy</text><line style="stroke:#A80036;stroke-width:1.0;" x1="1909" x2="1909" y1="1134.5" y2="1154.9883"/><line style="stroke:#A80036;stroke-width:1.0;" x1="1822" x2="2224" y1="1154.9883" y2="1154.9883"/><text fill="#000000" font-family="sans-serif" font-size="14" lengthAdjust="spacing" textLength="77" x="1827" y="1170.5234">description</text><text fill="#000000" font-family="sans-serif" font-size="14" lengthAdjust="spacing" textLength="305" x="1914" y="1170.5234">Reset both cumulative active/reactive power.</text><line style="stroke:#A80036;stroke-width:1.0;" x1="1909" x2="1909" y1="1154.9883" y2="1175.4766"/><rect fill="none" height="40.9766" rx="5" ry="5" style="stroke:#A80036;stroke-width:1.5;" width="402" x="1822" y="1134.5"/><rect fill="#FEFECE" height="20.4883" rx="5" ry="5" style="stroke:#FEFECE;stroke-width:1.5;" width="330" x="1358" y="898"/><text fill="#000000" font-family="sans-serif" font-size="14" lengthAdjust="spacing" textLength="320" x="1363" y="913.5352">#/sdfObject/Energy/sdfProperty/Sensor_Value</text><rect fill="none" height="20.4883" rx="5" ry="5" style="stroke:#A80036;stroke-width:1.5;" width="330" x="1358" y="898"/><path d="M95,798 L108,798 C117.3406,798 126.8353,797.8896 136.4202,797.6839 " fill="none" style="stroke:#A80036;stroke-width:1.0;stroke-dasharray:3.0,3.0;"/><path d="M136.4943,800.7659 L138.7318,797.6283 L136.3462,794.6019 L144.1253,797.4987 L136.4943,800.7659 " fill="#A80036" style="stroke:#A80036;stroke-width:1.0;"/><ellipse cx="95" cy="798" fill="#A80036" rx="3" ry="3" style="stroke:#A80036;stroke-width:1.0;stroke-dasharray:3.0,3.0;"/><path d="M1635.5,360 L1648.5,360 C1768.5274,360 1635.1638,180.5992 1725,101 C1746.5905,81.8697 1772.6617,68.6568 1800.2861,59.7003 " fill="none" style="stroke:#A80036;stroke-width:1.0;stroke-dasharray:3.0,3.0;"/><path d="M1801.2062,62.6767 L1802.5183,59.0103 L1799.366,56.724 L1807.7269,57.4001 L1801.2062,62.6767 " fill="#A80036" style="stroke:#A80036;stroke-width:1.0;"/><ellipse cx="1635.5" cy="360" fill="#A80036" rx="3" ry="3" style="stroke:#A80036;stroke-width:1.0;stroke-dasharray:3.0,3.0;"/><path d="M1635.5,380 L1648.5,380 C1735.0164,380 1657.0104,254.5023 1725,201 C1764.0507,170.2702 1815.0202,155.4507 1863.7097,148.9691 " fill="none" style="stroke:#A80036;stroke-width:1.0;stroke-dasharray:3.0,3.0;"/><path d="M1864.083,151.9605 L1865.9532,148.6891 L1863.3364,145.9777 L1871.1882,148.0358 L1864.083,151.9605 " fill="#A80036" style="stroke:#A80036;stroke-width:1.0;"/><ellipse cx="1635.5" cy="380" fill="#A80036" rx="3" ry="3" style="stroke:#A80036;stroke-width:1.0;stroke-dasharray:3.0,3.0;"/><path d="M1635.5,401 L1648.5,401 C1705.8803,401 1676.0304,326.9076 1725,297 C1728.333,294.9644 1731.7245,293.0068 1735.1684,291.1242 " fill="none" style="stroke:#A80036;stroke-width:1.0;stroke-dasharray:3.0,3.0;"/><path d="M1736.5798,293.7985 L1737.1741,290.0656 L1733.757,288.4499 L1741.8541,287.5957 L1736.5798,293.7985 " fill="#A80036" style="stroke:#A80036;stroke-width:1.0;"/><ellipse cx="1635.5" cy="401" fill="#A80036" rx="3" ry="3" style="stroke:#A80036;stroke-width:1.0;stroke-dasharray:3.0,3.0;"/><path d="M1635.5,421 L1648.5,421 C1674.321,421 1719.3999,414.9983 1769.5207,406.6708 " fill="none" style="stroke:#A80036;stroke-width:1.0;stroke-dasharray:3.0,3.0;"/><path d="M1770.0188,409.6427 L1771.7497,406.2972 L1769.0227,403.6989 L1776.9505,405.4257 L1770.0188,409.6427 " fill="#A80036" style="stroke:#A80036;stroke-width:1.0;"/><ellipse cx="1635.5" cy="421" fill="#A80036" rx="3" ry="3" style="stroke:#A80036;stroke-width:1.0;stroke-dasharray:3.0,3.0;"/><path d="M1635.5,442 L1648.5,442 C1676.3921,442 1705.2887,443.7508 1734.0947,446.6732 " fill="none" style="stroke:#A80036;stroke-width:1.0;stroke-dasharray:3.0,3.0;"/><path d="M1733.7702,449.761 L1736.4105,446.9165 L1734.4191,443.5854 L1741.8142,447.4843 L1733.7702,449.761 " fill="#A80036" style="stroke:#A80036;stroke-width:1.0;"/><ellipse cx="1635.5" cy="442" fill="#A80036" rx="3" ry="3" style="stroke:#A80036;stroke-width:1.0;stroke-dasharray:3.0,3.0;"/><path d="M1635.5,463 L1648.5,463 C1716.3069,463 1674.8607,549.3511 1725,595 C1726.626,596.4804 1728.2708,597.9473 1729.9334,599.4009 " fill="none" style="stroke:#A80036;stroke-width:1.0;stroke-dasharray:3.0,3.0;"/><path d="M1727.9772,601.689 L1731.6495,600.868 L1731.8896,597.1128 L1735.6536,604.2914 L1727.9772,601.689 " fill="#A80036" style="stroke:#A80036;stroke-width:1.0;"/><ellipse cx="1635.5" cy="463" fill="#A80036" rx="3" ry="3" style="stroke:#A80036;stroke-width:1.0;stroke-dasharray:3.0,3.0;"/><path d="M1636.5,482 L1636.5,495 C1636.5,580.1901 1670.2948,802.6954 1725,868 C1726.1382,869.3587 1727.2934,870.7035 1728.465,872.0345 " fill="none" style="stroke:#A80036;stroke-width:1.0;stroke-dasharray:3.0,3.0;"/><path d="M1726.1657,874.1307 L1730.0371,873.759 L1730.7642,869.9384 L1733.7053,877.7828 L1726.1657,874.1307 " fill="#A80036" style="stroke:#A80036;stroke-width:1.0;"/><ellipse cx="1636.5" cy="482" fill="#A80036" rx="3" ry="3" style="stroke:#A80036;stroke-width:1.0;stroke-dasharray:3.0,3.0;"/><path d="M1309,843 L1322,843 C1471.6706,843 1509.7325,623.4275 1519.3291,501.426 " fill="none" style="stroke:#A80036;stroke-width:1.0;stroke-dasharray:3.0,3.0;"/><path d="M1522.3418,501.6524 L1519.4989,499.1664 L1516.3163,501.1996 L1519.8952,493.8941 L1522.3418,501.6524 " fill="#A80036" style="stroke:#A80036;stroke-width:1.0;"/><ellipse cx="1309" cy="843" fill="#A80036" rx="3" ry="3" style="stroke:#A80036;stroke-width:1.0;stroke-dasharray:3.0,3.0;"/><path d="M1615.5,870 L1628.5,870 C1656.6837,870 1670.6516,867.6071 1689,889 C1758.0755,969.5373 1648.0904,1051.9069 1725,1125 C1749.7503,1148.5221 1781.4218,1161.9374 1814.8241,1168.8866 " fill="none" style="stroke:#A80036;stroke-width:1.0;stroke-dasharray:3.0,3.0;"/><path d="M1814.2371,1171.9291 L1817.1059,1169.3268 L1815.411,1165.8442 L1822.4302,1170.3539 L1814.2371,1171.9291 " fill="#A80036" style="stroke:#A80036;stroke-width:1.0;"/><ellipse cx="1615.5" cy="870" fill="#A80036" rx="3" ry="3" style="stroke:#A80036;stroke-width:1.0;stroke-dasharray:3.0,3.0;"/><path d="M1309,870 L1322,870 C1351.2375,870 1382.8733,870 1412.1861,870 " fill="none" style="stroke:#A80036;stroke-width:1.0;stroke-dasharray:3.0,3.0;"/><path d="M1412.1861,873.1197 L1414.5259,870 L1412.1861,866.8803 L1419.9854,870 L1412.1861,873.1197 " fill="#A80036" style="stroke:#A80036;stroke-width:1.0;"/><ellipse cx="1309" cy="870" fill="#A80036" rx="3" ry="3" style="stroke:#A80036;stroke-width:1.0;stroke-dasharray:3.0,3.0;"/><path d="M1309,897 L1322,897 C1336.1012,897 1350.7518,897.2746 1365.4262,897.7371 " fill="none" style="stroke:#A80036;stroke-width:1.0;stroke-dasharray:3.0,3.0;"/><path d="M1365.3228,900.8063 L1367.7282,897.8146 L1365.5296,894.6678 L1373.0994,897.9956 L1365.3228,900.8063 " fill="#A80036" style="stroke:#A80036;stroke-width:1.0;"/><ellipse cx="1309" cy="897" fill="#A80036" rx="3" ry="3" style="stroke:#A80036;stroke-width:1.0;stroke-dasharray:3.0,3.0;"/><path d="M446,843 L459,843 C543.8617,843 635.8931,843 720.5565,843 " fill="none" style="stroke:#A80036;stroke-width:1.0;stroke-dasharray:3.0,3.0;"/><path d="M720.5565,846.0581 L722.85,843 L720.5565,839.9419 L728.2017,843 L720.5565,846.0581 " fill="#A80036" style="stroke:#A80036;stroke-width:1.0;"/><ellipse cx="446" cy="843" fill="#A80036" rx="3" ry="3" style="stroke:#A80036;stroke-width:1.0;stroke-dasharray:3.0,3.0;"/><path d="M95,819 L108,819 C124.1536,819 127.9333,822.3271 144,824 C223.4955,832.277 316.4011,837.8805 370.764,840.75 " fill="none" style="stroke:#A80036;stroke-width:1.0;stroke-dasharray:3.0,3.0;"/><path d="M370.6026,843.8439 L373.0845,840.871 L370.9254,837.656 L378.4989,841.1535 L370.6026,843.8439 " fill="#A80036" style="stroke:#A80036;stroke-width:1.0;"/><ellipse cx="95" cy="819" fill="#A80036" rx="3" ry="3" style="stroke:#A80036;stroke-width:1.0;stroke-dasharray:3.0,3.0;"/><!--MD5=[baf40924b0d87a8666b0e7e1c3fffa08]
@startjson
{
  "info": {
    "title": "OMA LwM2M Energy (Object ID 3331)",
    "version": "2021-02-11",
    "copyright": "Copyright (c) 2018-2020 IPSO",
    "license": "https://github.com/one-data-model/oneDM/blob/master/LICENSE"
  },
  "sdfObject": {
    "Energy": {
      "label": "Energy",
      "description": "This IPSO object should be used to report energy consumption\\n(Cumulative Power) of an electrical load. An example measurement unit\\nis Watt Hours.",
      "sdfProperty": {
        "Sensor_Value": {
          "label": "Sensor Value",
          "description": "Last or Current Measured Value from the Sensor.",
          "writable": false,
          "type": "number"
        },
        "Sensor_Units": {
          "label": "Sensor Units",
          "description": "Measurement Units Definition.",
          "writable": false,
          "type": "string"
        },
        "Application_Type": {
          "label": "Application Type",
          "description": "The application type of the sensor or actuator as a string depending\\non the use case.",
          "type": "string"
        },
        "Timestamp": {
          "label": "Timestamp",
          "description": "The timestamp of when the measurement was performed.",
          "writable": false,
          "type": "number",
          "sdfType": "unix-time"
        },
        "Fractional_Timestamp": {
          "label": "Fractional Timestamp",
          "description": "Fractional part of the timestamp when sub-second precision is used\\n(e.g., 0.23 for 230 ms).",
          "writable": false,
          "type": "number",
          "unit": "s",
          "minimum": 0,
          "maximum": 1
        },
        "Measurement_Quality_Indicator": {
          "label": "Measurement Quality Indicator",
          "description": "Measurement quality indicator reported by a smart sensor.\\n0: UNCHECKED No quality checks were done because they do not exist or\\ncan not be applied.\\n1: REJECTED WITH CERTAINTY The measured value is invalid.\\n2: REJECTED WITH PROBABILITY The measured value is likely invalid.\\n3: ACCEPTED BUT SUSPICIOUS The measured value is likely OK.\\n4: ACCEPTED The measured value is OK.\\n5-15: Reserved for future extensions.\\n16-23: Vendor specific measurement quality.",
          "writable": false,
          "type": "integer",
          "minimum": 0,
          "maximum": 23
        },
        "Measurement_Quality_Level": {
          "label": "Measurement Quality Level",
          "description": "Measurement quality level reported by a smart sensor. Quality level\\n100 means that the measurement has fully passed quality check\\nalgorithms. Smaller quality levels mean that quality has decreased\\nand the measurement has only partially passed quality check\\nalgorithms. The smaller the quality level, the more caution should be\\nused by the application when using the measurement. When the quality\\nlevel is 0 it means that the measurement should certainly be\\nrejected.",
          "writable": false,
          "type": "integer",
          "minimum": 0,
          "maximum": 100
        }
      },
      "sdfAction": {
        "Reset_Cumulative_energy": {
          "label": "Reset Cumulative energy",
          "description": "Reset both cumulative active/reactive power."
        }
      },
      "sdfRequired": [
        "#/sdfObject/Energy/sdfProperty/Sensor_Value"
      ]
    }
  }
}
@endjson

PlantUML version 1.2021.2(Sun Mar 07 13:10:27 EET 2021)
(GPL source distribution)
Java Runtime: OpenJDK Runtime Environment
JVM: OpenJDK 64-Bit Server VM
Default Encoding: UTF-8
Language: en
Country: FI
--></g></svg>