<?xml version="1.0" encoding="UTF-8" standalone="no"?><svg xmlns="http://www.w3.org/2000/svg" xmlns:xlink="http://www.w3.org/1999/xlink" contentScriptType="application/ecmascript" contentStyleType="text/css" height="469px" preserveAspectRatio="none" style="width:2501px;height:469px;" version="1.1" viewBox="0 0 2501 469" width="2501px" zoomAndPan="magnify"><defs/><g><rect fill="#FEFECE" height="40.9766" rx="5" ry="5" style="stroke:#FEFECE;stroke-width:1.5;" width="97" x="10" y="156"/><text fill="#000000" font-family="sans-serif" font-size="14" lengthAdjust="spacing" textLength="27" x="15" y="171.5352">info</text><text fill="#000000" font-family="sans-serif" font-size="14" lengthAdjust="spacing" textLength="0" x="102" y="171.5352"/><line style="stroke:#A80036;stroke-width:1.0;" x1="85" x2="85" y1="156" y2="176.4883"/><line style="stroke:#A80036;stroke-width:1.0;" x1="10" x2="107" y1="176.4883" y2="176.4883"/><text fill="#000000" font-family="sans-serif" font-size="14" lengthAdjust="spacing" textLength="65" x="15" y="192.0234">sdfObject</text><text fill="#000000" font-family="sans-serif" font-size="14" lengthAdjust="spacing" textLength="0" x="102" y="192.0234"/><line style="stroke:#A80036;stroke-width:1.0;" x1="85" x2="85" y1="176.4883" y2="196.9766"/><rect fill="none" height="40.9766" rx="5" ry="5" style="stroke:#A80036;stroke-width:1.5;" width="97" x="10" y="156"/><rect fill="#FEFECE" height="81.9531" rx="5" ry="5" style="stroke:#FEFECE;stroke-width:1.5;" width="655" x="144" y="100.5"/><text fill="#000000" font-family="sans-serif" font-size="14" lengthAdjust="spacing" textLength="65" x="149" y="116.0352">copyright</text><text fill="#000000" font-family="sans-serif" font-size="14" lengthAdjust="spacing" textLength="570" x="224" y="116.0352">copyright 2016-2017, 2019 Open Connectivity Foundation, Inc. All rights reserved.</text><line style="stroke:#A80036;stroke-width:1.0;" x1="219" x2="219" y1="100.5" y2="120.9883"/><line style="stroke:#A80036;stroke-width:1.0;" x1="144" x2="799" y1="120.9883" y2="120.9883"/><text fill="#000000" font-family="sans-serif" font-size="14" lengthAdjust="spacing" textLength="47" x="149" y="136.5234">license</text><text fill="#000000" font-family="sans-serif" font-size="14" lengthAdjust="spacing" textLength="462" x="224" y="136.5234">https://github.com/one-data-model/oneDM/blob/master/LICENSE</text><line style="stroke:#A80036;stroke-width:1.0;" x1="219" x2="219" y1="120.9883" y2="141.4766"/><line style="stroke:#A80036;stroke-width:1.0;" x1="144" x2="799" y1="141.4766" y2="141.4766"/><text fill="#000000" font-family="sans-serif" font-size="14" lengthAdjust="spacing" textLength="26" x="149" y="157.0117">title</text><text fill="#000000" font-family="sans-serif" font-size="14" lengthAdjust="spacing" textLength="52" x="224" y="157.0117">Grinder</text><line style="stroke:#A80036;stroke-width:1.0;" x1="219" x2="219" y1="141.4766" y2="161.9648"/><line style="stroke:#A80036;stroke-width:1.0;" x1="144" x2="799" y1="161.9648" y2="161.9648"/><text fill="#000000" font-family="sans-serif" font-size="14" lengthAdjust="spacing" textLength="50" x="149" y="177.5">version</text><text fill="#000000" font-family="sans-serif" font-size="14" lengthAdjust="spacing" textLength="88" x="224" y="177.5">2019-02-15</text><line style="stroke:#A80036;stroke-width:1.0;" x1="219" x2="219" y1="161.9648" y2="182.4531"/><rect fill="none" height="81.9531" rx="5" ry="5" style="stroke:#A80036;stroke-width:1.5;" width="655" x="144" y="100.5"/><rect fill="#FEFECE" height="20.4883" rx="5" ry="5" style="stroke:#FEFECE;stroke-width:1.5;" width="83" x="430" y="200.5"/><text fill="#000000" font-family="sans-serif" font-size="14" lengthAdjust="spacing" textLength="51" x="435" y="216.0352">grinder</text><text fill="#000000" font-family="sans-serif" font-size="14" lengthAdjust="spacing" textLength="0" x="508" y="216.0352"/><line style="stroke:#A80036;stroke-width:1.0;" x1="491" x2="491" y1="200.5" y2="220.9883"/><rect fill="none" height="20.4883" rx="5" ry="5" style="stroke:#A80036;stroke-width:1.5;" width="83" x="430" y="200.5"/><rect fill="#FEFECE" height="110.9297" rx="5" ry="5" style="stroke:#FEFECE;stroke-width:1.5;" width="574" x="836" y="155"/><text fill="#000000" font-family="sans-serif" font-size="14" lengthAdjust="spacing" textLength="77" x="841" y="170.5352">description</text><text fill="#000000" font-family="sans-serif" font-size="14" lengthAdjust="spacing" textLength="471" x="934" y="170.5352">This Resource describes the attributes associated with a grinder. The</text><text fill="#000000" font-family="sans-serif" font-size="14" lengthAdjust="spacing" textLength="452" x="934" y="187.0234">Property "coarseness" of the grounds is an integer. The higher the</text><text fill="#000000" font-family="sans-serif" font-size="14" lengthAdjust="spacing" textLength="464" x="934" y="203.5117">value, the less coarse. The Property "remaining" is a percentage that</text><text fill="#000000" font-family="sans-serif" font-size="14" lengthAdjust="spacing" textLength="262" x="934" y="220">represents the unground material left.</text><line style="stroke:#A80036;stroke-width:1.0;" x1="929" x2="929" y1="155" y2="224.9531"/><line style="stroke:#A80036;stroke-width:1.0;" x1="836" x2="1410" y1="224.9531" y2="224.9531"/><text fill="#000000" font-family="sans-serif" font-size="14" lengthAdjust="spacing" textLength="79" x="841" y="240.4883">sdfProperty</text><text fill="#000000" font-family="sans-serif" font-size="14" lengthAdjust="spacing" textLength="0" x="946" y="240.4883"/><line style="stroke:#A80036;stroke-width:1.0;" x1="929" x2="929" y1="224.9531" y2="245.4414"/><line style="stroke:#A80036;stroke-width:1.0;" x1="836" x2="1410" y1="245.4414" y2="245.4414"/><text fill="#000000" font-family="sans-serif" font-size="14" lengthAdjust="spacing" textLength="83" x="841" y="260.9766">sdfRequired</text><text fill="#000000" font-family="sans-serif" font-size="14" lengthAdjust="spacing" textLength="0" x="946" y="260.9766"/><line style="stroke:#A80036;stroke-width:1.0;" x1="929" x2="929" y1="245.4414" y2="265.9297"/><rect fill="none" height="110.9297" rx="5" ry="5" style="stroke:#A80036;stroke-width:1.5;" width="574" x="836" y="155"/><rect fill="#FEFECE" height="81.9531" rx="5" ry="5" style="stroke:#FEFECE;stroke-width:1.5;" width="108" x="1552" y="153.5"/><text fill="#000000" font-family="sans-serif" font-size="14" lengthAdjust="spacing" textLength="76" x="1557" y="169.0352">coarseness</text><text fill="#000000" font-family="sans-serif" font-size="14" lengthAdjust="spacing" textLength="0" x="1655" y="169.0352"/><line style="stroke:#A80036;stroke-width:1.0;" x1="1638" x2="1638" y1="153.5" y2="173.9883"/><line style="stroke:#A80036;stroke-width:1.0;" x1="1552" x2="1660" y1="173.9883" y2="173.9883"/><text fill="#000000" font-family="sans-serif" font-size="14" lengthAdjust="spacing" textLength="70" x="1557" y="189.5234">remaining</text><text fill="#000000" font-family="sans-serif" font-size="14" lengthAdjust="spacing" textLength="0" x="1655" y="189.5234"/><line style="stroke:#A80036;stroke-width:1.0;" x1="1638" x2="1638" y1="173.9883" y2="194.4766"/><line style="stroke:#A80036;stroke-width:1.0;" x1="1552" x2="1660" y1="194.4766" y2="194.4766"/><text fill="#000000" font-family="sans-serif" font-size="14" lengthAdjust="spacing" textLength="40" x="1557" y="210.0117">range</text><text fill="#000000" font-family="sans-serif" font-size="14" lengthAdjust="spacing" textLength="0" x="1655" y="210.0117"/><line style="stroke:#A80036;stroke-width:1.0;" x1="1638" x2="1638" y1="194.4766" y2="214.9648"/><line style="stroke:#A80036;stroke-width:1.0;" x1="1552" x2="1660" y1="214.9648" y2="214.9648"/><text fill="#000000" font-family="sans-serif" font-size="14" lengthAdjust="spacing" textLength="29" x="1557" y="230.5">step</text><text fill="#000000" font-family="sans-serif" font-size="14" lengthAdjust="spacing" textLength="0" x="1655" y="230.5"/><line style="stroke:#A80036;stroke-width:1.0;" x1="1638" x2="1638" y1="214.9648" y2="235.4531"/><rect fill="none" height="81.9531" rx="5" ry="5" style="stroke:#A80036;stroke-width:1.5;" width="108" x="1552" y="153.5"/><rect fill="#FEFECE" height="40.9766" rx="5" ry="5" style="stroke:#FEFECE;stroke-width:1.5;" width="366" x="1895" y="10"/><text fill="#000000" font-family="sans-serif" font-size="14" lengthAdjust="spacing" textLength="77" x="1900" y="25.5352">description</text><text fill="#000000" font-family="sans-serif" font-size="14" lengthAdjust="spacing" textLength="269" x="1987" y="25.5352">The desired coarseness when grinding.</text><line style="stroke:#A80036;stroke-width:1.0;" x1="1982" x2="1982" y1="10" y2="30.4883"/><line style="stroke:#A80036;stroke-width:1.0;" x1="1895" x2="2261" y1="30.4883" y2="30.4883"/><text fill="#000000" font-family="sans-serif" font-size="14" lengthAdjust="spacing" textLength="29" x="1900" y="46.0234">type</text><text fill="#000000" font-family="sans-serif" font-size="14" lengthAdjust="spacing" textLength="49" x="1987" y="46.0234">integer</text><line style="stroke:#A80036;stroke-width:1.0;" x1="1982" x2="1982" y1="30.4883" y2="50.9766"/><rect fill="none" height="40.9766" rx="5" ry="5" style="stroke:#A80036;stroke-width:1.5;" width="366" x="1895" y="10"/><rect fill="#FEFECE" height="102.4414" rx="5" ry="5" style="stroke:#FEFECE;stroke-width:1.5;" width="385" x="1885.5" y="69.5"/><text fill="#000000" font-family="sans-serif" font-size="14" lengthAdjust="spacing" textLength="77" x="1890.5" y="85.0352">description</text><text fill="#000000" font-family="sans-serif" font-size="14" lengthAdjust="spacing" textLength="288" x="1977.5" y="85.0352">The percentage of unground material left.</text><line style="stroke:#A80036;stroke-width:1.0;" x1="1972.5" x2="1972.5" y1="69.5" y2="89.9883"/><line style="stroke:#A80036;stroke-width:1.0;" x1="1885.5" x2="2270.5" y1="89.9883" y2="89.9883"/><text fill="#000000" font-family="sans-serif" font-size="14" lengthAdjust="spacing" textLength="69" x="1890.5" y="105.5234">maximum</text><text fill="#000000" font-family="sans-serif" font-size="14" lengthAdjust="spacing" textLength="27" x="1977.5" y="105.5234">100</text><line style="stroke:#A80036;stroke-width:1.0;" x1="1972.5" x2="1972.5" y1="89.9883" y2="110.4766"/><line style="stroke:#A80036;stroke-width:1.0;" x1="1885.5" x2="2270.5" y1="110.4766" y2="110.4766"/><text fill="#000000" font-family="sans-serif" font-size="14" lengthAdjust="spacing" textLength="65" x="1890.5" y="126.0117">minimum</text><text fill="#000000" font-family="sans-serif" font-size="14" lengthAdjust="spacing" textLength="9" x="1977.5" y="126.0117">0</text><line style="stroke:#A80036;stroke-width:1.0;" x1="1972.5" x2="1972.5" y1="110.4766" y2="130.9648"/><line style="stroke:#A80036;stroke-width:1.0;" x1="1885.5" x2="2270.5" y1="130.9648" y2="130.9648"/><text fill="#000000" font-family="sans-serif" font-size="14" lengthAdjust="spacing" textLength="55" x="1890.5" y="146.5">writable</text><text fill="#000000" font-family="sans-serif" font-size="14" lengthAdjust="spacing" textLength="48" x="1977.5" y="146.5">☐ false</text><line style="stroke:#A80036;stroke-width:1.0;" x1="1972.5" x2="1972.5" y1="130.9648" y2="151.4531"/><line style="stroke:#A80036;stroke-width:1.0;" x1="1885.5" x2="2270.5" y1="151.4531" y2="151.4531"/><text fill="#000000" font-family="sans-serif" font-size="14" lengthAdjust="spacing" textLength="29" x="1890.5" y="166.9883">type</text><text fill="#000000" font-family="sans-serif" font-size="14" lengthAdjust="spacing" textLength="49" x="1977.5" y="166.9883">integer</text><line style="stroke:#A80036;stroke-width:1.0;" x1="1972.5" x2="1972.5" y1="151.4531" y2="171.9414"/><rect fill="none" height="102.4414" rx="5" ry="5" style="stroke:#A80036;stroke-width:1.5;" width="385" x="1885.5" y="69.5"/><rect fill="#FEFECE" height="155.9063" rx="5" ry="5" style="stroke:#FEFECE;stroke-width:1.5;" width="552" x="1802" y="189.5"/><text fill="#000000" font-family="sans-serif" font-size="14" lengthAdjust="spacing" textLength="29" x="1807" y="205.0352">type</text><text fill="#000000" font-family="sans-serif" font-size="14" lengthAdjust="spacing" textLength="35" x="1894" y="205.0352">array</text><line style="stroke:#A80036;stroke-width:1.0;" x1="1889" x2="1889" y1="189.5" y2="209.9883"/><line style="stroke:#A80036;stroke-width:1.0;" x1="1802" x2="2354" y1="209.9883" y2="209.9883"/><text fill="#000000" font-family="sans-serif" font-size="14" lengthAdjust="spacing" textLength="77" x="1807" y="225.5234">description</text><text fill="#000000" font-family="sans-serif" font-size="14" lengthAdjust="spacing" textLength="455" x="1894" y="225.5234">The valid range for the Property in the Resource as an integer. The</text><text fill="#000000" font-family="sans-serif" font-size="14" lengthAdjust="spacing" textLength="439" x="1894" y="242.0117">first value in the array is the minimum value, the second value in</text><text fill="#000000" font-family="sans-serif" font-size="14" lengthAdjust="spacing" textLength="219" x="1894" y="258.5">the array is the maximum value.</text><line style="stroke:#A80036;stroke-width:1.0;" x1="1889" x2="1889" y1="209.9883" y2="263.4531"/><line style="stroke:#A80036;stroke-width:1.0;" x1="1802" x2="2354" y1="263.4531" y2="263.4531"/><text fill="#000000" font-family="sans-serif" font-size="14" lengthAdjust="spacing" textLength="55" x="1807" y="278.9883">writable</text><text fill="#000000" font-family="sans-serif" font-size="14" lengthAdjust="spacing" textLength="48" x="1894" y="278.9883">☐ false</text><line style="stroke:#A80036;stroke-width:1.0;" x1="1889" x2="1889" y1="263.4531" y2="283.9414"/><line style="stroke:#A80036;stroke-width:1.0;" x1="1802" x2="2354" y1="283.9414" y2="283.9414"/><text fill="#000000" font-family="sans-serif" font-size="14" lengthAdjust="spacing" textLength="63" x="1807" y="299.4766">minItems</text><text fill="#000000" font-family="sans-serif" font-size="14" lengthAdjust="spacing" textLength="9" x="1894" y="299.4766">2</text><line style="stroke:#A80036;stroke-width:1.0;" x1="1889" x2="1889" y1="283.9414" y2="304.4297"/><line style="stroke:#A80036;stroke-width:1.0;" x1="1802" x2="2354" y1="304.4297" y2="304.4297"/><text fill="#000000" font-family="sans-serif" font-size="14" lengthAdjust="spacing" textLength="67" x="1807" y="319.9648">maxItems</text><text fill="#000000" font-family="sans-serif" font-size="14" lengthAdjust="spacing" textLength="9" x="1894" y="319.9648">2</text><line style="stroke:#A80036;stroke-width:1.0;" x1="1889" x2="1889" y1="304.4297" y2="324.918"/><line style="stroke:#A80036;stroke-width:1.0;" x1="1802" x2="2354" y1="324.918" y2="324.918"/><text fill="#000000" font-family="sans-serif" font-size="14" lengthAdjust="spacing" textLength="37" x="1807" y="340.4531">items</text><text fill="#000000" font-family="sans-serif" font-size="14" lengthAdjust="spacing" textLength="0" x="1906" y="340.4531"/><line style="stroke:#A80036;stroke-width:1.0;" x1="1889" x2="1889" y1="324.918" y2="345.4063"/><rect fill="none" height="155.9063" rx="5" ry="5" style="stroke:#A80036;stroke-width:1.5;" width="552" x="1802" y="189.5"/><rect fill="#FEFECE" height="20.4883" rx="5" ry="5" style="stroke:#FEFECE;stroke-width:1.5;" width="98" x="2391" y="322.5"/><text fill="#000000" font-family="sans-serif" font-size="14" lengthAdjust="spacing" textLength="29" x="2396" y="338.0352">type</text><text fill="#000000" font-family="sans-serif" font-size="14" lengthAdjust="spacing" textLength="49" x="2435" y="338.0352">integer</text><line style="stroke:#A80036;stroke-width:1.0;" x1="2430" x2="2430" y1="322.5" y2="342.9883"/><rect fill="none" height="20.4883" rx="5" ry="5" style="stroke:#A80036;stroke-width:1.5;" width="98" x="2391" y="322.5"/><rect fill="#FEFECE" height="94.4414" rx="5" ry="5" style="stroke:#FEFECE;stroke-width:1.5;" width="549" x="1803.5" y="363.5"/><text fill="#000000" font-family="sans-serif" font-size="14" lengthAdjust="spacing" textLength="77" x="1808.5" y="379.0352">description</text><text fill="#000000" font-family="sans-serif" font-size="14" lengthAdjust="spacing" textLength="448" x="1895.5" y="379.0352">Step value across the defined range when the range is an integer.</text><text fill="#000000" font-family="sans-serif" font-size="14" lengthAdjust="spacing" textLength="449" x="1895.5" y="395.5234">This is the increment for valid values across the range; so if range</text><text fill="#000000" font-family="sans-serif" font-size="14" lengthAdjust="spacing" textLength="376" x="1895.5" y="412.0117">is 0..10 and step is 2 then valid values are 0,2,4,6,8,10.</text><line style="stroke:#A80036;stroke-width:1.0;" x1="1890.5" x2="1890.5" y1="363.5" y2="416.9648"/><line style="stroke:#A80036;stroke-width:1.0;" x1="1803.5" x2="2352.5" y1="416.9648" y2="416.9648"/><text fill="#000000" font-family="sans-serif" font-size="14" lengthAdjust="spacing" textLength="55" x="1808.5" y="432.5">writable</text><text fill="#000000" font-family="sans-serif" font-size="14" lengthAdjust="spacing" textLength="48" x="1895.5" y="432.5">☐ false</text><line style="stroke:#A80036;stroke-width:1.0;" x1="1890.5" x2="1890.5" y1="416.9648" y2="437.4531"/><line style="stroke:#A80036;stroke-width:1.0;" x1="1803.5" x2="2352.5" y1="437.4531" y2="437.4531"/><text fill="#000000" font-family="sans-serif" font-size="14" lengthAdjust="spacing" textLength="29" x="1808.5" y="452.9883">type</text><text fill="#000000" font-family="sans-serif" font-size="14" lengthAdjust="spacing" textLength="49" x="1895.5" y="452.9883">integer</text><line style="stroke:#A80036;stroke-width:1.0;" x1="1890.5" x2="1890.5" y1="437.4531" y2="457.9414"/><rect fill="none" height="94.4414" rx="5" ry="5" style="stroke:#A80036;stroke-width:1.5;" width="549" x="1803.5" y="363.5"/><rect fill="#FEFECE" height="20.4883" rx="5" ry="5" style="stroke:#FEFECE;stroke-width:1.5;" width="318" x="1447" y="253.5"/><text fill="#000000" font-family="sans-serif" font-size="14" lengthAdjust="spacing" textLength="308" x="1452" y="269.0352">#/sdfObject/grinder/sdfProperty/coarseness</text><rect fill="none" height="20.4883" rx="5" ry="5" style="stroke:#A80036;stroke-width:1.5;" width="318" x="1447" y="253.5"/><path d="M95,165.5 L108,165.5 C117.3442,165.5 126.8208,165.4198 136.3833,165.2688 " fill="none" style="stroke:#A80036;stroke-width:1.0;stroke-dasharray:3.0,3.0;"/><path d="M136.4378,168.3434 L138.6892,165.2279 L136.3288,162.1942 L144.0697,165.1326 L136.4378,168.3434 " fill="#A80036" style="stroke:#A80036;stroke-width:1.0;"/><ellipse cx="95" cy="165.5" fill="#A80036" rx="3" ry="3" style="stroke:#A80036;stroke-width:1.0;stroke-dasharray:3.0,3.0;"/><path d="M1648.5,163.5 L1661.5,163.5 C1738.9268,163.5 1729.8277,88.537 1802,60.5 C1828.9768,50.0202 1858.4867,42.809 1887.85,37.9089 " fill="none" style="stroke:#A80036;stroke-width:1.0;stroke-dasharray:3.0,3.0;"/><path d="M1888.3286,40.8931 L1890.0881,37.5499 L1887.3713,34.9247 L1895.3104,36.7123 L1888.3286,40.8931 " fill="#A80036" style="stroke:#A80036;stroke-width:1.0;"/><ellipse cx="1648.5" cy="163.5" fill="#A80036" rx="3" ry="3" style="stroke:#A80036;stroke-width:1.0;stroke-dasharray:3.0,3.0;"/><path d="M1648.5,183.5 L1661.5,183.5 C1732.6825,183.5 1809.9518,174.3711 1878.3592,163.0634 " fill="none" style="stroke:#A80036;stroke-width:1.0;stroke-dasharray:3.0,3.0;"/><path d="M1878.857,166.0401 L1880.5918,162.6901 L1877.8615,160.0867 L1885.801,161.819 L1878.857,166.0401 " fill="#A80036" style="stroke:#A80036;stroke-width:1.0;"/><ellipse cx="1648.5" cy="183.5" fill="#A80036" rx="3" ry="3" style="stroke:#A80036;stroke-width:1.0;stroke-dasharray:3.0,3.0;"/><path d="M2342,332.5 L2355,332.5 C2364.2605,332.5 2374.0919,332.5 2383.6496,332.5 " fill="none" style="stroke:#A80036;stroke-width:1.0;stroke-dasharray:3.0,3.0;"/><path d="M2383.6496,335.5361 L2385.9267,332.5 L2383.6496,329.4639 L2391.2398,332.5 L2383.6496,335.5361 " fill="#A80036" style="stroke:#A80036;stroke-width:1.0;"/><ellipse cx="2342" cy="332.5" fill="#A80036" rx="3" ry="3" style="stroke:#A80036;stroke-width:1.0;stroke-dasharray:3.0,3.0;"/><path d="M1648.5,204.5 L1661.5,204.5 C1704.7432,204.5 1750.2328,207.869 1794.6172,213.0489 " fill="none" style="stroke:#A80036;stroke-width:1.0;stroke-dasharray:3.0,3.0;"/><path d="M1794.2505,216.1255 L1796.9246,213.324 L1794.984,209.9724 L1802.3086,213.9658 L1794.2505,216.1255 " fill="#A80036" style="stroke:#A80036;stroke-width:1.0;"/><ellipse cx="1648.5" cy="204.5" fill="#A80036" rx="3" ry="3" style="stroke:#A80036;stroke-width:1.0;stroke-dasharray:3.0,3.0;"/><path d="M1648.5,225.5 L1661.5,225.5 C1708.7059,225.5 1730.4228,213.4733 1766,244.5 C1804.7687,278.3099 1763.583,320.291 1802,354.5 C1803.515,355.849 1805.0534,357.1691 1806.6141,358.4606 " fill="none" style="stroke:#A80036;stroke-width:1.0;stroke-dasharray:3.0,3.0;"/><path d="M1804.6774,360.9117 L1808.4524,359.9132 L1808.5508,356.0095 L1812.7418,363.3024 L1804.6774,360.9117 " fill="#A80036" style="stroke:#A80036;stroke-width:1.0;"/><ellipse cx="1648.5" cy="225.5" fill="#A80036" rx="3" ry="3" style="stroke:#A80036;stroke-width:1.0;stroke-dasharray:3.0,3.0;"/><path d="M1398,210.5 L1411,210.5 C1455.9458,210.5 1506.5378,206.2037 1544.8556,202.0637 " fill="none" style="stroke:#A80036;stroke-width:1.0;stroke-dasharray:3.0,3.0;"/><path d="M1545.1855,205.0615 L1547.104,201.8163 L1544.5258,199.0658 L1552.3502,201.2391 L1545.1855,205.0615 " fill="#A80036" style="stroke:#A80036;stroke-width:1.0;"/><ellipse cx="1398" cy="210.5" fill="#A80036" rx="3" ry="3" style="stroke:#A80036;stroke-width:1.0;stroke-dasharray:3.0,3.0;"/><path d="M1398,247.5 L1411,247.5 C1444.2488,247.5 1480.5874,249.8511 1512.7612,252.7508 " fill="none" style="stroke:#A80036;stroke-width:1.0;stroke-dasharray:3.0,3.0;"/><path d="M1512.4784,255.8124 L1515.0574,252.9629 L1513.0441,249.6892 L1520.4152,253.4578 L1512.4784,255.8124 " fill="#A80036" style="stroke:#A80036;stroke-width:1.0;"/><ellipse cx="1398" cy="247.5" fill="#A80036" rx="3" ry="3" style="stroke:#A80036;stroke-width:1.0;stroke-dasharray:3.0,3.0;"/><path d="M502,210.5 L515,210.5 C617.1484,210.5 728.9582,210.5 828.4983,210.5 " fill="none" style="stroke:#A80036;stroke-width:1.0;stroke-dasharray:3.0,3.0;"/><path d="M828.4983,213.6017 L830.8246,210.5 L828.4983,207.3983 L836.2526,210.5 L828.4983,213.6017 " fill="#A80036" style="stroke:#A80036;stroke-width:1.0;"/><ellipse cx="502" cy="210.5" fill="#A80036" rx="3" ry="3" style="stroke:#A80036;stroke-width:1.0;stroke-dasharray:3.0,3.0;"/><path d="M95,186.5 L108,186.5 C124.1536,186.5 127.924,189.9191 144,191.5 C242.841,201.2198 359.0151,206.5206 422.8679,208.908 " fill="none" style="stroke:#A80036;stroke-width:1.0;stroke-dasharray:3.0,3.0;"/><path d="M422.7572,211.9172 L425.1248,208.9911 L422.9787,205.8989 L430.3908,209.1848 L422.7572,211.9172 " fill="#A80036" style="stroke:#A80036;stroke-width:1.0;"/><ellipse cx="95" cy="186.5" fill="#A80036" rx="3" ry="3" style="stroke:#A80036;stroke-width:1.0;stroke-dasharray:3.0,3.0;"/><!--MD5=[fcb07adad2970cab5d02def93e60c035]
@startjson
{
  "info": {
    "copyright": "copyright 2016-2017, 2019 Open Connectivity Foundation, Inc. All rights reserved.",
    "license": "https://github.com/one-data-model/oneDM/blob/master/LICENSE",
    "title": "Grinder",
    "version": "2019-02-15"
  },
  "sdfObject": {
    "grinder": {
      "description": "This Resource describes the attributes associated with a grinder. The\\nProperty \"coarseness\" of the grounds is an integer. The higher the\\nvalue, the less coarse. The Property \"remaining\" is a percentage that\\nrepresents the unground material left.",
      "sdfProperty": {
        "coarseness": {
          "description": "The desired coarseness when grinding.",
          "type": "integer"
        },
        "remaining": {
          "description": "The percentage of unground material left.",
          "maximum": 100,
          "minimum": 0,
          "writable": false,
          "type": "integer"
        },
        "range": {
          "type": "array",
          "description": "The valid range for the Property in the Resource as an integer. The\\nfirst value in the array is the minimum value, the second value in\\nthe array is the maximum value.",
          "writable": false,
          "minItems": 2,
          "maxItems": 2,
          "items": {
            "type": "integer"
          }
        },
        "step": {
          "description": "Step value across the defined range when the range is an integer. \\nThis is the increment for valid values across the range; so if range\\nis 0..10 and step is 2 then valid values are 0,2,4,6,8,10.",
          "writable": false,
          "type": "integer"
        }
      },
      "sdfRequired": [
        "#/sdfObject/grinder/sdfProperty/coarseness"
      ]
    }
  }
}
@endjson

PlantUML version 1.2021.2(Sun Mar 07 13:10:27 EET 2021)
(GPL source distribution)
Java Runtime: OpenJDK Runtime Environment
JVM: OpenJDK 64-Bit Server VM
Default Encoding: UTF-8
Language: en
Country: FI
--></g></svg>