<?xml version="1.0" encoding="UTF-8" standalone="no"?><svg xmlns="http://www.w3.org/2000/svg" xmlns:xlink="http://www.w3.org/1999/xlink" contentScriptType="application/ecmascript" contentStyleType="text/css" height="491px" preserveAspectRatio="none" style="width:2419px;height:491px;" version="1.1" viewBox="0 0 2419 491" width="2419px" zoomAndPan="magnify"><defs/><g><rect fill="#FEFECE" height="40.9766" rx="5" ry="5" style="stroke:#FEFECE;stroke-width:1.5;" width="97" x="10" y="242.5"/><text fill="#000000" font-family="sans-serif" font-size="14" lengthAdjust="spacing" textLength="27" x="15" y="258.0352">info</text><text fill="#000000" font-family="sans-serif" font-size="14" lengthAdjust="spacing" textLength="0" x="102" y="258.0352"/><line style="stroke:#A80036;stroke-width:1.0;" x1="85" x2="85" y1="242.5" y2="262.9883"/><line style="stroke:#A80036;stroke-width:1.0;" x1="10" x2="107" y1="262.9883" y2="262.9883"/><text fill="#000000" font-family="sans-serif" font-size="14" lengthAdjust="spacing" textLength="65" x="15" y="278.5234">sdfObject</text><text fill="#000000" font-family="sans-serif" font-size="14" lengthAdjust="spacing" textLength="0" x="102" y="278.5234"/><line style="stroke:#A80036;stroke-width:1.0;" x1="85" x2="85" y1="262.9883" y2="283.4766"/><rect fill="none" height="40.9766" rx="5" ry="5" style="stroke:#A80036;stroke-width:1.5;" width="97" x="10" y="242.5"/><rect fill="#FEFECE" height="81.9531" rx="5" ry="5" style="stroke:#FEFECE;stroke-width:1.5;" width="547" x="144" y="187"/><text fill="#000000" font-family="sans-serif" font-size="14" lengthAdjust="spacing" textLength="26" x="149" y="202.5352">title</text><text fill="#000000" font-family="sans-serif" font-size="14" lengthAdjust="spacing" textLength="329" x="224" y="202.5352">OMA LwM2M Up/Down Control (Object ID 3344)</text><line style="stroke:#A80036;stroke-width:1.0;" x1="219" x2="219" y1="187" y2="207.4883"/><line style="stroke:#A80036;stroke-width:1.0;" x1="144" x2="691" y1="207.4883" y2="207.4883"/><text fill="#000000" font-family="sans-serif" font-size="14" lengthAdjust="spacing" textLength="50" x="149" y="223.0234">version</text><text fill="#000000" font-family="sans-serif" font-size="14" lengthAdjust="spacing" textLength="88" x="224" y="223.0234">2021-02-11</text><line style="stroke:#A80036;stroke-width:1.0;" x1="219" x2="219" y1="207.4883" y2="227.9766"/><line style="stroke:#A80036;stroke-width:1.0;" x1="144" x2="691" y1="227.9766" y2="227.9766"/><text fill="#000000" font-family="sans-serif" font-size="14" lengthAdjust="spacing" textLength="65" x="149" y="243.5117">copyright</text><text fill="#000000" font-family="sans-serif" font-size="14" lengthAdjust="spacing" textLength="208" x="224" y="243.5117">Copyright (c) 2018-2020 IPSO</text><line style="stroke:#A80036;stroke-width:1.0;" x1="219" x2="219" y1="227.9766" y2="248.4648"/><line style="stroke:#A80036;stroke-width:1.0;" x1="144" x2="691" y1="248.4648" y2="248.4648"/><text fill="#000000" font-family="sans-serif" font-size="14" lengthAdjust="spacing" textLength="47" x="149" y="264">license</text><text fill="#000000" font-family="sans-serif" font-size="14" lengthAdjust="spacing" textLength="462" x="224" y="264">https://github.com/one-data-model/oneDM/blob/master/LICENSE</text><line style="stroke:#A80036;stroke-width:1.0;" x1="219" x2="219" y1="248.4648" y2="268.9531"/><rect fill="none" height="81.9531" rx="5" ry="5" style="stroke:#A80036;stroke-width:1.5;" width="547" x="144" y="187"/><rect fill="#FEFECE" height="20.4883" rx="5" ry="5" style="stroke:#FEFECE;stroke-width:1.5;" width="156" x="339.5" y="287"/><text fill="#000000" font-family="sans-serif" font-size="14" lengthAdjust="spacing" textLength="124" x="344.5" y="302.5352">Up_Down_Control</text><text fill="#000000" font-family="sans-serif" font-size="14" lengthAdjust="spacing" textLength="0" x="490.5" y="302.5352"/><line style="stroke:#A80036;stroke-width:1.0;" x1="473.5" x2="473.5" y1="287" y2="307.4883"/><rect fill="none" height="20.4883" rx="5" ry="5" style="stroke:#A80036;stroke-width:1.5;" width="156" x="339.5" y="287"/><rect fill="#FEFECE" height="151.9063" rx="5" ry="5" style="stroke:#FEFECE;stroke-width:1.5;" width="573" x="728" y="221"/><text fill="#000000" font-family="sans-serif" font-size="14" lengthAdjust="spacing" textLength="33" x="733" y="236.5352">label</text><text fill="#000000" font-family="sans-serif" font-size="14" lengthAdjust="spacing" textLength="121" x="826" y="236.5352">Up/Down Control</text><line style="stroke:#A80036;stroke-width:1.0;" x1="821" x2="821" y1="221" y2="241.4883"/><line style="stroke:#A80036;stroke-width:1.0;" x1="728" x2="1301" y1="241.4883" y2="241.4883"/><text fill="#000000" font-family="sans-serif" font-size="14" lengthAdjust="spacing" textLength="77" x="733" y="257.0234">description</text><text fill="#000000" font-family="sans-serif" font-size="14" lengthAdjust="spacing" textLength="449" x="826" y="257.0234">This IPSO object is used to report the state of an up/down control</text><text fill="#000000" font-family="sans-serif" font-size="14" lengthAdjust="spacing" textLength="470" x="826" y="273.5117">element like a pair of push buttons or a rotary encoder. Counters for</text><text fill="#000000" font-family="sans-serif" font-size="14" lengthAdjust="spacing" textLength="458" x="826" y="290">increase and decrease operations are provided for counting pulses</text><text fill="#000000" font-family="sans-serif" font-size="14" lengthAdjust="spacing" textLength="190" x="826" y="306.4883">from a quadrature encoder.</text><line style="stroke:#A80036;stroke-width:1.0;" x1="821" x2="821" y1="241.4883" y2="311.4414"/><line style="stroke:#A80036;stroke-width:1.0;" x1="728" x2="1301" y1="311.4414" y2="311.4414"/><text fill="#000000" font-family="sans-serif" font-size="14" lengthAdjust="spacing" textLength="79" x="733" y="326.9766">sdfProperty</text><text fill="#000000" font-family="sans-serif" font-size="14" lengthAdjust="spacing" textLength="0" x="838" y="326.9766"/><line style="stroke:#A80036;stroke-width:1.0;" x1="821" x2="821" y1="311.4414" y2="331.9297"/><line style="stroke:#A80036;stroke-width:1.0;" x1="728" x2="1301" y1="331.9297" y2="331.9297"/><text fill="#000000" font-family="sans-serif" font-size="14" lengthAdjust="spacing" textLength="65" x="733" y="347.4648">sdfAction</text><text fill="#000000" font-family="sans-serif" font-size="14" lengthAdjust="spacing" textLength="0" x="838" y="347.4648"/><line style="stroke:#A80036;stroke-width:1.0;" x1="821" x2="821" y1="331.9297" y2="352.418"/><line style="stroke:#A80036;stroke-width:1.0;" x1="728" x2="1301" y1="352.418" y2="352.418"/><text fill="#000000" font-family="sans-serif" font-size="14" lengthAdjust="spacing" textLength="83" x="733" y="367.9531">sdfRequired</text><text fill="#000000" font-family="sans-serif" font-size="14" lengthAdjust="spacing" textLength="0" x="838" y="367.9531"/><line style="stroke:#A80036;stroke-width:1.0;" x1="821" x2="821" y1="352.418" y2="372.9063"/><rect fill="none" height="151.9063" rx="5" ry="5" style="stroke:#A80036;stroke-width:1.5;" width="573" x="728" y="221"/><rect fill="#FEFECE" height="102.4414" rx="5" ry="5" style="stroke:#FEFECE;stroke-width:1.5;" width="178" x="1479.5" y="199"/><text fill="#000000" font-family="sans-serif" font-size="14" lengthAdjust="spacing" textLength="141" x="1484.5" y="214.5352">Increase_Input_State</text><text fill="#000000" font-family="sans-serif" font-size="14" lengthAdjust="spacing" textLength="0" x="1652.5" y="214.5352"/><line style="stroke:#A80036;stroke-width:1.0;" x1="1635.5" x2="1635.5" y1="199" y2="219.4883"/><line style="stroke:#A80036;stroke-width:1.0;" x1="1479.5" x2="1657.5" y1="219.4883" y2="219.4883"/><text fill="#000000" font-family="sans-serif" font-size="14" lengthAdjust="spacing" textLength="146" x="1484.5" y="235.0234">Decrease_Input_State</text><text fill="#000000" font-family="sans-serif" font-size="14" lengthAdjust="spacing" textLength="0" x="1652.5" y="235.0234"/><line style="stroke:#A80036;stroke-width:1.0;" x1="1635.5" x2="1635.5" y1="219.4883" y2="239.9766"/><line style="stroke:#A80036;stroke-width:1.0;" x1="1479.5" x2="1657.5" y1="239.9766" y2="239.9766"/><text fill="#000000" font-family="sans-serif" font-size="14" lengthAdjust="spacing" textLength="82" x="1484.5" y="255.5117">Up_Counter</text><text fill="#000000" font-family="sans-serif" font-size="14" lengthAdjust="spacing" textLength="0" x="1652.5" y="255.5117"/><line style="stroke:#A80036;stroke-width:1.0;" x1="1635.5" x2="1635.5" y1="239.9766" y2="260.4648"/><line style="stroke:#A80036;stroke-width:1.0;" x1="1479.5" x2="1657.5" y1="260.4648" y2="260.4648"/><text fill="#000000" font-family="sans-serif" font-size="14" lengthAdjust="spacing" textLength="102" x="1484.5" y="276">Down_Counter</text><text fill="#000000" font-family="sans-serif" font-size="14" lengthAdjust="spacing" textLength="0" x="1652.5" y="276"/><line style="stroke:#A80036;stroke-width:1.0;" x1="1635.5" x2="1635.5" y1="260.4648" y2="280.9531"/><line style="stroke:#A80036;stroke-width:1.0;" x1="1479.5" x2="1657.5" y1="280.9531" y2="280.9531"/><text fill="#000000" font-family="sans-serif" font-size="14" lengthAdjust="spacing" textLength="118" x="1484.5" y="296.4883">Application_Type</text><text fill="#000000" font-family="sans-serif" font-size="14" lengthAdjust="spacing" textLength="0" x="1652.5" y="296.4883"/><line style="stroke:#A80036;stroke-width:1.0;" x1="1635.5" x2="1635.5" y1="280.9531" y2="301.4414"/><rect fill="none" height="102.4414" rx="5" ry="5" style="stroke:#A80036;stroke-width:1.5;" width="178" x="1479.5" y="199"/><rect fill="#FEFECE" height="81.9531" rx="5" ry="5" style="stroke:#FEFECE;stroke-width:1.5;" width="343" x="1950" y="10"/><text fill="#000000" font-family="sans-serif" font-size="14" lengthAdjust="spacing" textLength="33" x="1955" y="25.5352">label</text><text fill="#000000" font-family="sans-serif" font-size="14" lengthAdjust="spacing" textLength="135" x="2042" y="25.5352">Increase Input State</text><line style="stroke:#A80036;stroke-width:1.0;" x1="2037" x2="2037" y1="10" y2="30.4883"/><line style="stroke:#A80036;stroke-width:1.0;" x1="1950" x2="2293" y1="30.4883" y2="30.4883"/><text fill="#000000" font-family="sans-serif" font-size="14" lengthAdjust="spacing" textLength="77" x="1955" y="46.0234">description</text><text fill="#000000" font-family="sans-serif" font-size="14" lengthAdjust="spacing" textLength="246" x="2042" y="46.0234">Indicates an increase control action.</text><line style="stroke:#A80036;stroke-width:1.0;" x1="2037" x2="2037" y1="30.4883" y2="50.9766"/><line style="stroke:#A80036;stroke-width:1.0;" x1="1950" x2="2293" y1="50.9766" y2="50.9766"/><text fill="#000000" font-family="sans-serif" font-size="14" lengthAdjust="spacing" textLength="55" x="1955" y="66.5117">writable</text><text fill="#000000" font-family="sans-serif" font-size="14" lengthAdjust="spacing" textLength="48" x="2042" y="66.5117">☐ false</text><line style="stroke:#A80036;stroke-width:1.0;" x1="2037" x2="2037" y1="50.9766" y2="71.4648"/><line style="stroke:#A80036;stroke-width:1.0;" x1="1950" x2="2293" y1="71.4648" y2="71.4648"/><text fill="#000000" font-family="sans-serif" font-size="14" lengthAdjust="spacing" textLength="29" x="1955" y="87">type</text><text fill="#000000" font-family="sans-serif" font-size="14" lengthAdjust="spacing" textLength="56" x="2042" y="87">boolean</text><line style="stroke:#A80036;stroke-width:1.0;" x1="2037" x2="2037" y1="71.4648" y2="91.9531"/><rect fill="none" height="81.9531" rx="5" ry="5" style="stroke:#A80036;stroke-width:1.5;" width="343" x="1950" y="10"/><rect fill="#FEFECE" height="81.9531" rx="5" ry="5" style="stroke:#FEFECE;stroke-width:1.5;" width="338" x="1952.5" y="110"/><text fill="#000000" font-family="sans-serif" font-size="14" lengthAdjust="spacing" textLength="33" x="1957.5" y="125.5352">label</text><text fill="#000000" font-family="sans-serif" font-size="14" lengthAdjust="spacing" textLength="140" x="2044.5" y="125.5352">Decrease Input State</text><line style="stroke:#A80036;stroke-width:1.0;" x1="2039.5" x2="2039.5" y1="110" y2="130.4883"/><line style="stroke:#A80036;stroke-width:1.0;" x1="1952.5" x2="2290.5" y1="130.4883" y2="130.4883"/><text fill="#000000" font-family="sans-serif" font-size="14" lengthAdjust="spacing" textLength="77" x="1957.5" y="146.0234">description</text><text fill="#000000" font-family="sans-serif" font-size="14" lengthAdjust="spacing" textLength="241" x="2044.5" y="146.0234">Indicates a decrease control action.</text><line style="stroke:#A80036;stroke-width:1.0;" x1="2039.5" x2="2039.5" y1="130.4883" y2="150.9766"/><line style="stroke:#A80036;stroke-width:1.0;" x1="1952.5" x2="2290.5" y1="150.9766" y2="150.9766"/><text fill="#000000" font-family="sans-serif" font-size="14" lengthAdjust="spacing" textLength="55" x="1957.5" y="166.5117">writable</text><text fill="#000000" font-family="sans-serif" font-size="14" lengthAdjust="spacing" textLength="48" x="2044.5" y="166.5117">☐ false</text><line style="stroke:#A80036;stroke-width:1.0;" x1="2039.5" x2="2039.5" y1="150.9766" y2="171.4648"/><line style="stroke:#A80036;stroke-width:1.0;" x1="1952.5" x2="2290.5" y1="171.4648" y2="171.4648"/><text fill="#000000" font-family="sans-serif" font-size="14" lengthAdjust="spacing" textLength="29" x="1957.5" y="187">type</text><text fill="#000000" font-family="sans-serif" font-size="14" lengthAdjust="spacing" textLength="56" x="2044.5" y="187">boolean</text><line style="stroke:#A80036;stroke-width:1.0;" x1="2039.5" x2="2039.5" y1="171.4648" y2="191.9531"/><rect fill="none" height="81.9531" rx="5" ry="5" style="stroke:#A80036;stroke-width:1.5;" width="338" x="1952.5" y="110"/><rect fill="#FEFECE" height="77.9531" rx="5" ry="5" style="stroke:#FEFECE;stroke-width:1.5;" width="565" x="1839" y="210"/><text fill="#000000" font-family="sans-serif" font-size="14" lengthAdjust="spacing" textLength="33" x="1844" y="225.5352">label</text><text fill="#000000" font-family="sans-serif" font-size="14" lengthAdjust="spacing" textLength="79" x="1931" y="225.5352">Up Counter</text><line style="stroke:#A80036;stroke-width:1.0;" x1="1926" x2="1926" y1="210" y2="230.4883"/><line style="stroke:#A80036;stroke-width:1.0;" x1="1839" x2="2404" y1="230.4883" y2="230.4883"/><text fill="#000000" font-family="sans-serif" font-size="14" lengthAdjust="spacing" textLength="77" x="1844" y="246.0234">description</text><text fill="#000000" font-family="sans-serif" font-size="14" lengthAdjust="spacing" textLength="468" x="1931" y="246.0234">Counts the number of times the increase control has been operated.</text><text fill="#000000" font-family="sans-serif" font-size="14" lengthAdjust="spacing" textLength="206" x="1931" y="262.5117">Writing a 0 resets the counter.</text><line style="stroke:#A80036;stroke-width:1.0;" x1="1926" x2="1926" y1="230.4883" y2="267.4648"/><line style="stroke:#A80036;stroke-width:1.0;" x1="1839" x2="2404" y1="267.4648" y2="267.4648"/><text fill="#000000" font-family="sans-serif" font-size="14" lengthAdjust="spacing" textLength="29" x="1844" y="283">type</text><text fill="#000000" font-family="sans-serif" font-size="14" lengthAdjust="spacing" textLength="49" x="1931" y="283">integer</text><line style="stroke:#A80036;stroke-width:1.0;" x1="1926" x2="1926" y1="267.4648" y2="287.9531"/><rect fill="none" height="77.9531" rx="5" ry="5" style="stroke:#A80036;stroke-width:1.5;" width="565" x="1839" y="210"/><rect fill="#FEFECE" height="77.9531" rx="5" ry="5" style="stroke:#FEFECE;stroke-width:1.5;" width="571" x="1836" y="306"/><text fill="#000000" font-family="sans-serif" font-size="14" lengthAdjust="spacing" textLength="33" x="1841" y="321.5352">label</text><text fill="#000000" font-family="sans-serif" font-size="14" lengthAdjust="spacing" textLength="99" x="1928" y="321.5352">Down Counter</text><line style="stroke:#A80036;stroke-width:1.0;" x1="1923" x2="1923" y1="306" y2="326.4883"/><line style="stroke:#A80036;stroke-width:1.0;" x1="1836" x2="2407" y1="326.4883" y2="326.4883"/><text fill="#000000" font-family="sans-serif" font-size="14" lengthAdjust="spacing" textLength="77" x="1841" y="342.0234">description</text><text fill="#000000" font-family="sans-serif" font-size="14" lengthAdjust="spacing" textLength="474" x="1928" y="342.0234">Counts the times the decrease control has been operated. Writing a 0</text><text fill="#000000" font-family="sans-serif" font-size="14" lengthAdjust="spacing" textLength="128" x="1928" y="358.5117">resets the counter.</text><line style="stroke:#A80036;stroke-width:1.0;" x1="1923" x2="1923" y1="326.4883" y2="363.4648"/><line style="stroke:#A80036;stroke-width:1.0;" x1="1836" x2="2407" y1="363.4648" y2="363.4648"/><text fill="#000000" font-family="sans-serif" font-size="14" lengthAdjust="spacing" textLength="29" x="1841" y="379">type</text><text fill="#000000" font-family="sans-serif" font-size="14" lengthAdjust="spacing" textLength="49" x="1928" y="379">integer</text><line style="stroke:#A80036;stroke-width:1.0;" x1="1923" x2="1923" y1="363.4648" y2="383.9531"/><rect fill="none" height="77.9531" rx="5" ry="5" style="stroke:#A80036;stroke-width:1.5;" width="571" x="1836" y="306"/><rect fill="#FEFECE" height="77.9531" rx="5" ry="5" style="stroke:#FEFECE;stroke-width:1.5;" width="563" x="1840" y="402"/><text fill="#000000" font-family="sans-serif" font-size="14" lengthAdjust="spacing" textLength="33" x="1845" y="417.5352">label</text><text fill="#000000" font-family="sans-serif" font-size="14" lengthAdjust="spacing" textLength="115" x="1932" y="417.5352">Application Type</text><line style="stroke:#A80036;stroke-width:1.0;" x1="1927" x2="1927" y1="402" y2="422.4883"/><line style="stroke:#A80036;stroke-width:1.0;" x1="1840" x2="2403" y1="422.4883" y2="422.4883"/><text fill="#000000" font-family="sans-serif" font-size="14" lengthAdjust="spacing" textLength="77" x="1845" y="438.0234">description</text><text fill="#000000" font-family="sans-serif" font-size="14" lengthAdjust="spacing" textLength="466" x="1932" y="438.0234">The application type of the sensor or actuator as a string depending</text><text fill="#000000" font-family="sans-serif" font-size="14" lengthAdjust="spacing" textLength="110" x="1932" y="454.5117">on the use case.</text><line style="stroke:#A80036;stroke-width:1.0;" x1="1927" x2="1927" y1="422.4883" y2="459.4648"/><line style="stroke:#A80036;stroke-width:1.0;" x1="1840" x2="2403" y1="459.4648" y2="459.4648"/><text fill="#000000" font-family="sans-serif" font-size="14" lengthAdjust="spacing" textLength="29" x="1845" y="475">type</text><text fill="#000000" font-family="sans-serif" font-size="14" lengthAdjust="spacing" textLength="40" x="1932" y="475">string</text><line style="stroke:#A80036;stroke-width:1.0;" x1="1927" x2="1927" y1="459.4648" y2="479.9531"/><rect fill="none" height="77.9531" rx="5" ry="5" style="stroke:#A80036;stroke-width:1.5;" width="563" x="1840" y="402"/><rect fill="#FEFECE" height="15" rx="5" ry="5" style="stroke:#FEFECE;stroke-width:1.5;" width="30" x="1556.5" y="319"/><rect fill="none" height="15" rx="5" ry="5" style="stroke:#A80036;stroke-width:1.5;" width="30" x="1556.5" y="319"/><rect fill="#FEFECE" height="40.9766" rx="5" ry="5" style="stroke:#FEFECE;stroke-width:1.5;" width="461" x="1338" y="353.5"/><text fill="#000000" font-family="sans-serif" font-size="14" lengthAdjust="spacing" textLength="446" x="1343" y="369.0352">#/sdfObject/Up_Down_Control/sdfProperty/Increase_Input_State</text><line style="stroke:#A80036;stroke-width:1.0;" x1="1338" x2="1799" y1="373.9883" y2="373.9883"/><text fill="#000000" font-family="sans-serif" font-size="14" lengthAdjust="spacing" textLength="451" x="1343" y="389.5234">#/sdfObject/Up_Down_Control/sdfProperty/Decrease_Input_State</text><rect fill="none" height="40.9766" rx="5" ry="5" style="stroke:#A80036;stroke-width:1.5;" width="461" x="1338" y="353.5"/><path d="M95,252 L108,252 C117.3406,252 126.8353,251.8896 136.4202,251.6839 " fill="none" style="stroke:#A80036;stroke-width:1.0;stroke-dasharray:3.0,3.0;"/><path d="M136.4943,254.7659 L138.7318,251.6283 L136.3462,248.6019 L144.1253,251.4987 L136.4943,254.7659 " fill="#A80036" style="stroke:#A80036;stroke-width:1.0;"/><ellipse cx="95" cy="252" fill="#A80036" rx="3" ry="3" style="stroke:#A80036;stroke-width:1.0;stroke-dasharray:3.0,3.0;"/><path d="M1646,209 L1659,209 C1751.1545,209 1749.7779,133.5298 1836,101 C1869.5681,88.3355 1906.5884,78.8457 1942.5221,71.745 " fill="none" style="stroke:#A80036;stroke-width:1.0;stroke-dasharray:3.0,3.0;"/><path d="M1943.1138,74.8049 L1944.817,71.3013 L1941.9304,68.6852 L1950.1718,70.2658 L1943.1138,74.8049 " fill="#A80036" style="stroke:#A80036;stroke-width:1.0;"/><ellipse cx="1646" cy="209" fill="#A80036" rx="3" ry="3" style="stroke:#A80036;stroke-width:1.0;stroke-dasharray:3.0,3.0;"/><path d="M1646,229 L1659,229 C1666.477,229 1817.8427,203.2567 1945.3032,181.3488 " fill="none" style="stroke:#A80036;stroke-width:1.0;stroke-dasharray:3.0,3.0;"/><path d="M1945.825,184.3837 L1947.5794,180.9574 L1944.7815,178.3138 L1952.8906,180.0443 L1945.825,184.3837 " fill="#A80036" style="stroke:#A80036;stroke-width:1.0;"/><ellipse cx="1646" cy="229" fill="#A80036" rx="3" ry="3" style="stroke:#A80036;stroke-width:1.0;stroke-dasharray:3.0,3.0;"/><path d="M1646,249 L1659,249 C1714.8443,249 1774.4855,249 1831.7278,249 " fill="none" style="stroke:#A80036;stroke-width:1.0;stroke-dasharray:3.0,3.0;"/><path d="M1831.7278,252.078 L1834.0363,249 L1831.7278,245.922 L1839.4229,249 L1831.7278,252.078 " fill="#A80036" style="stroke:#A80036;stroke-width:1.0;"/><ellipse cx="1646" cy="249" fill="#A80036" rx="3" ry="3" style="stroke:#A80036;stroke-width:1.0;stroke-dasharray:3.0,3.0;"/><path d="M1646,270 L1659,270 C1665.1809,270 1769.9014,286.9507 1878.0722,304.7353 " fill="none" style="stroke:#A80036;stroke-width:1.0;stroke-dasharray:3.0,3.0;"/><path d="M1877.5814,307.7195 L1880.3104,305.1034 L1878.563,301.751 L1885.5328,305.9623 L1877.5814,307.7195 " fill="#A80036" style="stroke:#A80036;stroke-width:1.0;"/><ellipse cx="1646" cy="270" fill="#A80036" rx="3" ry="3" style="stroke:#A80036;stroke-width:1.0;stroke-dasharray:3.0,3.0;"/><path d="M1646,291 L1659,291 C1722.2331,291 1749.5751,271.8457 1800,310 C1832.0647,334.262 1804.3388,368.2137 1836,393 C1838.0248,394.5852 1840.0828,396.1261 1842.1718,397.6239 " fill="none" style="stroke:#A80036;stroke-width:1.0;stroke-dasharray:3.0,3.0;"/><path d="M1840.4257,400.1671 L1844.0792,398.9336 L1843.918,395.0808 L1848.5297,401.9893 L1840.4257,400.1671 " fill="#A80036" style="stroke:#A80036;stroke-width:1.0;"/><ellipse cx="1646" cy="291" fill="#A80036" rx="3" ry="3" style="stroke:#A80036;stroke-width:1.0;stroke-dasharray:3.0,3.0;"/><path d="M1289,296 L1302,296 C1359.1765,296 1422.2684,285.5529 1472.6521,274.616 " fill="none" style="stroke:#A80036;stroke-width:1.0;stroke-dasharray:3.0,3.0;"/><path d="M1473.2985,277.5517 L1474.8539,274.1312 L1472.0057,271.6803 L1479.9914,273 L1473.2985,277.5517 " fill="#A80036" style="stroke:#A80036;stroke-width:1.0;"/><ellipse cx="1289" cy="296" fill="#A80036" rx="3" ry="3" style="stroke:#A80036;stroke-width:1.0;stroke-dasharray:3.0,3.0;"/><path d="M1289,327 L1302,327 C1394.8428,327 1505.9134,327 1549.3231,327 " fill="none" style="stroke:#A80036;stroke-width:1.0;stroke-dasharray:3.0,3.0;"/><path d="M1549.3231,330.0108 L1551.5812,327 L1549.3231,323.9892 L1556.8501,327 L1549.3231,330.0108 " fill="#A80036" style="stroke:#A80036;stroke-width:1.0;"/><ellipse cx="1289" cy="327" fill="#A80036" rx="3" ry="3" style="stroke:#A80036;stroke-width:1.0;stroke-dasharray:3.0,3.0;"/><path d="M1289,358 L1302,358 C1311.4001,358 1320.9837,358.1008 1330.6624,358.2864 " fill="none" style="stroke:#A80036;stroke-width:1.0;stroke-dasharray:3.0,3.0;"/><path d="M1330.5957,361.3987 L1332.9967,358.3364 L1330.7291,355.174 L1338.4433,358.4531 L1330.5957,361.3987 " fill="#A80036" style="stroke:#A80036;stroke-width:1.0;"/><ellipse cx="1289" cy="358" fill="#A80036" rx="3" ry="3" style="stroke:#A80036;stroke-width:1.0;stroke-dasharray:3.0,3.0;"/><path d="M484,297 L497,297 C569.4586,297 647.6295,297 720.7047,297 " fill="none" style="stroke:#A80036;stroke-width:1.0;stroke-dasharray:3.0,3.0;"/><path d="M720.7047,300.0042 L722.9578,297 L720.7047,293.9958 L728.2152,297 L720.7047,300.0042 " fill="#A80036" style="stroke:#A80036;stroke-width:1.0;"/><ellipse cx="484" cy="297" fill="#A80036" rx="3" ry="3" style="stroke:#A80036;stroke-width:1.0;stroke-dasharray:3.0,3.0;"/><path d="M95,273 L108,273 C124.1536,273 127.9333,276.3271 144,278 C206.9595,284.5553 278.3303,289.4336 332.304,292.605 " fill="none" style="stroke:#A80036;stroke-width:1.0;stroke-dasharray:3.0,3.0;"/><path d="M332.1296,295.6041 L334.5534,292.7358 L332.4785,289.6059 L339.8018,293.0411 L332.1296,295.6041 " fill="#A80036" style="stroke:#A80036;stroke-width:1.0;"/><ellipse cx="95" cy="273" fill="#A80036" rx="3" ry="3" style="stroke:#A80036;stroke-width:1.0;stroke-dasharray:3.0,3.0;"/><!--MD5=[7275b7e6ac8074564582681d5a6d3e48]
@startjson
{
  "info": {
    "title": "OMA LwM2M Up/Down Control (Object ID 3344)",
    "version": "2021-02-11",
    "copyright": "Copyright (c) 2018-2020 IPSO",
    "license": "https://github.com/one-data-model/oneDM/blob/master/LICENSE"
  },
  "sdfObject": {
    "Up_Down_Control": {
      "label": "Up/Down Control",
      "description": "This IPSO object is used to report the state of an up/down control\\nelement like a pair of push buttons or a rotary encoder. Counters for\\nincrease and decrease operations are provided for counting pulses\\nfrom a quadrature encoder.",
      "sdfProperty": {
        "Increase_Input_State": {
          "label": "Increase Input State",
          "description": "Indicates an increase control action.",
          "writable": false,
          "type": "boolean"
        },
        "Decrease_Input_State": {
          "label": "Decrease Input State",
          "description": "Indicates a decrease control action.",
          "writable": false,
          "type": "boolean"
        },
        "Up_Counter": {
          "label": "Up Counter",
          "description": "Counts the number of times the increase control has been operated.\\nWriting a 0 resets the counter.",
          "type": "integer"
        },
        "Down_Counter": {
          "label": "Down Counter",
          "description": "Counts the times the decrease control has been operated. Writing a 0\\nresets the counter.",
          "type": "integer"
        },
        "Application_Type": {
          "label": "Application Type",
          "description": "The application type of the sensor or actuator as a string depending\\non the use case.",
          "type": "string"
        }
      },
      "sdfAction": {},
      "sdfRequired": [
        "#/sdfObject/Up_Down_Control/sdfProperty/Increase_Input_State",
        "#/sdfObject/Up_Down_Control/sdfProperty/Decrease_Input_State"
      ]
    }
  }
}
@endjson

PlantUML version 1.2021.2(Sun Mar 07 13:10:27 EET 2021)
(GPL source distribution)
Java Runtime: OpenJDK Runtime Environment
JVM: OpenJDK 64-Bit Server VM
Default Encoding: UTF-8
Language: en
Country: FI
--></g></svg>