<?xml version="1.0" encoding="UTF-8" standalone="no"?><svg xmlns="http://www.w3.org/2000/svg" xmlns:xlink="http://www.w3.org/1999/xlink" contentScriptType="application/ecmascript" contentStyleType="text/css" height="174px" preserveAspectRatio="none" style="width:2149px;height:174px;" version="1.1" viewBox="0 0 2149 174" width="2149px" zoomAndPan="magnify"><defs/><g><rect fill="#FEFECE" height="40.9766" rx="5" ry="5" style="stroke:#FEFECE;stroke-width:1.5;" width="97" x="10" y="65.5"/><text fill="#000000" font-family="sans-serif" font-size="14" lengthAdjust="spacing" textLength="27" x="15" y="81.0352">info</text><text fill="#000000" font-family="sans-serif" font-size="14" lengthAdjust="spacing" textLength="0" x="102" y="81.0352"/><line style="stroke:#A80036;stroke-width:1.0;" x1="85" x2="85" y1="65.5" y2="85.9883"/><line style="stroke:#A80036;stroke-width:1.0;" x1="10" x2="107" y1="85.9883" y2="85.9883"/><text fill="#000000" font-family="sans-serif" font-size="14" lengthAdjust="spacing" textLength="65" x="15" y="101.5234">sdfObject</text><text fill="#000000" font-family="sans-serif" font-size="14" lengthAdjust="spacing" textLength="0" x="102" y="101.5234"/><line style="stroke:#A80036;stroke-width:1.0;" x1="85" x2="85" y1="85.9883" y2="106.4766"/><rect fill="none" height="40.9766" rx="5" ry="5" style="stroke:#A80036;stroke-width:1.5;" width="97" x="10" y="65.5"/><rect fill="#FEFECE" height="81.9531" rx="5" ry="5" style="stroke:#FEFECE;stroke-width:1.5;" width="655" x="144" y="10"/><text fill="#000000" font-family="sans-serif" font-size="14" lengthAdjust="spacing" textLength="65" x="149" y="25.5352">copyright</text><text fill="#000000" font-family="sans-serif" font-size="14" lengthAdjust="spacing" textLength="570" x="224" y="25.5352">copyright 2016-2017, 2019 Open Connectivity Foundation, Inc. All rights reserved.</text><line style="stroke:#A80036;stroke-width:1.0;" x1="219" x2="219" y1="10" y2="30.4883"/><line style="stroke:#A80036;stroke-width:1.0;" x1="144" x2="799" y1="30.4883" y2="30.4883"/><text fill="#000000" font-family="sans-serif" font-size="14" lengthAdjust="spacing" textLength="47" x="149" y="46.0234">license</text><text fill="#000000" font-family="sans-serif" font-size="14" lengthAdjust="spacing" textLength="462" x="224" y="46.0234">https://github.com/one-data-model/oneDM/blob/master/LICENSE</text><line style="stroke:#A80036;stroke-width:1.0;" x1="219" x2="219" y1="30.4883" y2="50.9766"/><line style="stroke:#A80036;stroke-width:1.0;" x1="144" x2="799" y1="50.9766" y2="50.9766"/><text fill="#000000" font-family="sans-serif" font-size="14" lengthAdjust="spacing" textLength="26" x="149" y="66.5117">title</text><text fill="#000000" font-family="sans-serif" font-size="14" lengthAdjust="spacing" textLength="88" x="224" y="66.5117">UV Radiation</text><line style="stroke:#A80036;stroke-width:1.0;" x1="219" x2="219" y1="50.9766" y2="71.4648"/><line style="stroke:#A80036;stroke-width:1.0;" x1="144" x2="799" y1="71.4648" y2="71.4648"/><text fill="#000000" font-family="sans-serif" font-size="14" lengthAdjust="spacing" textLength="50" x="149" y="87">version</text><text fill="#000000" font-family="sans-serif" font-size="14" lengthAdjust="spacing" textLength="88" x="224" y="87">2019-02-15</text><line style="stroke:#A80036;stroke-width:1.0;" x1="219" x2="219" y1="71.4648" y2="91.9531"/><rect fill="none" height="81.9531" rx="5" ry="5" style="stroke:#A80036;stroke-width:1.5;" width="655" x="144" y="10"/><rect fill="#FEFECE" height="20.4883" rx="5" ry="5" style="stroke:#FEFECE;stroke-width:1.5;" width="164" x="389.5" y="110"/><text fill="#000000" font-family="sans-serif" font-size="14" lengthAdjust="spacing" textLength="132" x="394.5" y="125.5352">sensor.radiation.uv</text><text fill="#000000" font-family="sans-serif" font-size="14" lengthAdjust="spacing" textLength="0" x="548.5" y="125.5352"/><line style="stroke:#A80036;stroke-width:1.0;" x1="531.5" x2="531.5" y1="110" y2="130.4883"/><rect fill="none" height="20.4883" rx="5" ry="5" style="stroke:#A80036;stroke-width:1.5;" width="164" x="389.5" y="110"/><rect fill="#FEFECE" height="77.9531" rx="5" ry="5" style="stroke:#FEFECE;stroke-width:1.5;" width="545" x="836" y="81"/><text fill="#000000" font-family="sans-serif" font-size="14" lengthAdjust="spacing" textLength="77" x="841" y="96.5352">description</text><text fill="#000000" font-family="sans-serif" font-size="14" lengthAdjust="spacing" textLength="442" x="934" y="96.5352">This Resource specifies UV radiation measurement. The Property</text><text fill="#000000" font-family="sans-serif" font-size="14" lengthAdjust="spacing" textLength="337" x="934" y="113.0234">"measurement" is the current measured UV Index</text><line style="stroke:#A80036;stroke-width:1.0;" x1="929" x2="929" y1="81" y2="117.9766"/><line style="stroke:#A80036;stroke-width:1.0;" x1="836" x2="1381" y1="117.9766" y2="117.9766"/><text fill="#000000" font-family="sans-serif" font-size="14" lengthAdjust="spacing" textLength="79" x="841" y="133.5117">sdfProperty</text><text fill="#000000" font-family="sans-serif" font-size="14" lengthAdjust="spacing" textLength="0" x="946" y="133.5117"/><line style="stroke:#A80036;stroke-width:1.0;" x1="929" x2="929" y1="117.9766" y2="138.4648"/><line style="stroke:#A80036;stroke-width:1.0;" x1="836" x2="1381" y1="138.4648" y2="138.4648"/><text fill="#000000" font-family="sans-serif" font-size="14" lengthAdjust="spacing" textLength="83" x="841" y="154">sdfRequired</text><text fill="#000000" font-family="sans-serif" font-size="14" lengthAdjust="spacing" textLength="0" x="946" y="154"/><line style="stroke:#A80036;stroke-width:1.0;" x1="929" x2="929" y1="138.4648" y2="158.9531"/><rect fill="none" height="77.9531" rx="5" ry="5" style="stroke:#A80036;stroke-width:1.5;" width="545" x="836" y="81"/><rect fill="#FEFECE" height="20.4883" rx="5" ry="5" style="stroke:#FEFECE;stroke-width:1.5;" width="126" x="1563.5" y="104"/><text fill="#000000" font-family="sans-serif" font-size="14" lengthAdjust="spacing" textLength="94" x="1568.5" y="119.5352">measurement</text><text fill="#000000" font-family="sans-serif" font-size="14" lengthAdjust="spacing" textLength="0" x="1684.5" y="119.5352"/><line style="stroke:#A80036;stroke-width:1.0;" x1="1667.5" x2="1667.5" y1="104" y2="124.4883"/><rect fill="none" height="20.4883" rx="5" ry="5" style="stroke:#A80036;stroke-width:1.5;" width="126" x="1563.5" y="104"/><rect fill="#FEFECE" height="61.4648" rx="5" ry="5" style="stroke:#FEFECE;stroke-width:1.5;" width="265" x="1872" y="83.5"/><text fill="#000000" font-family="sans-serif" font-size="14" lengthAdjust="spacing" textLength="77" x="1877" y="99.0352">description</text><text fill="#000000" font-family="sans-serif" font-size="14" lengthAdjust="spacing" textLength="168" x="1964" y="99.0352">The measured UV Index.</text><line style="stroke:#A80036;stroke-width:1.0;" x1="1959" x2="1959" y1="83.5" y2="103.9883"/><line style="stroke:#A80036;stroke-width:1.0;" x1="1872" x2="2137" y1="103.9883" y2="103.9883"/><text fill="#000000" font-family="sans-serif" font-size="14" lengthAdjust="spacing" textLength="55" x="1877" y="119.5234">writable</text><text fill="#000000" font-family="sans-serif" font-size="14" lengthAdjust="spacing" textLength="48" x="1964" y="119.5234">☐ false</text><line style="stroke:#A80036;stroke-width:1.0;" x1="1959" x2="1959" y1="103.9883" y2="124.4766"/><line style="stroke:#A80036;stroke-width:1.0;" x1="1872" x2="2137" y1="124.4766" y2="124.4766"/><text fill="#000000" font-family="sans-serif" font-size="14" lengthAdjust="spacing" textLength="29" x="1877" y="140.0117">type</text><text fill="#000000" font-family="sans-serif" font-size="14" lengthAdjust="spacing" textLength="54" x="1964" y="140.0117">number</text><line style="stroke:#A80036;stroke-width:1.0;" x1="1959" x2="1959" y1="124.4766" y2="144.9648"/><rect fill="none" height="61.4648" rx="5" ry="5" style="stroke:#A80036;stroke-width:1.5;" width="265" x="1872" y="83.5"/><rect fill="#FEFECE" height="20.4883" rx="5" ry="5" style="stroke:#FEFECE;stroke-width:1.5;" width="417" x="1418" y="142"/><text fill="#000000" font-family="sans-serif" font-size="14" lengthAdjust="spacing" textLength="407" x="1423" y="157.5352">#/sdfObject/sensor.radiation.uv/sdfProperty/measurement</text><rect fill="none" height="20.4883" rx="5" ry="5" style="stroke:#A80036;stroke-width:1.5;" width="417" x="1418" y="142"/><path d="M95,75 L108,75 C117.3442,75 126.8208,74.9198 136.3833,74.7688 " fill="none" style="stroke:#A80036;stroke-width:1.0;stroke-dasharray:3.0,3.0;"/><path d="M136.4378,77.8434 L138.6892,74.7279 L136.3288,71.6942 L144.0697,74.6326 L136.4378,77.8434 " fill="#A80036" style="stroke:#A80036;stroke-width:1.0;"/><ellipse cx="95" cy="75" fill="#A80036" rx="3" ry="3" style="stroke:#A80036;stroke-width:1.0;stroke-dasharray:3.0,3.0;"/><path d="M1678,114 L1691,114 C1747.8296,114 1810.4633,114 1864.6746,114 " fill="none" style="stroke:#A80036;stroke-width:1.0;stroke-dasharray:3.0,3.0;"/><path d="M1864.6746,117.0368 L1866.9522,114 L1864.6746,110.9632 L1872.2667,114 L1864.6746,117.0368 " fill="#A80036" style="stroke:#A80036;stroke-width:1.0;"/><ellipse cx="1678" cy="114" fill="#A80036" rx="3" ry="3" style="stroke:#A80036;stroke-width:1.0;stroke-dasharray:3.0,3.0;"/><path d="M1369,120 L1382,120 C1440.7243,120 1507.3746,118.2416 1556.1596,116.6287 " fill="none" style="stroke:#A80036;stroke-width:1.0;stroke-dasharray:3.0,3.0;"/><path d="M1556.2625,119.6976 L1558.4613,116.5515 L1556.0566,113.5597 L1563.8319,116.3714 L1556.2625,119.6976 " fill="#A80036" style="stroke:#A80036;stroke-width:1.0;"/><ellipse cx="1369" cy="120" fill="#A80036" rx="3" ry="3" style="stroke:#A80036;stroke-width:1.0;stroke-dasharray:3.0,3.0;"/><path d="M1369,146 L1382,146 C1391.362,146 1400.9254,146.0447 1410.5858,146.1264 " fill="none" style="stroke:#A80036;stroke-width:1.0;stroke-dasharray:3.0,3.0;"/><path d="M1410.5565,149.2328 L1412.9157,146.1483 L1410.6151,143.0199 L1418.352,146.1996 L1410.5565,149.2328 " fill="#A80036" style="stroke:#A80036;stroke-width:1.0;"/><ellipse cx="1369" cy="146" fill="#A80036" rx="3" ry="3" style="stroke:#A80036;stroke-width:1.0;stroke-dasharray:3.0,3.0;"/><path d="M542,120 L555,120 C643.9734,120 740.9991,120 828.5872,120 " fill="none" style="stroke:#A80036;stroke-width:1.0;stroke-dasharray:3.0,3.0;"/><path d="M828.5872,123.0536 L830.8774,120 L828.5872,116.9464 L836.2212,120 L828.5872,123.0536 " fill="#A80036" style="stroke:#A80036;stroke-width:1.0;"/><ellipse cx="542" cy="120" fill="#A80036" rx="3" ry="3" style="stroke:#A80036;stroke-width:1.0;stroke-dasharray:3.0,3.0;"/><path d="M95,96 L108,96 C124.1536,96 127.924,99.4191 144,101 C224.5141,108.9176 316.5295,113.9029 382.3972,116.7699 " fill="none" style="stroke:#A80036;stroke-width:1.0;stroke-dasharray:3.0,3.0;"/><path d="M382.2684,119.7687 L384.6462,116.8666 L382.526,113.7712 L389.8941,117.092 L382.2684,119.7687 " fill="#A80036" style="stroke:#A80036;stroke-width:1.0;"/><ellipse cx="95" cy="96" fill="#A80036" rx="3" ry="3" style="stroke:#A80036;stroke-width:1.0;stroke-dasharray:3.0,3.0;"/><!--MD5=[df376ab347675369a0b6656e1c439bee]
@startjson
{
  "info": {
    "copyright": "copyright 2016-2017, 2019 Open Connectivity Foundation, Inc. All rights reserved.",
    "license": "https://github.com/one-data-model/oneDM/blob/master/LICENSE",
    "title": "UV Radiation",
    "version": "2019-02-15"
  },
  "sdfObject": {
    "sensor.radiation.uv": {
      "description": "This Resource specifies UV radiation measurement. The Property\\n\"measurement\" is the current measured UV Index",
      "sdfProperty": {
        "measurement": {
          "description": "The measured UV Index.",
          "writable": false,
          "type": "number"
        }
      },
      "sdfRequired": [
        "#/sdfObject/sensor.radiation.uv/sdfProperty/measurement"
      ]
    }
  }
}
@endjson

PlantUML version 1.2021.2(Sun Mar 07 13:10:27 EET 2021)
(GPL source distribution)
Java Runtime: OpenJDK Runtime Environment
JVM: OpenJDK 64-Bit Server VM
Default Encoding: UTF-8
Language: en
Country: FI
--></g></svg>