<?xml version="1.0" encoding="UTF-8" standalone="no"?><svg xmlns="http://www.w3.org/2000/svg" xmlns:xlink="http://www.w3.org/1999/xlink" contentScriptType="application/ecmascript" contentStyleType="text/css" height="656px" preserveAspectRatio="none" style="width:2477px;height:656px;" version="1.1" viewBox="0 0 2477 656" width="2477px" zoomAndPan="magnify"><defs/><g><rect fill="#FEFECE" height="40.9766" rx="5" ry="5" style="stroke:#FEFECE;stroke-width:1.5;" width="97" x="10" y="273.5"/><text fill="#000000" font-family="sans-serif" font-size="14" lengthAdjust="spacing" textLength="27" x="15" y="289.0352">info</text><text fill="#000000" font-family="sans-serif" font-size="14" lengthAdjust="spacing" textLength="0" x="102" y="289.0352"/><line style="stroke:#A80036;stroke-width:1.0;" x1="85" x2="85" y1="273.5" y2="293.9883"/><line style="stroke:#A80036;stroke-width:1.0;" x1="10" x2="107" y1="293.9883" y2="293.9883"/><text fill="#000000" font-family="sans-serif" font-size="14" lengthAdjust="spacing" textLength="65" x="15" y="309.5234">sdfObject</text><text fill="#000000" font-family="sans-serif" font-size="14" lengthAdjust="spacing" textLength="0" x="102" y="309.5234"/><line style="stroke:#A80036;stroke-width:1.0;" x1="85" x2="85" y1="293.9883" y2="314.4766"/><rect fill="none" height="40.9766" rx="5" ry="5" style="stroke:#A80036;stroke-width:1.5;" width="97" x="10" y="273.5"/><rect fill="#FEFECE" height="81.9531" rx="5" ry="5" style="stroke:#FEFECE;stroke-width:1.5;" width="614" x="144" y="218"/><text fill="#000000" font-family="sans-serif" font-size="14" lengthAdjust="spacing" textLength="65" x="149" y="233.5352">copyright</text><text fill="#000000" font-family="sans-serif" font-size="14" lengthAdjust="spacing" textLength="529" x="224" y="233.5352">Copyright 2016-2019 Open Connectivity Foundation, Inc. All rights reserved.</text><line style="stroke:#A80036;stroke-width:1.0;" x1="219" x2="219" y1="218" y2="238.4883"/><line style="stroke:#A80036;stroke-width:1.0;" x1="144" x2="758" y1="238.4883" y2="238.4883"/><text fill="#000000" font-family="sans-serif" font-size="14" lengthAdjust="spacing" textLength="47" x="149" y="254.0234">license</text><text fill="#000000" font-family="sans-serif" font-size="14" lengthAdjust="spacing" textLength="462" x="224" y="254.0234">https://github.com/one-data-model/oneDM/blob/master/LICENSE</text><line style="stroke:#A80036;stroke-width:1.0;" x1="219" x2="219" y1="238.4883" y2="258.9766"/><line style="stroke:#A80036;stroke-width:1.0;" x1="144" x2="758" y1="258.9766" y2="258.9766"/><text fill="#000000" font-family="sans-serif" font-size="14" lengthAdjust="spacing" textLength="26" x="149" y="274.5117">title</text><text fill="#000000" font-family="sans-serif" font-size="14" lengthAdjust="spacing" textLength="76" x="224" y="274.5117">Body Water</text><line style="stroke:#A80036;stroke-width:1.0;" x1="219" x2="219" y1="258.9766" y2="279.4648"/><line style="stroke:#A80036;stroke-width:1.0;" x1="144" x2="758" y1="279.4648" y2="279.4648"/><text fill="#000000" font-family="sans-serif" font-size="14" lengthAdjust="spacing" textLength="50" x="149" y="295">version</text><text fill="#000000" font-family="sans-serif" font-size="14" lengthAdjust="spacing" textLength="88" x="224" y="295">2019-03-22</text><line style="stroke:#A80036;stroke-width:1.0;" x1="219" x2="219" y1="279.4648" y2="299.9531"/><rect fill="none" height="81.9531" rx="5" ry="5" style="stroke:#A80036;stroke-width:1.5;" width="614" x="144" y="218"/><rect fill="#FEFECE" height="20.4883" rx="5" ry="5" style="stroke:#FEFECE;stroke-width:1.5;" width="108" x="397" y="318"/><text fill="#000000" font-family="sans-serif" font-size="14" lengthAdjust="spacing" textLength="76" x="402" y="333.5352">body.water</text><text fill="#000000" font-family="sans-serif" font-size="14" lengthAdjust="spacing" textLength="0" x="500" y="333.5352"/><line style="stroke:#A80036;stroke-width:1.0;" x1="483" x2="483" y1="318" y2="338.4883"/><rect fill="none" height="20.4883" rx="5" ry="5" style="stroke:#A80036;stroke-width:1.5;" width="108" x="397" y="318"/><rect fill="#FEFECE" height="127.418" rx="5" ry="5" style="stroke:#FEFECE;stroke-width:1.5;" width="572" x="795" y="264.5"/><text fill="#000000" font-family="sans-serif" font-size="14" lengthAdjust="spacing" textLength="77" x="800" y="280.0352">description</text><text fill="#000000" font-family="sans-serif" font-size="14" lengthAdjust="spacing" textLength="448" x="893" y="280.0352">This Resource describes the Properties associated with a person's</text><text fill="#000000" font-family="sans-serif" font-size="14" lengthAdjust="spacing" textLength="421" x="893" y="296.5234">body water. The unit is a single value that is one of kg or lb. If</text><text fill="#000000" font-family="sans-serif" font-size="14" lengthAdjust="spacing" textLength="417" x="893" y="313.0117">the unit Property is missing the default is kilograms [kg]. The</text><text fill="#000000" font-family="sans-serif" font-size="14" lengthAdjust="spacing" textLength="469" x="893" y="329.5">bwater and unit Properties are read-only values that are provided by</text><text fill="#000000" font-family="sans-serif" font-size="14" lengthAdjust="spacing" textLength="450" x="893" y="345.9883">the Server. When range is omitted the default is 0 to +MAXFLOAT.</text><line style="stroke:#A80036;stroke-width:1.0;" x1="888" x2="888" y1="264.5" y2="350.9414"/><line style="stroke:#A80036;stroke-width:1.0;" x1="795" x2="1367" y1="350.9414" y2="350.9414"/><text fill="#000000" font-family="sans-serif" font-size="14" lengthAdjust="spacing" textLength="79" x="800" y="366.4766">sdfProperty</text><text fill="#000000" font-family="sans-serif" font-size="14" lengthAdjust="spacing" textLength="0" x="905" y="366.4766"/><line style="stroke:#A80036;stroke-width:1.0;" x1="888" x2="888" y1="350.9414" y2="371.4297"/><line style="stroke:#A80036;stroke-width:1.0;" x1="795" x2="1367" y1="371.4297" y2="371.4297"/><text fill="#000000" font-family="sans-serif" font-size="14" lengthAdjust="spacing" textLength="83" x="800" y="386.9648">sdfRequired</text><text fill="#000000" font-family="sans-serif" font-size="14" lengthAdjust="spacing" textLength="0" x="905" y="386.9648"/><line style="stroke:#A80036;stroke-width:1.0;" x1="888" x2="888" y1="371.4297" y2="391.918"/><rect fill="none" height="127.418" rx="5" ry="5" style="stroke:#A80036;stroke-width:1.5;" width="572" x="795" y="264.5"/><rect fill="#FEFECE" height="102.4414" rx="5" ry="5" style="stroke:#FEFECE;stroke-width:1.5;" width="95" x="1513.5" y="258"/><text fill="#000000" font-family="sans-serif" font-size="14" lengthAdjust="spacing" textLength="47" x="1518.5" y="273.5352">bwater</text><text fill="#000000" font-family="sans-serif" font-size="14" lengthAdjust="spacing" textLength="0" x="1603.5" y="273.5352"/><line style="stroke:#A80036;stroke-width:1.0;" x1="1586.5" x2="1586.5" y1="258" y2="278.4883"/><line style="stroke:#A80036;stroke-width:1.0;" x1="1513.5" x2="1608.5" y1="278.4883" y2="278.4883"/><text fill="#000000" font-family="sans-serif" font-size="14" lengthAdjust="spacing" textLength="34" x="1518.5" y="294.0234">units</text><text fill="#000000" font-family="sans-serif" font-size="14" lengthAdjust="spacing" textLength="0" x="1603.5" y="294.0234"/><line style="stroke:#A80036;stroke-width:1.0;" x1="1586.5" x2="1586.5" y1="278.4883" y2="298.9766"/><line style="stroke:#A80036;stroke-width:1.0;" x1="1513.5" x2="1608.5" y1="298.9766" y2="298.9766"/><text fill="#000000" font-family="sans-serif" font-size="14" lengthAdjust="spacing" textLength="40" x="1518.5" y="314.5117">range</text><text fill="#000000" font-family="sans-serif" font-size="14" lengthAdjust="spacing" textLength="0" x="1603.5" y="314.5117"/><line style="stroke:#A80036;stroke-width:1.0;" x1="1586.5" x2="1586.5" y1="298.9766" y2="319.4648"/><line style="stroke:#A80036;stroke-width:1.0;" x1="1513.5" x2="1608.5" y1="319.4648" y2="319.4648"/><text fill="#000000" font-family="sans-serif" font-size="14" lengthAdjust="spacing" textLength="29" x="1518.5" y="335">step</text><text fill="#000000" font-family="sans-serif" font-size="14" lengthAdjust="spacing" textLength="0" x="1603.5" y="335"/><line style="stroke:#A80036;stroke-width:1.0;" x1="1586.5" x2="1586.5" y1="319.4648" y2="339.9531"/><line style="stroke:#A80036;stroke-width:1.0;" x1="1513.5" x2="1608.5" y1="339.9531" y2="339.9531"/><text fill="#000000" font-family="sans-serif" font-size="14" lengthAdjust="spacing" textLength="63" x="1518.5" y="355.4883">precision</text><text fill="#000000" font-family="sans-serif" font-size="14" lengthAdjust="spacing" textLength="0" x="1603.5" y="355.4883"/><line style="stroke:#A80036;stroke-width:1.0;" x1="1586.5" x2="1586.5" y1="339.9531" y2="360.4414"/><rect fill="none" height="102.4414" rx="5" ry="5" style="stroke:#A80036;stroke-width:1.5;" width="95" x="1513.5" y="258"/><rect fill="#FEFECE" height="81.9531" rx="5" ry="5" style="stroke:#FEFECE;stroke-width:1.5;" width="176" x="1952" y="10"/><text fill="#000000" font-family="sans-serif" font-size="14" lengthAdjust="spacing" textLength="77" x="1957" y="25.5352">description</text><text fill="#000000" font-family="sans-serif" font-size="14" lengthAdjust="spacing" textLength="79" x="2044" y="25.5352">Body water.</text><line style="stroke:#A80036;stroke-width:1.0;" x1="2039" x2="2039" y1="10" y2="30.4883"/><line style="stroke:#A80036;stroke-width:1.0;" x1="1952" x2="2128" y1="30.4883" y2="30.4883"/><text fill="#000000" font-family="sans-serif" font-size="14" lengthAdjust="spacing" textLength="65" x="1957" y="46.0234">minimum</text><text fill="#000000" font-family="sans-serif" font-size="14" lengthAdjust="spacing" textLength="9" x="2044" y="46.0234">0</text><line style="stroke:#A80036;stroke-width:1.0;" x1="2039" x2="2039" y1="30.4883" y2="50.9766"/><line style="stroke:#A80036;stroke-width:1.0;" x1="1952" x2="2128" y1="50.9766" y2="50.9766"/><text fill="#000000" font-family="sans-serif" font-size="14" lengthAdjust="spacing" textLength="55" x="1957" y="66.5117">writable</text><text fill="#000000" font-family="sans-serif" font-size="14" lengthAdjust="spacing" textLength="48" x="2044" y="66.5117">☐ false</text><line style="stroke:#A80036;stroke-width:1.0;" x1="2039" x2="2039" y1="50.9766" y2="71.4648"/><line style="stroke:#A80036;stroke-width:1.0;" x1="1952" x2="2128" y1="71.4648" y2="71.4648"/><text fill="#000000" font-family="sans-serif" font-size="14" lengthAdjust="spacing" textLength="29" x="1957" y="87">type</text><text fill="#000000" font-family="sans-serif" font-size="14" lengthAdjust="spacing" textLength="54" x="2044" y="87">number</text><line style="stroke:#A80036;stroke-width:1.0;" x1="2039" x2="2039" y1="71.4648" y2="91.9531"/><rect fill="none" height="81.9531" rx="5" ry="5" style="stroke:#A80036;stroke-width:1.5;" width="176" x="1952" y="10"/><rect fill="#FEFECE" height="102.4414" rx="5" ry="5" style="stroke:#FEFECE;stroke-width:1.5;" width="203" x="1938.5" y="110"/><text fill="#000000" font-family="sans-serif" font-size="14" lengthAdjust="spacing" textLength="77" x="1943.5" y="125.5352">description</text><text fill="#000000" font-family="sans-serif" font-size="14" lengthAdjust="spacing" textLength="106" x="2030.5" y="125.5352">Body water unit</text><line style="stroke:#A80036;stroke-width:1.0;" x1="2025.5" x2="2025.5" y1="110" y2="130.4883"/><line style="stroke:#A80036;stroke-width:1.0;" x1="1938.5" x2="2141.5" y1="130.4883" y2="130.4883"/><text fill="#000000" font-family="sans-serif" font-size="14" lengthAdjust="spacing" textLength="39" x="1943.5" y="146.0234">enum</text><text fill="#000000" font-family="sans-serif" font-size="14" lengthAdjust="spacing" textLength="0" x="2042.5" y="146.0234"/><line style="stroke:#A80036;stroke-width:1.0;" x1="2025.5" x2="2025.5" y1="130.4883" y2="150.9766"/><line style="stroke:#A80036;stroke-width:1.0;" x1="1938.5" x2="2141.5" y1="150.9766" y2="150.9766"/><text fill="#000000" font-family="sans-serif" font-size="14" lengthAdjust="spacing" textLength="55" x="1943.5" y="166.5117">writable</text><text fill="#000000" font-family="sans-serif" font-size="14" lengthAdjust="spacing" textLength="48" x="2030.5" y="166.5117">☐ false</text><line style="stroke:#A80036;stroke-width:1.0;" x1="2025.5" x2="2025.5" y1="150.9766" y2="171.4648"/><line style="stroke:#A80036;stroke-width:1.0;" x1="1938.5" x2="2141.5" y1="171.4648" y2="171.4648"/><text fill="#000000" font-family="sans-serif" font-size="14" lengthAdjust="spacing" textLength="29" x="1943.5" y="187">type</text><text fill="#000000" font-family="sans-serif" font-size="14" lengthAdjust="spacing" textLength="40" x="2030.5" y="187">string</text><line style="stroke:#A80036;stroke-width:1.0;" x1="2025.5" x2="2025.5" y1="171.4648" y2="191.9531"/><line style="stroke:#A80036;stroke-width:1.0;" x1="1938.5" x2="2141.5" y1="191.9531" y2="191.9531"/><text fill="#000000" font-family="sans-serif" font-size="14" lengthAdjust="spacing" textLength="48" x="1943.5" y="207.4883">default</text><text fill="#000000" font-family="sans-serif" font-size="14" lengthAdjust="spacing" textLength="17" x="2030.5" y="207.4883">kg</text><line style="stroke:#A80036;stroke-width:1.0;" x1="2025.5" x2="2025.5" y1="191.9531" y2="212.4414"/><rect fill="none" height="102.4414" rx="5" ry="5" style="stroke:#A80036;stroke-width:1.5;" width="203" x="1938.5" y="110"/><rect fill="#FEFECE" height="40.9766" rx="5" ry="5" style="stroke:#FEFECE;stroke-width:1.5;" width="27" x="2400" y="119.5"/><text fill="#000000" font-family="sans-serif" font-size="14" lengthAdjust="spacing" textLength="17" x="2405" y="135.0352">kg</text><line style="stroke:#A80036;stroke-width:1.0;" x1="2400" x2="2427" y1="139.9883" y2="139.9883"/><text fill="#000000" font-family="sans-serif" font-size="14" lengthAdjust="spacing" textLength="13" x="2405" y="155.5234">lb</text><rect fill="none" height="40.9766" rx="5" ry="5" style="stroke:#A80036;stroke-width:1.5;" width="27" x="2400" y="119.5"/><rect fill="#FEFECE" height="155.9063" rx="5" ry="5" style="stroke:#FEFECE;stroke-width:1.5;" width="548" x="1766" y="230"/><text fill="#000000" font-family="sans-serif" font-size="14" lengthAdjust="spacing" textLength="29" x="1771" y="245.5352">type</text><text fill="#000000" font-family="sans-serif" font-size="14" lengthAdjust="spacing" textLength="35" x="1858" y="245.5352">array</text><line style="stroke:#A80036;stroke-width:1.0;" x1="1853" x2="1853" y1="230" y2="250.4883"/><line style="stroke:#A80036;stroke-width:1.0;" x1="1766" x2="2314" y1="250.4883" y2="250.4883"/><text fill="#000000" font-family="sans-serif" font-size="14" lengthAdjust="spacing" textLength="77" x="1771" y="266.0234">description</text><text fill="#000000" font-family="sans-serif" font-size="14" lengthAdjust="spacing" textLength="451" x="1858" y="266.0234">The valid range for the Property in the Resource as a number. The</text><text fill="#000000" font-family="sans-serif" font-size="14" lengthAdjust="spacing" textLength="439" x="1858" y="282.5117">first value in the array is the minimum value, the second value in</text><text fill="#000000" font-family="sans-serif" font-size="14" lengthAdjust="spacing" textLength="219" x="1858" y="299">the array is the maximum value.</text><line style="stroke:#A80036;stroke-width:1.0;" x1="1853" x2="1853" y1="250.4883" y2="303.9531"/><line style="stroke:#A80036;stroke-width:1.0;" x1="1766" x2="2314" y1="303.9531" y2="303.9531"/><text fill="#000000" font-family="sans-serif" font-size="14" lengthAdjust="spacing" textLength="55" x="1771" y="319.4883">writable</text><text fill="#000000" font-family="sans-serif" font-size="14" lengthAdjust="spacing" textLength="48" x="1858" y="319.4883">☐ false</text><line style="stroke:#A80036;stroke-width:1.0;" x1="1853" x2="1853" y1="303.9531" y2="324.4414"/><line style="stroke:#A80036;stroke-width:1.0;" x1="1766" x2="2314" y1="324.4414" y2="324.4414"/><text fill="#000000" font-family="sans-serif" font-size="14" lengthAdjust="spacing" textLength="63" x="1771" y="339.9766">minItems</text><text fill="#000000" font-family="sans-serif" font-size="14" lengthAdjust="spacing" textLength="9" x="1858" y="339.9766">2</text><line style="stroke:#A80036;stroke-width:1.0;" x1="1853" x2="1853" y1="324.4414" y2="344.9297"/><line style="stroke:#A80036;stroke-width:1.0;" x1="1766" x2="2314" y1="344.9297" y2="344.9297"/><text fill="#000000" font-family="sans-serif" font-size="14" lengthAdjust="spacing" textLength="67" x="1771" y="360.4648">maxItems</text><text fill="#000000" font-family="sans-serif" font-size="14" lengthAdjust="spacing" textLength="9" x="1858" y="360.4648">2</text><line style="stroke:#A80036;stroke-width:1.0;" x1="1853" x2="1853" y1="344.9297" y2="365.418"/><line style="stroke:#A80036;stroke-width:1.0;" x1="1766" x2="2314" y1="365.418" y2="365.418"/><text fill="#000000" font-family="sans-serif" font-size="14" lengthAdjust="spacing" textLength="37" x="1771" y="380.9531">items</text><text fill="#000000" font-family="sans-serif" font-size="14" lengthAdjust="spacing" textLength="0" x="1870" y="380.9531"/><line style="stroke:#A80036;stroke-width:1.0;" x1="1853" x2="1853" y1="365.418" y2="385.9063"/><rect fill="none" height="155.9063" rx="5" ry="5" style="stroke:#A80036;stroke-width:1.5;" width="548" x="1766" y="230"/><rect fill="#FEFECE" height="20.4883" rx="5" ry="5" style="stroke:#FEFECE;stroke-width:1.5;" width="103" x="2362" y="363"/><text fill="#000000" font-family="sans-serif" font-size="14" lengthAdjust="spacing" textLength="29" x="2367" y="378.5352">type</text><text fill="#000000" font-family="sans-serif" font-size="14" lengthAdjust="spacing" textLength="54" x="2406" y="378.5352">number</text><line style="stroke:#A80036;stroke-width:1.0;" x1="2401" x2="2401" y1="363" y2="383.4883"/><rect fill="none" height="20.4883" rx="5" ry="5" style="stroke:#A80036;stroke-width:1.5;" width="103" x="2362" y="363"/><rect fill="#FEFECE" height="110.9297" rx="5" ry="5" style="stroke:#FEFECE;stroke-width:1.5;" width="555" x="1762.5" y="404.5"/><text fill="#000000" font-family="sans-serif" font-size="14" lengthAdjust="spacing" textLength="77" x="1767.5" y="420.0352">description</text><text fill="#000000" font-family="sans-serif" font-size="14" lengthAdjust="spacing" textLength="456" x="1854.5" y="420.0352">Step value across the defined range an integer when the range is a</text><text fill="#000000" font-family="sans-serif" font-size="14" lengthAdjust="spacing" textLength="458" x="1854.5" y="436.5234">number.  This is the increment for valid values across the range; so</text><text fill="#000000" font-family="sans-serif" font-size="14" lengthAdjust="spacing" textLength="381" x="1854.5" y="453.0117">if range is 0.0..10.0 and step is 2.5 then valid values are</text><text fill="#000000" font-family="sans-serif" font-size="14" lengthAdjust="spacing" textLength="139" x="1854.5" y="469.5">0.0,2.5,5.0,7.5,10.0.</text><line style="stroke:#A80036;stroke-width:1.0;" x1="1849.5" x2="1849.5" y1="404.5" y2="474.4531"/><line style="stroke:#A80036;stroke-width:1.0;" x1="1762.5" x2="2317.5" y1="474.4531" y2="474.4531"/><text fill="#000000" font-family="sans-serif" font-size="14" lengthAdjust="spacing" textLength="55" x="1767.5" y="489.9883">writable</text><text fill="#000000" font-family="sans-serif" font-size="14" lengthAdjust="spacing" textLength="48" x="1854.5" y="489.9883">☐ false</text><line style="stroke:#A80036;stroke-width:1.0;" x1="1849.5" x2="1849.5" y1="474.4531" y2="494.9414"/><line style="stroke:#A80036;stroke-width:1.0;" x1="1762.5" x2="2317.5" y1="494.9414" y2="494.9414"/><text fill="#000000" font-family="sans-serif" font-size="14" lengthAdjust="spacing" textLength="29" x="1767.5" y="510.4766">type</text><text fill="#000000" font-family="sans-serif" font-size="14" lengthAdjust="spacing" textLength="54" x="1854.5" y="510.4766">number</text><line style="stroke:#A80036;stroke-width:1.0;" x1="1849.5" x2="1849.5" y1="494.9414" y2="515.4297"/><rect fill="none" height="110.9297" rx="5" ry="5" style="stroke:#A80036;stroke-width:1.5;" width="555" x="1762.5" y="404.5"/><rect fill="#FEFECE" height="110.9297" rx="5" ry="5" style="stroke:#FEFECE;stroke-width:1.5;" width="570" x="1755" y="533.5"/><text fill="#000000" font-family="sans-serif" font-size="14" lengthAdjust="spacing" textLength="29" x="1760" y="549.0352">type</text><text fill="#000000" font-family="sans-serif" font-size="14" lengthAdjust="spacing" textLength="54" x="1847" y="549.0352">number</text><line style="stroke:#A80036;stroke-width:1.0;" x1="1842" x2="1842" y1="533.5" y2="553.9883"/><line style="stroke:#A80036;stroke-width:1.0;" x1="1755" x2="2325" y1="553.9883" y2="553.9883"/><text fill="#000000" font-family="sans-serif" font-size="14" lengthAdjust="spacing" textLength="55" x="1760" y="569.5234">writable</text><text fill="#000000" font-family="sans-serif" font-size="14" lengthAdjust="spacing" textLength="48" x="1847" y="569.5234">☐ false</text><line style="stroke:#A80036;stroke-width:1.0;" x1="1842" x2="1842" y1="553.9883" y2="574.4766"/><line style="stroke:#A80036;stroke-width:1.0;" x1="1755" x2="2325" y1="574.4766" y2="574.4766"/><text fill="#000000" font-family="sans-serif" font-size="14" lengthAdjust="spacing" textLength="77" x="1760" y="590.0117">description</text><text fill="#000000" font-family="sans-serif" font-size="14" lengthAdjust="spacing" textLength="430" x="1847" y="590.0117">When exposed the value in 'precision' provides a +/- tolerance</text><text fill="#000000" font-family="sans-serif" font-size="14" lengthAdjust="spacing" textLength="473" x="1847" y="606.5">against the Properties in the Resource. Thus if a Property is UPDATED</text><text fill="#000000" font-family="sans-serif" font-size="14" lengthAdjust="spacing" textLength="465" x="1847" y="622.9883">to a value and that Property then RETRIEVED, the RETRIEVED value is</text><text fill="#000000" font-family="sans-serif" font-size="14" lengthAdjust="spacing" textLength="337" x="1847" y="639.4766">valid if in the range of the set value +/- precision</text><line style="stroke:#A80036;stroke-width:1.0;" x1="1842" x2="1842" y1="574.4766" y2="644.4297"/><rect fill="none" height="110.9297" rx="5" ry="5" style="stroke:#A80036;stroke-width:1.5;" width="570" x="1755" y="533.5"/><rect fill="#FEFECE" height="20.4883" rx="5" ry="5" style="stroke:#FEFECE;stroke-width:1.5;" width="314" x="1404" y="378"/><text fill="#000000" font-family="sans-serif" font-size="14" lengthAdjust="spacing" textLength="304" x="1409" y="393.5352">#/sdfObject/body.water/sdfProperty/bwater</text><rect fill="none" height="20.4883" rx="5" ry="5" style="stroke:#A80036;stroke-width:1.5;" width="314" x="1404" y="378"/><path d="M95,283 L108,283 C117.4068,283 126.9554,282.9088 136.5926,282.7376 " fill="none" style="stroke:#A80036;stroke-width:1.0;stroke-dasharray:3.0,3.0;"/><path d="M136.6543,285.8363 L138.9166,282.6914 L136.5309,279.6389 L144.3394,282.5834 L136.6543,285.8363 " fill="#A80036" style="stroke:#A80036;stroke-width:1.0;"/><ellipse cx="95" cy="283" fill="#A80036" rx="3" ry="3" style="stroke:#A80036;stroke-width:1.0;stroke-dasharray:3.0,3.0;"/><path d="M1597.5,268 L1610.5,268 C1708.65,268 1669.6164,149.4053 1755,101 C1812.6175,68.3357 1886.5057,56.0668 1944.5414,51.843 " fill="none" style="stroke:#A80036;stroke-width:1.0;stroke-dasharray:3.0,3.0;"/><path d="M1944.75,54.9303 L1946.8569,51.6866 L1944.3329,48.7557 L1952.2597,51.3216 L1944.75,54.9303 " fill="#A80036" style="stroke:#A80036;stroke-width:1.0;"/><ellipse cx="1597.5" cy="268" fill="#A80036" rx="3" ry="3" style="stroke:#A80036;stroke-width:1.0;stroke-dasharray:3.0,3.0;"/><path d="M2130.5,140 L2143.5,140 C2236.6588,140 2347.9314,140 2392.7881,140 " fill="none" style="stroke:#A80036;stroke-width:1.0;stroke-dasharray:3.0,3.0;"/><path d="M2392.7881,143.0334 L2395.0631,140 L2392.7881,136.9666 L2400.3716,140 L2392.7881,143.0334 " fill="#A80036" style="stroke:#A80036;stroke-width:1.0;"/><ellipse cx="2130.5" cy="140" fill="#A80036" rx="3" ry="3" style="stroke:#A80036;stroke-width:1.0;stroke-dasharray:3.0,3.0;"/><path d="M1597.5,288 L1610.5,288 C1681.2899,288 1687.8262,243.3357 1755,221 C1812.0713,202.0234 1877.6446,187.7142 1931.4438,177.8383 " fill="none" style="stroke:#A80036;stroke-width:1.0;stroke-dasharray:3.0,3.0;"/><path d="M1931.9895,180.8427 L1933.6972,177.429 L1930.8982,174.8339 L1938.9549,176.4741 L1931.9895,180.8427 " fill="#A80036" style="stroke:#A80036;stroke-width:1.0;"/><ellipse cx="1597.5" cy="288" fill="#A80036" rx="3" ry="3" style="stroke:#A80036;stroke-width:1.0;stroke-dasharray:3.0,3.0;"/><path d="M2302.5,373 L2315.5,373 C2328.235,373 2341.9056,373 2354.8621,373 " fill="none" style="stroke:#A80036;stroke-width:1.0;stroke-dasharray:3.0,3.0;"/><path d="M2354.8621,376.0134 L2357.1221,373 L2354.8621,369.9866 L2362.3956,373 L2354.8621,376.0134 " fill="#A80036" style="stroke:#A80036;stroke-width:1.0;"/><ellipse cx="2302.5" cy="373" fill="#A80036" rx="3" ry="3" style="stroke:#A80036;stroke-width:1.0;stroke-dasharray:3.0,3.0;"/><path d="M1597.5,308 L1610.5,308 C1658.4072,308 1709.3238,308 1758.7129,308 " fill="none" style="stroke:#A80036;stroke-width:1.0;stroke-dasharray:3.0,3.0;"/><path d="M1758.7129,311.0374 L1760.9909,308 L1758.7129,304.9626 L1766.3063,308 L1758.7129,311.0374 " fill="#A80036" style="stroke:#A80036;stroke-width:1.0;"/><ellipse cx="1597.5" cy="308" fill="#A80036" rx="3" ry="3" style="stroke:#A80036;stroke-width:1.0;stroke-dasharray:3.0,3.0;"/><path d="M1597.5,329 L1610.5,329 C1661.8949,329 1673.6368,344.842 1719,369 C1736.4203,378.2771 1737.0197,386.8613 1755,395 C1759.9979,397.2623 1765.082,399.4495 1770.2361,401.5639 " fill="none" style="stroke:#A80036;stroke-width:1.0;stroke-dasharray:3.0,3.0;"/><path d="M1769.1007,404.3919 L1772.3571,402.4154 L1771.3714,398.7358 L1777.3062,404.4023 L1769.1007,404.3919 " fill="#A80036" style="stroke:#A80036;stroke-width:1.0;"/><ellipse cx="1597.5" cy="329" fill="#A80036" rx="3" ry="3" style="stroke:#A80036;stroke-width:1.0;stroke-dasharray:3.0,3.0;"/><path d="M1597.5,350 L1610.5,350 C1659.456,350 1683.4703,335.3201 1719,369 C1770.6409,417.9523 1704.5466,474.8247 1755,525 C1756.1106,526.1045 1757.2359,527.1916 1758.3753,528.2616 " fill="none" style="stroke:#A80036;stroke-width:1.0;stroke-dasharray:3.0,3.0;"/><path d="M1756.2918,530.5868 L1760.1193,529.8242 L1760.4589,525.9363 L1764.1885,533.4704 L1756.2918,530.5868 " fill="#A80036" style="stroke:#A80036;stroke-width:1.0;"/><ellipse cx="1597.5" cy="350" fill="#A80036" rx="3" ry="3" style="stroke:#A80036;stroke-width:1.0;stroke-dasharray:3.0,3.0;"/><path d="M1355,327 L1368,327 C1414.8874,327 1467.9209,321.6407 1506.4329,316.7708 " fill="none" style="stroke:#A80036;stroke-width:1.0;stroke-dasharray:3.0,3.0;"/><path d="M1506.8192,319.7718 L1508.6837,316.481 L1506.0467,313.7697 L1513.9356,315.805 L1506.8192,319.7718 " fill="#A80036" style="stroke:#A80036;stroke-width:1.0;"/><ellipse cx="1355" cy="327" fill="#A80036" rx="3" ry="3" style="stroke:#A80036;stroke-width:1.0;stroke-dasharray:3.0,3.0;"/><path d="M1355,370 L1368,370 C1404.9789,370 1445.7807,373.3335 1480.2667,377.1314 " fill="none" style="stroke:#A80036;stroke-width:1.0;stroke-dasharray:3.0,3.0;"/><path d="M1479.9194,380.2162 L1482.5803,377.392 L1480.6141,374.0467 L1487.9785,377.9999 L1479.9194,380.2162 " fill="#A80036" style="stroke:#A80036;stroke-width:1.0;"/><ellipse cx="1355" cy="370" fill="#A80036" rx="3" ry="3" style="stroke:#A80036;stroke-width:1.0;stroke-dasharray:3.0,3.0;"/><path d="M493.5,328 L506.5,328 C597.9757,328 697.6516,328 787.8855,328 " fill="none" style="stroke:#A80036;stroke-width:1.0;stroke-dasharray:3.0,3.0;"/><path d="M787.8855,331.0349 L790.1617,328 L787.8855,324.9651 L795.4728,328 L787.8855,331.0349 " fill="#A80036" style="stroke:#A80036;stroke-width:1.0;"/><ellipse cx="493.5" cy="328" fill="#A80036" rx="3" ry="3" style="stroke:#A80036;stroke-width:1.0;stroke-dasharray:3.0,3.0;"/><path d="M95,304 L108,304 C124.1536,304 127.927,307.388 144,309 C228.9563,317.5205 327.5691,322.8162 389.5033,325.5873 " fill="none" style="stroke:#A80036;stroke-width:1.0;stroke-dasharray:3.0,3.0;"/><path d="M389.3666,328.6839 L391.8258,325.6898 L389.64,322.4907 L397.2449,325.9291 L389.3666,328.6839 " fill="#A80036" style="stroke:#A80036;stroke-width:1.0;"/><ellipse cx="95" cy="304" fill="#A80036" rx="3" ry="3" style="stroke:#A80036;stroke-width:1.0;stroke-dasharray:3.0,3.0;"/><!--MD5=[2be39047904a54cb24691db245b139a8]
@startjson
{
  "info": {
    "copyright": "Copyright 2016-2019 Open Connectivity Foundation, Inc. All rights reserved.",
    "license": "https://github.com/one-data-model/oneDM/blob/master/LICENSE",
    "title": "Body Water",
    "version": "2019-03-22"
  },
  "sdfObject": {
    "body.water": {
      "description": "This Resource describes the Properties associated with a person's\\nbody water. The unit is a single value that is one of kg or lb. If\\nthe unit Property is missing the default is kilograms [kg]. The\\nbwater and unit Properties are read-only values that are provided by\\nthe Server. When range is omitted the default is 0 to +MAXFLOAT.",
      "sdfProperty": {
        "bwater": {
          "description": "Body water.",
          "minimum": 0,
          "writable": false,
          "type": "number"
        },
        "units": {
          "description": "Body water unit",
          "enum": [
            "kg",
            "lb"
          ],
          "writable": false,
          "type": "string",
          "default": "kg"
        },
        "range": {
          "type": "array",
          "description": "The valid range for the Property in the Resource as a number. The\\nfirst value in the array is the minimum value, the second value in\\nthe array is the maximum value.",
          "writable": false,
          "minItems": 2,
          "maxItems": 2,
          "items": {
            "type": "number"
          }
        },
        "step": {
          "description": "Step value across the defined range an integer when the range is a\\nnumber.  This is the increment for valid values across the range; so\\nif range is 0.0..10.0 and step is 2.5 then valid values are\\n0.0,2.5,5.0,7.5,10.0.",
          "writable": false,
          "type": "number"
        },
        "precision": {
          "type": "number",
          "writable": false,
          "description": "When exposed the value in 'precision' provides a +/- tolerance\\nagainst the Properties in the Resource. Thus if a Property is UPDATED\\nto a value and that Property then RETRIEVED, the RETRIEVED value is\\nvalid if in the range of the set value +/- precision"
        }
      },
      "sdfRequired": [
        "#/sdfObject/body.water/sdfProperty/bwater"
      ]
    }
  }
}
@endjson

PlantUML version 1.2021.2(Sun Mar 07 13:10:27 EET 2021)
(GPL source distribution)
Java Runtime: OpenJDK Runtime Environment
JVM: OpenJDK 64-Bit Server VM
Default Encoding: UTF-8
Language: en
Country: FI
--></g></svg>