<?xml version="1.0" encoding="UTF-8" standalone="no"?><svg xmlns="http://www.w3.org/2000/svg" xmlns:xlink="http://www.w3.org/1999/xlink" contentScriptType="application/ecmascript" contentStyleType="text/css" height="241px" preserveAspectRatio="none" style="width:2267px;height:241px;" version="1.1" viewBox="0 0 2267 241" width="2267px" zoomAndPan="magnify"><defs/><g><rect fill="#FEFECE" height="40.9766" rx="5" ry="5" style="stroke:#FEFECE;stroke-width:1.5;" width="97" x="10" y="75"/><text fill="#000000" font-family="sans-serif" font-size="14" lengthAdjust="spacing" textLength="27" x="15" y="90.5352">info</text><text fill="#000000" font-family="sans-serif" font-size="14" lengthAdjust="spacing" textLength="0" x="102" y="90.5352"/><line style="stroke:#A80036;stroke-width:1.0;" x1="85" x2="85" y1="75" y2="95.4883"/><line style="stroke:#A80036;stroke-width:1.0;" x1="10" x2="107" y1="95.4883" y2="95.4883"/><text fill="#000000" font-family="sans-serif" font-size="14" lengthAdjust="spacing" textLength="65" x="15" y="111.0234">sdfObject</text><text fill="#000000" font-family="sans-serif" font-size="14" lengthAdjust="spacing" textLength="0" x="102" y="111.0234"/><line style="stroke:#A80036;stroke-width:1.0;" x1="85" x2="85" y1="95.4883" y2="115.9766"/><rect fill="none" height="40.9766" rx="5" ry="5" style="stroke:#A80036;stroke-width:1.5;" width="97" x="10" y="75"/><rect fill="#FEFECE" height="81.9531" rx="5" ry="5" style="stroke:#FEFECE;stroke-width:1.5;" width="655" x="144" y="19.5"/><text fill="#000000" font-family="sans-serif" font-size="14" lengthAdjust="spacing" textLength="65" x="149" y="35.0352">copyright</text><text fill="#000000" font-family="sans-serif" font-size="14" lengthAdjust="spacing" textLength="570" x="224" y="35.0352">copyright 2016-2017, 2019 Open Connectivity Foundation, Inc. All rights reserved.</text><line style="stroke:#A80036;stroke-width:1.0;" x1="219" x2="219" y1="19.5" y2="39.9883"/><line style="stroke:#A80036;stroke-width:1.0;" x1="144" x2="799" y1="39.9883" y2="39.9883"/><text fill="#000000" font-family="sans-serif" font-size="14" lengthAdjust="spacing" textLength="47" x="149" y="55.5234">license</text><text fill="#000000" font-family="sans-serif" font-size="14" lengthAdjust="spacing" textLength="462" x="224" y="55.5234">https://github.com/one-data-model/oneDM/blob/master/LICENSE</text><line style="stroke:#A80036;stroke-width:1.0;" x1="219" x2="219" y1="39.9883" y2="60.4766"/><line style="stroke:#A80036;stroke-width:1.0;" x1="144" x2="799" y1="60.4766" y2="60.4766"/><text fill="#000000" font-family="sans-serif" font-size="14" lengthAdjust="spacing" textLength="26" x="149" y="76.0117">title</text><text fill="#000000" font-family="sans-serif" font-size="14" lengthAdjust="spacing" textLength="125" x="224" y="76.0117">Vehicle Connector</text><line style="stroke:#A80036;stroke-width:1.0;" x1="219" x2="219" y1="60.4766" y2="80.9648"/><line style="stroke:#A80036;stroke-width:1.0;" x1="144" x2="799" y1="80.9648" y2="80.9648"/><text fill="#000000" font-family="sans-serif" font-size="14" lengthAdjust="spacing" textLength="50" x="149" y="96.5">version</text><text fill="#000000" font-family="sans-serif" font-size="14" lengthAdjust="spacing" textLength="88" x="224" y="96.5">2019-02-15</text><line style="stroke:#A80036;stroke-width:1.0;" x1="219" x2="219" y1="80.9648" y2="101.4531"/><rect fill="none" height="81.9531" rx="5" ry="5" style="stroke:#A80036;stroke-width:1.5;" width="655" x="144" y="19.5"/><rect fill="#FEFECE" height="20.4883" rx="5" ry="5" style="stroke:#FEFECE;stroke-width:1.5;" width="152" x="395.5" y="119.5"/><text fill="#000000" font-family="sans-serif" font-size="14" lengthAdjust="spacing" textLength="120" x="400.5" y="135.0352">vehicle.connector</text><text fill="#000000" font-family="sans-serif" font-size="14" lengthAdjust="spacing" textLength="0" x="542.5" y="135.0352"/><line style="stroke:#A80036;stroke-width:1.0;" x1="525.5" x2="525.5" y1="119.5" y2="139.9883"/><rect fill="none" height="20.4883" rx="5" ry="5" style="stroke:#A80036;stroke-width:1.5;" width="152" x="395.5" y="119.5"/><rect fill="#FEFECE" height="127.418" rx="5" ry="5" style="stroke:#FEFECE;stroke-width:1.5;" width="568" x="836" y="66"/><text fill="#000000" font-family="sans-serif" font-size="14" lengthAdjust="spacing" textLength="77" x="841" y="81.5352">description</text><text fill="#000000" font-family="sans-serif" font-size="14" lengthAdjust="spacing" textLength="444" x="934" y="81.5352">This Resource describes the attributes associated with an electric</text><text fill="#000000" font-family="sans-serif" font-size="14" lengthAdjust="spacing" textLength="453" x="934" y="98.0234">vehicle charging connector. The Property "connected" is a boolean</text><text fill="#000000" font-family="sans-serif" font-size="14" lengthAdjust="spacing" textLength="465" x="934" y="114.5117">indicating the status of the connector (False = disconnected, True =</text><text fill="#000000" font-family="sans-serif" font-size="14" lengthAdjust="spacing" textLength="368" x="934" y="131">connected). The Property "ratedchargingcapacity" and</text><text fill="#000000" font-family="sans-serif" font-size="14" lengthAdjust="spacing" textLength="296" x="934" y="147.4883">"rateddischargingcapacity" are in Amps (A).</text><line style="stroke:#A80036;stroke-width:1.0;" x1="929" x2="929" y1="66" y2="152.4414"/><line style="stroke:#A80036;stroke-width:1.0;" x1="836" x2="1404" y1="152.4414" y2="152.4414"/><text fill="#000000" font-family="sans-serif" font-size="14" lengthAdjust="spacing" textLength="79" x="841" y="167.9766">sdfProperty</text><text fill="#000000" font-family="sans-serif" font-size="14" lengthAdjust="spacing" textLength="0" x="946" y="167.9766"/><line style="stroke:#A80036;stroke-width:1.0;" x1="929" x2="929" y1="152.4414" y2="172.9297"/><line style="stroke:#A80036;stroke-width:1.0;" x1="836" x2="1404" y1="172.9297" y2="172.9297"/><text fill="#000000" font-family="sans-serif" font-size="14" lengthAdjust="spacing" textLength="83" x="841" y="188.4648">sdfRequired</text><text fill="#000000" font-family="sans-serif" font-size="14" lengthAdjust="spacing" textLength="0" x="946" y="188.4648"/><line style="stroke:#A80036;stroke-width:1.0;" x1="929" x2="929" y1="172.9297" y2="193.418"/><rect fill="none" height="127.418" rx="5" ry="5" style="stroke:#A80036;stroke-width:1.5;" width="568" x="836" y="66"/><rect fill="#FEFECE" height="61.4648" rx="5" ry="5" style="stroke:#FEFECE;stroke-width:1.5;" width="204" x="1530" y="90"/><text fill="#000000" font-family="sans-serif" font-size="14" lengthAdjust="spacing" textLength="71" x="1535" y="105.5352">connected</text><text fill="#000000" font-family="sans-serif" font-size="14" lengthAdjust="spacing" textLength="0" x="1729" y="105.5352"/><line style="stroke:#A80036;stroke-width:1.0;" x1="1712" x2="1712" y1="90" y2="110.4883"/><line style="stroke:#A80036;stroke-width:1.0;" x1="1530" x2="1734" y1="110.4883" y2="110.4883"/><text fill="#000000" font-family="sans-serif" font-size="14" lengthAdjust="spacing" textLength="152" x="1535" y="126.0234">ratedchargingcapacity</text><text fill="#000000" font-family="sans-serif" font-size="14" lengthAdjust="spacing" textLength="0" x="1729" y="126.0234"/><line style="stroke:#A80036;stroke-width:1.0;" x1="1712" x2="1712" y1="110.4883" y2="130.9766"/><line style="stroke:#A80036;stroke-width:1.0;" x1="1530" x2="1734" y1="130.9766" y2="130.9766"/><text fill="#000000" font-family="sans-serif" font-size="14" lengthAdjust="spacing" textLength="172" x="1535" y="146.5117">rateddischargingcapacity</text><text fill="#000000" font-family="sans-serif" font-size="14" lengthAdjust="spacing" textLength="0" x="1729" y="146.5117"/><line style="stroke:#A80036;stroke-width:1.0;" x1="1712" x2="1712" y1="130.9766" y2="151.4648"/><rect fill="none" height="61.4648" rx="5" ry="5" style="stroke:#A80036;stroke-width:1.5;" width="204" x="1530" y="90"/><rect fill="#FEFECE" height="61.4648" rx="5" ry="5" style="stroke:#FEFECE;stroke-width:1.5;" width="244" x="1935.5" y="10"/><text fill="#000000" font-family="sans-serif" font-size="14" lengthAdjust="spacing" textLength="77" x="1940.5" y="25.5352">description</text><text fill="#000000" font-family="sans-serif" font-size="14" lengthAdjust="spacing" textLength="147" x="2027.5" y="25.5352">The connection state.</text><line style="stroke:#A80036;stroke-width:1.0;" x1="2022.5" x2="2022.5" y1="10" y2="30.4883"/><line style="stroke:#A80036;stroke-width:1.0;" x1="1935.5" x2="2179.5" y1="30.4883" y2="30.4883"/><text fill="#000000" font-family="sans-serif" font-size="14" lengthAdjust="spacing" textLength="55" x="1940.5" y="46.0234">writable</text><text fill="#000000" font-family="sans-serif" font-size="14" lengthAdjust="spacing" textLength="48" x="2027.5" y="46.0234">☐ false</text><line style="stroke:#A80036;stroke-width:1.0;" x1="2022.5" x2="2022.5" y1="30.4883" y2="50.9766"/><line style="stroke:#A80036;stroke-width:1.0;" x1="1935.5" x2="2179.5" y1="50.9766" y2="50.9766"/><text fill="#000000" font-family="sans-serif" font-size="14" lengthAdjust="spacing" textLength="29" x="1940.5" y="66.5117">type</text><text fill="#000000" font-family="sans-serif" font-size="14" lengthAdjust="spacing" textLength="56" x="2027.5" y="66.5117">boolean</text><line style="stroke:#A80036;stroke-width:1.0;" x1="2022.5" x2="2022.5" y1="50.9766" y2="71.4648"/><rect fill="none" height="61.4648" rx="5" ry="5" style="stroke:#A80036;stroke-width:1.5;" width="244" x="1935.5" y="10"/><rect fill="#FEFECE" height="61.4648" rx="5" ry="5" style="stroke:#FEFECE;stroke-width:1.5;" width="375" x="1870" y="89"/><text fill="#000000" font-family="sans-serif" font-size="14" lengthAdjust="spacing" textLength="77" x="1875" y="104.5352">description</text><text fill="#000000" font-family="sans-serif" font-size="14" lengthAdjust="spacing" textLength="278" x="1962" y="104.5352">The rated charging capacity in Amps (A).</text><line style="stroke:#A80036;stroke-width:1.0;" x1="1957" x2="1957" y1="89" y2="109.4883"/><line style="stroke:#A80036;stroke-width:1.0;" x1="1870" x2="2245" y1="109.4883" y2="109.4883"/><text fill="#000000" font-family="sans-serif" font-size="14" lengthAdjust="spacing" textLength="55" x="1875" y="125.0234">writable</text><text fill="#000000" font-family="sans-serif" font-size="14" lengthAdjust="spacing" textLength="48" x="1962" y="125.0234">☐ false</text><line style="stroke:#A80036;stroke-width:1.0;" x1="1957" x2="1957" y1="109.4883" y2="129.9766"/><line style="stroke:#A80036;stroke-width:1.0;" x1="1870" x2="2245" y1="129.9766" y2="129.9766"/><text fill="#000000" font-family="sans-serif" font-size="14" lengthAdjust="spacing" textLength="29" x="1875" y="145.5117">type</text><text fill="#000000" font-family="sans-serif" font-size="14" lengthAdjust="spacing" textLength="54" x="1962" y="145.5117">number</text><line style="stroke:#A80036;stroke-width:1.0;" x1="1957" x2="1957" y1="129.9766" y2="150.4648"/><rect fill="none" height="61.4648" rx="5" ry="5" style="stroke:#A80036;stroke-width:1.5;" width="375" x="1870" y="89"/><rect fill="#FEFECE" height="61.4648" rx="5" ry="5" style="stroke:#FEFECE;stroke-width:1.5;" width="395" x="1860" y="168"/><text fill="#000000" font-family="sans-serif" font-size="14" lengthAdjust="spacing" textLength="77" x="1865" y="183.5352">description</text><text fill="#000000" font-family="sans-serif" font-size="14" lengthAdjust="spacing" textLength="298" x="1952" y="183.5352">The rated discharging capacity in Amps (A).</text><line style="stroke:#A80036;stroke-width:1.0;" x1="1947" x2="1947" y1="168" y2="188.4883"/><line style="stroke:#A80036;stroke-width:1.0;" x1="1860" x2="2255" y1="188.4883" y2="188.4883"/><text fill="#000000" font-family="sans-serif" font-size="14" lengthAdjust="spacing" textLength="55" x="1865" y="204.0234">writable</text><text fill="#000000" font-family="sans-serif" font-size="14" lengthAdjust="spacing" textLength="48" x="1952" y="204.0234">☐ false</text><line style="stroke:#A80036;stroke-width:1.0;" x1="1947" x2="1947" y1="188.4883" y2="208.9766"/><line style="stroke:#A80036;stroke-width:1.0;" x1="1860" x2="2255" y1="208.9766" y2="208.9766"/><text fill="#000000" font-family="sans-serif" font-size="14" lengthAdjust="spacing" textLength="29" x="1865" y="224.5117">type</text><text fill="#000000" font-family="sans-serif" font-size="14" lengthAdjust="spacing" textLength="54" x="1952" y="224.5117">number</text><line style="stroke:#A80036;stroke-width:1.0;" x1="1947" x2="1947" y1="208.9766" y2="229.4648"/><rect fill="none" height="61.4648" rx="5" ry="5" style="stroke:#A80036;stroke-width:1.5;" width="395" x="1860" y="168"/><rect fill="#FEFECE" height="20.4883" rx="5" ry="5" style="stroke:#FEFECE;stroke-width:1.5;" width="382" x="1441" y="169.5"/><text fill="#000000" font-family="sans-serif" font-size="14" lengthAdjust="spacing" textLength="372" x="1446" y="185.0352">#/sdfObject/vehicle.connector/sdfProperty/connected</text><rect fill="none" height="20.4883" rx="5" ry="5" style="stroke:#A80036;stroke-width:1.5;" width="382" x="1441" y="169.5"/><path d="M95,84.5 L108,84.5 C117.3442,84.5 126.8208,84.4198 136.3833,84.2688 " fill="none" style="stroke:#A80036;stroke-width:1.0;stroke-dasharray:3.0,3.0;"/><path d="M136.4378,87.3434 L138.6892,84.2279 L136.3288,81.1942 L144.0697,84.1326 L136.4378,87.3434 " fill="#A80036" style="stroke:#A80036;stroke-width:1.0;"/><ellipse cx="95" cy="84.5" fill="#A80036" rx="3" ry="3" style="stroke:#A80036;stroke-width:1.0;stroke-dasharray:3.0,3.0;"/><path d="M1722.5,99.5 L1735.5,99.5 C1755.1191,99.5 1847.358,82.2834 1928.0345,66.4507 " fill="none" style="stroke:#A80036;stroke-width:1.0;stroke-dasharray:3.0,3.0;"/><path d="M1928.6454,69.5581 L1930.365,65.9925 L1927.4236,63.3433 L1935.803,64.9234 L1928.6454,69.5581 " fill="#A80036" style="stroke:#A80036;stroke-width:1.0;"/><ellipse cx="1722.5" cy="99.5" fill="#A80036" rx="3" ry="3" style="stroke:#A80036;stroke-width:1.0;stroke-dasharray:3.0,3.0;"/><path d="M1722.5,119.5 L1735.5,119.5 C1776.7022,119.5 1820.8745,119.5 1862.8783,119.5 " fill="none" style="stroke:#A80036;stroke-width:1.0;stroke-dasharray:3.0,3.0;"/><path d="M1862.8783,122.5165 L1865.1407,119.5 L1862.8783,116.4835 L1870.4196,119.5 L1862.8783,122.5165 " fill="#A80036" style="stroke:#A80036;stroke-width:1.0;"/><ellipse cx="1722.5" cy="119.5" fill="#A80036" rx="3" ry="3" style="stroke:#A80036;stroke-width:1.0;stroke-dasharray:3.0,3.0;"/><path d="M1722.5,140.5 L1735.5,140.5 C1752.3957,140.5 1823.2173,153.066 1894.1033,166.4999 " fill="none" style="stroke:#A80036;stroke-width:1.0;stroke-dasharray:3.0,3.0;"/><path d="M1893.5148,169.5985 L1896.4272,166.9414 L1894.6919,163.4014 L1901.8497,167.9713 L1893.5148,169.5985 " fill="#A80036" style="stroke:#A80036;stroke-width:1.0;"/><ellipse cx="1722.5" cy="140.5" fill="#A80036" rx="3" ry="3" style="stroke:#A80036;stroke-width:1.0;stroke-dasharray:3.0,3.0;"/><path d="M1392,128.5 L1405,128.5 C1443.2957,128.5 1485.2109,127.3437 1522.4582,125.9103 " fill="none" style="stroke:#A80036;stroke-width:1.0;stroke-dasharray:3.0,3.0;"/><path d="M1522.5821,129.06 L1524.8205,125.8173 L1522.3343,122.7605 L1530.3325,125.6005 L1522.5821,129.06 " fill="#A80036" style="stroke:#A80036;stroke-width:1.0;"/><ellipse cx="1392" cy="128.5" fill="#A80036" rx="3" ry="3" style="stroke:#A80036;stroke-width:1.0;stroke-dasharray:3.0,3.0;"/><path d="M1392,171.5 L1405,171.5 C1414.3143,171.5 1423.8427,171.5684 1433.4659,171.6926 " fill="none" style="stroke:#A80036;stroke-width:1.0;stroke-dasharray:3.0,3.0;"/><path d="M1433.4214,174.7868 L1435.7866,171.7259 L1433.5104,168.5983 L1441.2017,171.8038 L1433.4214,174.7868 " fill="#A80036" style="stroke:#A80036;stroke-width:1.0;"/><ellipse cx="1392" cy="171.5" fill="#A80036" rx="3" ry="3" style="stroke:#A80036;stroke-width:1.0;stroke-dasharray:3.0,3.0;"/><path d="M536,129.5 L549,129.5 C639.9179,129.5 738.986,129.5 828.6697,129.5 " fill="none" style="stroke:#A80036;stroke-width:1.0;stroke-dasharray:3.0,3.0;"/><path d="M828.6697,132.5164 L830.932,129.5 L828.6697,126.4836 L836.2108,129.5 L828.6697,132.5164 " fill="#A80036" style="stroke:#A80036;stroke-width:1.0;"/><ellipse cx="536" cy="129.5" fill="#A80036" rx="3" ry="3" style="stroke:#A80036;stroke-width:1.0;stroke-dasharray:3.0,3.0;"/><path d="M95,105.5 L108,105.5 C124.1536,105.5 127.924,108.9191 144,110.5 C226.9663,118.6587 322.1451,123.7039 388.3417,126.526 " fill="none" style="stroke:#A80036;stroke-width:1.0;stroke-dasharray:3.0,3.0;"/><path d="M388.2152,129.5348 L390.5983,126.621 L388.4683,123.5172 L395.8638,126.8425 L388.2152,129.5348 " fill="#A80036" style="stroke:#A80036;stroke-width:1.0;"/><ellipse cx="95" cy="105.5" fill="#A80036" rx="3" ry="3" style="stroke:#A80036;stroke-width:1.0;stroke-dasharray:3.0,3.0;"/><!--MD5=[659ad194b248877dab6e85979894d746]
@startjson
{
  "info": {
    "copyright": "copyright 2016-2017, 2019 Open Connectivity Foundation, Inc. All rights reserved.",
    "license": "https://github.com/one-data-model/oneDM/blob/master/LICENSE",
    "title": "Vehicle Connector",
    "version": "2019-02-15"
  },
  "sdfObject": {
    "vehicle.connector": {
      "description": "This Resource describes the attributes associated with an electric\\nvehicle charging connector. The Property \"connected\" is a boolean\\nindicating the status of the connector (False = disconnected, True =\\nconnected). The Property \"ratedchargingcapacity\" and\\n\"rateddischargingcapacity\" are in Amps (A).",
      "sdfProperty": {
        "connected": {
          "description": "The connection state.",
          "writable": false,
          "type": "boolean"
        },
        "ratedchargingcapacity": {
          "description": "The rated charging capacity in Amps (A).",
          "writable": false,
          "type": "number"
        },
        "rateddischargingcapacity": {
          "description": "The rated discharging capacity in Amps (A).",
          "writable": false,
          "type": "number"
        }
      },
      "sdfRequired": [
        "#/sdfObject/vehicle.connector/sdfProperty/connected"
      ]
    }
  }
}
@endjson

PlantUML version 1.2021.2(Sun Mar 07 13:10:27 EET 2021)
(GPL source distribution)
Java Runtime: OpenJDK Runtime Environment
JVM: OpenJDK 64-Bit Server VM
Default Encoding: UTF-8
Language: en
Country: FI
--></g></svg>