<?xml version="1.0" encoding="UTF-8" standalone="no"?><svg xmlns="http://www.w3.org/2000/svg" xmlns:xlink="http://www.w3.org/1999/xlink" contentScriptType="application/ecmascript" contentStyleType="text/css" height="594px" preserveAspectRatio="none" style="width:2497px;height:594px;" version="1.1" viewBox="0 0 2497 594" width="2497px" zoomAndPan="magnify"><defs/><g><rect fill="#FEFECE" height="40.9766" rx="5" ry="5" style="stroke:#FEFECE;stroke-width:1.5;" width="97" x="10" y="191"/><text fill="#000000" font-family="sans-serif" font-size="14" lengthAdjust="spacing" textLength="27" x="15" y="206.5352">info</text><text fill="#000000" font-family="sans-serif" font-size="14" lengthAdjust="spacing" textLength="0" x="102" y="206.5352"/><line style="stroke:#A80036;stroke-width:1.0;" x1="85" x2="85" y1="191" y2="211.4883"/><line style="stroke:#A80036;stroke-width:1.0;" x1="10" x2="107" y1="211.4883" y2="211.4883"/><text fill="#000000" font-family="sans-serif" font-size="14" lengthAdjust="spacing" textLength="65" x="15" y="227.0234">sdfObject</text><text fill="#000000" font-family="sans-serif" font-size="14" lengthAdjust="spacing" textLength="0" x="102" y="227.0234"/><line style="stroke:#A80036;stroke-width:1.0;" x1="85" x2="85" y1="211.4883" y2="231.9766"/><rect fill="none" height="40.9766" rx="5" ry="5" style="stroke:#A80036;stroke-width:1.5;" width="97" x="10" y="191"/><rect fill="#FEFECE" height="81.9531" rx="5" ry="5" style="stroke:#FEFECE;stroke-width:1.5;" width="570" x="144" y="135.5"/><text fill="#000000" font-family="sans-serif" font-size="14" lengthAdjust="spacing" textLength="65" x="149" y="151.0352">copyright</text><text fill="#000000" font-family="sans-serif" font-size="14" lengthAdjust="spacing" textLength="485" x="224" y="151.0352">Copyright 2019 Open Connectivity Foundation, Inc. All rights reserved.</text><line style="stroke:#A80036;stroke-width:1.0;" x1="219" x2="219" y1="135.5" y2="155.9883"/><line style="stroke:#A80036;stroke-width:1.0;" x1="144" x2="714" y1="155.9883" y2="155.9883"/><text fill="#000000" font-family="sans-serif" font-size="14" lengthAdjust="spacing" textLength="47" x="149" y="171.5234">license</text><text fill="#000000" font-family="sans-serif" font-size="14" lengthAdjust="spacing" textLength="462" x="224" y="171.5234">https://github.com/one-data-model/oneDM/blob/master/LICENSE</text><line style="stroke:#A80036;stroke-width:1.0;" x1="219" x2="219" y1="155.9883" y2="176.4766"/><line style="stroke:#A80036;stroke-width:1.0;" x1="144" x2="714" y1="176.4766" y2="176.4766"/><text fill="#000000" font-family="sans-serif" font-size="14" lengthAdjust="spacing" textLength="26" x="149" y="192.0117">title</text><text fill="#000000" font-family="sans-serif" font-size="14" lengthAdjust="spacing" textLength="159" x="224" y="192.0117">Carbon Dioxide Sensor</text><line style="stroke:#A80036;stroke-width:1.0;" x1="219" x2="219" y1="176.4766" y2="196.9648"/><line style="stroke:#A80036;stroke-width:1.0;" x1="144" x2="714" y1="196.9648" y2="196.9648"/><text fill="#000000" font-family="sans-serif" font-size="14" lengthAdjust="spacing" textLength="50" x="149" y="212.5">version</text><text fill="#000000" font-family="sans-serif" font-size="14" lengthAdjust="spacing" textLength="88" x="224" y="212.5">2019-11-18</text><line style="stroke:#A80036;stroke-width:1.0;" x1="219" x2="219" y1="196.9648" y2="217.4531"/><rect fill="none" height="81.9531" rx="5" ry="5" style="stroke:#A80036;stroke-width:1.5;" width="570" x="144" y="135.5"/><rect fill="#FEFECE" height="20.4883" rx="5" ry="5" style="stroke:#FEFECE;stroke-width:1.5;" width="182" x="338" y="235.5"/><text fill="#000000" font-family="sans-serif" font-size="14" lengthAdjust="spacing" textLength="150" x="343" y="251.0352">sensor.carbondioxide</text><text fill="#000000" font-family="sans-serif" font-size="14" lengthAdjust="spacing" textLength="0" x="515" y="251.0352"/><line style="stroke:#A80036;stroke-width:1.0;" x1="498" x2="498" y1="235.5" y2="255.9883"/><rect fill="none" height="20.4883" rx="5" ry="5" style="stroke:#A80036;stroke-width:1.5;" width="182" x="338" y="235.5"/><rect fill="#FEFECE" height="110.9297" rx="5" ry="5" style="stroke:#FEFECE;stroke-width:1.5;" width="573" x="751" y="190"/><text fill="#000000" font-family="sans-serif" font-size="14" lengthAdjust="spacing" textLength="77" x="756" y="205.5352">description</text><text fill="#000000" font-family="sans-serif" font-size="14" lengthAdjust="spacing" textLength="470" x="849" y="205.5352">This Resource describes whether carbon dioxide has been sensed or</text><text fill="#000000" font-family="sans-serif" font-size="14" lengthAdjust="spacing" textLength="450" x="849" y="222.0234">not. The Property "value" is a boolean. A value of 'true' means that</text><text fill="#000000" font-family="sans-serif" font-size="14" lengthAdjust="spacing" textLength="431" x="849" y="238.5117">carbon dioxide has been detected. A value of 'false' means that</text><text fill="#000000" font-family="sans-serif" font-size="14" lengthAdjust="spacing" textLength="264" x="849" y="255">carbon dioxide has not been detected.</text><line style="stroke:#A80036;stroke-width:1.0;" x1="844" x2="844" y1="190" y2="259.9531"/><line style="stroke:#A80036;stroke-width:1.0;" x1="751" x2="1324" y1="259.9531" y2="259.9531"/><text fill="#000000" font-family="sans-serif" font-size="14" lengthAdjust="spacing" textLength="79" x="756" y="275.4883">sdfProperty</text><text fill="#000000" font-family="sans-serif" font-size="14" lengthAdjust="spacing" textLength="0" x="861" y="275.4883"/><line style="stroke:#A80036;stroke-width:1.0;" x1="844" x2="844" y1="259.9531" y2="280.4414"/><line style="stroke:#A80036;stroke-width:1.0;" x1="751" x2="1324" y1="280.4414" y2="280.4414"/><text fill="#000000" font-family="sans-serif" font-size="14" lengthAdjust="spacing" textLength="83" x="756" y="295.9766">sdfRequired</text><text fill="#000000" font-family="sans-serif" font-size="14" lengthAdjust="spacing" textLength="0" x="861" y="295.9766"/><line style="stroke:#A80036;stroke-width:1.0;" x1="844" x2="844" y1="280.4414" y2="300.9297"/><rect fill="none" height="110.9297" rx="5" ry="5" style="stroke:#A80036;stroke-width:1.5;" width="573" x="751" y="190"/><rect fill="#FEFECE" height="102.4414" rx="5" ry="5" style="stroke:#FEFECE;stroke-width:1.5;" width="126" x="1486.5" y="173.5"/><text fill="#000000" font-family="sans-serif" font-size="14" lengthAdjust="spacing" textLength="36" x="1491.5" y="189.0352">value</text><text fill="#000000" font-family="sans-serif" font-size="14" lengthAdjust="spacing" textLength="0" x="1607.5" y="189.0352"/><line style="stroke:#A80036;stroke-width:1.0;" x1="1590.5" x2="1590.5" y1="173.5" y2="193.9883"/><line style="stroke:#A80036;stroke-width:1.0;" x1="1486.5" x2="1612.5" y1="193.9883" y2="193.9883"/><text fill="#000000" font-family="sans-serif" font-size="14" lengthAdjust="spacing" textLength="94" x="1491.5" y="209.5234">measurement</text><text fill="#000000" font-family="sans-serif" font-size="14" lengthAdjust="spacing" textLength="0" x="1607.5" y="209.5234"/><line style="stroke:#A80036;stroke-width:1.0;" x1="1590.5" x2="1590.5" y1="193.9883" y2="214.4766"/><line style="stroke:#A80036;stroke-width:1.0;" x1="1486.5" x2="1612.5" y1="214.4766" y2="214.4766"/><text fill="#000000" font-family="sans-serif" font-size="14" lengthAdjust="spacing" textLength="63" x="1491.5" y="230.0117">precision</text><text fill="#000000" font-family="sans-serif" font-size="14" lengthAdjust="spacing" textLength="0" x="1607.5" y="230.0117"/><line style="stroke:#A80036;stroke-width:1.0;" x1="1590.5" x2="1590.5" y1="214.4766" y2="234.9648"/><line style="stroke:#A80036;stroke-width:1.0;" x1="1486.5" x2="1612.5" y1="234.9648" y2="234.9648"/><text fill="#000000" font-family="sans-serif" font-size="14" lengthAdjust="spacing" textLength="40" x="1491.5" y="250.5">range</text><text fill="#000000" font-family="sans-serif" font-size="14" lengthAdjust="spacing" textLength="0" x="1607.5" y="250.5"/><line style="stroke:#A80036;stroke-width:1.0;" x1="1590.5" x2="1590.5" y1="234.9648" y2="255.4531"/><line style="stroke:#A80036;stroke-width:1.0;" x1="1486.5" x2="1612.5" y1="255.4531" y2="255.4531"/><text fill="#000000" font-family="sans-serif" font-size="14" lengthAdjust="spacing" textLength="29" x="1491.5" y="270.9883">step</text><text fill="#000000" font-family="sans-serif" font-size="14" lengthAdjust="spacing" textLength="0" x="1607.5" y="270.9883"/><line style="stroke:#A80036;stroke-width:1.0;" x1="1590.5" x2="1590.5" y1="255.4531" y2="275.9414"/><rect fill="none" height="102.4414" rx="5" ry="5" style="stroke:#A80036;stroke-width:1.5;" width="126" x="1486.5" y="173.5"/><rect fill="#FEFECE" height="61.4648" rx="5" ry="5" style="stroke:#FEFECE;stroke-width:1.5;" width="537" x="1791.5" y="10"/><text fill="#000000" font-family="sans-serif" font-size="14" lengthAdjust="spacing" textLength="77" x="1796.5" y="25.5352">description</text><text fill="#000000" font-family="sans-serif" font-size="14" lengthAdjust="spacing" textLength="440" x="1883.5" y="25.5352">The carbon dioxide indicator, true = sensed, false = not sensed.</text><line style="stroke:#A80036;stroke-width:1.0;" x1="1878.5" x2="1878.5" y1="10" y2="30.4883"/><line style="stroke:#A80036;stroke-width:1.0;" x1="1791.5" x2="2328.5" y1="30.4883" y2="30.4883"/><text fill="#000000" font-family="sans-serif" font-size="14" lengthAdjust="spacing" textLength="55" x="1796.5" y="46.0234">writable</text><text fill="#000000" font-family="sans-serif" font-size="14" lengthAdjust="spacing" textLength="48" x="1883.5" y="46.0234">☐ false</text><line style="stroke:#A80036;stroke-width:1.0;" x1="1878.5" x2="1878.5" y1="30.4883" y2="50.9766"/><line style="stroke:#A80036;stroke-width:1.0;" x1="1791.5" x2="2328.5" y1="50.9766" y2="50.9766"/><text fill="#000000" font-family="sans-serif" font-size="14" lengthAdjust="spacing" textLength="29" x="1796.5" y="66.5117">type</text><text fill="#000000" font-family="sans-serif" font-size="14" lengthAdjust="spacing" textLength="56" x="1883.5" y="66.5117">boolean</text><line style="stroke:#A80036;stroke-width:1.0;" x1="1878.5" x2="1878.5" y1="50.9766" y2="71.4648"/><rect fill="none" height="61.4648" rx="5" ry="5" style="stroke:#A80036;stroke-width:1.5;" width="537" x="1791.5" y="10"/><rect fill="#FEFECE" height="61.4648" rx="5" ry="5" style="stroke:#FEFECE;stroke-width:1.5;" width="427" x="1846.5" y="89"/><text fill="#000000" font-family="sans-serif" font-size="14" lengthAdjust="spacing" textLength="29" x="1851.5" y="104.5352">type</text><text fill="#000000" font-family="sans-serif" font-size="14" lengthAdjust="spacing" textLength="54" x="1938.5" y="104.5352">number</text><line style="stroke:#A80036;stroke-width:1.0;" x1="1933.5" x2="1933.5" y1="89" y2="109.4883"/><line style="stroke:#A80036;stroke-width:1.0;" x1="1846.5" x2="2273.5" y1="109.4883" y2="109.4883"/><text fill="#000000" font-family="sans-serif" font-size="14" lengthAdjust="spacing" textLength="77" x="1851.5" y="125.0234">description</text><text fill="#000000" font-family="sans-serif" font-size="14" lengthAdjust="spacing" textLength="330" x="1938.5" y="125.0234">Measured value for this sensor, units are in ppm</text><line style="stroke:#A80036;stroke-width:1.0;" x1="1933.5" x2="1933.5" y1="109.4883" y2="129.9766"/><line style="stroke:#A80036;stroke-width:1.0;" x1="1846.5" x2="2273.5" y1="129.9766" y2="129.9766"/><text fill="#000000" font-family="sans-serif" font-size="14" lengthAdjust="spacing" textLength="55" x="1851.5" y="145.5117">writable</text><text fill="#000000" font-family="sans-serif" font-size="14" lengthAdjust="spacing" textLength="48" x="1938.5" y="145.5117">☐ false</text><line style="stroke:#A80036;stroke-width:1.0;" x1="1933.5" x2="1933.5" y1="129.9766" y2="150.4648"/><rect fill="none" height="61.4648" rx="5" ry="5" style="stroke:#A80036;stroke-width:1.5;" width="427" x="1846.5" y="89"/><rect fill="#FEFECE" height="110.9297" rx="5" ry="5" style="stroke:#FEFECE;stroke-width:1.5;" width="570" x="1775" y="168"/><text fill="#000000" font-family="sans-serif" font-size="14" lengthAdjust="spacing" textLength="29" x="1780" y="183.5352">type</text><text fill="#000000" font-family="sans-serif" font-size="14" lengthAdjust="spacing" textLength="54" x="1867" y="183.5352">number</text><line style="stroke:#A80036;stroke-width:1.0;" x1="1862" x2="1862" y1="168" y2="188.4883"/><line style="stroke:#A80036;stroke-width:1.0;" x1="1775" x2="2345" y1="188.4883" y2="188.4883"/><text fill="#000000" font-family="sans-serif" font-size="14" lengthAdjust="spacing" textLength="55" x="1780" y="204.0234">writable</text><text fill="#000000" font-family="sans-serif" font-size="14" lengthAdjust="spacing" textLength="48" x="1867" y="204.0234">☐ false</text><line style="stroke:#A80036;stroke-width:1.0;" x1="1862" x2="1862" y1="188.4883" y2="208.9766"/><line style="stroke:#A80036;stroke-width:1.0;" x1="1775" x2="2345" y1="208.9766" y2="208.9766"/><text fill="#000000" font-family="sans-serif" font-size="14" lengthAdjust="spacing" textLength="77" x="1780" y="224.5117">description</text><text fill="#000000" font-family="sans-serif" font-size="14" lengthAdjust="spacing" textLength="430" x="1867" y="224.5117">When exposed the value in 'precision' provides a +/- tolerance</text><text fill="#000000" font-family="sans-serif" font-size="14" lengthAdjust="spacing" textLength="473" x="1867" y="241">against the Properties in the Resource. Thus if a Property is UPDATED</text><text fill="#000000" font-family="sans-serif" font-size="14" lengthAdjust="spacing" textLength="465" x="1867" y="257.4883">to a value and that Property then RETRIEVED, the RETRIEVED value is</text><text fill="#000000" font-family="sans-serif" font-size="14" lengthAdjust="spacing" textLength="337" x="1867" y="273.9766">valid if in the range of the set value +/- precision</text><line style="stroke:#A80036;stroke-width:1.0;" x1="1862" x2="1862" y1="208.9766" y2="278.9297"/><rect fill="none" height="110.9297" rx="5" ry="5" style="stroke:#A80036;stroke-width:1.5;" width="570" x="1775" y="168"/><rect fill="#FEFECE" height="155.9063" rx="5" ry="5" style="stroke:#FEFECE;stroke-width:1.5;" width="548" x="1786" y="297.5"/><text fill="#000000" font-family="sans-serif" font-size="14" lengthAdjust="spacing" textLength="29" x="1791" y="313.0352">type</text><text fill="#000000" font-family="sans-serif" font-size="14" lengthAdjust="spacing" textLength="35" x="1878" y="313.0352">array</text><line style="stroke:#A80036;stroke-width:1.0;" x1="1873" x2="1873" y1="297.5" y2="317.9883"/><line style="stroke:#A80036;stroke-width:1.0;" x1="1786" x2="2334" y1="317.9883" y2="317.9883"/><text fill="#000000" font-family="sans-serif" font-size="14" lengthAdjust="spacing" textLength="77" x="1791" y="333.5234">description</text><text fill="#000000" font-family="sans-serif" font-size="14" lengthAdjust="spacing" textLength="451" x="1878" y="333.5234">The valid range for the Property in the Resource as a number. The</text><text fill="#000000" font-family="sans-serif" font-size="14" lengthAdjust="spacing" textLength="439" x="1878" y="350.0117">first value in the array is the minimum value, the second value in</text><text fill="#000000" font-family="sans-serif" font-size="14" lengthAdjust="spacing" textLength="219" x="1878" y="366.5">the array is the maximum value.</text><line style="stroke:#A80036;stroke-width:1.0;" x1="1873" x2="1873" y1="317.9883" y2="371.4531"/><line style="stroke:#A80036;stroke-width:1.0;" x1="1786" x2="2334" y1="371.4531" y2="371.4531"/><text fill="#000000" font-family="sans-serif" font-size="14" lengthAdjust="spacing" textLength="55" x="1791" y="386.9883">writable</text><text fill="#000000" font-family="sans-serif" font-size="14" lengthAdjust="spacing" textLength="48" x="1878" y="386.9883">☐ false</text><line style="stroke:#A80036;stroke-width:1.0;" x1="1873" x2="1873" y1="371.4531" y2="391.9414"/><line style="stroke:#A80036;stroke-width:1.0;" x1="1786" x2="2334" y1="391.9414" y2="391.9414"/><text fill="#000000" font-family="sans-serif" font-size="14" lengthAdjust="spacing" textLength="63" x="1791" y="407.4766">minItems</text><text fill="#000000" font-family="sans-serif" font-size="14" lengthAdjust="spacing" textLength="9" x="1878" y="407.4766">2</text><line style="stroke:#A80036;stroke-width:1.0;" x1="1873" x2="1873" y1="391.9414" y2="412.4297"/><line style="stroke:#A80036;stroke-width:1.0;" x1="1786" x2="2334" y1="412.4297" y2="412.4297"/><text fill="#000000" font-family="sans-serif" font-size="14" lengthAdjust="spacing" textLength="67" x="1791" y="427.9648">maxItems</text><text fill="#000000" font-family="sans-serif" font-size="14" lengthAdjust="spacing" textLength="9" x="1878" y="427.9648">2</text><line style="stroke:#A80036;stroke-width:1.0;" x1="1873" x2="1873" y1="412.4297" y2="432.918"/><line style="stroke:#A80036;stroke-width:1.0;" x1="1786" x2="2334" y1="432.918" y2="432.918"/><text fill="#000000" font-family="sans-serif" font-size="14" lengthAdjust="spacing" textLength="37" x="1791" y="448.4531">items</text><text fill="#000000" font-family="sans-serif" font-size="14" lengthAdjust="spacing" textLength="0" x="1890" y="448.4531"/><line style="stroke:#A80036;stroke-width:1.0;" x1="1873" x2="1873" y1="432.918" y2="453.4063"/><rect fill="none" height="155.9063" rx="5" ry="5" style="stroke:#A80036;stroke-width:1.5;" width="548" x="1786" y="297.5"/><rect fill="#FEFECE" height="20.4883" rx="5" ry="5" style="stroke:#FEFECE;stroke-width:1.5;" width="103" x="2382" y="430.5"/><text fill="#000000" font-family="sans-serif" font-size="14" lengthAdjust="spacing" textLength="29" x="2387" y="446.0352">type</text><text fill="#000000" font-family="sans-serif" font-size="14" lengthAdjust="spacing" textLength="54" x="2426" y="446.0352">number</text><line style="stroke:#A80036;stroke-width:1.0;" x1="2421" x2="2421" y1="430.5" y2="450.9883"/><rect fill="none" height="20.4883" rx="5" ry="5" style="stroke:#A80036;stroke-width:1.5;" width="103" x="2382" y="430.5"/><rect fill="#FEFECE" height="110.9297" rx="5" ry="5" style="stroke:#FEFECE;stroke-width:1.5;" width="555" x="1782.5" y="472"/><text fill="#000000" font-family="sans-serif" font-size="14" lengthAdjust="spacing" textLength="77" x="1787.5" y="487.5352">description</text><text fill="#000000" font-family="sans-serif" font-size="14" lengthAdjust="spacing" textLength="456" x="1874.5" y="487.5352">Step value across the defined range an integer when the range is a</text><text fill="#000000" font-family="sans-serif" font-size="14" lengthAdjust="spacing" textLength="458" x="1874.5" y="504.0234">number.  This is the increment for valid values across the range; so</text><text fill="#000000" font-family="sans-serif" font-size="14" lengthAdjust="spacing" textLength="381" x="1874.5" y="520.5117">if range is 0.0..10.0 and step is 2.5 then valid values are</text><text fill="#000000" font-family="sans-serif" font-size="14" lengthAdjust="spacing" textLength="139" x="1874.5" y="537">0.0,2.5,5.0,7.5,10.0.</text><line style="stroke:#A80036;stroke-width:1.0;" x1="1869.5" x2="1869.5" y1="472" y2="541.9531"/><line style="stroke:#A80036;stroke-width:1.0;" x1="1782.5" x2="2337.5" y1="541.9531" y2="541.9531"/><text fill="#000000" font-family="sans-serif" font-size="14" lengthAdjust="spacing" textLength="55" x="1787.5" y="557.4883">writable</text><text fill="#000000" font-family="sans-serif" font-size="14" lengthAdjust="spacing" textLength="48" x="1874.5" y="557.4883">☐ false</text><line style="stroke:#A80036;stroke-width:1.0;" x1="1869.5" x2="1869.5" y1="541.9531" y2="562.4414"/><line style="stroke:#A80036;stroke-width:1.0;" x1="1782.5" x2="2337.5" y1="562.4414" y2="562.4414"/><text fill="#000000" font-family="sans-serif" font-size="14" lengthAdjust="spacing" textLength="29" x="1787.5" y="577.9766">type</text><text fill="#000000" font-family="sans-serif" font-size="14" lengthAdjust="spacing" textLength="54" x="1874.5" y="577.9766">number</text><line style="stroke:#A80036;stroke-width:1.0;" x1="1869.5" x2="1869.5" y1="562.4414" y2="582.9297"/><rect fill="none" height="110.9297" rx="5" ry="5" style="stroke:#A80036;stroke-width:1.5;" width="555" x="1782.5" y="472"/><rect fill="#FEFECE" height="20.4883" rx="5" ry="5" style="stroke:#FEFECE;stroke-width:1.5;" width="377" x="1361" y="293.5"/><text fill="#000000" font-family="sans-serif" font-size="14" lengthAdjust="spacing" textLength="367" x="1366" y="309.0352">#/sdfObject/sensor.carbondioxide/sdfProperty/value</text><rect fill="none" height="20.4883" rx="5" ry="5" style="stroke:#A80036;stroke-width:1.5;" width="377" x="1361" y="293.5"/><path d="M95,200.5 L108,200.5 C117.356,200.5 126.8613,200.397 136.4563,200.2046 " fill="none" style="stroke:#A80036;stroke-width:1.0;stroke-dasharray:3.0,3.0;"/><path d="M136.5256,203.2898 L138.7703,200.1526 L136.387,197.1194 L144.1694,200.0314 L136.5256,203.2898 " fill="#A80036" style="stroke:#A80036;stroke-width:1.0;"/><ellipse cx="95" cy="200.5" fill="#A80036" rx="3" ry="3" style="stroke:#A80036;stroke-width:1.0;stroke-dasharray:3.0,3.0;"/><path d="M1601,183.5 L1614,183.5 C1698.9459,183.5 1695.3334,109.9793 1775,80.5 C1781.929,77.936 1789.0087,75.5348 1796.1984,73.2862 " fill="none" style="stroke:#A80036;stroke-width:1.0;stroke-dasharray:3.0,3.0;"/><path d="M1797.0777,76.1761 L1798.3659,72.6267 L1795.3191,70.3963 L1803.4233,71.088 L1797.0777,76.1761 " fill="#A80036" style="stroke:#A80036;stroke-width:1.0;"/><ellipse cx="1601" cy="183.5" fill="#A80036" rx="3" ry="3" style="stroke:#A80036;stroke-width:1.0;stroke-dasharray:3.0,3.0;"/><path d="M1601,203.5 L1614,203.5 C1688.1796,203.5 1702.347,174.4719 1775,159.5 C1795.8478,155.2038 1817.651,151.2284 1839.5118,147.5862 " fill="none" style="stroke:#A80036;stroke-width:1.0;stroke-dasharray:3.0,3.0;"/><path d="M1840.0007,150.552 L1841.7361,147.2195 L1839.0228,144.6204 L1846.9263,146.3638 L1840.0007,150.552 " fill="#A80036" style="stroke:#A80036;stroke-width:1.0;"/><ellipse cx="1601" cy="203.5" fill="#A80036" rx="3" ry="3" style="stroke:#A80036;stroke-width:1.0;stroke-dasharray:3.0,3.0;"/><path d="M1601,223.5 L1614,223.5 C1663.6677,223.5 1716.4501,223.5 1767.6593,223.5 " fill="none" style="stroke:#A80036;stroke-width:1.0;stroke-dasharray:3.0,3.0;"/><path d="M1767.6593,226.5174 L1769.9224,223.5 L1767.6593,220.4826 L1775.2028,223.5 L1767.6593,226.5174 " fill="#A80036" style="stroke:#A80036;stroke-width:1.0;"/><ellipse cx="1601" cy="223.5" fill="#A80036" rx="3" ry="3" style="stroke:#A80036;stroke-width:1.0;stroke-dasharray:3.0,3.0;"/><path d="M2322.5,440.5 L2335.5,440.5 C2348.235,440.5 2361.9056,440.5 2374.8621,440.5 " fill="none" style="stroke:#A80036;stroke-width:1.0;stroke-dasharray:3.0,3.0;"/><path d="M2374.8621,443.5134 L2377.1221,440.5 L2374.8621,437.4866 L2382.3956,440.5 L2374.8621,443.5134 " fill="#A80036" style="stroke:#A80036;stroke-width:1.0;"/><ellipse cx="2322.5" cy="440.5" fill="#A80036" rx="3" ry="3" style="stroke:#A80036;stroke-width:1.0;stroke-dasharray:3.0,3.0;"/><path d="M1601,244.5 L1614,244.5 C1624.9522,244.5 1706.8987,268.1105 1797.5861,295.2843 " fill="none" style="stroke:#A80036;stroke-width:1.0;stroke-dasharray:3.0,3.0;"/><path d="M1796.7001,298.2386 L1799.8019,295.9489 L1798.4722,292.33 L1804.9719,297.4995 L1796.7001,298.2386 " fill="#A80036" style="stroke:#A80036;stroke-width:1.0;"/><ellipse cx="1601" cy="244.5" fill="#A80036" rx="3" ry="3" style="stroke:#A80036;stroke-width:1.0;stroke-dasharray:3.0,3.0;"/><path d="M1601,265.5 L1614,265.5 C1670.1937,265.5 1698.3092,245.7445 1739,284.5 C1797.4456,340.1658 1718.647,404.7167 1775,462.5 C1776.3928,463.9282 1777.8102,465.3278 1779.2508,466.6995 " fill="none" style="stroke:#A80036;stroke-width:1.0;stroke-dasharray:3.0,3.0;"/><path d="M1777.1897,468.9677 L1780.952,468.2453 L1781.3119,464.4312 L1784.9214,471.8522 L1777.1897,468.9677 " fill="#A80036" style="stroke:#A80036;stroke-width:1.0;"/><ellipse cx="1601" cy="265.5" fill="#A80036" rx="3" ry="3" style="stroke:#A80036;stroke-width:1.0;stroke-dasharray:3.0,3.0;"/><path d="M1312,245.5 L1325,245.5 C1376.8773,245.5 1435.2189,239.8475 1479.3535,234.4076 " fill="none" style="stroke:#A80036;stroke-width:1.0;stroke-dasharray:3.0,3.0;"/><path d="M1479.7299,237.4129 L1481.6075,234.1254 L1478.9772,231.4024 L1486.8666,233.4668 L1479.7299,237.4129 " fill="#A80036" style="stroke:#A80036;stroke-width:1.0;"/><ellipse cx="1312" cy="245.5" fill="#A80036" rx="3" ry="3" style="stroke:#A80036;stroke-width:1.0;stroke-dasharray:3.0,3.0;"/><path d="M1312,282.5 L1325,282.5 C1337.2854,282.5 1391.5977,287.5721 1443.6609,292.7309 " fill="none" style="stroke:#A80036;stroke-width:1.0;stroke-dasharray:3.0,3.0;"/><path d="M1443.3564,295.7948 L1445.9588,292.9592 L1443.9653,289.6669 L1451.3207,293.492 L1443.3564,295.7948 " fill="#A80036" style="stroke:#A80036;stroke-width:1.0;"/><ellipse cx="1312" cy="282.5" fill="#A80036" rx="3" ry="3" style="stroke:#A80036;stroke-width:1.0;stroke-dasharray:3.0,3.0;"/><path d="M508.5,245.5 L521.5,245.5 C593.3865,245.5 670.9119,245.5 743.4605,245.5 " fill="none" style="stroke:#A80036;stroke-width:1.0;stroke-dasharray:3.0,3.0;"/><path d="M743.4605,248.664 L745.8335,245.5 L743.4605,242.336 L751.3706,245.5 L743.4605,248.664 " fill="#A80036" style="stroke:#A80036;stroke-width:1.0;"/><ellipse cx="508.5" cy="245.5" fill="#A80036" rx="3" ry="3" style="stroke:#A80036;stroke-width:1.0;stroke-dasharray:3.0,3.0;"/><path d="M95,221.5 L108,221.5 C124.1536,221.5 127.9309,224.8496 144,226.5 C205.9637,232.8639 275.7489,237.5622 330.6962,240.6947 " fill="none" style="stroke:#A80036;stroke-width:1.0;stroke-dasharray:3.0,3.0;"/><path d="M330.5236,243.7556 L332.992,240.8241 L330.8689,237.6337 L338.3487,241.1263 L330.5236,243.7556 " fill="#A80036" style="stroke:#A80036;stroke-width:1.0;"/><ellipse cx="95" cy="221.5" fill="#A80036" rx="3" ry="3" style="stroke:#A80036;stroke-width:1.0;stroke-dasharray:3.0,3.0;"/><!--MD5=[b56cf731e936f9291c3ef7e216206090]
@startjson
{
  "info": {
    "copyright": "Copyright 2019 Open Connectivity Foundation, Inc. All rights reserved.",
    "license": "https://github.com/one-data-model/oneDM/blob/master/LICENSE",
    "title": "Carbon Dioxide Sensor",
    "version": "2019-11-18"
  },
  "sdfObject": {
    "sensor.carbondioxide": {
      "description": "This Resource describes whether carbon dioxide has been sensed or\\nnot. The Property \"value\" is a boolean. A value of 'true' means that\\ncarbon dioxide has been detected. A value of 'false' means that\\ncarbon dioxide has not been detected.",
      "sdfProperty": {
        "value": {
          "description": "The carbon dioxide indicator, true = sensed, false = not sensed.",
          "writable": false,
          "type": "boolean"
        },
        "measurement": {
          "type": "number",
          "description": "Measured value for this sensor, units are in ppm",
          "writable": false
        },
        "precision": {
          "type": "number",
          "writable": false,
          "description": "When exposed the value in 'precision' provides a +/- tolerance\\nagainst the Properties in the Resource. Thus if a Property is UPDATED\\nto a value and that Property then RETRIEVED, the RETRIEVED value is\\nvalid if in the range of the set value +/- precision"
        },
        "range": {
          "type": "array",
          "description": "The valid range for the Property in the Resource as a number. The\\nfirst value in the array is the minimum value, the second value in\\nthe array is the maximum value.",
          "writable": false,
          "minItems": 2,
          "maxItems": 2,
          "items": {
            "type": "number"
          }
        },
        "step": {
          "description": "Step value across the defined range an integer when the range is a\\nnumber.  This is the increment for valid values across the range; so\\nif range is 0.0..10.0 and step is 2.5 then valid values are\\n0.0,2.5,5.0,7.5,10.0.",
          "writable": false,
          "type": "number"
        }
      },
      "sdfRequired": [
        "#/sdfObject/sensor.carbondioxide/sdfProperty/value"
      ]
    }
  }
}
@endjson

PlantUML version 1.2021.2(Sun Mar 07 13:10:27 EET 2021)
(GPL source distribution)
Java Runtime: OpenJDK Runtime Environment
JVM: OpenJDK 64-Bit Server VM
Default Encoding: UTF-8
Language: en
Country: FI
--></g></svg>