<?xml version="1.0" encoding="UTF-8" standalone="no"?><svg xmlns="http://www.w3.org/2000/svg" xmlns:xlink="http://www.w3.org/1999/xlink" contentScriptType="application/ecmascript" contentStyleType="text/css" height="635px" preserveAspectRatio="none" style="width:2440px;height:635px;" version="1.1" viewBox="0 0 2440 635" width="2440px" zoomAndPan="magnify"><defs/><g><rect fill="#FEFECE" height="40.9766" rx="5" ry="5" style="stroke:#FEFECE;stroke-width:1.5;" width="97" x="10" y="258"/><text fill="#000000" font-family="sans-serif" font-size="14" lengthAdjust="spacing" textLength="27" x="15" y="273.5352">info</text><text fill="#000000" font-family="sans-serif" font-size="14" lengthAdjust="spacing" textLength="0" x="102" y="273.5352"/><line style="stroke:#A80036;stroke-width:1.0;" x1="85" x2="85" y1="258" y2="278.4883"/><line style="stroke:#A80036;stroke-width:1.0;" x1="10" x2="107" y1="278.4883" y2="278.4883"/><text fill="#000000" font-family="sans-serif" font-size="14" lengthAdjust="spacing" textLength="65" x="15" y="294.0234">sdfObject</text><text fill="#000000" font-family="sans-serif" font-size="14" lengthAdjust="spacing" textLength="0" x="102" y="294.0234"/><line style="stroke:#A80036;stroke-width:1.0;" x1="85" x2="85" y1="278.4883" y2="298.9766"/><rect fill="none" height="40.9766" rx="5" ry="5" style="stroke:#A80036;stroke-width:1.5;" width="97" x="10" y="258"/><rect fill="#FEFECE" height="81.9531" rx="5" ry="5" style="stroke:#FEFECE;stroke-width:1.5;" width="614" x="144" y="202.5"/><text fill="#000000" font-family="sans-serif" font-size="14" lengthAdjust="spacing" textLength="65" x="149" y="218.0352">copyright</text><text fill="#000000" font-family="sans-serif" font-size="14" lengthAdjust="spacing" textLength="529" x="224" y="218.0352">Copyright 2016-2019 Open Connectivity Foundation, Inc. All rights reserved.</text><line style="stroke:#A80036;stroke-width:1.0;" x1="219" x2="219" y1="202.5" y2="222.9883"/><line style="stroke:#A80036;stroke-width:1.0;" x1="144" x2="758" y1="222.9883" y2="222.9883"/><text fill="#000000" font-family="sans-serif" font-size="14" lengthAdjust="spacing" textLength="47" x="149" y="238.5234">license</text><text fill="#000000" font-family="sans-serif" font-size="14" lengthAdjust="spacing" textLength="462" x="224" y="238.5234">https://github.com/one-data-model/oneDM/blob/master/LICENSE</text><line style="stroke:#A80036;stroke-width:1.0;" x1="219" x2="219" y1="222.9883" y2="243.4766"/><line style="stroke:#A80036;stroke-width:1.0;" x1="144" x2="758" y1="243.4766" y2="243.4766"/><text fill="#000000" font-family="sans-serif" font-size="14" lengthAdjust="spacing" textLength="26" x="149" y="259.0117">title</text><text fill="#000000" font-family="sans-serif" font-size="14" lengthAdjust="spacing" textLength="47" x="224" y="259.0117">Weight</text><line style="stroke:#A80036;stroke-width:1.0;" x1="219" x2="219" y1="243.4766" y2="263.9648"/><line style="stroke:#A80036;stroke-width:1.0;" x1="144" x2="758" y1="263.9648" y2="263.9648"/><text fill="#000000" font-family="sans-serif" font-size="14" lengthAdjust="spacing" textLength="50" x="149" y="279.5">version</text><text fill="#000000" font-family="sans-serif" font-size="14" lengthAdjust="spacing" textLength="88" x="224" y="279.5">2019-03-22</text><line style="stroke:#A80036;stroke-width:1.0;" x1="219" x2="219" y1="263.9648" y2="284.4531"/><rect fill="none" height="81.9531" rx="5" ry="5" style="stroke:#A80036;stroke-width:1.5;" width="614" x="144" y="202.5"/><rect fill="#FEFECE" height="20.4883" rx="5" ry="5" style="stroke:#FEFECE;stroke-width:1.5;" width="78" x="412" y="302.5"/><text fill="#000000" font-family="sans-serif" font-size="14" lengthAdjust="spacing" textLength="46" x="417" y="318.0352">weight</text><text fill="#000000" font-family="sans-serif" font-size="14" lengthAdjust="spacing" textLength="0" x="485" y="318.0352"/><line style="stroke:#A80036;stroke-width:1.0;" x1="468" x2="468" y1="302.5" y2="322.9883"/><rect fill="none" height="20.4883" rx="5" ry="5" style="stroke:#A80036;stroke-width:1.5;" width="78" x="412" y="302.5"/><rect fill="#FEFECE" height="127.418" rx="5" ry="5" style="stroke:#FEFECE;stroke-width:1.5;" width="566" x="795" y="249"/><text fill="#000000" font-family="sans-serif" font-size="14" lengthAdjust="spacing" textLength="77" x="800" y="264.5352">description</text><text fill="#000000" font-family="sans-serif" font-size="14" lengthAdjust="spacing" textLength="463" x="893" y="264.5352">This Resource describes the Properties associated with weight of an</text><text fill="#000000" font-family="sans-serif" font-size="14" lengthAdjust="spacing" textLength="429" x="893" y="281.0234">object. The unit is a single value that is one of kg, g, lb or oz. If</text><text fill="#000000" font-family="sans-serif" font-size="14" lengthAdjust="spacing" textLength="448" x="893" y="297.5117">the unit Property is missing the default is kilograms [kg]. The unit</text><text fill="#000000" font-family="sans-serif" font-size="14" lengthAdjust="spacing" textLength="446" x="893" y="314">Property is a read-only value that is provided by the server. When</text><text fill="#000000" font-family="sans-serif" font-size="14" lengthAdjust="spacing" textLength="331" x="893" y="330.4883">range is omitted the default is 0 to +MAXFLOAT.</text><line style="stroke:#A80036;stroke-width:1.0;" x1="888" x2="888" y1="249" y2="335.4414"/><line style="stroke:#A80036;stroke-width:1.0;" x1="795" x2="1361" y1="335.4414" y2="335.4414"/><text fill="#000000" font-family="sans-serif" font-size="14" lengthAdjust="spacing" textLength="79" x="800" y="350.9766">sdfProperty</text><text fill="#000000" font-family="sans-serif" font-size="14" lengthAdjust="spacing" textLength="0" x="905" y="350.9766"/><line style="stroke:#A80036;stroke-width:1.0;" x1="888" x2="888" y1="335.4414" y2="355.9297"/><line style="stroke:#A80036;stroke-width:1.0;" x1="795" x2="1361" y1="355.9297" y2="355.9297"/><text fill="#000000" font-family="sans-serif" font-size="14" lengthAdjust="spacing" textLength="83" x="800" y="371.4648">sdfRequired</text><text fill="#000000" font-family="sans-serif" font-size="14" lengthAdjust="spacing" textLength="0" x="905" y="371.4648"/><line style="stroke:#A80036;stroke-width:1.0;" x1="888" x2="888" y1="355.9297" y2="376.418"/><rect fill="none" height="127.418" rx="5" ry="5" style="stroke:#A80036;stroke-width:1.5;" width="566" x="795" y="249"/><rect fill="#FEFECE" height="102.4414" rx="5" ry="5" style="stroke:#FEFECE;stroke-width:1.5;" width="95" x="1492" y="237.5"/><text fill="#000000" font-family="sans-serif" font-size="14" lengthAdjust="spacing" textLength="46" x="1497" y="253.0352">weight</text><text fill="#000000" font-family="sans-serif" font-size="14" lengthAdjust="spacing" textLength="0" x="1582" y="253.0352"/><line style="stroke:#A80036;stroke-width:1.0;" x1="1565" x2="1565" y1="237.5" y2="257.9883"/><line style="stroke:#A80036;stroke-width:1.0;" x1="1492" x2="1587" y1="257.9883" y2="257.9883"/><text fill="#000000" font-family="sans-serif" font-size="14" lengthAdjust="spacing" textLength="34" x="1497" y="273.5234">units</text><text fill="#000000" font-family="sans-serif" font-size="14" lengthAdjust="spacing" textLength="0" x="1582" y="273.5234"/><line style="stroke:#A80036;stroke-width:1.0;" x1="1565" x2="1565" y1="257.9883" y2="278.4766"/><line style="stroke:#A80036;stroke-width:1.0;" x1="1492" x2="1587" y1="278.4766" y2="278.4766"/><text fill="#000000" font-family="sans-serif" font-size="14" lengthAdjust="spacing" textLength="40" x="1497" y="294.0117">range</text><text fill="#000000" font-family="sans-serif" font-size="14" lengthAdjust="spacing" textLength="0" x="1582" y="294.0117"/><line style="stroke:#A80036;stroke-width:1.0;" x1="1565" x2="1565" y1="278.4766" y2="298.9648"/><line style="stroke:#A80036;stroke-width:1.0;" x1="1492" x2="1587" y1="298.9648" y2="298.9648"/><text fill="#000000" font-family="sans-serif" font-size="14" lengthAdjust="spacing" textLength="29" x="1497" y="314.5">step</text><text fill="#000000" font-family="sans-serif" font-size="14" lengthAdjust="spacing" textLength="0" x="1582" y="314.5"/><line style="stroke:#A80036;stroke-width:1.0;" x1="1565" x2="1565" y1="298.9648" y2="319.4531"/><line style="stroke:#A80036;stroke-width:1.0;" x1="1492" x2="1587" y1="319.4531" y2="319.4531"/><text fill="#000000" font-family="sans-serif" font-size="14" lengthAdjust="spacing" textLength="63" x="1497" y="334.9883">precision</text><text fill="#000000" font-family="sans-serif" font-size="14" lengthAdjust="spacing" textLength="0" x="1582" y="334.9883"/><line style="stroke:#A80036;stroke-width:1.0;" x1="1565" x2="1565" y1="319.4531" y2="339.9414"/><rect fill="none" height="102.4414" rx="5" ry="5" style="stroke:#A80036;stroke-width:1.5;" width="95" x="1492" y="237.5"/><rect fill="#FEFECE" height="61.4648" rx="5" ry="5" style="stroke:#FEFECE;stroke-width:1.5;" width="229" x="1888.5" y="10"/><text fill="#000000" font-family="sans-serif" font-size="14" lengthAdjust="spacing" textLength="77" x="1893.5" y="25.5352">description</text><text fill="#000000" font-family="sans-serif" font-size="14" lengthAdjust="spacing" textLength="132" x="1980.5" y="25.5352">Weight of an object</text><line style="stroke:#A80036;stroke-width:1.0;" x1="1975.5" x2="1975.5" y1="10" y2="30.4883"/><line style="stroke:#A80036;stroke-width:1.0;" x1="1888.5" x2="2117.5" y1="30.4883" y2="30.4883"/><text fill="#000000" font-family="sans-serif" font-size="14" lengthAdjust="spacing" textLength="65" x="1893.5" y="46.0234">minimum</text><text fill="#000000" font-family="sans-serif" font-size="14" lengthAdjust="spacing" textLength="9" x="1980.5" y="46.0234">0</text><line style="stroke:#A80036;stroke-width:1.0;" x1="1975.5" x2="1975.5" y1="30.4883" y2="50.9766"/><line style="stroke:#A80036;stroke-width:1.0;" x1="1888.5" x2="2117.5" y1="50.9766" y2="50.9766"/><text fill="#000000" font-family="sans-serif" font-size="14" lengthAdjust="spacing" textLength="29" x="1893.5" y="66.5117">type</text><text fill="#000000" font-family="sans-serif" font-size="14" lengthAdjust="spacing" textLength="54" x="1980.5" y="66.5117">number</text><line style="stroke:#A80036;stroke-width:1.0;" x1="1975.5" x2="1975.5" y1="50.9766" y2="71.4648"/><rect fill="none" height="61.4648" rx="5" ry="5" style="stroke:#A80036;stroke-width:1.5;" width="229" x="1888.5" y="10"/><rect fill="#FEFECE" height="102.4414" rx="5" ry="5" style="stroke:#FEFECE;stroke-width:1.5;" width="175" x="1915.5" y="89.5"/><text fill="#000000" font-family="sans-serif" font-size="14" lengthAdjust="spacing" textLength="77" x="1920.5" y="105.0352">description</text><text fill="#000000" font-family="sans-serif" font-size="14" lengthAdjust="spacing" textLength="78" x="2007.5" y="105.0352">Weight unit</text><line style="stroke:#A80036;stroke-width:1.0;" x1="2002.5" x2="2002.5" y1="89.5" y2="109.9883"/><line style="stroke:#A80036;stroke-width:1.0;" x1="1915.5" x2="2090.5" y1="109.9883" y2="109.9883"/><text fill="#000000" font-family="sans-serif" font-size="14" lengthAdjust="spacing" textLength="39" x="1920.5" y="125.5234">enum</text><text fill="#000000" font-family="sans-serif" font-size="14" lengthAdjust="spacing" textLength="0" x="2019.5" y="125.5234"/><line style="stroke:#A80036;stroke-width:1.0;" x1="2002.5" x2="2002.5" y1="109.9883" y2="130.4766"/><line style="stroke:#A80036;stroke-width:1.0;" x1="1915.5" x2="2090.5" y1="130.4766" y2="130.4766"/><text fill="#000000" font-family="sans-serif" font-size="14" lengthAdjust="spacing" textLength="55" x="1920.5" y="146.0117">writable</text><text fill="#000000" font-family="sans-serif" font-size="14" lengthAdjust="spacing" textLength="48" x="2007.5" y="146.0117">☐ false</text><line style="stroke:#A80036;stroke-width:1.0;" x1="2002.5" x2="2002.5" y1="130.4766" y2="150.9648"/><line style="stroke:#A80036;stroke-width:1.0;" x1="1915.5" x2="2090.5" y1="150.9648" y2="150.9648"/><text fill="#000000" font-family="sans-serif" font-size="14" lengthAdjust="spacing" textLength="29" x="1920.5" y="166.5">type</text><text fill="#000000" font-family="sans-serif" font-size="14" lengthAdjust="spacing" textLength="40" x="2007.5" y="166.5">string</text><line style="stroke:#A80036;stroke-width:1.0;" x1="2002.5" x2="2002.5" y1="150.9648" y2="171.4531"/><line style="stroke:#A80036;stroke-width:1.0;" x1="1915.5" x2="2090.5" y1="171.4531" y2="171.4531"/><text fill="#000000" font-family="sans-serif" font-size="14" lengthAdjust="spacing" textLength="48" x="1920.5" y="186.9883">default</text><text fill="#000000" font-family="sans-serif" font-size="14" lengthAdjust="spacing" textLength="17" x="2007.5" y="186.9883">kg</text><line style="stroke:#A80036;stroke-width:1.0;" x1="2002.5" x2="2002.5" y1="171.4531" y2="191.9414"/><rect fill="none" height="102.4414" rx="5" ry="5" style="stroke:#A80036;stroke-width:1.5;" width="175" x="1915.5" y="89.5"/><rect fill="#FEFECE" height="81.9531" rx="5" ry="5" style="stroke:#FEFECE;stroke-width:1.5;" width="27" x="2363" y="78.5"/><text fill="#000000" font-family="sans-serif" font-size="14" lengthAdjust="spacing" textLength="17" x="2368" y="94.0352">kg</text><line style="stroke:#A80036;stroke-width:1.0;" x1="2363" x2="2390" y1="98.9883" y2="98.9883"/><text fill="#000000" font-family="sans-serif" font-size="14" lengthAdjust="spacing" textLength="9" x="2368" y="114.5234">g</text><line style="stroke:#A80036;stroke-width:1.0;" x1="2363" x2="2390" y1="119.4766" y2="119.4766"/><text fill="#000000" font-family="sans-serif" font-size="14" lengthAdjust="spacing" textLength="13" x="2368" y="135.0117">lb</text><line style="stroke:#A80036;stroke-width:1.0;" x1="2363" x2="2390" y1="139.9648" y2="139.9648"/><text fill="#000000" font-family="sans-serif" font-size="14" lengthAdjust="spacing" textLength="17" x="2368" y="155.5">oz</text><rect fill="none" height="81.9531" rx="5" ry="5" style="stroke:#A80036;stroke-width:1.5;" width="27" x="2363" y="78.5"/><rect fill="#FEFECE" height="155.9063" rx="5" ry="5" style="stroke:#FEFECE;stroke-width:1.5;" width="548" x="1729" y="209.5"/><text fill="#000000" font-family="sans-serif" font-size="14" lengthAdjust="spacing" textLength="29" x="1734" y="225.0352">type</text><text fill="#000000" font-family="sans-serif" font-size="14" lengthAdjust="spacing" textLength="35" x="1821" y="225.0352">array</text><line style="stroke:#A80036;stroke-width:1.0;" x1="1816" x2="1816" y1="209.5" y2="229.9883"/><line style="stroke:#A80036;stroke-width:1.0;" x1="1729" x2="2277" y1="229.9883" y2="229.9883"/><text fill="#000000" font-family="sans-serif" font-size="14" lengthAdjust="spacing" textLength="77" x="1734" y="245.5234">description</text><text fill="#000000" font-family="sans-serif" font-size="14" lengthAdjust="spacing" textLength="451" x="1821" y="245.5234">The valid range for the Property in the Resource as a number. The</text><text fill="#000000" font-family="sans-serif" font-size="14" lengthAdjust="spacing" textLength="439" x="1821" y="262.0117">first value in the array is the minimum value, the second value in</text><text fill="#000000" font-family="sans-serif" font-size="14" lengthAdjust="spacing" textLength="219" x="1821" y="278.5">the array is the maximum value.</text><line style="stroke:#A80036;stroke-width:1.0;" x1="1816" x2="1816" y1="229.9883" y2="283.4531"/><line style="stroke:#A80036;stroke-width:1.0;" x1="1729" x2="2277" y1="283.4531" y2="283.4531"/><text fill="#000000" font-family="sans-serif" font-size="14" lengthAdjust="spacing" textLength="55" x="1734" y="298.9883">writable</text><text fill="#000000" font-family="sans-serif" font-size="14" lengthAdjust="spacing" textLength="48" x="1821" y="298.9883">☐ false</text><line style="stroke:#A80036;stroke-width:1.0;" x1="1816" x2="1816" y1="283.4531" y2="303.9414"/><line style="stroke:#A80036;stroke-width:1.0;" x1="1729" x2="2277" y1="303.9414" y2="303.9414"/><text fill="#000000" font-family="sans-serif" font-size="14" lengthAdjust="spacing" textLength="63" x="1734" y="319.4766">minItems</text><text fill="#000000" font-family="sans-serif" font-size="14" lengthAdjust="spacing" textLength="9" x="1821" y="319.4766">2</text><line style="stroke:#A80036;stroke-width:1.0;" x1="1816" x2="1816" y1="303.9414" y2="324.4297"/><line style="stroke:#A80036;stroke-width:1.0;" x1="1729" x2="2277" y1="324.4297" y2="324.4297"/><text fill="#000000" font-family="sans-serif" font-size="14" lengthAdjust="spacing" textLength="67" x="1734" y="339.9648">maxItems</text><text fill="#000000" font-family="sans-serif" font-size="14" lengthAdjust="spacing" textLength="9" x="1821" y="339.9648">2</text><line style="stroke:#A80036;stroke-width:1.0;" x1="1816" x2="1816" y1="324.4297" y2="344.918"/><line style="stroke:#A80036;stroke-width:1.0;" x1="1729" x2="2277" y1="344.918" y2="344.918"/><text fill="#000000" font-family="sans-serif" font-size="14" lengthAdjust="spacing" textLength="37" x="1734" y="360.4531">items</text><text fill="#000000" font-family="sans-serif" font-size="14" lengthAdjust="spacing" textLength="0" x="1833" y="360.4531"/><line style="stroke:#A80036;stroke-width:1.0;" x1="1816" x2="1816" y1="344.918" y2="365.4063"/><rect fill="none" height="155.9063" rx="5" ry="5" style="stroke:#A80036;stroke-width:1.5;" width="548" x="1729" y="209.5"/><rect fill="#FEFECE" height="20.4883" rx="5" ry="5" style="stroke:#FEFECE;stroke-width:1.5;" width="103" x="2325" y="342.5"/><text fill="#000000" font-family="sans-serif" font-size="14" lengthAdjust="spacing" textLength="29" x="2330" y="358.0352">type</text><text fill="#000000" font-family="sans-serif" font-size="14" lengthAdjust="spacing" textLength="54" x="2369" y="358.0352">number</text><line style="stroke:#A80036;stroke-width:1.0;" x1="2364" x2="2364" y1="342.5" y2="362.9883"/><rect fill="none" height="20.4883" rx="5" ry="5" style="stroke:#A80036;stroke-width:1.5;" width="103" x="2325" y="342.5"/><rect fill="#FEFECE" height="110.9297" rx="5" ry="5" style="stroke:#FEFECE;stroke-width:1.5;" width="555" x="1725.5" y="384"/><text fill="#000000" font-family="sans-serif" font-size="14" lengthAdjust="spacing" textLength="77" x="1730.5" y="399.5352">description</text><text fill="#000000" font-family="sans-serif" font-size="14" lengthAdjust="spacing" textLength="456" x="1817.5" y="399.5352">Step value across the defined range an integer when the range is a</text><text fill="#000000" font-family="sans-serif" font-size="14" lengthAdjust="spacing" textLength="458" x="1817.5" y="416.0234">number.  This is the increment for valid values across the range; so</text><text fill="#000000" font-family="sans-serif" font-size="14" lengthAdjust="spacing" textLength="381" x="1817.5" y="432.5117">if range is 0.0..10.0 and step is 2.5 then valid values are</text><text fill="#000000" font-family="sans-serif" font-size="14" lengthAdjust="spacing" textLength="139" x="1817.5" y="449">0.0,2.5,5.0,7.5,10.0.</text><line style="stroke:#A80036;stroke-width:1.0;" x1="1812.5" x2="1812.5" y1="384" y2="453.9531"/><line style="stroke:#A80036;stroke-width:1.0;" x1="1725.5" x2="2280.5" y1="453.9531" y2="453.9531"/><text fill="#000000" font-family="sans-serif" font-size="14" lengthAdjust="spacing" textLength="55" x="1730.5" y="469.4883">writable</text><text fill="#000000" font-family="sans-serif" font-size="14" lengthAdjust="spacing" textLength="48" x="1817.5" y="469.4883">☐ false</text><line style="stroke:#A80036;stroke-width:1.0;" x1="1812.5" x2="1812.5" y1="453.9531" y2="474.4414"/><line style="stroke:#A80036;stroke-width:1.0;" x1="1725.5" x2="2280.5" y1="474.4414" y2="474.4414"/><text fill="#000000" font-family="sans-serif" font-size="14" lengthAdjust="spacing" textLength="29" x="1730.5" y="489.9766">type</text><text fill="#000000" font-family="sans-serif" font-size="14" lengthAdjust="spacing" textLength="54" x="1817.5" y="489.9766">number</text><line style="stroke:#A80036;stroke-width:1.0;" x1="1812.5" x2="1812.5" y1="474.4414" y2="494.9297"/><rect fill="none" height="110.9297" rx="5" ry="5" style="stroke:#A80036;stroke-width:1.5;" width="555" x="1725.5" y="384"/><rect fill="#FEFECE" height="110.9297" rx="5" ry="5" style="stroke:#FEFECE;stroke-width:1.5;" width="570" x="1718" y="513"/><text fill="#000000" font-family="sans-serif" font-size="14" lengthAdjust="spacing" textLength="29" x="1723" y="528.5352">type</text><text fill="#000000" font-family="sans-serif" font-size="14" lengthAdjust="spacing" textLength="54" x="1810" y="528.5352">number</text><line style="stroke:#A80036;stroke-width:1.0;" x1="1805" x2="1805" y1="513" y2="533.4883"/><line style="stroke:#A80036;stroke-width:1.0;" x1="1718" x2="2288" y1="533.4883" y2="533.4883"/><text fill="#000000" font-family="sans-serif" font-size="14" lengthAdjust="spacing" textLength="55" x="1723" y="549.0234">writable</text><text fill="#000000" font-family="sans-serif" font-size="14" lengthAdjust="spacing" textLength="48" x="1810" y="549.0234">☐ false</text><line style="stroke:#A80036;stroke-width:1.0;" x1="1805" x2="1805" y1="533.4883" y2="553.9766"/><line style="stroke:#A80036;stroke-width:1.0;" x1="1718" x2="2288" y1="553.9766" y2="553.9766"/><text fill="#000000" font-family="sans-serif" font-size="14" lengthAdjust="spacing" textLength="77" x="1723" y="569.5117">description</text><text fill="#000000" font-family="sans-serif" font-size="14" lengthAdjust="spacing" textLength="430" x="1810" y="569.5117">When exposed the value in 'precision' provides a +/- tolerance</text><text fill="#000000" font-family="sans-serif" font-size="14" lengthAdjust="spacing" textLength="473" x="1810" y="586">against the Properties in the Resource. Thus if a Property is UPDATED</text><text fill="#000000" font-family="sans-serif" font-size="14" lengthAdjust="spacing" textLength="465" x="1810" y="602.4883">to a value and that Property then RETRIEVED, the RETRIEVED value is</text><text fill="#000000" font-family="sans-serif" font-size="14" lengthAdjust="spacing" textLength="337" x="1810" y="618.9766">valid if in the range of the set value +/- precision</text><line style="stroke:#A80036;stroke-width:1.0;" x1="1805" x2="1805" y1="553.9766" y2="623.9297"/><rect fill="none" height="110.9297" rx="5" ry="5" style="stroke:#A80036;stroke-width:1.5;" width="570" x="1718" y="513"/><rect fill="#FEFECE" height="40.9766" rx="5" ry="5" style="stroke:#FEFECE;stroke-width:1.5;" width="283" x="1398" y="358"/><text fill="#000000" font-family="sans-serif" font-size="14" lengthAdjust="spacing" textLength="273" x="1403" y="373.5352">#/sdfObject/weight/sdfProperty/weight</text><line style="stroke:#A80036;stroke-width:1.0;" x1="1398" x2="1681" y1="378.4883" y2="378.4883"/><text fill="#000000" font-family="sans-serif" font-size="14" lengthAdjust="spacing" textLength="261" x="1403" y="394.0234">#/sdfObject/weight/sdfProperty/units</text><rect fill="none" height="40.9766" rx="5" ry="5" style="stroke:#A80036;stroke-width:1.5;" width="283" x="1398" y="358"/><path d="M95,267.5 L108,267.5 C117.4068,267.5 126.9554,267.4088 136.5926,267.2376 " fill="none" style="stroke:#A80036;stroke-width:1.0;stroke-dasharray:3.0,3.0;"/><path d="M136.6543,270.3363 L138.9166,267.1914 L136.5309,264.1389 L144.3394,267.0834 L136.6543,270.3363 " fill="#A80036" style="stroke:#A80036;stroke-width:1.0;"/><ellipse cx="95" cy="267.5" fill="#A80036" rx="3" ry="3" style="stroke:#A80036;stroke-width:1.0;stroke-dasharray:3.0,3.0;"/><path d="M1576,247.5 L1589,247.5 C1682.7873,247.5 1636.9086,127.6193 1718,80.5 C1766.709,52.1969 1827.8161,41.082 1880.9002,37.4979 " fill="none" style="stroke:#A80036;stroke-width:1.0;stroke-dasharray:3.0,3.0;"/><path d="M1881.0903,40.6065 L1883.2316,37.3553 L1880.71,34.3893 L1888.6716,37.0226 L1881.0903,40.6065 " fill="#A80036" style="stroke:#A80036;stroke-width:1.0;"/><ellipse cx="1576" cy="247.5" fill="#A80036" rx="3" ry="3" style="stroke:#A80036;stroke-width:1.0;stroke-dasharray:3.0,3.0;"/><path d="M2079.5,119.5 L2092.5,119.5 C2191.1658,119.5 2309.147,119.5 2355.6928,119.5 " fill="none" style="stroke:#A80036;stroke-width:1.0;stroke-dasharray:3.0,3.0;"/><path d="M2355.6928,122.5367 L2357.9703,119.5 L2355.6928,116.4633 L2363.2846,119.5 L2355.6928,122.5367 " fill="#A80036" style="stroke:#A80036;stroke-width:1.0;"/><ellipse cx="2079.5" cy="119.5" fill="#A80036" rx="3" ry="3" style="stroke:#A80036;stroke-width:1.0;stroke-dasharray:3.0,3.0;"/><path d="M1576,267.5 L1589,267.5 C1653.6052,267.5 1657.1677,222.2544 1718,200.5 C1779.7508,178.4171 1852.0973,163.2952 1908.3816,153.7563 " fill="none" style="stroke:#A80036;stroke-width:1.0;stroke-dasharray:3.0,3.0;"/><path d="M1908.8821,156.749 L1910.6261,153.381 L1907.8812,150.7637 L1915.8632,152.5051 L1908.8821,156.749 " fill="#A80036" style="stroke:#A80036;stroke-width:1.0;"/><ellipse cx="1576" cy="267.5" fill="#A80036" rx="3" ry="3" style="stroke:#A80036;stroke-width:1.0;stroke-dasharray:3.0,3.0;"/><path d="M2265.5,352.5 L2278.5,352.5 C2291.235,352.5 2304.9056,352.5 2317.8621,352.5 " fill="none" style="stroke:#A80036;stroke-width:1.0;stroke-dasharray:3.0,3.0;"/><path d="M2317.8621,355.5134 L2320.1221,352.5 L2317.8621,349.4866 L2325.3956,352.5 L2317.8621,355.5134 " fill="#A80036" style="stroke:#A80036;stroke-width:1.0;"/><ellipse cx="2265.5" cy="352.5" fill="#A80036" rx="3" ry="3" style="stroke:#A80036;stroke-width:1.0;stroke-dasharray:3.0,3.0;"/><path d="M1576,287.5 L1589,287.5 C1631.9229,287.5 1677.352,287.5 1721.7753,287.5 " fill="none" style="stroke:#A80036;stroke-width:1.0;stroke-dasharray:3.0,3.0;"/><path d="M1721.7753,290.5796 L1724.085,287.5 L1721.7753,284.4204 L1729.4743,287.5 L1721.7753,290.5796 " fill="#A80036" style="stroke:#A80036;stroke-width:1.0;"/><ellipse cx="1576" cy="287.5" fill="#A80036" rx="3" ry="3" style="stroke:#A80036;stroke-width:1.0;stroke-dasharray:3.0,3.0;"/><path d="M1576,308.5 L1589,308.5 C1634.1718,308.5 1642.601,327.4045 1682,349.5 C1698.9902,359.0283 1700.1802,366.6317 1718,374.5 C1723.0983,376.7511 1728.2837,378.9288 1733.5394,381.0352 " fill="none" style="stroke:#A80036;stroke-width:1.0;stroke-dasharray:3.0,3.0;"/><path d="M1732.408,383.9187 L1735.702,381.8837 L1734.6707,378.1517 L1740.7482,383.8636 L1732.408,383.9187 " fill="#A80036" style="stroke:#A80036;stroke-width:1.0;"/><ellipse cx="1576" cy="308.5" fill="#A80036" rx="3" ry="3" style="stroke:#A80036;stroke-width:1.0;stroke-dasharray:3.0,3.0;"/><path d="M1576,329.5 L1589,329.5 C1631.2783,329.5 1651.8608,319.8506 1682,349.5 C1732.4164,399.097 1667.8184,454.6654 1718,504.5 C1719.1114,505.6037 1720.2374,506.69 1721.3776,507.7593 " fill="none" style="stroke:#A80036;stroke-width:1.0;stroke-dasharray:3.0,3.0;"/><path d="M1719.2955,510.086 L1723.1226,509.3209 L1723.4597,505.4326 L1727.1944,512.9645 L1719.2955,510.086 " fill="#A80036" style="stroke:#A80036;stroke-width:1.0;"/><ellipse cx="1576" cy="329.5" fill="#A80036" rx="3" ry="3" style="stroke:#A80036;stroke-width:1.0;stroke-dasharray:3.0,3.0;"/><path d="M1349,311.5 L1362,311.5 C1403.3405,311.5 1449.6628,305.2537 1484.5473,299.2713 " fill="none" style="stroke:#A80036;stroke-width:1.0;stroke-dasharray:3.0,3.0;"/><path d="M1485.0873,302.356 L1486.8608,298.8663 L1484.0074,296.1867 L1492.2589,297.9213 L1485.0873,302.356 " fill="#A80036" style="stroke:#A80036;stroke-width:1.0;"/><ellipse cx="1349" cy="311.5" fill="#A80036" rx="3" ry="3" style="stroke:#A80036;stroke-width:1.0;stroke-dasharray:3.0,3.0;"/><path d="M1349,354.5 L1362,354.5 C1378.5385,354.5 1395.868,355.5416 1412.9412,357.1909 " fill="none" style="stroke:#A80036;stroke-width:1.0;stroke-dasharray:3.0,3.0;"/><path d="M1412.6216,360.3199 L1415.288,357.4305 L1413.2608,354.0618 L1420.7638,357.9898 L1412.6216,360.3199 " fill="#A80036" style="stroke:#A80036;stroke-width:1.0;"/><ellipse cx="1349" cy="354.5" fill="#A80036" rx="3" ry="3" style="stroke:#A80036;stroke-width:1.0;stroke-dasharray:3.0,3.0;"/><path d="M478.5,312.5 L491.5,312.5 C587.9535,312.5 693.3371,312.5 787.8076,312.5 " fill="none" style="stroke:#A80036;stroke-width:1.0;stroke-dasharray:3.0,3.0;"/><path d="M787.8076,315.5603 L790.1028,312.5 L787.8076,309.4397 L795.4583,312.5 L787.8076,315.5603 " fill="#A80036" style="stroke:#A80036;stroke-width:1.0;"/><ellipse cx="478.5" cy="312.5" fill="#A80036" rx="3" ry="3" style="stroke:#A80036;stroke-width:1.0;stroke-dasharray:3.0,3.0;"/><path d="M95,288.5 L108,288.5 C124.1536,288.5 127.927,291.888 144,293.5 C236.1447,302.7414 344.3547,308.1893 404.4064,310.7369 " fill="none" style="stroke:#A80036;stroke-width:1.0;stroke-dasharray:3.0,3.0;"/><path d="M404.2761,313.8535 L406.7438,310.8346 L404.5366,307.6203 L412.1979,311.0626 L404.2761,313.8535 " fill="#A80036" style="stroke:#A80036;stroke-width:1.0;"/><ellipse cx="95" cy="288.5" fill="#A80036" rx="3" ry="3" style="stroke:#A80036;stroke-width:1.0;stroke-dasharray:3.0,3.0;"/><!--MD5=[59b52e3e1feab024648c00df41fc905a]
@startjson
{
  "info": {
    "copyright": "Copyright 2016-2019 Open Connectivity Foundation, Inc. All rights reserved.",
    "license": "https://github.com/one-data-model/oneDM/blob/master/LICENSE",
    "title": "Weight",
    "version": "2019-03-22"
  },
  "sdfObject": {
    "weight": {
      "description": "This Resource describes the Properties associated with weight of an\\nobject. The unit is a single value that is one of kg, g, lb or oz. If\\nthe unit Property is missing the default is kilograms [kg]. The unit\\nProperty is a read-only value that is provided by the server. When\\nrange is omitted the default is 0 to +MAXFLOAT.",
      "sdfProperty": {
        "weight": {
          "description": "Weight of an object",
          "minimum": 0,
          "type": "number"
        },
        "units": {
          "description": "Weight unit",
          "enum": [
            "kg",
            "g",
            "lb",
            "oz"
          ],
          "writable": false,
          "type": "string",
          "default": "kg"
        },
        "range": {
          "type": "array",
          "description": "The valid range for the Property in the Resource as a number. The\\nfirst value in the array is the minimum value, the second value in\\nthe array is the maximum value.",
          "writable": false,
          "minItems": 2,
          "maxItems": 2,
          "items": {
            "type": "number"
          }
        },
        "step": {
          "description": "Step value across the defined range an integer when the range is a\\nnumber.  This is the increment for valid values across the range; so\\nif range is 0.0..10.0 and step is 2.5 then valid values are\\n0.0,2.5,5.0,7.5,10.0.",
          "writable": false,
          "type": "number"
        },
        "precision": {
          "type": "number",
          "writable": false,
          "description": "When exposed the value in 'precision' provides a +/- tolerance\\nagainst the Properties in the Resource. Thus if a Property is UPDATED\\nto a value and that Property then RETRIEVED, the RETRIEVED value is\\nvalid if in the range of the set value +/- precision"
        }
      },
      "sdfRequired": [
        "#/sdfObject/weight/sdfProperty/weight",
        "#/sdfObject/weight/sdfProperty/units"
      ]
    }
  }
}
@endjson

PlantUML version 1.2021.2(Sun Mar 07 13:10:27 EET 2021)
(GPL source distribution)
Java Runtime: OpenJDK Runtime Environment
JVM: OpenJDK 64-Bit Server VM
Default Encoding: UTF-8
Language: en
Country: FI
--></g></svg>