<?xml version="1.0" encoding="UTF-8" standalone="no"?><svg xmlns="http://www.w3.org/2000/svg" xmlns:xlink="http://www.w3.org/1999/xlink" contentScriptType="application/ecmascript" contentStyleType="text/css" height="241px" preserveAspectRatio="none" style="width:2624px;height:241px;" version="1.1" viewBox="0 0 2624 241" width="2624px" zoomAndPan="magnify"><defs/><g><rect fill="#FEFECE" height="40.9766" rx="5" ry="5" style="stroke:#FEFECE;stroke-width:1.5;" width="97" x="10" y="95.5"/><text fill="#000000" font-family="sans-serif" font-size="14" lengthAdjust="spacing" textLength="27" x="15" y="111.0352">info</text><text fill="#000000" font-family="sans-serif" font-size="14" lengthAdjust="spacing" textLength="0" x="102" y="111.0352"/><line style="stroke:#A80036;stroke-width:1.0;" x1="85" x2="85" y1="95.5" y2="115.9883"/><line style="stroke:#A80036;stroke-width:1.0;" x1="10" x2="107" y1="115.9883" y2="115.9883"/><text fill="#000000" font-family="sans-serif" font-size="14" lengthAdjust="spacing" textLength="65" x="15" y="131.5234">sdfObject</text><text fill="#000000" font-family="sans-serif" font-size="14" lengthAdjust="spacing" textLength="0" x="102" y="131.5234"/><line style="stroke:#A80036;stroke-width:1.0;" x1="85" x2="85" y1="115.9883" y2="136.4766"/><rect fill="none" height="40.9766" rx="5" ry="5" style="stroke:#A80036;stroke-width:1.5;" width="97" x="10" y="95.5"/><rect fill="#FEFECE" height="81.9531" rx="5" ry="5" style="stroke:#FEFECE;stroke-width:1.5;" width="655" x="144" y="40"/><text fill="#000000" font-family="sans-serif" font-size="14" lengthAdjust="spacing" textLength="65" x="149" y="55.5352">copyright</text><text fill="#000000" font-family="sans-serif" font-size="14" lengthAdjust="spacing" textLength="570" x="224" y="55.5352">copyright 2016-2017, 2019 Open Connectivity Foundation, Inc. All rights reserved.</text><line style="stroke:#A80036;stroke-width:1.0;" x1="219" x2="219" y1="40" y2="60.4883"/><line style="stroke:#A80036;stroke-width:1.0;" x1="144" x2="799" y1="60.4883" y2="60.4883"/><text fill="#000000" font-family="sans-serif" font-size="14" lengthAdjust="spacing" textLength="47" x="149" y="76.0234">license</text><text fill="#000000" font-family="sans-serif" font-size="14" lengthAdjust="spacing" textLength="462" x="224" y="76.0234">https://github.com/one-data-model/oneDM/blob/master/LICENSE</text><line style="stroke:#A80036;stroke-width:1.0;" x1="219" x2="219" y1="60.4883" y2="80.9766"/><line style="stroke:#A80036;stroke-width:1.0;" x1="144" x2="799" y1="80.9766" y2="80.9766"/><text fill="#000000" font-family="sans-serif" font-size="14" lengthAdjust="spacing" textLength="26" x="149" y="96.5117">title</text><text fill="#000000" font-family="sans-serif" font-size="14" lengthAdjust="spacing" textLength="71" x="224" y="96.5117">Movement</text><line style="stroke:#A80036;stroke-width:1.0;" x1="219" x2="219" y1="80.9766" y2="101.4648"/><line style="stroke:#A80036;stroke-width:1.0;" x1="144" x2="799" y1="101.4648" y2="101.4648"/><text fill="#000000" font-family="sans-serif" font-size="14" lengthAdjust="spacing" textLength="50" x="149" y="117">version</text><text fill="#000000" font-family="sans-serif" font-size="14" lengthAdjust="spacing" textLength="88" x="224" y="117">2019-02-15</text><line style="stroke:#A80036;stroke-width:1.0;" x1="219" x2="219" y1="101.4648" y2="121.9531"/><rect fill="none" height="81.9531" rx="5" ry="5" style="stroke:#A80036;stroke-width:1.5;" width="655" x="144" y="40"/><rect fill="#FEFECE" height="20.4883" rx="5" ry="5" style="stroke:#FEFECE;stroke-width:1.5;" width="147" x="398" y="140"/><text fill="#000000" font-family="sans-serif" font-size="14" lengthAdjust="spacing" textLength="115" x="403" y="155.5352">movement.linear</text><text fill="#000000" font-family="sans-serif" font-size="14" lengthAdjust="spacing" textLength="0" x="540" y="155.5352"/><line style="stroke:#A80036;stroke-width:1.0;" x1="523" x2="523" y1="140" y2="160.4883"/><rect fill="none" height="20.4883" rx="5" ry="5" style="stroke:#A80036;stroke-width:1.5;" width="147" x="398" y="140"/><rect fill="#FEFECE" height="143.9063" rx="5" ry="5" style="stroke:#FEFECE;stroke-width:1.5;" width="576" x="836" y="78"/><text fill="#000000" font-family="sans-serif" font-size="14" lengthAdjust="spacing" textLength="77" x="841" y="93.5352">description</text><text fill="#000000" font-family="sans-serif" font-size="14" lengthAdjust="spacing" textLength="374" x="934" y="93.5352">This Resource specifies linear movement. The Property</text><text fill="#000000" font-family="sans-serif" font-size="14" lengthAdjust="spacing" textLength="419" x="934" y="110.0234">"movementSettings" is an array of strings containing possible</text><text fill="#000000" font-family="sans-serif" font-size="14" lengthAdjust="spacing" textLength="400" x="934" y="126.5117">movement values (e. g. spin, stop, left, right). The Property</text><text fill="#000000" font-family="sans-serif" font-size="14" lengthAdjust="spacing" textLength="460" x="934" y="143">"movement" is the currently selected movement value. The Property</text><text fill="#000000" font-family="sans-serif" font-size="14" lengthAdjust="spacing" textLength="473" x="934" y="159.4883">"movementModifier" is a modifier to the movement value (e. g. "spin",</text><text fill="#000000" font-family="sans-serif" font-size="14" lengthAdjust="spacing" textLength="33" x="934" y="175.9766">"90")</text><line style="stroke:#A80036;stroke-width:1.0;" x1="929" x2="929" y1="78" y2="180.9297"/><line style="stroke:#A80036;stroke-width:1.0;" x1="836" x2="1412" y1="180.9297" y2="180.9297"/><text fill="#000000" font-family="sans-serif" font-size="14" lengthAdjust="spacing" textLength="79" x="841" y="196.4648">sdfProperty</text><text fill="#000000" font-family="sans-serif" font-size="14" lengthAdjust="spacing" textLength="0" x="946" y="196.4648"/><line style="stroke:#A80036;stroke-width:1.0;" x1="929" x2="929" y1="180.9297" y2="201.418"/><line style="stroke:#A80036;stroke-width:1.0;" x1="836" x2="1412" y1="201.418" y2="201.418"/><text fill="#000000" font-family="sans-serif" font-size="14" lengthAdjust="spacing" textLength="83" x="841" y="216.9531">sdfRequired</text><text fill="#000000" font-family="sans-serif" font-size="14" lengthAdjust="spacing" textLength="0" x="946" y="216.9531"/><line style="stroke:#A80036;stroke-width:1.0;" x1="929" x2="929" y1="201.418" y2="221.9063"/><rect fill="none" height="143.9063" rx="5" ry="5" style="stroke:#A80036;stroke-width:1.5;" width="576" x="836" y="78"/><rect fill="#FEFECE" height="61.4648" rx="5" ry="5" style="stroke:#FEFECE;stroke-width:1.5;" width="161" x="1585" y="109.5"/><text fill="#000000" font-family="sans-serif" font-size="14" lengthAdjust="spacing" textLength="127" x="1590" y="125.0352">movementSettings</text><text fill="#000000" font-family="sans-serif" font-size="14" lengthAdjust="spacing" textLength="0" x="1741" y="125.0352"/><line style="stroke:#A80036;stroke-width:1.0;" x1="1724" x2="1724" y1="109.5" y2="129.9883"/><line style="stroke:#A80036;stroke-width:1.0;" x1="1585" x2="1746" y1="129.9883" y2="129.9883"/><text fill="#000000" font-family="sans-serif" font-size="14" lengthAdjust="spacing" textLength="129" x="1590" y="145.5234">movementModifier</text><text fill="#000000" font-family="sans-serif" font-size="14" lengthAdjust="spacing" textLength="0" x="1741" y="145.5234"/><line style="stroke:#A80036;stroke-width:1.0;" x1="1724" x2="1724" y1="129.9883" y2="150.4766"/><line style="stroke:#A80036;stroke-width:1.0;" x1="1585" x2="1746" y1="150.4766" y2="150.4766"/><text fill="#000000" font-family="sans-serif" font-size="14" lengthAdjust="spacing" textLength="72" x="1590" y="166.0117">movement</text><text fill="#000000" font-family="sans-serif" font-size="14" lengthAdjust="spacing" textLength="0" x="1741" y="166.0117"/><line style="stroke:#A80036;stroke-width:1.0;" x1="1724" x2="1724" y1="150.4766" y2="170.9648"/><rect fill="none" height="61.4648" rx="5" ry="5" style="stroke:#A80036;stroke-width:1.5;" width="161" x="1585" y="109.5"/><rect fill="#FEFECE" height="81.9531" rx="5" ry="5" style="stroke:#FEFECE;stroke-width:1.5;" width="368" x="2018.5" y="10"/><text fill="#000000" font-family="sans-serif" font-size="14" lengthAdjust="spacing" textLength="77" x="2023.5" y="25.5352">description</text><text fill="#000000" font-family="sans-serif" font-size="14" lengthAdjust="spacing" textLength="271" x="2110.5" y="25.5352">The array of possible movement values.</text><line style="stroke:#A80036;stroke-width:1.0;" x1="2105.5" x2="2105.5" y1="10" y2="30.4883"/><line style="stroke:#A80036;stroke-width:1.0;" x1="2018.5" x2="2386.5" y1="30.4883" y2="30.4883"/><text fill="#000000" font-family="sans-serif" font-size="14" lengthAdjust="spacing" textLength="37" x="2023.5" y="46.0234">items</text><text fill="#000000" font-family="sans-serif" font-size="14" lengthAdjust="spacing" textLength="0" x="2122.5" y="46.0234"/><line style="stroke:#A80036;stroke-width:1.0;" x1="2105.5" x2="2105.5" y1="30.4883" y2="50.9766"/><line style="stroke:#A80036;stroke-width:1.0;" x1="2018.5" x2="2386.5" y1="50.9766" y2="50.9766"/><text fill="#000000" font-family="sans-serif" font-size="14" lengthAdjust="spacing" textLength="55" x="2023.5" y="66.5117">writable</text><text fill="#000000" font-family="sans-serif" font-size="14" lengthAdjust="spacing" textLength="48" x="2110.5" y="66.5117">☐ false</text><line style="stroke:#A80036;stroke-width:1.0;" x1="2105.5" x2="2105.5" y1="50.9766" y2="71.4648"/><line style="stroke:#A80036;stroke-width:1.0;" x1="2018.5" x2="2386.5" y1="71.4648" y2="71.4648"/><text fill="#000000" font-family="sans-serif" font-size="14" lengthAdjust="spacing" textLength="29" x="2023.5" y="87">type</text><text fill="#000000" font-family="sans-serif" font-size="14" lengthAdjust="spacing" textLength="35" x="2110.5" y="87">array</text><line style="stroke:#A80036;stroke-width:1.0;" x1="2105.5" x2="2105.5" y1="71.4648" y2="91.9531"/><rect fill="none" height="81.9531" rx="5" ry="5" style="stroke:#A80036;stroke-width:1.5;" width="368" x="2018.5" y="10"/><rect fill="#FEFECE" height="20.4883" rx="5" ry="5" style="stroke:#FEFECE;stroke-width:1.5;" width="89" x="2523" y="30"/><text fill="#000000" font-family="sans-serif" font-size="14" lengthAdjust="spacing" textLength="29" x="2528" y="45.5352">type</text><text fill="#000000" font-family="sans-serif" font-size="14" lengthAdjust="spacing" textLength="40" x="2567" y="45.5352">string</text><line style="stroke:#A80036;stroke-width:1.0;" x1="2562" x2="2562" y1="30" y2="50.4883"/><rect fill="none" height="20.4883" rx="5" ry="5" style="stroke:#A80036;stroke-width:1.5;" width="89" x="2523" y="30"/><rect fill="#FEFECE" height="57.4648" rx="5" ry="5" style="stroke:#FEFECE;stroke-width:1.5;" width="567" x="1919" y="110.5"/><text fill="#000000" font-family="sans-serif" font-size="14" lengthAdjust="spacing" textLength="77" x="1924" y="126.0352">description</text><text fill="#000000" font-family="sans-serif" font-size="14" lengthAdjust="spacing" textLength="470" x="2011" y="126.0352">The modifier to the movement value (e.g. spin-90, left-20), units are</text><text fill="#000000" font-family="sans-serif" font-size="14" lengthAdjust="spacing" textLength="125" x="2011" y="142.5234">device dependent.</text><line style="stroke:#A80036;stroke-width:1.0;" x1="2006" x2="2006" y1="110.5" y2="147.4766"/><line style="stroke:#A80036;stroke-width:1.0;" x1="1919" x2="2486" y1="147.4766" y2="147.4766"/><text fill="#000000" font-family="sans-serif" font-size="14" lengthAdjust="spacing" textLength="29" x="1924" y="163.0117">type</text><text fill="#000000" font-family="sans-serif" font-size="14" lengthAdjust="spacing" textLength="40" x="2011" y="163.0117">string</text><line style="stroke:#A80036;stroke-width:1.0;" x1="2006" x2="2006" y1="147.4766" y2="167.9648"/><rect fill="none" height="57.4648" rx="5" ry="5" style="stroke:#A80036;stroke-width:1.5;" width="567" x="1919" y="110.5"/><rect fill="#FEFECE" height="40.9766" rx="5" ry="5" style="stroke:#FEFECE;stroke-width:1.5;" width="297" x="2054" y="185.5"/><text fill="#000000" font-family="sans-serif" font-size="14" lengthAdjust="spacing" textLength="77" x="2059" y="201.0352">description</text><text fill="#000000" font-family="sans-serif" font-size="14" lengthAdjust="spacing" textLength="200" x="2146" y="201.0352">The current movement value.</text><line style="stroke:#A80036;stroke-width:1.0;" x1="2141" x2="2141" y1="185.5" y2="205.9883"/><line style="stroke:#A80036;stroke-width:1.0;" x1="2054" x2="2351" y1="205.9883" y2="205.9883"/><text fill="#000000" font-family="sans-serif" font-size="14" lengthAdjust="spacing" textLength="29" x="2059" y="221.5234">type</text><text fill="#000000" font-family="sans-serif" font-size="14" lengthAdjust="spacing" textLength="40" x="2146" y="221.5234">string</text><line style="stroke:#A80036;stroke-width:1.0;" x1="2141" x2="2141" y1="205.9883" y2="226.4766"/><rect fill="none" height="40.9766" rx="5" ry="5" style="stroke:#A80036;stroke-width:1.5;" width="297" x="2054" y="185.5"/><rect fill="#FEFECE" height="40.9766" rx="5" ry="5" style="stroke:#FEFECE;stroke-width:1.5;" width="433" x="1449" y="188.5"/><text fill="#000000" font-family="sans-serif" font-size="14" lengthAdjust="spacing" textLength="423" x="1454" y="204.0352">#/sdfObject/movement.linear/sdfProperty/movementSettings</text><line style="stroke:#A80036;stroke-width:1.0;" x1="1449" x2="1882" y1="208.9883" y2="208.9883"/><text fill="#000000" font-family="sans-serif" font-size="14" lengthAdjust="spacing" textLength="368" x="1454" y="224.5234">#/sdfObject/movement.linear/sdfProperty/movement</text><rect fill="none" height="40.9766" rx="5" ry="5" style="stroke:#A80036;stroke-width:1.5;" width="433" x="1449" y="188.5"/><path d="M95,105 L108,105 C117.3442,105 126.8208,104.9198 136.3833,104.7688 " fill="none" style="stroke:#A80036;stroke-width:1.0;stroke-dasharray:3.0,3.0;"/><path d="M136.4378,107.8434 L138.6892,104.7279 L136.3288,101.6942 L144.0697,104.6326 L136.4378,107.8434 " fill="#A80036" style="stroke:#A80036;stroke-width:1.0;"/><ellipse cx="95" cy="105" fill="#A80036" rx="3" ry="3" style="stroke:#A80036;stroke-width:1.0;stroke-dasharray:3.0,3.0;"/><path d="M2375,40 L2388,40 C2430.9036,40 2479.5916,40 2515.3472,40 " fill="none" style="stroke:#A80036;stroke-width:1.0;stroke-dasharray:3.0,3.0;"/><path d="M2515.3472,43.153 L2517.712,40 L2515.3472,36.847 L2523.2298,40 L2515.3472,43.153 " fill="#A80036" style="stroke:#A80036;stroke-width:1.0;"/><ellipse cx="2375" cy="40" fill="#A80036" rx="3" ry="3" style="stroke:#A80036;stroke-width:1.0;stroke-dasharray:3.0,3.0;"/><path d="M1735,119 L1748,119 C1798.6852,119 1911.0767,102.2139 2011.346,85.3219 " fill="none" style="stroke:#A80036;stroke-width:1.0;stroke-dasharray:3.0,3.0;"/><path d="M2011.8532,88.3234 L2013.5971,84.9415 L2010.8387,82.3204 L2018.8498,84.0538 L2011.8532,88.3234 " fill="#A80036" style="stroke:#A80036;stroke-width:1.0;"/><ellipse cx="1735" cy="119" fill="#A80036" rx="3" ry="3" style="stroke:#A80036;stroke-width:1.0;stroke-dasharray:3.0,3.0;"/><path d="M1735,139 L1748,139 C1800.8833,139 1857.2316,139 1911.5961,139 " fill="none" style="stroke:#A80036;stroke-width:1.0;stroke-dasharray:3.0,3.0;"/><path d="M1911.5961,142.0629 L1913.8933,139 L1911.5961,135.9371 L1919.2535,139 L1911.5961,142.0629 " fill="#A80036" style="stroke:#A80036;stroke-width:1.0;"/><ellipse cx="1735" cy="139" fill="#A80036" rx="3" ry="3" style="stroke:#A80036;stroke-width:1.0;stroke-dasharray:3.0,3.0;"/><path d="M1735,160 L1748,160 C1751.8292,160 1916.7541,176.7913 2046.7168,190.0841 " fill="none" style="stroke:#A80036;stroke-width:1.0;stroke-dasharray:3.0,3.0;"/><path d="M2046.4008,193.1735 L2049.0339,190.3211 L2047.0329,186.9947 L2054.4404,190.8742 L2046.4008,193.1735 " fill="#A80036" style="stroke:#A80036;stroke-width:1.0;"/><ellipse cx="1735" cy="160" fill="#A80036" rx="3" ry="3" style="stroke:#A80036;stroke-width:1.0;stroke-dasharray:3.0,3.0;"/><path d="M1400,150 L1413,150 C1467.7566,150 1529.1533,147.6135 1577.635,145.1723 " fill="none" style="stroke:#A80036;stroke-width:1.0;stroke-dasharray:3.0,3.0;"/><path d="M1577.7918,148.2391 L1579.9351,145.0547 L1577.4782,142.1054 L1585.3021,144.7803 L1577.7918,148.2391 " fill="#A80036" style="stroke:#A80036;stroke-width:1.0;"/><ellipse cx="1400" cy="150" fill="#A80036" rx="3" ry="3" style="stroke:#A80036;stroke-width:1.0;stroke-dasharray:3.0,3.0;"/><path d="M1400,198 L1413,198 C1422.3297,198 1431.8518,198.0762 1441.4697,198.2159 " fill="none" style="stroke:#A80036;stroke-width:1.0;stroke-dasharray:3.0,3.0;"/><path d="M1441.4196,201.3087 L1443.7893,198.2535 L1441.5199,195.123 L1449.2018,198.3413 L1441.4196,201.3087 " fill="#A80036" style="stroke:#A80036;stroke-width:1.0;"/><ellipse cx="1400" cy="198" fill="#A80036" rx="3" ry="3" style="stroke:#A80036;stroke-width:1.0;stroke-dasharray:3.0,3.0;"/><path d="M534,150 L547,150 C638.6307,150 738.4538,150 828.8906,150 " fill="none" style="stroke:#A80036;stroke-width:1.0;stroke-dasharray:3.0,3.0;"/><path d="M828.8906,153.0418 L831.172,150 L828.8906,146.9582 L836.4952,150 L828.8906,153.0418 " fill="#A80036" style="stroke:#A80036;stroke-width:1.0;"/><ellipse cx="534" cy="150" fill="#A80036" rx="3" ry="3" style="stroke:#A80036;stroke-width:1.0;stroke-dasharray:3.0,3.0;"/><path d="M95,126 L108,126 C124.1536,126 127.924,129.4191 144,131 C228.0561,139.2659 324.6478,144.3359 390.9354,147.1361 " fill="none" style="stroke:#A80036;stroke-width:1.0;stroke-dasharray:3.0,3.0;"/><path d="M390.8099,150.1467 L393.1933,147.2302 L391.0608,144.1255 L398.462,147.4498 L390.8099,150.1467 " fill="#A80036" style="stroke:#A80036;stroke-width:1.0;"/><ellipse cx="95" cy="126" fill="#A80036" rx="3" ry="3" style="stroke:#A80036;stroke-width:1.0;stroke-dasharray:3.0,3.0;"/><!--MD5=[15b67f470d7d733c33fbc6c1d0dc6205]
@startjson
{
  "info": {
    "copyright": "copyright 2016-2017, 2019 Open Connectivity Foundation, Inc. All rights reserved.",
    "license": "https://github.com/one-data-model/oneDM/blob/master/LICENSE",
    "title": "Movement",
    "version": "2019-02-15"
  },
  "sdfObject": {
    "movement.linear": {
      "description": "This Resource specifies linear movement. The Property\\n\"movementSettings\" is an array of strings containing possible\\nmovement values (e. g. spin, stop, left, right). The Property\\n\"movement\" is the currently selected movement value. The Property\\n\"movementModifier\" is a modifier to the movement value (e. g. \"spin\",\\n\"90\")",
      "sdfProperty": {
        "movementSettings": {
          "description": "The array of possible movement values.",
          "items": {
            "type": "string"
          },
          "writable": false,
          "type": "array"
        },
        "movementModifier": {
          "description": "The modifier to the movement value (e.g. spin-90, left-20), units are\\ndevice dependent.",
          "type": "string"
        },
        "movement": {
          "description": "The current movement value.",
          "type": "string"
        }
      },
      "sdfRequired": [
        "#/sdfObject/movement.linear/sdfProperty/movementSettings",
        "#/sdfObject/movement.linear/sdfProperty/movement"
      ]
    }
  }
}
@endjson

PlantUML version 1.2021.2(Sun Mar 07 13:10:27 EET 2021)
(GPL source distribution)
Java Runtime: OpenJDK Runtime Environment
JVM: OpenJDK 64-Bit Server VM
Default Encoding: UTF-8
Language: en
Country: FI
--></g></svg>