<?xml version="1.0" encoding="UTF-8" standalone="no"?><svg xmlns="http://www.w3.org/2000/svg" xmlns:xlink="http://www.w3.org/1999/xlink" contentScriptType="application/ecmascript" contentStyleType="text/css" height="473px" preserveAspectRatio="none" style="width:2208px;height:473px;" version="1.1" viewBox="0 0 2208 473" width="2208px" zoomAndPan="magnify"><defs/><g><rect fill="#FEFECE" height="40.9766" rx="5" ry="5" style="stroke:#FEFECE;stroke-width:1.5;" width="97" x="10" y="247"/><text fill="#000000" font-family="sans-serif" font-size="14" lengthAdjust="spacing" textLength="27" x="15" y="262.5352">info</text><text fill="#000000" font-family="sans-serif" font-size="14" lengthAdjust="spacing" textLength="0" x="102" y="262.5352"/><line style="stroke:#A80036;stroke-width:1.0;" x1="85" x2="85" y1="247" y2="267.4883"/><line style="stroke:#A80036;stroke-width:1.0;" x1="10" x2="107" y1="267.4883" y2="267.4883"/><text fill="#000000" font-family="sans-serif" font-size="14" lengthAdjust="spacing" textLength="65" x="15" y="283.0234">sdfObject</text><text fill="#000000" font-family="sans-serif" font-size="14" lengthAdjust="spacing" textLength="0" x="102" y="283.0234"/><line style="stroke:#A80036;stroke-width:1.0;" x1="85" x2="85" y1="267.4883" y2="287.9766"/><rect fill="none" height="40.9766" rx="5" ry="5" style="stroke:#A80036;stroke-width:1.5;" width="97" x="10" y="247"/><rect fill="#FEFECE" height="81.9531" rx="5" ry="5" style="stroke:#FEFECE;stroke-width:1.5;" width="547" x="144" y="191.5"/><text fill="#000000" font-family="sans-serif" font-size="14" lengthAdjust="spacing" textLength="26" x="149" y="207.0352">title</text><text fill="#000000" font-family="sans-serif" font-size="14" lengthAdjust="spacing" textLength="262" x="224" y="207.0352">OMA LwM2M Dimmer (Object ID 3343)</text><line style="stroke:#A80036;stroke-width:1.0;" x1="219" x2="219" y1="191.5" y2="211.9883"/><line style="stroke:#A80036;stroke-width:1.0;" x1="144" x2="691" y1="211.9883" y2="211.9883"/><text fill="#000000" font-family="sans-serif" font-size="14" lengthAdjust="spacing" textLength="50" x="149" y="227.5234">version</text><text fill="#000000" font-family="sans-serif" font-size="14" lengthAdjust="spacing" textLength="88" x="224" y="227.5234">2021-02-11</text><line style="stroke:#A80036;stroke-width:1.0;" x1="219" x2="219" y1="211.9883" y2="232.4766"/><line style="stroke:#A80036;stroke-width:1.0;" x1="144" x2="691" y1="232.4766" y2="232.4766"/><text fill="#000000" font-family="sans-serif" font-size="14" lengthAdjust="spacing" textLength="65" x="149" y="248.0117">copyright</text><text fill="#000000" font-family="sans-serif" font-size="14" lengthAdjust="spacing" textLength="208" x="224" y="248.0117">Copyright (c) 2018-2020 IPSO</text><line style="stroke:#A80036;stroke-width:1.0;" x1="219" x2="219" y1="232.4766" y2="252.9648"/><line style="stroke:#A80036;stroke-width:1.0;" x1="144" x2="691" y1="252.9648" y2="252.9648"/><text fill="#000000" font-family="sans-serif" font-size="14" lengthAdjust="spacing" textLength="47" x="149" y="268.5">license</text><text fill="#000000" font-family="sans-serif" font-size="14" lengthAdjust="spacing" textLength="462" x="224" y="268.5">https://github.com/one-data-model/oneDM/blob/master/LICENSE</text><line style="stroke:#A80036;stroke-width:1.0;" x1="219" x2="219" y1="252.9648" y2="273.4531"/><rect fill="none" height="81.9531" rx="5" ry="5" style="stroke:#A80036;stroke-width:1.5;" width="547" x="144" y="191.5"/><rect fill="#FEFECE" height="20.4883" rx="5" ry="5" style="stroke:#FEFECE;stroke-width:1.5;" width="86" x="374.5" y="291.5"/><text fill="#000000" font-family="sans-serif" font-size="14" lengthAdjust="spacing" textLength="54" x="379.5" y="307.0352">Dimmer</text><text fill="#000000" font-family="sans-serif" font-size="14" lengthAdjust="spacing" textLength="0" x="455.5" y="307.0352"/><line style="stroke:#A80036;stroke-width:1.0;" x1="438.5" x2="438.5" y1="291.5" y2="311.9883"/><rect fill="none" height="20.4883" rx="5" ry="5" style="stroke:#A80036;stroke-width:1.5;" width="86" x="374.5" y="291.5"/><rect fill="#FEFECE" height="118.9297" rx="5" ry="5" style="stroke:#FEFECE;stroke-width:1.5;" width="549" x="728" y="242"/><text fill="#000000" font-family="sans-serif" font-size="14" lengthAdjust="spacing" textLength="33" x="733" y="257.5352">label</text><text fill="#000000" font-family="sans-serif" font-size="14" lengthAdjust="spacing" textLength="54" x="826" y="257.5352">Dimmer</text><line style="stroke:#A80036;stroke-width:1.0;" x1="821" x2="821" y1="242" y2="262.4883"/><line style="stroke:#A80036;stroke-width:1.0;" x1="728" x2="1277" y1="262.4883" y2="262.4883"/><text fill="#000000" font-family="sans-serif" font-size="14" lengthAdjust="spacing" textLength="77" x="733" y="278.0234">description</text><text fill="#000000" font-family="sans-serif" font-size="14" lengthAdjust="spacing" textLength="446" x="826" y="278.0234">This IPSO object should be used with a dimmer or level control to</text><text fill="#000000" font-family="sans-serif" font-size="14" lengthAdjust="spacing" textLength="207" x="826" y="294.5117">report the state of the control.</text><line style="stroke:#A80036;stroke-width:1.0;" x1="821" x2="821" y1="262.4883" y2="299.4648"/><line style="stroke:#A80036;stroke-width:1.0;" x1="728" x2="1277" y1="299.4648" y2="299.4648"/><text fill="#000000" font-family="sans-serif" font-size="14" lengthAdjust="spacing" textLength="79" x="733" y="315">sdfProperty</text><text fill="#000000" font-family="sans-serif" font-size="14" lengthAdjust="spacing" textLength="0" x="838" y="315"/><line style="stroke:#A80036;stroke-width:1.0;" x1="821" x2="821" y1="299.4648" y2="319.9531"/><line style="stroke:#A80036;stroke-width:1.0;" x1="728" x2="1277" y1="319.9531" y2="319.9531"/><text fill="#000000" font-family="sans-serif" font-size="14" lengthAdjust="spacing" textLength="65" x="733" y="335.4883">sdfAction</text><text fill="#000000" font-family="sans-serif" font-size="14" lengthAdjust="spacing" textLength="0" x="838" y="335.4883"/><line style="stroke:#A80036;stroke-width:1.0;" x1="821" x2="821" y1="319.9531" y2="340.4414"/><line style="stroke:#A80036;stroke-width:1.0;" x1="728" x2="1277" y1="340.4414" y2="340.4414"/><text fill="#000000" font-family="sans-serif" font-size="14" lengthAdjust="spacing" textLength="83" x="733" y="355.9766">sdfRequired</text><text fill="#000000" font-family="sans-serif" font-size="14" lengthAdjust="spacing" textLength="0" x="838" y="355.9766"/><line style="stroke:#A80036;stroke-width:1.0;" x1="821" x2="821" y1="340.4414" y2="360.9297"/><rect fill="none" height="118.9297" rx="5" ry="5" style="stroke:#A80036;stroke-width:1.5;" width="549" x="728" y="242"/><rect fill="#FEFECE" height="81.9531" rx="5" ry="5" style="stroke:#FEFECE;stroke-width:1.5;" width="150" x="1378.5" y="217.5"/><text fill="#000000" font-family="sans-serif" font-size="14" lengthAdjust="spacing" textLength="34" x="1383.5" y="233.0352">Level</text><text fill="#000000" font-family="sans-serif" font-size="14" lengthAdjust="spacing" textLength="0" x="1523.5" y="233.0352"/><line style="stroke:#A80036;stroke-width:1.0;" x1="1506.5" x2="1506.5" y1="217.5" y2="237.9883"/><line style="stroke:#A80036;stroke-width:1.0;" x1="1378.5" x2="1528.5" y1="237.9883" y2="237.9883"/><text fill="#000000" font-family="sans-serif" font-size="14" lengthAdjust="spacing" textLength="57" x="1383.5" y="253.5234">On_time</text><text fill="#000000" font-family="sans-serif" font-size="14" lengthAdjust="spacing" textLength="0" x="1523.5" y="253.5234"/><line style="stroke:#A80036;stroke-width:1.0;" x1="1506.5" x2="1506.5" y1="237.9883" y2="258.4766"/><line style="stroke:#A80036;stroke-width:1.0;" x1="1378.5" x2="1528.5" y1="258.4766" y2="258.4766"/><text fill="#000000" font-family="sans-serif" font-size="14" lengthAdjust="spacing" textLength="62" x="1383.5" y="274.0117">Off_Time</text><text fill="#000000" font-family="sans-serif" font-size="14" lengthAdjust="spacing" textLength="0" x="1523.5" y="274.0117"/><line style="stroke:#A80036;stroke-width:1.0;" x1="1506.5" x2="1506.5" y1="258.4766" y2="278.9648"/><line style="stroke:#A80036;stroke-width:1.0;" x1="1378.5" x2="1528.5" y1="278.9648" y2="278.9648"/><text fill="#000000" font-family="sans-serif" font-size="14" lengthAdjust="spacing" textLength="118" x="1383.5" y="294.5">Application_Type</text><text fill="#000000" font-family="sans-serif" font-size="14" lengthAdjust="spacing" textLength="0" x="1523.5" y="294.5"/><line style="stroke:#A80036;stroke-width:1.0;" x1="1506.5" x2="1506.5" y1="278.9648" y2="299.4531"/><rect fill="none" height="81.9531" rx="5" ry="5" style="stroke:#A80036;stroke-width:1.5;" width="150" x="1378.5" y="217.5"/><rect fill="#FEFECE" height="122.9297" rx="5" ry="5" style="stroke:#FEFECE;stroke-width:1.5;" width="475" x="1675.5" y="10"/><text fill="#000000" font-family="sans-serif" font-size="14" lengthAdjust="spacing" textLength="33" x="1680.5" y="25.5352">label</text><text fill="#000000" font-family="sans-serif" font-size="14" lengthAdjust="spacing" textLength="34" x="1767.5" y="25.5352">Level</text><line style="stroke:#A80036;stroke-width:1.0;" x1="1762.5" x2="1762.5" y1="10" y2="30.4883"/><line style="stroke:#A80036;stroke-width:1.0;" x1="1675.5" x2="2150.5" y1="30.4883" y2="30.4883"/><text fill="#000000" font-family="sans-serif" font-size="14" lengthAdjust="spacing" textLength="77" x="1680.5" y="46.0234">description</text><text fill="#000000" font-family="sans-serif" font-size="14" lengthAdjust="spacing" textLength="378" x="1767.5" y="46.0234">Used to represent a level control such as audio volume.</text><line style="stroke:#A80036;stroke-width:1.0;" x1="1762.5" x2="1762.5" y1="30.4883" y2="50.9766"/><line style="stroke:#A80036;stroke-width:1.0;" x1="1675.5" x2="2150.5" y1="50.9766" y2="50.9766"/><text fill="#000000" font-family="sans-serif" font-size="14" lengthAdjust="spacing" textLength="29" x="1680.5" y="66.5117">type</text><text fill="#000000" font-family="sans-serif" font-size="14" lengthAdjust="spacing" textLength="54" x="1767.5" y="66.5117">number</text><line style="stroke:#A80036;stroke-width:1.0;" x1="1762.5" x2="1762.5" y1="50.9766" y2="71.4648"/><line style="stroke:#A80036;stroke-width:1.0;" x1="1675.5" x2="2150.5" y1="71.4648" y2="71.4648"/><text fill="#000000" font-family="sans-serif" font-size="14" lengthAdjust="spacing" textLength="27" x="1680.5" y="87">unit</text><text fill="#000000" font-family="sans-serif" font-size="14" lengthAdjust="spacing" textLength="34" x="1767.5" y="87">/100</text><line style="stroke:#A80036;stroke-width:1.0;" x1="1762.5" x2="1762.5" y1="71.4648" y2="91.9531"/><line style="stroke:#A80036;stroke-width:1.0;" x1="1675.5" x2="2150.5" y1="91.9531" y2="91.9531"/><text fill="#000000" font-family="sans-serif" font-size="14" lengthAdjust="spacing" textLength="65" x="1680.5" y="107.4883">minimum</text><text fill="#000000" font-family="sans-serif" font-size="14" lengthAdjust="spacing" textLength="9" x="1767.5" y="107.4883">0</text><line style="stroke:#A80036;stroke-width:1.0;" x1="1762.5" x2="1762.5" y1="91.9531" y2="112.4414"/><line style="stroke:#A80036;stroke-width:1.0;" x1="1675.5" x2="2150.5" y1="112.4414" y2="112.4414"/><text fill="#000000" font-family="sans-serif" font-size="14" lengthAdjust="spacing" textLength="69" x="1680.5" y="127.9766">maximum</text><text fill="#000000" font-family="sans-serif" font-size="14" lengthAdjust="spacing" textLength="27" x="1767.5" y="127.9766">100</text><line style="stroke:#A80036;stroke-width:1.0;" x1="1762.5" x2="1762.5" y1="112.4414" y2="132.9297"/><rect fill="none" height="122.9297" rx="5" ry="5" style="stroke:#A80036;stroke-width:1.5;" width="475" x="1675.5" y="10"/><rect fill="#FEFECE" height="98.4414" rx="5" ry="5" style="stroke:#FEFECE;stroke-width:1.5;" width="566" x="1630" y="151.5"/><text fill="#000000" font-family="sans-serif" font-size="14" lengthAdjust="spacing" textLength="33" x="1635" y="167.0352">label</text><text fill="#000000" font-family="sans-serif" font-size="14" lengthAdjust="spacing" textLength="54" x="1722" y="167.0352">On time</text><line style="stroke:#A80036;stroke-width:1.0;" x1="1717" x2="1717" y1="151.5" y2="171.9883"/><line style="stroke:#A80036;stroke-width:1.0;" x1="1630" x2="2196" y1="171.9883" y2="171.9883"/><text fill="#000000" font-family="sans-serif" font-size="14" lengthAdjust="spacing" textLength="77" x="1635" y="187.5234">description</text><text fill="#000000" font-family="sans-serif" font-size="14" lengthAdjust="spacing" textLength="469" x="1722" y="187.5234">The time in seconds that the device has been on. Writing a value of 0</text><text fill="#000000" font-family="sans-serif" font-size="14" lengthAdjust="spacing" textLength="128" x="1722" y="204.0117">resets the counter.</text><line style="stroke:#A80036;stroke-width:1.0;" x1="1717" x2="1717" y1="171.9883" y2="208.9648"/><line style="stroke:#A80036;stroke-width:1.0;" x1="1630" x2="2196" y1="208.9648" y2="208.9648"/><text fill="#000000" font-family="sans-serif" font-size="14" lengthAdjust="spacing" textLength="29" x="1635" y="224.5">type</text><text fill="#000000" font-family="sans-serif" font-size="14" lengthAdjust="spacing" textLength="49" x="1722" y="224.5">integer</text><line style="stroke:#A80036;stroke-width:1.0;" x1="1717" x2="1717" y1="208.9648" y2="229.4531"/><line style="stroke:#A80036;stroke-width:1.0;" x1="1630" x2="2196" y1="229.4531" y2="229.4531"/><text fill="#000000" font-family="sans-serif" font-size="14" lengthAdjust="spacing" textLength="27" x="1635" y="244.9883">unit</text><text fill="#000000" font-family="sans-serif" font-size="14" lengthAdjust="spacing" textLength="7" x="1722" y="244.9883">s</text><line style="stroke:#A80036;stroke-width:1.0;" x1="1717" x2="1717" y1="229.4531" y2="249.9414"/><rect fill="none" height="98.4414" rx="5" ry="5" style="stroke:#A80036;stroke-width:1.5;" width="566" x="1630" y="151.5"/><rect fill="#FEFECE" height="98.4414" rx="5" ry="5" style="stroke:#FEFECE;stroke-width:1.5;" width="548" x="1639" y="267.5"/><text fill="#000000" font-family="sans-serif" font-size="14" lengthAdjust="spacing" textLength="33" x="1644" y="283.0352">label</text><text fill="#000000" font-family="sans-serif" font-size="14" lengthAdjust="spacing" textLength="59" x="1731" y="283.0352">Off Time</text><line style="stroke:#A80036;stroke-width:1.0;" x1="1726" x2="1726" y1="267.5" y2="287.9883"/><line style="stroke:#A80036;stroke-width:1.0;" x1="1639" x2="2187" y1="287.9883" y2="287.9883"/><text fill="#000000" font-family="sans-serif" font-size="14" lengthAdjust="spacing" textLength="77" x="1644" y="303.5234">description</text><text fill="#000000" font-family="sans-serif" font-size="14" lengthAdjust="spacing" textLength="451" x="1731" y="303.5234">The time in seconds in the off state. Writing a value of 0 resets the</text><text fill="#000000" font-family="sans-serif" font-size="14" lengthAdjust="spacing" textLength="57" x="1731" y="320.0117">counter.</text><line style="stroke:#A80036;stroke-width:1.0;" x1="1726" x2="1726" y1="287.9883" y2="324.9648"/><line style="stroke:#A80036;stroke-width:1.0;" x1="1639" x2="2187" y1="324.9648" y2="324.9648"/><text fill="#000000" font-family="sans-serif" font-size="14" lengthAdjust="spacing" textLength="29" x="1644" y="340.5">type</text><text fill="#000000" font-family="sans-serif" font-size="14" lengthAdjust="spacing" textLength="49" x="1731" y="340.5">integer</text><line style="stroke:#A80036;stroke-width:1.0;" x1="1726" x2="1726" y1="324.9648" y2="345.4531"/><line style="stroke:#A80036;stroke-width:1.0;" x1="1639" x2="2187" y1="345.4531" y2="345.4531"/><text fill="#000000" font-family="sans-serif" font-size="14" lengthAdjust="spacing" textLength="27" x="1644" y="360.9883">unit</text><text fill="#000000" font-family="sans-serif" font-size="14" lengthAdjust="spacing" textLength="7" x="1731" y="360.9883">s</text><line style="stroke:#A80036;stroke-width:1.0;" x1="1726" x2="1726" y1="345.4531" y2="365.9414"/><rect fill="none" height="98.4414" rx="5" ry="5" style="stroke:#A80036;stroke-width:1.5;" width="548" x="1639" y="267.5"/><rect fill="#FEFECE" height="77.9531" rx="5" ry="5" style="stroke:#FEFECE;stroke-width:1.5;" width="563" x="1631.5" y="383.5"/><text fill="#000000" font-family="sans-serif" font-size="14" lengthAdjust="spacing" textLength="33" x="1636.5" y="399.0352">label</text><text fill="#000000" font-family="sans-serif" font-size="14" lengthAdjust="spacing" textLength="115" x="1723.5" y="399.0352">Application Type</text><line style="stroke:#A80036;stroke-width:1.0;" x1="1718.5" x2="1718.5" y1="383.5" y2="403.9883"/><line style="stroke:#A80036;stroke-width:1.0;" x1="1631.5" x2="2194.5" y1="403.9883" y2="403.9883"/><text fill="#000000" font-family="sans-serif" font-size="14" lengthAdjust="spacing" textLength="77" x="1636.5" y="419.5234">description</text><text fill="#000000" font-family="sans-serif" font-size="14" lengthAdjust="spacing" textLength="466" x="1723.5" y="419.5234">The application type of the sensor or actuator as a string depending</text><text fill="#000000" font-family="sans-serif" font-size="14" lengthAdjust="spacing" textLength="110" x="1723.5" y="436.0117">on the use case.</text><line style="stroke:#A80036;stroke-width:1.0;" x1="1718.5" x2="1718.5" y1="403.9883" y2="440.9648"/><line style="stroke:#A80036;stroke-width:1.0;" x1="1631.5" x2="2194.5" y1="440.9648" y2="440.9648"/><text fill="#000000" font-family="sans-serif" font-size="14" lengthAdjust="spacing" textLength="29" x="1636.5" y="456.5">type</text><text fill="#000000" font-family="sans-serif" font-size="14" lengthAdjust="spacing" textLength="40" x="1723.5" y="456.5">string</text><line style="stroke:#A80036;stroke-width:1.0;" x1="1718.5" x2="1718.5" y1="440.9648" y2="461.4531"/><rect fill="none" height="77.9531" rx="5" ry="5" style="stroke:#A80036;stroke-width:1.5;" width="563" x="1631.5" y="383.5"/><rect fill="#FEFECE" height="15" rx="5" ry="5" style="stroke:#FEFECE;stroke-width:1.5;" width="30" x="1441.5" y="317.5"/><rect fill="none" height="15" rx="5" ry="5" style="stroke:#A80036;stroke-width:1.5;" width="30" x="1441.5" y="317.5"/><rect fill="#FEFECE" height="20.4883" rx="5" ry="5" style="stroke:#FEFECE;stroke-width:1.5;" width="279" x="1314" y="351.5"/><text fill="#000000" font-family="sans-serif" font-size="14" lengthAdjust="spacing" textLength="269" x="1319" y="367.0352">#/sdfObject/Dimmer/sdfProperty/Level</text><rect fill="none" height="20.4883" rx="5" ry="5" style="stroke:#A80036;stroke-width:1.5;" width="279" x="1314" y="351.5"/><path d="M95,256.5 L108,256.5 C117.3406,256.5 126.8353,256.3896 136.4202,256.1839 " fill="none" style="stroke:#A80036;stroke-width:1.0;stroke-dasharray:3.0,3.0;"/><path d="M136.4943,259.2659 L138.7318,256.1283 L136.3462,253.1019 L144.1253,255.9987 L136.4943,259.2659 " fill="#A80036" style="stroke:#A80036;stroke-width:1.0;"/><ellipse cx="95" cy="256.5" fill="#A80036" rx="3" ry="3" style="stroke:#A80036;stroke-width:1.0;stroke-dasharray:3.0,3.0;"/><path d="M1517,227.5 L1530,227.5 C1588.3307,227.5 1578.1366,169.1956 1630,142.5 C1642.444,136.0947 1655.4991,130.2445 1668.8878,124.9043 " fill="none" style="stroke:#A80036;stroke-width:1.0;stroke-dasharray:3.0,3.0;"/><path d="M1669.9863,127.7165 L1670.9969,124.0804 L1667.7892,122.0922 L1675.9181,122.158 L1669.9863,127.7165 " fill="#A80036" style="stroke:#A80036;stroke-width:1.0;"/><ellipse cx="1517" cy="227.5" fill="#A80036" rx="3" ry="3" style="stroke:#A80036;stroke-width:1.0;stroke-dasharray:3.0,3.0;"/><path d="M1517,247.5 L1530,247.5 C1560.1958,247.5 1591.633,246.0392 1622.9354,243.6327 " fill="none" style="stroke:#A80036;stroke-width:1.0;stroke-dasharray:3.0,3.0;"/><path d="M1623.1741,246.6428 L1625.1929,243.4537 L1622.6967,240.6227 L1630.4605,243.036 L1623.1741,246.6428 " fill="#A80036" style="stroke:#A80036;stroke-width:1.0;"/><ellipse cx="1517" cy="247.5" fill="#A80036" rx="3" ry="3" style="stroke:#A80036;stroke-width:1.0;stroke-dasharray:3.0,3.0;"/><path d="M1517,268.5 L1530,268.5 C1562.9773,268.5 1597.4302,270.2782 1631.5691,273.1502 " fill="none" style="stroke:#A80036;stroke-width:1.0;stroke-dasharray:3.0,3.0;"/><path d="M1631.3011,276.246 L1633.891,273.3512 L1631.8372,270.0543 L1639.3088,273.8202 L1631.3011,276.246 " fill="#A80036" style="stroke:#A80036;stroke-width:1.0;"/><ellipse cx="1517" cy="268.5" fill="#A80036" rx="3" ry="3" style="stroke:#A80036;stroke-width:1.0;stroke-dasharray:3.0,3.0;"/><path d="M1517,289.5 L1530,289.5 C1559.6715,289.5 1570.9286,289.8424 1594,308.5 C1619.9808,329.5105 1602.8033,355.0891 1630,374.5 C1632.3663,376.1889 1634.7717,377.8256 1637.2133,379.4118 " fill="none" style="stroke:#A80036;stroke-width:1.0;stroke-dasharray:3.0,3.0;"/><path d="M1635.5807,382.03 L1639.177,380.6363 L1638.846,376.7936 L1643.7588,383.4934 L1635.5807,382.03 " fill="#A80036" style="stroke:#A80036;stroke-width:1.0;"/><ellipse cx="1517" cy="289.5" fill="#A80036" rx="3" ry="3" style="stroke:#A80036;stroke-width:1.0;stroke-dasharray:3.0,3.0;"/><path d="M1265,300.5 L1278,300.5 C1309.108,300.5 1342.4889,294.1473 1371.6696,286.3831 " fill="none" style="stroke:#A80036;stroke-width:1.0;stroke-dasharray:3.0,3.0;"/><path d="M1372.4701,289.3129 L1373.8669,285.7828 L1370.8691,283.4534 L1378.994,284.3818 L1372.4701,289.3129 " fill="#A80036" style="stroke:#A80036;stroke-width:1.0;"/><ellipse cx="1265" cy="300.5" fill="#A80036" rx="3" ry="3" style="stroke:#A80036;stroke-width:1.0;stroke-dasharray:3.0,3.0;"/><path d="M1265,325.5 L1278,325.5 C1334.8949,325.5 1402.1946,325.5 1434.2322,325.5 " fill="none" style="stroke:#A80036;stroke-width:1.0;stroke-dasharray:3.0,3.0;"/><path d="M1434.2322,328.5846 L1436.5457,325.5 L1434.2322,322.4154 L1441.9437,325.5 L1434.2322,328.5846 " fill="#A80036" style="stroke:#A80036;stroke-width:1.0;"/><ellipse cx="1265" cy="325.5" fill="#A80036" rx="3" ry="3" style="stroke:#A80036;stroke-width:1.0;stroke-dasharray:3.0,3.0;"/><path d="M1265,349.5 L1278,349.5 C1295.5868,349.5 1314.1445,350.1107 1332.3401,351.0565 " fill="none" style="stroke:#A80036;stroke-width:1.0;stroke-dasharray:3.0,3.0;"/><path d="M1332.17,354.1653 L1334.6717,351.184 L1332.5101,347.9477 L1340.1121,351.4816 L1332.17,354.1653 " fill="#A80036" style="stroke:#A80036;stroke-width:1.0;"/><ellipse cx="1265" cy="349.5" fill="#A80036" rx="3" ry="3" style="stroke:#A80036;stroke-width:1.0;stroke-dasharray:3.0,3.0;"/><path d="M449,301.5 L462,301.5 C546.0644,301.5 637.4901,301.5 720.8065,301.5 " fill="none" style="stroke:#A80036;stroke-width:1.0;stroke-dasharray:3.0,3.0;"/><path d="M720.8065,304.5085 L723.0629,301.5 L720.8065,298.4915 L728.3277,301.5 L720.8065,304.5085 " fill="#A80036" style="stroke:#A80036;stroke-width:1.0;"/><ellipse cx="449" cy="301.5" fill="#A80036" rx="3" ry="3" style="stroke:#A80036;stroke-width:1.0;stroke-dasharray:3.0,3.0;"/><path d="M95,277.5 L108,277.5 C124.1536,277.5 127.9333,280.8271 144,282.5 C221.6939,290.5894 312.1969,296.1251 367.0091,299.0507 " fill="none" style="stroke:#A80036;stroke-width:1.0;stroke-dasharray:3.0,3.0;"/><path d="M366.8441,302.1796 L369.3558,299.1745 L367.1742,295.9217 L374.8314,299.4633 L366.8441,302.1796 " fill="#A80036" style="stroke:#A80036;stroke-width:1.0;"/><ellipse cx="95" cy="277.5" fill="#A80036" rx="3" ry="3" style="stroke:#A80036;stroke-width:1.0;stroke-dasharray:3.0,3.0;"/><!--MD5=[9a8c9b47e673046f286263aed92f2fa8]
@startjson
{
  "info": {
    "title": "OMA LwM2M Dimmer (Object ID 3343)",
    "version": "2021-02-11",
    "copyright": "Copyright (c) 2018-2020 IPSO",
    "license": "https://github.com/one-data-model/oneDM/blob/master/LICENSE"
  },
  "sdfObject": {
    "Dimmer": {
      "label": "Dimmer",
      "description": "This IPSO object should be used with a dimmer or level control to\\nreport the state of the control.",
      "sdfProperty": {
        "Level": {
          "label": "Level",
          "description": "Used to represent a level control such as audio volume.",
          "type": "number",
          "unit": "/100",
          "minimum": 0,
          "maximum": 100
        },
        "On_time": {
          "label": "On time",
          "description": "The time in seconds that the device has been on. Writing a value of 0\\nresets the counter.",
          "type": "integer",
          "unit": "s"
        },
        "Off_Time": {
          "label": "Off Time",
          "description": "The time in seconds in the off state. Writing a value of 0 resets the\\ncounter.",
          "type": "integer",
          "unit": "s"
        },
        "Application_Type": {
          "label": "Application Type",
          "description": "The application type of the sensor or actuator as a string depending\\non the use case.",
          "type": "string"
        }
      },
      "sdfAction": {},
      "sdfRequired": [
        "#/sdfObject/Dimmer/sdfProperty/Level"
      ]
    }
  }
}
@endjson

PlantUML version 1.2021.2(Sun Mar 07 13:10:27 EET 2021)
(GPL source distribution)
Java Runtime: OpenJDK Runtime Environment
JVM: OpenJDK 64-Bit Server VM
Default Encoding: UTF-8
Language: en
Country: FI
--></g></svg>