<?xml version="1.0" encoding="UTF-8" standalone="no"?><svg xmlns="http://www.w3.org/2000/svg" xmlns:xlink="http://www.w3.org/1999/xlink" contentScriptType="application/ecmascript" contentStyleType="text/css" height="203px" preserveAspectRatio="none" style="width:2440px;height:203px;" version="1.1" viewBox="0 0 2440 203" width="2440px" zoomAndPan="magnify"><defs/><g><rect fill="#FEFECE" height="40.9766" rx="5" ry="5" style="stroke:#FEFECE;stroke-width:1.5;" width="97" x="10" y="65.5"/><text fill="#000000" font-family="sans-serif" font-size="14" lengthAdjust="spacing" textLength="27" x="15" y="81.0352">info</text><text fill="#000000" font-family="sans-serif" font-size="14" lengthAdjust="spacing" textLength="0" x="102" y="81.0352"/><line style="stroke:#A80036;stroke-width:1.0;" x1="85" x2="85" y1="65.5" y2="85.9883"/><line style="stroke:#A80036;stroke-width:1.0;" x1="10" x2="107" y1="85.9883" y2="85.9883"/><text fill="#000000" font-family="sans-serif" font-size="14" lengthAdjust="spacing" textLength="65" x="15" y="101.5234">sdfObject</text><text fill="#000000" font-family="sans-serif" font-size="14" lengthAdjust="spacing" textLength="0" x="102" y="101.5234"/><line style="stroke:#A80036;stroke-width:1.0;" x1="85" x2="85" y1="85.9883" y2="106.4766"/><rect fill="none" height="40.9766" rx="5" ry="5" style="stroke:#A80036;stroke-width:1.5;" width="97" x="10" y="65.5"/><rect fill="#FEFECE" height="81.9531" rx="5" ry="5" style="stroke:#FEFECE;stroke-width:1.5;" width="614" x="144" y="10"/><text fill="#000000" font-family="sans-serif" font-size="14" lengthAdjust="spacing" textLength="65" x="149" y="25.5352">copyright</text><text fill="#000000" font-family="sans-serif" font-size="14" lengthAdjust="spacing" textLength="529" x="224" y="25.5352">Copyright 2016-2019 Open Connectivity Foundation, Inc. All rights reserved.</text><line style="stroke:#A80036;stroke-width:1.0;" x1="219" x2="219" y1="10" y2="30.4883"/><line style="stroke:#A80036;stroke-width:1.0;" x1="144" x2="758" y1="30.4883" y2="30.4883"/><text fill="#000000" font-family="sans-serif" font-size="14" lengthAdjust="spacing" textLength="47" x="149" y="46.0234">license</text><text fill="#000000" font-family="sans-serif" font-size="14" lengthAdjust="spacing" textLength="462" x="224" y="46.0234">https://github.com/one-data-model/oneDM/blob/master/LICENSE</text><line style="stroke:#A80036;stroke-width:1.0;" x1="219" x2="219" y1="30.4883" y2="50.9766"/><line style="stroke:#A80036;stroke-width:1.0;" x1="144" x2="758" y1="50.9766" y2="50.9766"/><text fill="#000000" font-family="sans-serif" font-size="14" lengthAdjust="spacing" textLength="26" x="149" y="66.5117">title</text><text fill="#000000" font-family="sans-serif" font-size="14" lengthAdjust="spacing" textLength="228" x="224" y="66.5117">Context Health for Glucose Meter</text><line style="stroke:#A80036;stroke-width:1.0;" x1="219" x2="219" y1="50.9766" y2="71.4648"/><line style="stroke:#A80036;stroke-width:1.0;" x1="144" x2="758" y1="71.4648" y2="71.4648"/><text fill="#000000" font-family="sans-serif" font-size="14" lengthAdjust="spacing" textLength="50" x="149" y="87">version</text><text fill="#000000" font-family="sans-serif" font-size="14" lengthAdjust="spacing" textLength="88" x="224" y="87">2019-03-22</text><line style="stroke:#A80036;stroke-width:1.0;" x1="219" x2="219" y1="71.4648" y2="91.9531"/><rect fill="none" height="81.9531" rx="5" ry="5" style="stroke:#A80036;stroke-width:1.5;" width="614" x="144" y="10"/><rect fill="#FEFECE" height="20.4883" rx="5" ry="5" style="stroke:#FEFECE;stroke-width:1.5;" width="132" x="385" y="110"/><text fill="#000000" font-family="sans-serif" font-size="14" lengthAdjust="spacing" textLength="100" x="390" y="125.5352">glucose.health</text><text fill="#000000" font-family="sans-serif" font-size="14" lengthAdjust="spacing" textLength="0" x="512" y="125.5352"/><line style="stroke:#A80036;stroke-width:1.0;" x1="495" x2="495" y1="110" y2="130.4883"/><rect fill="none" height="20.4883" rx="5" ry="5" style="stroke:#A80036;stroke-width:1.5;" width="132" x="385" y="110"/><rect fill="#FEFECE" height="143.9063" rx="5" ry="5" style="stroke:#FEFECE;stroke-width:1.5;" width="581" x="795" y="48"/><text fill="#000000" font-family="sans-serif" font-size="14" lengthAdjust="spacing" textLength="77" x="800" y="63.5352">description</text><text fill="#000000" font-family="sans-serif" font-size="14" lengthAdjust="spacing" textLength="430" x="893" y="63.5352">This Resource describes the Properties associated with context</text><text fill="#000000" font-family="sans-serif" font-size="14" lengthAdjust="spacing" textLength="456" x="893" y="80.0234">health. The health Property is a read-only value that is provided by</text><text fill="#000000" font-family="sans-serif" font-size="14" lengthAdjust="spacing" textLength="478" x="893" y="96.5117">the Server where minor and major are related to the general health or</text><text fill="#000000" font-family="sans-serif" font-size="14" lengthAdjust="spacing" textLength="416" x="893" y="113">the level of illness of the person; menses refers to the female</text><text fill="#000000" font-family="sans-serif" font-size="14" lengthAdjust="spacing" textLength="426" x="893" y="129.4883">menstrual cycle; stress refers to physiological or psychological</text><text fill="#000000" font-family="sans-serif" font-size="14" lengthAdjust="spacing" textLength="44" x="893" y="145.9766">stress.</text><line style="stroke:#A80036;stroke-width:1.0;" x1="888" x2="888" y1="48" y2="150.9297"/><line style="stroke:#A80036;stroke-width:1.0;" x1="795" x2="1376" y1="150.9297" y2="150.9297"/><text fill="#000000" font-family="sans-serif" font-size="14" lengthAdjust="spacing" textLength="79" x="800" y="166.4648">sdfProperty</text><text fill="#000000" font-family="sans-serif" font-size="14" lengthAdjust="spacing" textLength="0" x="905" y="166.4648"/><line style="stroke:#A80036;stroke-width:1.0;" x1="888" x2="888" y1="150.9297" y2="171.418"/><line style="stroke:#A80036;stroke-width:1.0;" x1="795" x2="1376" y1="171.418" y2="171.418"/><text fill="#000000" font-family="sans-serif" font-size="14" lengthAdjust="spacing" textLength="83" x="800" y="186.9531">sdfRequired</text><text fill="#000000" font-family="sans-serif" font-size="14" lengthAdjust="spacing" textLength="0" x="905" y="186.9531"/><line style="stroke:#A80036;stroke-width:1.0;" x1="888" x2="888" y1="171.418" y2="191.9063"/><rect fill="none" height="143.9063" rx="5" ry="5" style="stroke:#A80036;stroke-width:1.5;" width="581" x="795" y="48"/><rect fill="#FEFECE" height="20.4883" rx="5" ry="5" style="stroke:#FEFECE;stroke-width:1.5;" width="75" x="1542.5" y="110"/><text fill="#000000" font-family="sans-serif" font-size="14" lengthAdjust="spacing" textLength="43" x="1547.5" y="125.5352">health</text><text fill="#000000" font-family="sans-serif" font-size="14" lengthAdjust="spacing" textLength="0" x="1612.5" y="125.5352"/><line style="stroke:#A80036;stroke-width:1.0;" x1="1595.5" x2="1595.5" y1="110" y2="130.4883"/><rect fill="none" height="20.4883" rx="5" ry="5" style="stroke:#A80036;stroke-width:1.5;" width="75" x="1542.5" y="110"/><rect fill="#FEFECE" height="81.9531" rx="5" ry="5" style="stroke:#FEFECE;stroke-width:1.5;" width="545" x="1784" y="79"/><text fill="#000000" font-family="sans-serif" font-size="14" lengthAdjust="spacing" textLength="77" x="1789" y="94.5352">description</text><text fill="#000000" font-family="sans-serif" font-size="14" lengthAdjust="spacing" textLength="448" x="1876" y="94.5352">The various levels of health a person feels when taking a glucose.</text><line style="stroke:#A80036;stroke-width:1.0;" x1="1871" x2="1871" y1="79" y2="99.4883"/><line style="stroke:#A80036;stroke-width:1.0;" x1="1784" x2="2329" y1="99.4883" y2="99.4883"/><text fill="#000000" font-family="sans-serif" font-size="14" lengthAdjust="spacing" textLength="39" x="1789" y="115.0234">enum</text><text fill="#000000" font-family="sans-serif" font-size="14" lengthAdjust="spacing" textLength="0" x="1888" y="115.0234"/><line style="stroke:#A80036;stroke-width:1.0;" x1="1871" x2="1871" y1="99.4883" y2="119.9766"/><line style="stroke:#A80036;stroke-width:1.0;" x1="1784" x2="2329" y1="119.9766" y2="119.9766"/><text fill="#000000" font-family="sans-serif" font-size="14" lengthAdjust="spacing" textLength="55" x="1789" y="135.5117">writable</text><text fill="#000000" font-family="sans-serif" font-size="14" lengthAdjust="spacing" textLength="48" x="1876" y="135.5117">☐ false</text><line style="stroke:#A80036;stroke-width:1.0;" x1="1871" x2="1871" y1="119.9766" y2="140.4648"/><line style="stroke:#A80036;stroke-width:1.0;" x1="1784" x2="2329" y1="140.4648" y2="140.4648"/><text fill="#000000" font-family="sans-serif" font-size="14" lengthAdjust="spacing" textLength="29" x="1789" y="156">type</text><text fill="#000000" font-family="sans-serif" font-size="14" lengthAdjust="spacing" textLength="40" x="1876" y="156">string</text><line style="stroke:#A80036;stroke-width:1.0;" x1="1871" x2="1871" y1="140.4648" y2="160.9531"/><rect fill="none" height="81.9531" rx="5" ry="5" style="stroke:#A80036;stroke-width:1.5;" width="545" x="1784" y="79"/><rect fill="#FEFECE" height="102.4414" rx="5" ry="5" style="stroke:#FEFECE;stroke-width:1.5;" width="62" x="2366" y="58"/><text fill="#000000" font-family="sans-serif" font-size="14" lengthAdjust="spacing" textLength="41" x="2371" y="73.5352">minor</text><line style="stroke:#A80036;stroke-width:1.0;" x1="2366" x2="2428" y1="78.4883" y2="78.4883"/><text fill="#000000" font-family="sans-serif" font-size="14" lengthAdjust="spacing" textLength="40" x="2371" y="94.0234">major</text><line style="stroke:#A80036;stroke-width:1.0;" x1="2366" x2="2428" y1="98.9766" y2="98.9766"/><text fill="#000000" font-family="sans-serif" font-size="14" lengthAdjust="spacing" textLength="52" x="2371" y="114.5117">menses</text><line style="stroke:#A80036;stroke-width:1.0;" x1="2366" x2="2428" y1="119.4648" y2="119.4648"/><text fill="#000000" font-family="sans-serif" font-size="14" lengthAdjust="spacing" textLength="40" x="2371" y="135">stress</text><line style="stroke:#A80036;stroke-width:1.0;" x1="2366" x2="2428" y1="139.9531" y2="139.9531"/><text fill="#000000" font-family="sans-serif" font-size="14" lengthAdjust="spacing" textLength="35" x="2371" y="155.4883">none</text><rect fill="none" height="102.4414" rx="5" ry="5" style="stroke:#A80036;stroke-width:1.5;" width="62" x="2366" y="58"/><rect fill="#FEFECE" height="20.4883" rx="5" ry="5" style="stroke:#FEFECE;stroke-width:1.5;" width="334" x="1413" y="158"/><text fill="#000000" font-family="sans-serif" font-size="14" lengthAdjust="spacing" textLength="324" x="1418" y="173.5352">#/sdfObject/glucose.health/sdfProperty/health</text><rect fill="none" height="20.4883" rx="5" ry="5" style="stroke:#A80036;stroke-width:1.5;" width="334" x="1413" y="158"/><path d="M95,75 L108,75 C117.4068,75 126.9554,74.9088 136.5926,74.7376 " fill="none" style="stroke:#A80036;stroke-width:1.0;stroke-dasharray:3.0,3.0;"/><path d="M136.6543,77.8363 L138.9166,74.6914 L136.5309,71.6389 L144.3394,74.5834 L136.6543,77.8363 " fill="#A80036" style="stroke:#A80036;stroke-width:1.0;"/><ellipse cx="95" cy="75" fill="#A80036" rx="3" ry="3" style="stroke:#A80036;stroke-width:1.0;stroke-dasharray:3.0,3.0;"/><path d="M2317,109 L2330,109 C2339.2902,109 2349.3105,109 2358.684,109 " fill="none" style="stroke:#A80036;stroke-width:1.0;stroke-dasharray:3.0,3.0;"/><path d="M2358.684,112.0765 L2360.9914,109 L2358.684,105.9235 L2366.3753,109 L2358.684,112.0765 " fill="#A80036" style="stroke:#A80036;stroke-width:1.0;"/><ellipse cx="2317" cy="109" fill="#A80036" rx="3" ry="3" style="stroke:#A80036;stroke-width:1.0;stroke-dasharray:3.0,3.0;"/><path d="M1606.5,120 L1619.5,120 C1670.3312,120 1724.492,120 1776.7479,120 " fill="none" style="stroke:#A80036;stroke-width:1.0;stroke-dasharray:3.0,3.0;"/><path d="M1776.7479,123.0782 L1779.0565,120 L1776.7479,116.9218 L1784.4433,120 L1776.7479,123.0782 " fill="#A80036" style="stroke:#A80036;stroke-width:1.0;"/><ellipse cx="1606.5" cy="120" fill="#A80036" rx="3" ry="3" style="stroke:#A80036;stroke-width:1.0;stroke-dasharray:3.0,3.0;"/><path d="M1364,120 L1377,120 C1431.4956,120 1494.2406,120 1535.2647,120 " fill="none" style="stroke:#A80036;stroke-width:1.0;stroke-dasharray:3.0,3.0;"/><path d="M1535.2647,123.0613 L1537.5606,120 L1535.2647,116.9387 L1542.9179,120 L1535.2647,123.0613 " fill="#A80036" style="stroke:#A80036;stroke-width:1.0;"/><ellipse cx="1364" cy="120" fill="#A80036" rx="3" ry="3" style="stroke:#A80036;stroke-width:1.0;stroke-dasharray:3.0,3.0;"/><path d="M1364,168 L1377,168 C1386.4551,168 1396.1585,168 1405.9538,168 " fill="none" style="stroke:#A80036;stroke-width:1.0;stroke-dasharray:3.0,3.0;"/><path d="M1405.9538,171.0023 L1408.2055,168 L1405.9538,164.9977 L1413.4596,168 L1405.9538,171.0023 " fill="#A80036" style="stroke:#A80036;stroke-width:1.0;"/><ellipse cx="1364" cy="168" fill="#A80036" rx="3" ry="3" style="stroke:#A80036;stroke-width:1.0;stroke-dasharray:3.0,3.0;"/><path d="M505.5,120 L518.5,120 C605.9423,120 700.9768,120 787.7829,120 " fill="none" style="stroke:#A80036;stroke-width:1.0;stroke-dasharray:3.0,3.0;"/><path d="M787.7829,123.0275 L790.0535,120 L787.7829,116.9725 L795.3516,120 L787.7829,123.0275 " fill="#A80036" style="stroke:#A80036;stroke-width:1.0;"/><ellipse cx="505.5" cy="120" fill="#A80036" rx="3" ry="3" style="stroke:#A80036;stroke-width:1.0;stroke-dasharray:3.0,3.0;"/><path d="M95,96 L108,96 C124.1536,96 127.927,99.388 144,101 C223.6147,108.9848 315.2227,114.1375 377.3987,117.0345 " fill="none" style="stroke:#A80036;stroke-width:1.0;stroke-dasharray:3.0,3.0;"/><path d="M377.2549,120.1597 L379.7426,117.1423 L377.5424,113.9093 L385.2117,117.3939 L377.2549,120.1597 " fill="#A80036" style="stroke:#A80036;stroke-width:1.0;"/><ellipse cx="95" cy="96" fill="#A80036" rx="3" ry="3" style="stroke:#A80036;stroke-width:1.0;stroke-dasharray:3.0,3.0;"/><!--MD5=[cb99d127d98a7d18948fe920c60cf834]
@startjson
{
  "info": {
    "copyright": "Copyright 2016-2019 Open Connectivity Foundation, Inc. All rights reserved.",
    "license": "https://github.com/one-data-model/oneDM/blob/master/LICENSE",
    "title": "Context Health for Glucose Meter",
    "version": "2019-03-22"
  },
  "sdfObject": {
    "glucose.health": {
      "description": "This Resource describes the Properties associated with context\\nhealth. The health Property is a read-only value that is provided by\\nthe Server where minor and major are related to the general health or\\nthe level of illness of the person; menses refers to the female\\nmenstrual cycle; stress refers to physiological or psychological\\nstress.",
      "sdfProperty": {
        "health": {
          "description": "The various levels of health a person feels when taking a glucose.",
          "enum": [
            "minor",
            "major",
            "menses",
            "stress",
            "none"
          ],
          "writable": false,
          "type": "string"
        }
      },
      "sdfRequired": [
        "#/sdfObject/glucose.health/sdfProperty/health"
      ]
    }
  }
}
@endjson

PlantUML version 1.2021.2(Sun Mar 07 13:10:27 EET 2021)
(GPL source distribution)
Java Runtime: OpenJDK Runtime Environment
JVM: OpenJDK 64-Bit Server VM
Default Encoding: UTF-8
Language: en
Country: FI
--></g></svg>