<?xml version="1.0" encoding="UTF-8" standalone="no"?><svg xmlns="http://www.w3.org/2000/svg" xmlns:xlink="http://www.w3.org/1999/xlink" contentScriptType="application/ecmascript" contentStyleType="text/css" height="281px" preserveAspectRatio="none" style="width:2496px;height:281px;" version="1.1" viewBox="0 0 2496 281" width="2496px" zoomAndPan="magnify"><defs/><g><rect fill="#FEFECE" height="40.9766" rx="5" ry="5" style="stroke:#FEFECE;stroke-width:1.5;" width="97" x="10" y="101"/><text fill="#000000" font-family="sans-serif" font-size="14" lengthAdjust="spacing" textLength="27" x="15" y="116.5352">info</text><text fill="#000000" font-family="sans-serif" font-size="14" lengthAdjust="spacing" textLength="0" x="102" y="116.5352"/><line style="stroke:#A80036;stroke-width:1.0;" x1="85" x2="85" y1="101" y2="121.4883"/><line style="stroke:#A80036;stroke-width:1.0;" x1="10" x2="107" y1="121.4883" y2="121.4883"/><text fill="#000000" font-family="sans-serif" font-size="14" lengthAdjust="spacing" textLength="65" x="15" y="137.0234">sdfObject</text><text fill="#000000" font-family="sans-serif" font-size="14" lengthAdjust="spacing" textLength="0" x="102" y="137.0234"/><line style="stroke:#A80036;stroke-width:1.0;" x1="85" x2="85" y1="121.4883" y2="141.9766"/><rect fill="none" height="40.9766" rx="5" ry="5" style="stroke:#A80036;stroke-width:1.5;" width="97" x="10" y="101"/><rect fill="#FEFECE" height="81.9531" rx="5" ry="5" style="stroke:#FEFECE;stroke-width:1.5;" width="655" x="144" y="45.5"/><text fill="#000000" font-family="sans-serif" font-size="14" lengthAdjust="spacing" textLength="65" x="149" y="61.0352">copyright</text><text fill="#000000" font-family="sans-serif" font-size="14" lengthAdjust="spacing" textLength="570" x="224" y="61.0352">copyright 2016-2017, 2019 Open Connectivity Foundation, Inc. All rights reserved.</text><line style="stroke:#A80036;stroke-width:1.0;" x1="219" x2="219" y1="45.5" y2="65.9883"/><line style="stroke:#A80036;stroke-width:1.0;" x1="144" x2="799" y1="65.9883" y2="65.9883"/><text fill="#000000" font-family="sans-serif" font-size="14" lengthAdjust="spacing" textLength="47" x="149" y="81.5234">license</text><text fill="#000000" font-family="sans-serif" font-size="14" lengthAdjust="spacing" textLength="462" x="224" y="81.5234">https://github.com/one-data-model/oneDM/blob/master/LICENSE</text><line style="stroke:#A80036;stroke-width:1.0;" x1="219" x2="219" y1="65.9883" y2="86.4766"/><line style="stroke:#A80036;stroke-width:1.0;" x1="144" x2="799" y1="86.4766" y2="86.4766"/><text fill="#000000" font-family="sans-serif" font-size="14" lengthAdjust="spacing" textLength="26" x="149" y="102.0117">title</text><text fill="#000000" font-family="sans-serif" font-size="14" lengthAdjust="spacing" textLength="92" x="224" y="102.0117">Media Source</text><line style="stroke:#A80036;stroke-width:1.0;" x1="219" x2="219" y1="86.4766" y2="106.9648"/><line style="stroke:#A80036;stroke-width:1.0;" x1="144" x2="799" y1="106.9648" y2="106.9648"/><text fill="#000000" font-family="sans-serif" font-size="14" lengthAdjust="spacing" textLength="50" x="149" y="122.5">version</text><text fill="#000000" font-family="sans-serif" font-size="14" lengthAdjust="spacing" textLength="88" x="224" y="122.5">2019-02-15</text><line style="stroke:#A80036;stroke-width:1.0;" x1="219" x2="219" y1="106.9648" y2="127.4531"/><rect fill="none" height="81.9531" rx="5" ry="5" style="stroke:#A80036;stroke-width:1.5;" width="655" x="144" y="45.5"/><rect fill="#FEFECE" height="20.4883" rx="5" ry="5" style="stroke:#FEFECE;stroke-width:1.5;" width="120" x="411.5" y="145.5"/><text fill="#000000" font-family="sans-serif" font-size="14" lengthAdjust="spacing" textLength="88" x="416.5" y="161.0352">mediasource</text><text fill="#000000" font-family="sans-serif" font-size="14" lengthAdjust="spacing" textLength="0" x="526.5" y="161.0352"/><line style="stroke:#A80036;stroke-width:1.0;" x1="509.5" x2="509.5" y1="145.5" y2="165.9883"/><rect fill="none" height="20.4883" rx="5" ry="5" style="stroke:#A80036;stroke-width:1.5;" width="120" x="411.5" y="145.5"/><rect fill="#FEFECE" height="209.8594" rx="5" ry="5" style="stroke:#FEFECE;stroke-width:1.5;" width="570" x="836" y="50.5"/><text fill="#000000" font-family="sans-serif" font-size="14" lengthAdjust="spacing" textLength="77" x="841" y="66.0352">description</text><text fill="#000000" font-family="sans-serif" font-size="14" lengthAdjust="spacing" textLength="463" x="934" y="66.0352">This Resource defines a single media source that exists on a device.</text><text fill="#000000" font-family="sans-serif" font-size="14" lengthAdjust="spacing" textLength="467" x="934" y="82.5234">The source can be an input source or output source, this resource is</text><text fill="#000000" font-family="sans-serif" font-size="14" lengthAdjust="spacing" textLength="464" x="934" y="99.0117">agnostic of that. The Property "sourceName" specifies a pre-defined</text><text fill="#000000" font-family="sans-serif" font-size="14" lengthAdjust="spacing" textLength="381" x="934" y="115.5">media input or output (e. g. "HDMI", "DVI"). The Property</text><text fill="#000000" font-family="sans-serif" font-size="14" lengthAdjust="spacing" textLength="437" x="934" y="131.9883">"sourceNumber" is a label to specify the instance (e. g. "PC", "1").</text><text fill="#000000" font-family="sans-serif" font-size="14" lengthAdjust="spacing" textLength="456" x="934" y="148.4766">The Property "sourceType" is an enumeration defining whether the</text><text fill="#000000" font-family="sans-serif" font-size="14" lengthAdjust="spacing" textLength="442" x="934" y="164.9648">source is audio, video or both. The Property "status" is a boolean</text><text fill="#000000" font-family="sans-serif" font-size="14" lengthAdjust="spacing" textLength="452" x="934" y="181.4531">that determines if the specific source instance is selected or not. A</text><text fill="#000000" font-family="sans-serif" font-size="14" lengthAdjust="spacing" textLength="446" x="934" y="197.9414">status of true means that the source instance is selected. A status</text><text fill="#000000" font-family="sans-serif" font-size="14" lengthAdjust="spacing" textLength="373" x="934" y="214.4297">of false means that the source instance is not selected.</text><line style="stroke:#A80036;stroke-width:1.0;" x1="929" x2="929" y1="50.5" y2="219.3828"/><line style="stroke:#A80036;stroke-width:1.0;" x1="836" x2="1406" y1="219.3828" y2="219.3828"/><text fill="#000000" font-family="sans-serif" font-size="14" lengthAdjust="spacing" textLength="79" x="841" y="234.918">sdfProperty</text><text fill="#000000" font-family="sans-serif" font-size="14" lengthAdjust="spacing" textLength="0" x="946" y="234.918"/><line style="stroke:#A80036;stroke-width:1.0;" x1="929" x2="929" y1="219.3828" y2="239.8711"/><line style="stroke:#A80036;stroke-width:1.0;" x1="836" x2="1406" y1="239.8711" y2="239.8711"/><text fill="#000000" font-family="sans-serif" font-size="14" lengthAdjust="spacing" textLength="83" x="841" y="255.4063">sdfRequired</text><text fill="#000000" font-family="sans-serif" font-size="14" lengthAdjust="spacing" textLength="0" x="946" y="255.4063"/><line style="stroke:#A80036;stroke-width:1.0;" x1="929" x2="929" y1="239.8711" y2="260.3594"/><rect fill="none" height="209.8594" rx="5" ry="5" style="stroke:#A80036;stroke-width:1.5;" width="570" x="836" y="50.5"/><rect fill="#FEFECE" height="81.9531" rx="5" ry="5" style="stroke:#FEFECE;stroke-width:1.5;" width="133" x="1558.5" y="109.5"/><text fill="#000000" font-family="sans-serif" font-size="14" lengthAdjust="spacing" textLength="41" x="1563.5" y="125.0352">status</text><text fill="#000000" font-family="sans-serif" font-size="14" lengthAdjust="spacing" textLength="0" x="1686.5" y="125.0352"/><line style="stroke:#A80036;stroke-width:1.0;" x1="1669.5" x2="1669.5" y1="109.5" y2="129.9883"/><line style="stroke:#A80036;stroke-width:1.0;" x1="1558.5" x2="1691.5" y1="129.9883" y2="129.9883"/><text fill="#000000" font-family="sans-serif" font-size="14" lengthAdjust="spacing" textLength="79" x="1563.5" y="145.5234">sourceType</text><text fill="#000000" font-family="sans-serif" font-size="14" lengthAdjust="spacing" textLength="0" x="1686.5" y="145.5234"/><line style="stroke:#A80036;stroke-width:1.0;" x1="1669.5" x2="1669.5" y1="129.9883" y2="150.4766"/><line style="stroke:#A80036;stroke-width:1.0;" x1="1558.5" x2="1691.5" y1="150.4766" y2="150.4766"/><text fill="#000000" font-family="sans-serif" font-size="14" lengthAdjust="spacing" textLength="85" x="1563.5" y="166.0117">sourceName</text><text fill="#000000" font-family="sans-serif" font-size="14" lengthAdjust="spacing" textLength="0" x="1686.5" y="166.0117"/><line style="stroke:#A80036;stroke-width:1.0;" x1="1669.5" x2="1669.5" y1="150.4766" y2="170.9648"/><line style="stroke:#A80036;stroke-width:1.0;" x1="1558.5" x2="1691.5" y1="170.9648" y2="170.9648"/><text fill="#000000" font-family="sans-serif" font-size="14" lengthAdjust="spacing" textLength="101" x="1563.5" y="186.5">sourceNumber</text><text fill="#000000" font-family="sans-serif" font-size="14" lengthAdjust="spacing" textLength="0" x="1686.5" y="186.5"/><line style="stroke:#A80036;stroke-width:1.0;" x1="1669.5" x2="1669.5" y1="170.9648" y2="191.4531"/><rect fill="none" height="81.9531" rx="5" ry="5" style="stroke:#A80036;stroke-width:1.5;" width="133" x="1558.5" y="109.5"/><rect fill="#FEFECE" height="40.9766" rx="5" ry="5" style="stroke:#FEFECE;stroke-width:1.5;" width="487" x="1844" y="10"/><text fill="#000000" font-family="sans-serif" font-size="14" lengthAdjust="spacing" textLength="77" x="1849" y="25.5352">description</text><text fill="#000000" font-family="sans-serif" font-size="14" lengthAdjust="spacing" textLength="390" x="1936" y="25.5352">Specifies if the specific source instance is selected or not.</text><line style="stroke:#A80036;stroke-width:1.0;" x1="1931" x2="1931" y1="10" y2="30.4883"/><line style="stroke:#A80036;stroke-width:1.0;" x1="1844" x2="2331" y1="30.4883" y2="30.4883"/><text fill="#000000" font-family="sans-serif" font-size="14" lengthAdjust="spacing" textLength="29" x="1849" y="46.0234">type</text><text fill="#000000" font-family="sans-serif" font-size="14" lengthAdjust="spacing" textLength="56" x="1936" y="46.0234">boolean</text><line style="stroke:#A80036;stroke-width:1.0;" x1="1931" x2="1931" y1="30.4883" y2="50.9766"/><rect fill="none" height="40.9766" rx="5" ry="5" style="stroke:#A80036;stroke-width:1.5;" width="487" x="1844" y="10"/><rect fill="#FEFECE" height="81.9531" rx="5" ry="5" style="stroke:#FEFECE;stroke-width:1.5;" width="314" x="1930.5" y="69.5"/><text fill="#000000" font-family="sans-serif" font-size="14" lengthAdjust="spacing" textLength="77" x="1935.5" y="85.0352">description</text><text fill="#000000" font-family="sans-serif" font-size="14" lengthAdjust="spacing" textLength="217" x="2022.5" y="85.0352">Specifies the type of the source.</text><line style="stroke:#A80036;stroke-width:1.0;" x1="2017.5" x2="2017.5" y1="69.5" y2="89.9883"/><line style="stroke:#A80036;stroke-width:1.0;" x1="1930.5" x2="2244.5" y1="89.9883" y2="89.9883"/><text fill="#000000" font-family="sans-serif" font-size="14" lengthAdjust="spacing" textLength="39" x="1935.5" y="105.5234">enum</text><text fill="#000000" font-family="sans-serif" font-size="14" lengthAdjust="spacing" textLength="0" x="2034.5" y="105.5234"/><line style="stroke:#A80036;stroke-width:1.0;" x1="2017.5" x2="2017.5" y1="89.9883" y2="110.4766"/><line style="stroke:#A80036;stroke-width:1.0;" x1="1930.5" x2="2244.5" y1="110.4766" y2="110.4766"/><text fill="#000000" font-family="sans-serif" font-size="14" lengthAdjust="spacing" textLength="55" x="1935.5" y="126.0117">writable</text><text fill="#000000" font-family="sans-serif" font-size="14" lengthAdjust="spacing" textLength="48" x="2022.5" y="126.0117">☐ false</text><line style="stroke:#A80036;stroke-width:1.0;" x1="2017.5" x2="2017.5" y1="110.4766" y2="130.9648"/><line style="stroke:#A80036;stroke-width:1.0;" x1="1930.5" x2="2244.5" y1="130.9648" y2="130.9648"/><text fill="#000000" font-family="sans-serif" font-size="14" lengthAdjust="spacing" textLength="29" x="1935.5" y="146.5">type</text><text fill="#000000" font-family="sans-serif" font-size="14" lengthAdjust="spacing" textLength="40" x="2022.5" y="146.5">string</text><line style="stroke:#A80036;stroke-width:1.0;" x1="2017.5" x2="2017.5" y1="130.9648" y2="151.4531"/><rect fill="none" height="81.9531" rx="5" ry="5" style="stroke:#A80036;stroke-width:1.5;" width="314" x="1930.5" y="69.5"/><rect fill="#FEFECE" height="61.4648" rx="5" ry="5" style="stroke:#FEFECE;stroke-width:1.5;" width="116" x="2368" y="69"/><text fill="#000000" font-family="sans-serif" font-size="14" lengthAdjust="spacing" textLength="70" x="2373" y="84.5352">audioOnly</text><line style="stroke:#A80036;stroke-width:1.0;" x1="2368" x2="2484" y1="89.4883" y2="89.4883"/><text fill="#000000" font-family="sans-serif" font-size="14" lengthAdjust="spacing" textLength="68" x="2373" y="105.0234">videoOnly</text><line style="stroke:#A80036;stroke-width:1.0;" x1="2368" x2="2484" y1="109.9766" y2="109.9766"/><text fill="#000000" font-family="sans-serif" font-size="14" lengthAdjust="spacing" textLength="106" x="2373" y="125.5117">audioPlusVideo</text><rect fill="none" height="61.4648" rx="5" ry="5" style="stroke:#A80036;stroke-width:1.5;" width="116" x="2368" y="69"/><rect fill="#FEFECE" height="40.9766" rx="5" ry="5" style="stroke:#FEFECE;stroke-width:1.5;" width="415" x="1880" y="170"/><text fill="#000000" font-family="sans-serif" font-size="14" lengthAdjust="spacing" textLength="77" x="1885" y="185.5352">description</text><text fill="#000000" font-family="sans-serif" font-size="14" lengthAdjust="spacing" textLength="318" x="1972" y="185.5352">Specifies a pre-defined media input or output.</text><line style="stroke:#A80036;stroke-width:1.0;" x1="1967" x2="1967" y1="170" y2="190.4883"/><line style="stroke:#A80036;stroke-width:1.0;" x1="1880" x2="2295" y1="190.4883" y2="190.4883"/><text fill="#000000" font-family="sans-serif" font-size="14" lengthAdjust="spacing" textLength="29" x="1885" y="206.0234">type</text><text fill="#000000" font-family="sans-serif" font-size="14" lengthAdjust="spacing" textLength="40" x="1972" y="206.0234">string</text><line style="stroke:#A80036;stroke-width:1.0;" x1="1967" x2="1967" y1="190.4883" y2="210.9766"/><rect fill="none" height="40.9766" rx="5" ry="5" style="stroke:#A80036;stroke-width:1.5;" width="415" x="1880" y="170"/><rect fill="#FEFECE" height="40.9766" rx="5" ry="5" style="stroke:#FEFECE;stroke-width:1.5;" width="293" x="1941" y="229"/><text fill="#000000" font-family="sans-serif" font-size="14" lengthAdjust="spacing" textLength="77" x="1946" y="244.5352">description</text><text fill="#000000" font-family="sans-serif" font-size="14" lengthAdjust="spacing" textLength="196" x="2033" y="244.5352">Label to specify the instance.</text><line style="stroke:#A80036;stroke-width:1.0;" x1="2028" x2="2028" y1="229" y2="249.4883"/><line style="stroke:#A80036;stroke-width:1.0;" x1="1941" x2="2234" y1="249.4883" y2="249.4883"/><text fill="#000000" font-family="sans-serif" font-size="14" lengthAdjust="spacing" textLength="29" x="1946" y="265.0234">type</text><text fill="#000000" font-family="sans-serif" font-size="14" lengthAdjust="spacing" textLength="40" x="2033" y="265.0234">string</text><line style="stroke:#A80036;stroke-width:1.0;" x1="2028" x2="2028" y1="249.4883" y2="269.9766"/><rect fill="none" height="40.9766" rx="5" ry="5" style="stroke:#A80036;stroke-width:1.5;" width="293" x="1941" y="229"/><rect fill="#FEFECE" height="40.9766" rx="5" ry="5" style="stroke:#FEFECE;stroke-width:1.5;" width="364" x="1443" y="210"/><text fill="#000000" font-family="sans-serif" font-size="14" lengthAdjust="spacing" textLength="354" x="1448" y="225.5352">#/sdfObject/mediasource/sdfProperty/sourceName</text><line style="stroke:#A80036;stroke-width:1.0;" x1="1443" x2="1807" y1="230.4883" y2="230.4883"/><text fill="#000000" font-family="sans-serif" font-size="14" lengthAdjust="spacing" textLength="310" x="1448" y="246.0234">#/sdfObject/mediasource/sdfProperty/status</text><rect fill="none" height="40.9766" rx="5" ry="5" style="stroke:#A80036;stroke-width:1.5;" width="364" x="1443" y="210"/><path d="M95,110.5 L108,110.5 C117.3442,110.5 126.8208,110.4198 136.3833,110.2688 " fill="none" style="stroke:#A80036;stroke-width:1.0;stroke-dasharray:3.0,3.0;"/><path d="M136.4378,113.3434 L138.6892,110.2279 L136.3288,107.1942 L144.0697,110.1326 L136.4378,113.3434 " fill="#A80036" style="stroke:#A80036;stroke-width:1.0;"/><ellipse cx="95" cy="110.5" fill="#A80036" rx="3" ry="3" style="stroke:#A80036;stroke-width:1.0;stroke-dasharray:3.0,3.0;"/><path d="M1680.5,119.5 L1693.5,119.5 C1765.3452,119.5 1774.3569,78.1512 1844,60.5 C1855.6018,57.5595 1867.591,54.9029 1879.7421,52.5034 " fill="none" style="stroke:#A80036;stroke-width:1.0;stroke-dasharray:3.0,3.0;"/><path d="M1880.3265,55.5373 L1882.0175,52.0651 L1879.1577,49.4695 L1887.3268,51.0423 L1880.3265,55.5373 " fill="#A80036" style="stroke:#A80036;stroke-width:1.0;"/><ellipse cx="1680.5" cy="119.5" fill="#A80036" rx="3" ry="3" style="stroke:#A80036;stroke-width:1.0;stroke-dasharray:3.0,3.0;"/><path d="M2233,99.5 L2246,99.5 C2283.9534,99.5 2326.4207,99.5 2360.5172,99.5 " fill="none" style="stroke:#A80036;stroke-width:1.0;stroke-dasharray:3.0,3.0;"/><path d="M2360.5172,102.5348 L2362.7933,99.5 L2360.5172,96.4652 L2368.1041,99.5 L2360.5172,102.5348 " fill="#A80036" style="stroke:#A80036;stroke-width:1.0;"/><ellipse cx="2233" cy="99.5" fill="#A80036" rx="3" ry="3" style="stroke:#A80036;stroke-width:1.0;stroke-dasharray:3.0,3.0;"/><path d="M1680.5,139.5 L1693.5,139.5 C1769.0112,139.5 1852.4534,134.1229 1922.9954,127.9995 " fill="none" style="stroke:#A80036;stroke-width:1.0;stroke-dasharray:3.0,3.0;"/><path d="M1923.2642,131.063 L1925.293,127.7979 L1922.7266,124.9361 L1930.6541,127.3274 L1923.2642,131.063 " fill="#A80036" style="stroke:#A80036;stroke-width:1.0;"/><ellipse cx="1680.5" cy="139.5" fill="#A80036" rx="3" ry="3" style="stroke:#A80036;stroke-width:1.0;stroke-dasharray:3.0,3.0;"/><path d="M1680.5,160.5 L1693.5,160.5 C1756.7044,160.5 1825.4544,164.3956 1887.546,169.3792 " fill="none" style="stroke:#A80036;stroke-width:1.0;stroke-dasharray:3.0,3.0;"/><path d="M1887.3009,172.3946 L1889.8075,169.5631 L1887.7912,166.3639 L1895.0844,169.9922 L1887.3009,172.3946 " fill="#A80036" style="stroke:#A80036;stroke-width:1.0;"/><ellipse cx="1680.5" cy="160.5" fill="#A80036" rx="3" ry="3" style="stroke:#A80036;stroke-width:1.0;stroke-dasharray:3.0,3.0;"/><path d="M1680.5,181.5 L1693.5,181.5 C1745.1594,181.5 1759.1159,184.7956 1808,201.5 C1825.1197,207.3501 1826.7282,215.1155 1844,220.5 C1872.4184,229.3594 1903.4827,235.5417 1933.6161,239.8485 " fill="none" style="stroke:#A80036;stroke-width:1.0;stroke-dasharray:3.0,3.0;"/><path d="M1933.1941,242.9041 L1935.9077,240.1651 L1934.0381,236.793 L1941.2549,240.9036 L1933.1941,242.9041 " fill="#A80036" style="stroke:#A80036;stroke-width:1.0;"/><ellipse cx="1680.5" cy="181.5" fill="#A80036" rx="3" ry="3" style="stroke:#A80036;stroke-width:1.0;stroke-dasharray:3.0,3.0;"/><path d="M1394,155.5 L1407,155.5 C1455.0023,155.5 1508.9481,154.2677 1551.1057,153.0267 " fill="none" style="stroke:#A80036;stroke-width:1.0;stroke-dasharray:3.0,3.0;"/><path d="M1551.1983,156.1188 L1553.4248,152.9572 L1551.013,149.9345 L1558.8361,152.7951 L1551.1983,156.1188 " fill="#A80036" style="stroke:#A80036;stroke-width:1.0;"/><ellipse cx="1394" cy="155.5" fill="#A80036" rx="3" ry="3" style="stroke:#A80036;stroke-width:1.0;stroke-dasharray:3.0,3.0;"/><path d="M1394,225.5 L1407,225.5 C1416.3135,225.5 1425.8507,225.5464 1435.4822,225.6302 " fill="none" style="stroke:#A80036;stroke-width:1.0;stroke-dasharray:3.0,3.0;"/><path d="M1435.4522,228.727 L1437.8048,225.6528 L1435.5122,222.5334 L1443.2242,225.7053 L1435.4522,228.727 " fill="#A80036" style="stroke:#A80036;stroke-width:1.0;"/><ellipse cx="1394" cy="225.5" fill="#A80036" rx="3" ry="3" style="stroke:#A80036;stroke-width:1.0;stroke-dasharray:3.0,3.0;"/><path d="M520,155.5 L533,155.5 C629.2038,155.5 734.269,155.5 828.6062,155.5 " fill="none" style="stroke:#A80036;stroke-width:1.0;stroke-dasharray:3.0,3.0;"/><path d="M828.6062,158.5561 L830.8983,155.5 L828.6062,152.4439 L836.2465,155.5 L828.6062,158.5561 " fill="#A80036" style="stroke:#A80036;stroke-width:1.0;"/><ellipse cx="520" cy="155.5" fill="#A80036" rx="3" ry="3" style="stroke:#A80036;stroke-width:1.0;stroke-dasharray:3.0,3.0;"/><path d="M95,131.5 L108,131.5 C124.1536,131.5 127.924,134.9191 144,136.5 C233.7318,145.324 337.7492,150.506 403.9353,153.1725 " fill="none" style="stroke:#A80036;stroke-width:1.0;stroke-dasharray:3.0,3.0;"/><path d="M403.8102,156.3247 L406.2995,153.2664 L404.0605,150.0204 L411.8158,153.4853 L403.8102,156.3247 " fill="#A80036" style="stroke:#A80036;stroke-width:1.0;"/><ellipse cx="95" cy="131.5" fill="#A80036" rx="3" ry="3" style="stroke:#A80036;stroke-width:1.0;stroke-dasharray:3.0,3.0;"/><!--MD5=[8dabff7d1d9340a2799d2acd0ea6de40]
@startjson
{
  "info": {
    "copyright": "copyright 2016-2017, 2019 Open Connectivity Foundation, Inc. All rights reserved.",
    "license": "https://github.com/one-data-model/oneDM/blob/master/LICENSE",
    "title": "Media Source",
    "version": "2019-02-15"
  },
  "sdfObject": {
    "mediasource": {
      "description": "This Resource defines a single media source that exists on a device.\\nThe source can be an input source or output source, this resource is\\nagnostic of that. The Property \"sourceName\" specifies a pre-defined\\nmedia input or output (e. g. \"HDMI\", \"DVI\"). The Property\\n\"sourceNumber\" is a label to specify the instance (e. g. \"PC\", \"1\").\\nThe Property \"sourceType\" is an enumeration defining whether the\\nsource is audio, video or both. The Property \"status\" is a boolean\\nthat determines if the specific source instance is selected or not. A\\nstatus of true means that the source instance is selected. A status\\nof false means that the source instance is not selected.",
      "sdfProperty": {
        "status": {
          "description": "Specifies if the specific source instance is selected or not.",
          "type": "boolean"
        },
        "sourceType": {
          "description": "Specifies the type of the source.",
          "enum": [
            "audioOnly",
            "videoOnly",
            "audioPlusVideo"
          ],
          "writable": false,
          "type": "string"
        },
        "sourceName": {
          "description": "Specifies a pre-defined media input or output.",
          "type": "string"
        },
        "sourceNumber": {
          "description": "Label to specify the instance.",
          "type": "string"
        }
      },
      "sdfRequired": [
        "#/sdfObject/mediasource/sdfProperty/sourceName",
        "#/sdfObject/mediasource/sdfProperty/status"
      ]
    }
  }
}
@endjson

PlantUML version 1.2021.2(Sun Mar 07 13:10:27 EET 2021)
(GPL source distribution)
Java Runtime: OpenJDK Runtime Environment
JVM: OpenJDK 64-Bit Server VM
Default Encoding: UTF-8
Language: en
Country: FI
--></g></svg>