<?xml version="1.0" encoding="UTF-8" standalone="no"?><svg xmlns="http://www.w3.org/2000/svg" xmlns:xlink="http://www.w3.org/1999/xlink" contentScriptType="application/ecmascript" contentStyleType="text/css" height="187px" preserveAspectRatio="none" style="width:2349px;height:187px;" version="1.1" viewBox="0 0 2349 187" width="2349px" zoomAndPan="magnify"><defs/><g><rect fill="#FEFECE" height="40.9766" rx="5" ry="5" style="stroke:#FEFECE;stroke-width:1.5;" width="97" x="10" y="65.5"/><text fill="#000000" font-family="sans-serif" font-size="14" lengthAdjust="spacing" textLength="27" x="15" y="81.0352">info</text><text fill="#000000" font-family="sans-serif" font-size="14" lengthAdjust="spacing" textLength="0" x="102" y="81.0352"/><line style="stroke:#A80036;stroke-width:1.0;" x1="85" x2="85" y1="65.5" y2="85.9883"/><line style="stroke:#A80036;stroke-width:1.0;" x1="10" x2="107" y1="85.9883" y2="85.9883"/><text fill="#000000" font-family="sans-serif" font-size="14" lengthAdjust="spacing" textLength="65" x="15" y="101.5234">sdfObject</text><text fill="#000000" font-family="sans-serif" font-size="14" lengthAdjust="spacing" textLength="0" x="102" y="101.5234"/><line style="stroke:#A80036;stroke-width:1.0;" x1="85" x2="85" y1="85.9883" y2="106.4766"/><rect fill="none" height="40.9766" rx="5" ry="5" style="stroke:#A80036;stroke-width:1.5;" width="97" x="10" y="65.5"/><rect fill="#FEFECE" height="81.9531" rx="5" ry="5" style="stroke:#FEFECE;stroke-width:1.5;" width="614" x="144" y="10"/><text fill="#000000" font-family="sans-serif" font-size="14" lengthAdjust="spacing" textLength="65" x="149" y="25.5352">copyright</text><text fill="#000000" font-family="sans-serif" font-size="14" lengthAdjust="spacing" textLength="529" x="224" y="25.5352">Copyright 2018-2019 Open Connectivity Foundation, Inc. All rights reserved.</text><line style="stroke:#A80036;stroke-width:1.0;" x1="219" x2="219" y1="10" y2="30.4883"/><line style="stroke:#A80036;stroke-width:1.0;" x1="144" x2="758" y1="30.4883" y2="30.4883"/><text fill="#000000" font-family="sans-serif" font-size="14" lengthAdjust="spacing" textLength="47" x="149" y="46.0234">license</text><text fill="#000000" font-family="sans-serif" font-size="14" lengthAdjust="spacing" textLength="462" x="224" y="46.0234">https://github.com/one-data-model/oneDM/blob/master/LICENSE</text><line style="stroke:#A80036;stroke-width:1.0;" x1="219" x2="219" y1="30.4883" y2="50.9766"/><line style="stroke:#A80036;stroke-width:1.0;" x1="144" x2="758" y1="50.9766" y2="50.9766"/><text fill="#000000" font-family="sans-serif" font-size="14" lengthAdjust="spacing" textLength="26" x="149" y="66.5117">title</text><text fill="#000000" font-family="sans-serif" font-size="14" lengthAdjust="spacing" textLength="131" x="224" y="66.5117">Auto White Balance</text><line style="stroke:#A80036;stroke-width:1.0;" x1="219" x2="219" y1="50.9766" y2="71.4648"/><line style="stroke:#A80036;stroke-width:1.0;" x1="144" x2="758" y1="71.4648" y2="71.4648"/><text fill="#000000" font-family="sans-serif" font-size="14" lengthAdjust="spacing" textLength="50" x="149" y="87">version</text><text fill="#000000" font-family="sans-serif" font-size="14" lengthAdjust="spacing" textLength="88" x="224" y="87">2019-02-22</text><line style="stroke:#A80036;stroke-width:1.0;" x1="219" x2="219" y1="71.4648" y2="91.9531"/><rect fill="none" height="81.9531" rx="5" ry="5" style="stroke:#A80036;stroke-width:1.5;" width="614" x="144" y="10"/><rect fill="#FEFECE" height="20.4883" rx="5" ry="5" style="stroke:#FEFECE;stroke-width:1.5;" width="201" x="350.5" y="110"/><text fill="#000000" font-family="sans-serif" font-size="14" lengthAdjust="spacing" textLength="169" x="355.5" y="125.5352">colour.autowhitebalance</text><text fill="#000000" font-family="sans-serif" font-size="14" lengthAdjust="spacing" textLength="0" x="546.5" y="125.5352"/><line style="stroke:#A80036;stroke-width:1.0;" x1="529.5" x2="529.5" y1="110" y2="130.4883"/><rect fill="none" height="20.4883" rx="5" ry="5" style="stroke:#A80036;stroke-width:1.5;" width="201" x="350.5" y="110"/><rect fill="#FEFECE" height="110.9297" rx="5" ry="5" style="stroke:#FEFECE;stroke-width:1.5;" width="582" x="795" y="64.5"/><text fill="#000000" font-family="sans-serif" font-size="14" lengthAdjust="spacing" textLength="77" x="800" y="80.0352">description</text><text fill="#000000" font-family="sans-serif" font-size="14" lengthAdjust="spacing" textLength="475" x="893" y="80.0352">This Resource describes an auto balance on/off feature. The Property</text><text fill="#000000" font-family="sans-serif" font-size="14" lengthAdjust="spacing" textLength="468" x="893" y="96.5234">"autoWhiteBalance" is a boolean. An AutoWhiteBalance value of 'true'</text><text fill="#000000" font-family="sans-serif" font-size="14" lengthAdjust="spacing" textLength="479" x="893" y="113.0117">means that the auto white balance feature is on. An AutoWhiteBalance</text><text fill="#000000" font-family="sans-serif" font-size="14" lengthAdjust="spacing" textLength="430" x="893" y="129.5">value of 'false' means that the auto white balance feature is off.</text><line style="stroke:#A80036;stroke-width:1.0;" x1="888" x2="888" y1="64.5" y2="134.4531"/><line style="stroke:#A80036;stroke-width:1.0;" x1="795" x2="1377" y1="134.4531" y2="134.4531"/><text fill="#000000" font-family="sans-serif" font-size="14" lengthAdjust="spacing" textLength="79" x="800" y="149.9883">sdfProperty</text><text fill="#000000" font-family="sans-serif" font-size="14" lengthAdjust="spacing" textLength="0" x="905" y="149.9883"/><line style="stroke:#A80036;stroke-width:1.0;" x1="888" x2="888" y1="134.4531" y2="154.9414"/><line style="stroke:#A80036;stroke-width:1.0;" x1="795" x2="1377" y1="154.9414" y2="154.9414"/><text fill="#000000" font-family="sans-serif" font-size="14" lengthAdjust="spacing" textLength="83" x="800" y="170.4766">sdfRequired</text><text fill="#000000" font-family="sans-serif" font-size="14" lengthAdjust="spacing" textLength="0" x="905" y="170.4766"/><line style="stroke:#A80036;stroke-width:1.0;" x1="888" x2="888" y1="154.9414" y2="175.4297"/><rect fill="none" height="110.9297" rx="5" ry="5" style="stroke:#A80036;stroke-width:1.5;" width="582" x="795" y="64.5"/><rect fill="#FEFECE" height="20.4883" rx="5" ry="5" style="stroke:#FEFECE;stroke-width:1.5;" width="153" x="1578" y="110"/><text fill="#000000" font-family="sans-serif" font-size="14" lengthAdjust="spacing" textLength="121" x="1583" y="125.5352">autoWhiteBalance</text><text fill="#000000" font-family="sans-serif" font-size="14" lengthAdjust="spacing" textLength="0" x="1726" y="125.5352"/><line style="stroke:#A80036;stroke-width:1.0;" x1="1709" x2="1709" y1="110" y2="130.4883"/><rect fill="none" height="20.4883" rx="5" ry="5" style="stroke:#A80036;stroke-width:1.5;" width="153" x="1578" y="110"/><rect fill="#FEFECE" height="40.9766" rx="5" ry="5" style="stroke:#FEFECE;stroke-width:1.5;" width="405" x="1932" y="99.5"/><text fill="#000000" font-family="sans-serif" font-size="14" lengthAdjust="spacing" textLength="77" x="1937" y="115.0352">description</text><text fill="#000000" font-family="sans-serif" font-size="14" lengthAdjust="spacing" textLength="308" x="2024" y="115.0352">The status of the Auto White balance feature.</text><line style="stroke:#A80036;stroke-width:1.0;" x1="2019" x2="2019" y1="99.5" y2="119.9883"/><line style="stroke:#A80036;stroke-width:1.0;" x1="1932" x2="2337" y1="119.9883" y2="119.9883"/><text fill="#000000" font-family="sans-serif" font-size="14" lengthAdjust="spacing" textLength="29" x="1937" y="135.5234">type</text><text fill="#000000" font-family="sans-serif" font-size="14" lengthAdjust="spacing" textLength="56" x="2024" y="135.5234">boolean</text><line style="stroke:#A80036;stroke-width:1.0;" x1="2019" x2="2019" y1="119.9883" y2="140.4766"/><rect fill="none" height="40.9766" rx="5" ry="5" style="stroke:#A80036;stroke-width:1.5;" width="405" x="1932" y="99.5"/><rect fill="#FEFECE" height="20.4883" rx="5" ry="5" style="stroke:#FEFECE;stroke-width:1.5;" width="481" x="1414" y="148"/><text fill="#000000" font-family="sans-serif" font-size="14" lengthAdjust="spacing" textLength="471" x="1419" y="163.5352">#/sdfObject/colour.autowhitebalance/sdfProperty/autoWhiteBalance</text><rect fill="none" height="20.4883" rx="5" ry="5" style="stroke:#A80036;stroke-width:1.5;" width="481" x="1414" y="148"/><path d="M95,75 L108,75 C117.4068,75 126.9554,74.9088 136.5926,74.7376 " fill="none" style="stroke:#A80036;stroke-width:1.0;stroke-dasharray:3.0,3.0;"/><path d="M136.6543,77.8363 L138.9166,74.6914 L136.5309,71.6389 L144.3394,74.5834 L136.6543,77.8363 " fill="#A80036" style="stroke:#A80036;stroke-width:1.0;"/><ellipse cx="95" cy="75" fill="#A80036" rx="3" ry="3" style="stroke:#A80036;stroke-width:1.0;stroke-dasharray:3.0,3.0;"/><path d="M1720,120 L1733,120 C1795.2993,120 1863.043,120 1924.8122,120 " fill="none" style="stroke:#A80036;stroke-width:1.0;stroke-dasharray:3.0,3.0;"/><path d="M1924.8122,123.001 L1927.063,120 L1924.8122,116.999 L1932.3147,120 L1924.8122,123.001 " fill="#A80036" style="stroke:#A80036;stroke-width:1.0;"/><ellipse cx="1720" cy="120" fill="#A80036" rx="3" ry="3" style="stroke:#A80036;stroke-width:1.0;stroke-dasharray:3.0,3.0;"/><path d="M1365,120 L1378,120 C1442.7563,120 1516.0589,120 1570.838,120 " fill="none" style="stroke:#A80036;stroke-width:1.0;stroke-dasharray:3.0,3.0;"/><path d="M1570.838,123.0415 L1573.1191,120 L1570.838,116.9585 L1578.4418,120 L1570.838,123.0415 " fill="#A80036" style="stroke:#A80036;stroke-width:1.0;"/><ellipse cx="1365" cy="120" fill="#A80036" rx="3" ry="3" style="stroke:#A80036;stroke-width:1.0;stroke-dasharray:3.0,3.0;"/><path d="M1365,157 L1378,157 C1387.3578,157 1396.8942,157.0058 1406.5272,157.0166 " fill="none" style="stroke:#A80036;stroke-width:1.0;stroke-dasharray:3.0,3.0;"/><path d="M1406.5234,160.1145 L1408.8507,157.0195 L1406.5311,153.9187 L1414.272,157.0262 L1406.5234,160.1145 " fill="#A80036" style="stroke:#A80036;stroke-width:1.0;"/><ellipse cx="1365" cy="157" fill="#A80036" rx="3" ry="3" style="stroke:#A80036;stroke-width:1.0;stroke-dasharray:3.0,3.0;"/><path d="M540.5,120 L553.5,120 C629.2887,120 711.1505,120 787.4055,120 " fill="none" style="stroke:#A80036;stroke-width:1.0;stroke-dasharray:3.0,3.0;"/><path d="M787.4055,123.1345 L789.7564,120 L787.4055,116.8655 L795.2418,120 L787.4055,123.1345 " fill="#A80036" style="stroke:#A80036;stroke-width:1.0;"/><ellipse cx="540.5" cy="120" fill="#A80036" rx="3" ry="3" style="stroke:#A80036;stroke-width:1.0;stroke-dasharray:3.0,3.0;"/><path d="M95,96 L108,96 C124.1536,96 127.927,99.388 144,101 C209.9989,107.6192 284.2397,112.2922 343.1232,115.3474 " fill="none" style="stroke:#A80036;stroke-width:1.0;stroke-dasharray:3.0,3.0;"/><path d="M342.9625,118.4818 L345.4741,115.4679 L343.2839,112.2129 L350.9595,115.7491 L342.9625,118.4818 " fill="#A80036" style="stroke:#A80036;stroke-width:1.0;"/><ellipse cx="95" cy="96" fill="#A80036" rx="3" ry="3" style="stroke:#A80036;stroke-width:1.0;stroke-dasharray:3.0,3.0;"/><!--MD5=[771b31dea6ae04cadb15a69de205549f]
@startjson
{
  "info": {
    "copyright": "Copyright 2018-2019 Open Connectivity Foundation, Inc. All rights reserved.",
    "license": "https://github.com/one-data-model/oneDM/blob/master/LICENSE",
    "title": "Auto White Balance",
    "version": "2019-02-22"
  },
  "sdfObject": {
    "colour.autowhitebalance": {
      "description": "This Resource describes an auto balance on/off feature. The Property\\n\"autoWhiteBalance\" is a boolean. An AutoWhiteBalance value of 'true'\\nmeans that the auto white balance feature is on. An AutoWhiteBalance\\nvalue of 'false' means that the auto white balance feature is off.",
      "sdfProperty": {
        "autoWhiteBalance": {
          "description": "The status of the Auto White balance feature.",
          "type": "boolean"
        }
      },
      "sdfRequired": [
        "#/sdfObject/colour.autowhitebalance/sdfProperty/autoWhiteBalance"
      ]
    }
  }
}
@endjson

PlantUML version 1.2021.2(Sun Mar 07 13:10:27 EET 2021)
(GPL source distribution)
Java Runtime: OpenJDK Runtime Environment
JVM: OpenJDK 64-Bit Server VM
Default Encoding: UTF-8
Language: en
Country: FI
--></g></svg>