<?xml version="1.0" encoding="UTF-8" standalone="no"?><svg xmlns="http://www.w3.org/2000/svg" xmlns:xlink="http://www.w3.org/1999/xlink" contentScriptType="application/ecmascript" contentStyleType="text/css" height="607px" preserveAspectRatio="none" style="width:2582px;height:607px;" version="1.1" viewBox="0 0 2582 607" width="2582px" zoomAndPan="magnify"><defs/><g><rect fill="#FEFECE" height="40.9766" rx="5" ry="5" style="stroke:#FEFECE;stroke-width:1.5;" width="97" x="10" y="208"/><text fill="#000000" font-family="sans-serif" font-size="14" lengthAdjust="spacing" textLength="27" x="15" y="223.5352">info</text><text fill="#000000" font-family="sans-serif" font-size="14" lengthAdjust="spacing" textLength="0" x="102" y="223.5352"/><line style="stroke:#A80036;stroke-width:1.0;" x1="85" x2="85" y1="208" y2="228.4883"/><line style="stroke:#A80036;stroke-width:1.0;" x1="10" x2="107" y1="228.4883" y2="228.4883"/><text fill="#000000" font-family="sans-serif" font-size="14" lengthAdjust="spacing" textLength="65" x="15" y="244.0234">sdfObject</text><text fill="#000000" font-family="sans-serif" font-size="14" lengthAdjust="spacing" textLength="0" x="102" y="244.0234"/><line style="stroke:#A80036;stroke-width:1.0;" x1="85" x2="85" y1="228.4883" y2="248.9766"/><rect fill="none" height="40.9766" rx="5" ry="5" style="stroke:#A80036;stroke-width:1.5;" width="97" x="10" y="208"/><rect fill="#FEFECE" height="81.9531" rx="5" ry="5" style="stroke:#FEFECE;stroke-width:1.5;" width="655" x="144" y="152.5"/><text fill="#000000" font-family="sans-serif" font-size="14" lengthAdjust="spacing" textLength="65" x="149" y="168.0352">copyright</text><text fill="#000000" font-family="sans-serif" font-size="14" lengthAdjust="spacing" textLength="570" x="224" y="168.0352">copyright 2016-2017, 2019 Open Connectivity Foundation, Inc. All rights reserved.</text><line style="stroke:#A80036;stroke-width:1.0;" x1="219" x2="219" y1="152.5" y2="172.9883"/><line style="stroke:#A80036;stroke-width:1.0;" x1="144" x2="799" y1="172.9883" y2="172.9883"/><text fill="#000000" font-family="sans-serif" font-size="14" lengthAdjust="spacing" textLength="47" x="149" y="188.5234">license</text><text fill="#000000" font-family="sans-serif" font-size="14" lengthAdjust="spacing" textLength="462" x="224" y="188.5234">https://github.com/one-data-model/oneDM/blob/master/LICENSE</text><line style="stroke:#A80036;stroke-width:1.0;" x1="219" x2="219" y1="172.9883" y2="193.4766"/><line style="stroke:#A80036;stroke-width:1.0;" x1="144" x2="799" y1="193.4766" y2="193.4766"/><text fill="#000000" font-family="sans-serif" font-size="14" lengthAdjust="spacing" textLength="26" x="149" y="209.0117">title</text><text fill="#000000" font-family="sans-serif" font-size="14" lengthAdjust="spacing" textLength="89" x="224" y="209.0117">Temperature</text><line style="stroke:#A80036;stroke-width:1.0;" x1="219" x2="219" y1="193.4766" y2="213.9648"/><line style="stroke:#A80036;stroke-width:1.0;" x1="144" x2="799" y1="213.9648" y2="213.9648"/><text fill="#000000" font-family="sans-serif" font-size="14" lengthAdjust="spacing" textLength="50" x="149" y="229.5">version</text><text fill="#000000" font-family="sans-serif" font-size="14" lengthAdjust="spacing" textLength="88" x="224" y="229.5">2019-02-15</text><line style="stroke:#A80036;stroke-width:1.0;" x1="219" x2="219" y1="213.9648" y2="234.4531"/><rect fill="none" height="81.9531" rx="5" ry="5" style="stroke:#A80036;stroke-width:1.5;" width="655" x="144" y="152.5"/><rect fill="#FEFECE" height="20.4883" rx="5" ry="5" style="stroke:#FEFECE;stroke-width:1.5;" width="117" x="413" y="252.5"/><text fill="#000000" font-family="sans-serif" font-size="14" lengthAdjust="spacing" textLength="85" x="418" y="268.0352">temperature</text><text fill="#000000" font-family="sans-serif" font-size="14" lengthAdjust="spacing" textLength="0" x="525" y="268.0352"/><line style="stroke:#A80036;stroke-width:1.0;" x1="508" x2="508" y1="252.5" y2="272.9883"/><rect fill="none" height="20.4883" rx="5" ry="5" style="stroke:#A80036;stroke-width:1.5;" width="117" x="413" y="252.5"/><rect fill="#FEFECE" height="226.3477" rx="5" ry="5" style="stroke:#FEFECE;stroke-width:1.5;" width="581" x="836" y="149.5"/><text fill="#000000" font-family="sans-serif" font-size="14" lengthAdjust="spacing" textLength="77" x="841" y="165.0352">description</text><text fill="#000000" font-family="sans-serif" font-size="14" lengthAdjust="spacing" textLength="478" x="934" y="165.0352">This Resource describes a sensed or actuated Temperature value. The</text><text fill="#000000" font-family="sans-serif" font-size="14" lengthAdjust="spacing" textLength="452" x="934" y="181.5234">Property "temperature" describes the current value measured. The</text><text fill="#000000" font-family="sans-serif" font-size="14" lengthAdjust="spacing" textLength="421" x="934" y="198.0117">Property "units" is a single value that is one of "C", "F" or "K". It</text><text fill="#000000" font-family="sans-serif" font-size="14" lengthAdjust="spacing" textLength="465" x="934" y="214.5">provides the unit of measurement for the "temperature" value. It is a</text><text fill="#000000" font-family="sans-serif" font-size="14" lengthAdjust="spacing" textLength="402" x="934" y="230.9883">read-only value that is provided by the server. If the "units"</text><text fill="#000000" font-family="sans-serif" font-size="14" lengthAdjust="spacing" textLength="434" x="934" y="247.4766">Property is missing the default is Celsius [C]. When the Property</text><text fill="#000000" font-family="sans-serif" font-size="14" lengthAdjust="spacing" textLength="441" x="934" y="263.9648">"range" is omitted the default is +/- MAXINT. A client can specify</text><text fill="#000000" font-family="sans-serif" font-size="14" lengthAdjust="spacing" textLength="472" x="934" y="280.4531">the units for the requested temperature by use of a query parameter.</text><text fill="#000000" font-family="sans-serif" font-size="14" lengthAdjust="spacing" textLength="436" x="934" y="296.9414">If no query parameter is provided the server provides its default</text><text fill="#000000" font-family="sans-serif" font-size="14" lengthAdjust="spacing" textLength="455" x="934" y="313.4297">measure or set value. It is recommended to return always the units</text><text fill="#000000" font-family="sans-serif" font-size="14" lengthAdjust="spacing" textLength="148" x="934" y="329.918">Property in the result.</text><line style="stroke:#A80036;stroke-width:1.0;" x1="929" x2="929" y1="149.5" y2="334.8711"/><line style="stroke:#A80036;stroke-width:1.0;" x1="836" x2="1417" y1="334.8711" y2="334.8711"/><text fill="#000000" font-family="sans-serif" font-size="14" lengthAdjust="spacing" textLength="79" x="841" y="350.4063">sdfProperty</text><text fill="#000000" font-family="sans-serif" font-size="14" lengthAdjust="spacing" textLength="0" x="946" y="350.4063"/><line style="stroke:#A80036;stroke-width:1.0;" x1="929" x2="929" y1="334.8711" y2="355.3594"/><line style="stroke:#A80036;stroke-width:1.0;" x1="836" x2="1417" y1="355.3594" y2="355.3594"/><text fill="#000000" font-family="sans-serif" font-size="14" lengthAdjust="spacing" textLength="83" x="841" y="370.8945">sdfRequired</text><text fill="#000000" font-family="sans-serif" font-size="14" lengthAdjust="spacing" textLength="0" x="946" y="370.8945"/><line style="stroke:#A80036;stroke-width:1.0;" x1="929" x2="929" y1="355.3594" y2="375.8477"/><rect fill="none" height="226.3477" rx="5" ry="5" style="stroke:#A80036;stroke-width:1.5;" width="581" x="836" y="149.5"/><rect fill="#FEFECE" height="102.4414" rx="5" ry="5" style="stroke:#FEFECE;stroke-width:1.5;" width="117" x="1576" y="209.5"/><text fill="#000000" font-family="sans-serif" font-size="14" lengthAdjust="spacing" textLength="85" x="1581" y="225.0352">temperature</text><text fill="#000000" font-family="sans-serif" font-size="14" lengthAdjust="spacing" textLength="0" x="1688" y="225.0352"/><line style="stroke:#A80036;stroke-width:1.0;" x1="1671" x2="1671" y1="209.5" y2="229.9883"/><line style="stroke:#A80036;stroke-width:1.0;" x1="1576" x2="1693" y1="229.9883" y2="229.9883"/><text fill="#000000" font-family="sans-serif" font-size="14" lengthAdjust="spacing" textLength="34" x="1581" y="245.5234">units</text><text fill="#000000" font-family="sans-serif" font-size="14" lengthAdjust="spacing" textLength="0" x="1688" y="245.5234"/><line style="stroke:#A80036;stroke-width:1.0;" x1="1671" x2="1671" y1="229.9883" y2="250.4766"/><line style="stroke:#A80036;stroke-width:1.0;" x1="1576" x2="1693" y1="250.4766" y2="250.4766"/><text fill="#000000" font-family="sans-serif" font-size="14" lengthAdjust="spacing" textLength="40" x="1581" y="266.0117">range</text><text fill="#000000" font-family="sans-serif" font-size="14" lengthAdjust="spacing" textLength="0" x="1688" y="266.0117"/><line style="stroke:#A80036;stroke-width:1.0;" x1="1671" x2="1671" y1="250.4766" y2="270.9648"/><line style="stroke:#A80036;stroke-width:1.0;" x1="1576" x2="1693" y1="270.9648" y2="270.9648"/><text fill="#000000" font-family="sans-serif" font-size="14" lengthAdjust="spacing" textLength="29" x="1581" y="286.5">step</text><text fill="#000000" font-family="sans-serif" font-size="14" lengthAdjust="spacing" textLength="0" x="1688" y="286.5"/><line style="stroke:#A80036;stroke-width:1.0;" x1="1671" x2="1671" y1="270.9648" y2="291.4531"/><line style="stroke:#A80036;stroke-width:1.0;" x1="1576" x2="1693" y1="291.4531" y2="291.4531"/><text fill="#000000" font-family="sans-serif" font-size="14" lengthAdjust="spacing" textLength="63" x="1581" y="306.9883">precision</text><text fill="#000000" font-family="sans-serif" font-size="14" lengthAdjust="spacing" textLength="0" x="1688" y="306.9883"/><line style="stroke:#A80036;stroke-width:1.0;" x1="1671" x2="1671" y1="291.4531" y2="311.9414"/><rect fill="none" height="102.4414" rx="5" ry="5" style="stroke:#A80036;stroke-width:1.5;" width="117" x="1576" y="209.5"/><rect fill="#FEFECE" height="40.9766" rx="5" ry="5" style="stroke:#FEFECE;stroke-width:1.5;" width="438" x="1922" y="10"/><text fill="#000000" font-family="sans-serif" font-size="14" lengthAdjust="spacing" textLength="77" x="1927" y="25.5352">description</text><text fill="#000000" font-family="sans-serif" font-size="14" lengthAdjust="spacing" textLength="341" x="2014" y="25.5352">The current temperature setting or measurement.</text><line style="stroke:#A80036;stroke-width:1.0;" x1="2009" x2="2009" y1="10" y2="30.4883"/><line style="stroke:#A80036;stroke-width:1.0;" x1="1922" x2="2360" y1="30.4883" y2="30.4883"/><text fill="#000000" font-family="sans-serif" font-size="14" lengthAdjust="spacing" textLength="29" x="1927" y="46.0234">type</text><text fill="#000000" font-family="sans-serif" font-size="14" lengthAdjust="spacing" textLength="54" x="2014" y="46.0234">number</text><line style="stroke:#A80036;stroke-width:1.0;" x1="2009" x2="2009" y1="30.4883" y2="50.9766"/><rect fill="none" height="40.9766" rx="5" ry="5" style="stroke:#A80036;stroke-width:1.5;" width="438" x="1922" y="10"/><rect fill="#FEFECE" height="94.4414" rx="5" ry="5" style="stroke:#FEFECE;stroke-width:1.5;" width="578" x="1852" y="69.5"/><text fill="#000000" font-family="sans-serif" font-size="14" lengthAdjust="spacing" textLength="77" x="1857" y="85.0352">description</text><text fill="#000000" font-family="sans-serif" font-size="14" lengthAdjust="spacing" textLength="481" x="1944" y="85.0352">The unit for the conveyed temperature value, Note that when doing an</text><text fill="#000000" font-family="sans-serif" font-size="14" lengthAdjust="spacing" textLength="477" x="1944" y="101.5234">UPDATE, the unit on the device does NOT change, it only indicates the</text><text fill="#000000" font-family="sans-serif" font-size="14" lengthAdjust="spacing" textLength="389" x="1944" y="118.0117">unit of the conveyed value during the UPDATE operation.</text><line style="stroke:#A80036;stroke-width:1.0;" x1="1939" x2="1939" y1="69.5" y2="122.9648"/><line style="stroke:#A80036;stroke-width:1.0;" x1="1852" x2="2430" y1="122.9648" y2="122.9648"/><text fill="#000000" font-family="sans-serif" font-size="14" lengthAdjust="spacing" textLength="39" x="1857" y="138.5">enum</text><text fill="#000000" font-family="sans-serif" font-size="14" lengthAdjust="spacing" textLength="0" x="1956" y="138.5"/><line style="stroke:#A80036;stroke-width:1.0;" x1="1939" x2="1939" y1="122.9648" y2="143.4531"/><line style="stroke:#A80036;stroke-width:1.0;" x1="1852" x2="2430" y1="143.4531" y2="143.4531"/><text fill="#000000" font-family="sans-serif" font-size="14" lengthAdjust="spacing" textLength="29" x="1857" y="158.9883">type</text><text fill="#000000" font-family="sans-serif" font-size="14" lengthAdjust="spacing" textLength="40" x="1944" y="158.9883">string</text><line style="stroke:#A80036;stroke-width:1.0;" x1="1939" x2="1939" y1="143.4531" y2="163.9414"/><rect fill="none" height="94.4414" rx="5" ry="5" style="stroke:#A80036;stroke-width:1.5;" width="578" x="1852" y="69.5"/><rect fill="#FEFECE" height="61.4648" rx="5" ry="5" style="stroke:#FEFECE;stroke-width:1.5;" width="20" x="2506.5" y="85"/><text fill="#000000" font-family="sans-serif" font-size="14" lengthAdjust="spacing" textLength="10" x="2511.5" y="100.5352">C</text><line style="stroke:#A80036;stroke-width:1.0;" x1="2506.5" x2="2526.5" y1="105.4883" y2="105.4883"/><text fill="#000000" font-family="sans-serif" font-size="14" lengthAdjust="spacing" textLength="8" x="2511.5" y="121.0234">F</text><line style="stroke:#A80036;stroke-width:1.0;" x1="2506.5" x2="2526.5" y1="125.9766" y2="125.9766"/><text fill="#000000" font-family="sans-serif" font-size="14" lengthAdjust="spacing" textLength="9" x="2511.5" y="141.5117">K</text><rect fill="none" height="61.4648" rx="5" ry="5" style="stroke:#A80036;stroke-width:1.5;" width="20" x="2506.5" y="85"/><rect fill="#FEFECE" height="155.9063" rx="5" ry="5" style="stroke:#FEFECE;stroke-width:1.5;" width="548" x="1867" y="181.5"/><text fill="#000000" font-family="sans-serif" font-size="14" lengthAdjust="spacing" textLength="29" x="1872" y="197.0352">type</text><text fill="#000000" font-family="sans-serif" font-size="14" lengthAdjust="spacing" textLength="35" x="1959" y="197.0352">array</text><line style="stroke:#A80036;stroke-width:1.0;" x1="1954" x2="1954" y1="181.5" y2="201.9883"/><line style="stroke:#A80036;stroke-width:1.0;" x1="1867" x2="2415" y1="201.9883" y2="201.9883"/><text fill="#000000" font-family="sans-serif" font-size="14" lengthAdjust="spacing" textLength="77" x="1872" y="217.5234">description</text><text fill="#000000" font-family="sans-serif" font-size="14" lengthAdjust="spacing" textLength="451" x="1959" y="217.5234">The valid range for the Property in the Resource as a number. The</text><text fill="#000000" font-family="sans-serif" font-size="14" lengthAdjust="spacing" textLength="439" x="1959" y="234.0117">first value in the array is the minimum value, the second value in</text><text fill="#000000" font-family="sans-serif" font-size="14" lengthAdjust="spacing" textLength="219" x="1959" y="250.5">the array is the maximum value.</text><line style="stroke:#A80036;stroke-width:1.0;" x1="1954" x2="1954" y1="201.9883" y2="255.4531"/><line style="stroke:#A80036;stroke-width:1.0;" x1="1867" x2="2415" y1="255.4531" y2="255.4531"/><text fill="#000000" font-family="sans-serif" font-size="14" lengthAdjust="spacing" textLength="55" x="1872" y="270.9883">writable</text><text fill="#000000" font-family="sans-serif" font-size="14" lengthAdjust="spacing" textLength="48" x="1959" y="270.9883">☐ false</text><line style="stroke:#A80036;stroke-width:1.0;" x1="1954" x2="1954" y1="255.4531" y2="275.9414"/><line style="stroke:#A80036;stroke-width:1.0;" x1="1867" x2="2415" y1="275.9414" y2="275.9414"/><text fill="#000000" font-family="sans-serif" font-size="14" lengthAdjust="spacing" textLength="63" x="1872" y="291.4766">minItems</text><text fill="#000000" font-family="sans-serif" font-size="14" lengthAdjust="spacing" textLength="9" x="1959" y="291.4766">2</text><line style="stroke:#A80036;stroke-width:1.0;" x1="1954" x2="1954" y1="275.9414" y2="296.4297"/><line style="stroke:#A80036;stroke-width:1.0;" x1="1867" x2="2415" y1="296.4297" y2="296.4297"/><text fill="#000000" font-family="sans-serif" font-size="14" lengthAdjust="spacing" textLength="67" x="1872" y="311.9648">maxItems</text><text fill="#000000" font-family="sans-serif" font-size="14" lengthAdjust="spacing" textLength="9" x="1959" y="311.9648">2</text><line style="stroke:#A80036;stroke-width:1.0;" x1="1954" x2="1954" y1="296.4297" y2="316.918"/><line style="stroke:#A80036;stroke-width:1.0;" x1="1867" x2="2415" y1="316.918" y2="316.918"/><text fill="#000000" font-family="sans-serif" font-size="14" lengthAdjust="spacing" textLength="37" x="1872" y="332.4531">items</text><text fill="#000000" font-family="sans-serif" font-size="14" lengthAdjust="spacing" textLength="0" x="1971" y="332.4531"/><line style="stroke:#A80036;stroke-width:1.0;" x1="1954" x2="1954" y1="316.918" y2="337.4063"/><rect fill="none" height="155.9063" rx="5" ry="5" style="stroke:#A80036;stroke-width:1.5;" width="548" x="1867" y="181.5"/><rect fill="#FEFECE" height="20.4883" rx="5" ry="5" style="stroke:#FEFECE;stroke-width:1.5;" width="103" x="2467" y="314.5"/><text fill="#000000" font-family="sans-serif" font-size="14" lengthAdjust="spacing" textLength="29" x="2472" y="330.0352">type</text><text fill="#000000" font-family="sans-serif" font-size="14" lengthAdjust="spacing" textLength="54" x="2511" y="330.0352">number</text><line style="stroke:#A80036;stroke-width:1.0;" x1="2506" x2="2506" y1="314.5" y2="334.9883"/><rect fill="none" height="20.4883" rx="5" ry="5" style="stroke:#A80036;stroke-width:1.5;" width="103" x="2467" y="314.5"/><rect fill="#FEFECE" height="110.9297" rx="5" ry="5" style="stroke:#FEFECE;stroke-width:1.5;" width="555" x="1863.5" y="356"/><text fill="#000000" font-family="sans-serif" font-size="14" lengthAdjust="spacing" textLength="77" x="1868.5" y="371.5352">description</text><text fill="#000000" font-family="sans-serif" font-size="14" lengthAdjust="spacing" textLength="456" x="1955.5" y="371.5352">Step value across the defined range an integer when the range is a</text><text fill="#000000" font-family="sans-serif" font-size="14" lengthAdjust="spacing" textLength="458" x="1955.5" y="388.0234">number.  This is the increment for valid values across the range; so</text><text fill="#000000" font-family="sans-serif" font-size="14" lengthAdjust="spacing" textLength="381" x="1955.5" y="404.5117">if range is 0.0..10.0 and step is 2.5 then valid values are</text><text fill="#000000" font-family="sans-serif" font-size="14" lengthAdjust="spacing" textLength="139" x="1955.5" y="421">0.0,2.5,5.0,7.5,10.0.</text><line style="stroke:#A80036;stroke-width:1.0;" x1="1950.5" x2="1950.5" y1="356" y2="425.9531"/><line style="stroke:#A80036;stroke-width:1.0;" x1="1863.5" x2="2418.5" y1="425.9531" y2="425.9531"/><text fill="#000000" font-family="sans-serif" font-size="14" lengthAdjust="spacing" textLength="55" x="1868.5" y="441.4883">writable</text><text fill="#000000" font-family="sans-serif" font-size="14" lengthAdjust="spacing" textLength="48" x="1955.5" y="441.4883">☐ false</text><line style="stroke:#A80036;stroke-width:1.0;" x1="1950.5" x2="1950.5" y1="425.9531" y2="446.4414"/><line style="stroke:#A80036;stroke-width:1.0;" x1="1863.5" x2="2418.5" y1="446.4414" y2="446.4414"/><text fill="#000000" font-family="sans-serif" font-size="14" lengthAdjust="spacing" textLength="29" x="1868.5" y="461.9766">type</text><text fill="#000000" font-family="sans-serif" font-size="14" lengthAdjust="spacing" textLength="54" x="1955.5" y="461.9766">number</text><line style="stroke:#A80036;stroke-width:1.0;" x1="1950.5" x2="1950.5" y1="446.4414" y2="466.9297"/><rect fill="none" height="110.9297" rx="5" ry="5" style="stroke:#A80036;stroke-width:1.5;" width="555" x="1863.5" y="356"/><rect fill="#FEFECE" height="110.9297" rx="5" ry="5" style="stroke:#FEFECE;stroke-width:1.5;" width="570" x="1856" y="485"/><text fill="#000000" font-family="sans-serif" font-size="14" lengthAdjust="spacing" textLength="29" x="1861" y="500.5352">type</text><text fill="#000000" font-family="sans-serif" font-size="14" lengthAdjust="spacing" textLength="54" x="1948" y="500.5352">number</text><line style="stroke:#A80036;stroke-width:1.0;" x1="1943" x2="1943" y1="485" y2="505.4883"/><line style="stroke:#A80036;stroke-width:1.0;" x1="1856" x2="2426" y1="505.4883" y2="505.4883"/><text fill="#000000" font-family="sans-serif" font-size="14" lengthAdjust="spacing" textLength="55" x="1861" y="521.0234">writable</text><text fill="#000000" font-family="sans-serif" font-size="14" lengthAdjust="spacing" textLength="48" x="1948" y="521.0234">☐ false</text><line style="stroke:#A80036;stroke-width:1.0;" x1="1943" x2="1943" y1="505.4883" y2="525.9766"/><line style="stroke:#A80036;stroke-width:1.0;" x1="1856" x2="2426" y1="525.9766" y2="525.9766"/><text fill="#000000" font-family="sans-serif" font-size="14" lengthAdjust="spacing" textLength="77" x="1861" y="541.5117">description</text><text fill="#000000" font-family="sans-serif" font-size="14" lengthAdjust="spacing" textLength="430" x="1948" y="541.5117">When exposed the value in 'precision' provides a +/- tolerance</text><text fill="#000000" font-family="sans-serif" font-size="14" lengthAdjust="spacing" textLength="473" x="1948" y="558">against the Properties in the Resource. Thus if a Property is UPDATED</text><text fill="#000000" font-family="sans-serif" font-size="14" lengthAdjust="spacing" textLength="465" x="1948" y="574.4883">to a value and that Property then RETRIEVED, the RETRIEVED value is</text><text fill="#000000" font-family="sans-serif" font-size="14" lengthAdjust="spacing" textLength="337" x="1948" y="590.9766">valid if in the range of the set value +/- precision</text><line style="stroke:#A80036;stroke-width:1.0;" x1="1943" x2="1943" y1="525.9766" y2="595.9297"/><rect fill="none" height="110.9297" rx="5" ry="5" style="stroke:#A80036;stroke-width:1.5;" width="570" x="1856" y="485"/><rect fill="#FEFECE" height="20.4883" rx="5" ry="5" style="stroke:#FEFECE;stroke-width:1.5;" width="361" x="1454" y="329.5"/><text fill="#000000" font-family="sans-serif" font-size="14" lengthAdjust="spacing" textLength="351" x="1459" y="345.0352">#/sdfObject/temperature/sdfProperty/temperature</text><rect fill="none" height="20.4883" rx="5" ry="5" style="stroke:#A80036;stroke-width:1.5;" width="361" x="1454" y="329.5"/><path d="M95,217.5 L108,217.5 C117.3442,217.5 126.8208,217.4198 136.3833,217.2688 " fill="none" style="stroke:#A80036;stroke-width:1.0;stroke-dasharray:3.0,3.0;"/><path d="M136.4378,220.3434 L138.6892,217.2279 L136.3288,214.1942 L144.0697,217.1326 L136.4378,220.3434 " fill="#A80036" style="stroke:#A80036;stroke-width:1.0;"/><ellipse cx="95" cy="217.5" fill="#A80036" rx="3" ry="3" style="stroke:#A80036;stroke-width:1.0;stroke-dasharray:3.0,3.0;"/><path d="M1682,219.5 L1695,219.5 C1794.3112,219.5 1762.4751,103.4885 1852,60.5 C1871.6784,51.0507 1892.9648,43.9414 1914.7504,38.6505 " fill="none" style="stroke:#A80036;stroke-width:1.0;stroke-dasharray:3.0,3.0;"/><path d="M1915.4405,41.6128 L1916.9721,38.1329 L1914.0603,35.6882 L1922.1561,36.9252 L1915.4405,41.6128 " fill="#A80036" style="stroke:#A80036;stroke-width:1.0;"/><ellipse cx="1682" cy="219.5" fill="#A80036" rx="3" ry="3" style="stroke:#A80036;stroke-width:1.0;stroke-dasharray:3.0,3.0;"/><path d="M2418,115.5 L2431,115.5 C2454.3643,115.5 2481.258,115.5 2498.8851,115.5 " fill="none" style="stroke:#A80036;stroke-width:1.0;stroke-dasharray:3.0,3.0;"/><path d="M2498.8851,118.6412 L2501.241,115.5 L2498.8851,112.3588 L2506.738,115.5 L2498.8851,118.6412 " fill="#A80036" style="stroke:#A80036;stroke-width:1.0;"/><ellipse cx="2418" cy="115.5" fill="#A80036" rx="3" ry="3" style="stroke:#A80036;stroke-width:1.0;stroke-dasharray:3.0,3.0;"/><path d="M1682,239.5 L1695,239.5 C1770.866,239.5 1779.4674,194.7415 1852,172.5 C1859.7495,170.1237 1867.6482,167.8266 1875.6478,165.6082 " fill="none" style="stroke:#A80036;stroke-width:1.0;stroke-dasharray:3.0,3.0;"/><path d="M1876.454,168.5576 L1877.8599,165.0036 L1874.8417,162.6588 L1883.0214,163.5929 L1876.454,168.5576 " fill="#A80036" style="stroke:#A80036;stroke-width:1.0;"/><ellipse cx="1682" cy="239.5" fill="#A80036" rx="3" ry="3" style="stroke:#A80036;stroke-width:1.0;stroke-dasharray:3.0,3.0;"/><path d="M2403.5,324.5 L2416.5,324.5 C2430.4761,324.5 2445.5346,324.5 2459.6635,324.5 " fill="none" style="stroke:#A80036;stroke-width:1.0;stroke-dasharray:3.0,3.0;"/><path d="M2459.6635,327.5964 L2461.9858,324.5 L2459.6635,321.4036 L2467.4044,324.5 L2459.6635,327.5964 " fill="#A80036" style="stroke:#A80036;stroke-width:1.0;"/><ellipse cx="2403.5" cy="324.5" fill="#A80036" rx="3" ry="3" style="stroke:#A80036;stroke-width:1.0;stroke-dasharray:3.0,3.0;"/><path d="M1682,259.5 L1695,259.5 C1748.2782,259.5 1805.1406,259.5 1859.8005,259.5 " fill="none" style="stroke:#A80036;stroke-width:1.0;stroke-dasharray:3.0,3.0;"/><path d="M1859.8005,262.579 L1862.1097,259.5 L1859.8005,256.421 L1867.498,259.5 L1859.8005,262.579 " fill="#A80036" style="stroke:#A80036;stroke-width:1.0;"/><ellipse cx="1682" cy="259.5" fill="#A80036" rx="3" ry="3" style="stroke:#A80036;stroke-width:1.0;stroke-dasharray:3.0,3.0;"/><path d="M1682,280.5 L1695,280.5 C1751.6401,280.5 1765.5626,294.7285 1816,320.5 C1833.5752,329.4802 1834.0074,338.3884 1852,346.5 C1857.0682,348.7849 1862.2237,350.9928 1867.4503,353.1261 " fill="none" style="stroke:#A80036;stroke-width:1.0;stroke-dasharray:3.0,3.0;"/><path d="M1866.305,355.9939 L1869.6011,353.985 L1868.5955,350.2583 L1874.6198,355.9891 L1866.305,355.9939 " fill="#A80036" style="stroke:#A80036;stroke-width:1.0;"/><ellipse cx="1682" cy="280.5" fill="#A80036" rx="3" ry="3" style="stroke:#A80036;stroke-width:1.0;stroke-dasharray:3.0,3.0;"/><path d="M1682,301.5 L1695,301.5 C1749.4367,301.5 1776.1646,283.3988 1816,320.5 C1868.0698,368.9959 1801.4721,426.3996 1852,476.5 C1853.0929,477.5837 1854.1999,478.6508 1855.3204,479.7015 " fill="none" style="stroke:#A80036;stroke-width:1.0;stroke-dasharray:3.0,3.0;"/><path d="M1853.2731,481.9867 L1857.0342,481.237 L1857.3677,477.4164 L1861.0332,484.8198 L1853.2731,481.9867 " fill="#A80036" style="stroke:#A80036;stroke-width:1.0;"/><ellipse cx="1682" cy="301.5" fill="#A80036" rx="3" ry="3" style="stroke:#A80036;stroke-width:1.0;stroke-dasharray:3.0,3.0;"/><path d="M1405,261.5 L1418,261.5 C1468.5882,261.5 1525.8402,261.2223 1568.6855,260.9596 " fill="none" style="stroke:#A80036;stroke-width:1.0;stroke-dasharray:3.0,3.0;"/><path d="M1568.7043,263.9825 L1570.9526,260.9455 L1568.6667,257.9368 L1576.2426,260.9125 L1568.7043,263.9825 " fill="#A80036" style="stroke:#A80036;stroke-width:1.0;"/><ellipse cx="1405" cy="261.5" fill="#A80036" rx="3" ry="3" style="stroke:#A80036;stroke-width:1.0;stroke-dasharray:3.0,3.0;"/><path d="M1405,337.5 L1418,337.5 C1427.3212,337.5 1436.8686,337.5189 1446.5103,337.5529 " fill="none" style="stroke:#A80036;stroke-width:1.0;stroke-dasharray:3.0,3.0;"/><path d="M1446.4981,340.653 L1448.8354,337.562 L1446.5225,334.4528 L1454.2605,337.5834 L1446.4981,340.653 " fill="#A80036" style="stroke:#A80036;stroke-width:1.0;"/><ellipse cx="1405" cy="337.5" fill="#A80036" rx="3" ry="3" style="stroke:#A80036;stroke-width:1.0;stroke-dasharray:3.0,3.0;"/><path d="M519,262.5 L532,262.5 C628.5152,262.5 733.8515,262.5 828.6595,262.5 " fill="none" style="stroke:#A80036;stroke-width:1.0;stroke-dasharray:3.0,3.0;"/><path d="M828.6595,265.5716 L830.9632,262.5 L828.6595,259.4284 L836.3385,262.5 L828.6595,265.5716 " fill="#A80036" style="stroke:#A80036;stroke-width:1.0;"/><ellipse cx="519" cy="262.5" fill="#A80036" rx="3" ry="3" style="stroke:#A80036;stroke-width:1.0;stroke-dasharray:3.0,3.0;"/><path d="M95,238.5 L108,238.5 C124.1536,238.5 127.924,241.9191 144,243.5 C234.4116,252.3909 339.326,257.5843 405.433,260.2327 " fill="none" style="stroke:#A80036;stroke-width:1.0;stroke-dasharray:3.0,3.0;"/><path d="M405.3089,263.3791 L407.7928,260.3258 L405.5572,257.0864 L413.2989,260.5432 L405.3089,263.3791 " fill="#A80036" style="stroke:#A80036;stroke-width:1.0;"/><ellipse cx="95" cy="238.5" fill="#A80036" rx="3" ry="3" style="stroke:#A80036;stroke-width:1.0;stroke-dasharray:3.0,3.0;"/><!--MD5=[033537769e988a9bf0c0ef52ca101ce3]
@startjson
{
  "info": {
    "copyright": "copyright 2016-2017, 2019 Open Connectivity Foundation, Inc. All rights reserved.",
    "license": "https://github.com/one-data-model/oneDM/blob/master/LICENSE",
    "title": "Temperature",
    "version": "2019-02-15"
  },
  "sdfObject": {
    "temperature": {
      "description": "This Resource describes a sensed or actuated Temperature value. The\\nProperty \"temperature\" describes the current value measured. The\\nProperty \"units\" is a single value that is one of \"C\", \"F\" or \"K\". It\\nprovides the unit of measurement for the \"temperature\" value. It is a\\nread-only value that is provided by the server. If the \"units\"\\nProperty is missing the default is Celsius [C]. When the Property\\n\"range\" is omitted the default is +/- MAXINT. A client can specify\\nthe units for the requested temperature by use of a query parameter.\\nIf no query parameter is provided the server provides its default\\nmeasure or set value. It is recommended to return always the units\\nProperty in the result.",
      "sdfProperty": {
        "temperature": {
          "description": "The current temperature setting or measurement.",
          "type": "number"
        },
        "units": {
          "description": "The unit for the conveyed temperature value, Note that when doing an\\nUPDATE, the unit on the device does NOT change, it only indicates the\\nunit of the conveyed value during the UPDATE operation.",
          "enum": [
            "C",
            "F",
            "K"
          ],
          "type": "string"
        },
        "range": {
          "type": "array",
          "description": "The valid range for the Property in the Resource as a number. The\\nfirst value in the array is the minimum value, the second value in\\nthe array is the maximum value.",
          "writable": false,
          "minItems": 2,
          "maxItems": 2,
          "items": {
            "type": "number"
          }
        },
        "step": {
          "description": "Step value across the defined range an integer when the range is a\\nnumber.  This is the increment for valid values across the range; so\\nif range is 0.0..10.0 and step is 2.5 then valid values are\\n0.0,2.5,5.0,7.5,10.0.",
          "writable": false,
          "type": "number"
        },
        "precision": {
          "type": "number",
          "writable": false,
          "description": "When exposed the value in 'precision' provides a +/- tolerance\\nagainst the Properties in the Resource. Thus if a Property is UPDATED\\nto a value and that Property then RETRIEVED, the RETRIEVED value is\\nvalid if in the range of the set value +/- precision"
        }
      },
      "sdfRequired": [
        "#/sdfObject/temperature/sdfProperty/temperature"
      ]
    }
  }
}
@endjson

PlantUML version 1.2021.2(Sun Mar 07 13:10:27 EET 2021)
(GPL source distribution)
Java Runtime: OpenJDK Runtime Environment
JVM: OpenJDK 64-Bit Server VM
Default Encoding: UTF-8
Language: en
Country: FI
--></g></svg>