<?xml version="1.0" encoding="UTF-8" standalone="no"?><svg xmlns="http://www.w3.org/2000/svg" xmlns:xlink="http://www.w3.org/1999/xlink" contentScriptType="application/ecmascript" contentStyleType="text/css" height="656px" preserveAspectRatio="none" style="width:2417px;height:656px;" version="1.1" viewBox="0 0 2417 656" width="2417px" zoomAndPan="magnify"><defs/><g><rect fill="#FEFECE" height="40.9766" rx="5" ry="5" style="stroke:#FEFECE;stroke-width:1.5;" width="97" x="10" y="269.5"/><text fill="#000000" font-family="sans-serif" font-size="14" lengthAdjust="spacing" textLength="27" x="15" y="285.0352">info</text><text fill="#000000" font-family="sans-serif" font-size="14" lengthAdjust="spacing" textLength="0" x="102" y="285.0352"/><line style="stroke:#A80036;stroke-width:1.0;" x1="85" x2="85" y1="269.5" y2="289.9883"/><line style="stroke:#A80036;stroke-width:1.0;" x1="10" x2="107" y1="289.9883" y2="289.9883"/><text fill="#000000" font-family="sans-serif" font-size="14" lengthAdjust="spacing" textLength="65" x="15" y="305.5234">sdfObject</text><text fill="#000000" font-family="sans-serif" font-size="14" lengthAdjust="spacing" textLength="0" x="102" y="305.5234"/><line style="stroke:#A80036;stroke-width:1.0;" x1="85" x2="85" y1="289.9883" y2="310.4766"/><rect fill="none" height="40.9766" rx="5" ry="5" style="stroke:#A80036;stroke-width:1.5;" width="97" x="10" y="269.5"/><rect fill="#FEFECE" height="81.9531" rx="5" ry="5" style="stroke:#FEFECE;stroke-width:1.5;" width="614" x="144" y="214"/><text fill="#000000" font-family="sans-serif" font-size="14" lengthAdjust="spacing" textLength="65" x="149" y="229.5352">copyright</text><text fill="#000000" font-family="sans-serif" font-size="14" lengthAdjust="spacing" textLength="529" x="224" y="229.5352">Copyright 2016-2019 Open Connectivity Foundation, Inc. All rights reserved.</text><line style="stroke:#A80036;stroke-width:1.0;" x1="219" x2="219" y1="214" y2="234.4883"/><line style="stroke:#A80036;stroke-width:1.0;" x1="144" x2="758" y1="234.4883" y2="234.4883"/><text fill="#000000" font-family="sans-serif" font-size="14" lengthAdjust="spacing" textLength="47" x="149" y="250.0234">license</text><text fill="#000000" font-family="sans-serif" font-size="14" lengthAdjust="spacing" textLength="462" x="224" y="250.0234">https://github.com/one-data-model/oneDM/blob/master/LICENSE</text><line style="stroke:#A80036;stroke-width:1.0;" x1="219" x2="219" y1="234.4883" y2="254.9766"/><line style="stroke:#A80036;stroke-width:1.0;" x1="144" x2="758" y1="254.9766" y2="254.9766"/><text fill="#000000" font-family="sans-serif" font-size="14" lengthAdjust="spacing" textLength="26" x="149" y="270.5117">title</text><text fill="#000000" font-family="sans-serif" font-size="14" lengthAdjust="spacing" textLength="130" x="224" y="270.5117">Body Fat Free Mass</text><line style="stroke:#A80036;stroke-width:1.0;" x1="219" x2="219" y1="254.9766" y2="275.4648"/><line style="stroke:#A80036;stroke-width:1.0;" x1="144" x2="758" y1="275.4648" y2="275.4648"/><text fill="#000000" font-family="sans-serif" font-size="14" lengthAdjust="spacing" textLength="50" x="149" y="291">version</text><text fill="#000000" font-family="sans-serif" font-size="14" lengthAdjust="spacing" textLength="88" x="224" y="291">2019-03-22</text><line style="stroke:#A80036;stroke-width:1.0;" x1="219" x2="219" y1="275.4648" y2="295.9531"/><rect fill="none" height="81.9531" rx="5" ry="5" style="stroke:#A80036;stroke-width:1.5;" width="614" x="144" y="214"/><rect fill="#FEFECE" height="20.4883" rx="5" ry="5" style="stroke:#FEFECE;stroke-width:1.5;" width="93" x="404.5" y="314"/><text fill="#000000" font-family="sans-serif" font-size="14" lengthAdjust="spacing" textLength="61" x="409.5" y="329.5352">body.ffm</text><text fill="#000000" font-family="sans-serif" font-size="14" lengthAdjust="spacing" textLength="0" x="492.5" y="329.5352"/><line style="stroke:#A80036;stroke-width:1.0;" x1="475.5" x2="475.5" y1="314" y2="334.4883"/><rect fill="none" height="20.4883" rx="5" ry="5" style="stroke:#A80036;stroke-width:1.5;" width="93" x="404.5" y="314"/><rect fill="#FEFECE" height="143.9063" rx="5" ry="5" style="stroke:#FEFECE;stroke-width:1.5;" width="551" x="795" y="252"/><text fill="#000000" font-family="sans-serif" font-size="14" lengthAdjust="spacing" textLength="77" x="800" y="267.5352">description</text><text fill="#000000" font-family="sans-serif" font-size="14" lengthAdjust="spacing" textLength="448" x="893" y="267.5352">This Resource describes the Properties associated with a person's</text><text fill="#000000" font-family="sans-serif" font-size="14" lengthAdjust="spacing" textLength="439" x="893" y="284.0234">body fat free mass. The unit is a single value that is one of kg, lb</text><text fill="#000000" font-family="sans-serif" font-size="14" lengthAdjust="spacing" textLength="444" x="893" y="300.5117">or percent. If the unit Property is missing the default is kilograms</text><text fill="#000000" font-family="sans-serif" font-size="14" lengthAdjust="spacing" textLength="425" x="893" y="317">[kg]. The ffm and unit Properties are read-only values that are</text><text fill="#000000" font-family="sans-serif" font-size="14" lengthAdjust="spacing" textLength="440" x="893" y="333.4883">provided by the Server. When range is omitted the default is 0 to</text><text fill="#000000" font-family="sans-serif" font-size="14" lengthAdjust="spacing" textLength="91" x="893" y="349.9766">+MAXFLOAT.</text><line style="stroke:#A80036;stroke-width:1.0;" x1="888" x2="888" y1="252" y2="354.9297"/><line style="stroke:#A80036;stroke-width:1.0;" x1="795" x2="1346" y1="354.9297" y2="354.9297"/><text fill="#000000" font-family="sans-serif" font-size="14" lengthAdjust="spacing" textLength="79" x="800" y="370.4648">sdfProperty</text><text fill="#000000" font-family="sans-serif" font-size="14" lengthAdjust="spacing" textLength="0" x="905" y="370.4648"/><line style="stroke:#A80036;stroke-width:1.0;" x1="888" x2="888" y1="354.9297" y2="375.418"/><line style="stroke:#A80036;stroke-width:1.0;" x1="795" x2="1346" y1="375.418" y2="375.418"/><text fill="#000000" font-family="sans-serif" font-size="14" lengthAdjust="spacing" textLength="83" x="800" y="390.9531">sdfRequired</text><text fill="#000000" font-family="sans-serif" font-size="14" lengthAdjust="spacing" textLength="0" x="905" y="390.9531"/><line style="stroke:#A80036;stroke-width:1.0;" x1="888" x2="888" y1="375.418" y2="395.9063"/><rect fill="none" height="143.9063" rx="5" ry="5" style="stroke:#A80036;stroke-width:1.5;" width="551" x="795" y="252"/><rect fill="#FEFECE" height="102.4414" rx="5" ry="5" style="stroke:#FEFECE;stroke-width:1.5;" width="95" x="1473" y="258"/><text fill="#000000" font-family="sans-serif" font-size="14" lengthAdjust="spacing" textLength="23" x="1478" y="273.5352">ffm</text><text fill="#000000" font-family="sans-serif" font-size="14" lengthAdjust="spacing" textLength="0" x="1563" y="273.5352"/><line style="stroke:#A80036;stroke-width:1.0;" x1="1546" x2="1546" y1="258" y2="278.4883"/><line style="stroke:#A80036;stroke-width:1.0;" x1="1473" x2="1568" y1="278.4883" y2="278.4883"/><text fill="#000000" font-family="sans-serif" font-size="14" lengthAdjust="spacing" textLength="34" x="1478" y="294.0234">units</text><text fill="#000000" font-family="sans-serif" font-size="14" lengthAdjust="spacing" textLength="0" x="1563" y="294.0234"/><line style="stroke:#A80036;stroke-width:1.0;" x1="1546" x2="1546" y1="278.4883" y2="298.9766"/><line style="stroke:#A80036;stroke-width:1.0;" x1="1473" x2="1568" y1="298.9766" y2="298.9766"/><text fill="#000000" font-family="sans-serif" font-size="14" lengthAdjust="spacing" textLength="40" x="1478" y="314.5117">range</text><text fill="#000000" font-family="sans-serif" font-size="14" lengthAdjust="spacing" textLength="0" x="1563" y="314.5117"/><line style="stroke:#A80036;stroke-width:1.0;" x1="1546" x2="1546" y1="298.9766" y2="319.4648"/><line style="stroke:#A80036;stroke-width:1.0;" x1="1473" x2="1568" y1="319.4648" y2="319.4648"/><text fill="#000000" font-family="sans-serif" font-size="14" lengthAdjust="spacing" textLength="29" x="1478" y="335">step</text><text fill="#000000" font-family="sans-serif" font-size="14" lengthAdjust="spacing" textLength="0" x="1563" y="335"/><line style="stroke:#A80036;stroke-width:1.0;" x1="1546" x2="1546" y1="319.4648" y2="339.9531"/><line style="stroke:#A80036;stroke-width:1.0;" x1="1473" x2="1568" y1="339.9531" y2="339.9531"/><text fill="#000000" font-family="sans-serif" font-size="14" lengthAdjust="spacing" textLength="63" x="1478" y="355.4883">precision</text><text fill="#000000" font-family="sans-serif" font-size="14" lengthAdjust="spacing" textLength="0" x="1563" y="355.4883"/><line style="stroke:#A80036;stroke-width:1.0;" x1="1546" x2="1546" y1="339.9531" y2="360.4414"/><rect fill="none" height="102.4414" rx="5" ry="5" style="stroke:#A80036;stroke-width:1.5;" width="95" x="1473" y="258"/><rect fill="#FEFECE" height="81.9531" rx="5" ry="5" style="stroke:#FEFECE;stroke-width:1.5;" width="226" x="1867" y="10"/><text fill="#000000" font-family="sans-serif" font-size="14" lengthAdjust="spacing" textLength="77" x="1872" y="25.5352">description</text><text fill="#000000" font-family="sans-serif" font-size="14" lengthAdjust="spacing" textLength="129" x="1959" y="25.5352">Body fat free mass.</text><line style="stroke:#A80036;stroke-width:1.0;" x1="1954" x2="1954" y1="10" y2="30.4883"/><line style="stroke:#A80036;stroke-width:1.0;" x1="1867" x2="2093" y1="30.4883" y2="30.4883"/><text fill="#000000" font-family="sans-serif" font-size="14" lengthAdjust="spacing" textLength="65" x="1872" y="46.0234">minimum</text><text fill="#000000" font-family="sans-serif" font-size="14" lengthAdjust="spacing" textLength="9" x="1959" y="46.0234">0</text><line style="stroke:#A80036;stroke-width:1.0;" x1="1954" x2="1954" y1="30.4883" y2="50.9766"/><line style="stroke:#A80036;stroke-width:1.0;" x1="1867" x2="2093" y1="50.9766" y2="50.9766"/><text fill="#000000" font-family="sans-serif" font-size="14" lengthAdjust="spacing" textLength="55" x="1872" y="66.5117">writable</text><text fill="#000000" font-family="sans-serif" font-size="14" lengthAdjust="spacing" textLength="48" x="1959" y="66.5117">☐ false</text><line style="stroke:#A80036;stroke-width:1.0;" x1="1954" x2="1954" y1="50.9766" y2="71.4648"/><line style="stroke:#A80036;stroke-width:1.0;" x1="1867" x2="2093" y1="71.4648" y2="71.4648"/><text fill="#000000" font-family="sans-serif" font-size="14" lengthAdjust="spacing" textLength="29" x="1872" y="87">type</text><text fill="#000000" font-family="sans-serif" font-size="14" lengthAdjust="spacing" textLength="54" x="1959" y="87">number</text><line style="stroke:#A80036;stroke-width:1.0;" x1="1954" x2="1954" y1="71.4648" y2="91.9531"/><rect fill="none" height="81.9531" rx="5" ry="5" style="stroke:#A80036;stroke-width:1.5;" width="226" x="1867" y="10"/><rect fill="#FEFECE" height="102.4414" rx="5" ry="5" style="stroke:#FEFECE;stroke-width:1.5;" width="260" x="1850" y="110"/><text fill="#000000" font-family="sans-serif" font-size="14" lengthAdjust="spacing" textLength="77" x="1855" y="125.5352">description</text><text fill="#000000" font-family="sans-serif" font-size="14" lengthAdjust="spacing" textLength="163" x="1942" y="125.5352">Body fat free mass units</text><line style="stroke:#A80036;stroke-width:1.0;" x1="1937" x2="1937" y1="110" y2="130.4883"/><line style="stroke:#A80036;stroke-width:1.0;" x1="1850" x2="2110" y1="130.4883" y2="130.4883"/><text fill="#000000" font-family="sans-serif" font-size="14" lengthAdjust="spacing" textLength="39" x="1855" y="146.0234">enum</text><text fill="#000000" font-family="sans-serif" font-size="14" lengthAdjust="spacing" textLength="0" x="1954" y="146.0234"/><line style="stroke:#A80036;stroke-width:1.0;" x1="1937" x2="1937" y1="130.4883" y2="150.9766"/><line style="stroke:#A80036;stroke-width:1.0;" x1="1850" x2="2110" y1="150.9766" y2="150.9766"/><text fill="#000000" font-family="sans-serif" font-size="14" lengthAdjust="spacing" textLength="55" x="1855" y="166.5117">writable</text><text fill="#000000" font-family="sans-serif" font-size="14" lengthAdjust="spacing" textLength="48" x="1942" y="166.5117">☐ false</text><line style="stroke:#A80036;stroke-width:1.0;" x1="1937" x2="1937" y1="150.9766" y2="171.4648"/><line style="stroke:#A80036;stroke-width:1.0;" x1="1850" x2="2110" y1="171.4648" y2="171.4648"/><text fill="#000000" font-family="sans-serif" font-size="14" lengthAdjust="spacing" textLength="29" x="1855" y="187">type</text><text fill="#000000" font-family="sans-serif" font-size="14" lengthAdjust="spacing" textLength="40" x="1942" y="187">string</text><line style="stroke:#A80036;stroke-width:1.0;" x1="1937" x2="1937" y1="171.4648" y2="191.9531"/><line style="stroke:#A80036;stroke-width:1.0;" x1="1850" x2="2110" y1="191.9531" y2="191.9531"/><text fill="#000000" font-family="sans-serif" font-size="14" lengthAdjust="spacing" textLength="48" x="1855" y="207.4883">default</text><text fill="#000000" font-family="sans-serif" font-size="14" lengthAdjust="spacing" textLength="17" x="1942" y="207.4883">kg</text><line style="stroke:#A80036;stroke-width:1.0;" x1="1937" x2="1937" y1="191.9531" y2="212.4414"/><rect fill="none" height="102.4414" rx="5" ry="5" style="stroke:#A80036;stroke-width:1.5;" width="260" x="1850" y="110"/><rect fill="#FEFECE" height="61.4648" rx="5" ry="5" style="stroke:#FEFECE;stroke-width:1.5;" width="62" x="2322.5" y="109.5"/><text fill="#000000" font-family="sans-serif" font-size="14" lengthAdjust="spacing" textLength="17" x="2327.5" y="125.0352">kg</text><line style="stroke:#A80036;stroke-width:1.0;" x1="2322.5" x2="2384.5" y1="129.9883" y2="129.9883"/><text fill="#000000" font-family="sans-serif" font-size="14" lengthAdjust="spacing" textLength="13" x="2327.5" y="145.5234">lb</text><line style="stroke:#A80036;stroke-width:1.0;" x1="2322.5" x2="2384.5" y1="150.4766" y2="150.4766"/><text fill="#000000" font-family="sans-serif" font-size="14" lengthAdjust="spacing" textLength="52" x="2327.5" y="166.0117">percent</text><rect fill="none" height="61.4648" rx="5" ry="5" style="stroke:#A80036;stroke-width:1.5;" width="62" x="2322.5" y="109.5"/><rect fill="#FEFECE" height="155.9063" rx="5" ry="5" style="stroke:#FEFECE;stroke-width:1.5;" width="548" x="1706" y="230"/><text fill="#000000" font-family="sans-serif" font-size="14" lengthAdjust="spacing" textLength="29" x="1711" y="245.5352">type</text><text fill="#000000" font-family="sans-serif" font-size="14" lengthAdjust="spacing" textLength="35" x="1798" y="245.5352">array</text><line style="stroke:#A80036;stroke-width:1.0;" x1="1793" x2="1793" y1="230" y2="250.4883"/><line style="stroke:#A80036;stroke-width:1.0;" x1="1706" x2="2254" y1="250.4883" y2="250.4883"/><text fill="#000000" font-family="sans-serif" font-size="14" lengthAdjust="spacing" textLength="77" x="1711" y="266.0234">description</text><text fill="#000000" font-family="sans-serif" font-size="14" lengthAdjust="spacing" textLength="451" x="1798" y="266.0234">The valid range for the Property in the Resource as a number. The</text><text fill="#000000" font-family="sans-serif" font-size="14" lengthAdjust="spacing" textLength="439" x="1798" y="282.5117">first value in the array is the minimum value, the second value in</text><text fill="#000000" font-family="sans-serif" font-size="14" lengthAdjust="spacing" textLength="219" x="1798" y="299">the array is the maximum value.</text><line style="stroke:#A80036;stroke-width:1.0;" x1="1793" x2="1793" y1="250.4883" y2="303.9531"/><line style="stroke:#A80036;stroke-width:1.0;" x1="1706" x2="2254" y1="303.9531" y2="303.9531"/><text fill="#000000" font-family="sans-serif" font-size="14" lengthAdjust="spacing" textLength="55" x="1711" y="319.4883">writable</text><text fill="#000000" font-family="sans-serif" font-size="14" lengthAdjust="spacing" textLength="48" x="1798" y="319.4883">☐ false</text><line style="stroke:#A80036;stroke-width:1.0;" x1="1793" x2="1793" y1="303.9531" y2="324.4414"/><line style="stroke:#A80036;stroke-width:1.0;" x1="1706" x2="2254" y1="324.4414" y2="324.4414"/><text fill="#000000" font-family="sans-serif" font-size="14" lengthAdjust="spacing" textLength="63" x="1711" y="339.9766">minItems</text><text fill="#000000" font-family="sans-serif" font-size="14" lengthAdjust="spacing" textLength="9" x="1798" y="339.9766">2</text><line style="stroke:#A80036;stroke-width:1.0;" x1="1793" x2="1793" y1="324.4414" y2="344.9297"/><line style="stroke:#A80036;stroke-width:1.0;" x1="1706" x2="2254" y1="344.9297" y2="344.9297"/><text fill="#000000" font-family="sans-serif" font-size="14" lengthAdjust="spacing" textLength="67" x="1711" y="360.4648">maxItems</text><text fill="#000000" font-family="sans-serif" font-size="14" lengthAdjust="spacing" textLength="9" x="1798" y="360.4648">2</text><line style="stroke:#A80036;stroke-width:1.0;" x1="1793" x2="1793" y1="344.9297" y2="365.418"/><line style="stroke:#A80036;stroke-width:1.0;" x1="1706" x2="2254" y1="365.418" y2="365.418"/><text fill="#000000" font-family="sans-serif" font-size="14" lengthAdjust="spacing" textLength="37" x="1711" y="380.9531">items</text><text fill="#000000" font-family="sans-serif" font-size="14" lengthAdjust="spacing" textLength="0" x="1810" y="380.9531"/><line style="stroke:#A80036;stroke-width:1.0;" x1="1793" x2="1793" y1="365.418" y2="385.9063"/><rect fill="none" height="155.9063" rx="5" ry="5" style="stroke:#A80036;stroke-width:1.5;" width="548" x="1706" y="230"/><rect fill="#FEFECE" height="20.4883" rx="5" ry="5" style="stroke:#FEFECE;stroke-width:1.5;" width="103" x="2302" y="363"/><text fill="#000000" font-family="sans-serif" font-size="14" lengthAdjust="spacing" textLength="29" x="2307" y="378.5352">type</text><text fill="#000000" font-family="sans-serif" font-size="14" lengthAdjust="spacing" textLength="54" x="2346" y="378.5352">number</text><line style="stroke:#A80036;stroke-width:1.0;" x1="2341" x2="2341" y1="363" y2="383.4883"/><rect fill="none" height="20.4883" rx="5" ry="5" style="stroke:#A80036;stroke-width:1.5;" width="103" x="2302" y="363"/><rect fill="#FEFECE" height="110.9297" rx="5" ry="5" style="stroke:#FEFECE;stroke-width:1.5;" width="555" x="1702.5" y="404.5"/><text fill="#000000" font-family="sans-serif" font-size="14" lengthAdjust="spacing" textLength="77" x="1707.5" y="420.0352">description</text><text fill="#000000" font-family="sans-serif" font-size="14" lengthAdjust="spacing" textLength="456" x="1794.5" y="420.0352">Step value across the defined range an integer when the range is a</text><text fill="#000000" font-family="sans-serif" font-size="14" lengthAdjust="spacing" textLength="458" x="1794.5" y="436.5234">number.  This is the increment for valid values across the range; so</text><text fill="#000000" font-family="sans-serif" font-size="14" lengthAdjust="spacing" textLength="381" x="1794.5" y="453.0117">if range is 0.0..10.0 and step is 2.5 then valid values are</text><text fill="#000000" font-family="sans-serif" font-size="14" lengthAdjust="spacing" textLength="139" x="1794.5" y="469.5">0.0,2.5,5.0,7.5,10.0.</text><line style="stroke:#A80036;stroke-width:1.0;" x1="1789.5" x2="1789.5" y1="404.5" y2="474.4531"/><line style="stroke:#A80036;stroke-width:1.0;" x1="1702.5" x2="2257.5" y1="474.4531" y2="474.4531"/><text fill="#000000" font-family="sans-serif" font-size="14" lengthAdjust="spacing" textLength="55" x="1707.5" y="489.9883">writable</text><text fill="#000000" font-family="sans-serif" font-size="14" lengthAdjust="spacing" textLength="48" x="1794.5" y="489.9883">☐ false</text><line style="stroke:#A80036;stroke-width:1.0;" x1="1789.5" x2="1789.5" y1="474.4531" y2="494.9414"/><line style="stroke:#A80036;stroke-width:1.0;" x1="1702.5" x2="2257.5" y1="494.9414" y2="494.9414"/><text fill="#000000" font-family="sans-serif" font-size="14" lengthAdjust="spacing" textLength="29" x="1707.5" y="510.4766">type</text><text fill="#000000" font-family="sans-serif" font-size="14" lengthAdjust="spacing" textLength="54" x="1794.5" y="510.4766">number</text><line style="stroke:#A80036;stroke-width:1.0;" x1="1789.5" x2="1789.5" y1="494.9414" y2="515.4297"/><rect fill="none" height="110.9297" rx="5" ry="5" style="stroke:#A80036;stroke-width:1.5;" width="555" x="1702.5" y="404.5"/><rect fill="#FEFECE" height="110.9297" rx="5" ry="5" style="stroke:#FEFECE;stroke-width:1.5;" width="570" x="1695" y="533.5"/><text fill="#000000" font-family="sans-serif" font-size="14" lengthAdjust="spacing" textLength="29" x="1700" y="549.0352">type</text><text fill="#000000" font-family="sans-serif" font-size="14" lengthAdjust="spacing" textLength="54" x="1787" y="549.0352">number</text><line style="stroke:#A80036;stroke-width:1.0;" x1="1782" x2="1782" y1="533.5" y2="553.9883"/><line style="stroke:#A80036;stroke-width:1.0;" x1="1695" x2="2265" y1="553.9883" y2="553.9883"/><text fill="#000000" font-family="sans-serif" font-size="14" lengthAdjust="spacing" textLength="55" x="1700" y="569.5234">writable</text><text fill="#000000" font-family="sans-serif" font-size="14" lengthAdjust="spacing" textLength="48" x="1787" y="569.5234">☐ false</text><line style="stroke:#A80036;stroke-width:1.0;" x1="1782" x2="1782" y1="553.9883" y2="574.4766"/><line style="stroke:#A80036;stroke-width:1.0;" x1="1695" x2="2265" y1="574.4766" y2="574.4766"/><text fill="#000000" font-family="sans-serif" font-size="14" lengthAdjust="spacing" textLength="77" x="1700" y="590.0117">description</text><text fill="#000000" font-family="sans-serif" font-size="14" lengthAdjust="spacing" textLength="430" x="1787" y="590.0117">When exposed the value in 'precision' provides a +/- tolerance</text><text fill="#000000" font-family="sans-serif" font-size="14" lengthAdjust="spacing" textLength="473" x="1787" y="606.5">against the Properties in the Resource. Thus if a Property is UPDATED</text><text fill="#000000" font-family="sans-serif" font-size="14" lengthAdjust="spacing" textLength="465" x="1787" y="622.9883">to a value and that Property then RETRIEVED, the RETRIEVED value is</text><text fill="#000000" font-family="sans-serif" font-size="14" lengthAdjust="spacing" textLength="337" x="1787" y="639.4766">valid if in the range of the set value +/- precision</text><line style="stroke:#A80036;stroke-width:1.0;" x1="1782" x2="1782" y1="574.4766" y2="644.4297"/><rect fill="none" height="110.9297" rx="5" ry="5" style="stroke:#A80036;stroke-width:1.5;" width="570" x="1695" y="533.5"/><rect fill="#FEFECE" height="20.4883" rx="5" ry="5" style="stroke:#FEFECE;stroke-width:1.5;" width="275" x="1383" y="378"/><text fill="#000000" font-family="sans-serif" font-size="14" lengthAdjust="spacing" textLength="265" x="1388" y="393.5352">#/sdfObject/body.ffm/sdfProperty/ffm</text><rect fill="none" height="20.4883" rx="5" ry="5" style="stroke:#A80036;stroke-width:1.5;" width="275" x="1383" y="378"/><path d="M95,279 L108,279 C117.4068,279 126.9554,278.9088 136.5926,278.7376 " fill="none" style="stroke:#A80036;stroke-width:1.0;stroke-dasharray:3.0,3.0;"/><path d="M136.6543,281.8363 L138.9166,278.6914 L136.5309,275.6389 L144.3394,278.5834 L136.6543,281.8363 " fill="#A80036" style="stroke:#A80036;stroke-width:1.0;"/><ellipse cx="95" cy="279" fill="#A80036" rx="3" ry="3" style="stroke:#A80036;stroke-width:1.0;stroke-dasharray:3.0,3.0;"/><path d="M1557,268 L1570,268 C1662.7112,268 1616.0154,149.5468 1695,101 C1743.9661,70.9036 1806.1107,57.7337 1859.8197,52.3666 " fill="none" style="stroke:#A80036;stroke-width:1.0;stroke-dasharray:3.0,3.0;"/><path d="M1860.1023,55.3748 L1862.0758,52.1547 L1859.5371,49.3585 L1867.3401,51.6602 L1860.1023,55.3748 " fill="#A80036" style="stroke:#A80036;stroke-width:1.0;"/><ellipse cx="1557" cy="268" fill="#A80036" rx="3" ry="3" style="stroke:#A80036;stroke-width:1.0;stroke-dasharray:3.0,3.0;"/><path d="M2098.5,140 L2111.5,140 C2183.5847,140 2267.7723,140 2315.2931,140 " fill="none" style="stroke:#A80036;stroke-width:1.0;stroke-dasharray:3.0,3.0;"/><path d="M2315.2931,143.0349 L2317.5693,140 L2315.2931,136.9651 L2322.8803,140 L2315.2931,143.0349 " fill="#A80036" style="stroke:#A80036;stroke-width:1.0;"/><ellipse cx="2098.5" cy="140" fill="#A80036" rx="3" ry="3" style="stroke:#A80036;stroke-width:1.0;stroke-dasharray:3.0,3.0;"/><path d="M1557,288 L1570,288 C1633.0328,288 1635.7874,242.6103 1695,221 C1741.9244,203.8744 1795.0815,191.0234 1842.6413,181.7012 " fill="none" style="stroke:#A80036;stroke-width:1.0;stroke-dasharray:3.0,3.0;"/><path d="M1843.2277,184.7344 L1844.9163,181.2614 L1842.0549,178.6679 L1850.2245,180.2352 L1843.2277,184.7344 " fill="#A80036" style="stroke:#A80036;stroke-width:1.0;"/><ellipse cx="1557" cy="288" fill="#A80036" rx="3" ry="3" style="stroke:#A80036;stroke-width:1.0;stroke-dasharray:3.0,3.0;"/><path d="M2242.5,373 L2255.5,373 C2268.235,373 2281.9056,373 2294.8621,373 " fill="none" style="stroke:#A80036;stroke-width:1.0;stroke-dasharray:3.0,3.0;"/><path d="M2294.8621,376.0134 L2297.1221,373 L2294.8621,369.9866 L2302.3956,373 L2294.8621,376.0134 " fill="#A80036" style="stroke:#A80036;stroke-width:1.0;"/><ellipse cx="2242.5" cy="373" fill="#A80036" rx="3" ry="3" style="stroke:#A80036;stroke-width:1.0;stroke-dasharray:3.0,3.0;"/><path d="M1557,308 L1570,308 C1611.5815,308 1655.5381,308 1698.6139,308 " fill="none" style="stroke:#A80036;stroke-width:1.0;stroke-dasharray:3.0,3.0;"/><path d="M1698.6139,311.0995 L1700.9385,308 L1698.6139,304.9005 L1706.3627,308 L1698.6139,311.0995 " fill="#A80036" style="stroke:#A80036;stroke-width:1.0;"/><ellipse cx="1557" cy="308" fill="#A80036" rx="3" ry="3" style="stroke:#A80036;stroke-width:1.0;stroke-dasharray:3.0,3.0;"/><path d="M1557,329 L1570,329 C1613.3669,329 1621.4504,347.3039 1659,369 C1676.089,378.874 1677.0197,386.8613 1695,395 C1699.9979,397.2623 1705.082,399.4495 1710.2361,401.5639 " fill="none" style="stroke:#A80036;stroke-width:1.0;stroke-dasharray:3.0,3.0;"/><path d="M1709.1007,404.3919 L1712.3571,402.4154 L1711.3714,398.7358 L1717.3062,404.4023 L1709.1007,404.3919 " fill="#A80036" style="stroke:#A80036;stroke-width:1.0;"/><ellipse cx="1557" cy="329" fill="#A80036" rx="3" ry="3" style="stroke:#A80036;stroke-width:1.0;stroke-dasharray:3.0,3.0;"/><path d="M1557,350 L1570,350 C1610.4469,350 1630.1651,340.6363 1659,369 C1709.7273,418.8984 1644.5466,474.8247 1695,525 C1696.1106,526.1045 1697.2359,527.1916 1698.3753,528.2616 " fill="none" style="stroke:#A80036;stroke-width:1.0;stroke-dasharray:3.0,3.0;"/><path d="M1696.2918,530.5868 L1700.1193,529.8242 L1700.4589,525.9363 L1704.1885,533.4704 L1696.2918,530.5868 " fill="#A80036" style="stroke:#A80036;stroke-width:1.0;"/><ellipse cx="1557" cy="350" fill="#A80036" rx="3" ry="3" style="stroke:#A80036;stroke-width:1.0;stroke-dasharray:3.0,3.0;"/><path d="M1334,324 L1347,324 C1386.9394,324 1431.8722,319.9829 1465.9341,316.1064 " fill="none" style="stroke:#A80036;stroke-width:1.0;stroke-dasharray:3.0,3.0;"/><path d="M1466.2842,319.1203 L1468.1946,315.8438 L1465.584,313.0924 L1473.469,315.231 L1466.2842,319.1203 " fill="#A80036" style="stroke:#A80036;stroke-width:1.0;"/><ellipse cx="1334" cy="324" fill="#A80036" rx="3" ry="3" style="stroke:#A80036;stroke-width:1.0;stroke-dasharray:3.0,3.0;"/><path d="M1334,372 L1347,372 C1376.3499,372 1408.3821,374.3116 1436.8173,377.1775 " fill="none" style="stroke:#A80036;stroke-width:1.0;stroke-dasharray:3.0,3.0;"/><path d="M1436.5051,380.1904 L1439.077,377.4116 L1437.1294,374.1645 L1444.3497,377.9578 L1436.5051,380.1904 " fill="#A80036" style="stroke:#A80036;stroke-width:1.0;"/><ellipse cx="1334" cy="372" fill="#A80036" rx="3" ry="3" style="stroke:#A80036;stroke-width:1.0;stroke-dasharray:3.0,3.0;"/><path d="M486.5,324 L499.5,324 C593.308,324 695.7926,324 787.6933,324 " fill="none" style="stroke:#A80036;stroke-width:1.0;stroke-dasharray:3.0,3.0;"/><path d="M787.6933,327.0901 L790.0109,324 L787.6933,320.9099 L795.4185,324 L787.6933,327.0901 " fill="#A80036" style="stroke:#A80036;stroke-width:1.0;"/><ellipse cx="486.5" cy="324" fill="#A80036" rx="3" ry="3" style="stroke:#A80036;stroke-width:1.0;stroke-dasharray:3.0,3.0;"/><path d="M95,300 L108,300 C124.1536,300 127.927,303.388 144,305 C232.6445,313.8904 336.1571,319.2699 397.3581,321.934 " fill="none" style="stroke:#A80036;stroke-width:1.0;stroke-dasharray:3.0,3.0;"/><path d="M397.2273,324.9804 L399.6429,322.0321 L397.4889,318.8876 L404.9741,322.261 L397.2273,324.9804 " fill="#A80036" style="stroke:#A80036;stroke-width:1.0;"/><ellipse cx="95" cy="300" fill="#A80036" rx="3" ry="3" style="stroke:#A80036;stroke-width:1.0;stroke-dasharray:3.0,3.0;"/><!--MD5=[3c4428b44d188cad8d757ff0f537fa39]
@startjson
{
  "info": {
    "copyright": "Copyright 2016-2019 Open Connectivity Foundation, Inc. All rights reserved.",
    "license": "https://github.com/one-data-model/oneDM/blob/master/LICENSE",
    "title": "Body Fat Free Mass",
    "version": "2019-03-22"
  },
  "sdfObject": {
    "body.ffm": {
      "description": "This Resource describes the Properties associated with a person's\\nbody fat free mass. The unit is a single value that is one of kg, lb\\nor percent. If the unit Property is missing the default is kilograms\\n[kg]. The ffm and unit Properties are read-only values that are\\nprovided by the Server. When range is omitted the default is 0 to\\n+MAXFLOAT.",
      "sdfProperty": {
        "ffm": {
          "description": "Body fat free mass.",
          "minimum": 0,
          "writable": false,
          "type": "number"
        },
        "units": {
          "description": "Body fat free mass units",
          "enum": [
            "kg",
            "lb",
            "percent"
          ],
          "writable": false,
          "type": "string",
          "default": "kg"
        },
        "range": {
          "type": "array",
          "description": "The valid range for the Property in the Resource as a number. The\\nfirst value in the array is the minimum value, the second value in\\nthe array is the maximum value.",
          "writable": false,
          "minItems": 2,
          "maxItems": 2,
          "items": {
            "type": "number"
          }
        },
        "step": {
          "description": "Step value across the defined range an integer when the range is a\\nnumber.  This is the increment for valid values across the range; so\\nif range is 0.0..10.0 and step is 2.5 then valid values are\\n0.0,2.5,5.0,7.5,10.0.",
          "writable": false,
          "type": "number"
        },
        "precision": {
          "type": "number",
          "writable": false,
          "description": "When exposed the value in 'precision' provides a +/- tolerance\\nagainst the Properties in the Resource. Thus if a Property is UPDATED\\nto a value and that Property then RETRIEVED, the RETRIEVED value is\\nvalid if in the range of the set value +/- precision"
        }
      },
      "sdfRequired": [
        "#/sdfObject/body.ffm/sdfProperty/ffm"
      ]
    }
  }
}
@endjson

PlantUML version 1.2021.2(Sun Mar 07 13:10:27 EET 2021)
(GPL source distribution)
Java Runtime: OpenJDK Runtime Environment
JVM: OpenJDK 64-Bit Server VM
Default Encoding: UTF-8
Language: en
Country: FI
--></g></svg>