<?xml version="1.0" encoding="UTF-8" standalone="no"?><svg xmlns="http://www.w3.org/2000/svg" xmlns:xlink="http://www.w3.org/1999/xlink" contentScriptType="application/ecmascript" contentStyleType="text/css" height="660px" preserveAspectRatio="none" style="width:2488px;height:660px;" version="1.1" viewBox="0 0 2488 660" width="2488px" zoomAndPan="magnify"><defs/><g><rect fill="#FEFECE" height="40.9766" rx="5" ry="5" style="stroke:#FEFECE;stroke-width:1.5;" width="97" x="10" y="181"/><text fill="#000000" font-family="sans-serif" font-size="14" lengthAdjust="spacing" textLength="27" x="15" y="196.5352">info</text><text fill="#000000" font-family="sans-serif" font-size="14" lengthAdjust="spacing" textLength="0" x="102" y="196.5352"/><line style="stroke:#A80036;stroke-width:1.0;" x1="85" x2="85" y1="181" y2="201.4883"/><line style="stroke:#A80036;stroke-width:1.0;" x1="10" x2="107" y1="201.4883" y2="201.4883"/><text fill="#000000" font-family="sans-serif" font-size="14" lengthAdjust="spacing" textLength="65" x="15" y="217.0234">sdfObject</text><text fill="#000000" font-family="sans-serif" font-size="14" lengthAdjust="spacing" textLength="0" x="102" y="217.0234"/><line style="stroke:#A80036;stroke-width:1.0;" x1="85" x2="85" y1="201.4883" y2="221.9766"/><rect fill="none" height="40.9766" rx="5" ry="5" style="stroke:#A80036;stroke-width:1.5;" width="97" x="10" y="181"/><rect fill="#FEFECE" height="81.9531" rx="5" ry="5" style="stroke:#FEFECE;stroke-width:1.5;" width="655" x="144" y="125.5"/><text fill="#000000" font-family="sans-serif" font-size="14" lengthAdjust="spacing" textLength="65" x="149" y="141.0352">copyright</text><text fill="#000000" font-family="sans-serif" font-size="14" lengthAdjust="spacing" textLength="570" x="224" y="141.0352">copyright 2016-2017, 2019 Open Connectivity Foundation, Inc. All rights reserved.</text><line style="stroke:#A80036;stroke-width:1.0;" x1="219" x2="219" y1="125.5" y2="145.9883"/><line style="stroke:#A80036;stroke-width:1.0;" x1="144" x2="799" y1="145.9883" y2="145.9883"/><text fill="#000000" font-family="sans-serif" font-size="14" lengthAdjust="spacing" textLength="47" x="149" y="161.5234">license</text><text fill="#000000" font-family="sans-serif" font-size="14" lengthAdjust="spacing" textLength="462" x="224" y="161.5234">https://github.com/one-data-model/oneDM/blob/master/LICENSE</text><line style="stroke:#A80036;stroke-width:1.0;" x1="219" x2="219" y1="145.9883" y2="166.4766"/><line style="stroke:#A80036;stroke-width:1.0;" x1="144" x2="799" y1="166.4766" y2="166.4766"/><text fill="#000000" font-family="sans-serif" font-size="14" lengthAdjust="spacing" textLength="26" x="149" y="182.0117">title</text><text fill="#000000" font-family="sans-serif" font-size="14" lengthAdjust="spacing" textLength="56" x="224" y="182.0117">Air Flow</text><line style="stroke:#A80036;stroke-width:1.0;" x1="219" x2="219" y1="166.4766" y2="186.9648"/><line style="stroke:#A80036;stroke-width:1.0;" x1="144" x2="799" y1="186.9648" y2="186.9648"/><text fill="#000000" font-family="sans-serif" font-size="14" lengthAdjust="spacing" textLength="50" x="149" y="202.5">version</text><text fill="#000000" font-family="sans-serif" font-size="14" lengthAdjust="spacing" textLength="88" x="224" y="202.5">2019-02-15</text><line style="stroke:#A80036;stroke-width:1.0;" x1="219" x2="219" y1="186.9648" y2="207.4531"/><rect fill="none" height="81.9531" rx="5" ry="5" style="stroke:#A80036;stroke-width:1.5;" width="655" x="144" y="125.5"/><rect fill="#FEFECE" height="20.4883" rx="5" ry="5" style="stroke:#FEFECE;stroke-width:1.5;" width="79" x="432" y="225.5"/><text fill="#000000" font-family="sans-serif" font-size="14" lengthAdjust="spacing" textLength="47" x="437" y="241.0352">airflow</text><text fill="#000000" font-family="sans-serif" font-size="14" lengthAdjust="spacing" textLength="0" x="506" y="241.0352"/><line style="stroke:#A80036;stroke-width:1.0;" x1="489" x2="489" y1="225.5" y2="245.9883"/><rect fill="none" height="20.4883" rx="5" ry="5" style="stroke:#A80036;stroke-width:1.5;" width="79" x="432" y="225.5"/><rect fill="#FEFECE" height="259.3242" rx="5" ry="5" style="stroke:#FEFECE;stroke-width:1.5;" width="592" x="836" y="106"/><text fill="#000000" font-family="sans-serif" font-size="14" lengthAdjust="spacing" textLength="77" x="841" y="121.5352">description</text><text fill="#000000" font-family="sans-serif" font-size="14" lengthAdjust="spacing" textLength="437" x="934" y="121.5352">This Resource describes Properties associated with air flow. The</text><text fill="#000000" font-family="sans-serif" font-size="14" lengthAdjust="spacing" textLength="427" x="934" y="138.0234">Property "supporteddirections" is the set of valid values for the</text><text fill="#000000" font-family="sans-serif" font-size="14" lengthAdjust="spacing" textLength="446" x="934" y="154.5117">direction property for a particular instance of this Resource Type.</text><text fill="#000000" font-family="sans-serif" font-size="14" lengthAdjust="spacing" textLength="409" x="934" y="171">The Property "direction" is the directionality of the air flow if</text><text fill="#000000" font-family="sans-serif" font-size="14" lengthAdjust="spacing" textLength="456" x="934" y="187.4883">applicable, if Property "supporteddirections" is also present it must</text><text fill="#000000" font-family="sans-serif" font-size="14" lengthAdjust="spacing" textLength="423" x="934" y="203.9766">be a value from that set. The values of Property "direction" are</text><text fill="#000000" font-family="sans-serif" font-size="14" lengthAdjust="spacing" textLength="465" x="934" y="220.4648">dependent on the capabilities of the unit. The Property "speed" is an</text><text fill="#000000" font-family="sans-serif" font-size="14" lengthAdjust="spacing" textLength="416" x="934" y="236.9531">integer representing the current speed level for the unit. The</text><text fill="#000000" font-family="sans-serif" font-size="14" lengthAdjust="spacing" textLength="437" x="934" y="253.4414">Property "range" is an array of the min,max values for the speed</text><text fill="#000000" font-family="sans-serif" font-size="14" lengthAdjust="spacing" textLength="408" x="934" y="269.9297">level. If not present the "range" defaults to [0,100]. Property</text><text fill="#000000" font-family="sans-serif" font-size="14" lengthAdjust="spacing" textLength="489" x="934" y="286.418">"automode" is the status of the automode feature; Off means automode</text><text fill="#000000" font-family="sans-serif" font-size="14" lengthAdjust="spacing" textLength="422" x="934" y="302.9063">is not enabled, On means automode is active and the speed is</text><text fill="#000000" font-family="sans-serif" font-size="14" lengthAdjust="spacing" textLength="263" x="934" y="319.3945">automatically controlled by the Device.</text><line style="stroke:#A80036;stroke-width:1.0;" x1="929" x2="929" y1="106" y2="324.3477"/><line style="stroke:#A80036;stroke-width:1.0;" x1="836" x2="1428" y1="324.3477" y2="324.3477"/><text fill="#000000" font-family="sans-serif" font-size="14" lengthAdjust="spacing" textLength="79" x="841" y="339.8828">sdfProperty</text><text fill="#000000" font-family="sans-serif" font-size="14" lengthAdjust="spacing" textLength="0" x="946" y="339.8828"/><line style="stroke:#A80036;stroke-width:1.0;" x1="929" x2="929" y1="324.3477" y2="344.8359"/><line style="stroke:#A80036;stroke-width:1.0;" x1="836" x2="1428" y1="344.8359" y2="344.8359"/><text fill="#000000" font-family="sans-serif" font-size="14" lengthAdjust="spacing" textLength="83" x="841" y="360.3711">sdfRequired</text><text fill="#000000" font-family="sans-serif" font-size="14" lengthAdjust="spacing" textLength="0" x="946" y="360.3711"/><line style="stroke:#A80036;stroke-width:1.0;" x1="929" x2="929" y1="344.8359" y2="365.3242"/><rect fill="none" height="259.3242" rx="5" ry="5" style="stroke:#A80036;stroke-width:1.5;" width="592" x="836" y="106"/><rect fill="#FEFECE" height="122.9297" rx="5" ry="5" style="stroke:#FEFECE;stroke-width:1.5;" width="171" x="1519" y="172"/><text fill="#000000" font-family="sans-serif" font-size="14" lengthAdjust="spacing" textLength="41" x="1524" y="187.5352">speed</text><text fill="#000000" font-family="sans-serif" font-size="14" lengthAdjust="spacing" textLength="0" x="1685" y="187.5352"/><line style="stroke:#A80036;stroke-width:1.0;" x1="1668" x2="1668" y1="172" y2="192.4883"/><line style="stroke:#A80036;stroke-width:1.0;" x1="1519" x2="1690" y1="192.4883" y2="192.4883"/><text fill="#000000" font-family="sans-serif" font-size="14" lengthAdjust="spacing" textLength="61" x="1524" y="208.0234">direction</text><text fill="#000000" font-family="sans-serif" font-size="14" lengthAdjust="spacing" textLength="0" x="1685" y="208.0234"/><line style="stroke:#A80036;stroke-width:1.0;" x1="1668" x2="1668" y1="192.4883" y2="212.9766"/><line style="stroke:#A80036;stroke-width:1.0;" x1="1519" x2="1690" y1="212.9766" y2="212.9766"/><text fill="#000000" font-family="sans-serif" font-size="14" lengthAdjust="spacing" textLength="70" x="1524" y="228.5117">automode</text><text fill="#000000" font-family="sans-serif" font-size="14" lengthAdjust="spacing" textLength="0" x="1685" y="228.5117"/><line style="stroke:#A80036;stroke-width:1.0;" x1="1668" x2="1668" y1="212.9766" y2="233.4648"/><line style="stroke:#A80036;stroke-width:1.0;" x1="1519" x2="1690" y1="233.4648" y2="233.4648"/><text fill="#000000" font-family="sans-serif" font-size="14" lengthAdjust="spacing" textLength="139" x="1524" y="249">supporteddirections</text><text fill="#000000" font-family="sans-serif" font-size="14" lengthAdjust="spacing" textLength="0" x="1685" y="249"/><line style="stroke:#A80036;stroke-width:1.0;" x1="1668" x2="1668" y1="233.4648" y2="253.9531"/><line style="stroke:#A80036;stroke-width:1.0;" x1="1519" x2="1690" y1="253.9531" y2="253.9531"/><text fill="#000000" font-family="sans-serif" font-size="14" lengthAdjust="spacing" textLength="40" x="1524" y="269.4883">range</text><text fill="#000000" font-family="sans-serif" font-size="14" lengthAdjust="spacing" textLength="0" x="1685" y="269.4883"/><line style="stroke:#A80036;stroke-width:1.0;" x1="1668" x2="1668" y1="253.9531" y2="274.4414"/><line style="stroke:#A80036;stroke-width:1.0;" x1="1519" x2="1690" y1="274.4414" y2="274.4414"/><text fill="#000000" font-family="sans-serif" font-size="14" lengthAdjust="spacing" textLength="29" x="1524" y="289.9766">step</text><text fill="#000000" font-family="sans-serif" font-size="14" lengthAdjust="spacing" textLength="0" x="1685" y="289.9766"/><line style="stroke:#A80036;stroke-width:1.0;" x1="1668" x2="1668" y1="274.4414" y2="294.9297"/><rect fill="none" height="122.9297" rx="5" ry="5" style="stroke:#A80036;stroke-width:1.5;" width="171" x="1519" y="172"/><rect fill="#FEFECE" height="40.9766" rx="5" ry="5" style="stroke:#FEFECE;stroke-width:1.5;" width="261" x="1930.5" y="10"/><text fill="#000000" font-family="sans-serif" font-size="14" lengthAdjust="spacing" textLength="77" x="1935.5" y="25.5352">description</text><text fill="#000000" font-family="sans-serif" font-size="14" lengthAdjust="spacing" textLength="164" x="2022.5" y="25.5352">The current speed level.</text><line style="stroke:#A80036;stroke-width:1.0;" x1="2017.5" x2="2017.5" y1="10" y2="30.4883"/><line style="stroke:#A80036;stroke-width:1.0;" x1="1930.5" x2="2191.5" y1="30.4883" y2="30.4883"/><text fill="#000000" font-family="sans-serif" font-size="14" lengthAdjust="spacing" textLength="29" x="1935.5" y="46.0234">type</text><text fill="#000000" font-family="sans-serif" font-size="14" lengthAdjust="spacing" textLength="49" x="2022.5" y="46.0234">integer</text><line style="stroke:#A80036;stroke-width:1.0;" x1="2017.5" x2="2017.5" y1="30.4883" y2="50.9766"/><rect fill="none" height="40.9766" rx="5" ry="5" style="stroke:#A80036;stroke-width:1.5;" width="261" x="1930.5" y="10"/><rect fill="#FEFECE" height="57.4648" rx="5" ry="5" style="stroke:#FEFECE;stroke-width:1.5;" width="458" x="1832" y="69"/><text fill="#000000" font-family="sans-serif" font-size="14" lengthAdjust="spacing" textLength="77" x="1837" y="84.5352">description</text><text fill="#000000" font-family="sans-serif" font-size="14" lengthAdjust="spacing" textLength="361" x="1924" y="84.5352">The directionality of the air flow, a value indicated by</text><text fill="#000000" font-family="sans-serif" font-size="14" lengthAdjust="spacing" textLength="153" x="1924" y="101.0234">"supporteddirections".</text><line style="stroke:#A80036;stroke-width:1.0;" x1="1919" x2="1919" y1="69" y2="105.9766"/><line style="stroke:#A80036;stroke-width:1.0;" x1="1832" x2="2290" y1="105.9766" y2="105.9766"/><text fill="#000000" font-family="sans-serif" font-size="14" lengthAdjust="spacing" textLength="29" x="1837" y="121.5117">type</text><text fill="#000000" font-family="sans-serif" font-size="14" lengthAdjust="spacing" textLength="40" x="1924" y="121.5117">string</text><line style="stroke:#A80036;stroke-width:1.0;" x1="1919" x2="1919" y1="105.9766" y2="126.4648"/><rect fill="none" height="57.4648" rx="5" ry="5" style="stroke:#A80036;stroke-width:1.5;" width="458" x="1832" y="69"/><rect fill="#FEFECE" height="61.4648" rx="5" ry="5" style="stroke:#FEFECE;stroke-width:1.5;" width="560" x="1781" y="144"/><text fill="#000000" font-family="sans-serif" font-size="14" lengthAdjust="spacing" textLength="77" x="1786" y="159.5352">description</text><text fill="#000000" font-family="sans-serif" font-size="14" lengthAdjust="spacing" textLength="463" x="1873" y="159.5352">The status of the automode feature, if on speed is set by the Device.</text><line style="stroke:#A80036;stroke-width:1.0;" x1="1868" x2="1868" y1="144" y2="164.4883"/><line style="stroke:#A80036;stroke-width:1.0;" x1="1781" x2="2341" y1="164.4883" y2="164.4883"/><text fill="#000000" font-family="sans-serif" font-size="14" lengthAdjust="spacing" textLength="39" x="1786" y="180.0234">enum</text><text fill="#000000" font-family="sans-serif" font-size="14" lengthAdjust="spacing" textLength="0" x="1885" y="180.0234"/><line style="stroke:#A80036;stroke-width:1.0;" x1="1868" x2="1868" y1="164.4883" y2="184.9766"/><line style="stroke:#A80036;stroke-width:1.0;" x1="1781" x2="2341" y1="184.9766" y2="184.9766"/><text fill="#000000" font-family="sans-serif" font-size="14" lengthAdjust="spacing" textLength="29" x="1786" y="200.5117">type</text><text fill="#000000" font-family="sans-serif" font-size="14" lengthAdjust="spacing" textLength="40" x="1873" y="200.5117">string</text><line style="stroke:#A80036;stroke-width:1.0;" x1="1868" x2="1868" y1="184.9766" y2="205.4648"/><rect fill="none" height="61.4648" rx="5" ry="5" style="stroke:#A80036;stroke-width:1.5;" width="560" x="1781" y="144"/><rect fill="#FEFECE" height="40.9766" rx="5" ry="5" style="stroke:#FEFECE;stroke-width:1.5;" width="31" x="2411.5" y="153"/><text fill="#000000" font-family="sans-serif" font-size="14" lengthAdjust="spacing" textLength="20" x="2416.5" y="168.5352">On</text><line style="stroke:#A80036;stroke-width:1.0;" x1="2411.5" x2="2442.5" y1="173.4883" y2="173.4883"/><text fill="#000000" font-family="sans-serif" font-size="14" lengthAdjust="spacing" textLength="21" x="2416.5" y="189.0234">Off</text><rect fill="none" height="40.9766" rx="5" ry="5" style="stroke:#A80036;stroke-width:1.5;" width="31" x="2411.5" y="153"/><rect fill="#FEFECE" height="139.418" rx="5" ry="5" style="stroke:#FEFECE;stroke-width:1.5;" width="530" x="1796" y="223"/><text fill="#000000" font-family="sans-serif" font-size="14" lengthAdjust="spacing" textLength="77" x="1801" y="238.5352">description</text><text fill="#000000" font-family="sans-serif" font-size="14" lengthAdjust="spacing" textLength="425" x="1896" y="238.5352">The array of possible direction settings for this instance of the</text><text fill="#000000" font-family="sans-serif" font-size="14" lengthAdjust="spacing" textLength="104" x="1896" y="255.0234">Resource Type.</text><line style="stroke:#A80036;stroke-width:1.0;" x1="1891" x2="1891" y1="223" y2="259.9766"/><line style="stroke:#A80036;stroke-width:1.0;" x1="1796" x2="2326" y1="259.9766" y2="259.9766"/><text fill="#000000" font-family="sans-serif" font-size="14" lengthAdjust="spacing" textLength="37" x="1801" y="275.5117">items</text><text fill="#000000" font-family="sans-serif" font-size="14" lengthAdjust="spacing" textLength="0" x="1908" y="275.5117"/><line style="stroke:#A80036;stroke-width:1.0;" x1="1891" x2="1891" y1="259.9766" y2="280.4648"/><line style="stroke:#A80036;stroke-width:1.0;" x1="1796" x2="2326" y1="280.4648" y2="280.4648"/><text fill="#000000" font-family="sans-serif" font-size="14" lengthAdjust="spacing" textLength="63" x="1801" y="296">minItems</text><text fill="#000000" font-family="sans-serif" font-size="14" lengthAdjust="spacing" textLength="9" x="1896" y="296">1</text><line style="stroke:#A80036;stroke-width:1.0;" x1="1891" x2="1891" y1="280.4648" y2="300.9531"/><line style="stroke:#A80036;stroke-width:1.0;" x1="1796" x2="2326" y1="300.9531" y2="300.9531"/><text fill="#000000" font-family="sans-serif" font-size="14" lengthAdjust="spacing" textLength="85" x="1801" y="316.4883">uniqueItems</text><text fill="#000000" font-family="sans-serif" font-size="14" lengthAdjust="spacing" textLength="44" x="1896" y="316.4883">☑ true</text><line style="stroke:#A80036;stroke-width:1.0;" x1="1891" x2="1891" y1="300.9531" y2="321.4414"/><line style="stroke:#A80036;stroke-width:1.0;" x1="1796" x2="2326" y1="321.4414" y2="321.4414"/><text fill="#000000" font-family="sans-serif" font-size="14" lengthAdjust="spacing" textLength="55" x="1801" y="336.9766">writable</text><text fill="#000000" font-family="sans-serif" font-size="14" lengthAdjust="spacing" textLength="48" x="1896" y="336.9766">☐ false</text><line style="stroke:#A80036;stroke-width:1.0;" x1="1891" x2="1891" y1="321.4414" y2="341.9297"/><line style="stroke:#A80036;stroke-width:1.0;" x1="1796" x2="2326" y1="341.9297" y2="341.9297"/><text fill="#000000" font-family="sans-serif" font-size="14" lengthAdjust="spacing" textLength="29" x="1801" y="357.4648">type</text><text fill="#000000" font-family="sans-serif" font-size="14" lengthAdjust="spacing" textLength="35" x="1896" y="357.4648">array</text><line style="stroke:#A80036;stroke-width:1.0;" x1="1891" x2="1891" y1="341.9297" y2="362.418"/><rect fill="none" height="139.418" rx="5" ry="5" style="stroke:#A80036;stroke-width:1.5;" width="530" x="1796" y="223"/><rect fill="#FEFECE" height="20.4883" rx="5" ry="5" style="stroke:#FEFECE;stroke-width:1.5;" width="89" x="2382.5" y="247.5"/><text fill="#000000" font-family="sans-serif" font-size="14" lengthAdjust="spacing" textLength="29" x="2387.5" y="263.0352">type</text><text fill="#000000" font-family="sans-serif" font-size="14" lengthAdjust="spacing" textLength="40" x="2426.5" y="263.0352">string</text><line style="stroke:#A80036;stroke-width:1.0;" x1="2421.5" x2="2421.5" y1="247.5" y2="267.9883"/><rect fill="none" height="20.4883" rx="5" ry="5" style="stroke:#A80036;stroke-width:1.5;" width="89" x="2382.5" y="247.5"/><rect fill="#FEFECE" height="155.9063" rx="5" ry="5" style="stroke:#FEFECE;stroke-width:1.5;" width="552" x="1785" y="380.5"/><text fill="#000000" font-family="sans-serif" font-size="14" lengthAdjust="spacing" textLength="29" x="1790" y="396.0352">type</text><text fill="#000000" font-family="sans-serif" font-size="14" lengthAdjust="spacing" textLength="35" x="1877" y="396.0352">array</text><line style="stroke:#A80036;stroke-width:1.0;" x1="1872" x2="1872" y1="380.5" y2="400.9883"/><line style="stroke:#A80036;stroke-width:1.0;" x1="1785" x2="2337" y1="400.9883" y2="400.9883"/><text fill="#000000" font-family="sans-serif" font-size="14" lengthAdjust="spacing" textLength="77" x="1790" y="416.5234">description</text><text fill="#000000" font-family="sans-serif" font-size="14" lengthAdjust="spacing" textLength="455" x="1877" y="416.5234">The valid range for the Property in the Resource as an integer. The</text><text fill="#000000" font-family="sans-serif" font-size="14" lengthAdjust="spacing" textLength="439" x="1877" y="433.0117">first value in the array is the minimum value, the second value in</text><text fill="#000000" font-family="sans-serif" font-size="14" lengthAdjust="spacing" textLength="219" x="1877" y="449.5">the array is the maximum value.</text><line style="stroke:#A80036;stroke-width:1.0;" x1="1872" x2="1872" y1="400.9883" y2="454.4531"/><line style="stroke:#A80036;stroke-width:1.0;" x1="1785" x2="2337" y1="454.4531" y2="454.4531"/><text fill="#000000" font-family="sans-serif" font-size="14" lengthAdjust="spacing" textLength="55" x="1790" y="469.9883">writable</text><text fill="#000000" font-family="sans-serif" font-size="14" lengthAdjust="spacing" textLength="48" x="1877" y="469.9883">☐ false</text><line style="stroke:#A80036;stroke-width:1.0;" x1="1872" x2="1872" y1="454.4531" y2="474.9414"/><line style="stroke:#A80036;stroke-width:1.0;" x1="1785" x2="2337" y1="474.9414" y2="474.9414"/><text fill="#000000" font-family="sans-serif" font-size="14" lengthAdjust="spacing" textLength="63" x="1790" y="490.4766">minItems</text><text fill="#000000" font-family="sans-serif" font-size="14" lengthAdjust="spacing" textLength="9" x="1877" y="490.4766">2</text><line style="stroke:#A80036;stroke-width:1.0;" x1="1872" x2="1872" y1="474.9414" y2="495.4297"/><line style="stroke:#A80036;stroke-width:1.0;" x1="1785" x2="2337" y1="495.4297" y2="495.4297"/><text fill="#000000" font-family="sans-serif" font-size="14" lengthAdjust="spacing" textLength="67" x="1790" y="510.9648">maxItems</text><text fill="#000000" font-family="sans-serif" font-size="14" lengthAdjust="spacing" textLength="9" x="1877" y="510.9648">2</text><line style="stroke:#A80036;stroke-width:1.0;" x1="1872" x2="1872" y1="495.4297" y2="515.918"/><line style="stroke:#A80036;stroke-width:1.0;" x1="1785" x2="2337" y1="515.918" y2="515.918"/><text fill="#000000" font-family="sans-serif" font-size="14" lengthAdjust="spacing" textLength="37" x="1790" y="531.4531">items</text><text fill="#000000" font-family="sans-serif" font-size="14" lengthAdjust="spacing" textLength="0" x="1889" y="531.4531"/><line style="stroke:#A80036;stroke-width:1.0;" x1="1872" x2="1872" y1="515.918" y2="536.4063"/><rect fill="none" height="155.9063" rx="5" ry="5" style="stroke:#A80036;stroke-width:1.5;" width="552" x="1785" y="380.5"/><rect fill="#FEFECE" height="20.4883" rx="5" ry="5" style="stroke:#FEFECE;stroke-width:1.5;" width="98" x="2378" y="513.5"/><text fill="#000000" font-family="sans-serif" font-size="14" lengthAdjust="spacing" textLength="29" x="2383" y="529.0352">type</text><text fill="#000000" font-family="sans-serif" font-size="14" lengthAdjust="spacing" textLength="49" x="2422" y="529.0352">integer</text><line style="stroke:#A80036;stroke-width:1.0;" x1="2417" x2="2417" y1="513.5" y2="533.9883"/><rect fill="none" height="20.4883" rx="5" ry="5" style="stroke:#A80036;stroke-width:1.5;" width="98" x="2378" y="513.5"/><rect fill="#FEFECE" height="94.4414" rx="5" ry="5" style="stroke:#FEFECE;stroke-width:1.5;" width="549" x="1786.5" y="554.5"/><text fill="#000000" font-family="sans-serif" font-size="14" lengthAdjust="spacing" textLength="77" x="1791.5" y="570.0352">description</text><text fill="#000000" font-family="sans-serif" font-size="14" lengthAdjust="spacing" textLength="448" x="1878.5" y="570.0352">Step value across the defined range when the range is an integer.</text><text fill="#000000" font-family="sans-serif" font-size="14" lengthAdjust="spacing" textLength="449" x="1878.5" y="586.5234">This is the increment for valid values across the range; so if range</text><text fill="#000000" font-family="sans-serif" font-size="14" lengthAdjust="spacing" textLength="376" x="1878.5" y="603.0117">is 0..10 and step is 2 then valid values are 0,2,4,6,8,10.</text><line style="stroke:#A80036;stroke-width:1.0;" x1="1873.5" x2="1873.5" y1="554.5" y2="607.9648"/><line style="stroke:#A80036;stroke-width:1.0;" x1="1786.5" x2="2335.5" y1="607.9648" y2="607.9648"/><text fill="#000000" font-family="sans-serif" font-size="14" lengthAdjust="spacing" textLength="55" x="1791.5" y="623.5">writable</text><text fill="#000000" font-family="sans-serif" font-size="14" lengthAdjust="spacing" textLength="48" x="1878.5" y="623.5">☐ false</text><line style="stroke:#A80036;stroke-width:1.0;" x1="1873.5" x2="1873.5" y1="607.9648" y2="628.4531"/><line style="stroke:#A80036;stroke-width:1.0;" x1="1786.5" x2="2335.5" y1="628.4531" y2="628.4531"/><text fill="#000000" font-family="sans-serif" font-size="14" lengthAdjust="spacing" textLength="29" x="1791.5" y="643.9883">type</text><text fill="#000000" font-family="sans-serif" font-size="14" lengthAdjust="spacing" textLength="49" x="1878.5" y="643.9883">integer</text><line style="stroke:#A80036;stroke-width:1.0;" x1="1873.5" x2="1873.5" y1="628.4531" y2="648.9414"/><rect fill="none" height="94.4414" rx="5" ry="5" style="stroke:#A80036;stroke-width:1.5;" width="549" x="1786.5" y="554.5"/><rect fill="#FEFECE" height="20.4883" rx="5" ry="5" style="stroke:#FEFECE;stroke-width:1.5;" width="279" x="1465" y="313.5"/><text fill="#000000" font-family="sans-serif" font-size="14" lengthAdjust="spacing" textLength="269" x="1470" y="329.0352">#/sdfObject/airflow/sdfProperty/speed</text><rect fill="none" height="20.4883" rx="5" ry="5" style="stroke:#A80036;stroke-width:1.5;" width="279" x="1465" y="313.5"/><path d="M95,190.5 L108,190.5 C117.3442,190.5 126.8208,190.4198 136.3833,190.2688 " fill="none" style="stroke:#A80036;stroke-width:1.0;stroke-dasharray:3.0,3.0;"/><path d="M136.4378,193.3434 L138.6892,190.2279 L136.3288,187.1942 L144.0697,190.1326 L136.4378,193.3434 " fill="#A80036" style="stroke:#A80036;stroke-width:1.0;"/><ellipse cx="95" cy="190.5" fill="#A80036" rx="3" ry="3" style="stroke:#A80036;stroke-width:1.0;stroke-dasharray:3.0,3.0;"/><path d="M1679,181.5 L1692,181.5 C1759.117,181.5 1722.8202,92.9634 1781,59.5 C1823.4494,35.0843 1875.5821,25.3571 1923.2779,22.5533 " fill="none" style="stroke:#A80036;stroke-width:1.0;stroke-dasharray:3.0,3.0;"/><path d="M1923.4345,25.5992 L1925.5622,22.4358 L1923.1212,19.5075 L1930.8925,22.1616 L1923.4345,25.5992 " fill="#A80036" style="stroke:#A80036;stroke-width:1.0;"/><ellipse cx="1679" cy="181.5" fill="#A80036" rx="3" ry="3" style="stroke:#A80036;stroke-width:1.0;stroke-dasharray:3.0,3.0;"/><path d="M1679,202.5 L1692,202.5 C1741.7798,202.5 1734.9966,153.5187 1781,134.5 C1795.0916,128.6743 1809.8925,123.7185 1825.0214,119.5072 " fill="none" style="stroke:#A80036;stroke-width:1.0;stroke-dasharray:3.0,3.0;"/><path d="M1825.8246,122.4878 L1827.2568,118.9047 L1824.2181,116.5265 L1832.4729,117.4991 L1825.8246,122.4878 " fill="#A80036" style="stroke:#A80036;stroke-width:1.0;"/><ellipse cx="1679" cy="202.5" fill="#A80036" rx="3" ry="3" style="stroke:#A80036;stroke-width:1.0;stroke-dasharray:3.0,3.0;"/><path d="M2329,173.5 L2342,173.5 C2363.0539,173.5 2387.0586,173.5 2404.0888,173.5 " fill="none" style="stroke:#A80036;stroke-width:1.0;stroke-dasharray:3.0,3.0;"/><path d="M2404.0888,176.6026 L2406.4157,173.5 L2404.0888,170.3974 L2411.8453,173.5 L2404.0888,176.6026 " fill="#A80036" style="stroke:#A80036;stroke-width:1.0;"/><ellipse cx="2329" cy="173.5" fill="#A80036" rx="3" ry="3" style="stroke:#A80036;stroke-width:1.0;stroke-dasharray:3.0,3.0;"/><path d="M1679,222.5 L1692,222.5 C1708.2488,222.5 1768.7756,215.0666 1836.2151,206.0503 " fill="none" style="stroke:#A80036;stroke-width:1.0;stroke-dasharray:3.0,3.0;"/><path d="M1836.6348,209.1807 L1838.5629,205.7356 L1835.7955,202.9199 L1844.0411,205.0011 L1836.6348,209.1807 " fill="#A80036" style="stroke:#A80036;stroke-width:1.0;"/><ellipse cx="1679" cy="222.5" fill="#A80036" rx="3" ry="3" style="stroke:#A80036;stroke-width:1.0;stroke-dasharray:3.0,3.0;"/><path d="M2314.5,257.5 L2327.5,257.5 C2342.868,257.5 2359.578,257.5 2374.8177,257.5 " fill="none" style="stroke:#A80036;stroke-width:1.0;stroke-dasharray:3.0,3.0;"/><path d="M2374.8177,260.6282 L2377.1638,257.5 L2374.8177,254.3718 L2382.6382,257.5 L2374.8177,260.6282 " fill="#A80036" style="stroke:#A80036;stroke-width:1.0;"/><ellipse cx="2314.5" cy="257.5" fill="#A80036" rx="3" ry="3" style="stroke:#A80036;stroke-width:1.0;stroke-dasharray:3.0,3.0;"/><path d="M1679,243.5 L1692,243.5 C1723.3681,243.5 1756.1082,245.2662 1788.5686,248.1281 " fill="none" style="stroke:#A80036;stroke-width:1.0;stroke-dasharray:3.0,3.0;"/><path d="M1788.285,251.2483 L1790.9088,248.3408 L1788.8522,245.0078 L1796.3693,248.8371 L1788.285,251.2483 " fill="#A80036" style="stroke:#A80036;stroke-width:1.0;"/><ellipse cx="1679" cy="243.5" fill="#A80036" rx="3" ry="3" style="stroke:#A80036;stroke-width:1.0;stroke-dasharray:3.0,3.0;"/><path d="M2325.5,523.5 L2338.5,523.5 C2348.8268,523.5 2359.8353,523.5 2370.4456,523.5 " fill="none" style="stroke:#A80036;stroke-width:1.0;stroke-dasharray:3.0,3.0;"/><path d="M2370.4456,526.556 L2372.7376,523.5 L2370.4456,520.444 L2378.0856,523.5 L2370.4456,526.556 " fill="#A80036" style="stroke:#A80036;stroke-width:1.0;"/><ellipse cx="2325.5" cy="523.5" fill="#A80036" rx="3" ry="3" style="stroke:#A80036;stroke-width:1.0;stroke-dasharray:3.0,3.0;"/><path d="M1679,264.5 L1692,264.5 C1721.5112,264.5 1725.7934,282.0942 1745,304.5 C1767.0005,330.1651 1754.9235,349.9888 1781,371.5 C1782.7458,372.9401 1784.5154,374.3565 1786.3075,375.7494 " fill="none" style="stroke:#A80036;stroke-width:1.0;stroke-dasharray:3.0,3.0;"/><path d="M1784.4488,378.2205 L1788.1608,377.1434 L1788.1661,373.2783 L1792.4852,380.396 L1784.4488,378.2205 " fill="#A80036" style="stroke:#A80036;stroke-width:1.0;"/><ellipse cx="1679" cy="264.5" fill="#A80036" rx="3" ry="3" style="stroke:#A80036;stroke-width:1.0;stroke-dasharray:3.0,3.0;"/><path d="M1679,284.5 L1692,284.5 C1717.1769,284.5 1729.1862,284.9092 1745,304.5 C1813.0239,388.7706 1706.3376,467.0505 1781,545.5 C1782.2128,546.7743 1783.4458,548.024 1784.6982,549.2496 " fill="none" style="stroke:#A80036;stroke-width:1.0;stroke-dasharray:3.0,3.0;"/><path d="M1782.6101,551.4949 L1786.3822,550.8156 L1786.7862,547.0043 L1790.3114,554.4697 L1782.6101,551.4949 " fill="#A80036" style="stroke:#A80036;stroke-width:1.0;"/><ellipse cx="1679" cy="284.5" fill="#A80036" rx="3" ry="3" style="stroke:#A80036;stroke-width:1.0;stroke-dasharray:3.0,3.0;"/><path d="M1416,234.5 L1429,234.5 C1455.8232,234.5 1484.9586,234.3811 1511.6214,234.2252 " fill="none" style="stroke:#A80036;stroke-width:1.0;stroke-dasharray:3.0,3.0;"/><path d="M1511.6402,237.3528 L1513.967,234.2111 L1511.6025,231.0977 L1519.4403,234.1781 L1511.6402,237.3528 " fill="#A80036" style="stroke:#A80036;stroke-width:1.0;"/><ellipse cx="1416" cy="234.5" fill="#A80036" rx="3" ry="3" style="stroke:#A80036;stroke-width:1.0;stroke-dasharray:3.0,3.0;"/><path d="M1416,321.5 L1429,321.5 C1438.4428,321.5 1448.1719,321.5295 1457.9788,321.5813 " fill="none" style="stroke:#A80036;stroke-width:1.0;stroke-dasharray:3.0,3.0;"/><path d="M1457.9613,324.5857 L1460.2321,321.5944 L1457.9963,318.5768 L1465.4899,321.6251 L1457.9613,324.5857 " fill="#A80036" style="stroke:#A80036;stroke-width:1.0;"/><ellipse cx="1416" cy="321.5" fill="#A80036" rx="3" ry="3" style="stroke:#A80036;stroke-width:1.0;stroke-dasharray:3.0,3.0;"/><path d="M500,235.5 L513,235.5 C615.7927,235.5 728.1951,235.5 828.6464,235.5 " fill="none" style="stroke:#A80036;stroke-width:1.0;stroke-dasharray:3.0,3.0;"/><path d="M828.6464,238.5074 L830.902,235.5 L828.6464,232.4926 L836.165,235.5 L828.6464,238.5074 " fill="#A80036" style="stroke:#A80036;stroke-width:1.0;"/><ellipse cx="500" cy="235.5" fill="#A80036" rx="3" ry="3" style="stroke:#A80036;stroke-width:1.0;stroke-dasharray:3.0,3.0;"/><path d="M95,211.5 L108,211.5 C124.1536,211.5 127.924,214.9191 144,216.5 C243.7255,226.3068 361.0958,231.6151 424.5696,233.9714 " fill="none" style="stroke:#A80036;stroke-width:1.0;stroke-dasharray:3.0,3.0;"/><path d="M424.4551,237.1086 L426.9225,234.0573 L424.6841,230.8343 L432.4125,234.2577 L424.4551,237.1086 " fill="#A80036" style="stroke:#A80036;stroke-width:1.0;"/><ellipse cx="95" cy="211.5" fill="#A80036" rx="3" ry="3" style="stroke:#A80036;stroke-width:1.0;stroke-dasharray:3.0,3.0;"/><!--MD5=[70289c0c786949a7d57793e5a245f3aa]
@startjson
{
  "info": {
    "copyright": "copyright 2016-2017, 2019 Open Connectivity Foundation, Inc. All rights reserved.",
    "license": "https://github.com/one-data-model/oneDM/blob/master/LICENSE",
    "title": "Air Flow",
    "version": "2019-02-15"
  },
  "sdfObject": {
    "airflow": {
      "description": "This Resource describes Properties associated with air flow. The\\nProperty \"supporteddirections\" is the set of valid values for the\\ndirection property for a particular instance of this Resource Type.\\nThe Property \"direction\" is the directionality of the air flow if\\napplicable, if Property \"supporteddirections\" is also present it must\\nbe a value from that set. The values of Property \"direction\" are\\ndependent on the capabilities of the unit. The Property \"speed\" is an\\ninteger representing the current speed level for the unit. The\\nProperty \"range\" is an array of the min,max values for the speed\\nlevel. If not present the \"range\" defaults to [0,100]. Property\\n\"automode\" is the status of the automode feature; Off means automode\\nis not enabled, On means automode is active and the speed is\\nautomatically controlled by the Device.",
      "sdfProperty": {
        "speed": {
          "description": "The current speed level.",
          "type": "integer"
        },
        "direction": {
          "description": "The directionality of the air flow, a value indicated by\\n\"supporteddirections\".",
          "type": "string"
        },
        "automode": {
          "description": "The status of the automode feature, if on speed is set by the Device.",
          "enum": [
            "On",
            "Off"
          ],
          "type": "string"
        },
        "supporteddirections": {
          "description": "The array of possible direction settings for this instance of the\\nResource Type.",
          "items": {
            "type": "string"
          },
          "minItems": 1,
          "uniqueItems": true,
          "writable": false,
          "type": "array"
        },
        "range": {
          "type": "array",
          "description": "The valid range for the Property in the Resource as an integer. The\\nfirst value in the array is the minimum value, the second value in\\nthe array is the maximum value.",
          "writable": false,
          "minItems": 2,
          "maxItems": 2,
          "items": {
            "type": "integer"
          }
        },
        "step": {
          "description": "Step value across the defined range when the range is an integer. \\nThis is the increment for valid values across the range; so if range\\nis 0..10 and step is 2 then valid values are 0,2,4,6,8,10.",
          "writable": false,
          "type": "integer"
        }
      },
      "sdfRequired": [
        "#/sdfObject/airflow/sdfProperty/speed"
      ]
    }
  }
}
@endjson

PlantUML version 1.2021.2(Sun Mar 07 13:10:27 EET 2021)
(GPL source distribution)
Java Runtime: OpenJDK Runtime Environment
JVM: OpenJDK 64-Bit Server VM
Default Encoding: UTF-8
Language: en
Country: FI
--></g></svg>