<?xml version="1.0" encoding="UTF-8" standalone="no"?><svg xmlns="http://www.w3.org/2000/svg" xmlns:xlink="http://www.w3.org/1999/xlink" contentScriptType="application/ecmascript" contentStyleType="text/css" height="829px" preserveAspectRatio="none" style="width:2363px;height:829px;" version="1.1" viewBox="0 0 2363 829" width="2363px" zoomAndPan="magnify"><defs/><g><rect fill="#FEFECE" height="40.9766" rx="5" ry="5" style="stroke:#FEFECE;stroke-width:1.5;" width="97" x="10" y="395.5"/><text fill="#000000" font-family="sans-serif" font-size="14" lengthAdjust="spacing" textLength="27" x="15" y="411.0352">info</text><text fill="#000000" font-family="sans-serif" font-size="14" lengthAdjust="spacing" textLength="0" x="102" y="411.0352"/><line style="stroke:#A80036;stroke-width:1.0;" x1="85" x2="85" y1="395.5" y2="415.9883"/><line style="stroke:#A80036;stroke-width:1.0;" x1="10" x2="107" y1="415.9883" y2="415.9883"/><text fill="#000000" font-family="sans-serif" font-size="14" lengthAdjust="spacing" textLength="65" x="15" y="431.5234">sdfObject</text><text fill="#000000" font-family="sans-serif" font-size="14" lengthAdjust="spacing" textLength="0" x="102" y="431.5234"/><line style="stroke:#A80036;stroke-width:1.0;" x1="85" x2="85" y1="415.9883" y2="436.4766"/><rect fill="none" height="40.9766" rx="5" ry="5" style="stroke:#A80036;stroke-width:1.5;" width="97" x="10" y="395.5"/><rect fill="#FEFECE" height="81.9531" rx="5" ry="5" style="stroke:#FEFECE;stroke-width:1.5;" width="547" x="144" y="340"/><text fill="#000000" font-family="sans-serif" font-size="14" lengthAdjust="spacing" textLength="26" x="149" y="355.5352">title</text><text fill="#000000" font-family="sans-serif" font-size="14" lengthAdjust="spacing" textLength="303" x="224" y="355.5352">OMA LwM2M On/Off switch (Object ID 3342)</text><line style="stroke:#A80036;stroke-width:1.0;" x1="219" x2="219" y1="340" y2="360.4883"/><line style="stroke:#A80036;stroke-width:1.0;" x1="144" x2="691" y1="360.4883" y2="360.4883"/><text fill="#000000" font-family="sans-serif" font-size="14" lengthAdjust="spacing" textLength="50" x="149" y="376.0234">version</text><text fill="#000000" font-family="sans-serif" font-size="14" lengthAdjust="spacing" textLength="88" x="224" y="376.0234">2021-02-11</text><line style="stroke:#A80036;stroke-width:1.0;" x1="219" x2="219" y1="360.4883" y2="380.9766"/><line style="stroke:#A80036;stroke-width:1.0;" x1="144" x2="691" y1="380.9766" y2="380.9766"/><text fill="#000000" font-family="sans-serif" font-size="14" lengthAdjust="spacing" textLength="65" x="149" y="396.5117">copyright</text><text fill="#000000" font-family="sans-serif" font-size="14" lengthAdjust="spacing" textLength="208" x="224" y="396.5117">Copyright (c) 2018-2020 IPSO</text><line style="stroke:#A80036;stroke-width:1.0;" x1="219" x2="219" y1="380.9766" y2="401.4648"/><line style="stroke:#A80036;stroke-width:1.0;" x1="144" x2="691" y1="401.4648" y2="401.4648"/><text fill="#000000" font-family="sans-serif" font-size="14" lengthAdjust="spacing" textLength="47" x="149" y="417">license</text><text fill="#000000" font-family="sans-serif" font-size="14" lengthAdjust="spacing" textLength="462" x="224" y="417">https://github.com/one-data-model/oneDM/blob/master/LICENSE</text><line style="stroke:#A80036;stroke-width:1.0;" x1="219" x2="219" y1="401.4648" y2="421.9531"/><rect fill="none" height="81.9531" rx="5" ry="5" style="stroke:#A80036;stroke-width:1.5;" width="547" x="144" y="340"/><rect fill="#FEFECE" height="20.4883" rx="5" ry="5" style="stroke:#FEFECE;stroke-width:1.5;" width="130" x="352.5" y="440"/><text fill="#000000" font-family="sans-serif" font-size="14" lengthAdjust="spacing" textLength="98" x="357.5" y="455.5352">On_Off_switch</text><text fill="#000000" font-family="sans-serif" font-size="14" lengthAdjust="spacing" textLength="0" x="477.5" y="455.5352"/><line style="stroke:#A80036;stroke-width:1.0;" x1="460.5" x2="460.5" y1="440" y2="460.4883"/><rect fill="none" height="20.4883" rx="5" ry="5" style="stroke:#A80036;stroke-width:1.5;" width="130" x="352.5" y="440"/><rect fill="#FEFECE" height="118.9297" rx="5" ry="5" style="stroke:#FEFECE;stroke-width:1.5;" width="566" x="728" y="390.5"/><text fill="#000000" font-family="sans-serif" font-size="14" lengthAdjust="spacing" textLength="33" x="733" y="406.0352">label</text><text fill="#000000" font-family="sans-serif" font-size="14" lengthAdjust="spacing" textLength="95" x="826" y="406.0352">On/Off switch</text><line style="stroke:#A80036;stroke-width:1.0;" x1="821" x2="821" y1="390.5" y2="410.9883"/><line style="stroke:#A80036;stroke-width:1.0;" x1="728" x2="1294" y1="410.9883" y2="410.9883"/><text fill="#000000" font-family="sans-serif" font-size="14" lengthAdjust="spacing" textLength="77" x="733" y="426.5234">description</text><text fill="#000000" font-family="sans-serif" font-size="14" lengthAdjust="spacing" textLength="463" x="826" y="426.5234">This IPSO object should be used with an On/Off switch to report the</text><text fill="#000000" font-family="sans-serif" font-size="14" lengthAdjust="spacing" textLength="128" x="826" y="443.0117">state of the switch.</text><line style="stroke:#A80036;stroke-width:1.0;" x1="821" x2="821" y1="410.9883" y2="447.9648"/><line style="stroke:#A80036;stroke-width:1.0;" x1="728" x2="1294" y1="447.9648" y2="447.9648"/><text fill="#000000" font-family="sans-serif" font-size="14" lengthAdjust="spacing" textLength="79" x="733" y="463.5">sdfProperty</text><text fill="#000000" font-family="sans-serif" font-size="14" lengthAdjust="spacing" textLength="0" x="838" y="463.5"/><line style="stroke:#A80036;stroke-width:1.0;" x1="821" x2="821" y1="447.9648" y2="468.4531"/><line style="stroke:#A80036;stroke-width:1.0;" x1="728" x2="1294" y1="468.4531" y2="468.4531"/><text fill="#000000" font-family="sans-serif" font-size="14" lengthAdjust="spacing" textLength="65" x="733" y="483.9883">sdfAction</text><text fill="#000000" font-family="sans-serif" font-size="14" lengthAdjust="spacing" textLength="0" x="838" y="483.9883"/><line style="stroke:#A80036;stroke-width:1.0;" x1="821" x2="821" y1="468.4531" y2="488.9414"/><line style="stroke:#A80036;stroke-width:1.0;" x1="728" x2="1294" y1="488.9414" y2="488.9414"/><text fill="#000000" font-family="sans-serif" font-size="14" lengthAdjust="spacing" textLength="83" x="733" y="504.4766">sdfRequired</text><text fill="#000000" font-family="sans-serif" font-size="14" lengthAdjust="spacing" textLength="0" x="838" y="504.4766"/><line style="stroke:#A80036;stroke-width:1.0;" x1="821" x2="821" y1="488.9414" y2="509.4297"/><rect fill="none" height="118.9297" rx="5" ry="5" style="stroke:#A80036;stroke-width:1.5;" width="566" x="728" y="390.5"/><rect fill="#FEFECE" height="143.418" rx="5" ry="5" style="stroke:#FEFECE;stroke-width:1.5;" width="183" x="1448" y="304.5"/><text fill="#000000" font-family="sans-serif" font-size="14" lengthAdjust="spacing" textLength="128" x="1453" y="320.0352">Digital_Input_State</text><text fill="#000000" font-family="sans-serif" font-size="14" lengthAdjust="spacing" textLength="0" x="1626" y="320.0352"/><line style="stroke:#A80036;stroke-width:1.0;" x1="1609" x2="1609" y1="304.5" y2="324.9883"/><line style="stroke:#A80036;stroke-width:1.0;" x1="1448" x2="1631" y1="324.9883" y2="324.9883"/><text fill="#000000" font-family="sans-serif" font-size="14" lengthAdjust="spacing" textLength="150" x="1453" y="340.5234">Digital_Input_Counter</text><text fill="#000000" font-family="sans-serif" font-size="14" lengthAdjust="spacing" textLength="0" x="1626" y="340.5234"/><line style="stroke:#A80036;stroke-width:1.0;" x1="1609" x2="1609" y1="324.9883" y2="345.4766"/><line style="stroke:#A80036;stroke-width:1.0;" x1="1448" x2="1631" y1="345.4766" y2="345.4766"/><text fill="#000000" font-family="sans-serif" font-size="14" lengthAdjust="spacing" textLength="57" x="1453" y="361.0117">On_time</text><text fill="#000000" font-family="sans-serif" font-size="14" lengthAdjust="spacing" textLength="0" x="1626" y="361.0117"/><line style="stroke:#A80036;stroke-width:1.0;" x1="1609" x2="1609" y1="345.4766" y2="365.9648"/><line style="stroke:#A80036;stroke-width:1.0;" x1="1448" x2="1631" y1="365.9648" y2="365.9648"/><text fill="#000000" font-family="sans-serif" font-size="14" lengthAdjust="spacing" textLength="62" x="1453" y="381.5">Off_Time</text><text fill="#000000" font-family="sans-serif" font-size="14" lengthAdjust="spacing" textLength="0" x="1626" y="381.5"/><line style="stroke:#A80036;stroke-width:1.0;" x1="1609" x2="1609" y1="365.9648" y2="386.4531"/><line style="stroke:#A80036;stroke-width:1.0;" x1="1448" x2="1631" y1="386.4531" y2="386.4531"/><text fill="#000000" font-family="sans-serif" font-size="14" lengthAdjust="spacing" textLength="118" x="1453" y="401.9883">Application_Type</text><text fill="#000000" font-family="sans-serif" font-size="14" lengthAdjust="spacing" textLength="0" x="1626" y="401.9883"/><line style="stroke:#A80036;stroke-width:1.0;" x1="1609" x2="1609" y1="386.4531" y2="406.9414"/><line style="stroke:#A80036;stroke-width:1.0;" x1="1448" x2="1631" y1="406.9414" y2="406.9414"/><text fill="#000000" font-family="sans-serif" font-size="14" lengthAdjust="spacing" textLength="76" x="1453" y="422.4766">Timestamp</text><text fill="#000000" font-family="sans-serif" font-size="14" lengthAdjust="spacing" textLength="0" x="1626" y="422.4766"/><line style="stroke:#A80036;stroke-width:1.0;" x1="1609" x2="1609" y1="406.9414" y2="427.4297"/><line style="stroke:#A80036;stroke-width:1.0;" x1="1448" x2="1631" y1="427.4297" y2="427.4297"/><text fill="#000000" font-family="sans-serif" font-size="14" lengthAdjust="spacing" textLength="151" x="1453" y="442.9648">Fractional_Timestamp</text><text fill="#000000" font-family="sans-serif" font-size="14" lengthAdjust="spacing" textLength="0" x="1626" y="442.9648"/><line style="stroke:#A80036;stroke-width:1.0;" x1="1609" x2="1609" y1="427.4297" y2="447.918"/><rect fill="none" height="143.418" rx="5" ry="5" style="stroke:#A80036;stroke-width:1.5;" width="183" x="1448" y="304.5"/><rect fill="#FEFECE" height="81.9531" rx="5" ry="5" style="stroke:#FEFECE;stroke-width:1.5;" width="335" x="1900.5" y="10"/><text fill="#000000" font-family="sans-serif" font-size="14" lengthAdjust="spacing" textLength="33" x="1905.5" y="25.5352">label</text><text fill="#000000" font-family="sans-serif" font-size="14" lengthAdjust="spacing" textLength="122" x="1992.5" y="25.5352">Digital Input State</text><line style="stroke:#A80036;stroke-width:1.0;" x1="1987.5" x2="1987.5" y1="10" y2="30.4883"/><line style="stroke:#A80036;stroke-width:1.0;" x1="1900.5" x2="2235.5" y1="30.4883" y2="30.4883"/><text fill="#000000" font-family="sans-serif" font-size="14" lengthAdjust="spacing" textLength="77" x="1905.5" y="46.0234">description</text><text fill="#000000" font-family="sans-serif" font-size="14" lengthAdjust="spacing" textLength="238" x="1992.5" y="46.0234">The current state of a digital input.</text><line style="stroke:#A80036;stroke-width:1.0;" x1="1987.5" x2="1987.5" y1="30.4883" y2="50.9766"/><line style="stroke:#A80036;stroke-width:1.0;" x1="1900.5" x2="2235.5" y1="50.9766" y2="50.9766"/><text fill="#000000" font-family="sans-serif" font-size="14" lengthAdjust="spacing" textLength="55" x="1905.5" y="66.5117">writable</text><text fill="#000000" font-family="sans-serif" font-size="14" lengthAdjust="spacing" textLength="48" x="1992.5" y="66.5117">☐ false</text><line style="stroke:#A80036;stroke-width:1.0;" x1="1987.5" x2="1987.5" y1="50.9766" y2="71.4648"/><line style="stroke:#A80036;stroke-width:1.0;" x1="1900.5" x2="2235.5" y1="71.4648" y2="71.4648"/><text fill="#000000" font-family="sans-serif" font-size="14" lengthAdjust="spacing" textLength="29" x="1905.5" y="87">type</text><text fill="#000000" font-family="sans-serif" font-size="14" lengthAdjust="spacing" textLength="56" x="1992.5" y="87">boolean</text><line style="stroke:#A80036;stroke-width:1.0;" x1="1987.5" x2="1987.5" y1="71.4648" y2="91.9531"/><rect fill="none" height="81.9531" rx="5" ry="5" style="stroke:#A80036;stroke-width:1.5;" width="335" x="1900.5" y="10"/><rect fill="#FEFECE" height="81.9531" rx="5" ry="5" style="stroke:#FEFECE;stroke-width:1.5;" width="406" x="1865" y="110"/><text fill="#000000" font-family="sans-serif" font-size="14" lengthAdjust="spacing" textLength="33" x="1870" y="125.5352">label</text><text fill="#000000" font-family="sans-serif" font-size="14" lengthAdjust="spacing" textLength="144" x="1957" y="125.5352">Digital Input Counter</text><line style="stroke:#A80036;stroke-width:1.0;" x1="1952" x2="1952" y1="110" y2="130.4883"/><line style="stroke:#A80036;stroke-width:1.0;" x1="1865" x2="2271" y1="130.4883" y2="130.4883"/><text fill="#000000" font-family="sans-serif" font-size="14" lengthAdjust="spacing" textLength="77" x="1870" y="146.0234">description</text><text fill="#000000" font-family="sans-serif" font-size="14" lengthAdjust="spacing" textLength="309" x="1957" y="146.0234">The cumulative value of active state detected.</text><line style="stroke:#A80036;stroke-width:1.0;" x1="1952" x2="1952" y1="130.4883" y2="150.9766"/><line style="stroke:#A80036;stroke-width:1.0;" x1="1865" x2="2271" y1="150.9766" y2="150.9766"/><text fill="#000000" font-family="sans-serif" font-size="14" lengthAdjust="spacing" textLength="55" x="1870" y="166.5117">writable</text><text fill="#000000" font-family="sans-serif" font-size="14" lengthAdjust="spacing" textLength="48" x="1957" y="166.5117">☐ false</text><line style="stroke:#A80036;stroke-width:1.0;" x1="1952" x2="1952" y1="150.9766" y2="171.4648"/><line style="stroke:#A80036;stroke-width:1.0;" x1="1865" x2="2271" y1="171.4648" y2="171.4648"/><text fill="#000000" font-family="sans-serif" font-size="14" lengthAdjust="spacing" textLength="29" x="1870" y="187">type</text><text fill="#000000" font-family="sans-serif" font-size="14" lengthAdjust="spacing" textLength="49" x="1957" y="187">integer</text><line style="stroke:#A80036;stroke-width:1.0;" x1="1952" x2="1952" y1="171.4648" y2="191.9531"/><rect fill="none" height="81.9531" rx="5" ry="5" style="stroke:#A80036;stroke-width:1.5;" width="406" x="1865" y="110"/><rect fill="#FEFECE" height="98.4414" rx="5" ry="5" style="stroke:#FEFECE;stroke-width:1.5;" width="566" x="1785" y="210"/><text fill="#000000" font-family="sans-serif" font-size="14" lengthAdjust="spacing" textLength="33" x="1790" y="225.5352">label</text><text fill="#000000" font-family="sans-serif" font-size="14" lengthAdjust="spacing" textLength="54" x="1877" y="225.5352">On time</text><line style="stroke:#A80036;stroke-width:1.0;" x1="1872" x2="1872" y1="210" y2="230.4883"/><line style="stroke:#A80036;stroke-width:1.0;" x1="1785" x2="2351" y1="230.4883" y2="230.4883"/><text fill="#000000" font-family="sans-serif" font-size="14" lengthAdjust="spacing" textLength="77" x="1790" y="246.0234">description</text><text fill="#000000" font-family="sans-serif" font-size="14" lengthAdjust="spacing" textLength="469" x="1877" y="246.0234">The time in seconds that the device has been on. Writing a value of 0</text><text fill="#000000" font-family="sans-serif" font-size="14" lengthAdjust="spacing" textLength="128" x="1877" y="262.5117">resets the counter.</text><line style="stroke:#A80036;stroke-width:1.0;" x1="1872" x2="1872" y1="230.4883" y2="267.4648"/><line style="stroke:#A80036;stroke-width:1.0;" x1="1785" x2="2351" y1="267.4648" y2="267.4648"/><text fill="#000000" font-family="sans-serif" font-size="14" lengthAdjust="spacing" textLength="29" x="1790" y="283">type</text><text fill="#000000" font-family="sans-serif" font-size="14" lengthAdjust="spacing" textLength="49" x="1877" y="283">integer</text><line style="stroke:#A80036;stroke-width:1.0;" x1="1872" x2="1872" y1="267.4648" y2="287.9531"/><line style="stroke:#A80036;stroke-width:1.0;" x1="1785" x2="2351" y1="287.9531" y2="287.9531"/><text fill="#000000" font-family="sans-serif" font-size="14" lengthAdjust="spacing" textLength="27" x="1790" y="303.4883">unit</text><text fill="#000000" font-family="sans-serif" font-size="14" lengthAdjust="spacing" textLength="7" x="1877" y="303.4883">s</text><line style="stroke:#A80036;stroke-width:1.0;" x1="1872" x2="1872" y1="287.9531" y2="308.4414"/><rect fill="none" height="98.4414" rx="5" ry="5" style="stroke:#A80036;stroke-width:1.5;" width="566" x="1785" y="210"/><rect fill="#FEFECE" height="98.4414" rx="5" ry="5" style="stroke:#FEFECE;stroke-width:1.5;" width="548" x="1794" y="326"/><text fill="#000000" font-family="sans-serif" font-size="14" lengthAdjust="spacing" textLength="33" x="1799" y="341.5352">label</text><text fill="#000000" font-family="sans-serif" font-size="14" lengthAdjust="spacing" textLength="59" x="1886" y="341.5352">Off Time</text><line style="stroke:#A80036;stroke-width:1.0;" x1="1881" x2="1881" y1="326" y2="346.4883"/><line style="stroke:#A80036;stroke-width:1.0;" x1="1794" x2="2342" y1="346.4883" y2="346.4883"/><text fill="#000000" font-family="sans-serif" font-size="14" lengthAdjust="spacing" textLength="77" x="1799" y="362.0234">description</text><text fill="#000000" font-family="sans-serif" font-size="14" lengthAdjust="spacing" textLength="451" x="1886" y="362.0234">The time in seconds in the off state. Writing a value of 0 resets the</text><text fill="#000000" font-family="sans-serif" font-size="14" lengthAdjust="spacing" textLength="57" x="1886" y="378.5117">counter.</text><line style="stroke:#A80036;stroke-width:1.0;" x1="1881" x2="1881" y1="346.4883" y2="383.4648"/><line style="stroke:#A80036;stroke-width:1.0;" x1="1794" x2="2342" y1="383.4648" y2="383.4648"/><text fill="#000000" font-family="sans-serif" font-size="14" lengthAdjust="spacing" textLength="29" x="1799" y="399">type</text><text fill="#000000" font-family="sans-serif" font-size="14" lengthAdjust="spacing" textLength="49" x="1886" y="399">integer</text><line style="stroke:#A80036;stroke-width:1.0;" x1="1881" x2="1881" y1="383.4648" y2="403.9531"/><line style="stroke:#A80036;stroke-width:1.0;" x1="1794" x2="2342" y1="403.9531" y2="403.9531"/><text fill="#000000" font-family="sans-serif" font-size="14" lengthAdjust="spacing" textLength="27" x="1799" y="419.4883">unit</text><text fill="#000000" font-family="sans-serif" font-size="14" lengthAdjust="spacing" textLength="7" x="1886" y="419.4883">s</text><line style="stroke:#A80036;stroke-width:1.0;" x1="1881" x2="1881" y1="403.9531" y2="424.4414"/><rect fill="none" height="98.4414" rx="5" ry="5" style="stroke:#A80036;stroke-width:1.5;" width="548" x="1794" y="326"/><rect fill="#FEFECE" height="77.9531" rx="5" ry="5" style="stroke:#FEFECE;stroke-width:1.5;" width="563" x="1786.5" y="442"/><text fill="#000000" font-family="sans-serif" font-size="14" lengthAdjust="spacing" textLength="33" x="1791.5" y="457.5352">label</text><text fill="#000000" font-family="sans-serif" font-size="14" lengthAdjust="spacing" textLength="115" x="1878.5" y="457.5352">Application Type</text><line style="stroke:#A80036;stroke-width:1.0;" x1="1873.5" x2="1873.5" y1="442" y2="462.4883"/><line style="stroke:#A80036;stroke-width:1.0;" x1="1786.5" x2="2349.5" y1="462.4883" y2="462.4883"/><text fill="#000000" font-family="sans-serif" font-size="14" lengthAdjust="spacing" textLength="77" x="1791.5" y="478.0234">description</text><text fill="#000000" font-family="sans-serif" font-size="14" lengthAdjust="spacing" textLength="466" x="1878.5" y="478.0234">The application type of the sensor or actuator as a string depending</text><text fill="#000000" font-family="sans-serif" font-size="14" lengthAdjust="spacing" textLength="110" x="1878.5" y="494.5117">on the use case.</text><line style="stroke:#A80036;stroke-width:1.0;" x1="1873.5" x2="1873.5" y1="462.4883" y2="499.4648"/><line style="stroke:#A80036;stroke-width:1.0;" x1="1786.5" x2="2349.5" y1="499.4648" y2="499.4648"/><text fill="#000000" font-family="sans-serif" font-size="14" lengthAdjust="spacing" textLength="29" x="1791.5" y="515">type</text><text fill="#000000" font-family="sans-serif" font-size="14" lengthAdjust="spacing" textLength="40" x="1878.5" y="515">string</text><line style="stroke:#A80036;stroke-width:1.0;" x1="1873.5" x2="1873.5" y1="499.4648" y2="519.9531"/><rect fill="none" height="77.9531" rx="5" ry="5" style="stroke:#A80036;stroke-width:1.5;" width="563" x="1786.5" y="442"/><rect fill="#FEFECE" height="102.4414" rx="5" ry="5" style="stroke:#FEFECE;stroke-width:1.5;" width="493" x="1821.5" y="538"/><text fill="#000000" font-family="sans-serif" font-size="14" lengthAdjust="spacing" textLength="33" x="1826.5" y="553.5352">label</text><text fill="#000000" font-family="sans-serif" font-size="14" lengthAdjust="spacing" textLength="76" x="1913.5" y="553.5352">Timestamp</text><line style="stroke:#A80036;stroke-width:1.0;" x1="1908.5" x2="1908.5" y1="538" y2="558.4883"/><line style="stroke:#A80036;stroke-width:1.0;" x1="1821.5" x2="2314.5" y1="558.4883" y2="558.4883"/><text fill="#000000" font-family="sans-serif" font-size="14" lengthAdjust="spacing" textLength="77" x="1826.5" y="574.0234">description</text><text fill="#000000" font-family="sans-serif" font-size="14" lengthAdjust="spacing" textLength="396" x="1913.5" y="574.0234">The timestamp of when the measurement was performed.</text><line style="stroke:#A80036;stroke-width:1.0;" x1="1908.5" x2="1908.5" y1="558.4883" y2="578.9766"/><line style="stroke:#A80036;stroke-width:1.0;" x1="1821.5" x2="2314.5" y1="578.9766" y2="578.9766"/><text fill="#000000" font-family="sans-serif" font-size="14" lengthAdjust="spacing" textLength="55" x="1826.5" y="594.5117">writable</text><text fill="#000000" font-family="sans-serif" font-size="14" lengthAdjust="spacing" textLength="48" x="1913.5" y="594.5117">☐ false</text><line style="stroke:#A80036;stroke-width:1.0;" x1="1908.5" x2="1908.5" y1="578.9766" y2="599.4648"/><line style="stroke:#A80036;stroke-width:1.0;" x1="1821.5" x2="2314.5" y1="599.4648" y2="599.4648"/><text fill="#000000" font-family="sans-serif" font-size="14" lengthAdjust="spacing" textLength="29" x="1826.5" y="615">type</text><text fill="#000000" font-family="sans-serif" font-size="14" lengthAdjust="spacing" textLength="54" x="1913.5" y="615">number</text><line style="stroke:#A80036;stroke-width:1.0;" x1="1908.5" x2="1908.5" y1="599.4648" y2="619.9531"/><line style="stroke:#A80036;stroke-width:1.0;" x1="1821.5" x2="2314.5" y1="619.9531" y2="619.9531"/><text fill="#000000" font-family="sans-serif" font-size="14" lengthAdjust="spacing" textLength="54" x="1826.5" y="635.4883">sdfType</text><text fill="#000000" font-family="sans-serif" font-size="14" lengthAdjust="spacing" textLength="69" x="1913.5" y="635.4883">unix-time</text><line style="stroke:#A80036;stroke-width:1.0;" x1="1908.5" x2="1908.5" y1="619.9531" y2="640.4414"/><rect fill="none" height="102.4414" rx="5" ry="5" style="stroke:#A80036;stroke-width:1.5;" width="493" x="1821.5" y="538"/><rect fill="#FEFECE" height="159.9063" rx="5" ry="5" style="stroke:#FEFECE;stroke-width:1.5;" width="563" x="1786.5" y="658"/><text fill="#000000" font-family="sans-serif" font-size="14" lengthAdjust="spacing" textLength="33" x="1791.5" y="673.5352">label</text><text fill="#000000" font-family="sans-serif" font-size="14" lengthAdjust="spacing" textLength="148" x="1878.5" y="673.5352">Fractional Timestamp</text><line style="stroke:#A80036;stroke-width:1.0;" x1="1873.5" x2="1873.5" y1="658" y2="678.4883"/><line style="stroke:#A80036;stroke-width:1.0;" x1="1786.5" x2="2349.5" y1="678.4883" y2="678.4883"/><text fill="#000000" font-family="sans-serif" font-size="14" lengthAdjust="spacing" textLength="77" x="1791.5" y="694.0234">description</text><text fill="#000000" font-family="sans-serif" font-size="14" lengthAdjust="spacing" textLength="466" x="1878.5" y="694.0234">Fractional part of the timestamp when sub-second precision is used</text><text fill="#000000" font-family="sans-serif" font-size="14" lengthAdjust="spacing" textLength="157" x="1878.5" y="710.5117">(e.g., 0.23 for 230 ms).</text><line style="stroke:#A80036;stroke-width:1.0;" x1="1873.5" x2="1873.5" y1="678.4883" y2="715.4648"/><line style="stroke:#A80036;stroke-width:1.0;" x1="1786.5" x2="2349.5" y1="715.4648" y2="715.4648"/><text fill="#000000" font-family="sans-serif" font-size="14" lengthAdjust="spacing" textLength="55" x="1791.5" y="731">writable</text><text fill="#000000" font-family="sans-serif" font-size="14" lengthAdjust="spacing" textLength="48" x="1878.5" y="731">☐ false</text><line style="stroke:#A80036;stroke-width:1.0;" x1="1873.5" x2="1873.5" y1="715.4648" y2="735.9531"/><line style="stroke:#A80036;stroke-width:1.0;" x1="1786.5" x2="2349.5" y1="735.9531" y2="735.9531"/><text fill="#000000" font-family="sans-serif" font-size="14" lengthAdjust="spacing" textLength="29" x="1791.5" y="751.4883">type</text><text fill="#000000" font-family="sans-serif" font-size="14" lengthAdjust="spacing" textLength="54" x="1878.5" y="751.4883">number</text><line style="stroke:#A80036;stroke-width:1.0;" x1="1873.5" x2="1873.5" y1="735.9531" y2="756.4414"/><line style="stroke:#A80036;stroke-width:1.0;" x1="1786.5" x2="2349.5" y1="756.4414" y2="756.4414"/><text fill="#000000" font-family="sans-serif" font-size="14" lengthAdjust="spacing" textLength="27" x="1791.5" y="771.9766">unit</text><text fill="#000000" font-family="sans-serif" font-size="14" lengthAdjust="spacing" textLength="7" x="1878.5" y="771.9766">s</text><line style="stroke:#A80036;stroke-width:1.0;" x1="1873.5" x2="1873.5" y1="756.4414" y2="776.9297"/><line style="stroke:#A80036;stroke-width:1.0;" x1="1786.5" x2="2349.5" y1="776.9297" y2="776.9297"/><text fill="#000000" font-family="sans-serif" font-size="14" lengthAdjust="spacing" textLength="65" x="1791.5" y="792.4648">minimum</text><text fill="#000000" font-family="sans-serif" font-size="14" lengthAdjust="spacing" textLength="9" x="1878.5" y="792.4648">0</text><line style="stroke:#A80036;stroke-width:1.0;" x1="1873.5" x2="1873.5" y1="776.9297" y2="797.418"/><line style="stroke:#A80036;stroke-width:1.0;" x1="1786.5" x2="2349.5" y1="797.418" y2="797.418"/><text fill="#000000" font-family="sans-serif" font-size="14" lengthAdjust="spacing" textLength="69" x="1791.5" y="812.9531">maximum</text><text fill="#000000" font-family="sans-serif" font-size="14" lengthAdjust="spacing" textLength="9" x="1878.5" y="812.9531">1</text><line style="stroke:#A80036;stroke-width:1.0;" x1="1873.5" x2="1873.5" y1="797.418" y2="817.9063"/><rect fill="none" height="159.9063" rx="5" ry="5" style="stroke:#A80036;stroke-width:1.5;" width="563" x="1786.5" y="658"/><rect fill="#FEFECE" height="15" rx="5" ry="5" style="stroke:#FEFECE;stroke-width:1.5;" width="30" x="1527.5" y="466"/><rect fill="none" height="15" rx="5" ry="5" style="stroke:#A80036;stroke-width:1.5;" width="30" x="1527.5" y="466"/><rect fill="#FEFECE" height="20.4883" rx="5" ry="5" style="stroke:#FEFECE;stroke-width:1.5;" width="417" x="1331" y="500"/><text fill="#000000" font-family="sans-serif" font-size="14" lengthAdjust="spacing" textLength="407" x="1336" y="515.5352">#/sdfObject/On_Off_switch/sdfProperty/Digital_Input_State</text><rect fill="none" height="20.4883" rx="5" ry="5" style="stroke:#A80036;stroke-width:1.5;" width="417" x="1331" y="500"/><path d="M95,405 L108,405 C117.3406,405 126.8353,404.8896 136.4202,404.6839 " fill="none" style="stroke:#A80036;stroke-width:1.0;stroke-dasharray:3.0,3.0;"/><path d="M136.4943,407.7659 L138.7318,404.6283 L136.3462,401.6019 L144.1253,404.4987 L136.4943,407.7659 " fill="#A80036" style="stroke:#A80036;stroke-width:1.0;"/><ellipse cx="95" cy="405" fill="#A80036" rx="3" ry="3" style="stroke:#A80036;stroke-width:1.0;stroke-dasharray:3.0,3.0;"/><path d="M1620,314 L1633,314 C1749.2993,314 1686.6558,163.0802 1785,101 C1817.2793,80.6235 1855.5508,67.9662 1893.3336,60.2325 " fill="none" style="stroke:#A80036;stroke-width:1.0;stroke-dasharray:3.0,3.0;"/><path d="M1893.9264,63.2517 L1895.598,59.7879 L1892.7408,57.2132 L1900.8817,58.7506 L1893.9264,63.2517 " fill="#A80036" style="stroke:#A80036;stroke-width:1.0;"/><ellipse cx="1620" cy="314" fill="#A80036" rx="3" ry="3" style="stroke:#A80036;stroke-width:1.0;stroke-dasharray:3.0,3.0;"/><path d="M1620,334 L1633,334 C1722.7657,334 1704.0541,239.8026 1785,201 C1807.7897,190.0754 1832.6436,181.5172 1857.8482,174.8164 " fill="none" style="stroke:#A80036;stroke-width:1.0;stroke-dasharray:3.0,3.0;"/><path d="M1858.6204,177.8055 L1860.0899,174.2373 L1857.0759,171.8274 L1865.3207,172.8859 L1858.6204,177.8055 " fill="#A80036" style="stroke:#A80036;stroke-width:1.0;"/><ellipse cx="1620" cy="334" fill="#A80036" rx="3" ry="3" style="stroke:#A80036;stroke-width:1.0;stroke-dasharray:3.0,3.0;"/><path d="M1620,355 L1633,355 C1702.6347,355 1717.101,332.4502 1785,317 C1795.8129,314.5396 1806.8694,312.0707 1818.0464,309.6133 " fill="none" style="stroke:#A80036;stroke-width:1.0;stroke-dasharray:3.0,3.0;"/><path d="M1818.6916,312.5577 L1820.2547,309.1294 L1817.4012,306.669 L1825.4073,308.0003 L1818.6916,312.5577 " fill="#A80036" style="stroke:#A80036;stroke-width:1.0;"/><ellipse cx="1620" cy="355" fill="#A80036" rx="3" ry="3" style="stroke:#A80036;stroke-width:1.0;stroke-dasharray:3.0,3.0;"/><path d="M1620,375 L1633,375 C1682.6995,375 1735.5968,375 1786.7539,375 " fill="none" style="stroke:#A80036;stroke-width:1.0;stroke-dasharray:3.0,3.0;"/><path d="M1786.7539,378.0138 L1789.0143,375 L1786.7539,371.9862 L1794.2884,375 L1786.7539,378.0138 " fill="#A80036" style="stroke:#A80036;stroke-width:1.0;"/><ellipse cx="1620" cy="375" fill="#A80036" rx="3" ry="3" style="stroke:#A80036;stroke-width:1.0;stroke-dasharray:3.0,3.0;"/><path d="M1620,396 L1633,396 C1702.5282,396 1716.9071,418.9457 1785,433 C1797.3202,435.5429 1809.9628,438.0517 1822.7439,440.5085 " fill="none" style="stroke:#A80036;stroke-width:1.0;stroke-dasharray:3.0,3.0;"/><path d="M1822.1678,443.5244 L1825.0059,440.9406 L1823.3201,437.4925 L1830.2839,441.9488 L1822.1678,443.5244 " fill="#A80036" style="stroke:#A80036;stroke-width:1.0;"/><ellipse cx="1620" cy="396" fill="#A80036" rx="3" ry="3" style="stroke:#A80036;stroke-width:1.0;stroke-dasharray:3.0,3.0;"/><path d="M1620,417 L1633,417 C1687.5346,417 1707.9863,421.0569 1749,457 C1775.9068,480.5802 1756.6972,507.115 1785,529 C1794.4435,536.3022 1804.574,542.7651 1815.1819,548.4817 " fill="none" style="stroke:#A80036;stroke-width:1.0;stroke-dasharray:3.0,3.0;"/><path d="M1813.7964,551.1476 L1817.1813,549.5208 L1816.5674,545.8158 L1821.8467,551.9454 L1813.7964,551.1476 " fill="#A80036" style="stroke:#A80036;stroke-width:1.0;"/><ellipse cx="1620" cy="417" fill="#A80036" rx="3" ry="3" style="stroke:#A80036;stroke-width:1.0;stroke-dasharray:3.0,3.0;"/><path d="M1620,437 L1633,437 C1685.3162,437 1711.7375,420.2781 1749,457 C1810.8382,517.9411 1727.3957,584.0422 1785,649 C1786.0235,650.1542 1787.0619,651.2935 1788.1145,652.4183 " fill="none" style="stroke:#A80036;stroke-width:1.0;stroke-dasharray:3.0,3.0;"/><path d="M1785.9135,654.5704 L1789.7286,654.069 L1790.3155,650.2661 L1793.4948,657.9207 L1785.9135,654.5704 " fill="#A80036" style="stroke:#A80036;stroke-width:1.0;"/><ellipse cx="1620" cy="437" fill="#A80036" rx="3" ry="3" style="stroke:#A80036;stroke-width:1.0;stroke-dasharray:3.0,3.0;"/><path d="M1282,449 L1295,449 C1344.4238,449 1397.2054,435.0828 1440.9901,419.4018 " fill="none" style="stroke:#A80036;stroke-width:1.0;stroke-dasharray:3.0,3.0;"/><path d="M1442.0434,422.2925 L1443.1581,418.6119 L1439.9368,416.5111 L1448.2168,416.7686 L1442.0434,422.2925 " fill="#A80036" style="stroke:#A80036;stroke-width:1.0;"/><ellipse cx="1282" cy="449" fill="#A80036" rx="3" ry="3" style="stroke:#A80036;stroke-width:1.0;stroke-dasharray:3.0,3.0;"/><path d="M1282,474 L1295,474 C1379.0173,474 1479.3077,474 1520.2257,474 " fill="none" style="stroke:#A80036;stroke-width:1.0;stroke-dasharray:3.0,3.0;"/><path d="M1520.2257,477.0347 L1522.5018,474 L1520.2257,470.9653 L1527.8126,474 L1520.2257,477.0347 " fill="#A80036" style="stroke:#A80036;stroke-width:1.0;"/><ellipse cx="1282" cy="474" fill="#A80036" rx="3" ry="3" style="stroke:#A80036;stroke-width:1.0;stroke-dasharray:3.0,3.0;"/><path d="M1282,498 L1295,498 C1320.5737,498 1347.637,498.6657 1374.0693,499.6836 " fill="none" style="stroke:#A80036;stroke-width:1.0;stroke-dasharray:3.0,3.0;"/><path d="M1373.9447,502.8065 L1376.4114,499.777 L1374.1938,496.5608 L1381.8764,499.995 L1373.9447,502.8065 " fill="#A80036" style="stroke:#A80036;stroke-width:1.0;"/><ellipse cx="1282" cy="498" fill="#A80036" rx="3" ry="3" style="stroke:#A80036;stroke-width:1.0;stroke-dasharray:3.0,3.0;"/><path d="M471,450 L484,450 C560.6621,450 643.6031,450 720.4806,450 " fill="none" style="stroke:#A80036;stroke-width:1.0;stroke-dasharray:3.0,3.0;"/><path d="M720.4806,453.1595 L722.8502,450 L720.4806,446.8405 L728.3793,450 L720.4806,453.1595 " fill="#A80036" style="stroke:#A80036;stroke-width:1.0;"/><ellipse cx="471" cy="450" fill="#A80036" rx="3" ry="3" style="stroke:#A80036;stroke-width:1.0;stroke-dasharray:3.0,3.0;"/><path d="M95,426 L108,426 C124.1536,426 127.9333,429.3271 144,431 C212.1497,438.0957 290.1547,443.2266 345.2832,446.3545 " fill="none" style="stroke:#A80036;stroke-width:1.0;stroke-dasharray:3.0,3.0;"/><path d="M345.112,449.4039 L347.5703,446.4829 L345.4545,443.305 L352.9069,446.7825 L345.112,449.4039 " fill="#A80036" style="stroke:#A80036;stroke-width:1.0;"/><ellipse cx="95" cy="426" fill="#A80036" rx="3" ry="3" style="stroke:#A80036;stroke-width:1.0;stroke-dasharray:3.0,3.0;"/><!--MD5=[db75dd98551e0cfb80ab6715c59162e9]
@startjson
{
  "info": {
    "title": "OMA LwM2M On/Off switch (Object ID 3342)",
    "version": "2021-02-11",
    "copyright": "Copyright (c) 2018-2020 IPSO",
    "license": "https://github.com/one-data-model/oneDM/blob/master/LICENSE"
  },
  "sdfObject": {
    "On_Off_switch": {
      "label": "On/Off switch",
      "description": "This IPSO object should be used with an On/Off switch to report the\\nstate of the switch.",
      "sdfProperty": {
        "Digital_Input_State": {
          "label": "Digital Input State",
          "description": "The current state of a digital input.",
          "writable": false,
          "type": "boolean"
        },
        "Digital_Input_Counter": {
          "label": "Digital Input Counter",
          "description": "The cumulative value of active state detected.",
          "writable": false,
          "type": "integer"
        },
        "On_time": {
          "label": "On time",
          "description": "The time in seconds that the device has been on. Writing a value of 0\\nresets the counter.",
          "type": "integer",
          "unit": "s"
        },
        "Off_Time": {
          "label": "Off Time",
          "description": "The time in seconds in the off state. Writing a value of 0 resets the\\ncounter.",
          "type": "integer",
          "unit": "s"
        },
        "Application_Type": {
          "label": "Application Type",
          "description": "The application type of the sensor or actuator as a string depending\\non the use case.",
          "type": "string"
        },
        "Timestamp": {
          "label": "Timestamp",
          "description": "The timestamp of when the measurement was performed.",
          "writable": false,
          "type": "number",
          "sdfType": "unix-time"
        },
        "Fractional_Timestamp": {
          "label": "Fractional Timestamp",
          "description": "Fractional part of the timestamp when sub-second precision is used\\n(e.g., 0.23 for 230 ms).",
          "writable": false,
          "type": "number",
          "unit": "s",
          "minimum": 0,
          "maximum": 1
        }
      },
      "sdfAction": {},
      "sdfRequired": [
        "#/sdfObject/On_Off_switch/sdfProperty/Digital_Input_State"
      ]
    }
  }
}
@endjson

PlantUML version 1.2021.2(Sun Mar 07 13:10:27 EET 2021)
(GPL source distribution)
Java Runtime: OpenJDK Runtime Environment
JVM: OpenJDK 64-Bit Server VM
Default Encoding: UTF-8
Language: en
Country: FI
--></g></svg>