<?xml version="1.0" encoding="UTF-8" standalone="no"?><svg xmlns="http://www.w3.org/2000/svg" xmlns:xlink="http://www.w3.org/1999/xlink" contentScriptType="application/ecmascript" contentStyleType="text/css" height="599px" preserveAspectRatio="none" style="width:2109px;height:599px;" version="1.1" viewBox="0 0 2109 599" width="2109px" zoomAndPan="magnify"><defs/><g><rect fill="#FEFECE" height="40.9766" rx="5" ry="5" style="stroke:#FEFECE;stroke-width:1.5;" width="97" x="10" y="307.5"/><text fill="#000000" font-family="sans-serif" font-size="14" lengthAdjust="spacing" textLength="27" x="15" y="323.0352">info</text><text fill="#000000" font-family="sans-serif" font-size="14" lengthAdjust="spacing" textLength="0" x="102" y="323.0352"/><line style="stroke:#A80036;stroke-width:1.0;" x1="85" x2="85" y1="307.5" y2="327.9883"/><line style="stroke:#A80036;stroke-width:1.0;" x1="10" x2="107" y1="327.9883" y2="327.9883"/><text fill="#000000" font-family="sans-serif" font-size="14" lengthAdjust="spacing" textLength="65" x="15" y="343.5234">sdfObject</text><text fill="#000000" font-family="sans-serif" font-size="14" lengthAdjust="spacing" textLength="0" x="102" y="343.5234"/><line style="stroke:#A80036;stroke-width:1.0;" x1="85" x2="85" y1="327.9883" y2="348.4766"/><rect fill="none" height="40.9766" rx="5" ry="5" style="stroke:#A80036;stroke-width:1.5;" width="97" x="10" y="307.5"/><rect fill="#FEFECE" height="81.9531" rx="5" ry="5" style="stroke:#FEFECE;stroke-width:1.5;" width="547" x="144" y="252"/><text fill="#000000" font-family="sans-serif" font-size="14" lengthAdjust="spacing" textLength="26" x="149" y="267.5352">title</text><text fill="#000000" font-family="sans-serif" font-size="14" lengthAdjust="spacing" textLength="352" x="224" y="267.5352">OMA LwM2M Multiple Axis Joystick (Object ID 3345)</text><line style="stroke:#A80036;stroke-width:1.0;" x1="219" x2="219" y1="252" y2="272.4883"/><line style="stroke:#A80036;stroke-width:1.0;" x1="144" x2="691" y1="272.4883" y2="272.4883"/><text fill="#000000" font-family="sans-serif" font-size="14" lengthAdjust="spacing" textLength="50" x="149" y="288.0234">version</text><text fill="#000000" font-family="sans-serif" font-size="14" lengthAdjust="spacing" textLength="88" x="224" y="288.0234">2021-02-11</text><line style="stroke:#A80036;stroke-width:1.0;" x1="219" x2="219" y1="272.4883" y2="292.9766"/><line style="stroke:#A80036;stroke-width:1.0;" x1="144" x2="691" y1="292.9766" y2="292.9766"/><text fill="#000000" font-family="sans-serif" font-size="14" lengthAdjust="spacing" textLength="65" x="149" y="308.5117">copyright</text><text fill="#000000" font-family="sans-serif" font-size="14" lengthAdjust="spacing" textLength="208" x="224" y="308.5117">Copyright (c) 2018-2020 IPSO</text><line style="stroke:#A80036;stroke-width:1.0;" x1="219" x2="219" y1="292.9766" y2="313.4648"/><line style="stroke:#A80036;stroke-width:1.0;" x1="144" x2="691" y1="313.4648" y2="313.4648"/><text fill="#000000" font-family="sans-serif" font-size="14" lengthAdjust="spacing" textLength="47" x="149" y="329">license</text><text fill="#000000" font-family="sans-serif" font-size="14" lengthAdjust="spacing" textLength="462" x="224" y="329">https://github.com/one-data-model/oneDM/blob/master/LICENSE</text><line style="stroke:#A80036;stroke-width:1.0;" x1="219" x2="219" y1="313.4648" y2="333.9531"/><rect fill="none" height="81.9531" rx="5" ry="5" style="stroke:#A80036;stroke-width:1.5;" width="547" x="144" y="252"/><rect fill="#FEFECE" height="20.4883" rx="5" ry="5" style="stroke:#FEFECE;stroke-width:1.5;" width="182" x="326.5" y="352"/><text fill="#000000" font-family="sans-serif" font-size="14" lengthAdjust="spacing" textLength="150" x="331.5" y="367.5352">Multiple_Axis_Joystick</text><text fill="#000000" font-family="sans-serif" font-size="14" lengthAdjust="spacing" textLength="0" x="503.5" y="367.5352"/><line style="stroke:#A80036;stroke-width:1.0;" x1="486.5" x2="486.5" y1="352" y2="372.4883"/><rect fill="none" height="20.4883" rx="5" ry="5" style="stroke:#A80036;stroke-width:1.5;" width="182" x="326.5" y="352"/><rect fill="#FEFECE" height="135.418" rx="5" ry="5" style="stroke:#FEFECE;stroke-width:1.5;" width="550" x="728" y="294.5"/><text fill="#000000" font-family="sans-serif" font-size="14" lengthAdjust="spacing" textLength="33" x="733" y="310.0352">label</text><text fill="#000000" font-family="sans-serif" font-size="14" lengthAdjust="spacing" textLength="144" x="826" y="310.0352">Multiple Axis Joystick</text><line style="stroke:#A80036;stroke-width:1.0;" x1="821" x2="821" y1="294.5" y2="314.9883"/><line style="stroke:#A80036;stroke-width:1.0;" x1="728" x2="1278" y1="314.9883" y2="314.9883"/><text fill="#000000" font-family="sans-serif" font-size="14" lengthAdjust="spacing" textLength="77" x="733" y="330.5234">description</text><text fill="#000000" font-family="sans-serif" font-size="14" lengthAdjust="spacing" textLength="447" x="826" y="330.5234">This IPSO object can be used to report the position of a shuttle or</text><text fill="#000000" font-family="sans-serif" font-size="14" lengthAdjust="spacing" textLength="435" x="826" y="347.0117">joystick control. A digital input is provided to report the state of</text><text fill="#000000" font-family="sans-serif" font-size="14" lengthAdjust="spacing" textLength="185" x="826" y="363.5">an associated push button.</text><line style="stroke:#A80036;stroke-width:1.0;" x1="821" x2="821" y1="314.9883" y2="368.4531"/><line style="stroke:#A80036;stroke-width:1.0;" x1="728" x2="1278" y1="368.4531" y2="368.4531"/><text fill="#000000" font-family="sans-serif" font-size="14" lengthAdjust="spacing" textLength="79" x="733" y="383.9883">sdfProperty</text><text fill="#000000" font-family="sans-serif" font-size="14" lengthAdjust="spacing" textLength="0" x="838" y="383.9883"/><line style="stroke:#A80036;stroke-width:1.0;" x1="821" x2="821" y1="368.4531" y2="388.9414"/><line style="stroke:#A80036;stroke-width:1.0;" x1="728" x2="1278" y1="388.9414" y2="388.9414"/><text fill="#000000" font-family="sans-serif" font-size="14" lengthAdjust="spacing" textLength="65" x="733" y="404.4766">sdfAction</text><text fill="#000000" font-family="sans-serif" font-size="14" lengthAdjust="spacing" textLength="0" x="838" y="404.4766"/><line style="stroke:#A80036;stroke-width:1.0;" x1="821" x2="821" y1="388.9414" y2="409.4297"/><line style="stroke:#A80036;stroke-width:1.0;" x1="728" x2="1278" y1="409.4297" y2="409.4297"/><text fill="#000000" font-family="sans-serif" font-size="14" lengthAdjust="spacing" textLength="83" x="733" y="424.9648">sdfRequired</text><text fill="#000000" font-family="sans-serif" font-size="14" lengthAdjust="spacing" textLength="0" x="838" y="424.9648"/><line style="stroke:#A80036;stroke-width:1.0;" x1="821" x2="821" y1="409.4297" y2="429.918"/><rect fill="none" height="135.418" rx="5" ry="5" style="stroke:#A80036;stroke-width:1.5;" width="550" x="728" y="294.5"/><rect fill="#FEFECE" height="122.9297" rx="5" ry="5" style="stroke:#FEFECE;stroke-width:1.5;" width="182" x="1315" y="239.5"/><text fill="#000000" font-family="sans-serif" font-size="14" lengthAdjust="spacing" textLength="128" x="1320" y="255.0352">Digital_Input_State</text><text fill="#000000" font-family="sans-serif" font-size="14" lengthAdjust="spacing" textLength="0" x="1492" y="255.0352"/><line style="stroke:#A80036;stroke-width:1.0;" x1="1475" x2="1475" y1="239.5" y2="259.9883"/><line style="stroke:#A80036;stroke-width:1.0;" x1="1315" x2="1497" y1="259.9883" y2="259.9883"/><text fill="#000000" font-family="sans-serif" font-size="14" lengthAdjust="spacing" textLength="150" x="1320" y="275.5234">Digital_Input_Counter</text><text fill="#000000" font-family="sans-serif" font-size="14" lengthAdjust="spacing" textLength="0" x="1492" y="275.5234"/><line style="stroke:#A80036;stroke-width:1.0;" x1="1475" x2="1475" y1="259.9883" y2="280.4766"/><line style="stroke:#A80036;stroke-width:1.0;" x1="1315" x2="1497" y1="280.4766" y2="280.4766"/><text fill="#000000" font-family="sans-serif" font-size="14" lengthAdjust="spacing" textLength="54" x="1320" y="296.0117">X_Value</text><text fill="#000000" font-family="sans-serif" font-size="14" lengthAdjust="spacing" textLength="0" x="1492" y="296.0117"/><line style="stroke:#A80036;stroke-width:1.0;" x1="1475" x2="1475" y1="280.4766" y2="300.9648"/><line style="stroke:#A80036;stroke-width:1.0;" x1="1315" x2="1497" y1="300.9648" y2="300.9648"/><text fill="#000000" font-family="sans-serif" font-size="14" lengthAdjust="spacing" textLength="54" x="1320" y="316.5">Y_Value</text><text fill="#000000" font-family="sans-serif" font-size="14" lengthAdjust="spacing" textLength="0" x="1492" y="316.5"/><line style="stroke:#A80036;stroke-width:1.0;" x1="1475" x2="1475" y1="300.9648" y2="321.4531"/><line style="stroke:#A80036;stroke-width:1.0;" x1="1315" x2="1497" y1="321.4531" y2="321.4531"/><text fill="#000000" font-family="sans-serif" font-size="14" lengthAdjust="spacing" textLength="53" x="1320" y="336.9883">Z_Value</text><text fill="#000000" font-family="sans-serif" font-size="14" lengthAdjust="spacing" textLength="0" x="1492" y="336.9883"/><line style="stroke:#A80036;stroke-width:1.0;" x1="1475" x2="1475" y1="321.4531" y2="341.9414"/><line style="stroke:#A80036;stroke-width:1.0;" x1="1315" x2="1497" y1="341.9414" y2="341.9414"/><text fill="#000000" font-family="sans-serif" font-size="14" lengthAdjust="spacing" textLength="118" x="1320" y="357.4766">Application_Type</text><text fill="#000000" font-family="sans-serif" font-size="14" lengthAdjust="spacing" textLength="0" x="1492" y="357.4766"/><line style="stroke:#A80036;stroke-width:1.0;" x1="1475" x2="1475" y1="341.9414" y2="362.4297"/><rect fill="none" height="122.9297" rx="5" ry="5" style="stroke:#A80036;stroke-width:1.5;" width="182" x="1315" y="239.5"/><rect fill="#FEFECE" height="81.9531" rx="5" ry="5" style="stroke:#FEFECE;stroke-width:1.5;" width="335" x="1648" y="10"/><text fill="#000000" font-family="sans-serif" font-size="14" lengthAdjust="spacing" textLength="33" x="1653" y="25.5352">label</text><text fill="#000000" font-family="sans-serif" font-size="14" lengthAdjust="spacing" textLength="122" x="1740" y="25.5352">Digital Input State</text><line style="stroke:#A80036;stroke-width:1.0;" x1="1735" x2="1735" y1="10" y2="30.4883"/><line style="stroke:#A80036;stroke-width:1.0;" x1="1648" x2="1983" y1="30.4883" y2="30.4883"/><text fill="#000000" font-family="sans-serif" font-size="14" lengthAdjust="spacing" textLength="77" x="1653" y="46.0234">description</text><text fill="#000000" font-family="sans-serif" font-size="14" lengthAdjust="spacing" textLength="238" x="1740" y="46.0234">The current state of a digital input.</text><line style="stroke:#A80036;stroke-width:1.0;" x1="1735" x2="1735" y1="30.4883" y2="50.9766"/><line style="stroke:#A80036;stroke-width:1.0;" x1="1648" x2="1983" y1="50.9766" y2="50.9766"/><text fill="#000000" font-family="sans-serif" font-size="14" lengthAdjust="spacing" textLength="55" x="1653" y="66.5117">writable</text><text fill="#000000" font-family="sans-serif" font-size="14" lengthAdjust="spacing" textLength="48" x="1740" y="66.5117">☐ false</text><line style="stroke:#A80036;stroke-width:1.0;" x1="1735" x2="1735" y1="50.9766" y2="71.4648"/><line style="stroke:#A80036;stroke-width:1.0;" x1="1648" x2="1983" y1="71.4648" y2="71.4648"/><text fill="#000000" font-family="sans-serif" font-size="14" lengthAdjust="spacing" textLength="29" x="1653" y="87">type</text><text fill="#000000" font-family="sans-serif" font-size="14" lengthAdjust="spacing" textLength="56" x="1740" y="87">boolean</text><line style="stroke:#A80036;stroke-width:1.0;" x1="1735" x2="1735" y1="71.4648" y2="91.9531"/><rect fill="none" height="81.9531" rx="5" ry="5" style="stroke:#A80036;stroke-width:1.5;" width="335" x="1648" y="10"/><rect fill="#FEFECE" height="81.9531" rx="5" ry="5" style="stroke:#FEFECE;stroke-width:1.5;" width="406" x="1612.5" y="110"/><text fill="#000000" font-family="sans-serif" font-size="14" lengthAdjust="spacing" textLength="33" x="1617.5" y="125.5352">label</text><text fill="#000000" font-family="sans-serif" font-size="14" lengthAdjust="spacing" textLength="144" x="1704.5" y="125.5352">Digital Input Counter</text><line style="stroke:#A80036;stroke-width:1.0;" x1="1699.5" x2="1699.5" y1="110" y2="130.4883"/><line style="stroke:#A80036;stroke-width:1.0;" x1="1612.5" x2="2018.5" y1="130.4883" y2="130.4883"/><text fill="#000000" font-family="sans-serif" font-size="14" lengthAdjust="spacing" textLength="77" x="1617.5" y="146.0234">description</text><text fill="#000000" font-family="sans-serif" font-size="14" lengthAdjust="spacing" textLength="309" x="1704.5" y="146.0234">The cumulative value of active state detected.</text><line style="stroke:#A80036;stroke-width:1.0;" x1="1699.5" x2="1699.5" y1="130.4883" y2="150.9766"/><line style="stroke:#A80036;stroke-width:1.0;" x1="1612.5" x2="2018.5" y1="150.9766" y2="150.9766"/><text fill="#000000" font-family="sans-serif" font-size="14" lengthAdjust="spacing" textLength="55" x="1617.5" y="166.5117">writable</text><text fill="#000000" font-family="sans-serif" font-size="14" lengthAdjust="spacing" textLength="48" x="1704.5" y="166.5117">☐ false</text><line style="stroke:#A80036;stroke-width:1.0;" x1="1699.5" x2="1699.5" y1="150.9766" y2="171.4648"/><line style="stroke:#A80036;stroke-width:1.0;" x1="1612.5" x2="2018.5" y1="171.4648" y2="171.4648"/><text fill="#000000" font-family="sans-serif" font-size="14" lengthAdjust="spacing" textLength="29" x="1617.5" y="187">type</text><text fill="#000000" font-family="sans-serif" font-size="14" lengthAdjust="spacing" textLength="49" x="1704.5" y="187">integer</text><line style="stroke:#A80036;stroke-width:1.0;" x1="1699.5" x2="1699.5" y1="171.4648" y2="191.9531"/><rect fill="none" height="81.9531" rx="5" ry="5" style="stroke:#A80036;stroke-width:1.5;" width="406" x="1612.5" y="110"/><rect fill="#FEFECE" height="81.9531" rx="5" ry="5" style="stroke:#FEFECE;stroke-width:1.5;" width="353" x="1639" y="210"/><text fill="#000000" font-family="sans-serif" font-size="14" lengthAdjust="spacing" textLength="33" x="1644" y="225.5352">label</text><text fill="#000000" font-family="sans-serif" font-size="14" lengthAdjust="spacing" textLength="51" x="1731" y="225.5352">X Value</text><line style="stroke:#A80036;stroke-width:1.0;" x1="1726" x2="1726" y1="210" y2="230.4883"/><line style="stroke:#A80036;stroke-width:1.0;" x1="1639" x2="1992" y1="230.4883" y2="230.4883"/><text fill="#000000" font-family="sans-serif" font-size="14" lengthAdjust="spacing" textLength="77" x="1644" y="246.0234">description</text><text fill="#000000" font-family="sans-serif" font-size="14" lengthAdjust="spacing" textLength="256" x="1731" y="246.0234">The measured value along the X axis.</text><line style="stroke:#A80036;stroke-width:1.0;" x1="1726" x2="1726" y1="230.4883" y2="250.9766"/><line style="stroke:#A80036;stroke-width:1.0;" x1="1639" x2="1992" y1="250.9766" y2="250.9766"/><text fill="#000000" font-family="sans-serif" font-size="14" lengthAdjust="spacing" textLength="55" x="1644" y="266.5117">writable</text><text fill="#000000" font-family="sans-serif" font-size="14" lengthAdjust="spacing" textLength="48" x="1731" y="266.5117">☐ false</text><line style="stroke:#A80036;stroke-width:1.0;" x1="1726" x2="1726" y1="250.9766" y2="271.4648"/><line style="stroke:#A80036;stroke-width:1.0;" x1="1639" x2="1992" y1="271.4648" y2="271.4648"/><text fill="#000000" font-family="sans-serif" font-size="14" lengthAdjust="spacing" textLength="29" x="1644" y="287">type</text><text fill="#000000" font-family="sans-serif" font-size="14" lengthAdjust="spacing" textLength="54" x="1731" y="287">number</text><line style="stroke:#A80036;stroke-width:1.0;" x1="1726" x2="1726" y1="271.4648" y2="291.9531"/><rect fill="none" height="81.9531" rx="5" ry="5" style="stroke:#A80036;stroke-width:1.5;" width="353" x="1639" y="210"/><rect fill="#FEFECE" height="81.9531" rx="5" ry="5" style="stroke:#FEFECE;stroke-width:1.5;" width="353" x="1639" y="310"/><text fill="#000000" font-family="sans-serif" font-size="14" lengthAdjust="spacing" textLength="33" x="1644" y="325.5352">label</text><text fill="#000000" font-family="sans-serif" font-size="14" lengthAdjust="spacing" textLength="51" x="1731" y="325.5352">Y Value</text><line style="stroke:#A80036;stroke-width:1.0;" x1="1726" x2="1726" y1="310" y2="330.4883"/><line style="stroke:#A80036;stroke-width:1.0;" x1="1639" x2="1992" y1="330.4883" y2="330.4883"/><text fill="#000000" font-family="sans-serif" font-size="14" lengthAdjust="spacing" textLength="77" x="1644" y="346.0234">description</text><text fill="#000000" font-family="sans-serif" font-size="14" lengthAdjust="spacing" textLength="256" x="1731" y="346.0234">The measured value along the Y axis.</text><line style="stroke:#A80036;stroke-width:1.0;" x1="1726" x2="1726" y1="330.4883" y2="350.9766"/><line style="stroke:#A80036;stroke-width:1.0;" x1="1639" x2="1992" y1="350.9766" y2="350.9766"/><text fill="#000000" font-family="sans-serif" font-size="14" lengthAdjust="spacing" textLength="55" x="1644" y="366.5117">writable</text><text fill="#000000" font-family="sans-serif" font-size="14" lengthAdjust="spacing" textLength="48" x="1731" y="366.5117">☐ false</text><line style="stroke:#A80036;stroke-width:1.0;" x1="1726" x2="1726" y1="350.9766" y2="371.4648"/><line style="stroke:#A80036;stroke-width:1.0;" x1="1639" x2="1992" y1="371.4648" y2="371.4648"/><text fill="#000000" font-family="sans-serif" font-size="14" lengthAdjust="spacing" textLength="29" x="1644" y="387">type</text><text fill="#000000" font-family="sans-serif" font-size="14" lengthAdjust="spacing" textLength="54" x="1731" y="387">number</text><line style="stroke:#A80036;stroke-width:1.0;" x1="1726" x2="1726" y1="371.4648" y2="391.9531"/><rect fill="none" height="81.9531" rx="5" ry="5" style="stroke:#A80036;stroke-width:1.5;" width="353" x="1639" y="310"/><rect fill="#FEFECE" height="81.9531" rx="5" ry="5" style="stroke:#FEFECE;stroke-width:1.5;" width="352" x="1639.5" y="410"/><text fill="#000000" font-family="sans-serif" font-size="14" lengthAdjust="spacing" textLength="33" x="1644.5" y="425.5352">label</text><text fill="#000000" font-family="sans-serif" font-size="14" lengthAdjust="spacing" textLength="50" x="1731.5" y="425.5352">Z Value</text><line style="stroke:#A80036;stroke-width:1.0;" x1="1726.5" x2="1726.5" y1="410" y2="430.4883"/><line style="stroke:#A80036;stroke-width:1.0;" x1="1639.5" x2="1991.5" y1="430.4883" y2="430.4883"/><text fill="#000000" font-family="sans-serif" font-size="14" lengthAdjust="spacing" textLength="77" x="1644.5" y="446.0234">description</text><text fill="#000000" font-family="sans-serif" font-size="14" lengthAdjust="spacing" textLength="255" x="1731.5" y="446.0234">The measured value along the Z axis.</text><line style="stroke:#A80036;stroke-width:1.0;" x1="1726.5" x2="1726.5" y1="430.4883" y2="450.9766"/><line style="stroke:#A80036;stroke-width:1.0;" x1="1639.5" x2="1991.5" y1="450.9766" y2="450.9766"/><text fill="#000000" font-family="sans-serif" font-size="14" lengthAdjust="spacing" textLength="55" x="1644.5" y="466.5117">writable</text><text fill="#000000" font-family="sans-serif" font-size="14" lengthAdjust="spacing" textLength="48" x="1731.5" y="466.5117">☐ false</text><line style="stroke:#A80036;stroke-width:1.0;" x1="1726.5" x2="1726.5" y1="450.9766" y2="471.4648"/><line style="stroke:#A80036;stroke-width:1.0;" x1="1639.5" x2="1991.5" y1="471.4648" y2="471.4648"/><text fill="#000000" font-family="sans-serif" font-size="14" lengthAdjust="spacing" textLength="29" x="1644.5" y="487">type</text><text fill="#000000" font-family="sans-serif" font-size="14" lengthAdjust="spacing" textLength="54" x="1731.5" y="487">number</text><line style="stroke:#A80036;stroke-width:1.0;" x1="1726.5" x2="1726.5" y1="471.4648" y2="491.9531"/><rect fill="none" height="81.9531" rx="5" ry="5" style="stroke:#A80036;stroke-width:1.5;" width="352" x="1639.5" y="410"/><rect fill="#FEFECE" height="77.9531" rx="5" ry="5" style="stroke:#FEFECE;stroke-width:1.5;" width="563" x="1534" y="510"/><text fill="#000000" font-family="sans-serif" font-size="14" lengthAdjust="spacing" textLength="33" x="1539" y="525.5352">label</text><text fill="#000000" font-family="sans-serif" font-size="14" lengthAdjust="spacing" textLength="115" x="1626" y="525.5352">Application Type</text><line style="stroke:#A80036;stroke-width:1.0;" x1="1621" x2="1621" y1="510" y2="530.4883"/><line style="stroke:#A80036;stroke-width:1.0;" x1="1534" x2="2097" y1="530.4883" y2="530.4883"/><text fill="#000000" font-family="sans-serif" font-size="14" lengthAdjust="spacing" textLength="77" x="1539" y="546.0234">description</text><text fill="#000000" font-family="sans-serif" font-size="14" lengthAdjust="spacing" textLength="466" x="1626" y="546.0234">The application type of the sensor or actuator as a string depending</text><text fill="#000000" font-family="sans-serif" font-size="14" lengthAdjust="spacing" textLength="110" x="1626" y="562.5117">on the use case.</text><line style="stroke:#A80036;stroke-width:1.0;" x1="1621" x2="1621" y1="530.4883" y2="567.4648"/><line style="stroke:#A80036;stroke-width:1.0;" x1="1534" x2="2097" y1="567.4648" y2="567.4648"/><text fill="#000000" font-family="sans-serif" font-size="14" lengthAdjust="spacing" textLength="29" x="1539" y="583">type</text><text fill="#000000" font-family="sans-serif" font-size="14" lengthAdjust="spacing" textLength="40" x="1626" y="583">string</text><line style="stroke:#A80036;stroke-width:1.0;" x1="1621" x2="1621" y1="567.4648" y2="587.9531"/><rect fill="none" height="77.9531" rx="5" ry="5" style="stroke:#A80036;stroke-width:1.5;" width="563" x="1534" y="510"/><rect fill="#FEFECE" height="15" rx="5" ry="5" style="stroke:#FEFECE;stroke-width:1.5;" width="30" x="1394" y="381"/><rect fill="none" height="15" rx="5" ry="5" style="stroke:#A80036;stroke-width:1.5;" width="30" x="1394" y="381"/><rect fill="#FEFECE" height="15" rx="5" ry="5" style="stroke:#FEFECE;stroke-width:1.5;" width="30" x="1394" y="415"/><rect fill="none" height="15" rx="5" ry="5" style="stroke:#A80036;stroke-width:1.5;" width="30" x="1394" y="415"/><path d="M95,317 L108,317 C117.3406,317 126.8353,316.8896 136.4202,316.6839 " fill="none" style="stroke:#A80036;stroke-width:1.0;stroke-dasharray:3.0,3.0;"/><path d="M136.4943,319.7659 L138.7318,316.6283 L136.3462,313.6019 L144.1253,316.4987 L136.4943,319.7659 " fill="#A80036" style="stroke:#A80036;stroke-width:1.0;"/><ellipse cx="95" cy="317" fill="#A80036" rx="3" ry="3" style="stroke:#A80036;stroke-width:1.0;stroke-dasharray:3.0,3.0;"/><path d="M1485,249 L1498,249 C1565.6958,249 1484.6592,147.3487 1534,101 C1562.949,73.8064 1601.3183,58.7401 1640.3705,50.8728 " fill="none" style="stroke:#A80036;stroke-width:1.0;stroke-dasharray:3.0,3.0;"/><path d="M1640.9621,53.9996 L1642.7156,50.4291 L1639.779,47.746 L1648.1875,49.3938 L1640.9621,53.9996 " fill="#A80036" style="stroke:#A80036;stroke-width:1.0;"/><ellipse cx="1485" cy="249" fill="#A80036" rx="3" ry="3" style="stroke:#A80036;stroke-width:1.0;stroke-dasharray:3.0,3.0;"/><path d="M1485,270 L1498,270 C1532.5897,270 1506.1119,221.4621 1534,201 C1555.2714,185.3927 1579.85,174.1147 1605.4399,166.0402 " fill="none" style="stroke:#A80036;stroke-width:1.0;stroke-dasharray:3.0,3.0;"/><path d="M1606.3173,168.9372 L1607.6127,165.3822 L1604.5626,163.1432 L1612.6825,163.8468 L1606.3173,168.9372 " fill="#A80036" style="stroke:#A80036;stroke-width:1.0;"/><ellipse cx="1485" cy="270" fill="#A80036" rx="3" ry="3" style="stroke:#A80036;stroke-width:1.0;stroke-dasharray:3.0,3.0;"/><path d="M1485,290 L1498,290 C1541.5063,290 1588.1217,286.3365 1631.8535,281.2552 " fill="none" style="stroke:#A80036;stroke-width:1.0;stroke-dasharray:3.0,3.0;"/><path d="M1632.2118,284.2791 L1634.1215,280.9865 L1631.4953,278.2313 L1639.4133,280.3595 L1632.2118,284.2791 " fill="#A80036" style="stroke:#A80036;stroke-width:1.0;"/><ellipse cx="1485" cy="290" fill="#A80036" rx="3" ry="3" style="stroke:#A80036;stroke-width:1.0;stroke-dasharray:3.0,3.0;"/><path d="M1485,311 L1498,311 C1541.5232,311 1588.145,314.7574 1631.8778,319.969 " fill="none" style="stroke:#A80036;stroke-width:1.0;stroke-dasharray:3.0,3.0;"/><path d="M1631.5104,322.9929 L1634.1458,320.2446 L1632.2453,316.9451 L1639.4377,320.8876 L1631.5104,322.9929 " fill="#A80036" style="stroke:#A80036;stroke-width:1.0;"/><ellipse cx="1485" cy="311" fill="#A80036" rx="3" ry="3" style="stroke:#A80036;stroke-width:1.0;stroke-dasharray:3.0,3.0;"/><path d="M1485,332 L1498,332 C1532.5897,332 1506.1119,380.5379 1534,401 C1562.6261,422.0035 1597.2415,435.1666 1632.2509,443.2327 " fill="none" style="stroke:#A80036;stroke-width:1.0;stroke-dasharray:3.0,3.0;"/><path d="M1631.593,446.2225 L1634.4933,443.7261 L1632.9088,440.2428 L1639.7255,444.8775 L1631.593,446.2225 " fill="#A80036" style="stroke:#A80036;stroke-width:1.0;"/><ellipse cx="1485" cy="332" fill="#A80036" rx="3" ry="3" style="stroke:#A80036;stroke-width:1.0;stroke-dasharray:3.0,3.0;"/><path d="M1485,352 L1498,352 C1566.1277,352 1484.2194,454.4889 1534,501 C1535.4635,502.3674 1536.9509,503.7035 1538.4612,505.009 " fill="none" style="stroke:#A80036;stroke-width:1.0;stroke-dasharray:3.0,3.0;"/><path d="M1536.507,507.3834 L1540.242,506.4746 L1540.4153,502.6346 L1544.3972,509.8943 L1536.507,507.3834 " fill="#A80036" style="stroke:#A80036;stroke-width:1.0;"/><ellipse cx="1485" cy="352" fill="#A80036" rx="3" ry="3" style="stroke:#A80036;stroke-width:1.0;stroke-dasharray:3.0,3.0;"/><path d="M1266,362 L1279,362 C1288.7146,362 1298.4696,360.5224 1308.017,358.027 " fill="none" style="stroke:#A80036;stroke-width:1.0;stroke-dasharray:3.0,3.0;"/><path d="M1308.8566,360.9296 L1310.194,357.3973 L1307.1775,355.1245 L1315.2735,355.9281 L1308.8566,360.9296 " fill="#A80036" style="stroke:#A80036;stroke-width:1.0;"/><ellipse cx="1266" cy="362" fill="#A80036" rx="3" ry="3" style="stroke:#A80036;stroke-width:1.0;stroke-dasharray:3.0,3.0;"/><path d="M1266,389 L1279,389 C1317.2787,389 1362.073,389 1386.7664,389 " fill="none" style="stroke:#A80036;stroke-width:1.0;stroke-dasharray:3.0,3.0;"/><path d="M1386.7664,392.0261 L1389.0359,389 L1386.7664,385.9739 L1394.3316,389 L1386.7664,392.0261 " fill="#A80036" style="stroke:#A80036;stroke-width:1.0;"/><ellipse cx="1266" cy="389" fill="#A80036" rx="3" ry="3" style="stroke:#A80036;stroke-width:1.0;stroke-dasharray:3.0,3.0;"/><path d="M1266,416 L1279,416 C1317.3373,416 1362.1104,419.2449 1386.7843,421.3161 " fill="none" style="stroke:#A80036;stroke-width:1.0;stroke-dasharray:3.0,3.0;"/><path d="M1386.5239,424.3396 L1389.0519,421.5114 L1387.0447,418.2926 L1394.3431,421.9671 L1386.5239,424.3396 " fill="#A80036" style="stroke:#A80036;stroke-width:1.0;"/><ellipse cx="1266" cy="416" fill="#A80036" rx="3" ry="3" style="stroke:#A80036;stroke-width:1.0;stroke-dasharray:3.0,3.0;"/><path d="M497,362 L510,362 C578.2667,362 651.8561,362 720.8079,362 " fill="none" style="stroke:#A80036;stroke-width:1.0;stroke-dasharray:3.0,3.0;"/><path d="M720.8079,365.0073 L723.0634,362 L720.8079,358.9927 L728.3262,362 L720.8079,365.0073 " fill="#A80036" style="stroke:#A80036;stroke-width:1.0;"/><ellipse cx="497" cy="362" fill="#A80036" rx="3" ry="3" style="stroke:#A80036;stroke-width:1.0;stroke-dasharray:3.0,3.0;"/><path d="M95,338 L108,338 C124.1536,338 127.9333,341.3271 144,343 C201.9889,349.0378 267.1136,353.6529 319.208,356.8219 " fill="none" style="stroke:#A80036;stroke-width:1.0;stroke-dasharray:3.0,3.0;"/><path d="M319.0252,359.8576 L321.4848,356.9591 L319.3909,353.7863 L326.7972,357.279 L319.0252,359.8576 " fill="#A80036" style="stroke:#A80036;stroke-width:1.0;"/><ellipse cx="95" cy="338" fill="#A80036" rx="3" ry="3" style="stroke:#A80036;stroke-width:1.0;stroke-dasharray:3.0,3.0;"/><!--MD5=[d0d61dccaebb2669fe447bbead1e4f06]
@startjson
{
  "info": {
    "title": "OMA LwM2M Multiple Axis Joystick (Object ID 3345)",
    "version": "2021-02-11",
    "copyright": "Copyright (c) 2018-2020 IPSO",
    "license": "https://github.com/one-data-model/oneDM/blob/master/LICENSE"
  },
  "sdfObject": {
    "Multiple_Axis_Joystick": {
      "label": "Multiple Axis Joystick",
      "description": "This IPSO object can be used to report the position of a shuttle or\\njoystick control. A digital input is provided to report the state of\\nan associated push button.",
      "sdfProperty": {
        "Digital_Input_State": {
          "label": "Digital Input State",
          "description": "The current state of a digital input.",
          "writable": false,
          "type": "boolean"
        },
        "Digital_Input_Counter": {
          "label": "Digital Input Counter",
          "description": "The cumulative value of active state detected.",
          "writable": false,
          "type": "integer"
        },
        "X_Value": {
          "label": "X Value",
          "description": "The measured value along the X axis.",
          "writable": false,
          "type": "number"
        },
        "Y_Value": {
          "label": "Y Value",
          "description": "The measured value along the Y axis.",
          "writable": false,
          "type": "number"
        },
        "Z_Value": {
          "label": "Z Value",
          "description": "The measured value along the Z axis.",
          "writable": false,
          "type": "number"
        },
        "Application_Type": {
          "label": "Application Type",
          "description": "The application type of the sensor or actuator as a string depending\\non the use case.",
          "type": "string"
        }
      },
      "sdfAction": {},
      "sdfRequired": []
    }
  }
}
@endjson

PlantUML version 1.2021.2(Sun Mar 07 13:10:27 EET 2021)
(GPL source distribution)
Java Runtime: OpenJDK Runtime Environment
JVM: OpenJDK 64-Bit Server VM
Default Encoding: UTF-8
Language: en
Country: FI
--></g></svg>