<?xml version="1.0" encoding="UTF-8" standalone="no"?><svg xmlns="http://www.w3.org/2000/svg" xmlns:xlink="http://www.w3.org/1999/xlink" contentScriptType="application/ecmascript" contentStyleType="text/css" height="449px" preserveAspectRatio="none" style="width:2309px;height:449px;" version="1.1" viewBox="0 0 2309 449" width="2309px" zoomAndPan="magnify"><defs/><g><rect fill="#FEFECE" height="40.9766" rx="5" ry="5" style="stroke:#FEFECE;stroke-width:1.5;" width="97" x="10" y="94"/><text fill="#000000" font-family="sans-serif" font-size="14" lengthAdjust="spacing" textLength="27" x="15" y="109.5352">info</text><text fill="#000000" font-family="sans-serif" font-size="14" lengthAdjust="spacing" textLength="0" x="102" y="109.5352"/><line style="stroke:#A80036;stroke-width:1.0;" x1="85" x2="85" y1="94" y2="114.4883"/><line style="stroke:#A80036;stroke-width:1.0;" x1="10" x2="107" y1="114.4883" y2="114.4883"/><text fill="#000000" font-family="sans-serif" font-size="14" lengthAdjust="spacing" textLength="65" x="15" y="130.0234">sdfObject</text><text fill="#000000" font-family="sans-serif" font-size="14" lengthAdjust="spacing" textLength="0" x="102" y="130.0234"/><line style="stroke:#A80036;stroke-width:1.0;" x1="85" x2="85" y1="114.4883" y2="134.9766"/><rect fill="none" height="40.9766" rx="5" ry="5" style="stroke:#A80036;stroke-width:1.5;" width="97" x="10" y="94"/><rect fill="#FEFECE" height="81.9531" rx="5" ry="5" style="stroke:#FEFECE;stroke-width:1.5;" width="655" x="144" y="38.5"/><text fill="#000000" font-family="sans-serif" font-size="14" lengthAdjust="spacing" textLength="65" x="149" y="54.0352">copyright</text><text fill="#000000" font-family="sans-serif" font-size="14" lengthAdjust="spacing" textLength="570" x="224" y="54.0352">copyright 2016-2017, 2019 Open Connectivity Foundation, Inc. All rights reserved.</text><line style="stroke:#A80036;stroke-width:1.0;" x1="219" x2="219" y1="38.5" y2="58.9883"/><line style="stroke:#A80036;stroke-width:1.0;" x1="144" x2="799" y1="58.9883" y2="58.9883"/><text fill="#000000" font-family="sans-serif" font-size="14" lengthAdjust="spacing" textLength="47" x="149" y="74.5234">license</text><text fill="#000000" font-family="sans-serif" font-size="14" lengthAdjust="spacing" textLength="462" x="224" y="74.5234">https://github.com/one-data-model/oneDM/blob/master/LICENSE</text><line style="stroke:#A80036;stroke-width:1.0;" x1="219" x2="219" y1="58.9883" y2="79.4766"/><line style="stroke:#A80036;stroke-width:1.0;" x1="144" x2="799" y1="79.4766" y2="79.4766"/><text fill="#000000" font-family="sans-serif" font-size="14" lengthAdjust="spacing" textLength="26" x="149" y="95.0117">title</text><text fill="#000000" font-family="sans-serif" font-size="14" lengthAdjust="spacing" textLength="104" x="224" y="95.0117">Audio Controls</text><line style="stroke:#A80036;stroke-width:1.0;" x1="219" x2="219" y1="79.4766" y2="99.9648"/><line style="stroke:#A80036;stroke-width:1.0;" x1="144" x2="799" y1="99.9648" y2="99.9648"/><text fill="#000000" font-family="sans-serif" font-size="14" lengthAdjust="spacing" textLength="50" x="149" y="115.5">version</text><text fill="#000000" font-family="sans-serif" font-size="14" lengthAdjust="spacing" textLength="88" x="224" y="115.5">2019-06-20</text><line style="stroke:#A80036;stroke-width:1.0;" x1="219" x2="219" y1="99.9648" y2="120.4531"/><rect fill="none" height="81.9531" rx="5" ry="5" style="stroke:#A80036;stroke-width:1.5;" width="655" x="144" y="38.5"/><rect fill="#FEFECE" height="20.4883" rx="5" ry="5" style="stroke:#FEFECE;stroke-width:1.5;" width="71" x="436" y="138.5"/><text fill="#000000" font-family="sans-serif" font-size="14" lengthAdjust="spacing" textLength="39" x="441" y="154.0352">audio</text><text fill="#000000" font-family="sans-serif" font-size="14" lengthAdjust="spacing" textLength="0" x="502" y="154.0352"/><line style="stroke:#A80036;stroke-width:1.0;" x1="485" x2="485" y1="138.5" y2="158.9883"/><rect fill="none" height="20.4883" rx="5" ry="5" style="stroke:#A80036;stroke-width:1.5;" width="71" x="436" y="138.5"/><rect fill="#FEFECE" height="123.418" rx="5" ry="5" style="stroke:#FEFECE;stroke-width:1.5;" width="618" x="836" y="87"/><text fill="#000000" font-family="sans-serif" font-size="14" lengthAdjust="spacing" textLength="77" x="841" y="102.5352">description</text><text fill="#000000" font-family="sans-serif" font-size="14" lengthAdjust="spacing" textLength="449" x="930" y="102.5352">This Resource defines basic audio control functions. The Property</text><text fill="#000000" font-family="sans-serif" font-size="14" lengthAdjust="spacing" textLength="476" x="930" y="119.0234">"volume" is an integer containing a percentage [0,100]. A volume of 0</text><text fill="#000000" font-family="sans-serif" font-size="14" lengthAdjust="spacing" textLength="519" x="930" y="135.5117">(zero) means no sound produced. A volume of 100 means maximum sound</text><text fill="#000000" font-family="sans-serif" font-size="14" lengthAdjust="spacing" textLength="478" x="930" y="152">production. The Property "mute" is implemented as a boolean. A mute</text><text fill="#000000" font-family="sans-serif" font-size="14" lengthAdjust="spacing" textLength="474" x="930" y="168.4883">value of true means that the device is muted (no audio). A mute value</text><text fill="#000000" font-family="sans-serif" font-size="14" lengthAdjust="spacing" textLength="350" x="930" y="184.9766">of false means that the device is not muted (audio).</text><line style="stroke:#A80036;stroke-width:1.0;" x1="925" x2="925" y1="87" y2="189.9297"/><line style="stroke:#A80036;stroke-width:1.0;" x1="836" x2="1454" y1="189.9297" y2="189.9297"/><text fill="#000000" font-family="sans-serif" font-size="14" lengthAdjust="spacing" textLength="79" x="841" y="205.4648">sdfProperty</text><text fill="#000000" font-family="sans-serif" font-size="14" lengthAdjust="spacing" textLength="0" x="942" y="205.4648"/><line style="stroke:#A80036;stroke-width:1.0;" x1="925" x2="925" y1="189.9297" y2="210.418"/><rect fill="none" height="123.418" rx="5" ry="5" style="stroke:#A80036;stroke-width:1.5;" width="618" x="836" y="87"/><rect fill="#FEFECE" height="81.9531" rx="5" ry="5" style="stroke:#FEFECE;stroke-width:1.5;" width="82" x="1491" y="138.5"/><text fill="#000000" font-family="sans-serif" font-size="14" lengthAdjust="spacing" textLength="35" x="1496" y="154.0352">mute</text><text fill="#000000" font-family="sans-serif" font-size="14" lengthAdjust="spacing" textLength="0" x="1568" y="154.0352"/><line style="stroke:#A80036;stroke-width:1.0;" x1="1551" x2="1551" y1="138.5" y2="158.9883"/><line style="stroke:#A80036;stroke-width:1.0;" x1="1491" x2="1573" y1="158.9883" y2="158.9883"/><text fill="#000000" font-family="sans-serif" font-size="14" lengthAdjust="spacing" textLength="50" x="1496" y="174.5234">volume</text><text fill="#000000" font-family="sans-serif" font-size="14" lengthAdjust="spacing" textLength="0" x="1568" y="174.5234"/><line style="stroke:#A80036;stroke-width:1.0;" x1="1551" x2="1551" y1="158.9883" y2="179.4766"/><line style="stroke:#A80036;stroke-width:1.0;" x1="1491" x2="1573" y1="179.4766" y2="179.4766"/><text fill="#000000" font-family="sans-serif" font-size="14" lengthAdjust="spacing" textLength="40" x="1496" y="195.0117">range</text><text fill="#000000" font-family="sans-serif" font-size="14" lengthAdjust="spacing" textLength="0" x="1568" y="195.0117"/><line style="stroke:#A80036;stroke-width:1.0;" x1="1551" x2="1551" y1="179.4766" y2="199.9648"/><line style="stroke:#A80036;stroke-width:1.0;" x1="1491" x2="1573" y1="199.9648" y2="199.9648"/><text fill="#000000" font-family="sans-serif" font-size="14" lengthAdjust="spacing" textLength="29" x="1496" y="215.5">step</text><text fill="#000000" font-family="sans-serif" font-size="14" lengthAdjust="spacing" textLength="0" x="1568" y="215.5"/><line style="stroke:#A80036;stroke-width:1.0;" x1="1551" x2="1551" y1="199.9648" y2="220.4531"/><rect fill="none" height="81.9531" rx="5" ry="5" style="stroke:#A80036;stroke-width:1.5;" width="82" x="1491" y="138.5"/><rect fill="#FEFECE" height="40.9766" rx="5" ry="5" style="stroke:#FEFECE;stroke-width:1.5;" width="418" x="1677" y="10"/><text fill="#000000" font-family="sans-serif" font-size="14" lengthAdjust="spacing" textLength="77" x="1682" y="25.5352">description</text><text fill="#000000" font-family="sans-serif" font-size="14" lengthAdjust="spacing" textLength="321" x="1769" y="25.5352">The mute setting of an audio rendering device.</text><line style="stroke:#A80036;stroke-width:1.0;" x1="1764" x2="1764" y1="10" y2="30.4883"/><line style="stroke:#A80036;stroke-width:1.0;" x1="1677" x2="2095" y1="30.4883" y2="30.4883"/><text fill="#000000" font-family="sans-serif" font-size="14" lengthAdjust="spacing" textLength="29" x="1682" y="46.0234">type</text><text fill="#000000" font-family="sans-serif" font-size="14" lengthAdjust="spacing" textLength="56" x="1769" y="46.0234">boolean</text><line style="stroke:#A80036;stroke-width:1.0;" x1="1764" x2="1764" y1="30.4883" y2="50.9766"/><rect fill="none" height="40.9766" rx="5" ry="5" style="stroke:#A80036;stroke-width:1.5;" width="418" x="1677" y="10"/><rect fill="#FEFECE" height="81.9531" rx="5" ry="5" style="stroke:#FEFECE;stroke-width:1.5;" width="433" x="1669.5" y="69.5"/><text fill="#000000" font-family="sans-serif" font-size="14" lengthAdjust="spacing" textLength="77" x="1674.5" y="85.0352">description</text><text fill="#000000" font-family="sans-serif" font-size="14" lengthAdjust="spacing" textLength="336" x="1761.5" y="85.0352">The volume setting of an audio rendering device.</text><line style="stroke:#A80036;stroke-width:1.0;" x1="1756.5" x2="1756.5" y1="69.5" y2="89.9883"/><line style="stroke:#A80036;stroke-width:1.0;" x1="1669.5" x2="2102.5" y1="89.9883" y2="89.9883"/><text fill="#000000" font-family="sans-serif" font-size="14" lengthAdjust="spacing" textLength="69" x="1674.5" y="105.5234">maximum</text><text fill="#000000" font-family="sans-serif" font-size="14" lengthAdjust="spacing" textLength="27" x="1761.5" y="105.5234">100</text><line style="stroke:#A80036;stroke-width:1.0;" x1="1756.5" x2="1756.5" y1="89.9883" y2="110.4766"/><line style="stroke:#A80036;stroke-width:1.0;" x1="1669.5" x2="2102.5" y1="110.4766" y2="110.4766"/><text fill="#000000" font-family="sans-serif" font-size="14" lengthAdjust="spacing" textLength="65" x="1674.5" y="126.0117">minimum</text><text fill="#000000" font-family="sans-serif" font-size="14" lengthAdjust="spacing" textLength="9" x="1761.5" y="126.0117">0</text><line style="stroke:#A80036;stroke-width:1.0;" x1="1756.5" x2="1756.5" y1="110.4766" y2="130.9648"/><line style="stroke:#A80036;stroke-width:1.0;" x1="1669.5" x2="2102.5" y1="130.9648" y2="130.9648"/><text fill="#000000" font-family="sans-serif" font-size="14" lengthAdjust="spacing" textLength="29" x="1674.5" y="146.5">type</text><text fill="#000000" font-family="sans-serif" font-size="14" lengthAdjust="spacing" textLength="49" x="1761.5" y="146.5">integer</text><line style="stroke:#A80036;stroke-width:1.0;" x1="1756.5" x2="1756.5" y1="130.9648" y2="151.4531"/><rect fill="none" height="81.9531" rx="5" ry="5" style="stroke:#A80036;stroke-width:1.5;" width="433" x="1669.5" y="69.5"/><rect fill="#FEFECE" height="155.9063" rx="5" ry="5" style="stroke:#FEFECE;stroke-width:1.5;" width="552" x="1610" y="169.5"/><text fill="#000000" font-family="sans-serif" font-size="14" lengthAdjust="spacing" textLength="29" x="1615" y="185.0352">type</text><text fill="#000000" font-family="sans-serif" font-size="14" lengthAdjust="spacing" textLength="35" x="1702" y="185.0352">array</text><line style="stroke:#A80036;stroke-width:1.0;" x1="1697" x2="1697" y1="169.5" y2="189.9883"/><line style="stroke:#A80036;stroke-width:1.0;" x1="1610" x2="2162" y1="189.9883" y2="189.9883"/><text fill="#000000" font-family="sans-serif" font-size="14" lengthAdjust="spacing" textLength="77" x="1615" y="205.5234">description</text><text fill="#000000" font-family="sans-serif" font-size="14" lengthAdjust="spacing" textLength="455" x="1702" y="205.5234">The valid range for the Property in the Resource as an integer. The</text><text fill="#000000" font-family="sans-serif" font-size="14" lengthAdjust="spacing" textLength="439" x="1702" y="222.0117">first value in the array is the minimum value, the second value in</text><text fill="#000000" font-family="sans-serif" font-size="14" lengthAdjust="spacing" textLength="219" x="1702" y="238.5">the array is the maximum value.</text><line style="stroke:#A80036;stroke-width:1.0;" x1="1697" x2="1697" y1="189.9883" y2="243.4531"/><line style="stroke:#A80036;stroke-width:1.0;" x1="1610" x2="2162" y1="243.4531" y2="243.4531"/><text fill="#000000" font-family="sans-serif" font-size="14" lengthAdjust="spacing" textLength="55" x="1615" y="258.9883">writable</text><text fill="#000000" font-family="sans-serif" font-size="14" lengthAdjust="spacing" textLength="48" x="1702" y="258.9883">☐ false</text><line style="stroke:#A80036;stroke-width:1.0;" x1="1697" x2="1697" y1="243.4531" y2="263.9414"/><line style="stroke:#A80036;stroke-width:1.0;" x1="1610" x2="2162" y1="263.9414" y2="263.9414"/><text fill="#000000" font-family="sans-serif" font-size="14" lengthAdjust="spacing" textLength="63" x="1615" y="279.4766">minItems</text><text fill="#000000" font-family="sans-serif" font-size="14" lengthAdjust="spacing" textLength="9" x="1702" y="279.4766">2</text><line style="stroke:#A80036;stroke-width:1.0;" x1="1697" x2="1697" y1="263.9414" y2="284.4297"/><line style="stroke:#A80036;stroke-width:1.0;" x1="1610" x2="2162" y1="284.4297" y2="284.4297"/><text fill="#000000" font-family="sans-serif" font-size="14" lengthAdjust="spacing" textLength="67" x="1615" y="299.9648">maxItems</text><text fill="#000000" font-family="sans-serif" font-size="14" lengthAdjust="spacing" textLength="9" x="1702" y="299.9648">2</text><line style="stroke:#A80036;stroke-width:1.0;" x1="1697" x2="1697" y1="284.4297" y2="304.918"/><line style="stroke:#A80036;stroke-width:1.0;" x1="1610" x2="2162" y1="304.918" y2="304.918"/><text fill="#000000" font-family="sans-serif" font-size="14" lengthAdjust="spacing" textLength="37" x="1615" y="320.4531">items</text><text fill="#000000" font-family="sans-serif" font-size="14" lengthAdjust="spacing" textLength="0" x="1714" y="320.4531"/><line style="stroke:#A80036;stroke-width:1.0;" x1="1697" x2="1697" y1="304.918" y2="325.4063"/><rect fill="none" height="155.9063" rx="5" ry="5" style="stroke:#A80036;stroke-width:1.5;" width="552" x="1610" y="169.5"/><rect fill="#FEFECE" height="20.4883" rx="5" ry="5" style="stroke:#FEFECE;stroke-width:1.5;" width="98" x="2199" y="302.5"/><text fill="#000000" font-family="sans-serif" font-size="14" lengthAdjust="spacing" textLength="29" x="2204" y="318.0352">type</text><text fill="#000000" font-family="sans-serif" font-size="14" lengthAdjust="spacing" textLength="49" x="2243" y="318.0352">integer</text><line style="stroke:#A80036;stroke-width:1.0;" x1="2238" x2="2238" y1="302.5" y2="322.9883"/><rect fill="none" height="20.4883" rx="5" ry="5" style="stroke:#A80036;stroke-width:1.5;" width="98" x="2199" y="302.5"/><rect fill="#FEFECE" height="94.4414" rx="5" ry="5" style="stroke:#FEFECE;stroke-width:1.5;" width="549" x="1611.5" y="343.5"/><text fill="#000000" font-family="sans-serif" font-size="14" lengthAdjust="spacing" textLength="77" x="1616.5" y="359.0352">description</text><text fill="#000000" font-family="sans-serif" font-size="14" lengthAdjust="spacing" textLength="448" x="1703.5" y="359.0352">Step value across the defined range when the range is an integer.</text><text fill="#000000" font-family="sans-serif" font-size="14" lengthAdjust="spacing" textLength="449" x="1703.5" y="375.5234">This is the increment for valid values across the range; so if range</text><text fill="#000000" font-family="sans-serif" font-size="14" lengthAdjust="spacing" textLength="376" x="1703.5" y="392.0117">is 0..10 and step is 2 then valid values are 0,2,4,6,8,10.</text><line style="stroke:#A80036;stroke-width:1.0;" x1="1698.5" x2="1698.5" y1="343.5" y2="396.9648"/><line style="stroke:#A80036;stroke-width:1.0;" x1="1611.5" x2="2160.5" y1="396.9648" y2="396.9648"/><text fill="#000000" font-family="sans-serif" font-size="14" lengthAdjust="spacing" textLength="55" x="1616.5" y="412.5">writable</text><text fill="#000000" font-family="sans-serif" font-size="14" lengthAdjust="spacing" textLength="48" x="1703.5" y="412.5">☐ false</text><line style="stroke:#A80036;stroke-width:1.0;" x1="1698.5" x2="1698.5" y1="396.9648" y2="417.4531"/><line style="stroke:#A80036;stroke-width:1.0;" x1="1611.5" x2="2160.5" y1="417.4531" y2="417.4531"/><text fill="#000000" font-family="sans-serif" font-size="14" lengthAdjust="spacing" textLength="29" x="1616.5" y="432.9883">type</text><text fill="#000000" font-family="sans-serif" font-size="14" lengthAdjust="spacing" textLength="49" x="1703.5" y="432.9883">integer</text><line style="stroke:#A80036;stroke-width:1.0;" x1="1698.5" x2="1698.5" y1="417.4531" y2="437.9414"/><rect fill="none" height="94.4414" rx="5" ry="5" style="stroke:#A80036;stroke-width:1.5;" width="549" x="1611.5" y="343.5"/><path d="M95,103.5 L108,103.5 C117.3442,103.5 126.8208,103.4198 136.3833,103.2688 " fill="none" style="stroke:#A80036;stroke-width:1.0;stroke-dasharray:3.0,3.0;"/><path d="M136.4378,106.3434 L138.6892,103.2279 L136.3288,100.1942 L144.0697,103.1326 L136.4378,106.3434 " fill="#A80036" style="stroke:#A80036;stroke-width:1.0;"/><ellipse cx="95" cy="103.5" fill="#A80036" rx="3" ry="3" style="stroke:#A80036;stroke-width:1.0;stroke-dasharray:3.0,3.0;"/><path d="M1561,148.5 L1574,148.5 C1616.2573,148.5 1576.2442,85.9209 1610,60.5 C1627.8692,47.043 1648.335,37.4846 1669.8648,30.8524 " fill="none" style="stroke:#A80036;stroke-width:1.0;stroke-dasharray:3.0,3.0;"/><path d="M1670.7202,33.7884 L1672.0668,30.2109 L1669.0095,27.9164 L1677.2048,28.714 L1670.7202,33.7884 " fill="#A80036" style="stroke:#A80036;stroke-width:1.0;"/><ellipse cx="1561" cy="148.5" fill="#A80036" rx="3" ry="3" style="stroke:#A80036;stroke-width:1.0;stroke-dasharray:3.0,3.0;"/><path d="M1561,168.5 L1574,168.5 C1590.3903,168.5 1593.9335,163.7418 1610,160.5 C1626.9905,157.0717 1644.5926,153.6285 1662.3064,150.241 " fill="none" style="stroke:#A80036;stroke-width:1.0;stroke-dasharray:3.0,3.0;"/><path d="M1662.8857,153.2797 L1664.5855,149.8065 L1661.7271,147.2022 L1669.9034,148.7928 L1662.8857,153.2797 " fill="#A80036" style="stroke:#A80036;stroke-width:1.0;"/><ellipse cx="1561" cy="168.5" fill="#A80036" rx="3" ry="3" style="stroke:#A80036;stroke-width:1.0;stroke-dasharray:3.0,3.0;"/><path d="M2150,312.5 L2163,312.5 C2172.2605,312.5 2182.0919,312.5 2191.6496,312.5 " fill="none" style="stroke:#A80036;stroke-width:1.0;stroke-dasharray:3.0,3.0;"/><path d="M2191.6496,315.5361 L2193.9267,312.5 L2191.6496,309.4639 L2199.2398,312.5 L2191.6496,315.5361 " fill="#A80036" style="stroke:#A80036;stroke-width:1.0;"/><ellipse cx="2150" cy="312.5" fill="#A80036" rx="3" ry="3" style="stroke:#A80036;stroke-width:1.0;stroke-dasharray:3.0,3.0;"/><path d="M1561,189.5 L1574,189.5 C1583.4408,189.5 1593.0157,189.7607 1602.6644,190.2471 " fill="none" style="stroke:#A80036;stroke-width:1.0;stroke-dasharray:3.0,3.0;"/><path d="M1602.4892,193.3481 L1604.9902,190.3784 L1602.8395,187.146 L1610.4171,190.6849 L1602.4892,193.3481 " fill="#A80036" style="stroke:#A80036;stroke-width:1.0;"/><ellipse cx="1561" cy="189.5" fill="#A80036" rx="3" ry="3" style="stroke:#A80036;stroke-width:1.0;stroke-dasharray:3.0,3.0;"/><path d="M1561,210.5 L1574,210.5 C1631.3867,210.5 1567.7919,295.6192 1610,334.5 C1611.492,335.8744 1613.0082,337.2189 1614.5474,338.5342 " fill="none" style="stroke:#A80036;stroke-width:1.0;stroke-dasharray:3.0,3.0;"/><path d="M1612.5756,340.9536 L1616.3619,340.0131 L1616.5192,336.1149 L1620.5958,343.4636 L1612.5756,340.9536 " fill="#A80036" style="stroke:#A80036;stroke-width:1.0;"/><ellipse cx="1561" cy="210.5" fill="#A80036" rx="3" ry="3" style="stroke:#A80036;stroke-width:1.0;stroke-dasharray:3.0,3.0;"/><path d="M1442,179.5 L1455,179.5 C1464.327,179.5 1474.2936,179.5 1483.847,179.5 " fill="none" style="stroke:#A80036;stroke-width:1.0;stroke-dasharray:3.0,3.0;"/><path d="M1483.847,182.5212 L1486.1129,179.5 L1483.847,176.4788 L1491.4,179.5 L1483.847,182.5212 " fill="#A80036" style="stroke:#A80036;stroke-width:1.0;"/><ellipse cx="1442" cy="179.5" fill="#A80036" rx="3" ry="3" style="stroke:#A80036;stroke-width:1.0;stroke-dasharray:3.0,3.0;"/><path d="M496,148.5 L509,148.5 C613.0035,148.5 726.5813,148.5 828.5804,148.5 " fill="none" style="stroke:#A80036;stroke-width:1.0;stroke-dasharray:3.0,3.0;"/><path d="M828.5804,151.5542 L830.871,148.5 L828.5804,145.4458 L836.2159,148.5 L828.5804,151.5542 " fill="#A80036" style="stroke:#A80036;stroke-width:1.0;"/><ellipse cx="496" cy="148.5" fill="#A80036" rx="3" ry="3" style="stroke:#A80036;stroke-width:1.0;stroke-dasharray:3.0,3.0;"/><path d="M95,124.5 L108,124.5 C124.1536,124.5 127.924,127.9191 144,129.5 C245.7607,139.5069 365.8938,144.8299 428.3878,147.112 " fill="none" style="stroke:#A80036;stroke-width:1.0;stroke-dasharray:3.0,3.0;"/><path d="M428.2773,150.1905 L430.6967,147.1949 L428.4983,144.0335 L436.0841,147.3883 L428.2773,150.1905 " fill="#A80036" style="stroke:#A80036;stroke-width:1.0;"/><ellipse cx="95" cy="124.5" fill="#A80036" rx="3" ry="3" style="stroke:#A80036;stroke-width:1.0;stroke-dasharray:3.0,3.0;"/><!--MD5=[c7a86a1e21fe0e88b9df0198003bdb85]
@startjson
{
  "info": {
    "copyright": "copyright 2016-2017, 2019 Open Connectivity Foundation, Inc. All rights reserved.",
    "license": "https://github.com/one-data-model/oneDM/blob/master/LICENSE",
    "title": "Audio Controls",
    "version": "2019-06-20"
  },
  "sdfObject": {
    "audio": {
      "description": "This Resource defines basic audio control functions. The Property\\n\"volume\" is an integer containing a percentage [0,100]. A volume of 0\\n(zero) means no sound produced. A volume of 100 means maximum sound\\nproduction. The Property \"mute\" is implemented as a boolean. A mute\\nvalue of true means that the device is muted (no audio). A mute value\\nof false means that the device is not muted (audio).",
      "sdfProperty": {
        "mute": {
          "description": "The mute setting of an audio rendering device.",
          "type": "boolean"
        },
        "volume": {
          "description": "The volume setting of an audio rendering device.",
          "maximum": 100,
          "minimum": 0,
          "type": "integer"
        },
        "range": {
          "type": "array",
          "description": "The valid range for the Property in the Resource as an integer. The\\nfirst value in the array is the minimum value, the second value in\\nthe array is the maximum value.",
          "writable": false,
          "minItems": 2,
          "maxItems": 2,
          "items": {
            "type": "integer"
          }
        },
        "step": {
          "description": "Step value across the defined range when the range is an integer. \\nThis is the increment for valid values across the range; so if range\\nis 0..10 and step is 2 then valid values are 0,2,4,6,8,10.",
          "writable": false,
          "type": "integer"
        }
      }
    }
  }
}
@endjson

PlantUML version 1.2021.2(Sun Mar 07 13:10:27 EET 2021)
(GPL source distribution)
Java Runtime: OpenJDK Runtime Environment
JVM: OpenJDK 64-Bit Server VM
Default Encoding: UTF-8
Language: en
Country: FI
--></g></svg>