<?xml version="1.0" encoding="UTF-8" standalone="no"?><svg xmlns="http://www.w3.org/2000/svg" xmlns:xlink="http://www.w3.org/1999/xlink" contentScriptType="application/ecmascript" contentStyleType="text/css" height="657px" preserveAspectRatio="none" style="width:2296px;height:657px;" version="1.1" viewBox="0 0 2296 657" width="2296px" zoomAndPan="magnify"><defs/><g><rect fill="#FEFECE" height="40.9766" rx="5" ry="5" style="stroke:#FEFECE;stroke-width:1.5;" width="97" x="10" y="271"/><text fill="#000000" font-family="sans-serif" font-size="14" lengthAdjust="spacing" textLength="27" x="15" y="286.5352">info</text><text fill="#000000" font-family="sans-serif" font-size="14" lengthAdjust="spacing" textLength="0" x="102" y="286.5352"/><line style="stroke:#A80036;stroke-width:1.0;" x1="85" x2="85" y1="271" y2="291.4883"/><line style="stroke:#A80036;stroke-width:1.0;" x1="10" x2="107" y1="291.4883" y2="291.4883"/><text fill="#000000" font-family="sans-serif" font-size="14" lengthAdjust="spacing" textLength="65" x="15" y="307.0234">sdfObject</text><text fill="#000000" font-family="sans-serif" font-size="14" lengthAdjust="spacing" textLength="0" x="102" y="307.0234"/><line style="stroke:#A80036;stroke-width:1.0;" x1="85" x2="85" y1="291.4883" y2="311.9766"/><rect fill="none" height="40.9766" rx="5" ry="5" style="stroke:#A80036;stroke-width:1.5;" width="97" x="10" y="271"/><rect fill="#FEFECE" height="81.9531" rx="5" ry="5" style="stroke:#FEFECE;stroke-width:1.5;" width="547" x="144" y="215.5"/><text fill="#000000" font-family="sans-serif" font-size="14" lengthAdjust="spacing" textLength="26" x="149" y="231.0352">title</text><text fill="#000000" font-family="sans-serif" font-size="14" lengthAdjust="spacing" textLength="268" x="224" y="231.0352">OMA LwM2M Set Point (Object ID 3308)</text><line style="stroke:#A80036;stroke-width:1.0;" x1="219" x2="219" y1="215.5" y2="235.9883"/><line style="stroke:#A80036;stroke-width:1.0;" x1="144" x2="691" y1="235.9883" y2="235.9883"/><text fill="#000000" font-family="sans-serif" font-size="14" lengthAdjust="spacing" textLength="50" x="149" y="251.5234">version</text><text fill="#000000" font-family="sans-serif" font-size="14" lengthAdjust="spacing" textLength="88" x="224" y="251.5234">2021-02-11</text><line style="stroke:#A80036;stroke-width:1.0;" x1="219" x2="219" y1="235.9883" y2="256.4766"/><line style="stroke:#A80036;stroke-width:1.0;" x1="144" x2="691" y1="256.4766" y2="256.4766"/><text fill="#000000" font-family="sans-serif" font-size="14" lengthAdjust="spacing" textLength="65" x="149" y="272.0117">copyright</text><text fill="#000000" font-family="sans-serif" font-size="14" lengthAdjust="spacing" textLength="208" x="224" y="272.0117">Copyright (c) 2018-2020 IPSO</text><line style="stroke:#A80036;stroke-width:1.0;" x1="219" x2="219" y1="256.4766" y2="276.9648"/><line style="stroke:#A80036;stroke-width:1.0;" x1="144" x2="691" y1="276.9648" y2="276.9648"/><text fill="#000000" font-family="sans-serif" font-size="14" lengthAdjust="spacing" textLength="47" x="149" y="292.5">license</text><text fill="#000000" font-family="sans-serif" font-size="14" lengthAdjust="spacing" textLength="462" x="224" y="292.5">https://github.com/one-data-model/oneDM/blob/master/LICENSE</text><line style="stroke:#A80036;stroke-width:1.0;" x1="219" x2="219" y1="276.9648" y2="297.4531"/><rect fill="none" height="81.9531" rx="5" ry="5" style="stroke:#A80036;stroke-width:1.5;" width="547" x="144" y="215.5"/><rect fill="#FEFECE" height="20.4883" rx="5" ry="5" style="stroke:#FEFECE;stroke-width:1.5;" width="95" x="370" y="315.5"/><text fill="#000000" font-family="sans-serif" font-size="14" lengthAdjust="spacing" textLength="63" x="375" y="331.0352">Set_Point</text><text fill="#000000" font-family="sans-serif" font-size="14" lengthAdjust="spacing" textLength="0" x="460" y="331.0352"/><line style="stroke:#A80036;stroke-width:1.0;" x1="443" x2="443" y1="315.5" y2="335.9883"/><rect fill="none" height="20.4883" rx="5" ry="5" style="stroke:#A80036;stroke-width:1.5;" width="95" x="370" y="315.5"/><rect fill="#FEFECE" height="135.418" rx="5" ry="5" style="stroke:#FEFECE;stroke-width:1.5;" width="557" x="728" y="258"/><text fill="#000000" font-family="sans-serif" font-size="14" lengthAdjust="spacing" textLength="33" x="733" y="273.5352">label</text><text fill="#000000" font-family="sans-serif" font-size="14" lengthAdjust="spacing" textLength="60" x="826" y="273.5352">Set Point</text><line style="stroke:#A80036;stroke-width:1.0;" x1="821" x2="821" y1="258" y2="278.4883"/><line style="stroke:#A80036;stroke-width:1.0;" x1="728" x2="1285" y1="278.4883" y2="278.4883"/><text fill="#000000" font-family="sans-serif" font-size="14" lengthAdjust="spacing" textLength="77" x="733" y="294.0234">description</text><text fill="#000000" font-family="sans-serif" font-size="14" lengthAdjust="spacing" textLength="398" x="826" y="294.0234">This IPSO object should be used to set a desired value to a</text><text fill="#000000" font-family="sans-serif" font-size="14" lengthAdjust="spacing" textLength="454" x="826" y="310.5117">controller, such as a thermostat. A special resource is added to set</text><text fill="#000000" font-family="sans-serif" font-size="14" lengthAdjust="spacing" textLength="159" x="826" y="327">the colour of an object.</text><line style="stroke:#A80036;stroke-width:1.0;" x1="821" x2="821" y1="278.4883" y2="331.9531"/><line style="stroke:#A80036;stroke-width:1.0;" x1="728" x2="1285" y1="331.9531" y2="331.9531"/><text fill="#000000" font-family="sans-serif" font-size="14" lengthAdjust="spacing" textLength="79" x="733" y="347.4883">sdfProperty</text><text fill="#000000" font-family="sans-serif" font-size="14" lengthAdjust="spacing" textLength="0" x="838" y="347.4883"/><line style="stroke:#A80036;stroke-width:1.0;" x1="821" x2="821" y1="331.9531" y2="352.4414"/><line style="stroke:#A80036;stroke-width:1.0;" x1="728" x2="1285" y1="352.4414" y2="352.4414"/><text fill="#000000" font-family="sans-serif" font-size="14" lengthAdjust="spacing" textLength="65" x="733" y="367.9766">sdfAction</text><text fill="#000000" font-family="sans-serif" font-size="14" lengthAdjust="spacing" textLength="0" x="838" y="367.9766"/><line style="stroke:#A80036;stroke-width:1.0;" x1="821" x2="821" y1="352.4414" y2="372.9297"/><line style="stroke:#A80036;stroke-width:1.0;" x1="728" x2="1285" y1="372.9297" y2="372.9297"/><text fill="#000000" font-family="sans-serif" font-size="14" lengthAdjust="spacing" textLength="83" x="733" y="388.4648">sdfRequired</text><text fill="#000000" font-family="sans-serif" font-size="14" lengthAdjust="spacing" textLength="0" x="838" y="388.4648"/><line style="stroke:#A80036;stroke-width:1.0;" x1="821" x2="821" y1="372.9297" y2="393.418"/><rect fill="none" height="135.418" rx="5" ry="5" style="stroke:#A80036;stroke-width:1.5;" width="557" x="728" y="258"/><rect fill="#FEFECE" height="122.9297" rx="5" ry="5" style="stroke:#FEFECE;stroke-width:1.5;" width="183" x="1411.5" y="203"/><text fill="#000000" font-family="sans-serif" font-size="14" lengthAdjust="spacing" textLength="108" x="1416.5" y="218.5352">Set_Point_Value</text><text fill="#000000" font-family="sans-serif" font-size="14" lengthAdjust="spacing" textLength="0" x="1589.5" y="218.5352"/><line style="stroke:#A80036;stroke-width:1.0;" x1="1572.5" x2="1572.5" y1="203" y2="223.4883"/><line style="stroke:#A80036;stroke-width:1.0;" x1="1411.5" x2="1594.5" y1="223.4883" y2="223.4883"/><text fill="#000000" font-family="sans-serif" font-size="14" lengthAdjust="spacing" textLength="89" x="1416.5" y="239.0234">Sensor_Units</text><text fill="#000000" font-family="sans-serif" font-size="14" lengthAdjust="spacing" textLength="0" x="1589.5" y="239.0234"/><line style="stroke:#A80036;stroke-width:1.0;" x1="1572.5" x2="1572.5" y1="223.4883" y2="243.9766"/><line style="stroke:#A80036;stroke-width:1.0;" x1="1411.5" x2="1594.5" y1="243.9766" y2="243.9766"/><text fill="#000000" font-family="sans-serif" font-size="14" lengthAdjust="spacing" textLength="47" x="1416.5" y="259.5117">Colour</text><text fill="#000000" font-family="sans-serif" font-size="14" lengthAdjust="spacing" textLength="0" x="1589.5" y="259.5117"/><line style="stroke:#A80036;stroke-width:1.0;" x1="1572.5" x2="1572.5" y1="243.9766" y2="264.4648"/><line style="stroke:#A80036;stroke-width:1.0;" x1="1411.5" x2="1594.5" y1="264.4648" y2="264.4648"/><text fill="#000000" font-family="sans-serif" font-size="14" lengthAdjust="spacing" textLength="118" x="1416.5" y="280">Application_Type</text><text fill="#000000" font-family="sans-serif" font-size="14" lengthAdjust="spacing" textLength="0" x="1589.5" y="280"/><line style="stroke:#A80036;stroke-width:1.0;" x1="1572.5" x2="1572.5" y1="264.4648" y2="284.9531"/><line style="stroke:#A80036;stroke-width:1.0;" x1="1411.5" x2="1594.5" y1="284.9531" y2="284.9531"/><text fill="#000000" font-family="sans-serif" font-size="14" lengthAdjust="spacing" textLength="76" x="1416.5" y="300.4883">Timestamp</text><text fill="#000000" font-family="sans-serif" font-size="14" lengthAdjust="spacing" textLength="0" x="1589.5" y="300.4883"/><line style="stroke:#A80036;stroke-width:1.0;" x1="1572.5" x2="1572.5" y1="284.9531" y2="305.4414"/><line style="stroke:#A80036;stroke-width:1.0;" x1="1411.5" x2="1594.5" y1="305.4414" y2="305.4414"/><text fill="#000000" font-family="sans-serif" font-size="14" lengthAdjust="spacing" textLength="151" x="1416.5" y="320.9766">Fractional_Timestamp</text><text fill="#000000" font-family="sans-serif" font-size="14" lengthAdjust="spacing" textLength="0" x="1589.5" y="320.9766"/><line style="stroke:#A80036;stroke-width:1.0;" x1="1572.5" x2="1572.5" y1="305.4414" y2="325.9297"/><rect fill="none" height="122.9297" rx="5" ry="5" style="stroke:#A80036;stroke-width:1.5;" width="183" x="1411.5" y="203"/><rect fill="#FEFECE" height="61.4648" rx="5" ry="5" style="stroke:#FEFECE;stroke-width:1.5;" width="227" x="1889" y="10"/><text fill="#000000" font-family="sans-serif" font-size="14" lengthAdjust="spacing" textLength="33" x="1894" y="25.5352">label</text><text fill="#000000" font-family="sans-serif" font-size="14" lengthAdjust="spacing" textLength="102" x="1981" y="25.5352">Set Point Value</text><line style="stroke:#A80036;stroke-width:1.0;" x1="1976" x2="1976" y1="10" y2="30.4883"/><line style="stroke:#A80036;stroke-width:1.0;" x1="1889" x2="2116" y1="30.4883" y2="30.4883"/><text fill="#000000" font-family="sans-serif" font-size="14" lengthAdjust="spacing" textLength="77" x="1894" y="46.0234">description</text><text fill="#000000" font-family="sans-serif" font-size="14" lengthAdjust="spacing" textLength="130" x="1981" y="46.0234">The setpoint value.</text><line style="stroke:#A80036;stroke-width:1.0;" x1="1976" x2="1976" y1="30.4883" y2="50.9766"/><line style="stroke:#A80036;stroke-width:1.0;" x1="1889" x2="2116" y1="50.9766" y2="50.9766"/><text fill="#000000" font-family="sans-serif" font-size="14" lengthAdjust="spacing" textLength="29" x="1894" y="66.5117">type</text><text fill="#000000" font-family="sans-serif" font-size="14" lengthAdjust="spacing" textLength="54" x="1981" y="66.5117">number</text><line style="stroke:#A80036;stroke-width:1.0;" x1="1976" x2="1976" y1="50.9766" y2="71.4648"/><rect fill="none" height="61.4648" rx="5" ry="5" style="stroke:#A80036;stroke-width:1.5;" width="227" x="1889" y="10"/><rect fill="#FEFECE" height="81.9531" rx="5" ry="5" style="stroke:#FEFECE;stroke-width:1.5;" width="304" x="1850.5" y="89.5"/><text fill="#000000" font-family="sans-serif" font-size="14" lengthAdjust="spacing" textLength="33" x="1855.5" y="105.0352">label</text><text fill="#000000" font-family="sans-serif" font-size="14" lengthAdjust="spacing" textLength="86" x="1942.5" y="105.0352">Sensor Units</text><line style="stroke:#A80036;stroke-width:1.0;" x1="1937.5" x2="1937.5" y1="89.5" y2="109.9883"/><line style="stroke:#A80036;stroke-width:1.0;" x1="1850.5" x2="2154.5" y1="109.9883" y2="109.9883"/><text fill="#000000" font-family="sans-serif" font-size="14" lengthAdjust="spacing" textLength="77" x="1855.5" y="125.5234">description</text><text fill="#000000" font-family="sans-serif" font-size="14" lengthAdjust="spacing" textLength="207" x="1942.5" y="125.5234">Measurement Units Definition.</text><line style="stroke:#A80036;stroke-width:1.0;" x1="1937.5" x2="1937.5" y1="109.9883" y2="130.4766"/><line style="stroke:#A80036;stroke-width:1.0;" x1="1850.5" x2="2154.5" y1="130.4766" y2="130.4766"/><text fill="#000000" font-family="sans-serif" font-size="14" lengthAdjust="spacing" textLength="55" x="1855.5" y="146.0117">writable</text><text fill="#000000" font-family="sans-serif" font-size="14" lengthAdjust="spacing" textLength="48" x="1942.5" y="146.0117">☐ false</text><line style="stroke:#A80036;stroke-width:1.0;" x1="1937.5" x2="1937.5" y1="130.4766" y2="150.9648"/><line style="stroke:#A80036;stroke-width:1.0;" x1="1850.5" x2="2154.5" y1="150.9648" y2="150.9648"/><text fill="#000000" font-family="sans-serif" font-size="14" lengthAdjust="spacing" textLength="29" x="1855.5" y="166.5">type</text><text fill="#000000" font-family="sans-serif" font-size="14" lengthAdjust="spacing" textLength="40" x="1942.5" y="166.5">string</text><line style="stroke:#A80036;stroke-width:1.0;" x1="1937.5" x2="1937.5" y1="150.9648" y2="171.4531"/><rect fill="none" height="81.9531" rx="5" ry="5" style="stroke:#A80036;stroke-width:1.5;" width="304" x="1850.5" y="89.5"/><rect fill="#FEFECE" height="61.4648" rx="5" ry="5" style="stroke:#FEFECE;stroke-width:1.5;" width="439" x="1783" y="190"/><text fill="#000000" font-family="sans-serif" font-size="14" lengthAdjust="spacing" textLength="33" x="1788" y="205.5352">label</text><text fill="#000000" font-family="sans-serif" font-size="14" lengthAdjust="spacing" textLength="47" x="1875" y="205.5352">Colour</text><line style="stroke:#A80036;stroke-width:1.0;" x1="1870" x2="1870" y1="190" y2="210.4883"/><line style="stroke:#A80036;stroke-width:1.0;" x1="1783" x2="2222" y1="210.4883" y2="210.4883"/><text fill="#000000" font-family="sans-serif" font-size="14" lengthAdjust="spacing" textLength="77" x="1788" y="226.0234">description</text><text fill="#000000" font-family="sans-serif" font-size="14" lengthAdjust="spacing" textLength="342" x="1875" y="226.0234">A string representing a value in some color space.</text><line style="stroke:#A80036;stroke-width:1.0;" x1="1870" x2="1870" y1="210.4883" y2="230.9766"/><line style="stroke:#A80036;stroke-width:1.0;" x1="1783" x2="2222" y1="230.9766" y2="230.9766"/><text fill="#000000" font-family="sans-serif" font-size="14" lengthAdjust="spacing" textLength="29" x="1788" y="246.5117">type</text><text fill="#000000" font-family="sans-serif" font-size="14" lengthAdjust="spacing" textLength="40" x="1875" y="246.5117">string</text><line style="stroke:#A80036;stroke-width:1.0;" x1="1870" x2="1870" y1="230.9766" y2="251.4648"/><rect fill="none" height="61.4648" rx="5" ry="5" style="stroke:#A80036;stroke-width:1.5;" width="439" x="1783" y="190"/><rect fill="#FEFECE" height="77.9531" rx="5" ry="5" style="stroke:#FEFECE;stroke-width:1.5;" width="563" x="1721" y="269.5"/><text fill="#000000" font-family="sans-serif" font-size="14" lengthAdjust="spacing" textLength="33" x="1726" y="285.0352">label</text><text fill="#000000" font-family="sans-serif" font-size="14" lengthAdjust="spacing" textLength="115" x="1813" y="285.0352">Application Type</text><line style="stroke:#A80036;stroke-width:1.0;" x1="1808" x2="1808" y1="269.5" y2="289.9883"/><line style="stroke:#A80036;stroke-width:1.0;" x1="1721" x2="2284" y1="289.9883" y2="289.9883"/><text fill="#000000" font-family="sans-serif" font-size="14" lengthAdjust="spacing" textLength="77" x="1726" y="305.5234">description</text><text fill="#000000" font-family="sans-serif" font-size="14" lengthAdjust="spacing" textLength="466" x="1813" y="305.5234">The application type of the sensor or actuator as a string depending</text><text fill="#000000" font-family="sans-serif" font-size="14" lengthAdjust="spacing" textLength="110" x="1813" y="322.0117">on the use case.</text><line style="stroke:#A80036;stroke-width:1.0;" x1="1808" x2="1808" y1="289.9883" y2="326.9648"/><line style="stroke:#A80036;stroke-width:1.0;" x1="1721" x2="2284" y1="326.9648" y2="326.9648"/><text fill="#000000" font-family="sans-serif" font-size="14" lengthAdjust="spacing" textLength="29" x="1726" y="342.5">type</text><text fill="#000000" font-family="sans-serif" font-size="14" lengthAdjust="spacing" textLength="40" x="1813" y="342.5">string</text><line style="stroke:#A80036;stroke-width:1.0;" x1="1808" x2="1808" y1="326.9648" y2="347.4531"/><rect fill="none" height="77.9531" rx="5" ry="5" style="stroke:#A80036;stroke-width:1.5;" width="563" x="1721" y="269.5"/><rect fill="#FEFECE" height="102.4414" rx="5" ry="5" style="stroke:#FEFECE;stroke-width:1.5;" width="493" x="1756" y="365.5"/><text fill="#000000" font-family="sans-serif" font-size="14" lengthAdjust="spacing" textLength="33" x="1761" y="381.0352">label</text><text fill="#000000" font-family="sans-serif" font-size="14" lengthAdjust="spacing" textLength="76" x="1848" y="381.0352">Timestamp</text><line style="stroke:#A80036;stroke-width:1.0;" x1="1843" x2="1843" y1="365.5" y2="385.9883"/><line style="stroke:#A80036;stroke-width:1.0;" x1="1756" x2="2249" y1="385.9883" y2="385.9883"/><text fill="#000000" font-family="sans-serif" font-size="14" lengthAdjust="spacing" textLength="77" x="1761" y="401.5234">description</text><text fill="#000000" font-family="sans-serif" font-size="14" lengthAdjust="spacing" textLength="396" x="1848" y="401.5234">The timestamp of when the measurement was performed.</text><line style="stroke:#A80036;stroke-width:1.0;" x1="1843" x2="1843" y1="385.9883" y2="406.4766"/><line style="stroke:#A80036;stroke-width:1.0;" x1="1756" x2="2249" y1="406.4766" y2="406.4766"/><text fill="#000000" font-family="sans-serif" font-size="14" lengthAdjust="spacing" textLength="55" x="1761" y="422.0117">writable</text><text fill="#000000" font-family="sans-serif" font-size="14" lengthAdjust="spacing" textLength="48" x="1848" y="422.0117">☐ false</text><line style="stroke:#A80036;stroke-width:1.0;" x1="1843" x2="1843" y1="406.4766" y2="426.9648"/><line style="stroke:#A80036;stroke-width:1.0;" x1="1756" x2="2249" y1="426.9648" y2="426.9648"/><text fill="#000000" font-family="sans-serif" font-size="14" lengthAdjust="spacing" textLength="29" x="1761" y="442.5">type</text><text fill="#000000" font-family="sans-serif" font-size="14" lengthAdjust="spacing" textLength="54" x="1848" y="442.5">number</text><line style="stroke:#A80036;stroke-width:1.0;" x1="1843" x2="1843" y1="426.9648" y2="447.4531"/><line style="stroke:#A80036;stroke-width:1.0;" x1="1756" x2="2249" y1="447.4531" y2="447.4531"/><text fill="#000000" font-family="sans-serif" font-size="14" lengthAdjust="spacing" textLength="54" x="1761" y="462.9883">sdfType</text><text fill="#000000" font-family="sans-serif" font-size="14" lengthAdjust="spacing" textLength="69" x="1848" y="462.9883">unix-time</text><line style="stroke:#A80036;stroke-width:1.0;" x1="1843" x2="1843" y1="447.4531" y2="467.9414"/><rect fill="none" height="102.4414" rx="5" ry="5" style="stroke:#A80036;stroke-width:1.5;" width="493" x="1756" y="365.5"/><rect fill="#FEFECE" height="159.9063" rx="5" ry="5" style="stroke:#FEFECE;stroke-width:1.5;" width="563" x="1721" y="485.5"/><text fill="#000000" font-family="sans-serif" font-size="14" lengthAdjust="spacing" textLength="33" x="1726" y="501.0352">label</text><text fill="#000000" font-family="sans-serif" font-size="14" lengthAdjust="spacing" textLength="148" x="1813" y="501.0352">Fractional Timestamp</text><line style="stroke:#A80036;stroke-width:1.0;" x1="1808" x2="1808" y1="485.5" y2="505.9883"/><line style="stroke:#A80036;stroke-width:1.0;" x1="1721" x2="2284" y1="505.9883" y2="505.9883"/><text fill="#000000" font-family="sans-serif" font-size="14" lengthAdjust="spacing" textLength="77" x="1726" y="521.5234">description</text><text fill="#000000" font-family="sans-serif" font-size="14" lengthAdjust="spacing" textLength="466" x="1813" y="521.5234">Fractional part of the timestamp when sub-second precision is used</text><text fill="#000000" font-family="sans-serif" font-size="14" lengthAdjust="spacing" textLength="157" x="1813" y="538.0117">(e.g., 0.23 for 230 ms).</text><line style="stroke:#A80036;stroke-width:1.0;" x1="1808" x2="1808" y1="505.9883" y2="542.9648"/><line style="stroke:#A80036;stroke-width:1.0;" x1="1721" x2="2284" y1="542.9648" y2="542.9648"/><text fill="#000000" font-family="sans-serif" font-size="14" lengthAdjust="spacing" textLength="55" x="1726" y="558.5">writable</text><text fill="#000000" font-family="sans-serif" font-size="14" lengthAdjust="spacing" textLength="48" x="1813" y="558.5">☐ false</text><line style="stroke:#A80036;stroke-width:1.0;" x1="1808" x2="1808" y1="542.9648" y2="563.4531"/><line style="stroke:#A80036;stroke-width:1.0;" x1="1721" x2="2284" y1="563.4531" y2="563.4531"/><text fill="#000000" font-family="sans-serif" font-size="14" lengthAdjust="spacing" textLength="29" x="1726" y="578.9883">type</text><text fill="#000000" font-family="sans-serif" font-size="14" lengthAdjust="spacing" textLength="54" x="1813" y="578.9883">number</text><line style="stroke:#A80036;stroke-width:1.0;" x1="1808" x2="1808" y1="563.4531" y2="583.9414"/><line style="stroke:#A80036;stroke-width:1.0;" x1="1721" x2="2284" y1="583.9414" y2="583.9414"/><text fill="#000000" font-family="sans-serif" font-size="14" lengthAdjust="spacing" textLength="27" x="1726" y="599.4766">unit</text><text fill="#000000" font-family="sans-serif" font-size="14" lengthAdjust="spacing" textLength="7" x="1813" y="599.4766">s</text><line style="stroke:#A80036;stroke-width:1.0;" x1="1808" x2="1808" y1="583.9414" y2="604.4297"/><line style="stroke:#A80036;stroke-width:1.0;" x1="1721" x2="2284" y1="604.4297" y2="604.4297"/><text fill="#000000" font-family="sans-serif" font-size="14" lengthAdjust="spacing" textLength="65" x="1726" y="619.9648">minimum</text><text fill="#000000" font-family="sans-serif" font-size="14" lengthAdjust="spacing" textLength="9" x="1813" y="619.9648">0</text><line style="stroke:#A80036;stroke-width:1.0;" x1="1808" x2="1808" y1="604.4297" y2="624.918"/><line style="stroke:#A80036;stroke-width:1.0;" x1="1721" x2="2284" y1="624.918" y2="624.918"/><text fill="#000000" font-family="sans-serif" font-size="14" lengthAdjust="spacing" textLength="69" x="1726" y="640.4531">maximum</text><text fill="#000000" font-family="sans-serif" font-size="14" lengthAdjust="spacing" textLength="9" x="1813" y="640.4531">1</text><line style="stroke:#A80036;stroke-width:1.0;" x1="1808" x2="1808" y1="624.918" y2="645.4063"/><rect fill="none" height="159.9063" rx="5" ry="5" style="stroke:#A80036;stroke-width:1.5;" width="563" x="1721" y="485.5"/><rect fill="#FEFECE" height="15" rx="5" ry="5" style="stroke:#FEFECE;stroke-width:1.5;" width="30" x="1491" y="344.5"/><rect fill="none" height="15" rx="5" ry="5" style="stroke:#A80036;stroke-width:1.5;" width="30" x="1491" y="344.5"/><rect fill="#FEFECE" height="20.4883" rx="5" ry="5" style="stroke:#FEFECE;stroke-width:1.5;" width="362" x="1322" y="378.5"/><text fill="#000000" font-family="sans-serif" font-size="14" lengthAdjust="spacing" textLength="352" x="1327" y="394.0352">#/sdfObject/Set_Point/sdfProperty/Set_Point_Value</text><rect fill="none" height="20.4883" rx="5" ry="5" style="stroke:#A80036;stroke-width:1.5;" width="362" x="1322" y="378.5"/><path d="M95,280.5 L108,280.5 C117.3406,280.5 126.8353,280.3896 136.4202,280.1839 " fill="none" style="stroke:#A80036;stroke-width:1.0;stroke-dasharray:3.0,3.0;"/><path d="M136.4943,283.2659 L138.7318,280.1283 L136.3462,277.1019 L144.1253,279.9987 L136.4943,283.2659 " fill="#A80036" style="stroke:#A80036;stroke-width:1.0;"/><ellipse cx="95" cy="280.5" fill="#A80036" rx="3" ry="3" style="stroke:#A80036;stroke-width:1.0;stroke-dasharray:3.0,3.0;"/><path d="M1583.5,212.5 L1596.5,212.5 C1677.1446,212.5 1649.3948,117.5979 1721,80.5 C1770.0001,55.1136 1829.9057,44.2835 1881.7976,40.1324 " fill="none" style="stroke:#A80036;stroke-width:1.0;stroke-dasharray:3.0,3.0;"/><path d="M1882.0236,43.1707 L1884.0764,39.9629 L1881.5717,37.0941 L1889.3934,39.5675 L1882.0236,43.1707 " fill="#A80036" style="stroke:#A80036;stroke-width:1.0;"/><ellipse cx="1583.5" cy="212.5" fill="#A80036" rx="3" ry="3" style="stroke:#A80036;stroke-width:1.0;stroke-dasharray:3.0,3.0;"/><path d="M1583.5,233.5 L1596.5,233.5 C1656.6385,233.5 1663.3603,197.6552 1721,180.5 C1760.0089,168.8898 1802.9134,159.5827 1843.1977,152.2959 " fill="none" style="stroke:#A80036;stroke-width:1.0;stroke-dasharray:3.0,3.0;"/><path d="M1843.7326,155.2919 L1845.4447,151.8947 L1842.6629,149.2999 L1850.6877,150.9587 L1843.7326,155.2919 " fill="#A80036" style="stroke:#A80036;stroke-width:1.0;"/><ellipse cx="1583.5" cy="233.5" fill="#A80036" rx="3" ry="3" style="stroke:#A80036;stroke-width:1.0;stroke-dasharray:3.0,3.0;"/><path d="M1583.5,253.5 L1596.5,253.5 C1654.6335,253.5 1717.3009,250.089 1775.578,245.4603 " fill="none" style="stroke:#A80036;stroke-width:1.0;stroke-dasharray:3.0,3.0;"/><path d="M1775.8303,248.5892 L1777.9247,245.2711 L1775.3258,242.3314 L1783.4003,244.8296 L1775.8303,248.5892 " fill="#A80036" style="stroke:#A80036;stroke-width:1.0;"/><ellipse cx="1583.5" cy="253.5" fill="#A80036" rx="3" ry="3" style="stroke:#A80036;stroke-width:1.0;stroke-dasharray:3.0,3.0;"/><path d="M1583.5,274.5 L1596.5,274.5 C1634.4172,274.5 1674.2593,275.9945 1713.5524,278.3568 " fill="none" style="stroke:#A80036;stroke-width:1.0;stroke-dasharray:3.0,3.0;"/><path d="M1713.3589,281.497 L1715.9076,278.502 L1713.7459,275.2166 L1721.403,278.8407 L1713.3589,281.497 " fill="#A80036" style="stroke:#A80036;stroke-width:1.0;"/><ellipse cx="1583.5" cy="274.5" fill="#A80036" rx="3" ry="3" style="stroke:#A80036;stroke-width:1.0;stroke-dasharray:3.0,3.0;"/><path d="M1583.5,295.5 L1596.5,295.5 C1639.6643,295.5 1646.6397,315.7099 1685,335.5 C1701.4617,343.9926 1703.725,349.8152 1721,356.5 C1730.0828,360.0147 1739.4146,363.3424 1748.9045,366.4909 " fill="none" style="stroke:#A80036;stroke-width:1.0;stroke-dasharray:3.0,3.0;"/><path d="M1747.9553,369.4055 L1751.0904,367.2028 L1749.8537,363.5764 L1756.1909,368.8639 L1747.9553,369.4055 " fill="#A80036" style="stroke:#A80036;stroke-width:1.0;"/><ellipse cx="1583.5" cy="295.5" fill="#A80036" rx="3" ry="3" style="stroke:#A80036;stroke-width:1.0;stroke-dasharray:3.0,3.0;"/><path d="M1583.5,315.5 L1596.5,315.5 C1636.8252,315.5 1656.0933,307.3837 1685,335.5 C1731.3631,380.5952 1676.5824,429.4873 1721,476.5 C1722.1779,477.7467 1723.373,478.976 1724.5849,480.1881 " fill="none" style="stroke:#A80036;stroke-width:1.0;stroke-dasharray:3.0,3.0;"/><path d="M1722.5026,482.3554 L1726.2104,481.7498 L1726.6672,478.0208 L1730.0032,485.3938 L1722.5026,482.3554 " fill="#A80036" style="stroke:#A80036;stroke-width:1.0;"/><ellipse cx="1583.5" cy="315.5" fill="#A80036" rx="3" ry="3" style="stroke:#A80036;stroke-width:1.0;stroke-dasharray:3.0,3.0;"/><path d="M1273,325.5 L1286,325.5 C1325.7214,325.5 1368.0577,315.8694 1404.6598,304.2615 " fill="none" style="stroke:#A80036;stroke-width:1.0;stroke-dasharray:3.0,3.0;"/><path d="M1405.5981,307.1581 L1406.8323,303.5578 L1403.7215,301.3649 L1411.9013,301.9158 L1405.5981,307.1581 " fill="#A80036" style="stroke:#A80036;stroke-width:1.0;"/><ellipse cx="1273" cy="325.5" fill="#A80036" rx="3" ry="3" style="stroke:#A80036;stroke-width:1.0;stroke-dasharray:3.0,3.0;"/><path d="M1273,352.5 L1286,352.5 C1359.0329,352.5 1445.9239,352.5 1483.5631,352.5 " fill="none" style="stroke:#A80036;stroke-width:1.0;stroke-dasharray:3.0,3.0;"/><path d="M1483.5631,355.567 L1485.8634,352.5 L1483.5631,349.433 L1491.2307,352.5 L1483.5631,355.567 " fill="#A80036" style="stroke:#A80036;stroke-width:1.0;"/><ellipse cx="1273" cy="352.5" fill="#A80036" rx="3" ry="3" style="stroke:#A80036;stroke-width:1.0;stroke-dasharray:3.0,3.0;"/><path d="M1273,379.5 L1286,379.5 C1295.3504,379.5 1304.9261,379.5848 1314.5951,379.738 " fill="none" style="stroke:#A80036;stroke-width:1.0;stroke-dasharray:3.0,3.0;"/><path d="M1314.5402,382.8468 L1316.9266,379.7792 L1314.6499,376.6293 L1322.3669,379.8753 L1314.5402,382.8468 " fill="#A80036" style="stroke:#A80036;stroke-width:1.0;"/><ellipse cx="1273" cy="379.5" fill="#A80036" rx="3" ry="3" style="stroke:#A80036;stroke-width:1.0;stroke-dasharray:3.0,3.0;"/><path d="M454,325.5 L467,325.5 C549.2668,325.5 638.5965,325.5 720.4361,325.5 " fill="none" style="stroke:#A80036;stroke-width:1.0;stroke-dasharray:3.0,3.0;"/><path d="M720.4361,328.6584 L722.8049,325.5 L720.4361,322.3416 L728.3322,325.5 L720.4361,328.6584 " fill="#A80036" style="stroke:#A80036;stroke-width:1.0;"/><ellipse cx="454" cy="325.5" fill="#A80036" rx="3" ry="3" style="stroke:#A80036;stroke-width:1.0;stroke-dasharray:3.0,3.0;"/><path d="M95,301.5 L108,301.5 C124.1536,301.5 127.9333,304.8271 144,306.5 C219.5965,314.3711 307.3199,319.8244 362.493,322.808 " fill="none" style="stroke:#A80036;stroke-width:1.0;stroke-dasharray:3.0,3.0;"/><path d="M362.3311,325.8338 L364.7623,322.9294 L362.6548,319.7822 L370.0575,323.2126 L362.3311,325.8338 " fill="#A80036" style="stroke:#A80036;stroke-width:1.0;"/><ellipse cx="95" cy="301.5" fill="#A80036" rx="3" ry="3" style="stroke:#A80036;stroke-width:1.0;stroke-dasharray:3.0,3.0;"/><!--MD5=[45b1b60b3dfa209fbb315a3f68e89fd4]
@startjson
{
  "info": {
    "title": "OMA LwM2M Set Point (Object ID 3308)",
    "version": "2021-02-11",
    "copyright": "Copyright (c) 2018-2020 IPSO",
    "license": "https://github.com/one-data-model/oneDM/blob/master/LICENSE"
  },
  "sdfObject": {
    "Set_Point": {
      "label": "Set Point",
      "description": "This IPSO object should be used to set a desired value to a\\ncontroller, such as a thermostat. A special resource is added to set\\nthe colour of an object.",
      "sdfProperty": {
        "Set_Point_Value": {
          "label": "Set Point Value",
          "description": "The setpoint value.",
          "type": "number"
        },
        "Sensor_Units": {
          "label": "Sensor Units",
          "description": "Measurement Units Definition.",
          "writable": false,
          "type": "string"
        },
        "Colour": {
          "label": "Colour",
          "description": "A string representing a value in some color space.",
          "type": "string"
        },
        "Application_Type": {
          "label": "Application Type",
          "description": "The application type of the sensor or actuator as a string depending\\non the use case.",
          "type": "string"
        },
        "Timestamp": {
          "label": "Timestamp",
          "description": "The timestamp of when the measurement was performed.",
          "writable": false,
          "type": "number",
          "sdfType": "unix-time"
        },
        "Fractional_Timestamp": {
          "label": "Fractional Timestamp",
          "description": "Fractional part of the timestamp when sub-second precision is used\\n(e.g., 0.23 for 230 ms).",
          "writable": false,
          "type": "number",
          "unit": "s",
          "minimum": 0,
          "maximum": 1
        }
      },
      "sdfAction": {},
      "sdfRequired": [
        "#/sdfObject/Set_Point/sdfProperty/Set_Point_Value"
      ]
    }
  }
}
@endjson

PlantUML version 1.2021.2(Sun Mar 07 13:10:27 EET 2021)
(GPL source distribution)
Java Runtime: OpenJDK Runtime Environment
JVM: OpenJDK 64-Bit Server VM
Default Encoding: UTF-8
Language: en
Country: FI
--></g></svg>