<?xml version="1.0" encoding="UTF-8" standalone="no"?><svg xmlns="http://www.w3.org/2000/svg" xmlns:xlink="http://www.w3.org/1999/xlink" contentScriptType="application/ecmascript" contentStyleType="text/css" height="200px" preserveAspectRatio="none" style="width:2282px;height:200px;" version="1.1" viewBox="0 0 2282 200" width="2282px" zoomAndPan="magnify"><defs/><g><rect fill="#FEFECE" height="40.9766" rx="5" ry="5" style="stroke:#FEFECE;stroke-width:1.5;" width="97" x="10" y="65.5"/><text fill="#000000" font-family="sans-serif" font-size="14" lengthAdjust="spacing" textLength="27" x="15" y="81.0352">info</text><text fill="#000000" font-family="sans-serif" font-size="14" lengthAdjust="spacing" textLength="0" x="102" y="81.0352"/><line style="stroke:#A80036;stroke-width:1.0;" x1="85" x2="85" y1="65.5" y2="85.9883"/><line style="stroke:#A80036;stroke-width:1.0;" x1="10" x2="107" y1="85.9883" y2="85.9883"/><text fill="#000000" font-family="sans-serif" font-size="14" lengthAdjust="spacing" textLength="65" x="15" y="101.5234">sdfObject</text><text fill="#000000" font-family="sans-serif" font-size="14" lengthAdjust="spacing" textLength="0" x="102" y="101.5234"/><line style="stroke:#A80036;stroke-width:1.0;" x1="85" x2="85" y1="85.9883" y2="106.4766"/><rect fill="none" height="40.9766" rx="5" ry="5" style="stroke:#A80036;stroke-width:1.5;" width="97" x="10" y="65.5"/><rect fill="#FEFECE" height="81.9531" rx="5" ry="5" style="stroke:#FEFECE;stroke-width:1.5;" width="655" x="144" y="10"/><text fill="#000000" font-family="sans-serif" font-size="14" lengthAdjust="spacing" textLength="65" x="149" y="25.5352">copyright</text><text fill="#000000" font-family="sans-serif" font-size="14" lengthAdjust="spacing" textLength="570" x="224" y="25.5352">copyright 2016-2017, 2019 Open Connectivity Foundation, Inc. All rights reserved.</text><line style="stroke:#A80036;stroke-width:1.0;" x1="219" x2="219" y1="10" y2="30.4883"/><line style="stroke:#A80036;stroke-width:1.0;" x1="144" x2="799" y1="30.4883" y2="30.4883"/><text fill="#000000" font-family="sans-serif" font-size="14" lengthAdjust="spacing" textLength="47" x="149" y="46.0234">license</text><text fill="#000000" font-family="sans-serif" font-size="14" lengthAdjust="spacing" textLength="462" x="224" y="46.0234">https://github.com/one-data-model/oneDM/blob/master/LICENSE</text><line style="stroke:#A80036;stroke-width:1.0;" x1="219" x2="219" y1="30.4883" y2="50.9766"/><line style="stroke:#A80036;stroke-width:1.0;" x1="144" x2="799" y1="50.9766" y2="50.9766"/><text fill="#000000" font-family="sans-serif" font-size="14" lengthAdjust="spacing" textLength="26" x="149" y="66.5117">title</text><text fill="#000000" font-family="sans-serif" font-size="14" lengthAdjust="spacing" textLength="105" x="224" y="66.5117">Signal Strength</text><line style="stroke:#A80036;stroke-width:1.0;" x1="219" x2="219" y1="50.9766" y2="71.4648"/><line style="stroke:#A80036;stroke-width:1.0;" x1="144" x2="799" y1="71.4648" y2="71.4648"/><text fill="#000000" font-family="sans-serif" font-size="14" lengthAdjust="spacing" textLength="50" x="149" y="87">version</text><text fill="#000000" font-family="sans-serif" font-size="14" lengthAdjust="spacing" textLength="88" x="224" y="87">2019-02-15</text><line style="stroke:#A80036;stroke-width:1.0;" x1="219" x2="219" y1="71.4648" y2="91.9531"/><rect fill="none" height="81.9531" rx="5" ry="5" style="stroke:#A80036;stroke-width:1.5;" width="655" x="144" y="10"/><rect fill="#FEFECE" height="20.4883" rx="5" ry="5" style="stroke:#FEFECE;stroke-width:1.5;" width="131" x="406" y="110"/><text fill="#000000" font-family="sans-serif" font-size="14" lengthAdjust="spacing" textLength="99" x="411" y="125.5352">signalstrength</text><text fill="#000000" font-family="sans-serif" font-size="14" lengthAdjust="spacing" textLength="0" x="532" y="125.5352"/><line style="stroke:#A80036;stroke-width:1.0;" x1="515" x2="515" y1="110" y2="130.4883"/><rect fill="none" height="20.4883" rx="5" ry="5" style="stroke:#A80036;stroke-width:1.5;" width="131" x="406" y="110"/><rect fill="#FEFECE" height="110.9297" rx="5" ry="5" style="stroke:#FEFECE;stroke-width:1.5;" width="569" x="836" y="64.5"/><text fill="#000000" font-family="sans-serif" font-size="14" lengthAdjust="spacing" textLength="77" x="841" y="80.0352">description</text><text fill="#000000" font-family="sans-serif" font-size="14" lengthAdjust="spacing" textLength="466" x="934" y="80.0352">This Resource describes the strength of a signal by means of lqi and</text><text fill="#000000" font-family="sans-serif" font-size="14" lengthAdjust="spacing" textLength="441" x="934" y="96.5234">rssi. The Property "lqi" is a floating point number that represents</text><text fill="#000000" font-family="sans-serif" font-size="14" lengthAdjust="spacing" textLength="403" x="934" y="113.0117">Link Quality Indicator. The Property "rssi" is a floating point</text><text fill="#000000" font-family="sans-serif" font-size="14" lengthAdjust="spacing" textLength="425" x="934" y="129.5">number that represents the received signal strength indicator.</text><line style="stroke:#A80036;stroke-width:1.0;" x1="929" x2="929" y1="64.5" y2="134.4531"/><line style="stroke:#A80036;stroke-width:1.0;" x1="836" x2="1405" y1="134.4531" y2="134.4531"/><text fill="#000000" font-family="sans-serif" font-size="14" lengthAdjust="spacing" textLength="79" x="841" y="149.9883">sdfProperty</text><text fill="#000000" font-family="sans-serif" font-size="14" lengthAdjust="spacing" textLength="0" x="946" y="149.9883"/><line style="stroke:#A80036;stroke-width:1.0;" x1="929" x2="929" y1="134.4531" y2="154.9414"/><line style="stroke:#A80036;stroke-width:1.0;" x1="836" x2="1405" y1="154.9414" y2="154.9414"/><text fill="#000000" font-family="sans-serif" font-size="14" lengthAdjust="spacing" textLength="83" x="841" y="170.4766">sdfRequired</text><text fill="#000000" font-family="sans-serif" font-size="14" lengthAdjust="spacing" textLength="0" x="946" y="170.4766"/><line style="stroke:#A80036;stroke-width:1.0;" x1="929" x2="929" y1="154.9414" y2="175.4297"/><rect fill="none" height="110.9297" rx="5" ry="5" style="stroke:#A80036;stroke-width:1.5;" width="569" x="836" y="64.5"/><rect fill="#FEFECE" height="40.9766" rx="5" ry="5" style="stroke:#FEFECE;stroke-width:1.5;" width="56" x="1571" y="88.5"/><text fill="#000000" font-family="sans-serif" font-size="14" lengthAdjust="spacing" textLength="17" x="1576" y="104.0352">lqi</text><text fill="#000000" font-family="sans-serif" font-size="14" lengthAdjust="spacing" textLength="0" x="1622" y="104.0352"/><line style="stroke:#A80036;stroke-width:1.0;" x1="1605" x2="1605" y1="88.5" y2="108.9883"/><line style="stroke:#A80036;stroke-width:1.0;" x1="1571" x2="1627" y1="108.9883" y2="108.9883"/><text fill="#000000" font-family="sans-serif" font-size="14" lengthAdjust="spacing" textLength="24" x="1576" y="124.5234">rssi</text><text fill="#000000" font-family="sans-serif" font-size="14" lengthAdjust="spacing" textLength="0" x="1622" y="124.5234"/><line style="stroke:#A80036;stroke-width:1.0;" x1="1605" x2="1605" y1="108.9883" y2="129.4766"/><rect fill="none" height="40.9766" rx="5" ry="5" style="stroke:#A80036;stroke-width:1.5;" width="56" x="1571" y="88.5"/><rect fill="#FEFECE" height="61.4648" rx="5" ry="5" style="stroke:#FEFECE;stroke-width:1.5;" width="388" x="1837.5" y="38.5"/><text fill="#000000" font-family="sans-serif" font-size="14" lengthAdjust="spacing" textLength="77" x="1842.5" y="54.0352">description</text><text fill="#000000" font-family="sans-serif" font-size="14" lengthAdjust="spacing" textLength="291" x="1929.5" y="54.0352">The current value of Link Quality Indicator.</text><line style="stroke:#A80036;stroke-width:1.0;" x1="1924.5" x2="1924.5" y1="38.5" y2="58.9883"/><line style="stroke:#A80036;stroke-width:1.0;" x1="1837.5" x2="2225.5" y1="58.9883" y2="58.9883"/><text fill="#000000" font-family="sans-serif" font-size="14" lengthAdjust="spacing" textLength="55" x="1842.5" y="74.5234">writable</text><text fill="#000000" font-family="sans-serif" font-size="14" lengthAdjust="spacing" textLength="48" x="1929.5" y="74.5234">☐ false</text><line style="stroke:#A80036;stroke-width:1.0;" x1="1924.5" x2="1924.5" y1="58.9883" y2="79.4766"/><line style="stroke:#A80036;stroke-width:1.0;" x1="1837.5" x2="2225.5" y1="79.4766" y2="79.4766"/><text fill="#000000" font-family="sans-serif" font-size="14" lengthAdjust="spacing" textLength="29" x="1842.5" y="95.0117">type</text><text fill="#000000" font-family="sans-serif" font-size="14" lengthAdjust="spacing" textLength="54" x="1929.5" y="95.0117">number</text><line style="stroke:#A80036;stroke-width:1.0;" x1="1924.5" x2="1924.5" y1="79.4766" y2="99.9648"/><rect fill="none" height="61.4648" rx="5" ry="5" style="stroke:#A80036;stroke-width:1.5;" width="388" x="1837.5" y="38.5"/><rect fill="#FEFECE" height="61.4648" rx="5" ry="5" style="stroke:#FEFECE;stroke-width:1.5;" width="477" x="1793" y="117.5"/><text fill="#000000" font-family="sans-serif" font-size="14" lengthAdjust="spacing" textLength="77" x="1798" y="133.0352">description</text><text fill="#000000" font-family="sans-serif" font-size="14" lengthAdjust="spacing" textLength="380" x="1885" y="133.0352">The current value of Received Signal Strength Indicator.</text><line style="stroke:#A80036;stroke-width:1.0;" x1="1880" x2="1880" y1="117.5" y2="137.9883"/><line style="stroke:#A80036;stroke-width:1.0;" x1="1793" x2="2270" y1="137.9883" y2="137.9883"/><text fill="#000000" font-family="sans-serif" font-size="14" lengthAdjust="spacing" textLength="55" x="1798" y="153.5234">writable</text><text fill="#000000" font-family="sans-serif" font-size="14" lengthAdjust="spacing" textLength="48" x="1885" y="153.5234">☐ false</text><line style="stroke:#A80036;stroke-width:1.0;" x1="1880" x2="1880" y1="137.9883" y2="158.4766"/><line style="stroke:#A80036;stroke-width:1.0;" x1="1793" x2="2270" y1="158.4766" y2="158.4766"/><text fill="#000000" font-family="sans-serif" font-size="14" lengthAdjust="spacing" textLength="29" x="1798" y="174.0117">type</text><text fill="#000000" font-family="sans-serif" font-size="14" lengthAdjust="spacing" textLength="54" x="1885" y="174.0117">number</text><line style="stroke:#A80036;stroke-width:1.0;" x1="1880" x2="1880" y1="158.4766" y2="178.9648"/><rect fill="none" height="61.4648" rx="5" ry="5" style="stroke:#A80036;stroke-width:1.5;" width="477" x="1793" y="117.5"/><rect fill="#FEFECE" height="40.9766" rx="5" ry="5" style="stroke:#FEFECE;stroke-width:1.5;" width="314" x="1442" y="147.5"/><text fill="#000000" font-family="sans-serif" font-size="14" lengthAdjust="spacing" textLength="297" x="1447" y="163.0352">#/sdfObject/signalstrength/sdfProperty/lqi</text><line style="stroke:#A80036;stroke-width:1.0;" x1="1442" x2="1756" y1="167.9883" y2="167.9883"/><text fill="#000000" font-family="sans-serif" font-size="14" lengthAdjust="spacing" textLength="304" x="1447" y="183.5234">#/sdfObject/signalstrength/sdfProperty/rssi</text><rect fill="none" height="40.9766" rx="5" ry="5" style="stroke:#A80036;stroke-width:1.5;" width="314" x="1442" y="147.5"/><path d="M95,75 L108,75 C117.3442,75 126.8208,74.9198 136.3833,74.7688 " fill="none" style="stroke:#A80036;stroke-width:1.0;stroke-dasharray:3.0,3.0;"/><path d="M136.4378,77.8434 L138.6892,74.7279 L136.3288,71.6942 L144.0697,74.6326 L136.4378,77.8434 " fill="#A80036" style="stroke:#A80036;stroke-width:1.0;"/><ellipse cx="95" cy="75" fill="#A80036" rx="3" ry="3" style="stroke:#A80036;stroke-width:1.0;stroke-dasharray:3.0,3.0;"/><path d="M1615.5,98 L1628.5,98 C1694.224,98 1765.829,94.1057 1830.179,89.1712 " fill="none" style="stroke:#A80036;stroke-width:1.0;stroke-dasharray:3.0,3.0;"/><path d="M1830.4217,92.2955 L1832.5222,88.9892 L1829.9363,86.0469 L1837.9897,88.5645 L1830.4217,92.2955 " fill="#A80036" style="stroke:#A80036;stroke-width:1.0;"/><ellipse cx="1615.5" cy="98" fill="#A80036" rx="3" ry="3" style="stroke:#A80036;stroke-width:1.0;stroke-dasharray:3.0,3.0;"/><path d="M1615.5,119 L1628.5,119 C1679.4164,119 1733.8623,121.3372 1785.7303,124.6846 " fill="none" style="stroke:#A80036;stroke-width:1.0;stroke-dasharray:3.0,3.0;"/><path d="M1785.5299,127.7379 L1788.0202,124.8349 L1785.9307,121.6313 L1793.3635,125.1857 L1785.5299,127.7379 " fill="#A80036" style="stroke:#A80036;stroke-width:1.0;"/><ellipse cx="1615.5" cy="119" fill="#A80036" rx="3" ry="3" style="stroke:#A80036;stroke-width:1.0;stroke-dasharray:3.0,3.0;"/><path d="M1393,120 L1406,120 C1461.1593,120 1525.0646,115.4426 1563.6038,112.1947 " fill="none" style="stroke:#A80036;stroke-width:1.0;stroke-dasharray:3.0,3.0;"/><path d="M1563.8722,115.3253 L1565.9517,111.9934 L1563.3353,109.0641 L1571.4303,111.5236 L1563.8722,115.3253 " fill="#A80036" style="stroke:#A80036;stroke-width:1.0;"/><ellipse cx="1393" cy="120" fill="#A80036" rx="3" ry="3" style="stroke:#A80036;stroke-width:1.0;stroke-dasharray:3.0,3.0;"/><path d="M1393,157 L1406,157 C1415.3108,157 1424.8708,157.1299 1434.5159,157.3613 " fill="none" style="stroke:#A80036;stroke-width:1.0;stroke-dasharray:3.0,3.0;"/><path d="M1434.4331,160.4615 L1436.841,157.4234 L1434.5987,154.2612 L1442.2662,157.5682 L1434.4331,160.4615 " fill="#A80036" style="stroke:#A80036;stroke-width:1.0;"/><ellipse cx="1393" cy="157" fill="#A80036" rx="3" ry="3" style="stroke:#A80036;stroke-width:1.0;stroke-dasharray:3.0,3.0;"/><path d="M526,120 L539,120 C633.2801,120 736.1659,120 828.8052,120 " fill="none" style="stroke:#A80036;stroke-width:1.0;stroke-dasharray:3.0,3.0;"/><path d="M828.8052,123.0014 L831.0562,120 L828.8052,116.9986 L836.3086,120 L828.8052,123.0014 " fill="#A80036" style="stroke:#A80036;stroke-width:1.0;"/><ellipse cx="526" cy="120" fill="#A80036" rx="3" ry="3" style="stroke:#A80036;stroke-width:1.0;stroke-dasharray:3.0,3.0;"/><path d="M95,96 L108,96 C124.1536,96 127.924,99.4191 144,101 C231.462,109.6008 332.4959,114.7415 398.8409,117.4653 " fill="none" style="stroke:#A80036;stroke-width:1.0;stroke-dasharray:3.0,3.0;"/><path d="M398.7192,120.4707 L401.0949,117.5566 L398.9626,114.46 L406.3543,117.7696 L398.7192,120.4707 " fill="#A80036" style="stroke:#A80036;stroke-width:1.0;"/><ellipse cx="95" cy="96" fill="#A80036" rx="3" ry="3" style="stroke:#A80036;stroke-width:1.0;stroke-dasharray:3.0,3.0;"/><!--MD5=[8eae4afe58837763028a40207dfdf6d8]
@startjson
{
  "info": {
    "copyright": "copyright 2016-2017, 2019 Open Connectivity Foundation, Inc. All rights reserved.",
    "license": "https://github.com/one-data-model/oneDM/blob/master/LICENSE",
    "title": "Signal Strength",
    "version": "2019-02-15"
  },
  "sdfObject": {
    "signalstrength": {
      "description": "This Resource describes the strength of a signal by means of lqi and\\nrssi. The Property \"lqi\" is a floating point number that represents\\nLink Quality Indicator. The Property \"rssi\" is a floating point\\nnumber that represents the received signal strength indicator.",
      "sdfProperty": {
        "lqi": {
          "description": "The current value of Link Quality Indicator.",
          "writable": false,
          "type": "number"
        },
        "rssi": {
          "description": "The current value of Received Signal Strength Indicator.",
          "writable": false,
          "type": "number"
        }
      },
      "sdfRequired": [
        "#/sdfObject/signalstrength/sdfProperty/lqi",
        "#/sdfObject/signalstrength/sdfProperty/rssi"
      ]
    }
  }
}
@endjson

PlantUML version 1.2021.2(Sun Mar 07 13:10:27 EET 2021)
(GPL source distribution)
Java Runtime: OpenJDK Runtime Environment
JVM: OpenJDK 64-Bit Server VM
Default Encoding: UTF-8
Language: en
Country: FI
--></g></svg>