<?xml version="1.0" encoding="UTF-8" standalone="no"?><svg xmlns="http://www.w3.org/2000/svg" xmlns:xlink="http://www.w3.org/1999/xlink" contentScriptType="application/ecmascript" contentStyleType="text/css" height="632px" preserveAspectRatio="none" style="width:2480px;height:632px;" version="1.1" viewBox="0 0 2480 632" width="2480px" zoomAndPan="magnify"><defs/><g><rect fill="#FEFECE" height="40.9766" rx="5" ry="5" style="stroke:#FEFECE;stroke-width:1.5;" width="97" x="10" y="262.5"/><text fill="#000000" font-family="sans-serif" font-size="14" lengthAdjust="spacing" textLength="27" x="15" y="278.0352">info</text><text fill="#000000" font-family="sans-serif" font-size="14" lengthAdjust="spacing" textLength="0" x="102" y="278.0352"/><line style="stroke:#A80036;stroke-width:1.0;" x1="85" x2="85" y1="262.5" y2="282.9883"/><line style="stroke:#A80036;stroke-width:1.0;" x1="10" x2="107" y1="282.9883" y2="282.9883"/><text fill="#000000" font-family="sans-serif" font-size="14" lengthAdjust="spacing" textLength="65" x="15" y="298.5234">sdfObject</text><text fill="#000000" font-family="sans-serif" font-size="14" lengthAdjust="spacing" textLength="0" x="102" y="298.5234"/><line style="stroke:#A80036;stroke-width:1.0;" x1="85" x2="85" y1="282.9883" y2="303.4766"/><rect fill="none" height="40.9766" rx="5" ry="5" style="stroke:#A80036;stroke-width:1.5;" width="97" x="10" y="262.5"/><rect fill="#FEFECE" height="81.9531" rx="5" ry="5" style="stroke:#FEFECE;stroke-width:1.5;" width="614" x="144" y="207"/><text fill="#000000" font-family="sans-serif" font-size="14" lengthAdjust="spacing" textLength="65" x="149" y="222.5352">copyright</text><text fill="#000000" font-family="sans-serif" font-size="14" lengthAdjust="spacing" textLength="529" x="224" y="222.5352">Copyright 2018-2019 Open Connectivity Foundation, Inc. All rights reserved.</text><line style="stroke:#A80036;stroke-width:1.0;" x1="219" x2="219" y1="207" y2="227.4883"/><line style="stroke:#A80036;stroke-width:1.0;" x1="144" x2="758" y1="227.4883" y2="227.4883"/><text fill="#000000" font-family="sans-serif" font-size="14" lengthAdjust="spacing" textLength="47" x="149" y="243.0234">license</text><text fill="#000000" font-family="sans-serif" font-size="14" lengthAdjust="spacing" textLength="462" x="224" y="243.0234">https://github.com/one-data-model/oneDM/blob/master/LICENSE</text><line style="stroke:#A80036;stroke-width:1.0;" x1="219" x2="219" y1="227.4883" y2="247.9766"/><line style="stroke:#A80036;stroke-width:1.0;" x1="144" x2="758" y1="247.9766" y2="247.9766"/><text fill="#000000" font-family="sans-serif" font-size="14" lengthAdjust="spacing" textLength="26" x="149" y="263.5117">title</text><text fill="#000000" font-family="sans-serif" font-size="14" lengthAdjust="spacing" textLength="302" x="224" y="263.5117">Sensor for Continuous Glucose Meter (CGM)</text><line style="stroke:#A80036;stroke-width:1.0;" x1="219" x2="219" y1="247.9766" y2="268.4648"/><line style="stroke:#A80036;stroke-width:1.0;" x1="144" x2="758" y1="268.4648" y2="268.4648"/><text fill="#000000" font-family="sans-serif" font-size="14" lengthAdjust="spacing" textLength="50" x="149" y="284">version</text><text fill="#000000" font-family="sans-serif" font-size="14" lengthAdjust="spacing" textLength="88" x="224" y="284">2019-03-04</text><line style="stroke:#A80036;stroke-width:1.0;" x1="219" x2="219" y1="268.4648" y2="288.9531"/><rect fill="none" height="81.9531" rx="5" ry="5" style="stroke:#A80036;stroke-width:1.5;" width="614" x="144" y="207"/><rect fill="#FEFECE" height="20.4883" rx="5" ry="5" style="stroke:#FEFECE;stroke-width:1.5;" width="111" x="395.5" y="307"/><text fill="#000000" font-family="sans-serif" font-size="14" lengthAdjust="spacing" textLength="79" x="400.5" y="322.5352">cgm.sensor</text><text fill="#000000" font-family="sans-serif" font-size="14" lengthAdjust="spacing" textLength="0" x="501.5" y="322.5352"/><line style="stroke:#A80036;stroke-width:1.0;" x1="484.5" x2="484.5" y1="307" y2="327.4883"/><rect fill="none" height="20.4883" rx="5" ry="5" style="stroke:#A80036;stroke-width:1.5;" width="111" x="395.5" y="307"/><rect fill="#FEFECE" height="77.9531" rx="5" ry="5" style="stroke:#FEFECE;stroke-width:1.5;" width="552" x="795" y="278"/><text fill="#000000" font-family="sans-serif" font-size="14" lengthAdjust="spacing" textLength="77" x="800" y="293.5352">description</text><text fill="#000000" font-family="sans-serif" font-size="14" lengthAdjust="spacing" textLength="449" x="893" y="293.5352">This Resource describes the Properties associated with Sensor for</text><text fill="#000000" font-family="sans-serif" font-size="14" lengthAdjust="spacing" textLength="231" x="893" y="310.0234">Continuous Glucose Meter (CGM).</text><line style="stroke:#A80036;stroke-width:1.0;" x1="888" x2="888" y1="278" y2="314.9766"/><line style="stroke:#A80036;stroke-width:1.0;" x1="795" x2="1347" y1="314.9766" y2="314.9766"/><text fill="#000000" font-family="sans-serif" font-size="14" lengthAdjust="spacing" textLength="79" x="800" y="330.5117">sdfProperty</text><text fill="#000000" font-family="sans-serif" font-size="14" lengthAdjust="spacing" textLength="0" x="905" y="330.5117"/><line style="stroke:#A80036;stroke-width:1.0;" x1="888" x2="888" y1="314.9766" y2="335.4648"/><line style="stroke:#A80036;stroke-width:1.0;" x1="795" x2="1347" y1="335.4648" y2="335.4648"/><text fill="#000000" font-family="sans-serif" font-size="14" lengthAdjust="spacing" textLength="83" x="800" y="351">sdfRequired</text><text fill="#000000" font-family="sans-serif" font-size="14" lengthAdjust="spacing" textLength="0" x="905" y="351"/><line style="stroke:#A80036;stroke-width:1.0;" x1="888" x2="888" y1="335.4648" y2="355.9531"/><rect fill="none" height="77.9531" rx="5" ry="5" style="stroke:#A80036;stroke-width:1.5;" width="552" x="795" y="278"/><rect fill="#FEFECE" height="102.4414" rx="5" ry="5" style="stroke:#FEFECE;stroke-width:1.5;" width="95" x="1502" y="234"/><text fill="#000000" font-family="sans-serif" font-size="14" lengthAdjust="spacing" textLength="61" x="1507" y="249.5352">starttime</text><text fill="#000000" font-family="sans-serif" font-size="14" lengthAdjust="spacing" textLength="0" x="1592" y="249.5352"/><line style="stroke:#A80036;stroke-width:1.0;" x1="1575" x2="1575" y1="234" y2="254.4883"/><line style="stroke:#A80036;stroke-width:1.0;" x1="1502" x2="1597" y1="254.4883" y2="254.4883"/><text fill="#000000" font-family="sans-serif" font-size="14" lengthAdjust="spacing" textLength="54" x="1507" y="270.0234">runtime</text><text fill="#000000" font-family="sans-serif" font-size="14" lengthAdjust="spacing" textLength="0" x="1592" y="270.0234"/><line style="stroke:#A80036;stroke-width:1.0;" x1="1575" x2="1575" y1="254.4883" y2="274.9766"/><line style="stroke:#A80036;stroke-width:1.0;" x1="1502" x2="1597" y1="274.9766" y2="274.9766"/><text fill="#000000" font-family="sans-serif" font-size="14" lengthAdjust="spacing" textLength="40" x="1507" y="290.5117">range</text><text fill="#000000" font-family="sans-serif" font-size="14" lengthAdjust="spacing" textLength="0" x="1592" y="290.5117"/><line style="stroke:#A80036;stroke-width:1.0;" x1="1575" x2="1575" y1="274.9766" y2="295.4648"/><line style="stroke:#A80036;stroke-width:1.0;" x1="1502" x2="1597" y1="295.4648" y2="295.4648"/><text fill="#000000" font-family="sans-serif" font-size="14" lengthAdjust="spacing" textLength="29" x="1507" y="311">step</text><text fill="#000000" font-family="sans-serif" font-size="14" lengthAdjust="spacing" textLength="0" x="1592" y="311"/><line style="stroke:#A80036;stroke-width:1.0;" x1="1575" x2="1575" y1="295.4648" y2="315.9531"/><line style="stroke:#A80036;stroke-width:1.0;" x1="1502" x2="1597" y1="315.9531" y2="315.9531"/><text fill="#000000" font-family="sans-serif" font-size="14" lengthAdjust="spacing" textLength="63" x="1507" y="331.4883">precision</text><text fill="#000000" font-family="sans-serif" font-size="14" lengthAdjust="spacing" textLength="0" x="1592" y="331.4883"/><line style="stroke:#A80036;stroke-width:1.0;" x1="1575" x2="1575" y1="315.9531" y2="336.4414"/><rect fill="none" height="102.4414" rx="5" ry="5" style="stroke:#A80036;stroke-width:1.5;" width="95" x="1502" y="234"/><rect fill="#FEFECE" height="77.9531" rx="5" ry="5" style="stroke:#FEFECE;stroke-width:1.5;" width="576" x="1752" y="10"/><text fill="#000000" font-family="sans-serif" font-size="14" lengthAdjust="spacing" textLength="77" x="1757" y="25.5352">description</text><text fill="#000000" font-family="sans-serif" font-size="14" lengthAdjust="spacing" textLength="479" x="1844" y="25.5352">This Property describes the Sensor start time using ISO 8601 datetime</text><text fill="#000000" font-family="sans-serif" font-size="14" lengthAdjust="spacing" textLength="430" x="1844" y="42.0234">format (e.g: 2007-04-05T14:30Z, 2007-04-05T14:30+09:00)</text><line style="stroke:#A80036;stroke-width:1.0;" x1="1839" x2="1839" y1="10" y2="46.9766"/><line style="stroke:#A80036;stroke-width:1.0;" x1="1752" x2="2328" y1="46.9766" y2="46.9766"/><text fill="#000000" font-family="sans-serif" font-size="14" lengthAdjust="spacing" textLength="29" x="1757" y="62.5117">type</text><text fill="#000000" font-family="sans-serif" font-size="14" lengthAdjust="spacing" textLength="40" x="1844" y="62.5117">string</text><line style="stroke:#A80036;stroke-width:1.0;" x1="1839" x2="1839" y1="46.9766" y2="67.4648"/><line style="stroke:#A80036;stroke-width:1.0;" x1="1752" x2="2328" y1="67.4648" y2="67.4648"/><text fill="#000000" font-family="sans-serif" font-size="14" lengthAdjust="spacing" textLength="55" x="1757" y="83">writable</text><text fill="#000000" font-family="sans-serif" font-size="14" lengthAdjust="spacing" textLength="48" x="1844" y="83">☐ false</text><line style="stroke:#A80036;stroke-width:1.0;" x1="1839" x2="1839" y1="67.4648" y2="87.9531"/><rect fill="none" height="77.9531" rx="5" ry="5" style="stroke:#A80036;stroke-width:1.5;" width="576" x="1752" y="10"/><rect fill="#FEFECE" height="81.9531" rx="5" ry="5" style="stroke:#FEFECE;stroke-width:1.5;" width="557" x="1761.5" y="106"/><text fill="#000000" font-family="sans-serif" font-size="14" lengthAdjust="spacing" textLength="77" x="1766.5" y="121.5352">description</text><text fill="#000000" font-family="sans-serif" font-size="14" lengthAdjust="spacing" textLength="460" x="1853.5" y="121.5352">This Property describes the recommended runtime days using CGM</text><line style="stroke:#A80036;stroke-width:1.0;" x1="1848.5" x2="1848.5" y1="106" y2="126.4883"/><line style="stroke:#A80036;stroke-width:1.0;" x1="1761.5" x2="2318.5" y1="126.4883" y2="126.4883"/><text fill="#000000" font-family="sans-serif" font-size="14" lengthAdjust="spacing" textLength="29" x="1766.5" y="142.0234">type</text><text fill="#000000" font-family="sans-serif" font-size="14" lengthAdjust="spacing" textLength="54" x="1853.5" y="142.0234">number</text><line style="stroke:#A80036;stroke-width:1.0;" x1="1848.5" x2="1848.5" y1="126.4883" y2="146.9766"/><line style="stroke:#A80036;stroke-width:1.0;" x1="1761.5" x2="2318.5" y1="146.9766" y2="146.9766"/><text fill="#000000" font-family="sans-serif" font-size="14" lengthAdjust="spacing" textLength="65" x="1766.5" y="162.5117">minimum</text><text fill="#000000" font-family="sans-serif" font-size="14" lengthAdjust="spacing" textLength="9" x="1853.5" y="162.5117">0</text><line style="stroke:#A80036;stroke-width:1.0;" x1="1848.5" x2="1848.5" y1="146.9766" y2="167.4648"/><line style="stroke:#A80036;stroke-width:1.0;" x1="1761.5" x2="2318.5" y1="167.4648" y2="167.4648"/><text fill="#000000" font-family="sans-serif" font-size="14" lengthAdjust="spacing" textLength="55" x="1766.5" y="183">writable</text><text fill="#000000" font-family="sans-serif" font-size="14" lengthAdjust="spacing" textLength="48" x="1853.5" y="183">☐ false</text><line style="stroke:#A80036;stroke-width:1.0;" x1="1848.5" x2="1848.5" y1="167.4648" y2="187.9531"/><rect fill="none" height="81.9531" rx="5" ry="5" style="stroke:#A80036;stroke-width:1.5;" width="557" x="1761.5" y="106"/><rect fill="#FEFECE" height="155.9063" rx="5" ry="5" style="stroke:#FEFECE;stroke-width:1.5;" width="548" x="1766" y="206"/><text fill="#000000" font-family="sans-serif" font-size="14" lengthAdjust="spacing" textLength="29" x="1771" y="221.5352">type</text><text fill="#000000" font-family="sans-serif" font-size="14" lengthAdjust="spacing" textLength="35" x="1858" y="221.5352">array</text><line style="stroke:#A80036;stroke-width:1.0;" x1="1853" x2="1853" y1="206" y2="226.4883"/><line style="stroke:#A80036;stroke-width:1.0;" x1="1766" x2="2314" y1="226.4883" y2="226.4883"/><text fill="#000000" font-family="sans-serif" font-size="14" lengthAdjust="spacing" textLength="77" x="1771" y="242.0234">description</text><text fill="#000000" font-family="sans-serif" font-size="14" lengthAdjust="spacing" textLength="451" x="1858" y="242.0234">The valid range for the Property in the Resource as a number. The</text><text fill="#000000" font-family="sans-serif" font-size="14" lengthAdjust="spacing" textLength="439" x="1858" y="258.5117">first value in the array is the minimum value, the second value in</text><text fill="#000000" font-family="sans-serif" font-size="14" lengthAdjust="spacing" textLength="219" x="1858" y="275">the array is the maximum value.</text><line style="stroke:#A80036;stroke-width:1.0;" x1="1853" x2="1853" y1="226.4883" y2="279.9531"/><line style="stroke:#A80036;stroke-width:1.0;" x1="1766" x2="2314" y1="279.9531" y2="279.9531"/><text fill="#000000" font-family="sans-serif" font-size="14" lengthAdjust="spacing" textLength="55" x="1771" y="295.4883">writable</text><text fill="#000000" font-family="sans-serif" font-size="14" lengthAdjust="spacing" textLength="48" x="1858" y="295.4883">☐ false</text><line style="stroke:#A80036;stroke-width:1.0;" x1="1853" x2="1853" y1="279.9531" y2="300.4414"/><line style="stroke:#A80036;stroke-width:1.0;" x1="1766" x2="2314" y1="300.4414" y2="300.4414"/><text fill="#000000" font-family="sans-serif" font-size="14" lengthAdjust="spacing" textLength="63" x="1771" y="315.9766">minItems</text><text fill="#000000" font-family="sans-serif" font-size="14" lengthAdjust="spacing" textLength="9" x="1858" y="315.9766">2</text><line style="stroke:#A80036;stroke-width:1.0;" x1="1853" x2="1853" y1="300.4414" y2="320.9297"/><line style="stroke:#A80036;stroke-width:1.0;" x1="1766" x2="2314" y1="320.9297" y2="320.9297"/><text fill="#000000" font-family="sans-serif" font-size="14" lengthAdjust="spacing" textLength="67" x="1771" y="336.4648">maxItems</text><text fill="#000000" font-family="sans-serif" font-size="14" lengthAdjust="spacing" textLength="9" x="1858" y="336.4648">2</text><line style="stroke:#A80036;stroke-width:1.0;" x1="1853" x2="1853" y1="320.9297" y2="341.418"/><line style="stroke:#A80036;stroke-width:1.0;" x1="1766" x2="2314" y1="341.418" y2="341.418"/><text fill="#000000" font-family="sans-serif" font-size="14" lengthAdjust="spacing" textLength="37" x="1771" y="356.9531">items</text><text fill="#000000" font-family="sans-serif" font-size="14" lengthAdjust="spacing" textLength="0" x="1870" y="356.9531"/><line style="stroke:#A80036;stroke-width:1.0;" x1="1853" x2="1853" y1="341.418" y2="361.9063"/><rect fill="none" height="155.9063" rx="5" ry="5" style="stroke:#A80036;stroke-width:1.5;" width="548" x="1766" y="206"/><rect fill="#FEFECE" height="20.4883" rx="5" ry="5" style="stroke:#FEFECE;stroke-width:1.5;" width="103" x="2365" y="339"/><text fill="#000000" font-family="sans-serif" font-size="14" lengthAdjust="spacing" textLength="29" x="2370" y="354.5352">type</text><text fill="#000000" font-family="sans-serif" font-size="14" lengthAdjust="spacing" textLength="54" x="2409" y="354.5352">number</text><line style="stroke:#A80036;stroke-width:1.0;" x1="2404" x2="2404" y1="339" y2="359.4883"/><rect fill="none" height="20.4883" rx="5" ry="5" style="stroke:#A80036;stroke-width:1.5;" width="103" x="2365" y="339"/><rect fill="#FEFECE" height="110.9297" rx="5" ry="5" style="stroke:#FEFECE;stroke-width:1.5;" width="555" x="1762.5" y="380.5"/><text fill="#000000" font-family="sans-serif" font-size="14" lengthAdjust="spacing" textLength="77" x="1767.5" y="396.0352">description</text><text fill="#000000" font-family="sans-serif" font-size="14" lengthAdjust="spacing" textLength="456" x="1854.5" y="396.0352">Step value across the defined range an integer when the range is a</text><text fill="#000000" font-family="sans-serif" font-size="14" lengthAdjust="spacing" textLength="458" x="1854.5" y="412.5234">number.  This is the increment for valid values across the range; so</text><text fill="#000000" font-family="sans-serif" font-size="14" lengthAdjust="spacing" textLength="381" x="1854.5" y="429.0117">if range is 0.0..10.0 and step is 2.5 then valid values are</text><text fill="#000000" font-family="sans-serif" font-size="14" lengthAdjust="spacing" textLength="139" x="1854.5" y="445.5">0.0,2.5,5.0,7.5,10.0.</text><line style="stroke:#A80036;stroke-width:1.0;" x1="1849.5" x2="1849.5" y1="380.5" y2="450.4531"/><line style="stroke:#A80036;stroke-width:1.0;" x1="1762.5" x2="2317.5" y1="450.4531" y2="450.4531"/><text fill="#000000" font-family="sans-serif" font-size="14" lengthAdjust="spacing" textLength="55" x="1767.5" y="465.9883">writable</text><text fill="#000000" font-family="sans-serif" font-size="14" lengthAdjust="spacing" textLength="48" x="1854.5" y="465.9883">☐ false</text><line style="stroke:#A80036;stroke-width:1.0;" x1="1849.5" x2="1849.5" y1="450.4531" y2="470.9414"/><line style="stroke:#A80036;stroke-width:1.0;" x1="1762.5" x2="2317.5" y1="470.9414" y2="470.9414"/><text fill="#000000" font-family="sans-serif" font-size="14" lengthAdjust="spacing" textLength="29" x="1767.5" y="486.4766">type</text><text fill="#000000" font-family="sans-serif" font-size="14" lengthAdjust="spacing" textLength="54" x="1854.5" y="486.4766">number</text><line style="stroke:#A80036;stroke-width:1.0;" x1="1849.5" x2="1849.5" y1="470.9414" y2="491.4297"/><rect fill="none" height="110.9297" rx="5" ry="5" style="stroke:#A80036;stroke-width:1.5;" width="555" x="1762.5" y="380.5"/><rect fill="#FEFECE" height="110.9297" rx="5" ry="5" style="stroke:#FEFECE;stroke-width:1.5;" width="570" x="1755" y="509.5"/><text fill="#000000" font-family="sans-serif" font-size="14" lengthAdjust="spacing" textLength="29" x="1760" y="525.0352">type</text><text fill="#000000" font-family="sans-serif" font-size="14" lengthAdjust="spacing" textLength="54" x="1847" y="525.0352">number</text><line style="stroke:#A80036;stroke-width:1.0;" x1="1842" x2="1842" y1="509.5" y2="529.9883"/><line style="stroke:#A80036;stroke-width:1.0;" x1="1755" x2="2325" y1="529.9883" y2="529.9883"/><text fill="#000000" font-family="sans-serif" font-size="14" lengthAdjust="spacing" textLength="55" x="1760" y="545.5234">writable</text><text fill="#000000" font-family="sans-serif" font-size="14" lengthAdjust="spacing" textLength="48" x="1847" y="545.5234">☐ false</text><line style="stroke:#A80036;stroke-width:1.0;" x1="1842" x2="1842" y1="529.9883" y2="550.4766"/><line style="stroke:#A80036;stroke-width:1.0;" x1="1755" x2="2325" y1="550.4766" y2="550.4766"/><text fill="#000000" font-family="sans-serif" font-size="14" lengthAdjust="spacing" textLength="77" x="1760" y="566.0117">description</text><text fill="#000000" font-family="sans-serif" font-size="14" lengthAdjust="spacing" textLength="430" x="1847" y="566.0117">When exposed the value in 'precision' provides a +/- tolerance</text><text fill="#000000" font-family="sans-serif" font-size="14" lengthAdjust="spacing" textLength="473" x="1847" y="582.5">against the Properties in the Resource. Thus if a Property is UPDATED</text><text fill="#000000" font-family="sans-serif" font-size="14" lengthAdjust="spacing" textLength="465" x="1847" y="598.9883">to a value and that Property then RETRIEVED, the RETRIEVED value is</text><text fill="#000000" font-family="sans-serif" font-size="14" lengthAdjust="spacing" textLength="337" x="1847" y="615.4766">valid if in the range of the set value +/- precision</text><line style="stroke:#A80036;stroke-width:1.0;" x1="1842" x2="1842" y1="550.4766" y2="620.4297"/><rect fill="none" height="110.9297" rx="5" ry="5" style="stroke:#A80036;stroke-width:1.5;" width="570" x="1755" y="509.5"/><rect fill="#FEFECE" height="40.9766" rx="5" ry="5" style="stroke:#FEFECE;stroke-width:1.5;" width="331" x="1384" y="354.5"/><text fill="#000000" font-family="sans-serif" font-size="14" lengthAdjust="spacing" textLength="321" x="1389" y="370.0352">#/sdfObject/cgm.sensor/sdfProperty/starttime</text><line style="stroke:#A80036;stroke-width:1.0;" x1="1384" x2="1715" y1="374.9883" y2="374.9883"/><text fill="#000000" font-family="sans-serif" font-size="14" lengthAdjust="spacing" textLength="314" x="1389" y="390.5234">#/sdfObject/cgm.sensor/sdfProperty/runtime</text><rect fill="none" height="40.9766" rx="5" ry="5" style="stroke:#A80036;stroke-width:1.5;" width="331" x="1384" y="354.5"/><path d="M95,272 L108,272 C117.4068,272 126.9554,271.9088 136.5926,271.7376 " fill="none" style="stroke:#A80036;stroke-width:1.0;stroke-dasharray:3.0,3.0;"/><path d="M136.6543,274.8363 L138.9166,271.6914 L136.5309,268.6389 L144.3394,271.5834 L136.6543,274.8363 " fill="#A80036" style="stroke:#A80036;stroke-width:1.0;"/><ellipse cx="95" cy="272" fill="#A80036" rx="3" ry="3" style="stroke:#A80036;stroke-width:1.0;stroke-dasharray:3.0,3.0;"/><path d="M1586,244 L1599,244 C1693.2998,244 1667.7304,139.3212 1752,97 C1756.0558,94.9631 1760.1803,93.0101 1764.3637,91.1374 " fill="none" style="stroke:#A80036;stroke-width:1.0;stroke-dasharray:3.0,3.0;"/><path d="M1765.5942,93.9751 L1766.492,90.2146 L1763.1332,88.2997 L1771.4579,88.0612 L1765.5942,93.9751 " fill="#A80036" style="stroke:#A80036;stroke-width:1.0;"/><ellipse cx="1586" cy="244" fill="#A80036" rx="3" ry="3" style="stroke:#A80036;stroke-width:1.0;stroke-dasharray:3.0,3.0;"/><path d="M1586,264 L1599,264 C1673.2342,264 1680.9182,218.4032 1752,197 C1760.0668,194.571 1768.2988,192.2466 1776.6403,190.0235 " fill="none" style="stroke:#A80036;stroke-width:1.0;stroke-dasharray:3.0,3.0;"/><path d="M1777.4114,192.9664 L1778.8475,189.4452 L1775.8692,187.0806 L1783.9975,188.0958 L1777.4114,192.9664 " fill="#A80036" style="stroke:#A80036;stroke-width:1.0;"/><ellipse cx="1586" cy="264" fill="#A80036" rx="3" ry="3" style="stroke:#A80036;stroke-width:1.0;stroke-dasharray:3.0,3.0;"/><path d="M2302.5,349 L2315.5,349 C2329.1912,349 2343.9315,349 2357.7914,349 " fill="none" style="stroke:#A80036;stroke-width:1.0;stroke-dasharray:3.0,3.0;"/><path d="M2357.7914,352.0389 L2360.0706,349 L2357.7914,345.9611 L2365.3886,349 L2357.7914,352.0389 " fill="#A80036" style="stroke:#A80036;stroke-width:1.0;"/><ellipse cx="2302.5" cy="349" fill="#A80036" rx="3" ry="3" style="stroke:#A80036;stroke-width:1.0;stroke-dasharray:3.0,3.0;"/><path d="M1586,284 L1599,284 C1650.5703,284 1705.5367,284 1758.5317,284 " fill="none" style="stroke:#A80036;stroke-width:1.0;stroke-dasharray:3.0,3.0;"/><path d="M1758.5317,287.1216 L1760.8729,284 L1758.5317,280.8784 L1766.3357,284 L1758.5317,287.1216 " fill="#A80036" style="stroke:#A80036;stroke-width:1.0;"/><ellipse cx="1586" cy="284" fill="#A80036" rx="3" ry="3" style="stroke:#A80036;stroke-width:1.0;stroke-dasharray:3.0,3.0;"/><path d="M1586,305 L1599,305 C1654.1004,305 1666.9248,320.9465 1716,346 C1733.3496,354.8572 1734.1712,363.1519 1752,371 C1757.152,373.2679 1762.392,375.4608 1767.703,377.5812 " fill="none" style="stroke:#A80036;stroke-width:1.0;stroke-dasharray:3.0,3.0;"/><path d="M1766.5644,380.495 L1769.8884,378.4351 L1768.8416,374.6673 L1774.9877,380.4277 L1766.5644,380.495 " fill="#A80036" style="stroke:#A80036;stroke-width:1.0;"/><ellipse cx="1586" cy="305" fill="#A80036" rx="3" ry="3" style="stroke:#A80036;stroke-width:1.0;stroke-dasharray:3.0,3.0;"/><path d="M1586,326 L1599,326 C1651.7543,326 1677.6147,309.8118 1716,346 C1767.4594,394.514 1701.7627,451.2215 1752,501 C1753.0897,502.0797 1754.1933,503.143 1755.3105,504.1899 " fill="none" style="stroke:#A80036;stroke-width:1.0;stroke-dasharray:3.0,3.0;"/><path d="M1753.2704,506.4682 L1757.0191,505.72 L1757.3505,501.9117 L1761.006,509.2901 L1753.2704,506.4682 " fill="#A80036" style="stroke:#A80036;stroke-width:1.0;"/><ellipse cx="1586" cy="326" fill="#A80036" rx="3" ry="3" style="stroke:#A80036;stroke-width:1.0;stroke-dasharray:3.0,3.0;"/><path d="M1335,317 L1348,317 C1398.1257,317 1454.4183,307.1741 1494.6515,298.4119 " fill="none" style="stroke:#A80036;stroke-width:1.0;stroke-dasharray:3.0,3.0;"/><path d="M1495.3227,301.4411 L1496.9234,297.9085 L1493.9803,295.3827 L1502.2245,296.7339 L1495.3227,301.4411 " fill="#A80036" style="stroke:#A80036;stroke-width:1.0;"/><ellipse cx="1335" cy="317" fill="#A80036" rx="3" ry="3" style="stroke:#A80036;stroke-width:1.0;stroke-dasharray:3.0,3.0;"/><path d="M1335,343 L1348,343 C1365.0003,343 1397.6177,347.5209 1431.7104,353.1642 " fill="none" style="stroke:#A80036;stroke-width:1.0;stroke-dasharray:3.0,3.0;"/><path d="M1431.1911,356.266 L1434.0368,353.5536 L1432.2297,350.0623 L1439.4649,354.4623 L1431.1911,356.266 " fill="#A80036" style="stroke:#A80036;stroke-width:1.0;"/><ellipse cx="1335" cy="343" fill="#A80036" rx="3" ry="3" style="stroke:#A80036;stroke-width:1.0;stroke-dasharray:3.0,3.0;"/><path d="M495.5,317 L508.5,317 C599.3682,317 698.5008,317 787.8585,317 " fill="none" style="stroke:#A80036;stroke-width:1.0;stroke-dasharray:3.0,3.0;"/><path d="M787.8585,320.005 L790.1123,317 L787.8585,313.995 L795.3711,317 L787.8585,320.005 " fill="#A80036" style="stroke:#A80036;stroke-width:1.0;"/><ellipse cx="495.5" cy="317" fill="#A80036" rx="3" ry="3" style="stroke:#A80036;stroke-width:1.0;stroke-dasharray:3.0,3.0;"/><path d="M95,293 L108,293 C124.1536,293 127.927,296.388 144,298 C228.3204,306.4567 326.0937,311.7367 388.1065,314.5247 " fill="none" style="stroke:#A80036;stroke-width:1.0;stroke-dasharray:3.0,3.0;"/><path d="M387.9688,317.6274 L390.4335,314.6279 L388.2441,311.422 L395.8632,314.8687 L387.9688,317.6274 " fill="#A80036" style="stroke:#A80036;stroke-width:1.0;"/><ellipse cx="95" cy="293" fill="#A80036" rx="3" ry="3" style="stroke:#A80036;stroke-width:1.0;stroke-dasharray:3.0,3.0;"/><!--MD5=[a96fabb581d4fb9539b1b2cc77334f08]
@startjson
{
  "info": {
    "copyright": "Copyright 2018-2019 Open Connectivity Foundation, Inc. All rights reserved.",
    "license": "https://github.com/one-data-model/oneDM/blob/master/LICENSE",
    "title": "Sensor for Continuous Glucose Meter (CGM)",
    "version": "2019-03-04"
  },
  "sdfObject": {
    "cgm.sensor": {
      "description": "This Resource describes the Properties associated with Sensor for\\nContinuous Glucose Meter (CGM).",
      "sdfProperty": {
        "starttime": {
          "description": "This Property describes the Sensor start time using ISO 8601 datetime\\nformat (e.g: 2007-04-05T14:30Z, 2007-04-05T14:30+09:00)",
          "type": "string",
          "writable": false
        },
        "runtime": {
          "description": "This Property describes the recommended runtime days using CGM",
          "type": "number",
          "minimum": 0,
          "writable": false
        },
        "range": {
          "type": "array",
          "description": "The valid range for the Property in the Resource as a number. The\\nfirst value in the array is the minimum value, the second value in\\nthe array is the maximum value.",
          "writable": false,
          "minItems": 2,
          "maxItems": 2,
          "items": {
            "type": "number"
          }
        },
        "step": {
          "description": "Step value across the defined range an integer when the range is a\\nnumber.  This is the increment for valid values across the range; so\\nif range is 0.0..10.0 and step is 2.5 then valid values are\\n0.0,2.5,5.0,7.5,10.0.",
          "writable": false,
          "type": "number"
        },
        "precision": {
          "type": "number",
          "writable": false,
          "description": "When exposed the value in 'precision' provides a +/- tolerance\\nagainst the Properties in the Resource. Thus if a Property is UPDATED\\nto a value and that Property then RETRIEVED, the RETRIEVED value is\\nvalid if in the range of the set value +/- precision"
        }
      },
      "sdfRequired": [
        "#/sdfObject/cgm.sensor/sdfProperty/starttime",
        "#/sdfObject/cgm.sensor/sdfProperty/runtime"
      ]
    }
  }
}
@endjson

PlantUML version 1.2021.2(Sun Mar 07 13:10:27 EET 2021)
(GPL source distribution)
Java Runtime: OpenJDK Runtime Environment
JVM: OpenJDK 64-Bit Server VM
Default Encoding: UTF-8
Language: en
Country: FI
--></g></svg>