<?xml version="1.0" encoding="UTF-8" standalone="no"?><svg xmlns="http://www.w3.org/2000/svg" xmlns:xlink="http://www.w3.org/1999/xlink" contentScriptType="application/ecmascript" contentStyleType="text/css" height="1091px" preserveAspectRatio="none" style="width:2196px;height:1091px;" version="1.1" viewBox="0 0 2196 1091" width="2196px" zoomAndPan="magnify"><defs/><g><rect fill="#FEFECE" height="40.9766" rx="5" ry="5" style="stroke:#FEFECE;stroke-width:1.5;" width="97" x="10" y="796.5"/><text fill="#000000" font-family="sans-serif" font-size="14" lengthAdjust="spacing" textLength="27" x="15" y="812.0352">info</text><text fill="#000000" font-family="sans-serif" font-size="14" lengthAdjust="spacing" textLength="0" x="102" y="812.0352"/><line style="stroke:#A80036;stroke-width:1.0;" x1="85" x2="85" y1="796.5" y2="816.9883"/><line style="stroke:#A80036;stroke-width:1.0;" x1="10" x2="107" y1="816.9883" y2="816.9883"/><text fill="#000000" font-family="sans-serif" font-size="14" lengthAdjust="spacing" textLength="65" x="15" y="832.5234">sdfObject</text><text fill="#000000" font-family="sans-serif" font-size="14" lengthAdjust="spacing" textLength="0" x="102" y="832.5234"/><line style="stroke:#A80036;stroke-width:1.0;" x1="85" x2="85" y1="816.9883" y2="837.4766"/><rect fill="none" height="40.9766" rx="5" ry="5" style="stroke:#A80036;stroke-width:1.5;" width="97" x="10" y="796.5"/><rect fill="#FEFECE" height="81.9531" rx="5" ry="5" style="stroke:#FEFECE;stroke-width:1.5;" width="547" x="144" y="741"/><text fill="#000000" font-family="sans-serif" font-size="14" lengthAdjust="spacing" textLength="26" x="149" y="756.5352">title</text><text fill="#000000" font-family="sans-serif" font-size="14" lengthAdjust="spacing" textLength="292" x="224" y="756.5352">OMA LwM2M Digital Input (Object ID 3200)</text><line style="stroke:#A80036;stroke-width:1.0;" x1="219" x2="219" y1="741" y2="761.4883"/><line style="stroke:#A80036;stroke-width:1.0;" x1="144" x2="691" y1="761.4883" y2="761.4883"/><text fill="#000000" font-family="sans-serif" font-size="14" lengthAdjust="spacing" textLength="50" x="149" y="777.0234">version</text><text fill="#000000" font-family="sans-serif" font-size="14" lengthAdjust="spacing" textLength="88" x="224" y="777.0234">2021-02-11</text><line style="stroke:#A80036;stroke-width:1.0;" x1="219" x2="219" y1="761.4883" y2="781.9766"/><line style="stroke:#A80036;stroke-width:1.0;" x1="144" x2="691" y1="781.9766" y2="781.9766"/><text fill="#000000" font-family="sans-serif" font-size="14" lengthAdjust="spacing" textLength="65" x="149" y="797.5117">copyright</text><text fill="#000000" font-family="sans-serif" font-size="14" lengthAdjust="spacing" textLength="208" x="224" y="797.5117">Copyright (c) 2018-2020 IPSO</text><line style="stroke:#A80036;stroke-width:1.0;" x1="219" x2="219" y1="781.9766" y2="802.4648"/><line style="stroke:#A80036;stroke-width:1.0;" x1="144" x2="691" y1="802.4648" y2="802.4648"/><text fill="#000000" font-family="sans-serif" font-size="14" lengthAdjust="spacing" textLength="47" x="149" y="818">license</text><text fill="#000000" font-family="sans-serif" font-size="14" lengthAdjust="spacing" textLength="462" x="224" y="818">https://github.com/one-data-model/oneDM/blob/master/LICENSE</text><line style="stroke:#A80036;stroke-width:1.0;" x1="219" x2="219" y1="802.4648" y2="822.9531"/><rect fill="none" height="81.9531" rx="5" ry="5" style="stroke:#A80036;stroke-width:1.5;" width="547" x="144" y="741"/><rect fill="#FEFECE" height="20.4883" rx="5" ry="5" style="stroke:#FEFECE;stroke-width:1.5;" width="119" x="358" y="841"/><text fill="#000000" font-family="sans-serif" font-size="14" lengthAdjust="spacing" textLength="87" x="363" y="856.5352">Digital_Input</text><text fill="#000000" font-family="sans-serif" font-size="14" lengthAdjust="spacing" textLength="0" x="472" y="856.5352"/><line style="stroke:#A80036;stroke-width:1.0;" x1="455" x2="455" y1="841" y2="861.4883"/><rect fill="none" height="20.4883" rx="5" ry="5" style="stroke:#A80036;stroke-width:1.5;" width="119" x="358" y="841"/><rect fill="#FEFECE" height="102.4414" rx="5" ry="5" style="stroke:#FEFECE;stroke-width:1.5;" width="413" x="728" y="800"/><text fill="#000000" font-family="sans-serif" font-size="14" lengthAdjust="spacing" textLength="33" x="733" y="815.5352">label</text><text fill="#000000" font-family="sans-serif" font-size="14" lengthAdjust="spacing" textLength="84" x="826" y="815.5352">Digital Input</text><line style="stroke:#A80036;stroke-width:1.0;" x1="821" x2="821" y1="800" y2="820.4883"/><line style="stroke:#A80036;stroke-width:1.0;" x1="728" x2="1141" y1="820.4883" y2="820.4883"/><text fill="#000000" font-family="sans-serif" font-size="14" lengthAdjust="spacing" textLength="77" x="733" y="836.0234">description</text><text fill="#000000" font-family="sans-serif" font-size="14" lengthAdjust="spacing" textLength="310" x="826" y="836.0234">Generic digital input for non-specific sensors</text><line style="stroke:#A80036;stroke-width:1.0;" x1="821" x2="821" y1="820.4883" y2="840.9766"/><line style="stroke:#A80036;stroke-width:1.0;" x1="728" x2="1141" y1="840.9766" y2="840.9766"/><text fill="#000000" font-family="sans-serif" font-size="14" lengthAdjust="spacing" textLength="79" x="733" y="856.5117">sdfProperty</text><text fill="#000000" font-family="sans-serif" font-size="14" lengthAdjust="spacing" textLength="0" x="838" y="856.5117"/><line style="stroke:#A80036;stroke-width:1.0;" x1="821" x2="821" y1="840.9766" y2="861.4648"/><line style="stroke:#A80036;stroke-width:1.0;" x1="728" x2="1141" y1="861.4648" y2="861.4648"/><text fill="#000000" font-family="sans-serif" font-size="14" lengthAdjust="spacing" textLength="65" x="733" y="877">sdfAction</text><text fill="#000000" font-family="sans-serif" font-size="14" lengthAdjust="spacing" textLength="0" x="838" y="877"/><line style="stroke:#A80036;stroke-width:1.0;" x1="821" x2="821" y1="861.4648" y2="881.9531"/><line style="stroke:#A80036;stroke-width:1.0;" x1="728" x2="1141" y1="881.9531" y2="881.9531"/><text fill="#000000" font-family="sans-serif" font-size="14" lengthAdjust="spacing" textLength="83" x="733" y="897.4883">sdfRequired</text><text fill="#000000" font-family="sans-serif" font-size="14" lengthAdjust="spacing" textLength="0" x="838" y="897.4883"/><line style="stroke:#A80036;stroke-width:1.0;" x1="821" x2="821" y1="881.9531" y2="902.4414"/><rect fill="none" height="102.4414" rx="5" ry="5" style="stroke:#A80036;stroke-width:1.5;" width="413" x="728" y="800"/><rect fill="#FEFECE" height="184.3945" rx="5" ry="5" style="stroke:#FEFECE;stroke-width:1.5;" width="229" x="1266.5" y="423"/><text fill="#000000" font-family="sans-serif" font-size="14" lengthAdjust="spacing" textLength="128" x="1271.5" y="438.5352">Digital_Input_State</text><text fill="#000000" font-family="sans-serif" font-size="14" lengthAdjust="spacing" textLength="0" x="1490.5" y="438.5352"/><line style="stroke:#A80036;stroke-width:1.0;" x1="1473.5" x2="1473.5" y1="423" y2="443.4883"/><line style="stroke:#A80036;stroke-width:1.0;" x1="1266.5" x2="1495.5" y1="443.4883" y2="443.4883"/><text fill="#000000" font-family="sans-serif" font-size="14" lengthAdjust="spacing" textLength="150" x="1271.5" y="459.0234">Digital_Input_Counter</text><text fill="#000000" font-family="sans-serif" font-size="14" lengthAdjust="spacing" textLength="0" x="1490.5" y="459.0234"/><line style="stroke:#A80036;stroke-width:1.0;" x1="1473.5" x2="1473.5" y1="443.4883" y2="463.9766"/><line style="stroke:#A80036;stroke-width:1.0;" x1="1266.5" x2="1495.5" y1="463.9766" y2="463.9766"/><text fill="#000000" font-family="sans-serif" font-size="14" lengthAdjust="spacing" textLength="145" x="1271.5" y="479.5117">Digital_Input_Polarity</text><text fill="#000000" font-family="sans-serif" font-size="14" lengthAdjust="spacing" textLength="0" x="1490.5" y="479.5117"/><line style="stroke:#A80036;stroke-width:1.0;" x1="1473.5" x2="1473.5" y1="463.9766" y2="484.4648"/><line style="stroke:#A80036;stroke-width:1.0;" x1="1266.5" x2="1495.5" y1="484.4648" y2="484.4648"/><text fill="#000000" font-family="sans-serif" font-size="14" lengthAdjust="spacing" textLength="163" x="1271.5" y="500">Digital_Input_Debounce</text><text fill="#000000" font-family="sans-serif" font-size="14" lengthAdjust="spacing" textLength="0" x="1490.5" y="500"/><line style="stroke:#A80036;stroke-width:1.0;" x1="1473.5" x2="1473.5" y1="484.4648" y2="504.9531"/><line style="stroke:#A80036;stroke-width:1.0;" x1="1266.5" x2="1495.5" y1="504.9531" y2="504.9531"/><text fill="#000000" font-family="sans-serif" font-size="14" lengthAdjust="spacing" textLength="197" x="1271.5" y="520.4883">Digital_Input_Edge_Selection</text><text fill="#000000" font-family="sans-serif" font-size="14" lengthAdjust="spacing" textLength="0" x="1490.5" y="520.4883"/><line style="stroke:#A80036;stroke-width:1.0;" x1="1473.5" x2="1473.5" y1="504.9531" y2="525.4414"/><line style="stroke:#A80036;stroke-width:1.0;" x1="1266.5" x2="1495.5" y1="525.4414" y2="525.4414"/><text fill="#000000" font-family="sans-serif" font-size="14" lengthAdjust="spacing" textLength="118" x="1271.5" y="540.9766">Application_Type</text><text fill="#000000" font-family="sans-serif" font-size="14" lengthAdjust="spacing" textLength="0" x="1490.5" y="540.9766"/><line style="stroke:#A80036;stroke-width:1.0;" x1="1473.5" x2="1473.5" y1="525.4414" y2="545.9297"/><line style="stroke:#A80036;stroke-width:1.0;" x1="1266.5" x2="1495.5" y1="545.9297" y2="545.9297"/><text fill="#000000" font-family="sans-serif" font-size="14" lengthAdjust="spacing" textLength="87" x="1271.5" y="561.4648">Sensor_Type</text><text fill="#000000" font-family="sans-serif" font-size="14" lengthAdjust="spacing" textLength="0" x="1490.5" y="561.4648"/><line style="stroke:#A80036;stroke-width:1.0;" x1="1473.5" x2="1473.5" y1="545.9297" y2="566.418"/><line style="stroke:#A80036;stroke-width:1.0;" x1="1266.5" x2="1495.5" y1="566.418" y2="566.418"/><text fill="#000000" font-family="sans-serif" font-size="14" lengthAdjust="spacing" textLength="76" x="1271.5" y="581.9531">Timestamp</text><text fill="#000000" font-family="sans-serif" font-size="14" lengthAdjust="spacing" textLength="0" x="1490.5" y="581.9531"/><line style="stroke:#A80036;stroke-width:1.0;" x1="1473.5" x2="1473.5" y1="566.418" y2="586.9063"/><line style="stroke:#A80036;stroke-width:1.0;" x1="1266.5" x2="1495.5" y1="586.9063" y2="586.9063"/><text fill="#000000" font-family="sans-serif" font-size="14" lengthAdjust="spacing" textLength="151" x="1271.5" y="602.4414">Fractional_Timestamp</text><text fill="#000000" font-family="sans-serif" font-size="14" lengthAdjust="spacing" textLength="0" x="1490.5" y="602.4414"/><line style="stroke:#A80036;stroke-width:1.0;" x1="1473.5" x2="1473.5" y1="586.9063" y2="607.3945"/><rect fill="none" height="184.3945" rx="5" ry="5" style="stroke:#A80036;stroke-width:1.5;" width="229" x="1266.5" y="423"/><rect fill="#FEFECE" height="81.9531" rx="5" ry="5" style="stroke:#FEFECE;stroke-width:1.5;" width="335" x="1735" y="10"/><text fill="#000000" font-family="sans-serif" font-size="14" lengthAdjust="spacing" textLength="33" x="1740" y="25.5352">label</text><text fill="#000000" font-family="sans-serif" font-size="14" lengthAdjust="spacing" textLength="122" x="1827" y="25.5352">Digital Input State</text><line style="stroke:#A80036;stroke-width:1.0;" x1="1822" x2="1822" y1="10" y2="30.4883"/><line style="stroke:#A80036;stroke-width:1.0;" x1="1735" x2="2070" y1="30.4883" y2="30.4883"/><text fill="#000000" font-family="sans-serif" font-size="14" lengthAdjust="spacing" textLength="77" x="1740" y="46.0234">description</text><text fill="#000000" font-family="sans-serif" font-size="14" lengthAdjust="spacing" textLength="238" x="1827" y="46.0234">The current state of a digital input.</text><line style="stroke:#A80036;stroke-width:1.0;" x1="1822" x2="1822" y1="30.4883" y2="50.9766"/><line style="stroke:#A80036;stroke-width:1.0;" x1="1735" x2="2070" y1="50.9766" y2="50.9766"/><text fill="#000000" font-family="sans-serif" font-size="14" lengthAdjust="spacing" textLength="55" x="1740" y="66.5117">writable</text><text fill="#000000" font-family="sans-serif" font-size="14" lengthAdjust="spacing" textLength="48" x="1827" y="66.5117">☐ false</text><line style="stroke:#A80036;stroke-width:1.0;" x1="1822" x2="1822" y1="50.9766" y2="71.4648"/><line style="stroke:#A80036;stroke-width:1.0;" x1="1735" x2="2070" y1="71.4648" y2="71.4648"/><text fill="#000000" font-family="sans-serif" font-size="14" lengthAdjust="spacing" textLength="29" x="1740" y="87">type</text><text fill="#000000" font-family="sans-serif" font-size="14" lengthAdjust="spacing" textLength="56" x="1827" y="87">boolean</text><line style="stroke:#A80036;stroke-width:1.0;" x1="1822" x2="1822" y1="71.4648" y2="91.9531"/><rect fill="none" height="81.9531" rx="5" ry="5" style="stroke:#A80036;stroke-width:1.5;" width="335" x="1735" y="10"/><rect fill="#FEFECE" height="81.9531" rx="5" ry="5" style="stroke:#FEFECE;stroke-width:1.5;" width="406" x="1699.5" y="110"/><text fill="#000000" font-family="sans-serif" font-size="14" lengthAdjust="spacing" textLength="33" x="1704.5" y="125.5352">label</text><text fill="#000000" font-family="sans-serif" font-size="14" lengthAdjust="spacing" textLength="144" x="1791.5" y="125.5352">Digital Input Counter</text><line style="stroke:#A80036;stroke-width:1.0;" x1="1786.5" x2="1786.5" y1="110" y2="130.4883"/><line style="stroke:#A80036;stroke-width:1.0;" x1="1699.5" x2="2105.5" y1="130.4883" y2="130.4883"/><text fill="#000000" font-family="sans-serif" font-size="14" lengthAdjust="spacing" textLength="77" x="1704.5" y="146.0234">description</text><text fill="#000000" font-family="sans-serif" font-size="14" lengthAdjust="spacing" textLength="309" x="1791.5" y="146.0234">The cumulative value of active state detected.</text><line style="stroke:#A80036;stroke-width:1.0;" x1="1786.5" x2="1786.5" y1="130.4883" y2="150.9766"/><line style="stroke:#A80036;stroke-width:1.0;" x1="1699.5" x2="2105.5" y1="150.9766" y2="150.9766"/><text fill="#000000" font-family="sans-serif" font-size="14" lengthAdjust="spacing" textLength="55" x="1704.5" y="166.5117">writable</text><text fill="#000000" font-family="sans-serif" font-size="14" lengthAdjust="spacing" textLength="48" x="1791.5" y="166.5117">☐ false</text><line style="stroke:#A80036;stroke-width:1.0;" x1="1786.5" x2="1786.5" y1="150.9766" y2="171.4648"/><line style="stroke:#A80036;stroke-width:1.0;" x1="1699.5" x2="2105.5" y1="171.4648" y2="171.4648"/><text fill="#000000" font-family="sans-serif" font-size="14" lengthAdjust="spacing" textLength="29" x="1704.5" y="187">type</text><text fill="#000000" font-family="sans-serif" font-size="14" lengthAdjust="spacing" textLength="49" x="1791.5" y="187">integer</text><line style="stroke:#A80036;stroke-width:1.0;" x1="1786.5" x2="1786.5" y1="171.4648" y2="191.9531"/><rect fill="none" height="81.9531" rx="5" ry="5" style="stroke:#A80036;stroke-width:1.5;" width="406" x="1699.5" y="110"/><rect fill="#FEFECE" height="77.9531" rx="5" ry="5" style="stroke:#FEFECE;stroke-width:1.5;" width="553" x="1626" y="210"/><text fill="#000000" font-family="sans-serif" font-size="14" lengthAdjust="spacing" textLength="33" x="1631" y="225.5352">label</text><text fill="#000000" font-family="sans-serif" font-size="14" lengthAdjust="spacing" textLength="139" x="1718" y="225.5352">Digital Input Polarity</text><line style="stroke:#A80036;stroke-width:1.0;" x1="1713" x2="1713" y1="210" y2="230.4883"/><line style="stroke:#A80036;stroke-width:1.0;" x1="1626" x2="2179" y1="230.4883" y2="230.4883"/><text fill="#000000" font-family="sans-serif" font-size="14" lengthAdjust="spacing" textLength="77" x="1631" y="246.0234">description</text><text fill="#000000" font-family="sans-serif" font-size="14" lengthAdjust="spacing" textLength="456" x="1718" y="246.0234">The polarity of the digital input as a Boolean (False = Normal, True</text><text fill="#000000" font-family="sans-serif" font-size="14" lengthAdjust="spacing" textLength="86" x="1718" y="262.5117">= Reversed).</text><line style="stroke:#A80036;stroke-width:1.0;" x1="1713" x2="1713" y1="230.4883" y2="267.4648"/><line style="stroke:#A80036;stroke-width:1.0;" x1="1626" x2="2179" y1="267.4648" y2="267.4648"/><text fill="#000000" font-family="sans-serif" font-size="14" lengthAdjust="spacing" textLength="29" x="1631" y="283">type</text><text fill="#000000" font-family="sans-serif" font-size="14" lengthAdjust="spacing" textLength="56" x="1718" y="283">boolean</text><line style="stroke:#A80036;stroke-width:1.0;" x1="1713" x2="1713" y1="267.4648" y2="287.9531"/><rect fill="none" height="77.9531" rx="5" ry="5" style="stroke:#A80036;stroke-width:1.5;" width="553" x="1626" y="210"/><rect fill="#FEFECE" height="81.9531" rx="5" ry="5" style="stroke:#FEFECE;stroke-width:1.5;" width="289" x="1758" y="306"/><text fill="#000000" font-family="sans-serif" font-size="14" lengthAdjust="spacing" textLength="33" x="1763" y="321.5352">label</text><text fill="#000000" font-family="sans-serif" font-size="14" lengthAdjust="spacing" textLength="157" x="1850" y="321.5352">Digital Input Debounce</text><line style="stroke:#A80036;stroke-width:1.0;" x1="1845" x2="1845" y1="306" y2="326.4883"/><line style="stroke:#A80036;stroke-width:1.0;" x1="1758" x2="2047" y1="326.4883" y2="326.4883"/><text fill="#000000" font-family="sans-serif" font-size="14" lengthAdjust="spacing" textLength="77" x="1763" y="342.0234">description</text><text fill="#000000" font-family="sans-serif" font-size="14" lengthAdjust="spacing" textLength="192" x="1850" y="342.0234">The debounce period in ms.</text><line style="stroke:#A80036;stroke-width:1.0;" x1="1845" x2="1845" y1="326.4883" y2="346.9766"/><line style="stroke:#A80036;stroke-width:1.0;" x1="1758" x2="2047" y1="346.9766" y2="346.9766"/><text fill="#000000" font-family="sans-serif" font-size="14" lengthAdjust="spacing" textLength="29" x="1763" y="362.5117">type</text><text fill="#000000" font-family="sans-serif" font-size="14" lengthAdjust="spacing" textLength="49" x="1850" y="362.5117">integer</text><line style="stroke:#A80036;stroke-width:1.0;" x1="1845" x2="1845" y1="346.9766" y2="367.4648"/><line style="stroke:#A80036;stroke-width:1.0;" x1="1758" x2="2047" y1="367.4648" y2="367.4648"/><text fill="#000000" font-family="sans-serif" font-size="14" lengthAdjust="spacing" textLength="27" x="1763" y="383">unit</text><text fill="#000000" font-family="sans-serif" font-size="14" lengthAdjust="spacing" textLength="20" x="1850" y="383">ms</text><line style="stroke:#A80036;stroke-width:1.0;" x1="1845" x2="1845" y1="367.4648" y2="387.9531"/><rect fill="none" height="81.9531" rx="5" ry="5" style="stroke:#A80036;stroke-width:1.5;" width="289" x="1758" y="306"/><rect fill="#FEFECE" height="118.9297" rx="5" ry="5" style="stroke:#FEFECE;stroke-width:1.5;" width="560" x="1622.5" y="406.5"/><text fill="#000000" font-family="sans-serif" font-size="14" lengthAdjust="spacing" textLength="33" x="1627.5" y="422.0352">label</text><text fill="#000000" font-family="sans-serif" font-size="14" lengthAdjust="spacing" textLength="188" x="1714.5" y="422.0352">Digital Input Edge Selection</text><line style="stroke:#A80036;stroke-width:1.0;" x1="1709.5" x2="1709.5" y1="406.5" y2="426.9883"/><line style="stroke:#A80036;stroke-width:1.0;" x1="1622.5" x2="2182.5" y1="426.9883" y2="426.9883"/><text fill="#000000" font-family="sans-serif" font-size="14" lengthAdjust="spacing" textLength="77" x="1627.5" y="442.5234">description</text><text fill="#000000" font-family="sans-serif" font-size="14" lengthAdjust="spacing" textLength="463" x="1714.5" y="442.5234">The edge selection as an integer (1 = Falling edge, 2 = Rising edge,</text><text fill="#000000" font-family="sans-serif" font-size="14" lengthAdjust="spacing" textLength="232" x="1714.5" y="459.0117">3 = Both Rising and Falling edge).</text><line style="stroke:#A80036;stroke-width:1.0;" x1="1709.5" x2="1709.5" y1="426.9883" y2="463.9648"/><line style="stroke:#A80036;stroke-width:1.0;" x1="1622.5" x2="2182.5" y1="463.9648" y2="463.9648"/><text fill="#000000" font-family="sans-serif" font-size="14" lengthAdjust="spacing" textLength="29" x="1627.5" y="479.5">type</text><text fill="#000000" font-family="sans-serif" font-size="14" lengthAdjust="spacing" textLength="49" x="1714.5" y="479.5">integer</text><line style="stroke:#A80036;stroke-width:1.0;" x1="1709.5" x2="1709.5" y1="463.9648" y2="484.4531"/><line style="stroke:#A80036;stroke-width:1.0;" x1="1622.5" x2="2182.5" y1="484.4531" y2="484.4531"/><text fill="#000000" font-family="sans-serif" font-size="14" lengthAdjust="spacing" textLength="65" x="1627.5" y="499.9883">minimum</text><text fill="#000000" font-family="sans-serif" font-size="14" lengthAdjust="spacing" textLength="9" x="1714.5" y="499.9883">1</text><line style="stroke:#A80036;stroke-width:1.0;" x1="1709.5" x2="1709.5" y1="484.4531" y2="504.9414"/><line style="stroke:#A80036;stroke-width:1.0;" x1="1622.5" x2="2182.5" y1="504.9414" y2="504.9414"/><text fill="#000000" font-family="sans-serif" font-size="14" lengthAdjust="spacing" textLength="69" x="1627.5" y="520.4766">maximum</text><text fill="#000000" font-family="sans-serif" font-size="14" lengthAdjust="spacing" textLength="9" x="1714.5" y="520.4766">3</text><line style="stroke:#A80036;stroke-width:1.0;" x1="1709.5" x2="1709.5" y1="504.9414" y2="525.4297"/><rect fill="none" height="118.9297" rx="5" ry="5" style="stroke:#A80036;stroke-width:1.5;" width="560" x="1622.5" y="406.5"/><rect fill="#FEFECE" height="77.9531" rx="5" ry="5" style="stroke:#FEFECE;stroke-width:1.5;" width="563" x="1621" y="544"/><text fill="#000000" font-family="sans-serif" font-size="14" lengthAdjust="spacing" textLength="33" x="1626" y="559.5352">label</text><text fill="#000000" font-family="sans-serif" font-size="14" lengthAdjust="spacing" textLength="115" x="1713" y="559.5352">Application Type</text><line style="stroke:#A80036;stroke-width:1.0;" x1="1708" x2="1708" y1="544" y2="564.4883"/><line style="stroke:#A80036;stroke-width:1.0;" x1="1621" x2="2184" y1="564.4883" y2="564.4883"/><text fill="#000000" font-family="sans-serif" font-size="14" lengthAdjust="spacing" textLength="77" x="1626" y="580.0234">description</text><text fill="#000000" font-family="sans-serif" font-size="14" lengthAdjust="spacing" textLength="466" x="1713" y="580.0234">The application type of the sensor or actuator as a string depending</text><text fill="#000000" font-family="sans-serif" font-size="14" lengthAdjust="spacing" textLength="110" x="1713" y="596.5117">on the use case.</text><line style="stroke:#A80036;stroke-width:1.0;" x1="1708" x2="1708" y1="564.4883" y2="601.4648"/><line style="stroke:#A80036;stroke-width:1.0;" x1="1621" x2="2184" y1="601.4648" y2="601.4648"/><text fill="#000000" font-family="sans-serif" font-size="14" lengthAdjust="spacing" textLength="29" x="1626" y="617">type</text><text fill="#000000" font-family="sans-serif" font-size="14" lengthAdjust="spacing" textLength="40" x="1713" y="617">string</text><line style="stroke:#A80036;stroke-width:1.0;" x1="1708" x2="1708" y1="601.4648" y2="621.9531"/><rect fill="none" height="77.9531" rx="5" ry="5" style="stroke:#A80036;stroke-width:1.5;" width="563" x="1621" y="544"/><rect fill="#FEFECE" height="81.9531" rx="5" ry="5" style="stroke:#FEFECE;stroke-width:1.5;" width="407" x="1699" y="640"/><text fill="#000000" font-family="sans-serif" font-size="14" lengthAdjust="spacing" textLength="33" x="1704" y="655.5352">label</text><text fill="#000000" font-family="sans-serif" font-size="14" lengthAdjust="spacing" textLength="84" x="1791" y="655.5352">Sensor Type</text><line style="stroke:#A80036;stroke-width:1.0;" x1="1786" x2="1786" y1="640" y2="660.4883"/><line style="stroke:#A80036;stroke-width:1.0;" x1="1699" x2="2106" y1="660.4883" y2="660.4883"/><text fill="#000000" font-family="sans-serif" font-size="14" lengthAdjust="spacing" textLength="77" x="1704" y="676.0234">description</text><text fill="#000000" font-family="sans-serif" font-size="14" lengthAdjust="spacing" textLength="310" x="1791" y="676.0234">The type of the sensor (for instance PIR type).</text><line style="stroke:#A80036;stroke-width:1.0;" x1="1786" x2="1786" y1="660.4883" y2="680.9766"/><line style="stroke:#A80036;stroke-width:1.0;" x1="1699" x2="2106" y1="680.9766" y2="680.9766"/><text fill="#000000" font-family="sans-serif" font-size="14" lengthAdjust="spacing" textLength="55" x="1704" y="696.5117">writable</text><text fill="#000000" font-family="sans-serif" font-size="14" lengthAdjust="spacing" textLength="48" x="1791" y="696.5117">☐ false</text><line style="stroke:#A80036;stroke-width:1.0;" x1="1786" x2="1786" y1="680.9766" y2="701.4648"/><line style="stroke:#A80036;stroke-width:1.0;" x1="1699" x2="2106" y1="701.4648" y2="701.4648"/><text fill="#000000" font-family="sans-serif" font-size="14" lengthAdjust="spacing" textLength="29" x="1704" y="717">type</text><text fill="#000000" font-family="sans-serif" font-size="14" lengthAdjust="spacing" textLength="40" x="1791" y="717">string</text><line style="stroke:#A80036;stroke-width:1.0;" x1="1786" x2="1786" y1="701.4648" y2="721.9531"/><rect fill="none" height="81.9531" rx="5" ry="5" style="stroke:#A80036;stroke-width:1.5;" width="407" x="1699" y="640"/><rect fill="#FEFECE" height="102.4414" rx="5" ry="5" style="stroke:#FEFECE;stroke-width:1.5;" width="493" x="1656" y="740"/><text fill="#000000" font-family="sans-serif" font-size="14" lengthAdjust="spacing" textLength="33" x="1661" y="755.5352">label</text><text fill="#000000" font-family="sans-serif" font-size="14" lengthAdjust="spacing" textLength="76" x="1748" y="755.5352">Timestamp</text><line style="stroke:#A80036;stroke-width:1.0;" x1="1743" x2="1743" y1="740" y2="760.4883"/><line style="stroke:#A80036;stroke-width:1.0;" x1="1656" x2="2149" y1="760.4883" y2="760.4883"/><text fill="#000000" font-family="sans-serif" font-size="14" lengthAdjust="spacing" textLength="77" x="1661" y="776.0234">description</text><text fill="#000000" font-family="sans-serif" font-size="14" lengthAdjust="spacing" textLength="396" x="1748" y="776.0234">The timestamp of when the measurement was performed.</text><line style="stroke:#A80036;stroke-width:1.0;" x1="1743" x2="1743" y1="760.4883" y2="780.9766"/><line style="stroke:#A80036;stroke-width:1.0;" x1="1656" x2="2149" y1="780.9766" y2="780.9766"/><text fill="#000000" font-family="sans-serif" font-size="14" lengthAdjust="spacing" textLength="55" x="1661" y="796.5117">writable</text><text fill="#000000" font-family="sans-serif" font-size="14" lengthAdjust="spacing" textLength="48" x="1748" y="796.5117">☐ false</text><line style="stroke:#A80036;stroke-width:1.0;" x1="1743" x2="1743" y1="780.9766" y2="801.4648"/><line style="stroke:#A80036;stroke-width:1.0;" x1="1656" x2="2149" y1="801.4648" y2="801.4648"/><text fill="#000000" font-family="sans-serif" font-size="14" lengthAdjust="spacing" textLength="29" x="1661" y="817">type</text><text fill="#000000" font-family="sans-serif" font-size="14" lengthAdjust="spacing" textLength="54" x="1748" y="817">number</text><line style="stroke:#A80036;stroke-width:1.0;" x1="1743" x2="1743" y1="801.4648" y2="821.9531"/><line style="stroke:#A80036;stroke-width:1.0;" x1="1656" x2="2149" y1="821.9531" y2="821.9531"/><text fill="#000000" font-family="sans-serif" font-size="14" lengthAdjust="spacing" textLength="54" x="1661" y="837.4883">sdfType</text><text fill="#000000" font-family="sans-serif" font-size="14" lengthAdjust="spacing" textLength="69" x="1748" y="837.4883">unix-time</text><line style="stroke:#A80036;stroke-width:1.0;" x1="1743" x2="1743" y1="821.9531" y2="842.4414"/><rect fill="none" height="102.4414" rx="5" ry="5" style="stroke:#A80036;stroke-width:1.5;" width="493" x="1656" y="740"/><rect fill="#FEFECE" height="159.9063" rx="5" ry="5" style="stroke:#FEFECE;stroke-width:1.5;" width="563" x="1621" y="860"/><text fill="#000000" font-family="sans-serif" font-size="14" lengthAdjust="spacing" textLength="33" x="1626" y="875.5352">label</text><text fill="#000000" font-family="sans-serif" font-size="14" lengthAdjust="spacing" textLength="148" x="1713" y="875.5352">Fractional Timestamp</text><line style="stroke:#A80036;stroke-width:1.0;" x1="1708" x2="1708" y1="860" y2="880.4883"/><line style="stroke:#A80036;stroke-width:1.0;" x1="1621" x2="2184" y1="880.4883" y2="880.4883"/><text fill="#000000" font-family="sans-serif" font-size="14" lengthAdjust="spacing" textLength="77" x="1626" y="896.0234">description</text><text fill="#000000" font-family="sans-serif" font-size="14" lengthAdjust="spacing" textLength="466" x="1713" y="896.0234">Fractional part of the timestamp when sub-second precision is used</text><text fill="#000000" font-family="sans-serif" font-size="14" lengthAdjust="spacing" textLength="157" x="1713" y="912.5117">(e.g., 0.23 for 230 ms).</text><line style="stroke:#A80036;stroke-width:1.0;" x1="1708" x2="1708" y1="880.4883" y2="917.4648"/><line style="stroke:#A80036;stroke-width:1.0;" x1="1621" x2="2184" y1="917.4648" y2="917.4648"/><text fill="#000000" font-family="sans-serif" font-size="14" lengthAdjust="spacing" textLength="55" x="1626" y="933">writable</text><text fill="#000000" font-family="sans-serif" font-size="14" lengthAdjust="spacing" textLength="48" x="1713" y="933">☐ false</text><line style="stroke:#A80036;stroke-width:1.0;" x1="1708" x2="1708" y1="917.4648" y2="937.9531"/><line style="stroke:#A80036;stroke-width:1.0;" x1="1621" x2="2184" y1="937.9531" y2="937.9531"/><text fill="#000000" font-family="sans-serif" font-size="14" lengthAdjust="spacing" textLength="29" x="1626" y="953.4883">type</text><text fill="#000000" font-family="sans-serif" font-size="14" lengthAdjust="spacing" textLength="54" x="1713" y="953.4883">number</text><line style="stroke:#A80036;stroke-width:1.0;" x1="1708" x2="1708" y1="937.9531" y2="958.4414"/><line style="stroke:#A80036;stroke-width:1.0;" x1="1621" x2="2184" y1="958.4414" y2="958.4414"/><text fill="#000000" font-family="sans-serif" font-size="14" lengthAdjust="spacing" textLength="27" x="1626" y="973.9766">unit</text><text fill="#000000" font-family="sans-serif" font-size="14" lengthAdjust="spacing" textLength="7" x="1713" y="973.9766">s</text><line style="stroke:#A80036;stroke-width:1.0;" x1="1708" x2="1708" y1="958.4414" y2="978.9297"/><line style="stroke:#A80036;stroke-width:1.0;" x1="1621" x2="2184" y1="978.9297" y2="978.9297"/><text fill="#000000" font-family="sans-serif" font-size="14" lengthAdjust="spacing" textLength="65" x="1626" y="994.4648">minimum</text><text fill="#000000" font-family="sans-serif" font-size="14" lengthAdjust="spacing" textLength="9" x="1713" y="994.4648">0</text><line style="stroke:#A80036;stroke-width:1.0;" x1="1708" x2="1708" y1="978.9297" y2="999.418"/><line style="stroke:#A80036;stroke-width:1.0;" x1="1621" x2="2184" y1="999.418" y2="999.418"/><text fill="#000000" font-family="sans-serif" font-size="14" lengthAdjust="spacing" textLength="69" x="1626" y="1014.9531">maximum</text><text fill="#000000" font-family="sans-serif" font-size="14" lengthAdjust="spacing" textLength="9" x="1713" y="1014.9531">1</text><line style="stroke:#A80036;stroke-width:1.0;" x1="1708" x2="1708" y1="999.418" y2="1019.9063"/><rect fill="none" height="159.9063" rx="5" ry="5" style="stroke:#A80036;stroke-width:1.5;" width="563" x="1621" y="860"/><rect fill="#FEFECE" height="20.4883" rx="5" ry="5" style="stroke:#FEFECE;stroke-width:1.5;" width="226" x="1268" y="861"/><text fill="#000000" font-family="sans-serif" font-size="14" lengthAdjust="spacing" textLength="194" x="1273" y="876.5352">Digital_Input_Counter_Reset</text><text fill="#000000" font-family="sans-serif" font-size="14" lengthAdjust="spacing" textLength="0" x="1489" y="876.5352"/><line style="stroke:#A80036;stroke-width:1.0;" x1="1472" x2="1472" y1="861" y2="881.4883"/><rect fill="none" height="20.4883" rx="5" ry="5" style="stroke:#A80036;stroke-width:1.5;" width="226" x="1268" y="861"/><rect fill="#FEFECE" height="40.9766" rx="5" ry="5" style="stroke:#FEFECE;stroke-width:1.5;" width="282" x="1761.5" y="1038.5"/><text fill="#000000" font-family="sans-serif" font-size="14" lengthAdjust="spacing" textLength="33" x="1766.5" y="1054.0352">label</text><text fill="#000000" font-family="sans-serif" font-size="14" lengthAdjust="spacing" textLength="185" x="1853.5" y="1054.0352">Digital Input Counter Reset</text><line style="stroke:#A80036;stroke-width:1.0;" x1="1848.5" x2="1848.5" y1="1038.5" y2="1058.9883"/><line style="stroke:#A80036;stroke-width:1.0;" x1="1761.5" x2="2043.5" y1="1058.9883" y2="1058.9883"/><text fill="#000000" font-family="sans-serif" font-size="14" lengthAdjust="spacing" textLength="77" x="1766.5" y="1074.5234">description</text><text fill="#000000" font-family="sans-serif" font-size="14" lengthAdjust="spacing" textLength="167" x="1853.5" y="1074.5234">Reset the Counter value.</text><line style="stroke:#A80036;stroke-width:1.0;" x1="1848.5" x2="1848.5" y1="1058.9883" y2="1079.4766"/><rect fill="none" height="40.9766" rx="5" ry="5" style="stroke:#A80036;stroke-width:1.5;" width="282" x="1761.5" y="1038.5"/><rect fill="#FEFECE" height="20.4883" rx="5" ry="5" style="stroke:#FEFECE;stroke-width:1.5;" width="406" x="1178" y="899"/><text fill="#000000" font-family="sans-serif" font-size="14" lengthAdjust="spacing" textLength="396" x="1183" y="914.5352">#/sdfObject/Digital_Input/sdfProperty/Digital_Input_State</text><rect fill="none" height="20.4883" rx="5" ry="5" style="stroke:#A80036;stroke-width:1.5;" width="406" x="1178" y="899"/><path d="M95,806 L108,806 C117.3406,806 126.8353,805.8896 136.4202,805.6839 " fill="none" style="stroke:#A80036;stroke-width:1.0;stroke-dasharray:3.0,3.0;"/><path d="M136.4943,808.7659 L138.7318,805.6283 L136.3462,802.6019 L144.1253,805.4987 L136.4943,808.7659 " fill="#A80036" style="stroke:#A80036;stroke-width:1.0;"/><ellipse cx="95" cy="806" fill="#A80036" rx="3" ry="3" style="stroke:#A80036;stroke-width:1.0;stroke-dasharray:3.0,3.0;"/><path d="M1484.5,433 L1497.5,433 C1654.9339,433 1500.1207,201.8644 1621,101 C1650.961,75.9998 1689.0795,61.6492 1727.5016,53.7619 " fill="none" style="stroke:#A80036;stroke-width:1.0;stroke-dasharray:3.0,3.0;"/><path d="M1728.0987,56.8364 L1729.8075,53.3141 L1726.9046,50.6874 L1735.1878,52.2694 L1728.0987,56.8364 " fill="#A80036" style="stroke:#A80036;stroke-width:1.0;"/><ellipse cx="1484.5" cy="433" fill="#A80036" rx="3" ry="3" style="stroke:#A80036;stroke-width:1.0;stroke-dasharray:3.0,3.0;"/><path d="M1484.5,453 L1497.5,453 C1622.2269,453 1521.3762,276.0459 1621,201 C1642.1635,185.0577 1666.7458,173.5939 1692.3954,165.4332 " fill="none" style="stroke:#A80036;stroke-width:1.0;stroke-dasharray:3.0,3.0;"/><path d="M1693.2814,168.3375 L1694.5736,164.7687 L1691.5093,162.5289 L1699.6562,163.2181 L1693.2814,168.3375 " fill="#A80036" style="stroke:#A80036;stroke-width:1.0;"/><ellipse cx="1484.5" cy="453" fill="#A80036" rx="3" ry="3" style="stroke:#A80036;stroke-width:1.0;stroke-dasharray:3.0,3.0;"/><path d="M1484.5,473 L1497.5,473 C1593.0589,473 1540.2438,348.0876 1621,297 C1623.8232,295.214 1626.6928,293.4888 1629.6046,291.8225 " fill="none" style="stroke:#A80036;stroke-width:1.0;stroke-dasharray:3.0,3.0;"/><path d="M1631.1174,294.5698 L1631.665,290.6879 L1628.0917,289.0752 L1636.4728,288.0403 L1631.1174,294.5698 " fill="#A80036" style="stroke:#A80036;stroke-width:1.0;"/><ellipse cx="1484.5" cy="473" fill="#A80036" rx="3" ry="3" style="stroke:#A80036;stroke-width:1.0;stroke-dasharray:3.0,3.0;"/><path d="M1484.5,494 L1497.5,494 C1567.2951,494 1557.2977,425.5197 1621,397 C1661.2939,378.9603 1707.5769,367.4211 1750.7997,360.0427 " fill="none" style="stroke:#A80036;stroke-width:1.0;stroke-dasharray:3.0,3.0;"/><path d="M1751.2954,363.0303 L1753.0404,359.6709 L1750.304,357.0551 L1758.2687,358.8034 L1751.2954,363.0303 " fill="#A80036" style="stroke:#A80036;stroke-width:1.0;"/><ellipse cx="1484.5" cy="494" fill="#A80036" rx="3" ry="3" style="stroke:#A80036;stroke-width:1.0;stroke-dasharray:3.0,3.0;"/><path d="M1484.5,514 L1497.5,514 C1535.6216,514 1575.6243,511.8717 1615.0254,508.5113 " fill="none" style="stroke:#A80036;stroke-width:1.0;stroke-dasharray:3.0,3.0;"/><path d="M1615.3007,511.6599 L1617.3868,508.3049 L1614.7501,505.3627 L1622.8969,507.8231 L1615.3007,511.6599 " fill="#A80036" style="stroke:#A80036;stroke-width:1.0;"/><ellipse cx="1484.5" cy="514" fill="#A80036" rx="3" ry="3" style="stroke:#A80036;stroke-width:1.0;stroke-dasharray:3.0,3.0;"/><path d="M1484.5,535 L1497.5,535 C1545.0902,535 1595.6119,538.3169 1644.2352,543.2069 " fill="none" style="stroke:#A80036;stroke-width:1.0;stroke-dasharray:3.0,3.0;"/><path d="M1643.9291,546.1959 L1646.477,543.4364 L1644.5414,540.2178 L1651.7078,543.9721 L1643.9291,546.1959 " fill="#A80036" style="stroke:#A80036;stroke-width:1.0;"/><ellipse cx="1484.5" cy="535" fill="#A80036" rx="3" ry="3" style="stroke:#A80036;stroke-width:1.0;stroke-dasharray:3.0,3.0;"/><path d="M1484.5,556 L1497.5,556 C1561.7176,556 1560.9199,608.3221 1621,631 C1643.4766,639.484 1667.5187,646.5479 1691.7271,652.4253 " fill="none" style="stroke:#A80036;stroke-width:1.0;stroke-dasharray:3.0,3.0;"/><path d="M1691.0126,655.432 L1693.9821,652.9611 L1692.4416,649.4186 L1699.2438,654.2115 L1691.0126,655.432 " fill="#A80036" style="stroke:#A80036;stroke-width:1.0;"/><ellipse cx="1484.5" cy="556" fill="#A80036" rx="3" ry="3" style="stroke:#A80036;stroke-width:1.0;stroke-dasharray:3.0,3.0;"/><path d="M1484.5,576 L1497.5,576 C1585.5822,576 1546.1016,684.646 1621,731 C1630.047,736.5991 1639.5369,741.6817 1649.3332,746.295 " fill="none" style="stroke:#A80036;stroke-width:1.0;stroke-dasharray:3.0,3.0;"/><path d="M1648.0854,749.0267 L1651.382,747.2308 L1650.581,743.5633 L1656.1625,749.4144 L1648.0854,749.0267 " fill="#A80036" style="stroke:#A80036;stroke-width:1.0;"/><ellipse cx="1484.5" cy="576" fill="#A80036" rx="3" ry="3" style="stroke:#A80036;stroke-width:1.0;stroke-dasharray:3.0,3.0;"/><path d="M1484.5,597 L1497.5,597 C1623.0257,597 1526.0095,768.9422 1621,851 C1622.6791,852.4505 1624.3819,853.8774 1626.1072,855.281 " fill="none" style="stroke:#A80036;stroke-width:1.0;stroke-dasharray:3.0,3.0;"/><path d="M1624.2338,857.6612 L1627.8923,856.6861 L1627.9806,852.9008 L1632.0577,859.9646 L1624.2338,857.6612 " fill="#A80036" style="stroke:#A80036;stroke-width:1.0;"/><ellipse cx="1484.5" cy="597" fill="#A80036" rx="3" ry="3" style="stroke:#A80036;stroke-width:1.0;stroke-dasharray:3.0,3.0;"/><path d="M1129,850 L1142,850 C1258.6646,850 1323.5681,713.5022 1355.2554,614.766 " fill="none" style="stroke:#A80036;stroke-width:1.0;stroke-dasharray:3.0,3.0;"/><path d="M1358.191,615.6927 L1355.9504,612.5643 L1352.3198,613.8392 L1357.5722,607.427 L1358.191,615.6927 " fill="#A80036" style="stroke:#A80036;stroke-width:1.0;"/><ellipse cx="1129" cy="850" fill="#A80036" rx="3" ry="3" style="stroke:#A80036;stroke-width:1.0;stroke-dasharray:3.0,3.0;"/><path d="M1482.5,871 L1495.5,871 C1536.1642,871 1555.6171,861.8891 1585,890 C1631.1118,934.1157 1572.682,987.3123 1621,1029 C1657.3184,1060.3347 1706.8818,1072.1109 1754.2759,1074.6975 " fill="none" style="stroke:#A80036;stroke-width:1.0;stroke-dasharray:3.0,3.0;"/><path d="M1754.1408,1077.7317 L1756.5516,1074.7989 L1754.4111,1071.6633 L1761.8614,1075.0353 L1754.1408,1077.7317 " fill="#A80036" style="stroke:#A80036;stroke-width:1.0;"/><ellipse cx="1482.5" cy="871" fill="#A80036" rx="3" ry="3" style="stroke:#A80036;stroke-width:1.0;stroke-dasharray:3.0,3.0;"/><path d="M1129,871 L1142,871 C1180.6243,871 1222.767,871 1260.7359,871 " fill="none" style="stroke:#A80036;stroke-width:1.0;stroke-dasharray:3.0,3.0;"/><path d="M1260.7359,874.0143 L1262.9966,871 L1260.7359,867.9857 L1268.2717,871 L1260.7359,874.0143 " fill="#A80036" style="stroke:#A80036;stroke-width:1.0;"/><ellipse cx="1129" cy="871" fill="#A80036" rx="3" ry="3" style="stroke:#A80036;stroke-width:1.0;stroke-dasharray:3.0,3.0;"/><path d="M1129,892 L1142,892 C1186.0616,892 1234.5864,894.9225 1276.2985,898.3441 " fill="none" style="stroke:#A80036;stroke-width:1.0;stroke-dasharray:3.0,3.0;"/><path d="M1276.0409,901.4267 L1278.6105,898.5373 L1276.5562,895.2614 L1284.0052,898.9881 L1276.0409,901.4267 " fill="#A80036" style="stroke:#A80036;stroke-width:1.0;"/><ellipse cx="1129" cy="892" fill="#A80036" rx="3" ry="3" style="stroke:#A80036;stroke-width:1.0;stroke-dasharray:3.0,3.0;"/><path d="M466,851 L479,851 C557.8523,851 644.3912,851 720.6333,851 " fill="none" style="stroke:#A80036;stroke-width:1.0;stroke-dasharray:3.0,3.0;"/><path d="M720.6333,854.1272 L722.9787,851 L720.6333,847.8728 L728.4514,851 L720.6333,854.1272 " fill="#A80036" style="stroke:#A80036;stroke-width:1.0;"/><ellipse cx="466" cy="851" fill="#A80036" rx="3" ry="3" style="stroke:#A80036;stroke-width:1.0;stroke-dasharray:3.0,3.0;"/><path d="M95,827 L108,827 C124.1536,827 127.9333,830.3271 144,832 C214.4063,839.3307 295.3315,844.5642 350.6831,847.6586 " fill="none" style="stroke:#A80036;stroke-width:1.0;stroke-dasharray:3.0,3.0;"/><path d="M350.5142,850.7133 L352.9742,847.7853 L350.8521,844.6038 L358.32,848.081 L350.5142,850.7133 " fill="#A80036" style="stroke:#A80036;stroke-width:1.0;"/><ellipse cx="95" cy="827" fill="#A80036" rx="3" ry="3" style="stroke:#A80036;stroke-width:1.0;stroke-dasharray:3.0,3.0;"/><!--MD5=[24b0b3459b98535033649cae0505c182]
@startjson
{
  "info": {
    "title": "OMA LwM2M Digital Input (Object ID 3200)",
    "version": "2021-02-11",
    "copyright": "Copyright (c) 2018-2020 IPSO",
    "license": "https://github.com/one-data-model/oneDM/blob/master/LICENSE"
  },
  "sdfObject": {
    "Digital_Input": {
      "label": "Digital Input",
      "description": "Generic digital input for non-specific sensors",
      "sdfProperty": {
        "Digital_Input_State": {
          "label": "Digital Input State",
          "description": "The current state of a digital input.",
          "writable": false,
          "type": "boolean"
        },
        "Digital_Input_Counter": {
          "label": "Digital Input Counter",
          "description": "The cumulative value of active state detected.",
          "writable": false,
          "type": "integer"
        },
        "Digital_Input_Polarity": {
          "label": "Digital Input Polarity",
          "description": "The polarity of the digital input as a Boolean (False = Normal, True\\n= Reversed).",
          "type": "boolean"
        },
        "Digital_Input_Debounce": {
          "label": "Digital Input Debounce",
          "description": "The debounce period in ms.",
          "type": "integer",
          "unit": "ms"
        },
        "Digital_Input_Edge_Selection": {
          "label": "Digital Input Edge Selection",
          "description": "The edge selection as an integer (1 = Falling edge, 2 = Rising edge,\\n3 = Both Rising and Falling edge).",
          "type": "integer",
          "minimum": 1,
          "maximum": 3
        },
        "Application_Type": {
          "label": "Application Type",
          "description": "The application type of the sensor or actuator as a string depending\\non the use case.",
          "type": "string"
        },
        "Sensor_Type": {
          "label": "Sensor Type",
          "description": "The type of the sensor (for instance PIR type).",
          "writable": false,
          "type": "string"
        },
        "Timestamp": {
          "label": "Timestamp",
          "description": "The timestamp of when the measurement was performed.",
          "writable": false,
          "type": "number",
          "sdfType": "unix-time"
        },
        "Fractional_Timestamp": {
          "label": "Fractional Timestamp",
          "description": "Fractional part of the timestamp when sub-second precision is used\\n(e.g., 0.23 for 230 ms).",
          "writable": false,
          "type": "number",
          "unit": "s",
          "minimum": 0,
          "maximum": 1
        }
      },
      "sdfAction": {
        "Digital_Input_Counter_Reset": {
          "label": "Digital Input Counter Reset",
          "description": "Reset the Counter value."
        }
      },
      "sdfRequired": [
        "#/sdfObject/Digital_Input/sdfProperty/Digital_Input_State"
      ]
    }
  }
}
@endjson

PlantUML version 1.2021.2(Sun Mar 07 13:10:27 EET 2021)
(GPL source distribution)
Java Runtime: OpenJDK Runtime Environment
JVM: OpenJDK 64-Bit Server VM
Default Encoding: UTF-8
Language: en
Country: FI
--></g></svg>