<?xml version="1.0" encoding="UTF-8" standalone="no"?><svg xmlns="http://www.w3.org/2000/svg" xmlns:xlink="http://www.w3.org/1999/xlink" contentScriptType="application/ecmascript" contentStyleType="text/css" height="517px" preserveAspectRatio="none" style="width:2252px;height:517px;" version="1.1" viewBox="0 0 2252 517" width="2252px" zoomAndPan="magnify"><defs/><g><rect fill="#FEFECE" height="40.9766" rx="5" ry="5" style="stroke:#FEFECE;stroke-width:1.5;" width="97" x="10" y="325.5"/><text fill="#000000" font-family="sans-serif" font-size="14" lengthAdjust="spacing" textLength="27" x="15" y="341.0352">info</text><text fill="#000000" font-family="sans-serif" font-size="14" lengthAdjust="spacing" textLength="0" x="102" y="341.0352"/><line style="stroke:#A80036;stroke-width:1.0;" x1="85" x2="85" y1="325.5" y2="345.9883"/><line style="stroke:#A80036;stroke-width:1.0;" x1="10" x2="107" y1="345.9883" y2="345.9883"/><text fill="#000000" font-family="sans-serif" font-size="14" lengthAdjust="spacing" textLength="65" x="15" y="361.5234">sdfObject</text><text fill="#000000" font-family="sans-serif" font-size="14" lengthAdjust="spacing" textLength="0" x="102" y="361.5234"/><line style="stroke:#A80036;stroke-width:1.0;" x1="85" x2="85" y1="345.9883" y2="366.4766"/><rect fill="none" height="40.9766" rx="5" ry="5" style="stroke:#A80036;stroke-width:1.5;" width="97" x="10" y="325.5"/><rect fill="#FEFECE" height="81.9531" rx="5" ry="5" style="stroke:#FEFECE;stroke-width:1.5;" width="547" x="144" y="270"/><text fill="#000000" font-family="sans-serif" font-size="14" lengthAdjust="spacing" textLength="26" x="149" y="285.5352">title</text><text fill="#000000" font-family="sans-serif" font-size="14" lengthAdjust="spacing" textLength="280" x="224" y="285.5352">OMA LwM2M Audio Clip (Object ID 3339)</text><line style="stroke:#A80036;stroke-width:1.0;" x1="219" x2="219" y1="270" y2="290.4883"/><line style="stroke:#A80036;stroke-width:1.0;" x1="144" x2="691" y1="290.4883" y2="290.4883"/><text fill="#000000" font-family="sans-serif" font-size="14" lengthAdjust="spacing" textLength="50" x="149" y="306.0234">version</text><text fill="#000000" font-family="sans-serif" font-size="14" lengthAdjust="spacing" textLength="88" x="224" y="306.0234">2021-02-11</text><line style="stroke:#A80036;stroke-width:1.0;" x1="219" x2="219" y1="290.4883" y2="310.9766"/><line style="stroke:#A80036;stroke-width:1.0;" x1="144" x2="691" y1="310.9766" y2="310.9766"/><text fill="#000000" font-family="sans-serif" font-size="14" lengthAdjust="spacing" textLength="65" x="149" y="326.5117">copyright</text><text fill="#000000" font-family="sans-serif" font-size="14" lengthAdjust="spacing" textLength="208" x="224" y="326.5117">Copyright (c) 2018-2020 IPSO</text><line style="stroke:#A80036;stroke-width:1.0;" x1="219" x2="219" y1="310.9766" y2="331.4648"/><line style="stroke:#A80036;stroke-width:1.0;" x1="144" x2="691" y1="331.4648" y2="331.4648"/><text fill="#000000" font-family="sans-serif" font-size="14" lengthAdjust="spacing" textLength="47" x="149" y="347">license</text><text fill="#000000" font-family="sans-serif" font-size="14" lengthAdjust="spacing" textLength="462" x="224" y="347">https://github.com/one-data-model/oneDM/blob/master/LICENSE</text><line style="stroke:#A80036;stroke-width:1.0;" x1="219" x2="219" y1="331.4648" y2="351.9531"/><rect fill="none" height="81.9531" rx="5" ry="5" style="stroke:#A80036;stroke-width:1.5;" width="547" x="144" y="270"/><rect fill="#FEFECE" height="20.4883" rx="5" ry="5" style="stroke:#FEFECE;stroke-width:1.5;" width="107" x="364" y="370"/><text fill="#000000" font-family="sans-serif" font-size="14" lengthAdjust="spacing" textLength="75" x="369" y="385.5352">Audio_Clip</text><text fill="#000000" font-family="sans-serif" font-size="14" lengthAdjust="spacing" textLength="0" x="466" y="385.5352"/><line style="stroke:#A80036;stroke-width:1.0;" x1="449" x2="449" y1="370" y2="390.4883"/><rect fill="none" height="20.4883" rx="5" ry="5" style="stroke:#A80036;stroke-width:1.5;" width="107" x="364" y="370"/><rect fill="#FEFECE" height="217.8594" rx="5" ry="5" style="stroke:#FEFECE;stroke-width:1.5;" width="582" x="728" y="271"/><text fill="#000000" font-family="sans-serif" font-size="14" lengthAdjust="spacing" textLength="33" x="733" y="286.5352">label</text><text fill="#000000" font-family="sans-serif" font-size="14" lengthAdjust="spacing" textLength="72" x="826" y="286.5352">Audio Clip</text><line style="stroke:#A80036;stroke-width:1.0;" x1="821" x2="821" y1="271" y2="291.4883"/><line style="stroke:#A80036;stroke-width:1.0;" x1="728" x2="1310" y1="291.4883" y2="291.4883"/><text fill="#000000" font-family="sans-serif" font-size="14" lengthAdjust="spacing" textLength="77" x="733" y="307.0234">description</text><text fill="#000000" font-family="sans-serif" font-size="14" lengthAdjust="spacing" textLength="395" x="826" y="307.0234">This IPSO object should be used for a speaker that plays a</text><text fill="#000000" font-family="sans-serif" font-size="14" lengthAdjust="spacing" textLength="453" x="826" y="323.5117">pre-recorded audio clip or an audio output that is sent elsewhere.</text><text fill="#000000" font-family="sans-serif" font-size="14" lengthAdjust="spacing" textLength="479" x="826" y="340">For example, an elevator which announces the floor of the building. A</text><text fill="#000000" font-family="sans-serif" font-size="14" lengthAdjust="spacing" textLength="448" x="826" y="356.4883">resource is provided to store the clip, a dimmer resource controls</text><text fill="#000000" font-family="sans-serif" font-size="14" lengthAdjust="spacing" textLength="439" x="826" y="372.9766">the relative sound level of the playback, and a duration resource</text><text fill="#000000" font-family="sans-serif" font-size="14" lengthAdjust="spacing" textLength="477" x="826" y="389.4648">limits the maximum playback time. After the duration time is reached,</text><text fill="#000000" font-family="sans-serif" font-size="14" lengthAdjust="spacing" textLength="447" x="826" y="405.9531">any remaining samples in the clip are ignored, and the clip player</text><text fill="#000000" font-family="sans-serif" font-size="14" lengthAdjust="spacing" textLength="226" x="826" y="422.4414">will be ready to play another clip.</text><line style="stroke:#A80036;stroke-width:1.0;" x1="821" x2="821" y1="291.4883" y2="427.3945"/><line style="stroke:#A80036;stroke-width:1.0;" x1="728" x2="1310" y1="427.3945" y2="427.3945"/><text fill="#000000" font-family="sans-serif" font-size="14" lengthAdjust="spacing" textLength="79" x="733" y="442.9297">sdfProperty</text><text fill="#000000" font-family="sans-serif" font-size="14" lengthAdjust="spacing" textLength="0" x="838" y="442.9297"/><line style="stroke:#A80036;stroke-width:1.0;" x1="821" x2="821" y1="427.3945" y2="447.8828"/><line style="stroke:#A80036;stroke-width:1.0;" x1="728" x2="1310" y1="447.8828" y2="447.8828"/><text fill="#000000" font-family="sans-serif" font-size="14" lengthAdjust="spacing" textLength="65" x="733" y="463.418">sdfAction</text><text fill="#000000" font-family="sans-serif" font-size="14" lengthAdjust="spacing" textLength="0" x="838" y="463.418"/><line style="stroke:#A80036;stroke-width:1.0;" x1="821" x2="821" y1="447.8828" y2="468.3711"/><line style="stroke:#A80036;stroke-width:1.0;" x1="728" x2="1310" y1="468.3711" y2="468.3711"/><text fill="#000000" font-family="sans-serif" font-size="14" lengthAdjust="spacing" textLength="83" x="733" y="483.9063">sdfRequired</text><text fill="#000000" font-family="sans-serif" font-size="14" lengthAdjust="spacing" textLength="0" x="838" y="483.9063"/><line style="stroke:#A80036;stroke-width:1.0;" x1="821" x2="821" y1="468.3711" y2="488.8594"/><rect fill="none" height="217.8594" rx="5" ry="5" style="stroke:#A80036;stroke-width:1.5;" width="582" x="728" y="271"/><rect fill="#FEFECE" height="81.9531" rx="5" ry="5" style="stroke:#FEFECE;stroke-width:1.5;" width="150" x="1418.5" y="258"/><text fill="#000000" font-family="sans-serif" font-size="14" lengthAdjust="spacing" textLength="27" x="1423.5" y="273.5352">Clip</text><text fill="#000000" font-family="sans-serif" font-size="14" lengthAdjust="spacing" textLength="0" x="1563.5" y="273.5352"/><line style="stroke:#A80036;stroke-width:1.0;" x1="1546.5" x2="1546.5" y1="258" y2="278.4883"/><line style="stroke:#A80036;stroke-width:1.0;" x1="1418.5" x2="1568.5" y1="278.4883" y2="278.4883"/><text fill="#000000" font-family="sans-serif" font-size="14" lengthAdjust="spacing" textLength="34" x="1423.5" y="294.0234">Level</text><text fill="#000000" font-family="sans-serif" font-size="14" lengthAdjust="spacing" textLength="0" x="1563.5" y="294.0234"/><line style="stroke:#A80036;stroke-width:1.0;" x1="1546.5" x2="1546.5" y1="278.4883" y2="298.9766"/><line style="stroke:#A80036;stroke-width:1.0;" x1="1418.5" x2="1568.5" y1="298.9766" y2="298.9766"/><text fill="#000000" font-family="sans-serif" font-size="14" lengthAdjust="spacing" textLength="60" x="1423.5" y="314.5117">Duration</text><text fill="#000000" font-family="sans-serif" font-size="14" lengthAdjust="spacing" textLength="0" x="1563.5" y="314.5117"/><line style="stroke:#A80036;stroke-width:1.0;" x1="1546.5" x2="1546.5" y1="298.9766" y2="319.4648"/><line style="stroke:#A80036;stroke-width:1.0;" x1="1418.5" x2="1568.5" y1="319.4648" y2="319.4648"/><text fill="#000000" font-family="sans-serif" font-size="14" lengthAdjust="spacing" textLength="118" x="1423.5" y="335">Application_Type</text><text fill="#000000" font-family="sans-serif" font-size="14" lengthAdjust="spacing" textLength="0" x="1563.5" y="335"/><line style="stroke:#A80036;stroke-width:1.0;" x1="1546.5" x2="1546.5" y1="319.4648" y2="339.9531"/><rect fill="none" height="81.9531" rx="5" ry="5" style="stroke:#A80036;stroke-width:1.5;" width="150" x="1418.5" y="258"/><rect fill="#FEFECE" height="98.4414" rx="5" ry="5" style="stroke:#FEFECE;stroke-width:1.5;" width="549" x="1684" y="10"/><text fill="#000000" font-family="sans-serif" font-size="14" lengthAdjust="spacing" textLength="33" x="1689" y="25.5352">label</text><text fill="#000000" font-family="sans-serif" font-size="14" lengthAdjust="spacing" textLength="27" x="1776" y="25.5352">Clip</text><line style="stroke:#A80036;stroke-width:1.0;" x1="1771" x2="1771" y1="10" y2="30.4883"/><line style="stroke:#A80036;stroke-width:1.0;" x1="1684" x2="2233" y1="30.4883" y2="30.4883"/><text fill="#000000" font-family="sans-serif" font-size="14" lengthAdjust="spacing" textLength="77" x="1689" y="46.0234">description</text><text fill="#000000" font-family="sans-serif" font-size="14" lengthAdjust="spacing" textLength="452" x="1776" y="46.0234">Audio clip that is playable (e.g., a short audio recording indicating</text><text fill="#000000" font-family="sans-serif" font-size="14" lengthAdjust="spacing" textLength="165" x="1776" y="62.5117">the floor in an elevator).</text><line style="stroke:#A80036;stroke-width:1.0;" x1="1771" x2="1771" y1="30.4883" y2="67.4648"/><line style="stroke:#A80036;stroke-width:1.0;" x1="1684" x2="2233" y1="67.4648" y2="67.4648"/><text fill="#000000" font-family="sans-serif" font-size="14" lengthAdjust="spacing" textLength="29" x="1689" y="83">type</text><text fill="#000000" font-family="sans-serif" font-size="14" lengthAdjust="spacing" textLength="40" x="1776" y="83">string</text><line style="stroke:#A80036;stroke-width:1.0;" x1="1771" x2="1771" y1="67.4648" y2="87.9531"/><line style="stroke:#A80036;stroke-width:1.0;" x1="1684" x2="2233" y1="87.9531" y2="87.9531"/><text fill="#000000" font-family="sans-serif" font-size="14" lengthAdjust="spacing" textLength="54" x="1689" y="103.4883">sdfType</text><text fill="#000000" font-family="sans-serif" font-size="14" lengthAdjust="spacing" textLength="77" x="1776" y="103.4883">byte-string</text><line style="stroke:#A80036;stroke-width:1.0;" x1="1771" x2="1771" y1="87.9531" y2="108.4414"/><rect fill="none" height="98.4414" rx="5" ry="5" style="stroke:#A80036;stroke-width:1.5;" width="549" x="1684" y="10"/><rect fill="#FEFECE" height="122.9297" rx="5" ry="5" style="stroke:#FEFECE;stroke-width:1.5;" width="475" x="1721" y="126.5"/><text fill="#000000" font-family="sans-serif" font-size="14" lengthAdjust="spacing" textLength="33" x="1726" y="142.0352">label</text><text fill="#000000" font-family="sans-serif" font-size="14" lengthAdjust="spacing" textLength="34" x="1813" y="142.0352">Level</text><line style="stroke:#A80036;stroke-width:1.0;" x1="1808" x2="1808" y1="126.5" y2="146.9883"/><line style="stroke:#A80036;stroke-width:1.0;" x1="1721" x2="2196" y1="146.9883" y2="146.9883"/><text fill="#000000" font-family="sans-serif" font-size="14" lengthAdjust="spacing" textLength="77" x="1726" y="162.5234">description</text><text fill="#000000" font-family="sans-serif" font-size="14" lengthAdjust="spacing" textLength="378" x="1813" y="162.5234">Used to represent a level control such as audio volume.</text><line style="stroke:#A80036;stroke-width:1.0;" x1="1808" x2="1808" y1="146.9883" y2="167.4766"/><line style="stroke:#A80036;stroke-width:1.0;" x1="1721" x2="2196" y1="167.4766" y2="167.4766"/><text fill="#000000" font-family="sans-serif" font-size="14" lengthAdjust="spacing" textLength="29" x="1726" y="183.0117">type</text><text fill="#000000" font-family="sans-serif" font-size="14" lengthAdjust="spacing" textLength="54" x="1813" y="183.0117">number</text><line style="stroke:#A80036;stroke-width:1.0;" x1="1808" x2="1808" y1="167.4766" y2="187.9648"/><line style="stroke:#A80036;stroke-width:1.0;" x1="1721" x2="2196" y1="187.9648" y2="187.9648"/><text fill="#000000" font-family="sans-serif" font-size="14" lengthAdjust="spacing" textLength="27" x="1726" y="203.5">unit</text><text fill="#000000" font-family="sans-serif" font-size="14" lengthAdjust="spacing" textLength="34" x="1813" y="203.5">/100</text><line style="stroke:#A80036;stroke-width:1.0;" x1="1808" x2="1808" y1="187.9648" y2="208.4531"/><line style="stroke:#A80036;stroke-width:1.0;" x1="1721" x2="2196" y1="208.4531" y2="208.4531"/><text fill="#000000" font-family="sans-serif" font-size="14" lengthAdjust="spacing" textLength="65" x="1726" y="223.9883">minimum</text><text fill="#000000" font-family="sans-serif" font-size="14" lengthAdjust="spacing" textLength="9" x="1813" y="223.9883">0</text><line style="stroke:#A80036;stroke-width:1.0;" x1="1808" x2="1808" y1="208.4531" y2="228.9414"/><line style="stroke:#A80036;stroke-width:1.0;" x1="1721" x2="2196" y1="228.9414" y2="228.9414"/><text fill="#000000" font-family="sans-serif" font-size="14" lengthAdjust="spacing" textLength="69" x="1726" y="244.4766">maximum</text><text fill="#000000" font-family="sans-serif" font-size="14" lengthAdjust="spacing" textLength="27" x="1813" y="244.4766">100</text><line style="stroke:#A80036;stroke-width:1.0;" x1="1808" x2="1808" y1="228.9414" y2="249.4297"/><rect fill="none" height="122.9297" rx="5" ry="5" style="stroke:#A80036;stroke-width:1.5;" width="475" x="1721" y="126.5"/><rect fill="#FEFECE" height="81.9531" rx="5" ry="5" style="stroke:#FEFECE;stroke-width:1.5;" width="369" x="1774" y="268"/><text fill="#000000" font-family="sans-serif" font-size="14" lengthAdjust="spacing" textLength="33" x="1779" y="283.5352">label</text><text fill="#000000" font-family="sans-serif" font-size="14" lengthAdjust="spacing" textLength="60" x="1866" y="283.5352">Duration</text><line style="stroke:#A80036;stroke-width:1.0;" x1="1861" x2="1861" y1="268" y2="288.4883"/><line style="stroke:#A80036;stroke-width:1.0;" x1="1774" x2="2143" y1="288.4883" y2="288.4883"/><text fill="#000000" font-family="sans-serif" font-size="14" lengthAdjust="spacing" textLength="77" x="1779" y="304.0234">description</text><text fill="#000000" font-family="sans-serif" font-size="14" lengthAdjust="spacing" textLength="272" x="1866" y="304.0234">The duration of the sound once trigger.</text><line style="stroke:#A80036;stroke-width:1.0;" x1="1861" x2="1861" y1="288.4883" y2="308.9766"/><line style="stroke:#A80036;stroke-width:1.0;" x1="1774" x2="2143" y1="308.9766" y2="308.9766"/><text fill="#000000" font-family="sans-serif" font-size="14" lengthAdjust="spacing" textLength="29" x="1779" y="324.5117">type</text><text fill="#000000" font-family="sans-serif" font-size="14" lengthAdjust="spacing" textLength="54" x="1866" y="324.5117">number</text><line style="stroke:#A80036;stroke-width:1.0;" x1="1861" x2="1861" y1="308.9766" y2="329.4648"/><line style="stroke:#A80036;stroke-width:1.0;" x1="1774" x2="2143" y1="329.4648" y2="329.4648"/><text fill="#000000" font-family="sans-serif" font-size="14" lengthAdjust="spacing" textLength="27" x="1779" y="345">unit</text><text fill="#000000" font-family="sans-serif" font-size="14" lengthAdjust="spacing" textLength="7" x="1866" y="345">s</text><line style="stroke:#A80036;stroke-width:1.0;" x1="1861" x2="1861" y1="329.4648" y2="349.9531"/><rect fill="none" height="81.9531" rx="5" ry="5" style="stroke:#A80036;stroke-width:1.5;" width="369" x="1774" y="268"/><rect fill="#FEFECE" height="77.9531" rx="5" ry="5" style="stroke:#FEFECE;stroke-width:1.5;" width="563" x="1677" y="368"/><text fill="#000000" font-family="sans-serif" font-size="14" lengthAdjust="spacing" textLength="33" x="1682" y="383.5352">label</text><text fill="#000000" font-family="sans-serif" font-size="14" lengthAdjust="spacing" textLength="115" x="1769" y="383.5352">Application Type</text><line style="stroke:#A80036;stroke-width:1.0;" x1="1764" x2="1764" y1="368" y2="388.4883"/><line style="stroke:#A80036;stroke-width:1.0;" x1="1677" x2="2240" y1="388.4883" y2="388.4883"/><text fill="#000000" font-family="sans-serif" font-size="14" lengthAdjust="spacing" textLength="77" x="1682" y="404.0234">description</text><text fill="#000000" font-family="sans-serif" font-size="14" lengthAdjust="spacing" textLength="466" x="1769" y="404.0234">The application type of the sensor or actuator as a string depending</text><text fill="#000000" font-family="sans-serif" font-size="14" lengthAdjust="spacing" textLength="110" x="1769" y="420.5117">on the use case.</text><line style="stroke:#A80036;stroke-width:1.0;" x1="1764" x2="1764" y1="388.4883" y2="425.4648"/><line style="stroke:#A80036;stroke-width:1.0;" x1="1677" x2="2240" y1="425.4648" y2="425.4648"/><text fill="#000000" font-family="sans-serif" font-size="14" lengthAdjust="spacing" textLength="29" x="1682" y="441">type</text><text fill="#000000" font-family="sans-serif" font-size="14" lengthAdjust="spacing" textLength="40" x="1769" y="441">string</text><line style="stroke:#A80036;stroke-width:1.0;" x1="1764" x2="1764" y1="425.4648" y2="445.9531"/><rect fill="none" height="77.9531" rx="5" ry="5" style="stroke:#A80036;stroke-width:1.5;" width="563" x="1677" y="368"/><rect fill="#FEFECE" height="20.4883" rx="5" ry="5" style="stroke:#FEFECE;stroke-width:1.5;" width="83" x="1452" y="416"/><text fill="#000000" font-family="sans-serif" font-size="14" lengthAdjust="spacing" textLength="51" x="1457" y="431.5352">Trigger</text><text fill="#000000" font-family="sans-serif" font-size="14" lengthAdjust="spacing" textLength="0" x="1530" y="431.5352"/><line style="stroke:#A80036;stroke-width:1.0;" x1="1513" x2="1513" y1="416" y2="436.4883"/><rect fill="none" height="20.4883" rx="5" ry="5" style="stroke:#A80036;stroke-width:1.5;" width="83" x="1452" y="416"/><rect fill="#FEFECE" height="40.9766" rx="5" ry="5" style="stroke:#FEFECE;stroke-width:1.5;" width="285" x="1816" y="464.5"/><text fill="#000000" font-family="sans-serif" font-size="14" lengthAdjust="spacing" textLength="33" x="1821" y="480.0352">label</text><text fill="#000000" font-family="sans-serif" font-size="14" lengthAdjust="spacing" textLength="51" x="1908" y="480.0352">Trigger</text><line style="stroke:#A80036;stroke-width:1.0;" x1="1903" x2="1903" y1="464.5" y2="484.9883"/><line style="stroke:#A80036;stroke-width:1.0;" x1="1816" x2="2101" y1="484.9883" y2="484.9883"/><text fill="#000000" font-family="sans-serif" font-size="14" lengthAdjust="spacing" textLength="77" x="1821" y="500.5234">description</text><text fill="#000000" font-family="sans-serif" font-size="14" lengthAdjust="spacing" textLength="188" x="1908" y="500.5234">Trigger initiating actuation.</text><line style="stroke:#A80036;stroke-width:1.0;" x1="1903" x2="1903" y1="484.9883" y2="505.4766"/><rect fill="none" height="40.9766" rx="5" ry="5" style="stroke:#A80036;stroke-width:1.5;" width="285" x="1816" y="464.5"/><rect fill="#FEFECE" height="20.4883" rx="5" ry="5" style="stroke:#FEFECE;stroke-width:1.5;" width="293" x="1347" y="457"/><text fill="#000000" font-family="sans-serif" font-size="14" lengthAdjust="spacing" textLength="283" x="1352" y="472.5352">#/sdfObject/Audio_Clip/sdfProperty/Clip</text><rect fill="none" height="20.4883" rx="5" ry="5" style="stroke:#A80036;stroke-width:1.5;" width="293" x="1347" y="457"/><path d="M95,335 L108,335 C117.3406,335 126.8353,334.8896 136.4202,334.6839 " fill="none" style="stroke:#A80036;stroke-width:1.0;stroke-dasharray:3.0,3.0;"/><path d="M136.4943,337.7659 L138.7318,334.6283 L136.3462,331.6019 L144.1253,334.4987 L136.4943,337.7659 " fill="#A80036" style="stroke:#A80036;stroke-width:1.0;"/><ellipse cx="95" cy="335" fill="#A80036" rx="3" ry="3" style="stroke:#A80036;stroke-width:1.0;stroke-dasharray:3.0,3.0;"/><path d="M1557,268 L1570,268 C1652.2522,268 1608.1509,162.0027 1677,117 C1679.6972,115.237 1682.4375,113.526 1685.217,111.8657 " fill="none" style="stroke:#A80036;stroke-width:1.0;stroke-dasharray:3.0,3.0;"/><path d="M1686.7303,114.4876 L1687.1835,110.7307 L1683.7038,109.2437 L1691.7719,108.0825 L1686.7303,114.4876 " fill="#A80036" style="stroke:#A80036;stroke-width:1.0;"/><ellipse cx="1557" cy="268" fill="#A80036" rx="3" ry="3" style="stroke:#A80036;stroke-width:1.0;stroke-dasharray:3.0,3.0;"/><path d="M1557,288 L1570,288 C1619.2712,288 1629.3355,271.4799 1677,259 C1689.1056,255.8304 1701.511,252.6066 1714.0437,249.3691 " fill="none" style="stroke:#A80036;stroke-width:1.0;stroke-dasharray:3.0,3.0;"/><path d="M1714.8067,252.3261 L1716.2615,248.7968 L1713.2807,246.4121 L1721.4363,247.4615 L1714.8067,252.3261 " fill="#A80036" style="stroke:#A80036;stroke-width:1.0;"/><ellipse cx="1557" cy="288" fill="#A80036" rx="3" ry="3" style="stroke:#A80036;stroke-width:1.0;stroke-dasharray:3.0,3.0;"/><path d="M1557,309 L1570,309 C1634.0825,309 1704.1185,309 1766.8337,309 " fill="none" style="stroke:#A80036;stroke-width:1.0;stroke-dasharray:3.0,3.0;"/><path d="M1766.8337,312.0444 L1769.117,309 L1766.8337,305.9556 L1774.4447,309 L1766.8337,312.0444 " fill="#A80036" style="stroke:#A80036;stroke-width:1.0;"/><ellipse cx="1557" cy="309" fill="#A80036" rx="3" ry="3" style="stroke:#A80036;stroke-width:1.0;stroke-dasharray:3.0,3.0;"/><path d="M1557,330 L1570,330 C1619.2712,330 1628.8835,348.3953 1677,359 C1688.6071,361.5582 1700.5094,364.0588 1712.5493,366.4901 " fill="none" style="stroke:#A80036;stroke-width:1.0;stroke-dasharray:3.0,3.0;"/><path d="M1711.9474,369.4953 L1714.8032,366.9416 L1713.1513,363.4849 L1720.0623,367.9949 L1711.9474,369.4953 " fill="#A80036" style="stroke:#A80036;stroke-width:1.0;"/><ellipse cx="1557" cy="330" fill="#A80036" rx="3" ry="3" style="stroke:#A80036;stroke-width:1.0;stroke-dasharray:3.0,3.0;"/><path d="M1298,379 L1311,379 C1351.4399,379 1392.9864,362.2423 1426.1556,344.0663 " fill="none" style="stroke:#A80036;stroke-width:1.0;stroke-dasharray:3.0,3.0;"/><path d="M1427.7134,346.8453 L1428.2398,342.8979 L1424.5978,341.2873 L1433.103,340.1717 L1427.7134,346.8453 " fill="#A80036" style="stroke:#A80036;stroke-width:1.0;"/><ellipse cx="1298" cy="379" fill="#A80036" rx="3" ry="3" style="stroke:#A80036;stroke-width:1.0;stroke-dasharray:3.0,3.0;"/><path d="M1524,426 L1537,426 C1600.5431,426 1614.2217,445.171 1677,455 C1719.6395,461.6759 1766.1551,467.3062 1808.8481,471.8211 " fill="none" style="stroke:#A80036;stroke-width:1.0;stroke-dasharray:3.0,3.0;"/><path d="M1808.5276,474.8799 L1811.1422,472.0615 L1809.1685,468.7623 L1816.4951,472.6223 L1808.5276,474.8799 " fill="#A80036" style="stroke:#A80036;stroke-width:1.0;"/><ellipse cx="1524" cy="426" fill="#A80036" rx="3" ry="3" style="stroke:#A80036;stroke-width:1.0;stroke-dasharray:3.0,3.0;"/><path d="M1298,423 L1311,423 C1356.2871,423 1407.9042,423.9401 1444.5729,424.7678 " fill="none" style="stroke:#A80036;stroke-width:1.0;stroke-dasharray:3.0,3.0;"/><path d="M1444.5031,427.8038 L1446.85,424.8201 L1444.6428,421.7317 L1452.1631,424.9423 L1444.5031,427.8038 " fill="#A80036" style="stroke:#A80036;stroke-width:1.0;"/><ellipse cx="1298" cy="423" fill="#A80036" rx="3" ry="3" style="stroke:#A80036;stroke-width:1.0;stroke-dasharray:3.0,3.0;"/><path d="M1298,467 L1311,467 C1320.4421,467 1330.1598,467 1339.9601,467 " fill="none" style="stroke:#A80036;stroke-width:1.0;stroke-dasharray:3.0,3.0;"/><path d="M1339.9601,470.0029 L1342.2122,467 L1339.9601,463.9971 L1347.4673,467 L1339.9601,470.0029 " fill="#A80036" style="stroke:#A80036;stroke-width:1.0;"/><ellipse cx="1298" cy="467" fill="#A80036" rx="3" ry="3" style="stroke:#A80036;stroke-width:1.0;stroke-dasharray:3.0,3.0;"/><path d="M460,380 L473,380 C553.2772,380 640.1996,380 720.5652,380 " fill="none" style="stroke:#A80036;stroke-width:1.0;stroke-dasharray:3.0,3.0;"/><path d="M720.5652,383.1026 L722.8921,380 L720.5652,376.8974 L728.3216,380 L720.5652,383.1026 " fill="#A80036" style="stroke:#A80036;stroke-width:1.0;"/><ellipse cx="460" cy="380" fill="#A80036" rx="3" ry="3" style="stroke:#A80036;stroke-width:1.0;stroke-dasharray:3.0,3.0;"/><path d="M95,356 L108,356 C124.1536,356 127.9333,359.3271 144,361 C217.0014,368.6009 301.3114,373.9471 356.6977,376.992 " fill="none" style="stroke:#A80036;stroke-width:1.0;stroke-dasharray:3.0,3.0;"/><path d="M356.532,380.0397 L358.9834,377.1163 L356.8635,373.9444 L364.3168,377.4064 L356.532,380.0397 " fill="#A80036" style="stroke:#A80036;stroke-width:1.0;"/><ellipse cx="95" cy="356" fill="#A80036" rx="3" ry="3" style="stroke:#A80036;stroke-width:1.0;stroke-dasharray:3.0,3.0;"/><!--MD5=[5f94e21a08949650f9b2afef2f4e2719]
@startjson
{
  "info": {
    "title": "OMA LwM2M Audio Clip (Object ID 3339)",
    "version": "2021-02-11",
    "copyright": "Copyright (c) 2018-2020 IPSO",
    "license": "https://github.com/one-data-model/oneDM/blob/master/LICENSE"
  },
  "sdfObject": {
    "Audio_Clip": {
      "label": "Audio Clip",
      "description": "This IPSO object should be used for a speaker that plays a\\npre-recorded audio clip or an audio output that is sent elsewhere.\\nFor example, an elevator which announces the floor of the building. A\\nresource is provided to store the clip, a dimmer resource controls\\nthe relative sound level of the playback, and a duration resource\\nlimits the maximum playback time. After the duration time is reached,\\nany remaining samples in the clip are ignored, and the clip player\\nwill be ready to play another clip.",
      "sdfProperty": {
        "Clip": {
          "label": "Clip",
          "description": "Audio clip that is playable (e.g., a short audio recording indicating\\nthe floor in an elevator).",
          "type": "string",
          "sdfType": "byte-string"
        },
        "Level": {
          "label": "Level",
          "description": "Used to represent a level control such as audio volume.",
          "type": "number",
          "unit": "/100",
          "minimum": 0,
          "maximum": 100
        },
        "Duration": {
          "label": "Duration",
          "description": "The duration of the sound once trigger.",
          "type": "number",
          "unit": "s"
        },
        "Application_Type": {
          "label": "Application Type",
          "description": "The application type of the sensor or actuator as a string depending\\non the use case.",
          "type": "string"
        }
      },
      "sdfAction": {
        "Trigger": {
          "label": "Trigger",
          "description": "Trigger initiating actuation."
        }
      },
      "sdfRequired": [
        "#/sdfObject/Audio_Clip/sdfProperty/Clip"
      ]
    }
  }
}
@endjson

PlantUML version 1.2021.2(Sun Mar 07 13:10:27 EET 2021)
(GPL source distribution)
Java Runtime: OpenJDK Runtime Environment
JVM: OpenJDK 64-Bit Server VM
Default Encoding: UTF-8
Language: en
Country: FI
--></g></svg>