<?xml version="1.0" encoding="UTF-8" standalone="no"?><svg xmlns="http://www.w3.org/2000/svg" xmlns:xlink="http://www.w3.org/1999/xlink" contentScriptType="application/ecmascript" contentStyleType="text/css" height="573px" preserveAspectRatio="none" style="width:2241px;height:573px;" version="1.1" viewBox="0 0 2241 573" width="2241px" zoomAndPan="magnify"><defs/><g><rect fill="#FEFECE" height="40.9766" rx="5" ry="5" style="stroke:#FEFECE;stroke-width:1.5;" width="97" x="10" y="228"/><text fill="#000000" font-family="sans-serif" font-size="14" lengthAdjust="spacing" textLength="27" x="15" y="243.5352">info</text><text fill="#000000" font-family="sans-serif" font-size="14" lengthAdjust="spacing" textLength="0" x="102" y="243.5352"/><line style="stroke:#A80036;stroke-width:1.0;" x1="85" x2="85" y1="228" y2="248.4883"/><line style="stroke:#A80036;stroke-width:1.0;" x1="10" x2="107" y1="248.4883" y2="248.4883"/><text fill="#000000" font-family="sans-serif" font-size="14" lengthAdjust="spacing" textLength="65" x="15" y="264.0234">sdfObject</text><text fill="#000000" font-family="sans-serif" font-size="14" lengthAdjust="spacing" textLength="0" x="102" y="264.0234"/><line style="stroke:#A80036;stroke-width:1.0;" x1="85" x2="85" y1="248.4883" y2="268.9766"/><rect fill="none" height="40.9766" rx="5" ry="5" style="stroke:#A80036;stroke-width:1.5;" width="97" x="10" y="228"/><rect fill="#FEFECE" height="81.9531" rx="5" ry="5" style="stroke:#FEFECE;stroke-width:1.5;" width="547" x="144" y="172.5"/><text fill="#000000" font-family="sans-serif" font-size="14" lengthAdjust="spacing" textLength="26" x="149" y="188.0352">title</text><text fill="#000000" font-family="sans-serif" font-size="14" lengthAdjust="spacing" textLength="304" x="224" y="188.0352">OMA LwM2M Digital Output (Object ID 3201)</text><line style="stroke:#A80036;stroke-width:1.0;" x1="219" x2="219" y1="172.5" y2="192.9883"/><line style="stroke:#A80036;stroke-width:1.0;" x1="144" x2="691" y1="192.9883" y2="192.9883"/><text fill="#000000" font-family="sans-serif" font-size="14" lengthAdjust="spacing" textLength="50" x="149" y="208.5234">version</text><text fill="#000000" font-family="sans-serif" font-size="14" lengthAdjust="spacing" textLength="88" x="224" y="208.5234">2021-02-11</text><line style="stroke:#A80036;stroke-width:1.0;" x1="219" x2="219" y1="192.9883" y2="213.4766"/><line style="stroke:#A80036;stroke-width:1.0;" x1="144" x2="691" y1="213.4766" y2="213.4766"/><text fill="#000000" font-family="sans-serif" font-size="14" lengthAdjust="spacing" textLength="65" x="149" y="229.0117">copyright</text><text fill="#000000" font-family="sans-serif" font-size="14" lengthAdjust="spacing" textLength="208" x="224" y="229.0117">Copyright (c) 2018-2020 IPSO</text><line style="stroke:#A80036;stroke-width:1.0;" x1="219" x2="219" y1="213.4766" y2="233.9648"/><line style="stroke:#A80036;stroke-width:1.0;" x1="144" x2="691" y1="233.9648" y2="233.9648"/><text fill="#000000" font-family="sans-serif" font-size="14" lengthAdjust="spacing" textLength="47" x="149" y="249.5">license</text><text fill="#000000" font-family="sans-serif" font-size="14" lengthAdjust="spacing" textLength="462" x="224" y="249.5">https://github.com/one-data-model/oneDM/blob/master/LICENSE</text><line style="stroke:#A80036;stroke-width:1.0;" x1="219" x2="219" y1="233.9648" y2="254.4531"/><rect fill="none" height="81.9531" rx="5" ry="5" style="stroke:#A80036;stroke-width:1.5;" width="547" x="144" y="172.5"/><rect fill="#FEFECE" height="20.4883" rx="5" ry="5" style="stroke:#FEFECE;stroke-width:1.5;" width="131" x="352" y="272.5"/><text fill="#000000" font-family="sans-serif" font-size="14" lengthAdjust="spacing" textLength="99" x="357" y="288.0352">Digital_Output</text><text fill="#000000" font-family="sans-serif" font-size="14" lengthAdjust="spacing" textLength="0" x="478" y="288.0352"/><line style="stroke:#A80036;stroke-width:1.0;" x1="461" x2="461" y1="272.5" y2="292.9883"/><rect fill="none" height="20.4883" rx="5" ry="5" style="stroke:#A80036;stroke-width:1.5;" width="131" x="352" y="272.5"/><rect fill="#FEFECE" height="102.4414" rx="5" ry="5" style="stroke:#FEFECE;stroke-width:1.5;" width="434" x="728" y="231.5"/><text fill="#000000" font-family="sans-serif" font-size="14" lengthAdjust="spacing" textLength="33" x="733" y="247.0352">label</text><text fill="#000000" font-family="sans-serif" font-size="14" lengthAdjust="spacing" textLength="96" x="826" y="247.0352">Digital Output</text><line style="stroke:#A80036;stroke-width:1.0;" x1="821" x2="821" y1="231.5" y2="251.9883"/><line style="stroke:#A80036;stroke-width:1.0;" x1="728" x2="1162" y1="251.9883" y2="251.9883"/><text fill="#000000" font-family="sans-serif" font-size="14" lengthAdjust="spacing" textLength="77" x="733" y="267.5234">description</text><text fill="#000000" font-family="sans-serif" font-size="14" lengthAdjust="spacing" textLength="331" x="826" y="267.5234">Generic digital output for non-specific actuators</text><line style="stroke:#A80036;stroke-width:1.0;" x1="821" x2="821" y1="251.9883" y2="272.4766"/><line style="stroke:#A80036;stroke-width:1.0;" x1="728" x2="1162" y1="272.4766" y2="272.4766"/><text fill="#000000" font-family="sans-serif" font-size="14" lengthAdjust="spacing" textLength="79" x="733" y="288.0117">sdfProperty</text><text fill="#000000" font-family="sans-serif" font-size="14" lengthAdjust="spacing" textLength="0" x="838" y="288.0117"/><line style="stroke:#A80036;stroke-width:1.0;" x1="821" x2="821" y1="272.4766" y2="292.9648"/><line style="stroke:#A80036;stroke-width:1.0;" x1="728" x2="1162" y1="292.9648" y2="292.9648"/><text fill="#000000" font-family="sans-serif" font-size="14" lengthAdjust="spacing" textLength="65" x="733" y="308.5">sdfAction</text><text fill="#000000" font-family="sans-serif" font-size="14" lengthAdjust="spacing" textLength="0" x="838" y="308.5"/><line style="stroke:#A80036;stroke-width:1.0;" x1="821" x2="821" y1="292.9648" y2="313.4531"/><line style="stroke:#A80036;stroke-width:1.0;" x1="728" x2="1162" y1="313.4531" y2="313.4531"/><text fill="#000000" font-family="sans-serif" font-size="14" lengthAdjust="spacing" textLength="83" x="733" y="328.9883">sdfRequired</text><text fill="#000000" font-family="sans-serif" font-size="14" lengthAdjust="spacing" textLength="0" x="838" y="328.9883"/><line style="stroke:#A80036;stroke-width:1.0;" x1="821" x2="821" y1="313.4531" y2="333.9414"/><rect fill="none" height="102.4414" rx="5" ry="5" style="stroke:#A80036;stroke-width:1.5;" width="434" x="728" y="231.5"/><rect fill="#FEFECE" height="102.4414" rx="5" ry="5" style="stroke:#FEFECE;stroke-width:1.5;" width="189" x="1319.5" y="174.5"/><text fill="#000000" font-family="sans-serif" font-size="14" lengthAdjust="spacing" textLength="140" x="1324.5" y="190.0352">Digital_Output_State</text><text fill="#000000" font-family="sans-serif" font-size="14" lengthAdjust="spacing" textLength="0" x="1503.5" y="190.0352"/><line style="stroke:#A80036;stroke-width:1.0;" x1="1486.5" x2="1486.5" y1="174.5" y2="194.9883"/><line style="stroke:#A80036;stroke-width:1.0;" x1="1319.5" x2="1508.5" y1="194.9883" y2="194.9883"/><text fill="#000000" font-family="sans-serif" font-size="14" lengthAdjust="spacing" textLength="157" x="1324.5" y="210.5234">Digital_Output_Polarity</text><text fill="#000000" font-family="sans-serif" font-size="14" lengthAdjust="spacing" textLength="0" x="1503.5" y="210.5234"/><line style="stroke:#A80036;stroke-width:1.0;" x1="1486.5" x2="1486.5" y1="194.9883" y2="215.4766"/><line style="stroke:#A80036;stroke-width:1.0;" x1="1319.5" x2="1508.5" y1="215.4766" y2="215.4766"/><text fill="#000000" font-family="sans-serif" font-size="14" lengthAdjust="spacing" textLength="118" x="1324.5" y="231.0117">Application_Type</text><text fill="#000000" font-family="sans-serif" font-size="14" lengthAdjust="spacing" textLength="0" x="1503.5" y="231.0117"/><line style="stroke:#A80036;stroke-width:1.0;" x1="1486.5" x2="1486.5" y1="215.4766" y2="235.9648"/><line style="stroke:#A80036;stroke-width:1.0;" x1="1319.5" x2="1508.5" y1="235.9648" y2="235.9648"/><text fill="#000000" font-family="sans-serif" font-size="14" lengthAdjust="spacing" textLength="76" x="1324.5" y="251.5">Timestamp</text><text fill="#000000" font-family="sans-serif" font-size="14" lengthAdjust="spacing" textLength="0" x="1503.5" y="251.5"/><line style="stroke:#A80036;stroke-width:1.0;" x1="1486.5" x2="1486.5" y1="235.9648" y2="256.4531"/><line style="stroke:#A80036;stroke-width:1.0;" x1="1319.5" x2="1508.5" y1="256.4531" y2="256.4531"/><text fill="#000000" font-family="sans-serif" font-size="14" lengthAdjust="spacing" textLength="151" x="1324.5" y="271.9883">Fractional_Timestamp</text><text fill="#000000" font-family="sans-serif" font-size="14" lengthAdjust="spacing" textLength="0" x="1503.5" y="271.9883"/><line style="stroke:#A80036;stroke-width:1.0;" x1="1486.5" x2="1486.5" y1="256.4531" y2="276.9414"/><rect fill="none" height="102.4414" rx="5" ry="5" style="stroke:#A80036;stroke-width:1.5;" width="189" x="1319.5" y="174.5"/><rect fill="#FEFECE" height="61.4648" rx="5" ry="5" style="stroke:#FEFECE;stroke-width:1.5;" width="345" x="1775" y="10"/><text fill="#000000" font-family="sans-serif" font-size="14" lengthAdjust="spacing" textLength="33" x="1780" y="25.5352">label</text><text fill="#000000" font-family="sans-serif" font-size="14" lengthAdjust="spacing" textLength="134" x="1867" y="25.5352">Digital Output State</text><line style="stroke:#A80036;stroke-width:1.0;" x1="1862" x2="1862" y1="10" y2="30.4883"/><line style="stroke:#A80036;stroke-width:1.0;" x1="1775" x2="2120" y1="30.4883" y2="30.4883"/><text fill="#000000" font-family="sans-serif" font-size="14" lengthAdjust="spacing" textLength="77" x="1780" y="46.0234">description</text><text fill="#000000" font-family="sans-serif" font-size="14" lengthAdjust="spacing" textLength="248" x="1867" y="46.0234">The current state of a digital output.</text><line style="stroke:#A80036;stroke-width:1.0;" x1="1862" x2="1862" y1="30.4883" y2="50.9766"/><line style="stroke:#A80036;stroke-width:1.0;" x1="1775" x2="2120" y1="50.9766" y2="50.9766"/><text fill="#000000" font-family="sans-serif" font-size="14" lengthAdjust="spacing" textLength="29" x="1780" y="66.5117">type</text><text fill="#000000" font-family="sans-serif" font-size="14" lengthAdjust="spacing" textLength="56" x="1867" y="66.5117">boolean</text><line style="stroke:#A80036;stroke-width:1.0;" x1="1862" x2="1862" y1="50.9766" y2="71.4648"/><rect fill="none" height="61.4648" rx="5" ry="5" style="stroke:#A80036;stroke-width:1.5;" width="345" x="1775" y="10"/><rect fill="#FEFECE" height="77.9531" rx="5" ry="5" style="stroke:#FEFECE;stroke-width:1.5;" width="563" x="1666" y="89.5"/><text fill="#000000" font-family="sans-serif" font-size="14" lengthAdjust="spacing" textLength="33" x="1671" y="105.0352">label</text><text fill="#000000" font-family="sans-serif" font-size="14" lengthAdjust="spacing" textLength="151" x="1758" y="105.0352">Digital Output Polarity</text><line style="stroke:#A80036;stroke-width:1.0;" x1="1753" x2="1753" y1="89.5" y2="109.9883"/><line style="stroke:#A80036;stroke-width:1.0;" x1="1666" x2="2229" y1="109.9883" y2="109.9883"/><text fill="#000000" font-family="sans-serif" font-size="14" lengthAdjust="spacing" textLength="77" x="1671" y="125.5234">description</text><text fill="#000000" font-family="sans-serif" font-size="14" lengthAdjust="spacing" textLength="466" x="1758" y="125.5234">The polarity of the digital output as a Boolean (False = Normal, True</text><text fill="#000000" font-family="sans-serif" font-size="14" lengthAdjust="spacing" textLength="86" x="1758" y="142.0117">= Reversed).</text><line style="stroke:#A80036;stroke-width:1.0;" x1="1753" x2="1753" y1="109.9883" y2="146.9648"/><line style="stroke:#A80036;stroke-width:1.0;" x1="1666" x2="2229" y1="146.9648" y2="146.9648"/><text fill="#000000" font-family="sans-serif" font-size="14" lengthAdjust="spacing" textLength="29" x="1671" y="162.5">type</text><text fill="#000000" font-family="sans-serif" font-size="14" lengthAdjust="spacing" textLength="56" x="1758" y="162.5">boolean</text><line style="stroke:#A80036;stroke-width:1.0;" x1="1753" x2="1753" y1="146.9648" y2="167.4531"/><rect fill="none" height="77.9531" rx="5" ry="5" style="stroke:#A80036;stroke-width:1.5;" width="563" x="1666" y="89.5"/><rect fill="#FEFECE" height="77.9531" rx="5" ry="5" style="stroke:#FEFECE;stroke-width:1.5;" width="563" x="1666" y="185.5"/><text fill="#000000" font-family="sans-serif" font-size="14" lengthAdjust="spacing" textLength="33" x="1671" y="201.0352">label</text><text fill="#000000" font-family="sans-serif" font-size="14" lengthAdjust="spacing" textLength="115" x="1758" y="201.0352">Application Type</text><line style="stroke:#A80036;stroke-width:1.0;" x1="1753" x2="1753" y1="185.5" y2="205.9883"/><line style="stroke:#A80036;stroke-width:1.0;" x1="1666" x2="2229" y1="205.9883" y2="205.9883"/><text fill="#000000" font-family="sans-serif" font-size="14" lengthAdjust="spacing" textLength="77" x="1671" y="221.5234">description</text><text fill="#000000" font-family="sans-serif" font-size="14" lengthAdjust="spacing" textLength="466" x="1758" y="221.5234">The application type of the sensor or actuator as a string depending</text><text fill="#000000" font-family="sans-serif" font-size="14" lengthAdjust="spacing" textLength="110" x="1758" y="238.0117">on the use case.</text><line style="stroke:#A80036;stroke-width:1.0;" x1="1753" x2="1753" y1="205.9883" y2="242.9648"/><line style="stroke:#A80036;stroke-width:1.0;" x1="1666" x2="2229" y1="242.9648" y2="242.9648"/><text fill="#000000" font-family="sans-serif" font-size="14" lengthAdjust="spacing" textLength="29" x="1671" y="258.5">type</text><text fill="#000000" font-family="sans-serif" font-size="14" lengthAdjust="spacing" textLength="40" x="1758" y="258.5">string</text><line style="stroke:#A80036;stroke-width:1.0;" x1="1753" x2="1753" y1="242.9648" y2="263.4531"/><rect fill="none" height="77.9531" rx="5" ry="5" style="stroke:#A80036;stroke-width:1.5;" width="563" x="1666" y="185.5"/><rect fill="#FEFECE" height="102.4414" rx="5" ry="5" style="stroke:#FEFECE;stroke-width:1.5;" width="493" x="1701" y="281.5"/><text fill="#000000" font-family="sans-serif" font-size="14" lengthAdjust="spacing" textLength="33" x="1706" y="297.0352">label</text><text fill="#000000" font-family="sans-serif" font-size="14" lengthAdjust="spacing" textLength="76" x="1793" y="297.0352">Timestamp</text><line style="stroke:#A80036;stroke-width:1.0;" x1="1788" x2="1788" y1="281.5" y2="301.9883"/><line style="stroke:#A80036;stroke-width:1.0;" x1="1701" x2="2194" y1="301.9883" y2="301.9883"/><text fill="#000000" font-family="sans-serif" font-size="14" lengthAdjust="spacing" textLength="77" x="1706" y="317.5234">description</text><text fill="#000000" font-family="sans-serif" font-size="14" lengthAdjust="spacing" textLength="396" x="1793" y="317.5234">The timestamp of when the measurement was performed.</text><line style="stroke:#A80036;stroke-width:1.0;" x1="1788" x2="1788" y1="301.9883" y2="322.4766"/><line style="stroke:#A80036;stroke-width:1.0;" x1="1701" x2="2194" y1="322.4766" y2="322.4766"/><text fill="#000000" font-family="sans-serif" font-size="14" lengthAdjust="spacing" textLength="55" x="1706" y="338.0117">writable</text><text fill="#000000" font-family="sans-serif" font-size="14" lengthAdjust="spacing" textLength="48" x="1793" y="338.0117">☐ false</text><line style="stroke:#A80036;stroke-width:1.0;" x1="1788" x2="1788" y1="322.4766" y2="342.9648"/><line style="stroke:#A80036;stroke-width:1.0;" x1="1701" x2="2194" y1="342.9648" y2="342.9648"/><text fill="#000000" font-family="sans-serif" font-size="14" lengthAdjust="spacing" textLength="29" x="1706" y="358.5">type</text><text fill="#000000" font-family="sans-serif" font-size="14" lengthAdjust="spacing" textLength="54" x="1793" y="358.5">number</text><line style="stroke:#A80036;stroke-width:1.0;" x1="1788" x2="1788" y1="342.9648" y2="363.4531"/><line style="stroke:#A80036;stroke-width:1.0;" x1="1701" x2="2194" y1="363.4531" y2="363.4531"/><text fill="#000000" font-family="sans-serif" font-size="14" lengthAdjust="spacing" textLength="54" x="1706" y="378.9883">sdfType</text><text fill="#000000" font-family="sans-serif" font-size="14" lengthAdjust="spacing" textLength="69" x="1793" y="378.9883">unix-time</text><line style="stroke:#A80036;stroke-width:1.0;" x1="1788" x2="1788" y1="363.4531" y2="383.9414"/><rect fill="none" height="102.4414" rx="5" ry="5" style="stroke:#A80036;stroke-width:1.5;" width="493" x="1701" y="281.5"/><rect fill="#FEFECE" height="159.9063" rx="5" ry="5" style="stroke:#FEFECE;stroke-width:1.5;" width="563" x="1666" y="401.5"/><text fill="#000000" font-family="sans-serif" font-size="14" lengthAdjust="spacing" textLength="33" x="1671" y="417.0352">label</text><text fill="#000000" font-family="sans-serif" font-size="14" lengthAdjust="spacing" textLength="148" x="1758" y="417.0352">Fractional Timestamp</text><line style="stroke:#A80036;stroke-width:1.0;" x1="1753" x2="1753" y1="401.5" y2="421.9883"/><line style="stroke:#A80036;stroke-width:1.0;" x1="1666" x2="2229" y1="421.9883" y2="421.9883"/><text fill="#000000" font-family="sans-serif" font-size="14" lengthAdjust="spacing" textLength="77" x="1671" y="437.5234">description</text><text fill="#000000" font-family="sans-serif" font-size="14" lengthAdjust="spacing" textLength="466" x="1758" y="437.5234">Fractional part of the timestamp when sub-second precision is used</text><text fill="#000000" font-family="sans-serif" font-size="14" lengthAdjust="spacing" textLength="157" x="1758" y="454.0117">(e.g., 0.23 for 230 ms).</text><line style="stroke:#A80036;stroke-width:1.0;" x1="1753" x2="1753" y1="421.9883" y2="458.9648"/><line style="stroke:#A80036;stroke-width:1.0;" x1="1666" x2="2229" y1="458.9648" y2="458.9648"/><text fill="#000000" font-family="sans-serif" font-size="14" lengthAdjust="spacing" textLength="55" x="1671" y="474.5">writable</text><text fill="#000000" font-family="sans-serif" font-size="14" lengthAdjust="spacing" textLength="48" x="1758" y="474.5">☐ false</text><line style="stroke:#A80036;stroke-width:1.0;" x1="1753" x2="1753" y1="458.9648" y2="479.4531"/><line style="stroke:#A80036;stroke-width:1.0;" x1="1666" x2="2229" y1="479.4531" y2="479.4531"/><text fill="#000000" font-family="sans-serif" font-size="14" lengthAdjust="spacing" textLength="29" x="1671" y="494.9883">type</text><text fill="#000000" font-family="sans-serif" font-size="14" lengthAdjust="spacing" textLength="54" x="1758" y="494.9883">number</text><line style="stroke:#A80036;stroke-width:1.0;" x1="1753" x2="1753" y1="479.4531" y2="499.9414"/><line style="stroke:#A80036;stroke-width:1.0;" x1="1666" x2="2229" y1="499.9414" y2="499.9414"/><text fill="#000000" font-family="sans-serif" font-size="14" lengthAdjust="spacing" textLength="27" x="1671" y="515.4766">unit</text><text fill="#000000" font-family="sans-serif" font-size="14" lengthAdjust="spacing" textLength="7" x="1758" y="515.4766">s</text><line style="stroke:#A80036;stroke-width:1.0;" x1="1753" x2="1753" y1="499.9414" y2="520.4297"/><line style="stroke:#A80036;stroke-width:1.0;" x1="1666" x2="2229" y1="520.4297" y2="520.4297"/><text fill="#000000" font-family="sans-serif" font-size="14" lengthAdjust="spacing" textLength="65" x="1671" y="535.9648">minimum</text><text fill="#000000" font-family="sans-serif" font-size="14" lengthAdjust="spacing" textLength="9" x="1758" y="535.9648">0</text><line style="stroke:#A80036;stroke-width:1.0;" x1="1753" x2="1753" y1="520.4297" y2="540.918"/><line style="stroke:#A80036;stroke-width:1.0;" x1="1666" x2="2229" y1="540.918" y2="540.918"/><text fill="#000000" font-family="sans-serif" font-size="14" lengthAdjust="spacing" textLength="69" x="1671" y="556.4531">maximum</text><text fill="#000000" font-family="sans-serif" font-size="14" lengthAdjust="spacing" textLength="9" x="1758" y="556.4531">1</text><line style="stroke:#A80036;stroke-width:1.0;" x1="1753" x2="1753" y1="540.918" y2="561.4063"/><rect fill="none" height="159.9063" rx="5" ry="5" style="stroke:#A80036;stroke-width:1.5;" width="563" x="1666" y="401.5"/><rect fill="#FEFECE" height="15" rx="5" ry="5" style="stroke:#FEFECE;stroke-width:1.5;" width="30" x="1402" y="294.5"/><rect fill="none" height="15" rx="5" ry="5" style="stroke:#A80036;stroke-width:1.5;" width="30" x="1402" y="294.5"/><rect fill="#FEFECE" height="20.4883" rx="5" ry="5" style="stroke:#FEFECE;stroke-width:1.5;" width="430" x="1199" y="328.5"/><text fill="#000000" font-family="sans-serif" font-size="14" lengthAdjust="spacing" textLength="420" x="1204" y="344.0352">#/sdfObject/Digital_Output/sdfProperty/Digital_Output_State</text><rect fill="none" height="20.4883" rx="5" ry="5" style="stroke:#A80036;stroke-width:1.5;" width="430" x="1199" y="328.5"/><path d="M95,237.5 L108,237.5 C117.3406,237.5 126.8353,237.3896 136.4202,237.1839 " fill="none" style="stroke:#A80036;stroke-width:1.0;stroke-dasharray:3.0,3.0;"/><path d="M136.4943,240.2659 L138.7318,237.1283 L136.3462,234.1019 L144.1253,236.9987 L136.4943,240.2659 " fill="#A80036" style="stroke:#A80036;stroke-width:1.0;"/><ellipse cx="95" cy="237.5" fill="#A80036" rx="3" ry="3" style="stroke:#A80036;stroke-width:1.0;stroke-dasharray:3.0,3.0;"/><path d="M1497.5,184.5 L1510.5,184.5 C1593.6435,184.5 1588.3468,110.2123 1666,80.5 C1697.876,68.3033 1733.0727,59.7784 1767.4599,53.8312 " fill="none" style="stroke:#A80036;stroke-width:1.0;stroke-dasharray:3.0,3.0;"/><path d="M1767.9821,56.9457 L1769.7958,53.4395 L1766.9376,50.7166 L1775.2463,52.5256 L1767.9821,56.9457 " fill="#A80036" style="stroke:#A80036;stroke-width:1.0;"/><ellipse cx="1497.5" cy="184.5" fill="#A80036" rx="3" ry="3" style="stroke:#A80036;stroke-width:1.0;stroke-dasharray:3.0,3.0;"/><path d="M1497.5,204.5 L1510.5,204.5 C1580.7226,204.5 1596.8338,188.6344 1666,176.5 C1680.2175,174.0057 1694.8428,171.4567 1709.5984,168.8979 " fill="none" style="stroke:#A80036;stroke-width:1.0;stroke-dasharray:3.0,3.0;"/><path d="M1710.1339,171.9886 L1711.9164,168.4963 L1709.0629,165.8072 L1717.3251,167.5591 L1710.1339,171.9886 " fill="#A80036" style="stroke:#A80036;stroke-width:1.0;"/><ellipse cx="1497.5" cy="204.5" fill="#A80036" rx="3" ry="3" style="stroke:#A80036;stroke-width:1.0;stroke-dasharray:3.0,3.0;"/><path d="M1497.5,224.5 L1510.5,224.5 C1558.4339,224.5 1609.3286,224.5 1658.7948,224.5 " fill="none" style="stroke:#A80036;stroke-width:1.0;stroke-dasharray:3.0,3.0;"/><path d="M1658.7948,227.5424 L1661.0766,224.5 L1658.7948,221.4576 L1666.4009,224.5 L1658.7948,227.5424 " fill="#A80036" style="stroke:#A80036;stroke-width:1.0;"/><ellipse cx="1497.5" cy="224.5" fill="#A80036" rx="3" ry="3" style="stroke:#A80036;stroke-width:1.0;stroke-dasharray:3.0,3.0;"/><path d="M1497.5,245.5 L1510.5,245.5 C1521.1504,245.5 1603.6049,261.6401 1694.033,280.0166 " fill="none" style="stroke:#A80036;stroke-width:1.0;stroke-dasharray:3.0,3.0;"/><path d="M1693.4339,282.9618 L1696.2419,280.4659 L1694.632,277.0714 L1701.396,281.5142 L1693.4339,282.9618 " fill="#A80036" style="stroke:#A80036;stroke-width:1.0;"/><ellipse cx="1497.5" cy="245.5" fill="#A80036" rx="3" ry="3" style="stroke:#A80036;stroke-width:1.0;stroke-dasharray:3.0,3.0;"/><path d="M1497.5,266.5 L1510.5,266.5 C1564.2782,266.5 1588.9361,250.7745 1630,285.5 C1668.3125,317.8988 1630.2062,357.3385 1666,392.5 C1667.2606,393.7383 1668.5383,394.9594 1669.8324,396.1636 " fill="none" style="stroke:#A80036;stroke-width:1.0;stroke-dasharray:3.0,3.0;"/><path d="M1667.7638,398.4746 L1671.5657,397.7151 L1671.9011,393.8526 L1675.6099,401.3352 L1667.7638,398.4746 " fill="#A80036" style="stroke:#A80036;stroke-width:1.0;"/><ellipse cx="1497.5" cy="266.5" fill="#A80036" rx="3" ry="3" style="stroke:#A80036;stroke-width:1.0;stroke-dasharray:3.0,3.0;"/><path d="M1150,281.5 L1163,281.5 C1212.9169,281.5 1267.1104,270.7785 1312.2812,258.7181 " fill="none" style="stroke:#A80036;stroke-width:1.0;stroke-dasharray:3.0,3.0;"/><path d="M1313.0912,261.7012 L1314.5185,258.1106 L1311.4711,255.735 L1319.739,256.693 L1313.0912,261.7012 " fill="#A80036" style="stroke:#A80036;stroke-width:1.0;"/><ellipse cx="1150" cy="281.5" fill="#A80036" rx="3" ry="3" style="stroke:#A80036;stroke-width:1.0;stroke-dasharray:3.0,3.0;"/><path d="M1150,302.5 L1163,302.5 C1249.4355,302.5 1352.6475,302.5 1394.4879,302.5 " fill="none" style="stroke:#A80036;stroke-width:1.0;stroke-dasharray:3.0,3.0;"/><path d="M1394.4879,305.5107 L1396.7459,302.5 L1394.4879,299.4893 L1402.0145,302.5 L1394.4879,305.5107 " fill="#A80036" style="stroke:#A80036;stroke-width:1.0;"/><ellipse cx="1150" cy="302.5" fill="#A80036" rx="3" ry="3" style="stroke:#A80036;stroke-width:1.0;stroke-dasharray:3.0,3.0;"/><path d="M1150,323.5 L1163,323.5 C1203.4361,323.5 1247.4782,325.4716 1287.1966,327.9853 " fill="none" style="stroke:#A80036;stroke-width:1.0;stroke-dasharray:3.0,3.0;"/><path d="M1286.9928,331.1387 L1289.5617,328.1381 L1287.4004,324.8318 L1295.0803,328.4948 L1286.9928,331.1387 " fill="#A80036" style="stroke:#A80036;stroke-width:1.0;"/><ellipse cx="1150" cy="323.5" fill="#A80036" rx="3" ry="3" style="stroke:#A80036;stroke-width:1.0;stroke-dasharray:3.0,3.0;"/><path d="M472,282.5 L485,282.5 C561.7399,282.5 645.6889,282.5 720.5934,282.5 " fill="none" style="stroke:#A80036;stroke-width:1.0;stroke-dasharray:3.0,3.0;"/><path d="M720.5934,285.5739 L722.8988,282.5 L720.5934,279.4261 L728.2782,282.5 L720.5934,285.5739 " fill="#A80036" style="stroke:#A80036;stroke-width:1.0;"/><ellipse cx="472" cy="282.5" fill="#A80036" rx="3" ry="3" style="stroke:#A80036;stroke-width:1.0;stroke-dasharray:3.0,3.0;"/><path d="M95,258.5 L108,258.5 C124.1536,258.5 127.9333,261.8271 144,263.5 C211.924,270.5722 289.6383,275.6926 344.7348,278.8233 " fill="none" style="stroke:#A80036;stroke-width:1.0;stroke-dasharray:3.0,3.0;"/><path d="M344.5634,281.8717 L347.0211,278.9519 L344.9063,275.775 L352.3557,279.2519 L344.5634,281.8717 " fill="#A80036" style="stroke:#A80036;stroke-width:1.0;"/><ellipse cx="95" cy="258.5" fill="#A80036" rx="3" ry="3" style="stroke:#A80036;stroke-width:1.0;stroke-dasharray:3.0,3.0;"/><!--MD5=[771e34969eb1b309d3c0cf139665aa9a]
@startjson
{
  "info": {
    "title": "OMA LwM2M Digital Output (Object ID 3201)",
    "version": "2021-02-11",
    "copyright": "Copyright (c) 2018-2020 IPSO",
    "license": "https://github.com/one-data-model/oneDM/blob/master/LICENSE"
  },
  "sdfObject": {
    "Digital_Output": {
      "label": "Digital Output",
      "description": "Generic digital output for non-specific actuators",
      "sdfProperty": {
        "Digital_Output_State": {
          "label": "Digital Output State",
          "description": "The current state of a digital output.",
          "type": "boolean"
        },
        "Digital_Output_Polarity": {
          "label": "Digital Output Polarity",
          "description": "The polarity of the digital output as a Boolean (False = Normal, True\\n= Reversed).",
          "type": "boolean"
        },
        "Application_Type": {
          "label": "Application Type",
          "description": "The application type of the sensor or actuator as a string depending\\non the use case.",
          "type": "string"
        },
        "Timestamp": {
          "label": "Timestamp",
          "description": "The timestamp of when the measurement was performed.",
          "writable": false,
          "type": "number",
          "sdfType": "unix-time"
        },
        "Fractional_Timestamp": {
          "label": "Fractional Timestamp",
          "description": "Fractional part of the timestamp when sub-second precision is used\\n(e.g., 0.23 for 230 ms).",
          "writable": false,
          "type": "number",
          "unit": "s",
          "minimum": 0,
          "maximum": 1
        }
      },
      "sdfAction": {},
      "sdfRequired": [
        "#/sdfObject/Digital_Output/sdfProperty/Digital_Output_State"
      ]
    }
  }
}
@endjson

PlantUML version 1.2021.2(Sun Mar 07 13:10:27 EET 2021)
(GPL source distribution)
Java Runtime: OpenJDK Runtime Environment
JVM: OpenJDK 64-Bit Server VM
Default Encoding: UTF-8
Language: en
Country: FI
--></g></svg>