<?xml version="1.0" encoding="UTF-8" standalone="no"?><svg xmlns="http://www.w3.org/2000/svg" xmlns:xlink="http://www.w3.org/1999/xlink" contentScriptType="application/ecmascript" contentStyleType="text/css" height="179px" preserveAspectRatio="none" style="width:2372px;height:179px;" version="1.1" viewBox="0 0 2372 179" width="2372px" zoomAndPan="magnify"><defs/><g><rect fill="#FEFECE" height="40.9766" rx="5" ry="5" style="stroke:#FEFECE;stroke-width:1.5;" width="97" x="10" y="65.5"/><text fill="#000000" font-family="sans-serif" font-size="14" lengthAdjust="spacing" textLength="27" x="15" y="81.0352">info</text><text fill="#000000" font-family="sans-serif" font-size="14" lengthAdjust="spacing" textLength="0" x="102" y="81.0352"/><line style="stroke:#A80036;stroke-width:1.0;" x1="85" x2="85" y1="65.5" y2="85.9883"/><line style="stroke:#A80036;stroke-width:1.0;" x1="10" x2="107" y1="85.9883" y2="85.9883"/><text fill="#000000" font-family="sans-serif" font-size="14" lengthAdjust="spacing" textLength="65" x="15" y="101.5234">sdfObject</text><text fill="#000000" font-family="sans-serif" font-size="14" lengthAdjust="spacing" textLength="0" x="102" y="101.5234"/><line style="stroke:#A80036;stroke-width:1.0;" x1="85" x2="85" y1="85.9883" y2="106.4766"/><rect fill="none" height="40.9766" rx="5" ry="5" style="stroke:#A80036;stroke-width:1.5;" width="97" x="10" y="65.5"/><rect fill="#FEFECE" height="81.9531" rx="5" ry="5" style="stroke:#FEFECE;stroke-width:1.5;" width="614" x="144" y="10"/><text fill="#000000" font-family="sans-serif" font-size="14" lengthAdjust="spacing" textLength="65" x="149" y="25.5352">copyright</text><text fill="#000000" font-family="sans-serif" font-size="14" lengthAdjust="spacing" textLength="529" x="224" y="25.5352">Copyright 2016-2019 Open Connectivity Foundation, Inc. All rights reserved.</text><line style="stroke:#A80036;stroke-width:1.0;" x1="219" x2="219" y1="10" y2="30.4883"/><line style="stroke:#A80036;stroke-width:1.0;" x1="144" x2="758" y1="30.4883" y2="30.4883"/><text fill="#000000" font-family="sans-serif" font-size="14" lengthAdjust="spacing" textLength="47" x="149" y="46.0234">license</text><text fill="#000000" font-family="sans-serif" font-size="14" lengthAdjust="spacing" textLength="462" x="224" y="46.0234">https://github.com/one-data-model/oneDM/blob/master/LICENSE</text><line style="stroke:#A80036;stroke-width:1.0;" x1="219" x2="219" y1="30.4883" y2="50.9766"/><line style="stroke:#A80036;stroke-width:1.0;" x1="144" x2="758" y1="50.9766" y2="50.9766"/><text fill="#000000" font-family="sans-serif" font-size="14" lengthAdjust="spacing" textLength="26" x="149" y="66.5117">title</text><text fill="#000000" font-family="sans-serif" font-size="14" lengthAdjust="spacing" textLength="227" x="224" y="66.5117">Context Tester for Glucose Meter</text><line style="stroke:#A80036;stroke-width:1.0;" x1="219" x2="219" y1="50.9766" y2="71.4648"/><line style="stroke:#A80036;stroke-width:1.0;" x1="144" x2="758" y1="71.4648" y2="71.4648"/><text fill="#000000" font-family="sans-serif" font-size="14" lengthAdjust="spacing" textLength="50" x="149" y="87">version</text><text fill="#000000" font-family="sans-serif" font-size="14" lengthAdjust="spacing" textLength="88" x="224" y="87">2019-03-22</text><line style="stroke:#A80036;stroke-width:1.0;" x1="219" x2="219" y1="71.4648" y2="91.9531"/><rect fill="none" height="81.9531" rx="5" ry="5" style="stroke:#A80036;stroke-width:1.5;" width="614" x="144" y="10"/><rect fill="#FEFECE" height="20.4883" rx="5" ry="5" style="stroke:#FEFECE;stroke-width:1.5;" width="128" x="387" y="110"/><text fill="#000000" font-family="sans-serif" font-size="14" lengthAdjust="spacing" textLength="96" x="392" y="125.5352">glucose.tester</text><text fill="#000000" font-family="sans-serif" font-size="14" lengthAdjust="spacing" textLength="0" x="510" y="125.5352"/><line style="stroke:#A80036;stroke-width:1.0;" x1="493" x2="493" y1="110" y2="130.4883"/><rect fill="none" height="20.4883" rx="5" ry="5" style="stroke:#A80036;stroke-width:1.5;" width="128" x="387" y="110"/><rect fill="#FEFECE" height="94.4414" rx="5" ry="5" style="stroke:#FEFECE;stroke-width:1.5;" width="562" x="795" y="73"/><text fill="#000000" font-family="sans-serif" font-size="14" lengthAdjust="spacing" textLength="77" x="800" y="88.5352">description</text><text fill="#000000" font-family="sans-serif" font-size="14" lengthAdjust="spacing" textLength="430" x="893" y="88.5352">This Resource describes the Properties associated with context</text><text fill="#000000" font-family="sans-serif" font-size="14" lengthAdjust="spacing" textLength="448" x="893" y="105.0234">tester. The tester Property is a read-only value that is provided by</text><text fill="#000000" font-family="sans-serif" font-size="14" lengthAdjust="spacing" textLength="459" x="893" y="121.5117">the Server where especially hcp stands for HealthCare Professional.</text><line style="stroke:#A80036;stroke-width:1.0;" x1="888" x2="888" y1="73" y2="126.4648"/><line style="stroke:#A80036;stroke-width:1.0;" x1="795" x2="1357" y1="126.4648" y2="126.4648"/><text fill="#000000" font-family="sans-serif" font-size="14" lengthAdjust="spacing" textLength="79" x="800" y="142">sdfProperty</text><text fill="#000000" font-family="sans-serif" font-size="14" lengthAdjust="spacing" textLength="0" x="905" y="142"/><line style="stroke:#A80036;stroke-width:1.0;" x1="888" x2="888" y1="126.4648" y2="146.9531"/><line style="stroke:#A80036;stroke-width:1.0;" x1="795" x2="1357" y1="146.9531" y2="146.9531"/><text fill="#000000" font-family="sans-serif" font-size="14" lengthAdjust="spacing" textLength="83" x="800" y="162.4883">sdfRequired</text><text fill="#000000" font-family="sans-serif" font-size="14" lengthAdjust="spacing" textLength="0" x="905" y="162.4883"/><line style="stroke:#A80036;stroke-width:1.0;" x1="888" x2="888" y1="146.9531" y2="167.4414"/><rect fill="none" height="94.4414" rx="5" ry="5" style="stroke:#A80036;stroke-width:1.5;" width="562" x="795" y="73"/><rect fill="#FEFECE" height="20.4883" rx="5" ry="5" style="stroke:#FEFECE;stroke-width:1.5;" width="71" x="1521.5" y="106"/><text fill="#000000" font-family="sans-serif" font-size="14" lengthAdjust="spacing" textLength="39" x="1526.5" y="121.5352">tester</text><text fill="#000000" font-family="sans-serif" font-size="14" lengthAdjust="spacing" textLength="0" x="1587.5" y="121.5352"/><line style="stroke:#A80036;stroke-width:1.0;" x1="1570.5" x2="1570.5" y1="106" y2="126.4883"/><rect fill="none" height="20.4883" rx="5" ry="5" style="stroke:#A80036;stroke-width:1.5;" width="71" x="1521.5" y="106"/><rect fill="#FEFECE" height="98.4414" rx="5" ry="5" style="stroke:#FEFECE;stroke-width:1.5;" width="531" x="1757" y="67"/><text fill="#000000" font-family="sans-serif" font-size="14" lengthAdjust="spacing" textLength="77" x="1762" y="82.5352">description</text><text fill="#000000" font-family="sans-serif" font-size="14" lengthAdjust="spacing" textLength="434" x="1849" y="82.5352">The possible cases of testers who may perform the blood sugar</text><text fill="#000000" font-family="sans-serif" font-size="14" lengthAdjust="spacing" textLength="98" x="1849" y="99.0234">measurement.</text><line style="stroke:#A80036;stroke-width:1.0;" x1="1844" x2="1844" y1="67" y2="103.9766"/><line style="stroke:#A80036;stroke-width:1.0;" x1="1757" x2="2288" y1="103.9766" y2="103.9766"/><text fill="#000000" font-family="sans-serif" font-size="14" lengthAdjust="spacing" textLength="39" x="1762" y="119.5117">enum</text><text fill="#000000" font-family="sans-serif" font-size="14" lengthAdjust="spacing" textLength="0" x="1861" y="119.5117"/><line style="stroke:#A80036;stroke-width:1.0;" x1="1844" x2="1844" y1="103.9766" y2="124.4648"/><line style="stroke:#A80036;stroke-width:1.0;" x1="1757" x2="2288" y1="124.4648" y2="124.4648"/><text fill="#000000" font-family="sans-serif" font-size="14" lengthAdjust="spacing" textLength="55" x="1762" y="140">writable</text><text fill="#000000" font-family="sans-serif" font-size="14" lengthAdjust="spacing" textLength="48" x="1849" y="140">☐ false</text><line style="stroke:#A80036;stroke-width:1.0;" x1="1844" x2="1844" y1="124.4648" y2="144.9531"/><line style="stroke:#A80036;stroke-width:1.0;" x1="1757" x2="2288" y1="144.9531" y2="144.9531"/><text fill="#000000" font-family="sans-serif" font-size="14" lengthAdjust="spacing" textLength="29" x="1762" y="160.4883">type</text><text fill="#000000" font-family="sans-serif" font-size="14" lengthAdjust="spacing" textLength="40" x="1849" y="160.4883">string</text><line style="stroke:#A80036;stroke-width:1.0;" x1="1844" x2="1844" y1="144.9531" y2="165.4414"/><rect fill="none" height="98.4414" rx="5" ry="5" style="stroke:#A80036;stroke-width:1.5;" width="531" x="1757" y="67"/><rect fill="#FEFECE" height="61.4648" rx="5" ry="5" style="stroke:#FEFECE;stroke-width:1.5;" width="35" x="2325" y="72.5"/><text fill="#000000" font-family="sans-serif" font-size="14" lengthAdjust="spacing" textLength="24" x="2330" y="88.0352">self</text><line style="stroke:#A80036;stroke-width:1.0;" x1="2325" x2="2360" y1="92.9883" y2="92.9883"/><text fill="#000000" font-family="sans-serif" font-size="14" lengthAdjust="spacing" textLength="25" x="2330" y="108.5234">hcp</text><line style="stroke:#A80036;stroke-width:1.0;" x1="2325" x2="2360" y1="113.4766" y2="113.4766"/><text fill="#000000" font-family="sans-serif" font-size="14" lengthAdjust="spacing" textLength="21" x="2330" y="129.0117">lab</text><rect fill="none" height="61.4648" rx="5" ry="5" style="stroke:#A80036;stroke-width:1.5;" width="35" x="2325" y="72.5"/><rect fill="#FEFECE" height="20.4883" rx="5" ry="5" style="stroke:#FEFECE;stroke-width:1.5;" width="326" x="1394" y="144"/><text fill="#000000" font-family="sans-serif" font-size="14" lengthAdjust="spacing" textLength="316" x="1399" y="159.5352">#/sdfObject/glucose.tester/sdfProperty/tester</text><rect fill="none" height="20.4883" rx="5" ry="5" style="stroke:#A80036;stroke-width:1.5;" width="326" x="1394" y="144"/><path d="M95,75 L108,75 C117.4068,75 126.9554,74.9088 136.5926,74.7376 " fill="none" style="stroke:#A80036;stroke-width:1.0;stroke-dasharray:3.0,3.0;"/><path d="M136.6543,77.8363 L138.9166,74.6914 L136.5309,71.6389 L144.3394,74.5834 L136.6543,77.8363 " fill="#A80036" style="stroke:#A80036;stroke-width:1.0;"/><ellipse cx="95" cy="75" fill="#A80036" rx="3" ry="3" style="stroke:#A80036;stroke-width:1.0;stroke-dasharray:3.0,3.0;"/><path d="M2276,103 L2289,103 C2298.394,103 2308.7247,103 2317.7508,103 " fill="none" style="stroke:#A80036;stroke-width:1.0;stroke-dasharray:3.0,3.0;"/><path d="M2317.7508,106.016 L2320.0128,103 L2317.7508,99.984 L2325.2907,103 L2317.7508,106.016 " fill="#A80036" style="stroke:#A80036;stroke-width:1.0;"/><ellipse cx="2276" cy="103" fill="#A80036" rx="3" ry="3" style="stroke:#A80036;stroke-width:1.0;stroke-dasharray:3.0,3.0;"/><path d="M1581.5,116 L1594.5,116 C1644.7252,116 1698.2696,116 1749.8688,116 " fill="none" style="stroke:#A80036;stroke-width:1.0;stroke-dasharray:3.0,3.0;"/><path d="M1749.8688,119.0393 L1752.1482,116 L1749.8688,112.9607 L1757.467,116 L1749.8688,119.0393 " fill="#A80036" style="stroke:#A80036;stroke-width:1.0;"/><ellipse cx="1581.5" cy="116" fill="#A80036" rx="3" ry="3" style="stroke:#A80036;stroke-width:1.0;stroke-dasharray:3.0,3.0;"/><path d="M1345,119 L1358,119 C1411.7989,119 1473.7902,117.8846 1513.9818,117.0141 " fill="none" style="stroke:#A80036;stroke-width:1.0;stroke-dasharray:3.0,3.0;"/><path d="M1514.0499,120.1096 L1516.3034,116.963 L1513.9136,113.9186 L1521.7205,116.8437 L1514.0499,120.1096 " fill="#A80036" style="stroke:#A80036;stroke-width:1.0;"/><ellipse cx="1345" cy="119" fill="#A80036" rx="3" ry="3" style="stroke:#A80036;stroke-width:1.0;stroke-dasharray:3.0,3.0;"/><path d="M1345,151 L1358,151 C1367.3145,151 1376.8746,151.0334 1386.5246,151.0932 " fill="none" style="stroke:#A80036;stroke-width:1.0;stroke-dasharray:3.0,3.0;"/><path d="M1386.5032,154.1954 L1388.8512,151.1093 L1386.546,147.9911 L1394.28,151.1467 L1386.5032,154.1954 " fill="#A80036" style="stroke:#A80036;stroke-width:1.0;"/><ellipse cx="1345" cy="151" fill="#A80036" rx="3" ry="3" style="stroke:#A80036;stroke-width:1.0;stroke-dasharray:3.0,3.0;"/><path d="M503.5,120 L516.5,120 C604.6707,120 700.664,120 787.8229,120 " fill="none" style="stroke:#A80036;stroke-width:1.0;stroke-dasharray:3.0,3.0;"/><path d="M787.8229,123.0392 L790.1023,120 L787.8229,116.9608 L795.4209,120 L787.8229,123.0392 " fill="#A80036" style="stroke:#A80036;stroke-width:1.0;"/><ellipse cx="503.5" cy="120" fill="#A80036" rx="3" ry="3" style="stroke:#A80036;stroke-width:1.0;stroke-dasharray:3.0,3.0;"/><path d="M95,96 L108,96 C124.1536,96 127.927,99.388 144,101 C224.505,109.0741 317.273,114.2524 379.4733,117.1308 " fill="none" style="stroke:#A80036;stroke-width:1.0;stroke-dasharray:3.0,3.0;"/><path d="M379.3306,120.2548 L381.8163,117.2379 L379.616,114.0069 L387.2831,117.4876 L379.3306,120.2548 " fill="#A80036" style="stroke:#A80036;stroke-width:1.0;"/><ellipse cx="95" cy="96" fill="#A80036" rx="3" ry="3" style="stroke:#A80036;stroke-width:1.0;stroke-dasharray:3.0,3.0;"/><!--MD5=[095b34f7cd859e523c82ae7a8173e8a3]
@startjson
{
  "info": {
    "copyright": "Copyright 2016-2019 Open Connectivity Foundation, Inc. All rights reserved.",
    "license": "https://github.com/one-data-model/oneDM/blob/master/LICENSE",
    "title": "Context Tester for Glucose Meter",
    "version": "2019-03-22"
  },
  "sdfObject": {
    "glucose.tester": {
      "description": "This Resource describes the Properties associated with context\\ntester. The tester Property is a read-only value that is provided by\\nthe Server where especially hcp stands for HealthCare Professional.",
      "sdfProperty": {
        "tester": {
          "description": "The possible cases of testers who may perform the blood sugar\\nmeasurement.",
          "enum": [
            "self",
            "hcp",
            "lab"
          ],
          "writable": false,
          "type": "string"
        }
      },
      "sdfRequired": [
        "#/sdfObject/glucose.tester/sdfProperty/tester"
      ]
    }
  }
}
@endjson

PlantUML version 1.2021.2(Sun Mar 07 13:10:27 EET 2021)
(GPL source distribution)
Java Runtime: OpenJDK Runtime Environment
JVM: OpenJDK 64-Bit Server VM
Default Encoding: UTF-8
Language: en
Country: FI
--></g></svg>