<?xml version="1.0" encoding="UTF-8" standalone="no"?><svg xmlns="http://www.w3.org/2000/svg" xmlns:xlink="http://www.w3.org/1999/xlink" contentScriptType="application/ecmascript" contentStyleType="text/css" height="597px" preserveAspectRatio="none" style="width:2363px;height:597px;" version="1.1" viewBox="0 0 2363 597" width="2363px" zoomAndPan="magnify"><defs/><g><rect fill="#FEFECE" height="40.9766" rx="5" ry="5" style="stroke:#FEFECE;stroke-width:1.5;" width="97" x="10" y="245.5"/><text fill="#000000" font-family="sans-serif" font-size="14" lengthAdjust="spacing" textLength="27" x="15" y="261.0352">info</text><text fill="#000000" font-family="sans-serif" font-size="14" lengthAdjust="spacing" textLength="0" x="102" y="261.0352"/><line style="stroke:#A80036;stroke-width:1.0;" x1="85" x2="85" y1="245.5" y2="265.9883"/><line style="stroke:#A80036;stroke-width:1.0;" x1="10" x2="107" y1="265.9883" y2="265.9883"/><text fill="#000000" font-family="sans-serif" font-size="14" lengthAdjust="spacing" textLength="65" x="15" y="281.5234">sdfObject</text><text fill="#000000" font-family="sans-serif" font-size="14" lengthAdjust="spacing" textLength="0" x="102" y="281.5234"/><line style="stroke:#A80036;stroke-width:1.0;" x1="85" x2="85" y1="265.9883" y2="286.4766"/><rect fill="none" height="40.9766" rx="5" ry="5" style="stroke:#A80036;stroke-width:1.5;" width="97" x="10" y="245.5"/><rect fill="#FEFECE" height="81.9531" rx="5" ry="5" style="stroke:#FEFECE;stroke-width:1.5;" width="547" x="144" y="190"/><text fill="#000000" font-family="sans-serif" font-size="14" lengthAdjust="spacing" textLength="26" x="149" y="205.5352">title</text><text fill="#000000" font-family="sans-serif" font-size="14" lengthAdjust="spacing" textLength="291" x="224" y="205.5352">OMA LwM2M Push button (Object ID 3347)</text><line style="stroke:#A80036;stroke-width:1.0;" x1="219" x2="219" y1="190" y2="210.4883"/><line style="stroke:#A80036;stroke-width:1.0;" x1="144" x2="691" y1="210.4883" y2="210.4883"/><text fill="#000000" font-family="sans-serif" font-size="14" lengthAdjust="spacing" textLength="50" x="149" y="226.0234">version</text><text fill="#000000" font-family="sans-serif" font-size="14" lengthAdjust="spacing" textLength="88" x="224" y="226.0234">2021-02-11</text><line style="stroke:#A80036;stroke-width:1.0;" x1="219" x2="219" y1="210.4883" y2="230.9766"/><line style="stroke:#A80036;stroke-width:1.0;" x1="144" x2="691" y1="230.9766" y2="230.9766"/><text fill="#000000" font-family="sans-serif" font-size="14" lengthAdjust="spacing" textLength="65" x="149" y="246.5117">copyright</text><text fill="#000000" font-family="sans-serif" font-size="14" lengthAdjust="spacing" textLength="208" x="224" y="246.5117">Copyright (c) 2018-2020 IPSO</text><line style="stroke:#A80036;stroke-width:1.0;" x1="219" x2="219" y1="230.9766" y2="251.4648"/><line style="stroke:#A80036;stroke-width:1.0;" x1="144" x2="691" y1="251.4648" y2="251.4648"/><text fill="#000000" font-family="sans-serif" font-size="14" lengthAdjust="spacing" textLength="47" x="149" y="267">license</text><text fill="#000000" font-family="sans-serif" font-size="14" lengthAdjust="spacing" textLength="462" x="224" y="267">https://github.com/one-data-model/oneDM/blob/master/LICENSE</text><line style="stroke:#A80036;stroke-width:1.0;" x1="219" x2="219" y1="251.4648" y2="271.9531"/><rect fill="none" height="81.9531" rx="5" ry="5" style="stroke:#A80036;stroke-width:1.5;" width="547" x="144" y="190"/><rect fill="#FEFECE" height="20.4883" rx="5" ry="5" style="stroke:#FEFECE;stroke-width:1.5;" width="118" x="358.5" y="290"/><text fill="#000000" font-family="sans-serif" font-size="14" lengthAdjust="spacing" textLength="86" x="363.5" y="305.5352">Push_button</text><text fill="#000000" font-family="sans-serif" font-size="14" lengthAdjust="spacing" textLength="0" x="471.5" y="305.5352"/><line style="stroke:#A80036;stroke-width:1.0;" x1="454.5" x2="454.5" y1="290" y2="310.4883"/><rect fill="none" height="20.4883" rx="5" ry="5" style="stroke:#A80036;stroke-width:1.5;" width="118" x="358.5" y="290"/><rect fill="#FEFECE" height="135.418" rx="5" ry="5" style="stroke:#FEFECE;stroke-width:1.5;" width="581" x="728" y="232.5"/><text fill="#000000" font-family="sans-serif" font-size="14" lengthAdjust="spacing" textLength="33" x="733" y="248.0352">label</text><text fill="#000000" font-family="sans-serif" font-size="14" lengthAdjust="spacing" textLength="83" x="826" y="248.0352">Push button</text><line style="stroke:#A80036;stroke-width:1.0;" x1="821" x2="821" y1="232.5" y2="252.9883"/><line style="stroke:#A80036;stroke-width:1.0;" x1="728" x2="1309" y1="252.9883" y2="252.9883"/><text fill="#000000" font-family="sans-serif" font-size="14" lengthAdjust="spacing" textLength="77" x="733" y="268.5234">description</text><text fill="#000000" font-family="sans-serif" font-size="14" lengthAdjust="spacing" textLength="448" x="826" y="268.5234">This IPSO object is used to report the state of a momentary action</text><text fill="#000000" font-family="sans-serif" font-size="14" lengthAdjust="spacing" textLength="478" x="826" y="285.0117">push button control and to count the number of times the control has</text><text fill="#000000" font-family="sans-serif" font-size="14" lengthAdjust="spacing" textLength="282" x="826" y="301.5">been operated since the last observation.</text><line style="stroke:#A80036;stroke-width:1.0;" x1="821" x2="821" y1="252.9883" y2="306.4531"/><line style="stroke:#A80036;stroke-width:1.0;" x1="728" x2="1309" y1="306.4531" y2="306.4531"/><text fill="#000000" font-family="sans-serif" font-size="14" lengthAdjust="spacing" textLength="79" x="733" y="321.9883">sdfProperty</text><text fill="#000000" font-family="sans-serif" font-size="14" lengthAdjust="spacing" textLength="0" x="838" y="321.9883"/><line style="stroke:#A80036;stroke-width:1.0;" x1="821" x2="821" y1="306.4531" y2="326.9414"/><line style="stroke:#A80036;stroke-width:1.0;" x1="728" x2="1309" y1="326.9414" y2="326.9414"/><text fill="#000000" font-family="sans-serif" font-size="14" lengthAdjust="spacing" textLength="65" x="733" y="342.4766">sdfAction</text><text fill="#000000" font-family="sans-serif" font-size="14" lengthAdjust="spacing" textLength="0" x="838" y="342.4766"/><line style="stroke:#A80036;stroke-width:1.0;" x1="821" x2="821" y1="326.9414" y2="347.4297"/><line style="stroke:#A80036;stroke-width:1.0;" x1="728" x2="1309" y1="347.4297" y2="347.4297"/><text fill="#000000" font-family="sans-serif" font-size="14" lengthAdjust="spacing" textLength="83" x="733" y="362.9648">sdfRequired</text><text fill="#000000" font-family="sans-serif" font-size="14" lengthAdjust="spacing" textLength="0" x="838" y="362.9648"/><line style="stroke:#A80036;stroke-width:1.0;" x1="821" x2="821" y1="347.4297" y2="367.918"/><rect fill="none" height="135.418" rx="5" ry="5" style="stroke:#A80036;stroke-width:1.5;" width="581" x="728" y="232.5"/><rect fill="#FEFECE" height="102.4414" rx="5" ry="5" style="stroke:#FEFECE;stroke-width:1.5;" width="183" x="1457" y="199"/><text fill="#000000" font-family="sans-serif" font-size="14" lengthAdjust="spacing" textLength="128" x="1462" y="214.5352">Digital_Input_State</text><text fill="#000000" font-family="sans-serif" font-size="14" lengthAdjust="spacing" textLength="0" x="1635" y="214.5352"/><line style="stroke:#A80036;stroke-width:1.0;" x1="1618" x2="1618" y1="199" y2="219.4883"/><line style="stroke:#A80036;stroke-width:1.0;" x1="1457" x2="1640" y1="219.4883" y2="219.4883"/><text fill="#000000" font-family="sans-serif" font-size="14" lengthAdjust="spacing" textLength="150" x="1462" y="235.0234">Digital_Input_Counter</text><text fill="#000000" font-family="sans-serif" font-size="14" lengthAdjust="spacing" textLength="0" x="1635" y="235.0234"/><line style="stroke:#A80036;stroke-width:1.0;" x1="1618" x2="1618" y1="219.4883" y2="239.9766"/><line style="stroke:#A80036;stroke-width:1.0;" x1="1457" x2="1640" y1="239.9766" y2="239.9766"/><text fill="#000000" font-family="sans-serif" font-size="14" lengthAdjust="spacing" textLength="118" x="1462" y="255.5117">Application_Type</text><text fill="#000000" font-family="sans-serif" font-size="14" lengthAdjust="spacing" textLength="0" x="1635" y="255.5117"/><line style="stroke:#A80036;stroke-width:1.0;" x1="1618" x2="1618" y1="239.9766" y2="260.4648"/><line style="stroke:#A80036;stroke-width:1.0;" x1="1457" x2="1640" y1="260.4648" y2="260.4648"/><text fill="#000000" font-family="sans-serif" font-size="14" lengthAdjust="spacing" textLength="76" x="1462" y="276">Timestamp</text><text fill="#000000" font-family="sans-serif" font-size="14" lengthAdjust="spacing" textLength="0" x="1635" y="276"/><line style="stroke:#A80036;stroke-width:1.0;" x1="1618" x2="1618" y1="260.4648" y2="280.9531"/><line style="stroke:#A80036;stroke-width:1.0;" x1="1457" x2="1640" y1="280.9531" y2="280.9531"/><text fill="#000000" font-family="sans-serif" font-size="14" lengthAdjust="spacing" textLength="151" x="1462" y="296.4883">Fractional_Timestamp</text><text fill="#000000" font-family="sans-serif" font-size="14" lengthAdjust="spacing" textLength="0" x="1635" y="296.4883"/><line style="stroke:#A80036;stroke-width:1.0;" x1="1618" x2="1618" y1="280.9531" y2="301.4414"/><rect fill="none" height="102.4414" rx="5" ry="5" style="stroke:#A80036;stroke-width:1.5;" width="183" x="1457" y="199"/><rect fill="#FEFECE" height="81.9531" rx="5" ry="5" style="stroke:#FEFECE;stroke-width:1.5;" width="335" x="1902" y="10"/><text fill="#000000" font-family="sans-serif" font-size="14" lengthAdjust="spacing" textLength="33" x="1907" y="25.5352">label</text><text fill="#000000" font-family="sans-serif" font-size="14" lengthAdjust="spacing" textLength="122" x="1994" y="25.5352">Digital Input State</text><line style="stroke:#A80036;stroke-width:1.0;" x1="1989" x2="1989" y1="10" y2="30.4883"/><line style="stroke:#A80036;stroke-width:1.0;" x1="1902" x2="2237" y1="30.4883" y2="30.4883"/><text fill="#000000" font-family="sans-serif" font-size="14" lengthAdjust="spacing" textLength="77" x="1907" y="46.0234">description</text><text fill="#000000" font-family="sans-serif" font-size="14" lengthAdjust="spacing" textLength="238" x="1994" y="46.0234">The current state of a digital input.</text><line style="stroke:#A80036;stroke-width:1.0;" x1="1989" x2="1989" y1="30.4883" y2="50.9766"/><line style="stroke:#A80036;stroke-width:1.0;" x1="1902" x2="2237" y1="50.9766" y2="50.9766"/><text fill="#000000" font-family="sans-serif" font-size="14" lengthAdjust="spacing" textLength="55" x="1907" y="66.5117">writable</text><text fill="#000000" font-family="sans-serif" font-size="14" lengthAdjust="spacing" textLength="48" x="1994" y="66.5117">☐ false</text><line style="stroke:#A80036;stroke-width:1.0;" x1="1989" x2="1989" y1="50.9766" y2="71.4648"/><line style="stroke:#A80036;stroke-width:1.0;" x1="1902" x2="2237" y1="71.4648" y2="71.4648"/><text fill="#000000" font-family="sans-serif" font-size="14" lengthAdjust="spacing" textLength="29" x="1907" y="87">type</text><text fill="#000000" font-family="sans-serif" font-size="14" lengthAdjust="spacing" textLength="56" x="1994" y="87">boolean</text><line style="stroke:#A80036;stroke-width:1.0;" x1="1989" x2="1989" y1="71.4648" y2="91.9531"/><rect fill="none" height="81.9531" rx="5" ry="5" style="stroke:#A80036;stroke-width:1.5;" width="335" x="1902" y="10"/><rect fill="#FEFECE" height="81.9531" rx="5" ry="5" style="stroke:#FEFECE;stroke-width:1.5;" width="406" x="1866.5" y="110"/><text fill="#000000" font-family="sans-serif" font-size="14" lengthAdjust="spacing" textLength="33" x="1871.5" y="125.5352">label</text><text fill="#000000" font-family="sans-serif" font-size="14" lengthAdjust="spacing" textLength="144" x="1958.5" y="125.5352">Digital Input Counter</text><line style="stroke:#A80036;stroke-width:1.0;" x1="1953.5" x2="1953.5" y1="110" y2="130.4883"/><line style="stroke:#A80036;stroke-width:1.0;" x1="1866.5" x2="2272.5" y1="130.4883" y2="130.4883"/><text fill="#000000" font-family="sans-serif" font-size="14" lengthAdjust="spacing" textLength="77" x="1871.5" y="146.0234">description</text><text fill="#000000" font-family="sans-serif" font-size="14" lengthAdjust="spacing" textLength="309" x="1958.5" y="146.0234">The cumulative value of active state detected.</text><line style="stroke:#A80036;stroke-width:1.0;" x1="1953.5" x2="1953.5" y1="130.4883" y2="150.9766"/><line style="stroke:#A80036;stroke-width:1.0;" x1="1866.5" x2="2272.5" y1="150.9766" y2="150.9766"/><text fill="#000000" font-family="sans-serif" font-size="14" lengthAdjust="spacing" textLength="55" x="1871.5" y="166.5117">writable</text><text fill="#000000" font-family="sans-serif" font-size="14" lengthAdjust="spacing" textLength="48" x="1958.5" y="166.5117">☐ false</text><line style="stroke:#A80036;stroke-width:1.0;" x1="1953.5" x2="1953.5" y1="150.9766" y2="171.4648"/><line style="stroke:#A80036;stroke-width:1.0;" x1="1866.5" x2="2272.5" y1="171.4648" y2="171.4648"/><text fill="#000000" font-family="sans-serif" font-size="14" lengthAdjust="spacing" textLength="29" x="1871.5" y="187">type</text><text fill="#000000" font-family="sans-serif" font-size="14" lengthAdjust="spacing" textLength="49" x="1958.5" y="187">integer</text><line style="stroke:#A80036;stroke-width:1.0;" x1="1953.5" x2="1953.5" y1="171.4648" y2="191.9531"/><rect fill="none" height="81.9531" rx="5" ry="5" style="stroke:#A80036;stroke-width:1.5;" width="406" x="1866.5" y="110"/><rect fill="#FEFECE" height="77.9531" rx="5" ry="5" style="stroke:#FEFECE;stroke-width:1.5;" width="563" x="1788" y="210"/><text fill="#000000" font-family="sans-serif" font-size="14" lengthAdjust="spacing" textLength="33" x="1793" y="225.5352">label</text><text fill="#000000" font-family="sans-serif" font-size="14" lengthAdjust="spacing" textLength="115" x="1880" y="225.5352">Application Type</text><line style="stroke:#A80036;stroke-width:1.0;" x1="1875" x2="1875" y1="210" y2="230.4883"/><line style="stroke:#A80036;stroke-width:1.0;" x1="1788" x2="2351" y1="230.4883" y2="230.4883"/><text fill="#000000" font-family="sans-serif" font-size="14" lengthAdjust="spacing" textLength="77" x="1793" y="246.0234">description</text><text fill="#000000" font-family="sans-serif" font-size="14" lengthAdjust="spacing" textLength="466" x="1880" y="246.0234">The application type of the sensor or actuator as a string depending</text><text fill="#000000" font-family="sans-serif" font-size="14" lengthAdjust="spacing" textLength="110" x="1880" y="262.5117">on the use case.</text><line style="stroke:#A80036;stroke-width:1.0;" x1="1875" x2="1875" y1="230.4883" y2="267.4648"/><line style="stroke:#A80036;stroke-width:1.0;" x1="1788" x2="2351" y1="267.4648" y2="267.4648"/><text fill="#000000" font-family="sans-serif" font-size="14" lengthAdjust="spacing" textLength="29" x="1793" y="283">type</text><text fill="#000000" font-family="sans-serif" font-size="14" lengthAdjust="spacing" textLength="40" x="1880" y="283">string</text><line style="stroke:#A80036;stroke-width:1.0;" x1="1875" x2="1875" y1="267.4648" y2="287.9531"/><rect fill="none" height="77.9531" rx="5" ry="5" style="stroke:#A80036;stroke-width:1.5;" width="563" x="1788" y="210"/><rect fill="#FEFECE" height="102.4414" rx="5" ry="5" style="stroke:#FEFECE;stroke-width:1.5;" width="493" x="1823" y="306"/><text fill="#000000" font-family="sans-serif" font-size="14" lengthAdjust="spacing" textLength="33" x="1828" y="321.5352">label</text><text fill="#000000" font-family="sans-serif" font-size="14" lengthAdjust="spacing" textLength="76" x="1915" y="321.5352">Timestamp</text><line style="stroke:#A80036;stroke-width:1.0;" x1="1910" x2="1910" y1="306" y2="326.4883"/><line style="stroke:#A80036;stroke-width:1.0;" x1="1823" x2="2316" y1="326.4883" y2="326.4883"/><text fill="#000000" font-family="sans-serif" font-size="14" lengthAdjust="spacing" textLength="77" x="1828" y="342.0234">description</text><text fill="#000000" font-family="sans-serif" font-size="14" lengthAdjust="spacing" textLength="396" x="1915" y="342.0234">The timestamp of when the measurement was performed.</text><line style="stroke:#A80036;stroke-width:1.0;" x1="1910" x2="1910" y1="326.4883" y2="346.9766"/><line style="stroke:#A80036;stroke-width:1.0;" x1="1823" x2="2316" y1="346.9766" y2="346.9766"/><text fill="#000000" font-family="sans-serif" font-size="14" lengthAdjust="spacing" textLength="55" x="1828" y="362.5117">writable</text><text fill="#000000" font-family="sans-serif" font-size="14" lengthAdjust="spacing" textLength="48" x="1915" y="362.5117">☐ false</text><line style="stroke:#A80036;stroke-width:1.0;" x1="1910" x2="1910" y1="346.9766" y2="367.4648"/><line style="stroke:#A80036;stroke-width:1.0;" x1="1823" x2="2316" y1="367.4648" y2="367.4648"/><text fill="#000000" font-family="sans-serif" font-size="14" lengthAdjust="spacing" textLength="29" x="1828" y="383">type</text><text fill="#000000" font-family="sans-serif" font-size="14" lengthAdjust="spacing" textLength="54" x="1915" y="383">number</text><line style="stroke:#A80036;stroke-width:1.0;" x1="1910" x2="1910" y1="367.4648" y2="387.9531"/><line style="stroke:#A80036;stroke-width:1.0;" x1="1823" x2="2316" y1="387.9531" y2="387.9531"/><text fill="#000000" font-family="sans-serif" font-size="14" lengthAdjust="spacing" textLength="54" x="1828" y="403.4883">sdfType</text><text fill="#000000" font-family="sans-serif" font-size="14" lengthAdjust="spacing" textLength="69" x="1915" y="403.4883">unix-time</text><line style="stroke:#A80036;stroke-width:1.0;" x1="1910" x2="1910" y1="387.9531" y2="408.4414"/><rect fill="none" height="102.4414" rx="5" ry="5" style="stroke:#A80036;stroke-width:1.5;" width="493" x="1823" y="306"/><rect fill="#FEFECE" height="159.9063" rx="5" ry="5" style="stroke:#FEFECE;stroke-width:1.5;" width="563" x="1788" y="426"/><text fill="#000000" font-family="sans-serif" font-size="14" lengthAdjust="spacing" textLength="33" x="1793" y="441.5352">label</text><text fill="#000000" font-family="sans-serif" font-size="14" lengthAdjust="spacing" textLength="148" x="1880" y="441.5352">Fractional Timestamp</text><line style="stroke:#A80036;stroke-width:1.0;" x1="1875" x2="1875" y1="426" y2="446.4883"/><line style="stroke:#A80036;stroke-width:1.0;" x1="1788" x2="2351" y1="446.4883" y2="446.4883"/><text fill="#000000" font-family="sans-serif" font-size="14" lengthAdjust="spacing" textLength="77" x="1793" y="462.0234">description</text><text fill="#000000" font-family="sans-serif" font-size="14" lengthAdjust="spacing" textLength="466" x="1880" y="462.0234">Fractional part of the timestamp when sub-second precision is used</text><text fill="#000000" font-family="sans-serif" font-size="14" lengthAdjust="spacing" textLength="157" x="1880" y="478.5117">(e.g., 0.23 for 230 ms).</text><line style="stroke:#A80036;stroke-width:1.0;" x1="1875" x2="1875" y1="446.4883" y2="483.4648"/><line style="stroke:#A80036;stroke-width:1.0;" x1="1788" x2="2351" y1="483.4648" y2="483.4648"/><text fill="#000000" font-family="sans-serif" font-size="14" lengthAdjust="spacing" textLength="55" x="1793" y="499">writable</text><text fill="#000000" font-family="sans-serif" font-size="14" lengthAdjust="spacing" textLength="48" x="1880" y="499">☐ false</text><line style="stroke:#A80036;stroke-width:1.0;" x1="1875" x2="1875" y1="483.4648" y2="503.9531"/><line style="stroke:#A80036;stroke-width:1.0;" x1="1788" x2="2351" y1="503.9531" y2="503.9531"/><text fill="#000000" font-family="sans-serif" font-size="14" lengthAdjust="spacing" textLength="29" x="1793" y="519.4883">type</text><text fill="#000000" font-family="sans-serif" font-size="14" lengthAdjust="spacing" textLength="54" x="1880" y="519.4883">number</text><line style="stroke:#A80036;stroke-width:1.0;" x1="1875" x2="1875" y1="503.9531" y2="524.4414"/><line style="stroke:#A80036;stroke-width:1.0;" x1="1788" x2="2351" y1="524.4414" y2="524.4414"/><text fill="#000000" font-family="sans-serif" font-size="14" lengthAdjust="spacing" textLength="27" x="1793" y="539.9766">unit</text><text fill="#000000" font-family="sans-serif" font-size="14" lengthAdjust="spacing" textLength="7" x="1880" y="539.9766">s</text><line style="stroke:#A80036;stroke-width:1.0;" x1="1875" x2="1875" y1="524.4414" y2="544.9297"/><line style="stroke:#A80036;stroke-width:1.0;" x1="1788" x2="2351" y1="544.9297" y2="544.9297"/><text fill="#000000" font-family="sans-serif" font-size="14" lengthAdjust="spacing" textLength="65" x="1793" y="560.4648">minimum</text><text fill="#000000" font-family="sans-serif" font-size="14" lengthAdjust="spacing" textLength="9" x="1880" y="560.4648">0</text><line style="stroke:#A80036;stroke-width:1.0;" x1="1875" x2="1875" y1="544.9297" y2="565.418"/><line style="stroke:#A80036;stroke-width:1.0;" x1="1788" x2="2351" y1="565.418" y2="565.418"/><text fill="#000000" font-family="sans-serif" font-size="14" lengthAdjust="spacing" textLength="69" x="1793" y="580.9531">maximum</text><text fill="#000000" font-family="sans-serif" font-size="14" lengthAdjust="spacing" textLength="9" x="1880" y="580.9531">1</text><line style="stroke:#A80036;stroke-width:1.0;" x1="1875" x2="1875" y1="565.418" y2="585.9063"/><rect fill="none" height="159.9063" rx="5" ry="5" style="stroke:#A80036;stroke-width:1.5;" width="563" x="1788" y="426"/><rect fill="#FEFECE" height="15" rx="5" ry="5" style="stroke:#FEFECE;stroke-width:1.5;" width="30" x="1536.5" y="319"/><rect fill="none" height="15" rx="5" ry="5" style="stroke:#A80036;stroke-width:1.5;" width="30" x="1536.5" y="319"/><rect fill="#FEFECE" height="20.4883" rx="5" ry="5" style="stroke:#FEFECE;stroke-width:1.5;" width="405" x="1346" y="353"/><text fill="#000000" font-family="sans-serif" font-size="14" lengthAdjust="spacing" textLength="395" x="1351" y="368.5352">#/sdfObject/Push_button/sdfProperty/Digital_Input_State</text><rect fill="none" height="20.4883" rx="5" ry="5" style="stroke:#A80036;stroke-width:1.5;" width="405" x="1346" y="353"/><path d="M95,255 L108,255 C117.3406,255 126.8353,254.8896 136.4202,254.6839 " fill="none" style="stroke:#A80036;stroke-width:1.0;stroke-dasharray:3.0,3.0;"/><path d="M136.4943,257.7659 L138.7318,254.6283 L136.3462,251.6019 L144.1253,254.4987 L136.4943,257.7659 " fill="#A80036" style="stroke:#A80036;stroke-width:1.0;"/><ellipse cx="95" cy="255" fill="#A80036" rx="3" ry="3" style="stroke:#A80036;stroke-width:1.0;stroke-dasharray:3.0,3.0;"/><path d="M1629,209 L1642,209 C1722.7129,209 1713.8642,132.9131 1788,101 C1821.2491,86.6873 1858.4048,76.4717 1894.5298,69.1802 " fill="none" style="stroke:#A80036;stroke-width:1.0;stroke-dasharray:3.0,3.0;"/><path d="M1895.1346,72.2567 L1896.8372,68.7267 L1893.925,66.1037 L1902.2211,67.6683 L1895.1346,72.2567 " fill="#A80036" style="stroke:#A80036;stroke-width:1.0;"/><ellipse cx="1629" cy="209" fill="#A80036" rx="3" ry="3" style="stroke:#A80036;stroke-width:1.0;stroke-dasharray:3.0,3.0;"/><path d="M1629,229 L1642,229 C1708.0714,229 1723.0293,213.0098 1788,201 C1811.0723,196.7351 1835.2232,192.3373 1859.2642,188.0016 " fill="none" style="stroke:#A80036;stroke-width:1.0;stroke-dasharray:3.0,3.0;"/><path d="M1859.8016,190.9841 L1861.5011,187.5986 L1858.7269,185.0192 L1866.7204,186.6583 L1859.8016,190.9841 " fill="#A80036" style="stroke:#A80036;stroke-width:1.0;"/><ellipse cx="1629" cy="229" fill="#A80036" rx="3" ry="3" style="stroke:#A80036;stroke-width:1.0;stroke-dasharray:3.0,3.0;"/><path d="M1629,249 L1642,249 C1686.8547,249 1734.3598,249 1780.7567,249 " fill="none" style="stroke:#A80036;stroke-width:1.0;stroke-dasharray:3.0,3.0;"/><path d="M1780.7567,252.0951 L1783.0781,249 L1780.7567,245.9049 L1788.4946,249 L1780.7567,252.0951 " fill="#A80036" style="stroke:#A80036;stroke-width:1.0;"/><ellipse cx="1629" cy="249" fill="#A80036" rx="3" ry="3" style="stroke:#A80036;stroke-width:1.0;stroke-dasharray:3.0,3.0;"/><path d="M1629,270 L1642,270 C1652.4056,270 1732.7494,286.0722 1820.9886,304.4006 " fill="none" style="stroke:#A80036;stroke-width:1.0;stroke-dasharray:3.0,3.0;"/><path d="M1820.3682,307.3842 L1823.2263,304.8658 L1821.6089,301.4169 L1828.4478,305.9514 L1820.3682,307.3842 " fill="#A80036" style="stroke:#A80036;stroke-width:1.0;"/><ellipse cx="1629" cy="270" fill="#A80036" rx="3" ry="3" style="stroke:#A80036;stroke-width:1.0;stroke-dasharray:3.0,3.0;"/><path d="M1629,291 L1642,291 C1691.6128,291 1714.3316,277.7118 1752,310 C1790.0952,342.6541 1752.2062,381.8385 1788,417 C1789.2606,418.2383 1790.5383,419.4594 1791.8324,420.6636 " fill="none" style="stroke:#A80036;stroke-width:1.0;stroke-dasharray:3.0,3.0;"/><path d="M1789.7638,422.9746 L1793.5657,422.2151 L1793.9011,418.3526 L1797.6099,425.8352 L1789.7638,422.9746 " fill="#A80036" style="stroke:#A80036;stroke-width:1.0;"/><ellipse cx="1629" cy="291" fill="#A80036" rx="3" ry="3" style="stroke:#A80036;stroke-width:1.0;stroke-dasharray:3.0,3.0;"/><path d="M1297,300 L1310,300 C1356.6976,300 1407.4691,290.6672 1450.0781,280.0658 " fill="none" style="stroke:#A80036;stroke-width:1.0;stroke-dasharray:3.0,3.0;"/><path d="M1450.8185,282.9901 L1452.2713,279.5105 L1449.3376,277.1416 L1457.3887,278.2147 L1450.8185,282.9901 " fill="#A80036" style="stroke:#A80036;stroke-width:1.0;"/><ellipse cx="1297" cy="300" fill="#A80036" rx="3" ry="3" style="stroke:#A80036;stroke-width:1.0;stroke-dasharray:3.0,3.0;"/><path d="M1297,327 L1310,327 C1391.3945,327 1488.4469,327 1528.8658,327 " fill="none" style="stroke:#A80036;stroke-width:1.0;stroke-dasharray:3.0,3.0;"/><path d="M1528.8658,330.0957 L1531.1876,327 L1528.8658,323.9043 L1536.6052,327 L1528.8658,330.0957 " fill="#A80036" style="stroke:#A80036;stroke-width:1.0;"/><ellipse cx="1297" cy="327" fill="#A80036" rx="3" ry="3" style="stroke:#A80036;stroke-width:1.0;stroke-dasharray:3.0,3.0;"/><path d="M1297,354 L1310,354 C1319.3802,354 1328.967,354.0707 1338.6499,354.1995 " fill="none" style="stroke:#A80036;stroke-width:1.0;stroke-dasharray:3.0,3.0;"/><path d="M1338.6037,357.3131 L1340.9851,354.2342 L1338.6961,351.0859 L1346.4339,354.315 L1338.6037,357.3131 " fill="#A80036" style="stroke:#A80036;stroke-width:1.0;"/><ellipse cx="1297" cy="354" fill="#A80036" rx="3" ry="3" style="stroke:#A80036;stroke-width:1.0;stroke-dasharray:3.0,3.0;"/><path d="M465,300 L478,300 C556.6731,300 641.7935,300 720.6805,300 " fill="none" style="stroke:#A80036;stroke-width:1.0;stroke-dasharray:3.0,3.0;"/><path d="M720.6805,303.0457 L722.9648,300 L720.6805,296.9543 L728.2949,300 L720.6805,303.0457 " fill="#A80036" style="stroke:#A80036;stroke-width:1.0;"/><ellipse cx="465" cy="300" fill="#A80036" rx="3" ry="3" style="stroke:#A80036;stroke-width:1.0;stroke-dasharray:3.0,3.0;"/><path d="M95,276 L108,276 C124.1536,276 127.9333,279.3271 144,281 C214.632,288.3542 295.8503,293.5977 351.2146,296.6883 " fill="none" style="stroke:#A80036;stroke-width:1.0;stroke-dasharray:3.0,3.0;"/><path d="M351.0458,299.743 L353.5056,296.8148 L351.3833,293.6336 L358.8513,297.1101 L351.0458,299.743 " fill="#A80036" style="stroke:#A80036;stroke-width:1.0;"/><ellipse cx="95" cy="276" fill="#A80036" rx="3" ry="3" style="stroke:#A80036;stroke-width:1.0;stroke-dasharray:3.0,3.0;"/><!--MD5=[41634e2b87626ee4a635d75d8c542489]
@startjson
{
  "info": {
    "title": "OMA LwM2M Push button (Object ID 3347)",
    "version": "2021-02-11",
    "copyright": "Copyright (c) 2018-2020 IPSO",
    "license": "https://github.com/one-data-model/oneDM/blob/master/LICENSE"
  },
  "sdfObject": {
    "Push_button": {
      "label": "Push button",
      "description": "This IPSO object is used to report the state of a momentary action\\npush button control and to count the number of times the control has\\nbeen operated since the last observation.",
      "sdfProperty": {
        "Digital_Input_State": {
          "label": "Digital Input State",
          "description": "The current state of a digital input.",
          "writable": false,
          "type": "boolean"
        },
        "Digital_Input_Counter": {
          "label": "Digital Input Counter",
          "description": "The cumulative value of active state detected.",
          "writable": false,
          "type": "integer"
        },
        "Application_Type": {
          "label": "Application Type",
          "description": "The application type of the sensor or actuator as a string depending\\non the use case.",
          "type": "string"
        },
        "Timestamp": {
          "label": "Timestamp",
          "description": "The timestamp of when the measurement was performed.",
          "writable": false,
          "type": "number",
          "sdfType": "unix-time"
        },
        "Fractional_Timestamp": {
          "label": "Fractional Timestamp",
          "description": "Fractional part of the timestamp when sub-second precision is used\\n(e.g., 0.23 for 230 ms).",
          "writable": false,
          "type": "number",
          "unit": "s",
          "minimum": 0,
          "maximum": 1
        }
      },
      "sdfAction": {},
      "sdfRequired": [
        "#/sdfObject/Push_button/sdfProperty/Digital_Input_State"
      ]
    }
  }
}
@endjson

PlantUML version 1.2021.2(Sun Mar 07 13:10:27 EET 2021)
(GPL source distribution)
Java Runtime: OpenJDK Runtime Environment
JVM: OpenJDK 64-Bit Server VM
Default Encoding: UTF-8
Language: en
Country: FI
--></g></svg>