<?xml version="1.0" encoding="UTF-8" standalone="no"?><svg xmlns="http://www.w3.org/2000/svg" xmlns:xlink="http://www.w3.org/1999/xlink" contentScriptType="application/ecmascript" contentStyleType="text/css" height="423px" preserveAspectRatio="none" style="width:2433px;height:423px;" version="1.1" viewBox="0 0 2433 423" width="2433px" zoomAndPan="magnify"><defs/><g><rect fill="#FEFECE" height="40.9766" rx="5" ry="5" style="stroke:#FEFECE;stroke-width:1.5;" width="97" x="10" y="159.5"/><text fill="#000000" font-family="sans-serif" font-size="14" lengthAdjust="spacing" textLength="27" x="15" y="175.0352">info</text><text fill="#000000" font-family="sans-serif" font-size="14" lengthAdjust="spacing" textLength="0" x="102" y="175.0352"/><line style="stroke:#A80036;stroke-width:1.0;" x1="85" x2="85" y1="159.5" y2="179.9883"/><line style="stroke:#A80036;stroke-width:1.0;" x1="10" x2="107" y1="179.9883" y2="179.9883"/><text fill="#000000" font-family="sans-serif" font-size="14" lengthAdjust="spacing" textLength="65" x="15" y="195.5234">sdfObject</text><text fill="#000000" font-family="sans-serif" font-size="14" lengthAdjust="spacing" textLength="0" x="102" y="195.5234"/><line style="stroke:#A80036;stroke-width:1.0;" x1="85" x2="85" y1="179.9883" y2="200.4766"/><rect fill="none" height="40.9766" rx="5" ry="5" style="stroke:#A80036;stroke-width:1.5;" width="97" x="10" y="159.5"/><rect fill="#FEFECE" height="81.9531" rx="5" ry="5" style="stroke:#FEFECE;stroke-width:1.5;" width="614" x="144" y="104"/><text fill="#000000" font-family="sans-serif" font-size="14" lengthAdjust="spacing" textLength="65" x="149" y="119.5352">copyright</text><text fill="#000000" font-family="sans-serif" font-size="14" lengthAdjust="spacing" textLength="529" x="224" y="119.5352">Copyright 2018-2019 Open Connectivity Foundation, Inc. All rights reserved.</text><line style="stroke:#A80036;stroke-width:1.0;" x1="219" x2="219" y1="104" y2="124.4883"/><line style="stroke:#A80036;stroke-width:1.0;" x1="144" x2="758" y1="124.4883" y2="124.4883"/><text fill="#000000" font-family="sans-serif" font-size="14" lengthAdjust="spacing" textLength="47" x="149" y="140.0234">license</text><text fill="#000000" font-family="sans-serif" font-size="14" lengthAdjust="spacing" textLength="462" x="224" y="140.0234">https://github.com/one-data-model/oneDM/blob/master/LICENSE</text><line style="stroke:#A80036;stroke-width:1.0;" x1="219" x2="219" y1="124.4883" y2="144.9766"/><line style="stroke:#A80036;stroke-width:1.0;" x1="144" x2="758" y1="144.9766" y2="144.9766"/><text fill="#000000" font-family="sans-serif" font-size="14" lengthAdjust="spacing" textLength="26" x="149" y="160.5117">title</text><text fill="#000000" font-family="sans-serif" font-size="14" lengthAdjust="spacing" textLength="50" x="224" y="160.5117">Torque</text><line style="stroke:#A80036;stroke-width:1.0;" x1="219" x2="219" y1="144.9766" y2="165.4648"/><line style="stroke:#A80036;stroke-width:1.0;" x1="144" x2="758" y1="165.4648" y2="165.4648"/><text fill="#000000" font-family="sans-serif" font-size="14" lengthAdjust="spacing" textLength="50" x="149" y="181">version</text><text fill="#000000" font-family="sans-serif" font-size="14" lengthAdjust="spacing" textLength="88" x="224" y="181">2019-09-25</text><line style="stroke:#A80036;stroke-width:1.0;" x1="219" x2="219" y1="165.4648" y2="185.9531"/><rect fill="none" height="81.9531" rx="5" ry="5" style="stroke:#A80036;stroke-width:1.5;" width="614" x="144" y="104"/><rect fill="#FEFECE" height="20.4883" rx="5" ry="5" style="stroke:#FEFECE;stroke-width:1.5;" width="78" x="412" y="204"/><text fill="#000000" font-family="sans-serif" font-size="14" lengthAdjust="spacing" textLength="46" x="417" y="219.5352">torque</text><text fill="#000000" font-family="sans-serif" font-size="14" lengthAdjust="spacing" textLength="0" x="485" y="219.5352"/><line style="stroke:#A80036;stroke-width:1.0;" x1="468" x2="468" y1="204" y2="224.4883"/><rect fill="none" height="20.4883" rx="5" ry="5" style="stroke:#A80036;stroke-width:1.5;" width="78" x="412" y="204"/><rect fill="#FEFECE" height="127.418" rx="5" ry="5" style="stroke:#FEFECE;stroke-width:1.5;" width="574" x="795" y="150.5"/><text fill="#000000" font-family="sans-serif" font-size="14" lengthAdjust="spacing" textLength="77" x="800" y="166.0352">description</text><text fill="#000000" font-family="sans-serif" font-size="14" lengthAdjust="spacing" textLength="401" x="893" y="166.0352">This Resource describes the torque, which is the rotational</text><text fill="#000000" font-family="sans-serif" font-size="14" lengthAdjust="spacing" textLength="428" x="893" y="182.5234">equivalent of linear force. The unit, which is the default SI unit,</text><text fill="#000000" font-family="sans-serif" font-size="14" lengthAdjust="spacing" textLength="471" x="893" y="199.0117">is N*m (Newton metre). The torque Property is a read-only value that</text><text fill="#000000" font-family="sans-serif" font-size="14" lengthAdjust="spacing" textLength="453" x="893" y="215.5">is provided by the server. When range (from "oic. r. baseresource")</text><text fill="#000000" font-family="sans-serif" font-size="14" lengthAdjust="spacing" textLength="287" x="893" y="231.9883">is omitted the default is 0 to +MAXFLOAT.</text><line style="stroke:#A80036;stroke-width:1.0;" x1="888" x2="888" y1="150.5" y2="236.9414"/><line style="stroke:#A80036;stroke-width:1.0;" x1="795" x2="1369" y1="236.9414" y2="236.9414"/><text fill="#000000" font-family="sans-serif" font-size="14" lengthAdjust="spacing" textLength="79" x="800" y="252.4766">sdfProperty</text><text fill="#000000" font-family="sans-serif" font-size="14" lengthAdjust="spacing" textLength="0" x="905" y="252.4766"/><line style="stroke:#A80036;stroke-width:1.0;" x1="888" x2="888" y1="236.9414" y2="257.4297"/><line style="stroke:#A80036;stroke-width:1.0;" x1="795" x2="1369" y1="257.4297" y2="257.4297"/><text fill="#000000" font-family="sans-serif" font-size="14" lengthAdjust="spacing" textLength="83" x="800" y="272.9648">sdfRequired</text><text fill="#000000" font-family="sans-serif" font-size="14" lengthAdjust="spacing" textLength="0" x="905" y="272.9648"/><line style="stroke:#A80036;stroke-width:1.0;" x1="888" x2="888" y1="257.4297" y2="277.918"/><rect fill="none" height="127.418" rx="5" ry="5" style="stroke:#A80036;stroke-width:1.5;" width="574" x="795" y="150.5"/><rect fill="#FEFECE" height="61.4648" rx="5" ry="5" style="stroke:#FEFECE;stroke-width:1.5;" width="78" x="1508.5" y="174.5"/><text fill="#000000" font-family="sans-serif" font-size="14" lengthAdjust="spacing" textLength="46" x="1513.5" y="190.0352">torque</text><text fill="#000000" font-family="sans-serif" font-size="14" lengthAdjust="spacing" textLength="0" x="1581.5" y="190.0352"/><line style="stroke:#A80036;stroke-width:1.0;" x1="1564.5" x2="1564.5" y1="174.5" y2="194.9883"/><line style="stroke:#A80036;stroke-width:1.0;" x1="1508.5" x2="1586.5" y1="194.9883" y2="194.9883"/><text fill="#000000" font-family="sans-serif" font-size="14" lengthAdjust="spacing" textLength="40" x="1513.5" y="210.5234">range</text><text fill="#000000" font-family="sans-serif" font-size="14" lengthAdjust="spacing" textLength="0" x="1581.5" y="210.5234"/><line style="stroke:#A80036;stroke-width:1.0;" x1="1564.5" x2="1564.5" y1="194.9883" y2="215.4766"/><line style="stroke:#A80036;stroke-width:1.0;" x1="1508.5" x2="1586.5" y1="215.4766" y2="215.4766"/><text fill="#000000" font-family="sans-serif" font-size="14" lengthAdjust="spacing" textLength="29" x="1513.5" y="231.0117">step</text><text fill="#000000" font-family="sans-serif" font-size="14" lengthAdjust="spacing" textLength="0" x="1581.5" y="231.0117"/><line style="stroke:#A80036;stroke-width:1.0;" x1="1564.5" x2="1564.5" y1="215.4766" y2="235.9648"/><rect fill="none" height="61.4648" rx="5" ry="5" style="stroke:#A80036;stroke-width:1.5;" width="78" x="1508.5" y="174.5"/><rect fill="#FEFECE" height="98.4414" rx="5" ry="5" style="stroke:#FEFECE;stroke-width:1.5;" width="498" x="1754.5" y="10"/><text fill="#000000" font-family="sans-serif" font-size="14" lengthAdjust="spacing" textLength="77" x="1759.5" y="25.5352">description</text><text fill="#000000" font-family="sans-serif" font-size="14" lengthAdjust="spacing" textLength="401" x="1846.5" y="25.5352">This Resource describes the torque, which is the rotational</text><text fill="#000000" font-family="sans-serif" font-size="14" lengthAdjust="spacing" textLength="340" x="1846.5" y="42.0234">equivalent of linear force, in N*m (Newton metre).</text><line style="stroke:#A80036;stroke-width:1.0;" x1="1841.5" x2="1841.5" y1="10" y2="46.9766"/><line style="stroke:#A80036;stroke-width:1.0;" x1="1754.5" x2="2252.5" y1="46.9766" y2="46.9766"/><text fill="#000000" font-family="sans-serif" font-size="14" lengthAdjust="spacing" textLength="29" x="1759.5" y="62.5117">type</text><text fill="#000000" font-family="sans-serif" font-size="14" lengthAdjust="spacing" textLength="54" x="1846.5" y="62.5117">number</text><line style="stroke:#A80036;stroke-width:1.0;" x1="1841.5" x2="1841.5" y1="46.9766" y2="67.4648"/><line style="stroke:#A80036;stroke-width:1.0;" x1="1754.5" x2="2252.5" y1="67.4648" y2="67.4648"/><text fill="#000000" font-family="sans-serif" font-size="14" lengthAdjust="spacing" textLength="65" x="1759.5" y="83">minimum</text><text fill="#000000" font-family="sans-serif" font-size="14" lengthAdjust="spacing" textLength="9" x="1846.5" y="83">0</text><line style="stroke:#A80036;stroke-width:1.0;" x1="1841.5" x2="1841.5" y1="67.4648" y2="87.9531"/><line style="stroke:#A80036;stroke-width:1.0;" x1="1754.5" x2="2252.5" y1="87.9531" y2="87.9531"/><text fill="#000000" font-family="sans-serif" font-size="14" lengthAdjust="spacing" textLength="55" x="1759.5" y="103.4883">writable</text><text fill="#000000" font-family="sans-serif" font-size="14" lengthAdjust="spacing" textLength="48" x="1846.5" y="103.4883">☐ false</text><line style="stroke:#A80036;stroke-width:1.0;" x1="1841.5" x2="1841.5" y1="87.9531" y2="108.4414"/><rect fill="none" height="98.4414" rx="5" ry="5" style="stroke:#A80036;stroke-width:1.5;" width="498" x="1754.5" y="10"/><rect fill="#FEFECE" height="155.9063" rx="5" ry="5" style="stroke:#FEFECE;stroke-width:1.5;" width="548" x="1729.5" y="126"/><text fill="#000000" font-family="sans-serif" font-size="14" lengthAdjust="spacing" textLength="29" x="1734.5" y="141.5352">type</text><text fill="#000000" font-family="sans-serif" font-size="14" lengthAdjust="spacing" textLength="35" x="1821.5" y="141.5352">array</text><line style="stroke:#A80036;stroke-width:1.0;" x1="1816.5" x2="1816.5" y1="126" y2="146.4883"/><line style="stroke:#A80036;stroke-width:1.0;" x1="1729.5" x2="2277.5" y1="146.4883" y2="146.4883"/><text fill="#000000" font-family="sans-serif" font-size="14" lengthAdjust="spacing" textLength="77" x="1734.5" y="162.0234">description</text><text fill="#000000" font-family="sans-serif" font-size="14" lengthAdjust="spacing" textLength="451" x="1821.5" y="162.0234">The valid range for the Property in the Resource as a number. The</text><text fill="#000000" font-family="sans-serif" font-size="14" lengthAdjust="spacing" textLength="439" x="1821.5" y="178.5117">first value in the array is the minimum value, the second value in</text><text fill="#000000" font-family="sans-serif" font-size="14" lengthAdjust="spacing" textLength="219" x="1821.5" y="195">the array is the maximum value.</text><line style="stroke:#A80036;stroke-width:1.0;" x1="1816.5" x2="1816.5" y1="146.4883" y2="199.9531"/><line style="stroke:#A80036;stroke-width:1.0;" x1="1729.5" x2="2277.5" y1="199.9531" y2="199.9531"/><text fill="#000000" font-family="sans-serif" font-size="14" lengthAdjust="spacing" textLength="55" x="1734.5" y="215.4883">writable</text><text fill="#000000" font-family="sans-serif" font-size="14" lengthAdjust="spacing" textLength="48" x="1821.5" y="215.4883">☐ false</text><line style="stroke:#A80036;stroke-width:1.0;" x1="1816.5" x2="1816.5" y1="199.9531" y2="220.4414"/><line style="stroke:#A80036;stroke-width:1.0;" x1="1729.5" x2="2277.5" y1="220.4414" y2="220.4414"/><text fill="#000000" font-family="sans-serif" font-size="14" lengthAdjust="spacing" textLength="63" x="1734.5" y="235.9766">minItems</text><text fill="#000000" font-family="sans-serif" font-size="14" lengthAdjust="spacing" textLength="9" x="1821.5" y="235.9766">2</text><line style="stroke:#A80036;stroke-width:1.0;" x1="1816.5" x2="1816.5" y1="220.4414" y2="240.9297"/><line style="stroke:#A80036;stroke-width:1.0;" x1="1729.5" x2="2277.5" y1="240.9297" y2="240.9297"/><text fill="#000000" font-family="sans-serif" font-size="14" lengthAdjust="spacing" textLength="67" x="1734.5" y="256.4648">maxItems</text><text fill="#000000" font-family="sans-serif" font-size="14" lengthAdjust="spacing" textLength="9" x="1821.5" y="256.4648">2</text><line style="stroke:#A80036;stroke-width:1.0;" x1="1816.5" x2="1816.5" y1="240.9297" y2="261.418"/><line style="stroke:#A80036;stroke-width:1.0;" x1="1729.5" x2="2277.5" y1="261.418" y2="261.418"/><text fill="#000000" font-family="sans-serif" font-size="14" lengthAdjust="spacing" textLength="37" x="1734.5" y="276.9531">items</text><text fill="#000000" font-family="sans-serif" font-size="14" lengthAdjust="spacing" textLength="0" x="1833.5" y="276.9531"/><line style="stroke:#A80036;stroke-width:1.0;" x1="1816.5" x2="1816.5" y1="261.418" y2="281.9063"/><rect fill="none" height="155.9063" rx="5" ry="5" style="stroke:#A80036;stroke-width:1.5;" width="548" x="1729.5" y="126"/><rect fill="#FEFECE" height="20.4883" rx="5" ry="5" style="stroke:#FEFECE;stroke-width:1.5;" width="103" x="2318" y="259"/><text fill="#000000" font-family="sans-serif" font-size="14" lengthAdjust="spacing" textLength="29" x="2323" y="274.5352">type</text><text fill="#000000" font-family="sans-serif" font-size="14" lengthAdjust="spacing" textLength="54" x="2362" y="274.5352">number</text><line style="stroke:#A80036;stroke-width:1.0;" x1="2357" x2="2357" y1="259" y2="279.4883"/><rect fill="none" height="20.4883" rx="5" ry="5" style="stroke:#A80036;stroke-width:1.5;" width="103" x="2318" y="259"/><rect fill="#FEFECE" height="110.9297" rx="5" ry="5" style="stroke:#FEFECE;stroke-width:1.5;" width="555" x="1726" y="300.5"/><text fill="#000000" font-family="sans-serif" font-size="14" lengthAdjust="spacing" textLength="77" x="1731" y="316.0352">description</text><text fill="#000000" font-family="sans-serif" font-size="14" lengthAdjust="spacing" textLength="456" x="1818" y="316.0352">Step value across the defined range an integer when the range is a</text><text fill="#000000" font-family="sans-serif" font-size="14" lengthAdjust="spacing" textLength="458" x="1818" y="332.5234">number.  This is the increment for valid values across the range; so</text><text fill="#000000" font-family="sans-serif" font-size="14" lengthAdjust="spacing" textLength="381" x="1818" y="349.0117">if range is 0.0..10.0 and step is 2.5 then valid values are</text><text fill="#000000" font-family="sans-serif" font-size="14" lengthAdjust="spacing" textLength="139" x="1818" y="365.5">0.0,2.5,5.0,7.5,10.0.</text><line style="stroke:#A80036;stroke-width:1.0;" x1="1813" x2="1813" y1="300.5" y2="370.4531"/><line style="stroke:#A80036;stroke-width:1.0;" x1="1726" x2="2281" y1="370.4531" y2="370.4531"/><text fill="#000000" font-family="sans-serif" font-size="14" lengthAdjust="spacing" textLength="55" x="1731" y="385.9883">writable</text><text fill="#000000" font-family="sans-serif" font-size="14" lengthAdjust="spacing" textLength="48" x="1818" y="385.9883">☐ false</text><line style="stroke:#A80036;stroke-width:1.0;" x1="1813" x2="1813" y1="370.4531" y2="390.9414"/><line style="stroke:#A80036;stroke-width:1.0;" x1="1726" x2="2281" y1="390.9414" y2="390.9414"/><text fill="#000000" font-family="sans-serif" font-size="14" lengthAdjust="spacing" textLength="29" x="1731" y="406.4766">type</text><text fill="#000000" font-family="sans-serif" font-size="14" lengthAdjust="spacing" textLength="54" x="1818" y="406.4766">number</text><line style="stroke:#A80036;stroke-width:1.0;" x1="1813" x2="1813" y1="390.9414" y2="411.4297"/><rect fill="none" height="110.9297" rx="5" ry="5" style="stroke:#A80036;stroke-width:1.5;" width="555" x="1726" y="300.5"/><rect fill="#FEFECE" height="20.4883" rx="5" ry="5" style="stroke:#FEFECE;stroke-width:1.5;" width="283" x="1406" y="254"/><text fill="#000000" font-family="sans-serif" font-size="14" lengthAdjust="spacing" textLength="273" x="1411" y="269.5352">#/sdfObject/torque/sdfProperty/torque</text><rect fill="none" height="20.4883" rx="5" ry="5" style="stroke:#A80036;stroke-width:1.5;" width="283" x="1406" y="254"/><path d="M95,169 L108,169 C117.4068,169 126.9554,168.9088 136.5926,168.7376 " fill="none" style="stroke:#A80036;stroke-width:1.0;stroke-dasharray:3.0,3.0;"/><path d="M136.6543,171.8363 L138.9166,168.6914 L136.5309,165.6389 L144.3394,168.5834 L136.6543,171.8363 " fill="#A80036" style="stroke:#A80036;stroke-width:1.0;"/><ellipse cx="95" cy="169" fill="#A80036" rx="3" ry="3" style="stroke:#A80036;stroke-width:1.0;stroke-dasharray:3.0,3.0;"/><path d="M1575,184 L1588,184 C1656.1799,184 1661.4812,139.0413 1726,117 C1733.0614,114.5876 1740.2599,112.2574 1747.5543,110.008 " fill="none" style="stroke:#A80036;stroke-width:1.0;stroke-dasharray:3.0,3.0;"/><path d="M1748.4433,112.9379 L1749.7518,109.3412 L1746.6653,107.078 L1754.8792,107.7854 L1748.4433,112.9379 " fill="#A80036" style="stroke:#A80036;stroke-width:1.0;"/><ellipse cx="1575" cy="184" fill="#A80036" rx="3" ry="3" style="stroke:#A80036;stroke-width:1.0;stroke-dasharray:3.0,3.0;"/><path d="M2266,269 L2279,269 C2289.1843,269 2300.0169,269 2310.5074,269 " fill="none" style="stroke:#A80036;stroke-width:1.0;stroke-dasharray:3.0,3.0;"/><path d="M2310.5074,272.0256 L2312.7767,269 L2310.5074,265.9744 L2318.0716,269 L2310.5074,272.0256 " fill="#A80036" style="stroke:#A80036;stroke-width:1.0;"/><ellipse cx="2266" cy="269" fill="#A80036" rx="3" ry="3" style="stroke:#A80036;stroke-width:1.0;stroke-dasharray:3.0,3.0;"/><path d="M1575,204 L1588,204 C1631.334,204 1677.2133,204 1722.0498,204 " fill="none" style="stroke:#A80036;stroke-width:1.0;stroke-dasharray:3.0,3.0;"/><path d="M1722.0498,207.1082 L1724.381,204 L1722.0498,200.8918 L1729.8202,204 L1722.0498,207.1082 " fill="#A80036" style="stroke:#A80036;stroke-width:1.0;"/><ellipse cx="1575" cy="204" fill="#A80036" rx="3" ry="3" style="stroke:#A80036;stroke-width:1.0;stroke-dasharray:3.0,3.0;"/><path d="M1575,225 L1588,225 C1634.1966,225 1650.6208,220.8463 1690,245 C1712.1299,258.5736 1704.124,277.0208 1726,291 C1729.0893,292.9741 1732.2322,294.8884 1735.4232,296.7446 " fill="none" style="stroke:#A80036;stroke-width:1.0;stroke-dasharray:3.0,3.0;"/><path d="M1733.9315,299.3908 L1737.4078,297.8634 L1736.9149,294.0985 L1742.0386,300.4739 L1733.9315,299.3908 " fill="#A80036" style="stroke:#A80036;stroke-width:1.0;"/><ellipse cx="1575" cy="225" fill="#A80036" rx="3" ry="3" style="stroke:#A80036;stroke-width:1.0;stroke-dasharray:3.0,3.0;"/><path d="M1357,213 L1370,213 C1414.4694,213 1465.1593,210.4488 1500.8628,208.2278 " fill="none" style="stroke:#A80036;stroke-width:1.0;stroke-dasharray:3.0,3.0;"/><path d="M1501.0616,211.3616 L1503.2131,208.0787 L1500.664,205.094 L1508.6972,207.7308 L1501.0616,211.3616 " fill="#A80036" style="stroke:#A80036;stroke-width:1.0;"/><ellipse cx="1357" cy="213" fill="#A80036" rx="3" ry="3" style="stroke:#A80036;stroke-width:1.0;stroke-dasharray:3.0,3.0;"/><path d="M1357,256 L1370,256 C1379.4372,256 1389.1546,256.1149 1398.9495,256.3172 " fill="none" style="stroke:#A80036;stroke-width:1.0;stroke-dasharray:3.0,3.0;"/><path d="M1398.881,259.3179 L1401.2001,256.3685 L1399.018,253.3164 L1406.4514,256.4884 L1398.881,259.3179 " fill="#A80036" style="stroke:#A80036;stroke-width:1.0;"/><ellipse cx="1357" cy="256" fill="#A80036" rx="3" ry="3" style="stroke:#A80036;stroke-width:1.0;stroke-dasharray:3.0,3.0;"/><path d="M478.5,214 L491.5,214 C587.8639,214 693.0809,214 787.6305,214 " fill="none" style="stroke:#A80036;stroke-width:1.0;stroke-dasharray:3.0,3.0;"/><path d="M787.6305,217.0631 L789.9278,214 L787.6305,210.9369 L795.2882,214 L787.6305,217.0631 " fill="#A80036" style="stroke:#A80036;stroke-width:1.0;"/><ellipse cx="478.5" cy="214" fill="#A80036" rx="3" ry="3" style="stroke:#A80036;stroke-width:1.0;stroke-dasharray:3.0,3.0;"/><path d="M95,190 L108,190 C124.1536,190 127.927,193.388 144,195 C236.1447,204.2414 344.3547,209.6893 404.4064,212.2369 " fill="none" style="stroke:#A80036;stroke-width:1.0;stroke-dasharray:3.0,3.0;"/><path d="M404.2761,215.3535 L406.7438,212.3346 L404.5366,209.1203 L412.1979,212.5626 L404.2761,215.3535 " fill="#A80036" style="stroke:#A80036;stroke-width:1.0;"/><ellipse cx="95" cy="190" fill="#A80036" rx="3" ry="3" style="stroke:#A80036;stroke-width:1.0;stroke-dasharray:3.0,3.0;"/><!--MD5=[0874f6560f5caad0e5e19805730a0591]
@startjson
{
  "info": {
    "copyright": "Copyright 2018-2019 Open Connectivity Foundation, Inc. All rights reserved.",
    "license": "https://github.com/one-data-model/oneDM/blob/master/LICENSE",
    "title": "Torque",
    "version": "2019-09-25"
  },
  "sdfObject": {
    "torque": {
      "description": "This Resource describes the torque, which is the rotational\\nequivalent of linear force. The unit, which is the default SI unit,\\nis N*m (Newton metre). The torque Property is a read-only value that\\nis provided by the server. When range (from \"oic. r. baseresource\")\\nis omitted the default is 0 to +MAXFLOAT.",
      "sdfProperty": {
        "torque": {
          "description": "This Resource describes the torque, which is the rotational\\nequivalent of linear force, in N*m (Newton metre).",
          "type": "number",
          "minimum": 0,
          "writable": false
        },
        "range": {
          "type": "array",
          "description": "The valid range for the Property in the Resource as a number. The\\nfirst value in the array is the minimum value, the second value in\\nthe array is the maximum value.",
          "writable": false,
          "minItems": 2,
          "maxItems": 2,
          "items": {
            "type": "number"
          }
        },
        "step": {
          "description": "Step value across the defined range an integer when the range is a\\nnumber.  This is the increment for valid values across the range; so\\nif range is 0.0..10.0 and step is 2.5 then valid values are\\n0.0,2.5,5.0,7.5,10.0.",
          "writable": false,
          "type": "number"
        }
      },
      "sdfRequired": [
        "#/sdfObject/torque/sdfProperty/torque"
      ]
    }
  }
}
@endjson

PlantUML version 1.2021.2(Sun Mar 07 13:10:27 EET 2021)
(GPL source distribution)
Java Runtime: OpenJDK Runtime Environment
JVM: OpenJDK 64-Bit Server VM
Default Encoding: UTF-8
Language: en
Country: FI
--></g></svg>