<?xml version="1.0" encoding="UTF-8" standalone="no"?><svg xmlns="http://www.w3.org/2000/svg" xmlns:xlink="http://www.w3.org/1999/xlink" contentScriptType="application/ecmascript" contentStyleType="text/css" height="473px" preserveAspectRatio="none" style="width:2400px;height:473px;" version="1.1" viewBox="0 0 2400 473" width="2400px" zoomAndPan="magnify"><defs/><g><rect fill="#FEFECE" height="40.9766" rx="5" ry="5" style="stroke:#FEFECE;stroke-width:1.5;" width="97" x="10" y="195"/><text fill="#000000" font-family="sans-serif" font-size="14" lengthAdjust="spacing" textLength="27" x="15" y="210.5352">info</text><text fill="#000000" font-family="sans-serif" font-size="14" lengthAdjust="spacing" textLength="0" x="102" y="210.5352"/><line style="stroke:#A80036;stroke-width:1.0;" x1="85" x2="85" y1="195" y2="215.4883"/><line style="stroke:#A80036;stroke-width:1.0;" x1="10" x2="107" y1="215.4883" y2="215.4883"/><text fill="#000000" font-family="sans-serif" font-size="14" lengthAdjust="spacing" textLength="65" x="15" y="231.0234">sdfObject</text><text fill="#000000" font-family="sans-serif" font-size="14" lengthAdjust="spacing" textLength="0" x="102" y="231.0234"/><line style="stroke:#A80036;stroke-width:1.0;" x1="85" x2="85" y1="215.4883" y2="235.9766"/><rect fill="none" height="40.9766" rx="5" ry="5" style="stroke:#A80036;stroke-width:1.5;" width="97" x="10" y="195"/><rect fill="#FEFECE" height="81.9531" rx="5" ry="5" style="stroke:#FEFECE;stroke-width:1.5;" width="655" x="144" y="139.5"/><text fill="#000000" font-family="sans-serif" font-size="14" lengthAdjust="spacing" textLength="65" x="149" y="155.0352">copyright</text><text fill="#000000" font-family="sans-serif" font-size="14" lengthAdjust="spacing" textLength="570" x="224" y="155.0352">copyright 2016-2017, 2019 Open Connectivity Foundation, Inc. All rights reserved.</text><line style="stroke:#A80036;stroke-width:1.0;" x1="219" x2="219" y1="139.5" y2="159.9883"/><line style="stroke:#A80036;stroke-width:1.0;" x1="144" x2="799" y1="159.9883" y2="159.9883"/><text fill="#000000" font-family="sans-serif" font-size="14" lengthAdjust="spacing" textLength="47" x="149" y="175.5234">license</text><text fill="#000000" font-family="sans-serif" font-size="14" lengthAdjust="spacing" textLength="462" x="224" y="175.5234">https://github.com/one-data-model/oneDM/blob/master/LICENSE</text><line style="stroke:#A80036;stroke-width:1.0;" x1="219" x2="219" y1="159.9883" y2="180.4766"/><line style="stroke:#A80036;stroke-width:1.0;" x1="144" x2="799" y1="180.4766" y2="180.4766"/><text fill="#000000" font-family="sans-serif" font-size="14" lengthAdjust="spacing" textLength="26" x="149" y="196.0117">title</text><text fill="#000000" font-family="sans-serif" font-size="14" lengthAdjust="spacing" textLength="274" x="224" y="196.0117">Demand Response Load Control (DRLC).</text><line style="stroke:#A80036;stroke-width:1.0;" x1="219" x2="219" y1="180.4766" y2="200.9648"/><line style="stroke:#A80036;stroke-width:1.0;" x1="144" x2="799" y1="200.9648" y2="200.9648"/><text fill="#000000" font-family="sans-serif" font-size="14" lengthAdjust="spacing" textLength="50" x="149" y="216.5">version</text><text fill="#000000" font-family="sans-serif" font-size="14" lengthAdjust="spacing" textLength="88" x="224" y="216.5">2019-07-09</text><line style="stroke:#A80036;stroke-width:1.0;" x1="219" x2="219" y1="200.9648" y2="221.4531"/><rect fill="none" height="81.9531" rx="5" ry="5" style="stroke:#A80036;stroke-width:1.5;" width="655" x="144" y="139.5"/><rect fill="#FEFECE" height="20.4883" rx="5" ry="5" style="stroke:#FEFECE;stroke-width:1.5;" width="109" x="417" y="239.5"/><text fill="#000000" font-family="sans-serif" font-size="14" lengthAdjust="spacing" textLength="77" x="422" y="255.0352">energy.drlc</text><text fill="#000000" font-family="sans-serif" font-size="14" lengthAdjust="spacing" textLength="0" x="521" y="255.0352"/><line style="stroke:#A80036;stroke-width:1.0;" x1="504" x2="504" y1="239.5" y2="259.9883"/><rect fill="none" height="20.4883" rx="5" ry="5" style="stroke:#A80036;stroke-width:1.5;" width="109" x="417" y="239.5"/><rect fill="#FEFECE" height="193.3711" rx="5" ry="5" style="stroke:#FEFECE;stroke-width:1.5;" width="594" x="836" y="153"/><text fill="#000000" font-family="sans-serif" font-size="14" lengthAdjust="spacing" textLength="77" x="841" y="168.5352">description</text><text fill="#000000" font-family="sans-serif" font-size="14" lengthAdjust="spacing" textLength="469" x="934" y="168.5352">This Resource describes any to be applied or currently being applied</text><text fill="#000000" font-family="sans-serif" font-size="14" lengthAdjust="spacing" textLength="491" x="934" y="185.0234">DRLC signal. The Property "DRType" is the ApplianceLoadReductionType</text><text fill="#000000" font-family="sans-serif" font-size="14" lengthAdjust="spacing" textLength="460" x="934" y="201.5117">defined in Zigbee/HA Smart Energy Profile 2. 0. The Property "start"</text><text fill="#000000" font-family="sans-serif" font-size="14" lengthAdjust="spacing" textLength="460" x="934" y="218">is a string containing an RFC3339 encoded start time. The Property</text><text fill="#000000" font-family="sans-serif" font-size="14" lengthAdjust="spacing" textLength="434" x="934" y="234.4883">"duration" value is in minutes. The Property "Override" indicates</text><text fill="#000000" font-family="sans-serif" font-size="14" lengthAdjust="spacing" textLength="431" x="934" y="250.9766">whether the consumer has overridden the request (true) or not</text><text fill="#000000" font-family="sans-serif" font-size="14" lengthAdjust="spacing" textLength="461" x="934" y="267.4648">(false). The Resource provides the current DRLC action that is being</text><text fill="#000000" font-family="sans-serif" font-size="14" lengthAdjust="spacing" textLength="430" x="934" y="283.9531">applied. A duration of 0 (zero) means that no DRLC is currently</text><text fill="#000000" font-family="sans-serif" font-size="14" lengthAdjust="spacing" textLength="43" x="934" y="300.4414">active.</text><line style="stroke:#A80036;stroke-width:1.0;" x1="929" x2="929" y1="153" y2="305.3945"/><line style="stroke:#A80036;stroke-width:1.0;" x1="836" x2="1430" y1="305.3945" y2="305.3945"/><text fill="#000000" font-family="sans-serif" font-size="14" lengthAdjust="spacing" textLength="79" x="841" y="320.9297">sdfProperty</text><text fill="#000000" font-family="sans-serif" font-size="14" lengthAdjust="spacing" textLength="0" x="946" y="320.9297"/><line style="stroke:#A80036;stroke-width:1.0;" x1="929" x2="929" y1="305.3945" y2="325.8828"/><line style="stroke:#A80036;stroke-width:1.0;" x1="836" x2="1430" y1="325.8828" y2="325.8828"/><text fill="#000000" font-family="sans-serif" font-size="14" lengthAdjust="spacing" textLength="83" x="841" y="341.418">sdfRequired</text><text fill="#000000" font-family="sans-serif" font-size="14" lengthAdjust="spacing" textLength="0" x="946" y="341.418"/><line style="stroke:#A80036;stroke-width:1.0;" x1="929" x2="929" y1="325.8828" y2="346.3711"/><rect fill="none" height="193.3711" rx="5" ry="5" style="stroke:#A80036;stroke-width:1.5;" width="594" x="836" y="153"/><rect fill="#FEFECE" height="122.9297" rx="5" ry="5" style="stroke:#FEFECE;stroke-width:1.5;" width="92" x="1581" y="175"/><text fill="#000000" font-family="sans-serif" font-size="14" lengthAdjust="spacing" textLength="31" x="1586" y="190.5352">start</text><text fill="#000000" font-family="sans-serif" font-size="14" lengthAdjust="spacing" textLength="0" x="1668" y="190.5352"/><line style="stroke:#A80036;stroke-width:1.0;" x1="1651" x2="1651" y1="175" y2="195.4883"/><line style="stroke:#A80036;stroke-width:1.0;" x1="1581" x2="1673" y1="195.4883" y2="195.4883"/><text fill="#000000" font-family="sans-serif" font-size="14" lengthAdjust="spacing" textLength="59" x="1586" y="211.0234">duration</text><text fill="#000000" font-family="sans-serif" font-size="14" lengthAdjust="spacing" textLength="0" x="1668" y="211.0234"/><line style="stroke:#A80036;stroke-width:1.0;" x1="1651" x2="1651" y1="195.4883" y2="215.9766"/><line style="stroke:#A80036;stroke-width:1.0;" x1="1581" x2="1673" y1="215.9766" y2="215.9766"/><text fill="#000000" font-family="sans-serif" font-size="14" lengthAdjust="spacing" textLength="57" x="1586" y="231.5117">override</text><text fill="#000000" font-family="sans-serif" font-size="14" lengthAdjust="spacing" textLength="0" x="1668" y="231.5117"/><line style="stroke:#A80036;stroke-width:1.0;" x1="1651" x2="1651" y1="215.9766" y2="236.4648"/><line style="stroke:#A80036;stroke-width:1.0;" x1="1581" x2="1673" y1="236.4648" y2="236.4648"/><text fill="#000000" font-family="sans-serif" font-size="14" lengthAdjust="spacing" textLength="52" x="1586" y="252">DRType</text><text fill="#000000" font-family="sans-serif" font-size="14" lengthAdjust="spacing" textLength="0" x="1668" y="252"/><line style="stroke:#A80036;stroke-width:1.0;" x1="1651" x2="1651" y1="236.4648" y2="256.9531"/><line style="stroke:#A80036;stroke-width:1.0;" x1="1581" x2="1673" y1="256.9531" y2="256.9531"/><text fill="#000000" font-family="sans-serif" font-size="14" lengthAdjust="spacing" textLength="46" x="1586" y="272.4883">drlevel</text><text fill="#000000" font-family="sans-serif" font-size="14" lengthAdjust="spacing" textLength="0" x="1668" y="272.4883"/><line style="stroke:#A80036;stroke-width:1.0;" x1="1651" x2="1651" y1="256.9531" y2="277.4414"/><line style="stroke:#A80036;stroke-width:1.0;" x1="1581" x2="1673" y1="277.4414" y2="277.4414"/><text fill="#000000" font-family="sans-serif" font-size="14" lengthAdjust="spacing" textLength="60" x="1586" y="292.9766">mandate</text><text fill="#000000" font-family="sans-serif" font-size="14" lengthAdjust="spacing" textLength="0" x="1668" y="292.9766"/><line style="stroke:#A80036;stroke-width:1.0;" x1="1651" x2="1651" y1="277.4414" y2="297.9297"/><rect fill="none" height="122.9297" rx="5" ry="5" style="stroke:#A80036;stroke-width:1.5;" width="92" x="1581" y="175"/><rect fill="#FEFECE" height="61.4648" rx="5" ry="5" style="stroke:#FEFECE;stroke-width:1.5;" width="367" x="1922.5" y="10"/><text fill="#000000" font-family="sans-serif" font-size="14" lengthAdjust="spacing" textLength="77" x="1927.5" y="25.5352">description</text><text fill="#000000" font-family="sans-serif" font-size="14" lengthAdjust="spacing" textLength="270" x="2014.5" y="25.5352">The start time for the application of DR.</text><line style="stroke:#A80036;stroke-width:1.0;" x1="2009.5" x2="2009.5" y1="10" y2="30.4883"/><line style="stroke:#A80036;stroke-width:1.0;" x1="1922.5" x2="2289.5" y1="30.4883" y2="30.4883"/><text fill="#000000" font-family="sans-serif" font-size="14" lengthAdjust="spacing" textLength="29" x="1927.5" y="46.0234">type</text><text fill="#000000" font-family="sans-serif" font-size="14" lengthAdjust="spacing" textLength="40" x="2014.5" y="46.0234">string</text><line style="stroke:#A80036;stroke-width:1.0;" x1="2009.5" x2="2009.5" y1="30.4883" y2="50.9766"/><line style="stroke:#A80036;stroke-width:1.0;" x1="1922.5" x2="2289.5" y1="50.9766" y2="50.9766"/><text fill="#000000" font-family="sans-serif" font-size="14" lengthAdjust="spacing" textLength="46" x="1927.5" y="66.5117">format</text><text fill="#000000" font-family="sans-serif" font-size="14" lengthAdjust="spacing" textLength="68" x="2014.5" y="66.5117">date-time</text><line style="stroke:#A80036;stroke-width:1.0;" x1="2009.5" x2="2009.5" y1="50.9766" y2="71.4648"/><rect fill="none" height="61.4648" rx="5" ry="5" style="stroke:#A80036;stroke-width:1.5;" width="367" x="1922.5" y="10"/><rect fill="#FEFECE" height="77.9531" rx="5" ry="5" style="stroke:#FEFECE;stroke-width:1.5;" width="545" x="1833.5" y="89.5"/><text fill="#000000" font-family="sans-serif" font-size="14" lengthAdjust="spacing" textLength="77" x="1838.5" y="105.0352">description</text><text fill="#000000" font-family="sans-serif" font-size="14" lengthAdjust="spacing" textLength="448" x="1925.5" y="105.0352">The duration of the to be applied DR type in minutes. A value of 0</text><text fill="#000000" font-family="sans-serif" font-size="14" lengthAdjust="spacing" textLength="149" x="1925.5" y="121.5234">means no applied DR.</text><line style="stroke:#A80036;stroke-width:1.0;" x1="1920.5" x2="1920.5" y1="89.5" y2="126.4766"/><line style="stroke:#A80036;stroke-width:1.0;" x1="1833.5" x2="2378.5" y1="126.4766" y2="126.4766"/><text fill="#000000" font-family="sans-serif" font-size="14" lengthAdjust="spacing" textLength="29" x="1838.5" y="142.0117">type</text><text fill="#000000" font-family="sans-serif" font-size="14" lengthAdjust="spacing" textLength="49" x="1925.5" y="142.0117">integer</text><line style="stroke:#A80036;stroke-width:1.0;" x1="1920.5" x2="1920.5" y1="126.4766" y2="146.9648"/><line style="stroke:#A80036;stroke-width:1.0;" x1="1833.5" x2="2378.5" y1="146.9648" y2="146.9648"/><text fill="#000000" font-family="sans-serif" font-size="14" lengthAdjust="spacing" textLength="65" x="1838.5" y="162.5">minimum</text><text fill="#000000" font-family="sans-serif" font-size="14" lengthAdjust="spacing" textLength="9" x="1925.5" y="162.5">0</text><line style="stroke:#A80036;stroke-width:1.0;" x1="1920.5" x2="1920.5" y1="146.9648" y2="167.4531"/><rect fill="none" height="77.9531" rx="5" ry="5" style="stroke:#A80036;stroke-width:1.5;" width="545" x="1833.5" y="89.5"/><rect fill="#FEFECE" height="40.9766" rx="5" ry="5" style="stroke:#FEFECE;stroke-width:1.5;" width="501" x="1855.5" y="186"/><text fill="#000000" font-family="sans-serif" font-size="14" lengthAdjust="spacing" textLength="77" x="1860.5" y="201.5352">description</text><text fill="#000000" font-family="sans-serif" font-size="14" lengthAdjust="spacing" textLength="404" x="1947.5" y="201.5352">Whether the consumer has overriden the application of DR.</text><line style="stroke:#A80036;stroke-width:1.0;" x1="1942.5" x2="1942.5" y1="186" y2="206.4883"/><line style="stroke:#A80036;stroke-width:1.0;" x1="1855.5" x2="2356.5" y1="206.4883" y2="206.4883"/><text fill="#000000" font-family="sans-serif" font-size="14" lengthAdjust="spacing" textLength="29" x="1860.5" y="222.0234">type</text><text fill="#000000" font-family="sans-serif" font-size="14" lengthAdjust="spacing" textLength="56" x="1947.5" y="222.0234">boolean</text><line style="stroke:#A80036;stroke-width:1.0;" x1="1942.5" x2="1942.5" y1="206.4883" y2="226.9766"/><rect fill="none" height="40.9766" rx="5" ry="5" style="stroke:#A80036;stroke-width:1.5;" width="501" x="1855.5" y="186"/><rect fill="#FEFECE" height="40.9766" rx="5" ry="5" style="stroke:#FEFECE;stroke-width:1.5;" width="385" x="1913.5" y="245"/><text fill="#000000" font-family="sans-serif" font-size="14" lengthAdjust="spacing" textLength="77" x="1918.5" y="260.5352">description</text><text fill="#000000" font-family="sans-serif" font-size="14" lengthAdjust="spacing" textLength="288" x="2005.5" y="260.5352">The to be applied demand-response type.</text><line style="stroke:#A80036;stroke-width:1.0;" x1="2000.5" x2="2000.5" y1="245" y2="265.4883"/><line style="stroke:#A80036;stroke-width:1.0;" x1="1913.5" x2="2298.5" y1="265.4883" y2="265.4883"/><text fill="#000000" font-family="sans-serif" font-size="14" lengthAdjust="spacing" textLength="29" x="1918.5" y="281.0234">type</text><text fill="#000000" font-family="sans-serif" font-size="14" lengthAdjust="spacing" textLength="49" x="2005.5" y="281.0234">integer</text><line style="stroke:#A80036;stroke-width:1.0;" x1="2000.5" x2="2000.5" y1="265.4883" y2="285.9766"/><rect fill="none" height="40.9766" rx="5" ry="5" style="stroke:#A80036;stroke-width:1.5;" width="385" x="1913.5" y="245"/><rect fill="#FEFECE" height="98.4414" rx="5" ry="5" style="stroke:#FEFECE;stroke-width:1.5;" width="564" x="1824" y="304.5"/><text fill="#000000" font-family="sans-serif" font-size="14" lengthAdjust="spacing" textLength="29" x="1829" y="320.0352">type</text><text fill="#000000" font-family="sans-serif" font-size="14" lengthAdjust="spacing" textLength="49" x="1916" y="320.0352">integer</text><line style="stroke:#A80036;stroke-width:1.0;" x1="1911" x2="1911" y1="304.5" y2="324.9883"/><line style="stroke:#A80036;stroke-width:1.0;" x1="1824" x2="2388" y1="324.9883" y2="324.9883"/><text fill="#000000" font-family="sans-serif" font-size="14" lengthAdjust="spacing" textLength="65" x="1829" y="340.5234">minimum</text><text fill="#000000" font-family="sans-serif" font-size="14" lengthAdjust="spacing" textLength="9" x="1916" y="340.5234">0</text><line style="stroke:#A80036;stroke-width:1.0;" x1="1911" x2="1911" y1="324.9883" y2="345.4766"/><line style="stroke:#A80036;stroke-width:1.0;" x1="1824" x2="2388" y1="345.4766" y2="345.4766"/><text fill="#000000" font-family="sans-serif" font-size="14" lengthAdjust="spacing" textLength="69" x="1829" y="361.0117">maximum</text><text fill="#000000" font-family="sans-serif" font-size="14" lengthAdjust="spacing" textLength="9" x="1916" y="361.0117">3</text><line style="stroke:#A80036;stroke-width:1.0;" x1="1911" x2="1911" y1="345.4766" y2="365.9648"/><line style="stroke:#A80036;stroke-width:1.0;" x1="1824" x2="2388" y1="365.9648" y2="365.9648"/><text fill="#000000" font-family="sans-serif" font-size="14" lengthAdjust="spacing" textLength="77" x="1829" y="381.5">description</text><text fill="#000000" font-family="sans-serif" font-size="14" lengthAdjust="spacing" textLength="467" x="1916" y="381.5">Indicator of the strength of the DR response that is requested; 0-0%,</text><text fill="#000000" font-family="sans-serif" font-size="14" lengthAdjust="spacing" textLength="148" x="1916" y="397.9883">1-30%, 2-50%, 3-70%</text><line style="stroke:#A80036;stroke-width:1.0;" x1="1911" x2="1911" y1="365.9648" y2="402.9414"/><rect fill="none" height="98.4414" rx="5" ry="5" style="stroke:#A80036;stroke-width:1.5;" width="564" x="1824" y="304.5"/><rect fill="#FEFECE" height="40.9766" rx="5" ry="5" style="stroke:#FEFECE;stroke-width:1.5;" width="524" x="1844" y="421"/><text fill="#000000" font-family="sans-serif" font-size="14" lengthAdjust="spacing" textLength="29" x="1849" y="436.5352">type</text><text fill="#000000" font-family="sans-serif" font-size="14" lengthAdjust="spacing" textLength="56" x="1936" y="436.5352">boolean</text><line style="stroke:#A80036;stroke-width:1.0;" x1="1931" x2="1931" y1="421" y2="441.4883"/><line style="stroke:#A80036;stroke-width:1.0;" x1="1844" x2="2368" y1="441.4883" y2="441.4883"/><text fill="#000000" font-family="sans-serif" font-size="14" lengthAdjust="spacing" textLength="77" x="1849" y="457.0234">description</text><text fill="#000000" font-family="sans-serif" font-size="14" lengthAdjust="spacing" textLength="427" x="1936" y="457.0234">Whether overriding the DR request by the consumer is allowed</text><line style="stroke:#A80036;stroke-width:1.0;" x1="1931" x2="1931" y1="441.4883" y2="461.9766"/><rect fill="none" height="40.9766" rx="5" ry="5" style="stroke:#A80036;stroke-width:1.5;" width="524" x="1844" y="421"/><rect fill="#FEFECE" height="20.4883" rx="5" ry="5" style="stroke:#FEFECE;stroke-width:1.5;" width="320" x="1467" y="316.5"/><text fill="#000000" font-family="sans-serif" font-size="14" lengthAdjust="spacing" textLength="310" x="1472" y="332.0352">#/sdfObject/energy.drlc/sdfProperty/DRType</text><rect fill="none" height="20.4883" rx="5" ry="5" style="stroke:#A80036;stroke-width:1.5;" width="320" x="1467" y="316.5"/><path d="M95,204.5 L108,204.5 C117.3442,204.5 126.8208,204.4198 136.3833,204.2688 " fill="none" style="stroke:#A80036;stroke-width:1.0;stroke-dasharray:3.0,3.0;"/><path d="M136.4378,207.3434 L138.6892,204.2279 L136.3288,201.1942 L144.0697,204.1326 L136.4378,207.3434 " fill="#A80036" style="stroke:#A80036;stroke-width:1.0;"/><ellipse cx="95" cy="204.5" fill="#A80036" rx="3" ry="3" style="stroke:#A80036;stroke-width:1.0;stroke-dasharray:3.0,3.0;"/><path d="M1661.5,184.5 L1674.5,184.5 C1755.4405,184.5 1748.6688,110.1068 1824,80.5 C1852.709,69.2167 1884.1756,61.0586 1915.3429,55.1721 " fill="none" style="stroke:#A80036;stroke-width:1.0;stroke-dasharray:3.0,3.0;"/><path d="M1915.8918,58.1676 L1917.5894,54.7604 L1914.7939,52.1767 L1922.8314,53.7998 L1915.8918,58.1676 " fill="#A80036" style="stroke:#A80036;stroke-width:1.0;"/><ellipse cx="1661.5" cy="184.5" fill="#A80036" rx="3" ry="3" style="stroke:#A80036;stroke-width:1.0;stroke-dasharray:3.0,3.0;"/><path d="M1661.5,205.5 L1674.5,205.5 C1742.183,205.5 1757.4135,188.6336 1824,176.5 C1837.9139,173.9646 1852.2223,171.3982 1866.6647,168.8392 " fill="none" style="stroke:#A80036;stroke-width:1.0;stroke-dasharray:3.0,3.0;"/><path d="M1867.1996,171.8645 L1868.9337,168.438 L1866.1298,165.8139 L1874.2279,167.5018 L1867.1996,171.8645 " fill="#A80036" style="stroke:#A80036;stroke-width:1.0;"/><ellipse cx="1661.5" cy="205.5" fill="#A80036" rx="3" ry="3" style="stroke:#A80036;stroke-width:1.0;stroke-dasharray:3.0,3.0;"/><path d="M1661.5,225.5 L1674.5,225.5 C1730.6798,225.5 1790.9388,223.8689 1848.0637,221.5625 " fill="none" style="stroke:#A80036;stroke-width:1.0;stroke-dasharray:3.0,3.0;"/><path d="M1848.1895,224.6324 L1850.3661,221.4681 L1847.9378,218.4926 L1855.7384,221.2479 L1848.1895,224.6324 " fill="#A80036" style="stroke:#A80036;stroke-width:1.0;"/><ellipse cx="1661.5" cy="225.5" fill="#A80036" rx="3" ry="3" style="stroke:#A80036;stroke-width:1.0;stroke-dasharray:3.0,3.0;"/><path d="M1661.5,246.5 L1674.5,246.5 C1750.1082,246.5 1833.1048,249.4543 1905.9066,253.0331 " fill="none" style="stroke:#A80036;stroke-width:1.0;stroke-dasharray:3.0,3.0;"/><path d="M1905.7492,256.1997 L1908.2816,253.1511 L1906.064,249.8664 L1913.8232,253.4266 L1905.7492,256.1997 " fill="#A80036" style="stroke:#A80036;stroke-width:1.0;"/><ellipse cx="1661.5" cy="246.5" fill="#A80036" rx="3" ry="3" style="stroke:#A80036;stroke-width:1.0;stroke-dasharray:3.0,3.0;"/><path d="M1661.5,267.5 L1674.5,267.5 C1679.886,267.5 1764.4084,284.2388 1857.1925,302.9469 " fill="none" style="stroke:#A80036;stroke-width:1.0;stroke-dasharray:3.0,3.0;"/><path d="M1856.5829,305.9688 L1859.4589,303.4041 L1857.8021,299.9249 L1864.7474,304.4708 L1856.5829,305.9688 " fill="#A80036" style="stroke:#A80036;stroke-width:1.0;"/><ellipse cx="1661.5" cy="267.5" fill="#A80036" rx="3" ry="3" style="stroke:#A80036;stroke-width:1.0;stroke-dasharray:3.0,3.0;"/><path d="M1661.5,287.5 L1674.5,287.5 C1725.7216,287.5 1749.0218,274.2682 1788,307.5 C1825.2215,339.2341 1785.7174,381.0543 1824,411.5 C1828.4297,415.0229 1833.0304,418.2895 1837.7779,421.3158 " fill="none" style="stroke:#A80036;stroke-width:1.0;stroke-dasharray:3.0,3.0;"/><path d="M1836.1862,423.9408 L1839.7467,422.5096 L1839.3696,418.6908 L1844.3404,425.2952 L1836.1862,423.9408 " fill="#A80036" style="stroke:#A80036;stroke-width:1.0;"/><ellipse cx="1661.5" cy="287.5" fill="#A80036" rx="3" ry="3" style="stroke:#A80036;stroke-width:1.0;stroke-dasharray:3.0,3.0;"/><path d="M1418,248.5 L1431,248.5 C1479.2975,248.5 1534.1808,244.8062 1573.4754,241.5174 " fill="none" style="stroke:#A80036;stroke-width:1.0;stroke-dasharray:3.0,3.0;"/><path d="M1573.7359,244.5752 L1575.7688,241.322 L1573.215,238.4596 L1581.12,240.8662 L1573.7359,244.5752 " fill="#A80036" style="stroke:#A80036;stroke-width:1.0;"/><ellipse cx="1418" cy="248.5" fill="#A80036" rx="3" ry="3" style="stroke:#A80036;stroke-width:1.0;stroke-dasharray:3.0,3.0;"/><path d="M1418,313.5 L1431,313.5 C1455.5845,313.5 1481.8697,314.5361 1506.9359,316.0234 " fill="none" style="stroke:#A80036;stroke-width:1.0;stroke-dasharray:3.0,3.0;"/><path d="M1506.7458,319.1181 L1509.257,316.166 L1507.1261,312.9287 L1514.6727,316.4988 L1506.7458,319.1181 " fill="#A80036" style="stroke:#A80036;stroke-width:1.0;"/><ellipse cx="1418" cy="313.5" fill="#A80036" rx="3" ry="3" style="stroke:#A80036;stroke-width:1.0;stroke-dasharray:3.0,3.0;"/><path d="M515,249.5 L528,249.5 C625.7103,249.5 732.3046,249.5 828.397,249.5 " fill="none" style="stroke:#A80036;stroke-width:1.0;stroke-dasharray:3.0,3.0;"/><path d="M828.397,252.6134 L830.7321,249.5 L828.397,246.3866 L836.1805,249.5 L828.397,252.6134 " fill="#A80036" style="stroke:#A80036;stroke-width:1.0;"/><ellipse cx="515" cy="249.5" fill="#A80036" rx="3" ry="3" style="stroke:#A80036;stroke-width:1.0;stroke-dasharray:3.0,3.0;"/><path d="M95,225.5 L108,225.5 C124.1536,225.5 127.924,228.9191 144,230.5 C236.315,239.578 343.7499,244.8014 409.5561,247.3966 " fill="none" style="stroke:#A80036;stroke-width:1.0;stroke-dasharray:3.0,3.0;"/><path d="M409.4347,250.5226 L411.9006,247.4877 L409.6775,244.2706 L417.3711,247.7002 L409.4347,250.5226 " fill="#A80036" style="stroke:#A80036;stroke-width:1.0;"/><ellipse cx="95" cy="225.5" fill="#A80036" rx="3" ry="3" style="stroke:#A80036;stroke-width:1.0;stroke-dasharray:3.0,3.0;"/><!--MD5=[59a033b1e38cfc1fa4520270ff3c1a2e]
@startjson
{
  "info": {
    "copyright": "copyright 2016-2017, 2019 Open Connectivity Foundation, Inc. All rights reserved.",
    "license": "https://github.com/one-data-model/oneDM/blob/master/LICENSE",
    "title": "Demand Response Load Control (DRLC).",
    "version": "2019-07-09"
  },
  "sdfObject": {
    "energy.drlc": {
      "description": "This Resource describes any to be applied or currently being applied\\nDRLC signal. The Property \"DRType\" is the ApplianceLoadReductionType\\ndefined in Zigbee/HA Smart Energy Profile 2. 0. The Property \"start\"\\nis a string containing an RFC3339 encoded start time. The Property\\n\"duration\" value is in minutes. The Property \"Override\" indicates\\nwhether the consumer has overridden the request (true) or not\\n(false). The Resource provides the current DRLC action that is being\\napplied. A duration of 0 (zero) means that no DRLC is currently\\nactive.",
      "sdfProperty": {
        "start": {
          "description": "The start time for the application of DR.",
          "type": "string",
          "format": "date-time"
        },
        "duration": {
          "description": "The duration of the to be applied DR type in minutes. A value of 0\\nmeans no applied DR.",
          "type": "integer",
          "minimum": 0
        },
        "override": {
          "description": "Whether the consumer has overriden the application of DR.",
          "type": "boolean"
        },
        "DRType": {
          "description": "The to be applied demand-response type.",
          "type": "integer"
        },
        "drlevel": {
          "type": "integer",
          "minimum": 0,
          "maximum": 3,
          "description": "Indicator of the strength of the DR response that is requested; 0-0%,\\n1-30%, 2-50%, 3-70%"
        },
        "mandate": {
          "type": "boolean",
          "description": "Whether overriding the DR request by the consumer is allowed"
        }
      },
      "sdfRequired": [
        "#/sdfObject/energy.drlc/sdfProperty/DRType"
      ]
    }
  }
}
@endjson

PlantUML version 1.2021.2(Sun Mar 07 13:10:27 EET 2021)
(GPL source distribution)
Java Runtime: OpenJDK Runtime Environment
JVM: OpenJDK 64-Bit Server VM
Default Encoding: UTF-8
Language: en
Country: FI
--></g></svg>