<?xml version="1.0" encoding="UTF-8" standalone="no"?><svg xmlns="http://www.w3.org/2000/svg" xmlns:xlink="http://www.w3.org/1999/xlink" contentScriptType="application/ecmascript" contentStyleType="text/css" height="875px" preserveAspectRatio="none" style="width:2592px;height:875px;" version="1.1" viewBox="0 0 2592 875" width="2592px" zoomAndPan="magnify"><defs/><g><rect fill="#FEFECE" height="40.9766" rx="5" ry="5" style="stroke:#FEFECE;stroke-width:1.5;" width="97" x="10" y="398.5"/><text fill="#000000" font-family="sans-serif" font-size="14" lengthAdjust="spacing" textLength="27" x="15" y="414.0352">info</text><text fill="#000000" font-family="sans-serif" font-size="14" lengthAdjust="spacing" textLength="0" x="102" y="414.0352"/><line style="stroke:#A80036;stroke-width:1.0;" x1="85" x2="85" y1="398.5" y2="418.9883"/><line style="stroke:#A80036;stroke-width:1.0;" x1="10" x2="107" y1="418.9883" y2="418.9883"/><text fill="#000000" font-family="sans-serif" font-size="14" lengthAdjust="spacing" textLength="65" x="15" y="434.5234">sdfObject</text><text fill="#000000" font-family="sans-serif" font-size="14" lengthAdjust="spacing" textLength="0" x="102" y="434.5234"/><line style="stroke:#A80036;stroke-width:1.0;" x1="85" x2="85" y1="418.9883" y2="439.4766"/><rect fill="none" height="40.9766" rx="5" ry="5" style="stroke:#A80036;stroke-width:1.5;" width="97" x="10" y="398.5"/><rect fill="#FEFECE" height="81.9531" rx="5" ry="5" style="stroke:#FEFECE;stroke-width:1.5;" width="614" x="144" y="343"/><text fill="#000000" font-family="sans-serif" font-size="14" lengthAdjust="spacing" textLength="65" x="149" y="358.5352">copyright</text><text fill="#000000" font-family="sans-serif" font-size="14" lengthAdjust="spacing" textLength="529" x="224" y="358.5352">Copyright 2018-2019 Open Connectivity Foundation, Inc. All rights reserved.</text><line style="stroke:#A80036;stroke-width:1.0;" x1="219" x2="219" y1="343" y2="363.4883"/><line style="stroke:#A80036;stroke-width:1.0;" x1="144" x2="758" y1="363.4883" y2="363.4883"/><text fill="#000000" font-family="sans-serif" font-size="14" lengthAdjust="spacing" textLength="47" x="149" y="379.0234">license</text><text fill="#000000" font-family="sans-serif" font-size="14" lengthAdjust="spacing" textLength="462" x="224" y="379.0234">https://github.com/one-data-model/oneDM/blob/master/LICENSE</text><line style="stroke:#A80036;stroke-width:1.0;" x1="219" x2="219" y1="363.4883" y2="383.9766"/><line style="stroke:#A80036;stroke-width:1.0;" x1="144" x2="758" y1="383.9766" y2="383.9766"/><text fill="#000000" font-family="sans-serif" font-size="14" lengthAdjust="spacing" textLength="26" x="149" y="399.5117">title</text><text fill="#000000" font-family="sans-serif" font-size="14" lengthAdjust="spacing" textLength="297" x="224" y="399.5117">Status for Continuous Glucose Meter (CGM)</text><line style="stroke:#A80036;stroke-width:1.0;" x1="219" x2="219" y1="383.9766" y2="404.4648"/><line style="stroke:#A80036;stroke-width:1.0;" x1="144" x2="758" y1="404.4648" y2="404.4648"/><text fill="#000000" font-family="sans-serif" font-size="14" lengthAdjust="spacing" textLength="50" x="149" y="420">version</text><text fill="#000000" font-family="sans-serif" font-size="14" lengthAdjust="spacing" textLength="88" x="224" y="420">2019-03-04</text><line style="stroke:#A80036;stroke-width:1.0;" x1="219" x2="219" y1="404.4648" y2="424.9531"/><rect fill="none" height="81.9531" rx="5" ry="5" style="stroke:#A80036;stroke-width:1.5;" width="614" x="144" y="343"/><rect fill="#FEFECE" height="20.4883" rx="5" ry="5" style="stroke:#FEFECE;stroke-width:1.5;" width="106" x="398" y="443"/><text fill="#000000" font-family="sans-serif" font-size="14" lengthAdjust="spacing" textLength="74" x="403" y="458.5352">cgm.status</text><text fill="#000000" font-family="sans-serif" font-size="14" lengthAdjust="spacing" textLength="0" x="499" y="458.5352"/><line style="stroke:#A80036;stroke-width:1.0;" x1="482" x2="482" y1="443" y2="463.4883"/><rect fill="none" height="20.4883" rx="5" ry="5" style="stroke:#A80036;stroke-width:1.5;" width="106" x="398" y="443"/><rect fill="#FEFECE" height="77.9531" rx="5" ry="5" style="stroke:#FEFECE;stroke-width:1.5;" width="547" x="795" y="414"/><text fill="#000000" font-family="sans-serif" font-size="14" lengthAdjust="spacing" textLength="77" x="800" y="429.5352">description</text><text fill="#000000" font-family="sans-serif" font-size="14" lengthAdjust="spacing" textLength="444" x="893" y="429.5352">This Resource describes the Properties associated with Status for</text><text fill="#000000" font-family="sans-serif" font-size="14" lengthAdjust="spacing" textLength="231" x="893" y="446.0234">Continuous Glucose Meter (CGM).</text><line style="stroke:#A80036;stroke-width:1.0;" x1="888" x2="888" y1="414" y2="450.9766"/><line style="stroke:#A80036;stroke-width:1.0;" x1="795" x2="1342" y1="450.9766" y2="450.9766"/><text fill="#000000" font-family="sans-serif" font-size="14" lengthAdjust="spacing" textLength="79" x="800" y="466.5117">sdfProperty</text><text fill="#000000" font-family="sans-serif" font-size="14" lengthAdjust="spacing" textLength="0" x="905" y="466.5117"/><line style="stroke:#A80036;stroke-width:1.0;" x1="888" x2="888" y1="450.9766" y2="471.4648"/><line style="stroke:#A80036;stroke-width:1.0;" x1="795" x2="1342" y1="471.4648" y2="471.4648"/><text fill="#000000" font-family="sans-serif" font-size="14" lengthAdjust="spacing" textLength="83" x="800" y="487">sdfRequired</text><text fill="#000000" font-family="sans-serif" font-size="14" lengthAdjust="spacing" textLength="0" x="905" y="487"/><line style="stroke:#A80036;stroke-width:1.0;" x1="888" x2="888" y1="471.4648" y2="491.9531"/><rect fill="none" height="77.9531" rx="5" ry="5" style="stroke:#A80036;stroke-width:1.5;" width="547" x="795" y="414"/><rect fill="#FEFECE" height="143.418" rx="5" ry="5" style="stroke:#FEFECE;stroke-width:1.5;" width="114" x="1495.5" y="329.5"/><text fill="#000000" font-family="sans-serif" font-size="14" lengthAdjust="spacing" textLength="58" x="1500.5" y="345.0352">cgmtype</text><text fill="#000000" font-family="sans-serif" font-size="14" lengthAdjust="spacing" textLength="0" x="1604.5" y="345.0352"/><line style="stroke:#A80036;stroke-width:1.0;" x1="1587.5" x2="1587.5" y1="329.5" y2="349.9883"/><line style="stroke:#A80036;stroke-width:1.0;" x1="1495.5" x2="1609.5" y1="349.9883" y2="349.9883"/><text fill="#000000" font-family="sans-serif" font-size="14" lengthAdjust="spacing" textLength="70" x="1500.5" y="365.5234">cgmstatus</text><text fill="#000000" font-family="sans-serif" font-size="14" lengthAdjust="spacing" textLength="0" x="1604.5" y="365.5234"/><line style="stroke:#A80036;stroke-width:1.0;" x1="1587.5" x2="1587.5" y1="349.9883" y2="370.4766"/><line style="stroke:#A80036;stroke-width:1.0;" x1="1495.5" x2="1609.5" y1="370.4766" y2="370.4766"/><text fill="#000000" font-family="sans-serif" font-size="14" lengthAdjust="spacing" textLength="46" x="1500.5" y="386.0117">gtrend</text><text fill="#000000" font-family="sans-serif" font-size="14" lengthAdjust="spacing" textLength="0" x="1604.5" y="386.0117"/><line style="stroke:#A80036;stroke-width:1.0;" x1="1587.5" x2="1587.5" y1="370.4766" y2="390.9648"/><line style="stroke:#A80036;stroke-width:1.0;" x1="1495.5" x2="1609.5" y1="390.9648" y2="390.9648"/><text fill="#000000" font-family="sans-serif" font-size="14" lengthAdjust="spacing" textLength="82" x="1500.5" y="406.5">malfunction</text><text fill="#000000" font-family="sans-serif" font-size="14" lengthAdjust="spacing" textLength="0" x="1604.5" y="406.5"/><line style="stroke:#A80036;stroke-width:1.0;" x1="1587.5" x2="1587.5" y1="390.9648" y2="411.4531"/><line style="stroke:#A80036;stroke-width:1.0;" x1="1495.5" x2="1609.5" y1="411.4531" y2="411.4531"/><text fill="#000000" font-family="sans-serif" font-size="14" lengthAdjust="spacing" textLength="40" x="1500.5" y="426.9883">range</text><text fill="#000000" font-family="sans-serif" font-size="14" lengthAdjust="spacing" textLength="0" x="1604.5" y="426.9883"/><line style="stroke:#A80036;stroke-width:1.0;" x1="1587.5" x2="1587.5" y1="411.4531" y2="431.9414"/><line style="stroke:#A80036;stroke-width:1.0;" x1="1495.5" x2="1609.5" y1="431.9414" y2="431.9414"/><text fill="#000000" font-family="sans-serif" font-size="14" lengthAdjust="spacing" textLength="29" x="1500.5" y="447.4766">step</text><text fill="#000000" font-family="sans-serif" font-size="14" lengthAdjust="spacing" textLength="0" x="1604.5" y="447.4766"/><line style="stroke:#A80036;stroke-width:1.0;" x1="1587.5" x2="1587.5" y1="431.9414" y2="452.4297"/><line style="stroke:#A80036;stroke-width:1.0;" x1="1495.5" x2="1609.5" y1="452.4297" y2="452.4297"/><text fill="#000000" font-family="sans-serif" font-size="14" lengthAdjust="spacing" textLength="63" x="1500.5" y="467.9648">precision</text><text fill="#000000" font-family="sans-serif" font-size="14" lengthAdjust="spacing" textLength="0" x="1604.5" y="467.9648"/><line style="stroke:#A80036;stroke-width:1.0;" x1="1587.5" x2="1587.5" y1="452.4297" y2="472.918"/><rect fill="none" height="143.418" rx="5" ry="5" style="stroke:#A80036;stroke-width:1.5;" width="114" x="1495.5" y="329.5"/><rect fill="#FEFECE" height="81.9531" rx="5" ry="5" style="stroke:#FEFECE;stroke-width:1.5;" width="454" x="1827" y="41"/><text fill="#000000" font-family="sans-serif" font-size="14" lengthAdjust="spacing" textLength="77" x="1832" y="56.5352">description</text><text fill="#000000" font-family="sans-serif" font-size="14" lengthAdjust="spacing" textLength="357" x="1919" y="56.5352">This Property describes the CGM measurement type.</text><line style="stroke:#A80036;stroke-width:1.0;" x1="1914" x2="1914" y1="41" y2="61.4883"/><line style="stroke:#A80036;stroke-width:1.0;" x1="1827" x2="2281" y1="61.4883" y2="61.4883"/><text fill="#000000" font-family="sans-serif" font-size="14" lengthAdjust="spacing" textLength="29" x="1832" y="77.0234">type</text><text fill="#000000" font-family="sans-serif" font-size="14" lengthAdjust="spacing" textLength="40" x="1919" y="77.0234">string</text><line style="stroke:#A80036;stroke-width:1.0;" x1="1914" x2="1914" y1="61.4883" y2="81.9766"/><line style="stroke:#A80036;stroke-width:1.0;" x1="1827" x2="2281" y1="81.9766" y2="81.9766"/><text fill="#000000" font-family="sans-serif" font-size="14" lengthAdjust="spacing" textLength="39" x="1832" y="97.5117">enum</text><text fill="#000000" font-family="sans-serif" font-size="14" lengthAdjust="spacing" textLength="0" x="1931" y="97.5117"/><line style="stroke:#A80036;stroke-width:1.0;" x1="1914" x2="1914" y1="81.9766" y2="102.4648"/><line style="stroke:#A80036;stroke-width:1.0;" x1="1827" x2="2281" y1="102.4648" y2="102.4648"/><text fill="#000000" font-family="sans-serif" font-size="14" lengthAdjust="spacing" textLength="55" x="1832" y="118">writable</text><text fill="#000000" font-family="sans-serif" font-size="14" lengthAdjust="spacing" textLength="48" x="1919" y="118">☐ false</text><line style="stroke:#A80036;stroke-width:1.0;" x1="1914" x2="1914" y1="102.4648" y2="122.9531"/><rect fill="none" height="81.9531" rx="5" ry="5" style="stroke:#A80036;stroke-width:1.5;" width="454" x="1827" y="41"/><rect fill="#FEFECE" height="163.9063" rx="5" ry="5" style="stroke:#FEFECE;stroke-width:1.5;" width="198" x="2382" y="10"/><text fill="#000000" font-family="sans-serif" font-size="14" lengthAdjust="spacing" textLength="150" x="2387" y="25.5352">Capillary Whole blood</text><line style="stroke:#A80036;stroke-width:1.0;" x1="2382" x2="2580" y1="30.4883" y2="30.4883"/><text fill="#000000" font-family="sans-serif" font-size="14" lengthAdjust="spacing" textLength="112" x="2387" y="46.0234">Capillary Plasma</text><line style="stroke:#A80036;stroke-width:1.0;" x1="2382" x2="2580" y1="50.9766" y2="50.9766"/><text fill="#000000" font-family="sans-serif" font-size="14" lengthAdjust="spacing" textLength="103" x="2387" y="66.5117">Venous Plasma</text><line style="stroke:#A80036;stroke-width:1.0;" x1="2382" x2="2580" y1="71.4648" y2="71.4648"/><text fill="#000000" font-family="sans-serif" font-size="14" lengthAdjust="spacing" textLength="141" x="2387" y="87">Arterial Whole blood</text><line style="stroke:#A80036;stroke-width:1.0;" x1="2382" x2="2580" y1="91.9531" y2="91.9531"/><text fill="#000000" font-family="sans-serif" font-size="14" lengthAdjust="spacing" textLength="103" x="2387" y="107.4883">Arterial Plasma</text><line style="stroke:#A80036;stroke-width:1.0;" x1="2382" x2="2580" y1="112.4414" y2="112.4414"/><text fill="#000000" font-family="sans-serif" font-size="14" lengthAdjust="spacing" textLength="188" x="2387" y="127.9766">Undetermined Whole blood</text><line style="stroke:#A80036;stroke-width:1.0;" x1="2382" x2="2580" y1="132.9297" y2="132.9297"/><text fill="#000000" font-family="sans-serif" font-size="14" lengthAdjust="spacing" textLength="150" x="2387" y="148.4648">Undetermined Plasma</text><line style="stroke:#A80036;stroke-width:1.0;" x1="2382" x2="2580" y1="153.418" y2="153.418"/><text fill="#000000" font-family="sans-serif" font-size="14" lengthAdjust="spacing" textLength="107" x="2387" y="168.9531">Interstitial Fluid</text><rect fill="none" height="163.9063" rx="5" ry="5" style="stroke:#A80036;stroke-width:1.5;" width="198" x="2382" y="10"/><rect fill="#FEFECE" height="94.4414" rx="5" ry="5" style="stroke:#FEFECE;stroke-width:1.5;" width="555" x="1776.5" y="141"/><text fill="#000000" font-family="sans-serif" font-size="14" lengthAdjust="spacing" textLength="77" x="1781.5" y="156.5352">description</text><text fill="#000000" font-family="sans-serif" font-size="14" lengthAdjust="spacing" textLength="453" x="1868.5" y="156.5352">This Property describes the specific notifications given by the CGM</text><text fill="#000000" font-family="sans-serif" font-size="14" lengthAdjust="spacing" textLength="458" x="1868.5" y="173.0234">device including, but not limited to, warnings, errors, and handling</text><text fill="#000000" font-family="sans-serif" font-size="14" lengthAdjust="spacing" textLength="48" x="1868.5" y="189.5117">events.</text><line style="stroke:#A80036;stroke-width:1.0;" x1="1863.5" x2="1863.5" y1="141" y2="194.4648"/><line style="stroke:#A80036;stroke-width:1.0;" x1="1776.5" x2="2331.5" y1="194.4648" y2="194.4648"/><text fill="#000000" font-family="sans-serif" font-size="14" lengthAdjust="spacing" textLength="29" x="1781.5" y="210">type</text><text fill="#000000" font-family="sans-serif" font-size="14" lengthAdjust="spacing" textLength="40" x="1868.5" y="210">string</text><line style="stroke:#A80036;stroke-width:1.0;" x1="1863.5" x2="1863.5" y1="194.4648" y2="214.9531"/><line style="stroke:#A80036;stroke-width:1.0;" x1="1776.5" x2="2331.5" y1="214.9531" y2="214.9531"/><text fill="#000000" font-family="sans-serif" font-size="14" lengthAdjust="spacing" textLength="55" x="1781.5" y="230.4883">writable</text><text fill="#000000" font-family="sans-serif" font-size="14" lengthAdjust="spacing" textLength="48" x="1868.5" y="230.4883">☐ false</text><line style="stroke:#A80036;stroke-width:1.0;" x1="1863.5" x2="1863.5" y1="214.9531" y2="235.4414"/><rect fill="none" height="94.4414" rx="5" ry="5" style="stroke:#A80036;stroke-width:1.5;" width="555" x="1776.5" y="141"/><rect fill="#FEFECE" height="98.4414" rx="5" ry="5" style="stroke:#FEFECE;stroke-width:1.5;" width="582" x="1763" y="253"/><text fill="#000000" font-family="sans-serif" font-size="14" lengthAdjust="spacing" textLength="77" x="1768" y="268.5352">description</text><text fill="#000000" font-family="sans-serif" font-size="14" lengthAdjust="spacing" textLength="485" x="1855" y="268.5352">This Property describes the rate of change in glucose measurements at</text><text fill="#000000" font-family="sans-serif" font-size="14" lengthAdjust="spacing" textLength="97" x="1855" y="285.0234">a time instant.</text><line style="stroke:#A80036;stroke-width:1.0;" x1="1850" x2="1850" y1="253" y2="289.9766"/><line style="stroke:#A80036;stroke-width:1.0;" x1="1763" x2="2345" y1="289.9766" y2="289.9766"/><text fill="#000000" font-family="sans-serif" font-size="14" lengthAdjust="spacing" textLength="29" x="1768" y="305.5117">type</text><text fill="#000000" font-family="sans-serif" font-size="14" lengthAdjust="spacing" textLength="54" x="1855" y="305.5117">number</text><line style="stroke:#A80036;stroke-width:1.0;" x1="1850" x2="1850" y1="289.9766" y2="310.4648"/><line style="stroke:#A80036;stroke-width:1.0;" x1="1763" x2="2345" y1="310.4648" y2="310.4648"/><text fill="#000000" font-family="sans-serif" font-size="14" lengthAdjust="spacing" textLength="65" x="1768" y="326">minimum</text><text fill="#000000" font-family="sans-serif" font-size="14" lengthAdjust="spacing" textLength="9" x="1855" y="326">0</text><line style="stroke:#A80036;stroke-width:1.0;" x1="1850" x2="1850" y1="310.4648" y2="330.9531"/><line style="stroke:#A80036;stroke-width:1.0;" x1="1763" x2="2345" y1="330.9531" y2="330.9531"/><text fill="#000000" font-family="sans-serif" font-size="14" lengthAdjust="spacing" textLength="55" x="1768" y="346.4883">writable</text><text fill="#000000" font-family="sans-serif" font-size="14" lengthAdjust="spacing" textLength="48" x="1855" y="346.4883">☐ false</text><line style="stroke:#A80036;stroke-width:1.0;" x1="1850" x2="1850" y1="330.9531" y2="351.4414"/><rect fill="none" height="98.4414" rx="5" ry="5" style="stroke:#A80036;stroke-width:1.5;" width="582" x="1763" y="253"/><rect fill="#FEFECE" height="61.4648" rx="5" ry="5" style="stroke:#FEFECE;stroke-width:1.5;" width="534" x="1787" y="369.5"/><text fill="#000000" font-family="sans-serif" font-size="14" lengthAdjust="spacing" textLength="77" x="1792" y="385.0352">description</text><text fill="#000000" font-family="sans-serif" font-size="14" lengthAdjust="spacing" textLength="437" x="1879" y="385.0352">This Property describes the sensor malfunction detection check.</text><line style="stroke:#A80036;stroke-width:1.0;" x1="1874" x2="1874" y1="369.5" y2="389.9883"/><line style="stroke:#A80036;stroke-width:1.0;" x1="1787" x2="2321" y1="389.9883" y2="389.9883"/><text fill="#000000" font-family="sans-serif" font-size="14" lengthAdjust="spacing" textLength="29" x="1792" y="405.5234">type</text><text fill="#000000" font-family="sans-serif" font-size="14" lengthAdjust="spacing" textLength="56" x="1879" y="405.5234">boolean</text><line style="stroke:#A80036;stroke-width:1.0;" x1="1874" x2="1874" y1="389.9883" y2="410.4766"/><line style="stroke:#A80036;stroke-width:1.0;" x1="1787" x2="2321" y1="410.4766" y2="410.4766"/><text fill="#000000" font-family="sans-serif" font-size="14" lengthAdjust="spacing" textLength="55" x="1792" y="426.0117">writable</text><text fill="#000000" font-family="sans-serif" font-size="14" lengthAdjust="spacing" textLength="48" x="1879" y="426.0117">☐ false</text><line style="stroke:#A80036;stroke-width:1.0;" x1="1874" x2="1874" y1="410.4766" y2="430.9648"/><rect fill="none" height="61.4648" rx="5" ry="5" style="stroke:#A80036;stroke-width:1.5;" width="534" x="1787" y="369.5"/><rect fill="#FEFECE" height="155.9063" rx="5" ry="5" style="stroke:#FEFECE;stroke-width:1.5;" width="548" x="1780" y="449"/><text fill="#000000" font-family="sans-serif" font-size="14" lengthAdjust="spacing" textLength="29" x="1785" y="464.5352">type</text><text fill="#000000" font-family="sans-serif" font-size="14" lengthAdjust="spacing" textLength="35" x="1872" y="464.5352">array</text><line style="stroke:#A80036;stroke-width:1.0;" x1="1867" x2="1867" y1="449" y2="469.4883"/><line style="stroke:#A80036;stroke-width:1.0;" x1="1780" x2="2328" y1="469.4883" y2="469.4883"/><text fill="#000000" font-family="sans-serif" font-size="14" lengthAdjust="spacing" textLength="77" x="1785" y="485.0234">description</text><text fill="#000000" font-family="sans-serif" font-size="14" lengthAdjust="spacing" textLength="451" x="1872" y="485.0234">The valid range for the Property in the Resource as a number. The</text><text fill="#000000" font-family="sans-serif" font-size="14" lengthAdjust="spacing" textLength="439" x="1872" y="501.5117">first value in the array is the minimum value, the second value in</text><text fill="#000000" font-family="sans-serif" font-size="14" lengthAdjust="spacing" textLength="219" x="1872" y="518">the array is the maximum value.</text><line style="stroke:#A80036;stroke-width:1.0;" x1="1867" x2="1867" y1="469.4883" y2="522.9531"/><line style="stroke:#A80036;stroke-width:1.0;" x1="1780" x2="2328" y1="522.9531" y2="522.9531"/><text fill="#000000" font-family="sans-serif" font-size="14" lengthAdjust="spacing" textLength="55" x="1785" y="538.4883">writable</text><text fill="#000000" font-family="sans-serif" font-size="14" lengthAdjust="spacing" textLength="48" x="1872" y="538.4883">☐ false</text><line style="stroke:#A80036;stroke-width:1.0;" x1="1867" x2="1867" y1="522.9531" y2="543.4414"/><line style="stroke:#A80036;stroke-width:1.0;" x1="1780" x2="2328" y1="543.4414" y2="543.4414"/><text fill="#000000" font-family="sans-serif" font-size="14" lengthAdjust="spacing" textLength="63" x="1785" y="558.9766">minItems</text><text fill="#000000" font-family="sans-serif" font-size="14" lengthAdjust="spacing" textLength="9" x="1872" y="558.9766">2</text><line style="stroke:#A80036;stroke-width:1.0;" x1="1867" x2="1867" y1="543.4414" y2="563.9297"/><line style="stroke:#A80036;stroke-width:1.0;" x1="1780" x2="2328" y1="563.9297" y2="563.9297"/><text fill="#000000" font-family="sans-serif" font-size="14" lengthAdjust="spacing" textLength="67" x="1785" y="579.4648">maxItems</text><text fill="#000000" font-family="sans-serif" font-size="14" lengthAdjust="spacing" textLength="9" x="1872" y="579.4648">2</text><line style="stroke:#A80036;stroke-width:1.0;" x1="1867" x2="1867" y1="563.9297" y2="584.418"/><line style="stroke:#A80036;stroke-width:1.0;" x1="1780" x2="2328" y1="584.418" y2="584.418"/><text fill="#000000" font-family="sans-serif" font-size="14" lengthAdjust="spacing" textLength="37" x="1785" y="599.9531">items</text><text fill="#000000" font-family="sans-serif" font-size="14" lengthAdjust="spacing" textLength="0" x="1884" y="599.9531"/><line style="stroke:#A80036;stroke-width:1.0;" x1="1867" x2="1867" y1="584.418" y2="604.9063"/><rect fill="none" height="155.9063" rx="5" ry="5" style="stroke:#A80036;stroke-width:1.5;" width="548" x="1780" y="449"/><rect fill="#FEFECE" height="20.4883" rx="5" ry="5" style="stroke:#FEFECE;stroke-width:1.5;" width="103" x="2429.5" y="582"/><text fill="#000000" font-family="sans-serif" font-size="14" lengthAdjust="spacing" textLength="29" x="2434.5" y="597.5352">type</text><text fill="#000000" font-family="sans-serif" font-size="14" lengthAdjust="spacing" textLength="54" x="2473.5" y="597.5352">number</text><line style="stroke:#A80036;stroke-width:1.0;" x1="2468.5" x2="2468.5" y1="582" y2="602.4883"/><rect fill="none" height="20.4883" rx="5" ry="5" style="stroke:#A80036;stroke-width:1.5;" width="103" x="2429.5" y="582"/><rect fill="#FEFECE" height="110.9297" rx="5" ry="5" style="stroke:#FEFECE;stroke-width:1.5;" width="555" x="1776.5" y="623.5"/><text fill="#000000" font-family="sans-serif" font-size="14" lengthAdjust="spacing" textLength="77" x="1781.5" y="639.0352">description</text><text fill="#000000" font-family="sans-serif" font-size="14" lengthAdjust="spacing" textLength="456" x="1868.5" y="639.0352">Step value across the defined range an integer when the range is a</text><text fill="#000000" font-family="sans-serif" font-size="14" lengthAdjust="spacing" textLength="458" x="1868.5" y="655.5234">number.  This is the increment for valid values across the range; so</text><text fill="#000000" font-family="sans-serif" font-size="14" lengthAdjust="spacing" textLength="381" x="1868.5" y="672.0117">if range is 0.0..10.0 and step is 2.5 then valid values are</text><text fill="#000000" font-family="sans-serif" font-size="14" lengthAdjust="spacing" textLength="139" x="1868.5" y="688.5">0.0,2.5,5.0,7.5,10.0.</text><line style="stroke:#A80036;stroke-width:1.0;" x1="1863.5" x2="1863.5" y1="623.5" y2="693.4531"/><line style="stroke:#A80036;stroke-width:1.0;" x1="1776.5" x2="2331.5" y1="693.4531" y2="693.4531"/><text fill="#000000" font-family="sans-serif" font-size="14" lengthAdjust="spacing" textLength="55" x="1781.5" y="708.9883">writable</text><text fill="#000000" font-family="sans-serif" font-size="14" lengthAdjust="spacing" textLength="48" x="1868.5" y="708.9883">☐ false</text><line style="stroke:#A80036;stroke-width:1.0;" x1="1863.5" x2="1863.5" y1="693.4531" y2="713.9414"/><line style="stroke:#A80036;stroke-width:1.0;" x1="1776.5" x2="2331.5" y1="713.9414" y2="713.9414"/><text fill="#000000" font-family="sans-serif" font-size="14" lengthAdjust="spacing" textLength="29" x="1781.5" y="729.4766">type</text><text fill="#000000" font-family="sans-serif" font-size="14" lengthAdjust="spacing" textLength="54" x="1868.5" y="729.4766">number</text><line style="stroke:#A80036;stroke-width:1.0;" x1="1863.5" x2="1863.5" y1="713.9414" y2="734.4297"/><rect fill="none" height="110.9297" rx="5" ry="5" style="stroke:#A80036;stroke-width:1.5;" width="555" x="1776.5" y="623.5"/><rect fill="#FEFECE" height="110.9297" rx="5" ry="5" style="stroke:#FEFECE;stroke-width:1.5;" width="570" x="1769" y="752.5"/><text fill="#000000" font-family="sans-serif" font-size="14" lengthAdjust="spacing" textLength="29" x="1774" y="768.0352">type</text><text fill="#000000" font-family="sans-serif" font-size="14" lengthAdjust="spacing" textLength="54" x="1861" y="768.0352">number</text><line style="stroke:#A80036;stroke-width:1.0;" x1="1856" x2="1856" y1="752.5" y2="772.9883"/><line style="stroke:#A80036;stroke-width:1.0;" x1="1769" x2="2339" y1="772.9883" y2="772.9883"/><text fill="#000000" font-family="sans-serif" font-size="14" lengthAdjust="spacing" textLength="55" x="1774" y="788.5234">writable</text><text fill="#000000" font-family="sans-serif" font-size="14" lengthAdjust="spacing" textLength="48" x="1861" y="788.5234">☐ false</text><line style="stroke:#A80036;stroke-width:1.0;" x1="1856" x2="1856" y1="772.9883" y2="793.4766"/><line style="stroke:#A80036;stroke-width:1.0;" x1="1769" x2="2339" y1="793.4766" y2="793.4766"/><text fill="#000000" font-family="sans-serif" font-size="14" lengthAdjust="spacing" textLength="77" x="1774" y="809.0117">description</text><text fill="#000000" font-family="sans-serif" font-size="14" lengthAdjust="spacing" textLength="430" x="1861" y="809.0117">When exposed the value in 'precision' provides a +/- tolerance</text><text fill="#000000" font-family="sans-serif" font-size="14" lengthAdjust="spacing" textLength="473" x="1861" y="825.5">against the Properties in the Resource. Thus if a Property is UPDATED</text><text fill="#000000" font-family="sans-serif" font-size="14" lengthAdjust="spacing" textLength="465" x="1861" y="841.9883">to a value and that Property then RETRIEVED, the RETRIEVED value is</text><text fill="#000000" font-family="sans-serif" font-size="14" lengthAdjust="spacing" textLength="337" x="1861" y="858.4766">valid if in the range of the set value +/- precision</text><line style="stroke:#A80036;stroke-width:1.0;" x1="1856" x2="1856" y1="793.4766" y2="863.4297"/><rect fill="none" height="110.9297" rx="5" ry="5" style="stroke:#A80036;stroke-width:1.5;" width="570" x="1769" y="752.5"/><rect fill="#FEFECE" height="81.9531" rx="5" ry="5" style="stroke:#FEFECE;stroke-width:1.5;" width="347" x="1379" y="491"/><text fill="#000000" font-family="sans-serif" font-size="14" lengthAdjust="spacing" textLength="313" x="1384" y="506.5352">#/sdfObject/cgm.status/sdfProperty/cgmtype</text><line style="stroke:#A80036;stroke-width:1.0;" x1="1379" x2="1726" y1="511.4883" y2="511.4883"/><text fill="#000000" font-family="sans-serif" font-size="14" lengthAdjust="spacing" textLength="325" x="1384" y="527.0234">#/sdfObject/cgm.status/sdfProperty/cgmstatus</text><line style="stroke:#A80036;stroke-width:1.0;" x1="1379" x2="1726" y1="531.9766" y2="531.9766"/><text fill="#000000" font-family="sans-serif" font-size="14" lengthAdjust="spacing" textLength="301" x="1384" y="547.5117">#/sdfObject/cgm.status/sdfProperty/gtrend</text><line style="stroke:#A80036;stroke-width:1.0;" x1="1379" x2="1726" y1="552.4648" y2="552.4648"/><text fill="#000000" font-family="sans-serif" font-size="14" lengthAdjust="spacing" textLength="337" x="1384" y="568">#/sdfObject/cgm.status/sdfProperty/malfunction</text><rect fill="none" height="81.9531" rx="5" ry="5" style="stroke:#A80036;stroke-width:1.5;" width="347" x="1379" y="491"/><path d="M95,408 L108,408 C117.4068,408 126.9554,407.9088 136.5926,407.7376 " fill="none" style="stroke:#A80036;stroke-width:1.0;stroke-dasharray:3.0,3.0;"/><path d="M136.6543,410.8363 L138.9166,407.6914 L136.5309,404.6389 L144.3394,407.5834 L136.6543,410.8363 " fill="#A80036" style="stroke:#A80036;stroke-width:1.0;"/><ellipse cx="95" cy="408" fill="#A80036" rx="3" ry="3" style="stroke:#A80036;stroke-width:1.0;stroke-dasharray:3.0,3.0;"/><path d="M2269.5,92 L2282.5,92 C2312.4465,92 2344.9408,92 2374.7808,92 " fill="none" style="stroke:#A80036;stroke-width:1.0;stroke-dasharray:3.0,3.0;"/><path d="M2374.7808,95.0104 L2377.0386,92 L2374.7808,88.9896 L2382.3069,92 L2374.7808,95.0104 " fill="#A80036" style="stroke:#A80036;stroke-width:1.0;"/><ellipse cx="2269.5" cy="92" fill="#A80036" rx="3" ry="3" style="stroke:#A80036;stroke-width:1.0;stroke-dasharray:3.0,3.0;"/><path d="M1598,339 L1611,339 C1725.1392,339 1665.929,192.0414 1763,132 C1780.7143,121.0431 1800.139,112.3065 1820.2824,105.3609 " fill="none" style="stroke:#A80036;stroke-width:1.0;stroke-dasharray:3.0,3.0;"/><path d="M1821.2355,108.2223 L1822.4284,104.6461 L1819.3293,102.4996 L1827.4357,102.9782 L1821.2355,108.2223 " fill="#A80036" style="stroke:#A80036;stroke-width:1.0;"/><ellipse cx="1598" cy="339" fill="#A80036" rx="3" ry="3" style="stroke:#A80036;stroke-width:1.0;stroke-dasharray:3.0,3.0;"/><path d="M1598,359 L1611,359 C1695.7119,359 1685.6183,278.4699 1763,244 C1767.7285,241.8937 1772.5349,239.8664 1777.4057,237.9153 " fill="none" style="stroke:#A80036;stroke-width:1.0;stroke-dasharray:3.0,3.0;"/><path d="M1778.5275,240.7876 L1779.56,237.0739 L1776.2839,235.0429 L1784.5866,235.1107 L1778.5275,240.7876 " fill="#A80036" style="stroke:#A80036;stroke-width:1.0;"/><ellipse cx="1598" cy="359" fill="#A80036" rx="3" ry="3" style="stroke:#A80036;stroke-width:1.0;stroke-dasharray:3.0,3.0;"/><path d="M1598,380 L1611,380 C1631.0426,380 1706.3097,367.4289 1789.2305,352.3802 " fill="none" style="stroke:#A80036;stroke-width:1.0;stroke-dasharray:3.0,3.0;"/><path d="M1789.7781,355.3912 L1791.4887,351.9694 L1788.6828,349.3692 L1796.758,351.0111 L1789.7781,355.3912 " fill="#A80036" style="stroke:#A80036;stroke-width:1.0;"/><ellipse cx="1598" cy="380" fill="#A80036" rx="3" ry="3" style="stroke:#A80036;stroke-width:1.0;stroke-dasharray:3.0,3.0;"/><path d="M1598,400 L1611,400 C1665.59,400 1723.9683,400 1779.8256,400 " fill="none" style="stroke:#A80036;stroke-width:1.0;stroke-dasharray:3.0,3.0;"/><path d="M1779.8256,403.0031 L1782.078,400 L1779.8256,396.9969 L1787.3335,400 L1779.8256,403.0031 " fill="#A80036" style="stroke:#A80036;stroke-width:1.0;"/><ellipse cx="1598" cy="400" fill="#A80036" rx="3" ry="3" style="stroke:#A80036;stroke-width:1.0;stroke-dasharray:3.0,3.0;"/><path d="M2316.5,592 L2329.5,592 C2360.0521,592 2394.0813,592 2422.0899,592 " fill="none" style="stroke:#A80036;stroke-width:1.0;stroke-dasharray:3.0,3.0;"/><path d="M2422.0899,595.0929 L2424.4096,592 L2422.0899,588.9071 L2429.8222,592 L2422.0899,595.0929 " fill="#A80036" style="stroke:#A80036;stroke-width:1.0;"/><ellipse cx="2316.5" cy="592" fill="#A80036" rx="3" ry="3" style="stroke:#A80036;stroke-width:1.0;stroke-dasharray:3.0,3.0;"/><path d="M1598,421 L1611,421 C1645.039,421 1706.3062,433.0123 1772.6122,448.9493 " fill="none" style="stroke:#A80036;stroke-width:1.0;stroke-dasharray:3.0,3.0;"/><path d="M1771.8683,452.0243 L1774.9184,449.5072 L1773.3561,445.8744 L1780.2996,450.809 L1771.8683,452.0243 " fill="#A80036" style="stroke:#A80036;stroke-width:1.0;"/><ellipse cx="1598" cy="421" fill="#A80036" rx="3" ry="3" style="stroke:#A80036;stroke-width:1.0;stroke-dasharray:3.0,3.0;"/><path d="M1598,442 L1611,442 C1665.5346,442 1689.7277,442.1905 1727,482 C1768.5609,526.39 1719.0211,572.0043 1763,614 C1765.4704,616.359 1768.0069,618.6395 1770.6043,620.844 " fill="none" style="stroke:#A80036;stroke-width:1.0;stroke-dasharray:3.0,3.0;"/><path d="M1768.6015,623.3117 L1772.4551,622.3461 L1772.6072,618.3763 L1776.7735,625.8511 L1768.6015,623.3117 " fill="#A80036" style="stroke:#A80036;stroke-width:1.0;"/><ellipse cx="1598" cy="442" fill="#A80036" rx="3" ry="3" style="stroke:#A80036;stroke-width:1.0;stroke-dasharray:3.0,3.0;"/><path d="M1598,462 L1611,462 C1663.3162,462 1690.6445,444.38 1727,482 C1808.6796,566.5207 1683.2906,657.6188 1763,744 C1763.933,745.0111 1764.8781,746.0081 1765.8348,746.9912 " fill="none" style="stroke:#A80036;stroke-width:1.0;stroke-dasharray:3.0,3.0;"/><path d="M1763.6431,749.2331 L1767.5163,748.635 L1768.0265,744.7492 L1771.4397,752.4705 L1763.6431,749.2331 " fill="#A80036" style="stroke:#A80036;stroke-width:1.0;"/><ellipse cx="1598" cy="462" fill="#A80036" rx="3" ry="3" style="stroke:#A80036;stroke-width:1.0;stroke-dasharray:3.0,3.0;"/><path d="M1330,453 L1343,453 C1392.9114,453 1447.5967,438.8619 1488.5072,425.3297 " fill="none" style="stroke:#A80036;stroke-width:1.0;stroke-dasharray:3.0,3.0;"/><path d="M1489.4783,428.2161 L1490.672,424.6014 L1487.5361,422.4433 L1495.7232,422.902 L1489.4783,428.2161 " fill="#A80036" style="stroke:#A80036;stroke-width:1.0;"/><ellipse cx="1330" cy="453" fill="#A80036" rx="3" ry="3" style="stroke:#A80036;stroke-width:1.0;stroke-dasharray:3.0,3.0;"/><path d="M1330,479 L1343,479 C1356.4151,479 1378.7015,483.1546 1403.8401,489.1374 " fill="none" style="stroke:#A80036;stroke-width:1.0;stroke-dasharray:3.0,3.0;"/><path d="M1403.1109,492.1462 L1406.0967,489.6843 L1404.5692,486.1286 L1411.3621,490.9603 L1403.1109,492.1462 " fill="#A80036" style="stroke:#A80036;stroke-width:1.0;"/><ellipse cx="1330" cy="479" fill="#A80036" rx="3" ry="3" style="stroke:#A80036;stroke-width:1.0;stroke-dasharray:3.0,3.0;"/><path d="M492.5,453 L505.5,453 C597.3989,453 697.7432,453 787.906,453 " fill="none" style="stroke:#A80036;stroke-width:1.0;stroke-dasharray:3.0,3.0;"/><path d="M787.906,456.0318 L790.1799,453 L787.906,449.9682 L795.4855,453 L787.906,456.0318 " fill="#A80036" style="stroke:#A80036;stroke-width:1.0;"/><ellipse cx="492.5" cy="453" fill="#A80036" rx="3" ry="3" style="stroke:#A80036;stroke-width:1.0;stroke-dasharray:3.0,3.0;"/><path d="M95,429 L108,429 C124.1536,429 127.927,432.388 144,434 C229.465,442.5715 328.7506,447.8795 390.612,450.6368 " fill="none" style="stroke:#A80036;stroke-width:1.0;stroke-dasharray:3.0,3.0;"/><path d="M390.476,453.728 L392.9304,450.7388 L390.7479,447.5456 L398.34,450.9767 L390.476,453.728 " fill="#A80036" style="stroke:#A80036;stroke-width:1.0;"/><ellipse cx="95" cy="429" fill="#A80036" rx="3" ry="3" style="stroke:#A80036;stroke-width:1.0;stroke-dasharray:3.0,3.0;"/><!--MD5=[aee8e78efb4720104d6415f5d9794760]
@startjson
{
  "info": {
    "copyright": "Copyright 2018-2019 Open Connectivity Foundation, Inc. All rights reserved.",
    "license": "https://github.com/one-data-model/oneDM/blob/master/LICENSE",
    "title": "Status for Continuous Glucose Meter (CGM)",
    "version": "2019-03-04"
  },
  "sdfObject": {
    "cgm.status": {
      "description": "This Resource describes the Properties associated with Status for\\nContinuous Glucose Meter (CGM).",
      "sdfProperty": {
        "cgmtype": {
          "description": "This Property describes the CGM measurement type.",
          "type": "string",
          "enum": [
            "Capillary Whole blood",
            "Capillary Plasma",
            "Venous Plasma",
            "Arterial Whole blood",
            "Arterial Plasma",
            "Undetermined Whole blood",
            "Undetermined Plasma",
            "Interstitial Fluid"
          ],
          "writable": false
        },
        "cgmstatus": {
          "description": "This Property describes the specific notifications given by the CGM\\ndevice including, but not limited to, warnings, errors, and handling\\nevents.",
          "type": "string",
          "writable": false
        },
        "gtrend": {
          "description": "This Property describes the rate of change in glucose measurements at\\na time instant.",
          "type": "number",
          "minimum": 0,
          "writable": false
        },
        "malfunction": {
          "description": "This Property describes the sensor malfunction detection check.",
          "type": "boolean",
          "writable": false
        },
        "range": {
          "type": "array",
          "description": "The valid range for the Property in the Resource as a number. The\\nfirst value in the array is the minimum value, the second value in\\nthe array is the maximum value.",
          "writable": false,
          "minItems": 2,
          "maxItems": 2,
          "items": {
            "type": "number"
          }
        },
        "step": {
          "description": "Step value across the defined range an integer when the range is a\\nnumber.  This is the increment for valid values across the range; so\\nif range is 0.0..10.0 and step is 2.5 then valid values are\\n0.0,2.5,5.0,7.5,10.0.",
          "writable": false,
          "type": "number"
        },
        "precision": {
          "type": "number",
          "writable": false,
          "description": "When exposed the value in 'precision' provides a +/- tolerance\\nagainst the Properties in the Resource. Thus if a Property is UPDATED\\nto a value and that Property then RETRIEVED, the RETRIEVED value is\\nvalid if in the range of the set value +/- precision"
        }
      },
      "sdfRequired": [
        "#/sdfObject/cgm.status/sdfProperty/cgmtype",
        "#/sdfObject/cgm.status/sdfProperty/cgmstatus",
        "#/sdfObject/cgm.status/sdfProperty/gtrend",
        "#/sdfObject/cgm.status/sdfProperty/malfunction"
      ]
    }
  }
}
@endjson

PlantUML version 1.2021.2(Sun Mar 07 13:10:27 EET 2021)
(GPL source distribution)
Java Runtime: OpenJDK Runtime Environment
JVM: OpenJDK 64-Bit Server VM
Default Encoding: UTF-8
Language: en
Country: FI
--></g></svg>