<?xml version="1.0" encoding="UTF-8" standalone="no"?><svg xmlns="http://www.w3.org/2000/svg" xmlns:xlink="http://www.w3.org/1999/xlink" contentScriptType="application/ecmascript" contentStyleType="text/css" height="453px" preserveAspectRatio="none" style="width:2437px;height:453px;" version="1.1" viewBox="0 0 2437 453" width="2437px" zoomAndPan="magnify"><defs/><g><rect fill="#FEFECE" height="40.9766" rx="5" ry="5" style="stroke:#FEFECE;stroke-width:1.5;" width="97" x="10" y="151.5"/><text fill="#000000" font-family="sans-serif" font-size="14" lengthAdjust="spacing" textLength="27" x="15" y="167.0352">info</text><text fill="#000000" font-family="sans-serif" font-size="14" lengthAdjust="spacing" textLength="0" x="102" y="167.0352"/><line style="stroke:#A80036;stroke-width:1.0;" x1="85" x2="85" y1="151.5" y2="171.9883"/><line style="stroke:#A80036;stroke-width:1.0;" x1="10" x2="107" y1="171.9883" y2="171.9883"/><text fill="#000000" font-family="sans-serif" font-size="14" lengthAdjust="spacing" textLength="65" x="15" y="187.5234">sdfObject</text><text fill="#000000" font-family="sans-serif" font-size="14" lengthAdjust="spacing" textLength="0" x="102" y="187.5234"/><line style="stroke:#A80036;stroke-width:1.0;" x1="85" x2="85" y1="171.9883" y2="192.4766"/><rect fill="none" height="40.9766" rx="5" ry="5" style="stroke:#A80036;stroke-width:1.5;" width="97" x="10" y="151.5"/><rect fill="#FEFECE" height="81.9531" rx="5" ry="5" style="stroke:#FEFECE;stroke-width:1.5;" width="655" x="144" y="96"/><text fill="#000000" font-family="sans-serif" font-size="14" lengthAdjust="spacing" textLength="65" x="149" y="111.5352">copyright</text><text fill="#000000" font-family="sans-serif" font-size="14" lengthAdjust="spacing" textLength="570" x="224" y="111.5352">copyright 2016-2017, 2019 Open Connectivity Foundation, Inc. All rights reserved.</text><line style="stroke:#A80036;stroke-width:1.0;" x1="219" x2="219" y1="96" y2="116.4883"/><line style="stroke:#A80036;stroke-width:1.0;" x1="144" x2="799" y1="116.4883" y2="116.4883"/><text fill="#000000" font-family="sans-serif" font-size="14" lengthAdjust="spacing" textLength="47" x="149" y="132.0234">license</text><text fill="#000000" font-family="sans-serif" font-size="14" lengthAdjust="spacing" textLength="462" x="224" y="132.0234">https://github.com/one-data-model/oneDM/blob/master/LICENSE</text><line style="stroke:#A80036;stroke-width:1.0;" x1="219" x2="219" y1="116.4883" y2="136.9766"/><line style="stroke:#A80036;stroke-width:1.0;" x1="144" x2="799" y1="136.9766" y2="136.9766"/><text fill="#000000" font-family="sans-serif" font-size="14" lengthAdjust="spacing" textLength="26" x="149" y="152.5117">title</text><text fill="#000000" font-family="sans-serif" font-size="14" lengthAdjust="spacing" textLength="183" x="224" y="152.5117">Colour Hue and Saturation</text><line style="stroke:#A80036;stroke-width:1.0;" x1="219" x2="219" y1="136.9766" y2="157.4648"/><line style="stroke:#A80036;stroke-width:1.0;" x1="144" x2="799" y1="157.4648" y2="157.4648"/><text fill="#000000" font-family="sans-serif" font-size="14" lengthAdjust="spacing" textLength="50" x="149" y="173">version</text><text fill="#000000" font-family="sans-serif" font-size="14" lengthAdjust="spacing" textLength="88" x="224" y="173">2019-02-15</text><line style="stroke:#A80036;stroke-width:1.0;" x1="219" x2="219" y1="157.4648" y2="177.9531"/><rect fill="none" height="81.9531" rx="5" ry="5" style="stroke:#A80036;stroke-width:1.5;" width="655" x="144" y="96"/><rect fill="#FEFECE" height="20.4883" rx="5" ry="5" style="stroke:#FEFECE;stroke-width:1.5;" width="96" x="423.5" y="196"/><text fill="#000000" font-family="sans-serif" font-size="14" lengthAdjust="spacing" textLength="64" x="428.5" y="211.5352">colour.hs</text><text fill="#000000" font-family="sans-serif" font-size="14" lengthAdjust="spacing" textLength="0" x="514.5" y="211.5352"/><line style="stroke:#A80036;stroke-width:1.0;" x1="497.5" x2="497.5" y1="196" y2="216.4883"/><rect fill="none" height="20.4883" rx="5" ry="5" style="stroke:#A80036;stroke-width:1.5;" width="96" x="423.5" y="196"/><rect fill="#FEFECE" height="275.8125" rx="5" ry="5" style="stroke:#FEFECE;stroke-width:1.5;" width="620" x="836" y="68"/><text fill="#000000" font-family="sans-serif" font-size="14" lengthAdjust="spacing" textLength="77" x="841" y="83.5352">description</text><text fill="#000000" font-family="sans-serif" font-size="14" lengthAdjust="spacing" textLength="480" x="934" y="83.5352">This Resource describes the colour using hue-saturation conventions.</text><text fill="#000000" font-family="sans-serif" font-size="14" lengthAdjust="spacing" textLength="458" x="934" y="100.0234">The Property "hue" is the hue angle, it is a number value as defined</text><text fill="#000000" font-family="sans-serif" font-size="14" lengthAdjust="spacing" textLength="488" x="934" y="116.5117">by the CIECAM02 model definition (see reference [CIE CIE159:2004]). A</text><text fill="#000000" font-family="sans-serif" font-size="14" lengthAdjust="spacing" textLength="429" x="934" y="133">Device that does not support fractional hue angles can provide</text><text fill="#000000" font-family="sans-serif" font-size="14" lengthAdjust="spacing" textLength="442" x="934" y="149.4883">integer values. If Property "precision" is provided it applies to the</text><text fill="#000000" font-family="sans-serif" font-size="14" lengthAdjust="spacing" textLength="452" x="934" y="165.9766">hue angle. The Property "saturation" is an integer value as defined</text><text fill="#000000" font-family="sans-serif" font-size="14" lengthAdjust="spacing" textLength="474" x="934" y="182.4648">by the CIECAM02 model definition (see reference [CIE CIE159:2004]).</text><text fill="#000000" font-family="sans-serif" font-size="14" lengthAdjust="spacing" textLength="424" x="934" y="198.9531">The Property "saturation" can be converted to a percentage by</text><text fill="#000000" font-family="sans-serif" font-size="14" lengthAdjust="spacing" textLength="517" x="934" y="215.4414">saturation/maximumsaturation X 100; where maximumsaturation is 32767</text><text fill="#000000" font-family="sans-serif" font-size="14" lengthAdjust="spacing" textLength="328" x="934" y="231.9297">if the Property itself is not present. The Property</text><text fill="#000000" font-family="sans-serif" font-size="14" lengthAdjust="spacing" textLength="501" x="934" y="248.418">"maximumsaturation" is the upper bound on the saturation supported by</text><text fill="#000000" font-family="sans-serif" font-size="14" lengthAdjust="spacing" textLength="475" x="934" y="264.9063">the Device. If not present the maximum value for saturation is 32767.</text><text fill="#000000" font-family="sans-serif" font-size="14" lengthAdjust="spacing" textLength="406" x="934" y="281.3945">The Resource provides the colour using hue and saturation</text><text fill="#000000" font-family="sans-serif" font-size="14" lengthAdjust="spacing" textLength="87" x="934" y="297.8828">conventions.</text><line style="stroke:#A80036;stroke-width:1.0;" x1="929" x2="929" y1="68" y2="302.8359"/><line style="stroke:#A80036;stroke-width:1.0;" x1="836" x2="1456" y1="302.8359" y2="302.8359"/><text fill="#000000" font-family="sans-serif" font-size="14" lengthAdjust="spacing" textLength="79" x="841" y="318.3711">sdfProperty</text><text fill="#000000" font-family="sans-serif" font-size="14" lengthAdjust="spacing" textLength="0" x="946" y="318.3711"/><line style="stroke:#A80036;stroke-width:1.0;" x1="929" x2="929" y1="302.8359" y2="323.3242"/><line style="stroke:#A80036;stroke-width:1.0;" x1="836" x2="1456" y1="323.3242" y2="323.3242"/><text fill="#000000" font-family="sans-serif" font-size="14" lengthAdjust="spacing" textLength="83" x="841" y="338.8594">sdfRequired</text><text fill="#000000" font-family="sans-serif" font-size="14" lengthAdjust="spacing" textLength="0" x="946" y="338.8594"/><line style="stroke:#A80036;stroke-width:1.0;" x1="929" x2="929" y1="323.3242" y2="343.8125"/><rect fill="none" height="275.8125" rx="5" ry="5" style="stroke:#A80036;stroke-width:1.5;" width="620" x="836" y="68"/><rect fill="#FEFECE" height="81.9531" rx="5" ry="5" style="stroke:#FEFECE;stroke-width:1.5;" width="171" x="1570" y="165"/><text fill="#000000" font-family="sans-serif" font-size="14" lengthAdjust="spacing" textLength="26" x="1575" y="180.5352">hue</text><text fill="#000000" font-family="sans-serif" font-size="14" lengthAdjust="spacing" textLength="0" x="1736" y="180.5352"/><line style="stroke:#A80036;stroke-width:1.0;" x1="1719" x2="1719" y1="165" y2="185.4883"/><line style="stroke:#A80036;stroke-width:1.0;" x1="1570" x2="1741" y1="185.4883" y2="185.4883"/><text fill="#000000" font-family="sans-serif" font-size="14" lengthAdjust="spacing" textLength="70" x="1575" y="201.0234">saturation</text><text fill="#000000" font-family="sans-serif" font-size="14" lengthAdjust="spacing" textLength="0" x="1736" y="201.0234"/><line style="stroke:#A80036;stroke-width:1.0;" x1="1719" x2="1719" y1="185.4883" y2="205.9766"/><line style="stroke:#A80036;stroke-width:1.0;" x1="1570" x2="1741" y1="205.9766" y2="205.9766"/><text fill="#000000" font-family="sans-serif" font-size="14" lengthAdjust="spacing" textLength="139" x="1575" y="221.5117">maximumsaturation</text><text fill="#000000" font-family="sans-serif" font-size="14" lengthAdjust="spacing" textLength="0" x="1736" y="221.5117"/><line style="stroke:#A80036;stroke-width:1.0;" x1="1719" x2="1719" y1="205.9766" y2="226.4648"/><line style="stroke:#A80036;stroke-width:1.0;" x1="1570" x2="1741" y1="226.4648" y2="226.4648"/><text fill="#000000" font-family="sans-serif" font-size="14" lengthAdjust="spacing" textLength="63" x="1575" y="242">precision</text><text fill="#000000" font-family="sans-serif" font-size="14" lengthAdjust="spacing" textLength="0" x="1736" y="242"/><line style="stroke:#A80036;stroke-width:1.0;" x1="1719" x2="1719" y1="226.4648" y2="246.9531"/><rect fill="none" height="81.9531" rx="5" ry="5" style="stroke:#A80036;stroke-width:1.5;" width="171" x="1570" y="165"/><rect fill="#FEFECE" height="81.9531" rx="5" ry="5" style="stroke:#FEFECE;stroke-width:1.5;" width="513" x="1883.5" y="10"/><text fill="#000000" font-family="sans-serif" font-size="14" lengthAdjust="spacing" textLength="77" x="1888.5" y="25.5352">description</text><text fill="#000000" font-family="sans-serif" font-size="14" lengthAdjust="spacing" textLength="416" x="1975.5" y="25.5352">The hue angle as defined by the CIECAM02 model definition.</text><line style="stroke:#A80036;stroke-width:1.0;" x1="1970.5" x2="1970.5" y1="10" y2="30.4883"/><line style="stroke:#A80036;stroke-width:1.0;" x1="1883.5" x2="2396.5" y1="30.4883" y2="30.4883"/><text fill="#000000" font-family="sans-serif" font-size="14" lengthAdjust="spacing" textLength="69" x="1888.5" y="46.0234">maximum</text><text fill="#000000" font-family="sans-serif" font-size="14" lengthAdjust="spacing" textLength="27" x="1975.5" y="46.0234">360</text><line style="stroke:#A80036;stroke-width:1.0;" x1="1970.5" x2="1970.5" y1="30.4883" y2="50.9766"/><line style="stroke:#A80036;stroke-width:1.0;" x1="1883.5" x2="2396.5" y1="50.9766" y2="50.9766"/><text fill="#000000" font-family="sans-serif" font-size="14" lengthAdjust="spacing" textLength="65" x="1888.5" y="66.5117">minimum</text><text fill="#000000" font-family="sans-serif" font-size="14" lengthAdjust="spacing" textLength="9" x="1975.5" y="66.5117">0</text><line style="stroke:#A80036;stroke-width:1.0;" x1="1970.5" x2="1970.5" y1="50.9766" y2="71.4648"/><line style="stroke:#A80036;stroke-width:1.0;" x1="1883.5" x2="2396.5" y1="71.4648" y2="71.4648"/><text fill="#000000" font-family="sans-serif" font-size="14" lengthAdjust="spacing" textLength="29" x="1888.5" y="87">type</text><text fill="#000000" font-family="sans-serif" font-size="14" lengthAdjust="spacing" textLength="54" x="1975.5" y="87">number</text><line style="stroke:#A80036;stroke-width:1.0;" x1="1970.5" x2="1970.5" y1="71.4648" y2="91.9531"/><rect fill="none" height="81.9531" rx="5" ry="5" style="stroke:#A80036;stroke-width:1.5;" width="513" x="1883.5" y="10"/><rect fill="#FEFECE" height="81.9531" rx="5" ry="5" style="stroke:#FEFECE;stroke-width:1.5;" width="515" x="1882.5" y="110"/><text fill="#000000" font-family="sans-serif" font-size="14" lengthAdjust="spacing" textLength="77" x="1887.5" y="125.5352">description</text><text fill="#000000" font-family="sans-serif" font-size="14" lengthAdjust="spacing" textLength="418" x="1974.5" y="125.5352">The saturation as defined by the CIECAM02 model definition.</text><line style="stroke:#A80036;stroke-width:1.0;" x1="1969.5" x2="1969.5" y1="110" y2="130.4883"/><line style="stroke:#A80036;stroke-width:1.0;" x1="1882.5" x2="2397.5" y1="130.4883" y2="130.4883"/><text fill="#000000" font-family="sans-serif" font-size="14" lengthAdjust="spacing" textLength="69" x="1887.5" y="146.0234">maximum</text><text fill="#000000" font-family="sans-serif" font-size="14" lengthAdjust="spacing" textLength="45" x="1974.5" y="146.0234">32767</text><line style="stroke:#A80036;stroke-width:1.0;" x1="1969.5" x2="1969.5" y1="130.4883" y2="150.9766"/><line style="stroke:#A80036;stroke-width:1.0;" x1="1882.5" x2="2397.5" y1="150.9766" y2="150.9766"/><text fill="#000000" font-family="sans-serif" font-size="14" lengthAdjust="spacing" textLength="65" x="1887.5" y="166.5117">minimum</text><text fill="#000000" font-family="sans-serif" font-size="14" lengthAdjust="spacing" textLength="9" x="1974.5" y="166.5117">0</text><line style="stroke:#A80036;stroke-width:1.0;" x1="1969.5" x2="1969.5" y1="150.9766" y2="171.4648"/><line style="stroke:#A80036;stroke-width:1.0;" x1="1882.5" x2="2397.5" y1="171.4648" y2="171.4648"/><text fill="#000000" font-family="sans-serif" font-size="14" lengthAdjust="spacing" textLength="29" x="1887.5" y="187">type</text><text fill="#000000" font-family="sans-serif" font-size="14" lengthAdjust="spacing" textLength="49" x="1974.5" y="187">integer</text><line style="stroke:#A80036;stroke-width:1.0;" x1="1969.5" x2="1969.5" y1="171.4648" y2="191.9531"/><rect fill="none" height="81.9531" rx="5" ry="5" style="stroke:#A80036;stroke-width:1.5;" width="515" x="1882.5" y="110"/><rect fill="#FEFECE" height="102.4414" rx="5" ry="5" style="stroke:#FEFECE;stroke-width:1.5;" width="518" x="1881" y="210"/><text fill="#000000" font-family="sans-serif" font-size="14" lengthAdjust="spacing" textLength="77" x="1886" y="225.5352">description</text><text fill="#000000" font-family="sans-serif" font-size="14" lengthAdjust="spacing" textLength="421" x="1973" y="225.5352">The maximum supported value of "saturation" for this Device.</text><line style="stroke:#A80036;stroke-width:1.0;" x1="1968" x2="1968" y1="210" y2="230.4883"/><line style="stroke:#A80036;stroke-width:1.0;" x1="1881" x2="2399" y1="230.4883" y2="230.4883"/><text fill="#000000" font-family="sans-serif" font-size="14" lengthAdjust="spacing" textLength="69" x="1886" y="246.0234">maximum</text><text fill="#000000" font-family="sans-serif" font-size="14" lengthAdjust="spacing" textLength="45" x="1973" y="246.0234">32767</text><line style="stroke:#A80036;stroke-width:1.0;" x1="1968" x2="1968" y1="230.4883" y2="250.9766"/><line style="stroke:#A80036;stroke-width:1.0;" x1="1881" x2="2399" y1="250.9766" y2="250.9766"/><text fill="#000000" font-family="sans-serif" font-size="14" lengthAdjust="spacing" textLength="65" x="1886" y="266.5117">minimum</text><text fill="#000000" font-family="sans-serif" font-size="14" lengthAdjust="spacing" textLength="9" x="1973" y="266.5117">0</text><line style="stroke:#A80036;stroke-width:1.0;" x1="1968" x2="1968" y1="250.9766" y2="271.4648"/><line style="stroke:#A80036;stroke-width:1.0;" x1="1881" x2="2399" y1="271.4648" y2="271.4648"/><text fill="#000000" font-family="sans-serif" font-size="14" lengthAdjust="spacing" textLength="55" x="1886" y="287">writable</text><text fill="#000000" font-family="sans-serif" font-size="14" lengthAdjust="spacing" textLength="48" x="1973" y="287">☐ false</text><line style="stroke:#A80036;stroke-width:1.0;" x1="1968" x2="1968" y1="271.4648" y2="291.9531"/><line style="stroke:#A80036;stroke-width:1.0;" x1="1881" x2="2399" y1="291.9531" y2="291.9531"/><text fill="#000000" font-family="sans-serif" font-size="14" lengthAdjust="spacing" textLength="29" x="1886" y="307.4883">type</text><text fill="#000000" font-family="sans-serif" font-size="14" lengthAdjust="spacing" textLength="49" x="1973" y="307.4883">integer</text><line style="stroke:#A80036;stroke-width:1.0;" x1="1968" x2="1968" y1="291.9531" y2="312.4414"/><rect fill="none" height="102.4414" rx="5" ry="5" style="stroke:#A80036;stroke-width:1.5;" width="518" x="1881" y="210"/><rect fill="#FEFECE" height="110.9297" rx="5" ry="5" style="stroke:#FEFECE;stroke-width:1.5;" width="570" x="1855" y="330.5"/><text fill="#000000" font-family="sans-serif" font-size="14" lengthAdjust="spacing" textLength="29" x="1860" y="346.0352">type</text><text fill="#000000" font-family="sans-serif" font-size="14" lengthAdjust="spacing" textLength="54" x="1947" y="346.0352">number</text><line style="stroke:#A80036;stroke-width:1.0;" x1="1942" x2="1942" y1="330.5" y2="350.9883"/><line style="stroke:#A80036;stroke-width:1.0;" x1="1855" x2="2425" y1="350.9883" y2="350.9883"/><text fill="#000000" font-family="sans-serif" font-size="14" lengthAdjust="spacing" textLength="55" x="1860" y="366.5234">writable</text><text fill="#000000" font-family="sans-serif" font-size="14" lengthAdjust="spacing" textLength="48" x="1947" y="366.5234">☐ false</text><line style="stroke:#A80036;stroke-width:1.0;" x1="1942" x2="1942" y1="350.9883" y2="371.4766"/><line style="stroke:#A80036;stroke-width:1.0;" x1="1855" x2="2425" y1="371.4766" y2="371.4766"/><text fill="#000000" font-family="sans-serif" font-size="14" lengthAdjust="spacing" textLength="77" x="1860" y="387.0117">description</text><text fill="#000000" font-family="sans-serif" font-size="14" lengthAdjust="spacing" textLength="430" x="1947" y="387.0117">When exposed the value in 'precision' provides a +/- tolerance</text><text fill="#000000" font-family="sans-serif" font-size="14" lengthAdjust="spacing" textLength="473" x="1947" y="403.5">against the Properties in the Resource. Thus if a Property is UPDATED</text><text fill="#000000" font-family="sans-serif" font-size="14" lengthAdjust="spacing" textLength="465" x="1947" y="419.9883">to a value and that Property then RETRIEVED, the RETRIEVED value is</text><text fill="#000000" font-family="sans-serif" font-size="14" lengthAdjust="spacing" textLength="337" x="1947" y="436.4766">valid if in the range of the set value +/- precision</text><line style="stroke:#A80036;stroke-width:1.0;" x1="1942" x2="1942" y1="371.4766" y2="441.4297"/><rect fill="none" height="110.9297" rx="5" ry="5" style="stroke:#A80036;stroke-width:1.5;" width="570" x="1855" y="330.5"/><rect fill="#FEFECE" height="40.9766" rx="5" ry="5" style="stroke:#FEFECE;stroke-width:1.5;" width="325" x="1493" y="277.5"/><text fill="#000000" font-family="sans-serif" font-size="14" lengthAdjust="spacing" textLength="271" x="1498" y="293.0352">#/sdfObject/colour.hs/sdfProperty/hue</text><line style="stroke:#A80036;stroke-width:1.0;" x1="1493" x2="1818" y1="297.9883" y2="297.9883"/><text fill="#000000" font-family="sans-serif" font-size="14" lengthAdjust="spacing" textLength="315" x="1498" y="313.5234">#/sdfObject/colour.hs/sdfProperty/saturation</text><rect fill="none" height="40.9766" rx="5" ry="5" style="stroke:#A80036;stroke-width:1.5;" width="325" x="1493" y="277.5"/><path d="M95,161 L108,161 C117.3442,161 126.8208,160.9198 136.3833,160.7688 " fill="none" style="stroke:#A80036;stroke-width:1.0;stroke-dasharray:3.0,3.0;"/><path d="M136.4378,163.8434 L138.6892,160.7279 L136.3288,157.6942 L144.0697,160.6326 L136.4378,163.8434 " fill="#A80036" style="stroke:#A80036;stroke-width:1.0;"/><ellipse cx="95" cy="161" fill="#A80036" rx="3" ry="3" style="stroke:#A80036;stroke-width:1.0;stroke-dasharray:3.0,3.0;"/><path d="M1730,175 L1743,175 C1802.6616,175 1799.5705,123.0699 1855,101 C1861.9888,98.2173 1869.1353,95.5891 1876.3972,93.1067 " fill="none" style="stroke:#A80036;stroke-width:1.0;stroke-dasharray:3.0,3.0;"/><path d="M1877.3708,96.0262 L1878.5868,92.3765 L1875.4236,90.1873 L1883.6958,90.6727 L1877.3708,96.0262 " fill="#A80036" style="stroke:#A80036;stroke-width:1.0;"/><ellipse cx="1730" cy="175" fill="#A80036" rx="3" ry="3" style="stroke:#A80036;stroke-width:1.0;stroke-dasharray:3.0,3.0;"/><path d="M1730,195 L1743,195 C1785.884,195 1831.2186,192.426 1875.3098,188.5232 " fill="none" style="stroke:#A80036;stroke-width:1.0;stroke-dasharray:3.0,3.0;"/><path d="M1875.586,191.5788 L1877.6015,188.316 L1875.0336,185.4676 L1882.9488,187.8327 L1875.586,191.5788 " fill="#A80036" style="stroke:#A80036;stroke-width:1.0;"/><ellipse cx="1730" cy="195" fill="#A80036" rx="3" ry="3" style="stroke:#A80036;stroke-width:1.0;stroke-dasharray:3.0,3.0;"/><path d="M1730,216 L1743,216 C1785.4048,216 1830.1988,218.5725 1873.8153,222.4875 " fill="none" style="stroke:#A80036;stroke-width:1.0;stroke-dasharray:3.0,3.0;"/><path d="M1873.5383,225.5104 L1876.0825,222.6953 L1874.0924,219.4645 L1881.3726,223.1801 L1873.5383,225.5104 " fill="#A80036" style="stroke:#A80036;stroke-width:1.0;"/><ellipse cx="1730" cy="216" fill="#A80036" rx="3" ry="3" style="stroke:#A80036;stroke-width:1.0;stroke-dasharray:3.0,3.0;"/><path d="M1730,237 L1743,237 C1779.6498,237 1790.5456,245.9011 1819,269 C1840.8235,286.716 1831.7204,305.2461 1855,321 C1857.7143,322.8368 1860.4731,324.6223 1863.2723,326.3579 " fill="none" style="stroke:#A80036;stroke-width:1.0;stroke-dasharray:3.0,3.0;"/><path d="M1861.6884,328.9992 L1865.2533,327.5459 L1864.8563,323.7166 L1869.8756,330.3178 L1861.6884,328.9992 " fill="#A80036" style="stroke:#A80036;stroke-width:1.0;"/><ellipse cx="1730" cy="237" fill="#A80036" rx="3" ry="3" style="stroke:#A80036;stroke-width:1.0;stroke-dasharray:3.0,3.0;"/><path d="M1444,206 L1457,206 C1491.3696,206 1529.0951,206 1562.3124,206 " fill="none" style="stroke:#A80036;stroke-width:1.0;stroke-dasharray:3.0,3.0;"/><path d="M1562.3124,209.1592 L1564.6818,206 L1562.3124,202.8408 L1570.2104,206 L1562.3124,209.1592 " fill="#A80036" style="stroke:#A80036;stroke-width:1.0;"/><ellipse cx="1444" cy="206" fill="#A80036" rx="3" ry="3" style="stroke:#A80036;stroke-width:1.0;stroke-dasharray:3.0,3.0;"/><path d="M1444,298 L1457,298 C1466.4504,298 1476.1546,298 1485.949,298 " fill="none" style="stroke:#A80036;stroke-width:1.0;stroke-dasharray:3.0,3.0;"/><path d="M1485.949,301.0019 L1488.2004,298 L1485.949,294.9981 L1493.4537,298 L1485.949,301.0019 " fill="#A80036" style="stroke:#A80036;stroke-width:1.0;"/><ellipse cx="1444" cy="298" fill="#A80036" rx="3" ry="3" style="stroke:#A80036;stroke-width:1.0;stroke-dasharray:3.0,3.0;"/><path d="M508,206 L521,206 C620.9877,206 729.9803,206 828.514,206 " fill="none" style="stroke:#A80036;stroke-width:1.0;stroke-dasharray:3.0,3.0;"/><path d="M828.514,209.0718 L830.8178,206 L828.514,202.9282 L836.1934,206 L828.514,209.0718 " fill="#A80036" style="stroke:#A80036;stroke-width:1.0;"/><ellipse cx="508" cy="206" fill="#A80036" rx="3" ry="3" style="stroke:#A80036;stroke-width:1.0;stroke-dasharray:3.0,3.0;"/><path d="M95,182 L108,182 C124.1536,182 127.924,185.4191 144,187 C239.442,196.3855 351.0456,201.6508 416.0979,204.1513 " fill="none" style="stroke:#A80036;stroke-width:1.0;stroke-dasharray:3.0,3.0;"/><path d="M415.9813,207.2306 L418.4073,204.2387 L416.2144,201.0721 L423.7961,204.4427 L415.9813,207.2306 " fill="#A80036" style="stroke:#A80036;stroke-width:1.0;"/><ellipse cx="95" cy="182" fill="#A80036" rx="3" ry="3" style="stroke:#A80036;stroke-width:1.0;stroke-dasharray:3.0,3.0;"/><!--MD5=[f7d2a0d8912b19e94ab5765739590105]
@startjson
{
  "info": {
    "copyright": "copyright 2016-2017, 2019 Open Connectivity Foundation, Inc. All rights reserved.",
    "license": "https://github.com/one-data-model/oneDM/blob/master/LICENSE",
    "title": "Colour Hue and Saturation",
    "version": "2019-02-15"
  },
  "sdfObject": {
    "colour.hs": {
      "description": "This Resource describes the colour using hue-saturation conventions.\\nThe Property \"hue\" is the hue angle, it is a number value as defined\\nby the CIECAM02 model definition (see reference [CIE CIE159:2004]). A\\nDevice that does not support fractional hue angles can provide\\ninteger values. If Property \"precision\" is provided it applies to the\\nhue angle. The Property \"saturation\" is an integer value as defined\\nby the CIECAM02 model definition (see reference [CIE CIE159:2004]).\\nThe Property \"saturation\" can be converted to a percentage by\\nsaturation/maximumsaturation X 100; where maximumsaturation is 32767\\nif the Property itself is not present. The Property\\n\"maximumsaturation\" is the upper bound on the saturation supported by\\nthe Device. If not present the maximum value for saturation is 32767.\\nThe Resource provides the colour using hue and saturation\\nconventions.",
      "sdfProperty": {
        "hue": {
          "description": "The hue angle as defined by the CIECAM02 model definition.",
          "maximum": 360,
          "minimum": 0,
          "type": "number"
        },
        "saturation": {
          "description": "The saturation as defined by the CIECAM02 model definition.",
          "maximum": 32767,
          "minimum": 0,
          "type": "integer"
        },
        "maximumsaturation": {
          "description": "The maximum supported value of \"saturation\" for this Device.",
          "maximum": 32767,
          "minimum": 0,
          "writable": false,
          "type": "integer"
        },
        "precision": {
          "type": "number",
          "writable": false,
          "description": "When exposed the value in 'precision' provides a +/- tolerance\\nagainst the Properties in the Resource. Thus if a Property is UPDATED\\nto a value and that Property then RETRIEVED, the RETRIEVED value is\\nvalid if in the range of the set value +/- precision"
        }
      },
      "sdfRequired": [
        "#/sdfObject/colour.hs/sdfProperty/hue",
        "#/sdfObject/colour.hs/sdfProperty/saturation"
      ]
    }
  }
}
@endjson

PlantUML version 1.2021.2(Sun Mar 07 13:10:27 EET 2021)
(GPL source distribution)
Java Runtime: OpenJDK Runtime Environment
JVM: OpenJDK 64-Bit Server VM
Default Encoding: UTF-8
Language: en
Country: FI
--></g></svg>