<?xml version="1.0" encoding="UTF-8" standalone="no"?><svg xmlns="http://www.w3.org/2000/svg" xmlns:xlink="http://www.w3.org/1999/xlink" contentScriptType="application/ecmascript" contentStyleType="text/css" height="1224px" preserveAspectRatio="none" style="width:2354px;height:1224px;" version="1.1" viewBox="0 0 2354 1224" width="2354px" zoomAndPan="magnify"><defs/><g><rect fill="#FEFECE" height="40.9766" rx="5" ry="5" style="stroke:#FEFECE;stroke-width:1.5;" width="97" x="10" y="428.5"/><text fill="#000000" font-family="sans-serif" font-size="14" lengthAdjust="spacing" textLength="27" x="15" y="444.0352">info</text><text fill="#000000" font-family="sans-serif" font-size="14" lengthAdjust="spacing" textLength="0" x="102" y="444.0352"/><line style="stroke:#A80036;stroke-width:1.0;" x1="85" x2="85" y1="428.5" y2="448.9883"/><line style="stroke:#A80036;stroke-width:1.0;" x1="10" x2="107" y1="448.9883" y2="448.9883"/><text fill="#000000" font-family="sans-serif" font-size="14" lengthAdjust="spacing" textLength="65" x="15" y="464.5234">sdfObject</text><text fill="#000000" font-family="sans-serif" font-size="14" lengthAdjust="spacing" textLength="0" x="102" y="464.5234"/><line style="stroke:#A80036;stroke-width:1.0;" x1="85" x2="85" y1="448.9883" y2="469.4766"/><rect fill="none" height="40.9766" rx="5" ry="5" style="stroke:#A80036;stroke-width:1.5;" width="97" x="10" y="428.5"/><rect fill="#FEFECE" height="81.9531" rx="5" ry="5" style="stroke:#FEFECE;stroke-width:1.5;" width="547" x="144" y="373"/><text fill="#000000" font-family="sans-serif" font-size="14" lengthAdjust="spacing" textLength="26" x="149" y="388.5352">title</text><text fill="#000000" font-family="sans-serif" font-size="14" lengthAdjust="spacing" textLength="279" x="224" y="388.5352">OMA LwM2M Stopwatch (Object ID 3350)</text><line style="stroke:#A80036;stroke-width:1.0;" x1="219" x2="219" y1="373" y2="393.4883"/><line style="stroke:#A80036;stroke-width:1.0;" x1="144" x2="691" y1="393.4883" y2="393.4883"/><text fill="#000000" font-family="sans-serif" font-size="14" lengthAdjust="spacing" textLength="50" x="149" y="409.0234">version</text><text fill="#000000" font-family="sans-serif" font-size="14" lengthAdjust="spacing" textLength="88" x="224" y="409.0234">2021-02-11</text><line style="stroke:#A80036;stroke-width:1.0;" x1="219" x2="219" y1="393.4883" y2="413.9766"/><line style="stroke:#A80036;stroke-width:1.0;" x1="144" x2="691" y1="413.9766" y2="413.9766"/><text fill="#000000" font-family="sans-serif" font-size="14" lengthAdjust="spacing" textLength="65" x="149" y="429.5117">copyright</text><text fill="#000000" font-family="sans-serif" font-size="14" lengthAdjust="spacing" textLength="208" x="224" y="429.5117">Copyright (c) 2018-2020 IPSO</text><line style="stroke:#A80036;stroke-width:1.0;" x1="219" x2="219" y1="413.9766" y2="434.4648"/><line style="stroke:#A80036;stroke-width:1.0;" x1="144" x2="691" y1="434.4648" y2="434.4648"/><text fill="#000000" font-family="sans-serif" font-size="14" lengthAdjust="spacing" textLength="47" x="149" y="450">license</text><text fill="#000000" font-family="sans-serif" font-size="14" lengthAdjust="spacing" textLength="462" x="224" y="450">https://github.com/one-data-model/oneDM/blob/master/LICENSE</text><line style="stroke:#A80036;stroke-width:1.0;" x1="219" x2="219" y1="434.4648" y2="454.9531"/><rect fill="none" height="81.9531" rx="5" ry="5" style="stroke:#A80036;stroke-width:1.5;" width="547" x="144" y="373"/><rect fill="#FEFECE" height="20.4883" rx="5" ry="5" style="stroke:#FEFECE;stroke-width:1.5;" width="103" x="366" y="473"/><text fill="#000000" font-family="sans-serif" font-size="14" lengthAdjust="spacing" textLength="71" x="371" y="488.5352">Stopwatch</text><text fill="#000000" font-family="sans-serif" font-size="14" lengthAdjust="spacing" textLength="0" x="464" y="488.5352"/><line style="stroke:#A80036;stroke-width:1.0;" x1="447" x2="447" y1="473" y2="493.4883"/><rect fill="none" height="20.4883" rx="5" ry="5" style="stroke:#A80036;stroke-width:1.5;" width="103" x="366" y="473"/><rect fill="#FEFECE" height="118.9297" rx="5" ry="5" style="stroke:#FEFECE;stroke-width:1.5;" width="564" x="728" y="423.5"/><text fill="#000000" font-family="sans-serif" font-size="14" lengthAdjust="spacing" textLength="33" x="733" y="439.0352">label</text><text fill="#000000" font-family="sans-serif" font-size="14" lengthAdjust="spacing" textLength="71" x="826" y="439.0352">Stopwatch</text><line style="stroke:#A80036;stroke-width:1.0;" x1="821" x2="821" y1="423.5" y2="443.9883"/><line style="stroke:#A80036;stroke-width:1.0;" x1="728" x2="1292" y1="443.9883" y2="443.9883"/><text fill="#000000" font-family="sans-serif" font-size="14" lengthAdjust="spacing" textLength="77" x="733" y="459.5234">description</text><text fill="#000000" font-family="sans-serif" font-size="14" lengthAdjust="spacing" textLength="461" x="826" y="459.5234">An ascending timer that counts how long time has passed since the</text><text fill="#000000" font-family="sans-serif" font-size="14" lengthAdjust="spacing" textLength="196" x="826" y="476.0117">timer was started after reset.</text><line style="stroke:#A80036;stroke-width:1.0;" x1="821" x2="821" y1="443.9883" y2="480.9648"/><line style="stroke:#A80036;stroke-width:1.0;" x1="728" x2="1292" y1="480.9648" y2="480.9648"/><text fill="#000000" font-family="sans-serif" font-size="14" lengthAdjust="spacing" textLength="79" x="733" y="496.5">sdfProperty</text><text fill="#000000" font-family="sans-serif" font-size="14" lengthAdjust="spacing" textLength="0" x="838" y="496.5"/><line style="stroke:#A80036;stroke-width:1.0;" x1="821" x2="821" y1="480.9648" y2="501.4531"/><line style="stroke:#A80036;stroke-width:1.0;" x1="728" x2="1292" y1="501.4531" y2="501.4531"/><text fill="#000000" font-family="sans-serif" font-size="14" lengthAdjust="spacing" textLength="65" x="733" y="516.9883">sdfAction</text><text fill="#000000" font-family="sans-serif" font-size="14" lengthAdjust="spacing" textLength="0" x="838" y="516.9883"/><line style="stroke:#A80036;stroke-width:1.0;" x1="821" x2="821" y1="501.4531" y2="521.9414"/><line style="stroke:#A80036;stroke-width:1.0;" x1="728" x2="1292" y1="521.9414" y2="521.9414"/><text fill="#000000" font-family="sans-serif" font-size="14" lengthAdjust="spacing" textLength="83" x="733" y="537.4766">sdfRequired</text><text fill="#000000" font-family="sans-serif" font-size="14" lengthAdjust="spacing" textLength="0" x="838" y="537.4766"/><line style="stroke:#A80036;stroke-width:1.0;" x1="821" x2="821" y1="521.9414" y2="542.4297"/><rect fill="none" height="118.9297" rx="5" ry="5" style="stroke:#A80036;stroke-width:1.5;" width="564" x="728" y="423.5"/><rect fill="#FEFECE" height="163.9063" rx="5" ry="5" style="stroke:#FEFECE;stroke-width:1.5;" width="248" x="1395" y="317"/><text fill="#000000" font-family="sans-serif" font-size="14" lengthAdjust="spacing" textLength="118" x="1400" y="332.5352">Cumulative_Time</text><text fill="#000000" font-family="sans-serif" font-size="14" lengthAdjust="spacing" textLength="0" x="1638" y="332.5352"/><line style="stroke:#A80036;stroke-width:1.0;" x1="1621" x2="1621" y1="317" y2="337.4883"/><line style="stroke:#A80036;stroke-width:1.0;" x1="1395" x2="1643" y1="337.4883" y2="337.4883"/><text fill="#000000" font-family="sans-serif" font-size="14" lengthAdjust="spacing" textLength="48" x="1400" y="353.0234">On_Off</text><text fill="#000000" font-family="sans-serif" font-size="14" lengthAdjust="spacing" textLength="0" x="1638" y="353.0234"/><line style="stroke:#A80036;stroke-width:1.0;" x1="1621" x2="1621" y1="337.4883" y2="357.9766"/><line style="stroke:#A80036;stroke-width:1.0;" x1="1395" x2="1643" y1="357.9766" y2="357.9766"/><text fill="#000000" font-family="sans-serif" font-size="14" lengthAdjust="spacing" textLength="150" x="1400" y="373.5117">Digital_Input_Counter</text><text fill="#000000" font-family="sans-serif" font-size="14" lengthAdjust="spacing" textLength="0" x="1638" y="373.5117"/><line style="stroke:#A80036;stroke-width:1.0;" x1="1621" x2="1621" y1="357.9766" y2="378.4648"/><line style="stroke:#A80036;stroke-width:1.0;" x1="1395" x2="1643" y1="378.4648" y2="378.4648"/><text fill="#000000" font-family="sans-serif" font-size="14" lengthAdjust="spacing" textLength="118" x="1400" y="394">Application_Type</text><text fill="#000000" font-family="sans-serif" font-size="14" lengthAdjust="spacing" textLength="0" x="1638" y="394"/><line style="stroke:#A80036;stroke-width:1.0;" x1="1621" x2="1621" y1="378.4648" y2="398.9531"/><line style="stroke:#A80036;stroke-width:1.0;" x1="1395" x2="1643" y1="398.9531" y2="398.9531"/><text fill="#000000" font-family="sans-serif" font-size="14" lengthAdjust="spacing" textLength="76" x="1400" y="414.4883">Timestamp</text><text fill="#000000" font-family="sans-serif" font-size="14" lengthAdjust="spacing" textLength="0" x="1638" y="414.4883"/><line style="stroke:#A80036;stroke-width:1.0;" x1="1621" x2="1621" y1="398.9531" y2="419.4414"/><line style="stroke:#A80036;stroke-width:1.0;" x1="1395" x2="1643" y1="419.4414" y2="419.4414"/><text fill="#000000" font-family="sans-serif" font-size="14" lengthAdjust="spacing" textLength="151" x="1400" y="434.9766">Fractional_Timestamp</text><text fill="#000000" font-family="sans-serif" font-size="14" lengthAdjust="spacing" textLength="0" x="1638" y="434.9766"/><line style="stroke:#A80036;stroke-width:1.0;" x1="1621" x2="1621" y1="419.4414" y2="439.9297"/><line style="stroke:#A80036;stroke-width:1.0;" x1="1395" x2="1643" y1="439.9297" y2="439.9297"/><text fill="#000000" font-family="sans-serif" font-size="14" lengthAdjust="spacing" textLength="216" x="1400" y="455.4648">Measurement_Quality_Indicator</text><text fill="#000000" font-family="sans-serif" font-size="14" lengthAdjust="spacing" textLength="0" x="1638" y="455.4648"/><line style="stroke:#A80036;stroke-width:1.0;" x1="1621" x2="1621" y1="439.9297" y2="460.418"/><line style="stroke:#A80036;stroke-width:1.0;" x1="1395" x2="1643" y1="460.418" y2="460.418"/><text fill="#000000" font-family="sans-serif" font-size="14" lengthAdjust="spacing" textLength="189" x="1400" y="475.9531">Measurement_Quality_Level</text><text fill="#000000" font-family="sans-serif" font-size="14" lengthAdjust="spacing" textLength="0" x="1638" y="475.9531"/><line style="stroke:#A80036;stroke-width:1.0;" x1="1621" x2="1621" y1="460.418" y2="480.9063"/><rect fill="none" height="163.9063" rx="5" ry="5" style="stroke:#A80036;stroke-width:1.5;" width="248" x="1395" y="317"/><rect fill="#FEFECE" height="98.4414" rx="5" ry="5" style="stroke:#FEFECE;stroke-width:1.5;" width="535" x="1776.5" y="10"/><text fill="#000000" font-family="sans-serif" font-size="14" lengthAdjust="spacing" textLength="33" x="1781.5" y="25.5352">label</text><text fill="#000000" font-family="sans-serif" font-size="14" lengthAdjust="spacing" textLength="115" x="1868.5" y="25.5352">Cumulative Time</text><line style="stroke:#A80036;stroke-width:1.0;" x1="1863.5" x2="1863.5" y1="10" y2="30.4883"/><line style="stroke:#A80036;stroke-width:1.0;" x1="1776.5" x2="2311.5" y1="30.4883" y2="30.4883"/><text fill="#000000" font-family="sans-serif" font-size="14" lengthAdjust="spacing" textLength="77" x="1781.5" y="46.0234">description</text><text fill="#000000" font-family="sans-serif" font-size="14" lengthAdjust="spacing" textLength="438" x="1868.5" y="46.0234">The total time in seconds that the timer input is true. Writing a 0</text><text fill="#000000" font-family="sans-serif" font-size="14" lengthAdjust="spacing" textLength="105" x="1868.5" y="62.5117">resets the time.</text><line style="stroke:#A80036;stroke-width:1.0;" x1="1863.5" x2="1863.5" y1="30.4883" y2="67.4648"/><line style="stroke:#A80036;stroke-width:1.0;" x1="1776.5" x2="2311.5" y1="67.4648" y2="67.4648"/><text fill="#000000" font-family="sans-serif" font-size="14" lengthAdjust="spacing" textLength="29" x="1781.5" y="83">type</text><text fill="#000000" font-family="sans-serif" font-size="14" lengthAdjust="spacing" textLength="54" x="1868.5" y="83">number</text><line style="stroke:#A80036;stroke-width:1.0;" x1="1863.5" x2="1863.5" y1="67.4648" y2="87.9531"/><line style="stroke:#A80036;stroke-width:1.0;" x1="1776.5" x2="2311.5" y1="87.9531" y2="87.9531"/><text fill="#000000" font-family="sans-serif" font-size="14" lengthAdjust="spacing" textLength="27" x="1781.5" y="103.4883">unit</text><text fill="#000000" font-family="sans-serif" font-size="14" lengthAdjust="spacing" textLength="7" x="1868.5" y="103.4883">s</text><line style="stroke:#A80036;stroke-width:1.0;" x1="1863.5" x2="1863.5" y1="87.9531" y2="108.4414"/><rect fill="none" height="98.4414" rx="5" ry="5" style="stroke:#A80036;stroke-width:1.5;" width="535" x="1776.5" y="10"/><rect fill="#FEFECE" height="61.4648" rx="5" ry="5" style="stroke:#FEFECE;stroke-width:1.5;" width="533" x="1777.5" y="126.5"/><text fill="#000000" font-family="sans-serif" font-size="14" lengthAdjust="spacing" textLength="33" x="1782.5" y="142.0352">label</text><text fill="#000000" font-family="sans-serif" font-size="14" lengthAdjust="spacing" textLength="48" x="1869.5" y="142.0352">On/Off</text><line style="stroke:#A80036;stroke-width:1.0;" x1="1864.5" x2="1864.5" y1="126.5" y2="146.9883"/><line style="stroke:#A80036;stroke-width:1.0;" x1="1777.5" x2="2310.5" y1="146.9883" y2="146.9883"/><text fill="#000000" font-family="sans-serif" font-size="14" lengthAdjust="spacing" textLength="77" x="1782.5" y="162.5234">description</text><text fill="#000000" font-family="sans-serif" font-size="14" lengthAdjust="spacing" textLength="436" x="1869.5" y="162.5234">On/off control. Boolean value where True is On and False is Off.</text><line style="stroke:#A80036;stroke-width:1.0;" x1="1864.5" x2="1864.5" y1="146.9883" y2="167.4766"/><line style="stroke:#A80036;stroke-width:1.0;" x1="1777.5" x2="2310.5" y1="167.4766" y2="167.4766"/><text fill="#000000" font-family="sans-serif" font-size="14" lengthAdjust="spacing" textLength="29" x="1782.5" y="183.0117">type</text><text fill="#000000" font-family="sans-serif" font-size="14" lengthAdjust="spacing" textLength="56" x="1869.5" y="183.0117">boolean</text><line style="stroke:#A80036;stroke-width:1.0;" x1="1864.5" x2="1864.5" y1="167.4766" y2="187.9648"/><rect fill="none" height="61.4648" rx="5" ry="5" style="stroke:#A80036;stroke-width:1.5;" width="533" x="1777.5" y="126.5"/><rect fill="#FEFECE" height="81.9531" rx="5" ry="5" style="stroke:#FEFECE;stroke-width:1.5;" width="406" x="1841" y="206"/><text fill="#000000" font-family="sans-serif" font-size="14" lengthAdjust="spacing" textLength="33" x="1846" y="221.5352">label</text><text fill="#000000" font-family="sans-serif" font-size="14" lengthAdjust="spacing" textLength="144" x="1933" y="221.5352">Digital Input Counter</text><line style="stroke:#A80036;stroke-width:1.0;" x1="1928" x2="1928" y1="206" y2="226.4883"/><line style="stroke:#A80036;stroke-width:1.0;" x1="1841" x2="2247" y1="226.4883" y2="226.4883"/><text fill="#000000" font-family="sans-serif" font-size="14" lengthAdjust="spacing" textLength="77" x="1846" y="242.0234">description</text><text fill="#000000" font-family="sans-serif" font-size="14" lengthAdjust="spacing" textLength="309" x="1933" y="242.0234">The cumulative value of active state detected.</text><line style="stroke:#A80036;stroke-width:1.0;" x1="1928" x2="1928" y1="226.4883" y2="246.9766"/><line style="stroke:#A80036;stroke-width:1.0;" x1="1841" x2="2247" y1="246.9766" y2="246.9766"/><text fill="#000000" font-family="sans-serif" font-size="14" lengthAdjust="spacing" textLength="55" x="1846" y="262.5117">writable</text><text fill="#000000" font-family="sans-serif" font-size="14" lengthAdjust="spacing" textLength="48" x="1933" y="262.5117">☐ false</text><line style="stroke:#A80036;stroke-width:1.0;" x1="1928" x2="1928" y1="246.9766" y2="267.4648"/><line style="stroke:#A80036;stroke-width:1.0;" x1="1841" x2="2247" y1="267.4648" y2="267.4648"/><text fill="#000000" font-family="sans-serif" font-size="14" lengthAdjust="spacing" textLength="29" x="1846" y="283">type</text><text fill="#000000" font-family="sans-serif" font-size="14" lengthAdjust="spacing" textLength="49" x="1933" y="283">integer</text><line style="stroke:#A80036;stroke-width:1.0;" x1="1928" x2="1928" y1="267.4648" y2="287.9531"/><rect fill="none" height="81.9531" rx="5" ry="5" style="stroke:#A80036;stroke-width:1.5;" width="406" x="1841" y="206"/><rect fill="#FEFECE" height="77.9531" rx="5" ry="5" style="stroke:#FEFECE;stroke-width:1.5;" width="563" x="1762.5" y="306"/><text fill="#000000" font-family="sans-serif" font-size="14" lengthAdjust="spacing" textLength="33" x="1767.5" y="321.5352">label</text><text fill="#000000" font-family="sans-serif" font-size="14" lengthAdjust="spacing" textLength="115" x="1854.5" y="321.5352">Application Type</text><line style="stroke:#A80036;stroke-width:1.0;" x1="1849.5" x2="1849.5" y1="306" y2="326.4883"/><line style="stroke:#A80036;stroke-width:1.0;" x1="1762.5" x2="2325.5" y1="326.4883" y2="326.4883"/><text fill="#000000" font-family="sans-serif" font-size="14" lengthAdjust="spacing" textLength="77" x="1767.5" y="342.0234">description</text><text fill="#000000" font-family="sans-serif" font-size="14" lengthAdjust="spacing" textLength="466" x="1854.5" y="342.0234">The application type of the sensor or actuator as a string depending</text><text fill="#000000" font-family="sans-serif" font-size="14" lengthAdjust="spacing" textLength="110" x="1854.5" y="358.5117">on the use case.</text><line style="stroke:#A80036;stroke-width:1.0;" x1="1849.5" x2="1849.5" y1="326.4883" y2="363.4648"/><line style="stroke:#A80036;stroke-width:1.0;" x1="1762.5" x2="2325.5" y1="363.4648" y2="363.4648"/><text fill="#000000" font-family="sans-serif" font-size="14" lengthAdjust="spacing" textLength="29" x="1767.5" y="379">type</text><text fill="#000000" font-family="sans-serif" font-size="14" lengthAdjust="spacing" textLength="40" x="1854.5" y="379">string</text><line style="stroke:#A80036;stroke-width:1.0;" x1="1849.5" x2="1849.5" y1="363.4648" y2="383.9531"/><rect fill="none" height="77.9531" rx="5" ry="5" style="stroke:#A80036;stroke-width:1.5;" width="563" x="1762.5" y="306"/><rect fill="#FEFECE" height="102.4414" rx="5" ry="5" style="stroke:#FEFECE;stroke-width:1.5;" width="493" x="1797.5" y="402"/><text fill="#000000" font-family="sans-serif" font-size="14" lengthAdjust="spacing" textLength="33" x="1802.5" y="417.5352">label</text><text fill="#000000" font-family="sans-serif" font-size="14" lengthAdjust="spacing" textLength="76" x="1889.5" y="417.5352">Timestamp</text><line style="stroke:#A80036;stroke-width:1.0;" x1="1884.5" x2="1884.5" y1="402" y2="422.4883"/><line style="stroke:#A80036;stroke-width:1.0;" x1="1797.5" x2="2290.5" y1="422.4883" y2="422.4883"/><text fill="#000000" font-family="sans-serif" font-size="14" lengthAdjust="spacing" textLength="77" x="1802.5" y="438.0234">description</text><text fill="#000000" font-family="sans-serif" font-size="14" lengthAdjust="spacing" textLength="396" x="1889.5" y="438.0234">The timestamp of when the measurement was performed.</text><line style="stroke:#A80036;stroke-width:1.0;" x1="1884.5" x2="1884.5" y1="422.4883" y2="442.9766"/><line style="stroke:#A80036;stroke-width:1.0;" x1="1797.5" x2="2290.5" y1="442.9766" y2="442.9766"/><text fill="#000000" font-family="sans-serif" font-size="14" lengthAdjust="spacing" textLength="55" x="1802.5" y="458.5117">writable</text><text fill="#000000" font-family="sans-serif" font-size="14" lengthAdjust="spacing" textLength="48" x="1889.5" y="458.5117">☐ false</text><line style="stroke:#A80036;stroke-width:1.0;" x1="1884.5" x2="1884.5" y1="442.9766" y2="463.4648"/><line style="stroke:#A80036;stroke-width:1.0;" x1="1797.5" x2="2290.5" y1="463.4648" y2="463.4648"/><text fill="#000000" font-family="sans-serif" font-size="14" lengthAdjust="spacing" textLength="29" x="1802.5" y="479">type</text><text fill="#000000" font-family="sans-serif" font-size="14" lengthAdjust="spacing" textLength="54" x="1889.5" y="479">number</text><line style="stroke:#A80036;stroke-width:1.0;" x1="1884.5" x2="1884.5" y1="463.4648" y2="483.9531"/><line style="stroke:#A80036;stroke-width:1.0;" x1="1797.5" x2="2290.5" y1="483.9531" y2="483.9531"/><text fill="#000000" font-family="sans-serif" font-size="14" lengthAdjust="spacing" textLength="54" x="1802.5" y="499.4883">sdfType</text><text fill="#000000" font-family="sans-serif" font-size="14" lengthAdjust="spacing" textLength="69" x="1889.5" y="499.4883">unix-time</text><line style="stroke:#A80036;stroke-width:1.0;" x1="1884.5" x2="1884.5" y1="483.9531" y2="504.4414"/><rect fill="none" height="102.4414" rx="5" ry="5" style="stroke:#A80036;stroke-width:1.5;" width="493" x="1797.5" y="402"/><rect fill="#FEFECE" height="159.9063" rx="5" ry="5" style="stroke:#FEFECE;stroke-width:1.5;" width="563" x="1762.5" y="522"/><text fill="#000000" font-family="sans-serif" font-size="14" lengthAdjust="spacing" textLength="33" x="1767.5" y="537.5352">label</text><text fill="#000000" font-family="sans-serif" font-size="14" lengthAdjust="spacing" textLength="148" x="1854.5" y="537.5352">Fractional Timestamp</text><line style="stroke:#A80036;stroke-width:1.0;" x1="1849.5" x2="1849.5" y1="522" y2="542.4883"/><line style="stroke:#A80036;stroke-width:1.0;" x1="1762.5" x2="2325.5" y1="542.4883" y2="542.4883"/><text fill="#000000" font-family="sans-serif" font-size="14" lengthAdjust="spacing" textLength="77" x="1767.5" y="558.0234">description</text><text fill="#000000" font-family="sans-serif" font-size="14" lengthAdjust="spacing" textLength="466" x="1854.5" y="558.0234">Fractional part of the timestamp when sub-second precision is used</text><text fill="#000000" font-family="sans-serif" font-size="14" lengthAdjust="spacing" textLength="157" x="1854.5" y="574.5117">(e.g., 0.23 for 230 ms).</text><line style="stroke:#A80036;stroke-width:1.0;" x1="1849.5" x2="1849.5" y1="542.4883" y2="579.4648"/><line style="stroke:#A80036;stroke-width:1.0;" x1="1762.5" x2="2325.5" y1="579.4648" y2="579.4648"/><text fill="#000000" font-family="sans-serif" font-size="14" lengthAdjust="spacing" textLength="55" x="1767.5" y="595">writable</text><text fill="#000000" font-family="sans-serif" font-size="14" lengthAdjust="spacing" textLength="48" x="1854.5" y="595">☐ false</text><line style="stroke:#A80036;stroke-width:1.0;" x1="1849.5" x2="1849.5" y1="579.4648" y2="599.9531"/><line style="stroke:#A80036;stroke-width:1.0;" x1="1762.5" x2="2325.5" y1="599.9531" y2="599.9531"/><text fill="#000000" font-family="sans-serif" font-size="14" lengthAdjust="spacing" textLength="29" x="1767.5" y="615.4883">type</text><text fill="#000000" font-family="sans-serif" font-size="14" lengthAdjust="spacing" textLength="54" x="1854.5" y="615.4883">number</text><line style="stroke:#A80036;stroke-width:1.0;" x1="1849.5" x2="1849.5" y1="599.9531" y2="620.4414"/><line style="stroke:#A80036;stroke-width:1.0;" x1="1762.5" x2="2325.5" y1="620.4414" y2="620.4414"/><text fill="#000000" font-family="sans-serif" font-size="14" lengthAdjust="spacing" textLength="27" x="1767.5" y="635.9766">unit</text><text fill="#000000" font-family="sans-serif" font-size="14" lengthAdjust="spacing" textLength="7" x="1854.5" y="635.9766">s</text><line style="stroke:#A80036;stroke-width:1.0;" x1="1849.5" x2="1849.5" y1="620.4414" y2="640.9297"/><line style="stroke:#A80036;stroke-width:1.0;" x1="1762.5" x2="2325.5" y1="640.9297" y2="640.9297"/><text fill="#000000" font-family="sans-serif" font-size="14" lengthAdjust="spacing" textLength="65" x="1767.5" y="656.4648">minimum</text><text fill="#000000" font-family="sans-serif" font-size="14" lengthAdjust="spacing" textLength="9" x="1854.5" y="656.4648">0</text><line style="stroke:#A80036;stroke-width:1.0;" x1="1849.5" x2="1849.5" y1="640.9297" y2="661.418"/><line style="stroke:#A80036;stroke-width:1.0;" x1="1762.5" x2="2325.5" y1="661.418" y2="661.418"/><text fill="#000000" font-family="sans-serif" font-size="14" lengthAdjust="spacing" textLength="69" x="1767.5" y="676.9531">maximum</text><text fill="#000000" font-family="sans-serif" font-size="14" lengthAdjust="spacing" textLength="9" x="1854.5" y="676.9531">1</text><line style="stroke:#A80036;stroke-width:1.0;" x1="1849.5" x2="1849.5" y1="661.418" y2="681.9063"/><rect fill="none" height="159.9063" rx="5" ry="5" style="stroke:#A80036;stroke-width:1.5;" width="563" x="1762.5" y="522"/><rect fill="#FEFECE" height="254.8359" rx="5" ry="5" style="stroke:#FEFECE;stroke-width:1.5;" width="596" x="1746" y="700.5"/><text fill="#000000" font-family="sans-serif" font-size="14" lengthAdjust="spacing" textLength="33" x="1751" y="716.0352">label</text><text fill="#000000" font-family="sans-serif" font-size="14" lengthAdjust="spacing" textLength="210" x="1838" y="716.0352">Measurement Quality Indicator</text><line style="stroke:#A80036;stroke-width:1.0;" x1="1833" x2="1833" y1="700.5" y2="720.9883"/><line style="stroke:#A80036;stroke-width:1.0;" x1="1746" x2="2342" y1="720.9883" y2="720.9883"/><text fill="#000000" font-family="sans-serif" font-size="14" lengthAdjust="spacing" textLength="77" x="1751" y="736.5234">description</text><text fill="#000000" font-family="sans-serif" font-size="14" lengthAdjust="spacing" textLength="401" x="1838" y="736.5234">Measurement quality indicator reported by a smart sensor.</text><text fill="#000000" font-family="sans-serif" font-size="14" lengthAdjust="spacing" textLength="499" x="1838" y="753.0117">0: UNCHECKED No quality checks were done because they do not exist or</text><text fill="#000000" font-family="sans-serif" font-size="14" lengthAdjust="spacing" textLength="131" x="1838" y="769.5">can not be applied.</text><text fill="#000000" font-family="sans-serif" font-size="14" lengthAdjust="spacing" textLength="414" x="1838" y="785.9883">1: REJECTED WITH CERTAINTY The measured value is invalid.</text><text fill="#000000" font-family="sans-serif" font-size="14" lengthAdjust="spacing" textLength="462" x="1838" y="802.4766">2: REJECTED WITH PROBABILITY The measured value is likely invalid.</text><text fill="#000000" font-family="sans-serif" font-size="14" lengthAdjust="spacing" textLength="430" x="1838" y="818.9648">3: ACCEPTED BUT SUSPICIOUS The measured value is likely OK.</text><text fill="#000000" font-family="sans-serif" font-size="14" lengthAdjust="spacing" textLength="275" x="1838" y="835.4531">4: ACCEPTED The measured value is OK.</text><text fill="#000000" font-family="sans-serif" font-size="14" lengthAdjust="spacing" textLength="258" x="1838" y="851.9414">5-15: Reserved for future extensions.</text><text fill="#000000" font-family="sans-serif" font-size="14" lengthAdjust="spacing" textLength="309" x="1838" y="868.4297">16-23: Vendor specific measurement quality.</text><line style="stroke:#A80036;stroke-width:1.0;" x1="1833" x2="1833" y1="720.9883" y2="873.3828"/><line style="stroke:#A80036;stroke-width:1.0;" x1="1746" x2="2342" y1="873.3828" y2="873.3828"/><text fill="#000000" font-family="sans-serif" font-size="14" lengthAdjust="spacing" textLength="55" x="1751" y="888.918">writable</text><text fill="#000000" font-family="sans-serif" font-size="14" lengthAdjust="spacing" textLength="48" x="1838" y="888.918">☐ false</text><line style="stroke:#A80036;stroke-width:1.0;" x1="1833" x2="1833" y1="873.3828" y2="893.8711"/><line style="stroke:#A80036;stroke-width:1.0;" x1="1746" x2="2342" y1="893.8711" y2="893.8711"/><text fill="#000000" font-family="sans-serif" font-size="14" lengthAdjust="spacing" textLength="29" x="1751" y="909.4063">type</text><text fill="#000000" font-family="sans-serif" font-size="14" lengthAdjust="spacing" textLength="49" x="1838" y="909.4063">integer</text><line style="stroke:#A80036;stroke-width:1.0;" x1="1833" x2="1833" y1="893.8711" y2="914.3594"/><line style="stroke:#A80036;stroke-width:1.0;" x1="1746" x2="2342" y1="914.3594" y2="914.3594"/><text fill="#000000" font-family="sans-serif" font-size="14" lengthAdjust="spacing" textLength="65" x="1751" y="929.8945">minimum</text><text fill="#000000" font-family="sans-serif" font-size="14" lengthAdjust="spacing" textLength="9" x="1838" y="929.8945">0</text><line style="stroke:#A80036;stroke-width:1.0;" x1="1833" x2="1833" y1="914.3594" y2="934.8477"/><line style="stroke:#A80036;stroke-width:1.0;" x1="1746" x2="2342" y1="934.8477" y2="934.8477"/><text fill="#000000" font-family="sans-serif" font-size="14" lengthAdjust="spacing" textLength="69" x="1751" y="950.3828">maximum</text><text fill="#000000" font-family="sans-serif" font-size="14" lengthAdjust="spacing" textLength="18" x="1838" y="950.3828">23</text><line style="stroke:#A80036;stroke-width:1.0;" x1="1833" x2="1833" y1="934.8477" y2="955.3359"/><rect fill="none" height="254.8359" rx="5" ry="5" style="stroke:#A80036;stroke-width:1.5;" width="596" x="1746" y="700.5"/><rect fill="#FEFECE" height="238.3477" rx="5" ry="5" style="stroke:#FEFECE;stroke-width:1.5;" width="585" x="1751.5" y="974"/><text fill="#000000" font-family="sans-serif" font-size="14" lengthAdjust="spacing" textLength="33" x="1756.5" y="989.5352">label</text><text fill="#000000" font-family="sans-serif" font-size="14" lengthAdjust="spacing" textLength="183" x="1843.5" y="989.5352">Measurement Quality Level</text><line style="stroke:#A80036;stroke-width:1.0;" x1="1838.5" x2="1838.5" y1="974" y2="994.4883"/><line style="stroke:#A80036;stroke-width:1.0;" x1="1751.5" x2="2336.5" y1="994.4883" y2="994.4883"/><text fill="#000000" font-family="sans-serif" font-size="14" lengthAdjust="spacing" textLength="77" x="1756.5" y="1010.0234">description</text><text fill="#000000" font-family="sans-serif" font-size="14" lengthAdjust="spacing" textLength="458" x="1843.5" y="1010.0234">Measurement quality level reported by a smart sensor. Quality level</text><text fill="#000000" font-family="sans-serif" font-size="14" lengthAdjust="spacing" textLength="437" x="1843.5" y="1026.5117">100 means that the measurement has fully passed quality check</text><text fill="#000000" font-family="sans-serif" font-size="14" lengthAdjust="spacing" textLength="450" x="1843.5" y="1043">algorithms. Smaller quality levels mean that quality has decreased</text><text fill="#000000" font-family="sans-serif" font-size="14" lengthAdjust="spacing" textLength="415" x="1843.5" y="1059.4883">and the measurement has only partially passed quality check</text><text fill="#000000" font-family="sans-serif" font-size="14" lengthAdjust="spacing" textLength="470" x="1843.5" y="1075.9766">algorithms. The smaller the quality level, the more caution should be</text><text fill="#000000" font-family="sans-serif" font-size="14" lengthAdjust="spacing" textLength="488" x="1843.5" y="1092.4648">used by the application when using the measurement. When the quality</text><text fill="#000000" font-family="sans-serif" font-size="14" lengthAdjust="spacing" textLength="410" x="1843.5" y="1108.9531">level is 0 it means that the measurement should certainly be</text><text fill="#000000" font-family="sans-serif" font-size="14" lengthAdjust="spacing" textLength="59" x="1843.5" y="1125.4414">rejected.</text><line style="stroke:#A80036;stroke-width:1.0;" x1="1838.5" x2="1838.5" y1="994.4883" y2="1130.3945"/><line style="stroke:#A80036;stroke-width:1.0;" x1="1751.5" x2="2336.5" y1="1130.3945" y2="1130.3945"/><text fill="#000000" font-family="sans-serif" font-size="14" lengthAdjust="spacing" textLength="55" x="1756.5" y="1145.9297">writable</text><text fill="#000000" font-family="sans-serif" font-size="14" lengthAdjust="spacing" textLength="48" x="1843.5" y="1145.9297">☐ false</text><line style="stroke:#A80036;stroke-width:1.0;" x1="1838.5" x2="1838.5" y1="1130.3945" y2="1150.8828"/><line style="stroke:#A80036;stroke-width:1.0;" x1="1751.5" x2="2336.5" y1="1150.8828" y2="1150.8828"/><text fill="#000000" font-family="sans-serif" font-size="14" lengthAdjust="spacing" textLength="29" x="1756.5" y="1166.418">type</text><text fill="#000000" font-family="sans-serif" font-size="14" lengthAdjust="spacing" textLength="49" x="1843.5" y="1166.418">integer</text><line style="stroke:#A80036;stroke-width:1.0;" x1="1838.5" x2="1838.5" y1="1150.8828" y2="1171.3711"/><line style="stroke:#A80036;stroke-width:1.0;" x1="1751.5" x2="2336.5" y1="1171.3711" y2="1171.3711"/><text fill="#000000" font-family="sans-serif" font-size="14" lengthAdjust="spacing" textLength="65" x="1756.5" y="1186.9063">minimum</text><text fill="#000000" font-family="sans-serif" font-size="14" lengthAdjust="spacing" textLength="9" x="1843.5" y="1186.9063">0</text><line style="stroke:#A80036;stroke-width:1.0;" x1="1838.5" x2="1838.5" y1="1171.3711" y2="1191.8594"/><line style="stroke:#A80036;stroke-width:1.0;" x1="1751.5" x2="2336.5" y1="1191.8594" y2="1191.8594"/><text fill="#000000" font-family="sans-serif" font-size="14" lengthAdjust="spacing" textLength="69" x="1756.5" y="1207.3945">maximum</text><text fill="#000000" font-family="sans-serif" font-size="14" lengthAdjust="spacing" textLength="27" x="1843.5" y="1207.3945">100</text><line style="stroke:#A80036;stroke-width:1.0;" x1="1838.5" x2="1838.5" y1="1191.8594" y2="1212.3477"/><rect fill="none" height="238.3477" rx="5" ry="5" style="stroke:#A80036;stroke-width:1.5;" width="585" x="1751.5" y="974"/><rect fill="#FEFECE" height="15" rx="5" ry="5" style="stroke:#FEFECE;stroke-width:1.5;" width="30" x="1507" y="499"/><rect fill="none" height="15" rx="5" ry="5" style="stroke:#A80036;stroke-width:1.5;" width="30" x="1507" y="499"/><rect fill="#FEFECE" height="20.4883" rx="5" ry="5" style="stroke:#FEFECE;stroke-width:1.5;" width="380" x="1329" y="533"/><text fill="#000000" font-family="sans-serif" font-size="14" lengthAdjust="spacing" textLength="370" x="1334" y="548.5352">#/sdfObject/Stopwatch/sdfProperty/Cumulative_Time</text><rect fill="none" height="20.4883" rx="5" ry="5" style="stroke:#A80036;stroke-width:1.5;" width="380" x="1329" y="533"/><path d="M95,438 L108,438 C117.3406,438 126.8353,437.8896 136.4202,437.6839 " fill="none" style="stroke:#A80036;stroke-width:1.0;stroke-dasharray:3.0,3.0;"/><path d="M136.4943,440.7659 L138.7318,437.6283 L136.3462,434.6019 L144.1253,437.4987 L136.4943,440.7659 " fill="#A80036" style="stroke:#A80036;stroke-width:1.0;"/><ellipse cx="95" cy="438" fill="#A80036" rx="3" ry="3" style="stroke:#A80036;stroke-width:1.0;stroke-dasharray:3.0,3.0;"/><path d="M1631.5,327 L1644.5,327 C1748.1635,327 1663.8883,180.2755 1746,117 C1753.7225,111.049 1761.8854,105.6556 1770.3846,100.7703 " fill="none" style="stroke:#A80036;stroke-width:1.0;stroke-dasharray:3.0,3.0;"/><path d="M1771.8397,103.3956 L1772.3536,99.679 L1768.9296,98.145 L1776.9478,97.1327 L1771.8397,103.3956 " fill="#A80036" style="stroke:#A80036;stroke-width:1.0;"/><ellipse cx="1631.5" cy="327" fill="#A80036" rx="3" ry="3" style="stroke:#A80036;stroke-width:1.0;stroke-dasharray:3.0,3.0;"/><path d="M1631.5,347 L1644.5,347 C1724.9951,347 1677.5778,239.4011 1746,197 C1753.952,192.0722 1762.2516,187.6388 1770.8109,183.6546 " fill="none" style="stroke:#A80036;stroke-width:1.0;stroke-dasharray:3.0,3.0;"/><path d="M1772.0508,186.422 L1772.8865,182.7247 L1769.5711,180.8873 L1777.7294,180.5549 L1772.0508,186.422 " fill="#A80036" style="stroke:#A80036;stroke-width:1.0;"/><ellipse cx="1631.5" cy="347" fill="#A80036" rx="3" ry="3" style="stroke:#A80036;stroke-width:1.0;stroke-dasharray:3.0,3.0;"/><path d="M1631.5,368 L1644.5,368 C1699.5524,368 1695.0492,317.8515 1746,297 C1773.5929,285.7077 1803.6247,276.9651 1833.6464,270.1966 " fill="none" style="stroke:#A80036;stroke-width:1.0;stroke-dasharray:3.0,3.0;"/><path d="M1834.3179,273.249 L1835.9357,269.6931 L1832.975,267.1443 L1841.2774,268.518 L1834.3179,273.249 " fill="#A80036" style="stroke:#A80036;stroke-width:1.0;"/><ellipse cx="1631.5" cy="368" fill="#A80036" rx="3" ry="3" style="stroke:#A80036;stroke-width:1.0;stroke-dasharray:3.0,3.0;"/><path d="M1631.5,388 L1644.5,388 C1680.3562,388 1717.9211,386.2622 1755.0586,383.4853 " fill="none" style="stroke:#A80036;stroke-width:1.0;stroke-dasharray:3.0,3.0;"/><path d="M1755.3019,386.6523 L1757.4339,383.3029 L1754.8154,380.3183 L1762.9761,382.8772 L1755.3019,386.6523 " fill="#A80036" style="stroke:#A80036;stroke-width:1.0;"/><ellipse cx="1631.5" cy="388" fill="#A80036" rx="3" ry="3" style="stroke:#A80036;stroke-width:1.0;stroke-dasharray:3.0,3.0;"/><path d="M1631.5,409 L1644.5,409 C1691.7158,409 1741.8862,412.0818 1790.1402,416.6141 " fill="none" style="stroke:#A80036;stroke-width:1.0;stroke-dasharray:3.0,3.0;"/><path d="M1789.8444,419.705 L1792.4584,416.836 L1790.436,413.5232 L1797.8675,417.3537 L1789.8444,419.705 " fill="#A80036" style="stroke:#A80036;stroke-width:1.0;"/><ellipse cx="1631.5" cy="409" fill="#A80036" rx="3" ry="3" style="stroke:#A80036;stroke-width:1.0;stroke-dasharray:3.0,3.0;"/><path d="M1631.5,430 L1644.5,430 C1702.7735,430 1694.5306,485.6741 1746,513 C1749.4819,514.8486 1753.0077,516.6642 1756.5719,518.4473 " fill="none" style="stroke:#A80036;stroke-width:1.0;stroke-dasharray:3.0,3.0;"/><path d="M1755.2164,521.2074 L1758.642,519.4639 L1757.9274,515.6871 L1763.4722,521.836 L1755.2164,521.2074 " fill="#A80036" style="stroke:#A80036;stroke-width:1.0;"/><ellipse cx="1631.5" cy="430" fill="#A80036" rx="3" ry="3" style="stroke:#A80036;stroke-width:1.0;stroke-dasharray:3.0,3.0;"/><path d="M1631.5,450 L1644.5,450 C1678.6102,450 1690.743,461.8455 1710,490 C1761.2359,564.9088 1690.4834,619.2062 1746,691 C1746.837,692.0824 1747.6845,693.1565 1748.5423,694.2225 " fill="none" style="stroke:#A80036;stroke-width:1.0;stroke-dasharray:3.0,3.0;"/><path d="M1746.136,696.2319 L1750.0494,696.0273 L1750.9487,692.2131 L1753.5658,700.2385 L1746.136,696.2319 " fill="#A80036" style="stroke:#A80036;stroke-width:1.0;"/><ellipse cx="1631.5" cy="450" fill="#A80036" rx="3" ry="3" style="stroke:#A80036;stroke-width:1.0;stroke-dasharray:3.0,3.0;"/><path d="M1632.5,469 L1632.5,482 C1632.5,499.3137 1697.9251,477.5919 1710,490 C1783.8276,565.8648 1684.487,878.8482 1746,965 C1746.6637,965.9295 1747.3355,966.8523 1748.0154,967.7685 " fill="none" style="stroke:#A80036;stroke-width:1.0;stroke-dasharray:3.0,3.0;"/><path d="M1745.6351,969.6093 L1749.396,969.5537 L1750.3957,965.9277 L1752.6174,973.7192 L1745.6351,969.6093 " fill="#A80036" style="stroke:#A80036;stroke-width:1.0;"/><ellipse cx="1632.5" cy="469" fill="#A80036" rx="3" ry="3" style="stroke:#A80036;stroke-width:1.0;stroke-dasharray:3.0,3.0;"/><path d="M1280,482 L1293,482 C1324.7656,482 1357.5849,474.6568 1388.0205,464.3387 " fill="none" style="stroke:#A80036;stroke-width:1.0;stroke-dasharray:3.0,3.0;"/><path d="M1389.0352,467.2476 L1390.2022,463.5777 L1387.0059,461.4298 L1395.2928,461.8021 L1389.0352,467.2476 " fill="#A80036" style="stroke:#A80036;stroke-width:1.0;"/><ellipse cx="1280" cy="482" fill="#A80036" rx="3" ry="3" style="stroke:#A80036;stroke-width:1.0;stroke-dasharray:3.0,3.0;"/><path d="M1280,507 L1293,507 C1369.4329,507 1460.4384,507 1499.3351,507 " fill="none" style="stroke:#A80036;stroke-width:1.0;stroke-dasharray:3.0,3.0;"/><path d="M1499.3351,510.1609 L1501.7058,507 L1499.3351,503.8391 L1507.2374,507 L1499.3351,510.1609 " fill="#A80036" style="stroke:#A80036;stroke-width:1.0;"/><ellipse cx="1280" cy="507" fill="#A80036" rx="3" ry="3" style="stroke:#A80036;stroke-width:1.0;stroke-dasharray:3.0,3.0;"/><path d="M1280,531 L1293,531 C1316.5381,531 1341.4388,531.66 1365.7682,532.6705 " fill="none" style="stroke:#A80036;stroke-width:1.0;stroke-dasharray:3.0,3.0;"/><path d="M1365.6384,535.6825 L1368.0272,532.7679 L1365.898,529.6585 L1373.2983,532.995 L1365.6384,535.6825 " fill="#A80036" style="stroke:#A80036;stroke-width:1.0;"/><ellipse cx="1280" cy="531" fill="#A80036" rx="3" ry="3" style="stroke:#A80036;stroke-width:1.0;stroke-dasharray:3.0,3.0;"/><path d="M458,483 L471,483 C551.9452,483 639.7345,483 720.4794,483 " fill="none" style="stroke:#A80036;stroke-width:1.0;stroke-dasharray:3.0,3.0;"/><path d="M720.4794,486.1166 L722.8168,483 L720.4794,479.8834 L728.2709,483 L720.4794,486.1166 " fill="#A80036" style="stroke:#A80036;stroke-width:1.0;"/><ellipse cx="458" cy="483" fill="#A80036" rx="3" ry="3" style="stroke:#A80036;stroke-width:1.0;stroke-dasharray:3.0,3.0;"/><path d="M95,459 L108,459 C124.1536,459 127.9333,462.3271 144,464 C217.9041,471.6948 303.3981,477.079 358.7389,480.1039 " fill="none" style="stroke:#A80036;stroke-width:1.0;stroke-dasharray:3.0,3.0;"/><path d="M358.5744,483.1457 L361.0202,480.2273 L358.9033,477.0622 L366.3432,480.5151 L358.5744,483.1457 " fill="#A80036" style="stroke:#A80036;stroke-width:1.0;"/><ellipse cx="95" cy="459" fill="#A80036" rx="3" ry="3" style="stroke:#A80036;stroke-width:1.0;stroke-dasharray:3.0,3.0;"/><!--MD5=[d1186c1755e20e45413391921d3b45b1]
@startjson
{
  "info": {
    "title": "OMA LwM2M Stopwatch (Object ID 3350)",
    "version": "2021-02-11",
    "copyright": "Copyright (c) 2018-2020 IPSO",
    "license": "https://github.com/one-data-model/oneDM/blob/master/LICENSE"
  },
  "sdfObject": {
    "Stopwatch": {
      "label": "Stopwatch",
      "description": "An ascending timer that counts how long time has passed since the\\ntimer was started after reset.",
      "sdfProperty": {
        "Cumulative_Time": {
          "label": "Cumulative Time",
          "description": "The total time in seconds that the timer input is true. Writing a 0\\nresets the time.",
          "type": "number",
          "unit": "s"
        },
        "On_Off": {
          "label": "On/Off",
          "description": "On/off control. Boolean value where True is On and False is Off.",
          "type": "boolean"
        },
        "Digital_Input_Counter": {
          "label": "Digital Input Counter",
          "description": "The cumulative value of active state detected.",
          "writable": false,
          "type": "integer"
        },
        "Application_Type": {
          "label": "Application Type",
          "description": "The application type of the sensor or actuator as a string depending\\non the use case.",
          "type": "string"
        },
        "Timestamp": {
          "label": "Timestamp",
          "description": "The timestamp of when the measurement was performed.",
          "writable": false,
          "type": "number",
          "sdfType": "unix-time"
        },
        "Fractional_Timestamp": {
          "label": "Fractional Timestamp",
          "description": "Fractional part of the timestamp when sub-second precision is used\\n(e.g., 0.23 for 230 ms).",
          "writable": false,
          "type": "number",
          "unit": "s",
          "minimum": 0,
          "maximum": 1
        },
        "Measurement_Quality_Indicator": {
          "label": "Measurement Quality Indicator",
          "description": "Measurement quality indicator reported by a smart sensor.\\n0: UNCHECKED No quality checks were done because they do not exist or\\ncan not be applied.\\n1: REJECTED WITH CERTAINTY The measured value is invalid.\\n2: REJECTED WITH PROBABILITY The measured value is likely invalid.\\n3: ACCEPTED BUT SUSPICIOUS The measured value is likely OK.\\n4: ACCEPTED The measured value is OK.\\n5-15: Reserved for future extensions.\\n16-23: Vendor specific measurement quality.",
          "writable": false,
          "type": "integer",
          "minimum": 0,
          "maximum": 23
        },
        "Measurement_Quality_Level": {
          "label": "Measurement Quality Level",
          "description": "Measurement quality level reported by a smart sensor. Quality level\\n100 means that the measurement has fully passed quality check\\nalgorithms. Smaller quality levels mean that quality has decreased\\nand the measurement has only partially passed quality check\\nalgorithms. The smaller the quality level, the more caution should be\\nused by the application when using the measurement. When the quality\\nlevel is 0 it means that the measurement should certainly be\\nrejected.",
          "writable": false,
          "type": "integer",
          "minimum": 0,
          "maximum": 100
        }
      },
      "sdfAction": {},
      "sdfRequired": [
        "#/sdfObject/Stopwatch/sdfProperty/Cumulative_Time"
      ]
    }
  }
}
@endjson

PlantUML version 1.2021.2(Sun Mar 07 13:10:27 EET 2021)
(GPL source distribution)
Java Runtime: OpenJDK Runtime Environment
JVM: OpenJDK 64-Bit Server VM
Default Encoding: UTF-8
Language: en
Country: FI
--></g></svg>