<?xml version="1.0" encoding="UTF-8" standalone="no"?><svg xmlns="http://www.w3.org/2000/svg" xmlns:xlink="http://www.w3.org/1999/xlink" contentScriptType="application/ecmascript" contentStyleType="text/css" height="187px" preserveAspectRatio="none" style="width:2315px;height:187px;" version="1.1" viewBox="0 0 2315 187" width="2315px" zoomAndPan="magnify"><defs/><g><rect fill="#FEFECE" height="40.9766" rx="5" ry="5" style="stroke:#FEFECE;stroke-width:1.5;" width="97" x="10" y="65.5"/><text fill="#000000" font-family="sans-serif" font-size="14" lengthAdjust="spacing" textLength="27" x="15" y="81.0352">info</text><text fill="#000000" font-family="sans-serif" font-size="14" lengthAdjust="spacing" textLength="0" x="102" y="81.0352"/><line style="stroke:#A80036;stroke-width:1.0;" x1="85" x2="85" y1="65.5" y2="85.9883"/><line style="stroke:#A80036;stroke-width:1.0;" x1="10" x2="107" y1="85.9883" y2="85.9883"/><text fill="#000000" font-family="sans-serif" font-size="14" lengthAdjust="spacing" textLength="65" x="15" y="101.5234">sdfObject</text><text fill="#000000" font-family="sans-serif" font-size="14" lengthAdjust="spacing" textLength="0" x="102" y="101.5234"/><line style="stroke:#A80036;stroke-width:1.0;" x1="85" x2="85" y1="85.9883" y2="106.4766"/><rect fill="none" height="40.9766" rx="5" ry="5" style="stroke:#A80036;stroke-width:1.5;" width="97" x="10" y="65.5"/><rect fill="#FEFECE" height="81.9531" rx="5" ry="5" style="stroke:#FEFECE;stroke-width:1.5;" width="614" x="144" y="10"/><text fill="#000000" font-family="sans-serif" font-size="14" lengthAdjust="spacing" textLength="65" x="149" y="25.5352">copyright</text><text fill="#000000" font-family="sans-serif" font-size="14" lengthAdjust="spacing" textLength="529" x="224" y="25.5352">Copyright 2016-2019 Open Connectivity Foundation, Inc. All rights reserved.</text><line style="stroke:#A80036;stroke-width:1.0;" x1="219" x2="219" y1="10" y2="30.4883"/><line style="stroke:#A80036;stroke-width:1.0;" x1="144" x2="758" y1="30.4883" y2="30.4883"/><text fill="#000000" font-family="sans-serif" font-size="14" lengthAdjust="spacing" textLength="47" x="149" y="46.0234">license</text><text fill="#000000" font-family="sans-serif" font-size="14" lengthAdjust="spacing" textLength="462" x="224" y="46.0234">https://github.com/one-data-model/oneDM/blob/master/LICENSE</text><line style="stroke:#A80036;stroke-width:1.0;" x1="219" x2="219" y1="30.4883" y2="50.9766"/><line style="stroke:#A80036;stroke-width:1.0;" x1="144" x2="758" y1="50.9766" y2="50.9766"/><text fill="#000000" font-family="sans-serif" font-size="14" lengthAdjust="spacing" textLength="26" x="149" y="66.5117">title</text><text fill="#000000" font-family="sans-serif" font-size="14" lengthAdjust="spacing" textLength="216" x="224" y="66.5117">Context Meal for Glucose Meter</text><line style="stroke:#A80036;stroke-width:1.0;" x1="219" x2="219" y1="50.9766" y2="71.4648"/><line style="stroke:#A80036;stroke-width:1.0;" x1="144" x2="758" y1="71.4648" y2="71.4648"/><text fill="#000000" font-family="sans-serif" font-size="14" lengthAdjust="spacing" textLength="50" x="149" y="87">version</text><text fill="#000000" font-family="sans-serif" font-size="14" lengthAdjust="spacing" textLength="88" x="224" y="87">2019-03-22</text><line style="stroke:#A80036;stroke-width:1.0;" x1="219" x2="219" y1="71.4648" y2="91.9531"/><rect fill="none" height="81.9531" rx="5" ry="5" style="stroke:#A80036;stroke-width:1.5;" width="614" x="144" y="10"/><rect fill="#FEFECE" height="20.4883" rx="5" ry="5" style="stroke:#FEFECE;stroke-width:1.5;" width="122" x="390" y="110"/><text fill="#000000" font-family="sans-serif" font-size="14" lengthAdjust="spacing" textLength="90" x="395" y="125.5352">glucose.meal</text><text fill="#000000" font-family="sans-serif" font-size="14" lengthAdjust="spacing" textLength="0" x="507" y="125.5352"/><line style="stroke:#A80036;stroke-width:1.0;" x1="490" x2="490" y1="110" y2="130.4883"/><rect fill="none" height="20.4883" rx="5" ry="5" style="stroke:#A80036;stroke-width:1.5;" width="122" x="390" y="110"/><rect fill="#FEFECE" height="110.9297" rx="5" ry="5" style="stroke:#FEFECE;stroke-width:1.5;" width="583" x="795" y="64.5"/><text fill="#000000" font-family="sans-serif" font-size="14" lengthAdjust="spacing" textLength="77" x="800" y="80.0352">description</text><text fill="#000000" font-family="sans-serif" font-size="14" lengthAdjust="spacing" textLength="471" x="893" y="80.0352">This Resource describes the Properties associated with context meal.</text><text fill="#000000" font-family="sans-serif" font-size="14" lengthAdjust="spacing" textLength="472" x="893" y="96.5234">Preprandial means pre-meal. Postprandial means post-meal. Fasting</text><text fill="#000000" font-family="sans-serif" font-size="14" lengthAdjust="spacing" textLength="480" x="893" y="113.0117">means the effect of long-term absence of food intake (overnight). The</text><text fill="#000000" font-family="sans-serif" font-size="14" lengthAdjust="spacing" textLength="442" x="893" y="129.5">meal Property is a read-only value that is provided by the Server.</text><line style="stroke:#A80036;stroke-width:1.0;" x1="888" x2="888" y1="64.5" y2="134.4531"/><line style="stroke:#A80036;stroke-width:1.0;" x1="795" x2="1378" y1="134.4531" y2="134.4531"/><text fill="#000000" font-family="sans-serif" font-size="14" lengthAdjust="spacing" textLength="79" x="800" y="149.9883">sdfProperty</text><text fill="#000000" font-family="sans-serif" font-size="14" lengthAdjust="spacing" textLength="0" x="905" y="149.9883"/><line style="stroke:#A80036;stroke-width:1.0;" x1="888" x2="888" y1="134.4531" y2="154.9414"/><line style="stroke:#A80036;stroke-width:1.0;" x1="795" x2="1378" y1="154.9414" y2="154.9414"/><text fill="#000000" font-family="sans-serif" font-size="14" lengthAdjust="spacing" textLength="83" x="800" y="170.4766">sdfRequired</text><text fill="#000000" font-family="sans-serif" font-size="14" lengthAdjust="spacing" textLength="0" x="905" y="170.4766"/><line style="stroke:#A80036;stroke-width:1.0;" x1="888" x2="888" y1="154.9414" y2="175.4297"/><rect fill="none" height="110.9297" rx="5" ry="5" style="stroke:#A80036;stroke-width:1.5;" width="583" x="795" y="64.5"/><rect fill="#FEFECE" height="20.4883" rx="5" ry="5" style="stroke:#FEFECE;stroke-width:1.5;" width="65" x="1539.5" y="110"/><text fill="#000000" font-family="sans-serif" font-size="14" lengthAdjust="spacing" textLength="33" x="1544.5" y="125.5352">meal</text><text fill="#000000" font-family="sans-serif" font-size="14" lengthAdjust="spacing" textLength="0" x="1599.5" y="125.5352"/><line style="stroke:#A80036;stroke-width:1.0;" x1="1582.5" x2="1582.5" y1="110" y2="130.4883"/><rect fill="none" height="20.4883" rx="5" ry="5" style="stroke:#A80036;stroke-width:1.5;" width="65" x="1539.5" y="110"/><rect fill="#FEFECE" height="81.9531" rx="5" ry="5" style="stroke:#FEFECE;stroke-width:1.5;" width="403" x="1766" y="79"/><text fill="#000000" font-family="sans-serif" font-size="14" lengthAdjust="spacing" textLength="77" x="1771" y="94.5352">description</text><text fill="#000000" font-family="sans-serif" font-size="14" lengthAdjust="spacing" textLength="306" x="1858" y="94.5352">Time of day when the measurement is taken.</text><line style="stroke:#A80036;stroke-width:1.0;" x1="1853" x2="1853" y1="79" y2="99.4883"/><line style="stroke:#A80036;stroke-width:1.0;" x1="1766" x2="2169" y1="99.4883" y2="99.4883"/><text fill="#000000" font-family="sans-serif" font-size="14" lengthAdjust="spacing" textLength="39" x="1771" y="115.0234">enum</text><text fill="#000000" font-family="sans-serif" font-size="14" lengthAdjust="spacing" textLength="0" x="1870" y="115.0234"/><line style="stroke:#A80036;stroke-width:1.0;" x1="1853" x2="1853" y1="99.4883" y2="119.9766"/><line style="stroke:#A80036;stroke-width:1.0;" x1="1766" x2="2169" y1="119.9766" y2="119.9766"/><text fill="#000000" font-family="sans-serif" font-size="14" lengthAdjust="spacing" textLength="55" x="1771" y="135.5117">writable</text><text fill="#000000" font-family="sans-serif" font-size="14" lengthAdjust="spacing" textLength="48" x="1858" y="135.5117">☐ false</text><line style="stroke:#A80036;stroke-width:1.0;" x1="1853" x2="1853" y1="119.9766" y2="140.4648"/><line style="stroke:#A80036;stroke-width:1.0;" x1="1766" x2="2169" y1="140.4648" y2="140.4648"/><text fill="#000000" font-family="sans-serif" font-size="14" lengthAdjust="spacing" textLength="29" x="1771" y="156">type</text><text fill="#000000" font-family="sans-serif" font-size="14" lengthAdjust="spacing" textLength="40" x="1858" y="156">string</text><line style="stroke:#A80036;stroke-width:1.0;" x1="1853" x2="1853" y1="140.4648" y2="160.9531"/><rect fill="none" height="81.9531" rx="5" ry="5" style="stroke:#A80036;stroke-width:1.5;" width="403" x="1766" y="79"/><rect fill="#FEFECE" height="102.4414" rx="5" ry="5" style="stroke:#FEFECE;stroke-width:1.5;" width="97" x="2206" y="58"/><text fill="#000000" font-family="sans-serif" font-size="14" lengthAdjust="spacing" textLength="80" x="2211" y="73.5352">preprandial</text><line style="stroke:#A80036;stroke-width:1.0;" x1="2206" x2="2303" y1="78.4883" y2="78.4883"/><text fill="#000000" font-family="sans-serif" font-size="14" lengthAdjust="spacing" textLength="87" x="2211" y="94.0234">postprandial</text><line style="stroke:#A80036;stroke-width:1.0;" x1="2206" x2="2303" y1="98.9766" y2="98.9766"/><text fill="#000000" font-family="sans-serif" font-size="14" lengthAdjust="spacing" textLength="47" x="2211" y="114.5117">fasting</text><line style="stroke:#A80036;stroke-width:1.0;" x1="2206" x2="2303" y1="119.4648" y2="119.4648"/><text fill="#000000" font-family="sans-serif" font-size="14" lengthAdjust="spacing" textLength="56" x="2211" y="135">bedtime</text><line style="stroke:#A80036;stroke-width:1.0;" x1="2206" x2="2303" y1="139.9531" y2="139.9531"/><text fill="#000000" font-family="sans-serif" font-size="14" lengthAdjust="spacing" textLength="43" x="2211" y="155.4883">casual</text><rect fill="none" height="102.4414" rx="5" ry="5" style="stroke:#A80036;stroke-width:1.5;" width="97" x="2206" y="58"/><rect fill="#FEFECE" height="20.4883" rx="5" ry="5" style="stroke:#FEFECE;stroke-width:1.5;" width="314" x="1415" y="148"/><text fill="#000000" font-family="sans-serif" font-size="14" lengthAdjust="spacing" textLength="304" x="1420" y="163.5352">#/sdfObject/glucose.meal/sdfProperty/meal</text><rect fill="none" height="20.4883" rx="5" ry="5" style="stroke:#A80036;stroke-width:1.5;" width="314" x="1415" y="148"/><path d="M95,75 L108,75 C117.4068,75 126.9554,74.9088 136.5926,74.7376 " fill="none" style="stroke:#A80036;stroke-width:1.0;stroke-dasharray:3.0,3.0;"/><path d="M136.6543,77.8363 L138.9166,74.6914 L136.5309,71.6389 L144.3394,74.5834 L136.6543,77.8363 " fill="#A80036" style="stroke:#A80036;stroke-width:1.0;"/><ellipse cx="95" cy="75" fill="#A80036" rx="3" ry="3" style="stroke:#A80036;stroke-width:1.0;stroke-dasharray:3.0,3.0;"/><path d="M2157,109 L2170,109 C2179.3208,109 2189.2234,109 2198.8362,109 " fill="none" style="stroke:#A80036;stroke-width:1.0;stroke-dasharray:3.0,3.0;"/><path d="M2198.8362,112.0522 L2201.1254,109 L2198.8362,105.9478 L2206.4668,109 L2198.8362,112.0522 " fill="#A80036" style="stroke:#A80036;stroke-width:1.0;"/><ellipse cx="2157" cy="109" fill="#A80036" rx="3" ry="3" style="stroke:#A80036;stroke-width:1.0;stroke-dasharray:3.0,3.0;"/><path d="M1593.5,120 L1606.5,120 C1655.7617,120 1708.81,120 1758.6596,120 " fill="none" style="stroke:#A80036;stroke-width:1.0;stroke-dasharray:3.0,3.0;"/><path d="M1758.6596,123.0603 L1760.9548,120 L1758.6596,116.9397 L1766.3104,120 L1758.6596,123.0603 " fill="#A80036" style="stroke:#A80036;stroke-width:1.0;"/><ellipse cx="1593.5" cy="120" fill="#A80036" rx="3" ry="3" style="stroke:#A80036;stroke-width:1.0;stroke-dasharray:3.0,3.0;"/><path d="M1366,120 L1379,120 C1431.8854,120 1492.9435,120 1531.8631,120 " fill="none" style="stroke:#A80036;stroke-width:1.0;stroke-dasharray:3.0,3.0;"/><path d="M1531.8631,123.1832 L1534.2505,120 L1531.8631,116.8168 L1539.8211,120 L1531.8631,123.1832 " fill="#A80036" style="stroke:#A80036;stroke-width:1.0;"/><ellipse cx="1366" cy="120" fill="#A80036" rx="3" ry="3" style="stroke:#A80036;stroke-width:1.0;stroke-dasharray:3.0,3.0;"/><path d="M1366,157 L1379,157 C1388.4544,157 1398.1699,157.0122 1407.9734,157.0339 " fill="none" style="stroke:#A80036;stroke-width:1.0;stroke-dasharray:3.0,3.0;"/><path d="M1407.966,160.0384 L1410.2267,157.0395 L1407.9808,154.0295 L1415.4845,157.0524 L1407.966,160.0384 " fill="#A80036" style="stroke:#A80036;stroke-width:1.0;"/><ellipse cx="1366" cy="157" fill="#A80036" rx="3" ry="3" style="stroke:#A80036;stroke-width:1.0;stroke-dasharray:3.0,3.0;"/><path d="M500.5,120 L513.5,120 C602.5928,120 699.4844,120 787.7905,120 " fill="none" style="stroke:#A80036;stroke-width:1.0;stroke-dasharray:3.0,3.0;"/><path d="M787.7905,123.0796 L790.1002,120 L787.7905,116.9204 L795.4894,120 L787.7905,123.0796 " fill="#A80036" style="stroke:#A80036;stroke-width:1.0;"/><ellipse cx="500.5" cy="120" fill="#A80036" rx="3" ry="3" style="stroke:#A80036;stroke-width:1.0;stroke-dasharray:3.0,3.0;"/><path d="M95,96 L108,96 C124.1536,96 127.927,99.388 144,101 C225.904,109.2144 320.5008,114.4315 382.6881,117.2788 " fill="none" style="stroke:#A80036;stroke-width:1.0;stroke-dasharray:3.0,3.0;"/><path d="M382.5471,120.3979 L385.0274,117.3845 L382.829,114.1597 L390.4859,117.6312 L382.5471,120.3979 " fill="#A80036" style="stroke:#A80036;stroke-width:1.0;"/><ellipse cx="95" cy="96" fill="#A80036" rx="3" ry="3" style="stroke:#A80036;stroke-width:1.0;stroke-dasharray:3.0,3.0;"/><!--MD5=[6a75d74af7c6789b8a4ec3541e669957]
@startjson
{
  "info": {
    "copyright": "Copyright 2016-2019 Open Connectivity Foundation, Inc. All rights reserved.",
    "license": "https://github.com/one-data-model/oneDM/blob/master/LICENSE",
    "title": "Context Meal for Glucose Meter",
    "version": "2019-03-22"
  },
  "sdfObject": {
    "glucose.meal": {
      "description": "This Resource describes the Properties associated with context meal.\\nPreprandial means pre-meal. Postprandial means post-meal. Fasting\\nmeans the effect of long-term absence of food intake (overnight). The\\nmeal Property is a read-only value that is provided by the Server.",
      "sdfProperty": {
        "meal": {
          "description": "Time of day when the measurement is taken.",
          "enum": [
            "preprandial",
            "postprandial",
            "fasting",
            "bedtime",
            "casual"
          ],
          "writable": false,
          "type": "string"
        }
      },
      "sdfRequired": [
        "#/sdfObject/glucose.meal/sdfProperty/meal"
      ]
    }
  }
}
@endjson

PlantUML version 1.2021.2(Sun Mar 07 13:10:27 EET 2021)
(GPL source distribution)
Java Runtime: OpenJDK Runtime Environment
JVM: OpenJDK 64-Bit Server VM
Default Encoding: UTF-8
Language: en
Country: FI
--></g></svg>