<?xml version="1.0" encoding="UTF-8" standalone="no"?><svg xmlns="http://www.w3.org/2000/svg" xmlns:xlink="http://www.w3.org/1999/xlink" contentScriptType="application/ecmascript" contentStyleType="text/css" height="380px" preserveAspectRatio="none" style="width:2407px;height:380px;" version="1.1" viewBox="0 0 2407 380" width="2407px" zoomAndPan="magnify"><defs/><g><rect fill="#FEFECE" height="40.9766" rx="5" ry="5" style="stroke:#FEFECE;stroke-width:1.5;" width="97" x="10" y="136.5"/><text fill="#000000" font-family="sans-serif" font-size="14" lengthAdjust="spacing" textLength="27" x="15" y="152.0352">info</text><text fill="#000000" font-family="sans-serif" font-size="14" lengthAdjust="spacing" textLength="0" x="102" y="152.0352"/><line style="stroke:#A80036;stroke-width:1.0;" x1="85" x2="85" y1="136.5" y2="156.9883"/><line style="stroke:#A80036;stroke-width:1.0;" x1="10" x2="107" y1="156.9883" y2="156.9883"/><text fill="#000000" font-family="sans-serif" font-size="14" lengthAdjust="spacing" textLength="65" x="15" y="172.5234">sdfObject</text><text fill="#000000" font-family="sans-serif" font-size="14" lengthAdjust="spacing" textLength="0" x="102" y="172.5234"/><line style="stroke:#A80036;stroke-width:1.0;" x1="85" x2="85" y1="156.9883" y2="177.4766"/><rect fill="none" height="40.9766" rx="5" ry="5" style="stroke:#A80036;stroke-width:1.5;" width="97" x="10" y="136.5"/><rect fill="#FEFECE" height="81.9531" rx="5" ry="5" style="stroke:#FEFECE;stroke-width:1.5;" width="570" x="144" y="81"/><text fill="#000000" font-family="sans-serif" font-size="14" lengthAdjust="spacing" textLength="65" x="149" y="96.5352">copyright</text><text fill="#000000" font-family="sans-serif" font-size="14" lengthAdjust="spacing" textLength="485" x="224" y="96.5352">Copyright 2019 Open Connectivity Foundation, Inc. All rights reserved.</text><line style="stroke:#A80036;stroke-width:1.0;" x1="219" x2="219" y1="81" y2="101.4883"/><line style="stroke:#A80036;stroke-width:1.0;" x1="144" x2="714" y1="101.4883" y2="101.4883"/><text fill="#000000" font-family="sans-serif" font-size="14" lengthAdjust="spacing" textLength="47" x="149" y="117.0234">license</text><text fill="#000000" font-family="sans-serif" font-size="14" lengthAdjust="spacing" textLength="462" x="224" y="117.0234">https://github.com/one-data-model/oneDM/blob/master/LICENSE</text><line style="stroke:#A80036;stroke-width:1.0;" x1="219" x2="219" y1="101.4883" y2="121.9766"/><line style="stroke:#A80036;stroke-width:1.0;" x1="144" x2="714" y1="121.9766" y2="121.9766"/><text fill="#000000" font-family="sans-serif" font-size="14" lengthAdjust="spacing" textLength="26" x="149" y="137.5117">title</text><text fill="#000000" font-family="sans-serif" font-size="14" lengthAdjust="spacing" textLength="70" x="224" y="137.5117">Water Info</text><line style="stroke:#A80036;stroke-width:1.0;" x1="219" x2="219" y1="121.9766" y2="142.4648"/><line style="stroke:#A80036;stroke-width:1.0;" x1="144" x2="714" y1="142.4648" y2="142.4648"/><text fill="#000000" font-family="sans-serif" font-size="14" lengthAdjust="spacing" textLength="50" x="149" y="158">version</text><text fill="#000000" font-family="sans-serif" font-size="14" lengthAdjust="spacing" textLength="88" x="224" y="158">2019-06-13</text><line style="stroke:#A80036;stroke-width:1.0;" x1="219" x2="219" y1="142.4648" y2="162.9531"/><rect fill="none" height="81.9531" rx="5" ry="5" style="stroke:#A80036;stroke-width:1.5;" width="570" x="144" y="81"/><rect fill="#FEFECE" height="20.4883" rx="5" ry="5" style="stroke:#FEFECE;stroke-width:1.5;" width="97" x="380.5" y="181"/><text fill="#000000" font-family="sans-serif" font-size="14" lengthAdjust="spacing" textLength="65" x="385.5" y="196.5352">waterinfo</text><text fill="#000000" font-family="sans-serif" font-size="14" lengthAdjust="spacing" textLength="0" x="472.5" y="196.5352"/><line style="stroke:#A80036;stroke-width:1.0;" x1="455.5" x2="455.5" y1="181" y2="201.4883"/><rect fill="none" height="20.4883" rx="5" ry="5" style="stroke:#A80036;stroke-width:1.5;" width="97" x="380.5" y="181"/><rect fill="#FEFECE" height="308.7891" rx="5" ry="5" style="stroke:#FEFECE;stroke-width:1.5;" width="576" x="751" y="36.5"/><text fill="#000000" font-family="sans-serif" font-size="14" lengthAdjust="spacing" textLength="77" x="756" y="52.0352">description</text><text fill="#000000" font-family="sans-serif" font-size="14" lengthAdjust="spacing" textLength="445" x="849" y="52.0352">This Resource describes the water information to indicate type of</text><text fill="#000000" font-family="sans-serif" font-size="14" lengthAdjust="spacing" textLength="473" x="849" y="68.5234">water currently provided by the device. The water type can be read or</text><text fill="#000000" font-family="sans-serif" font-size="14" lengthAdjust="spacing" textLength="455" x="849" y="85.0117">set. The Property "supportedwatertypes" is an array of the possible</text><text fill="#000000" font-family="sans-serif" font-size="14" lengthAdjust="spacing" textLength="465" x="849" y="101.5">water types are defined by the enumeration ["cold", "hot", "ambient",</text><text fill="#000000" font-family="sans-serif" font-size="14" lengthAdjust="spacing" textLength="424" x="849" y="117.9883">"ice"]. The Property "supportedadditivetypes" is an array of the</text><text fill="#000000" font-family="sans-serif" font-size="14" lengthAdjust="spacing" textLength="456" x="849" y="134.4766">possible additive types for water. The additive types mean optional</text><text fill="#000000" font-family="sans-serif" font-size="14" lengthAdjust="spacing" textLength="427" x="849" y="150.9648">types that can be added to the specific water type according to</text><text fill="#000000" font-family="sans-serif" font-size="14" lengthAdjust="spacing" textLength="436" x="849" y="167.4531">Client's preference and are defined by the enumeration ["none",</text><text fill="#000000" font-family="sans-serif" font-size="14" lengthAdjust="spacing" textLength="405" x="849" y="183.9414">"soda", "mineral"]. If absent, the default value is "none". The</text><text fill="#000000" font-family="sans-serif" font-size="14" lengthAdjust="spacing" textLength="459" x="849" y="200.4297">Property "currentwatertype" is the currently desired water type. The</text><text fill="#000000" font-family="sans-serif" font-size="14" lengthAdjust="spacing" textLength="431" x="849" y="216.918">Property "currentadditivetypes" is the currently desired additive</text><text fill="#000000" font-family="sans-serif" font-size="14" lengthAdjust="spacing" textLength="334" x="849" y="233.4063">type(s). For example, if "cold" is selected with the</text><text fill="#000000" font-family="sans-serif" font-size="14" lengthAdjust="spacing" textLength="457" x="849" y="249.8945">"currentwatertype", "soda" and "mineral" or both can be selected as</text><text fill="#000000" font-family="sans-serif" font-size="14" lengthAdjust="spacing" textLength="405" x="849" y="266.3828">"currentadditivetypes". Note that if "hot" is selected with the</text><text fill="#000000" font-family="sans-serif" font-size="14" lengthAdjust="spacing" textLength="446" x="849" y="282.8711">"currentwatertype", "soda" and "mineral" may be restricted for the</text><text fill="#000000" font-family="sans-serif" font-size="14" lengthAdjust="spacing" textLength="154" x="849" y="299.3594">"currentadditivetypes".</text><line style="stroke:#A80036;stroke-width:1.0;" x1="844" x2="844" y1="36.5" y2="304.3125"/><line style="stroke:#A80036;stroke-width:1.0;" x1="751" x2="1327" y1="304.3125" y2="304.3125"/><text fill="#000000" font-family="sans-serif" font-size="14" lengthAdjust="spacing" textLength="79" x="756" y="319.8477">sdfProperty</text><text fill="#000000" font-family="sans-serif" font-size="14" lengthAdjust="spacing" textLength="0" x="861" y="319.8477"/><line style="stroke:#A80036;stroke-width:1.0;" x1="844" x2="844" y1="304.3125" y2="324.8008"/><line style="stroke:#A80036;stroke-width:1.0;" x1="751" x2="1327" y1="324.8008" y2="324.8008"/><text fill="#000000" font-family="sans-serif" font-size="14" lengthAdjust="spacing" textLength="83" x="756" y="340.3359">sdfRequired</text><text fill="#000000" font-family="sans-serif" font-size="14" lengthAdjust="spacing" textLength="0" x="861" y="340.3359"/><line style="stroke:#A80036;stroke-width:1.0;" x1="844" x2="844" y1="324.8008" y2="345.2891"/><rect fill="none" height="308.7891" rx="5" ry="5" style="stroke:#A80036;stroke-width:1.5;" width="576" x="751" y="36.5"/><rect fill="#FEFECE" height="81.9531" rx="5" ry="5" style="stroke:#FEFECE;stroke-width:1.5;" width="193" x="1454" y="150"/><text fill="#000000" font-family="sans-serif" font-size="14" lengthAdjust="spacing" textLength="145" x="1459" y="165.5352">supportedwatertypes</text><text fill="#000000" font-family="sans-serif" font-size="14" lengthAdjust="spacing" textLength="0" x="1642" y="165.5352"/><line style="stroke:#A80036;stroke-width:1.0;" x1="1625" x2="1625" y1="150" y2="170.4883"/><line style="stroke:#A80036;stroke-width:1.0;" x1="1454" x2="1647" y1="170.4883" y2="170.4883"/><text fill="#000000" font-family="sans-serif" font-size="14" lengthAdjust="spacing" textLength="161" x="1459" y="186.0234">supportedadditivetypes</text><text fill="#000000" font-family="sans-serif" font-size="14" lengthAdjust="spacing" textLength="0" x="1642" y="186.0234"/><line style="stroke:#A80036;stroke-width:1.0;" x1="1625" x2="1625" y1="170.4883" y2="190.9766"/><line style="stroke:#A80036;stroke-width:1.0;" x1="1454" x2="1647" y1="190.9766" y2="190.9766"/><text fill="#000000" font-family="sans-serif" font-size="14" lengthAdjust="spacing" textLength="117" x="1459" y="206.5117">currentwatertype</text><text fill="#000000" font-family="sans-serif" font-size="14" lengthAdjust="spacing" textLength="0" x="1642" y="206.5117"/><line style="stroke:#A80036;stroke-width:1.0;" x1="1625" x2="1625" y1="190.9766" y2="211.4648"/><line style="stroke:#A80036;stroke-width:1.0;" x1="1454" x2="1647" y1="211.4648" y2="211.4648"/><text fill="#000000" font-family="sans-serif" font-size="14" lengthAdjust="spacing" textLength="140" x="1459" y="227">currentadditivetypes</text><text fill="#000000" font-family="sans-serif" font-size="14" lengthAdjust="spacing" textLength="0" x="1642" y="227"/><line style="stroke:#A80036;stroke-width:1.0;" x1="1625" x2="1625" y1="211.4648" y2="231.9531"/><rect fill="none" height="81.9531" rx="5" ry="5" style="stroke:#A80036;stroke-width:1.5;" width="193" x="1454" y="150"/><rect fill="#FEFECE" height="81.9531" rx="5" ry="5" style="stroke:#FEFECE;stroke-width:1.5;" width="353" x="1845" y="10"/><text fill="#000000" font-family="sans-serif" font-size="14" lengthAdjust="spacing" textLength="77" x="1850" y="25.5352">description</text><text fill="#000000" font-family="sans-serif" font-size="14" lengthAdjust="spacing" textLength="256" x="1937" y="25.5352">The array of the possible water types.</text><line style="stroke:#A80036;stroke-width:1.0;" x1="1932" x2="1932" y1="10" y2="30.4883"/><line style="stroke:#A80036;stroke-width:1.0;" x1="1845" x2="2198" y1="30.4883" y2="30.4883"/><text fill="#000000" font-family="sans-serif" font-size="14" lengthAdjust="spacing" textLength="37" x="1850" y="46.0234">items</text><text fill="#000000" font-family="sans-serif" font-size="14" lengthAdjust="spacing" textLength="0" x="1949" y="46.0234"/><line style="stroke:#A80036;stroke-width:1.0;" x1="1932" x2="1932" y1="30.4883" y2="50.9766"/><line style="stroke:#A80036;stroke-width:1.0;" x1="1845" x2="2198" y1="50.9766" y2="50.9766"/><text fill="#000000" font-family="sans-serif" font-size="14" lengthAdjust="spacing" textLength="55" x="1850" y="66.5117">writable</text><text fill="#000000" font-family="sans-serif" font-size="14" lengthAdjust="spacing" textLength="48" x="1937" y="66.5117">☐ false</text><line style="stroke:#A80036;stroke-width:1.0;" x1="1932" x2="1932" y1="50.9766" y2="71.4648"/><line style="stroke:#A80036;stroke-width:1.0;" x1="1845" x2="2198" y1="71.4648" y2="71.4648"/><text fill="#000000" font-family="sans-serif" font-size="14" lengthAdjust="spacing" textLength="29" x="1850" y="87">type</text><text fill="#000000" font-family="sans-serif" font-size="14" lengthAdjust="spacing" textLength="35" x="1937" y="87">array</text><line style="stroke:#A80036;stroke-width:1.0;" x1="1932" x2="1932" y1="71.4648" y2="91.9531"/><rect fill="none" height="81.9531" rx="5" ry="5" style="stroke:#A80036;stroke-width:1.5;" width="353" x="1845" y="10"/><rect fill="#FEFECE" height="20.4883" rx="5" ry="5" style="stroke:#FEFECE;stroke-width:1.5;" width="89" x="2306" y="30"/><text fill="#000000" font-family="sans-serif" font-size="14" lengthAdjust="spacing" textLength="29" x="2311" y="45.5352">type</text><text fill="#000000" font-family="sans-serif" font-size="14" lengthAdjust="spacing" textLength="40" x="2350" y="45.5352">string</text><line style="stroke:#A80036;stroke-width:1.0;" x1="2345" x2="2345" y1="30" y2="50.4883"/><rect fill="none" height="20.4883" rx="5" ry="5" style="stroke:#A80036;stroke-width:1.5;" width="89" x="2306" y="30"/><rect fill="#FEFECE" height="81.9531" rx="5" ry="5" style="stroke:#FEFECE;stroke-width:1.5;" width="369" x="1837" y="110"/><text fill="#000000" font-family="sans-serif" font-size="14" lengthAdjust="spacing" textLength="77" x="1842" y="125.5352">description</text><text fill="#000000" font-family="sans-serif" font-size="14" lengthAdjust="spacing" textLength="272" x="1929" y="125.5352">The array of the possible additive types.</text><line style="stroke:#A80036;stroke-width:1.0;" x1="1924" x2="1924" y1="110" y2="130.4883"/><line style="stroke:#A80036;stroke-width:1.0;" x1="1837" x2="2206" y1="130.4883" y2="130.4883"/><text fill="#000000" font-family="sans-serif" font-size="14" lengthAdjust="spacing" textLength="37" x="1842" y="146.0234">items</text><text fill="#000000" font-family="sans-serif" font-size="14" lengthAdjust="spacing" textLength="0" x="1941" y="146.0234"/><line style="stroke:#A80036;stroke-width:1.0;" x1="1924" x2="1924" y1="130.4883" y2="150.9766"/><line style="stroke:#A80036;stroke-width:1.0;" x1="1837" x2="2206" y1="150.9766" y2="150.9766"/><text fill="#000000" font-family="sans-serif" font-size="14" lengthAdjust="spacing" textLength="55" x="1842" y="166.5117">writable</text><text fill="#000000" font-family="sans-serif" font-size="14" lengthAdjust="spacing" textLength="48" x="1929" y="166.5117">☐ false</text><line style="stroke:#A80036;stroke-width:1.0;" x1="1924" x2="1924" y1="150.9766" y2="171.4648"/><line style="stroke:#A80036;stroke-width:1.0;" x1="1837" x2="2206" y1="171.4648" y2="171.4648"/><text fill="#000000" font-family="sans-serif" font-size="14" lengthAdjust="spacing" textLength="29" x="1842" y="187">type</text><text fill="#000000" font-family="sans-serif" font-size="14" lengthAdjust="spacing" textLength="35" x="1929" y="187">array</text><line style="stroke:#A80036;stroke-width:1.0;" x1="1924" x2="1924" y1="171.4648" y2="191.9531"/><rect fill="none" height="81.9531" rx="5" ry="5" style="stroke:#A80036;stroke-width:1.5;" width="369" x="1837" y="110"/><rect fill="#FEFECE" height="20.4883" rx="5" ry="5" style="stroke:#FEFECE;stroke-width:1.5;" width="89" x="2306" y="130"/><text fill="#000000" font-family="sans-serif" font-size="14" lengthAdjust="spacing" textLength="29" x="2311" y="145.5352">type</text><text fill="#000000" font-family="sans-serif" font-size="14" lengthAdjust="spacing" textLength="40" x="2350" y="145.5352">string</text><line style="stroke:#A80036;stroke-width:1.0;" x1="2345" x2="2345" y1="130" y2="150.4883"/><rect fill="none" height="20.4883" rx="5" ry="5" style="stroke:#A80036;stroke-width:1.5;" width="89" x="2306" y="130"/><rect fill="#FEFECE" height="40.9766" rx="5" ry="5" style="stroke:#FEFECE;stroke-width:1.5;" width="322" x="1860.5" y="210.5"/><text fill="#000000" font-family="sans-serif" font-size="14" lengthAdjust="spacing" textLength="77" x="1865.5" y="226.0352">description</text><text fill="#000000" font-family="sans-serif" font-size="14" lengthAdjust="spacing" textLength="225" x="1952.5" y="226.0352">The currently desired water type.</text><line style="stroke:#A80036;stroke-width:1.0;" x1="1947.5" x2="1947.5" y1="210.5" y2="230.9883"/><line style="stroke:#A80036;stroke-width:1.0;" x1="1860.5" x2="2182.5" y1="230.9883" y2="230.9883"/><text fill="#000000" font-family="sans-serif" font-size="14" lengthAdjust="spacing" textLength="29" x="1865.5" y="246.5234">type</text><text fill="#000000" font-family="sans-serif" font-size="14" lengthAdjust="spacing" textLength="40" x="1952.5" y="246.5234">string</text><line style="stroke:#A80036;stroke-width:1.0;" x1="1947.5" x2="1947.5" y1="230.9883" y2="251.4766"/><rect fill="none" height="40.9766" rx="5" ry="5" style="stroke:#A80036;stroke-width:1.5;" width="322" x="1860.5" y="210.5"/><rect fill="#FEFECE" height="98.4414" rx="5" ry="5" style="stroke:#FEFECE;stroke-width:1.5;" width="495" x="1774" y="270"/><text fill="#000000" font-family="sans-serif" font-size="14" lengthAdjust="spacing" textLength="77" x="1779" y="285.5352">description</text><text fill="#000000" font-family="sans-serif" font-size="14" lengthAdjust="spacing" textLength="398" x="1866" y="285.5352">The currently desired additive type(s) according to Client's</text><text fill="#000000" font-family="sans-serif" font-size="14" lengthAdjust="spacing" textLength="78" x="1866" y="302.0234">preference.</text><line style="stroke:#A80036;stroke-width:1.0;" x1="1861" x2="1861" y1="270" y2="306.9766"/><line style="stroke:#A80036;stroke-width:1.0;" x1="1774" x2="2269" y1="306.9766" y2="306.9766"/><text fill="#000000" font-family="sans-serif" font-size="14" lengthAdjust="spacing" textLength="37" x="1779" y="322.5117">items</text><text fill="#000000" font-family="sans-serif" font-size="14" lengthAdjust="spacing" textLength="0" x="1878" y="322.5117"/><line style="stroke:#A80036;stroke-width:1.0;" x1="1861" x2="1861" y1="306.9766" y2="327.4648"/><line style="stroke:#A80036;stroke-width:1.0;" x1="1774" x2="2269" y1="327.4648" y2="327.4648"/><text fill="#000000" font-family="sans-serif" font-size="14" lengthAdjust="spacing" textLength="63" x="1779" y="343">minItems</text><text fill="#000000" font-family="sans-serif" font-size="14" lengthAdjust="spacing" textLength="9" x="1866" y="343">1</text><line style="stroke:#A80036;stroke-width:1.0;" x1="1861" x2="1861" y1="327.4648" y2="347.9531"/><line style="stroke:#A80036;stroke-width:1.0;" x1="1774" x2="2269" y1="347.9531" y2="347.9531"/><text fill="#000000" font-family="sans-serif" font-size="14" lengthAdjust="spacing" textLength="29" x="1779" y="363.4883">type</text><text fill="#000000" font-family="sans-serif" font-size="14" lengthAdjust="spacing" textLength="35" x="1866" y="363.4883">array</text><line style="stroke:#A80036;stroke-width:1.0;" x1="1861" x2="1861" y1="347.9531" y2="368.4414"/><rect fill="none" height="98.4414" rx="5" ry="5" style="stroke:#A80036;stroke-width:1.5;" width="495" x="1774" y="270"/><rect fill="#FEFECE" height="20.4883" rx="5" ry="5" style="stroke:#FEFECE;stroke-width:1.5;" width="89" x="2306" y="296"/><text fill="#000000" font-family="sans-serif" font-size="14" lengthAdjust="spacing" textLength="29" x="2311" y="311.5352">type</text><text fill="#000000" font-family="sans-serif" font-size="14" lengthAdjust="spacing" textLength="40" x="2350" y="311.5352">string</text><line style="stroke:#A80036;stroke-width:1.0;" x1="2345" x2="2345" y1="296" y2="316.4883"/><rect fill="none" height="20.4883" rx="5" ry="5" style="stroke:#A80036;stroke-width:1.5;" width="89" x="2306" y="296"/><rect fill="#FEFECE" height="20.4883" rx="5" ry="5" style="stroke:#FEFECE;stroke-width:1.5;" width="373" x="1364" y="284"/><text fill="#000000" font-family="sans-serif" font-size="14" lengthAdjust="spacing" textLength="363" x="1369" y="299.5352">#/sdfObject/waterinfo/sdfProperty/currentwatertype</text><rect fill="none" height="20.4883" rx="5" ry="5" style="stroke:#A80036;stroke-width:1.5;" width="373" x="1364" y="284"/><path d="M95,146 L108,146 C117.356,146 126.8613,145.897 136.4563,145.7046 " fill="none" style="stroke:#A80036;stroke-width:1.0;stroke-dasharray:3.0,3.0;"/><path d="M136.5256,148.7898 L138.7703,145.6526 L136.387,142.6194 L144.1694,145.5314 L136.5256,148.7898 " fill="#A80036" style="stroke:#A80036;stroke-width:1.0;"/><ellipse cx="95" cy="146" fill="#A80036" rx="3" ry="3" style="stroke:#A80036;stroke-width:1.0;stroke-dasharray:3.0,3.0;"/><path d="M2187,40 L2200,40 C2232.87,40 2269.7916,40 2298.7789,40 " fill="none" style="stroke:#A80036;stroke-width:1.0;stroke-dasharray:3.0,3.0;"/><path d="M2298.7789,43.029 L2301.0506,40 L2298.7789,36.971 L2306.3513,40 L2298.7789,43.029 " fill="#A80036" style="stroke:#A80036;stroke-width:1.0;"/><ellipse cx="2187" cy="40" fill="#A80036" rx="3" ry="3" style="stroke:#A80036;stroke-width:1.0;stroke-dasharray:3.0,3.0;"/><path d="M1636,160 L1649,160 C1710.4331,160 1715.6926,120.346 1774,101 C1794.4263,94.2227 1816.1221,88.2039 1837.8456,82.9022 " fill="none" style="stroke:#A80036;stroke-width:1.0;stroke-dasharray:3.0,3.0;"/><path d="M1838.5538,85.8488 L1840.0555,82.3711 L1837.1374,79.9557 L1845.212,81.1317 L1838.5538,85.8488 " fill="#A80036" style="stroke:#A80036;stroke-width:1.0;"/><ellipse cx="1636" cy="160" fill="#A80036" rx="3" ry="3" style="stroke:#A80036;stroke-width:1.0;stroke-dasharray:3.0,3.0;"/><path d="M2195,140 L2208,140 C2238.0668,140 2271.7145,140 2298.7071,140 " fill="none" style="stroke:#A80036;stroke-width:1.0;stroke-dasharray:3.0,3.0;"/><path d="M2298.7071,143.1156 L2301.0439,140 L2298.7071,136.8844 L2306.4963,140 L2298.7071,143.1156 " fill="#A80036" style="stroke:#A80036;stroke-width:1.0;"/><ellipse cx="2195" cy="140" fill="#A80036" rx="3" ry="3" style="stroke:#A80036;stroke-width:1.0;stroke-dasharray:3.0,3.0;"/><path d="M1636,180 L1649,180 C1707.741,180 1771.5421,176.3614 1829.4486,171.662 " fill="none" style="stroke:#A80036;stroke-width:1.0;stroke-dasharray:3.0,3.0;"/><path d="M1829.7042,174.7672 L1831.7775,171.4702 L1829.1929,168.5568 L1837.2116,171.0228 L1829.7042,174.7672 " fill="#A80036" style="stroke:#A80036;stroke-width:1.0;"/><ellipse cx="1636" cy="180" fill="#A80036" rx="3" ry="3" style="stroke:#A80036;stroke-width:1.0;stroke-dasharray:3.0,3.0;"/><path d="M1636,201 L1649,201 C1715.776,201 1789.077,205.8621 1852.8268,211.6716 " fill="none" style="stroke:#A80036;stroke-width:1.0;stroke-dasharray:3.0,3.0;"/><path d="M1852.5417,214.762 L1855.1446,211.8855 L1853.112,208.5812 L1860.5528,212.3845 L1852.5417,214.762 " fill="#A80036" style="stroke:#A80036;stroke-width:1.0;"/><ellipse cx="1636" cy="201" fill="#A80036" rx="3" ry="3" style="stroke:#A80036;stroke-width:1.0;stroke-dasharray:3.0,3.0;"/><path d="M2257,306 L2270,306 C2279.3153,306 2289.2408,306 2298.8173,306 " fill="none" style="stroke:#A80036;stroke-width:1.0;stroke-dasharray:3.0,3.0;"/><path d="M2298.8173,309.0348 L2301.0934,306 L2298.8173,302.9652 L2306.4043,306 L2298.8173,309.0348 " fill="#A80036" style="stroke:#A80036;stroke-width:1.0;"/><ellipse cx="2257" cy="306" fill="#A80036" rx="3" ry="3" style="stroke:#A80036;stroke-width:1.0;stroke-dasharray:3.0,3.0;"/><path d="M1636,222 L1649,222 C1707.1968,222 1717.8582,245.6716 1774,261 C1782.6314,263.3566 1791.4481,265.7044 1800.3664,268.03 " fill="none" style="stroke:#A80036;stroke-width:1.0;stroke-dasharray:3.0,3.0;"/><path d="M1799.5872,271.0353 L1802.6204,268.6144 L1801.1455,265.0246 L1807.8798,269.9779 L1799.5872,271.0353 " fill="#A80036" style="stroke:#A80036;stroke-width:1.0;"/><ellipse cx="1636" cy="222" fill="#A80036" rx="3" ry="3" style="stroke:#A80036;stroke-width:1.0;stroke-dasharray:3.0,3.0;"/><path d="M1315,191 L1328,191 C1366.6809,191 1409.1529,191 1446.4986,191 " fill="none" style="stroke:#A80036;stroke-width:1.0;stroke-dasharray:3.0,3.0;"/><path d="M1446.4986,194.1553 L1448.865,191 L1446.4986,187.8447 L1454.3867,191 L1446.4986,194.1553 " fill="#A80036" style="stroke:#A80036;stroke-width:1.0;"/><ellipse cx="1315" cy="191" fill="#A80036" rx="3" ry="3" style="stroke:#A80036;stroke-width:1.0;stroke-dasharray:3.0,3.0;"/><path d="M1315,294 L1328,294 C1337.3516,294 1346.9248,294 1356.5936,294 " fill="none" style="stroke:#A80036;stroke-width:1.0;stroke-dasharray:3.0,3.0;"/><path d="M1356.5936,297.1089 L1358.9253,294 L1356.5936,290.8911 L1364.3659,294 L1356.5936,297.1089 " fill="#A80036" style="stroke:#A80036;stroke-width:1.0;"/><ellipse cx="1315" cy="294" fill="#A80036" rx="3" ry="3" style="stroke:#A80036;stroke-width:1.0;stroke-dasharray:3.0,3.0;"/><path d="M466.5,191 L479.5,191 C565.2269,191 658.3489,191 743.5557,191 " fill="none" style="stroke:#A80036;stroke-width:1.0;stroke-dasharray:3.0,3.0;"/><path d="M743.5557,194.0771 L745.8636,191 L743.5557,187.9229 L751.2486,191 L743.5557,194.0771 " fill="#A80036" style="stroke:#A80036;stroke-width:1.0;"/><ellipse cx="466.5" cy="191" fill="#A80036" rx="3" ry="3" style="stroke:#A80036;stroke-width:1.0;stroke-dasharray:3.0,3.0;"/><path d="M95,167 L108,167 C124.1536,167 127.9309,170.3496 144,172 C223.5275,180.1678 315.9392,185.5918 373.3288,188.4833 " fill="none" style="stroke:#A80036;stroke-width:1.0;stroke-dasharray:3.0,3.0;"/><path d="M373.1791,191.4888 L375.5829,188.5955 L373.4784,185.4777 L380.8426,188.8574 L373.1791,191.4888 " fill="#A80036" style="stroke:#A80036;stroke-width:1.0;"/><ellipse cx="95" cy="167" fill="#A80036" rx="3" ry="3" style="stroke:#A80036;stroke-width:1.0;stroke-dasharray:3.0,3.0;"/><!--MD5=[196eba3b6e2e5fee568151309f51ca0e]
@startjson
{
  "info": {
    "copyright": "Copyright 2019 Open Connectivity Foundation, Inc. All rights reserved.",
    "license": "https://github.com/one-data-model/oneDM/blob/master/LICENSE",
    "title": "Water Info",
    "version": "2019-06-13"
  },
  "sdfObject": {
    "waterinfo": {
      "description": "This Resource describes the water information to indicate type of\\nwater currently provided by the device. The water type can be read or\\nset. The Property \"supportedwatertypes\" is an array of the possible\\nwater types are defined by the enumeration [\"cold\", \"hot\", \"ambient\",\\n\"ice\"]. The Property \"supportedadditivetypes\" is an array of the\\npossible additive types for water. The additive types mean optional\\ntypes that can be added to the specific water type according to\\nClient's preference and are defined by the enumeration [\"none\",\\n\"soda\", \"mineral\"]. If absent, the default value is \"none\". The\\nProperty \"currentwatertype\" is the currently desired water type. The\\nProperty \"currentadditivetypes\" is the currently desired additive\\ntype(s). For example, if \"cold\" is selected with the\\n\"currentwatertype\", \"soda\" and \"mineral\" or both can be selected as\\n\"currentadditivetypes\". Note that if \"hot\" is selected with the\\n\"currentwatertype\", \"soda\" and \"mineral\" may be restricted for the\\n\"currentadditivetypes\".",
      "sdfProperty": {
        "supportedwatertypes": {
          "description": "The array of the possible water types.",
          "items": {
            "type": "string"
          },
          "writable": false,
          "type": "array"
        },
        "supportedadditivetypes": {
          "description": "The array of the possible additive types.",
          "items": {
            "type": "string"
          },
          "writable": false,
          "type": "array"
        },
        "currentwatertype": {
          "description": "The currently desired water type.",
          "type": "string"
        },
        "currentadditivetypes": {
          "description": "The currently desired additive type(s) according to Client's\\npreference.",
          "items": {
            "type": "string"
          },
          "minItems": 1,
          "type": "array"
        }
      },
      "sdfRequired": [
        "#/sdfObject/waterinfo/sdfProperty/currentwatertype"
      ]
    }
  }
}
@endjson

PlantUML version 1.2021.2(Sun Mar 07 13:10:27 EET 2021)
(GPL source distribution)
Java Runtime: OpenJDK Runtime Environment
JVM: OpenJDK 64-Bit Server VM
Default Encoding: UTF-8
Language: en
Country: FI
--></g></svg>