<?xml version="1.0" encoding="UTF-8" standalone="no"?><svg xmlns="http://www.w3.org/2000/svg" xmlns:xlink="http://www.w3.org/1999/xlink" contentScriptType="application/ecmascript" contentStyleType="text/css" height="203px" preserveAspectRatio="none" style="width:2401px;height:203px;" version="1.1" viewBox="0 0 2401 203" width="2401px" zoomAndPan="magnify"><defs/><g><rect fill="#FEFECE" height="40.9766" rx="5" ry="5" style="stroke:#FEFECE;stroke-width:1.5;" width="97" x="10" y="65.5"/><text fill="#000000" font-family="sans-serif" font-size="14" lengthAdjust="spacing" textLength="27" x="15" y="81.0352">info</text><text fill="#000000" font-family="sans-serif" font-size="14" lengthAdjust="spacing" textLength="0" x="102" y="81.0352"/><line style="stroke:#A80036;stroke-width:1.0;" x1="85" x2="85" y1="65.5" y2="85.9883"/><line style="stroke:#A80036;stroke-width:1.0;" x1="10" x2="107" y1="85.9883" y2="85.9883"/><text fill="#000000" font-family="sans-serif" font-size="14" lengthAdjust="spacing" textLength="65" x="15" y="101.5234">sdfObject</text><text fill="#000000" font-family="sans-serif" font-size="14" lengthAdjust="spacing" textLength="0" x="102" y="101.5234"/><line style="stroke:#A80036;stroke-width:1.0;" x1="85" x2="85" y1="85.9883" y2="106.4766"/><rect fill="none" height="40.9766" rx="5" ry="5" style="stroke:#A80036;stroke-width:1.5;" width="97" x="10" y="65.5"/><rect fill="#FEFECE" height="81.9531" rx="5" ry="5" style="stroke:#FEFECE;stroke-width:1.5;" width="655" x="144" y="10"/><text fill="#000000" font-family="sans-serif" font-size="14" lengthAdjust="spacing" textLength="65" x="149" y="25.5352">copyright</text><text fill="#000000" font-family="sans-serif" font-size="14" lengthAdjust="spacing" textLength="570" x="224" y="25.5352">copyright 2016-2017, 2019 Open Connectivity Foundation, Inc. All rights reserved.</text><line style="stroke:#A80036;stroke-width:1.0;" x1="219" x2="219" y1="10" y2="30.4883"/><line style="stroke:#A80036;stroke-width:1.0;" x1="144" x2="799" y1="30.4883" y2="30.4883"/><text fill="#000000" font-family="sans-serif" font-size="14" lengthAdjust="spacing" textLength="47" x="149" y="46.0234">license</text><text fill="#000000" font-family="sans-serif" font-size="14" lengthAdjust="spacing" textLength="462" x="224" y="46.0234">https://github.com/one-data-model/oneDM/blob/master/LICENSE</text><line style="stroke:#A80036;stroke-width:1.0;" x1="219" x2="219" y1="30.4883" y2="50.9766"/><line style="stroke:#A80036;stroke-width:1.0;" x1="144" x2="799" y1="50.9766" y2="50.9766"/><text fill="#000000" font-family="sans-serif" font-size="14" lengthAdjust="spacing" textLength="26" x="149" y="66.5117">title</text><text fill="#000000" font-family="sans-serif" font-size="14" lengthAdjust="spacing" textLength="216" x="224" y="66.5117">Magnetic Field Direction Sensor</text><line style="stroke:#A80036;stroke-width:1.0;" x1="219" x2="219" y1="50.9766" y2="71.4648"/><line style="stroke:#A80036;stroke-width:1.0;" x1="144" x2="799" y1="71.4648" y2="71.4648"/><text fill="#000000" font-family="sans-serif" font-size="14" lengthAdjust="spacing" textLength="50" x="149" y="87">version</text><text fill="#000000" font-family="sans-serif" font-size="14" lengthAdjust="spacing" textLength="88" x="224" y="87">2019-02-15</text><line style="stroke:#A80036;stroke-width:1.0;" x1="219" x2="219" y1="71.4648" y2="91.9531"/><rect fill="none" height="81.9531" rx="5" ry="5" style="stroke:#A80036;stroke-width:1.5;" width="655" x="144" y="10"/><rect fill="#FEFECE" height="20.4883" rx="5" ry="5" style="stroke:#FEFECE;stroke-width:1.5;" width="236" x="353.5" y="110"/><text fill="#000000" font-family="sans-serif" font-size="14" lengthAdjust="spacing" textLength="204" x="358.5" y="125.5352">sensor.magneticfielddirection</text><text fill="#000000" font-family="sans-serif" font-size="14" lengthAdjust="spacing" textLength="0" x="584.5" y="125.5352"/><line style="stroke:#A80036;stroke-width:1.0;" x1="567.5" x2="567.5" y1="110" y2="130.4883"/><rect fill="none" height="20.4883" rx="5" ry="5" style="stroke:#A80036;stroke-width:1.5;" width="236" x="353.5" y="110"/><rect fill="#FEFECE" height="143.9063" rx="5" ry="5" style="stroke:#FEFECE;stroke-width:1.5;" width="591" x="836" y="48"/><text fill="#000000" font-family="sans-serif" font-size="14" lengthAdjust="spacing" textLength="77" x="841" y="63.5352">description</text><text fill="#000000" font-family="sans-serif" font-size="14" lengthAdjust="spacing" textLength="451" x="934" y="63.5352">This Resource describes the direction of the Earth's magnetic field</text><text fill="#000000" font-family="sans-serif" font-size="14" lengthAdjust="spacing" textLength="446" x="934" y="80.0234">at the observer's current point in space. Typical use case includes</text><text fill="#000000" font-family="sans-serif" font-size="14" lengthAdjust="spacing" textLength="481" x="934" y="96.5117">measurement of compass readings on a personal device. The Property</text><text fill="#000000" font-family="sans-serif" font-size="14" lengthAdjust="spacing" textLength="426" x="934" y="113">"value" is an array containing Hx, Hy, Hz (in that order) each of</text><text fill="#000000" font-family="sans-serif" font-size="14" lengthAdjust="spacing" textLength="488" x="934" y="129.4883">which are floats. Each of Hx, Hy and Hz are expressed in A/m (Amperes</text><text fill="#000000" font-family="sans-serif" font-size="14" lengthAdjust="spacing" textLength="76" x="934" y="145.9766">per metre).</text><line style="stroke:#A80036;stroke-width:1.0;" x1="929" x2="929" y1="48" y2="150.9297"/><line style="stroke:#A80036;stroke-width:1.0;" x1="836" x2="1427" y1="150.9297" y2="150.9297"/><text fill="#000000" font-family="sans-serif" font-size="14" lengthAdjust="spacing" textLength="79" x="841" y="166.4648">sdfProperty</text><text fill="#000000" font-family="sans-serif" font-size="14" lengthAdjust="spacing" textLength="0" x="946" y="166.4648"/><line style="stroke:#A80036;stroke-width:1.0;" x1="929" x2="929" y1="150.9297" y2="171.418"/><line style="stroke:#A80036;stroke-width:1.0;" x1="836" x2="1427" y1="171.418" y2="171.418"/><text fill="#000000" font-family="sans-serif" font-size="14" lengthAdjust="spacing" textLength="83" x="841" y="186.9531">sdfRequired</text><text fill="#000000" font-family="sans-serif" font-size="14" lengthAdjust="spacing" textLength="0" x="946" y="186.9531"/><line style="stroke:#A80036;stroke-width:1.0;" x1="929" x2="929" y1="171.418" y2="191.9063"/><rect fill="none" height="143.9063" rx="5" ry="5" style="stroke:#A80036;stroke-width:1.5;" width="591" x="836" y="48"/><rect fill="#FEFECE" height="20.4883" rx="5" ry="5" style="stroke:#FEFECE;stroke-width:1.5;" width="68" x="1645.5" y="110"/><text fill="#000000" font-family="sans-serif" font-size="14" lengthAdjust="spacing" textLength="36" x="1650.5" y="125.5352">value</text><text fill="#000000" font-family="sans-serif" font-size="14" lengthAdjust="spacing" textLength="0" x="1708.5" y="125.5352"/><line style="stroke:#A80036;stroke-width:1.0;" x1="1691.5" x2="1691.5" y1="110" y2="130.4883"/><rect fill="none" height="20.4883" rx="5" ry="5" style="stroke:#A80036;stroke-width:1.5;" width="68" x="1645.5" y="110"/><rect fill="#FEFECE" height="122.9297" rx="5" ry="5" style="stroke:#FEFECE;stroke-width:1.5;" width="317" x="1932" y="58.5"/><text fill="#000000" font-family="sans-serif" font-size="14" lengthAdjust="spacing" textLength="77" x="1937" y="74.0352">description</text><text fill="#000000" font-family="sans-serif" font-size="14" lengthAdjust="spacing" textLength="220" x="2024" y="74.0352">The array containing Hx, Hy, Hz.</text><line style="stroke:#A80036;stroke-width:1.0;" x1="2019" x2="2019" y1="58.5" y2="78.9883"/><line style="stroke:#A80036;stroke-width:1.0;" x1="1932" x2="2249" y1="78.9883" y2="78.9883"/><text fill="#000000" font-family="sans-serif" font-size="14" lengthAdjust="spacing" textLength="37" x="1937" y="94.5234">items</text><text fill="#000000" font-family="sans-serif" font-size="14" lengthAdjust="spacing" textLength="0" x="2036" y="94.5234"/><line style="stroke:#A80036;stroke-width:1.0;" x1="2019" x2="2019" y1="78.9883" y2="99.4766"/><line style="stroke:#A80036;stroke-width:1.0;" x1="1932" x2="2249" y1="99.4766" y2="99.4766"/><text fill="#000000" font-family="sans-serif" font-size="14" lengthAdjust="spacing" textLength="67" x="1937" y="115.0117">maxItems</text><text fill="#000000" font-family="sans-serif" font-size="14" lengthAdjust="spacing" textLength="9" x="2024" y="115.0117">3</text><line style="stroke:#A80036;stroke-width:1.0;" x1="2019" x2="2019" y1="99.4766" y2="119.9648"/><line style="stroke:#A80036;stroke-width:1.0;" x1="1932" x2="2249" y1="119.9648" y2="119.9648"/><text fill="#000000" font-family="sans-serif" font-size="14" lengthAdjust="spacing" textLength="63" x="1937" y="135.5">minItems</text><text fill="#000000" font-family="sans-serif" font-size="14" lengthAdjust="spacing" textLength="9" x="2024" y="135.5">3</text><line style="stroke:#A80036;stroke-width:1.0;" x1="2019" x2="2019" y1="119.9648" y2="140.4531"/><line style="stroke:#A80036;stroke-width:1.0;" x1="1932" x2="2249" y1="140.4531" y2="140.4531"/><text fill="#000000" font-family="sans-serif" font-size="14" lengthAdjust="spacing" textLength="55" x="1937" y="155.9883">writable</text><text fill="#000000" font-family="sans-serif" font-size="14" lengthAdjust="spacing" textLength="48" x="2024" y="155.9883">☐ false</text><line style="stroke:#A80036;stroke-width:1.0;" x1="2019" x2="2019" y1="140.4531" y2="160.9414"/><line style="stroke:#A80036;stroke-width:1.0;" x1="1932" x2="2249" y1="160.9414" y2="160.9414"/><text fill="#000000" font-family="sans-serif" font-size="14" lengthAdjust="spacing" textLength="29" x="1937" y="176.4766">type</text><text fill="#000000" font-family="sans-serif" font-size="14" lengthAdjust="spacing" textLength="35" x="2024" y="176.4766">array</text><line style="stroke:#A80036;stroke-width:1.0;" x1="2019" x2="2019" y1="160.9414" y2="181.4297"/><rect fill="none" height="122.9297" rx="5" ry="5" style="stroke:#A80036;stroke-width:1.5;" width="317" x="1932" y="58.5"/><rect fill="#FEFECE" height="20.4883" rx="5" ry="5" style="stroke:#FEFECE;stroke-width:1.5;" width="103" x="2286" y="79"/><text fill="#000000" font-family="sans-serif" font-size="14" lengthAdjust="spacing" textLength="29" x="2291" y="94.5352">type</text><text fill="#000000" font-family="sans-serif" font-size="14" lengthAdjust="spacing" textLength="54" x="2330" y="94.5352">number</text><line style="stroke:#A80036;stroke-width:1.0;" x1="2325" x2="2325" y1="79" y2="99.4883"/><rect fill="none" height="20.4883" rx="5" ry="5" style="stroke:#A80036;stroke-width:1.5;" width="103" x="2286" y="79"/><rect fill="#FEFECE" height="20.4883" rx="5" ry="5" style="stroke:#FEFECE;stroke-width:1.5;" width="431" x="1464" y="158"/><text fill="#000000" font-family="sans-serif" font-size="14" lengthAdjust="spacing" textLength="421" x="1469" y="173.5352">#/sdfObject/sensor.magneticfielddirection/sdfProperty/value</text><rect fill="none" height="20.4883" rx="5" ry="5" style="stroke:#A80036;stroke-width:1.5;" width="431" x="1464" y="158"/><path d="M95,75 L108,75 C117.3442,75 126.8208,74.9198 136.3833,74.7688 " fill="none" style="stroke:#A80036;stroke-width:1.0;stroke-dasharray:3.0,3.0;"/><path d="M136.4378,77.8434 L138.6892,74.7279 L136.3288,71.6942 L144.0697,74.6326 L136.4378,77.8434 " fill="#A80036" style="stroke:#A80036;stroke-width:1.0;"/><ellipse cx="95" cy="75" fill="#A80036" rx="3" ry="3" style="stroke:#A80036;stroke-width:1.0;stroke-dasharray:3.0,3.0;"/><path d="M2237,89 L2250,89 C2259.2961,89 2269.151,89 2278.7587,89 " fill="none" style="stroke:#A80036;stroke-width:1.0;stroke-dasharray:3.0,3.0;"/><path d="M2278.7587,92.0547 L2281.0497,89 L2278.7587,85.9453 L2286.3954,89 L2278.7587,92.0547 " fill="#A80036" style="stroke:#A80036;stroke-width:1.0;"/><ellipse cx="2237" cy="89" fill="#A80036" rx="3" ry="3" style="stroke:#A80036;stroke-width:1.0;stroke-dasharray:3.0,3.0;"/><path d="M1702,120 L1715,120 C1783.6436,120 1859.355,120 1924.6684,120 " fill="none" style="stroke:#A80036;stroke-width:1.0;stroke-dasharray:3.0,3.0;"/><path d="M1924.6684,123.0016 L1926.9197,120 L1924.6684,116.9984 L1932.1726,120 L1924.6684,123.0016 " fill="#A80036" style="stroke:#A80036;stroke-width:1.0;"/><ellipse cx="1702" cy="120" fill="#A80036" rx="3" ry="3" style="stroke:#A80036;stroke-width:1.0;stroke-dasharray:3.0,3.0;"/><path d="M1415,120 L1428,120 C1502.0407,120 1588.3668,120 1638.0545,120 " fill="none" style="stroke:#A80036;stroke-width:1.0;stroke-dasharray:3.0,3.0;"/><path d="M1638.0545,123.061 L1640.3503,120 L1638.0545,116.939 L1645.707,120 L1638.0545,123.061 " fill="#A80036" style="stroke:#A80036;stroke-width:1.0;"/><ellipse cx="1415" cy="120" fill="#A80036" rx="3" ry="3" style="stroke:#A80036;stroke-width:1.0;stroke-dasharray:3.0,3.0;"/><path d="M1415,168 L1428,168 C1437.3698,168 1446.9363,168 1456.6004,168 " fill="none" style="stroke:#A80036;stroke-width:1.0;stroke-dasharray:3.0,3.0;"/><path d="M1456.6004,171.1078 L1458.9313,168 L1456.6004,164.8922 L1464.3699,168 L1456.6004,171.1078 " fill="#A80036" style="stroke:#A80036;stroke-width:1.0;"/><ellipse cx="1415" cy="168" fill="#A80036" rx="3" ry="3" style="stroke:#A80036;stroke-width:1.0;stroke-dasharray:3.0,3.0;"/><path d="M578,120 L591,120 C667.9283,120 751.0212,120 828.4229,120 " fill="none" style="stroke:#A80036;stroke-width:1.0;stroke-dasharray:3.0,3.0;"/><path d="M828.4229,123.1816 L830.8092,120 L828.4229,116.8184 L836.377,120 L828.4229,123.1816 " fill="#A80036" style="stroke:#A80036;stroke-width:1.0;"/><ellipse cx="578" cy="120" fill="#A80036" rx="3" ry="3" style="stroke:#A80036;stroke-width:1.0;stroke-dasharray:3.0,3.0;"/><path d="M95,96 L108,96 C124.1536,96 127.924,99.4191 144,101 C210.6193,107.5512 285.1129,112.0949 346.1531,115.0922 " fill="none" style="stroke:#A80036;stroke-width:1.0;stroke-dasharray:3.0,3.0;"/><path d="M346.0026,118.1948 L348.4801,115.205 L346.3035,111.9895 L353.9096,115.4683 L346.0026,118.1948 " fill="#A80036" style="stroke:#A80036;stroke-width:1.0;"/><ellipse cx="95" cy="96" fill="#A80036" rx="3" ry="3" style="stroke:#A80036;stroke-width:1.0;stroke-dasharray:3.0,3.0;"/><!--MD5=[a13ca0b7a8d90626cab47dfdc0640fac]
@startjson
{
  "info": {
    "copyright": "copyright 2016-2017, 2019 Open Connectivity Foundation, Inc. All rights reserved.",
    "license": "https://github.com/one-data-model/oneDM/blob/master/LICENSE",
    "title": "Magnetic Field Direction Sensor",
    "version": "2019-02-15"
  },
  "sdfObject": {
    "sensor.magneticfielddirection": {
      "description": "This Resource describes the direction of the Earth's magnetic field\\nat the observer's current point in space. Typical use case includes\\nmeasurement of compass readings on a personal device. The Property\\n\"value\" is an array containing Hx, Hy, Hz (in that order) each of\\nwhich are floats. Each of Hx, Hy and Hz are expressed in A/m (Amperes\\nper metre).",
      "sdfProperty": {
        "value": {
          "description": "The array containing Hx, Hy, Hz.",
          "items": {
            "type": "number"
          },
          "maxItems": 3,
          "minItems": 3,
          "writable": false,
          "type": "array"
        }
      },
      "sdfRequired": [
        "#/sdfObject/sensor.magneticfielddirection/sdfProperty/value"
      ]
    }
  }
}
@endjson

PlantUML version 1.2021.2(Sun Mar 07 13:10:27 EET 2021)
(GPL source distribution)
Java Runtime: OpenJDK Runtime Environment
JVM: OpenJDK 64-Bit Server VM
Default Encoding: UTF-8
Language: en
Country: FI
--></g></svg>