<?xml version="1.0" encoding="UTF-8" standalone="no"?><svg xmlns="http://www.w3.org/2000/svg" xmlns:xlink="http://www.w3.org/1999/xlink" contentScriptType="application/ecmascript" contentStyleType="text/css" height="441px" preserveAspectRatio="none" style="width:2475px;height:441px;" version="1.1" viewBox="0 0 2475 441" width="2475px" zoomAndPan="magnify"><defs/><g><rect fill="#FEFECE" height="40.9766" rx="5" ry="5" style="stroke:#FEFECE;stroke-width:1.5;" width="97" x="10" y="159.5"/><text fill="#000000" font-family="sans-serif" font-size="14" lengthAdjust="spacing" textLength="27" x="15" y="175.0352">info</text><text fill="#000000" font-family="sans-serif" font-size="14" lengthAdjust="spacing" textLength="0" x="102" y="175.0352"/><line style="stroke:#A80036;stroke-width:1.0;" x1="85" x2="85" y1="159.5" y2="179.9883"/><line style="stroke:#A80036;stroke-width:1.0;" x1="10" x2="107" y1="179.9883" y2="179.9883"/><text fill="#000000" font-family="sans-serif" font-size="14" lengthAdjust="spacing" textLength="65" x="15" y="195.5234">sdfObject</text><text fill="#000000" font-family="sans-serif" font-size="14" lengthAdjust="spacing" textLength="0" x="102" y="195.5234"/><line style="stroke:#A80036;stroke-width:1.0;" x1="85" x2="85" y1="179.9883" y2="200.4766"/><rect fill="none" height="40.9766" rx="5" ry="5" style="stroke:#A80036;stroke-width:1.5;" width="97" x="10" y="159.5"/><rect fill="#FEFECE" height="81.9531" rx="5" ry="5" style="stroke:#FEFECE;stroke-width:1.5;" width="655" x="144" y="104"/><text fill="#000000" font-family="sans-serif" font-size="14" lengthAdjust="spacing" textLength="65" x="149" y="119.5352">copyright</text><text fill="#000000" font-family="sans-serif" font-size="14" lengthAdjust="spacing" textLength="570" x="224" y="119.5352">copyright 2016-2017, 2019 Open Connectivity Foundation, Inc. All rights reserved.</text><line style="stroke:#A80036;stroke-width:1.0;" x1="219" x2="219" y1="104" y2="124.4883"/><line style="stroke:#A80036;stroke-width:1.0;" x1="144" x2="799" y1="124.4883" y2="124.4883"/><text fill="#000000" font-family="sans-serif" font-size="14" lengthAdjust="spacing" textLength="47" x="149" y="140.0234">license</text><text fill="#000000" font-family="sans-serif" font-size="14" lengthAdjust="spacing" textLength="462" x="224" y="140.0234">https://github.com/one-data-model/oneDM/blob/master/LICENSE</text><line style="stroke:#A80036;stroke-width:1.0;" x1="219" x2="219" y1="124.4883" y2="144.9766"/><line style="stroke:#A80036;stroke-width:1.0;" x1="144" x2="799" y1="144.9766" y2="144.9766"/><text fill="#000000" font-family="sans-serif" font-size="14" lengthAdjust="spacing" textLength="26" x="149" y="160.5117">title</text><text fill="#000000" font-family="sans-serif" font-size="14" lengthAdjust="spacing" textLength="86" x="224" y="160.5117">Consumable</text><line style="stroke:#A80036;stroke-width:1.0;" x1="219" x2="219" y1="144.9766" y2="165.4648"/><line style="stroke:#A80036;stroke-width:1.0;" x1="144" x2="799" y1="165.4648" y2="165.4648"/><text fill="#000000" font-family="sans-serif" font-size="14" lengthAdjust="spacing" textLength="50" x="149" y="181">version</text><text fill="#000000" font-family="sans-serif" font-size="14" lengthAdjust="spacing" textLength="88" x="224" y="181">2019-02-15</text><line style="stroke:#A80036;stroke-width:1.0;" x1="219" x2="219" y1="165.4648" y2="185.9531"/><rect fill="none" height="81.9531" rx="5" ry="5" style="stroke:#A80036;stroke-width:1.5;" width="655" x="144" y="104"/><rect fill="#FEFECE" height="20.4883" rx="5" ry="5" style="stroke:#FEFECE;stroke-width:1.5;" width="115" x="414" y="204"/><text fill="#000000" font-family="sans-serif" font-size="14" lengthAdjust="spacing" textLength="83" x="419" y="219.5352">consumable</text><text fill="#000000" font-family="sans-serif" font-size="14" lengthAdjust="spacing" textLength="0" x="524" y="219.5352"/><line style="stroke:#A80036;stroke-width:1.0;" x1="507" x2="507" y1="204" y2="224.4883"/><rect fill="none" height="20.4883" rx="5" ry="5" style="stroke:#A80036;stroke-width:1.5;" width="115" x="414" y="204"/><rect fill="#FEFECE" height="193.3711" rx="5" ry="5" style="stroke:#FEFECE;stroke-width:1.5;" width="615" x="836" y="117.5"/><text fill="#000000" font-family="sans-serif" font-size="14" lengthAdjust="spacing" textLength="77" x="841" y="133.0352">description</text><text fill="#000000" font-family="sans-serif" font-size="14" lengthAdjust="spacing" textLength="457" x="934" y="133.0352">This Resource specifies a thing that can be consumed such as filter</text><text fill="#000000" font-family="sans-serif" font-size="14" lengthAdjust="spacing" textLength="437" x="934" y="149.5234">material, printer toner etc The Propert "typeofconsumable" is an</text><text fill="#000000" font-family="sans-serif" font-size="14" lengthAdjust="spacing" textLength="498" x="934" y="166.0117">enumeration defining the thing being consumed as defined by the Smart</text><text fill="#000000" font-family="sans-serif" font-size="14" lengthAdjust="spacing" textLength="444" x="934" y="182.5">Home Device Specification The Property "remaining" is an integer</text><text fill="#000000" font-family="sans-serif" font-size="14" lengthAdjust="spacing" textLength="369" x="934" y="198.9883">capturing the percentatge remaining life The Property</text><text fill="#000000" font-family="sans-serif" font-size="14" lengthAdjust="spacing" textLength="433" x="934" y="215.4766">"orderpercentage" is an integer capturing the percentage life at</text><text fill="#000000" font-family="sans-serif" font-size="14" lengthAdjust="spacing" textLength="512" x="934" y="231.9648">which replacement or replenishment is recommended by the manufacturer</text><text fill="#000000" font-family="sans-serif" font-size="14" lengthAdjust="spacing" textLength="424" x="934" y="248.4531">The Property "url" is a string containing a URL at which further</text><text fill="#000000" font-family="sans-serif" font-size="14" lengthAdjust="spacing" textLength="421" x="934" y="264.9414">information may be obtained with respect to the consumable.</text><line style="stroke:#A80036;stroke-width:1.0;" x1="929" x2="929" y1="117.5" y2="269.8945"/><line style="stroke:#A80036;stroke-width:1.0;" x1="836" x2="1451" y1="269.8945" y2="269.8945"/><text fill="#000000" font-family="sans-serif" font-size="14" lengthAdjust="spacing" textLength="79" x="841" y="285.4297">sdfProperty</text><text fill="#000000" font-family="sans-serif" font-size="14" lengthAdjust="spacing" textLength="0" x="946" y="285.4297"/><line style="stroke:#A80036;stroke-width:1.0;" x1="929" x2="929" y1="269.8945" y2="290.3828"/><line style="stroke:#A80036;stroke-width:1.0;" x1="836" x2="1451" y1="290.3828" y2="290.3828"/><text fill="#000000" font-family="sans-serif" font-size="14" lengthAdjust="spacing" textLength="83" x="841" y="305.918">sdfRequired</text><text fill="#000000" font-family="sans-serif" font-size="14" lengthAdjust="spacing" textLength="0" x="946" y="305.918"/><line style="stroke:#A80036;stroke-width:1.0;" x1="929" x2="929" y1="290.3828" y2="310.8711"/><rect fill="none" height="193.3711" rx="5" ry="5" style="stroke:#A80036;stroke-width:1.5;" width="615" x="836" y="117.5"/><rect fill="#FEFECE" height="81.9531" rx="5" ry="5" style="stroke:#FEFECE;stroke-width:1.5;" width="158" x="1609" y="165"/><text fill="#000000" font-family="sans-serif" font-size="14" lengthAdjust="spacing" textLength="70" x="1614" y="180.5352">remaining</text><text fill="#000000" font-family="sans-serif" font-size="14" lengthAdjust="spacing" textLength="0" x="1762" y="180.5352"/><line style="stroke:#A80036;stroke-width:1.0;" x1="1745" x2="1745" y1="165" y2="185.4883"/><line style="stroke:#A80036;stroke-width:1.0;" x1="1609" x2="1767" y1="185.4883" y2="185.4883"/><text fill="#000000" font-family="sans-serif" font-size="14" lengthAdjust="spacing" textLength="126" x="1614" y="201.0234">typeofconsumable</text><text fill="#000000" font-family="sans-serif" font-size="14" lengthAdjust="spacing" textLength="0" x="1762" y="201.0234"/><line style="stroke:#A80036;stroke-width:1.0;" x1="1745" x2="1745" y1="185.4883" y2="205.9766"/><line style="stroke:#A80036;stroke-width:1.0;" x1="1609" x2="1767" y1="205.9766" y2="205.9766"/><text fill="#000000" font-family="sans-serif" font-size="14" lengthAdjust="spacing" textLength="19" x="1614" y="221.5117">url</text><text fill="#000000" font-family="sans-serif" font-size="14" lengthAdjust="spacing" textLength="0" x="1762" y="221.5117"/><line style="stroke:#A80036;stroke-width:1.0;" x1="1745" x2="1745" y1="205.9766" y2="226.4648"/><line style="stroke:#A80036;stroke-width:1.0;" x1="1609" x2="1767" y1="226.4648" y2="226.4648"/><text fill="#000000" font-family="sans-serif" font-size="14" lengthAdjust="spacing" textLength="115" x="1614" y="242">orderpercentage</text><text fill="#000000" font-family="sans-serif" font-size="14" lengthAdjust="spacing" textLength="0" x="1762" y="242"/><line style="stroke:#A80036;stroke-width:1.0;" x1="1745" x2="1745" y1="226.4648" y2="246.9531"/><rect fill="none" height="81.9531" rx="5" ry="5" style="stroke:#A80036;stroke-width:1.5;" width="158" x="1609" y="165"/><rect fill="#FEFECE" height="102.4414" rx="5" ry="5" style="stroke:#FEFECE;stroke-width:1.5;" width="340" x="2024" y="10"/><text fill="#000000" font-family="sans-serif" font-size="14" lengthAdjust="spacing" textLength="77" x="2029" y="25.5352">description</text><text fill="#000000" font-family="sans-serif" font-size="14" lengthAdjust="spacing" textLength="243" x="2116" y="25.5352">The percentage remaining lifespan.</text><line style="stroke:#A80036;stroke-width:1.0;" x1="2111" x2="2111" y1="10" y2="30.4883"/><line style="stroke:#A80036;stroke-width:1.0;" x1="2024" x2="2364" y1="30.4883" y2="30.4883"/><text fill="#000000" font-family="sans-serif" font-size="14" lengthAdjust="spacing" textLength="69" x="2029" y="46.0234">maximum</text><text fill="#000000" font-family="sans-serif" font-size="14" lengthAdjust="spacing" textLength="27" x="2116" y="46.0234">100</text><line style="stroke:#A80036;stroke-width:1.0;" x1="2111" x2="2111" y1="30.4883" y2="50.9766"/><line style="stroke:#A80036;stroke-width:1.0;" x1="2024" x2="2364" y1="50.9766" y2="50.9766"/><text fill="#000000" font-family="sans-serif" font-size="14" lengthAdjust="spacing" textLength="65" x="2029" y="66.5117">minimum</text><text fill="#000000" font-family="sans-serif" font-size="14" lengthAdjust="spacing" textLength="9" x="2116" y="66.5117">0</text><line style="stroke:#A80036;stroke-width:1.0;" x1="2111" x2="2111" y1="50.9766" y2="71.4648"/><line style="stroke:#A80036;stroke-width:1.0;" x1="2024" x2="2364" y1="71.4648" y2="71.4648"/><text fill="#000000" font-family="sans-serif" font-size="14" lengthAdjust="spacing" textLength="55" x="2029" y="87">writable</text><text fill="#000000" font-family="sans-serif" font-size="14" lengthAdjust="spacing" textLength="48" x="2116" y="87">☐ false</text><line style="stroke:#A80036;stroke-width:1.0;" x1="2111" x2="2111" y1="71.4648" y2="91.9531"/><line style="stroke:#A80036;stroke-width:1.0;" x1="2024" x2="2364" y1="91.9531" y2="91.9531"/><text fill="#000000" font-family="sans-serif" font-size="14" lengthAdjust="spacing" textLength="29" x="2029" y="107.4883">type</text><text fill="#000000" font-family="sans-serif" font-size="14" lengthAdjust="spacing" textLength="49" x="2116" y="107.4883">integer</text><line style="stroke:#A80036;stroke-width:1.0;" x1="2111" x2="2111" y1="91.9531" y2="112.4414"/><rect fill="none" height="102.4414" rx="5" ry="5" style="stroke:#A80036;stroke-width:1.5;" width="340" x="2024" y="10"/><rect fill="#FEFECE" height="61.4648" rx="5" ry="5" style="stroke:#FEFECE;stroke-width:1.5;" width="331" x="2028.5" y="130.5"/><text fill="#000000" font-family="sans-serif" font-size="14" lengthAdjust="spacing" textLength="77" x="2033.5" y="146.0352">description</text><text fill="#000000" font-family="sans-serif" font-size="14" lengthAdjust="spacing" textLength="234" x="2120.5" y="146.0352">The thing that is being consumed.</text><line style="stroke:#A80036;stroke-width:1.0;" x1="2115.5" x2="2115.5" y1="130.5" y2="150.9883"/><line style="stroke:#A80036;stroke-width:1.0;" x1="2028.5" x2="2359.5" y1="150.9883" y2="150.9883"/><text fill="#000000" font-family="sans-serif" font-size="14" lengthAdjust="spacing" textLength="55" x="2033.5" y="166.5234">writable</text><text fill="#000000" font-family="sans-serif" font-size="14" lengthAdjust="spacing" textLength="48" x="2120.5" y="166.5234">☐ false</text><line style="stroke:#A80036;stroke-width:1.0;" x1="2115.5" x2="2115.5" y1="150.9883" y2="171.4766"/><line style="stroke:#A80036;stroke-width:1.0;" x1="2028.5" x2="2359.5" y1="171.4766" y2="171.4766"/><text fill="#000000" font-family="sans-serif" font-size="14" lengthAdjust="spacing" textLength="29" x="2033.5" y="187.0117">type</text><text fill="#000000" font-family="sans-serif" font-size="14" lengthAdjust="spacing" textLength="40" x="2120.5" y="187.0117">string</text><line style="stroke:#A80036;stroke-width:1.0;" x1="2115.5" x2="2115.5" y1="171.4766" y2="191.9648"/><rect fill="none" height="61.4648" rx="5" ry="5" style="stroke:#A80036;stroke-width:1.5;" width="331" x="2028.5" y="130.5"/><rect fill="#FEFECE" height="81.9531" rx="5" ry="5" style="stroke:#FEFECE;stroke-width:1.5;" width="538" x="1925" y="210"/><text fill="#000000" font-family="sans-serif" font-size="14" lengthAdjust="spacing" textLength="77" x="1930" y="225.5352">description</text><text fill="#000000" font-family="sans-serif" font-size="14" lengthAdjust="spacing" textLength="441" x="2017" y="225.5352">The URL at which additional ordering information may be found.</text><line style="stroke:#A80036;stroke-width:1.0;" x1="2012" x2="2012" y1="210" y2="230.4883"/><line style="stroke:#A80036;stroke-width:1.0;" x1="1925" x2="2463" y1="230.4883" y2="230.4883"/><text fill="#000000" font-family="sans-serif" font-size="14" lengthAdjust="spacing" textLength="46" x="1930" y="246.0234">format</text><text fill="#000000" font-family="sans-serif" font-size="14" lengthAdjust="spacing" textLength="19" x="2017" y="246.0234">uri</text><line style="stroke:#A80036;stroke-width:1.0;" x1="2012" x2="2012" y1="230.4883" y2="250.9766"/><line style="stroke:#A80036;stroke-width:1.0;" x1="1925" x2="2463" y1="250.9766" y2="250.9766"/><text fill="#000000" font-family="sans-serif" font-size="14" lengthAdjust="spacing" textLength="55" x="1930" y="266.5117">writable</text><text fill="#000000" font-family="sans-serif" font-size="14" lengthAdjust="spacing" textLength="48" x="2017" y="266.5117">☐ false</text><line style="stroke:#A80036;stroke-width:1.0;" x1="2012" x2="2012" y1="250.9766" y2="271.4648"/><line style="stroke:#A80036;stroke-width:1.0;" x1="1925" x2="2463" y1="271.4648" y2="271.4648"/><text fill="#000000" font-family="sans-serif" font-size="14" lengthAdjust="spacing" textLength="29" x="1930" y="287">type</text><text fill="#000000" font-family="sans-serif" font-size="14" lengthAdjust="spacing" textLength="40" x="2017" y="287">string</text><line style="stroke:#A80036;stroke-width:1.0;" x1="2012" x2="2012" y1="271.4648" y2="291.9531"/><rect fill="none" height="81.9531" rx="5" ry="5" style="stroke:#A80036;stroke-width:1.5;" width="538" x="1925" y="210"/><rect fill="#FEFECE" height="118.9297" rx="5" ry="5" style="stroke:#FEFECE;stroke-width:1.5;" width="515" x="1936.5" y="310.5"/><text fill="#000000" font-family="sans-serif" font-size="14" lengthAdjust="spacing" textLength="77" x="1941.5" y="326.0352">description</text><text fill="#000000" font-family="sans-serif" font-size="14" lengthAdjust="spacing" textLength="418" x="2028.5" y="326.0352">The percentage at which re-ordering is recommended by the</text><text fill="#000000" font-family="sans-serif" font-size="14" lengthAdjust="spacing" textLength="97" x="2028.5" y="342.5234">manufacturer.</text><line style="stroke:#A80036;stroke-width:1.0;" x1="2023.5" x2="2023.5" y1="310.5" y2="347.4766"/><line style="stroke:#A80036;stroke-width:1.0;" x1="1936.5" x2="2451.5" y1="347.4766" y2="347.4766"/><text fill="#000000" font-family="sans-serif" font-size="14" lengthAdjust="spacing" textLength="69" x="1941.5" y="363.0117">maximum</text><text fill="#000000" font-family="sans-serif" font-size="14" lengthAdjust="spacing" textLength="27" x="2028.5" y="363.0117">100</text><line style="stroke:#A80036;stroke-width:1.0;" x1="2023.5" x2="2023.5" y1="347.4766" y2="367.9648"/><line style="stroke:#A80036;stroke-width:1.0;" x1="1936.5" x2="2451.5" y1="367.9648" y2="367.9648"/><text fill="#000000" font-family="sans-serif" font-size="14" lengthAdjust="spacing" textLength="65" x="1941.5" y="383.5">minimum</text><text fill="#000000" font-family="sans-serif" font-size="14" lengthAdjust="spacing" textLength="9" x="2028.5" y="383.5">0</text><line style="stroke:#A80036;stroke-width:1.0;" x1="2023.5" x2="2023.5" y1="367.9648" y2="388.4531"/><line style="stroke:#A80036;stroke-width:1.0;" x1="1936.5" x2="2451.5" y1="388.4531" y2="388.4531"/><text fill="#000000" font-family="sans-serif" font-size="14" lengthAdjust="spacing" textLength="55" x="1941.5" y="403.9883">writable</text><text fill="#000000" font-family="sans-serif" font-size="14" lengthAdjust="spacing" textLength="48" x="2028.5" y="403.9883">☐ false</text><line style="stroke:#A80036;stroke-width:1.0;" x1="2023.5" x2="2023.5" y1="388.4531" y2="408.9414"/><line style="stroke:#A80036;stroke-width:1.0;" x1="1936.5" x2="2451.5" y1="408.9414" y2="408.9414"/><text fill="#000000" font-family="sans-serif" font-size="14" lengthAdjust="spacing" textLength="29" x="1941.5" y="424.4766">type</text><text fill="#000000" font-family="sans-serif" font-size="14" lengthAdjust="spacing" textLength="49" x="2028.5" y="424.4766">integer</text><line style="stroke:#A80036;stroke-width:1.0;" x1="2023.5" x2="2023.5" y1="408.9414" y2="429.4297"/><rect fill="none" height="118.9297" rx="5" ry="5" style="stroke:#A80036;stroke-width:1.5;" width="515" x="1936.5" y="310.5"/><rect fill="#FEFECE" height="40.9766" rx="5" ry="5" style="stroke:#FEFECE;stroke-width:1.5;" width="400" x="1488" y="265.5"/><text fill="#000000" font-family="sans-serif" font-size="14" lengthAdjust="spacing" textLength="390" x="1493" y="281.0352">#/sdfObject/consumable/sdfProperty/typeofconsumable</text><line style="stroke:#A80036;stroke-width:1.0;" x1="1488" x2="1888" y1="285.9883" y2="285.9883"/><text fill="#000000" font-family="sans-serif" font-size="14" lengthAdjust="spacing" textLength="334" x="1493" y="301.5234">#/sdfObject/consumable/sdfProperty/remaining</text><rect fill="none" height="40.9766" rx="5" ry="5" style="stroke:#A80036;stroke-width:1.5;" width="400" x="1488" y="265.5"/><path d="M95,169 L108,169 C117.3442,169 126.8208,168.9198 136.3833,168.7688 " fill="none" style="stroke:#A80036;stroke-width:1.0;stroke-dasharray:3.0,3.0;"/><path d="M136.4378,171.8434 L138.6892,168.7279 L136.3288,165.6942 L144.0697,168.6326 L136.4378,171.8434 " fill="#A80036" style="stroke:#A80036;stroke-width:1.0;"/><ellipse cx="95" cy="169" fill="#A80036" rx="3" ry="3" style="stroke:#A80036;stroke-width:1.0;stroke-dasharray:3.0,3.0;"/><path d="M1755.5,175 L1768.5,175 C1842.0797,175 1854.2061,141.055 1925,121 C1954.5688,112.6235 1986.2352,104.6675 2017.077,97.4497 " fill="none" style="stroke:#A80036;stroke-width:1.0;stroke-dasharray:3.0,3.0;"/><path d="M2017.7656,100.4098 L2019.2971,96.9333 L2016.3884,94.4896 L2024.4773,95.7282 L2017.7656,100.4098 " fill="#A80036" style="stroke:#A80036;stroke-width:1.0;"/><ellipse cx="1755.5" cy="175" fill="#A80036" rx="3" ry="3" style="stroke:#A80036;stroke-width:1.0;stroke-dasharray:3.0,3.0;"/><path d="M1755.5,195 L1768.5,195 C1851.6917,195 1943.7525,188.4468 2020.8603,181.0944 " fill="none" style="stroke:#A80036;stroke-width:1.0;stroke-dasharray:3.0,3.0;"/><path d="M2021.1643,184.2506 L2023.2275,180.8663 L2020.5562,177.9381 L2028.7509,180.3342 L2021.1643,184.2506 " fill="#A80036" style="stroke:#A80036;stroke-width:1.0;"/><ellipse cx="1755.5" cy="195" fill="#A80036" rx="3" ry="3" style="stroke:#A80036;stroke-width:1.0;stroke-dasharray:3.0,3.0;"/><path d="M1755.5,216 L1768.5,216 C1816.8254,216 1868.1377,218.2755 1917.772,221.666 " fill="none" style="stroke:#A80036;stroke-width:1.0;stroke-dasharray:3.0,3.0;"/><path d="M1917.5597,224.718 L1920.061,221.8253 L1917.9843,218.614 L1925.402,222.1968 L1917.5597,224.718 " fill="#A80036" style="stroke:#A80036;stroke-width:1.0;"/><ellipse cx="1755.5" cy="216" fill="#A80036" rx="3" ry="3" style="stroke:#A80036;stroke-width:1.0;stroke-dasharray:3.0,3.0;"/><path d="M1755.5,237 L1768.5,237 C1822.7882,237 1842.0169,229.8008 1889,257 C1910.867,269.6591 1903.7046,287.4012 1925,301 C1928.0708,302.961 1931.1948,304.8663 1934.3662,306.7175 " fill="none" style="stroke:#A80036;stroke-width:1.0;stroke-dasharray:3.0,3.0;"/><path d="M1932.8764,309.3472 L1936.3384,307.8349 L1935.856,304.0878 L1940.9404,310.4421 L1932.8764,309.3472 " fill="#A80036" style="stroke:#A80036;stroke-width:1.0;"/><ellipse cx="1755.5" cy="237" fill="#A80036" rx="3" ry="3" style="stroke:#A80036;stroke-width:1.0;stroke-dasharray:3.0,3.0;"/><path d="M1439,213 L1452,213 C1501.5899,213 1557.0276,211.4301 1601.6524,209.7772 " fill="none" style="stroke:#A80036;stroke-width:1.0;stroke-dasharray:3.0,3.0;"/><path d="M1601.7674,212.8304 L1603.9423,209.6909 L1601.5375,206.724 L1609.2855,209.4897 L1601.7674,212.8304 " fill="#A80036" style="stroke:#A80036;stroke-width:1.0;"/><ellipse cx="1439" cy="213" fill="#A80036" rx="3" ry="3" style="stroke:#A80036;stroke-width:1.0;stroke-dasharray:3.0,3.0;"/><path d="M1439,278 L1452,278 C1461.3611,278 1470.9304,278.0639 1480.5957,278.1803 " fill="none" style="stroke:#A80036;stroke-width:1.0;stroke-dasharray:3.0,3.0;"/><path d="M1480.5539,281.2883 L1482.9267,278.2116 L1480.6375,275.0724 L1488.3656,278.2847 L1480.5539,281.2883 " fill="#A80036" style="stroke:#A80036;stroke-width:1.0;"/><ellipse cx="1439" cy="278" fill="#A80036" rx="3" ry="3" style="stroke:#A80036;stroke-width:1.0;stroke-dasharray:3.0,3.0;"/><path d="M518,214 L531,214 C627.7243,214 733.0476,214 828.6229,214 " fill="none" style="stroke:#A80036;stroke-width:1.0;stroke-dasharray:3.0,3.0;"/><path d="M828.6229,217.0972 L830.9458,214 L828.6229,210.9028 L836.366,214 L828.6229,217.0972 " fill="#A80036" style="stroke:#A80036;stroke-width:1.0;"/><ellipse cx="518" cy="214" fill="#A80036" rx="3" ry="3" style="stroke:#A80036;stroke-width:1.0;stroke-dasharray:3.0,3.0;"/><path d="M95,190 L108,190 C124.1536,190 127.924,193.4191 144,195 C234.9554,203.9443 340.5887,209.1467 406.6217,211.7802 " fill="none" style="stroke:#A80036;stroke-width:1.0;stroke-dasharray:3.0,3.0;"/><path d="M406.4983,214.9214 L408.9776,211.8728 L406.7451,208.6391 L414.4746,212.0887 L406.4983,214.9214 " fill="#A80036" style="stroke:#A80036;stroke-width:1.0;"/><ellipse cx="95" cy="190" fill="#A80036" rx="3" ry="3" style="stroke:#A80036;stroke-width:1.0;stroke-dasharray:3.0,3.0;"/><!--MD5=[a926dd8eef074ca80e7389b690c50ff0]
@startjson
{
  "info": {
    "copyright": "copyright 2016-2017, 2019 Open Connectivity Foundation, Inc. All rights reserved.",
    "license": "https://github.com/one-data-model/oneDM/blob/master/LICENSE",
    "title": "Consumable",
    "version": "2019-02-15"
  },
  "sdfObject": {
    "consumable": {
      "description": "This Resource specifies a thing that can be consumed such as filter\\nmaterial, printer toner etc The Propert \"typeofconsumable\" is an\\nenumeration defining the thing being consumed as defined by the Smart\\nHome Device Specification The Property \"remaining\" is an integer\\ncapturing the percentatge remaining life The Property\\n\"orderpercentage\" is an integer capturing the percentage life at\\nwhich replacement or replenishment is recommended by the manufacturer\\nThe Property \"url\" is a string containing a URL at which further\\ninformation may be obtained with respect to the consumable.",
      "sdfProperty": {
        "remaining": {
          "description": "The percentage remaining lifespan.",
          "maximum": 100,
          "minimum": 0,
          "writable": false,
          "type": "integer"
        },
        "typeofconsumable": {
          "description": "The thing that is being consumed.",
          "writable": false,
          "type": "string"
        },
        "url": {
          "description": "The URL at which additional ordering information may be found.",
          "format": "uri",
          "writable": false,
          "type": "string"
        },
        "orderpercentage": {
          "description": "The percentage at which re-ordering is recommended by the\\nmanufacturer.",
          "maximum": 100,
          "minimum": 0,
          "writable": false,
          "type": "integer"
        }
      },
      "sdfRequired": [
        "#/sdfObject/consumable/sdfProperty/typeofconsumable",
        "#/sdfObject/consumable/sdfProperty/remaining"
      ]
    }
  }
}
@endjson

PlantUML version 1.2021.2(Sun Mar 07 13:10:27 EET 2021)
(GPL source distribution)
Java Runtime: OpenJDK Runtime Environment
JVM: OpenJDK 64-Bit Server VM
Default Encoding: UTF-8
Language: en
Country: FI
--></g></svg>