<?xml version="1.0" encoding="UTF-8" standalone="no"?><svg xmlns="http://www.w3.org/2000/svg" xmlns:xlink="http://www.w3.org/1999/xlink" contentScriptType="application/ecmascript" contentStyleType="text/css" height="390px" preserveAspectRatio="none" style="width:2460px;height:390px;" version="1.1" viewBox="0 0 2460 390" width="2460px" zoomAndPan="magnify"><defs/><g><rect fill="#FEFECE" height="40.9766" rx="5" ry="5" style="stroke:#FEFECE;stroke-width:1.5;" width="97" x="10" y="145.5"/><text fill="#000000" font-family="sans-serif" font-size="14" lengthAdjust="spacing" textLength="27" x="15" y="161.0352">info</text><text fill="#000000" font-family="sans-serif" font-size="14" lengthAdjust="spacing" textLength="0" x="102" y="161.0352"/><line style="stroke:#A80036;stroke-width:1.0;" x1="85" x2="85" y1="145.5" y2="165.9883"/><line style="stroke:#A80036;stroke-width:1.0;" x1="10" x2="107" y1="165.9883" y2="165.9883"/><text fill="#000000" font-family="sans-serif" font-size="14" lengthAdjust="spacing" textLength="65" x="15" y="181.5234">sdfObject</text><text fill="#000000" font-family="sans-serif" font-size="14" lengthAdjust="spacing" textLength="0" x="102" y="181.5234"/><line style="stroke:#A80036;stroke-width:1.0;" x1="85" x2="85" y1="165.9883" y2="186.4766"/><rect fill="none" height="40.9766" rx="5" ry="5" style="stroke:#A80036;stroke-width:1.5;" width="97" x="10" y="145.5"/><rect fill="#FEFECE" height="81.9531" rx="5" ry="5" style="stroke:#FEFECE;stroke-width:1.5;" width="614" x="144" y="90"/><text fill="#000000" font-family="sans-serif" font-size="14" lengthAdjust="spacing" textLength="65" x="149" y="105.5352">copyright</text><text fill="#000000" font-family="sans-serif" font-size="14" lengthAdjust="spacing" textLength="529" x="224" y="105.5352">Copyright 2016-2019 Open Connectivity Foundation, Inc. All rights reserved.</text><line style="stroke:#A80036;stroke-width:1.0;" x1="219" x2="219" y1="90" y2="110.4883"/><line style="stroke:#A80036;stroke-width:1.0;" x1="144" x2="758" y1="110.4883" y2="110.4883"/><text fill="#000000" font-family="sans-serif" font-size="14" lengthAdjust="spacing" textLength="47" x="149" y="126.0234">license</text><text fill="#000000" font-family="sans-serif" font-size="14" lengthAdjust="spacing" textLength="462" x="224" y="126.0234">https://github.com/one-data-model/oneDM/blob/master/LICENSE</text><line style="stroke:#A80036;stroke-width:1.0;" x1="219" x2="219" y1="110.4883" y2="130.9766"/><line style="stroke:#A80036;stroke-width:1.0;" x1="144" x2="758" y1="130.9766" y2="130.9766"/><text fill="#000000" font-family="sans-serif" font-size="14" lengthAdjust="spacing" textLength="26" x="149" y="146.5117">title</text><text fill="#000000" font-family="sans-serif" font-size="14" lengthAdjust="spacing" textLength="70" x="224" y="146.5117">Pulse Rate</text><line style="stroke:#A80036;stroke-width:1.0;" x1="219" x2="219" y1="130.9766" y2="151.4648"/><line style="stroke:#A80036;stroke-width:1.0;" x1="144" x2="758" y1="151.4648" y2="151.4648"/><text fill="#000000" font-family="sans-serif" font-size="14" lengthAdjust="spacing" textLength="50" x="149" y="167">version</text><text fill="#000000" font-family="sans-serif" font-size="14" lengthAdjust="spacing" textLength="88" x="224" y="167">2019-03-22</text><line style="stroke:#A80036;stroke-width:1.0;" x1="219" x2="219" y1="151.4648" y2="171.9531"/><rect fill="none" height="81.9531" rx="5" ry="5" style="stroke:#A80036;stroke-width:1.5;" width="614" x="144" y="90"/><rect fill="#FEFECE" height="20.4883" rx="5" ry="5" style="stroke:#FEFECE;stroke-width:1.5;" width="96" x="403" y="190"/><text fill="#000000" font-family="sans-serif" font-size="14" lengthAdjust="spacing" textLength="64" x="408" y="205.5352">pulserate</text><text fill="#000000" font-family="sans-serif" font-size="14" lengthAdjust="spacing" textLength="0" x="494" y="205.5352"/><line style="stroke:#A80036;stroke-width:1.0;" x1="477" x2="477" y1="190" y2="210.4883"/><rect fill="none" height="20.4883" rx="5" ry="5" style="stroke:#A80036;stroke-width:1.5;" width="96" x="403" y="190"/><rect fill="#FEFECE" height="110.9297" rx="5" ry="5" style="stroke:#FEFECE;stroke-width:1.5;" width="573" x="795" y="144.5"/><text fill="#000000" font-family="sans-serif" font-size="14" lengthAdjust="spacing" textLength="77" x="800" y="160.0352">description</text><text fill="#000000" font-family="sans-serif" font-size="14" lengthAdjust="spacing" textLength="448" x="893" y="160.0352">This Resource describes the Properties associated with a person's</text><text fill="#000000" font-family="sans-serif" font-size="14" lengthAdjust="spacing" textLength="393" x="893" y="176.5234">pulse rate. The unit, which is the default unit, is bpm. The</text><text fill="#000000" font-family="sans-serif" font-size="14" lengthAdjust="spacing" textLength="466" x="893" y="193.0117">pulserate and unit Properties are read-only values that are provided</text><text fill="#000000" font-family="sans-serif" font-size="14" lengthAdjust="spacing" textLength="470" x="893" y="209.5">by the Server. When range is omitted the default is 0 to +MAXFLOAT.</text><line style="stroke:#A80036;stroke-width:1.0;" x1="888" x2="888" y1="144.5" y2="214.4531"/><line style="stroke:#A80036;stroke-width:1.0;" x1="795" x2="1368" y1="214.4531" y2="214.4531"/><text fill="#000000" font-family="sans-serif" font-size="14" lengthAdjust="spacing" textLength="79" x="800" y="229.9883">sdfProperty</text><text fill="#000000" font-family="sans-serif" font-size="14" lengthAdjust="spacing" textLength="0" x="905" y="229.9883"/><line style="stroke:#A80036;stroke-width:1.0;" x1="888" x2="888" y1="214.4531" y2="234.9414"/><line style="stroke:#A80036;stroke-width:1.0;" x1="795" x2="1368" y1="234.9414" y2="234.9414"/><text fill="#000000" font-family="sans-serif" font-size="14" lengthAdjust="spacing" textLength="83" x="800" y="250.4766">sdfRequired</text><text fill="#000000" font-family="sans-serif" font-size="14" lengthAdjust="spacing" textLength="0" x="905" y="250.4766"/><line style="stroke:#A80036;stroke-width:1.0;" x1="888" x2="888" y1="234.9414" y2="255.4297"/><rect fill="none" height="110.9297" rx="5" ry="5" style="stroke:#A80036;stroke-width:1.5;" width="573" x="795" y="144.5"/><rect fill="#FEFECE" height="61.4648" rx="5" ry="5" style="stroke:#FEFECE;stroke-width:1.5;" width="96" x="1516.5" y="158.5"/><text fill="#000000" font-family="sans-serif" font-size="14" lengthAdjust="spacing" textLength="64" x="1521.5" y="174.0352">pulserate</text><text fill="#000000" font-family="sans-serif" font-size="14" lengthAdjust="spacing" textLength="0" x="1607.5" y="174.0352"/><line style="stroke:#A80036;stroke-width:1.0;" x1="1590.5" x2="1590.5" y1="158.5" y2="178.9883"/><line style="stroke:#A80036;stroke-width:1.0;" x1="1516.5" x2="1612.5" y1="178.9883" y2="178.9883"/><text fill="#000000" font-family="sans-serif" font-size="14" lengthAdjust="spacing" textLength="40" x="1521.5" y="194.5234">range</text><text fill="#000000" font-family="sans-serif" font-size="14" lengthAdjust="spacing" textLength="0" x="1607.5" y="194.5234"/><line style="stroke:#A80036;stroke-width:1.0;" x1="1590.5" x2="1590.5" y1="178.9883" y2="199.4766"/><line style="stroke:#A80036;stroke-width:1.0;" x1="1516.5" x2="1612.5" y1="199.4766" y2="199.4766"/><text fill="#000000" font-family="sans-serif" font-size="14" lengthAdjust="spacing" textLength="29" x="1521.5" y="215.0117">step</text><text fill="#000000" font-family="sans-serif" font-size="14" lengthAdjust="spacing" textLength="0" x="1607.5" y="215.0117"/><line style="stroke:#A80036;stroke-width:1.0;" x1="1590.5" x2="1590.5" y1="199.4766" y2="219.9648"/><rect fill="none" height="61.4648" rx="5" ry="5" style="stroke:#A80036;stroke-width:1.5;" width="96" x="1516.5" y="158.5"/><rect fill="#FEFECE" height="81.9531" rx="5" ry="5" style="stroke:#FEFECE;stroke-width:1.5;" width="220" x="1927" y="10"/><text fill="#000000" font-family="sans-serif" font-size="14" lengthAdjust="spacing" textLength="77" x="1932" y="25.5352">description</text><text fill="#000000" font-family="sans-serif" font-size="14" lengthAdjust="spacing" textLength="123" x="2019" y="25.5352">Pulse rate in bpm.</text><line style="stroke:#A80036;stroke-width:1.0;" x1="2014" x2="2014" y1="10" y2="30.4883"/><line style="stroke:#A80036;stroke-width:1.0;" x1="1927" x2="2147" y1="30.4883" y2="30.4883"/><text fill="#000000" font-family="sans-serif" font-size="14" lengthAdjust="spacing" textLength="65" x="1932" y="46.0234">minimum</text><text fill="#000000" font-family="sans-serif" font-size="14" lengthAdjust="spacing" textLength="9" x="2019" y="46.0234">0</text><line style="stroke:#A80036;stroke-width:1.0;" x1="2014" x2="2014" y1="30.4883" y2="50.9766"/><line style="stroke:#A80036;stroke-width:1.0;" x1="1927" x2="2147" y1="50.9766" y2="50.9766"/><text fill="#000000" font-family="sans-serif" font-size="14" lengthAdjust="spacing" textLength="55" x="1932" y="66.5117">writable</text><text fill="#000000" font-family="sans-serif" font-size="14" lengthAdjust="spacing" textLength="48" x="2019" y="66.5117">☐ false</text><line style="stroke:#A80036;stroke-width:1.0;" x1="2014" x2="2014" y1="50.9766" y2="71.4648"/><line style="stroke:#A80036;stroke-width:1.0;" x1="1927" x2="2147" y1="71.4648" y2="71.4648"/><text fill="#000000" font-family="sans-serif" font-size="14" lengthAdjust="spacing" textLength="29" x="1932" y="87">type</text><text fill="#000000" font-family="sans-serif" font-size="14" lengthAdjust="spacing" textLength="49" x="2019" y="87">integer</text><line style="stroke:#A80036;stroke-width:1.0;" x1="2014" x2="2014" y1="71.4648" y2="91.9531"/><rect fill="none" height="81.9531" rx="5" ry="5" style="stroke:#A80036;stroke-width:1.5;" width="220" x="1927" y="10"/><rect fill="#FEFECE" height="155.9063" rx="5" ry="5" style="stroke:#FEFECE;stroke-width:1.5;" width="552" x="1761" y="110"/><text fill="#000000" font-family="sans-serif" font-size="14" lengthAdjust="spacing" textLength="29" x="1766" y="125.5352">type</text><text fill="#000000" font-family="sans-serif" font-size="14" lengthAdjust="spacing" textLength="35" x="1853" y="125.5352">array</text><line style="stroke:#A80036;stroke-width:1.0;" x1="1848" x2="1848" y1="110" y2="130.4883"/><line style="stroke:#A80036;stroke-width:1.0;" x1="1761" x2="2313" y1="130.4883" y2="130.4883"/><text fill="#000000" font-family="sans-serif" font-size="14" lengthAdjust="spacing" textLength="77" x="1766" y="146.0234">description</text><text fill="#000000" font-family="sans-serif" font-size="14" lengthAdjust="spacing" textLength="455" x="1853" y="146.0234">The valid range for the Property in the Resource as an integer. The</text><text fill="#000000" font-family="sans-serif" font-size="14" lengthAdjust="spacing" textLength="439" x="1853" y="162.5117">first value in the array is the minimum value, the second value in</text><text fill="#000000" font-family="sans-serif" font-size="14" lengthAdjust="spacing" textLength="219" x="1853" y="179">the array is the maximum value.</text><line style="stroke:#A80036;stroke-width:1.0;" x1="1848" x2="1848" y1="130.4883" y2="183.9531"/><line style="stroke:#A80036;stroke-width:1.0;" x1="1761" x2="2313" y1="183.9531" y2="183.9531"/><text fill="#000000" font-family="sans-serif" font-size="14" lengthAdjust="spacing" textLength="55" x="1766" y="199.4883">writable</text><text fill="#000000" font-family="sans-serif" font-size="14" lengthAdjust="spacing" textLength="48" x="1853" y="199.4883">☐ false</text><line style="stroke:#A80036;stroke-width:1.0;" x1="1848" x2="1848" y1="183.9531" y2="204.4414"/><line style="stroke:#A80036;stroke-width:1.0;" x1="1761" x2="2313" y1="204.4414" y2="204.4414"/><text fill="#000000" font-family="sans-serif" font-size="14" lengthAdjust="spacing" textLength="63" x="1766" y="219.9766">minItems</text><text fill="#000000" font-family="sans-serif" font-size="14" lengthAdjust="spacing" textLength="9" x="1853" y="219.9766">2</text><line style="stroke:#A80036;stroke-width:1.0;" x1="1848" x2="1848" y1="204.4414" y2="224.9297"/><line style="stroke:#A80036;stroke-width:1.0;" x1="1761" x2="2313" y1="224.9297" y2="224.9297"/><text fill="#000000" font-family="sans-serif" font-size="14" lengthAdjust="spacing" textLength="67" x="1766" y="240.4648">maxItems</text><text fill="#000000" font-family="sans-serif" font-size="14" lengthAdjust="spacing" textLength="9" x="1853" y="240.4648">2</text><line style="stroke:#A80036;stroke-width:1.0;" x1="1848" x2="1848" y1="224.9297" y2="245.418"/><line style="stroke:#A80036;stroke-width:1.0;" x1="1761" x2="2313" y1="245.418" y2="245.418"/><text fill="#000000" font-family="sans-serif" font-size="14" lengthAdjust="spacing" textLength="37" x="1766" y="260.9531">items</text><text fill="#000000" font-family="sans-serif" font-size="14" lengthAdjust="spacing" textLength="0" x="1865" y="260.9531"/><line style="stroke:#A80036;stroke-width:1.0;" x1="1848" x2="1848" y1="245.418" y2="265.9063"/><rect fill="none" height="155.9063" rx="5" ry="5" style="stroke:#A80036;stroke-width:1.5;" width="552" x="1761" y="110"/><rect fill="#FEFECE" height="20.4883" rx="5" ry="5" style="stroke:#FEFECE;stroke-width:1.5;" width="98" x="2350" y="243"/><text fill="#000000" font-family="sans-serif" font-size="14" lengthAdjust="spacing" textLength="29" x="2355" y="258.5352">type</text><text fill="#000000" font-family="sans-serif" font-size="14" lengthAdjust="spacing" textLength="49" x="2394" y="258.5352">integer</text><line style="stroke:#A80036;stroke-width:1.0;" x1="2389" x2="2389" y1="243" y2="263.4883"/><rect fill="none" height="20.4883" rx="5" ry="5" style="stroke:#A80036;stroke-width:1.5;" width="98" x="2350" y="243"/><rect fill="#FEFECE" height="94.4414" rx="5" ry="5" style="stroke:#FEFECE;stroke-width:1.5;" width="549" x="1762.5" y="284"/><text fill="#000000" font-family="sans-serif" font-size="14" lengthAdjust="spacing" textLength="77" x="1767.5" y="299.5352">description</text><text fill="#000000" font-family="sans-serif" font-size="14" lengthAdjust="spacing" textLength="448" x="1854.5" y="299.5352">Step value across the defined range when the range is an integer.</text><text fill="#000000" font-family="sans-serif" font-size="14" lengthAdjust="spacing" textLength="449" x="1854.5" y="316.0234">This is the increment for valid values across the range; so if range</text><text fill="#000000" font-family="sans-serif" font-size="14" lengthAdjust="spacing" textLength="376" x="1854.5" y="332.5117">is 0..10 and step is 2 then valid values are 0,2,4,6,8,10.</text><line style="stroke:#A80036;stroke-width:1.0;" x1="1849.5" x2="1849.5" y1="284" y2="337.4648"/><line style="stroke:#A80036;stroke-width:1.0;" x1="1762.5" x2="2311.5" y1="337.4648" y2="337.4648"/><text fill="#000000" font-family="sans-serif" font-size="14" lengthAdjust="spacing" textLength="55" x="1767.5" y="353">writable</text><text fill="#000000" font-family="sans-serif" font-size="14" lengthAdjust="spacing" textLength="48" x="1854.5" y="353">☐ false</text><line style="stroke:#A80036;stroke-width:1.0;" x1="1849.5" x2="1849.5" y1="337.4648" y2="357.9531"/><line style="stroke:#A80036;stroke-width:1.0;" x1="1762.5" x2="2311.5" y1="357.9531" y2="357.9531"/><text fill="#000000" font-family="sans-serif" font-size="14" lengthAdjust="spacing" textLength="29" x="1767.5" y="373.4883">type</text><text fill="#000000" font-family="sans-serif" font-size="14" lengthAdjust="spacing" textLength="49" x="1854.5" y="373.4883">integer</text><line style="stroke:#A80036;stroke-width:1.0;" x1="1849.5" x2="1849.5" y1="357.9531" y2="378.4414"/><rect fill="none" height="94.4414" rx="5" ry="5" style="stroke:#A80036;stroke-width:1.5;" width="549" x="1762.5" y="284"/><rect fill="#FEFECE" height="20.4883" rx="5" ry="5" style="stroke:#FEFECE;stroke-width:1.5;" width="319" x="1405" y="238"/><text fill="#000000" font-family="sans-serif" font-size="14" lengthAdjust="spacing" textLength="309" x="1410" y="253.5352">#/sdfObject/pulserate/sdfProperty/pulserate</text><rect fill="none" height="20.4883" rx="5" ry="5" style="stroke:#A80036;stroke-width:1.5;" width="319" x="1405" y="238"/><path d="M95,155 L108,155 C117.4068,155 126.9554,154.9088 136.5926,154.7376 " fill="none" style="stroke:#A80036;stroke-width:1.0;stroke-dasharray:3.0,3.0;"/><path d="M136.6543,157.8363 L138.9166,154.6914 L136.5309,151.6389 L144.3394,154.5834 L136.6543,157.8363 " fill="#A80036" style="stroke:#A80036;stroke-width:1.0;"/><ellipse cx="95" cy="155" fill="#A80036" rx="3" ry="3" style="stroke:#A80036;stroke-width:1.0;stroke-dasharray:3.0,3.0;"/><path d="M1601,168 L1614,168 C1685.7994,168 1692.4841,122.4645 1761,101 C1812.0725,85.0001 1870.1721,73.5144 1919.8082,65.6193 " fill="none" style="stroke:#A80036;stroke-width:1.0;stroke-dasharray:3.0,3.0;"/><path d="M1920.2832,68.6494 L1922.0807,65.263 L1919.3331,62.5892 L1927.3833,64.4317 L1920.2832,68.6494 " fill="#A80036" style="stroke:#A80036;stroke-width:1.0;"/><ellipse cx="1601" cy="168" fill="#A80036" rx="3" ry="3" style="stroke:#A80036;stroke-width:1.0;stroke-dasharray:3.0,3.0;"/><path d="M2301,253 L2314,253 C2323.2605,253 2333.0919,253 2342.6496,253 " fill="none" style="stroke:#A80036;stroke-width:1.0;stroke-dasharray:3.0,3.0;"/><path d="M2342.6496,256.0361 L2344.9267,253 L2342.6496,249.9639 L2350.2398,253 L2342.6496,256.0361 " fill="#A80036" style="stroke:#A80036;stroke-width:1.0;"/><ellipse cx="2301" cy="253" fill="#A80036" rx="3" ry="3" style="stroke:#A80036;stroke-width:1.0;stroke-dasharray:3.0,3.0;"/><path d="M1601,188 L1614,188 C1659.0768,188 1706.8589,188 1753.4498,188 " fill="none" style="stroke:#A80036;stroke-width:1.0;stroke-dasharray:3.0,3.0;"/><path d="M1753.4498,191.1078 L1755.7806,188 L1753.4498,184.8922 L1761.2192,188 L1753.4498,191.1078 " fill="#A80036" style="stroke:#A80036;stroke-width:1.0;"/><ellipse cx="1601" cy="188" fill="#A80036" rx="3" ry="3" style="stroke:#A80036;stroke-width:1.0;stroke-dasharray:3.0,3.0;"/><path d="M1601,209 L1614,209 C1664.1277,209 1682.0698,203.1197 1725,229 C1747.2334,242.4033 1738.9172,261.35 1761,275 C1763.8608,276.7683 1766.7671,278.482 1769.7146,280.1428 " fill="none" style="stroke:#A80036;stroke-width:1.0;stroke-dasharray:3.0,3.0;"/><path d="M1768.2027,282.9226 L1771.7995,281.2767 L1771.2264,277.3629 L1776.6643,283.9225 L1768.2027,282.9226 " fill="#A80036" style="stroke:#A80036;stroke-width:1.0;"/><ellipse cx="1601" cy="209" fill="#A80036" rx="3" ry="3" style="stroke:#A80036;stroke-width:1.0;stroke-dasharray:3.0,3.0;"/><path d="M1356,200 L1369,200 C1416.3652,200 1470.0994,196.7249 1509.1496,193.7488 " fill="none" style="stroke:#A80036;stroke-width:1.0;stroke-dasharray:3.0,3.0;"/><path d="M1509.3856,196.792 L1511.432,193.5717 L1508.9135,190.7056 L1516.7576,193.1586 L1509.3856,196.792 " fill="#A80036" style="stroke:#A80036;stroke-width:1.0;"/><ellipse cx="1356" cy="200" fill="#A80036" rx="3" ry="3" style="stroke:#A80036;stroke-width:1.0;stroke-dasharray:3.0,3.0;"/><path d="M1356,237 L1369,237 C1382.5897,237 1396.7037,237.2696 1410.8447,237.7244 " fill="none" style="stroke:#A80036;stroke-width:1.0;stroke-dasharray:3.0,3.0;"/><path d="M1410.7362,240.8667 L1413.2014,237.8058 L1410.9532,234.5821 L1418.7004,237.9956 L1410.7362,240.8667 " fill="#A80036" style="stroke:#A80036;stroke-width:1.0;"/><ellipse cx="1356" cy="237" fill="#A80036" rx="3" ry="3" style="stroke:#A80036;stroke-width:1.0;stroke-dasharray:3.0,3.0;"/><path d="M487.5,200 L500.5,200 C593.8693,200 695.6861,200 787.6077,200 " fill="none" style="stroke:#A80036;stroke-width:1.0;stroke-dasharray:3.0,3.0;"/><path d="M787.6077,203.0914 L789.9262,200 L787.6077,196.9086 L795.3362,200 L787.6077,203.0914 " fill="#A80036" style="stroke:#A80036;stroke-width:1.0;"/><ellipse cx="487.5" cy="200" fill="#A80036" rx="3" ry="3" style="stroke:#A80036;stroke-width:1.0;stroke-dasharray:3.0,3.0;"/><path d="M95,176 L108,176 C124.1536,176 127.927,179.388 144,181 C231.8814,189.8139 334.376,195.177 395.7682,197.8646 " fill="none" style="stroke:#A80036;stroke-width:1.0;stroke-dasharray:3.0,3.0;"/><path d="M395.6361,200.9235 L398.0624,197.9637 L395.9003,194.8057 L403.4155,198.1948 L395.6361,200.9235 " fill="#A80036" style="stroke:#A80036;stroke-width:1.0;"/><ellipse cx="95" cy="176" fill="#A80036" rx="3" ry="3" style="stroke:#A80036;stroke-width:1.0;stroke-dasharray:3.0,3.0;"/><!--MD5=[c74f70fdc058a988feaddc896154d1a9]
@startjson
{
  "info": {
    "copyright": "Copyright 2016-2019 Open Connectivity Foundation, Inc. All rights reserved.",
    "license": "https://github.com/one-data-model/oneDM/blob/master/LICENSE",
    "title": "Pulse Rate",
    "version": "2019-03-22"
  },
  "sdfObject": {
    "pulserate": {
      "description": "This Resource describes the Properties associated with a person's\\npulse rate. The unit, which is the default unit, is bpm. The\\npulserate and unit Properties are read-only values that are provided\\nby the Server. When range is omitted the default is 0 to +MAXFLOAT.",
      "sdfProperty": {
        "pulserate": {
          "description": "Pulse rate in bpm.",
          "minimum": 0,
          "writable": false,
          "type": "integer"
        },
        "range": {
          "type": "array",
          "description": "The valid range for the Property in the Resource as an integer. The\\nfirst value in the array is the minimum value, the second value in\\nthe array is the maximum value.",
          "writable": false,
          "minItems": 2,
          "maxItems": 2,
          "items": {
            "type": "integer"
          }
        },
        "step": {
          "description": "Step value across the defined range when the range is an integer. \\nThis is the increment for valid values across the range; so if range\\nis 0..10 and step is 2 then valid values are 0,2,4,6,8,10.",
          "writable": false,
          "type": "integer"
        }
      },
      "sdfRequired": [
        "#/sdfObject/pulserate/sdfProperty/pulserate"
      ]
    }
  }
}
@endjson

PlantUML version 1.2021.2(Sun Mar 07 13:10:27 EET 2021)
(GPL source distribution)
Java Runtime: OpenJDK Runtime Environment
JVM: OpenJDK 64-Bit Server VM
Default Encoding: UTF-8
Language: en
Country: FI
--></g></svg>