<?xml version="1.0" encoding="UTF-8" standalone="no"?><svg xmlns="http://www.w3.org/2000/svg" xmlns:xlink="http://www.w3.org/1999/xlink" contentScriptType="application/ecmascript" contentStyleType="text/css" height="283px" preserveAspectRatio="none" style="width:2160px;height:283px;" version="1.1" viewBox="0 0 2160 283" width="2160px" zoomAndPan="magnify"><defs/><g><rect fill="#FEFECE" height="40.9766" rx="5" ry="5" style="stroke:#FEFECE;stroke-width:1.5;" width="97" x="10" y="92.5"/><text fill="#000000" font-family="sans-serif" font-size="14" lengthAdjust="spacing" textLength="27" x="15" y="108.0352">info</text><text fill="#000000" font-family="sans-serif" font-size="14" lengthAdjust="spacing" textLength="0" x="102" y="108.0352"/><line style="stroke:#A80036;stroke-width:1.0;" x1="85" x2="85" y1="92.5" y2="112.9883"/><line style="stroke:#A80036;stroke-width:1.0;" x1="10" x2="107" y1="112.9883" y2="112.9883"/><text fill="#000000" font-family="sans-serif" font-size="14" lengthAdjust="spacing" textLength="65" x="15" y="128.5234">sdfObject</text><text fill="#000000" font-family="sans-serif" font-size="14" lengthAdjust="spacing" textLength="0" x="102" y="128.5234"/><line style="stroke:#A80036;stroke-width:1.0;" x1="85" x2="85" y1="112.9883" y2="133.4766"/><rect fill="none" height="40.9766" rx="5" ry="5" style="stroke:#A80036;stroke-width:1.5;" width="97" x="10" y="92.5"/><rect fill="#FEFECE" height="81.9531" rx="5" ry="5" style="stroke:#FEFECE;stroke-width:1.5;" width="570" x="144" y="37"/><text fill="#000000" font-family="sans-serif" font-size="14" lengthAdjust="spacing" textLength="65" x="149" y="52.5352">copyright</text><text fill="#000000" font-family="sans-serif" font-size="14" lengthAdjust="spacing" textLength="485" x="224" y="52.5352">Copyright 2019 Open Connectivity Foundation, Inc. All rights reserved.</text><line style="stroke:#A80036;stroke-width:1.0;" x1="219" x2="219" y1="37" y2="57.4883"/><line style="stroke:#A80036;stroke-width:1.0;" x1="144" x2="714" y1="57.4883" y2="57.4883"/><text fill="#000000" font-family="sans-serif" font-size="14" lengthAdjust="spacing" textLength="47" x="149" y="73.0234">license</text><text fill="#000000" font-family="sans-serif" font-size="14" lengthAdjust="spacing" textLength="462" x="224" y="73.0234">https://github.com/one-data-model/oneDM/blob/master/LICENSE</text><line style="stroke:#A80036;stroke-width:1.0;" x1="219" x2="219" y1="57.4883" y2="77.9766"/><line style="stroke:#A80036;stroke-width:1.0;" x1="144" x2="714" y1="77.9766" y2="77.9766"/><text fill="#000000" font-family="sans-serif" font-size="14" lengthAdjust="spacing" textLength="26" x="149" y="93.5117">title</text><text fill="#000000" font-family="sans-serif" font-size="14" lengthAdjust="spacing" textLength="122" x="224" y="93.5117">Gas Consumption</text><line style="stroke:#A80036;stroke-width:1.0;" x1="219" x2="219" y1="77.9766" y2="98.4648"/><line style="stroke:#A80036;stroke-width:1.0;" x1="144" x2="714" y1="98.4648" y2="98.4648"/><text fill="#000000" font-family="sans-serif" font-size="14" lengthAdjust="spacing" textLength="50" x="149" y="114">version</text><text fill="#000000" font-family="sans-serif" font-size="14" lengthAdjust="spacing" textLength="88" x="224" y="114">2019-03-18</text><line style="stroke:#A80036;stroke-width:1.0;" x1="219" x2="219" y1="98.4648" y2="118.9531"/><rect fill="none" height="81.9531" rx="5" ry="5" style="stroke:#A80036;stroke-width:1.5;" width="570" x="144" y="37"/><rect fill="#FEFECE" height="20.4883" rx="5" ry="5" style="stroke:#FEFECE;stroke-width:1.5;" width="150" x="354" y="137"/><text fill="#000000" font-family="sans-serif" font-size="14" lengthAdjust="spacing" textLength="118" x="359" y="152.5352">gas.consumption</text><text fill="#000000" font-family="sans-serif" font-size="14" lengthAdjust="spacing" textLength="0" x="499" y="152.5352"/><line style="stroke:#A80036;stroke-width:1.0;" x1="482" x2="482" y1="137" y2="157.4883"/><rect fill="none" height="20.4883" rx="5" ry="5" style="stroke:#A80036;stroke-width:1.5;" width="150" x="354" y="137"/><rect fill="#FEFECE" height="143.9063" rx="5" ry="5" style="stroke:#FEFECE;stroke-width:1.5;" width="590" x="751" y="75"/><text fill="#000000" font-family="sans-serif" font-size="14" lengthAdjust="spacing" textLength="77" x="756" y="90.5352">description</text><text fill="#000000" font-family="sans-serif" font-size="14" lengthAdjust="spacing" textLength="425" x="849" y="90.5352">This Resource describes Properties associated with the energy</text><text fill="#000000" font-family="sans-serif" font-size="14" lengthAdjust="spacing" textLength="454" x="849" y="107.0234">associated with the consumption of natural gas The gas value is in</text><text fill="#000000" font-family="sans-serif" font-size="14" lengthAdjust="spacing" textLength="438" x="849" y="123.5117">kilowatt hours [kWh]. The volume value is in metres cubed [m3].</text><text fill="#000000" font-family="sans-serif" font-size="14" lengthAdjust="spacing" textLength="487" x="849" y="140">Provides the cumulative gas energy, the cumulative gas volume and the</text><text fill="#000000" font-family="sans-serif" font-size="14" lengthAdjust="spacing" textLength="460" x="849" y="156.4883">calorific value and conversion factor used/required to convert from</text><text fill="#000000" font-family="sans-serif" font-size="14" lengthAdjust="spacing" textLength="295" x="849" y="172.9766">gas volume (m3[TB1]) to gas energy (KWh).</text><line style="stroke:#A80036;stroke-width:1.0;" x1="844" x2="844" y1="75" y2="177.9297"/><line style="stroke:#A80036;stroke-width:1.0;" x1="751" x2="1341" y1="177.9297" y2="177.9297"/><text fill="#000000" font-family="sans-serif" font-size="14" lengthAdjust="spacing" textLength="79" x="756" y="193.4648">sdfProperty</text><text fill="#000000" font-family="sans-serif" font-size="14" lengthAdjust="spacing" textLength="0" x="861" y="193.4648"/><line style="stroke:#A80036;stroke-width:1.0;" x1="844" x2="844" y1="177.9297" y2="198.418"/><line style="stroke:#A80036;stroke-width:1.0;" x1="751" x2="1341" y1="198.418" y2="198.418"/><text fill="#000000" font-family="sans-serif" font-size="14" lengthAdjust="spacing" textLength="83" x="756" y="213.9531">sdfRequired</text><text fill="#000000" font-family="sans-serif" font-size="14" lengthAdjust="spacing" textLength="0" x="861" y="213.9531"/><line style="stroke:#A80036;stroke-width:1.0;" x1="844" x2="844" y1="198.418" y2="218.9063"/><rect fill="none" height="143.9063" rx="5" ry="5" style="stroke:#A80036;stroke-width:1.5;" width="590" x="751" y="75"/><rect fill="#FEFECE" height="61.4648" rx="5" ry="5" style="stroke:#FEFECE;stroke-width:1.5;" width="95" x="1497" y="111.5"/><text fill="#000000" font-family="sans-serif" font-size="14" lengthAdjust="spacing" textLength="24" x="1502" y="127.0352">gas</text><text fill="#000000" font-family="sans-serif" font-size="14" lengthAdjust="spacing" textLength="0" x="1587" y="127.0352"/><line style="stroke:#A80036;stroke-width:1.0;" x1="1570" x2="1570" y1="111.5" y2="131.9883"/><line style="stroke:#A80036;stroke-width:1.0;" x1="1497" x2="1592" y1="131.9883" y2="131.9883"/><text fill="#000000" font-family="sans-serif" font-size="14" lengthAdjust="spacing" textLength="63" x="1502" y="147.5234">precision</text><text fill="#000000" font-family="sans-serif" font-size="14" lengthAdjust="spacing" textLength="0" x="1587" y="147.5234"/><line style="stroke:#A80036;stroke-width:1.0;" x1="1570" x2="1570" y1="131.9883" y2="152.4766"/><line style="stroke:#A80036;stroke-width:1.0;" x1="1497" x2="1592" y1="152.4766" y2="152.4766"/><text fill="#000000" font-family="sans-serif" font-size="14" lengthAdjust="spacing" textLength="50" x="1502" y="168.0117">volume</text><text fill="#000000" font-family="sans-serif" font-size="14" lengthAdjust="spacing" textLength="0" x="1587" y="168.0117"/><line style="stroke:#A80036;stroke-width:1.0;" x1="1570" x2="1570" y1="152.4766" y2="172.9648"/><rect fill="none" height="61.4648" rx="5" ry="5" style="stroke:#A80036;stroke-width:1.5;" width="95" x="1497" y="111.5"/><rect fill="#FEFECE" height="81.9531" rx="5" ry="5" style="stroke:#FEFECE;stroke-width:1.5;" width="297" x="1799.5" y="10"/><text fill="#000000" font-family="sans-serif" font-size="14" lengthAdjust="spacing" textLength="77" x="1804.5" y="25.5352">description</text><text fill="#000000" font-family="sans-serif" font-size="14" lengthAdjust="spacing" textLength="200" x="1891.5" y="25.5352">gas energy consumed in kWh</text><line style="stroke:#A80036;stroke-width:1.0;" x1="1886.5" x2="1886.5" y1="10" y2="30.4883"/><line style="stroke:#A80036;stroke-width:1.0;" x1="1799.5" x2="2096.5" y1="30.4883" y2="30.4883"/><text fill="#000000" font-family="sans-serif" font-size="14" lengthAdjust="spacing" textLength="55" x="1804.5" y="46.0234">writable</text><text fill="#000000" font-family="sans-serif" font-size="14" lengthAdjust="spacing" textLength="48" x="1891.5" y="46.0234">☐ false</text><line style="stroke:#A80036;stroke-width:1.0;" x1="1886.5" x2="1886.5" y1="30.4883" y2="50.9766"/><line style="stroke:#A80036;stroke-width:1.0;" x1="1799.5" x2="2096.5" y1="50.9766" y2="50.9766"/><text fill="#000000" font-family="sans-serif" font-size="14" lengthAdjust="spacing" textLength="29" x="1804.5" y="66.5117">type</text><text fill="#000000" font-family="sans-serif" font-size="14" lengthAdjust="spacing" textLength="54" x="1891.5" y="66.5117">number</text><line style="stroke:#A80036;stroke-width:1.0;" x1="1886.5" x2="1886.5" y1="50.9766" y2="71.4648"/><line style="stroke:#A80036;stroke-width:1.0;" x1="1799.5" x2="2096.5" y1="71.4648" y2="71.4648"/><text fill="#000000" font-family="sans-serif" font-size="14" lengthAdjust="spacing" textLength="65" x="1804.5" y="87">minimum</text><text fill="#000000" font-family="sans-serif" font-size="14" lengthAdjust="spacing" textLength="9" x="1891.5" y="87">0</text><line style="stroke:#A80036;stroke-width:1.0;" x1="1886.5" x2="1886.5" y1="71.4648" y2="91.9531"/><rect fill="none" height="81.9531" rx="5" ry="5" style="stroke:#A80036;stroke-width:1.5;" width="297" x="1799.5" y="10"/><rect fill="#FEFECE" height="61.4648" rx="5" ry="5" style="stroke:#FEFECE;stroke-width:1.5;" width="384" x="1756" y="110.5"/><text fill="#000000" font-family="sans-serif" font-size="14" lengthAdjust="spacing" textLength="77" x="1761" y="126.0352">description</text><text fill="#000000" font-family="sans-serif" font-size="14" lengthAdjust="spacing" textLength="287" x="1848" y="126.0352">Accuracy granularity of the exposed value</text><line style="stroke:#A80036;stroke-width:1.0;" x1="1843" x2="1843" y1="110.5" y2="130.9883"/><line style="stroke:#A80036;stroke-width:1.0;" x1="1756" x2="2140" y1="130.9883" y2="130.9883"/><text fill="#000000" font-family="sans-serif" font-size="14" lengthAdjust="spacing" textLength="55" x="1761" y="146.5234">writable</text><text fill="#000000" font-family="sans-serif" font-size="14" lengthAdjust="spacing" textLength="48" x="1848" y="146.5234">☐ false</text><line style="stroke:#A80036;stroke-width:1.0;" x1="1843" x2="1843" y1="130.9883" y2="151.4766"/><line style="stroke:#A80036;stroke-width:1.0;" x1="1756" x2="2140" y1="151.4766" y2="151.4766"/><text fill="#000000" font-family="sans-serif" font-size="14" lengthAdjust="spacing" textLength="29" x="1761" y="167.0117">type</text><text fill="#000000" font-family="sans-serif" font-size="14" lengthAdjust="spacing" textLength="54" x="1848" y="167.0117">number</text><line style="stroke:#A80036;stroke-width:1.0;" x1="1843" x2="1843" y1="151.4766" y2="171.9648"/><rect fill="none" height="61.4648" rx="5" ry="5" style="stroke:#A80036;stroke-width:1.5;" width="384" x="1756" y="110.5"/><rect fill="#FEFECE" height="81.9531" rx="5" ry="5" style="stroke:#FEFECE;stroke-width:1.5;" width="400" x="1748" y="190"/><text fill="#000000" font-family="sans-serif" font-size="14" lengthAdjust="spacing" textLength="77" x="1753" y="205.5352">description</text><text fill="#000000" font-family="sans-serif" font-size="14" lengthAdjust="spacing" textLength="303" x="1840" y="205.5352">gas volume consumed in m3 (metres cubed)</text><line style="stroke:#A80036;stroke-width:1.0;" x1="1835" x2="1835" y1="190" y2="210.4883"/><line style="stroke:#A80036;stroke-width:1.0;" x1="1748" x2="2148" y1="210.4883" y2="210.4883"/><text fill="#000000" font-family="sans-serif" font-size="14" lengthAdjust="spacing" textLength="55" x="1753" y="226.0234">writable</text><text fill="#000000" font-family="sans-serif" font-size="14" lengthAdjust="spacing" textLength="48" x="1840" y="226.0234">☐ false</text><line style="stroke:#A80036;stroke-width:1.0;" x1="1835" x2="1835" y1="210.4883" y2="230.9766"/><line style="stroke:#A80036;stroke-width:1.0;" x1="1748" x2="2148" y1="230.9766" y2="230.9766"/><text fill="#000000" font-family="sans-serif" font-size="14" lengthAdjust="spacing" textLength="29" x="1753" y="246.5117">type</text><text fill="#000000" font-family="sans-serif" font-size="14" lengthAdjust="spacing" textLength="54" x="1840" y="246.5117">number</text><line style="stroke:#A80036;stroke-width:1.0;" x1="1835" x2="1835" y1="230.9766" y2="251.4648"/><line style="stroke:#A80036;stroke-width:1.0;" x1="1748" x2="2148" y1="251.4648" y2="251.4648"/><text fill="#000000" font-family="sans-serif" font-size="14" lengthAdjust="spacing" textLength="65" x="1753" y="267">minimum</text><text fill="#000000" font-family="sans-serif" font-size="14" lengthAdjust="spacing" textLength="9" x="1840" y="267">0</text><line style="stroke:#A80036;stroke-width:1.0;" x1="1835" x2="1835" y1="251.4648" y2="271.9531"/><rect fill="none" height="81.9531" rx="5" ry="5" style="stroke:#A80036;stroke-width:1.5;" width="400" x="1748" y="190"/><rect fill="#FEFECE" height="20.4883" rx="5" ry="5" style="stroke:#FEFECE;stroke-width:1.5;" width="333" x="1378" y="191"/><text fill="#000000" font-family="sans-serif" font-size="14" lengthAdjust="spacing" textLength="323" x="1383" y="206.5352">#/sdfObject/gas.consumption/sdfProperty/gas</text><rect fill="none" height="20.4883" rx="5" ry="5" style="stroke:#A80036;stroke-width:1.5;" width="333" x="1378" y="191"/><path d="M95,102 L108,102 C117.356,102 126.8613,101.897 136.4563,101.7046 " fill="none" style="stroke:#A80036;stroke-width:1.0;stroke-dasharray:3.0,3.0;"/><path d="M136.5256,104.7898 L138.7703,101.6526 L136.387,98.6194 L144.1694,101.5314 L136.5256,104.7898 " fill="#A80036" style="stroke:#A80036;stroke-width:1.0;"/><ellipse cx="95" cy="102" fill="#A80036" rx="3" ry="3" style="stroke:#A80036;stroke-width:1.0;stroke-dasharray:3.0,3.0;"/><path d="M1581,121 L1594,121 C1632.6377,121 1716.2825,104.7047 1792.5096,87.8385 " fill="none" style="stroke:#A80036;stroke-width:1.0;stroke-dasharray:3.0,3.0;"/><path d="M1793.163,90.7793 L1794.7152,87.3485 L1791.8563,84.8978 L1799.8615,86.2051 L1793.163,90.7793 " fill="#A80036" style="stroke:#A80036;stroke-width:1.0;"/><ellipse cx="1581" cy="121" fill="#A80036" rx="3" ry="3" style="stroke:#A80036;stroke-width:1.0;stroke-dasharray:3.0,3.0;"/><path d="M1581,141 L1594,141 C1644.0565,141 1698.1,141 1748.5087,141 " fill="none" style="stroke:#A80036;stroke-width:1.0;stroke-dasharray:3.0,3.0;"/><path d="M1748.5087,144.0934 L1750.8288,141 L1748.5087,137.9066 L1756.2421,141 L1748.5087,144.0934 " fill="#A80036" style="stroke:#A80036;stroke-width:1.0;"/><ellipse cx="1581" cy="141" fill="#A80036" rx="3" ry="3" style="stroke:#A80036;stroke-width:1.0;stroke-dasharray:3.0,3.0;"/><path d="M1581,162 L1594,162 C1627.7102,162 1695.7318,174.2399 1763.1827,188.4094 " fill="none" style="stroke:#A80036;stroke-width:1.0;stroke-dasharray:3.0,3.0;"/><path d="M1762.5602,191.3571 L1765.3934,188.8762 L1763.8051,185.4617 L1770.5519,189.9655 L1762.5602,191.3571 " fill="#A80036" style="stroke:#A80036;stroke-width:1.0;"/><ellipse cx="1581" cy="162" fill="#A80036" rx="3" ry="3" style="stroke:#A80036;stroke-width:1.0;stroke-dasharray:3.0,3.0;"/><path d="M1329,147 L1342,147 C1392.0934,147 1449.1531,145.4443 1489.8214,144.0684 " fill="none" style="stroke:#A80036;stroke-width:1.0;stroke-dasharray:3.0,3.0;"/><path d="M1489.9267,147.1295 L1492.1171,143.9894 L1489.716,141.0074 L1497.4739,143.8051 L1489.9267,147.1295 " fill="#A80036" style="stroke:#A80036;stroke-width:1.0;"/><ellipse cx="1329" cy="147" fill="#A80036" rx="3" ry="3" style="stroke:#A80036;stroke-width:1.0;stroke-dasharray:3.0,3.0;"/><path d="M1329,195 L1342,195 C1351.3434,195 1360.9289,195.0649 1370.6049,195.1813 " fill="none" style="stroke:#A80036;stroke-width:1.0;stroke-dasharray:3.0,3.0;"/><path d="M1370.5632,198.2919 L1372.9378,195.2125 L1370.6465,192.0707 L1378.3813,195.2854 L1370.5632,198.2919 " fill="#A80036" style="stroke:#A80036;stroke-width:1.0;"/><ellipse cx="1329" cy="195" fill="#A80036" rx="3" ry="3" style="stroke:#A80036;stroke-width:1.0;stroke-dasharray:3.0,3.0;"/><path d="M492.5,147 L505.5,147 C582.5416,147 665.766,147 743.2649,147 " fill="none" style="stroke:#A80036;stroke-width:1.0;stroke-dasharray:3.0,3.0;"/><path d="M743.2649,150.1856 L745.6541,147 L743.2649,143.8144 L751.2289,147 L743.2649,150.1856 " fill="#A80036" style="stroke:#A80036;stroke-width:1.0;"/><ellipse cx="492.5" cy="147" fill="#A80036" rx="3" ry="3" style="stroke:#A80036;stroke-width:1.0;stroke-dasharray:3.0,3.0;"/><path d="M95,123 L108,123 C124.1536,123 127.9309,126.3496 144,128 C212.217,135.0062 289.9139,139.9935 346.8552,143.0953 " fill="none" style="stroke:#A80036;stroke-width:1.0;stroke-dasharray:3.0,3.0;"/><path d="M346.6926,146.1118 L349.1176,143.2172 L347.0177,140.0787 L354.3966,143.5017 L346.6926,146.1118 " fill="#A80036" style="stroke:#A80036;stroke-width:1.0;"/><ellipse cx="95" cy="123" fill="#A80036" rx="3" ry="3" style="stroke:#A80036;stroke-width:1.0;stroke-dasharray:3.0,3.0;"/><!--MD5=[118dbc75a8c3161a890c4bdd3eb10de8]
@startjson
{
  "info": {
    "copyright": "Copyright 2019 Open Connectivity Foundation, Inc. All rights reserved.",
    "license": "https://github.com/one-data-model/oneDM/blob/master/LICENSE",
    "title": "Gas Consumption",
    "version": "2019-03-18"
  },
  "sdfObject": {
    "gas.consumption": {
      "description": "This Resource describes Properties associated with the energy\\nassociated with the consumption of natural gas The gas value is in\\nkilowatt hours [kWh]. The volume value is in metres cubed [m3].\\nProvides the cumulative gas energy, the cumulative gas volume and the\\ncalorific value and conversion factor used/required to convert from\\ngas volume (m3[TB1]) to gas energy (KWh).",
      "sdfProperty": {
        "gas": {
          "description": "gas energy consumed in kWh",
          "writable": false,
          "type": "number",
          "minimum": 0
        },
        "precision": {
          "description": "Accuracy granularity of the exposed value",
          "writable": false,
          "type": "number"
        },
        "volume": {
          "description": "gas volume consumed in m3 (metres cubed)",
          "writable": false,
          "type": "number",
          "minimum": 0
        }
      },
      "sdfRequired": [
        "#/sdfObject/gas.consumption/sdfProperty/gas"
      ]
    }
  }
}
@endjson

PlantUML version 1.2021.2(Sun Mar 07 13:10:27 EET 2021)
(GPL source distribution)
Java Runtime: OpenJDK Runtime Environment
JVM: OpenJDK 64-Bit Server VM
Default Encoding: UTF-8
Language: en
Country: FI
--></g></svg>