<?xml version="1.0" encoding="UTF-8" standalone="no"?><svg xmlns="http://www.w3.org/2000/svg" xmlns:xlink="http://www.w3.org/1999/xlink" contentScriptType="application/ecmascript" contentStyleType="text/css" height="456px" preserveAspectRatio="none" style="width:2415px;height:456px;" version="1.1" viewBox="0 0 2415 456" width="2415px" zoomAndPan="magnify"><defs/><g><rect fill="#FEFECE" height="40.9766" rx="5" ry="5" style="stroke:#FEFECE;stroke-width:1.5;" width="97" x="10" y="193"/><text fill="#000000" font-family="sans-serif" font-size="14" lengthAdjust="spacing" textLength="27" x="15" y="208.5352">info</text><text fill="#000000" font-family="sans-serif" font-size="14" lengthAdjust="spacing" textLength="0" x="102" y="208.5352"/><line style="stroke:#A80036;stroke-width:1.0;" x1="85" x2="85" y1="193" y2="213.4883"/><line style="stroke:#A80036;stroke-width:1.0;" x1="10" x2="107" y1="213.4883" y2="213.4883"/><text fill="#000000" font-family="sans-serif" font-size="14" lengthAdjust="spacing" textLength="65" x="15" y="229.0234">sdfObject</text><text fill="#000000" font-family="sans-serif" font-size="14" lengthAdjust="spacing" textLength="0" x="102" y="229.0234"/><line style="stroke:#A80036;stroke-width:1.0;" x1="85" x2="85" y1="213.4883" y2="233.9766"/><rect fill="none" height="40.9766" rx="5" ry="5" style="stroke:#A80036;stroke-width:1.5;" width="97" x="10" y="193"/><rect fill="#FEFECE" height="81.9531" rx="5" ry="5" style="stroke:#FEFECE;stroke-width:1.5;" width="614" x="144" y="137.5"/><text fill="#000000" font-family="sans-serif" font-size="14" lengthAdjust="spacing" textLength="65" x="149" y="153.0352">copyright</text><text fill="#000000" font-family="sans-serif" font-size="14" lengthAdjust="spacing" textLength="529" x="224" y="153.0352">Copyright 2018-2019 Open Connectivity Foundation, Inc. All rights reserved.</text><line style="stroke:#A80036;stroke-width:1.0;" x1="219" x2="219" y1="137.5" y2="157.9883"/><line style="stroke:#A80036;stroke-width:1.0;" x1="144" x2="758" y1="157.9883" y2="157.9883"/><text fill="#000000" font-family="sans-serif" font-size="14" lengthAdjust="spacing" textLength="47" x="149" y="173.5234">license</text><text fill="#000000" font-family="sans-serif" font-size="14" lengthAdjust="spacing" textLength="462" x="224" y="173.5234">https://github.com/one-data-model/oneDM/blob/master/LICENSE</text><line style="stroke:#A80036;stroke-width:1.0;" x1="219" x2="219" y1="157.9883" y2="178.4766"/><line style="stroke:#A80036;stroke-width:1.0;" x1="144" x2="758" y1="178.4766" y2="178.4766"/><text fill="#000000" font-family="sans-serif" font-size="14" lengthAdjust="spacing" textLength="26" x="149" y="194.0117">title</text><text fill="#000000" font-family="sans-serif" font-size="14" lengthAdjust="spacing" textLength="42" x="224" y="194.0117">Speed</text><line style="stroke:#A80036;stroke-width:1.0;" x1="219" x2="219" y1="178.4766" y2="198.9648"/><line style="stroke:#A80036;stroke-width:1.0;" x1="144" x2="758" y1="198.9648" y2="198.9648"/><text fill="#000000" font-family="sans-serif" font-size="14" lengthAdjust="spacing" textLength="50" x="149" y="214.5">version</text><text fill="#000000" font-family="sans-serif" font-size="14" lengthAdjust="spacing" textLength="88" x="224" y="214.5">2019-05-13</text><line style="stroke:#A80036;stroke-width:1.0;" x1="219" x2="219" y1="198.9648" y2="219.4531"/><rect fill="none" height="81.9531" rx="5" ry="5" style="stroke:#A80036;stroke-width:1.5;" width="614" x="144" y="137.5"/><rect fill="#FEFECE" height="20.4883" rx="5" ry="5" style="stroke:#FEFECE;stroke-width:1.5;" width="73" x="414.5" y="237.5"/><text fill="#000000" font-family="sans-serif" font-size="14" lengthAdjust="spacing" textLength="41" x="419.5" y="253.0352">speed</text><text fill="#000000" font-family="sans-serif" font-size="14" lengthAdjust="spacing" textLength="0" x="482.5" y="253.0352"/><line style="stroke:#A80036;stroke-width:1.0;" x1="465.5" x2="465.5" y1="237.5" y2="257.9883"/><rect fill="none" height="20.4883" rx="5" ry="5" style="stroke:#A80036;stroke-width:1.5;" width="73" x="414.5" y="237.5"/><rect fill="#FEFECE" height="127.418" rx="5" ry="5" style="stroke:#FEFECE;stroke-width:1.5;" width="556" x="795" y="184"/><text fill="#000000" font-family="sans-serif" font-size="14" lengthAdjust="spacing" textLength="77" x="800" y="199.5352">description</text><text fill="#000000" font-family="sans-serif" font-size="14" lengthAdjust="spacing" textLength="410" x="893" y="199.5352">This Resource describes the speed of an object, which is the</text><text fill="#000000" font-family="sans-serif" font-size="14" lengthAdjust="spacing" textLength="439" x="893" y="216.0234">magnitude of its velocity. The unit, which is the default SI unit, is</text><text fill="#000000" font-family="sans-serif" font-size="14" lengthAdjust="spacing" textLength="446" x="893" y="232.5117">metre per second. The speed Property is a read-only value that is</text><text fill="#000000" font-family="sans-serif" font-size="14" lengthAdjust="spacing" textLength="453" x="893" y="249">provided by the server. When range (from "oic. r. baseresource") is</text><text fill="#000000" font-family="sans-serif" font-size="14" lengthAdjust="spacing" textLength="272" x="893" y="265.4883">omitted the default is 0 to +MAXFLOAT.</text><line style="stroke:#A80036;stroke-width:1.0;" x1="888" x2="888" y1="184" y2="270.4414"/><line style="stroke:#A80036;stroke-width:1.0;" x1="795" x2="1351" y1="270.4414" y2="270.4414"/><text fill="#000000" font-family="sans-serif" font-size="14" lengthAdjust="spacing" textLength="79" x="800" y="285.9766">sdfProperty</text><text fill="#000000" font-family="sans-serif" font-size="14" lengthAdjust="spacing" textLength="0" x="905" y="285.9766"/><line style="stroke:#A80036;stroke-width:1.0;" x1="888" x2="888" y1="270.4414" y2="290.9297"/><line style="stroke:#A80036;stroke-width:1.0;" x1="795" x2="1351" y1="290.9297" y2="290.9297"/><text fill="#000000" font-family="sans-serif" font-size="14" lengthAdjust="spacing" textLength="83" x="800" y="306.4648">sdfRequired</text><text fill="#000000" font-family="sans-serif" font-size="14" lengthAdjust="spacing" textLength="0" x="905" y="306.4648"/><line style="stroke:#A80036;stroke-width:1.0;" x1="888" x2="888" y1="290.9297" y2="311.418"/><rect fill="none" height="127.418" rx="5" ry="5" style="stroke:#A80036;stroke-width:1.5;" width="556" x="795" y="184"/><rect fill="#FEFECE" height="61.4648" rx="5" ry="5" style="stroke:#FEFECE;stroke-width:1.5;" width="73" x="1488" y="208"/><text fill="#000000" font-family="sans-serif" font-size="14" lengthAdjust="spacing" textLength="41" x="1493" y="223.5352">speed</text><text fill="#000000" font-family="sans-serif" font-size="14" lengthAdjust="spacing" textLength="0" x="1556" y="223.5352"/><line style="stroke:#A80036;stroke-width:1.0;" x1="1539" x2="1539" y1="208" y2="228.4883"/><line style="stroke:#A80036;stroke-width:1.0;" x1="1488" x2="1561" y1="228.4883" y2="228.4883"/><text fill="#000000" font-family="sans-serif" font-size="14" lengthAdjust="spacing" textLength="40" x="1493" y="244.0234">range</text><text fill="#000000" font-family="sans-serif" font-size="14" lengthAdjust="spacing" textLength="0" x="1556" y="244.0234"/><line style="stroke:#A80036;stroke-width:1.0;" x1="1539" x2="1539" y1="228.4883" y2="248.9766"/><line style="stroke:#A80036;stroke-width:1.0;" x1="1488" x2="1561" y1="248.9766" y2="248.9766"/><text fill="#000000" font-family="sans-serif" font-size="14" lengthAdjust="spacing" textLength="29" x="1493" y="264.5117">step</text><text fill="#000000" font-family="sans-serif" font-size="14" lengthAdjust="spacing" textLength="0" x="1556" y="264.5117"/><line style="stroke:#A80036;stroke-width:1.0;" x1="1539" x2="1539" y1="248.9766" y2="269.4648"/><rect fill="none" height="61.4648" rx="5" ry="5" style="stroke:#A80036;stroke-width:1.5;" width="73" x="1488" y="208"/><rect fill="#FEFECE" height="131.418" rx="5" ry="5" style="stroke:#FEFECE;stroke-width:1.5;" width="565" x="1698" y="10"/><text fill="#000000" font-family="sans-serif" font-size="14" lengthAdjust="spacing" textLength="77" x="1703" y="25.5352">description</text><text fill="#000000" font-family="sans-serif" font-size="14" lengthAdjust="spacing" textLength="457" x="1790" y="25.5352">This Property describes the speed of an object in metre per second</text><text fill="#000000" font-family="sans-serif" font-size="14" lengthAdjust="spacing" textLength="465" x="1790" y="42.0234">(SI Unit). It should be noted, however, that the most common unit of</text><text fill="#000000" font-family="sans-serif" font-size="14" lengthAdjust="spacing" textLength="468" x="1790" y="58.5117">speed everyday usage is the kilometre per hour or, in the US and the</text><text fill="#000000" font-family="sans-serif" font-size="14" lengthAdjust="spacing" textLength="131" x="1790" y="75">UK, miles per hour.</text><line style="stroke:#A80036;stroke-width:1.0;" x1="1785" x2="1785" y1="10" y2="79.9531"/><line style="stroke:#A80036;stroke-width:1.0;" x1="1698" x2="2263" y1="79.9531" y2="79.9531"/><text fill="#000000" font-family="sans-serif" font-size="14" lengthAdjust="spacing" textLength="29" x="1703" y="95.4883">type</text><text fill="#000000" font-family="sans-serif" font-size="14" lengthAdjust="spacing" textLength="54" x="1790" y="95.4883">number</text><line style="stroke:#A80036;stroke-width:1.0;" x1="1785" x2="1785" y1="79.9531" y2="100.4414"/><line style="stroke:#A80036;stroke-width:1.0;" x1="1698" x2="2263" y1="100.4414" y2="100.4414"/><text fill="#000000" font-family="sans-serif" font-size="14" lengthAdjust="spacing" textLength="65" x="1703" y="115.9766">minimum</text><text fill="#000000" font-family="sans-serif" font-size="14" lengthAdjust="spacing" textLength="9" x="1790" y="115.9766">0</text><line style="stroke:#A80036;stroke-width:1.0;" x1="1785" x2="1785" y1="100.4414" y2="120.9297"/><line style="stroke:#A80036;stroke-width:1.0;" x1="1698" x2="2263" y1="120.9297" y2="120.9297"/><text fill="#000000" font-family="sans-serif" font-size="14" lengthAdjust="spacing" textLength="55" x="1703" y="136.4648">writable</text><text fill="#000000" font-family="sans-serif" font-size="14" lengthAdjust="spacing" textLength="48" x="1790" y="136.4648">☐ false</text><line style="stroke:#A80036;stroke-width:1.0;" x1="1785" x2="1785" y1="120.9297" y2="141.418"/><rect fill="none" height="131.418" rx="5" ry="5" style="stroke:#A80036;stroke-width:1.5;" width="565" x="1698" y="10"/><rect fill="#FEFECE" height="155.9063" rx="5" ry="5" style="stroke:#FEFECE;stroke-width:1.5;" width="548" x="1706.5" y="159.5"/><text fill="#000000" font-family="sans-serif" font-size="14" lengthAdjust="spacing" textLength="29" x="1711.5" y="175.0352">type</text><text fill="#000000" font-family="sans-serif" font-size="14" lengthAdjust="spacing" textLength="35" x="1798.5" y="175.0352">array</text><line style="stroke:#A80036;stroke-width:1.0;" x1="1793.5" x2="1793.5" y1="159.5" y2="179.9883"/><line style="stroke:#A80036;stroke-width:1.0;" x1="1706.5" x2="2254.5" y1="179.9883" y2="179.9883"/><text fill="#000000" font-family="sans-serif" font-size="14" lengthAdjust="spacing" textLength="77" x="1711.5" y="195.5234">description</text><text fill="#000000" font-family="sans-serif" font-size="14" lengthAdjust="spacing" textLength="451" x="1798.5" y="195.5234">The valid range for the Property in the Resource as a number. The</text><text fill="#000000" font-family="sans-serif" font-size="14" lengthAdjust="spacing" textLength="439" x="1798.5" y="212.0117">first value in the array is the minimum value, the second value in</text><text fill="#000000" font-family="sans-serif" font-size="14" lengthAdjust="spacing" textLength="219" x="1798.5" y="228.5">the array is the maximum value.</text><line style="stroke:#A80036;stroke-width:1.0;" x1="1793.5" x2="1793.5" y1="179.9883" y2="233.4531"/><line style="stroke:#A80036;stroke-width:1.0;" x1="1706.5" x2="2254.5" y1="233.4531" y2="233.4531"/><text fill="#000000" font-family="sans-serif" font-size="14" lengthAdjust="spacing" textLength="55" x="1711.5" y="248.9883">writable</text><text fill="#000000" font-family="sans-serif" font-size="14" lengthAdjust="spacing" textLength="48" x="1798.5" y="248.9883">☐ false</text><line style="stroke:#A80036;stroke-width:1.0;" x1="1793.5" x2="1793.5" y1="233.4531" y2="253.9414"/><line style="stroke:#A80036;stroke-width:1.0;" x1="1706.5" x2="2254.5" y1="253.9414" y2="253.9414"/><text fill="#000000" font-family="sans-serif" font-size="14" lengthAdjust="spacing" textLength="63" x="1711.5" y="269.4766">minItems</text><text fill="#000000" font-family="sans-serif" font-size="14" lengthAdjust="spacing" textLength="9" x="1798.5" y="269.4766">2</text><line style="stroke:#A80036;stroke-width:1.0;" x1="1793.5" x2="1793.5" y1="253.9414" y2="274.4297"/><line style="stroke:#A80036;stroke-width:1.0;" x1="1706.5" x2="2254.5" y1="274.4297" y2="274.4297"/><text fill="#000000" font-family="sans-serif" font-size="14" lengthAdjust="spacing" textLength="67" x="1711.5" y="289.9648">maxItems</text><text fill="#000000" font-family="sans-serif" font-size="14" lengthAdjust="spacing" textLength="9" x="1798.5" y="289.9648">2</text><line style="stroke:#A80036;stroke-width:1.0;" x1="1793.5" x2="1793.5" y1="274.4297" y2="294.918"/><line style="stroke:#A80036;stroke-width:1.0;" x1="1706.5" x2="2254.5" y1="294.918" y2="294.918"/><text fill="#000000" font-family="sans-serif" font-size="14" lengthAdjust="spacing" textLength="37" x="1711.5" y="310.4531">items</text><text fill="#000000" font-family="sans-serif" font-size="14" lengthAdjust="spacing" textLength="0" x="1810.5" y="310.4531"/><line style="stroke:#A80036;stroke-width:1.0;" x1="1793.5" x2="1793.5" y1="294.918" y2="315.4063"/><rect fill="none" height="155.9063" rx="5" ry="5" style="stroke:#A80036;stroke-width:1.5;" width="548" x="1706.5" y="159.5"/><rect fill="#FEFECE" height="20.4883" rx="5" ry="5" style="stroke:#FEFECE;stroke-width:1.5;" width="103" x="2300" y="292.5"/><text fill="#000000" font-family="sans-serif" font-size="14" lengthAdjust="spacing" textLength="29" x="2305" y="308.0352">type</text><text fill="#000000" font-family="sans-serif" font-size="14" lengthAdjust="spacing" textLength="54" x="2344" y="308.0352">number</text><line style="stroke:#A80036;stroke-width:1.0;" x1="2339" x2="2339" y1="292.5" y2="312.9883"/><rect fill="none" height="20.4883" rx="5" ry="5" style="stroke:#A80036;stroke-width:1.5;" width="103" x="2300" y="292.5"/><rect fill="#FEFECE" height="110.9297" rx="5" ry="5" style="stroke:#FEFECE;stroke-width:1.5;" width="555" x="1703" y="334"/><text fill="#000000" font-family="sans-serif" font-size="14" lengthAdjust="spacing" textLength="77" x="1708" y="349.5352">description</text><text fill="#000000" font-family="sans-serif" font-size="14" lengthAdjust="spacing" textLength="456" x="1795" y="349.5352">Step value across the defined range an integer when the range is a</text><text fill="#000000" font-family="sans-serif" font-size="14" lengthAdjust="spacing" textLength="458" x="1795" y="366.0234">number.  This is the increment for valid values across the range; so</text><text fill="#000000" font-family="sans-serif" font-size="14" lengthAdjust="spacing" textLength="381" x="1795" y="382.5117">if range is 0.0..10.0 and step is 2.5 then valid values are</text><text fill="#000000" font-family="sans-serif" font-size="14" lengthAdjust="spacing" textLength="139" x="1795" y="399">0.0,2.5,5.0,7.5,10.0.</text><line style="stroke:#A80036;stroke-width:1.0;" x1="1790" x2="1790" y1="334" y2="403.9531"/><line style="stroke:#A80036;stroke-width:1.0;" x1="1703" x2="2258" y1="403.9531" y2="403.9531"/><text fill="#000000" font-family="sans-serif" font-size="14" lengthAdjust="spacing" textLength="55" x="1708" y="419.4883">writable</text><text fill="#000000" font-family="sans-serif" font-size="14" lengthAdjust="spacing" textLength="48" x="1795" y="419.4883">☐ false</text><line style="stroke:#A80036;stroke-width:1.0;" x1="1790" x2="1790" y1="403.9531" y2="424.4414"/><line style="stroke:#A80036;stroke-width:1.0;" x1="1703" x2="2258" y1="424.4414" y2="424.4414"/><text fill="#000000" font-family="sans-serif" font-size="14" lengthAdjust="spacing" textLength="29" x="1708" y="439.9766">type</text><text fill="#000000" font-family="sans-serif" font-size="14" lengthAdjust="spacing" textLength="54" x="1795" y="439.9766">number</text><line style="stroke:#A80036;stroke-width:1.0;" x1="1790" x2="1790" y1="424.4414" y2="444.9297"/><rect fill="none" height="110.9297" rx="5" ry="5" style="stroke:#A80036;stroke-width:1.5;" width="555" x="1703" y="334"/><rect fill="#FEFECE" height="20.4883" rx="5" ry="5" style="stroke:#FEFECE;stroke-width:1.5;" width="273" x="1388" y="287.5"/><text fill="#000000" font-family="sans-serif" font-size="14" lengthAdjust="spacing" textLength="263" x="1393" y="303.0352">#/sdfObject/speed/sdfProperty/speed</text><rect fill="none" height="20.4883" rx="5" ry="5" style="stroke:#A80036;stroke-width:1.5;" width="273" x="1388" y="287.5"/><path d="M95,202.5 L108,202.5 C117.4068,202.5 126.9554,202.4088 136.5926,202.2376 " fill="none" style="stroke:#A80036;stroke-width:1.0;stroke-dasharray:3.0,3.0;"/><path d="M136.6543,205.3363 L138.9166,202.1914 L136.5309,199.1389 L144.3394,202.0834 L136.6543,205.3363 " fill="#A80036" style="stroke:#A80036;stroke-width:1.0;"/><ellipse cx="95" cy="202.5" fill="#A80036" rx="3" ry="3" style="stroke:#A80036;stroke-width:1.0;stroke-dasharray:3.0,3.0;"/><path d="M1550,217.5 L1563,217.5 C1629.983,217.5 1635.3182,174.1158 1698,150.5 C1704.1333,148.1892 1710.3669,145.9205 1716.6751,143.6954 " fill="none" style="stroke:#A80036;stroke-width:1.0;stroke-dasharray:3.0,3.0;"/><path d="M1717.7118,146.6705 L1718.9064,142.9178 L1715.6383,140.7202 L1724.1129,141.1035 L1717.7118,146.6705 " fill="#A80036" style="stroke:#A80036;stroke-width:1.0;"/><ellipse cx="1550" cy="217.5" fill="#A80036" rx="3" ry="3" style="stroke:#A80036;stroke-width:1.0;stroke-dasharray:3.0,3.0;"/><path d="M2243,302.5 L2256,302.5 C2267.7706,302.5 2280.3616,302.5 2292.4008,302.5 " fill="none" style="stroke:#A80036;stroke-width:1.0;stroke-dasharray:3.0,3.0;"/><path d="M2292.4008,305.627 L2294.746,302.5 L2292.4008,299.373 L2300.2184,302.5 L2292.4008,305.627 " fill="#A80036" style="stroke:#A80036;stroke-width:1.0;"/><ellipse cx="2243" cy="302.5" fill="#A80036" rx="3" ry="3" style="stroke:#A80036;stroke-width:1.0;stroke-dasharray:3.0,3.0;"/><path d="M1550,237.5 L1563,237.5 C1607.0614,237.5 1653.7416,237.5 1699.3051,237.5 " fill="none" style="stroke:#A80036;stroke-width:1.0;stroke-dasharray:3.0,3.0;"/><path d="M1699.3051,240.5394 L1701.5846,237.5 L1699.3051,234.4606 L1706.9036,237.5 L1699.3051,240.5394 " fill="#A80036" style="stroke:#A80036;stroke-width:1.0;"/><ellipse cx="1550" cy="237.5" fill="#A80036" rx="3" ry="3" style="stroke:#A80036;stroke-width:1.0;stroke-dasharray:3.0,3.0;"/><path d="M1550,258.5 L1563,258.5 C1607.8889,258.5 1623.8027,254.9208 1662,278.5 C1684.091,292.1368 1676.0965,310.564 1698,324.5 C1701.0832,326.4617 1704.2188,328.3643 1707.4014,330.2097 " fill="none" style="stroke:#A80036;stroke-width:1.0;stroke-dasharray:3.0,3.0;"/><path d="M1705.9181,332.8485 L1709.3805,331.3222 L1708.8847,327.571 L1713.9983,333.9179 L1705.9181,332.8485 " fill="#A80036" style="stroke:#A80036;stroke-width:1.0;"/><ellipse cx="1550" cy="258.5" fill="#A80036" rx="3" ry="3" style="stroke:#A80036;stroke-width:1.0;stroke-dasharray:3.0,3.0;"/><path d="M1339,246.5 L1352,246.5 C1395.9106,246.5 1446.0588,243.8661 1480.8295,241.6209 " fill="none" style="stroke:#A80036;stroke-width:1.0;stroke-dasharray:3.0,3.0;"/><path d="M1481.0301,244.6673 L1483.1143,241.4705 L1480.629,238.5746 L1488.4455,241.1195 L1481.0301,244.6673 " fill="#A80036" style="stroke:#A80036;stroke-width:1.0;"/><ellipse cx="1339" cy="246.5" fill="#A80036" rx="3" ry="3" style="stroke:#A80036;stroke-width:1.0;stroke-dasharray:3.0,3.0;"/><path d="M1339,289.5 L1352,289.5 C1361.3172,289.5 1370.9152,289.6186 1380.5875,289.8269 " fill="none" style="stroke:#A80036;stroke-width:1.0;stroke-dasharray:3.0,3.0;"/><path d="M1380.5132,292.9345 L1382.9182,289.8826 L1380.6618,286.7193 L1388.3565,290.0126 L1380.5132,292.9345 " fill="#A80036" style="stroke:#A80036;stroke-width:1.0;"/><ellipse cx="1339" cy="289.5" fill="#A80036" rx="3" ry="3" style="stroke:#A80036;stroke-width:1.0;stroke-dasharray:3.0,3.0;"/><path d="M476.5,247.5 L489.5,247.5 C586.5683,247.5 692.7276,247.5 787.5439,247.5 " fill="none" style="stroke:#A80036;stroke-width:1.0;stroke-dasharray:3.0,3.0;"/><path d="M787.5439,250.5711 L789.8472,247.5 L787.5439,244.4289 L795.2217,247.5 L787.5439,250.5711 " fill="#A80036" style="stroke:#A80036;stroke-width:1.0;"/><ellipse cx="476.5" cy="247.5" fill="#A80036" rx="3" ry="3" style="stroke:#A80036;stroke-width:1.0;stroke-dasharray:3.0,3.0;"/><path d="M95,223.5 L108,223.5 C124.1536,223.5 127.927,226.888 144,228.5 C237.4139,237.8687 347.3388,243.3386 406.8602,245.8405 " fill="none" style="stroke:#A80036;stroke-width:1.0;stroke-dasharray:3.0,3.0;"/><path d="M406.7326,248.9231 L409.1721,245.9363 L406.9879,242.758 L414.5666,246.1597 L406.7326,248.9231 " fill="#A80036" style="stroke:#A80036;stroke-width:1.0;"/><ellipse cx="95" cy="223.5" fill="#A80036" rx="3" ry="3" style="stroke:#A80036;stroke-width:1.0;stroke-dasharray:3.0,3.0;"/><!--MD5=[c03420df533a0269c9b8ecd62aeca257]
@startjson
{
  "info": {
    "copyright": "Copyright 2018-2019 Open Connectivity Foundation, Inc. All rights reserved.",
    "license": "https://github.com/one-data-model/oneDM/blob/master/LICENSE",
    "title": "Speed",
    "version": "2019-05-13"
  },
  "sdfObject": {
    "speed": {
      "description": "This Resource describes the speed of an object, which is the\\nmagnitude of its velocity. The unit, which is the default SI unit, is\\nmetre per second. The speed Property is a read-only value that is\\nprovided by the server. When range (from \"oic. r. baseresource\") is\\nomitted the default is 0 to +MAXFLOAT.",
      "sdfProperty": {
        "speed": {
          "description": "This Property describes the speed of an object in metre per second\\n(SI Unit). It should be noted, however, that the most common unit of\\nspeed everyday usage is the kilometre per hour or, in the US and the\\nUK, miles per hour.",
          "type": "number",
          "minimum": 0,
          "writable": false
        },
        "range": {
          "type": "array",
          "description": "The valid range for the Property in the Resource as a number. The\\nfirst value in the array is the minimum value, the second value in\\nthe array is the maximum value.",
          "writable": false,
          "minItems": 2,
          "maxItems": 2,
          "items": {
            "type": "number"
          }
        },
        "step": {
          "description": "Step value across the defined range an integer when the range is a\\nnumber.  This is the increment for valid values across the range; so\\nif range is 0.0..10.0 and step is 2.5 then valid values are\\n0.0,2.5,5.0,7.5,10.0.",
          "writable": false,
          "type": "number"
        }
      },
      "sdfRequired": [
        "#/sdfObject/speed/sdfProperty/speed"
      ]
    }
  }
}
@endjson

PlantUML version 1.2021.2(Sun Mar 07 13:10:27 EET 2021)
(GPL source distribution)
Java Runtime: OpenJDK Runtime Environment
JVM: OpenJDK 64-Bit Server VM
Default Encoding: UTF-8
Language: en
Country: FI
--></g></svg>