<?xml version="1.0" encoding="UTF-8" standalone="no"?><svg xmlns="http://www.w3.org/2000/svg" xmlns:xlink="http://www.w3.org/1999/xlink" contentScriptType="application/ecmascript" contentStyleType="text/css" height="1348px" preserveAspectRatio="none" style="width:2331px;height:1348px;" version="1.1" viewBox="0 0 2331 1348" width="2331px" zoomAndPan="magnify"><defs/><g><rect fill="#FEFECE" height="40.9766" rx="5" ry="5" style="stroke:#FEFECE;stroke-width:1.5;" width="97" x="10" y="886"/><text fill="#000000" font-family="sans-serif" font-size="14" lengthAdjust="spacing" textLength="27" x="15" y="901.5352">info</text><text fill="#000000" font-family="sans-serif" font-size="14" lengthAdjust="spacing" textLength="0" x="102" y="901.5352"/><line style="stroke:#A80036;stroke-width:1.0;" x1="85" x2="85" y1="886" y2="906.4883"/><line style="stroke:#A80036;stroke-width:1.0;" x1="10" x2="107" y1="906.4883" y2="906.4883"/><text fill="#000000" font-family="sans-serif" font-size="14" lengthAdjust="spacing" textLength="65" x="15" y="922.0234">sdfObject</text><text fill="#000000" font-family="sans-serif" font-size="14" lengthAdjust="spacing" textLength="0" x="102" y="922.0234"/><line style="stroke:#A80036;stroke-width:1.0;" x1="85" x2="85" y1="906.4883" y2="926.9766"/><rect fill="none" height="40.9766" rx="5" ry="5" style="stroke:#A80036;stroke-width:1.5;" width="97" x="10" y="886"/><rect fill="#FEFECE" height="81.9531" rx="5" ry="5" style="stroke:#FEFECE;stroke-width:1.5;" width="547" x="144" y="830.5"/><text fill="#000000" font-family="sans-serif" font-size="14" lengthAdjust="spacing" textLength="26" x="149" y="846.0352">title</text><text fill="#000000" font-family="sans-serif" font-size="14" lengthAdjust="spacing" textLength="270" x="224" y="846.0352">OMA LwM2M Direction (Object ID 3332)</text><line style="stroke:#A80036;stroke-width:1.0;" x1="219" x2="219" y1="830.5" y2="850.9883"/><line style="stroke:#A80036;stroke-width:1.0;" x1="144" x2="691" y1="850.9883" y2="850.9883"/><text fill="#000000" font-family="sans-serif" font-size="14" lengthAdjust="spacing" textLength="50" x="149" y="866.5234">version</text><text fill="#000000" font-family="sans-serif" font-size="14" lengthAdjust="spacing" textLength="88" x="224" y="866.5234">2021-02-11</text><line style="stroke:#A80036;stroke-width:1.0;" x1="219" x2="219" y1="850.9883" y2="871.4766"/><line style="stroke:#A80036;stroke-width:1.0;" x1="144" x2="691" y1="871.4766" y2="871.4766"/><text fill="#000000" font-family="sans-serif" font-size="14" lengthAdjust="spacing" textLength="65" x="149" y="887.0117">copyright</text><text fill="#000000" font-family="sans-serif" font-size="14" lengthAdjust="spacing" textLength="208" x="224" y="887.0117">Copyright (c) 2018-2020 IPSO</text><line style="stroke:#A80036;stroke-width:1.0;" x1="219" x2="219" y1="871.4766" y2="891.9648"/><line style="stroke:#A80036;stroke-width:1.0;" x1="144" x2="691" y1="891.9648" y2="891.9648"/><text fill="#000000" font-family="sans-serif" font-size="14" lengthAdjust="spacing" textLength="47" x="149" y="907.5">license</text><text fill="#000000" font-family="sans-serif" font-size="14" lengthAdjust="spacing" textLength="462" x="224" y="907.5">https://github.com/one-data-model/oneDM/blob/master/LICENSE</text><line style="stroke:#A80036;stroke-width:1.0;" x1="219" x2="219" y1="891.9648" y2="912.4531"/><rect fill="none" height="81.9531" rx="5" ry="5" style="stroke:#A80036;stroke-width:1.5;" width="547" x="144" y="830.5"/><rect fill="#FEFECE" height="20.4883" rx="5" ry="5" style="stroke:#FEFECE;stroke-width:1.5;" width="94" x="370.5" y="930.5"/><text fill="#000000" font-family="sans-serif" font-size="14" lengthAdjust="spacing" textLength="62" x="375.5" y="946.0352">Direction</text><text fill="#000000" font-family="sans-serif" font-size="14" lengthAdjust="spacing" textLength="0" x="459.5" y="946.0352"/><line style="stroke:#A80036;stroke-width:1.0;" x1="442.5" x2="442.5" y1="930.5" y2="950.9883"/><rect fill="none" height="20.4883" rx="5" ry="5" style="stroke:#A80036;stroke-width:1.5;" width="94" x="370.5" y="930.5"/><rect fill="#FEFECE" height="135.418" rx="5" ry="5" style="stroke:#FEFECE;stroke-width:1.5;" width="536" x="728" y="873"/><text fill="#000000" font-family="sans-serif" font-size="14" lengthAdjust="spacing" textLength="33" x="733" y="888.5352">label</text><text fill="#000000" font-family="sans-serif" font-size="14" lengthAdjust="spacing" textLength="62" x="826" y="888.5352">Direction</text><line style="stroke:#A80036;stroke-width:1.0;" x1="821" x2="821" y1="873" y2="893.4883"/><line style="stroke:#A80036;stroke-width:1.0;" x1="728" x2="1264" y1="893.4883" y2="893.4883"/><text fill="#000000" font-family="sans-serif" font-size="14" lengthAdjust="spacing" textLength="77" x="733" y="909.0234">description</text><text fill="#000000" font-family="sans-serif" font-size="14" lengthAdjust="spacing" textLength="417" x="826" y="909.0234">This IPSO object is used to report the direction indicated by a</text><text fill="#000000" font-family="sans-serif" font-size="14" lengthAdjust="spacing" textLength="433" x="826" y="925.5117">compass, wind vane, or other directional indicator. The units of</text><text fill="#000000" font-family="sans-serif" font-size="14" lengthAdjust="spacing" textLength="221" x="826" y="942">measure is plane angle degrees.</text><line style="stroke:#A80036;stroke-width:1.0;" x1="821" x2="821" y1="893.4883" y2="946.9531"/><line style="stroke:#A80036;stroke-width:1.0;" x1="728" x2="1264" y1="946.9531" y2="946.9531"/><text fill="#000000" font-family="sans-serif" font-size="14" lengthAdjust="spacing" textLength="79" x="733" y="962.4883">sdfProperty</text><text fill="#000000" font-family="sans-serif" font-size="14" lengthAdjust="spacing" textLength="0" x="838" y="962.4883"/><line style="stroke:#A80036;stroke-width:1.0;" x1="821" x2="821" y1="946.9531" y2="967.4414"/><line style="stroke:#A80036;stroke-width:1.0;" x1="728" x2="1264" y1="967.4414" y2="967.4414"/><text fill="#000000" font-family="sans-serif" font-size="14" lengthAdjust="spacing" textLength="65" x="733" y="982.9766">sdfAction</text><text fill="#000000" font-family="sans-serif" font-size="14" lengthAdjust="spacing" textLength="0" x="838" y="982.9766"/><line style="stroke:#A80036;stroke-width:1.0;" x1="821" x2="821" y1="967.4414" y2="987.9297"/><line style="stroke:#A80036;stroke-width:1.0;" x1="728" x2="1264" y1="987.9297" y2="987.9297"/><text fill="#000000" font-family="sans-serif" font-size="14" lengthAdjust="spacing" textLength="83" x="733" y="1003.4648">sdfRequired</text><text fill="#000000" font-family="sans-serif" font-size="14" lengthAdjust="spacing" textLength="0" x="838" y="1003.4648"/><line style="stroke:#A80036;stroke-width:1.0;" x1="821" x2="821" y1="987.9297" y2="1008.418"/><rect fill="none" height="135.418" rx="5" ry="5" style="stroke:#A80036;stroke-width:1.5;" width="536" x="728" y="873"/><rect fill="#FEFECE" height="163.9063" rx="5" ry="5" style="stroke:#FEFECE;stroke-width:1.5;" width="248" x="1369.5" y="426.5"/><text fill="#000000" font-family="sans-serif" font-size="14" lengthAdjust="spacing" textLength="132" x="1374.5" y="442.0352">Compass_Direction</text><text fill="#000000" font-family="sans-serif" font-size="14" lengthAdjust="spacing" textLength="0" x="1612.5" y="442.0352"/><line style="stroke:#A80036;stroke-width:1.0;" x1="1595.5" x2="1595.5" y1="426.5" y2="446.9883"/><line style="stroke:#A80036;stroke-width:1.0;" x1="1369.5" x2="1617.5" y1="446.9883" y2="446.9883"/><text fill="#000000" font-family="sans-serif" font-size="14" lengthAdjust="spacing" textLength="144" x="1374.5" y="462.5234">Min_Measured_Value</text><text fill="#000000" font-family="sans-serif" font-size="14" lengthAdjust="spacing" textLength="0" x="1612.5" y="462.5234"/><line style="stroke:#A80036;stroke-width:1.0;" x1="1595.5" x2="1595.5" y1="446.9883" y2="467.4766"/><line style="stroke:#A80036;stroke-width:1.0;" x1="1369.5" x2="1617.5" y1="467.4766" y2="467.4766"/><text fill="#000000" font-family="sans-serif" font-size="14" lengthAdjust="spacing" textLength="148" x="1374.5" y="483.0117">Max_Measured_Value</text><text fill="#000000" font-family="sans-serif" font-size="14" lengthAdjust="spacing" textLength="0" x="1612.5" y="483.0117"/><line style="stroke:#A80036;stroke-width:1.0;" x1="1595.5" x2="1595.5" y1="467.4766" y2="487.9648"/><line style="stroke:#A80036;stroke-width:1.0;" x1="1369.5" x2="1617.5" y1="487.9648" y2="487.9648"/><text fill="#000000" font-family="sans-serif" font-size="14" lengthAdjust="spacing" textLength="118" x="1374.5" y="503.5">Application_Type</text><text fill="#000000" font-family="sans-serif" font-size="14" lengthAdjust="spacing" textLength="0" x="1612.5" y="503.5"/><line style="stroke:#A80036;stroke-width:1.0;" x1="1595.5" x2="1595.5" y1="487.9648" y2="508.4531"/><line style="stroke:#A80036;stroke-width:1.0;" x1="1369.5" x2="1617.5" y1="508.4531" y2="508.4531"/><text fill="#000000" font-family="sans-serif" font-size="14" lengthAdjust="spacing" textLength="76" x="1374.5" y="523.9883">Timestamp</text><text fill="#000000" font-family="sans-serif" font-size="14" lengthAdjust="spacing" textLength="0" x="1612.5" y="523.9883"/><line style="stroke:#A80036;stroke-width:1.0;" x1="1595.5" x2="1595.5" y1="508.4531" y2="528.9414"/><line style="stroke:#A80036;stroke-width:1.0;" x1="1369.5" x2="1617.5" y1="528.9414" y2="528.9414"/><text fill="#000000" font-family="sans-serif" font-size="14" lengthAdjust="spacing" textLength="151" x="1374.5" y="544.4766">Fractional_Timestamp</text><text fill="#000000" font-family="sans-serif" font-size="14" lengthAdjust="spacing" textLength="0" x="1612.5" y="544.4766"/><line style="stroke:#A80036;stroke-width:1.0;" x1="1595.5" x2="1595.5" y1="528.9414" y2="549.4297"/><line style="stroke:#A80036;stroke-width:1.0;" x1="1369.5" x2="1617.5" y1="549.4297" y2="549.4297"/><text fill="#000000" font-family="sans-serif" font-size="14" lengthAdjust="spacing" textLength="216" x="1374.5" y="564.9648">Measurement_Quality_Indicator</text><text fill="#000000" font-family="sans-serif" font-size="14" lengthAdjust="spacing" textLength="0" x="1612.5" y="564.9648"/><line style="stroke:#A80036;stroke-width:1.0;" x1="1595.5" x2="1595.5" y1="549.4297" y2="569.918"/><line style="stroke:#A80036;stroke-width:1.0;" x1="1369.5" x2="1617.5" y1="569.918" y2="569.918"/><text fill="#000000" font-family="sans-serif" font-size="14" lengthAdjust="spacing" textLength="189" x="1374.5" y="585.4531">Measurement_Quality_Level</text><text fill="#000000" font-family="sans-serif" font-size="14" lengthAdjust="spacing" textLength="0" x="1612.5" y="585.4531"/><line style="stroke:#A80036;stroke-width:1.0;" x1="1595.5" x2="1595.5" y1="569.918" y2="590.4063"/><rect fill="none" height="163.9063" rx="5" ry="5" style="stroke:#A80036;stroke-width:1.5;" width="248" x="1369.5" y="426.5"/><rect fill="#FEFECE" height="143.418" rx="5" ry="5" style="stroke:#FEFECE;stroke-width:1.5;" width="328" x="1857" y="10"/><text fill="#000000" font-family="sans-serif" font-size="14" lengthAdjust="spacing" textLength="33" x="1862" y="25.5352">label</text><text fill="#000000" font-family="sans-serif" font-size="14" lengthAdjust="spacing" textLength="129" x="1949" y="25.5352">Compass Direction</text><line style="stroke:#A80036;stroke-width:1.0;" x1="1944" x2="1944" y1="10" y2="30.4883"/><line style="stroke:#A80036;stroke-width:1.0;" x1="1857" x2="2185" y1="30.4883" y2="30.4883"/><text fill="#000000" font-family="sans-serif" font-size="14" lengthAdjust="spacing" textLength="77" x="1862" y="46.0234">description</text><text fill="#000000" font-family="sans-serif" font-size="14" lengthAdjust="spacing" textLength="231" x="1949" y="46.0234">The measured compass direction.</text><line style="stroke:#A80036;stroke-width:1.0;" x1="1944" x2="1944" y1="30.4883" y2="50.9766"/><line style="stroke:#A80036;stroke-width:1.0;" x1="1857" x2="2185" y1="50.9766" y2="50.9766"/><text fill="#000000" font-family="sans-serif" font-size="14" lengthAdjust="spacing" textLength="55" x="1862" y="66.5117">writable</text><text fill="#000000" font-family="sans-serif" font-size="14" lengthAdjust="spacing" textLength="48" x="1949" y="66.5117">☐ false</text><line style="stroke:#A80036;stroke-width:1.0;" x1="1944" x2="1944" y1="50.9766" y2="71.4648"/><line style="stroke:#A80036;stroke-width:1.0;" x1="1857" x2="2185" y1="71.4648" y2="71.4648"/><text fill="#000000" font-family="sans-serif" font-size="14" lengthAdjust="spacing" textLength="29" x="1862" y="87">type</text><text fill="#000000" font-family="sans-serif" font-size="14" lengthAdjust="spacing" textLength="54" x="1949" y="87">number</text><line style="stroke:#A80036;stroke-width:1.0;" x1="1944" x2="1944" y1="71.4648" y2="91.9531"/><line style="stroke:#A80036;stroke-width:1.0;" x1="1857" x2="2185" y1="91.9531" y2="91.9531"/><text fill="#000000" font-family="sans-serif" font-size="14" lengthAdjust="spacing" textLength="27" x="1862" y="107.4883">unit</text><text fill="#000000" font-family="sans-serif" font-size="14" lengthAdjust="spacing" textLength="26" x="1949" y="107.4883">deg</text><line style="stroke:#A80036;stroke-width:1.0;" x1="1944" x2="1944" y1="91.9531" y2="112.4414"/><line style="stroke:#A80036;stroke-width:1.0;" x1="1857" x2="2185" y1="112.4414" y2="112.4414"/><text fill="#000000" font-family="sans-serif" font-size="14" lengthAdjust="spacing" textLength="65" x="1862" y="127.9766">minimum</text><text fill="#000000" font-family="sans-serif" font-size="14" lengthAdjust="spacing" textLength="9" x="1949" y="127.9766">0</text><line style="stroke:#A80036;stroke-width:1.0;" x1="1944" x2="1944" y1="112.4414" y2="132.9297"/><line style="stroke:#A80036;stroke-width:1.0;" x1="1857" x2="2185" y1="132.9297" y2="132.9297"/><text fill="#000000" font-family="sans-serif" font-size="14" lengthAdjust="spacing" textLength="69" x="1862" y="148.4648">maximum</text><text fill="#000000" font-family="sans-serif" font-size="14" lengthAdjust="spacing" textLength="27" x="1949" y="148.4648">360</text><line style="stroke:#A80036;stroke-width:1.0;" x1="1944" x2="1944" y1="132.9297" y2="153.418"/><rect fill="none" height="143.418" rx="5" ry="5" style="stroke:#A80036;stroke-width:1.5;" width="328" x="1857" y="10"/><rect fill="#FEFECE" height="81.9531" rx="5" ry="5" style="stroke:#FEFECE;stroke-width:1.5;" width="572" x="1735" y="171.5"/><text fill="#000000" font-family="sans-serif" font-size="14" lengthAdjust="spacing" textLength="33" x="1740" y="187.0352">label</text><text fill="#000000" font-family="sans-serif" font-size="14" lengthAdjust="spacing" textLength="138" x="1827" y="187.0352">Min Measured Value</text><line style="stroke:#A80036;stroke-width:1.0;" x1="1822" x2="1822" y1="171.5" y2="191.9883"/><line style="stroke:#A80036;stroke-width:1.0;" x1="1735" x2="2307" y1="191.9883" y2="191.9883"/><text fill="#000000" font-family="sans-serif" font-size="14" lengthAdjust="spacing" textLength="77" x="1740" y="207.5234">description</text><text fill="#000000" font-family="sans-serif" font-size="14" lengthAdjust="spacing" textLength="475" x="1827" y="207.5234">The minimum value measured by the sensor since power ON or reset.</text><line style="stroke:#A80036;stroke-width:1.0;" x1="1822" x2="1822" y1="191.9883" y2="212.4766"/><line style="stroke:#A80036;stroke-width:1.0;" x1="1735" x2="2307" y1="212.4766" y2="212.4766"/><text fill="#000000" font-family="sans-serif" font-size="14" lengthAdjust="spacing" textLength="55" x="1740" y="228.0117">writable</text><text fill="#000000" font-family="sans-serif" font-size="14" lengthAdjust="spacing" textLength="48" x="1827" y="228.0117">☐ false</text><line style="stroke:#A80036;stroke-width:1.0;" x1="1822" x2="1822" y1="212.4766" y2="232.9648"/><line style="stroke:#A80036;stroke-width:1.0;" x1="1735" x2="2307" y1="232.9648" y2="232.9648"/><text fill="#000000" font-family="sans-serif" font-size="14" lengthAdjust="spacing" textLength="29" x="1740" y="248.5">type</text><text fill="#000000" font-family="sans-serif" font-size="14" lengthAdjust="spacing" textLength="54" x="1827" y="248.5">number</text><line style="stroke:#A80036;stroke-width:1.0;" x1="1822" x2="1822" y1="232.9648" y2="253.4531"/><rect fill="none" height="81.9531" rx="5" ry="5" style="stroke:#A80036;stroke-width:1.5;" width="572" x="1735" y="171.5"/><rect fill="#FEFECE" height="81.9531" rx="5" ry="5" style="stroke:#FEFECE;stroke-width:1.5;" width="576" x="1733" y="271.5"/><text fill="#000000" font-family="sans-serif" font-size="14" lengthAdjust="spacing" textLength="33" x="1738" y="287.0352">label</text><text fill="#000000" font-family="sans-serif" font-size="14" lengthAdjust="spacing" textLength="142" x="1825" y="287.0352">Max Measured Value</text><line style="stroke:#A80036;stroke-width:1.0;" x1="1820" x2="1820" y1="271.5" y2="291.9883"/><line style="stroke:#A80036;stroke-width:1.0;" x1="1733" x2="2309" y1="291.9883" y2="291.9883"/><text fill="#000000" font-family="sans-serif" font-size="14" lengthAdjust="spacing" textLength="77" x="1738" y="307.5234">description</text><text fill="#000000" font-family="sans-serif" font-size="14" lengthAdjust="spacing" textLength="479" x="1825" y="307.5234">The maximum value measured by the sensor since power ON or reset.</text><line style="stroke:#A80036;stroke-width:1.0;" x1="1820" x2="1820" y1="291.9883" y2="312.4766"/><line style="stroke:#A80036;stroke-width:1.0;" x1="1733" x2="2309" y1="312.4766" y2="312.4766"/><text fill="#000000" font-family="sans-serif" font-size="14" lengthAdjust="spacing" textLength="55" x="1738" y="328.0117">writable</text><text fill="#000000" font-family="sans-serif" font-size="14" lengthAdjust="spacing" textLength="48" x="1825" y="328.0117">☐ false</text><line style="stroke:#A80036;stroke-width:1.0;" x1="1820" x2="1820" y1="312.4766" y2="332.9648"/><line style="stroke:#A80036;stroke-width:1.0;" x1="1733" x2="2309" y1="332.9648" y2="332.9648"/><text fill="#000000" font-family="sans-serif" font-size="14" lengthAdjust="spacing" textLength="29" x="1738" y="348.5">type</text><text fill="#000000" font-family="sans-serif" font-size="14" lengthAdjust="spacing" textLength="54" x="1825" y="348.5">number</text><line style="stroke:#A80036;stroke-width:1.0;" x1="1820" x2="1820" y1="332.9648" y2="353.4531"/><rect fill="none" height="81.9531" rx="5" ry="5" style="stroke:#A80036;stroke-width:1.5;" width="576" x="1733" y="271.5"/><rect fill="#FEFECE" height="77.9531" rx="5" ry="5" style="stroke:#FEFECE;stroke-width:1.5;" width="563" x="1739.5" y="371.5"/><text fill="#000000" font-family="sans-serif" font-size="14" lengthAdjust="spacing" textLength="33" x="1744.5" y="387.0352">label</text><text fill="#000000" font-family="sans-serif" font-size="14" lengthAdjust="spacing" textLength="115" x="1831.5" y="387.0352">Application Type</text><line style="stroke:#A80036;stroke-width:1.0;" x1="1826.5" x2="1826.5" y1="371.5" y2="391.9883"/><line style="stroke:#A80036;stroke-width:1.0;" x1="1739.5" x2="2302.5" y1="391.9883" y2="391.9883"/><text fill="#000000" font-family="sans-serif" font-size="14" lengthAdjust="spacing" textLength="77" x="1744.5" y="407.5234">description</text><text fill="#000000" font-family="sans-serif" font-size="14" lengthAdjust="spacing" textLength="466" x="1831.5" y="407.5234">The application type of the sensor or actuator as a string depending</text><text fill="#000000" font-family="sans-serif" font-size="14" lengthAdjust="spacing" textLength="110" x="1831.5" y="424.0117">on the use case.</text><line style="stroke:#A80036;stroke-width:1.0;" x1="1826.5" x2="1826.5" y1="391.9883" y2="428.9648"/><line style="stroke:#A80036;stroke-width:1.0;" x1="1739.5" x2="2302.5" y1="428.9648" y2="428.9648"/><text fill="#000000" font-family="sans-serif" font-size="14" lengthAdjust="spacing" textLength="29" x="1744.5" y="444.5">type</text><text fill="#000000" font-family="sans-serif" font-size="14" lengthAdjust="spacing" textLength="40" x="1831.5" y="444.5">string</text><line style="stroke:#A80036;stroke-width:1.0;" x1="1826.5" x2="1826.5" y1="428.9648" y2="449.4531"/><rect fill="none" height="77.9531" rx="5" ry="5" style="stroke:#A80036;stroke-width:1.5;" width="563" x="1739.5" y="371.5"/><rect fill="#FEFECE" height="102.4414" rx="5" ry="5" style="stroke:#FEFECE;stroke-width:1.5;" width="493" x="1774.5" y="467.5"/><text fill="#000000" font-family="sans-serif" font-size="14" lengthAdjust="spacing" textLength="33" x="1779.5" y="483.0352">label</text><text fill="#000000" font-family="sans-serif" font-size="14" lengthAdjust="spacing" textLength="76" x="1866.5" y="483.0352">Timestamp</text><line style="stroke:#A80036;stroke-width:1.0;" x1="1861.5" x2="1861.5" y1="467.5" y2="487.9883"/><line style="stroke:#A80036;stroke-width:1.0;" x1="1774.5" x2="2267.5" y1="487.9883" y2="487.9883"/><text fill="#000000" font-family="sans-serif" font-size="14" lengthAdjust="spacing" textLength="77" x="1779.5" y="503.5234">description</text><text fill="#000000" font-family="sans-serif" font-size="14" lengthAdjust="spacing" textLength="396" x="1866.5" y="503.5234">The timestamp of when the measurement was performed.</text><line style="stroke:#A80036;stroke-width:1.0;" x1="1861.5" x2="1861.5" y1="487.9883" y2="508.4766"/><line style="stroke:#A80036;stroke-width:1.0;" x1="1774.5" x2="2267.5" y1="508.4766" y2="508.4766"/><text fill="#000000" font-family="sans-serif" font-size="14" lengthAdjust="spacing" textLength="55" x="1779.5" y="524.0117">writable</text><text fill="#000000" font-family="sans-serif" font-size="14" lengthAdjust="spacing" textLength="48" x="1866.5" y="524.0117">☐ false</text><line style="stroke:#A80036;stroke-width:1.0;" x1="1861.5" x2="1861.5" y1="508.4766" y2="528.9648"/><line style="stroke:#A80036;stroke-width:1.0;" x1="1774.5" x2="2267.5" y1="528.9648" y2="528.9648"/><text fill="#000000" font-family="sans-serif" font-size="14" lengthAdjust="spacing" textLength="29" x="1779.5" y="544.5">type</text><text fill="#000000" font-family="sans-serif" font-size="14" lengthAdjust="spacing" textLength="54" x="1866.5" y="544.5">number</text><line style="stroke:#A80036;stroke-width:1.0;" x1="1861.5" x2="1861.5" y1="528.9648" y2="549.4531"/><line style="stroke:#A80036;stroke-width:1.0;" x1="1774.5" x2="2267.5" y1="549.4531" y2="549.4531"/><text fill="#000000" font-family="sans-serif" font-size="14" lengthAdjust="spacing" textLength="54" x="1779.5" y="564.9883">sdfType</text><text fill="#000000" font-family="sans-serif" font-size="14" lengthAdjust="spacing" textLength="69" x="1866.5" y="564.9883">unix-time</text><line style="stroke:#A80036;stroke-width:1.0;" x1="1861.5" x2="1861.5" y1="549.4531" y2="569.9414"/><rect fill="none" height="102.4414" rx="5" ry="5" style="stroke:#A80036;stroke-width:1.5;" width="493" x="1774.5" y="467.5"/><rect fill="#FEFECE" height="159.9063" rx="5" ry="5" style="stroke:#FEFECE;stroke-width:1.5;" width="563" x="1739.5" y="587.5"/><text fill="#000000" font-family="sans-serif" font-size="14" lengthAdjust="spacing" textLength="33" x="1744.5" y="603.0352">label</text><text fill="#000000" font-family="sans-serif" font-size="14" lengthAdjust="spacing" textLength="148" x="1831.5" y="603.0352">Fractional Timestamp</text><line style="stroke:#A80036;stroke-width:1.0;" x1="1826.5" x2="1826.5" y1="587.5" y2="607.9883"/><line style="stroke:#A80036;stroke-width:1.0;" x1="1739.5" x2="2302.5" y1="607.9883" y2="607.9883"/><text fill="#000000" font-family="sans-serif" font-size="14" lengthAdjust="spacing" textLength="77" x="1744.5" y="623.5234">description</text><text fill="#000000" font-family="sans-serif" font-size="14" lengthAdjust="spacing" textLength="466" x="1831.5" y="623.5234">Fractional part of the timestamp when sub-second precision is used</text><text fill="#000000" font-family="sans-serif" font-size="14" lengthAdjust="spacing" textLength="157" x="1831.5" y="640.0117">(e.g., 0.23 for 230 ms).</text><line style="stroke:#A80036;stroke-width:1.0;" x1="1826.5" x2="1826.5" y1="607.9883" y2="644.9648"/><line style="stroke:#A80036;stroke-width:1.0;" x1="1739.5" x2="2302.5" y1="644.9648" y2="644.9648"/><text fill="#000000" font-family="sans-serif" font-size="14" lengthAdjust="spacing" textLength="55" x="1744.5" y="660.5">writable</text><text fill="#000000" font-family="sans-serif" font-size="14" lengthAdjust="spacing" textLength="48" x="1831.5" y="660.5">☐ false</text><line style="stroke:#A80036;stroke-width:1.0;" x1="1826.5" x2="1826.5" y1="644.9648" y2="665.4531"/><line style="stroke:#A80036;stroke-width:1.0;" x1="1739.5" x2="2302.5" y1="665.4531" y2="665.4531"/><text fill="#000000" font-family="sans-serif" font-size="14" lengthAdjust="spacing" textLength="29" x="1744.5" y="680.9883">type</text><text fill="#000000" font-family="sans-serif" font-size="14" lengthAdjust="spacing" textLength="54" x="1831.5" y="680.9883">number</text><line style="stroke:#A80036;stroke-width:1.0;" x1="1826.5" x2="1826.5" y1="665.4531" y2="685.9414"/><line style="stroke:#A80036;stroke-width:1.0;" x1="1739.5" x2="2302.5" y1="685.9414" y2="685.9414"/><text fill="#000000" font-family="sans-serif" font-size="14" lengthAdjust="spacing" textLength="27" x="1744.5" y="701.4766">unit</text><text fill="#000000" font-family="sans-serif" font-size="14" lengthAdjust="spacing" textLength="7" x="1831.5" y="701.4766">s</text><line style="stroke:#A80036;stroke-width:1.0;" x1="1826.5" x2="1826.5" y1="685.9414" y2="706.4297"/><line style="stroke:#A80036;stroke-width:1.0;" x1="1739.5" x2="2302.5" y1="706.4297" y2="706.4297"/><text fill="#000000" font-family="sans-serif" font-size="14" lengthAdjust="spacing" textLength="65" x="1744.5" y="721.9648">minimum</text><text fill="#000000" font-family="sans-serif" font-size="14" lengthAdjust="spacing" textLength="9" x="1831.5" y="721.9648">0</text><line style="stroke:#A80036;stroke-width:1.0;" x1="1826.5" x2="1826.5" y1="706.4297" y2="726.918"/><line style="stroke:#A80036;stroke-width:1.0;" x1="1739.5" x2="2302.5" y1="726.918" y2="726.918"/><text fill="#000000" font-family="sans-serif" font-size="14" lengthAdjust="spacing" textLength="69" x="1744.5" y="742.4531">maximum</text><text fill="#000000" font-family="sans-serif" font-size="14" lengthAdjust="spacing" textLength="9" x="1831.5" y="742.4531">1</text><line style="stroke:#A80036;stroke-width:1.0;" x1="1826.5" x2="1826.5" y1="726.918" y2="747.4063"/><rect fill="none" height="159.9063" rx="5" ry="5" style="stroke:#A80036;stroke-width:1.5;" width="563" x="1739.5" y="587.5"/><rect fill="#FEFECE" height="254.8359" rx="5" ry="5" style="stroke:#FEFECE;stroke-width:1.5;" width="596" x="1723" y="766"/><text fill="#000000" font-family="sans-serif" font-size="14" lengthAdjust="spacing" textLength="33" x="1728" y="781.5352">label</text><text fill="#000000" font-family="sans-serif" font-size="14" lengthAdjust="spacing" textLength="210" x="1815" y="781.5352">Measurement Quality Indicator</text><line style="stroke:#A80036;stroke-width:1.0;" x1="1810" x2="1810" y1="766" y2="786.4883"/><line style="stroke:#A80036;stroke-width:1.0;" x1="1723" x2="2319" y1="786.4883" y2="786.4883"/><text fill="#000000" font-family="sans-serif" font-size="14" lengthAdjust="spacing" textLength="77" x="1728" y="802.0234">description</text><text fill="#000000" font-family="sans-serif" font-size="14" lengthAdjust="spacing" textLength="401" x="1815" y="802.0234">Measurement quality indicator reported by a smart sensor.</text><text fill="#000000" font-family="sans-serif" font-size="14" lengthAdjust="spacing" textLength="499" x="1815" y="818.5117">0: UNCHECKED No quality checks were done because they do not exist or</text><text fill="#000000" font-family="sans-serif" font-size="14" lengthAdjust="spacing" textLength="131" x="1815" y="835">can not be applied.</text><text fill="#000000" font-family="sans-serif" font-size="14" lengthAdjust="spacing" textLength="414" x="1815" y="851.4883">1: REJECTED WITH CERTAINTY The measured value is invalid.</text><text fill="#000000" font-family="sans-serif" font-size="14" lengthAdjust="spacing" textLength="462" x="1815" y="867.9766">2: REJECTED WITH PROBABILITY The measured value is likely invalid.</text><text fill="#000000" font-family="sans-serif" font-size="14" lengthAdjust="spacing" textLength="430" x="1815" y="884.4648">3: ACCEPTED BUT SUSPICIOUS The measured value is likely OK.</text><text fill="#000000" font-family="sans-serif" font-size="14" lengthAdjust="spacing" textLength="275" x="1815" y="900.9531">4: ACCEPTED The measured value is OK.</text><text fill="#000000" font-family="sans-serif" font-size="14" lengthAdjust="spacing" textLength="258" x="1815" y="917.4414">5-15: Reserved for future extensions.</text><text fill="#000000" font-family="sans-serif" font-size="14" lengthAdjust="spacing" textLength="309" x="1815" y="933.9297">16-23: Vendor specific measurement quality.</text><line style="stroke:#A80036;stroke-width:1.0;" x1="1810" x2="1810" y1="786.4883" y2="938.8828"/><line style="stroke:#A80036;stroke-width:1.0;" x1="1723" x2="2319" y1="938.8828" y2="938.8828"/><text fill="#000000" font-family="sans-serif" font-size="14" lengthAdjust="spacing" textLength="55" x="1728" y="954.418">writable</text><text fill="#000000" font-family="sans-serif" font-size="14" lengthAdjust="spacing" textLength="48" x="1815" y="954.418">☐ false</text><line style="stroke:#A80036;stroke-width:1.0;" x1="1810" x2="1810" y1="938.8828" y2="959.3711"/><line style="stroke:#A80036;stroke-width:1.0;" x1="1723" x2="2319" y1="959.3711" y2="959.3711"/><text fill="#000000" font-family="sans-serif" font-size="14" lengthAdjust="spacing" textLength="29" x="1728" y="974.9063">type</text><text fill="#000000" font-family="sans-serif" font-size="14" lengthAdjust="spacing" textLength="49" x="1815" y="974.9063">integer</text><line style="stroke:#A80036;stroke-width:1.0;" x1="1810" x2="1810" y1="959.3711" y2="979.8594"/><line style="stroke:#A80036;stroke-width:1.0;" x1="1723" x2="2319" y1="979.8594" y2="979.8594"/><text fill="#000000" font-family="sans-serif" font-size="14" lengthAdjust="spacing" textLength="65" x="1728" y="995.3945">minimum</text><text fill="#000000" font-family="sans-serif" font-size="14" lengthAdjust="spacing" textLength="9" x="1815" y="995.3945">0</text><line style="stroke:#A80036;stroke-width:1.0;" x1="1810" x2="1810" y1="979.8594" y2="1000.3477"/><line style="stroke:#A80036;stroke-width:1.0;" x1="1723" x2="2319" y1="1000.3477" y2="1000.3477"/><text fill="#000000" font-family="sans-serif" font-size="14" lengthAdjust="spacing" textLength="69" x="1728" y="1015.8828">maximum</text><text fill="#000000" font-family="sans-serif" font-size="14" lengthAdjust="spacing" textLength="18" x="1815" y="1015.8828">23</text><line style="stroke:#A80036;stroke-width:1.0;" x1="1810" x2="1810" y1="1000.3477" y2="1020.8359"/><rect fill="none" height="254.8359" rx="5" ry="5" style="stroke:#A80036;stroke-width:1.5;" width="596" x="1723" y="766"/><rect fill="#FEFECE" height="238.3477" rx="5" ry="5" style="stroke:#FEFECE;stroke-width:1.5;" width="585" x="1728.5" y="1039.5"/><text fill="#000000" font-family="sans-serif" font-size="14" lengthAdjust="spacing" textLength="33" x="1733.5" y="1055.0352">label</text><text fill="#000000" font-family="sans-serif" font-size="14" lengthAdjust="spacing" textLength="183" x="1820.5" y="1055.0352">Measurement Quality Level</text><line style="stroke:#A80036;stroke-width:1.0;" x1="1815.5" x2="1815.5" y1="1039.5" y2="1059.9883"/><line style="stroke:#A80036;stroke-width:1.0;" x1="1728.5" x2="2313.5" y1="1059.9883" y2="1059.9883"/><text fill="#000000" font-family="sans-serif" font-size="14" lengthAdjust="spacing" textLength="77" x="1733.5" y="1075.5234">description</text><text fill="#000000" font-family="sans-serif" font-size="14" lengthAdjust="spacing" textLength="458" x="1820.5" y="1075.5234">Measurement quality level reported by a smart sensor. Quality level</text><text fill="#000000" font-family="sans-serif" font-size="14" lengthAdjust="spacing" textLength="437" x="1820.5" y="1092.0117">100 means that the measurement has fully passed quality check</text><text fill="#000000" font-family="sans-serif" font-size="14" lengthAdjust="spacing" textLength="450" x="1820.5" y="1108.5">algorithms. Smaller quality levels mean that quality has decreased</text><text fill="#000000" font-family="sans-serif" font-size="14" lengthAdjust="spacing" textLength="415" x="1820.5" y="1124.9883">and the measurement has only partially passed quality check</text><text fill="#000000" font-family="sans-serif" font-size="14" lengthAdjust="spacing" textLength="470" x="1820.5" y="1141.4766">algorithms. The smaller the quality level, the more caution should be</text><text fill="#000000" font-family="sans-serif" font-size="14" lengthAdjust="spacing" textLength="488" x="1820.5" y="1157.9648">used by the application when using the measurement. When the quality</text><text fill="#000000" font-family="sans-serif" font-size="14" lengthAdjust="spacing" textLength="410" x="1820.5" y="1174.4531">level is 0 it means that the measurement should certainly be</text><text fill="#000000" font-family="sans-serif" font-size="14" lengthAdjust="spacing" textLength="59" x="1820.5" y="1190.9414">rejected.</text><line style="stroke:#A80036;stroke-width:1.0;" x1="1815.5" x2="1815.5" y1="1059.9883" y2="1195.8945"/><line style="stroke:#A80036;stroke-width:1.0;" x1="1728.5" x2="2313.5" y1="1195.8945" y2="1195.8945"/><text fill="#000000" font-family="sans-serif" font-size="14" lengthAdjust="spacing" textLength="55" x="1733.5" y="1211.4297">writable</text><text fill="#000000" font-family="sans-serif" font-size="14" lengthAdjust="spacing" textLength="48" x="1820.5" y="1211.4297">☐ false</text><line style="stroke:#A80036;stroke-width:1.0;" x1="1815.5" x2="1815.5" y1="1195.8945" y2="1216.3828"/><line style="stroke:#A80036;stroke-width:1.0;" x1="1728.5" x2="2313.5" y1="1216.3828" y2="1216.3828"/><text fill="#000000" font-family="sans-serif" font-size="14" lengthAdjust="spacing" textLength="29" x="1733.5" y="1231.918">type</text><text fill="#000000" font-family="sans-serif" font-size="14" lengthAdjust="spacing" textLength="49" x="1820.5" y="1231.918">integer</text><line style="stroke:#A80036;stroke-width:1.0;" x1="1815.5" x2="1815.5" y1="1216.3828" y2="1236.8711"/><line style="stroke:#A80036;stroke-width:1.0;" x1="1728.5" x2="2313.5" y1="1236.8711" y2="1236.8711"/><text fill="#000000" font-family="sans-serif" font-size="14" lengthAdjust="spacing" textLength="65" x="1733.5" y="1252.4063">minimum</text><text fill="#000000" font-family="sans-serif" font-size="14" lengthAdjust="spacing" textLength="9" x="1820.5" y="1252.4063">0</text><line style="stroke:#A80036;stroke-width:1.0;" x1="1815.5" x2="1815.5" y1="1236.8711" y2="1257.3594"/><line style="stroke:#A80036;stroke-width:1.0;" x1="1728.5" x2="2313.5" y1="1257.3594" y2="1257.3594"/><text fill="#000000" font-family="sans-serif" font-size="14" lengthAdjust="spacing" textLength="69" x="1733.5" y="1272.8945">maximum</text><text fill="#000000" font-family="sans-serif" font-size="14" lengthAdjust="spacing" textLength="27" x="1820.5" y="1272.8945">100</text><line style="stroke:#A80036;stroke-width:1.0;" x1="1815.5" x2="1815.5" y1="1257.3594" y2="1277.8477"/><rect fill="none" height="238.3477" rx="5" ry="5" style="stroke:#A80036;stroke-width:1.5;" width="585" x="1728.5" y="1039.5"/><rect fill="#FEFECE" height="20.4883" rx="5" ry="5" style="stroke:#FEFECE;stroke-width:1.5;" width="296" x="1345.5" y="957.5"/><text fill="#000000" font-family="sans-serif" font-size="14" lengthAdjust="spacing" textLength="264" x="1350.5" y="973.0352">Reset_Min_and_Max_Measured_Values</text><text fill="#000000" font-family="sans-serif" font-size="14" lengthAdjust="spacing" textLength="0" x="1636.5" y="973.0352"/><line style="stroke:#A80036;stroke-width:1.0;" x1="1619.5" x2="1619.5" y1="957.5" y2="977.9883"/><rect fill="none" height="20.4883" rx="5" ry="5" style="stroke:#A80036;stroke-width:1.5;" width="296" x="1345.5" y="957.5"/><rect fill="#FEFECE" height="40.9766" rx="5" ry="5" style="stroke:#FEFECE;stroke-width:1.5;" width="493" x="1774.5" y="1296"/><text fill="#000000" font-family="sans-serif" font-size="14" lengthAdjust="spacing" textLength="33" x="1779.5" y="1311.5352">label</text><text fill="#000000" font-family="sans-serif" font-size="14" lengthAdjust="spacing" textLength="249" x="1866.5" y="1311.5352">Reset Min and Max Measured Values</text><line style="stroke:#A80036;stroke-width:1.0;" x1="1861.5" x2="1861.5" y1="1296" y2="1316.4883"/><line style="stroke:#A80036;stroke-width:1.0;" x1="1774.5" x2="2267.5" y1="1316.4883" y2="1316.4883"/><text fill="#000000" font-family="sans-serif" font-size="14" lengthAdjust="spacing" textLength="77" x="1779.5" y="1332.0234">description</text><text fill="#000000" font-family="sans-serif" font-size="14" lengthAdjust="spacing" textLength="396" x="1866.5" y="1332.0234">Reset the Min and Max Measured Values to Current Value.</text><line style="stroke:#A80036;stroke-width:1.0;" x1="1861.5" x2="1861.5" y1="1316.4883" y2="1336.9766"/><rect fill="none" height="40.9766" rx="5" ry="5" style="stroke:#A80036;stroke-width:1.5;" width="493" x="1774.5" y="1296"/><rect fill="#FEFECE" height="20.4883" rx="5" ry="5" style="stroke:#FEFECE;stroke-width:1.5;" width="385" x="1301" y="995.5"/><text fill="#000000" font-family="sans-serif" font-size="14" lengthAdjust="spacing" textLength="375" x="1306" y="1011.0352">#/sdfObject/Direction/sdfProperty/Compass_Direction</text><rect fill="none" height="20.4883" rx="5" ry="5" style="stroke:#A80036;stroke-width:1.5;" width="385" x="1301" y="995.5"/><path d="M95,895.5 L108,895.5 C117.3406,895.5 126.8353,895.3896 136.4202,895.1839 " fill="none" style="stroke:#A80036;stroke-width:1.0;stroke-dasharray:3.0,3.0;"/><path d="M136.4943,898.2659 L138.7318,895.1283 L136.3462,892.1019 L144.1253,894.9987 L136.4943,898.2659 " fill="#A80036" style="stroke:#A80036;stroke-width:1.0;"/><ellipse cx="95" cy="895.5" fill="#A80036" rx="3" ry="3" style="stroke:#A80036;stroke-width:1.0;stroke-dasharray:3.0,3.0;"/><path d="M1606,436.5 L1619,436.5 C1749.2548,436.5 1626.5416,250.0334 1723,162.5 C1758.0877,130.6589 1804.4777,111.153 1850.1595,99.2589 " fill="none" style="stroke:#A80036;stroke-width:1.0;stroke-dasharray:3.0,3.0;"/><path d="M1850.8972,102.1884 L1852.3566,98.7056 L1849.4217,96.3294 L1857.4832,97.4146 L1850.8972,102.1884 " fill="#A80036" style="stroke:#A80036;stroke-width:1.0;"/><ellipse cx="1606" cy="436.5" fill="#A80036" rx="3" ry="3" style="stroke:#A80036;stroke-width:1.0;stroke-dasharray:3.0,3.0;"/><path d="M1606,456.5 L1619,456.5 C1716.8303,456.5 1643.5264,319.5501 1723,262.5 C1725.3168,260.8369 1727.6696,259.2219 1730.0559,257.6538 " fill="none" style="stroke:#A80036;stroke-width:1.0;stroke-dasharray:3.0,3.0;"/><path d="M1731.6729,260.211 L1731.9738,256.441 L1728.4389,255.0966 L1736.4489,253.6113 L1731.6729,260.211 " fill="#A80036" style="stroke:#A80036;stroke-width:1.0;"/><ellipse cx="1606" cy="456.5" fill="#A80036" rx="3" ry="3" style="stroke:#A80036;stroke-width:1.0;stroke-dasharray:3.0,3.0;"/><path d="M1606,477.5 L1619,477.5 C1687.9118,477.5 1662.5588,395.6014 1723,362.5 C1726.499,360.5837 1730.0532,358.7372 1733.6562,356.958 " fill="none" style="stroke:#A80036;stroke-width:1.0;stroke-dasharray:3.0,3.0;"/><path d="M1734.9919,359.7529 L1735.7524,355.9562 L1732.3205,354.1631 L1740.6434,353.6188 L1734.9919,359.7529 " fill="#A80036" style="stroke:#A80036;stroke-width:1.0;"/><ellipse cx="1606" cy="477.5" fill="#A80036" rx="3" ry="3" style="stroke:#A80036;stroke-width:1.0;stroke-dasharray:3.0,3.0;"/><path d="M1606,497.5 L1619,497.5 C1668.3654,497.5 1675.2858,471.1607 1723,458.5 C1732.4695,455.9873 1742.1456,453.5854 1751.9473,451.2914 " fill="none" style="stroke:#A80036;stroke-width:1.0;stroke-dasharray:3.0,3.0;"/><path d="M1752.6405,454.2989 L1754.2028,450.7715 L1751.254,448.284 L1759.4658,449.5583 L1752.6405,454.2989 " fill="#A80036" style="stroke:#A80036;stroke-width:1.0;"/><ellipse cx="1606" cy="497.5" fill="#A80036" rx="3" ry="3" style="stroke:#A80036;stroke-width:1.0;stroke-dasharray:3.0,3.0;"/><path d="M1606,518.5 L1619,518.5 C1666.9856,518.5 1718.1971,518.5 1767.4296,518.5 " fill="none" style="stroke:#A80036;stroke-width:1.0;stroke-dasharray:3.0,3.0;"/><path d="M1767.4296,521.5263 L1769.6993,518.5 L1767.4296,515.4737 L1774.9953,518.5 L1767.4296,521.5263 " fill="#A80036" style="stroke:#A80036;stroke-width:1.0;"/><ellipse cx="1606" cy="518.5" fill="#A80036" rx="3" ry="3" style="stroke:#A80036;stroke-width:1.0;stroke-dasharray:3.0,3.0;"/><path d="M1606,539.5 L1619,539.5 C1668.3654,539.5 1676.2146,562.7499 1723,578.5 C1729.4725,580.6789 1736.0329,582.8602 1742.6567,585.0381 " fill="none" style="stroke:#A80036;stroke-width:1.0;stroke-dasharray:3.0,3.0;"/><path d="M1741.712,587.9226 L1744.8201,585.7466 L1743.6014,582.1536 L1749.8679,587.3999 L1741.712,587.9226 " fill="#A80036" style="stroke:#A80036;stroke-width:1.0;"/><ellipse cx="1606" cy="539.5" fill="#A80036" rx="3" ry="3" style="stroke:#A80036;stroke-width:1.0;stroke-dasharray:3.0,3.0;"/><path d="M1606,559.5 L1619,559.5 C1718.0074,559.5 1651.1206,688.4131 1723,756.5 C1724.5965,758.0122 1726.2126,759.51 1727.8474,760.9935 " fill="none" style="stroke:#A80036;stroke-width:1.0;stroke-dasharray:3.0,3.0;"/><path d="M1725.8519,763.2451 L1729.5361,762.4901 L1729.8429,758.7419 L1733.4764,765.9822 L1725.8519,763.2451 " fill="#A80036" style="stroke:#A80036;stroke-width:1.0;"/><ellipse cx="1606" cy="559.5" fill="#A80036" rx="3" ry="3" style="stroke:#A80036;stroke-width:1.0;stroke-dasharray:3.0,3.0;"/><path d="M1607,578.5 L1607,591.5 C1607,641.9519 1690.0599,992.2856 1723,1030.5 C1723.8834,1031.5248 1724.7764,1032.5416 1725.6788,1033.5506 " fill="none" style="stroke:#A80036;stroke-width:1.0;stroke-dasharray:3.0,3.0;"/><path d="M1723.4018,1035.6585 L1727.2597,1035.2583 L1727.9558,1031.4427 L1730.9486,1039.2431 L1723.4018,1035.6585 " fill="#A80036" style="stroke:#A80036;stroke-width:1.0;"/><ellipse cx="1607" cy="578.5" fill="#A80036" rx="3" ry="3" style="stroke:#A80036;stroke-width:1.0;stroke-dasharray:3.0,3.0;"/><path d="M1252,940.5 L1265,940.5 C1418.5127,940.5 1468.9256,724.5007 1485.2876,597.9707 " fill="none" style="stroke:#A80036;stroke-width:1.0;stroke-dasharray:3.0,3.0;"/><path d="M1488.2686,598.3459 L1485.5689,595.735 L1482.3065,597.5956 L1486.2254,590.5181 L1488.2686,598.3459 " fill="#A80036" style="stroke:#A80036;stroke-width:1.0;"/><ellipse cx="1252" cy="940.5" fill="#A80036" rx="3" ry="3" style="stroke:#A80036;stroke-width:1.0;stroke-dasharray:3.0,3.0;"/><path d="M1630,967.5 L1643,967.5 C1804.9435,967.5 1647.3885,1212.3063 1723,1286.5 C1736.1305,1299.3843 1751.3265,1309.2763 1767.7646,1316.7577 " fill="none" style="stroke:#A80036;stroke-width:1.0;stroke-dasharray:3.0,3.0;"/><path d="M1766.5404,1319.6051 L1769.9001,1317.6758 L1768.9887,1313.9103 L1774.8831,1319.8181 L1766.5404,1319.6051 " fill="#A80036" style="stroke:#A80036;stroke-width:1.0;"/><ellipse cx="1630" cy="967.5" fill="#A80036" rx="3" ry="3" style="stroke:#A80036;stroke-width:1.0;stroke-dasharray:3.0,3.0;"/><path d="M1252,967.5 L1265,967.5 C1288.6758,967.5 1313.7345,967.5 1338.2374,967.5 " fill="none" style="stroke:#A80036;stroke-width:1.0;stroke-dasharray:3.0,3.0;"/><path d="M1338.2374,970.5338 L1340.5128,967.5 L1338.2374,964.4662 L1345.8218,967.5 L1338.2374,970.5338 " fill="#A80036" style="stroke:#A80036;stroke-width:1.0;"/><ellipse cx="1252" cy="967.5" fill="#A80036" rx="3" ry="3" style="stroke:#A80036;stroke-width:1.0;stroke-dasharray:3.0,3.0;"/><path d="M1252,994.5 L1265,994.5 C1281.3239,994.5 1298.2976,994.7848 1315.2893,995.2627 " fill="none" style="stroke:#A80036;stroke-width:1.0;stroke-dasharray:3.0,3.0;"/><path d="M1315.1962,998.3851 L1317.6311,995.3326 L1315.3824,992.1403 L1323.0953,995.4956 L1315.1962,998.3851 " fill="#A80036" style="stroke:#A80036;stroke-width:1.0;"/><ellipse cx="1252" cy="994.5" fill="#A80036" rx="3" ry="3" style="stroke:#A80036;stroke-width:1.0;stroke-dasharray:3.0,3.0;"/><path d="M453,940.5 L466,940.5 C548.5979,940.5 638.4435,940.5 720.2739,940.5 " fill="none" style="stroke:#A80036;stroke-width:1.0;stroke-dasharray:3.0,3.0;"/><path d="M720.2739,943.6574 L722.6419,940.5 L720.2739,937.3426 L728.1674,940.5 L720.2739,943.6574 " fill="#A80036" style="stroke:#A80036;stroke-width:1.0;"/><ellipse cx="453" cy="940.5" fill="#A80036" rx="3" ry="3" style="stroke:#A80036;stroke-width:1.0;stroke-dasharray:3.0,3.0;"/><path d="M95,916.5 L108,916.5 C124.1536,916.5 127.9333,919.8271 144,921.5 C219.8222,929.3946 307.8437,934.8569 362.9862,937.8347 " fill="none" style="stroke:#A80036;stroke-width:1.0;stroke-dasharray:3.0,3.0;"/><path d="M362.8247,940.8579 L365.2536,937.9558 L363.1477,934.8115 L370.5441,938.2384 L362.8247,940.8579 " fill="#A80036" style="stroke:#A80036;stroke-width:1.0;"/><ellipse cx="95" cy="916.5" fill="#A80036" rx="3" ry="3" style="stroke:#A80036;stroke-width:1.0;stroke-dasharray:3.0,3.0;"/><!--MD5=[af7864aef04683092c565fa61fc2bdad]
@startjson
{
  "info": {
    "title": "OMA LwM2M Direction (Object ID 3332)",
    "version": "2021-02-11",
    "copyright": "Copyright (c) 2018-2020 IPSO",
    "license": "https://github.com/one-data-model/oneDM/blob/master/LICENSE"
  },
  "sdfObject": {
    "Direction": {
      "label": "Direction",
      "description": "This IPSO object is used to report the direction indicated by a\\ncompass, wind vane, or other directional indicator. The units of\\nmeasure is plane angle degrees.",
      "sdfProperty": {
        "Compass_Direction": {
          "label": "Compass Direction",
          "description": "The measured compass direction.",
          "writable": false,
          "type": "number",
          "unit": "deg",
          "minimum": 0,
          "maximum": 360
        },
        "Min_Measured_Value": {
          "label": "Min Measured Value",
          "description": "The minimum value measured by the sensor since power ON or reset.",
          "writable": false,
          "type": "number"
        },
        "Max_Measured_Value": {
          "label": "Max Measured Value",
          "description": "The maximum value measured by the sensor since power ON or reset.",
          "writable": false,
          "type": "number"
        },
        "Application_Type": {
          "label": "Application Type",
          "description": "The application type of the sensor or actuator as a string depending\\non the use case.",
          "type": "string"
        },
        "Timestamp": {
          "label": "Timestamp",
          "description": "The timestamp of when the measurement was performed.",
          "writable": false,
          "type": "number",
          "sdfType": "unix-time"
        },
        "Fractional_Timestamp": {
          "label": "Fractional Timestamp",
          "description": "Fractional part of the timestamp when sub-second precision is used\\n(e.g., 0.23 for 230 ms).",
          "writable": false,
          "type": "number",
          "unit": "s",
          "minimum": 0,
          "maximum": 1
        },
        "Measurement_Quality_Indicator": {
          "label": "Measurement Quality Indicator",
          "description": "Measurement quality indicator reported by a smart sensor.\\n0: UNCHECKED No quality checks were done because they do not exist or\\ncan not be applied.\\n1: REJECTED WITH CERTAINTY The measured value is invalid.\\n2: REJECTED WITH PROBABILITY The measured value is likely invalid.\\n3: ACCEPTED BUT SUSPICIOUS The measured value is likely OK.\\n4: ACCEPTED The measured value is OK.\\n5-15: Reserved for future extensions.\\n16-23: Vendor specific measurement quality.",
          "writable": false,
          "type": "integer",
          "minimum": 0,
          "maximum": 23
        },
        "Measurement_Quality_Level": {
          "label": "Measurement Quality Level",
          "description": "Measurement quality level reported by a smart sensor. Quality level\\n100 means that the measurement has fully passed quality check\\nalgorithms. Smaller quality levels mean that quality has decreased\\nand the measurement has only partially passed quality check\\nalgorithms. The smaller the quality level, the more caution should be\\nused by the application when using the measurement. When the quality\\nlevel is 0 it means that the measurement should certainly be\\nrejected.",
          "writable": false,
          "type": "integer",
          "minimum": 0,
          "maximum": 100
        }
      },
      "sdfAction": {
        "Reset_Min_and_Max_Measured_Values": {
          "label": "Reset Min and Max Measured Values",
          "description": "Reset the Min and Max Measured Values to Current Value."
        }
      },
      "sdfRequired": [
        "#/sdfObject/Direction/sdfProperty/Compass_Direction"
      ]
    }
  }
}
@endjson

PlantUML version 1.2021.2(Sun Mar 07 13:10:27 EET 2021)
(GPL source distribution)
Java Runtime: OpenJDK Runtime Environment
JVM: OpenJDK 64-Bit Server VM
Default Encoding: UTF-8
Language: en
Country: FI
--></g></svg>