<?xml version="1.0" encoding="UTF-8" standalone="no"?><svg xmlns="http://www.w3.org/2000/svg" xmlns:xlink="http://www.w3.org/1999/xlink" contentScriptType="application/ecmascript" contentStyleType="text/css" height="656px" preserveAspectRatio="none" style="width:2448px;height:656px;" version="1.1" viewBox="0 0 2448 656" width="2448px" zoomAndPan="magnify"><defs/><g><rect fill="#FEFECE" height="40.9766" rx="5" ry="5" style="stroke:#FEFECE;stroke-width:1.5;" width="97" x="10" y="269.5"/><text fill="#000000" font-family="sans-serif" font-size="14" lengthAdjust="spacing" textLength="27" x="15" y="285.0352">info</text><text fill="#000000" font-family="sans-serif" font-size="14" lengthAdjust="spacing" textLength="0" x="102" y="285.0352"/><line style="stroke:#A80036;stroke-width:1.0;" x1="85" x2="85" y1="269.5" y2="289.9883"/><line style="stroke:#A80036;stroke-width:1.0;" x1="10" x2="107" y1="289.9883" y2="289.9883"/><text fill="#000000" font-family="sans-serif" font-size="14" lengthAdjust="spacing" textLength="65" x="15" y="305.5234">sdfObject</text><text fill="#000000" font-family="sans-serif" font-size="14" lengthAdjust="spacing" textLength="0" x="102" y="305.5234"/><line style="stroke:#A80036;stroke-width:1.0;" x1="85" x2="85" y1="289.9883" y2="310.4766"/><rect fill="none" height="40.9766" rx="5" ry="5" style="stroke:#A80036;stroke-width:1.5;" width="97" x="10" y="269.5"/><rect fill="#FEFECE" height="81.9531" rx="5" ry="5" style="stroke:#FEFECE;stroke-width:1.5;" width="614" x="144" y="214"/><text fill="#000000" font-family="sans-serif" font-size="14" lengthAdjust="spacing" textLength="65" x="149" y="229.5352">copyright</text><text fill="#000000" font-family="sans-serif" font-size="14" lengthAdjust="spacing" textLength="529" x="224" y="229.5352">Copyright 2016-2019 Open Connectivity Foundation, Inc. All rights reserved.</text><line style="stroke:#A80036;stroke-width:1.0;" x1="219" x2="219" y1="214" y2="234.4883"/><line style="stroke:#A80036;stroke-width:1.0;" x1="144" x2="758" y1="234.4883" y2="234.4883"/><text fill="#000000" font-family="sans-serif" font-size="14" lengthAdjust="spacing" textLength="47" x="149" y="250.0234">license</text><text fill="#000000" font-family="sans-serif" font-size="14" lengthAdjust="spacing" textLength="462" x="224" y="250.0234">https://github.com/one-data-model/oneDM/blob/master/LICENSE</text><line style="stroke:#A80036;stroke-width:1.0;" x1="219" x2="219" y1="234.4883" y2="254.9766"/><line style="stroke:#A80036;stroke-width:1.0;" x1="144" x2="758" y1="254.9766" y2="254.9766"/><text fill="#000000" font-family="sans-serif" font-size="14" lengthAdjust="spacing" textLength="26" x="149" y="270.5117">title</text><text fill="#000000" font-family="sans-serif" font-size="14" lengthAdjust="spacing" textLength="54" x="224" y="270.5117">Glucose</text><line style="stroke:#A80036;stroke-width:1.0;" x1="219" x2="219" y1="254.9766" y2="275.4648"/><line style="stroke:#A80036;stroke-width:1.0;" x1="144" x2="758" y1="275.4648" y2="275.4648"/><text fill="#000000" font-family="sans-serif" font-size="14" lengthAdjust="spacing" textLength="50" x="149" y="291">version</text><text fill="#000000" font-family="sans-serif" font-size="14" lengthAdjust="spacing" textLength="88" x="224" y="291">2019-03-22</text><line style="stroke:#A80036;stroke-width:1.0;" x1="219" x2="219" y1="275.4648" y2="295.9531"/><rect fill="none" height="81.9531" rx="5" ry="5" style="stroke:#A80036;stroke-width:1.5;" width="614" x="144" y="214"/><rect fill="#FEFECE" height="20.4883" rx="5" ry="5" style="stroke:#FEFECE;stroke-width:1.5;" width="85" x="408.5" y="314"/><text fill="#000000" font-family="sans-serif" font-size="14" lengthAdjust="spacing" textLength="53" x="413.5" y="329.5352">glucose</text><text fill="#000000" font-family="sans-serif" font-size="14" lengthAdjust="spacing" textLength="0" x="488.5" y="329.5352"/><line style="stroke:#A80036;stroke-width:1.0;" x1="471.5" x2="471.5" y1="314" y2="334.4883"/><rect fill="none" height="20.4883" rx="5" ry="5" style="stroke:#A80036;stroke-width:1.5;" width="85" x="408.5" y="314"/><rect fill="#FEFECE" height="143.9063" rx="5" ry="5" style="stroke:#FEFECE;stroke-width:1.5;" width="560" x="795" y="252"/><text fill="#000000" font-family="sans-serif" font-size="14" lengthAdjust="spacing" textLength="77" x="800" y="267.5352">description</text><text fill="#000000" font-family="sans-serif" font-size="14" lengthAdjust="spacing" textLength="448" x="893" y="267.5352">This Resource describes the Properties associated with a person's</text><text fill="#000000" font-family="sans-serif" font-size="14" lengthAdjust="spacing" textLength="412" x="893" y="284.0234">glucose level. The unit is a single value that is one of mg/dL,</text><text fill="#000000" font-family="sans-serif" font-size="14" lengthAdjust="spacing" textLength="457" x="893" y="300.5117">mmol/L. If the unit Property is missing the default is milligrams per</text><text fill="#000000" font-family="sans-serif" font-size="14" lengthAdjust="spacing" textLength="438" x="893" y="317">decilitre [mg/dL]. The glucose and unit Properties are read-only</text><text fill="#000000" font-family="sans-serif" font-size="14" lengthAdjust="spacing" textLength="446" x="893" y="333.4883">values that are provided by the Server. When range is omitted the</text><text fill="#000000" font-family="sans-serif" font-size="14" lengthAdjust="spacing" textLength="189" x="893" y="349.9766">default is 0 to +MAXFLOAT.</text><line style="stroke:#A80036;stroke-width:1.0;" x1="888" x2="888" y1="252" y2="354.9297"/><line style="stroke:#A80036;stroke-width:1.0;" x1="795" x2="1355" y1="354.9297" y2="354.9297"/><text fill="#000000" font-family="sans-serif" font-size="14" lengthAdjust="spacing" textLength="79" x="800" y="370.4648">sdfProperty</text><text fill="#000000" font-family="sans-serif" font-size="14" lengthAdjust="spacing" textLength="0" x="905" y="370.4648"/><line style="stroke:#A80036;stroke-width:1.0;" x1="888" x2="888" y1="354.9297" y2="375.418"/><line style="stroke:#A80036;stroke-width:1.0;" x1="795" x2="1355" y1="375.418" y2="375.418"/><text fill="#000000" font-family="sans-serif" font-size="14" lengthAdjust="spacing" textLength="83" x="800" y="390.9531">sdfRequired</text><text fill="#000000" font-family="sans-serif" font-size="14" lengthAdjust="spacing" textLength="0" x="905" y="390.9531"/><line style="stroke:#A80036;stroke-width:1.0;" x1="888" x2="888" y1="375.418" y2="395.9063"/><rect fill="none" height="143.9063" rx="5" ry="5" style="stroke:#A80036;stroke-width:1.5;" width="560" x="795" y="252"/><rect fill="#FEFECE" height="102.4414" rx="5" ry="5" style="stroke:#FEFECE;stroke-width:1.5;" width="95" x="1493" y="258"/><text fill="#000000" font-family="sans-serif" font-size="14" lengthAdjust="spacing" textLength="53" x="1498" y="273.5352">glucose</text><text fill="#000000" font-family="sans-serif" font-size="14" lengthAdjust="spacing" textLength="0" x="1583" y="273.5352"/><line style="stroke:#A80036;stroke-width:1.0;" x1="1566" x2="1566" y1="258" y2="278.4883"/><line style="stroke:#A80036;stroke-width:1.0;" x1="1493" x2="1588" y1="278.4883" y2="278.4883"/><text fill="#000000" font-family="sans-serif" font-size="14" lengthAdjust="spacing" textLength="34" x="1498" y="294.0234">units</text><text fill="#000000" font-family="sans-serif" font-size="14" lengthAdjust="spacing" textLength="0" x="1583" y="294.0234"/><line style="stroke:#A80036;stroke-width:1.0;" x1="1566" x2="1566" y1="278.4883" y2="298.9766"/><line style="stroke:#A80036;stroke-width:1.0;" x1="1493" x2="1588" y1="298.9766" y2="298.9766"/><text fill="#000000" font-family="sans-serif" font-size="14" lengthAdjust="spacing" textLength="40" x="1498" y="314.5117">range</text><text fill="#000000" font-family="sans-serif" font-size="14" lengthAdjust="spacing" textLength="0" x="1583" y="314.5117"/><line style="stroke:#A80036;stroke-width:1.0;" x1="1566" x2="1566" y1="298.9766" y2="319.4648"/><line style="stroke:#A80036;stroke-width:1.0;" x1="1493" x2="1588" y1="319.4648" y2="319.4648"/><text fill="#000000" font-family="sans-serif" font-size="14" lengthAdjust="spacing" textLength="29" x="1498" y="335">step</text><text fill="#000000" font-family="sans-serif" font-size="14" lengthAdjust="spacing" textLength="0" x="1583" y="335"/><line style="stroke:#A80036;stroke-width:1.0;" x1="1566" x2="1566" y1="319.4648" y2="339.9531"/><line style="stroke:#A80036;stroke-width:1.0;" x1="1493" x2="1588" y1="339.9531" y2="339.9531"/><text fill="#000000" font-family="sans-serif" font-size="14" lengthAdjust="spacing" textLength="63" x="1498" y="355.4883">precision</text><text fill="#000000" font-family="sans-serif" font-size="14" lengthAdjust="spacing" textLength="0" x="1583" y="355.4883"/><line style="stroke:#A80036;stroke-width:1.0;" x1="1566" x2="1566" y1="339.9531" y2="360.4414"/><rect fill="none" height="102.4414" rx="5" ry="5" style="stroke:#A80036;stroke-width:1.5;" width="95" x="1493" y="258"/><rect fill="#FEFECE" height="81.9531" rx="5" ry="5" style="stroke:#FEFECE;stroke-width:1.5;" width="466" x="1778" y="10"/><text fill="#000000" font-family="sans-serif" font-size="14" lengthAdjust="spacing" textLength="77" x="1783" y="25.5352">description</text><text fill="#000000" font-family="sans-serif" font-size="14" lengthAdjust="spacing" textLength="369" x="1870" y="25.5352">A measurement of glucose concentration in the blood</text><line style="stroke:#A80036;stroke-width:1.0;" x1="1865" x2="1865" y1="10" y2="30.4883"/><line style="stroke:#A80036;stroke-width:1.0;" x1="1778" x2="2244" y1="30.4883" y2="30.4883"/><text fill="#000000" font-family="sans-serif" font-size="14" lengthAdjust="spacing" textLength="65" x="1783" y="46.0234">minimum</text><text fill="#000000" font-family="sans-serif" font-size="14" lengthAdjust="spacing" textLength="9" x="1870" y="46.0234">0</text><line style="stroke:#A80036;stroke-width:1.0;" x1="1865" x2="1865" y1="30.4883" y2="50.9766"/><line style="stroke:#A80036;stroke-width:1.0;" x1="1778" x2="2244" y1="50.9766" y2="50.9766"/><text fill="#000000" font-family="sans-serif" font-size="14" lengthAdjust="spacing" textLength="55" x="1783" y="66.5117">writable</text><text fill="#000000" font-family="sans-serif" font-size="14" lengthAdjust="spacing" textLength="48" x="1870" y="66.5117">☐ false</text><line style="stroke:#A80036;stroke-width:1.0;" x1="1865" x2="1865" y1="50.9766" y2="71.4648"/><line style="stroke:#A80036;stroke-width:1.0;" x1="1778" x2="2244" y1="71.4648" y2="71.4648"/><text fill="#000000" font-family="sans-serif" font-size="14" lengthAdjust="spacing" textLength="29" x="1783" y="87">type</text><text fill="#000000" font-family="sans-serif" font-size="14" lengthAdjust="spacing" textLength="54" x="1870" y="87">number</text><line style="stroke:#A80036;stroke-width:1.0;" x1="1865" x2="1865" y1="71.4648" y2="91.9531"/><rect fill="none" height="81.9531" rx="5" ry="5" style="stroke:#A80036;stroke-width:1.5;" width="466" x="1778" y="10"/><rect fill="#FEFECE" height="102.4414" rx="5" ry="5" style="stroke:#FEFECE;stroke-width:1.5;" width="182" x="1920" y="110"/><text fill="#000000" font-family="sans-serif" font-size="14" lengthAdjust="spacing" textLength="77" x="1925" y="125.5352">description</text><text fill="#000000" font-family="sans-serif" font-size="14" lengthAdjust="spacing" textLength="85" x="2012" y="125.5352">Glucose unit</text><line style="stroke:#A80036;stroke-width:1.0;" x1="2007" x2="2007" y1="110" y2="130.4883"/><line style="stroke:#A80036;stroke-width:1.0;" x1="1920" x2="2102" y1="130.4883" y2="130.4883"/><text fill="#000000" font-family="sans-serif" font-size="14" lengthAdjust="spacing" textLength="39" x="1925" y="146.0234">enum</text><text fill="#000000" font-family="sans-serif" font-size="14" lengthAdjust="spacing" textLength="0" x="2024" y="146.0234"/><line style="stroke:#A80036;stroke-width:1.0;" x1="2007" x2="2007" y1="130.4883" y2="150.9766"/><line style="stroke:#A80036;stroke-width:1.0;" x1="1920" x2="2102" y1="150.9766" y2="150.9766"/><text fill="#000000" font-family="sans-serif" font-size="14" lengthAdjust="spacing" textLength="55" x="1925" y="166.5117">writable</text><text fill="#000000" font-family="sans-serif" font-size="14" lengthAdjust="spacing" textLength="48" x="2012" y="166.5117">☐ false</text><line style="stroke:#A80036;stroke-width:1.0;" x1="2007" x2="2007" y1="150.9766" y2="171.4648"/><line style="stroke:#A80036;stroke-width:1.0;" x1="1920" x2="2102" y1="171.4648" y2="171.4648"/><text fill="#000000" font-family="sans-serif" font-size="14" lengthAdjust="spacing" textLength="29" x="1925" y="187">type</text><text fill="#000000" font-family="sans-serif" font-size="14" lengthAdjust="spacing" textLength="40" x="2012" y="187">string</text><line style="stroke:#A80036;stroke-width:1.0;" x1="2007" x2="2007" y1="171.4648" y2="191.9531"/><line style="stroke:#A80036;stroke-width:1.0;" x1="1920" x2="2102" y1="191.9531" y2="191.9531"/><text fill="#000000" font-family="sans-serif" font-size="14" lengthAdjust="spacing" textLength="48" x="1925" y="207.4883">default</text><text fill="#000000" font-family="sans-serif" font-size="14" lengthAdjust="spacing" textLength="45" x="2012" y="207.4883">mg/dL</text><line style="stroke:#A80036;stroke-width:1.0;" x1="2007" x2="2007" y1="191.9531" y2="212.4414"/><rect fill="none" height="102.4414" rx="5" ry="5" style="stroke:#A80036;stroke-width:1.5;" width="182" x="1920" y="110"/><rect fill="#FEFECE" height="40.9766" rx="5" ry="5" style="stroke:#FEFECE;stroke-width:1.5;" width="63" x="2353" y="119.5"/><text fill="#000000" font-family="sans-serif" font-size="14" lengthAdjust="spacing" textLength="45" x="2358" y="135.0352">mg/dL</text><line style="stroke:#A80036;stroke-width:1.0;" x1="2353" x2="2416" y1="139.9883" y2="139.9883"/><text fill="#000000" font-family="sans-serif" font-size="14" lengthAdjust="spacing" textLength="53" x="2358" y="155.5234">mmol/L</text><rect fill="none" height="40.9766" rx="5" ry="5" style="stroke:#A80036;stroke-width:1.5;" width="63" x="2353" y="119.5"/><rect fill="#FEFECE" height="155.9063" rx="5" ry="5" style="stroke:#FEFECE;stroke-width:1.5;" width="548" x="1737" y="230"/><text fill="#000000" font-family="sans-serif" font-size="14" lengthAdjust="spacing" textLength="29" x="1742" y="245.5352">type</text><text fill="#000000" font-family="sans-serif" font-size="14" lengthAdjust="spacing" textLength="35" x="1829" y="245.5352">array</text><line style="stroke:#A80036;stroke-width:1.0;" x1="1824" x2="1824" y1="230" y2="250.4883"/><line style="stroke:#A80036;stroke-width:1.0;" x1="1737" x2="2285" y1="250.4883" y2="250.4883"/><text fill="#000000" font-family="sans-serif" font-size="14" lengthAdjust="spacing" textLength="77" x="1742" y="266.0234">description</text><text fill="#000000" font-family="sans-serif" font-size="14" lengthAdjust="spacing" textLength="451" x="1829" y="266.0234">The valid range for the Property in the Resource as a number. The</text><text fill="#000000" font-family="sans-serif" font-size="14" lengthAdjust="spacing" textLength="439" x="1829" y="282.5117">first value in the array is the minimum value, the second value in</text><text fill="#000000" font-family="sans-serif" font-size="14" lengthAdjust="spacing" textLength="219" x="1829" y="299">the array is the maximum value.</text><line style="stroke:#A80036;stroke-width:1.0;" x1="1824" x2="1824" y1="250.4883" y2="303.9531"/><line style="stroke:#A80036;stroke-width:1.0;" x1="1737" x2="2285" y1="303.9531" y2="303.9531"/><text fill="#000000" font-family="sans-serif" font-size="14" lengthAdjust="spacing" textLength="55" x="1742" y="319.4883">writable</text><text fill="#000000" font-family="sans-serif" font-size="14" lengthAdjust="spacing" textLength="48" x="1829" y="319.4883">☐ false</text><line style="stroke:#A80036;stroke-width:1.0;" x1="1824" x2="1824" y1="303.9531" y2="324.4414"/><line style="stroke:#A80036;stroke-width:1.0;" x1="1737" x2="2285" y1="324.4414" y2="324.4414"/><text fill="#000000" font-family="sans-serif" font-size="14" lengthAdjust="spacing" textLength="63" x="1742" y="339.9766">minItems</text><text fill="#000000" font-family="sans-serif" font-size="14" lengthAdjust="spacing" textLength="9" x="1829" y="339.9766">2</text><line style="stroke:#A80036;stroke-width:1.0;" x1="1824" x2="1824" y1="324.4414" y2="344.9297"/><line style="stroke:#A80036;stroke-width:1.0;" x1="1737" x2="2285" y1="344.9297" y2="344.9297"/><text fill="#000000" font-family="sans-serif" font-size="14" lengthAdjust="spacing" textLength="67" x="1742" y="360.4648">maxItems</text><text fill="#000000" font-family="sans-serif" font-size="14" lengthAdjust="spacing" textLength="9" x="1829" y="360.4648">2</text><line style="stroke:#A80036;stroke-width:1.0;" x1="1824" x2="1824" y1="344.9297" y2="365.418"/><line style="stroke:#A80036;stroke-width:1.0;" x1="1737" x2="2285" y1="365.418" y2="365.418"/><text fill="#000000" font-family="sans-serif" font-size="14" lengthAdjust="spacing" textLength="37" x="1742" y="380.9531">items</text><text fill="#000000" font-family="sans-serif" font-size="14" lengthAdjust="spacing" textLength="0" x="1841" y="380.9531"/><line style="stroke:#A80036;stroke-width:1.0;" x1="1824" x2="1824" y1="365.418" y2="385.9063"/><rect fill="none" height="155.9063" rx="5" ry="5" style="stroke:#A80036;stroke-width:1.5;" width="548" x="1737" y="230"/><rect fill="#FEFECE" height="20.4883" rx="5" ry="5" style="stroke:#FEFECE;stroke-width:1.5;" width="103" x="2333" y="363"/><text fill="#000000" font-family="sans-serif" font-size="14" lengthAdjust="spacing" textLength="29" x="2338" y="378.5352">type</text><text fill="#000000" font-family="sans-serif" font-size="14" lengthAdjust="spacing" textLength="54" x="2377" y="378.5352">number</text><line style="stroke:#A80036;stroke-width:1.0;" x1="2372" x2="2372" y1="363" y2="383.4883"/><rect fill="none" height="20.4883" rx="5" ry="5" style="stroke:#A80036;stroke-width:1.5;" width="103" x="2333" y="363"/><rect fill="#FEFECE" height="110.9297" rx="5" ry="5" style="stroke:#FEFECE;stroke-width:1.5;" width="555" x="1733.5" y="404.5"/><text fill="#000000" font-family="sans-serif" font-size="14" lengthAdjust="spacing" textLength="77" x="1738.5" y="420.0352">description</text><text fill="#000000" font-family="sans-serif" font-size="14" lengthAdjust="spacing" textLength="456" x="1825.5" y="420.0352">Step value across the defined range an integer when the range is a</text><text fill="#000000" font-family="sans-serif" font-size="14" lengthAdjust="spacing" textLength="458" x="1825.5" y="436.5234">number.  This is the increment for valid values across the range; so</text><text fill="#000000" font-family="sans-serif" font-size="14" lengthAdjust="spacing" textLength="381" x="1825.5" y="453.0117">if range is 0.0..10.0 and step is 2.5 then valid values are</text><text fill="#000000" font-family="sans-serif" font-size="14" lengthAdjust="spacing" textLength="139" x="1825.5" y="469.5">0.0,2.5,5.0,7.5,10.0.</text><line style="stroke:#A80036;stroke-width:1.0;" x1="1820.5" x2="1820.5" y1="404.5" y2="474.4531"/><line style="stroke:#A80036;stroke-width:1.0;" x1="1733.5" x2="2288.5" y1="474.4531" y2="474.4531"/><text fill="#000000" font-family="sans-serif" font-size="14" lengthAdjust="spacing" textLength="55" x="1738.5" y="489.9883">writable</text><text fill="#000000" font-family="sans-serif" font-size="14" lengthAdjust="spacing" textLength="48" x="1825.5" y="489.9883">☐ false</text><line style="stroke:#A80036;stroke-width:1.0;" x1="1820.5" x2="1820.5" y1="474.4531" y2="494.9414"/><line style="stroke:#A80036;stroke-width:1.0;" x1="1733.5" x2="2288.5" y1="494.9414" y2="494.9414"/><text fill="#000000" font-family="sans-serif" font-size="14" lengthAdjust="spacing" textLength="29" x="1738.5" y="510.4766">type</text><text fill="#000000" font-family="sans-serif" font-size="14" lengthAdjust="spacing" textLength="54" x="1825.5" y="510.4766">number</text><line style="stroke:#A80036;stroke-width:1.0;" x1="1820.5" x2="1820.5" y1="494.9414" y2="515.4297"/><rect fill="none" height="110.9297" rx="5" ry="5" style="stroke:#A80036;stroke-width:1.5;" width="555" x="1733.5" y="404.5"/><rect fill="#FEFECE" height="110.9297" rx="5" ry="5" style="stroke:#FEFECE;stroke-width:1.5;" width="570" x="1726" y="533.5"/><text fill="#000000" font-family="sans-serif" font-size="14" lengthAdjust="spacing" textLength="29" x="1731" y="549.0352">type</text><text fill="#000000" font-family="sans-serif" font-size="14" lengthAdjust="spacing" textLength="54" x="1818" y="549.0352">number</text><line style="stroke:#A80036;stroke-width:1.0;" x1="1813" x2="1813" y1="533.5" y2="553.9883"/><line style="stroke:#A80036;stroke-width:1.0;" x1="1726" x2="2296" y1="553.9883" y2="553.9883"/><text fill="#000000" font-family="sans-serif" font-size="14" lengthAdjust="spacing" textLength="55" x="1731" y="569.5234">writable</text><text fill="#000000" font-family="sans-serif" font-size="14" lengthAdjust="spacing" textLength="48" x="1818" y="569.5234">☐ false</text><line style="stroke:#A80036;stroke-width:1.0;" x1="1813" x2="1813" y1="553.9883" y2="574.4766"/><line style="stroke:#A80036;stroke-width:1.0;" x1="1726" x2="2296" y1="574.4766" y2="574.4766"/><text fill="#000000" font-family="sans-serif" font-size="14" lengthAdjust="spacing" textLength="77" x="1731" y="590.0117">description</text><text fill="#000000" font-family="sans-serif" font-size="14" lengthAdjust="spacing" textLength="430" x="1818" y="590.0117">When exposed the value in 'precision' provides a +/- tolerance</text><text fill="#000000" font-family="sans-serif" font-size="14" lengthAdjust="spacing" textLength="473" x="1818" y="606.5">against the Properties in the Resource. Thus if a Property is UPDATED</text><text fill="#000000" font-family="sans-serif" font-size="14" lengthAdjust="spacing" textLength="465" x="1818" y="622.9883">to a value and that Property then RETRIEVED, the RETRIEVED value is</text><text fill="#000000" font-family="sans-serif" font-size="14" lengthAdjust="spacing" textLength="337" x="1818" y="639.4766">valid if in the range of the set value +/- precision</text><line style="stroke:#A80036;stroke-width:1.0;" x1="1813" x2="1813" y1="574.4766" y2="644.4297"/><rect fill="none" height="110.9297" rx="5" ry="5" style="stroke:#A80036;stroke-width:1.5;" width="570" x="1726" y="533.5"/><rect fill="#FEFECE" height="20.4883" rx="5" ry="5" style="stroke:#FEFECE;stroke-width:1.5;" width="297" x="1392" y="378"/><text fill="#000000" font-family="sans-serif" font-size="14" lengthAdjust="spacing" textLength="287" x="1397" y="393.5352">#/sdfObject/glucose/sdfProperty/glucose</text><rect fill="none" height="20.4883" rx="5" ry="5" style="stroke:#A80036;stroke-width:1.5;" width="297" x="1392" y="378"/><path d="M95,279 L108,279 C117.4068,279 126.9554,278.9088 136.5926,278.7376 " fill="none" style="stroke:#A80036;stroke-width:1.0;stroke-dasharray:3.0,3.0;"/><path d="M136.6543,281.8363 L138.9166,278.6914 L136.5309,275.6389 L144.3394,278.5834 L136.6543,281.8363 " fill="#A80036" style="stroke:#A80036;stroke-width:1.0;"/><ellipse cx="95" cy="279" fill="#A80036" rx="3" ry="3" style="stroke:#A80036;stroke-width:1.0;stroke-dasharray:3.0,3.0;"/><path d="M1577,268 L1590,268 C1685.7208,268 1643.4435,149.4447 1726,101 C1740.1593,92.6913 1755.3495,85.6899 1771.0755,79.7974 " fill="none" style="stroke:#A80036;stroke-width:1.0;stroke-dasharray:3.0,3.0;"/><path d="M1772.1275,82.7019 L1773.2539,79.0084 L1770.0235,76.8928 L1778.3369,77.1673 L1772.1275,82.7019 " fill="#A80036" style="stroke:#A80036;stroke-width:1.0;"/><ellipse cx="1577" cy="268" fill="#A80036" rx="3" ry="3" style="stroke:#A80036;stroke-width:1.0;stroke-dasharray:3.0,3.0;"/><path d="M2090.5,140 L2103.5,140 C2190.0644,140 2291.6555,140 2345.6688,140 " fill="none" style="stroke:#A80036;stroke-width:1.0;stroke-dasharray:3.0,3.0;"/><path d="M2345.6688,143.0466 L2347.9537,140 L2345.6688,136.9534 L2353.2853,140 L2345.6688,143.0466 " fill="#A80036" style="stroke:#A80036;stroke-width:1.0;"/><ellipse cx="2090.5" cy="140" fill="#A80036" rx="3" ry="3" style="stroke:#A80036;stroke-width:1.0;stroke-dasharray:3.0,3.0;"/><path d="M1577,288 L1590,288 C1657.3814,288 1662.3158,243.0128 1726,221 C1786.6125,200.049 1857.1329,185.1156 1912.7992,175.387 " fill="none" style="stroke:#A80036;stroke-width:1.0;stroke-dasharray:3.0,3.0;"/><path d="M1913.3107,178.3493 L1915.0209,175.0033 L1912.2876,172.4247 L1920.205,174.108 L1913.3107,178.3493 " fill="#A80036" style="stroke:#A80036;stroke-width:1.0;"/><ellipse cx="1577" cy="288" fill="#A80036" rx="3" ry="3" style="stroke:#A80036;stroke-width:1.0;stroke-dasharray:3.0,3.0;"/><path d="M2273.5,373 L2286.5,373 C2299.235,373 2312.9056,373 2325.8621,373 " fill="none" style="stroke:#A80036;stroke-width:1.0;stroke-dasharray:3.0,3.0;"/><path d="M2325.8621,376.0134 L2328.1221,373 L2325.8621,369.9866 L2333.3956,373 L2325.8621,376.0134 " fill="#A80036" style="stroke:#A80036;stroke-width:1.0;"/><ellipse cx="2273.5" cy="373" fill="#A80036" rx="3" ry="3" style="stroke:#A80036;stroke-width:1.0;stroke-dasharray:3.0,3.0;"/><path d="M1577,308 L1590,308 C1635.1228,308 1682.9692,308 1729.5936,308 " fill="none" style="stroke:#A80036;stroke-width:1.0;stroke-dasharray:3.0,3.0;"/><path d="M1729.5936,311.1099 L1731.926,308 L1729.5936,304.8901 L1737.3684,308 L1729.5936,311.1099 " fill="#A80036" style="stroke:#A80036;stroke-width:1.0;"/><ellipse cx="1577" cy="308" fill="#A80036" rx="3" ry="3" style="stroke:#A80036;stroke-width:1.0;stroke-dasharray:3.0,3.0;"/><path d="M1577,329 L1590,329 C1637.8681,329 1648.0607,345.9251 1690,369 C1707.292,378.514 1708.0197,386.8613 1726,395 C1730.9979,397.2623 1736.082,399.4495 1741.2361,401.5639 " fill="none" style="stroke:#A80036;stroke-width:1.0;stroke-dasharray:3.0,3.0;"/><path d="M1740.1007,404.3919 L1743.3571,402.4154 L1742.3714,398.7358 L1748.3062,404.4023 L1740.1007,404.3919 " fill="#A80036" style="stroke:#A80036;stroke-width:1.0;"/><ellipse cx="1577" cy="329" fill="#A80036" rx="3" ry="3" style="stroke:#A80036;stroke-width:1.0;stroke-dasharray:3.0,3.0;"/><path d="M1577,350 L1590,350 C1635.2396,350 1657.3926,337.6412 1690,369 C1741.287,418.323 1675.5466,474.8247 1726,525 C1727.1106,526.1045 1728.2359,527.1916 1729.3753,528.2616 " fill="none" style="stroke:#A80036;stroke-width:1.0;stroke-dasharray:3.0,3.0;"/><path d="M1727.2918,530.5868 L1731.1193,529.8242 L1731.4589,525.9363 L1735.1885,533.4704 L1727.2918,530.5868 " fill="#A80036" style="stroke:#A80036;stroke-width:1.0;"/><ellipse cx="1577" cy="350" fill="#A80036" rx="3" ry="3" style="stroke:#A80036;stroke-width:1.0;stroke-dasharray:3.0,3.0;"/><path d="M1343,324 L1356,324 C1399.6862,324 1449.0145,319.7476 1485.5919,315.7711 " fill="none" style="stroke:#A80036;stroke-width:1.0;stroke-dasharray:3.0,3.0;"/><path d="M1485.929,318.8132 L1487.8735,315.5183 L1485.2549,312.7291 L1493.197,314.9284 L1485.929,318.8132 " fill="#A80036" style="stroke:#A80036;stroke-width:1.0;"/><ellipse cx="1343" cy="324" fill="#A80036" rx="3" ry="3" style="stroke:#A80036;stroke-width:1.0;stroke-dasharray:3.0,3.0;"/><path d="M1343,372 L1356,372 C1387.3335,372 1421.556,374.3313 1451.8964,377.2141 " fill="none" style="stroke:#A80036;stroke-width:1.0;stroke-dasharray:3.0,3.0;"/><path d="M1451.5989,380.2645 L1454.1842,377.4372 L1452.1939,374.1637 L1459.5223,377.9578 L1451.5989,380.2645 " fill="#A80036" style="stroke:#A80036;stroke-width:1.0;"/><ellipse cx="1343" cy="372" fill="#A80036" rx="3" ry="3" style="stroke:#A80036;stroke-width:1.0;stroke-dasharray:3.0,3.0;"/><path d="M482.5,324 L495.5,324 C590.6789,324 694.6588,324 787.9086,324 " fill="none" style="stroke:#A80036;stroke-width:1.0;stroke-dasharray:3.0,3.0;"/><path d="M787.9086,327.0208 L790.1742,324 L787.9086,320.9792 L795.4605,324 L787.9086,327.0208 " fill="#A80036" style="stroke:#A80036;stroke-width:1.0;"/><ellipse cx="482.5" cy="324" fill="#A80036" rx="3" ry="3" style="stroke:#A80036;stroke-width:1.0;stroke-dasharray:3.0,3.0;"/><path d="M95,300 L108,300 C124.1536,300 127.927,303.388 144,305 C234.5522,314.0817 340.6193,319.4998 401.25,322.1022 " fill="none" style="stroke:#A80036;stroke-width:1.0;stroke-dasharray:3.0,3.0;"/><path d="M401.1226,325.1124 L403.5077,322.1978 L401.3775,319.0921 L408.7754,322.4208 L401.1226,325.1124 " fill="#A80036" style="stroke:#A80036;stroke-width:1.0;"/><ellipse cx="95" cy="300" fill="#A80036" rx="3" ry="3" style="stroke:#A80036;stroke-width:1.0;stroke-dasharray:3.0,3.0;"/><!--MD5=[cb0e2e9ecb9b14efd20ed3ea47cfc442]
@startjson
{
  "info": {
    "copyright": "Copyright 2016-2019 Open Connectivity Foundation, Inc. All rights reserved.",
    "license": "https://github.com/one-data-model/oneDM/blob/master/LICENSE",
    "title": "Glucose",
    "version": "2019-03-22"
  },
  "sdfObject": {
    "glucose": {
      "description": "This Resource describes the Properties associated with a person's\\nglucose level. The unit is a single value that is one of mg/dL,\\nmmol/L. If the unit Property is missing the default is milligrams per\\ndecilitre [mg/dL]. The glucose and unit Properties are read-only\\nvalues that are provided by the Server. When range is omitted the\\ndefault is 0 to +MAXFLOAT.",
      "sdfProperty": {
        "glucose": {
          "description": "A measurement of glucose concentration in the blood",
          "minimum": 0,
          "writable": false,
          "type": "number"
        },
        "units": {
          "description": "Glucose unit",
          "enum": [
            "mg/dL",
            "mmol/L"
          ],
          "writable": false,
          "type": "string",
          "default": "mg/dL"
        },
        "range": {
          "type": "array",
          "description": "The valid range for the Property in the Resource as a number. The\\nfirst value in the array is the minimum value, the second value in\\nthe array is the maximum value.",
          "writable": false,
          "minItems": 2,
          "maxItems": 2,
          "items": {
            "type": "number"
          }
        },
        "step": {
          "description": "Step value across the defined range an integer when the range is a\\nnumber.  This is the increment for valid values across the range; so\\nif range is 0.0..10.0 and step is 2.5 then valid values are\\n0.0,2.5,5.0,7.5,10.0.",
          "writable": false,
          "type": "number"
        },
        "precision": {
          "type": "number",
          "writable": false,
          "description": "When exposed the value in 'precision' provides a +/- tolerance\\nagainst the Properties in the Resource. Thus if a Property is UPDATED\\nto a value and that Property then RETRIEVED, the RETRIEVED value is\\nvalid if in the range of the set value +/- precision"
        }
      },
      "sdfRequired": [
        "#/sdfObject/glucose/sdfProperty/glucose"
      ]
    }
  }
}
@endjson

PlantUML version 1.2021.2(Sun Mar 07 13:10:27 EET 2021)
(GPL source distribution)
Java Runtime: OpenJDK Runtime Environment
JVM: OpenJDK 64-Bit Server VM
Default Encoding: UTF-8
Language: en
Country: FI
--></g></svg>