<?xml version="1.0" encoding="UTF-8" standalone="no"?><svg xmlns="http://www.w3.org/2000/svg" xmlns:xlink="http://www.w3.org/1999/xlink" contentScriptType="application/ecmascript" contentStyleType="text/css" height="518px" preserveAspectRatio="none" style="width:2391px;height:518px;" version="1.1" viewBox="0 0 2391 518" width="2391px" zoomAndPan="magnify"><defs/><g><rect fill="#FEFECE" height="40.9766" rx="5" ry="5" style="stroke:#FEFECE;stroke-width:1.5;" width="97" x="10" y="188.5"/><text fill="#000000" font-family="sans-serif" font-size="14" lengthAdjust="spacing" textLength="27" x="15" y="204.0352">info</text><text fill="#000000" font-family="sans-serif" font-size="14" lengthAdjust="spacing" textLength="0" x="102" y="204.0352"/><line style="stroke:#A80036;stroke-width:1.0;" x1="85" x2="85" y1="188.5" y2="208.9883"/><line style="stroke:#A80036;stroke-width:1.0;" x1="10" x2="107" y1="208.9883" y2="208.9883"/><text fill="#000000" font-family="sans-serif" font-size="14" lengthAdjust="spacing" textLength="65" x="15" y="224.5234">sdfObject</text><text fill="#000000" font-family="sans-serif" font-size="14" lengthAdjust="spacing" textLength="0" x="102" y="224.5234"/><line style="stroke:#A80036;stroke-width:1.0;" x1="85" x2="85" y1="208.9883" y2="229.4766"/><rect fill="none" height="40.9766" rx="5" ry="5" style="stroke:#A80036;stroke-width:1.5;" width="97" x="10" y="188.5"/><rect fill="#FEFECE" height="81.9531" rx="5" ry="5" style="stroke:#FEFECE;stroke-width:1.5;" width="611" x="144" y="133"/><text fill="#000000" font-family="sans-serif" font-size="14" lengthAdjust="spacing" textLength="65" x="149" y="148.5352">copyright</text><text fill="#000000" font-family="sans-serif" font-size="14" lengthAdjust="spacing" textLength="526" x="224" y="148.5352">copyright 2018-2019 Open Connectivity Foundation, Inc. All rights reserved.</text><line style="stroke:#A80036;stroke-width:1.0;" x1="219" x2="219" y1="133" y2="153.4883"/><line style="stroke:#A80036;stroke-width:1.0;" x1="144" x2="755" y1="153.4883" y2="153.4883"/><text fill="#000000" font-family="sans-serif" font-size="14" lengthAdjust="spacing" textLength="47" x="149" y="169.0234">license</text><text fill="#000000" font-family="sans-serif" font-size="14" lengthAdjust="spacing" textLength="462" x="224" y="169.0234">https://github.com/one-data-model/oneDM/blob/master/LICENSE</text><line style="stroke:#A80036;stroke-width:1.0;" x1="219" x2="219" y1="153.4883" y2="173.9766"/><line style="stroke:#A80036;stroke-width:1.0;" x1="144" x2="755" y1="173.9766" y2="173.9766"/><text fill="#000000" font-family="sans-serif" font-size="14" lengthAdjust="spacing" textLength="26" x="149" y="189.5117">title</text><text fill="#000000" font-family="sans-serif" font-size="14" lengthAdjust="spacing" textLength="97" x="224" y="189.5117">Impact Sensor</text><line style="stroke:#A80036;stroke-width:1.0;" x1="219" x2="219" y1="173.9766" y2="194.4648"/><line style="stroke:#A80036;stroke-width:1.0;" x1="144" x2="755" y1="194.4648" y2="194.4648"/><text fill="#000000" font-family="sans-serif" font-size="14" lengthAdjust="spacing" textLength="50" x="149" y="210">version</text><text fill="#000000" font-family="sans-serif" font-size="14" lengthAdjust="spacing" textLength="88" x="224" y="210">2019-03-21</text><line style="stroke:#A80036;stroke-width:1.0;" x1="219" x2="219" y1="194.4648" y2="214.9531"/><rect fill="none" height="81.9531" rx="5" ry="5" style="stroke:#A80036;stroke-width:1.5;" width="611" x="144" y="133"/><rect fill="#FEFECE" height="20.4883" rx="5" ry="5" style="stroke:#FEFECE;stroke-width:1.5;" width="124" x="387.5" y="233"/><text fill="#000000" font-family="sans-serif" font-size="14" lengthAdjust="spacing" textLength="92" x="392.5" y="248.5352">impactsensor</text><text fill="#000000" font-family="sans-serif" font-size="14" lengthAdjust="spacing" textLength="0" x="506.5" y="248.5352"/><line style="stroke:#A80036;stroke-width:1.0;" x1="489.5" x2="489.5" y1="233" y2="253.4883"/><rect fill="none" height="20.4883" rx="5" ry="5" style="stroke:#A80036;stroke-width:1.5;" width="124" x="387.5" y="233"/><rect fill="#FEFECE" height="94.4414" rx="5" ry="5" style="stroke:#FEFECE;stroke-width:1.5;" width="567" x="792" y="196"/><text fill="#000000" font-family="sans-serif" font-size="14" lengthAdjust="spacing" textLength="77" x="797" y="211.5352">description</text><text fill="#000000" font-family="sans-serif" font-size="14" lengthAdjust="spacing" textLength="464" x="890" y="211.5352">This Resource provides a status and properties of an impact sensor.</text><text fill="#000000" font-family="sans-serif" font-size="14" lengthAdjust="spacing" textLength="431" x="890" y="228.0234">Included is the current status (boolean), horizontal and vertical</text><text fill="#000000" font-family="sans-serif" font-size="14" lengthAdjust="spacing" textLength="328" x="890" y="244.5117">direction (in degrees) and impact level (g force).</text><line style="stroke:#A80036;stroke-width:1.0;" x1="885" x2="885" y1="196" y2="249.4648"/><line style="stroke:#A80036;stroke-width:1.0;" x1="792" x2="1359" y1="249.4648" y2="249.4648"/><text fill="#000000" font-family="sans-serif" font-size="14" lengthAdjust="spacing" textLength="79" x="797" y="265">sdfProperty</text><text fill="#000000" font-family="sans-serif" font-size="14" lengthAdjust="spacing" textLength="0" x="902" y="265"/><line style="stroke:#A80036;stroke-width:1.0;" x1="885" x2="885" y1="249.4648" y2="269.9531"/><line style="stroke:#A80036;stroke-width:1.0;" x1="792" x2="1359" y1="269.9531" y2="269.9531"/><text fill="#000000" font-family="sans-serif" font-size="14" lengthAdjust="spacing" textLength="83" x="797" y="285.4883">sdfRequired</text><text fill="#000000" font-family="sans-serif" font-size="14" lengthAdjust="spacing" textLength="0" x="902" y="285.4883"/><line style="stroke:#A80036;stroke-width:1.0;" x1="885" x2="885" y1="269.9531" y2="290.4414"/><rect fill="none" height="94.4414" rx="5" ry="5" style="stroke:#A80036;stroke-width:1.5;" width="567" x="792" y="196"/><rect fill="#FEFECE" height="81.9531" rx="5" ry="5" style="stroke:#FEFECE;stroke-width:1.5;" width="210" x="1476" y="183"/><text fill="#000000" font-family="sans-serif" font-size="14" lengthAdjust="spacing" textLength="87" x="1481" y="198.5352">impactstatus</text><text fill="#000000" font-family="sans-serif" font-size="14" lengthAdjust="spacing" textLength="0" x="1681" y="198.5352"/><line style="stroke:#A80036;stroke-width:1.0;" x1="1664" x2="1664" y1="183" y2="203.4883"/><line style="stroke:#A80036;stroke-width:1.0;" x1="1476" x2="1686" y1="203.4883" y2="203.4883"/><text fill="#000000" font-family="sans-serif" font-size="14" lengthAdjust="spacing" textLength="77" x="1481" y="219.0234">impactlevel</text><text fill="#000000" font-family="sans-serif" font-size="14" lengthAdjust="spacing" textLength="0" x="1681" y="219.0234"/><line style="stroke:#A80036;stroke-width:1.0;" x1="1664" x2="1664" y1="203.4883" y2="223.9766"/><line style="stroke:#A80036;stroke-width:1.0;" x1="1476" x2="1686" y1="223.9766" y2="223.9766"/><text fill="#000000" font-family="sans-serif" font-size="14" lengthAdjust="spacing" textLength="178" x="1481" y="239.5117">impactdirectionhorizontal</text><text fill="#000000" font-family="sans-serif" font-size="14" lengthAdjust="spacing" textLength="0" x="1681" y="239.5117"/><line style="stroke:#A80036;stroke-width:1.0;" x1="1664" x2="1664" y1="223.9766" y2="244.4648"/><line style="stroke:#A80036;stroke-width:1.0;" x1="1476" x2="1686" y1="244.4648" y2="244.4648"/><text fill="#000000" font-family="sans-serif" font-size="14" lengthAdjust="spacing" textLength="156" x="1481" y="260">impactdirectionvertical</text><text fill="#000000" font-family="sans-serif" font-size="14" lengthAdjust="spacing" textLength="0" x="1681" y="260"/><line style="stroke:#A80036;stroke-width:1.0;" x1="1664" x2="1664" y1="244.4648" y2="264.9531"/><rect fill="none" height="81.9531" rx="5" ry="5" style="stroke:#A80036;stroke-width:1.5;" width="210" x="1476" y="183"/><rect fill="#FEFECE" height="94.4414" rx="5" ry="5" style="stroke:#FEFECE;stroke-width:1.5;" width="546" x="1818" y="10"/><text fill="#000000" font-family="sans-serif" font-size="14" lengthAdjust="spacing" textLength="29" x="1823" y="25.5352">type</text><text fill="#000000" font-family="sans-serif" font-size="14" lengthAdjust="spacing" textLength="56" x="1910" y="25.5352">boolean</text><line style="stroke:#A80036;stroke-width:1.0;" x1="1905" x2="1905" y1="10" y2="30.4883"/><line style="stroke:#A80036;stroke-width:1.0;" x1="1818" x2="2364" y1="30.4883" y2="30.4883"/><text fill="#000000" font-family="sans-serif" font-size="14" lengthAdjust="spacing" textLength="55" x="1823" y="46.0234">writable</text><text fill="#000000" font-family="sans-serif" font-size="14" lengthAdjust="spacing" textLength="48" x="1910" y="46.0234">☐ false</text><line style="stroke:#A80036;stroke-width:1.0;" x1="1905" x2="1905" y1="30.4883" y2="50.9766"/><line style="stroke:#A80036;stroke-width:1.0;" x1="1818" x2="2364" y1="50.9766" y2="50.9766"/><text fill="#000000" font-family="sans-serif" font-size="14" lengthAdjust="spacing" textLength="77" x="1823" y="66.5117">description</text><text fill="#000000" font-family="sans-serif" font-size="14" lengthAdjust="spacing" textLength="409" x="1910" y="66.5117">The "impactstatus" Property indicates the impact as: "true" A</text><text fill="#000000" font-family="sans-serif" font-size="14" lengthAdjust="spacing" textLength="449" x="1910" y="83">physical impact is detected, "false" Normal status, an impact is not</text><text fill="#000000" font-family="sans-serif" font-size="14" lengthAdjust="spacing" textLength="63" x="1910" y="99.4883">detected.</text><line style="stroke:#A80036;stroke-width:1.0;" x1="1905" x2="1905" y1="50.9766" y2="104.4414"/><rect fill="none" height="94.4414" rx="5" ry="5" style="stroke:#A80036;stroke-width:1.5;" width="546" x="1818" y="10"/><rect fill="#FEFECE" height="77.9531" rx="5" ry="5" style="stroke:#FEFECE;stroke-width:1.5;" width="548" x="1817" y="122"/><text fill="#000000" font-family="sans-serif" font-size="14" lengthAdjust="spacing" textLength="29" x="1822" y="137.5352">type</text><text fill="#000000" font-family="sans-serif" font-size="14" lengthAdjust="spacing" textLength="54" x="1909" y="137.5352">number</text><line style="stroke:#A80036;stroke-width:1.0;" x1="1904" x2="1904" y1="122" y2="142.4883"/><line style="stroke:#A80036;stroke-width:1.0;" x1="1817" x2="2365" y1="142.4883" y2="142.4883"/><text fill="#000000" font-family="sans-serif" font-size="14" lengthAdjust="spacing" textLength="55" x="1822" y="158.0234">writable</text><text fill="#000000" font-family="sans-serif" font-size="14" lengthAdjust="spacing" textLength="48" x="1909" y="158.0234">☐ false</text><line style="stroke:#A80036;stroke-width:1.0;" x1="1904" x2="1904" y1="142.4883" y2="162.9766"/><line style="stroke:#A80036;stroke-width:1.0;" x1="1817" x2="2365" y1="162.9766" y2="162.9766"/><text fill="#000000" font-family="sans-serif" font-size="14" lengthAdjust="spacing" textLength="77" x="1822" y="178.5117">description</text><text fill="#000000" font-family="sans-serif" font-size="14" lengthAdjust="spacing" textLength="451" x="1909" y="178.5117">The "impactlevel" Property provides the level of impact. The unit is</text><text fill="#000000" font-family="sans-serif" font-size="14" lengthAdjust="spacing" textLength="108" x="1909" y="195">in "G" (G-force).</text><line style="stroke:#A80036;stroke-width:1.0;" x1="1904" x2="1904" y1="162.9766" y2="199.9531"/><rect fill="none" height="77.9531" rx="5" ry="5" style="stroke:#A80036;stroke-width:1.5;" width="548" x="1817" y="122"/><rect fill="#FEFECE" height="135.418" rx="5" ry="5" style="stroke:#FEFECE;stroke-width:1.5;" width="576" x="1803" y="218.5"/><text fill="#000000" font-family="sans-serif" font-size="14" lengthAdjust="spacing" textLength="29" x="1808" y="234.0352">type</text><text fill="#000000" font-family="sans-serif" font-size="14" lengthAdjust="spacing" textLength="54" x="1895" y="234.0352">number</text><line style="stroke:#A80036;stroke-width:1.0;" x1="1890" x2="1890" y1="218.5" y2="238.9883"/><line style="stroke:#A80036;stroke-width:1.0;" x1="1803" x2="2379" y1="238.9883" y2="238.9883"/><text fill="#000000" font-family="sans-serif" font-size="14" lengthAdjust="spacing" textLength="55" x="1808" y="254.5234">writable</text><text fill="#000000" font-family="sans-serif" font-size="14" lengthAdjust="spacing" textLength="48" x="1895" y="254.5234">☐ false</text><line style="stroke:#A80036;stroke-width:1.0;" x1="1890" x2="1890" y1="238.9883" y2="259.4766"/><line style="stroke:#A80036;stroke-width:1.0;" x1="1803" x2="2379" y1="259.4766" y2="259.4766"/><text fill="#000000" font-family="sans-serif" font-size="14" lengthAdjust="spacing" textLength="77" x="1808" y="275.0117">description</text><text fill="#000000" font-family="sans-serif" font-size="14" lengthAdjust="spacing" textLength="479" x="1895" y="275.0117">The "impactdirectionhorizontal" Property shows a horizontal direction</text><text fill="#000000" font-family="sans-serif" font-size="14" lengthAdjust="spacing" textLength="471" x="1895" y="291.5">where the impact comes from. The value is 0 to 360 degrees. 0 is the</text><text fill="#000000" font-family="sans-serif" font-size="14" lengthAdjust="spacing" textLength="304" x="1895" y="307.9883">front of the sensor and clockwise increment.</text><line style="stroke:#A80036;stroke-width:1.0;" x1="1890" x2="1890" y1="259.4766" y2="312.9414"/><line style="stroke:#A80036;stroke-width:1.0;" x1="1803" x2="2379" y1="312.9414" y2="312.9414"/><text fill="#000000" font-family="sans-serif" font-size="14" lengthAdjust="spacing" textLength="65" x="1808" y="328.4766">minimum</text><text fill="#000000" font-family="sans-serif" font-size="14" lengthAdjust="spacing" textLength="9" x="1895" y="328.4766">0</text><line style="stroke:#A80036;stroke-width:1.0;" x1="1890" x2="1890" y1="312.9414" y2="333.4297"/><line style="stroke:#A80036;stroke-width:1.0;" x1="1803" x2="2379" y1="333.4297" y2="333.4297"/><text fill="#000000" font-family="sans-serif" font-size="14" lengthAdjust="spacing" textLength="69" x="1808" y="348.9648">maximum</text><text fill="#000000" font-family="sans-serif" font-size="14" lengthAdjust="spacing" textLength="27" x="1895" y="348.9648">360</text><line style="stroke:#A80036;stroke-width:1.0;" x1="1890" x2="1890" y1="333.4297" y2="353.918"/><rect fill="none" height="135.418" rx="5" ry="5" style="stroke:#A80036;stroke-width:1.5;" width="576" x="1803" y="218.5"/><rect fill="#FEFECE" height="135.418" rx="5" ry="5" style="stroke:#FEFECE;stroke-width:1.5;" width="568" x="1807" y="371.5"/><text fill="#000000" font-family="sans-serif" font-size="14" lengthAdjust="spacing" textLength="29" x="1812" y="387.0352">type</text><text fill="#000000" font-family="sans-serif" font-size="14" lengthAdjust="spacing" textLength="54" x="1899" y="387.0352">number</text><line style="stroke:#A80036;stroke-width:1.0;" x1="1894" x2="1894" y1="371.5" y2="391.9883"/><line style="stroke:#A80036;stroke-width:1.0;" x1="1807" x2="2375" y1="391.9883" y2="391.9883"/><text fill="#000000" font-family="sans-serif" font-size="14" lengthAdjust="spacing" textLength="55" x="1812" y="407.5234">writable</text><text fill="#000000" font-family="sans-serif" font-size="14" lengthAdjust="spacing" textLength="48" x="1899" y="407.5234">☐ false</text><line style="stroke:#A80036;stroke-width:1.0;" x1="1894" x2="1894" y1="391.9883" y2="412.4766"/><line style="stroke:#A80036;stroke-width:1.0;" x1="1807" x2="2375" y1="412.4766" y2="412.4766"/><text fill="#000000" font-family="sans-serif" font-size="14" lengthAdjust="spacing" textLength="77" x="1812" y="428.0117">description</text><text fill="#000000" font-family="sans-serif" font-size="14" lengthAdjust="spacing" textLength="435" x="1899" y="428.0117">The "impactdirectionvertical" Property shows a vertical direction</text><text fill="#000000" font-family="sans-serif" font-size="14" lengthAdjust="spacing" textLength="471" x="1899" y="444.5">where the impact comes from. The value is 0 to 360 degrees. 0 is the</text><text fill="#000000" font-family="sans-serif" font-size="14" lengthAdjust="spacing" textLength="291" x="1899" y="460.9883">front of the sensor and upward increment.</text><line style="stroke:#A80036;stroke-width:1.0;" x1="1894" x2="1894" y1="412.4766" y2="465.9414"/><line style="stroke:#A80036;stroke-width:1.0;" x1="1807" x2="2375" y1="465.9414" y2="465.9414"/><text fill="#000000" font-family="sans-serif" font-size="14" lengthAdjust="spacing" textLength="65" x="1812" y="481.4766">minimum</text><text fill="#000000" font-family="sans-serif" font-size="14" lengthAdjust="spacing" textLength="9" x="1899" y="481.4766">0</text><line style="stroke:#A80036;stroke-width:1.0;" x1="1894" x2="1894" y1="465.9414" y2="486.4297"/><line style="stroke:#A80036;stroke-width:1.0;" x1="1807" x2="2375" y1="486.4297" y2="486.4297"/><text fill="#000000" font-family="sans-serif" font-size="14" lengthAdjust="spacing" textLength="69" x="1812" y="501.9648">maximum</text><text fill="#000000" font-family="sans-serif" font-size="14" lengthAdjust="spacing" textLength="27" x="1899" y="501.9648">360</text><line style="stroke:#A80036;stroke-width:1.0;" x1="1894" x2="1894" y1="486.4297" y2="506.918"/><rect fill="none" height="135.418" rx="5" ry="5" style="stroke:#A80036;stroke-width:1.5;" width="568" x="1807" y="371.5"/><rect fill="#FEFECE" height="20.4883" rx="5" ry="5" style="stroke:#FEFECE;stroke-width:1.5;" width="370" x="1396" y="283"/><text fill="#000000" font-family="sans-serif" font-size="14" lengthAdjust="spacing" textLength="360" x="1401" y="298.5352">#/sdfObject/impactsensor/sdfProperty/impactstatus</text><rect fill="none" height="20.4883" rx="5" ry="5" style="stroke:#A80036;stroke-width:1.5;" width="370" x="1396" y="283"/><path d="M95,198 L108,198 C117.3658,198 126.8728,197.9088 136.4679,197.7376 " fill="none" style="stroke:#A80036;stroke-width:1.0;stroke-dasharray:3.0,3.0;"/><path d="M136.5296,200.8228 L138.7818,197.6914 L136.4062,194.6524 L144.1809,197.5834 L136.5296,200.8228 " fill="#A80036" style="stroke:#A80036;stroke-width:1.0;"/><ellipse cx="95" cy="198" fill="#A80036" rx="3" ry="3" style="stroke:#A80036;stroke-width:1.0;stroke-dasharray:3.0,3.0;"/><path d="M1674.5,193 L1687.5,193 C1749.9444,193 1745.4623,137.2636 1803,113 C1808.1541,110.8265 1813.3961,108.7364 1818.7089,106.7266 " fill="none" style="stroke:#A80036;stroke-width:1.0;stroke-dasharray:3.0,3.0;"/><path d="M1819.7854,109.6414 L1820.895,105.9192 L1817.6324,103.8118 L1825.9959,104.0353 L1819.7854,109.6414 " fill="#A80036" style="stroke:#A80036;stroke-width:1.0;"/><ellipse cx="1674.5" cy="193" fill="#A80036" rx="3" ry="3" style="stroke:#A80036;stroke-width:1.0;stroke-dasharray:3.0,3.0;"/><path d="M1674.5,213 L1687.5,213 C1743.8742,213 1804.3223,207.933 1860.8077,200.9625 " fill="none" style="stroke:#A80036;stroke-width:1.0;stroke-dasharray:3.0,3.0;"/><path d="M1861.1878,203.9959 L1863.0828,200.6774 L1860.4277,197.929 L1868.3913,200.0123 L1861.1878,203.9959 " fill="#A80036" style="stroke:#A80036;stroke-width:1.0;"/><ellipse cx="1674.5" cy="213" fill="#A80036" rx="3" ry="3" style="stroke:#A80036;stroke-width:1.0;stroke-dasharray:3.0,3.0;"/><path d="M1674.5,234 L1687.5,234 C1722.5708,234 1759.2183,235.961 1795.5074,239.1214 " fill="none" style="stroke:#A80036;stroke-width:1.0;stroke-dasharray:3.0,3.0;"/><path d="M1795.2305,242.2164 L1797.8287,239.3291 L1795.7843,236.0263 L1803.245,239.8137 L1795.2305,242.2164 " fill="#A80036" style="stroke:#A80036;stroke-width:1.0;"/><ellipse cx="1674.5" cy="234" fill="#A80036" rx="3" ry="3" style="stroke:#A80036;stroke-width:1.0;stroke-dasharray:3.0,3.0;"/><path d="M1674.5,255 L1687.5,255 C1723.8284,255 1739.4619,250.3059 1767,274 C1799.3444,301.8295 1770.9896,334.7869 1803,363 C1804.3374,364.1788 1805.6911,365.3396 1807.0603,366.4827 " fill="none" style="stroke:#A80036;stroke-width:1.0;stroke-dasharray:3.0,3.0;"/><path d="M1805.1005,368.9231 L1808.8906,367.9525 L1809.0201,364.0423 L1813.1613,371.3822 L1805.1005,368.9231 " fill="#A80036" style="stroke:#A80036;stroke-width:1.0;"/><ellipse cx="1674.5" cy="255" fill="#A80036" rx="3" ry="3" style="stroke:#A80036;stroke-width:1.0;stroke-dasharray:3.0,3.0;"/><path d="M1347,242 L1360,242 C1395.3509,242 1433.7844,239.6733 1468.5145,236.693 " fill="none" style="stroke:#A80036;stroke-width:1.0;stroke-dasharray:3.0,3.0;"/><path d="M1468.7892,239.8183 L1470.8585,236.487 L1468.2398,233.5676 L1476.3279,236.0063 L1468.7892,239.8183 " fill="#A80036" style="stroke:#A80036;stroke-width:1.0;"/><ellipse cx="1347" cy="242" fill="#A80036" rx="3" ry="3" style="stroke:#A80036;stroke-width:1.0;stroke-dasharray:3.0,3.0;"/><path d="M1347,274 L1360,274 C1404.6721,274 1454.2477,277.9189 1495.059,282.1971 " fill="none" style="stroke:#A80036;stroke-width:1.0;stroke-dasharray:3.0,3.0;"/><path d="M1494.7381,285.2032 L1497.3135,282.4377 L1495.3798,279.191 L1502.5742,282.9992 L1494.7381,285.2032 " fill="#A80036" style="stroke:#A80036;stroke-width:1.0;"/><ellipse cx="1347" cy="274" fill="#A80036" rx="3" ry="3" style="stroke:#A80036;stroke-width:1.0;stroke-dasharray:3.0,3.0;"/><path d="M500,243 L513,243 C601.2883,243 697.3784,243 784.7242,243 " fill="none" style="stroke:#A80036;stroke-width:1.0;stroke-dasharray:3.0,3.0;"/><path d="M784.7242,246.0458 L787.0086,243 L784.7242,239.9542 L792.3388,243 L784.7242,246.0458 " fill="#A80036" style="stroke:#A80036;stroke-width:1.0;"/><ellipse cx="500" cy="243" fill="#A80036" rx="3" ry="3" style="stroke:#A80036;stroke-width:1.0;stroke-dasharray:3.0,3.0;"/><path d="M95,219 L108,219 C124.1536,219 127.9273,222.3856 144,224 C224.8706,232.1231 318.1763,237.3283 380.0729,240.1988 " fill="none" style="stroke:#A80036;stroke-width:1.0;stroke-dasharray:3.0,3.0;"/><path d="M379.9307,243.3052 L382.4028,240.3054 L380.2151,237.0923 L387.8391,240.5543 L379.9307,243.3052 " fill="#A80036" style="stroke:#A80036;stroke-width:1.0;"/><ellipse cx="95" cy="219" fill="#A80036" rx="3" ry="3" style="stroke:#A80036;stroke-width:1.0;stroke-dasharray:3.0,3.0;"/><!--MD5=[c66564ab62d810052b0a6beee7f935ca]
@startjson
{
  "info": {
    "copyright": "copyright 2018-2019 Open Connectivity Foundation, Inc. All rights reserved.",
    "license": "https://github.com/one-data-model/oneDM/blob/master/LICENSE",
    "title": "Impact Sensor",
    "version": "2019-03-21"
  },
  "sdfObject": {
    "impactsensor": {
      "description": "This Resource provides a status and properties of an impact sensor.\\nIncluded is the current status (boolean), horizontal and vertical\\ndirection (in degrees) and impact level (g force).",
      "sdfProperty": {
        "impactstatus": {
          "type": "boolean",
          "writable": false,
          "description": "The \"impactstatus\" Property indicates the impact as: \"true\" A\\nphysical impact is detected, \"false\" Normal status, an impact is not\\ndetected."
        },
        "impactlevel": {
          "type": "number",
          "writable": false,
          "description": "The \"impactlevel\" Property provides the level of impact. The unit is\\nin \"G\" (G-force)."
        },
        "impactdirectionhorizontal": {
          "type": "number",
          "writable": false,
          "description": "The \"impactdirectionhorizontal\" Property shows a horizontal direction\\nwhere the impact comes from. The value is 0 to 360 degrees. 0 is the\\nfront of the sensor and clockwise increment.",
          "minimum": 0,
          "maximum": 360
        },
        "impactdirectionvertical": {
          "type": "number",
          "writable": false,
          "description": "The \"impactdirectionvertical\" Property shows a vertical direction\\nwhere the impact comes from. The value is 0 to 360 degrees. 0 is the\\nfront of the sensor and upward increment.",
          "minimum": 0,
          "maximum": 360
        }
      },
      "sdfRequired": [
        "#/sdfObject/impactsensor/sdfProperty/impactstatus"
      ]
    }
  }
}
@endjson

PlantUML version 1.2021.2(Sun Mar 07 13:10:27 EET 2021)
(GPL source distribution)
Java Runtime: OpenJDK Runtime Environment
JVM: OpenJDK 64-Bit Server VM
Default Encoding: UTF-8
Language: en
Country: FI
--></g></svg>